<?xml version="1.0" encoding="UTF-8" standalone="no"?>
<svg width="595.44px" height="841.68px" viewBox="0 0 595.44 841.68"
 xmlns="http://www.w3.org/2000/svg" xmlns:xlink="http://www.w3.org/1999/xlink" version="1.2" baseProfile="tiny">
<title>Guitar Scales and Arpeggios</title>
<desc>Generated by MuseScore 2.1.0</desc>
<polyline class="StaffLines" fill="none" stroke="#000000" stroke-width="0.40" stroke-linejoin="bevel" points="28.08,62.856 567.36,62.856"/>
<polyline class="StaffLines" fill="none" stroke="#000000" stroke-width="0.40" stroke-linejoin="bevel" points="28.08,67.824 567.36,67.824"/>
<polyline class="StaffLines" fill="none" stroke="#000000" stroke-width="0.40" stroke-linejoin="bevel" points="28.08,72.792 567.36,72.792"/>
<polyline class="StaffLines" fill="none" stroke="#000000" stroke-width="0.40" stroke-linejoin="bevel" points="28.08,77.76 567.36,77.76"/>
<polyline class="StaffLines" fill="none" stroke="#000000" stroke-width="0.40" stroke-linejoin="bevel" points="28.08,82.728 567.36,82.728"/>
<polyline class="StaffLines" fill="none" stroke="#000000" stroke-width="0.40" stroke-linejoin="bevel" points="28.08,115.02 567.36,115.02"/>
<polyline class="StaffLines" fill="none" stroke="#000000" stroke-width="0.40" stroke-linejoin="bevel" points="28.08,122.472 567.36,122.472"/>
<polyline class="StaffLines" fill="none" stroke="#000000" stroke-width="0.40" stroke-linejoin="bevel" points="28.08,129.924 567.36,129.924"/>
<polyline class="StaffLines" fill="none" stroke="#000000" stroke-width="0.40" stroke-linejoin="bevel" points="28.08,137.376 567.36,137.376"/>
<polyline class="StaffLines" fill="none" stroke="#000000" stroke-width="0.40" stroke-linejoin="bevel" points="28.08,144.828 567.36,144.828"/>
<polyline class="StaffLines" fill="none" stroke="#000000" stroke-width="0.40" stroke-linejoin="bevel" points="28.08,152.28 567.36,152.28"/>
<polyline class="BarLine" fill="none" stroke="#000000" stroke-width="0.79" stroke-linejoin="bevel" points="28.4774,62.856 28.4774,152.28"/>
<polyline class="BarLine" fill="none" stroke="#000000" stroke-width="0.79" stroke-linejoin="bevel" points="562.491,115.02 562.491,152.28"/>
<polyline class="BarLine" fill="none" stroke="#000000" stroke-width="2.48" stroke-linejoin="bevel" points="566.118,115.02 566.118,152.28"/>
<polyline class="BarLine" fill="none" stroke="#000000" stroke-width="0.79" stroke-linejoin="bevel" points="562.491,62.856 562.491,82.728"/>
<polyline class="BarLine" fill="none" stroke="#000000" stroke-width="2.48" stroke-linejoin="bevel" points="566.118,62.856 566.118,82.728"/>
<polyline class="Stem" fill="none" stroke="#000000" stroke-width="0.65" stroke-linecap="round" stroke-linejoin="bevel" points="484.972,74.5129 484.972,59.13"/>
<polyline class="Stem" fill="none" stroke="#000000" stroke-width="0.65" stroke-linecap="round" stroke-linejoin="bevel" points="426.699,73.7251 426.699,88.317"/>
<polyline class="Stem" fill="none" stroke="#000000" stroke-width="0.65" stroke-linecap="round" stroke-linejoin="bevel" points="374.5,71.2411 374.5,86.454"/>
<polyline class="Stem" fill="none" stroke="#000000" stroke-width="0.65" stroke-linecap="round" stroke-linejoin="bevel" points="322.301,68.7571 322.301,84.591"/>
<polyline class="Stem" fill="none" stroke="#000000" stroke-width="0.65" stroke-linecap="round" stroke-linejoin="bevel" points="270.102,66.2731 270.102,82.728"/>
<polyline class="Stem" fill="none" stroke="#000000" stroke-width="0.65" stroke-linecap="round" stroke-linejoin="bevel" points="217.903,68.7571 217.903,84.591"/>
<polyline class="Stem" fill="none" stroke="#000000" stroke-width="0.65" stroke-linecap="round" stroke-linejoin="bevel" points="165.704,71.2411 165.704,86.454"/>
<polyline class="Stem" fill="none" stroke="#000000" stroke-width="0.65" stroke-linecap="round" stroke-linejoin="bevel" points="113.505,73.7251 113.505,88.317"/>
<polyline class="Stem" fill="none" stroke="#000000" stroke-width="0.65" stroke-linecap="round" stroke-linejoin="bevel" points="67.2007,74.3429 67.2007,59.13"/>
<path class="Note" fill="#ffffff" fill-rule="evenodd" d="M479.321,126.198 L485.282,126.198 L485.282,133.65 L479.321,133.65 L479.321,126.198 "/>
<path class="Note" transform="matrix(0.9936,0,0,0.9936,479.817,133.402)" d="M0.453125,-4.17188 C0.494792,-5.64063 1.19792,-6.38021 2.5625,-6.39063 C3.28125,-6.39063 3.83333,-6.14583 4.21875,-5.65625 C4.46875,-5.32292 4.59375,-4.93229 4.59375,-4.48438 C4.59375,-3.68229 4.14583,-3.03125 3.25,-2.53125 L2.34375,-2.04688 C1.79167,-1.75521 1.44271,-1.4375 1.29688,-1.09375 C1.24479,-0.989583 1.21354,-0.869792 1.20313,-0.734375 L4.5625,-0.734375 L4.5625,0 L0.3125,0 C0.354167,-0.760417 0.520833,-1.33854 0.8125,-1.73438 C1.07292,-2.05729 1.5,-2.38542 2.09375,-2.71875 L2.92188,-3.1875 C3.49479,-3.52083 3.78646,-3.94271 3.79688,-4.45313 C3.79688,-4.88021 3.61458,-5.21354 3.25,-5.45313 C3.04167,-5.57813 2.80208,-5.64063 2.53125,-5.64063 C1.73958,-5.64063 1.3125,-5.16667 1.25,-4.21875 C1.25,-4.19792 1.25,-4.18229 1.25,-4.17188 L0.453125,-4.17188 "/>
<path class="Note" fill="#cc00ff" transform="matrix(0.9936,0,0,0.9936,478.396,75.276)" d="M6.3125,-1.3125 C6.3125,-1.53125 6.22917,-1.71875 6.0625,-1.875 C5.88542,-2.04167 5.6875,-2.125 5.46875,-2.125 C5.08333,-2.125 4.29688,-1.73438 3.10938,-0.953125 C1.88021,-0.161458 1.13021,0.40625 0.859375,0.75 C0.713542,0.927083 0.640625,1.11458 0.640625,1.3125 C0.640625,1.53125 0.729167,1.71875 0.90625,1.875 C1.0625,2.04167 1.25521,2.125 1.48438,2.125 C1.85938,2.125 2.65625,1.73438 3.875,0.953125 C5.07292,0.171875 5.8125,-0.395833 6.09375,-0.75 C6.23958,-0.916667 6.3125,-1.10417 6.3125,-1.3125 M5.28125,-2.75 C6.39583,-2.75 6.95313,-2.27083 6.95313,-1.3125 C6.95313,-0.84375 6.81771,-0.296875 6.54688,0.328125 C6.27604,0.942708 5.91146,1.41146 5.45313,1.73438 C4.45313,2.41146 3.19792,2.75 1.6875,2.75 C0.5625,2.75 0,2.27083 0,1.3125 C0,0.885417 0.135417,0.34375 0.40625,-0.3125 C0.666667,-0.9375 1.03125,-1.41146 1.5,-1.73438 C2.51042,-2.41146 3.77083,-2.75 5.28125,-2.75"/>
<path class="Note" fill="#ffffff" fill-rule="evenodd" d="M427.122,118.746 L433.083,118.746 L433.083,126.198 L427.122,126.198 L427.122,118.746 "/>
<path class="Note" transform="matrix(0.9936,0,0,0.9936,427.618,125.95)" d="M0.390625,-3.09375 C0.390625,-5 0.927083,-6.07813 2,-6.32813 C2.14583,-6.36979 2.30208,-6.39063 2.46875,-6.39063 C3.78125,-6.39063 4.47917,-5.40104 4.5625,-3.42188 C4.5625,-3.28646 4.5625,-3.15625 4.5625,-3.03125 C4.5625,-1.40625 4.15104,-0.385417 3.32813,0.03125 C3.06771,0.145833 2.78125,0.203125 2.46875,0.203125 C1.41667,0.203125 0.760417,-0.442708 0.5,-1.73438 C0.427083,-2.14063 0.390625,-2.59375 0.390625,-3.09375 M2.46875,-5.64063 C1.625,-5.63021 1.20313,-4.77083 1.20313,-3.0625 C1.20313,-1.32292 1.61979,-0.453125 2.45313,-0.453125 C3.16146,-0.453125 3.57813,-1.02604 3.70313,-2.17188 C3.73438,-2.44271 3.75,-2.75 3.75,-3.09375 C3.75,-4.79167 3.32292,-5.64063 2.46875,-5.64063"/>
<path class="Note" fill="#ff9ee6" transform="matrix(0.9936,0,0,0.9936,426.376,72.792)" d="M4.39063,-2.75 C5.01563,-2.75 5.54688,-2.58854 5.98438,-2.26563 C6.38021,-1.91146 6.57813,-1.46875 6.57813,-0.9375 C6.57813,-0.0416667 6.11979,0.796875 5.20313,1.57813 C4.26563,2.35938 3.26042,2.75 2.1875,2.75 C1.5625,2.75 1.03646,2.58854 0.609375,2.26563 C0.203125,1.91146 0,1.46875 0,0.9375 C0,0.0416667 0.46875,-0.796875 1.40625,-1.57813 C2.32292,-2.35938 3.31771,-2.75 4.39063,-2.75"/>
<path class="Note" fill="#ffffff" fill-rule="evenodd" d="M374.922,118.746 L380.884,118.746 L380.884,126.198 L374.922,126.198 L374.922,118.746 "/>
<path class="Note" transform="matrix(0.9936,0,0,0.9936,375.419,125.95)" d="M2.32813,-4.54688 L0.921875,-4.54688 L0.921875,-5.10938 C1.53646,-5.19271 1.93229,-5.30208 2.10938,-5.4375 C2.28646,-5.57292 2.4375,-5.85417 2.5625,-6.28125 C2.57292,-6.3125 2.58854,-6.34896 2.60938,-6.39063 L3.125,-6.39063 L3.125,0 L2.32813,0 L2.32813,-4.54688 "/>
<path class="Note" fill="#ed2929" transform="matrix(0.9936,0,0,0.9936,374.177,70.308)" d="M4.39063,-2.75 C5.01563,-2.75 5.54688,-2.58854 5.98438,-2.26563 C6.38021,-1.91146 6.57813,-1.46875 6.57813,-0.9375 C6.57813,-0.0416667 6.11979,0.796875 5.20313,1.57813 C4.26563,2.35938 3.26042,2.75 2.1875,2.75 C1.5625,2.75 1.03646,2.58854 0.609375,2.26563 C0.203125,1.91146 0,1.46875 0,0.9375 C0,0.0416667 0.46875,-0.796875 1.40625,-1.57813 C2.32292,-2.35938 3.31771,-2.75 4.39063,-2.75"/>
<path class="Note" fill="#ffffff" fill-rule="evenodd" d="M322.723,118.746 L328.685,118.746 L328.685,126.198 L322.723,126.198 L322.723,118.746 "/>
<path class="Note" transform="matrix(0.9936,0,0,0.9936,323.22,125.95)" d="M2.4375,-5.64063 C1.75,-5.64063 1.35417,-5.32813 1.25,-4.70313 C1.22917,-4.59896 1.21875,-4.47917 1.21875,-4.34375 L0.421875,-4.34375 C0.442708,-5.59375 1.01563,-6.27083 2.14063,-6.375 C2.23438,-6.38542 2.32813,-6.39063 2.42188,-6.39063 C3.26563,-6.39063 3.84375,-6.10938 4.15625,-5.54688 C4.29167,-5.28646 4.35938,-4.98438 4.35938,-4.64063 C4.35938,-4.00521 4.0625,-3.57292 3.46875,-3.34375 C4.03125,-3.14583 4.375,-2.81771 4.5,-2.35938 C4.54167,-2.19271 4.5625,-2.00521 4.5625,-1.79688 C4.5625,-1.05729 4.27604,-0.505208 3.70313,-0.140625 C3.33854,0.0885417 2.90104,0.203125 2.39063,0.203125 C1.21354,0.203125 0.526042,-0.348958 0.328125,-1.45313 C0.317708,-1.57813 0.302083,-1.71354 0.28125,-1.85938 L1.07813,-1.85938 C1.13021,-1.08854 1.46875,-0.65625 2.09375,-0.5625 C2.19792,-0.541667 2.30729,-0.53125 2.42188,-0.53125 C3.04688,-0.53125 3.45313,-0.765625 3.64063,-1.23438 C3.71354,-1.40104 3.75,-1.58854 3.75,-1.79688 C3.73958,-2.54688 3.29688,-2.92708 2.42188,-2.9375 L2.09375,-2.92188 L1.98438,-2.92188 L1.98438,-3.67188 C2.66146,-3.68229 3.10417,-3.77604 3.3125,-3.95313 C3.47917,-4.09896 3.5625,-4.31771 3.5625,-4.60938 C3.5625,-5.09896 3.34896,-5.41667 2.92188,-5.5625 C2.77604,-5.61458 2.61458,-5.64063 2.4375,-5.64063"/>
<path class="Note" fill="#78c7c7" transform="matrix(0.9936,0,0,0.9936,321.978,67.824)" d="M4.39063,-2.75 C5.01563,-2.75 5.54688,-2.58854 5.98438,-2.26563 C6.38021,-1.91146 6.57813,-1.46875 6.57813,-0.9375 C6.57813,-0.0416667 6.11979,0.796875 5.20313,1.57813 C4.26563,2.35938 3.26042,2.75 2.1875,2.75 C1.5625,2.75 1.03646,2.58854 0.609375,2.26563 C0.203125,1.91146 0,1.46875 0,0.9375 C0,0.0416667 0.46875,-0.796875 1.40625,-1.57813 C2.32292,-2.35938 3.31771,-2.75 4.39063,-2.75"/>
<path class="Note" fill="#ffffff" fill-rule="evenodd" d="M270.524,111.294 L276.486,111.294 L276.486,118.746 L270.524,118.746 L270.524,111.294 "/>
<path class="Note" transform="matrix(0.9936,0,0,0.9936,271.021,118.498)" d="M0.390625,-3.09375 C0.390625,-5 0.927083,-6.07813 2,-6.32813 C2.14583,-6.36979 2.30208,-6.39063 2.46875,-6.39063 C3.78125,-6.39063 4.47917,-5.40104 4.5625,-3.42188 C4.5625,-3.28646 4.5625,-3.15625 4.5625,-3.03125 C4.5625,-1.40625 4.15104,-0.385417 3.32813,0.03125 C3.06771,0.145833 2.78125,0.203125 2.46875,0.203125 C1.41667,0.203125 0.760417,-0.442708 0.5,-1.73438 C0.427083,-2.14063 0.390625,-2.59375 0.390625,-3.09375 M2.46875,-5.64063 C1.625,-5.63021 1.20313,-4.77083 1.20313,-3.0625 C1.20313,-1.32292 1.61979,-0.453125 2.45313,-0.453125 C3.16146,-0.453125 3.57813,-1.02604 3.70313,-2.17188 C3.73438,-2.44271 3.75,-2.75 3.75,-3.09375 C3.75,-4.79167 3.32292,-5.64063 2.46875,-5.64063"/>
<path class="Note" fill="#ff9933" transform="matrix(0.9936,0,0,0.9936,269.779,65.34)" d="M4.39063,-2.75 C5.01563,-2.75 5.54688,-2.58854 5.98438,-2.26563 C6.38021,-1.91146 6.57813,-1.46875 6.57813,-0.9375 C6.57813,-0.0416667 6.11979,0.796875 5.20313,1.57813 C4.26563,2.35938 3.26042,2.75 2.1875,2.75 C1.5625,2.75 1.03646,2.58854 0.609375,2.26563 C0.203125,1.91146 0,1.46875 0,0.9375 C0,0.0416667 0.46875,-0.796875 1.40625,-1.57813 C2.32292,-2.35938 3.31771,-2.75 4.39063,-2.75"/>
<path class="Note" fill="#ffffff" fill-rule="evenodd" d="M218.325,118.746 L224.287,118.746 L224.287,126.198 L218.325,126.198 L218.325,118.746 "/>
<path class="Note" transform="matrix(0.9936,0,0,0.9936,218.822,125.95)" d="M2.4375,-5.64063 C1.75,-5.64063 1.35417,-5.32813 1.25,-4.70313 C1.22917,-4.59896 1.21875,-4.47917 1.21875,-4.34375 L0.421875,-4.34375 C0.442708,-5.59375 1.01563,-6.27083 2.14063,-6.375 C2.23438,-6.38542 2.32813,-6.39063 2.42188,-6.39063 C3.26563,-6.39063 3.84375,-6.10938 4.15625,-5.54688 C4.29167,-5.28646 4.35938,-4.98438 4.35938,-4.64063 C4.35938,-4.00521 4.0625,-3.57292 3.46875,-3.34375 C4.03125,-3.14583 4.375,-2.81771 4.5,-2.35938 C4.54167,-2.19271 4.5625,-2.00521 4.5625,-1.79688 C4.5625,-1.05729 4.27604,-0.505208 3.70313,-0.140625 C3.33854,0.0885417 2.90104,0.203125 2.39063,0.203125 C1.21354,0.203125 0.526042,-0.348958 0.328125,-1.45313 C0.317708,-1.57813 0.302083,-1.71354 0.28125,-1.85938 L1.07813,-1.85938 C1.13021,-1.08854 1.46875,-0.65625 2.09375,-0.5625 C2.19792,-0.541667 2.30729,-0.53125 2.42188,-0.53125 C3.04688,-0.53125 3.45313,-0.765625 3.64063,-1.23438 C3.71354,-1.40104 3.75,-1.58854 3.75,-1.79688 C3.73958,-2.54688 3.29688,-2.92708 2.42188,-2.9375 L2.09375,-2.92188 L1.98438,-2.92188 L1.98438,-3.67188 C2.66146,-3.68229 3.10417,-3.77604 3.3125,-3.95313 C3.47917,-4.09896 3.5625,-4.31771 3.5625,-4.60938 C3.5625,-5.09896 3.34896,-5.41667 2.92188,-5.5625 C2.77604,-5.61458 2.61458,-5.64063 2.4375,-5.64063"/>
<path class="Note" fill="#78c7c7" transform="matrix(0.9936,0,0,0.9936,217.58,67.824)" d="M4.39063,-2.75 C5.01563,-2.75 5.54688,-2.58854 5.98438,-2.26563 C6.38021,-1.91146 6.57813,-1.46875 6.57813,-0.9375 C6.57813,-0.0416667 6.11979,0.796875 5.20313,1.57813 C4.26563,2.35938 3.26042,2.75 2.1875,2.75 C1.5625,2.75 1.03646,2.58854 0.609375,2.26563 C0.203125,1.91146 0,1.46875 0,0.9375 C0,0.0416667 0.46875,-0.796875 1.40625,-1.57813 C2.32292,-2.35938 3.31771,-2.75 4.39063,-2.75"/>
<path class="Note" fill="#ffffff" fill-rule="evenodd" d="M166.126,118.746 L172.088,118.746 L172.088,126.198 L166.126,126.198 L166.126,118.746 "/>
<path class="Note" transform="matrix(0.9936,0,0,0.9936,166.623,125.95)" d="M2.32813,-4.54688 L0.921875,-4.54688 L0.921875,-5.10938 C1.53646,-5.19271 1.93229,-5.30208 2.10938,-5.4375 C2.28646,-5.57292 2.4375,-5.85417 2.5625,-6.28125 C2.57292,-6.3125 2.58854,-6.34896 2.60938,-6.39063 L3.125,-6.39063 L3.125,0 L2.32813,0 L2.32813,-4.54688 "/>
<path class="Note" fill="#ed2929" transform="matrix(0.9936,0,0,0.9936,165.381,70.308)" d="M4.39063,-2.75 C5.01563,-2.75 5.54688,-2.58854 5.98438,-2.26563 C6.38021,-1.91146 6.57813,-1.46875 6.57813,-0.9375 C6.57813,-0.0416667 6.11979,0.796875 5.20313,1.57813 C4.26563,2.35938 3.26042,2.75 2.1875,2.75 C1.5625,2.75 1.03646,2.58854 0.609375,2.26563 C0.203125,1.91146 0,1.46875 0,0.9375 C0,0.0416667 0.46875,-0.796875 1.40625,-1.57813 C2.32292,-2.35938 3.31771,-2.75 4.39063,-2.75"/>
<path class="Note" fill="#ffffff" fill-rule="evenodd" d="M113.927,118.746 L119.889,118.746 L119.889,126.198 L113.927,126.198 L113.927,118.746 "/>
<path class="Note" transform="matrix(0.9936,0,0,0.9936,114.424,125.95)" d="M0.390625,-3.09375 C0.390625,-5 0.927083,-6.07813 2,-6.32813 C2.14583,-6.36979 2.30208,-6.39063 2.46875,-6.39063 C3.78125,-6.39063 4.47917,-5.40104 4.5625,-3.42188 C4.5625,-3.28646 4.5625,-3.15625 4.5625,-3.03125 C4.5625,-1.40625 4.15104,-0.385417 3.32813,0.03125 C3.06771,0.145833 2.78125,0.203125 2.46875,0.203125 C1.41667,0.203125 0.760417,-0.442708 0.5,-1.73438 C0.427083,-2.14063 0.390625,-2.59375 0.390625,-3.09375 M2.46875,-5.64063 C1.625,-5.63021 1.20313,-4.77083 1.20313,-3.0625 C1.20313,-1.32292 1.61979,-0.453125 2.45313,-0.453125 C3.16146,-0.453125 3.57813,-1.02604 3.70313,-2.17188 C3.73438,-2.44271 3.75,-2.75 3.75,-3.09375 C3.75,-4.79167 3.32292,-5.64063 2.46875,-5.64063"/>
<path class="Note" fill="#ff9ee6" transform="matrix(0.9936,0,0,0.9936,113.182,72.792)" d="M4.39063,-2.75 C5.01563,-2.75 5.54688,-2.58854 5.98438,-2.26563 C6.38021,-1.91146 6.57813,-1.46875 6.57813,-0.9375 C6.57813,-0.0416667 6.11979,0.796875 5.20313,1.57813 C4.26563,2.35938 3.26042,2.75 2.1875,2.75 C1.5625,2.75 1.03646,2.58854 0.609375,2.26563 C0.203125,1.91146 0,1.46875 0,0.9375 C0,0.0416667 0.46875,-0.796875 1.40625,-1.57813 C2.32292,-2.35938 3.31771,-2.75 4.39063,-2.75"/>
<path class="Note" fill="#ffffff" fill-rule="evenodd" d="M61.7281,126.198 L67.6897,126.198 L67.6897,133.65 L61.7281,133.65 L61.7281,126.198 "/>
<path class="Note" transform="matrix(0.9936,0,0,0.9936,62.2249,133.402)" d="M0.453125,-4.17188 C0.494792,-5.64063 1.19792,-6.38021 2.5625,-6.39063 C3.28125,-6.39063 3.83333,-6.14583 4.21875,-5.65625 C4.46875,-5.32292 4.59375,-4.93229 4.59375,-4.48438 C4.59375,-3.68229 4.14583,-3.03125 3.25,-2.53125 L2.34375,-2.04688 C1.79167,-1.75521 1.44271,-1.4375 1.29688,-1.09375 C1.24479,-0.989583 1.21354,-0.869792 1.20313,-0.734375 L4.5625,-0.734375 L4.5625,0 L0.3125,0 C0.354167,-0.760417 0.520833,-1.33854 0.8125,-1.73438 C1.07292,-2.05729 1.5,-2.38542 2.09375,-2.71875 L2.92188,-3.1875 C3.49479,-3.52083 3.78646,-3.94271 3.79688,-4.45313 C3.79688,-4.88021 3.61458,-5.21354 3.25,-5.45313 C3.04167,-5.57813 2.80208,-5.64063 2.53125,-5.64063 C1.73958,-5.64063 1.3125,-5.16667 1.25,-4.21875 C1.25,-4.19792 1.25,-4.18229 1.25,-4.17188 L0.453125,-4.17188 "/>
<path class="Note" fill="#cc00ff" transform="matrix(0.9936,0,0,0.9936,60.9829,75.276)" d="M4.39063,-2.75 C5.01563,-2.75 5.54688,-2.58854 5.98438,-2.26563 C6.38021,-1.91146 6.57813,-1.46875 6.57813,-0.9375 C6.57813,-0.0416667 6.11979,0.796875 5.20313,1.57813 C4.26563,2.35938 3.26042,2.75 2.1875,2.75 C1.5625,2.75 1.03646,2.58854 0.609375,2.26563 C0.203125,1.91146 0,1.46875 0,0.9375 C0,0.0416667 0.46875,-0.796875 1.40625,-1.57813 C2.32292,-2.35938 3.31771,-2.75 4.39063,-2.75"/>
<path class="Clef" transform="matrix(0.9936,0,0,0.9936,32.0544,133.65)" d="M5.32813,8.5 C5.32813,8.86458 5.04167,9.04688 4.46875,9.04688 C4.02083,9.04688 3.625,8.91146 3.28125,8.64063 C2.95833,8.34896 2.79688,7.98438 2.79688,7.54688 C2.79688,6.76563 3.27083,6.14063 4.21875,5.67188 C5.14583,5.18229 6.23438,4.9375 7.48438,4.9375 C7.96354,4.9375 8.47917,4.97396 9.03125,5.04688 C9.42708,5.09896 9.875,5.20313 10.375,5.35938 C10.8125,5.49479 11.1563,5.70573 11.4063,5.99219 C11.6563,6.27865 11.7813,6.61458 11.7813,7 C11.7813,7.89583 11.3177,8.63021 10.3906,9.20313 C11.7448,9.45313 12.4271,10.0573 12.4375,11.0156 C12.4375,11.8281 12.0729,12.5599 11.3438,13.2109 C10.6146,13.862 9.79167,14.1875 8.875,14.1875 C8.47917,14.1875 8.07813,14.0938 7.67188,13.9063 C7.29688,13.7292 7.03125,13.5625 6.875,13.4063 C6.71875,13.2188 6.64063,13.0781 6.64063,12.9844 C6.64063,12.8594 6.70833,12.75 6.84375,12.6563 C6.95833,12.5417 7.07813,12.4844 7.20313,12.4844 C7.25521,12.4844 7.36719,12.5677 7.53906,12.7344 C7.71094,12.901 7.95833,12.9844 8.28125,12.9844 C8.72917,12.9844 9.16146,12.7969 9.57813,12.4219 C9.97396,12.0573 10.1719,11.6198 10.1719,11.1094 C10.1719,10.6719 9.98438,10.3542 9.60938,10.1563 C9.24479,9.95833 8.76563,9.85938 8.17188,9.85938 C8.06771,9.85938 8.01563,9.75 8.01563,9.53125 C8.01563,9.21875 8.13021,9.0625 8.35938,9.0625 C8.72396,9.0625 9.05208,8.90625 9.34375,8.59375 C9.61458,8.26042 9.75,7.90104 9.75,7.51563 C9.75,7.40104 9.71875,7.22917 9.65625,7 C9.60417,6.84375 9.44792,6.65104 9.1875,6.42188 C8.9375,6.21354 8.58854,6.07292 8.14063,6 C8.02604,6.63542 7.88021,7.44792 7.70313,8.4375 C7.52604,9.42708 7.40625,10.0781 7.34375,10.3906 C7.125,11.5156 6.72396,12.4583 6.14063,13.2188 C5.52604,14.0313 4.86458,14.4375 4.15625,14.4375 C3.9375,14.4375 3.71354,14.3854 3.48438,14.2813 C3.29688,14.1979 3.0625,14.0365 2.78125,13.7969 C2.52083,13.5885 2.34375,13.4479 2.25,13.375 C2.19792,13.3438 2.17188,13.2865 2.17188,13.2031 C2.17188,13.0781 2.21875,12.9635 2.3125,12.8594 C2.41667,12.7344 2.52604,12.6719 2.64063,12.6719 C2.71354,12.6719 2.89323,12.7969 3.17969,13.0469 C3.46615,13.2969 3.76563,13.4219 4.07813,13.4219 C4.68229,13.4219 5.13542,13.0365 5.4375,12.2656 C5.71875,11.526 5.85938,10.6094 5.85938,9.51563 L5.85938,9.35938 C5.85938,8.63021 5.97917,7.54167 6.21875,6.09375 C5.80208,6.22917 5.46875,6.42708 5.21875,6.6875 C4.95833,6.94792 4.82813,7.21875 4.82813,7.5 C4.82813,7.71875 4.91146,7.90625 5.07813,8.0625 C5.24479,8.21875 5.32813,8.36458 5.32813,8.5 M1.40625,2.39063 C1.46875,2.39063 1.625,2.45313 1.875,2.57813 C2.13542,2.71354 2.35938,2.78125 2.54688,2.78125 C3.03646,2.78125 3.64063,2.42188 4.35938,1.70313 C6.43229,-0.411458 7.85938,-2.65104 8.64063,-5.01563 C8.79688,-5.51563 9.17708,-5.76563 9.78125,-5.76563 C10.0938,-5.76563 10.3646,-5.69792 10.5938,-5.5625 C10.8125,-5.42708 10.9219,-5.28646 10.9219,-5.14063 L10.5625,2.17188 C10.5625,2.55729 10.7031,2.75 10.9844,2.75 C11.1198,2.75 11.3281,2.6875 11.6094,2.5625 C11.8698,2.42708 12.026,2.35938 12.0781,2.35938 C12.1823,2.35938 12.2448,2.47396 12.2656,2.70313 C12.2656,2.91146 12.1823,3.04167 12.0156,3.09375 C11.8802,3.125 11.6198,3.24479 11.2344,3.45313 C10.8281,3.66146 10.5104,3.76563 10.2813,3.76563 C9.78125,3.76563 9.42708,3.375 9.21875,2.59375 C8.89583,1.375 8.6875,0.104167 8.59375,-1.21875 C8.07292,-0.552083 7.49479,0.119792 6.85938,0.796875 C7.08854,1.24479 7.51563,1.46875 8.14063,1.46875 C8.23438,1.46875 8.30729,1.46354 8.35938,1.45313 L8.375,1.45313 C8.47917,1.45313 8.53125,1.54688 8.53125,1.73438 C8.53125,1.98438 8.44792,2.13542 8.28125,2.1875 C8.01042,2.28125 7.72396,2.32813 7.42188,2.32813 C6.77604,2.32813 6.30729,2.10417 6.01563,1.65625 L5.23438,2.35938 C4.14063,3.29688 3.25,3.76563 2.5625,3.76563 C2.375,3.76563 2.1875,3.73438 2,3.67188 C1.84375,3.60938 1.66146,3.51042 1.45313,3.375 C1.36979,3.34375 1.27865,3.29688 1.17969,3.23438 C1.08073,3.17188 1.02083,3.13542 1,3.125 C0.9375,3.10417 0.90625,3.04688 0.90625,2.95313 C0.90625,2.84896 0.958333,2.72396 1.0625,2.57813 C1.14583,2.45313 1.26042,2.39063 1.40625,2.39063 M5.76563,-10.7969 C5.76563,-10.474 5.48438,-10.3125 4.92188,-10.3125 C4.43229,-10.3125 4.00521,-10.474 3.64063,-10.7969 C3.28646,-11.1302 3.10938,-11.5313 3.10938,-12 C3.10938,-12.4479 3.25,-12.8385 3.53125,-13.1719 C3.83333,-13.5052 4.21875,-13.7552 4.6875,-13.9219 C5.11458,-14.0781 5.59896,-14.2031 6.14063,-14.2969 C6.69271,-14.3594 7.22396,-14.3906 7.73438,-14.3906 C8.03646,-14.3906 8.59896,-14.2552 9.42188,-13.9844 C10.2552,-13.7135 10.8333,-13.5781 11.1563,-13.5781 C11.5625,-13.5781 11.9479,-13.651 12.3125,-13.7969 C12.6042,-13.9219 12.8906,-14.0677 13.1719,-14.2344 C13.3906,-14.3802 13.5104,-14.4531 13.5313,-14.4531 C13.6563,-14.4531 13.7604,-14.4167 13.8438,-14.3438 C13.9479,-14.2396 14,-14.151 14,-14.0781 C14,-13.9948 13.8802,-13.849 13.6406,-13.6406 C13.3802,-13.401 13.0078,-13.1641 12.5234,-12.9297 C12.0391,-12.6953 11.5313,-12.5781 11,-12.5781 C10.7604,-12.5781 10.4688,-12.6198 10.125,-12.7031 C9.89583,-11.2552 9.66146,-9.96875 9.42188,-8.84375 C9.21354,-7.85417 8.79688,-6.98958 8.17188,-6.25 C7.56771,-5.51042 6.89583,-5.14063 6.15625,-5.14063 C5.85417,-5.14063 5.58854,-5.19792 5.35938,-5.3125 C5.09896,-5.44792 4.82292,-5.64583 4.53125,-5.90625 C4.30208,-6.09375 4.08333,-6.26563 3.875,-6.42188 C3.82292,-6.46354 3.79688,-6.52604 3.79688,-6.60938 C3.79688,-6.69271 3.84896,-6.80729 3.95313,-6.95313 C4.05729,-7.06771 4.15104,-7.125 4.23438,-7.125 C4.31771,-7.125 4.54167,-6.96354 4.90625,-6.64063 C5.27083,-6.31771 5.59375,-6.15625 5.875,-6.15625 C6.39583,-6.15625 6.80208,-6.45313 7.09375,-7.04688 C7.375,-7.64063 7.53646,-8.34375 7.57813,-9.15625 C7.64063,-10.5 7.79167,-11.8906 8.03125,-13.3281 C7.73958,-13.3906 7.52604,-13.4219 7.39063,-13.4219 C6.76563,-13.4219 6.22917,-13.2917 5.78125,-13.0313 C5.34375,-12.7813 5.125,-12.4427 5.125,-12.0156 C5.125,-11.7031 5.22917,-11.4635 5.4375,-11.2969 C5.65625,-11.1094 5.76563,-10.9427 5.76563,-10.7969"/>
<path class="Clef" transform="matrix(0.9936,0,0,0.9936,32.0544,77.76)" d="M7.34375,-5.125 C7.34375,-5.125 7.38542,-5.125 7.46875,-5.125 C7.52083,-5.13542 7.5625,-5.14063 7.59375,-5.14063 C9.05208,-5.14063 10.25,-4.625 11.1875,-3.59375 C12.125,-2.58333 12.5938,-1.40104 12.5938,-0.046875 C12.5938,1.64063 11.901,3.01042 10.5156,4.0625 C10.151,4.35417 9.67188,4.58854 9.07813,4.76563 C9.15104,5.60938 9.1875,6.29167 9.1875,6.8125 C9.1875,6.91667 9.17188,7.29688 9.14063,7.95313 C9.08854,9.16146 8.67188,10.2083 7.89063,11.0938 C7.14063,11.9688 6.20313,12.4063 5.07813,12.4063 C4.02604,12.4063 3.13021,12.0365 2.39063,11.2969 C1.64063,10.5365 1.26563,9.625 1.26563,8.5625 C1.26563,8 1.48438,7.52083 1.92188,7.125 C2.35938,6.73958 2.86979,6.54688 3.45313,6.54688 C3.97396,6.54688 4.41146,6.75 4.76563,7.15625 C5.13021,7.53125 5.3125,8 5.3125,8.5625 C5.3125,9.0625 5.13021,9.49479 4.76563,9.85938 C4.40104,10.224 3.96354,10.4063 3.45313,10.4063 C3.24479,10.4063 3.04688,10.3698 2.85938,10.2969 C3.43229,11.1406 4.19271,11.5625 5.14063,11.5625 C6.03646,11.5625 6.77083,11.1979 7.34375,10.4688 C7.94792,9.71875 8.27604,8.83854 8.32813,7.82813 C8.34896,7.20313 8.35938,6.84896 8.35938,6.76563 C8.35938,6.03646 8.33333,5.4375 8.28125,4.96875 C7.63542,5.07292 7.05729,5.125 6.54688,5.125 C4.73438,5.125 3.19271,4.40625 1.92188,2.96875 C0.671875,1.52083 0.046875,-0.197917 0.046875,-2.1875 C0.046875,-2.60417 0.0833333,-3.02604 0.15625,-3.45313 C0.239583,-3.80729 0.338542,-4.19271 0.453125,-4.60938 C0.515625,-4.84896 0.692708,-5.22917 0.984375,-5.75 C1.08854,-5.90625 1.20573,-6.10156 1.33594,-6.33594 C1.46615,-6.57031 1.55729,-6.72396 1.60938,-6.79688 C1.73438,-7.05729 1.98438,-7.41146 2.35938,-7.85938 C2.46354,-7.97396 2.57292,-8.10156 2.6875,-8.24219 C2.80208,-8.38281 2.89844,-8.5 2.97656,-8.59375 C3.05469,-8.6875 3.11198,-8.76042 3.14844,-8.8125 C3.1849,-8.86458 3.47917,-9.20833 4.03125,-9.84375 C4.15625,-9.97917 4.28125,-10.1198 4.40625,-10.2656 C4.53125,-10.4115 4.63281,-10.5286 4.71094,-10.6172 C4.78906,-10.7057 4.84896,-10.7656 4.89063,-10.7969 C4.42188,-12.349 4.125,-13.5885 4,-14.5156 C3.91667,-15.2552 3.875,-16.2708 3.875,-17.5625 C3.875,-18.6979 4.13542,-19.7604 4.65625,-20.75 C5.15625,-21.7708 5.86458,-22.6094 6.78125,-23.2656 C6.84375,-23.3073 6.90625,-23.3281 6.96875,-23.3281 C7.0625,-23.3281 7.13021,-23.3073 7.17188,-23.2656 C7.86979,-22.4219 8.47396,-21.3229 8.98438,-19.9688 C9.50521,-18.6146 9.76563,-17.3802 9.76563,-16.2656 C9.76563,-15.0156 9.46875,-13.8438 8.875,-12.75 C8.19792,-11.5938 7.32292,-10.3958 6.25,-9.15625 C6.52083,-8.30208 6.88542,-6.95833 7.34375,-5.125 M9,3.96875 C9.67708,3.71875 10.2083,3.29688 10.5938,2.70313 C11.0104,2.13021 11.2188,1.48438 11.2188,0.765625 C11.2188,-0.161458 10.9063,-0.984375 10.2813,-1.70313 C9.63542,-2.44271 8.81771,-2.85938 7.82813,-2.95313 C8.39063,-0.203125 8.78125,2.10417 9,3.96875 M1.45313,-0.546875 C1.45313,0.744792 1.97396,1.88021 3.01563,2.85938 C4.07813,3.80729 5.27604,4.28125 6.60938,4.28125 C7.15104,4.28125 7.68229,4.23958 8.20313,4.15625 C7.99479,2.17708 7.58333,-0.192708 6.96875,-2.95313 C6.22917,-2.86979 5.64063,-2.60938 5.20313,-2.17188 C4.76563,-1.71354 4.54688,-1.19792 4.54688,-0.625 C4.54688,0.364583 5.07813,1.16667 6.14063,1.78125 C6.22396,1.875 6.26563,1.97396 6.26563,2.07813 C6.26563,2.18229 6.22396,2.27604 6.14063,2.35938 C6.05729,2.45313 5.95833,2.5 5.84375,2.5 C5.83333,2.5 5.77604,2.48958 5.67188,2.46875 C4.92188,2.0625 4.34896,1.54167 3.95313,0.90625 C3.56771,0.21875 3.375,-0.46875 3.375,-1.15625 C3.375,-2.05208 3.65625,-2.86458 4.21875,-3.59375 C4.80208,-4.32292 5.5625,-4.79167 6.5,-5 C6.13542,-6.45833 5.83854,-7.59896 5.60938,-8.42188 C5.40104,-8.18229 5.15104,-7.89844 4.85938,-7.57031 C4.56771,-7.24219 4.39583,-7.04167 4.34375,-6.96875 C3.875,-6.36458 3.51563,-5.89063 3.26563,-5.54688 C2.81771,-4.93229 2.48958,-4.40625 2.28125,-3.96875 C2.0625,-3.46875 1.86979,-2.92708 1.70313,-2.34375 C1.53646,-1.78125 1.45313,-1.18229 1.45313,-0.546875 M7.96875,-20.4063 C6.98958,-19.9271 6.22396,-19.2396 5.67188,-18.3438 C5.09896,-17.4167 4.8125,-16.4219 4.8125,-15.3594 C4.8125,-14.4219 5.04688,-13.1563 5.51563,-11.5625 C6.45313,-12.6979 7.15625,-13.7448 7.625,-14.7031 C8.11458,-15.724 8.35938,-16.7865 8.35938,-17.8906 C8.35938,-18.724 8.22917,-19.5625 7.96875,-20.4063 M5.82813,15.2344 C6.16146,14.901 6.32813,14.5625 6.32813,14.2188 C6.30729,13.9479 6.19271,13.7396 5.98438,13.5938 C5.74479,13.4375 5.46875,13.3594 5.15625,13.3594 C4.9375,13.3594 4.75521,13.4323 4.60938,13.5781 C4.48438,13.7031 4.42188,13.8646 4.42188,14.0625 C4.42188,14.3021 4.51563,14.4792 4.70313,14.5938 L5.82813,15.2344 M6.14063,15.4063 C6.68229,15.7083 6.95313,16.1146 6.95313,16.625 L6.95313,16.6875 C6.95313,17.0833 6.79167,17.4219 6.46875,17.7031 C6.14583,17.9844 5.68229,18.125 5.07813,18.125 C4.58854,18.125 4.16146,17.9948 3.79688,17.7344 C3.43229,17.4844 3.25,17.1458 3.25,16.7188 C3.25,16.5521 3.29167,16.3958 3.375,16.25 C3.47917,16.0833 3.56771,15.9688 3.64063,15.9063 L4,15.5313 C3.60417,15.2604 3.40625,14.901 3.40625,14.4531 C3.40625,14.099 3.5625,13.7865 3.875,13.5156 C4.19792,13.2552 4.625,13.125 5.15625,13.125 C5.60417,13.125 5.98438,13.224 6.29688,13.4219 C6.60938,13.6198 6.76563,13.8854 6.76563,14.2188 C6.76563,14.5729 6.55729,14.9688 6.14063,15.4063 M4.29688,15.7031 C3.91146,16.0469 3.70313,16.3854 3.67188,16.7188 C3.70313,17.0729 3.84896,17.3542 4.10938,17.5625 C4.39063,17.7813 4.71354,17.8906 5.07813,17.8906 C5.33854,17.8906 5.54688,17.8073 5.70313,17.6406 C5.85938,17.4844 5.9375,17.2969 5.9375,17.0781 C5.92708,16.7865 5.8125,16.5781 5.59375,16.4531 L4.29688,15.7031 "/>
<path class="Fingering" d="M472.162,73.9635 C472.402,72.9427 472.928,72.4166 473.74,72.3854 C473.771,72.3854 473.798,72.3854 473.818,72.3854 C474.308,72.3854 474.699,72.5625 474.99,72.9166 C475.199,73.177 475.303,73.4687 475.303,73.7916 C475.303,74.3854 474.985,75.026 474.35,75.7135 C474.329,75.7343 474.303,75.7552 474.271,75.776 L472.943,77.1979 L474.85,77.1979 C475.058,77.1979 475.219,77.1406 475.334,77.026 C475.407,76.9531 475.495,76.8333 475.6,76.6666 L475.709,76.6979 L475.271,77.776 L472.146,77.776 L472.146,77.6822 L473.568,76.1666 C474.245,75.427 474.594,74.7343 474.615,74.0885 C474.615,73.6406 474.443,73.3177 474.1,73.1197 C473.923,73.0156 473.719,72.9635 473.49,72.9635 C473.136,72.9635 472.86,73.0989 472.662,73.3697 C472.548,73.526 472.438,73.7395 472.334,74.0104 L472.162,73.9635 "/>
<path class="Fingering" d="M421.892,75.4014 C421.299,75.4014 420.835,75.0941 420.502,74.4795 C420.22,73.9795 420.08,73.3545 420.08,72.6045 C420.08,71.7087 420.288,71.0055 420.705,70.4951 C421.038,70.0993 421.444,69.8962 421.924,69.8858 C422.486,69.8858 422.929,70.1722 423.252,70.7451 C423.554,71.2555 423.705,71.891 423.705,72.6514 C423.705,73.6201 423.481,74.3597 423.033,74.8701 C422.71,75.2243 422.33,75.4014 421.892,75.4014 M421.892,70.0889 C421.247,70.0889 420.898,70.8597 420.845,72.4014 C420.845,72.4951 420.845,72.5889 420.845,72.6826 C420.856,74.3493 421.205,75.1878 421.892,75.1983 C422.58,75.1878 422.924,74.3441 422.924,72.667 C422.924,71.1462 422.653,70.2972 422.111,70.1201 C422.038,70.0993 421.965,70.0889 421.892,70.0889"/>
<path class="Fingering" d="M369.162,68.0736 C369.047,68.0736 368.855,68.1309 368.584,68.2455 L368.584,68.1361 L370.021,67.4017 L370.084,67.4174 L370.084,72.2142 C370.084,72.4226 370.146,72.558 370.271,72.6205 C370.376,72.6622 370.568,72.683 370.85,72.683 L370.85,72.808 L368.631,72.808 L368.631,72.683 C368.985,72.6726 369.209,72.6101 369.303,72.4955 C369.365,72.4017 369.396,72.2559 369.396,72.058 L369.396,68.4486 C369.386,68.1986 369.308,68.0736 369.162,68.0736"/>
<path class="Fingering" d="M316.135,69.699 C316.26,69.699 316.442,69.7667 316.682,69.9021 C316.932,70.0584 317.145,70.1365 317.322,70.1365 C317.687,70.1365 317.973,69.975 318.182,69.6521 C318.307,69.4438 318.369,69.2094 318.369,68.949 C318.369,68.1886 317.916,67.7719 317.01,67.699 C316.916,67.6886 316.817,67.6834 316.713,67.6834 L316.713,67.574 C317.317,67.3761 317.713,67.1209 317.9,66.8084 C317.994,66.6417 318.041,66.4594 318.041,66.2615 C318.041,65.9073 317.895,65.6521 317.604,65.4959 C317.468,65.4334 317.322,65.4021 317.166,65.4021 C316.718,65.4021 316.348,65.6365 316.057,66.1052 C316.025,66.1469 315.999,66.1938 315.979,66.2459 L315.854,66.2146 C316.104,65.5375 316.468,65.1261 316.947,64.9802 C317.093,64.9386 317.255,64.9177 317.432,64.9177 C317.911,64.9177 318.265,65.0844 318.494,65.4177 C318.619,65.5948 318.682,65.7927 318.682,66.0115 C318.682,66.3344 318.531,66.6261 318.229,66.8865 C318.135,66.9594 318.036,67.0375 317.932,67.1209 C318.411,67.3292 318.718,67.6157 318.854,67.9802 C318.916,68.1573 318.947,68.3552 318.947,68.574 C318.947,69.2094 318.682,69.7042 318.15,70.0584 C317.755,70.3084 317.286,70.4334 316.744,70.4334 C316.255,70.4334 315.963,70.324 315.869,70.1052 C315.848,70.0636 315.838,70.0219 315.838,69.9802 C315.838,69.824 315.916,69.7355 316.072,69.7146 C316.093,69.7042 316.114,69.699 316.135,69.699"/>
<path class="Fingering" d="M265.295,67.9494 C264.701,67.9494 264.238,67.6421 263.905,67.0275 C263.623,66.5275 263.483,65.9025 263.483,65.1525 C263.483,64.2567 263.691,63.5535 264.108,63.0431 C264.441,62.6473 264.847,62.4442 265.326,62.4337 C265.889,62.4337 266.332,62.7202 266.655,63.2931 C266.957,63.8035 267.108,64.439 267.108,65.1994 C267.108,66.1681 266.884,66.9077 266.436,67.4181 C266.113,67.7723 265.733,67.9494 265.295,67.9494 M265.295,62.6369 C264.649,62.6369 264.3,63.4077 264.248,64.9494 C264.248,65.0431 264.248,65.1369 264.248,65.2306 C264.259,66.8973 264.608,67.7358 265.295,67.7462 C265.983,67.7358 266.326,66.8921 266.326,65.215 C266.326,63.6942 266.056,62.8452 265.514,62.6681 C265.441,62.6473 265.368,62.6369 265.295,62.6369"/>
<path class="Fingering" d="M211.737,69.699 C211.862,69.699 212.044,69.7667 212.284,69.9021 C212.534,70.0584 212.747,70.1365 212.924,70.1365 C213.289,70.1365 213.575,69.975 213.784,69.6521 C213.909,69.4438 213.971,69.2094 213.971,68.949 C213.971,68.1886 213.518,67.7719 212.612,67.699 C212.518,67.6886 212.419,67.6834 212.315,67.6834 L212.315,67.574 C212.919,67.3761 213.315,67.1209 213.502,66.8084 C213.596,66.6417 213.643,66.4594 213.643,66.2615 C213.643,65.9073 213.497,65.6521 213.205,65.4959 C213.07,65.4334 212.924,65.4021 212.768,65.4021 C212.32,65.4021 211.95,65.6365 211.659,66.1052 C211.627,66.1469 211.601,66.1938 211.58,66.2459 L211.455,66.2146 C211.705,65.5375 212.07,65.1261 212.549,64.9802 C212.695,64.9386 212.857,64.9177 213.034,64.9177 C213.513,64.9177 213.867,65.0844 214.096,65.4177 C214.221,65.5948 214.284,65.7927 214.284,66.0115 C214.284,66.3344 214.133,66.6261 213.83,66.8865 C213.737,66.9594 213.638,67.0375 213.534,67.1209 C214.013,67.3292 214.32,67.6157 214.455,67.9802 C214.518,68.1573 214.549,68.3552 214.549,68.574 C214.549,69.2094 214.284,69.7042 213.752,70.0584 C213.357,70.3084 212.888,70.4334 212.346,70.4334 C211.857,70.4334 211.565,70.324 211.471,70.1052 C211.45,70.0636 211.44,70.0219 211.44,69.9802 C211.44,69.824 211.518,69.7355 211.674,69.7146 C211.695,69.7042 211.716,69.699 211.737,69.699"/>
<path class="Fingering" d="M160.366,68.0736 C160.251,68.0736 160.058,68.1309 159.788,68.2455 L159.788,68.1361 L161.225,67.4017 L161.288,67.4174 L161.288,72.2142 C161.288,72.4226 161.35,72.558 161.475,72.6205 C161.579,72.6622 161.772,72.683 162.053,72.683 L162.053,72.808 L159.835,72.808 L159.835,72.683 C160.189,72.6726 160.413,72.6101 160.506,72.4955 C160.569,72.4017 160.6,72.2559 160.6,72.058 L160.6,68.4486 C160.59,68.1986 160.512,68.0736 160.366,68.0736"/>
<path class="Fingering" d="M108.698,75.4014 C108.104,75.4014 107.641,75.0941 107.307,74.4795 C107.026,73.9795 106.885,73.3545 106.885,72.6045 C106.885,71.7087 107.094,71.0055 107.51,70.4951 C107.844,70.0993 108.25,69.8962 108.729,69.8858 C109.292,69.8858 109.734,70.1722 110.057,70.7451 C110.359,71.2555 110.51,71.891 110.51,72.6514 C110.51,73.6201 110.287,74.3597 109.839,74.8701 C109.516,75.2243 109.135,75.4014 108.698,75.4014 M108.698,70.0889 C108.052,70.0889 107.703,70.8597 107.651,72.4014 C107.651,72.4951 107.651,72.5889 107.651,72.6826 C107.662,74.3493 108.01,75.1878 108.698,75.1983 C109.385,75.1878 109.729,74.3441 109.729,72.667 C109.729,71.1462 109.458,70.2972 108.917,70.1201 C108.844,70.0993 108.771,70.0889 108.698,70.0889"/>
<path class="Fingering" d="M54.7489,73.9635 C54.9885,72.9427 55.5145,72.4166 56.327,72.3854 C56.3583,72.3854 56.3843,72.3854 56.4052,72.3854 C56.8947,72.3854 57.2854,72.5625 57.577,72.9166 C57.7854,73.177 57.8895,73.4687 57.8895,73.7916 C57.8895,74.3854 57.5718,75.026 56.9364,75.7135 C56.9156,75.7343 56.8895,75.7552 56.8583,75.776 L55.5302,77.1979 L57.4364,77.1979 C57.6447,77.1979 57.8062,77.1406 57.9208,77.026 C57.9937,76.9531 58.0822,76.8333 58.1864,76.6666 L58.2958,76.6979 L57.8583,77.776 L54.7333,77.776 L54.7333,77.6822 L56.1552,76.1666 C56.8322,75.427 57.1812,74.7343 57.202,74.0885 C57.202,73.6406 57.0302,73.3177 56.6864,73.1197 C56.5093,73.0156 56.3062,72.9635 56.077,72.9635 C55.7229,72.9635 55.4468,73.0989 55.2489,73.3697 C55.1343,73.526 55.025,73.7395 54.9208,74.0104 L54.7489,73.9635 "/>
<path class="Tempo" d="M54.7395,40.4371 C54.5364,40.2809 54.2864,40.1871 53.9739,40.1871 C52.7864,40.1871 51.8332,41.0621 51.8332,41.9996 C51.8332,42.5621 52.2864,42.9059 52.8801,42.9059 C53.8332,42.9059 55.0207,41.9996 55.0207,41.0934 L55.0207,34.9527 L54.7395,34.9527 L54.7395,40.4371 "/>
<path class="Tempo" d="M65.3801,39.0152 L58.7707,39.0152 L58.7707,37.859 L65.3801,37.859 L65.3801,39.0152 M65.3801,41.9371 L58.7707,41.9371 L58.7707,40.7965 L65.3801,40.7965 L65.3801,41.9371 M74.6614,34.734 L74.6614,35.0465 C73.2655,35.3382 72.3072,36.0621 71.7864,37.2184 C71.6614,37.4996 71.5572,37.8069 71.4739,38.1402 C71.7864,38.0152 72.1197,37.9527 72.4739,37.9527 C73.3489,37.9527 73.9843,38.2913 74.3801,38.9684 C74.6093,39.3538 74.7239,39.8069 74.7239,40.3277 C74.7239,41.2652 74.4114,42.0048 73.7864,42.5465 C73.3176,42.9423 72.7707,43.1402 72.1457,43.1402 C71.1666,43.1402 70.4218,42.7288 69.9114,41.9059 C69.5364,41.3017 69.3489,40.5673 69.3489,39.7027 C69.3489,38.1194 69.9947,36.8642 71.2864,35.9371 C71.328,35.9059 71.3697,35.8746 71.4114,35.8434 C72.0676,35.3955 72.7968,35.083 73.5989,34.9059 C73.901,34.8434 74.2551,34.7861 74.6614,34.734 M71.2239,40.0777 C71.2239,41.609 71.4114,42.4892 71.7864,42.7184 C71.901,42.7809 72.026,42.8121 72.1614,42.8121 C72.4739,42.8121 72.677,42.6767 72.7707,42.4059 C72.8541,42.1559 72.8957,41.7027 72.8957,41.0465 C72.8957,39.7757 72.7395,38.9892 72.427,38.6871 C72.2707,38.5413 72.0676,38.4684 71.8176,38.4684 C71.5676,38.4684 71.4062,38.5517 71.3332,38.7184 C71.2603,38.8955 71.2239,39.3486 71.2239,40.0777 M75.302,38.9059 C75.302,37.5934 75.6145,36.5309 76.2395,35.7184 C76.7499,35.0725 77.3437,34.7444 78.0207,34.734 C78.802,34.734 79.4478,35.1402 79.9582,35.9527 C80.4687,36.7652 80.7239,37.76 80.7239,38.9371 C80.7239,40.3121 80.4062,41.4059 79.7707,42.2184 C79.2707,42.8225 78.6926,43.1298 78.0364,43.1402 C77.203,43.1402 76.5312,42.7132 76.0207,41.859 C75.5416,41.0673 75.302,40.083 75.302,38.9059 M78.0364,42.7965 C78.3905,42.7965 78.6249,42.4736 78.7395,41.8277 C78.802,41.4423 78.8332,40.9423 78.8332,40.3277 L78.8332,37.5777 C78.8332,36.1402 78.6405,35.3225 78.2551,35.1246 C78.1822,35.083 78.0989,35.0621 78.0051,35.0621 C77.6405,35.0621 77.401,35.3955 77.2864,36.0621 C77.2343,36.4371 77.2082,36.9423 77.2082,37.5777 L77.2082,40.3277 C77.2082,41.6819 77.3749,42.4736 77.7082,42.7027 C77.802,42.7652 77.9114,42.7965 78.0364,42.7965"/>
<path class="StaffText" d="M64.811,25.2057 C65.259,25.2057 65.759,25.3203 66.311,25.5495 C66.5506,25.6432 66.7225,25.6901 66.8267,25.6901 C66.9725,25.6901 67.1027,25.5807 67.2173,25.362 C67.2277,25.3203 67.2433,25.2787 67.2642,25.237 L67.5298,25.237 L67.5298,27.5807 L67.2798,27.5807 C67.009,26.9766 66.7277,26.5339 66.436,26.2526 C66.3735,26.1901 66.3162,26.138 66.2642,26.0964 C65.8371,25.7214 65.3944,25.5339 64.936,25.5339 C63.936,25.5339 63.3423,26.2526 63.1548,27.6901 C63.1235,28.013 63.1079,28.362 63.1079,28.737 C63.1079,29.9245 63.3215,30.7943 63.7485,31.3464 C64.0819,31.763 64.5402,31.9714 65.1235,31.9714 C65.686,31.9714 66.0037,31.7943 66.0767,31.4401 C66.0871,31.3776 66.0923,31.3099 66.0923,31.237 L66.0923,30.1901 C66.0923,29.8985 66.0194,29.711 65.8735,29.6276 C65.7277,29.5547 65.4621,29.5078 65.0767,29.487 L65.0767,29.237 L68.5142,29.237 L68.5142,29.487 C68.1079,29.5287 67.8579,29.6172 67.7642,29.7526 C67.6912,29.8672 67.6548,30.086 67.6548,30.4089 L67.6548,31.6745 C67.061,32.0287 66.2746,32.237 65.2954,32.2995 C65.16,32.2995 65.0246,32.2995 64.8892,32.2995 C63.7746,32.2995 62.884,31.9401 62.2173,31.2214 C61.6235,30.5755 61.3267,29.7682 61.3267,28.7995 C61.3267,27.7578 61.6704,26.8932 62.3579,26.2057 C63.0246,25.5391 63.8423,25.2057 64.811,25.2057 M72.5767,28.8307 C72.3579,28.8307 72.1444,28.711 71.936,28.4714 C71.8215,28.3255 71.7381,28.2474 71.686,28.237 C71.4673,28.237 71.3006,28.388 71.186,28.6901 C71.1131,28.8464 71.0767,29.013 71.0767,29.1901 L71.0767,31.0807 C71.0767,31.4453 71.1496,31.6693 71.2954,31.7526 C71.3892,31.8151 71.561,31.8568 71.811,31.8776 L71.811,32.112 L69.1704,32.112 L69.1704,31.8776 C69.4412,31.8255 69.6027,31.7318 69.6548,31.5964 C69.6756,31.5235 69.686,31.4141 69.686,31.2682 L69.686,28.3307 C69.686,28.0703 69.6131,27.9037 69.4673,27.8307 C69.3944,27.7891 69.2954,27.7578 69.1704,27.737 L69.1704,27.5026 L71.0454,27.5026 L71.0454,28.3307 C71.4204,27.7787 71.7902,27.4714 72.1548,27.4089 C72.2381,27.388 72.3162,27.3776 72.3892,27.3776 C72.7329,27.3776 72.9777,27.5182 73.1235,27.7995 C73.1756,27.9141 73.2017,28.0339 73.2017,28.1589 C73.2017,28.4714 73.0767,28.6797 72.8267,28.7839 C72.7433,28.8151 72.66,28.8307 72.5767,28.8307 M74.4517,28.0807 C74.4517,28.112 74.5037,28.2057 74.6079,28.362 C74.7017,28.5078 74.7485,28.6328 74.7485,28.737 C74.7485,28.9974 74.6183,29.1745 74.3579,29.2682 C74.2642,29.2995 74.1704,29.3151 74.0767,29.3151 C73.7121,29.3151 73.4985,29.1537 73.436,28.8307 C73.4256,28.7682 73.4204,28.711 73.4204,28.6589 C73.4204,28.1901 73.6756,27.8412 74.186,27.612 C74.509,27.4557 74.884,27.3776 75.311,27.3776 C76.186,27.3776 76.785,27.6172 77.1079,28.0964 C77.2329,28.2943 77.2954,28.5182 77.2954,28.7682 L77.2954,31.3464 C77.3058,31.5026 77.3735,31.586 77.4985,31.5964 C77.5506,31.586 77.5871,31.5703 77.6079,31.5495 L77.7173,31.4557 L77.8579,31.6589 C77.4621,32.0339 77.0923,32.2318 76.7485,32.2526 C76.3735,32.2526 76.1287,32.112 76.0142,31.8307 C75.9829,31.737 75.9517,31.638 75.9204,31.5339 C75.3787,32.0026 74.8527,32.2422 74.3423,32.2526 C73.9048,32.2526 73.5871,32.086 73.3892,31.7526 C73.285,31.586 73.2329,31.4037 73.2329,31.2057 C73.2329,30.6224 73.6808,30.1485 74.5767,29.7839 C74.8162,29.6797 75.2642,29.5287 75.9204,29.3307 L75.9204,28.5964 C75.9204,28.0651 75.7017,27.7735 75.2642,27.7214 C75.2017,27.7214 75.1392,27.7214 75.0767,27.7214 C74.785,27.7214 74.5871,27.8047 74.4829,27.9714 C74.4621,28.0026 74.4517,28.0391 74.4517,28.0807 M75.9048,31.0964 L75.9048,29.6589 C75.1027,29.8776 74.6965,30.2787 74.686,30.862 C74.686,31.1953 74.7954,31.4037 75.0142,31.487 C75.0767,31.5078 75.1392,31.5182 75.2017,31.5182 C75.4308,31.5182 75.6652,31.3776 75.9048,31.0964 M81.3735,32.237 L81.3735,31.5964 C81.0194,31.9714 80.6756,32.1849 80.3423,32.237 C80.2485,32.2474 80.1496,32.2526 80.0454,32.2526 C79.4517,32.2526 78.9829,31.9766 78.6392,31.4245 C78.3683,30.9974 78.2329,30.4922 78.2329,29.9089 C78.2329,29.0547 78.4777,28.3828 78.9673,27.8932 C79.3006,27.5495 79.6965,27.3776 80.1548,27.3776 C80.509,27.3776 80.8319,27.513 81.1235,27.7839 C81.2069,27.8568 81.2798,27.9245 81.3423,27.987 L81.3423,26.1745 C81.3423,25.9245 81.285,25.7682 81.1704,25.7057 C81.0662,25.6537 80.8683,25.6172 80.5767,25.5964 L80.5767,25.362 L82.7329,25.362 L82.7329,31.112 C82.7329,31.3932 82.8162,31.5651 82.9829,31.6276 C83.0662,31.6589 83.1808,31.6797 83.3267,31.6901 L83.3267,31.9245 L82.7017,32.0026 C82.1496,32.0755 81.7069,32.1537 81.3735,32.237 M80.4985,31.7057 C80.7902,31.7057 81.0402,31.5391 81.2485,31.2057 C81.3006,31.112 81.3319,31.0443 81.3423,31.0026 L81.3423,28.5495 C81.2173,28.2162 81.009,28.0182 80.7173,27.9557 C80.6652,27.9453 80.6131,27.9401 80.561,27.9401 C80.0506,27.9401 79.7694,28.4453 79.7173,29.4557 C79.7173,29.5703 79.7173,29.6953 79.7173,29.8307 C79.7173,31.0703 79.9777,31.6953 80.4985,31.7057 M85.6704,29.6589 C85.7225,30.6797 85.9881,31.2787 86.4673,31.4557 C86.5923,31.4974 86.7225,31.5182 86.8579,31.5182 C87.2225,31.5182 87.5558,31.3516 87.8579,31.0182 C87.91,30.9662 87.9569,30.9141 87.9985,30.862 L88.2329,31.0026 C87.8162,31.6068 87.4048,31.987 86.9985,32.1432 C86.7902,32.2162 86.5558,32.2526 86.2954,32.2526 C85.5454,32.2526 84.9829,31.9453 84.6079,31.3307 C84.3579,30.9141 84.2329,30.4141 84.2329,29.8307 C84.2329,28.9349 84.5037,28.263 85.0454,27.8151 C85.41,27.5235 85.8371,27.3776 86.3267,27.3776 C87.4308,27.3776 88.0506,28.0964 88.186,29.5339 C88.186,29.5755 88.186,29.6172 88.186,29.6589 L85.6704,29.6589 M86.9673,29.1432 C86.9465,28.5182 86.8787,28.1224 86.7642,27.9557 C86.6704,27.7995 86.5246,27.7214 86.3267,27.7214 C86.035,27.7214 85.8371,27.8932 85.7329,28.237 C85.6704,28.4766 85.634,28.8307 85.6235,29.2995 L86.9673,29.2995 L86.9673,29.1432 M91.2173,28.7214 C91.2173,27.6276 91.4777,26.737 91.9985,26.0495 C92.4256,25.5182 92.9204,25.2474 93.4829,25.237 C94.1392,25.237 94.6808,25.5755 95.1079,26.2526 C95.5246,26.9297 95.7329,27.7578 95.7329,28.737 C95.7329,29.8828 95.4673,30.7943 94.936,31.4714 C94.5298,31.9818 94.0506,32.237 93.4985,32.237 C92.8006,32.237 92.2381,31.8828 91.811,31.1745 C91.4152,30.5182 91.2173,29.7005 91.2173,28.7214 M93.4985,31.9557 C93.7902,31.9557 93.9829,31.6849 94.0767,31.1432 C94.1287,30.8203 94.1548,30.4037 94.1548,29.8932 L94.1548,27.612 C94.1548,26.4037 93.9985,25.7214 93.686,25.5651 C93.6131,25.5339 93.5402,25.5182 93.4673,25.5182 C93.1652,25.5182 92.9673,25.7943 92.8735,26.3464 C92.8215,26.6589 92.7954,27.0807 92.7954,27.612 L92.7954,29.8932 C92.7954,31.0287 92.936,31.6901 93.2173,31.8776 C93.3006,31.9297 93.3944,31.9557 93.4985,31.9557 M97.6392,30.5495 C97.9621,30.5495 98.2069,30.6901 98.3735,30.9714 C98.4569,31.1172 98.4985,31.263 98.4985,31.4089 C98.4985,31.7214 98.3579,31.961 98.0767,32.1276 C97.9308,32.2005 97.785,32.237 97.6392,32.237 C97.3058,32.237 97.061,32.0964 96.9048,31.8151 C96.8319,31.6797 96.7954,31.5391 96.7954,31.3932 C96.7954,31.0912 96.9308,30.8568 97.2017,30.6901 C97.3371,30.5964 97.4829,30.5495 97.6392,30.5495 M97.6392,27.3932 C97.9621,27.3932 98.2069,27.5287 98.3735,27.7995 C98.4569,27.9453 98.4985,28.0912 98.4985,28.237 C98.4985,28.5599 98.3579,28.8047 98.0767,28.9714 C97.9412,29.0443 97.7954,29.0807 97.6392,29.0807 C97.3058,29.0807 97.061,28.9349 96.9048,28.6432 C96.8319,28.5078 96.7954,28.3672 96.7954,28.2214 C96.7954,27.9193 96.9308,27.6849 97.2017,27.5182 C97.3371,27.4349 97.4829,27.3932 97.6392,27.3932"/>
<path class="StaffText" d="M109.045,31.9245 L109.045,32.112 L106.483,32.112 L106.483,31.9245 C106.9,31.9141 107.129,31.8412 107.17,31.7057 C107.181,31.6641 107.186,31.6224 107.186,31.5807 C107.186,31.4245 107.124,31.2057 106.999,30.9245 L106.592,29.987 L103.967,29.987 L103.514,31.1276 C103.462,31.2735 103.436,31.4037 103.436,31.5182 C103.446,31.7787 103.67,31.9141 104.108,31.9245 L104.108,32.112 L102.139,32.112 L102.139,31.9245 C102.379,31.9141 102.561,31.8307 102.686,31.6745 C102.832,31.4766 103.061,31.013 103.374,30.2839 L105.452,25.3776 L105.655,25.3776 L108.139,31.0495 C108.337,31.487 108.504,31.7474 108.639,31.8307 C108.733,31.8828 108.868,31.9141 109.045,31.9245 M104.139,29.5495 L106.452,29.5495 L105.295,26.7995 L104.139,29.5495 M112.108,28.1589 L112.108,27.987 C112.587,27.8412 113.056,27.6849 113.514,27.5182 L113.577,27.5339 L113.577,28.2995 C114.15,27.862 114.561,27.612 114.811,27.5495 C114.915,27.5287 115.019,27.5182 115.124,27.5182 C115.655,27.5287 116.009,27.8151 116.186,28.3776 C116.717,27.8047 117.264,27.5182 117.827,27.5182 C118.587,27.5287 118.972,28.1276 118.983,29.3151 L118.983,31.362 C118.993,31.7266 119.134,31.9193 119.405,31.9401 L119.67,31.9557 L119.67,32.112 L117.483,32.112 L117.483,31.9557 C117.806,31.9245 117.999,31.8516 118.061,31.737 C118.113,31.6432 118.139,31.4818 118.139,31.2526 L118.139,29.1432 C118.139,28.5912 118.03,28.2578 117.811,28.1432 C117.707,28.0807 117.566,28.0495 117.389,28.0495 C116.941,28.0599 116.577,28.263 116.295,28.6589 L116.295,31.1745 C116.295,31.5495 116.384,31.7839 116.561,31.8776 C116.665,31.9297 116.816,31.9557 117.014,31.9557 L117.014,32.112 L114.78,32.112 L114.78,31.9557 C115.103,31.9349 115.301,31.862 115.374,31.737 C115.436,31.6432 115.467,31.4818 115.467,31.2526 L115.467,29.0964 C115.467,28.3985 115.243,28.0495 114.795,28.0495 C114.431,28.0495 114.108,28.1693 113.827,28.4089 C113.754,28.4818 113.686,28.5599 113.624,28.6432 L113.624,31.4401 C113.624,31.6901 113.712,31.8464 113.889,31.9089 C113.983,31.9401 114.118,31.9557 114.295,31.9557 L114.295,32.112 L112.077,32.112 L112.077,31.9557 C112.431,31.9557 112.644,31.8724 112.717,31.7057 C112.759,31.6016 112.78,31.4557 112.78,31.2682 L112.78,28.7526 C112.78,28.3776 112.702,28.1693 112.545,28.1276 C112.514,28.1172 112.478,28.112 112.436,28.112 C112.332,28.112 112.222,28.1276 112.108,28.1589 M120.608,28.1901 C120.452,28.1901 120.311,28.2005 120.186,28.2214 L120.186,28.0651 C120.655,27.9297 121.17,27.7474 121.733,27.5182 L121.764,27.5495 L121.764,31.0964 C121.764,31.4818 121.821,31.7214 121.936,31.8151 C122.03,31.888 122.222,31.9349 122.514,31.9557 L122.514,32.112 L120.139,32.112 L120.139,31.9557 C120.504,31.9349 120.733,31.8672 120.827,31.7526 C120.9,31.638 120.936,31.4193 120.936,31.0964 L120.936,28.7682 C120.936,28.4141 120.853,28.2214 120.686,28.1901 C120.655,28.1901 120.629,28.1901 120.608,28.1901 M121.264,25.2839 C121.483,25.2839 121.639,25.3828 121.733,25.5807 C121.764,25.6537 121.78,25.7266 121.78,25.7995 C121.78,26.0182 121.676,26.1745 121.467,26.2682 C121.394,26.2891 121.327,26.2995 121.264,26.2995 C121.045,26.2995 120.889,26.2005 120.795,26.0026 C120.775,25.9297 120.764,25.862 120.764,25.7995 C120.764,25.5807 120.858,25.4245 121.045,25.3307 C121.118,25.2995 121.191,25.2839 121.264,25.2839 M123.077,28.1276 L123.077,27.9557 C123.577,27.8099 124.04,27.6641 124.467,27.5182 L124.53,27.5339 L124.53,28.3151 C125.009,27.8776 125.384,27.6224 125.655,27.5495 C125.759,27.5287 125.868,27.5182 125.983,27.5182 C126.525,27.5182 126.884,27.7891 127.061,28.3307 C127.124,28.5287 127.155,28.7526 127.155,29.0026 L127.155,31.2995 C127.155,31.612 127.228,31.8047 127.374,31.8776 C127.467,31.9089 127.597,31.9349 127.764,31.9557 L127.764,32.112 L125.686,32.112 L125.686,31.9557 C125.988,31.9349 126.176,31.836 126.249,31.6589 C126.301,31.5443 126.327,31.3672 126.327,31.1276 L126.327,29.0339 C126.306,28.388 126.061,28.0599 125.592,28.0495 C125.342,28.0495 125.082,28.1641 124.811,28.3932 C124.738,28.4662 124.655,28.5443 124.561,28.6276 L124.561,31.4401 C124.561,31.6797 124.66,31.836 124.858,31.9089 C124.952,31.9297 125.071,31.9453 125.217,31.9557 L125.217,32.112 L123.108,32.112 L123.108,31.9557 C123.4,31.9349 123.582,31.8516 123.655,31.7057 C123.696,31.5912 123.717,31.4245 123.717,31.2057 L123.717,28.7214 C123.717,28.3568 123.644,28.1537 123.499,28.112 C123.457,28.0912 123.41,28.0807 123.358,28.0807 C123.233,28.0807 123.139,28.0964 123.077,28.1276 M130.436,27.5182 C131.176,27.5182 131.759,27.7891 132.186,28.3307 C132.488,28.737 132.639,29.2162 132.639,29.7682 C132.639,30.5495 132.384,31.1745 131.874,31.6432 C131.457,32.0182 130.972,32.2057 130.42,32.2057 C129.712,32.2057 129.15,31.9349 128.733,31.3932 C128.4,30.9557 128.233,30.4401 128.233,29.8464 C128.233,29.0339 128.509,28.4089 129.061,27.9714 C129.446,27.6693 129.905,27.5182 130.436,27.5182 M129.139,29.362 C129.139,30.2682 129.327,30.961 129.702,31.4401 C129.941,31.7526 130.222,31.9089 130.545,31.9089 C131.066,31.9089 131.426,31.612 131.624,31.0182 C131.707,30.7578 131.749,30.461 131.749,30.1276 C131.749,29.2422 131.535,28.586 131.108,28.1589 C130.879,27.9297 130.613,27.8151 130.311,27.8151 C129.842,27.8151 129.504,28.0547 129.295,28.5339 C129.191,28.7735 129.139,29.0495 129.139,29.362 M135.999,28.487 C135.894,28.487 135.743,28.4037 135.545,28.237 C135.452,28.1537 135.379,28.112 135.327,28.112 C135.16,28.112 134.988,28.2422 134.811,28.5026 C134.696,28.6693 134.639,28.8151 134.639,28.9401 L134.639,31.2057 C134.639,31.5495 134.728,31.763 134.905,31.8464 C135.03,31.9089 135.222,31.9453 135.483,31.9557 L135.483,32.112 L133.077,32.112 L133.077,31.9557 C133.431,31.8932 133.644,31.8099 133.717,31.7057 C133.769,31.6224 133.795,31.4766 133.795,31.2682 L133.795,28.7526 C133.795,28.388 133.712,28.1901 133.545,28.1589 C133.514,28.1485 133.483,28.1432 133.452,28.1432 C133.337,28.1432 133.222,28.1589 133.108,28.1901 L133.108,28.0339 C133.639,27.8672 134.129,27.6953 134.577,27.5182 L134.639,27.5339 L134.639,28.4245 C134.983,27.9453 135.275,27.6589 135.514,27.5651 C135.618,27.5339 135.722,27.5182 135.827,27.5182 C136.139,27.5182 136.321,27.6485 136.374,27.9089 C136.374,27.9505 136.374,27.9974 136.374,28.0495 C136.342,28.3203 136.217,28.4662 135.999,28.487 M141.655,27.7214 C141.676,27.711 141.733,27.6745 141.827,27.612 L141.936,27.612 L141.967,28.9714 L141.827,28.9714 C141.66,28.3255 141.42,27.9401 141.108,27.8151 C140.993,27.763 140.863,27.737 140.717,27.737 C140.363,27.737 140.124,27.8776 139.999,28.1589 C139.967,28.2422 139.952,28.3307 139.952,28.4245 C139.962,28.7057 140.108,28.9297 140.389,29.0964 L141.467,29.737 C141.946,30.0287 142.217,30.3464 142.28,30.6901 C142.29,30.763 142.295,30.8464 142.295,30.9401 C142.295,31.3568 142.113,31.6953 141.749,31.9557 C141.488,32.1224 141.202,32.2057 140.889,32.2057 C140.754,32.2057 140.446,32.1589 139.967,32.0651 C139.853,32.0443 139.764,32.0339 139.702,32.0339 C139.597,32.0443 139.519,32.086 139.467,32.1589 L139.342,32.1589 L139.342,30.5964 L139.499,30.5964 C139.603,31.0651 139.733,31.3932 139.889,31.5807 C140.108,31.8516 140.4,31.987 140.764,31.987 C141.191,31.987 141.457,31.8307 141.561,31.5182 C141.592,31.4453 141.608,31.362 141.608,31.2682 C141.597,30.9662 141.42,30.7162 141.077,30.5182 L140.499,30.1901 C139.874,29.836 139.504,29.4818 139.389,29.1276 C139.347,29.0026 139.327,28.8776 139.327,28.7526 C139.327,28.2839 139.53,27.9349 139.936,27.7057 C140.165,27.5807 140.415,27.5182 140.686,27.5182 C140.905,27.5182 141.165,27.5703 141.467,27.6745 C141.551,27.7057 141.613,27.7214 141.655,27.7214 M143.233,29.987 C143.233,29.1432 143.519,28.4818 144.092,28.0026 C144.488,27.6797 144.931,27.5182 145.42,27.5182 C145.972,27.5182 146.4,27.6693 146.702,27.9714 C146.879,28.1485 146.967,28.3412 146.967,28.5495 C146.967,28.7266 146.874,28.8516 146.686,28.9245 C146.613,28.9557 146.545,28.9714 146.483,28.9714 C146.275,28.9714 146.124,28.836 146.03,28.5651 C146.019,28.5443 146.014,28.5235 146.014,28.5026 L145.952,28.2839 C145.889,28.0339 145.775,27.888 145.608,27.8464 C145.535,27.8255 145.452,27.8151 145.358,27.8151 C144.858,27.8151 144.478,28.0547 144.217,28.5339 C144.071,28.8255 143.999,29.1641 143.999,29.5495 C143.999,30.2787 144.222,30.8255 144.67,31.1901 C144.931,31.388 145.222,31.487 145.545,31.487 C145.962,31.487 146.321,31.3203 146.624,30.987 C146.728,30.862 146.842,30.7162 146.967,30.5495 L147.108,30.6432 C146.733,31.362 146.316,31.8307 145.858,32.0495 C145.618,32.1537 145.379,32.2057 145.139,32.2057 C144.493,32.2057 143.988,31.9401 143.624,31.4089 C143.363,31.0026 143.233,30.5287 143.233,29.987 M147.233,31.1432 C147.233,30.6328 147.551,30.2005 148.186,29.8464 C148.374,29.7526 148.874,29.5391 149.686,29.2057 C149.707,29.2057 149.722,29.2005 149.733,29.1901 L149.733,28.5807 C149.681,28.0599 149.426,27.7839 148.967,27.7526 C148.655,27.7526 148.436,27.8516 148.311,28.0495 C148.269,28.1224 148.249,28.1849 148.249,28.237 C148.249,28.2995 148.259,28.3828 148.28,28.487 C148.29,28.5599 148.295,28.612 148.295,28.6432 C148.295,28.8203 148.207,28.9453 148.03,29.0182 C147.967,29.0495 147.91,29.0651 147.858,29.0651 C147.67,29.0651 147.54,28.9766 147.467,28.7995 C147.436,28.7474 147.42,28.6901 147.42,28.6276 C147.42,28.263 147.639,27.9662 148.077,27.737 C148.379,27.5912 148.722,27.5182 149.108,27.5182 C149.827,27.5182 150.269,27.7735 150.436,28.2839 C150.509,28.5026 150.545,28.7787 150.545,29.112 L150.545,31.0495 C150.545,31.3828 150.608,31.5703 150.733,31.612 C150.775,31.6224 150.811,31.6276 150.842,31.6276 C150.988,31.6172 151.134,31.5547 151.28,31.4401 L151.28,31.6901 C151.009,32.0026 150.759,32.1745 150.53,32.2057 C150.478,32.2057 150.426,32.2057 150.374,32.2057 C150.061,32.2057 149.863,32.0495 149.78,31.737 C149.759,31.6537 149.749,31.5599 149.749,31.4557 C149.155,31.9349 148.665,32.1849 148.28,32.2057 C147.853,32.2057 147.545,32.0339 147.358,31.6901 C147.275,31.5235 147.233,31.3412 147.233,31.1432 M149.733,30.862 L149.733,29.4245 C148.91,29.7266 148.405,30.0339 148.217,30.3464 C148.144,30.4922 148.108,30.6485 148.108,30.8151 C148.108,31.211 148.254,31.461 148.545,31.5651 C148.618,31.5964 148.686,31.612 148.749,31.612 C148.967,31.6016 149.207,31.5235 149.467,31.3776 C149.613,31.2943 149.696,31.1901 149.717,31.0651 C149.728,31.0026 149.733,30.9349 149.733,30.862 M151.077,25.8776 L151.077,25.7214 C151.743,25.5547 152.275,25.4089 152.67,25.2839 L152.717,25.2995 L152.717,31.2682 C152.717,31.5807 152.78,31.7735 152.905,31.8464 C153.019,31.8985 153.207,31.9349 153.467,31.9557 L153.467,32.112 L151.108,32.112 L151.108,31.9557 C151.483,31.9245 151.712,31.836 151.795,31.6901 C151.847,31.5964 151.874,31.4453 151.874,31.237 L151.874,26.4714 C151.874,26.138 151.801,25.9453 151.655,25.8932 C151.592,25.8724 151.525,25.862 151.452,25.862 C151.316,25.862 151.191,25.8672 151.077,25.8776 M154.952,29.3464 C154.993,30.5235 155.379,31.2162 156.108,31.4245 C156.233,31.4662 156.368,31.487 156.514,31.487 C157.004,31.487 157.42,31.2787 157.764,30.862 C157.858,30.7474 157.957,30.612 158.061,30.4557 L158.217,30.5182 C157.853,31.4766 157.28,32.0287 156.499,32.1745 C156.363,32.1953 156.233,32.2057 156.108,32.2057 C155.368,32.2057 154.837,31.8932 154.514,31.2682 C154.327,30.8932 154.233,30.461 154.233,29.9714 C154.233,29.086 154.509,28.4141 155.061,27.9557 C155.426,27.6641 155.847,27.5182 156.327,27.5182 C157.243,27.5182 157.795,28.0391 157.983,29.0807 C158.004,29.1745 158.019,29.263 158.03,29.3464 L154.952,29.3464 M154.967,29.0495 L157.014,29.0495 C156.92,28.4766 156.754,28.1224 156.514,27.987 C156.389,27.9245 156.228,27.8932 156.03,27.8932 C155.436,27.8932 155.082,28.2682 154.967,29.0182 C154.967,29.0287 154.967,29.0391 154.967,29.0495 M163.577,27.612 L163.577,27.9089 L162.561,27.9089 L162.561,30.7682 C162.561,31.3099 162.696,31.6068 162.967,31.6589 C162.999,31.6693 163.035,31.6745 163.077,31.6745 C163.285,31.6641 163.488,31.5443 163.686,31.3151 L163.811,31.4401 C163.488,31.9505 163.087,32.2057 162.608,32.2057 C162.025,32.1953 161.728,31.7735 161.717,30.9401 L161.717,27.9089 L161.186,27.9089 C161.165,27.888 161.155,27.8672 161.155,27.8464 C161.155,27.8047 161.196,27.763 161.28,27.7214 C161.561,27.5339 161.894,27.1693 162.28,26.6276 C162.29,26.6172 162.295,26.612 162.295,26.612 C162.4,26.4557 162.467,26.362 162.499,26.3307 C162.54,26.3412 162.561,26.3828 162.561,26.4557 L162.561,27.612 L163.577,27.612 M166.436,27.5182 C167.176,27.5182 167.759,27.7891 168.186,28.3307 C168.488,28.737 168.639,29.2162 168.639,29.7682 C168.639,30.5495 168.384,31.1745 167.874,31.6432 C167.457,32.0182 166.972,32.2057 166.42,32.2057 C165.712,32.2057 165.15,31.9349 164.733,31.3932 C164.4,30.9557 164.233,30.4401 164.233,29.8464 C164.233,29.0339 164.509,28.4089 165.061,27.9714 C165.446,27.6693 165.905,27.5182 166.436,27.5182 M165.139,29.362 C165.139,30.2682 165.327,30.961 165.702,31.4401 C165.941,31.7526 166.222,31.9089 166.545,31.9089 C167.066,31.9089 167.426,31.612 167.624,31.0182 C167.707,30.7578 167.749,30.461 167.749,30.1276 C167.749,29.2422 167.535,28.586 167.108,28.1589 C166.879,27.9297 166.613,27.8151 166.311,27.8151 C165.842,27.8151 165.504,28.0547 165.295,28.5339 C165.191,28.7735 165.139,29.0495 165.139,29.362 M175.545,30.1432 C175.545,29.2266 175.051,28.5807 174.061,28.2057 C173.613,28.0391 173.176,27.9557 172.749,27.9557 C172.676,27.9453 172.634,27.9193 172.624,27.8776 C172.624,27.8464 172.629,27.8255 172.639,27.8151 L173.717,25.5026 L175.811,25.5026 C175.988,25.5026 176.129,25.4297 176.233,25.2839 C176.243,25.263 176.254,25.2474 176.264,25.237 L176.358,25.2995 L175.983,26.1432 C175.941,26.1953 175.863,26.2214 175.749,26.2214 L173.795,26.2214 L173.374,27.0807 C174.676,27.3203 175.525,27.7526 175.92,28.3776 C176.139,28.7214 176.249,29.1537 176.249,29.6745 C176.249,30.8099 175.775,31.5807 174.827,31.987 C174.42,32.1641 173.988,32.2526 173.53,32.2526 C172.884,32.2526 172.488,32.1068 172.342,31.8151 C172.311,31.763 172.295,31.7005 172.295,31.6276 C172.316,31.388 172.462,31.2682 172.733,31.2682 C172.92,31.2682 173.165,31.3724 173.467,31.5807 C173.759,31.7787 173.988,31.8776 174.155,31.8776 C174.624,31.8776 174.993,31.6589 175.264,31.2214 C175.452,30.8985 175.545,30.5391 175.545,30.1432 M179.577,27.612 L179.577,27.9089 L178.561,27.9089 L178.561,30.7682 C178.561,31.3099 178.696,31.6068 178.967,31.6589 C178.999,31.6693 179.035,31.6745 179.077,31.6745 C179.285,31.6641 179.488,31.5443 179.686,31.3151 L179.811,31.4401 C179.488,31.9505 179.087,32.2057 178.608,32.2057 C178.025,32.1953 177.728,31.7735 177.717,30.9401 L177.717,27.9089 L177.186,27.9089 C177.165,27.888 177.155,27.8672 177.155,27.8464 C177.155,27.8047 177.196,27.763 177.28,27.7214 C177.561,27.5339 177.894,27.1693 178.28,26.6276 C178.29,26.6172 178.295,26.612 178.295,26.612 C178.4,26.4557 178.467,26.362 178.499,26.3307 C178.54,26.3412 178.561,26.3828 178.561,26.4557 L178.561,27.612 L179.577,27.612 M181.561,28.6901 L181.561,31.0964 C181.561,31.4818 181.624,31.7214 181.749,31.8151 C181.842,31.888 182.009,31.9349 182.249,31.9557 L182.249,32.112 L180.077,32.112 L180.077,31.9557 C180.379,31.9245 180.566,31.8516 180.639,31.737 C180.691,31.6328 180.717,31.4193 180.717,31.0964 L180.717,26.3776 C180.717,26.1172 180.665,25.961 180.561,25.9089 C180.499,25.8776 180.4,25.862 180.264,25.862 C180.212,25.862 180.155,25.8672 180.092,25.8776 L180.092,25.7214 C180.571,25.5964 181.045,25.4505 181.514,25.2839 L181.561,25.3151 L181.561,28.3464 C181.946,27.8568 182.358,27.5807 182.795,27.5182 C182.868,27.5182 182.946,27.5182 183.03,27.5182 C183.842,27.5287 184.254,28.0547 184.264,29.0964 L184.264,31.0964 C184.264,31.4714 184.311,31.7057 184.405,31.7995 C184.478,31.8724 184.629,31.9245 184.858,31.9557 L184.858,32.112 L182.749,32.112 L182.749,31.9557 C183.061,31.9245 183.254,31.8412 183.327,31.7057 C183.389,31.5912 183.42,31.388 183.42,31.0964 L183.42,29.112 C183.41,28.4141 183.16,28.0599 182.67,28.0495 C182.347,28.0495 182.019,28.2162 181.686,28.5495 C181.644,28.6016 181.603,28.6485 181.561,28.6901"/>
</svg>
