<?xml version="1.0" encoding="UTF-8" standalone="no"?>
<svg width="595.44px" height="841.68px" viewBox="0 0 595.44 841.68"
 xmlns="http://www.w3.org/2000/svg" xmlns:xlink="http://www.w3.org/1999/xlink" version="1.2" baseProfile="tiny">
<title>Guitar Scales and Arpeggios</title>
<desc>Generated by MuseScore 2.1.0</desc>
<polyline class="StaffLines" fill="none" stroke="#000000" stroke-width="0.40" stroke-linejoin="bevel" points="28.08,62.856 567.36,62.856"/>
<polyline class="StaffLines" fill="none" stroke="#000000" stroke-width="0.40" stroke-linejoin="bevel" points="28.08,67.824 567.36,67.824"/>
<polyline class="StaffLines" fill="none" stroke="#000000" stroke-width="0.40" stroke-linejoin="bevel" points="28.08,72.792 567.36,72.792"/>
<polyline class="StaffLines" fill="none" stroke="#000000" stroke-width="0.40" stroke-linejoin="bevel" points="28.08,77.76 567.36,77.76"/>
<polyline class="StaffLines" fill="none" stroke="#000000" stroke-width="0.40" stroke-linejoin="bevel" points="28.08,82.728 567.36,82.728"/>
<polyline class="StaffLines" fill="none" stroke="#000000" stroke-width="0.40" stroke-linejoin="bevel" points="28.08,115.02 567.36,115.02"/>
<polyline class="StaffLines" fill="none" stroke="#000000" stroke-width="0.40" stroke-linejoin="bevel" points="28.08,122.472 567.36,122.472"/>
<polyline class="StaffLines" fill="none" stroke="#000000" stroke-width="0.40" stroke-linejoin="bevel" points="28.08,129.924 567.36,129.924"/>
<polyline class="StaffLines" fill="none" stroke="#000000" stroke-width="0.40" stroke-linejoin="bevel" points="28.08,137.376 567.36,137.376"/>
<polyline class="StaffLines" fill="none" stroke="#000000" stroke-width="0.40" stroke-linejoin="bevel" points="28.08,144.828 567.36,144.828"/>
<polyline class="StaffLines" fill="none" stroke="#000000" stroke-width="0.40" stroke-linejoin="bevel" points="28.08,152.28 567.36,152.28"/>
<polyline class="BarLine" fill="none" stroke="#000000" stroke-width="0.79" stroke-linejoin="bevel" points="28.4774,62.856 28.4774,152.28"/>
<polyline class="BarLine" fill="none" stroke="#000000" stroke-width="0.79" stroke-linejoin="bevel" points="562.491,115.02 562.491,152.28"/>
<polyline class="BarLine" fill="none" stroke="#000000" stroke-width="2.48" stroke-linejoin="bevel" points="566.118,115.02 566.118,152.28"/>
<polyline class="BarLine" fill="none" stroke="#000000" stroke-width="0.79" stroke-linejoin="bevel" points="562.491,62.856 562.491,82.728"/>
<polyline class="BarLine" fill="none" stroke="#000000" stroke-width="2.48" stroke-linejoin="bevel" points="566.118,62.856 566.118,82.728"/>
<polyline class="Stem" fill="none" stroke="#000000" stroke-width="0.65" stroke-linecap="round" stroke-linejoin="bevel" points="425.316,74.5129 425.316,59.13"/>
<polyline class="Stem" fill="none" stroke="#000000" stroke-width="0.65" stroke-linecap="round" stroke-linejoin="bevel" points="329.758,71.2411 329.758,86.454"/>
<polyline class="Stem" fill="none" stroke="#000000" stroke-width="0.65" stroke-linecap="round" stroke-linejoin="bevel" points="240.274,66.2731 240.274,82.728"/>
<polyline class="Stem" fill="none" stroke="#000000" stroke-width="0.65" stroke-linecap="round" stroke-linejoin="bevel" points="150.79,71.2411 150.79,86.454"/>
<polyline class="Stem" fill="none" stroke="#000000" stroke-width="0.65" stroke-linecap="round" stroke-linejoin="bevel" points="67.2007,74.3429 67.2007,59.13"/>
<path class="Note" fill="#ffffff" fill-rule="evenodd" d="M419.665,126.198 L425.626,126.198 L425.626,133.65 L419.665,133.65 L419.665,126.198 "/>
<path class="Note" transform="matrix(0.9936,0,0,0.9936,420.161,133.402)" d="M0.453125,-4.17188 C0.494792,-5.64063 1.19792,-6.38021 2.5625,-6.39063 C3.28125,-6.39063 3.83333,-6.14583 4.21875,-5.65625 C4.46875,-5.32292 4.59375,-4.93229 4.59375,-4.48438 C4.59375,-3.68229 4.14583,-3.03125 3.25,-2.53125 L2.34375,-2.04688 C1.79167,-1.75521 1.44271,-1.4375 1.29688,-1.09375 C1.24479,-0.989583 1.21354,-0.869792 1.20313,-0.734375 L4.5625,-0.734375 L4.5625,0 L0.3125,0 C0.354167,-0.760417 0.520833,-1.33854 0.8125,-1.73438 C1.07292,-2.05729 1.5,-2.38542 2.09375,-2.71875 L2.92188,-3.1875 C3.49479,-3.52083 3.78646,-3.94271 3.79688,-4.45313 C3.79688,-4.88021 3.61458,-5.21354 3.25,-5.45313 C3.04167,-5.57813 2.80208,-5.64063 2.53125,-5.64063 C1.73958,-5.64063 1.3125,-5.16667 1.25,-4.21875 C1.25,-4.19792 1.25,-4.18229 1.25,-4.17188 L0.453125,-4.17188 "/>
<path class="Note" fill="#cc00ff" transform="matrix(0.9936,0,0,0.9936,418.74,75.276)" d="M6.3125,-1.3125 C6.3125,-1.53125 6.22917,-1.71875 6.0625,-1.875 C5.88542,-2.04167 5.6875,-2.125 5.46875,-2.125 C5.08333,-2.125 4.29688,-1.73438 3.10938,-0.953125 C1.88021,-0.161458 1.13021,0.40625 0.859375,0.75 C0.713542,0.927083 0.640625,1.11458 0.640625,1.3125 C0.640625,1.53125 0.729167,1.71875 0.90625,1.875 C1.0625,2.04167 1.25521,2.125 1.48438,2.125 C1.85938,2.125 2.65625,1.73438 3.875,0.953125 C5.07292,0.171875 5.8125,-0.395833 6.09375,-0.75 C6.23958,-0.916667 6.3125,-1.10417 6.3125,-1.3125 M5.28125,-2.75 C6.39583,-2.75 6.95313,-2.27083 6.95313,-1.3125 C6.95313,-0.84375 6.81771,-0.296875 6.54688,0.328125 C6.27604,0.942708 5.91146,1.41146 5.45313,1.73438 C4.45313,2.41146 3.19792,2.75 1.6875,2.75 C0.5625,2.75 0,2.27083 0,1.3125 C0,0.885417 0.135417,0.34375 0.40625,-0.3125 C0.666667,-0.9375 1.03125,-1.41146 1.5,-1.73438 C2.51042,-2.41146 3.77083,-2.75 5.28125,-2.75"/>
<path class="Note" fill="#ffffff" fill-rule="evenodd" d="M330.18,118.746 L336.142,118.746 L336.142,126.198 L330.18,126.198 L330.18,118.746 "/>
<path class="Note" transform="matrix(0.9936,0,0,0.9936,330.677,125.95)" d="M2.32813,-4.54688 L0.921875,-4.54688 L0.921875,-5.10938 C1.53646,-5.19271 1.93229,-5.30208 2.10938,-5.4375 C2.28646,-5.57292 2.4375,-5.85417 2.5625,-6.28125 C2.57292,-6.3125 2.58854,-6.34896 2.60938,-6.39063 L3.125,-6.39063 L3.125,0 L2.32813,0 L2.32813,-4.54688 "/>
<path class="Note" fill="#ed2929" transform="matrix(0.9936,0,0,0.9936,329.435,70.308)" d="M4.39063,-2.75 C5.01563,-2.75 5.54688,-2.58854 5.98438,-2.26563 C6.38021,-1.91146 6.57813,-1.46875 6.57813,-0.9375 C6.57813,-0.0416667 6.11979,0.796875 5.20313,1.57813 C4.26563,2.35938 3.26042,2.75 2.1875,2.75 C1.5625,2.75 1.03646,2.58854 0.609375,2.26563 C0.203125,1.91146 0,1.46875 0,0.9375 C0,0.0416667 0.46875,-0.796875 1.40625,-1.57813 C2.32292,-2.35938 3.31771,-2.75 4.39063,-2.75"/>
<path class="Note" fill="#ffffff" fill-rule="evenodd" d="M240.696,111.294 L246.658,111.294 L246.658,118.746 L240.696,118.746 L240.696,111.294 "/>
<path class="Note" transform="matrix(0.9936,0,0,0.9936,241.193,118.498)" d="M0.390625,-3.09375 C0.390625,-5 0.927083,-6.07813 2,-6.32813 C2.14583,-6.36979 2.30208,-6.39063 2.46875,-6.39063 C3.78125,-6.39063 4.47917,-5.40104 4.5625,-3.42188 C4.5625,-3.28646 4.5625,-3.15625 4.5625,-3.03125 C4.5625,-1.40625 4.15104,-0.385417 3.32813,0.03125 C3.06771,0.145833 2.78125,0.203125 2.46875,0.203125 C1.41667,0.203125 0.760417,-0.442708 0.5,-1.73438 C0.427083,-2.14063 0.390625,-2.59375 0.390625,-3.09375 M2.46875,-5.64063 C1.625,-5.63021 1.20313,-4.77083 1.20313,-3.0625 C1.20313,-1.32292 1.61979,-0.453125 2.45313,-0.453125 C3.16146,-0.453125 3.57813,-1.02604 3.70313,-2.17188 C3.73438,-2.44271 3.75,-2.75 3.75,-3.09375 C3.75,-4.79167 3.32292,-5.64063 2.46875,-5.64063"/>
<path class="Note" fill="#ff9933" transform="matrix(0.9936,0,0,0.9936,239.951,65.34)" d="M4.39063,-2.75 C5.01563,-2.75 5.54688,-2.58854 5.98438,-2.26563 C6.38021,-1.91146 6.57813,-1.46875 6.57813,-0.9375 C6.57813,-0.0416667 6.11979,0.796875 5.20313,1.57813 C4.26563,2.35938 3.26042,2.75 2.1875,2.75 C1.5625,2.75 1.03646,2.58854 0.609375,2.26563 C0.203125,1.91146 0,1.46875 0,0.9375 C0,0.0416667 0.46875,-0.796875 1.40625,-1.57813 C2.32292,-2.35938 3.31771,-2.75 4.39063,-2.75"/>
<path class="Note" fill="#ffffff" fill-rule="evenodd" d="M151.212,118.746 L157.174,118.746 L157.174,126.198 L151.212,126.198 L151.212,118.746 "/>
<path class="Note" transform="matrix(0.9936,0,0,0.9936,151.709,125.95)" d="M2.32813,-4.54688 L0.921875,-4.54688 L0.921875,-5.10938 C1.53646,-5.19271 1.93229,-5.30208 2.10938,-5.4375 C2.28646,-5.57292 2.4375,-5.85417 2.5625,-6.28125 C2.57292,-6.3125 2.58854,-6.34896 2.60938,-6.39063 L3.125,-6.39063 L3.125,0 L2.32813,0 L2.32813,-4.54688 "/>
<path class="Note" fill="#ed2929" transform="matrix(0.9936,0,0,0.9936,150.467,70.308)" d="M4.39063,-2.75 C5.01563,-2.75 5.54688,-2.58854 5.98438,-2.26563 C6.38021,-1.91146 6.57813,-1.46875 6.57813,-0.9375 C6.57813,-0.0416667 6.11979,0.796875 5.20313,1.57813 C4.26563,2.35938 3.26042,2.75 2.1875,2.75 C1.5625,2.75 1.03646,2.58854 0.609375,2.26563 C0.203125,1.91146 0,1.46875 0,0.9375 C0,0.0416667 0.46875,-0.796875 1.40625,-1.57813 C2.32292,-2.35938 3.31771,-2.75 4.39063,-2.75"/>
<path class="Note" fill="#ffffff" fill-rule="evenodd" d="M61.7281,126.198 L67.6897,126.198 L67.6897,133.65 L61.7281,133.65 L61.7281,126.198 "/>
<path class="Note" transform="matrix(0.9936,0,0,0.9936,62.2249,133.402)" d="M0.453125,-4.17188 C0.494792,-5.64063 1.19792,-6.38021 2.5625,-6.39063 C3.28125,-6.39063 3.83333,-6.14583 4.21875,-5.65625 C4.46875,-5.32292 4.59375,-4.93229 4.59375,-4.48438 C4.59375,-3.68229 4.14583,-3.03125 3.25,-2.53125 L2.34375,-2.04688 C1.79167,-1.75521 1.44271,-1.4375 1.29688,-1.09375 C1.24479,-0.989583 1.21354,-0.869792 1.20313,-0.734375 L4.5625,-0.734375 L4.5625,0 L0.3125,0 C0.354167,-0.760417 0.520833,-1.33854 0.8125,-1.73438 C1.07292,-2.05729 1.5,-2.38542 2.09375,-2.71875 L2.92188,-3.1875 C3.49479,-3.52083 3.78646,-3.94271 3.79688,-4.45313 C3.79688,-4.88021 3.61458,-5.21354 3.25,-5.45313 C3.04167,-5.57813 2.80208,-5.64063 2.53125,-5.64063 C1.73958,-5.64063 1.3125,-5.16667 1.25,-4.21875 C1.25,-4.19792 1.25,-4.18229 1.25,-4.17188 L0.453125,-4.17188 "/>
<path class="Note" fill="#cc00ff" transform="matrix(0.9936,0,0,0.9936,60.9829,75.276)" d="M4.39063,-2.75 C5.01563,-2.75 5.54688,-2.58854 5.98438,-2.26563 C6.38021,-1.91146 6.57813,-1.46875 6.57813,-0.9375 C6.57813,-0.0416667 6.11979,0.796875 5.20313,1.57813 C4.26563,2.35938 3.26042,2.75 2.1875,2.75 C1.5625,2.75 1.03646,2.58854 0.609375,2.26563 C0.203125,1.91146 0,1.46875 0,0.9375 C0,0.0416667 0.46875,-0.796875 1.40625,-1.57813 C2.32292,-2.35938 3.31771,-2.75 4.39063,-2.75"/>
<path class="Clef" transform="matrix(0.9936,0,0,0.9936,32.0544,133.65)" d="M5.32813,8.5 C5.32813,8.86458 5.04167,9.04688 4.46875,9.04688 C4.02083,9.04688 3.625,8.91146 3.28125,8.64063 C2.95833,8.34896 2.79688,7.98438 2.79688,7.54688 C2.79688,6.76563 3.27083,6.14063 4.21875,5.67188 C5.14583,5.18229 6.23438,4.9375 7.48438,4.9375 C7.96354,4.9375 8.47917,4.97396 9.03125,5.04688 C9.42708,5.09896 9.875,5.20313 10.375,5.35938 C10.8125,5.49479 11.1563,5.70573 11.4063,5.99219 C11.6563,6.27865 11.7813,6.61458 11.7813,7 C11.7813,7.89583 11.3177,8.63021 10.3906,9.20313 C11.7448,9.45313 12.4271,10.0573 12.4375,11.0156 C12.4375,11.8281 12.0729,12.5599 11.3438,13.2109 C10.6146,13.862 9.79167,14.1875 8.875,14.1875 C8.47917,14.1875 8.07813,14.0938 7.67188,13.9063 C7.29688,13.7292 7.03125,13.5625 6.875,13.4063 C6.71875,13.2188 6.64063,13.0781 6.64063,12.9844 C6.64063,12.8594 6.70833,12.75 6.84375,12.6563 C6.95833,12.5417 7.07813,12.4844 7.20313,12.4844 C7.25521,12.4844 7.36719,12.5677 7.53906,12.7344 C7.71094,12.901 7.95833,12.9844 8.28125,12.9844 C8.72917,12.9844 9.16146,12.7969 9.57813,12.4219 C9.97396,12.0573 10.1719,11.6198 10.1719,11.1094 C10.1719,10.6719 9.98438,10.3542 9.60938,10.1563 C9.24479,9.95833 8.76563,9.85938 8.17188,9.85938 C8.06771,9.85938 8.01563,9.75 8.01563,9.53125 C8.01563,9.21875 8.13021,9.0625 8.35938,9.0625 C8.72396,9.0625 9.05208,8.90625 9.34375,8.59375 C9.61458,8.26042 9.75,7.90104 9.75,7.51563 C9.75,7.40104 9.71875,7.22917 9.65625,7 C9.60417,6.84375 9.44792,6.65104 9.1875,6.42188 C8.9375,6.21354 8.58854,6.07292 8.14063,6 C8.02604,6.63542 7.88021,7.44792 7.70313,8.4375 C7.52604,9.42708 7.40625,10.0781 7.34375,10.3906 C7.125,11.5156 6.72396,12.4583 6.14063,13.2188 C5.52604,14.0313 4.86458,14.4375 4.15625,14.4375 C3.9375,14.4375 3.71354,14.3854 3.48438,14.2813 C3.29688,14.1979 3.0625,14.0365 2.78125,13.7969 C2.52083,13.5885 2.34375,13.4479 2.25,13.375 C2.19792,13.3438 2.17188,13.2865 2.17188,13.2031 C2.17188,13.0781 2.21875,12.9635 2.3125,12.8594 C2.41667,12.7344 2.52604,12.6719 2.64063,12.6719 C2.71354,12.6719 2.89323,12.7969 3.17969,13.0469 C3.46615,13.2969 3.76563,13.4219 4.07813,13.4219 C4.68229,13.4219 5.13542,13.0365 5.4375,12.2656 C5.71875,11.526 5.85938,10.6094 5.85938,9.51563 L5.85938,9.35938 C5.85938,8.63021 5.97917,7.54167 6.21875,6.09375 C5.80208,6.22917 5.46875,6.42708 5.21875,6.6875 C4.95833,6.94792 4.82813,7.21875 4.82813,7.5 C4.82813,7.71875 4.91146,7.90625 5.07813,8.0625 C5.24479,8.21875 5.32813,8.36458 5.32813,8.5 M1.40625,2.39063 C1.46875,2.39063 1.625,2.45313 1.875,2.57813 C2.13542,2.71354 2.35938,2.78125 2.54688,2.78125 C3.03646,2.78125 3.64063,2.42188 4.35938,1.70313 C6.43229,-0.411458 7.85938,-2.65104 8.64063,-5.01563 C8.79688,-5.51563 9.17708,-5.76563 9.78125,-5.76563 C10.0938,-5.76563 10.3646,-5.69792 10.5938,-5.5625 C10.8125,-5.42708 10.9219,-5.28646 10.9219,-5.14063 L10.5625,2.17188 C10.5625,2.55729 10.7031,2.75 10.9844,2.75 C11.1198,2.75 11.3281,2.6875 11.6094,2.5625 C11.8698,2.42708 12.026,2.35938 12.0781,2.35938 C12.1823,2.35938 12.2448,2.47396 12.2656,2.70313 C12.2656,2.91146 12.1823,3.04167 12.0156,3.09375 C11.8802,3.125 11.6198,3.24479 11.2344,3.45313 C10.8281,3.66146 10.5104,3.76563 10.2813,3.76563 C9.78125,3.76563 9.42708,3.375 9.21875,2.59375 C8.89583,1.375 8.6875,0.104167 8.59375,-1.21875 C8.07292,-0.552083 7.49479,0.119792 6.85938,0.796875 C7.08854,1.24479 7.51563,1.46875 8.14063,1.46875 C8.23438,1.46875 8.30729,1.46354 8.35938,1.45313 L8.375,1.45313 C8.47917,1.45313 8.53125,1.54688 8.53125,1.73438 C8.53125,1.98438 8.44792,2.13542 8.28125,2.1875 C8.01042,2.28125 7.72396,2.32813 7.42188,2.32813 C6.77604,2.32813 6.30729,2.10417 6.01563,1.65625 L5.23438,2.35938 C4.14063,3.29688 3.25,3.76563 2.5625,3.76563 C2.375,3.76563 2.1875,3.73438 2,3.67188 C1.84375,3.60938 1.66146,3.51042 1.45313,3.375 C1.36979,3.34375 1.27865,3.29688 1.17969,3.23438 C1.08073,3.17188 1.02083,3.13542 1,3.125 C0.9375,3.10417 0.90625,3.04688 0.90625,2.95313 C0.90625,2.84896 0.958333,2.72396 1.0625,2.57813 C1.14583,2.45313 1.26042,2.39063 1.40625,2.39063 M5.76563,-10.7969 C5.76563,-10.474 5.48438,-10.3125 4.92188,-10.3125 C4.43229,-10.3125 4.00521,-10.474 3.64063,-10.7969 C3.28646,-11.1302 3.10938,-11.5313 3.10938,-12 C3.10938,-12.4479 3.25,-12.8385 3.53125,-13.1719 C3.83333,-13.5052 4.21875,-13.7552 4.6875,-13.9219 C5.11458,-14.0781 5.59896,-14.2031 6.14063,-14.2969 C6.69271,-14.3594 7.22396,-14.3906 7.73438,-14.3906 C8.03646,-14.3906 8.59896,-14.2552 9.42188,-13.9844 C10.2552,-13.7135 10.8333,-13.5781 11.1563,-13.5781 C11.5625,-13.5781 11.9479,-13.651 12.3125,-13.7969 C12.6042,-13.9219 12.8906,-14.0677 13.1719,-14.2344 C13.3906,-14.3802 13.5104,-14.4531 13.5313,-14.4531 C13.6563,-14.4531 13.7604,-14.4167 13.8438,-14.3438 C13.9479,-14.2396 14,-14.151 14,-14.0781 C14,-13.9948 13.8802,-13.849 13.6406,-13.6406 C13.3802,-13.401 13.0078,-13.1641 12.5234,-12.9297 C12.0391,-12.6953 11.5313,-12.5781 11,-12.5781 C10.7604,-12.5781 10.4688,-12.6198 10.125,-12.7031 C9.89583,-11.2552 9.66146,-9.96875 9.42188,-8.84375 C9.21354,-7.85417 8.79688,-6.98958 8.17188,-6.25 C7.56771,-5.51042 6.89583,-5.14063 6.15625,-5.14063 C5.85417,-5.14063 5.58854,-5.19792 5.35938,-5.3125 C5.09896,-5.44792 4.82292,-5.64583 4.53125,-5.90625 C4.30208,-6.09375 4.08333,-6.26563 3.875,-6.42188 C3.82292,-6.46354 3.79688,-6.52604 3.79688,-6.60938 C3.79688,-6.69271 3.84896,-6.80729 3.95313,-6.95313 C4.05729,-7.06771 4.15104,-7.125 4.23438,-7.125 C4.31771,-7.125 4.54167,-6.96354 4.90625,-6.64063 C5.27083,-6.31771 5.59375,-6.15625 5.875,-6.15625 C6.39583,-6.15625 6.80208,-6.45313 7.09375,-7.04688 C7.375,-7.64063 7.53646,-8.34375 7.57813,-9.15625 C7.64063,-10.5 7.79167,-11.8906 8.03125,-13.3281 C7.73958,-13.3906 7.52604,-13.4219 7.39063,-13.4219 C6.76563,-13.4219 6.22917,-13.2917 5.78125,-13.0313 C5.34375,-12.7813 5.125,-12.4427 5.125,-12.0156 C5.125,-11.7031 5.22917,-11.4635 5.4375,-11.2969 C5.65625,-11.1094 5.76563,-10.9427 5.76563,-10.7969"/>
<path class="Clef" transform="matrix(0.9936,0,0,0.9936,32.0544,77.76)" d="M7.34375,-5.125 C7.34375,-5.125 7.38542,-5.125 7.46875,-5.125 C7.52083,-5.13542 7.5625,-5.14063 7.59375,-5.14063 C9.05208,-5.14063 10.25,-4.625 11.1875,-3.59375 C12.125,-2.58333 12.5938,-1.40104 12.5938,-0.046875 C12.5938,1.64063 11.901,3.01042 10.5156,4.0625 C10.151,4.35417 9.67188,4.58854 9.07813,4.76563 C9.15104,5.60938 9.1875,6.29167 9.1875,6.8125 C9.1875,6.91667 9.17188,7.29688 9.14063,7.95313 C9.08854,9.16146 8.67188,10.2083 7.89063,11.0938 C7.14063,11.9688 6.20313,12.4063 5.07813,12.4063 C4.02604,12.4063 3.13021,12.0365 2.39063,11.2969 C1.64063,10.5365 1.26563,9.625 1.26563,8.5625 C1.26563,8 1.48438,7.52083 1.92188,7.125 C2.35938,6.73958 2.86979,6.54688 3.45313,6.54688 C3.97396,6.54688 4.41146,6.75 4.76563,7.15625 C5.13021,7.53125 5.3125,8 5.3125,8.5625 C5.3125,9.0625 5.13021,9.49479 4.76563,9.85938 C4.40104,10.224 3.96354,10.4063 3.45313,10.4063 C3.24479,10.4063 3.04688,10.3698 2.85938,10.2969 C3.43229,11.1406 4.19271,11.5625 5.14063,11.5625 C6.03646,11.5625 6.77083,11.1979 7.34375,10.4688 C7.94792,9.71875 8.27604,8.83854 8.32813,7.82813 C8.34896,7.20313 8.35938,6.84896 8.35938,6.76563 C8.35938,6.03646 8.33333,5.4375 8.28125,4.96875 C7.63542,5.07292 7.05729,5.125 6.54688,5.125 C4.73438,5.125 3.19271,4.40625 1.92188,2.96875 C0.671875,1.52083 0.046875,-0.197917 0.046875,-2.1875 C0.046875,-2.60417 0.0833333,-3.02604 0.15625,-3.45313 C0.239583,-3.80729 0.338542,-4.19271 0.453125,-4.60938 C0.515625,-4.84896 0.692708,-5.22917 0.984375,-5.75 C1.08854,-5.90625 1.20573,-6.10156 1.33594,-6.33594 C1.46615,-6.57031 1.55729,-6.72396 1.60938,-6.79688 C1.73438,-7.05729 1.98438,-7.41146 2.35938,-7.85938 C2.46354,-7.97396 2.57292,-8.10156 2.6875,-8.24219 C2.80208,-8.38281 2.89844,-8.5 2.97656,-8.59375 C3.05469,-8.6875 3.11198,-8.76042 3.14844,-8.8125 C3.1849,-8.86458 3.47917,-9.20833 4.03125,-9.84375 C4.15625,-9.97917 4.28125,-10.1198 4.40625,-10.2656 C4.53125,-10.4115 4.63281,-10.5286 4.71094,-10.6172 C4.78906,-10.7057 4.84896,-10.7656 4.89063,-10.7969 C4.42188,-12.349 4.125,-13.5885 4,-14.5156 C3.91667,-15.2552 3.875,-16.2708 3.875,-17.5625 C3.875,-18.6979 4.13542,-19.7604 4.65625,-20.75 C5.15625,-21.7708 5.86458,-22.6094 6.78125,-23.2656 C6.84375,-23.3073 6.90625,-23.3281 6.96875,-23.3281 C7.0625,-23.3281 7.13021,-23.3073 7.17188,-23.2656 C7.86979,-22.4219 8.47396,-21.3229 8.98438,-19.9688 C9.50521,-18.6146 9.76563,-17.3802 9.76563,-16.2656 C9.76563,-15.0156 9.46875,-13.8438 8.875,-12.75 C8.19792,-11.5938 7.32292,-10.3958 6.25,-9.15625 C6.52083,-8.30208 6.88542,-6.95833 7.34375,-5.125 M9,3.96875 C9.67708,3.71875 10.2083,3.29688 10.5938,2.70313 C11.0104,2.13021 11.2188,1.48438 11.2188,0.765625 C11.2188,-0.161458 10.9063,-0.984375 10.2813,-1.70313 C9.63542,-2.44271 8.81771,-2.85938 7.82813,-2.95313 C8.39063,-0.203125 8.78125,2.10417 9,3.96875 M1.45313,-0.546875 C1.45313,0.744792 1.97396,1.88021 3.01563,2.85938 C4.07813,3.80729 5.27604,4.28125 6.60938,4.28125 C7.15104,4.28125 7.68229,4.23958 8.20313,4.15625 C7.99479,2.17708 7.58333,-0.192708 6.96875,-2.95313 C6.22917,-2.86979 5.64063,-2.60938 5.20313,-2.17188 C4.76563,-1.71354 4.54688,-1.19792 4.54688,-0.625 C4.54688,0.364583 5.07813,1.16667 6.14063,1.78125 C6.22396,1.875 6.26563,1.97396 6.26563,2.07813 C6.26563,2.18229 6.22396,2.27604 6.14063,2.35938 C6.05729,2.45313 5.95833,2.5 5.84375,2.5 C5.83333,2.5 5.77604,2.48958 5.67188,2.46875 C4.92188,2.0625 4.34896,1.54167 3.95313,0.90625 C3.56771,0.21875 3.375,-0.46875 3.375,-1.15625 C3.375,-2.05208 3.65625,-2.86458 4.21875,-3.59375 C4.80208,-4.32292 5.5625,-4.79167 6.5,-5 C6.13542,-6.45833 5.83854,-7.59896 5.60938,-8.42188 C5.40104,-8.18229 5.15104,-7.89844 4.85938,-7.57031 C4.56771,-7.24219 4.39583,-7.04167 4.34375,-6.96875 C3.875,-6.36458 3.51563,-5.89063 3.26563,-5.54688 C2.81771,-4.93229 2.48958,-4.40625 2.28125,-3.96875 C2.0625,-3.46875 1.86979,-2.92708 1.70313,-2.34375 C1.53646,-1.78125 1.45313,-1.18229 1.45313,-0.546875 M7.96875,-20.4063 C6.98958,-19.9271 6.22396,-19.2396 5.67188,-18.3438 C5.09896,-17.4167 4.8125,-16.4219 4.8125,-15.3594 C4.8125,-14.4219 5.04688,-13.1563 5.51563,-11.5625 C6.45313,-12.6979 7.15625,-13.7448 7.625,-14.7031 C8.11458,-15.724 8.35938,-16.7865 8.35938,-17.8906 C8.35938,-18.724 8.22917,-19.5625 7.96875,-20.4063 M5.82813,15.2344 C6.16146,14.901 6.32813,14.5625 6.32813,14.2188 C6.30729,13.9479 6.19271,13.7396 5.98438,13.5938 C5.74479,13.4375 5.46875,13.3594 5.15625,13.3594 C4.9375,13.3594 4.75521,13.4323 4.60938,13.5781 C4.48438,13.7031 4.42188,13.8646 4.42188,14.0625 C4.42188,14.3021 4.51563,14.4792 4.70313,14.5938 L5.82813,15.2344 M6.14063,15.4063 C6.68229,15.7083 6.95313,16.1146 6.95313,16.625 L6.95313,16.6875 C6.95313,17.0833 6.79167,17.4219 6.46875,17.7031 C6.14583,17.9844 5.68229,18.125 5.07813,18.125 C4.58854,18.125 4.16146,17.9948 3.79688,17.7344 C3.43229,17.4844 3.25,17.1458 3.25,16.7188 C3.25,16.5521 3.29167,16.3958 3.375,16.25 C3.47917,16.0833 3.56771,15.9688 3.64063,15.9063 L4,15.5313 C3.60417,15.2604 3.40625,14.901 3.40625,14.4531 C3.40625,14.099 3.5625,13.7865 3.875,13.5156 C4.19792,13.2552 4.625,13.125 5.15625,13.125 C5.60417,13.125 5.98438,13.224 6.29688,13.4219 C6.60938,13.6198 6.76563,13.8854 6.76563,14.2188 C6.76563,14.5729 6.55729,14.9688 6.14063,15.4063 M4.29688,15.7031 C3.91146,16.0469 3.70313,16.3854 3.67188,16.7188 C3.70313,17.0729 3.84896,17.3542 4.10938,17.5625 C4.39063,17.7813 4.71354,17.8906 5.07813,17.8906 C5.33854,17.8906 5.54688,17.8073 5.70313,17.6406 C5.85938,17.4844 5.9375,17.2969 5.9375,17.0781 C5.92708,16.7865 5.8125,16.5781 5.59375,16.4531 L4.29688,15.7031 "/>
<path class="Fingering" d="M412.506,73.9635 C412.746,72.9427 413.272,72.4166 414.084,72.3854 C414.115,72.3854 414.141,72.3854 414.162,72.3854 C414.652,72.3854 415.042,72.5625 415.334,72.9166 C415.542,73.177 415.647,73.4687 415.647,73.7916 C415.647,74.3854 415.329,75.026 414.694,75.7135 C414.673,75.7343 414.647,75.7552 414.615,75.776 L413.287,77.1979 L415.194,77.1979 C415.402,77.1979 415.563,77.1406 415.678,77.026 C415.751,76.9531 415.839,76.8333 415.944,76.6666 L416.053,76.6979 L415.615,77.776 L412.49,77.776 L412.49,77.6822 L413.912,76.1666 C414.589,75.427 414.938,74.7343 414.959,74.0885 C414.959,73.6406 414.787,73.3177 414.444,73.1197 C414.266,73.0156 414.063,72.9635 413.834,72.9635 C413.48,72.9635 413.204,73.0989 413.006,73.3697 C412.891,73.526 412.782,73.7395 412.678,74.0104 L412.506,73.9635 "/>
<path class="Fingering" d="M324.42,68.0736 C324.305,68.0736 324.113,68.1309 323.842,68.2455 L323.842,68.1361 L325.279,67.4017 L325.342,67.4174 L325.342,72.2142 C325.342,72.4226 325.404,72.558 325.529,72.6205 C325.634,72.6622 325.826,72.683 326.107,72.683 L326.107,72.808 L323.889,72.808 L323.889,72.683 C324.243,72.6726 324.467,72.6101 324.561,72.4955 C324.623,72.4017 324.654,72.2559 324.654,72.058 L324.654,68.4486 C324.644,68.1986 324.566,68.0736 324.42,68.0736"/>
<path class="Fingering" d="M235.467,67.9494 C234.873,67.9494 234.41,67.6421 234.077,67.0275 C233.795,66.5275 233.655,65.9025 233.655,65.1525 C233.655,64.2567 233.863,63.5535 234.28,63.0431 C234.613,62.6473 235.019,62.4442 235.498,62.4337 C236.061,62.4337 236.504,62.7202 236.827,63.2931 C237.129,63.8035 237.28,64.439 237.28,65.1994 C237.28,66.1681 237.056,66.9077 236.608,67.4181 C236.285,67.7723 235.905,67.9494 235.467,67.9494 M235.467,62.6369 C234.821,62.6369 234.472,63.4077 234.42,64.9494 C234.42,65.0431 234.42,65.1369 234.42,65.2306 C234.431,66.8973 234.78,67.7358 235.467,67.7462 C236.155,67.7358 236.498,66.8921 236.498,65.215 C236.498,63.6942 236.228,62.8452 235.686,62.6681 C235.613,62.6473 235.54,62.6369 235.467,62.6369"/>
<path class="Fingering" d="M145.452,68.0736 C145.337,68.0736 145.144,68.1309 144.874,68.2455 L144.874,68.1361 L146.311,67.4017 L146.374,67.4174 L146.374,72.2142 C146.374,72.4226 146.436,72.558 146.561,72.6205 C146.665,72.6622 146.858,72.683 147.139,72.683 L147.139,72.808 L144.921,72.808 L144.921,72.683 C145.275,72.6726 145.499,72.6101 145.592,72.4955 C145.655,72.4017 145.686,72.2559 145.686,72.058 L145.686,68.4486 C145.676,68.1986 145.598,68.0736 145.452,68.0736"/>
<path class="Fingering" d="M54.7489,73.9635 C54.9885,72.9427 55.5145,72.4166 56.327,72.3854 C56.3583,72.3854 56.3843,72.3854 56.4052,72.3854 C56.8947,72.3854 57.2854,72.5625 57.577,72.9166 C57.7854,73.177 57.8895,73.4687 57.8895,73.7916 C57.8895,74.3854 57.5718,75.026 56.9364,75.7135 C56.9156,75.7343 56.8895,75.7552 56.8583,75.776 L55.5302,77.1979 L57.4364,77.1979 C57.6447,77.1979 57.8062,77.1406 57.9208,77.026 C57.9937,76.9531 58.0822,76.8333 58.1864,76.6666 L58.2958,76.6979 L57.8583,77.776 L54.7333,77.776 L54.7333,77.6822 L56.1552,76.1666 C56.8322,75.427 57.1812,74.7343 57.202,74.0885 C57.202,73.6406 57.0302,73.3177 56.6864,73.1197 C56.5093,73.0156 56.3062,72.9635 56.077,72.9635 C55.7229,72.9635 55.4468,73.0989 55.2489,73.3697 C55.1343,73.526 55.025,73.7395 54.9208,74.0104 L54.7489,73.9635 "/>
<path class="Tempo" d="M54.7395,40.4371 C54.5364,40.2809 54.2864,40.1871 53.9739,40.1871 C52.7864,40.1871 51.8332,41.0621 51.8332,41.9996 C51.8332,42.5621 52.2864,42.9059 52.8801,42.9059 C53.8332,42.9059 55.0207,41.9996 55.0207,41.0934 L55.0207,34.9527 L54.7395,34.9527 L54.7395,40.4371 "/>
<path class="Tempo" d="M65.3801,39.0152 L58.7707,39.0152 L58.7707,37.859 L65.3801,37.859 L65.3801,39.0152 M65.3801,41.9371 L58.7707,41.9371 L58.7707,40.7965 L65.3801,40.7965 L65.3801,41.9371 M74.6614,34.734 L74.6614,35.0465 C73.2655,35.3382 72.3072,36.0621 71.7864,37.2184 C71.6614,37.4996 71.5572,37.8069 71.4739,38.1402 C71.7864,38.0152 72.1197,37.9527 72.4739,37.9527 C73.3489,37.9527 73.9843,38.2913 74.3801,38.9684 C74.6093,39.3538 74.7239,39.8069 74.7239,40.3277 C74.7239,41.2652 74.4114,42.0048 73.7864,42.5465 C73.3176,42.9423 72.7707,43.1402 72.1457,43.1402 C71.1666,43.1402 70.4218,42.7288 69.9114,41.9059 C69.5364,41.3017 69.3489,40.5673 69.3489,39.7027 C69.3489,38.1194 69.9947,36.8642 71.2864,35.9371 C71.328,35.9059 71.3697,35.8746 71.4114,35.8434 C72.0676,35.3955 72.7968,35.083 73.5989,34.9059 C73.901,34.8434 74.2551,34.7861 74.6614,34.734 M71.2239,40.0777 C71.2239,41.609 71.4114,42.4892 71.7864,42.7184 C71.901,42.7809 72.026,42.8121 72.1614,42.8121 C72.4739,42.8121 72.677,42.6767 72.7707,42.4059 C72.8541,42.1559 72.8957,41.7027 72.8957,41.0465 C72.8957,39.7757 72.7395,38.9892 72.427,38.6871 C72.2707,38.5413 72.0676,38.4684 71.8176,38.4684 C71.5676,38.4684 71.4062,38.5517 71.3332,38.7184 C71.2603,38.8955 71.2239,39.3486 71.2239,40.0777 M75.302,38.9059 C75.302,37.5934 75.6145,36.5309 76.2395,35.7184 C76.7499,35.0725 77.3437,34.7444 78.0207,34.734 C78.802,34.734 79.4478,35.1402 79.9582,35.9527 C80.4687,36.7652 80.7239,37.76 80.7239,38.9371 C80.7239,40.3121 80.4062,41.4059 79.7707,42.2184 C79.2707,42.8225 78.6926,43.1298 78.0364,43.1402 C77.203,43.1402 76.5312,42.7132 76.0207,41.859 C75.5416,41.0673 75.302,40.083 75.302,38.9059 M78.0364,42.7965 C78.3905,42.7965 78.6249,42.4736 78.7395,41.8277 C78.802,41.4423 78.8332,40.9423 78.8332,40.3277 L78.8332,37.5777 C78.8332,36.1402 78.6405,35.3225 78.2551,35.1246 C78.1822,35.083 78.0989,35.0621 78.0051,35.0621 C77.6405,35.0621 77.401,35.3955 77.2864,36.0621 C77.2343,36.4371 77.2082,36.9423 77.2082,37.5777 L77.2082,40.3277 C77.2082,41.6819 77.3749,42.4736 77.7082,42.7027 C77.802,42.7652 77.9114,42.7965 78.0364,42.7965"/>
<path class="StaffText" d="M64.811,25.2057 C65.259,25.2057 65.759,25.3203 66.311,25.5495 C66.5506,25.6432 66.7225,25.6901 66.8267,25.6901 C66.9725,25.6901 67.1027,25.5807 67.2173,25.362 C67.2277,25.3203 67.2433,25.2787 67.2642,25.237 L67.5298,25.237 L67.5298,27.5807 L67.2798,27.5807 C67.009,26.9766 66.7277,26.5339 66.436,26.2526 C66.3735,26.1901 66.3162,26.138 66.2642,26.0964 C65.8371,25.7214 65.3944,25.5339 64.936,25.5339 C63.936,25.5339 63.3423,26.2526 63.1548,27.6901 C63.1235,28.013 63.1079,28.362 63.1079,28.737 C63.1079,29.9245 63.3215,30.7943 63.7485,31.3464 C64.0819,31.763 64.5402,31.9714 65.1235,31.9714 C65.686,31.9714 66.0037,31.7943 66.0767,31.4401 C66.0871,31.3776 66.0923,31.3099 66.0923,31.237 L66.0923,30.1901 C66.0923,29.8985 66.0194,29.711 65.8735,29.6276 C65.7277,29.5547 65.4621,29.5078 65.0767,29.487 L65.0767,29.237 L68.5142,29.237 L68.5142,29.487 C68.1079,29.5287 67.8579,29.6172 67.7642,29.7526 C67.6912,29.8672 67.6548,30.086 67.6548,30.4089 L67.6548,31.6745 C67.061,32.0287 66.2746,32.237 65.2954,32.2995 C65.16,32.2995 65.0246,32.2995 64.8892,32.2995 C63.7746,32.2995 62.884,31.9401 62.2173,31.2214 C61.6235,30.5755 61.3267,29.7682 61.3267,28.7995 C61.3267,27.7578 61.6704,26.8932 62.3579,26.2057 C63.0246,25.5391 63.8423,25.2057 64.811,25.2057 M72.5767,28.8307 C72.3579,28.8307 72.1444,28.711 71.936,28.4714 C71.8215,28.3255 71.7381,28.2474 71.686,28.237 C71.4673,28.237 71.3006,28.388 71.186,28.6901 C71.1131,28.8464 71.0767,29.013 71.0767,29.1901 L71.0767,31.0807 C71.0767,31.4453 71.1496,31.6693 71.2954,31.7526 C71.3892,31.8151 71.561,31.8568 71.811,31.8776 L71.811,32.112 L69.1704,32.112 L69.1704,31.8776 C69.4412,31.8255 69.6027,31.7318 69.6548,31.5964 C69.6756,31.5235 69.686,31.4141 69.686,31.2682 L69.686,28.3307 C69.686,28.0703 69.6131,27.9037 69.4673,27.8307 C69.3944,27.7891 69.2954,27.7578 69.1704,27.737 L69.1704,27.5026 L71.0454,27.5026 L71.0454,28.3307 C71.4204,27.7787 71.7902,27.4714 72.1548,27.4089 C72.2381,27.388 72.3162,27.3776 72.3892,27.3776 C72.7329,27.3776 72.9777,27.5182 73.1235,27.7995 C73.1756,27.9141 73.2017,28.0339 73.2017,28.1589 C73.2017,28.4714 73.0767,28.6797 72.8267,28.7839 C72.7433,28.8151 72.66,28.8307 72.5767,28.8307 M74.4517,28.0807 C74.4517,28.112 74.5037,28.2057 74.6079,28.362 C74.7017,28.5078 74.7485,28.6328 74.7485,28.737 C74.7485,28.9974 74.6183,29.1745 74.3579,29.2682 C74.2642,29.2995 74.1704,29.3151 74.0767,29.3151 C73.7121,29.3151 73.4985,29.1537 73.436,28.8307 C73.4256,28.7682 73.4204,28.711 73.4204,28.6589 C73.4204,28.1901 73.6756,27.8412 74.186,27.612 C74.509,27.4557 74.884,27.3776 75.311,27.3776 C76.186,27.3776 76.785,27.6172 77.1079,28.0964 C77.2329,28.2943 77.2954,28.5182 77.2954,28.7682 L77.2954,31.3464 C77.3058,31.5026 77.3735,31.586 77.4985,31.5964 C77.5506,31.586 77.5871,31.5703 77.6079,31.5495 L77.7173,31.4557 L77.8579,31.6589 C77.4621,32.0339 77.0923,32.2318 76.7485,32.2526 C76.3735,32.2526 76.1287,32.112 76.0142,31.8307 C75.9829,31.737 75.9517,31.638 75.9204,31.5339 C75.3787,32.0026 74.8527,32.2422 74.3423,32.2526 C73.9048,32.2526 73.5871,32.086 73.3892,31.7526 C73.285,31.586 73.2329,31.4037 73.2329,31.2057 C73.2329,30.6224 73.6808,30.1485 74.5767,29.7839 C74.8162,29.6797 75.2642,29.5287 75.9204,29.3307 L75.9204,28.5964 C75.9204,28.0651 75.7017,27.7735 75.2642,27.7214 C75.2017,27.7214 75.1392,27.7214 75.0767,27.7214 C74.785,27.7214 74.5871,27.8047 74.4829,27.9714 C74.4621,28.0026 74.4517,28.0391 74.4517,28.0807 M75.9048,31.0964 L75.9048,29.6589 C75.1027,29.8776 74.6965,30.2787 74.686,30.862 C74.686,31.1953 74.7954,31.4037 75.0142,31.487 C75.0767,31.5078 75.1392,31.5182 75.2017,31.5182 C75.4308,31.5182 75.6652,31.3776 75.9048,31.0964 M81.3735,32.237 L81.3735,31.5964 C81.0194,31.9714 80.6756,32.1849 80.3423,32.237 C80.2485,32.2474 80.1496,32.2526 80.0454,32.2526 C79.4517,32.2526 78.9829,31.9766 78.6392,31.4245 C78.3683,30.9974 78.2329,30.4922 78.2329,29.9089 C78.2329,29.0547 78.4777,28.3828 78.9673,27.8932 C79.3006,27.5495 79.6965,27.3776 80.1548,27.3776 C80.509,27.3776 80.8319,27.513 81.1235,27.7839 C81.2069,27.8568 81.2798,27.9245 81.3423,27.987 L81.3423,26.1745 C81.3423,25.9245 81.285,25.7682 81.1704,25.7057 C81.0662,25.6537 80.8683,25.6172 80.5767,25.5964 L80.5767,25.362 L82.7329,25.362 L82.7329,31.112 C82.7329,31.3932 82.8162,31.5651 82.9829,31.6276 C83.0662,31.6589 83.1808,31.6797 83.3267,31.6901 L83.3267,31.9245 L82.7017,32.0026 C82.1496,32.0755 81.7069,32.1537 81.3735,32.237 M80.4985,31.7057 C80.7902,31.7057 81.0402,31.5391 81.2485,31.2057 C81.3006,31.112 81.3319,31.0443 81.3423,31.0026 L81.3423,28.5495 C81.2173,28.2162 81.009,28.0182 80.7173,27.9557 C80.6652,27.9453 80.6131,27.9401 80.561,27.9401 C80.0506,27.9401 79.7694,28.4453 79.7173,29.4557 C79.7173,29.5703 79.7173,29.6953 79.7173,29.8307 C79.7173,31.0703 79.9777,31.6953 80.4985,31.7057 M85.6704,29.6589 C85.7225,30.6797 85.9881,31.2787 86.4673,31.4557 C86.5923,31.4974 86.7225,31.5182 86.8579,31.5182 C87.2225,31.5182 87.5558,31.3516 87.8579,31.0182 C87.91,30.9662 87.9569,30.9141 87.9985,30.862 L88.2329,31.0026 C87.8162,31.6068 87.4048,31.987 86.9985,32.1432 C86.7902,32.2162 86.5558,32.2526 86.2954,32.2526 C85.5454,32.2526 84.9829,31.9453 84.6079,31.3307 C84.3579,30.9141 84.2329,30.4141 84.2329,29.8307 C84.2329,28.9349 84.5037,28.263 85.0454,27.8151 C85.41,27.5235 85.8371,27.3776 86.3267,27.3776 C87.4308,27.3776 88.0506,28.0964 88.186,29.5339 C88.186,29.5755 88.186,29.6172 88.186,29.6589 L85.6704,29.6589 M86.9673,29.1432 C86.9465,28.5182 86.8787,28.1224 86.7642,27.9557 C86.6704,27.7995 86.5246,27.7214 86.3267,27.7214 C86.035,27.7214 85.8371,27.8932 85.7329,28.237 C85.6704,28.4766 85.634,28.8307 85.6235,29.2995 L86.9673,29.2995 L86.9673,29.1432 M91.2173,28.7214 C91.2173,27.6276 91.4777,26.737 91.9985,26.0495 C92.4256,25.5182 92.9204,25.2474 93.4829,25.237 C94.1392,25.237 94.6808,25.5755 95.1079,26.2526 C95.5246,26.9297 95.7329,27.7578 95.7329,28.737 C95.7329,29.8828 95.4673,30.7943 94.936,31.4714 C94.5298,31.9818 94.0506,32.237 93.4985,32.237 C92.8006,32.237 92.2381,31.8828 91.811,31.1745 C91.4152,30.5182 91.2173,29.7005 91.2173,28.7214 M93.4985,31.9557 C93.7902,31.9557 93.9829,31.6849 94.0767,31.1432 C94.1287,30.8203 94.1548,30.4037 94.1548,29.8932 L94.1548,27.612 C94.1548,26.4037 93.9985,25.7214 93.686,25.5651 C93.6131,25.5339 93.5402,25.5182 93.4673,25.5182 C93.1652,25.5182 92.9673,25.7943 92.8735,26.3464 C92.8215,26.6589 92.7954,27.0807 92.7954,27.612 L92.7954,29.8932 C92.7954,31.0287 92.936,31.6901 93.2173,31.8776 C93.3006,31.9297 93.3944,31.9557 93.4985,31.9557 M97.6392,30.5495 C97.9621,30.5495 98.2069,30.6901 98.3735,30.9714 C98.4569,31.1172 98.4985,31.263 98.4985,31.4089 C98.4985,31.7214 98.3579,31.961 98.0767,32.1276 C97.9308,32.2005 97.785,32.237 97.6392,32.237 C97.3058,32.237 97.061,32.0964 96.9048,31.8151 C96.8319,31.6797 96.7954,31.5391 96.7954,31.3932 C96.7954,31.0912 96.9308,30.8568 97.2017,30.6901 C97.3371,30.5964 97.4829,30.5495 97.6392,30.5495 M97.6392,27.3932 C97.9621,27.3932 98.2069,27.5287 98.3735,27.7995 C98.4569,27.9453 98.4985,28.0912 98.4985,28.237 C98.4985,28.5599 98.3579,28.8047 98.0767,28.9714 C97.9412,29.0443 97.7954,29.0807 97.6392,29.0807 C97.3058,29.0807 97.061,28.9349 96.9048,28.6432 C96.8319,28.5078 96.7954,28.3672 96.7954,28.2214 C96.7954,27.9193 96.9308,27.6849 97.2017,27.5182 C97.3371,27.4349 97.4829,27.3932 97.6392,27.3932"/>
<path class="StaffText" d="M109.045,31.9245 L109.045,32.112 L106.483,32.112 L106.483,31.9245 C106.9,31.9141 107.129,31.8412 107.17,31.7057 C107.181,31.6641 107.186,31.6224 107.186,31.5807 C107.186,31.4245 107.124,31.2057 106.999,30.9245 L106.592,29.987 L103.967,29.987 L103.514,31.1276 C103.462,31.2735 103.436,31.4037 103.436,31.5182 C103.446,31.7787 103.67,31.9141 104.108,31.9245 L104.108,32.112 L102.139,32.112 L102.139,31.9245 C102.379,31.9141 102.561,31.8307 102.686,31.6745 C102.832,31.4766 103.061,31.013 103.374,30.2839 L105.452,25.3776 L105.655,25.3776 L108.139,31.0495 C108.337,31.487 108.504,31.7474 108.639,31.8307 C108.733,31.8828 108.868,31.9141 109.045,31.9245 M104.139,29.5495 L106.452,29.5495 L105.295,26.7995 L104.139,29.5495 M112.108,28.1589 L112.108,27.987 C112.587,27.8412 113.056,27.6849 113.514,27.5182 L113.577,27.5339 L113.577,28.2995 C114.15,27.862 114.561,27.612 114.811,27.5495 C114.915,27.5287 115.019,27.5182 115.124,27.5182 C115.655,27.5287 116.009,27.8151 116.186,28.3776 C116.717,27.8047 117.264,27.5182 117.827,27.5182 C118.587,27.5287 118.972,28.1276 118.983,29.3151 L118.983,31.362 C118.993,31.7266 119.134,31.9193 119.405,31.9401 L119.67,31.9557 L119.67,32.112 L117.483,32.112 L117.483,31.9557 C117.806,31.9245 117.999,31.8516 118.061,31.737 C118.113,31.6432 118.139,31.4818 118.139,31.2526 L118.139,29.1432 C118.139,28.5912 118.03,28.2578 117.811,28.1432 C117.707,28.0807 117.566,28.0495 117.389,28.0495 C116.941,28.0599 116.577,28.263 116.295,28.6589 L116.295,31.1745 C116.295,31.5495 116.384,31.7839 116.561,31.8776 C116.665,31.9297 116.816,31.9557 117.014,31.9557 L117.014,32.112 L114.78,32.112 L114.78,31.9557 C115.103,31.9349 115.301,31.862 115.374,31.737 C115.436,31.6432 115.467,31.4818 115.467,31.2526 L115.467,29.0964 C115.467,28.3985 115.243,28.0495 114.795,28.0495 C114.431,28.0495 114.108,28.1693 113.827,28.4089 C113.754,28.4818 113.686,28.5599 113.624,28.6432 L113.624,31.4401 C113.624,31.6901 113.712,31.8464 113.889,31.9089 C113.983,31.9401 114.118,31.9557 114.295,31.9557 L114.295,32.112 L112.077,32.112 L112.077,31.9557 C112.431,31.9557 112.644,31.8724 112.717,31.7057 C112.759,31.6016 112.78,31.4557 112.78,31.2682 L112.78,28.7526 C112.78,28.3776 112.702,28.1693 112.545,28.1276 C112.514,28.1172 112.478,28.112 112.436,28.112 C112.332,28.112 112.222,28.1276 112.108,28.1589 M120.608,28.1901 C120.452,28.1901 120.311,28.2005 120.186,28.2214 L120.186,28.0651 C120.655,27.9297 121.17,27.7474 121.733,27.5182 L121.764,27.5495 L121.764,31.0964 C121.764,31.4818 121.821,31.7214 121.936,31.8151 C122.03,31.888 122.222,31.9349 122.514,31.9557 L122.514,32.112 L120.139,32.112 L120.139,31.9557 C120.504,31.9349 120.733,31.8672 120.827,31.7526 C120.9,31.638 120.936,31.4193 120.936,31.0964 L120.936,28.7682 C120.936,28.4141 120.853,28.2214 120.686,28.1901 C120.655,28.1901 120.629,28.1901 120.608,28.1901 M121.264,25.2839 C121.483,25.2839 121.639,25.3828 121.733,25.5807 C121.764,25.6537 121.78,25.7266 121.78,25.7995 C121.78,26.0182 121.676,26.1745 121.467,26.2682 C121.394,26.2891 121.327,26.2995 121.264,26.2995 C121.045,26.2995 120.889,26.2005 120.795,26.0026 C120.775,25.9297 120.764,25.862 120.764,25.7995 C120.764,25.5807 120.858,25.4245 121.045,25.3307 C121.118,25.2995 121.191,25.2839 121.264,25.2839 M123.077,28.1276 L123.077,27.9557 C123.577,27.8099 124.04,27.6641 124.467,27.5182 L124.53,27.5339 L124.53,28.3151 C125.009,27.8776 125.384,27.6224 125.655,27.5495 C125.759,27.5287 125.868,27.5182 125.983,27.5182 C126.525,27.5182 126.884,27.7891 127.061,28.3307 C127.124,28.5287 127.155,28.7526 127.155,29.0026 L127.155,31.2995 C127.155,31.612 127.228,31.8047 127.374,31.8776 C127.467,31.9089 127.597,31.9349 127.764,31.9557 L127.764,32.112 L125.686,32.112 L125.686,31.9557 C125.988,31.9349 126.176,31.836 126.249,31.6589 C126.301,31.5443 126.327,31.3672 126.327,31.1276 L126.327,29.0339 C126.306,28.388 126.061,28.0599 125.592,28.0495 C125.342,28.0495 125.082,28.1641 124.811,28.3932 C124.738,28.4662 124.655,28.5443 124.561,28.6276 L124.561,31.4401 C124.561,31.6797 124.66,31.836 124.858,31.9089 C124.952,31.9297 125.071,31.9453 125.217,31.9557 L125.217,32.112 L123.108,32.112 L123.108,31.9557 C123.4,31.9349 123.582,31.8516 123.655,31.7057 C123.696,31.5912 123.717,31.4245 123.717,31.2057 L123.717,28.7214 C123.717,28.3568 123.644,28.1537 123.499,28.112 C123.457,28.0912 123.41,28.0807 123.358,28.0807 C123.233,28.0807 123.139,28.0964 123.077,28.1276 M130.436,27.5182 C131.176,27.5182 131.759,27.7891 132.186,28.3307 C132.488,28.737 132.639,29.2162 132.639,29.7682 C132.639,30.5495 132.384,31.1745 131.874,31.6432 C131.457,32.0182 130.972,32.2057 130.42,32.2057 C129.712,32.2057 129.15,31.9349 128.733,31.3932 C128.4,30.9557 128.233,30.4401 128.233,29.8464 C128.233,29.0339 128.509,28.4089 129.061,27.9714 C129.446,27.6693 129.905,27.5182 130.436,27.5182 M129.139,29.362 C129.139,30.2682 129.327,30.961 129.702,31.4401 C129.941,31.7526 130.222,31.9089 130.545,31.9089 C131.066,31.9089 131.426,31.612 131.624,31.0182 C131.707,30.7578 131.749,30.461 131.749,30.1276 C131.749,29.2422 131.535,28.586 131.108,28.1589 C130.879,27.9297 130.613,27.8151 130.311,27.8151 C129.842,27.8151 129.504,28.0547 129.295,28.5339 C129.191,28.7735 129.139,29.0495 129.139,29.362 M135.999,28.487 C135.894,28.487 135.743,28.4037 135.545,28.237 C135.452,28.1537 135.379,28.112 135.327,28.112 C135.16,28.112 134.988,28.2422 134.811,28.5026 C134.696,28.6693 134.639,28.8151 134.639,28.9401 L134.639,31.2057 C134.639,31.5495 134.728,31.763 134.905,31.8464 C135.03,31.9089 135.222,31.9453 135.483,31.9557 L135.483,32.112 L133.077,32.112 L133.077,31.9557 C133.431,31.8932 133.644,31.8099 133.717,31.7057 C133.769,31.6224 133.795,31.4766 133.795,31.2682 L133.795,28.7526 C133.795,28.388 133.712,28.1901 133.545,28.1589 C133.514,28.1485 133.483,28.1432 133.452,28.1432 C133.337,28.1432 133.222,28.1589 133.108,28.1901 L133.108,28.0339 C133.639,27.8672 134.129,27.6953 134.577,27.5182 L134.639,27.5339 L134.639,28.4245 C134.983,27.9453 135.275,27.6589 135.514,27.5651 C135.618,27.5339 135.722,27.5182 135.827,27.5182 C136.139,27.5182 136.321,27.6485 136.374,27.9089 C136.374,27.9505 136.374,27.9974 136.374,28.0495 C136.342,28.3203 136.217,28.4662 135.999,28.487 M139.233,31.1432 C139.233,30.6328 139.551,30.2005 140.186,29.8464 C140.374,29.7526 140.874,29.5391 141.686,29.2057 C141.707,29.2057 141.722,29.2005 141.733,29.1901 L141.733,28.5807 C141.681,28.0599 141.426,27.7839 140.967,27.7526 C140.655,27.7526 140.436,27.8516 140.311,28.0495 C140.269,28.1224 140.249,28.1849 140.249,28.237 C140.249,28.2995 140.259,28.3828 140.28,28.487 C140.29,28.5599 140.295,28.612 140.295,28.6432 C140.295,28.8203 140.207,28.9453 140.03,29.0182 C139.967,29.0495 139.91,29.0651 139.858,29.0651 C139.67,29.0651 139.54,28.9766 139.467,28.7995 C139.436,28.7474 139.42,28.6901 139.42,28.6276 C139.42,28.263 139.639,27.9662 140.077,27.737 C140.379,27.5912 140.722,27.5182 141.108,27.5182 C141.827,27.5182 142.269,27.7735 142.436,28.2839 C142.509,28.5026 142.545,28.7787 142.545,29.112 L142.545,31.0495 C142.545,31.3828 142.608,31.5703 142.733,31.612 C142.775,31.6224 142.811,31.6276 142.842,31.6276 C142.988,31.6172 143.134,31.5547 143.28,31.4401 L143.28,31.6901 C143.009,32.0026 142.759,32.1745 142.53,32.2057 C142.478,32.2057 142.426,32.2057 142.374,32.2057 C142.061,32.2057 141.863,32.0495 141.78,31.737 C141.759,31.6537 141.749,31.5599 141.749,31.4557 C141.155,31.9349 140.665,32.1849 140.28,32.2057 C139.853,32.2057 139.545,32.0339 139.358,31.6901 C139.275,31.5235 139.233,31.3412 139.233,31.1432 M141.733,30.862 L141.733,29.4245 C140.91,29.7266 140.405,30.0339 140.217,30.3464 C140.144,30.4922 140.108,30.6485 140.108,30.8151 C140.108,31.211 140.254,31.461 140.545,31.5651 C140.618,31.5964 140.686,31.612 140.749,31.612 C140.967,31.6016 141.207,31.5235 141.467,31.3776 C141.613,31.2943 141.696,31.1901 141.717,31.0651 C141.728,31.0026 141.733,30.9349 141.733,30.862 M145.999,28.487 C145.894,28.487 145.743,28.4037 145.545,28.237 C145.452,28.1537 145.379,28.112 145.327,28.112 C145.16,28.112 144.988,28.2422 144.811,28.5026 C144.696,28.6693 144.639,28.8151 144.639,28.9401 L144.639,31.2057 C144.639,31.5495 144.728,31.763 144.905,31.8464 C145.03,31.9089 145.222,31.9453 145.483,31.9557 L145.483,32.112 L143.077,32.112 L143.077,31.9557 C143.431,31.8932 143.644,31.8099 143.717,31.7057 C143.769,31.6224 143.795,31.4766 143.795,31.2682 L143.795,28.7526 C143.795,28.388 143.712,28.1901 143.545,28.1589 C143.514,28.1485 143.483,28.1432 143.452,28.1432 C143.337,28.1432 143.222,28.1589 143.108,28.1901 L143.108,28.0339 C143.639,27.8672 144.129,27.6953 144.577,27.5182 L144.639,27.5339 L144.639,28.4245 C144.983,27.9453 145.275,27.6589 145.514,27.5651 C145.618,27.5339 145.722,27.5182 145.827,27.5182 C146.139,27.5182 146.321,27.6485 146.374,27.9089 C146.374,27.9505 146.374,27.9974 146.374,28.0495 C146.342,28.3203 146.217,28.4662 145.999,28.487 M146.124,28.1901 L146.124,28.0182 C146.551,27.8932 147.03,27.7266 147.561,27.5182 L147.624,27.5339 L147.624,28.2995 C148.051,27.7787 148.53,27.5182 149.061,27.5182 C149.624,27.5182 150.066,27.7787 150.389,28.2995 C150.618,28.6849 150.733,29.1328 150.733,29.6432 C150.733,30.4557 150.483,31.1172 149.983,31.6276 C149.597,32.013 149.15,32.2057 148.639,32.2057 C148.306,32.2057 148.014,32.1068 147.764,31.9089 C147.712,31.8776 147.665,31.8412 147.624,31.7995 L147.624,33.362 C147.624,33.7057 147.691,33.9141 147.827,33.987 C147.952,34.0599 148.176,34.0964 148.499,34.0964 L148.499,34.2839 L146.077,34.2839 L146.077,34.112 C146.431,34.0807 146.644,33.9974 146.717,33.862 C146.759,33.7682 146.78,33.6224 146.78,33.4245 L146.78,28.737 C146.78,28.4453 146.728,28.2735 146.624,28.2214 C146.561,28.1901 146.478,28.1745 146.374,28.1745 C146.259,28.1745 146.176,28.1797 146.124,28.1901 M147.624,28.7839 L147.624,31.2526 C147.624,31.4297 147.769,31.5964 148.061,31.7526 C148.269,31.8568 148.467,31.9089 148.655,31.9089 C149.113,31.9089 149.452,31.6537 149.67,31.1432 C149.806,30.8203 149.874,30.4557 149.874,30.0495 C149.874,29.2266 149.665,28.6537 149.249,28.3307 C149.071,28.1849 148.868,28.112 148.639,28.112 C148.337,28.112 148.066,28.2214 147.827,28.4401 C147.702,28.5547 147.634,28.6693 147.624,28.7839 M151.952,29.3464 C151.993,30.5235 152.379,31.2162 153.108,31.4245 C153.233,31.4662 153.368,31.487 153.514,31.487 C154.004,31.487 154.42,31.2787 154.764,30.862 C154.858,30.7474 154.957,30.612 155.061,30.4557 L155.217,30.5182 C154.853,31.4766 154.28,32.0287 153.499,32.1745 C153.363,32.1953 153.233,32.2057 153.108,32.2057 C152.368,32.2057 151.837,31.8932 151.514,31.2682 C151.327,30.8932 151.233,30.461 151.233,29.9714 C151.233,29.086 151.509,28.4141 152.061,27.9557 C152.426,27.6641 152.847,27.5182 153.327,27.5182 C154.243,27.5182 154.795,28.0391 154.983,29.0807 C155.004,29.1745 155.019,29.263 155.03,29.3464 L151.952,29.3464 M151.967,29.0495 L154.014,29.0495 C153.92,28.4766 153.754,28.1224 153.514,27.987 C153.389,27.9245 153.228,27.8932 153.03,27.8932 C152.436,27.8932 152.082,28.2682 151.967,29.0182 C151.967,29.0287 151.967,29.0391 151.967,29.0495 M155.577,31.5339 C155.577,31.3985 155.655,31.2526 155.811,31.0964 C155.905,31.0026 156.124,30.7995 156.467,30.487 C155.967,30.2266 155.67,29.8985 155.577,29.5026 C155.556,29.388 155.545,29.2682 155.545,29.1432 C155.545,28.612 155.759,28.1849 156.186,27.862 C156.488,27.6328 156.832,27.5182 157.217,27.5182 C157.467,27.5182 157.775,27.586 158.139,27.7214 C158.379,27.8047 158.592,27.8464 158.78,27.8464 L159.545,27.8464 L159.545,28.2214 L158.717,28.2214 C158.842,28.513 158.905,28.7943 158.905,29.0651 C158.905,29.638 158.681,30.0703 158.233,30.362 C157.962,30.5391 157.67,30.6276 157.358,30.6276 C157.264,30.6276 157.071,30.6068 156.78,30.5651 C156.582,30.6276 156.415,30.7682 156.28,30.987 C156.217,31.0703 156.186,31.1432 156.186,31.2057 C156.186,31.362 156.436,31.4505 156.936,31.4714 C156.946,31.4714 156.957,31.4714 156.967,31.4714 L158.249,31.5339 C158.801,31.5443 159.17,31.7474 159.358,32.1432 C159.431,32.2787 159.467,32.4297 159.467,32.5964 C159.467,33.0964 159.155,33.5235 158.53,33.8776 C158.019,34.1485 157.462,34.2839 156.858,34.2839 C156.233,34.2839 155.749,34.1328 155.405,33.8307 C155.228,33.6641 155.139,33.487 155.139,33.2995 C155.139,33.0078 155.353,32.6797 155.78,32.3151 C155.884,32.2318 155.993,32.1432 156.108,32.0495 C155.806,31.9141 155.634,31.7787 155.592,31.6432 C155.582,31.612 155.577,31.5755 155.577,31.5339 M156.327,32.0807 C156.025,32.4557 155.863,32.7162 155.842,32.862 C155.832,32.9037 155.827,32.9453 155.827,32.987 C155.827,33.2891 156.051,33.5078 156.499,33.6432 C156.728,33.7162 156.993,33.7526 157.295,33.7526 C158.129,33.7526 158.696,33.5703 158.999,33.2057 C159.124,33.0495 159.186,32.888 159.186,32.7214 C159.186,32.4714 159.019,32.3151 158.686,32.2526 C158.499,32.2214 158.249,32.2057 157.936,32.2057 C157.269,32.2057 156.733,32.1641 156.327,32.0807 M158.139,29.4714 C158.139,29.0443 158.051,28.6641 157.874,28.3307 C157.676,27.9974 157.42,27.8255 157.108,27.8151 C156.733,27.8151 156.499,28.013 156.405,28.4089 C156.384,28.513 156.374,28.6276 156.374,28.7526 C156.374,29.5547 156.597,30.0651 157.045,30.2839 C157.16,30.3464 157.275,30.3776 157.389,30.3776 C157.754,30.3776 157.988,30.1953 158.092,29.8307 C158.124,29.7162 158.139,29.5964 158.139,29.4714 M160.577,31.5339 C160.577,31.3985 160.655,31.2526 160.811,31.0964 C160.905,31.0026 161.124,30.7995 161.467,30.487 C160.967,30.2266 160.67,29.8985 160.577,29.5026 C160.556,29.388 160.545,29.2682 160.545,29.1432 C160.545,28.612 160.759,28.1849 161.186,27.862 C161.488,27.6328 161.832,27.5182 162.217,27.5182 C162.467,27.5182 162.775,27.586 163.139,27.7214 C163.379,27.8047 163.592,27.8464 163.78,27.8464 L164.545,27.8464 L164.545,28.2214 L163.717,28.2214 C163.842,28.513 163.905,28.7943 163.905,29.0651 C163.905,29.638 163.681,30.0703 163.233,30.362 C162.962,30.5391 162.67,30.6276 162.358,30.6276 C162.264,30.6276 162.071,30.6068 161.78,30.5651 C161.582,30.6276 161.415,30.7682 161.28,30.987 C161.217,31.0703 161.186,31.1432 161.186,31.2057 C161.186,31.362 161.436,31.4505 161.936,31.4714 C161.946,31.4714 161.957,31.4714 161.967,31.4714 L163.249,31.5339 C163.801,31.5443 164.17,31.7474 164.358,32.1432 C164.431,32.2787 164.467,32.4297 164.467,32.5964 C164.467,33.0964 164.155,33.5235 163.53,33.8776 C163.019,34.1485 162.462,34.2839 161.858,34.2839 C161.233,34.2839 160.749,34.1328 160.405,33.8307 C160.228,33.6641 160.139,33.487 160.139,33.2995 C160.139,33.0078 160.353,32.6797 160.78,32.3151 C160.884,32.2318 160.993,32.1432 161.108,32.0495 C160.806,31.9141 160.634,31.7787 160.592,31.6432 C160.582,31.612 160.577,31.5755 160.577,31.5339 M161.327,32.0807 C161.025,32.4557 160.863,32.7162 160.842,32.862 C160.832,32.9037 160.827,32.9453 160.827,32.987 C160.827,33.2891 161.051,33.5078 161.499,33.6432 C161.728,33.7162 161.993,33.7526 162.295,33.7526 C163.129,33.7526 163.696,33.5703 163.999,33.2057 C164.124,33.0495 164.186,32.888 164.186,32.7214 C164.186,32.4714 164.019,32.3151 163.686,32.2526 C163.499,32.2214 163.249,32.2057 162.936,32.2057 C162.269,32.2057 161.733,32.1641 161.327,32.0807 M163.139,29.4714 C163.139,29.0443 163.051,28.6641 162.874,28.3307 C162.676,27.9974 162.42,27.8255 162.108,27.8151 C161.733,27.8151 161.499,28.013 161.405,28.4089 C161.384,28.513 161.374,28.6276 161.374,28.7526 C161.374,29.5547 161.597,30.0651 162.045,30.2839 C162.16,30.3464 162.275,30.3776 162.389,30.3776 C162.754,30.3776 162.988,30.1953 163.092,29.8307 C163.124,29.7162 163.139,29.5964 163.139,29.4714 M165.608,28.1901 C165.452,28.1901 165.311,28.2005 165.186,28.2214 L165.186,28.0651 C165.655,27.9297 166.17,27.7474 166.733,27.5182 L166.764,27.5495 L166.764,31.0964 C166.764,31.4818 166.821,31.7214 166.936,31.8151 C167.03,31.888 167.222,31.9349 167.514,31.9557 L167.514,32.112 L165.139,32.112 L165.139,31.9557 C165.504,31.9349 165.733,31.8672 165.827,31.7526 C165.9,31.638 165.936,31.4193 165.936,31.0964 L165.936,28.7682 C165.936,28.4141 165.853,28.2214 165.686,28.1901 C165.655,28.1901 165.629,28.1901 165.608,28.1901 M166.264,25.2839 C166.483,25.2839 166.639,25.3828 166.733,25.5807 C166.764,25.6537 166.78,25.7266 166.78,25.7995 C166.78,26.0182 166.676,26.1745 166.467,26.2682 C166.394,26.2891 166.327,26.2995 166.264,26.2995 C166.045,26.2995 165.889,26.2005 165.795,26.0026 C165.775,25.9297 165.764,25.862 165.764,25.7995 C165.764,25.5807 165.858,25.4245 166.045,25.3307 C166.118,25.2995 166.191,25.2839 166.264,25.2839 M170.436,27.5182 C171.176,27.5182 171.759,27.7891 172.186,28.3307 C172.488,28.737 172.639,29.2162 172.639,29.7682 C172.639,30.5495 172.384,31.1745 171.874,31.6432 C171.457,32.0182 170.972,32.2057 170.42,32.2057 C169.712,32.2057 169.15,31.9349 168.733,31.3932 C168.4,30.9557 168.233,30.4401 168.233,29.8464 C168.233,29.0339 168.509,28.4089 169.061,27.9714 C169.446,27.6693 169.905,27.5182 170.436,27.5182 M169.139,29.362 C169.139,30.2682 169.327,30.961 169.702,31.4401 C169.941,31.7526 170.222,31.9089 170.545,31.9089 C171.066,31.9089 171.426,31.612 171.624,31.0182 C171.707,30.7578 171.749,30.461 171.749,30.1276 C171.749,29.2422 171.535,28.586 171.108,28.1589 C170.879,27.9297 170.613,27.8151 170.311,27.8151 C169.842,27.8151 169.504,28.0547 169.295,28.5339 C169.191,28.7735 169.139,29.0495 169.139,29.362 M178.577,27.612 L178.577,27.9089 L177.561,27.9089 L177.561,30.7682 C177.561,31.3099 177.696,31.6068 177.967,31.6589 C177.999,31.6693 178.035,31.6745 178.077,31.6745 C178.285,31.6641 178.488,31.5443 178.686,31.3151 L178.811,31.4401 C178.488,31.9505 178.087,32.2057 177.608,32.2057 C177.025,32.1953 176.728,31.7735 176.717,30.9401 L176.717,27.9089 L176.186,27.9089 C176.165,27.888 176.155,27.8672 176.155,27.8464 C176.155,27.8047 176.196,27.763 176.28,27.7214 C176.561,27.5339 176.894,27.1693 177.28,26.6276 C177.29,26.6172 177.295,26.612 177.295,26.612 C177.4,26.4557 177.467,26.362 177.499,26.3307 C177.54,26.3412 177.561,26.3828 177.561,26.4557 L177.561,27.612 L178.577,27.612 M181.436,27.5182 C182.176,27.5182 182.759,27.7891 183.186,28.3307 C183.488,28.737 183.639,29.2162 183.639,29.7682 C183.639,30.5495 183.384,31.1745 182.874,31.6432 C182.457,32.0182 181.972,32.2057 181.42,32.2057 C180.712,32.2057 180.15,31.9349 179.733,31.3932 C179.4,30.9557 179.233,30.4401 179.233,29.8464 C179.233,29.0339 179.509,28.4089 180.061,27.9714 C180.446,27.6693 180.905,27.5182 181.436,27.5182 M180.139,29.362 C180.139,30.2682 180.327,30.961 180.702,31.4401 C180.941,31.7526 181.222,31.9089 181.545,31.9089 C182.066,31.9089 182.426,31.612 182.624,31.0182 C182.707,30.7578 182.749,30.461 182.749,30.1276 C182.749,29.2422 182.535,28.586 182.108,28.1589 C181.879,27.9297 181.613,27.8151 181.311,27.8151 C180.842,27.8151 180.504,28.0547 180.295,28.5339 C180.191,28.7735 180.139,29.0495 180.139,29.362 M190.545,30.1432 C190.545,29.2266 190.051,28.5807 189.061,28.2057 C188.613,28.0391 188.176,27.9557 187.749,27.9557 C187.676,27.9453 187.634,27.9193 187.624,27.8776 C187.624,27.8464 187.629,27.8255 187.639,27.8151 L188.717,25.5026 L190.811,25.5026 C190.988,25.5026 191.129,25.4297 191.233,25.2839 C191.243,25.263 191.254,25.2474 191.264,25.237 L191.358,25.2995 L190.983,26.1432 C190.941,26.1953 190.863,26.2214 190.749,26.2214 L188.795,26.2214 L188.374,27.0807 C189.676,27.3203 190.525,27.7526 190.92,28.3776 C191.139,28.7214 191.249,29.1537 191.249,29.6745 C191.249,30.8099 190.775,31.5807 189.827,31.987 C189.42,32.1641 188.988,32.2526 188.53,32.2526 C187.884,32.2526 187.488,32.1068 187.342,31.8151 C187.311,31.763 187.295,31.7005 187.295,31.6276 C187.316,31.388 187.462,31.2682 187.733,31.2682 C187.92,31.2682 188.165,31.3724 188.467,31.5807 C188.759,31.7787 188.988,31.8776 189.155,31.8776 C189.624,31.8776 189.993,31.6589 190.264,31.2214 C190.452,30.8985 190.545,30.5391 190.545,30.1432 M194.577,27.612 L194.577,27.9089 L193.561,27.9089 L193.561,30.7682 C193.561,31.3099 193.696,31.6068 193.967,31.6589 C193.999,31.6693 194.035,31.6745 194.077,31.6745 C194.285,31.6641 194.488,31.5443 194.686,31.3151 L194.811,31.4401 C194.488,31.9505 194.087,32.2057 193.608,32.2057 C193.025,32.1953 192.728,31.7735 192.717,30.9401 L192.717,27.9089 L192.186,27.9089 C192.165,27.888 192.155,27.8672 192.155,27.8464 C192.155,27.8047 192.196,27.763 192.28,27.7214 C192.561,27.5339 192.894,27.1693 193.28,26.6276 C193.29,26.6172 193.295,26.612 193.295,26.612 C193.4,26.4557 193.467,26.362 193.499,26.3307 C193.54,26.3412 193.561,26.3828 193.561,26.4557 L193.561,27.612 L194.577,27.612 M196.561,28.6901 L196.561,31.0964 C196.561,31.4818 196.624,31.7214 196.749,31.8151 C196.842,31.888 197.009,31.9349 197.249,31.9557 L197.249,32.112 L195.077,32.112 L195.077,31.9557 C195.379,31.9245 195.566,31.8516 195.639,31.737 C195.691,31.6328 195.717,31.4193 195.717,31.0964 L195.717,26.3776 C195.717,26.1172 195.665,25.961 195.561,25.9089 C195.499,25.8776 195.4,25.862 195.264,25.862 C195.212,25.862 195.155,25.8672 195.092,25.8776 L195.092,25.7214 C195.571,25.5964 196.045,25.4505 196.514,25.2839 L196.561,25.3151 L196.561,28.3464 C196.946,27.8568 197.358,27.5807 197.795,27.5182 C197.868,27.5182 197.946,27.5182 198.03,27.5182 C198.842,27.5287 199.254,28.0547 199.264,29.0964 L199.264,31.0964 C199.264,31.4714 199.311,31.7057 199.405,31.7995 C199.478,31.8724 199.629,31.9245 199.858,31.9557 L199.858,32.112 L197.749,32.112 L197.749,31.9557 C198.061,31.9245 198.254,31.8412 198.327,31.7057 C198.389,31.5912 198.42,31.388 198.42,31.0964 L198.42,29.112 C198.41,28.4141 198.16,28.0599 197.67,28.0495 C197.347,28.0495 197.019,28.2162 196.686,28.5495 C196.644,28.6016 196.603,28.6485 196.561,28.6901"/>
</svg>
