<?xml version="1.0" encoding="UTF-8" standalone="no"?>
<svg width="595.44px" height="841.68px" viewBox="0 0 595.44 841.68"
 xmlns="http://www.w3.org/2000/svg" xmlns:xlink="http://www.w3.org/1999/xlink" version="1.2" baseProfile="tiny">
<title>Guitar Scales and Arpeggios</title>
<desc>Generated by MuseScore 2.1.0</desc>
<polyline class="StaffLines" fill="none" stroke="#000000" stroke-width="0.40" stroke-linejoin="bevel" points="28.08,62.856 567.36,62.856"/>
<polyline class="StaffLines" fill="none" stroke="#000000" stroke-width="0.40" stroke-linejoin="bevel" points="28.08,67.824 567.36,67.824"/>
<polyline class="StaffLines" fill="none" stroke="#000000" stroke-width="0.40" stroke-linejoin="bevel" points="28.08,72.792 567.36,72.792"/>
<polyline class="StaffLines" fill="none" stroke="#000000" stroke-width="0.40" stroke-linejoin="bevel" points="28.08,77.76 567.36,77.76"/>
<polyline class="StaffLines" fill="none" stroke="#000000" stroke-width="0.40" stroke-linejoin="bevel" points="28.08,82.728 567.36,82.728"/>
<polyline class="StaffLines" fill="none" stroke="#000000" stroke-width="0.40" stroke-linejoin="bevel" points="28.08,115.02 567.36,115.02"/>
<polyline class="StaffLines" fill="none" stroke="#000000" stroke-width="0.40" stroke-linejoin="bevel" points="28.08,122.472 567.36,122.472"/>
<polyline class="StaffLines" fill="none" stroke="#000000" stroke-width="0.40" stroke-linejoin="bevel" points="28.08,129.924 567.36,129.924"/>
<polyline class="StaffLines" fill="none" stroke="#000000" stroke-width="0.40" stroke-linejoin="bevel" points="28.08,137.376 567.36,137.376"/>
<polyline class="StaffLines" fill="none" stroke="#000000" stroke-width="0.40" stroke-linejoin="bevel" points="28.08,144.828 567.36,144.828"/>
<polyline class="StaffLines" fill="none" stroke="#000000" stroke-width="0.40" stroke-linejoin="bevel" points="28.08,152.28 567.36,152.28"/>
<polyline class="BarLine" fill="none" stroke="#000000" stroke-width="0.79" stroke-linejoin="bevel" points="28.4774,62.856 28.4774,152.28"/>
<polyline class="BarLine" fill="none" stroke="#000000" stroke-width="0.79" stroke-linejoin="bevel" points="562.491,115.02 562.491,152.28"/>
<polyline class="BarLine" fill="none" stroke="#000000" stroke-width="2.48" stroke-linejoin="bevel" points="566.118,115.02 566.118,152.28"/>
<polyline class="BarLine" fill="none" stroke="#000000" stroke-width="0.79" stroke-linejoin="bevel" points="562.491,62.856 562.491,82.728"/>
<polyline class="BarLine" fill="none" stroke="#000000" stroke-width="2.48" stroke-linejoin="bevel" points="566.118,62.856 566.118,82.728"/>
<polyline class="Stem" fill="none" stroke="#000000" stroke-width="0.65" stroke-linecap="round" stroke-linejoin="bevel" points="478.719,71.087 478.719,86.454"/>
<polyline class="Stem" fill="none" stroke="#000000" stroke-width="0.65" stroke-linecap="round" stroke-linejoin="bevel" points="426.699,68.7571 426.699,84.591"/>
<polyline class="Stem" fill="none" stroke="#000000" stroke-width="0.65" stroke-linecap="round" stroke-linejoin="bevel" points="374.5,66.2731 374.5,82.728"/>
<polyline class="Stem" fill="none" stroke="#000000" stroke-width="0.65" stroke-linecap="round" stroke-linejoin="bevel" points="322.301,63.7891 322.301,80.244"/>
<polyline class="Stem" fill="none" stroke="#000000" stroke-width="0.65" stroke-linecap="round" stroke-linejoin="bevel" points="270.102,61.3051 270.102,77.76"/>
<polyline class="Stem" fill="none" stroke="#000000" stroke-width="0.65" stroke-linecap="round" stroke-linejoin="bevel" points="217.903,63.7891 217.903,80.244"/>
<polyline class="Stem" fill="none" stroke="#000000" stroke-width="0.65" stroke-linecap="round" stroke-linejoin="bevel" points="165.704,66.2731 165.704,82.728"/>
<polyline class="Stem" fill="none" stroke="#000000" stroke-width="0.65" stroke-linecap="round" stroke-linejoin="bevel" points="113.505,68.7571 113.505,84.591"/>
<polyline class="Stem" fill="none" stroke="#000000" stroke-width="0.65" stroke-linecap="round" stroke-linejoin="bevel" points="61.3058,71.2411 61.3058,86.454"/>
<path class="Note" fill="#ffffff" fill-rule="evenodd" d="M479.321,118.746 L485.282,118.746 L485.282,126.198 L479.321,126.198 L479.321,118.746 "/>
<path class="Note" transform="matrix(0.9936,0,0,0.9936,479.817,125.95)" d="M2.32813,-4.54688 L0.921875,-4.54688 L0.921875,-5.10938 C1.53646,-5.19271 1.93229,-5.30208 2.10938,-5.4375 C2.28646,-5.57292 2.4375,-5.85417 2.5625,-6.28125 C2.57292,-6.3125 2.58854,-6.34896 2.60938,-6.39063 L3.125,-6.39063 L3.125,0 L2.32813,0 L2.32813,-4.54688 "/>
<path class="Note" fill="#ed2929" transform="matrix(0.9936,0,0,0.9936,478.396,70.308)" d="M6.3125,-1.3125 C6.3125,-1.53125 6.22917,-1.71875 6.0625,-1.875 C5.88542,-2.04167 5.6875,-2.125 5.46875,-2.125 C5.08333,-2.125 4.29688,-1.73438 3.10938,-0.953125 C1.88021,-0.161458 1.13021,0.40625 0.859375,0.75 C0.713542,0.927083 0.640625,1.11458 0.640625,1.3125 C0.640625,1.53125 0.729167,1.71875 0.90625,1.875 C1.0625,2.04167 1.25521,2.125 1.48438,2.125 C1.85938,2.125 2.65625,1.73438 3.875,0.953125 C5.07292,0.171875 5.8125,-0.395833 6.09375,-0.75 C6.23958,-0.916667 6.3125,-1.10417 6.3125,-1.3125 M5.28125,-2.75 C6.39583,-2.75 6.95313,-2.27083 6.95313,-1.3125 C6.95313,-0.84375 6.81771,-0.296875 6.54688,0.328125 C6.27604,0.942708 5.91146,1.41146 5.45313,1.73438 C4.45313,2.41146 3.19792,2.75 1.6875,2.75 C0.5625,2.75 0,2.27083 0,1.3125 C0,0.885417 0.135417,0.34375 0.40625,-0.3125 C0.666667,-0.9375 1.03125,-1.41146 1.5,-1.73438 C2.51042,-2.41146 3.77083,-2.75 5.28125,-2.75"/>
<path class="Note" fill="#ffffff" fill-rule="evenodd" d="M427.122,118.746 L433.083,118.746 L433.083,126.198 L427.122,126.198 L427.122,118.746 "/>
<path class="Note" transform="matrix(0.9936,0,0,0.9936,427.618,125.95)" d="M2.4375,-5.64063 C1.75,-5.64063 1.35417,-5.32813 1.25,-4.70313 C1.22917,-4.59896 1.21875,-4.47917 1.21875,-4.34375 L0.421875,-4.34375 C0.442708,-5.59375 1.01563,-6.27083 2.14063,-6.375 C2.23438,-6.38542 2.32813,-6.39063 2.42188,-6.39063 C3.26563,-6.39063 3.84375,-6.10938 4.15625,-5.54688 C4.29167,-5.28646 4.35938,-4.98438 4.35938,-4.64063 C4.35938,-4.00521 4.0625,-3.57292 3.46875,-3.34375 C4.03125,-3.14583 4.375,-2.81771 4.5,-2.35938 C4.54167,-2.19271 4.5625,-2.00521 4.5625,-1.79688 C4.5625,-1.05729 4.27604,-0.505208 3.70313,-0.140625 C3.33854,0.0885417 2.90104,0.203125 2.39063,0.203125 C1.21354,0.203125 0.526042,-0.348958 0.328125,-1.45313 C0.317708,-1.57813 0.302083,-1.71354 0.28125,-1.85938 L1.07813,-1.85938 C1.13021,-1.08854 1.46875,-0.65625 2.09375,-0.5625 C2.19792,-0.541667 2.30729,-0.53125 2.42188,-0.53125 C3.04688,-0.53125 3.45313,-0.765625 3.64063,-1.23438 C3.71354,-1.40104 3.75,-1.58854 3.75,-1.79688 C3.73958,-2.54688 3.29688,-2.92708 2.42188,-2.9375 L2.09375,-2.92188 L1.98438,-2.92188 L1.98438,-3.67188 C2.66146,-3.68229 3.10417,-3.77604 3.3125,-3.95313 C3.47917,-4.09896 3.5625,-4.31771 3.5625,-4.60938 C3.5625,-5.09896 3.34896,-5.41667 2.92188,-5.5625 C2.77604,-5.61458 2.61458,-5.64063 2.4375,-5.64063"/>
<path class="Note" fill="#78c7c7" transform="matrix(0.9936,0,0,0.9936,426.376,67.824)" d="M4.39063,-2.75 C5.01563,-2.75 5.54688,-2.58854 5.98438,-2.26563 C6.38021,-1.91146 6.57813,-1.46875 6.57813,-0.9375 C6.57813,-0.0416667 6.11979,0.796875 5.20313,1.57813 C4.26563,2.35938 3.26042,2.75 2.1875,2.75 C1.5625,2.75 1.03646,2.58854 0.609375,2.26563 C0.203125,1.91146 0,1.46875 0,0.9375 C0,0.0416667 0.46875,-0.796875 1.40625,-1.57813 C2.32292,-2.35938 3.31771,-2.75 4.39063,-2.75"/>
<path class="Note" fill="#ffffff" fill-rule="evenodd" d="M374.922,111.294 L380.884,111.294 L380.884,118.746 L374.922,118.746 L374.922,111.294 "/>
<path class="Note" transform="matrix(0.9936,0,0,0.9936,375.419,118.498)" d="M0.390625,-3.09375 C0.390625,-5 0.927083,-6.07813 2,-6.32813 C2.14583,-6.36979 2.30208,-6.39063 2.46875,-6.39063 C3.78125,-6.39063 4.47917,-5.40104 4.5625,-3.42188 C4.5625,-3.28646 4.5625,-3.15625 4.5625,-3.03125 C4.5625,-1.40625 4.15104,-0.385417 3.32813,0.03125 C3.06771,0.145833 2.78125,0.203125 2.46875,0.203125 C1.41667,0.203125 0.760417,-0.442708 0.5,-1.73438 C0.427083,-2.14063 0.390625,-2.59375 0.390625,-3.09375 M2.46875,-5.64063 C1.625,-5.63021 1.20313,-4.77083 1.20313,-3.0625 C1.20313,-1.32292 1.61979,-0.453125 2.45313,-0.453125 C3.16146,-0.453125 3.57813,-1.02604 3.70313,-2.17188 C3.73438,-2.44271 3.75,-2.75 3.75,-3.09375 C3.75,-4.79167 3.32292,-5.64063 2.46875,-5.64063"/>
<path class="Note" fill="#ff9933" transform="matrix(0.9936,0,0,0.9936,374.177,65.34)" d="M4.39063,-2.75 C5.01563,-2.75 5.54688,-2.58854 5.98438,-2.26563 C6.38021,-1.91146 6.57813,-1.46875 6.57813,-0.9375 C6.57813,-0.0416667 6.11979,0.796875 5.20313,1.57813 C4.26563,2.35938 3.26042,2.75 2.1875,2.75 C1.5625,2.75 1.03646,2.58854 0.609375,2.26563 C0.203125,1.91146 0,1.46875 0,0.9375 C0,0.0416667 0.46875,-0.796875 1.40625,-1.57813 C2.32292,-2.35938 3.31771,-2.75 4.39063,-2.75"/>
<path class="Note" fill="#ffffff" fill-rule="evenodd" d="M322.723,111.294 L328.685,111.294 L328.685,118.746 L322.723,118.746 L322.723,111.294 "/>
<path class="Note" transform="matrix(0.9936,0,0,0.9936,323.22,118.498)" d="M2.32813,-4.54688 L0.921875,-4.54688 L0.921875,-5.10938 C1.53646,-5.19271 1.93229,-5.30208 2.10938,-5.4375 C2.28646,-5.57292 2.4375,-5.85417 2.5625,-6.28125 C2.57292,-6.3125 2.58854,-6.34896 2.60938,-6.39063 L3.125,-6.39063 L3.125,0 L2.32813,0 L2.32813,-4.54688 "/>
<path class="Note" fill="#ebeb19" transform="matrix(0.9936,0,0,0.9936,321.978,62.856)" d="M4.39063,-2.75 C5.01563,-2.75 5.54688,-2.58854 5.98438,-2.26563 C6.38021,-1.91146 6.57813,-1.46875 6.57813,-0.9375 C6.57813,-0.0416667 6.11979,0.796875 5.20313,1.57813 C4.26563,2.35938 3.26042,2.75 2.1875,2.75 C1.5625,2.75 1.03646,2.58854 0.609375,2.26563 C0.203125,1.91146 0,1.46875 0,0.9375 C0,0.0416667 0.46875,-0.796875 1.40625,-1.57813 C2.32292,-2.35938 3.31771,-2.75 4.39063,-2.75"/>
<path class="Note" fill="#ffffff" fill-rule="evenodd" d="M270.524,111.294 L276.486,111.294 L276.486,118.746 L270.524,118.746 L270.524,111.294 "/>
<path class="Note" transform="matrix(0.9936,0,0,0.9936,271.021,118.498)" d="M2.4375,-5.64063 C1.75,-5.64063 1.35417,-5.32813 1.25,-4.70313 C1.22917,-4.59896 1.21875,-4.47917 1.21875,-4.34375 L0.421875,-4.34375 C0.442708,-5.59375 1.01563,-6.27083 2.14063,-6.375 C2.23438,-6.38542 2.32813,-6.39063 2.42188,-6.39063 C3.26563,-6.39063 3.84375,-6.10938 4.15625,-5.54688 C4.29167,-5.28646 4.35938,-4.98438 4.35938,-4.64063 C4.35938,-4.00521 4.0625,-3.57292 3.46875,-3.34375 C4.03125,-3.14583 4.375,-2.81771 4.5,-2.35938 C4.54167,-2.19271 4.5625,-2.00521 4.5625,-1.79688 C4.5625,-1.05729 4.27604,-0.505208 3.70313,-0.140625 C3.33854,0.0885417 2.90104,0.203125 2.39063,0.203125 C1.21354,0.203125 0.526042,-0.348958 0.328125,-1.45313 C0.317708,-1.57813 0.302083,-1.71354 0.28125,-1.85938 L1.07813,-1.85938 C1.13021,-1.08854 1.46875,-0.65625 2.09375,-0.5625 C2.19792,-0.541667 2.30729,-0.53125 2.42188,-0.53125 C3.04688,-0.53125 3.45313,-0.765625 3.64063,-1.23438 C3.71354,-1.40104 3.75,-1.58854 3.75,-1.79688 C3.73958,-2.54688 3.29688,-2.92708 2.42188,-2.9375 L2.09375,-2.92188 L1.98438,-2.92188 L1.98438,-3.67188 C2.66146,-3.68229 3.10417,-3.77604 3.3125,-3.95313 C3.47917,-4.09896 3.5625,-4.31771 3.5625,-4.60938 C3.5625,-5.09896 3.34896,-5.41667 2.92188,-5.5625 C2.77604,-5.61458 2.61458,-5.64063 2.4375,-5.64063"/>
<path class="Note" fill="#99cc33" transform="matrix(0.9936,0,0,0.9936,269.779,60.372)" d="M4.39063,-2.75 C5.01563,-2.75 5.54688,-2.58854 5.98438,-2.26563 C6.38021,-1.91146 6.57813,-1.46875 6.57813,-0.9375 C6.57813,-0.0416667 6.11979,0.796875 5.20313,1.57813 C4.26563,2.35938 3.26042,2.75 2.1875,2.75 C1.5625,2.75 1.03646,2.58854 0.609375,2.26563 C0.203125,1.91146 0,1.46875 0,0.9375 C0,0.0416667 0.46875,-0.796875 1.40625,-1.57813 C2.32292,-2.35938 3.31771,-2.75 4.39063,-2.75"/>
<path class="Note" fill="#ffffff" fill-rule="evenodd" d="M218.325,111.294 L224.287,111.294 L224.287,118.746 L218.325,118.746 L218.325,111.294 "/>
<path class="Note" transform="matrix(0.9936,0,0,0.9936,218.822,118.498)" d="M2.32813,-4.54688 L0.921875,-4.54688 L0.921875,-5.10938 C1.53646,-5.19271 1.93229,-5.30208 2.10938,-5.4375 C2.28646,-5.57292 2.4375,-5.85417 2.5625,-6.28125 C2.57292,-6.3125 2.58854,-6.34896 2.60938,-6.39063 L3.125,-6.39063 L3.125,0 L2.32813,0 L2.32813,-4.54688 "/>
<path class="Note" fill="#ebeb19" transform="matrix(0.9936,0,0,0.9936,217.58,62.856)" d="M4.39063,-2.75 C5.01563,-2.75 5.54688,-2.58854 5.98438,-2.26563 C6.38021,-1.91146 6.57813,-1.46875 6.57813,-0.9375 C6.57813,-0.0416667 6.11979,0.796875 5.20313,1.57813 C4.26563,2.35938 3.26042,2.75 2.1875,2.75 C1.5625,2.75 1.03646,2.58854 0.609375,2.26563 C0.203125,1.91146 0,1.46875 0,0.9375 C0,0.0416667 0.46875,-0.796875 1.40625,-1.57813 C2.32292,-2.35938 3.31771,-2.75 4.39063,-2.75"/>
<path class="Note" fill="#ffffff" fill-rule="evenodd" d="M166.126,111.294 L172.088,111.294 L172.088,118.746 L166.126,118.746 L166.126,111.294 "/>
<path class="Note" transform="matrix(0.9936,0,0,0.9936,166.623,118.498)" d="M0.390625,-3.09375 C0.390625,-5 0.927083,-6.07813 2,-6.32813 C2.14583,-6.36979 2.30208,-6.39063 2.46875,-6.39063 C3.78125,-6.39063 4.47917,-5.40104 4.5625,-3.42188 C4.5625,-3.28646 4.5625,-3.15625 4.5625,-3.03125 C4.5625,-1.40625 4.15104,-0.385417 3.32813,0.03125 C3.06771,0.145833 2.78125,0.203125 2.46875,0.203125 C1.41667,0.203125 0.760417,-0.442708 0.5,-1.73438 C0.427083,-2.14063 0.390625,-2.59375 0.390625,-3.09375 M2.46875,-5.64063 C1.625,-5.63021 1.20313,-4.77083 1.20313,-3.0625 C1.20313,-1.32292 1.61979,-0.453125 2.45313,-0.453125 C3.16146,-0.453125 3.57813,-1.02604 3.70313,-2.17188 C3.73438,-2.44271 3.75,-2.75 3.75,-3.09375 C3.75,-4.79167 3.32292,-5.64063 2.46875,-5.64063"/>
<path class="Note" fill="#ff9933" transform="matrix(0.9936,0,0,0.9936,165.381,65.34)" d="M4.39063,-2.75 C5.01563,-2.75 5.54688,-2.58854 5.98438,-2.26563 C6.38021,-1.91146 6.57813,-1.46875 6.57813,-0.9375 C6.57813,-0.0416667 6.11979,0.796875 5.20313,1.57813 C4.26563,2.35938 3.26042,2.75 2.1875,2.75 C1.5625,2.75 1.03646,2.58854 0.609375,2.26563 C0.203125,1.91146 0,1.46875 0,0.9375 C0,0.0416667 0.46875,-0.796875 1.40625,-1.57813 C2.32292,-2.35938 3.31771,-2.75 4.39063,-2.75"/>
<path class="Note" fill="#ffffff" fill-rule="evenodd" d="M113.927,118.746 L119.889,118.746 L119.889,126.198 L113.927,126.198 L113.927,118.746 "/>
<path class="Note" transform="matrix(0.9936,0,0,0.9936,114.424,125.95)" d="M2.4375,-5.64063 C1.75,-5.64063 1.35417,-5.32813 1.25,-4.70313 C1.22917,-4.59896 1.21875,-4.47917 1.21875,-4.34375 L0.421875,-4.34375 C0.442708,-5.59375 1.01563,-6.27083 2.14063,-6.375 C2.23438,-6.38542 2.32813,-6.39063 2.42188,-6.39063 C3.26563,-6.39063 3.84375,-6.10938 4.15625,-5.54688 C4.29167,-5.28646 4.35938,-4.98438 4.35938,-4.64063 C4.35938,-4.00521 4.0625,-3.57292 3.46875,-3.34375 C4.03125,-3.14583 4.375,-2.81771 4.5,-2.35938 C4.54167,-2.19271 4.5625,-2.00521 4.5625,-1.79688 C4.5625,-1.05729 4.27604,-0.505208 3.70313,-0.140625 C3.33854,0.0885417 2.90104,0.203125 2.39063,0.203125 C1.21354,0.203125 0.526042,-0.348958 0.328125,-1.45313 C0.317708,-1.57813 0.302083,-1.71354 0.28125,-1.85938 L1.07813,-1.85938 C1.13021,-1.08854 1.46875,-0.65625 2.09375,-0.5625 C2.19792,-0.541667 2.30729,-0.53125 2.42188,-0.53125 C3.04688,-0.53125 3.45313,-0.765625 3.64063,-1.23438 C3.71354,-1.40104 3.75,-1.58854 3.75,-1.79688 C3.73958,-2.54688 3.29688,-2.92708 2.42188,-2.9375 L2.09375,-2.92188 L1.98438,-2.92188 L1.98438,-3.67188 C2.66146,-3.68229 3.10417,-3.77604 3.3125,-3.95313 C3.47917,-4.09896 3.5625,-4.31771 3.5625,-4.60938 C3.5625,-5.09896 3.34896,-5.41667 2.92188,-5.5625 C2.77604,-5.61458 2.61458,-5.64063 2.4375,-5.64063"/>
<path class="Note" fill="#78c7c7" transform="matrix(0.9936,0,0,0.9936,113.182,67.824)" d="M4.39063,-2.75 C5.01563,-2.75 5.54688,-2.58854 5.98438,-2.26563 C6.38021,-1.91146 6.57813,-1.46875 6.57813,-0.9375 C6.57813,-0.0416667 6.11979,0.796875 5.20313,1.57813 C4.26563,2.35938 3.26042,2.75 2.1875,2.75 C1.5625,2.75 1.03646,2.58854 0.609375,2.26563 C0.203125,1.91146 0,1.46875 0,0.9375 C0,0.0416667 0.46875,-0.796875 1.40625,-1.57813 C2.32292,-2.35938 3.31771,-2.75 4.39063,-2.75"/>
<path class="Note" fill="#ffffff" fill-rule="evenodd" d="M61.7281,118.746 L67.6897,118.746 L67.6897,126.198 L61.7281,126.198 L61.7281,118.746 "/>
<path class="Note" transform="matrix(0.9936,0,0,0.9936,62.2249,125.95)" d="M2.32813,-4.54688 L0.921875,-4.54688 L0.921875,-5.10938 C1.53646,-5.19271 1.93229,-5.30208 2.10938,-5.4375 C2.28646,-5.57292 2.4375,-5.85417 2.5625,-6.28125 C2.57292,-6.3125 2.58854,-6.34896 2.60938,-6.39063 L3.125,-6.39063 L3.125,0 L2.32813,0 L2.32813,-4.54688 "/>
<path class="Note" fill="#ed2929" transform="matrix(0.9936,0,0,0.9936,60.9829,70.308)" d="M4.39063,-2.75 C5.01563,-2.75 5.54688,-2.58854 5.98438,-2.26563 C6.38021,-1.91146 6.57813,-1.46875 6.57813,-0.9375 C6.57813,-0.0416667 6.11979,0.796875 5.20313,1.57813 C4.26563,2.35938 3.26042,2.75 2.1875,2.75 C1.5625,2.75 1.03646,2.58854 0.609375,2.26563 C0.203125,1.91146 0,1.46875 0,0.9375 C0,0.0416667 0.46875,-0.796875 1.40625,-1.57813 C2.32292,-2.35938 3.31771,-2.75 4.39063,-2.75"/>
<path class="Clef" transform="matrix(0.9936,0,0,0.9936,32.0544,133.65)" d="M5.32813,8.5 C5.32813,8.86458 5.04167,9.04688 4.46875,9.04688 C4.02083,9.04688 3.625,8.91146 3.28125,8.64063 C2.95833,8.34896 2.79688,7.98438 2.79688,7.54688 C2.79688,6.76563 3.27083,6.14063 4.21875,5.67188 C5.14583,5.18229 6.23438,4.9375 7.48438,4.9375 C7.96354,4.9375 8.47917,4.97396 9.03125,5.04688 C9.42708,5.09896 9.875,5.20313 10.375,5.35938 C10.8125,5.49479 11.1563,5.70573 11.4063,5.99219 C11.6563,6.27865 11.7813,6.61458 11.7813,7 C11.7813,7.89583 11.3177,8.63021 10.3906,9.20313 C11.7448,9.45313 12.4271,10.0573 12.4375,11.0156 C12.4375,11.8281 12.0729,12.5599 11.3438,13.2109 C10.6146,13.862 9.79167,14.1875 8.875,14.1875 C8.47917,14.1875 8.07813,14.0938 7.67188,13.9063 C7.29688,13.7292 7.03125,13.5625 6.875,13.4063 C6.71875,13.2188 6.64063,13.0781 6.64063,12.9844 C6.64063,12.8594 6.70833,12.75 6.84375,12.6563 C6.95833,12.5417 7.07813,12.4844 7.20313,12.4844 C7.25521,12.4844 7.36719,12.5677 7.53906,12.7344 C7.71094,12.901 7.95833,12.9844 8.28125,12.9844 C8.72917,12.9844 9.16146,12.7969 9.57813,12.4219 C9.97396,12.0573 10.1719,11.6198 10.1719,11.1094 C10.1719,10.6719 9.98438,10.3542 9.60938,10.1563 C9.24479,9.95833 8.76563,9.85938 8.17188,9.85938 C8.06771,9.85938 8.01563,9.75 8.01563,9.53125 C8.01563,9.21875 8.13021,9.0625 8.35938,9.0625 C8.72396,9.0625 9.05208,8.90625 9.34375,8.59375 C9.61458,8.26042 9.75,7.90104 9.75,7.51563 C9.75,7.40104 9.71875,7.22917 9.65625,7 C9.60417,6.84375 9.44792,6.65104 9.1875,6.42188 C8.9375,6.21354 8.58854,6.07292 8.14063,6 C8.02604,6.63542 7.88021,7.44792 7.70313,8.4375 C7.52604,9.42708 7.40625,10.0781 7.34375,10.3906 C7.125,11.5156 6.72396,12.4583 6.14063,13.2188 C5.52604,14.0313 4.86458,14.4375 4.15625,14.4375 C3.9375,14.4375 3.71354,14.3854 3.48438,14.2813 C3.29688,14.1979 3.0625,14.0365 2.78125,13.7969 C2.52083,13.5885 2.34375,13.4479 2.25,13.375 C2.19792,13.3438 2.17188,13.2865 2.17188,13.2031 C2.17188,13.0781 2.21875,12.9635 2.3125,12.8594 C2.41667,12.7344 2.52604,12.6719 2.64063,12.6719 C2.71354,12.6719 2.89323,12.7969 3.17969,13.0469 C3.46615,13.2969 3.76563,13.4219 4.07813,13.4219 C4.68229,13.4219 5.13542,13.0365 5.4375,12.2656 C5.71875,11.526 5.85938,10.6094 5.85938,9.51563 L5.85938,9.35938 C5.85938,8.63021 5.97917,7.54167 6.21875,6.09375 C5.80208,6.22917 5.46875,6.42708 5.21875,6.6875 C4.95833,6.94792 4.82813,7.21875 4.82813,7.5 C4.82813,7.71875 4.91146,7.90625 5.07813,8.0625 C5.24479,8.21875 5.32813,8.36458 5.32813,8.5 M1.40625,2.39063 C1.46875,2.39063 1.625,2.45313 1.875,2.57813 C2.13542,2.71354 2.35938,2.78125 2.54688,2.78125 C3.03646,2.78125 3.64063,2.42188 4.35938,1.70313 C6.43229,-0.411458 7.85938,-2.65104 8.64063,-5.01563 C8.79688,-5.51563 9.17708,-5.76563 9.78125,-5.76563 C10.0938,-5.76563 10.3646,-5.69792 10.5938,-5.5625 C10.8125,-5.42708 10.9219,-5.28646 10.9219,-5.14063 L10.5625,2.17188 C10.5625,2.55729 10.7031,2.75 10.9844,2.75 C11.1198,2.75 11.3281,2.6875 11.6094,2.5625 C11.8698,2.42708 12.026,2.35938 12.0781,2.35938 C12.1823,2.35938 12.2448,2.47396 12.2656,2.70313 C12.2656,2.91146 12.1823,3.04167 12.0156,3.09375 C11.8802,3.125 11.6198,3.24479 11.2344,3.45313 C10.8281,3.66146 10.5104,3.76563 10.2813,3.76563 C9.78125,3.76563 9.42708,3.375 9.21875,2.59375 C8.89583,1.375 8.6875,0.104167 8.59375,-1.21875 C8.07292,-0.552083 7.49479,0.119792 6.85938,0.796875 C7.08854,1.24479 7.51563,1.46875 8.14063,1.46875 C8.23438,1.46875 8.30729,1.46354 8.35938,1.45313 L8.375,1.45313 C8.47917,1.45313 8.53125,1.54688 8.53125,1.73438 C8.53125,1.98438 8.44792,2.13542 8.28125,2.1875 C8.01042,2.28125 7.72396,2.32813 7.42188,2.32813 C6.77604,2.32813 6.30729,2.10417 6.01563,1.65625 L5.23438,2.35938 C4.14063,3.29688 3.25,3.76563 2.5625,3.76563 C2.375,3.76563 2.1875,3.73438 2,3.67188 C1.84375,3.60938 1.66146,3.51042 1.45313,3.375 C1.36979,3.34375 1.27865,3.29688 1.17969,3.23438 C1.08073,3.17188 1.02083,3.13542 1,3.125 C0.9375,3.10417 0.90625,3.04688 0.90625,2.95313 C0.90625,2.84896 0.958333,2.72396 1.0625,2.57813 C1.14583,2.45313 1.26042,2.39063 1.40625,2.39063 M5.76563,-10.7969 C5.76563,-10.474 5.48438,-10.3125 4.92188,-10.3125 C4.43229,-10.3125 4.00521,-10.474 3.64063,-10.7969 C3.28646,-11.1302 3.10938,-11.5313 3.10938,-12 C3.10938,-12.4479 3.25,-12.8385 3.53125,-13.1719 C3.83333,-13.5052 4.21875,-13.7552 4.6875,-13.9219 C5.11458,-14.0781 5.59896,-14.2031 6.14063,-14.2969 C6.69271,-14.3594 7.22396,-14.3906 7.73438,-14.3906 C8.03646,-14.3906 8.59896,-14.2552 9.42188,-13.9844 C10.2552,-13.7135 10.8333,-13.5781 11.1563,-13.5781 C11.5625,-13.5781 11.9479,-13.651 12.3125,-13.7969 C12.6042,-13.9219 12.8906,-14.0677 13.1719,-14.2344 C13.3906,-14.3802 13.5104,-14.4531 13.5313,-14.4531 C13.6563,-14.4531 13.7604,-14.4167 13.8438,-14.3438 C13.9479,-14.2396 14,-14.151 14,-14.0781 C14,-13.9948 13.8802,-13.849 13.6406,-13.6406 C13.3802,-13.401 13.0078,-13.1641 12.5234,-12.9297 C12.0391,-12.6953 11.5313,-12.5781 11,-12.5781 C10.7604,-12.5781 10.4688,-12.6198 10.125,-12.7031 C9.89583,-11.2552 9.66146,-9.96875 9.42188,-8.84375 C9.21354,-7.85417 8.79688,-6.98958 8.17188,-6.25 C7.56771,-5.51042 6.89583,-5.14063 6.15625,-5.14063 C5.85417,-5.14063 5.58854,-5.19792 5.35938,-5.3125 C5.09896,-5.44792 4.82292,-5.64583 4.53125,-5.90625 C4.30208,-6.09375 4.08333,-6.26563 3.875,-6.42188 C3.82292,-6.46354 3.79688,-6.52604 3.79688,-6.60938 C3.79688,-6.69271 3.84896,-6.80729 3.95313,-6.95313 C4.05729,-7.06771 4.15104,-7.125 4.23438,-7.125 C4.31771,-7.125 4.54167,-6.96354 4.90625,-6.64063 C5.27083,-6.31771 5.59375,-6.15625 5.875,-6.15625 C6.39583,-6.15625 6.80208,-6.45313 7.09375,-7.04688 C7.375,-7.64063 7.53646,-8.34375 7.57813,-9.15625 C7.64063,-10.5 7.79167,-11.8906 8.03125,-13.3281 C7.73958,-13.3906 7.52604,-13.4219 7.39063,-13.4219 C6.76563,-13.4219 6.22917,-13.2917 5.78125,-13.0313 C5.34375,-12.7813 5.125,-12.4427 5.125,-12.0156 C5.125,-11.7031 5.22917,-11.4635 5.4375,-11.2969 C5.65625,-11.1094 5.76563,-10.9427 5.76563,-10.7969"/>
<path class="Clef" transform="matrix(0.9936,0,0,0.9936,32.0544,77.76)" d="M7.34375,-5.125 C7.34375,-5.125 7.38542,-5.125 7.46875,-5.125 C7.52083,-5.13542 7.5625,-5.14063 7.59375,-5.14063 C9.05208,-5.14063 10.25,-4.625 11.1875,-3.59375 C12.125,-2.58333 12.5938,-1.40104 12.5938,-0.046875 C12.5938,1.64063 11.901,3.01042 10.5156,4.0625 C10.151,4.35417 9.67188,4.58854 9.07813,4.76563 C9.15104,5.60938 9.1875,6.29167 9.1875,6.8125 C9.1875,6.91667 9.17188,7.29688 9.14063,7.95313 C9.08854,9.16146 8.67188,10.2083 7.89063,11.0938 C7.14063,11.9688 6.20313,12.4063 5.07813,12.4063 C4.02604,12.4063 3.13021,12.0365 2.39063,11.2969 C1.64063,10.5365 1.26563,9.625 1.26563,8.5625 C1.26563,8 1.48438,7.52083 1.92188,7.125 C2.35938,6.73958 2.86979,6.54688 3.45313,6.54688 C3.97396,6.54688 4.41146,6.75 4.76563,7.15625 C5.13021,7.53125 5.3125,8 5.3125,8.5625 C5.3125,9.0625 5.13021,9.49479 4.76563,9.85938 C4.40104,10.224 3.96354,10.4063 3.45313,10.4063 C3.24479,10.4063 3.04688,10.3698 2.85938,10.2969 C3.43229,11.1406 4.19271,11.5625 5.14063,11.5625 C6.03646,11.5625 6.77083,11.1979 7.34375,10.4688 C7.94792,9.71875 8.27604,8.83854 8.32813,7.82813 C8.34896,7.20313 8.35938,6.84896 8.35938,6.76563 C8.35938,6.03646 8.33333,5.4375 8.28125,4.96875 C7.63542,5.07292 7.05729,5.125 6.54688,5.125 C4.73438,5.125 3.19271,4.40625 1.92188,2.96875 C0.671875,1.52083 0.046875,-0.197917 0.046875,-2.1875 C0.046875,-2.60417 0.0833333,-3.02604 0.15625,-3.45313 C0.239583,-3.80729 0.338542,-4.19271 0.453125,-4.60938 C0.515625,-4.84896 0.692708,-5.22917 0.984375,-5.75 C1.08854,-5.90625 1.20573,-6.10156 1.33594,-6.33594 C1.46615,-6.57031 1.55729,-6.72396 1.60938,-6.79688 C1.73438,-7.05729 1.98438,-7.41146 2.35938,-7.85938 C2.46354,-7.97396 2.57292,-8.10156 2.6875,-8.24219 C2.80208,-8.38281 2.89844,-8.5 2.97656,-8.59375 C3.05469,-8.6875 3.11198,-8.76042 3.14844,-8.8125 C3.1849,-8.86458 3.47917,-9.20833 4.03125,-9.84375 C4.15625,-9.97917 4.28125,-10.1198 4.40625,-10.2656 C4.53125,-10.4115 4.63281,-10.5286 4.71094,-10.6172 C4.78906,-10.7057 4.84896,-10.7656 4.89063,-10.7969 C4.42188,-12.349 4.125,-13.5885 4,-14.5156 C3.91667,-15.2552 3.875,-16.2708 3.875,-17.5625 C3.875,-18.6979 4.13542,-19.7604 4.65625,-20.75 C5.15625,-21.7708 5.86458,-22.6094 6.78125,-23.2656 C6.84375,-23.3073 6.90625,-23.3281 6.96875,-23.3281 C7.0625,-23.3281 7.13021,-23.3073 7.17188,-23.2656 C7.86979,-22.4219 8.47396,-21.3229 8.98438,-19.9688 C9.50521,-18.6146 9.76563,-17.3802 9.76563,-16.2656 C9.76563,-15.0156 9.46875,-13.8438 8.875,-12.75 C8.19792,-11.5938 7.32292,-10.3958 6.25,-9.15625 C6.52083,-8.30208 6.88542,-6.95833 7.34375,-5.125 M9,3.96875 C9.67708,3.71875 10.2083,3.29688 10.5938,2.70313 C11.0104,2.13021 11.2188,1.48438 11.2188,0.765625 C11.2188,-0.161458 10.9063,-0.984375 10.2813,-1.70313 C9.63542,-2.44271 8.81771,-2.85938 7.82813,-2.95313 C8.39063,-0.203125 8.78125,2.10417 9,3.96875 M1.45313,-0.546875 C1.45313,0.744792 1.97396,1.88021 3.01563,2.85938 C4.07813,3.80729 5.27604,4.28125 6.60938,4.28125 C7.15104,4.28125 7.68229,4.23958 8.20313,4.15625 C7.99479,2.17708 7.58333,-0.192708 6.96875,-2.95313 C6.22917,-2.86979 5.64063,-2.60938 5.20313,-2.17188 C4.76563,-1.71354 4.54688,-1.19792 4.54688,-0.625 C4.54688,0.364583 5.07813,1.16667 6.14063,1.78125 C6.22396,1.875 6.26563,1.97396 6.26563,2.07813 C6.26563,2.18229 6.22396,2.27604 6.14063,2.35938 C6.05729,2.45313 5.95833,2.5 5.84375,2.5 C5.83333,2.5 5.77604,2.48958 5.67188,2.46875 C4.92188,2.0625 4.34896,1.54167 3.95313,0.90625 C3.56771,0.21875 3.375,-0.46875 3.375,-1.15625 C3.375,-2.05208 3.65625,-2.86458 4.21875,-3.59375 C4.80208,-4.32292 5.5625,-4.79167 6.5,-5 C6.13542,-6.45833 5.83854,-7.59896 5.60938,-8.42188 C5.40104,-8.18229 5.15104,-7.89844 4.85938,-7.57031 C4.56771,-7.24219 4.39583,-7.04167 4.34375,-6.96875 C3.875,-6.36458 3.51563,-5.89063 3.26563,-5.54688 C2.81771,-4.93229 2.48958,-4.40625 2.28125,-3.96875 C2.0625,-3.46875 1.86979,-2.92708 1.70313,-2.34375 C1.53646,-1.78125 1.45313,-1.18229 1.45313,-0.546875 M7.96875,-20.4063 C6.98958,-19.9271 6.22396,-19.2396 5.67188,-18.3438 C5.09896,-17.4167 4.8125,-16.4219 4.8125,-15.3594 C4.8125,-14.4219 5.04688,-13.1563 5.51563,-11.5625 C6.45313,-12.6979 7.15625,-13.7448 7.625,-14.7031 C8.11458,-15.724 8.35938,-16.7865 8.35938,-17.8906 C8.35938,-18.724 8.22917,-19.5625 7.96875,-20.4063 M5.82813,15.2344 C6.16146,14.901 6.32813,14.5625 6.32813,14.2188 C6.30729,13.9479 6.19271,13.7396 5.98438,13.5938 C5.74479,13.4375 5.46875,13.3594 5.15625,13.3594 C4.9375,13.3594 4.75521,13.4323 4.60938,13.5781 C4.48438,13.7031 4.42188,13.8646 4.42188,14.0625 C4.42188,14.3021 4.51563,14.4792 4.70313,14.5938 L5.82813,15.2344 M6.14063,15.4063 C6.68229,15.7083 6.95313,16.1146 6.95313,16.625 L6.95313,16.6875 C6.95313,17.0833 6.79167,17.4219 6.46875,17.7031 C6.14583,17.9844 5.68229,18.125 5.07813,18.125 C4.58854,18.125 4.16146,17.9948 3.79688,17.7344 C3.43229,17.4844 3.25,17.1458 3.25,16.7188 C3.25,16.5521 3.29167,16.3958 3.375,16.25 C3.47917,16.0833 3.56771,15.9688 3.64063,15.9063 L4,15.5313 C3.60417,15.2604 3.40625,14.901 3.40625,14.4531 C3.40625,14.099 3.5625,13.7865 3.875,13.5156 C4.19792,13.2552 4.625,13.125 5.15625,13.125 C5.60417,13.125 5.98438,13.224 6.29688,13.4219 C6.60938,13.6198 6.76563,13.8854 6.76563,14.2188 C6.76563,14.5729 6.55729,14.9688 6.14063,15.4063 M4.29688,15.7031 C3.91146,16.0469 3.70313,16.3854 3.67188,16.7188 C3.70313,17.0729 3.84896,17.3542 4.10938,17.5625 C4.39063,17.7813 4.71354,17.8906 5.07813,17.8906 C5.33854,17.8906 5.54688,17.8073 5.70313,17.6406 C5.85938,17.4844 5.9375,17.2969 5.9375,17.0781 C5.92708,16.7865 5.8125,16.5781 5.59375,16.4531 L4.29688,15.7031 "/>
<path class="Fingering" d="M473.381,68.0736 C473.266,68.0736 473.074,68.1309 472.803,68.2455 L472.803,68.1361 L474.24,67.4017 L474.303,67.4174 L474.303,72.2142 C474.303,72.4226 474.365,72.558 474.49,72.6205 C474.594,72.6622 474.787,72.683 475.068,72.683 L475.068,72.808 L472.85,72.808 L472.85,72.683 C473.204,72.6726 473.428,72.6101 473.521,72.4955 C473.584,72.4017 473.615,72.2559 473.615,72.058 L473.615,68.4486 C473.605,68.1986 473.527,68.0736 473.381,68.0736"/>
<path class="Fingering" d="M420.533,69.699 C420.658,69.699 420.84,69.7667 421.08,69.9021 C421.33,70.0584 421.543,70.1365 421.72,70.1365 C422.085,70.1365 422.372,69.975 422.58,69.6521 C422.705,69.4438 422.767,69.2094 422.767,68.949 C422.767,68.1886 422.314,67.7719 421.408,67.699 C421.314,67.6886 421.215,67.6834 421.111,67.6834 L421.111,67.574 C421.715,67.3761 422.111,67.1209 422.299,66.8084 C422.392,66.6417 422.439,66.4594 422.439,66.2615 C422.439,65.9073 422.293,65.6521 422.002,65.4959 C421.866,65.4334 421.72,65.4021 421.564,65.4021 C421.116,65.4021 420.747,65.6365 420.455,66.1052 C420.424,66.1469 420.398,66.1938 420.377,66.2459 L420.252,66.2146 C420.502,65.5375 420.866,65.1261 421.345,64.9802 C421.491,64.9386 421.653,64.9177 421.83,64.9177 C422.309,64.9177 422.663,65.0844 422.892,65.4177 C423.017,65.5948 423.08,65.7927 423.08,66.0115 C423.08,66.3344 422.929,66.6261 422.627,66.8865 C422.533,66.9594 422.434,67.0375 422.33,67.1209 C422.809,67.3292 423.116,67.6157 423.252,67.9802 C423.314,68.1573 423.345,68.3552 423.345,68.574 C423.345,69.2094 423.08,69.7042 422.549,70.0584 C422.153,70.3084 421.684,70.4334 421.142,70.4334 C420.653,70.4334 420.361,70.324 420.267,70.1052 C420.247,70.0636 420.236,70.0219 420.236,69.9802 C420.236,69.824 420.314,69.7355 420.47,69.7146 C420.491,69.7042 420.512,69.699 420.533,69.699"/>
<path class="Fingering" d="M369.693,67.9494 C369.1,67.9494 368.636,67.6421 368.303,67.0275 C368.021,66.5275 367.881,65.9025 367.881,65.1525 C367.881,64.2567 368.089,63.5535 368.506,63.0431 C368.839,62.6473 369.245,62.4442 369.725,62.4337 C370.287,62.4337 370.73,62.7202 371.053,63.2931 C371.355,63.8035 371.506,64.439 371.506,65.1994 C371.506,66.1681 371.282,66.9077 370.834,67.4181 C370.511,67.7723 370.131,67.9494 369.693,67.9494 M369.693,62.6369 C369.047,62.6369 368.698,63.4077 368.646,64.9494 C368.646,65.0431 368.646,65.1369 368.646,65.2306 C368.657,66.8973 369.006,67.7358 369.693,67.7462 C370.381,67.7358 370.725,66.8921 370.725,65.215 C370.725,63.6942 370.454,62.8452 369.912,62.6681 C369.839,62.6473 369.766,62.6369 369.693,62.6369"/>
<path class="Fingering" d="M316.963,60.6216 C316.848,60.6216 316.656,60.6789 316.385,60.7935 L316.385,60.6841 L317.822,59.9497 L317.885,59.9654 L317.885,64.7622 C317.885,64.9706 317.947,65.106 318.072,65.1685 C318.177,65.2102 318.369,65.231 318.65,65.231 L318.65,65.356 L316.432,65.356 L316.432,65.231 C316.786,65.2206 317.01,65.1581 317.104,65.0435 C317.166,64.9497 317.197,64.8039 317.197,64.606 L317.197,60.9966 C317.187,60.7466 317.109,60.6216 316.963,60.6216"/>
<path class="Fingering" d="M263.936,62.247 C264.061,62.247 264.243,62.3147 264.483,62.4501 C264.733,62.6064 264.946,62.6845 265.123,62.6845 C265.488,62.6845 265.774,62.523 265.983,62.2001 C266.108,61.9918 266.17,61.7574 266.17,61.497 C266.17,60.7366 265.717,60.3199 264.811,60.247 C264.717,60.2366 264.618,60.2314 264.514,60.2314 L264.514,60.122 C265.118,59.9241 265.514,59.6689 265.701,59.3564 C265.795,59.1897 265.842,59.0074 265.842,58.8095 C265.842,58.4553 265.696,58.2001 265.405,58.0439 C265.269,57.9814 265.123,57.9501 264.967,57.9501 C264.519,57.9501 264.149,58.1845 263.858,58.6532 C263.826,58.6949 263.8,58.7418 263.78,58.7939 L263.655,58.7626 C263.905,58.0855 264.269,57.6741 264.748,57.5282 C264.894,57.4866 265.056,57.4657 265.233,57.4657 C265.712,57.4657 266.066,57.6324 266.295,57.9657 C266.42,58.1428 266.483,58.3407 266.483,58.5595 C266.483,58.8824 266.332,59.1741 266.03,59.4345 C265.936,59.5074 265.837,59.5855 265.733,59.6689 C266.212,59.8772 266.519,60.1637 266.655,60.5282 C266.717,60.7053 266.748,60.9032 266.748,61.122 C266.748,61.7574 266.483,62.2522 265.951,62.6064 C265.556,62.8564 265.087,62.9814 264.545,62.9814 C264.056,62.9814 263.764,62.872 263.67,62.6532 C263.649,62.6116 263.639,62.5699 263.639,62.5282 C263.639,62.372 263.717,62.2835 263.873,62.2626 C263.894,62.2522 263.915,62.247 263.936,62.247"/>
<path class="Fingering" d="M212.565,60.6216 C212.45,60.6216 212.258,60.6789 211.987,60.7935 L211.987,60.6841 L213.424,59.9497 L213.487,59.9654 L213.487,64.7622 C213.487,64.9706 213.549,65.106 213.674,65.1685 C213.778,65.2102 213.971,65.231 214.252,65.231 L214.252,65.356 L212.034,65.356 L212.034,65.231 C212.388,65.2206 212.612,65.1581 212.705,65.0435 C212.768,64.9497 212.799,64.8039 212.799,64.606 L212.799,60.9966 C212.789,60.7466 212.711,60.6216 212.565,60.6216"/>
<path class="Fingering" d="M160.897,67.9494 C160.303,67.9494 159.84,67.6421 159.506,67.0275 C159.225,66.5275 159.085,65.9025 159.085,65.1525 C159.085,64.2567 159.293,63.5535 159.71,63.0431 C160.043,62.6473 160.449,62.4442 160.928,62.4337 C161.491,62.4337 161.933,62.7202 162.256,63.2931 C162.558,63.8035 162.71,64.439 162.71,65.1994 C162.71,66.1681 162.486,66.9077 162.038,67.4181 C161.715,67.7723 161.335,67.9494 160.897,67.9494 M160.897,62.6369 C160.251,62.6369 159.902,63.4077 159.85,64.9494 C159.85,65.0431 159.85,65.1369 159.85,65.2306 C159.861,66.8973 160.21,67.7358 160.897,67.7462 C161.585,67.7358 161.928,66.8921 161.928,65.215 C161.928,63.6942 161.657,62.8452 161.116,62.6681 C161.043,62.6473 160.97,62.6369 160.897,62.6369"/>
<path class="Fingering" d="M107.339,69.699 C107.464,69.699 107.646,69.7667 107.885,69.9021 C108.135,70.0584 108.349,70.1365 108.526,70.1365 C108.891,70.1365 109.177,69.975 109.385,69.6521 C109.51,69.4438 109.573,69.2094 109.573,68.949 C109.573,68.1886 109.12,67.7719 108.214,67.699 C108.12,67.6886 108.021,67.6834 107.917,67.6834 L107.917,67.574 C108.521,67.3761 108.917,67.1209 109.104,66.8084 C109.198,66.6417 109.245,66.4594 109.245,66.2615 C109.245,65.9073 109.099,65.6521 108.807,65.4959 C108.672,65.4334 108.526,65.4021 108.37,65.4021 C107.922,65.4021 107.552,65.6365 107.26,66.1052 C107.229,66.1469 107.203,66.1938 107.182,66.2459 L107.057,66.2146 C107.307,65.5375 107.672,65.1261 108.151,64.9802 C108.297,64.9386 108.458,64.9177 108.635,64.9177 C109.115,64.9177 109.469,65.0844 109.698,65.4177 C109.823,65.5948 109.885,65.7927 109.885,66.0115 C109.885,66.3344 109.734,66.6261 109.432,66.8865 C109.339,66.9594 109.24,67.0375 109.135,67.1209 C109.615,67.3292 109.922,67.6157 110.057,67.9802 C110.12,68.1573 110.151,68.3552 110.151,68.574 C110.151,69.2094 109.885,69.7042 109.354,70.0584 C108.958,70.3084 108.49,70.4334 107.948,70.4334 C107.458,70.4334 107.167,70.324 107.073,70.1052 C107.052,70.0636 107.042,70.0219 107.042,69.9802 C107.042,69.824 107.12,69.7355 107.276,69.7146 C107.297,69.7042 107.318,69.699 107.339,69.699"/>
<path class="Fingering" d="M55.9677,68.0736 C55.8531,68.0736 55.6604,68.1309 55.3895,68.2455 L55.3895,68.1361 L56.827,67.4017 L56.8895,67.4174 L56.8895,72.2142 C56.8895,72.4226 56.952,72.558 57.077,72.6205 C57.1812,72.6622 57.3739,72.683 57.6552,72.683 L57.6552,72.808 L55.4364,72.808 L55.4364,72.683 C55.7906,72.6726 56.0145,72.6101 56.1083,72.4955 C56.1708,72.4017 56.202,72.2559 56.202,72.058 L56.202,68.4486 C56.1916,68.1986 56.1135,68.0736 55.9677,68.0736"/>
<path class="Tempo" d="M54.7395,40.4371 C54.5364,40.2809 54.2864,40.1871 53.9739,40.1871 C52.7864,40.1871 51.8332,41.0621 51.8332,41.9996 C51.8332,42.5621 52.2864,42.9059 52.8801,42.9059 C53.8332,42.9059 55.0207,41.9996 55.0207,41.0934 L55.0207,34.9527 L54.7395,34.9527 L54.7395,40.4371 "/>
<path class="Tempo" d="M65.3801,39.0152 L58.7707,39.0152 L58.7707,37.859 L65.3801,37.859 L65.3801,39.0152 M65.3801,41.9371 L58.7707,41.9371 L58.7707,40.7965 L65.3801,40.7965 L65.3801,41.9371 M74.6614,34.734 L74.6614,35.0465 C73.2655,35.3382 72.3072,36.0621 71.7864,37.2184 C71.6614,37.4996 71.5572,37.8069 71.4739,38.1402 C71.7864,38.0152 72.1197,37.9527 72.4739,37.9527 C73.3489,37.9527 73.9843,38.2913 74.3801,38.9684 C74.6093,39.3538 74.7239,39.8069 74.7239,40.3277 C74.7239,41.2652 74.4114,42.0048 73.7864,42.5465 C73.3176,42.9423 72.7707,43.1402 72.1457,43.1402 C71.1666,43.1402 70.4218,42.7288 69.9114,41.9059 C69.5364,41.3017 69.3489,40.5673 69.3489,39.7027 C69.3489,38.1194 69.9947,36.8642 71.2864,35.9371 C71.328,35.9059 71.3697,35.8746 71.4114,35.8434 C72.0676,35.3955 72.7968,35.083 73.5989,34.9059 C73.901,34.8434 74.2551,34.7861 74.6614,34.734 M71.2239,40.0777 C71.2239,41.609 71.4114,42.4892 71.7864,42.7184 C71.901,42.7809 72.026,42.8121 72.1614,42.8121 C72.4739,42.8121 72.677,42.6767 72.7707,42.4059 C72.8541,42.1559 72.8957,41.7027 72.8957,41.0465 C72.8957,39.7757 72.7395,38.9892 72.427,38.6871 C72.2707,38.5413 72.0676,38.4684 71.8176,38.4684 C71.5676,38.4684 71.4062,38.5517 71.3332,38.7184 C71.2603,38.8955 71.2239,39.3486 71.2239,40.0777 M75.302,38.9059 C75.302,37.5934 75.6145,36.5309 76.2395,35.7184 C76.7499,35.0725 77.3437,34.7444 78.0207,34.734 C78.802,34.734 79.4478,35.1402 79.9582,35.9527 C80.4687,36.7652 80.7239,37.76 80.7239,38.9371 C80.7239,40.3121 80.4062,41.4059 79.7707,42.2184 C79.2707,42.8225 78.6926,43.1298 78.0364,43.1402 C77.203,43.1402 76.5312,42.7132 76.0207,41.859 C75.5416,41.0673 75.302,40.083 75.302,38.9059 M78.0364,42.7965 C78.3905,42.7965 78.6249,42.4736 78.7395,41.8277 C78.802,41.4423 78.8332,40.9423 78.8332,40.3277 L78.8332,37.5777 C78.8332,36.1402 78.6405,35.3225 78.2551,35.1246 C78.1822,35.083 78.0989,35.0621 78.0051,35.0621 C77.6405,35.0621 77.401,35.3955 77.2864,36.0621 C77.2343,36.4371 77.2082,36.9423 77.2082,37.5777 L77.2082,40.3277 C77.2082,41.6819 77.3749,42.4736 77.7082,42.7027 C77.802,42.7652 77.9114,42.7965 78.0364,42.7965"/>
<path class="StaffText" d="M54.875,25.2057 C55.323,25.2057 55.823,25.3203 56.375,25.5495 C56.6146,25.6432 56.7865,25.6901 56.8907,25.6901 C57.0365,25.6901 57.1667,25.5807 57.2813,25.362 C57.2917,25.3203 57.3073,25.2787 57.3282,25.237 L57.5938,25.237 L57.5938,27.5807 L57.3438,27.5807 C57.073,26.9766 56.7917,26.5339 56.5,26.2526 C56.4375,26.1901 56.3802,26.138 56.3282,26.0964 C55.9011,25.7214 55.4584,25.5339 55,25.5339 C54,25.5339 53.4063,26.2526 53.2188,27.6901 C53.1875,28.013 53.1719,28.362 53.1719,28.737 C53.1719,29.9245 53.3855,30.7943 53.8125,31.3464 C54.1459,31.763 54.6042,31.9714 55.1875,31.9714 C55.75,31.9714 56.0677,31.7943 56.1407,31.4401 C56.1511,31.3776 56.1563,31.3099 56.1563,31.237 L56.1563,30.1901 C56.1563,29.8985 56.0834,29.711 55.9375,29.6276 C55.7917,29.5547 55.5261,29.5078 55.1407,29.487 L55.1407,29.237 L58.5782,29.237 L58.5782,29.487 C58.1719,29.5287 57.9219,29.6172 57.8282,29.7526 C57.7552,29.8672 57.7188,30.086 57.7188,30.4089 L57.7188,31.6745 C57.125,32.0287 56.3386,32.237 55.3594,32.2995 C55.224,32.2995 55.0886,32.2995 54.9532,32.2995 C53.8386,32.2995 52.948,31.9401 52.2813,31.2214 C51.6875,30.5755 51.3907,29.7682 51.3907,28.7995 C51.3907,27.7578 51.7344,26.8932 52.4219,26.2057 C53.0886,25.5391 53.9063,25.2057 54.875,25.2057 M62.6407,28.8307 C62.4219,28.8307 62.2084,28.711 62,28.4714 C61.8855,28.3255 61.8021,28.2474 61.75,28.237 C61.5313,28.237 61.3646,28.388 61.25,28.6901 C61.1771,28.8464 61.1407,29.013 61.1407,29.1901 L61.1407,31.0807 C61.1407,31.4453 61.2136,31.6693 61.3594,31.7526 C61.4532,31.8151 61.625,31.8568 61.875,31.8776 L61.875,32.112 L59.2344,32.112 L59.2344,31.8776 C59.5052,31.8255 59.6667,31.7318 59.7188,31.5964 C59.7396,31.5235 59.75,31.4141 59.75,31.2682 L59.75,28.3307 C59.75,28.0703 59.6771,27.9037 59.5313,27.8307 C59.4584,27.7891 59.3594,27.7578 59.2344,27.737 L59.2344,27.5026 L61.1094,27.5026 L61.1094,28.3307 C61.4844,27.7787 61.8542,27.4714 62.2188,27.4089 C62.3021,27.388 62.3802,27.3776 62.4532,27.3776 C62.7969,27.3776 63.0417,27.5182 63.1875,27.7995 C63.2396,27.9141 63.2657,28.0339 63.2657,28.1589 C63.2657,28.4714 63.1407,28.6797 62.8907,28.7839 C62.8073,28.8151 62.724,28.8307 62.6407,28.8307 M64.5157,28.0807 C64.5157,28.112 64.5677,28.2057 64.6719,28.362 C64.7657,28.5078 64.8125,28.6328 64.8125,28.737 C64.8125,28.9974 64.6823,29.1745 64.4219,29.2682 C64.3282,29.2995 64.2344,29.3151 64.1407,29.3151 C63.7761,29.3151 63.5625,29.1537 63.5,28.8307 C63.4896,28.7682 63.4844,28.711 63.4844,28.6589 C63.4844,28.1901 63.7396,27.8412 64.25,27.612 C64.573,27.4557 64.948,27.3776 65.375,27.3776 C66.25,27.3776 66.849,27.6172 67.1719,28.0964 C67.2969,28.2943 67.3594,28.5182 67.3594,28.7682 L67.3594,31.3464 C67.3698,31.5026 67.4375,31.586 67.5625,31.5964 C67.6146,31.586 67.6511,31.5703 67.6719,31.5495 L67.7813,31.4557 L67.9219,31.6589 C67.5261,32.0339 67.1563,32.2318 66.8125,32.2526 C66.4375,32.2526 66.1927,32.112 66.0782,31.8307 C66.0469,31.737 66.0157,31.638 65.9844,31.5339 C65.4427,32.0026 64.9167,32.2422 64.4063,32.2526 C63.9688,32.2526 63.6511,32.086 63.4532,31.7526 C63.349,31.586 63.2969,31.4037 63.2969,31.2057 C63.2969,30.6224 63.7448,30.1485 64.6407,29.7839 C64.8802,29.6797 65.3282,29.5287 65.9844,29.3307 L65.9844,28.5964 C65.9844,28.0651 65.7657,27.7735 65.3282,27.7214 C65.2657,27.7214 65.2032,27.7214 65.1407,27.7214 C64.849,27.7214 64.6511,27.8047 64.5469,27.9714 C64.5261,28.0026 64.5157,28.0391 64.5157,28.0807 M65.9688,31.0964 L65.9688,29.6589 C65.1667,29.8776 64.7605,30.2787 64.75,30.862 C64.75,31.1953 64.8594,31.4037 65.0782,31.487 C65.1407,31.5078 65.2032,31.5182 65.2657,31.5182 C65.4948,31.5182 65.7292,31.3776 65.9688,31.0964 M71.4375,32.237 L71.4375,31.5964 C71.0834,31.9714 70.7396,32.1849 70.4063,32.237 C70.3125,32.2474 70.2136,32.2526 70.1094,32.2526 C69.5157,32.2526 69.0469,31.9766 68.7032,31.4245 C68.4323,30.9974 68.2969,30.4922 68.2969,29.9089 C68.2969,29.0547 68.5417,28.3828 69.0313,27.8932 C69.3646,27.5495 69.7605,27.3776 70.2188,27.3776 C70.573,27.3776 70.8959,27.513 71.1875,27.7839 C71.2709,27.8568 71.3438,27.9245 71.4063,27.987 L71.4063,26.1745 C71.4063,25.9245 71.349,25.7682 71.2344,25.7057 C71.1302,25.6537 70.9323,25.6172 70.6407,25.5964 L70.6407,25.362 L72.7969,25.362 L72.7969,31.112 C72.7969,31.3932 72.8802,31.5651 73.0469,31.6276 C73.1302,31.6589 73.2448,31.6797 73.3907,31.6901 L73.3907,31.9245 L72.7657,32.0026 C72.2136,32.0755 71.7709,32.1537 71.4375,32.237 M70.5625,31.7057 C70.8542,31.7057 71.1042,31.5391 71.3125,31.2057 C71.3646,31.112 71.3959,31.0443 71.4063,31.0026 L71.4063,28.5495 C71.2813,28.2162 71.073,28.0182 70.7813,27.9557 C70.7292,27.9453 70.6771,27.9401 70.625,27.9401 C70.1146,27.9401 69.8334,28.4453 69.7813,29.4557 C69.7813,29.5703 69.7813,29.6953 69.7813,29.8307 C69.7813,31.0703 70.0417,31.6953 70.5625,31.7057 M75.7344,29.6589 C75.7865,30.6797 76.0521,31.2787 76.5313,31.4557 C76.6563,31.4974 76.7865,31.5182 76.9219,31.5182 C77.2865,31.5182 77.6198,31.3516 77.9219,31.0182 C77.974,30.9662 78.0209,30.9141 78.0625,30.862 L78.2969,31.0026 C77.8802,31.6068 77.4688,31.987 77.0625,32.1432 C76.8542,32.2162 76.6198,32.2526 76.3594,32.2526 C75.6094,32.2526 75.0469,31.9453 74.6719,31.3307 C74.4219,30.9141 74.2969,30.4141 74.2969,29.8307 C74.2969,28.9349 74.5677,28.263 75.1094,27.8151 C75.474,27.5235 75.9011,27.3776 76.3907,27.3776 C77.4948,27.3776 78.1146,28.0964 78.25,29.5339 C78.25,29.5755 78.25,29.6172 78.25,29.6589 L75.7344,29.6589 M77.0313,29.1432 C77.0105,28.5182 76.9427,28.1224 76.8282,27.9557 C76.7344,27.7995 76.5886,27.7214 76.3907,27.7214 C76.099,27.7214 75.9011,27.8932 75.7969,28.237 C75.7344,28.4766 75.698,28.8307 75.6875,29.2995 L77.0313,29.2995 L77.0313,29.1432 M81.2813,28.7214 C81.2813,27.6276 81.5417,26.737 82.0625,26.0495 C82.4896,25.5182 82.9844,25.2474 83.5469,25.237 C84.2032,25.237 84.7448,25.5755 85.1719,26.2526 C85.5886,26.9297 85.7969,27.7578 85.7969,28.737 C85.7969,29.8828 85.5313,30.7943 85,31.4714 C84.5938,31.9818 84.1146,32.237 83.5625,32.237 C82.8646,32.237 82.3021,31.8828 81.875,31.1745 C81.4792,30.5182 81.2813,29.7005 81.2813,28.7214 M83.5625,31.9557 C83.8542,31.9557 84.0469,31.6849 84.1407,31.1432 C84.1927,30.8203 84.2188,30.4037 84.2188,29.8932 L84.2188,27.612 C84.2188,26.4037 84.0625,25.7214 83.75,25.5651 C83.6771,25.5339 83.6042,25.5182 83.5313,25.5182 C83.2292,25.5182 83.0313,25.7943 82.9375,26.3464 C82.8855,26.6589 82.8594,27.0807 82.8594,27.612 L82.8594,29.8932 C82.8594,31.0287 83,31.6901 83.2813,31.8776 C83.3646,31.9297 83.4584,31.9557 83.5625,31.9557 M87.7032,30.5495 C88.0261,30.5495 88.2709,30.6901 88.4375,30.9714 C88.5209,31.1172 88.5625,31.263 88.5625,31.4089 C88.5625,31.7214 88.4219,31.961 88.1407,32.1276 C87.9948,32.2005 87.849,32.237 87.7032,32.237 C87.3698,32.237 87.125,32.0964 86.9688,31.8151 C86.8959,31.6797 86.8594,31.5391 86.8594,31.3932 C86.8594,31.0912 86.9948,30.8568 87.2657,30.6901 C87.4011,30.5964 87.5469,30.5495 87.7032,30.5495 M87.7032,27.3932 C88.0261,27.3932 88.2709,27.5287 88.4375,27.7995 C88.5209,27.9453 88.5625,28.0912 88.5625,28.237 C88.5625,28.5599 88.4219,28.8047 88.1407,28.9714 C88.0052,29.0443 87.8594,29.0807 87.7032,29.0807 C87.3698,29.0807 87.125,28.9349 86.9688,28.6432 C86.8959,28.5078 86.8594,28.3672 86.8594,28.2214 C86.8594,27.9193 86.9948,27.6849 87.2657,27.5182 C87.4011,27.4349 87.5469,27.3932 87.7032,27.3932"/>
<path class="StaffText" d="M92.3907,28.8776 C92.3907,27.7839 92.75,26.9037 93.4688,26.237 C94.0938,25.6641 94.8542,25.3776 95.75,25.3776 C96.198,25.3776 96.6823,25.4557 97.2032,25.612 C97.3802,25.6641 97.5105,25.6901 97.5938,25.6901 C97.8021,25.6797 97.9427,25.5755 98.0157,25.3776 L98.2188,25.3776 L98.3125,27.612 L98.0782,27.612 C97.7136,26.3828 97,25.763 95.9375,25.7526 C95.0938,25.7526 94.4532,26.112 94.0157,26.8307 C93.7136,27.3516 93.5625,27.987 93.5625,28.737 C93.5625,30.2162 94.0365,31.1693 94.9844,31.5964 C95.3073,31.7422 95.6563,31.8151 96.0313,31.8151 C96.75,31.8151 97.4219,31.5443 98.0469,31.0026 C98.1198,30.9401 98.1927,30.8724 98.2657,30.7995 L98.4375,30.987 C97.9063,31.6953 97.1615,32.1068 96.2032,32.2214 C96.0365,32.2422 95.875,32.2526 95.7188,32.2526 C94.6459,32.2526 93.7969,31.8932 93.1719,31.1745 C92.6511,30.5599 92.3907,29.7943 92.3907,28.8776 M102.172,28.1589 L102.172,27.987 C102.651,27.8412 103.12,27.6849 103.578,27.5182 L103.641,27.5339 L103.641,28.2995 C104.214,27.862 104.625,27.612 104.875,27.5495 C104.979,27.5287 105.083,27.5182 105.188,27.5182 C105.719,27.5287 106.073,27.8151 106.25,28.3776 C106.781,27.8047 107.328,27.5182 107.891,27.5182 C108.651,27.5287 109.036,28.1276 109.047,29.3151 L109.047,31.362 C109.057,31.7266 109.198,31.9193 109.469,31.9401 L109.734,31.9557 L109.734,32.112 L107.547,32.112 L107.547,31.9557 C107.87,31.9245 108.063,31.8516 108.125,31.737 C108.177,31.6432 108.203,31.4818 108.203,31.2526 L108.203,29.1432 C108.203,28.5912 108.094,28.2578 107.875,28.1432 C107.771,28.0807 107.63,28.0495 107.453,28.0495 C107.005,28.0599 106.641,28.263 106.359,28.6589 L106.359,31.1745 C106.359,31.5495 106.448,31.7839 106.625,31.8776 C106.729,31.9297 106.88,31.9557 107.078,31.9557 L107.078,32.112 L104.844,32.112 L104.844,31.9557 C105.167,31.9349 105.365,31.862 105.438,31.737 C105.5,31.6432 105.531,31.4818 105.531,31.2526 L105.531,29.0964 C105.531,28.3985 105.307,28.0495 104.859,28.0495 C104.495,28.0495 104.172,28.1693 103.891,28.4089 C103.818,28.4818 103.75,28.5599 103.688,28.6432 L103.688,31.4401 C103.688,31.6901 103.776,31.8464 103.953,31.9089 C104.047,31.9401 104.182,31.9557 104.359,31.9557 L104.359,32.112 L102.141,32.112 L102.141,31.9557 C102.495,31.9557 102.708,31.8724 102.781,31.7057 C102.823,31.6016 102.844,31.4557 102.844,31.2682 L102.844,28.7526 C102.844,28.3776 102.766,28.1693 102.609,28.1276 C102.578,28.1172 102.542,28.112 102.5,28.112 C102.396,28.112 102.286,28.1276 102.172,28.1589 M110.297,31.1432 C110.297,30.6328 110.615,30.2005 111.25,29.8464 C111.438,29.7526 111.938,29.5391 112.75,29.2057 C112.771,29.2057 112.786,29.2005 112.797,29.1901 L112.797,28.5807 C112.745,28.0599 112.49,27.7839 112.031,27.7526 C111.719,27.7526 111.5,27.8516 111.375,28.0495 C111.333,28.1224 111.313,28.1849 111.313,28.237 C111.313,28.2995 111.323,28.3828 111.344,28.487 C111.354,28.5599 111.359,28.612 111.359,28.6432 C111.359,28.8203 111.271,28.9453 111.094,29.0182 C111.031,29.0495 110.974,29.0651 110.922,29.0651 C110.734,29.0651 110.604,28.9766 110.531,28.7995 C110.5,28.7474 110.484,28.6901 110.484,28.6276 C110.484,28.263 110.703,27.9662 111.141,27.737 C111.443,27.5912 111.786,27.5182 112.172,27.5182 C112.891,27.5182 113.333,27.7735 113.5,28.2839 C113.573,28.5026 113.609,28.7787 113.609,29.112 L113.609,31.0495 C113.609,31.3828 113.672,31.5703 113.797,31.612 C113.839,31.6224 113.875,31.6276 113.906,31.6276 C114.052,31.6172 114.198,31.5547 114.344,31.4401 L114.344,31.6901 C114.073,32.0026 113.823,32.1745 113.594,32.2057 C113.542,32.2057 113.49,32.2057 113.438,32.2057 C113.125,32.2057 112.927,32.0495 112.844,31.737 C112.823,31.6537 112.813,31.5599 112.813,31.4557 C112.219,31.9349 111.729,32.1849 111.344,32.2057 C110.917,32.2057 110.609,32.0339 110.422,31.6901 C110.339,31.5235 110.297,31.3412 110.297,31.1432 M112.797,30.862 L112.797,29.4245 C111.974,29.7266 111.469,30.0339 111.281,30.3464 C111.208,30.4922 111.172,30.6485 111.172,30.8151 C111.172,31.211 111.318,31.461 111.609,31.5651 C111.682,31.5964 111.75,31.612 111.813,31.612 C112.031,31.6016 112.271,31.5235 112.531,31.3776 C112.677,31.2943 112.76,31.1901 112.781,31.0651 C112.792,31.0026 112.797,30.9349 112.797,30.862 M115.516,28.1901 C115.516,28.1901 115.365,28.2005 115.063,28.2214 L115.063,28.0495 C115.604,27.8828 116.125,27.7057 116.625,27.5182 L116.672,27.5495 L116.672,32.112 C116.672,33.3412 116.26,34.0495 115.438,34.237 C115.292,34.2682 115.141,34.2839 114.984,34.2839 C114.547,34.2839 114.255,34.1745 114.109,33.9557 C114.068,33.8828 114.047,33.8099 114.047,33.737 C114.047,33.5495 114.135,33.4297 114.313,33.3776 C114.365,33.3568 114.411,33.3464 114.453,33.3464 C114.599,33.3464 114.755,33.4505 114.922,33.6589 C115.099,33.8464 115.245,33.9453 115.359,33.9557 C115.589,33.9557 115.729,33.7943 115.781,33.4714 C115.813,33.2735 115.828,32.9714 115.828,32.5651 L115.828,28.7682 C115.828,28.4141 115.75,28.2214 115.594,28.1901 C115.563,28.1901 115.536,28.1901 115.516,28.1901 M116.172,25.2839 C116.391,25.2839 116.547,25.3828 116.641,25.5807 C116.672,25.6537 116.688,25.7266 116.688,25.7995 C116.688,26.0182 116.578,26.1745 116.359,26.2682 C116.297,26.2891 116.234,26.2995 116.172,26.2995 C115.943,26.2995 115.786,26.2005 115.703,26.0026 C115.682,25.9297 115.672,25.862 115.672,25.7995 C115.672,25.5807 115.766,25.4245 115.953,25.3307 C116.026,25.2995 116.099,25.2839 116.172,25.2839 M119.5,27.5182 C120.24,27.5182 120.823,27.7891 121.25,28.3307 C121.552,28.737 121.703,29.2162 121.703,29.7682 C121.703,30.5495 121.448,31.1745 120.938,31.6432 C120.521,32.0182 120.036,32.2057 119.484,32.2057 C118.776,32.2057 118.214,31.9349 117.797,31.3932 C117.464,30.9557 117.297,30.4401 117.297,29.8464 C117.297,29.0339 117.573,28.4089 118.125,27.9714 C118.51,27.6693 118.969,27.5182 119.5,27.5182 M118.203,29.362 C118.203,30.2682 118.391,30.961 118.766,31.4401 C119.005,31.7526 119.286,31.9089 119.609,31.9089 C120.13,31.9089 120.49,31.612 120.688,31.0182 C120.771,30.7578 120.813,30.461 120.813,30.1276 C120.813,29.2422 120.599,28.586 120.172,28.1589 C119.943,27.9297 119.677,27.8151 119.375,27.8151 C118.906,27.8151 118.568,28.0547 118.359,28.5339 C118.255,28.7735 118.203,29.0495 118.203,29.362 M125.063,28.487 C124.958,28.487 124.807,28.4037 124.609,28.237 C124.516,28.1537 124.443,28.112 124.391,28.112 C124.224,28.112 124.052,28.2422 123.875,28.5026 C123.76,28.6693 123.703,28.8151 123.703,28.9401 L123.703,31.2057 C123.703,31.5495 123.792,31.763 123.969,31.8464 C124.094,31.9089 124.286,31.9453 124.547,31.9557 L124.547,32.112 L122.141,32.112 L122.141,31.9557 C122.495,31.8932 122.708,31.8099 122.781,31.7057 C122.833,31.6224 122.859,31.4766 122.859,31.2682 L122.859,28.7526 C122.859,28.388 122.776,28.1901 122.609,28.1589 C122.578,28.1485 122.547,28.1432 122.516,28.1432 C122.401,28.1432 122.286,28.1589 122.172,28.1901 L122.172,28.0339 C122.703,27.8672 123.193,27.6953 123.641,27.5182 L123.703,27.5339 L123.703,28.4245 C124.047,27.9453 124.339,27.6589 124.578,27.5651 C124.682,27.5339 124.786,27.5182 124.891,27.5182 C125.203,27.5182 125.385,27.6485 125.438,27.9089 C125.438,27.9505 125.438,27.9974 125.438,28.0495 C125.406,28.3203 125.281,28.4662 125.063,28.487 M130.719,27.7214 C130.74,27.711 130.797,27.6745 130.891,27.612 L131,27.612 L131.031,28.9714 L130.891,28.9714 C130.724,28.3255 130.484,27.9401 130.172,27.8151 C130.057,27.763 129.927,27.737 129.781,27.737 C129.427,27.737 129.188,27.8776 129.063,28.1589 C129.031,28.2422 129.016,28.3307 129.016,28.4245 C129.026,28.7057 129.172,28.9297 129.453,29.0964 L130.531,29.737 C131.01,30.0287 131.281,30.3464 131.344,30.6901 C131.354,30.763 131.359,30.8464 131.359,30.9401 C131.359,31.3568 131.177,31.6953 130.813,31.9557 C130.552,32.1224 130.266,32.2057 129.953,32.2057 C129.818,32.2057 129.51,32.1589 129.031,32.0651 C128.917,32.0443 128.828,32.0339 128.766,32.0339 C128.661,32.0443 128.583,32.086 128.531,32.1589 L128.406,32.1589 L128.406,30.5964 L128.563,30.5964 C128.667,31.0651 128.797,31.3932 128.953,31.5807 C129.172,31.8516 129.464,31.987 129.828,31.987 C130.255,31.987 130.521,31.8307 130.625,31.5182 C130.656,31.4453 130.672,31.362 130.672,31.2682 C130.661,30.9662 130.484,30.7162 130.141,30.5182 L129.563,30.1901 C128.938,29.836 128.568,29.4818 128.453,29.1276 C128.411,29.0026 128.391,28.8776 128.391,28.7526 C128.391,28.2839 128.594,27.9349 129,27.7057 C129.229,27.5807 129.479,27.5182 129.75,27.5182 C129.969,27.5182 130.229,27.5703 130.531,27.6745 C130.615,27.7057 130.677,27.7214 130.719,27.7214 M132.297,29.987 C132.297,29.1432 132.583,28.4818 133.156,28.0026 C133.552,27.6797 133.995,27.5182 134.484,27.5182 C135.036,27.5182 135.464,27.6693 135.766,27.9714 C135.943,28.1485 136.031,28.3412 136.031,28.5495 C136.031,28.7266 135.938,28.8516 135.75,28.9245 C135.677,28.9557 135.609,28.9714 135.547,28.9714 C135.339,28.9714 135.188,28.836 135.094,28.5651 C135.083,28.5443 135.078,28.5235 135.078,28.5026 L135.016,28.2839 C134.953,28.0339 134.839,27.888 134.672,27.8464 C134.599,27.8255 134.516,27.8151 134.422,27.8151 C133.922,27.8151 133.542,28.0547 133.281,28.5339 C133.135,28.8255 133.063,29.1641 133.063,29.5495 C133.063,30.2787 133.286,30.8255 133.734,31.1901 C133.995,31.388 134.286,31.487 134.609,31.487 C135.026,31.487 135.385,31.3203 135.688,30.987 C135.792,30.862 135.906,30.7162 136.031,30.5495 L136.172,30.6432 C135.797,31.362 135.38,31.8307 134.922,32.0495 C134.682,32.1537 134.443,32.2057 134.203,32.2057 C133.557,32.2057 133.052,31.9401 132.688,31.4089 C132.427,31.0026 132.297,30.5287 132.297,29.987 M136.297,31.1432 C136.297,30.6328 136.615,30.2005 137.25,29.8464 C137.438,29.7526 137.938,29.5391 138.75,29.2057 C138.771,29.2057 138.786,29.2005 138.797,29.1901 L138.797,28.5807 C138.745,28.0599 138.49,27.7839 138.031,27.7526 C137.719,27.7526 137.5,27.8516 137.375,28.0495 C137.333,28.1224 137.313,28.1849 137.313,28.237 C137.313,28.2995 137.323,28.3828 137.344,28.487 C137.354,28.5599 137.359,28.612 137.359,28.6432 C137.359,28.8203 137.271,28.9453 137.094,29.0182 C137.031,29.0495 136.974,29.0651 136.922,29.0651 C136.734,29.0651 136.604,28.9766 136.531,28.7995 C136.5,28.7474 136.484,28.6901 136.484,28.6276 C136.484,28.263 136.703,27.9662 137.141,27.737 C137.443,27.5912 137.786,27.5182 138.172,27.5182 C138.891,27.5182 139.333,27.7735 139.5,28.2839 C139.573,28.5026 139.609,28.7787 139.609,29.112 L139.609,31.0495 C139.609,31.3828 139.672,31.5703 139.797,31.612 C139.839,31.6224 139.875,31.6276 139.906,31.6276 C140.052,31.6172 140.198,31.5547 140.344,31.4401 L140.344,31.6901 C140.073,32.0026 139.823,32.1745 139.594,32.2057 C139.542,32.2057 139.49,32.2057 139.438,32.2057 C139.125,32.2057 138.927,32.0495 138.844,31.737 C138.823,31.6537 138.813,31.5599 138.813,31.4557 C138.219,31.9349 137.729,32.1849 137.344,32.2057 C136.917,32.2057 136.609,32.0339 136.422,31.6901 C136.339,31.5235 136.297,31.3412 136.297,31.1432 M138.797,30.862 L138.797,29.4245 C137.974,29.7266 137.469,30.0339 137.281,30.3464 C137.208,30.4922 137.172,30.6485 137.172,30.8151 C137.172,31.211 137.318,31.461 137.609,31.5651 C137.682,31.5964 137.75,31.612 137.813,31.612 C138.031,31.6016 138.271,31.5235 138.531,31.3776 C138.677,31.2943 138.76,31.1901 138.781,31.0651 C138.792,31.0026 138.797,30.9349 138.797,30.862 M140.141,25.8776 L140.141,25.7214 C140.807,25.5547 141.339,25.4089 141.734,25.2839 L141.781,25.2995 L141.781,31.2682 C141.781,31.5807 141.844,31.7735 141.969,31.8464 C142.083,31.8985 142.271,31.9349 142.531,31.9557 L142.531,32.112 L140.172,32.112 L140.172,31.9557 C140.547,31.9245 140.776,31.836 140.859,31.6901 C140.911,31.5964 140.938,31.4453 140.938,31.237 L140.938,26.4714 C140.938,26.138 140.865,25.9453 140.719,25.8932 C140.656,25.8724 140.589,25.862 140.516,25.862 C140.38,25.862 140.255,25.8672 140.141,25.8776 M144.016,29.3464 C144.057,30.5235 144.443,31.2162 145.172,31.4245 C145.297,31.4662 145.432,31.487 145.578,31.487 C146.068,31.487 146.484,31.2787 146.828,30.862 C146.922,30.7474 147.021,30.612 147.125,30.4557 L147.281,30.5182 C146.917,31.4766 146.344,32.0287 145.563,32.1745 C145.427,32.1953 145.297,32.2057 145.172,32.2057 C144.432,32.2057 143.901,31.8932 143.578,31.2682 C143.391,30.8932 143.297,30.461 143.297,29.9714 C143.297,29.086 143.573,28.4141 144.125,27.9557 C144.49,27.6641 144.911,27.5182 145.391,27.5182 C146.307,27.5182 146.859,28.0391 147.047,29.0807 C147.068,29.1745 147.083,29.263 147.094,29.3464 L144.016,29.3464 M144.031,29.0495 L146.078,29.0495 C145.984,28.4766 145.818,28.1224 145.578,27.987 C145.453,27.9245 145.292,27.8932 145.094,27.8932 C144.5,27.8932 144.146,28.2682 144.031,29.0182 C144.031,29.0287 144.031,29.0391 144.031,29.0495 M152.641,27.612 L152.641,27.9089 L151.625,27.9089 L151.625,30.7682 C151.625,31.3099 151.76,31.6068 152.031,31.6589 C152.063,31.6693 152.099,31.6745 152.141,31.6745 C152.349,31.6641 152.552,31.5443 152.75,31.3151 L152.875,31.4401 C152.552,31.9505 152.151,32.2057 151.672,32.2057 C151.089,32.1953 150.792,31.7735 150.781,30.9401 L150.781,27.9089 L150.25,27.9089 C150.229,27.888 150.219,27.8672 150.219,27.8464 C150.219,27.8047 150.26,27.763 150.344,27.7214 C150.625,27.5339 150.958,27.1693 151.344,26.6276 C151.354,26.6172 151.359,26.612 151.359,26.612 C151.464,26.4557 151.531,26.362 151.563,26.3307 C151.604,26.3412 151.625,26.3828 151.625,26.4557 L151.625,27.612 L152.641,27.612 M155.5,27.5182 C156.24,27.5182 156.823,27.7891 157.25,28.3307 C157.552,28.737 157.703,29.2162 157.703,29.7682 C157.703,30.5495 157.448,31.1745 156.938,31.6432 C156.521,32.0182 156.036,32.2057 155.484,32.2057 C154.776,32.2057 154.214,31.9349 153.797,31.3932 C153.464,30.9557 153.297,30.4401 153.297,29.8464 C153.297,29.0339 153.573,28.4089 154.125,27.9714 C154.51,27.6693 154.969,27.5182 155.5,27.5182 M154.203,29.362 C154.203,30.2682 154.391,30.961 154.766,31.4401 C155.005,31.7526 155.286,31.9089 155.609,31.9089 C156.13,31.9089 156.49,31.612 156.688,31.0182 C156.771,30.7578 156.813,30.461 156.813,30.1276 C156.813,29.2422 156.599,28.586 156.172,28.1589 C155.943,27.9297 155.677,27.8151 155.375,27.8151 C154.906,27.8151 154.568,28.0547 154.359,28.5339 C154.255,28.7735 154.203,29.0495 154.203,29.362 M164.609,30.1432 C164.609,29.2266 164.115,28.5807 163.125,28.2057 C162.677,28.0391 162.24,27.9557 161.813,27.9557 C161.74,27.9453 161.698,27.9193 161.688,27.8776 C161.688,27.8464 161.693,27.8255 161.703,27.8151 L162.781,25.5026 L164.875,25.5026 C165.052,25.5026 165.193,25.4297 165.297,25.2839 C165.307,25.263 165.318,25.2474 165.328,25.237 L165.422,25.2995 L165.047,26.1432 C165.005,26.1953 164.927,26.2214 164.813,26.2214 L162.859,26.2214 L162.438,27.0807 C163.74,27.3203 164.589,27.7526 164.984,28.3776 C165.203,28.7214 165.313,29.1537 165.313,29.6745 C165.313,30.8099 164.839,31.5807 163.891,31.987 C163.484,32.1641 163.052,32.2526 162.594,32.2526 C161.948,32.2526 161.552,32.1068 161.406,31.8151 C161.375,31.763 161.359,31.7005 161.359,31.6276 C161.38,31.388 161.526,31.2682 161.797,31.2682 C161.984,31.2682 162.229,31.3724 162.531,31.5807 C162.823,31.7787 163.052,31.8776 163.219,31.8776 C163.688,31.8776 164.057,31.6589 164.328,31.2214 C164.516,30.8985 164.609,30.5391 164.609,30.1432 M168.641,27.612 L168.641,27.9089 L167.625,27.9089 L167.625,30.7682 C167.625,31.3099 167.76,31.6068 168.031,31.6589 C168.063,31.6693 168.099,31.6745 168.141,31.6745 C168.349,31.6641 168.552,31.5443 168.75,31.3151 L168.875,31.4401 C168.552,31.9505 168.151,32.2057 167.672,32.2057 C167.089,32.1953 166.792,31.7735 166.781,30.9401 L166.781,27.9089 L166.25,27.9089 C166.229,27.888 166.219,27.8672 166.219,27.8464 C166.219,27.8047 166.26,27.763 166.344,27.7214 C166.625,27.5339 166.958,27.1693 167.344,26.6276 C167.354,26.6172 167.359,26.612 167.359,26.612 C167.464,26.4557 167.531,26.362 167.563,26.3307 C167.604,26.3412 167.625,26.3828 167.625,26.4557 L167.625,27.612 L168.641,27.612 M170.625,28.6901 L170.625,31.0964 C170.625,31.4818 170.688,31.7214 170.813,31.8151 C170.906,31.888 171.073,31.9349 171.313,31.9557 L171.313,32.112 L169.141,32.112 L169.141,31.9557 C169.443,31.9245 169.63,31.8516 169.703,31.737 C169.755,31.6328 169.781,31.4193 169.781,31.0964 L169.781,26.3776 C169.781,26.1172 169.729,25.961 169.625,25.9089 C169.563,25.8776 169.464,25.862 169.328,25.862 C169.276,25.862 169.219,25.8672 169.156,25.8776 L169.156,25.7214 C169.635,25.5964 170.109,25.4505 170.578,25.2839 L170.625,25.3151 L170.625,28.3464 C171.01,27.8568 171.422,27.5807 171.859,27.5182 C171.932,27.5182 172.01,27.5182 172.094,27.5182 C172.906,27.5287 173.318,28.0547 173.328,29.0964 L173.328,31.0964 C173.328,31.4714 173.375,31.7057 173.469,31.7995 C173.542,31.8724 173.693,31.9245 173.922,31.9557 L173.922,32.112 L171.813,32.112 L171.813,31.9557 C172.125,31.9245 172.318,31.8412 172.391,31.7057 C172.453,31.5912 172.484,31.388 172.484,31.0964 L172.484,29.112 C172.474,28.4141 172.224,28.0599 171.734,28.0495 C171.411,28.0495 171.083,28.2162 170.75,28.5495 C170.708,28.6016 170.667,28.6485 170.625,28.6901"/>
</svg>
