<?xml version="1.0" encoding="UTF-8" standalone="no"?>
<svg width="595.44px" height="841.68px" viewBox="0 0 595.44 841.68"
 xmlns="http://www.w3.org/2000/svg" xmlns:xlink="http://www.w3.org/1999/xlink" version="1.2" baseProfile="tiny">
<title>Guitar Scales and Arpeggios</title>
<desc>Generated by MuseScore 2.1.0</desc>
<polyline class="StaffLines" fill="none" stroke="#000000" stroke-width="0.40" stroke-linejoin="bevel" points="28.08,62.856 567.36,62.856"/>
<polyline class="StaffLines" fill="none" stroke="#000000" stroke-width="0.40" stroke-linejoin="bevel" points="28.08,67.824 567.36,67.824"/>
<polyline class="StaffLines" fill="none" stroke="#000000" stroke-width="0.40" stroke-linejoin="bevel" points="28.08,72.792 567.36,72.792"/>
<polyline class="StaffLines" fill="none" stroke="#000000" stroke-width="0.40" stroke-linejoin="bevel" points="28.08,77.76 567.36,77.76"/>
<polyline class="StaffLines" fill="none" stroke="#000000" stroke-width="0.40" stroke-linejoin="bevel" points="28.08,82.728 567.36,82.728"/>
<polyline class="StaffLines" fill="none" stroke="#000000" stroke-width="0.40" stroke-linejoin="bevel" points="28.08,115.02 567.36,115.02"/>
<polyline class="StaffLines" fill="none" stroke="#000000" stroke-width="0.40" stroke-linejoin="bevel" points="28.08,122.472 567.36,122.472"/>
<polyline class="StaffLines" fill="none" stroke="#000000" stroke-width="0.40" stroke-linejoin="bevel" points="28.08,129.924 567.36,129.924"/>
<polyline class="StaffLines" fill="none" stroke="#000000" stroke-width="0.40" stroke-linejoin="bevel" points="28.08,137.376 567.36,137.376"/>
<polyline class="StaffLines" fill="none" stroke="#000000" stroke-width="0.40" stroke-linejoin="bevel" points="28.08,144.828 567.36,144.828"/>
<polyline class="StaffLines" fill="none" stroke="#000000" stroke-width="0.40" stroke-linejoin="bevel" points="28.08,152.28 567.36,152.28"/>
<polyline class="BarLine" fill="none" stroke="#000000" stroke-width="0.79" stroke-linejoin="bevel" points="28.4774,62.856 28.4774,152.28"/>
<polyline class="BarLine" fill="none" stroke="#000000" stroke-width="0.79" stroke-linejoin="bevel" points="562.491,115.02 562.491,152.28"/>
<polyline class="BarLine" fill="none" stroke="#000000" stroke-width="2.48" stroke-linejoin="bevel" points="566.118,115.02 566.118,152.28"/>
<polyline class="BarLine" fill="none" stroke="#000000" stroke-width="0.79" stroke-linejoin="bevel" points="562.491,62.856 562.491,82.728"/>
<polyline class="BarLine" fill="none" stroke="#000000" stroke-width="2.48" stroke-linejoin="bevel" points="566.118,62.856 566.118,82.728"/>
<polyline class="Stem" fill="none" stroke="#000000" stroke-width="0.65" stroke-linecap="round" stroke-linejoin="bevel" points="419.063,71.087 419.063,86.454"/>
<polyline class="Stem" fill="none" stroke="#000000" stroke-width="0.65" stroke-linecap="round" stroke-linejoin="bevel" points="329.758,66.2731 329.758,82.728"/>
<polyline class="Stem" fill="none" stroke="#000000" stroke-width="0.65" stroke-linecap="round" stroke-linejoin="bevel" points="240.274,61.3051 240.274,77.76"/>
<polyline class="Stem" fill="none" stroke="#000000" stroke-width="0.65" stroke-linecap="round" stroke-linejoin="bevel" points="150.79,66.2731 150.79,82.728"/>
<polyline class="Stem" fill="none" stroke="#000000" stroke-width="0.65" stroke-linecap="round" stroke-linejoin="bevel" points="61.3058,71.2411 61.3058,86.454"/>
<path class="Note" fill="#ffffff" fill-rule="evenodd" d="M419.665,118.746 L425.626,118.746 L425.626,126.198 L419.665,126.198 L419.665,118.746 "/>
<path class="Note" transform="matrix(0.9936,0,0,0.9936,420.161,125.95)" d="M2.32813,-4.54688 L0.921875,-4.54688 L0.921875,-5.10938 C1.53646,-5.19271 1.93229,-5.30208 2.10938,-5.4375 C2.28646,-5.57292 2.4375,-5.85417 2.5625,-6.28125 C2.57292,-6.3125 2.58854,-6.34896 2.60938,-6.39063 L3.125,-6.39063 L3.125,0 L2.32813,0 L2.32813,-4.54688 "/>
<path class="Note" fill="#ed2929" transform="matrix(0.9936,0,0,0.9936,418.74,70.308)" d="M6.3125,-1.3125 C6.3125,-1.53125 6.22917,-1.71875 6.0625,-1.875 C5.88542,-2.04167 5.6875,-2.125 5.46875,-2.125 C5.08333,-2.125 4.29688,-1.73438 3.10938,-0.953125 C1.88021,-0.161458 1.13021,0.40625 0.859375,0.75 C0.713542,0.927083 0.640625,1.11458 0.640625,1.3125 C0.640625,1.53125 0.729167,1.71875 0.90625,1.875 C1.0625,2.04167 1.25521,2.125 1.48438,2.125 C1.85938,2.125 2.65625,1.73438 3.875,0.953125 C5.07292,0.171875 5.8125,-0.395833 6.09375,-0.75 C6.23958,-0.916667 6.3125,-1.10417 6.3125,-1.3125 M5.28125,-2.75 C6.39583,-2.75 6.95313,-2.27083 6.95313,-1.3125 C6.95313,-0.84375 6.81771,-0.296875 6.54688,0.328125 C6.27604,0.942708 5.91146,1.41146 5.45313,1.73438 C4.45313,2.41146 3.19792,2.75 1.6875,2.75 C0.5625,2.75 0,2.27083 0,1.3125 C0,0.885417 0.135417,0.34375 0.40625,-0.3125 C0.666667,-0.9375 1.03125,-1.41146 1.5,-1.73438 C2.51042,-2.41146 3.77083,-2.75 5.28125,-2.75"/>
<path class="Note" fill="#ffffff" fill-rule="evenodd" d="M330.18,111.294 L336.142,111.294 L336.142,118.746 L330.18,118.746 L330.18,111.294 "/>
<path class="Note" transform="matrix(0.9936,0,0,0.9936,330.677,118.498)" d="M0.390625,-3.09375 C0.390625,-5 0.927083,-6.07813 2,-6.32813 C2.14583,-6.36979 2.30208,-6.39063 2.46875,-6.39063 C3.78125,-6.39063 4.47917,-5.40104 4.5625,-3.42188 C4.5625,-3.28646 4.5625,-3.15625 4.5625,-3.03125 C4.5625,-1.40625 4.15104,-0.385417 3.32813,0.03125 C3.06771,0.145833 2.78125,0.203125 2.46875,0.203125 C1.41667,0.203125 0.760417,-0.442708 0.5,-1.73438 C0.427083,-2.14063 0.390625,-2.59375 0.390625,-3.09375 M2.46875,-5.64063 C1.625,-5.63021 1.20313,-4.77083 1.20313,-3.0625 C1.20313,-1.32292 1.61979,-0.453125 2.45313,-0.453125 C3.16146,-0.453125 3.57813,-1.02604 3.70313,-2.17188 C3.73438,-2.44271 3.75,-2.75 3.75,-3.09375 C3.75,-4.79167 3.32292,-5.64063 2.46875,-5.64063"/>
<path class="Note" fill="#ff9933" transform="matrix(0.9936,0,0,0.9936,329.435,65.34)" d="M4.39063,-2.75 C5.01563,-2.75 5.54688,-2.58854 5.98438,-2.26563 C6.38021,-1.91146 6.57813,-1.46875 6.57813,-0.9375 C6.57813,-0.0416667 6.11979,0.796875 5.20313,1.57813 C4.26563,2.35938 3.26042,2.75 2.1875,2.75 C1.5625,2.75 1.03646,2.58854 0.609375,2.26563 C0.203125,1.91146 0,1.46875 0,0.9375 C0,0.0416667 0.46875,-0.796875 1.40625,-1.57813 C2.32292,-2.35938 3.31771,-2.75 4.39063,-2.75"/>
<path class="Note" fill="#ffffff" fill-rule="evenodd" d="M240.696,111.294 L246.658,111.294 L246.658,118.746 L240.696,118.746 L240.696,111.294 "/>
<path class="Note" transform="matrix(0.9936,0,0,0.9936,241.193,118.498)" d="M2.4375,-5.64063 C1.75,-5.64063 1.35417,-5.32813 1.25,-4.70313 C1.22917,-4.59896 1.21875,-4.47917 1.21875,-4.34375 L0.421875,-4.34375 C0.442708,-5.59375 1.01563,-6.27083 2.14063,-6.375 C2.23438,-6.38542 2.32813,-6.39063 2.42188,-6.39063 C3.26563,-6.39063 3.84375,-6.10938 4.15625,-5.54688 C4.29167,-5.28646 4.35938,-4.98438 4.35938,-4.64063 C4.35938,-4.00521 4.0625,-3.57292 3.46875,-3.34375 C4.03125,-3.14583 4.375,-2.81771 4.5,-2.35938 C4.54167,-2.19271 4.5625,-2.00521 4.5625,-1.79688 C4.5625,-1.05729 4.27604,-0.505208 3.70313,-0.140625 C3.33854,0.0885417 2.90104,0.203125 2.39063,0.203125 C1.21354,0.203125 0.526042,-0.348958 0.328125,-1.45313 C0.317708,-1.57813 0.302083,-1.71354 0.28125,-1.85938 L1.07813,-1.85938 C1.13021,-1.08854 1.46875,-0.65625 2.09375,-0.5625 C2.19792,-0.541667 2.30729,-0.53125 2.42188,-0.53125 C3.04688,-0.53125 3.45313,-0.765625 3.64063,-1.23438 C3.71354,-1.40104 3.75,-1.58854 3.75,-1.79688 C3.73958,-2.54688 3.29688,-2.92708 2.42188,-2.9375 L2.09375,-2.92188 L1.98438,-2.92188 L1.98438,-3.67188 C2.66146,-3.68229 3.10417,-3.77604 3.3125,-3.95313 C3.47917,-4.09896 3.5625,-4.31771 3.5625,-4.60938 C3.5625,-5.09896 3.34896,-5.41667 2.92188,-5.5625 C2.77604,-5.61458 2.61458,-5.64063 2.4375,-5.64063"/>
<path class="Note" fill="#99cc33" transform="matrix(0.9936,0,0,0.9936,239.951,60.372)" d="M4.39063,-2.75 C5.01563,-2.75 5.54688,-2.58854 5.98438,-2.26563 C6.38021,-1.91146 6.57813,-1.46875 6.57813,-0.9375 C6.57813,-0.0416667 6.11979,0.796875 5.20313,1.57813 C4.26563,2.35938 3.26042,2.75 2.1875,2.75 C1.5625,2.75 1.03646,2.58854 0.609375,2.26563 C0.203125,1.91146 0,1.46875 0,0.9375 C0,0.0416667 0.46875,-0.796875 1.40625,-1.57813 C2.32292,-2.35938 3.31771,-2.75 4.39063,-2.75"/>
<path class="Note" fill="#ffffff" fill-rule="evenodd" d="M151.212,111.294 L157.174,111.294 L157.174,118.746 L151.212,118.746 L151.212,111.294 "/>
<path class="Note" transform="matrix(0.9936,0,0,0.9936,151.709,118.498)" d="M0.390625,-3.09375 C0.390625,-5 0.927083,-6.07813 2,-6.32813 C2.14583,-6.36979 2.30208,-6.39063 2.46875,-6.39063 C3.78125,-6.39063 4.47917,-5.40104 4.5625,-3.42188 C4.5625,-3.28646 4.5625,-3.15625 4.5625,-3.03125 C4.5625,-1.40625 4.15104,-0.385417 3.32813,0.03125 C3.06771,0.145833 2.78125,0.203125 2.46875,0.203125 C1.41667,0.203125 0.760417,-0.442708 0.5,-1.73438 C0.427083,-2.14063 0.390625,-2.59375 0.390625,-3.09375 M2.46875,-5.64063 C1.625,-5.63021 1.20313,-4.77083 1.20313,-3.0625 C1.20313,-1.32292 1.61979,-0.453125 2.45313,-0.453125 C3.16146,-0.453125 3.57813,-1.02604 3.70313,-2.17188 C3.73438,-2.44271 3.75,-2.75 3.75,-3.09375 C3.75,-4.79167 3.32292,-5.64063 2.46875,-5.64063"/>
<path class="Note" fill="#ff9933" transform="matrix(0.9936,0,0,0.9936,150.467,65.34)" d="M4.39063,-2.75 C5.01563,-2.75 5.54688,-2.58854 5.98438,-2.26563 C6.38021,-1.91146 6.57813,-1.46875 6.57813,-0.9375 C6.57813,-0.0416667 6.11979,0.796875 5.20313,1.57813 C4.26563,2.35938 3.26042,2.75 2.1875,2.75 C1.5625,2.75 1.03646,2.58854 0.609375,2.26563 C0.203125,1.91146 0,1.46875 0,0.9375 C0,0.0416667 0.46875,-0.796875 1.40625,-1.57813 C2.32292,-2.35938 3.31771,-2.75 4.39063,-2.75"/>
<path class="Note" fill="#ffffff" fill-rule="evenodd" d="M61.7281,118.746 L67.6897,118.746 L67.6897,126.198 L61.7281,126.198 L61.7281,118.746 "/>
<path class="Note" transform="matrix(0.9936,0,0,0.9936,62.2249,125.95)" d="M2.32813,-4.54688 L0.921875,-4.54688 L0.921875,-5.10938 C1.53646,-5.19271 1.93229,-5.30208 2.10938,-5.4375 C2.28646,-5.57292 2.4375,-5.85417 2.5625,-6.28125 C2.57292,-6.3125 2.58854,-6.34896 2.60938,-6.39063 L3.125,-6.39063 L3.125,0 L2.32813,0 L2.32813,-4.54688 "/>
<path class="Note" fill="#ed2929" transform="matrix(0.9936,0,0,0.9936,60.9829,70.308)" d="M4.39063,-2.75 C5.01563,-2.75 5.54688,-2.58854 5.98438,-2.26563 C6.38021,-1.91146 6.57813,-1.46875 6.57813,-0.9375 C6.57813,-0.0416667 6.11979,0.796875 5.20313,1.57813 C4.26563,2.35938 3.26042,2.75 2.1875,2.75 C1.5625,2.75 1.03646,2.58854 0.609375,2.26563 C0.203125,1.91146 0,1.46875 0,0.9375 C0,0.0416667 0.46875,-0.796875 1.40625,-1.57813 C2.32292,-2.35938 3.31771,-2.75 4.39063,-2.75"/>
<path class="Clef" transform="matrix(0.9936,0,0,0.9936,32.0544,133.65)" d="M5.32813,8.5 C5.32813,8.86458 5.04167,9.04688 4.46875,9.04688 C4.02083,9.04688 3.625,8.91146 3.28125,8.64063 C2.95833,8.34896 2.79688,7.98438 2.79688,7.54688 C2.79688,6.76563 3.27083,6.14063 4.21875,5.67188 C5.14583,5.18229 6.23438,4.9375 7.48438,4.9375 C7.96354,4.9375 8.47917,4.97396 9.03125,5.04688 C9.42708,5.09896 9.875,5.20313 10.375,5.35938 C10.8125,5.49479 11.1563,5.70573 11.4063,5.99219 C11.6563,6.27865 11.7813,6.61458 11.7813,7 C11.7813,7.89583 11.3177,8.63021 10.3906,9.20313 C11.7448,9.45313 12.4271,10.0573 12.4375,11.0156 C12.4375,11.8281 12.0729,12.5599 11.3438,13.2109 C10.6146,13.862 9.79167,14.1875 8.875,14.1875 C8.47917,14.1875 8.07813,14.0938 7.67188,13.9063 C7.29688,13.7292 7.03125,13.5625 6.875,13.4063 C6.71875,13.2188 6.64063,13.0781 6.64063,12.9844 C6.64063,12.8594 6.70833,12.75 6.84375,12.6563 C6.95833,12.5417 7.07813,12.4844 7.20313,12.4844 C7.25521,12.4844 7.36719,12.5677 7.53906,12.7344 C7.71094,12.901 7.95833,12.9844 8.28125,12.9844 C8.72917,12.9844 9.16146,12.7969 9.57813,12.4219 C9.97396,12.0573 10.1719,11.6198 10.1719,11.1094 C10.1719,10.6719 9.98438,10.3542 9.60938,10.1563 C9.24479,9.95833 8.76563,9.85938 8.17188,9.85938 C8.06771,9.85938 8.01563,9.75 8.01563,9.53125 C8.01563,9.21875 8.13021,9.0625 8.35938,9.0625 C8.72396,9.0625 9.05208,8.90625 9.34375,8.59375 C9.61458,8.26042 9.75,7.90104 9.75,7.51563 C9.75,7.40104 9.71875,7.22917 9.65625,7 C9.60417,6.84375 9.44792,6.65104 9.1875,6.42188 C8.9375,6.21354 8.58854,6.07292 8.14063,6 C8.02604,6.63542 7.88021,7.44792 7.70313,8.4375 C7.52604,9.42708 7.40625,10.0781 7.34375,10.3906 C7.125,11.5156 6.72396,12.4583 6.14063,13.2188 C5.52604,14.0313 4.86458,14.4375 4.15625,14.4375 C3.9375,14.4375 3.71354,14.3854 3.48438,14.2813 C3.29688,14.1979 3.0625,14.0365 2.78125,13.7969 C2.52083,13.5885 2.34375,13.4479 2.25,13.375 C2.19792,13.3438 2.17188,13.2865 2.17188,13.2031 C2.17188,13.0781 2.21875,12.9635 2.3125,12.8594 C2.41667,12.7344 2.52604,12.6719 2.64063,12.6719 C2.71354,12.6719 2.89323,12.7969 3.17969,13.0469 C3.46615,13.2969 3.76563,13.4219 4.07813,13.4219 C4.68229,13.4219 5.13542,13.0365 5.4375,12.2656 C5.71875,11.526 5.85938,10.6094 5.85938,9.51563 L5.85938,9.35938 C5.85938,8.63021 5.97917,7.54167 6.21875,6.09375 C5.80208,6.22917 5.46875,6.42708 5.21875,6.6875 C4.95833,6.94792 4.82813,7.21875 4.82813,7.5 C4.82813,7.71875 4.91146,7.90625 5.07813,8.0625 C5.24479,8.21875 5.32813,8.36458 5.32813,8.5 M1.40625,2.39063 C1.46875,2.39063 1.625,2.45313 1.875,2.57813 C2.13542,2.71354 2.35938,2.78125 2.54688,2.78125 C3.03646,2.78125 3.64063,2.42188 4.35938,1.70313 C6.43229,-0.411458 7.85938,-2.65104 8.64063,-5.01563 C8.79688,-5.51563 9.17708,-5.76563 9.78125,-5.76563 C10.0938,-5.76563 10.3646,-5.69792 10.5938,-5.5625 C10.8125,-5.42708 10.9219,-5.28646 10.9219,-5.14063 L10.5625,2.17188 C10.5625,2.55729 10.7031,2.75 10.9844,2.75 C11.1198,2.75 11.3281,2.6875 11.6094,2.5625 C11.8698,2.42708 12.026,2.35938 12.0781,2.35938 C12.1823,2.35938 12.2448,2.47396 12.2656,2.70313 C12.2656,2.91146 12.1823,3.04167 12.0156,3.09375 C11.8802,3.125 11.6198,3.24479 11.2344,3.45313 C10.8281,3.66146 10.5104,3.76563 10.2813,3.76563 C9.78125,3.76563 9.42708,3.375 9.21875,2.59375 C8.89583,1.375 8.6875,0.104167 8.59375,-1.21875 C8.07292,-0.552083 7.49479,0.119792 6.85938,0.796875 C7.08854,1.24479 7.51563,1.46875 8.14063,1.46875 C8.23438,1.46875 8.30729,1.46354 8.35938,1.45313 L8.375,1.45313 C8.47917,1.45313 8.53125,1.54688 8.53125,1.73438 C8.53125,1.98438 8.44792,2.13542 8.28125,2.1875 C8.01042,2.28125 7.72396,2.32813 7.42188,2.32813 C6.77604,2.32813 6.30729,2.10417 6.01563,1.65625 L5.23438,2.35938 C4.14063,3.29688 3.25,3.76563 2.5625,3.76563 C2.375,3.76563 2.1875,3.73438 2,3.67188 C1.84375,3.60938 1.66146,3.51042 1.45313,3.375 C1.36979,3.34375 1.27865,3.29688 1.17969,3.23438 C1.08073,3.17188 1.02083,3.13542 1,3.125 C0.9375,3.10417 0.90625,3.04688 0.90625,2.95313 C0.90625,2.84896 0.958333,2.72396 1.0625,2.57813 C1.14583,2.45313 1.26042,2.39063 1.40625,2.39063 M5.76563,-10.7969 C5.76563,-10.474 5.48438,-10.3125 4.92188,-10.3125 C4.43229,-10.3125 4.00521,-10.474 3.64063,-10.7969 C3.28646,-11.1302 3.10938,-11.5313 3.10938,-12 C3.10938,-12.4479 3.25,-12.8385 3.53125,-13.1719 C3.83333,-13.5052 4.21875,-13.7552 4.6875,-13.9219 C5.11458,-14.0781 5.59896,-14.2031 6.14063,-14.2969 C6.69271,-14.3594 7.22396,-14.3906 7.73438,-14.3906 C8.03646,-14.3906 8.59896,-14.2552 9.42188,-13.9844 C10.2552,-13.7135 10.8333,-13.5781 11.1563,-13.5781 C11.5625,-13.5781 11.9479,-13.651 12.3125,-13.7969 C12.6042,-13.9219 12.8906,-14.0677 13.1719,-14.2344 C13.3906,-14.3802 13.5104,-14.4531 13.5313,-14.4531 C13.6563,-14.4531 13.7604,-14.4167 13.8438,-14.3438 C13.9479,-14.2396 14,-14.151 14,-14.0781 C14,-13.9948 13.8802,-13.849 13.6406,-13.6406 C13.3802,-13.401 13.0078,-13.1641 12.5234,-12.9297 C12.0391,-12.6953 11.5313,-12.5781 11,-12.5781 C10.7604,-12.5781 10.4688,-12.6198 10.125,-12.7031 C9.89583,-11.2552 9.66146,-9.96875 9.42188,-8.84375 C9.21354,-7.85417 8.79688,-6.98958 8.17188,-6.25 C7.56771,-5.51042 6.89583,-5.14063 6.15625,-5.14063 C5.85417,-5.14063 5.58854,-5.19792 5.35938,-5.3125 C5.09896,-5.44792 4.82292,-5.64583 4.53125,-5.90625 C4.30208,-6.09375 4.08333,-6.26563 3.875,-6.42188 C3.82292,-6.46354 3.79688,-6.52604 3.79688,-6.60938 C3.79688,-6.69271 3.84896,-6.80729 3.95313,-6.95313 C4.05729,-7.06771 4.15104,-7.125 4.23438,-7.125 C4.31771,-7.125 4.54167,-6.96354 4.90625,-6.64063 C5.27083,-6.31771 5.59375,-6.15625 5.875,-6.15625 C6.39583,-6.15625 6.80208,-6.45313 7.09375,-7.04688 C7.375,-7.64063 7.53646,-8.34375 7.57813,-9.15625 C7.64063,-10.5 7.79167,-11.8906 8.03125,-13.3281 C7.73958,-13.3906 7.52604,-13.4219 7.39063,-13.4219 C6.76563,-13.4219 6.22917,-13.2917 5.78125,-13.0313 C5.34375,-12.7813 5.125,-12.4427 5.125,-12.0156 C5.125,-11.7031 5.22917,-11.4635 5.4375,-11.2969 C5.65625,-11.1094 5.76563,-10.9427 5.76563,-10.7969"/>
<path class="Clef" transform="matrix(0.9936,0,0,0.9936,32.0544,77.76)" d="M7.34375,-5.125 C7.34375,-5.125 7.38542,-5.125 7.46875,-5.125 C7.52083,-5.13542 7.5625,-5.14063 7.59375,-5.14063 C9.05208,-5.14063 10.25,-4.625 11.1875,-3.59375 C12.125,-2.58333 12.5938,-1.40104 12.5938,-0.046875 C12.5938,1.64063 11.901,3.01042 10.5156,4.0625 C10.151,4.35417 9.67188,4.58854 9.07813,4.76563 C9.15104,5.60938 9.1875,6.29167 9.1875,6.8125 C9.1875,6.91667 9.17188,7.29688 9.14063,7.95313 C9.08854,9.16146 8.67188,10.2083 7.89063,11.0938 C7.14063,11.9688 6.20313,12.4063 5.07813,12.4063 C4.02604,12.4063 3.13021,12.0365 2.39063,11.2969 C1.64063,10.5365 1.26563,9.625 1.26563,8.5625 C1.26563,8 1.48438,7.52083 1.92188,7.125 C2.35938,6.73958 2.86979,6.54688 3.45313,6.54688 C3.97396,6.54688 4.41146,6.75 4.76563,7.15625 C5.13021,7.53125 5.3125,8 5.3125,8.5625 C5.3125,9.0625 5.13021,9.49479 4.76563,9.85938 C4.40104,10.224 3.96354,10.4063 3.45313,10.4063 C3.24479,10.4063 3.04688,10.3698 2.85938,10.2969 C3.43229,11.1406 4.19271,11.5625 5.14063,11.5625 C6.03646,11.5625 6.77083,11.1979 7.34375,10.4688 C7.94792,9.71875 8.27604,8.83854 8.32813,7.82813 C8.34896,7.20313 8.35938,6.84896 8.35938,6.76563 C8.35938,6.03646 8.33333,5.4375 8.28125,4.96875 C7.63542,5.07292 7.05729,5.125 6.54688,5.125 C4.73438,5.125 3.19271,4.40625 1.92188,2.96875 C0.671875,1.52083 0.046875,-0.197917 0.046875,-2.1875 C0.046875,-2.60417 0.0833333,-3.02604 0.15625,-3.45313 C0.239583,-3.80729 0.338542,-4.19271 0.453125,-4.60938 C0.515625,-4.84896 0.692708,-5.22917 0.984375,-5.75 C1.08854,-5.90625 1.20573,-6.10156 1.33594,-6.33594 C1.46615,-6.57031 1.55729,-6.72396 1.60938,-6.79688 C1.73438,-7.05729 1.98438,-7.41146 2.35938,-7.85938 C2.46354,-7.97396 2.57292,-8.10156 2.6875,-8.24219 C2.80208,-8.38281 2.89844,-8.5 2.97656,-8.59375 C3.05469,-8.6875 3.11198,-8.76042 3.14844,-8.8125 C3.1849,-8.86458 3.47917,-9.20833 4.03125,-9.84375 C4.15625,-9.97917 4.28125,-10.1198 4.40625,-10.2656 C4.53125,-10.4115 4.63281,-10.5286 4.71094,-10.6172 C4.78906,-10.7057 4.84896,-10.7656 4.89063,-10.7969 C4.42188,-12.349 4.125,-13.5885 4,-14.5156 C3.91667,-15.2552 3.875,-16.2708 3.875,-17.5625 C3.875,-18.6979 4.13542,-19.7604 4.65625,-20.75 C5.15625,-21.7708 5.86458,-22.6094 6.78125,-23.2656 C6.84375,-23.3073 6.90625,-23.3281 6.96875,-23.3281 C7.0625,-23.3281 7.13021,-23.3073 7.17188,-23.2656 C7.86979,-22.4219 8.47396,-21.3229 8.98438,-19.9688 C9.50521,-18.6146 9.76563,-17.3802 9.76563,-16.2656 C9.76563,-15.0156 9.46875,-13.8438 8.875,-12.75 C8.19792,-11.5938 7.32292,-10.3958 6.25,-9.15625 C6.52083,-8.30208 6.88542,-6.95833 7.34375,-5.125 M9,3.96875 C9.67708,3.71875 10.2083,3.29688 10.5938,2.70313 C11.0104,2.13021 11.2188,1.48438 11.2188,0.765625 C11.2188,-0.161458 10.9063,-0.984375 10.2813,-1.70313 C9.63542,-2.44271 8.81771,-2.85938 7.82813,-2.95313 C8.39063,-0.203125 8.78125,2.10417 9,3.96875 M1.45313,-0.546875 C1.45313,0.744792 1.97396,1.88021 3.01563,2.85938 C4.07813,3.80729 5.27604,4.28125 6.60938,4.28125 C7.15104,4.28125 7.68229,4.23958 8.20313,4.15625 C7.99479,2.17708 7.58333,-0.192708 6.96875,-2.95313 C6.22917,-2.86979 5.64063,-2.60938 5.20313,-2.17188 C4.76563,-1.71354 4.54688,-1.19792 4.54688,-0.625 C4.54688,0.364583 5.07813,1.16667 6.14063,1.78125 C6.22396,1.875 6.26563,1.97396 6.26563,2.07813 C6.26563,2.18229 6.22396,2.27604 6.14063,2.35938 C6.05729,2.45313 5.95833,2.5 5.84375,2.5 C5.83333,2.5 5.77604,2.48958 5.67188,2.46875 C4.92188,2.0625 4.34896,1.54167 3.95313,0.90625 C3.56771,0.21875 3.375,-0.46875 3.375,-1.15625 C3.375,-2.05208 3.65625,-2.86458 4.21875,-3.59375 C4.80208,-4.32292 5.5625,-4.79167 6.5,-5 C6.13542,-6.45833 5.83854,-7.59896 5.60938,-8.42188 C5.40104,-8.18229 5.15104,-7.89844 4.85938,-7.57031 C4.56771,-7.24219 4.39583,-7.04167 4.34375,-6.96875 C3.875,-6.36458 3.51563,-5.89063 3.26563,-5.54688 C2.81771,-4.93229 2.48958,-4.40625 2.28125,-3.96875 C2.0625,-3.46875 1.86979,-2.92708 1.70313,-2.34375 C1.53646,-1.78125 1.45313,-1.18229 1.45313,-0.546875 M7.96875,-20.4063 C6.98958,-19.9271 6.22396,-19.2396 5.67188,-18.3438 C5.09896,-17.4167 4.8125,-16.4219 4.8125,-15.3594 C4.8125,-14.4219 5.04688,-13.1563 5.51563,-11.5625 C6.45313,-12.6979 7.15625,-13.7448 7.625,-14.7031 C8.11458,-15.724 8.35938,-16.7865 8.35938,-17.8906 C8.35938,-18.724 8.22917,-19.5625 7.96875,-20.4063 M5.82813,15.2344 C6.16146,14.901 6.32813,14.5625 6.32813,14.2188 C6.30729,13.9479 6.19271,13.7396 5.98438,13.5938 C5.74479,13.4375 5.46875,13.3594 5.15625,13.3594 C4.9375,13.3594 4.75521,13.4323 4.60938,13.5781 C4.48438,13.7031 4.42188,13.8646 4.42188,14.0625 C4.42188,14.3021 4.51563,14.4792 4.70313,14.5938 L5.82813,15.2344 M6.14063,15.4063 C6.68229,15.7083 6.95313,16.1146 6.95313,16.625 L6.95313,16.6875 C6.95313,17.0833 6.79167,17.4219 6.46875,17.7031 C6.14583,17.9844 5.68229,18.125 5.07813,18.125 C4.58854,18.125 4.16146,17.9948 3.79688,17.7344 C3.43229,17.4844 3.25,17.1458 3.25,16.7188 C3.25,16.5521 3.29167,16.3958 3.375,16.25 C3.47917,16.0833 3.56771,15.9688 3.64063,15.9063 L4,15.5313 C3.60417,15.2604 3.40625,14.901 3.40625,14.4531 C3.40625,14.099 3.5625,13.7865 3.875,13.5156 C4.19792,13.2552 4.625,13.125 5.15625,13.125 C5.60417,13.125 5.98438,13.224 6.29688,13.4219 C6.60938,13.6198 6.76563,13.8854 6.76563,14.2188 C6.76563,14.5729 6.55729,14.9688 6.14063,15.4063 M4.29688,15.7031 C3.91146,16.0469 3.70313,16.3854 3.67188,16.7188 C3.70313,17.0729 3.84896,17.3542 4.10938,17.5625 C4.39063,17.7813 4.71354,17.8906 5.07813,17.8906 C5.33854,17.8906 5.54688,17.8073 5.70313,17.6406 C5.85938,17.4844 5.9375,17.2969 5.9375,17.0781 C5.92708,16.7865 5.8125,16.5781 5.59375,16.4531 L4.29688,15.7031 "/>
<path class="Fingering" d="M413.725,68.0736 C413.61,68.0736 413.417,68.1309 413.147,68.2455 L413.147,68.1361 L414.584,67.4017 L414.647,67.4174 L414.647,72.2142 C414.647,72.4226 414.709,72.558 414.834,72.6205 C414.938,72.6622 415.131,72.683 415.412,72.683 L415.412,72.808 L413.194,72.808 L413.194,72.683 C413.548,72.6726 413.772,72.6101 413.865,72.4955 C413.928,72.4017 413.959,72.2559 413.959,72.058 L413.959,68.4486 C413.949,68.1986 413.871,68.0736 413.725,68.0736"/>
<path class="Fingering" d="M324.951,67.9494 C324.357,67.9494 323.894,67.6421 323.561,67.0275 C323.279,66.5275 323.139,65.9025 323.139,65.1525 C323.139,64.2567 323.347,63.5535 323.764,63.0431 C324.097,62.6473 324.503,62.4442 324.982,62.4337 C325.545,62.4337 325.988,62.7202 326.311,63.2931 C326.613,63.8035 326.764,64.439 326.764,65.1994 C326.764,66.1681 326.54,66.9077 326.092,67.4181 C325.769,67.7723 325.389,67.9494 324.951,67.9494 M324.951,62.6369 C324.305,62.6369 323.956,63.4077 323.904,64.9494 C323.904,65.0431 323.904,65.1369 323.904,65.2306 C323.915,66.8973 324.264,67.7358 324.951,67.7462 C325.639,67.7358 325.982,66.8921 325.982,65.215 C325.982,63.6942 325.712,62.8452 325.17,62.6681 C325.097,62.6473 325.024,62.6369 324.951,62.6369"/>
<path class="Fingering" d="M234.108,62.247 C234.233,62.247 234.415,62.3147 234.655,62.4501 C234.905,62.6064 235.118,62.6845 235.295,62.6845 C235.66,62.6845 235.946,62.523 236.155,62.2001 C236.28,61.9918 236.342,61.7574 236.342,61.497 C236.342,60.7366 235.889,60.3199 234.983,60.247 C234.889,60.2366 234.79,60.2314 234.686,60.2314 L234.686,60.122 C235.29,59.9241 235.686,59.6689 235.873,59.3564 C235.967,59.1897 236.014,59.0074 236.014,58.8095 C236.014,58.4553 235.868,58.2001 235.577,58.0439 C235.441,57.9814 235.295,57.9501 235.139,57.9501 C234.691,57.9501 234.321,58.1845 234.03,58.6532 C233.998,58.6949 233.972,58.7418 233.952,58.7939 L233.827,58.7626 C234.077,58.0855 234.441,57.6741 234.92,57.5282 C235.066,57.4866 235.228,57.4657 235.405,57.4657 C235.884,57.4657 236.238,57.6324 236.467,57.9657 C236.592,58.1428 236.655,58.3407 236.655,58.5595 C236.655,58.8824 236.504,59.1741 236.202,59.4345 C236.108,59.5074 236.009,59.5855 235.905,59.6689 C236.384,59.8772 236.691,60.1637 236.827,60.5282 C236.889,60.7053 236.92,60.9032 236.92,61.122 C236.92,61.7574 236.655,62.2522 236.123,62.6064 C235.728,62.8564 235.259,62.9814 234.717,62.9814 C234.228,62.9814 233.936,62.872 233.842,62.6532 C233.821,62.6116 233.811,62.5699 233.811,62.5282 C233.811,62.372 233.889,62.2835 234.045,62.2626 C234.066,62.2522 234.087,62.247 234.108,62.247"/>
<path class="Fingering" d="M145.983,67.9494 C145.389,67.9494 144.926,67.6421 144.592,67.0275 C144.311,66.5275 144.171,65.9025 144.171,65.1525 C144.171,64.2567 144.379,63.5535 144.796,63.0431 C145.129,62.6473 145.535,62.4442 146.014,62.4337 C146.577,62.4337 147.019,62.7202 147.342,63.2931 C147.644,63.8035 147.796,64.439 147.796,65.1994 C147.796,66.1681 147.572,66.9077 147.124,67.4181 C146.801,67.7723 146.421,67.9494 145.983,67.9494 M145.983,62.6369 C145.337,62.6369 144.988,63.4077 144.936,64.9494 C144.936,65.0431 144.936,65.1369 144.936,65.2306 C144.947,66.8973 145.296,67.7358 145.983,67.7462 C146.671,67.7358 147.014,66.8921 147.014,65.215 C147.014,63.6942 146.743,62.8452 146.202,62.6681 C146.129,62.6473 146.056,62.6369 145.983,62.6369"/>
<path class="Fingering" d="M55.9677,68.0736 C55.8531,68.0736 55.6604,68.1309 55.3895,68.2455 L55.3895,68.1361 L56.827,67.4017 L56.8895,67.4174 L56.8895,72.2142 C56.8895,72.4226 56.952,72.558 57.077,72.6205 C57.1812,72.6622 57.3739,72.683 57.6552,72.683 L57.6552,72.808 L55.4364,72.808 L55.4364,72.683 C55.7906,72.6726 56.0145,72.6101 56.1083,72.4955 C56.1708,72.4017 56.202,72.2559 56.202,72.058 L56.202,68.4486 C56.1916,68.1986 56.1135,68.0736 55.9677,68.0736"/>
<path class="Tempo" d="M54.7395,40.4371 C54.5364,40.2809 54.2864,40.1871 53.9739,40.1871 C52.7864,40.1871 51.8332,41.0621 51.8332,41.9996 C51.8332,42.5621 52.2864,42.9059 52.8801,42.9059 C53.8332,42.9059 55.0207,41.9996 55.0207,41.0934 L55.0207,34.9527 L54.7395,34.9527 L54.7395,40.4371 "/>
<path class="Tempo" d="M65.3801,39.0152 L58.7707,39.0152 L58.7707,37.859 L65.3801,37.859 L65.3801,39.0152 M65.3801,41.9371 L58.7707,41.9371 L58.7707,40.7965 L65.3801,40.7965 L65.3801,41.9371 M74.6614,34.734 L74.6614,35.0465 C73.2655,35.3382 72.3072,36.0621 71.7864,37.2184 C71.6614,37.4996 71.5572,37.8069 71.4739,38.1402 C71.7864,38.0152 72.1197,37.9527 72.4739,37.9527 C73.3489,37.9527 73.9843,38.2913 74.3801,38.9684 C74.6093,39.3538 74.7239,39.8069 74.7239,40.3277 C74.7239,41.2652 74.4114,42.0048 73.7864,42.5465 C73.3176,42.9423 72.7707,43.1402 72.1457,43.1402 C71.1666,43.1402 70.4218,42.7288 69.9114,41.9059 C69.5364,41.3017 69.3489,40.5673 69.3489,39.7027 C69.3489,38.1194 69.9947,36.8642 71.2864,35.9371 C71.328,35.9059 71.3697,35.8746 71.4114,35.8434 C72.0676,35.3955 72.7968,35.083 73.5989,34.9059 C73.901,34.8434 74.2551,34.7861 74.6614,34.734 M71.2239,40.0777 C71.2239,41.609 71.4114,42.4892 71.7864,42.7184 C71.901,42.7809 72.026,42.8121 72.1614,42.8121 C72.4739,42.8121 72.677,42.6767 72.7707,42.4059 C72.8541,42.1559 72.8957,41.7027 72.8957,41.0465 C72.8957,39.7757 72.7395,38.9892 72.427,38.6871 C72.2707,38.5413 72.0676,38.4684 71.8176,38.4684 C71.5676,38.4684 71.4062,38.5517 71.3332,38.7184 C71.2603,38.8955 71.2239,39.3486 71.2239,40.0777 M75.302,38.9059 C75.302,37.5934 75.6145,36.5309 76.2395,35.7184 C76.7499,35.0725 77.3437,34.7444 78.0207,34.734 C78.802,34.734 79.4478,35.1402 79.9582,35.9527 C80.4687,36.7652 80.7239,37.76 80.7239,38.9371 C80.7239,40.3121 80.4062,41.4059 79.7707,42.2184 C79.2707,42.8225 78.6926,43.1298 78.0364,43.1402 C77.203,43.1402 76.5312,42.7132 76.0207,41.859 C75.5416,41.0673 75.302,40.083 75.302,38.9059 M78.0364,42.7965 C78.3905,42.7965 78.6249,42.4736 78.7395,41.8277 C78.802,41.4423 78.8332,40.9423 78.8332,40.3277 L78.8332,37.5777 C78.8332,36.1402 78.6405,35.3225 78.2551,35.1246 C78.1822,35.083 78.0989,35.0621 78.0051,35.0621 C77.6405,35.0621 77.401,35.3955 77.2864,36.0621 C77.2343,36.4371 77.2082,36.9423 77.2082,37.5777 L77.2082,40.3277 C77.2082,41.6819 77.3749,42.4736 77.7082,42.7027 C77.802,42.7652 77.9114,42.7965 78.0364,42.7965"/>
<path class="StaffText" d="M64.3142,25.2057 C64.7622,25.2057 65.2622,25.3203 65.8142,25.5495 C66.0538,25.6432 66.2257,25.6901 66.3299,25.6901 C66.4757,25.6901 66.6059,25.5807 66.7205,25.362 C66.7309,25.3203 66.7465,25.2787 66.7674,25.237 L67.033,25.237 L67.033,27.5807 L66.783,27.5807 C66.5122,26.9766 66.2309,26.5339 65.9392,26.2526 C65.8767,26.1901 65.8194,26.138 65.7674,26.0964 C65.3403,25.7214 64.8976,25.5339 64.4392,25.5339 C63.4392,25.5339 62.8455,26.2526 62.658,27.6901 C62.6267,28.013 62.6111,28.362 62.6111,28.737 C62.6111,29.9245 62.8247,30.7943 63.2517,31.3464 C63.5851,31.763 64.0434,31.9714 64.6267,31.9714 C65.1892,31.9714 65.5069,31.7943 65.5799,31.4401 C65.5903,31.3776 65.5955,31.3099 65.5955,31.237 L65.5955,30.1901 C65.5955,29.8985 65.5226,29.711 65.3767,29.6276 C65.2309,29.5547 64.9653,29.5078 64.5799,29.487 L64.5799,29.237 L68.0174,29.237 L68.0174,29.487 C67.6111,29.5287 67.3611,29.6172 67.2674,29.7526 C67.1944,29.8672 67.158,30.086 67.158,30.4089 L67.158,31.6745 C66.5642,32.0287 65.7778,32.237 64.7986,32.2995 C64.6632,32.2995 64.5278,32.2995 64.3924,32.2995 C63.2778,32.2995 62.3872,31.9401 61.7205,31.2214 C61.1267,30.5755 60.8299,29.7682 60.8299,28.7995 C60.8299,27.7578 61.1736,26.8932 61.8611,26.2057 C62.5278,25.5391 63.3455,25.2057 64.3142,25.2057 M72.0799,28.8307 C71.8611,28.8307 71.6476,28.711 71.4392,28.4714 C71.3247,28.3255 71.2413,28.2474 71.1892,28.237 C70.9705,28.237 70.8038,28.388 70.6892,28.6901 C70.6163,28.8464 70.5799,29.013 70.5799,29.1901 L70.5799,31.0807 C70.5799,31.4453 70.6528,31.6693 70.7986,31.7526 C70.8924,31.8151 71.0642,31.8568 71.3142,31.8776 L71.3142,32.112 L68.6736,32.112 L68.6736,31.8776 C68.9444,31.8255 69.1059,31.7318 69.158,31.5964 C69.1788,31.5235 69.1892,31.4141 69.1892,31.2682 L69.1892,28.3307 C69.1892,28.0703 69.1163,27.9037 68.9705,27.8307 C68.8976,27.7891 68.7986,27.7578 68.6736,27.737 L68.6736,27.5026 L70.5486,27.5026 L70.5486,28.3307 C70.9236,27.7787 71.2934,27.4714 71.658,27.4089 C71.7413,27.388 71.8194,27.3776 71.8924,27.3776 C72.2361,27.3776 72.4809,27.5182 72.6267,27.7995 C72.6788,27.9141 72.7049,28.0339 72.7049,28.1589 C72.7049,28.4714 72.5799,28.6797 72.3299,28.7839 C72.2465,28.8151 72.1632,28.8307 72.0799,28.8307 M73.9549,28.0807 C73.9549,28.112 74.0069,28.2057 74.1111,28.362 C74.2049,28.5078 74.2517,28.6328 74.2517,28.737 C74.2517,28.9974 74.1215,29.1745 73.8611,29.2682 C73.7674,29.2995 73.6736,29.3151 73.5799,29.3151 C73.2153,29.3151 73.0017,29.1537 72.9392,28.8307 C72.9288,28.7682 72.9236,28.711 72.9236,28.6589 C72.9236,28.1901 73.1788,27.8412 73.6892,27.612 C74.0122,27.4557 74.3872,27.3776 74.8142,27.3776 C75.6892,27.3776 76.2882,27.6172 76.6111,28.0964 C76.7361,28.2943 76.7986,28.5182 76.7986,28.7682 L76.7986,31.3464 C76.809,31.5026 76.8767,31.586 77.0017,31.5964 C77.0538,31.586 77.0903,31.5703 77.1111,31.5495 L77.2205,31.4557 L77.3611,31.6589 C76.9653,32.0339 76.5955,32.2318 76.2517,32.2526 C75.8767,32.2526 75.6319,32.112 75.5174,31.8307 C75.4861,31.737 75.4549,31.638 75.4236,31.5339 C74.8819,32.0026 74.3559,32.2422 73.8455,32.2526 C73.408,32.2526 73.0903,32.086 72.8924,31.7526 C72.7882,31.586 72.7361,31.4037 72.7361,31.2057 C72.7361,30.6224 73.184,30.1485 74.0799,29.7839 C74.3194,29.6797 74.7674,29.5287 75.4236,29.3307 L75.4236,28.5964 C75.4236,28.0651 75.2049,27.7735 74.7674,27.7214 C74.7049,27.7214 74.6424,27.7214 74.5799,27.7214 C74.2882,27.7214 74.0903,27.8047 73.9861,27.9714 C73.9653,28.0026 73.9549,28.0391 73.9549,28.0807 M75.408,31.0964 L75.408,29.6589 C74.6059,29.8776 74.1997,30.2787 74.1892,30.862 C74.1892,31.1953 74.2986,31.4037 74.5174,31.487 C74.5799,31.5078 74.6424,31.5182 74.7049,31.5182 C74.934,31.5182 75.1684,31.3776 75.408,31.0964 M80.8767,32.237 L80.8767,31.5964 C80.5226,31.9714 80.1788,32.1849 79.8455,32.237 C79.7517,32.2474 79.6528,32.2526 79.5486,32.2526 C78.9549,32.2526 78.4861,31.9766 78.1424,31.4245 C77.8715,30.9974 77.7361,30.4922 77.7361,29.9089 C77.7361,29.0547 77.9809,28.3828 78.4705,27.8932 C78.8038,27.5495 79.1997,27.3776 79.658,27.3776 C80.0122,27.3776 80.3351,27.513 80.6267,27.7839 C80.7101,27.8568 80.783,27.9245 80.8455,27.987 L80.8455,26.1745 C80.8455,25.9245 80.7882,25.7682 80.6736,25.7057 C80.5694,25.6537 80.3715,25.6172 80.0799,25.5964 L80.0799,25.362 L82.2361,25.362 L82.2361,31.112 C82.2361,31.3932 82.3194,31.5651 82.4861,31.6276 C82.5694,31.6589 82.684,31.6797 82.8299,31.6901 L82.8299,31.9245 L82.2049,32.0026 C81.6528,32.0755 81.2101,32.1537 80.8767,32.237 M80.0017,31.7057 C80.2934,31.7057 80.5434,31.5391 80.7517,31.2057 C80.8038,31.112 80.8351,31.0443 80.8455,31.0026 L80.8455,28.5495 C80.7205,28.2162 80.5122,28.0182 80.2205,27.9557 C80.1684,27.9453 80.1163,27.9401 80.0642,27.9401 C79.5538,27.9401 79.2726,28.4453 79.2205,29.4557 C79.2205,29.5703 79.2205,29.6953 79.2205,29.8307 C79.2205,31.0703 79.4809,31.6953 80.0017,31.7057 M85.1736,29.6589 C85.2257,30.6797 85.4913,31.2787 85.9705,31.4557 C86.0955,31.4974 86.2257,31.5182 86.3611,31.5182 C86.7257,31.5182 87.059,31.3516 87.3611,31.0182 C87.4132,30.9662 87.4601,30.9141 87.5017,30.862 L87.7361,31.0026 C87.3194,31.6068 86.908,31.987 86.5017,32.1432 C86.2934,32.2162 86.059,32.2526 85.7986,32.2526 C85.0486,32.2526 84.4861,31.9453 84.1111,31.3307 C83.8611,30.9141 83.7361,30.4141 83.7361,29.8307 C83.7361,28.9349 84.0069,28.263 84.5486,27.8151 C84.9132,27.5235 85.3403,27.3776 85.8299,27.3776 C86.934,27.3776 87.5538,28.0964 87.6892,29.5339 C87.6892,29.5755 87.6892,29.6172 87.6892,29.6589 L85.1736,29.6589 M86.4705,29.1432 C86.4497,28.5182 86.3819,28.1224 86.2674,27.9557 C86.1736,27.7995 86.0278,27.7214 85.8299,27.7214 C85.5382,27.7214 85.3403,27.8932 85.2361,28.237 C85.1736,28.4766 85.1372,28.8307 85.1267,29.2995 L86.4705,29.2995 L86.4705,29.1432 M90.7205,28.7214 C90.7205,27.6276 90.9809,26.737 91.5017,26.0495 C91.9288,25.5182 92.4236,25.2474 92.9861,25.237 C93.6424,25.237 94.184,25.5755 94.6111,26.2526 C95.0278,26.9297 95.2361,27.7578 95.2361,28.737 C95.2361,29.8828 94.9705,30.7943 94.4392,31.4714 C94.033,31.9818 93.5538,32.237 93.0017,32.237 C92.3038,32.237 91.7413,31.8828 91.3142,31.1745 C90.9184,30.5182 90.7205,29.7005 90.7205,28.7214 M93.0017,31.9557 C93.2934,31.9557 93.4861,31.6849 93.5799,31.1432 C93.6319,30.8203 93.658,30.4037 93.658,29.8932 L93.658,27.612 C93.658,26.4037 93.5017,25.7214 93.1892,25.5651 C93.1163,25.5339 93.0434,25.5182 92.9705,25.5182 C92.6684,25.5182 92.4705,25.7943 92.3767,26.3464 C92.3247,26.6589 92.2986,27.0807 92.2986,27.612 L92.2986,29.8932 C92.2986,31.0287 92.4392,31.6901 92.7205,31.8776 C92.8038,31.9297 92.8976,31.9557 93.0017,31.9557 M97.1424,30.5495 C97.4653,30.5495 97.7101,30.6901 97.8767,30.9714 C97.9601,31.1172 98.0017,31.263 98.0017,31.4089 C98.0017,31.7214 97.8611,31.961 97.5799,32.1276 C97.434,32.2005 97.2882,32.237 97.1424,32.237 C96.809,32.237 96.5642,32.0964 96.408,31.8151 C96.3351,31.6797 96.2986,31.5391 96.2986,31.3932 C96.2986,31.0912 96.434,30.8568 96.7049,30.6901 C96.8403,30.5964 96.9861,30.5495 97.1424,30.5495 M97.1424,27.3932 C97.4653,27.3932 97.7101,27.5287 97.8767,27.7995 C97.9601,27.9453 98.0017,28.0912 98.0017,28.237 C98.0017,28.5599 97.8611,28.8047 97.5799,28.9714 C97.4444,29.0443 97.2986,29.0807 97.1424,29.0807 C96.809,29.0807 96.5642,28.9349 96.408,28.6432 C96.3351,28.5078 96.2986,28.3672 96.2986,28.2214 C96.2986,27.9193 96.434,27.6849 96.7049,27.5182 C96.8403,27.4349 96.9861,27.3932 97.1424,27.3932"/>
<path class="StaffText" d="M101.83,28.8776 C101.83,27.7839 102.189,26.9037 102.908,26.237 C103.533,25.6641 104.293,25.3776 105.189,25.3776 C105.637,25.3776 106.122,25.4557 106.642,25.612 C106.819,25.6641 106.95,25.6901 107.033,25.6901 C107.241,25.6797 107.382,25.5755 107.455,25.3776 L107.658,25.3776 L107.752,27.612 L107.517,27.612 C107.153,26.3828 106.439,25.763 105.377,25.7526 C104.533,25.7526 103.892,26.112 103.455,26.8307 C103.153,27.3516 103.002,27.987 103.002,28.737 C103.002,30.2162 103.476,31.1693 104.424,31.5964 C104.747,31.7422 105.095,31.8151 105.47,31.8151 C106.189,31.8151 106.861,31.5443 107.486,31.0026 C107.559,30.9401 107.632,30.8724 107.705,30.7995 L107.877,30.987 C107.345,31.6953 106.601,32.1068 105.642,32.2214 C105.476,32.2422 105.314,32.2526 105.158,32.2526 C104.085,32.2526 103.236,31.8932 102.611,31.1745 C102.09,30.5599 101.83,29.7943 101.83,28.8776 M111.611,28.1589 L111.611,27.987 C112.09,27.8412 112.559,27.6849 113.017,27.5182 L113.08,27.5339 L113.08,28.2995 C113.653,27.862 114.064,27.612 114.314,27.5495 C114.418,27.5287 114.523,27.5182 114.627,27.5182 C115.158,27.5287 115.512,27.8151 115.689,28.3776 C116.22,27.8047 116.767,27.5182 117.33,27.5182 C118.09,27.5287 118.476,28.1276 118.486,29.3151 L118.486,31.362 C118.497,31.7266 118.637,31.9193 118.908,31.9401 L119.174,31.9557 L119.174,32.112 L116.986,32.112 L116.986,31.9557 C117.309,31.9245 117.502,31.8516 117.564,31.737 C117.616,31.6432 117.642,31.4818 117.642,31.2526 L117.642,29.1432 C117.642,28.5912 117.533,28.2578 117.314,28.1432 C117.21,28.0807 117.069,28.0495 116.892,28.0495 C116.444,28.0599 116.08,28.263 115.799,28.6589 L115.799,31.1745 C115.799,31.5495 115.887,31.7839 116.064,31.8776 C116.168,31.9297 116.319,31.9557 116.517,31.9557 L116.517,32.112 L114.283,32.112 L114.283,31.9557 C114.606,31.9349 114.804,31.862 114.877,31.737 C114.939,31.6432 114.97,31.4818 114.97,31.2526 L114.97,29.0964 C114.97,28.3985 114.747,28.0495 114.299,28.0495 C113.934,28.0495 113.611,28.1693 113.33,28.4089 C113.257,28.4818 113.189,28.5599 113.127,28.6432 L113.127,31.4401 C113.127,31.6901 113.215,31.8464 113.392,31.9089 C113.486,31.9401 113.622,31.9557 113.799,31.9557 L113.799,32.112 L111.58,32.112 L111.58,31.9557 C111.934,31.9557 112.148,31.8724 112.22,31.7057 C112.262,31.6016 112.283,31.4557 112.283,31.2682 L112.283,28.7526 C112.283,28.3776 112.205,28.1693 112.049,28.1276 C112.017,28.1172 111.981,28.112 111.939,28.112 C111.835,28.112 111.726,28.1276 111.611,28.1589 M119.736,31.1432 C119.736,30.6328 120.054,30.2005 120.689,29.8464 C120.877,29.7526 121.377,29.5391 122.189,29.2057 C122.21,29.2057 122.226,29.2005 122.236,29.1901 L122.236,28.5807 C122.184,28.0599 121.929,27.7839 121.47,27.7526 C121.158,27.7526 120.939,27.8516 120.814,28.0495 C120.773,28.1224 120.752,28.1849 120.752,28.237 C120.752,28.2995 120.762,28.3828 120.783,28.487 C120.793,28.5599 120.799,28.612 120.799,28.6432 C120.799,28.8203 120.71,28.9453 120.533,29.0182 C120.47,29.0495 120.413,29.0651 120.361,29.0651 C120.174,29.0651 120.043,28.9766 119.97,28.7995 C119.939,28.7474 119.924,28.6901 119.924,28.6276 C119.924,28.263 120.142,27.9662 120.58,27.737 C120.882,27.5912 121.226,27.5182 121.611,27.5182 C122.33,27.5182 122.773,27.7735 122.939,28.2839 C123.012,28.5026 123.049,28.7787 123.049,29.112 L123.049,31.0495 C123.049,31.3828 123.111,31.5703 123.236,31.612 C123.278,31.6224 123.314,31.6276 123.345,31.6276 C123.491,31.6172 123.637,31.5547 123.783,31.4401 L123.783,31.6901 C123.512,32.0026 123.262,32.1745 123.033,32.2057 C122.981,32.2057 122.929,32.2057 122.877,32.2057 C122.564,32.2057 122.366,32.0495 122.283,31.737 C122.262,31.6537 122.252,31.5599 122.252,31.4557 C121.658,31.9349 121.168,32.1849 120.783,32.2057 C120.356,32.2057 120.049,32.0339 119.861,31.6901 C119.778,31.5235 119.736,31.3412 119.736,31.1432 M122.236,30.862 L122.236,29.4245 C121.413,29.7266 120.908,30.0339 120.72,30.3464 C120.648,30.4922 120.611,30.6485 120.611,30.8151 C120.611,31.211 120.757,31.461 121.049,31.5651 C121.122,31.5964 121.189,31.612 121.252,31.612 C121.47,31.6016 121.71,31.5235 121.97,31.3776 C122.116,31.2943 122.2,31.1901 122.22,31.0651 C122.231,31.0026 122.236,30.9349 122.236,30.862 M124.955,28.1901 C124.955,28.1901 124.804,28.2005 124.502,28.2214 L124.502,28.0495 C125.043,27.8828 125.564,27.7057 126.064,27.5182 L126.111,27.5495 L126.111,32.112 C126.111,33.3412 125.7,34.0495 124.877,34.237 C124.731,34.2682 124.58,34.2839 124.424,34.2839 C123.986,34.2839 123.694,34.1745 123.549,33.9557 C123.507,33.8828 123.486,33.8099 123.486,33.737 C123.486,33.5495 123.575,33.4297 123.752,33.3776 C123.804,33.3568 123.851,33.3464 123.892,33.3464 C124.038,33.3464 124.194,33.4505 124.361,33.6589 C124.538,33.8464 124.684,33.9453 124.799,33.9557 C125.028,33.9557 125.168,33.7943 125.22,33.4714 C125.252,33.2735 125.267,32.9714 125.267,32.5651 L125.267,28.7682 C125.267,28.4141 125.189,28.2214 125.033,28.1901 C125.002,28.1901 124.976,28.1901 124.955,28.1901 M125.611,25.2839 C125.83,25.2839 125.986,25.3828 126.08,25.5807 C126.111,25.6537 126.127,25.7266 126.127,25.7995 C126.127,26.0182 126.017,26.1745 125.799,26.2682 C125.736,26.2891 125.674,26.2995 125.611,26.2995 C125.382,26.2995 125.226,26.2005 125.142,26.0026 C125.122,25.9297 125.111,25.862 125.111,25.7995 C125.111,25.5807 125.205,25.4245 125.392,25.3307 C125.465,25.2995 125.538,25.2839 125.611,25.2839 M128.939,27.5182 C129.679,27.5182 130.262,27.7891 130.689,28.3307 C130.991,28.737 131.142,29.2162 131.142,29.7682 C131.142,30.5495 130.887,31.1745 130.377,31.6432 C129.96,32.0182 129.476,32.2057 128.924,32.2057 C128.215,32.2057 127.653,31.9349 127.236,31.3932 C126.903,30.9557 126.736,30.4401 126.736,29.8464 C126.736,29.0339 127.012,28.4089 127.564,27.9714 C127.95,27.6693 128.408,27.5182 128.939,27.5182 M127.642,29.362 C127.642,30.2682 127.83,30.961 128.205,31.4401 C128.444,31.7526 128.726,31.9089 129.049,31.9089 C129.569,31.9089 129.929,31.612 130.127,31.0182 C130.21,30.7578 130.252,30.461 130.252,30.1276 C130.252,29.2422 130.038,28.586 129.611,28.1589 C129.382,27.9297 129.116,27.8151 128.814,27.8151 C128.345,27.8151 128.007,28.0547 127.799,28.5339 C127.694,28.7735 127.642,29.0495 127.642,29.362 M134.502,28.487 C134.398,28.487 134.247,28.4037 134.049,28.237 C133.955,28.1537 133.882,28.112 133.83,28.112 C133.663,28.112 133.491,28.2422 133.314,28.5026 C133.2,28.6693 133.142,28.8151 133.142,28.9401 L133.142,31.2057 C133.142,31.5495 133.231,31.763 133.408,31.8464 C133.533,31.9089 133.726,31.9453 133.986,31.9557 L133.986,32.112 L131.58,32.112 L131.58,31.9557 C131.934,31.8932 132.148,31.8099 132.22,31.7057 C132.273,31.6224 132.299,31.4766 132.299,31.2682 L132.299,28.7526 C132.299,28.388 132.215,28.1901 132.049,28.1589 C132.017,28.1485 131.986,28.1432 131.955,28.1432 C131.84,28.1432 131.726,28.1589 131.611,28.1901 L131.611,28.0339 C132.142,27.8672 132.632,27.6953 133.08,27.5182 L133.142,27.5339 L133.142,28.4245 C133.486,27.9453 133.778,27.6589 134.017,27.5651 C134.122,27.5339 134.226,27.5182 134.33,27.5182 C134.642,27.5182 134.825,27.6485 134.877,27.9089 C134.877,27.9505 134.877,27.9974 134.877,28.0495 C134.845,28.3203 134.72,28.4662 134.502,28.487 M137.736,31.1432 C137.736,30.6328 138.054,30.2005 138.689,29.8464 C138.877,29.7526 139.377,29.5391 140.189,29.2057 C140.21,29.2057 140.226,29.2005 140.236,29.1901 L140.236,28.5807 C140.184,28.0599 139.929,27.7839 139.47,27.7526 C139.158,27.7526 138.939,27.8516 138.814,28.0495 C138.773,28.1224 138.752,28.1849 138.752,28.237 C138.752,28.2995 138.762,28.3828 138.783,28.487 C138.793,28.5599 138.799,28.612 138.799,28.6432 C138.799,28.8203 138.71,28.9453 138.533,29.0182 C138.47,29.0495 138.413,29.0651 138.361,29.0651 C138.174,29.0651 138.043,28.9766 137.97,28.7995 C137.939,28.7474 137.924,28.6901 137.924,28.6276 C137.924,28.263 138.142,27.9662 138.58,27.737 C138.882,27.5912 139.226,27.5182 139.611,27.5182 C140.33,27.5182 140.773,27.7735 140.939,28.2839 C141.012,28.5026 141.049,28.7787 141.049,29.112 L141.049,31.0495 C141.049,31.3828 141.111,31.5703 141.236,31.612 C141.278,31.6224 141.314,31.6276 141.345,31.6276 C141.491,31.6172 141.637,31.5547 141.783,31.4401 L141.783,31.6901 C141.512,32.0026 141.262,32.1745 141.033,32.2057 C140.981,32.2057 140.929,32.2057 140.877,32.2057 C140.564,32.2057 140.366,32.0495 140.283,31.737 C140.262,31.6537 140.252,31.5599 140.252,31.4557 C139.658,31.9349 139.168,32.1849 138.783,32.2057 C138.356,32.2057 138.049,32.0339 137.861,31.6901 C137.778,31.5235 137.736,31.3412 137.736,31.1432 M140.236,30.862 L140.236,29.4245 C139.413,29.7266 138.908,30.0339 138.72,30.3464 C138.648,30.4922 138.611,30.6485 138.611,30.8151 C138.611,31.211 138.757,31.461 139.049,31.5651 C139.122,31.5964 139.189,31.612 139.252,31.612 C139.47,31.6016 139.71,31.5235 139.97,31.3776 C140.116,31.2943 140.2,31.1901 140.22,31.0651 C140.231,31.0026 140.236,30.9349 140.236,30.862 M144.502,28.487 C144.398,28.487 144.247,28.4037 144.049,28.237 C143.955,28.1537 143.882,28.112 143.83,28.112 C143.663,28.112 143.491,28.2422 143.314,28.5026 C143.2,28.6693 143.142,28.8151 143.142,28.9401 L143.142,31.2057 C143.142,31.5495 143.231,31.763 143.408,31.8464 C143.533,31.9089 143.726,31.9453 143.986,31.9557 L143.986,32.112 L141.58,32.112 L141.58,31.9557 C141.934,31.8932 142.148,31.8099 142.22,31.7057 C142.273,31.6224 142.299,31.4766 142.299,31.2682 L142.299,28.7526 C142.299,28.388 142.215,28.1901 142.049,28.1589 C142.017,28.1485 141.986,28.1432 141.955,28.1432 C141.84,28.1432 141.726,28.1589 141.611,28.1901 L141.611,28.0339 C142.142,27.8672 142.632,27.6953 143.08,27.5182 L143.142,27.5339 L143.142,28.4245 C143.486,27.9453 143.778,27.6589 144.017,27.5651 C144.122,27.5339 144.226,27.5182 144.33,27.5182 C144.642,27.5182 144.825,27.6485 144.877,27.9089 C144.877,27.9505 144.877,27.9974 144.877,28.0495 C144.845,28.3203 144.72,28.4662 144.502,28.487 M144.627,28.1901 L144.627,28.0182 C145.054,27.8932 145.533,27.7266 146.064,27.5182 L146.127,27.5339 L146.127,28.2995 C146.554,27.7787 147.033,27.5182 147.564,27.5182 C148.127,27.5182 148.569,27.7787 148.892,28.2995 C149.122,28.6849 149.236,29.1328 149.236,29.6432 C149.236,30.4557 148.986,31.1172 148.486,31.6276 C148.101,32.013 147.653,32.2057 147.142,32.2057 C146.809,32.2057 146.517,32.1068 146.267,31.9089 C146.215,31.8776 146.168,31.8412 146.127,31.7995 L146.127,33.362 C146.127,33.7057 146.194,33.9141 146.33,33.987 C146.455,34.0599 146.679,34.0964 147.002,34.0964 L147.002,34.2839 L144.58,34.2839 L144.58,34.112 C144.934,34.0807 145.148,33.9974 145.22,33.862 C145.262,33.7682 145.283,33.6224 145.283,33.4245 L145.283,28.737 C145.283,28.4453 145.231,28.2735 145.127,28.2214 C145.064,28.1901 144.981,28.1745 144.877,28.1745 C144.762,28.1745 144.679,28.1797 144.627,28.1901 M146.127,28.7839 L146.127,31.2526 C146.127,31.4297 146.273,31.5964 146.564,31.7526 C146.773,31.8568 146.97,31.9089 147.158,31.9089 C147.616,31.9089 147.955,31.6537 148.174,31.1432 C148.309,30.8203 148.377,30.4557 148.377,30.0495 C148.377,29.2266 148.168,28.6537 147.752,28.3307 C147.575,28.1849 147.372,28.112 147.142,28.112 C146.84,28.112 146.569,28.2214 146.33,28.4401 C146.205,28.5547 146.137,28.6693 146.127,28.7839 M150.455,29.3464 C150.497,30.5235 150.882,31.2162 151.611,31.4245 C151.736,31.4662 151.872,31.487 152.017,31.487 C152.507,31.487 152.924,31.2787 153.267,30.862 C153.361,30.7474 153.46,30.612 153.564,30.4557 L153.72,30.5182 C153.356,31.4766 152.783,32.0287 152.002,32.1745 C151.866,32.1953 151.736,32.2057 151.611,32.2057 C150.872,32.2057 150.34,31.8932 150.017,31.2682 C149.83,30.8932 149.736,30.461 149.736,29.9714 C149.736,29.086 150.012,28.4141 150.564,27.9557 C150.929,27.6641 151.351,27.5182 151.83,27.5182 C152.747,27.5182 153.299,28.0391 153.486,29.0807 C153.507,29.1745 153.523,29.263 153.533,29.3464 L150.455,29.3464 M150.47,29.0495 L152.517,29.0495 C152.424,28.4766 152.257,28.1224 152.017,27.987 C151.892,27.9245 151.731,27.8932 151.533,27.8932 C150.939,27.8932 150.585,28.2682 150.47,29.0182 C150.47,29.0287 150.47,29.0391 150.47,29.0495 M154.08,31.5339 C154.08,31.3985 154.158,31.2526 154.314,31.0964 C154.408,31.0026 154.627,30.7995 154.97,30.487 C154.47,30.2266 154.174,29.8985 154.08,29.5026 C154.059,29.388 154.049,29.2682 154.049,29.1432 C154.049,28.612 154.262,28.1849 154.689,27.862 C154.991,27.6328 155.335,27.5182 155.72,27.5182 C155.97,27.5182 156.278,27.586 156.642,27.7214 C156.882,27.8047 157.095,27.8464 157.283,27.8464 L158.049,27.8464 L158.049,28.2214 L157.22,28.2214 C157.345,28.513 157.408,28.7943 157.408,29.0651 C157.408,29.638 157.184,30.0703 156.736,30.362 C156.465,30.5391 156.174,30.6276 155.861,30.6276 C155.767,30.6276 155.575,30.6068 155.283,30.5651 C155.085,30.6276 154.918,30.7682 154.783,30.987 C154.72,31.0703 154.689,31.1432 154.689,31.2057 C154.689,31.362 154.939,31.4505 155.439,31.4714 C155.45,31.4714 155.46,31.4714 155.47,31.4714 L156.752,31.5339 C157.304,31.5443 157.674,31.7474 157.861,32.1432 C157.934,32.2787 157.97,32.4297 157.97,32.5964 C157.97,33.0964 157.658,33.5235 157.033,33.8776 C156.523,34.1485 155.965,34.2839 155.361,34.2839 C154.736,34.2839 154.252,34.1328 153.908,33.8307 C153.731,33.6641 153.642,33.487 153.642,33.2995 C153.642,33.0078 153.856,32.6797 154.283,32.3151 C154.387,32.2318 154.497,32.1432 154.611,32.0495 C154.309,31.9141 154.137,31.7787 154.095,31.6432 C154.085,31.612 154.08,31.5755 154.08,31.5339 M154.83,32.0807 C154.528,32.4557 154.366,32.7162 154.345,32.862 C154.335,32.9037 154.33,32.9453 154.33,32.987 C154.33,33.2891 154.554,33.5078 155.002,33.6432 C155.231,33.7162 155.497,33.7526 155.799,33.7526 C156.632,33.7526 157.2,33.5703 157.502,33.2057 C157.627,33.0495 157.689,32.888 157.689,32.7214 C157.689,32.4714 157.523,32.3151 157.189,32.2526 C157.002,32.2214 156.752,32.2057 156.439,32.2057 C155.773,32.2057 155.236,32.1641 154.83,32.0807 M156.642,29.4714 C156.642,29.0443 156.554,28.6641 156.377,28.3307 C156.179,27.9974 155.924,27.8255 155.611,27.8151 C155.236,27.8151 155.002,28.013 154.908,28.4089 C154.887,28.513 154.877,28.6276 154.877,28.7526 C154.877,29.5547 155.101,30.0651 155.549,30.2839 C155.663,30.3464 155.778,30.3776 155.892,30.3776 C156.257,30.3776 156.491,30.1953 156.595,29.8307 C156.627,29.7162 156.642,29.5964 156.642,29.4714 M159.08,31.5339 C159.08,31.3985 159.158,31.2526 159.314,31.0964 C159.408,31.0026 159.627,30.7995 159.97,30.487 C159.47,30.2266 159.174,29.8985 159.08,29.5026 C159.059,29.388 159.049,29.2682 159.049,29.1432 C159.049,28.612 159.262,28.1849 159.689,27.862 C159.991,27.6328 160.335,27.5182 160.72,27.5182 C160.97,27.5182 161.278,27.586 161.642,27.7214 C161.882,27.8047 162.095,27.8464 162.283,27.8464 L163.049,27.8464 L163.049,28.2214 L162.22,28.2214 C162.345,28.513 162.408,28.7943 162.408,29.0651 C162.408,29.638 162.184,30.0703 161.736,30.362 C161.465,30.5391 161.174,30.6276 160.861,30.6276 C160.767,30.6276 160.575,30.6068 160.283,30.5651 C160.085,30.6276 159.918,30.7682 159.783,30.987 C159.72,31.0703 159.689,31.1432 159.689,31.2057 C159.689,31.362 159.939,31.4505 160.439,31.4714 C160.45,31.4714 160.46,31.4714 160.47,31.4714 L161.752,31.5339 C162.304,31.5443 162.674,31.7474 162.861,32.1432 C162.934,32.2787 162.97,32.4297 162.97,32.5964 C162.97,33.0964 162.658,33.5235 162.033,33.8776 C161.523,34.1485 160.965,34.2839 160.361,34.2839 C159.736,34.2839 159.252,34.1328 158.908,33.8307 C158.731,33.6641 158.642,33.487 158.642,33.2995 C158.642,33.0078 158.856,32.6797 159.283,32.3151 C159.387,32.2318 159.497,32.1432 159.611,32.0495 C159.309,31.9141 159.137,31.7787 159.095,31.6432 C159.085,31.612 159.08,31.5755 159.08,31.5339 M159.83,32.0807 C159.528,32.4557 159.366,32.7162 159.345,32.862 C159.335,32.9037 159.33,32.9453 159.33,32.987 C159.33,33.2891 159.554,33.5078 160.002,33.6432 C160.231,33.7162 160.497,33.7526 160.799,33.7526 C161.632,33.7526 162.2,33.5703 162.502,33.2057 C162.627,33.0495 162.689,32.888 162.689,32.7214 C162.689,32.4714 162.523,32.3151 162.189,32.2526 C162.002,32.2214 161.752,32.2057 161.439,32.2057 C160.773,32.2057 160.236,32.1641 159.83,32.0807 M161.642,29.4714 C161.642,29.0443 161.554,28.6641 161.377,28.3307 C161.179,27.9974 160.924,27.8255 160.611,27.8151 C160.236,27.8151 160.002,28.013 159.908,28.4089 C159.887,28.513 159.877,28.6276 159.877,28.7526 C159.877,29.5547 160.101,30.0651 160.549,30.2839 C160.663,30.3464 160.778,30.3776 160.892,30.3776 C161.257,30.3776 161.491,30.1953 161.595,29.8307 C161.627,29.7162 161.642,29.5964 161.642,29.4714 M164.111,28.1901 C163.955,28.1901 163.814,28.2005 163.689,28.2214 L163.689,28.0651 C164.158,27.9297 164.674,27.7474 165.236,27.5182 L165.267,27.5495 L165.267,31.0964 C165.267,31.4818 165.325,31.7214 165.439,31.8151 C165.533,31.888 165.726,31.9349 166.017,31.9557 L166.017,32.112 L163.642,32.112 L163.642,31.9557 C164.007,31.9349 164.236,31.8672 164.33,31.7526 C164.403,31.638 164.439,31.4193 164.439,31.0964 L164.439,28.7682 C164.439,28.4141 164.356,28.2214 164.189,28.1901 C164.158,28.1901 164.132,28.1901 164.111,28.1901 M164.767,25.2839 C164.986,25.2839 165.142,25.3828 165.236,25.5807 C165.267,25.6537 165.283,25.7266 165.283,25.7995 C165.283,26.0182 165.179,26.1745 164.97,26.2682 C164.898,26.2891 164.83,26.2995 164.767,26.2995 C164.549,26.2995 164.392,26.2005 164.299,26.0026 C164.278,25.9297 164.267,25.862 164.267,25.7995 C164.267,25.5807 164.361,25.4245 164.549,25.3307 C164.622,25.2995 164.694,25.2839 164.767,25.2839 M168.939,27.5182 C169.679,27.5182 170.262,27.7891 170.689,28.3307 C170.991,28.737 171.142,29.2162 171.142,29.7682 C171.142,30.5495 170.887,31.1745 170.377,31.6432 C169.96,32.0182 169.476,32.2057 168.924,32.2057 C168.215,32.2057 167.653,31.9349 167.236,31.3932 C166.903,30.9557 166.736,30.4401 166.736,29.8464 C166.736,29.0339 167.012,28.4089 167.564,27.9714 C167.95,27.6693 168.408,27.5182 168.939,27.5182 M167.642,29.362 C167.642,30.2682 167.83,30.961 168.205,31.4401 C168.444,31.7526 168.726,31.9089 169.049,31.9089 C169.569,31.9089 169.929,31.612 170.127,31.0182 C170.21,30.7578 170.252,30.461 170.252,30.1276 C170.252,29.2422 170.038,28.586 169.611,28.1589 C169.382,27.9297 169.116,27.8151 168.814,27.8151 C168.345,27.8151 168.007,28.0547 167.799,28.5339 C167.694,28.7735 167.642,29.0495 167.642,29.362 M177.08,27.612 L177.08,27.9089 L176.064,27.9089 L176.064,30.7682 C176.064,31.3099 176.2,31.6068 176.47,31.6589 C176.502,31.6693 176.538,31.6745 176.58,31.6745 C176.788,31.6641 176.991,31.5443 177.189,31.3151 L177.314,31.4401 C176.991,31.9505 176.59,32.2057 176.111,32.2057 C175.528,32.1953 175.231,31.7735 175.22,30.9401 L175.22,27.9089 L174.689,27.9089 C174.668,27.888 174.658,27.8672 174.658,27.8464 C174.658,27.8047 174.7,27.763 174.783,27.7214 C175.064,27.5339 175.398,27.1693 175.783,26.6276 C175.793,26.6172 175.799,26.612 175.799,26.612 C175.903,26.4557 175.97,26.362 176.002,26.3307 C176.043,26.3412 176.064,26.3828 176.064,26.4557 L176.064,27.612 L177.08,27.612 M179.939,27.5182 C180.679,27.5182 181.262,27.7891 181.689,28.3307 C181.991,28.737 182.142,29.2162 182.142,29.7682 C182.142,30.5495 181.887,31.1745 181.377,31.6432 C180.96,32.0182 180.476,32.2057 179.924,32.2057 C179.215,32.2057 178.653,31.9349 178.236,31.3932 C177.903,30.9557 177.736,30.4401 177.736,29.8464 C177.736,29.0339 178.012,28.4089 178.564,27.9714 C178.95,27.6693 179.408,27.5182 179.939,27.5182 M178.642,29.362 C178.642,30.2682 178.83,30.961 179.205,31.4401 C179.444,31.7526 179.726,31.9089 180.049,31.9089 C180.569,31.9089 180.929,31.612 181.127,31.0182 C181.21,30.7578 181.252,30.461 181.252,30.1276 C181.252,29.2422 181.038,28.586 180.611,28.1589 C180.382,27.9297 180.116,27.8151 179.814,27.8151 C179.345,27.8151 179.007,28.0547 178.799,28.5339 C178.694,28.7735 178.642,29.0495 178.642,29.362 M189.049,30.1432 C189.049,29.2266 188.554,28.5807 187.564,28.2057 C187.116,28.0391 186.679,27.9557 186.252,27.9557 C186.179,27.9453 186.137,27.9193 186.127,27.8776 C186.127,27.8464 186.132,27.8255 186.142,27.8151 L187.22,25.5026 L189.314,25.5026 C189.491,25.5026 189.632,25.4297 189.736,25.2839 C189.747,25.263 189.757,25.2474 189.767,25.237 L189.861,25.2995 L189.486,26.1432 C189.444,26.1953 189.366,26.2214 189.252,26.2214 L187.299,26.2214 L186.877,27.0807 C188.179,27.3203 189.028,27.7526 189.424,28.3776 C189.642,28.7214 189.752,29.1537 189.752,29.6745 C189.752,30.8099 189.278,31.5807 188.33,31.987 C187.924,32.1641 187.491,32.2526 187.033,32.2526 C186.387,32.2526 185.991,32.1068 185.845,31.8151 C185.814,31.763 185.799,31.7005 185.799,31.6276 C185.819,31.388 185.965,31.2682 186.236,31.2682 C186.424,31.2682 186.668,31.3724 186.97,31.5807 C187.262,31.7787 187.491,31.8776 187.658,31.8776 C188.127,31.8776 188.497,31.6589 188.767,31.2214 C188.955,30.8985 189.049,30.5391 189.049,30.1432 M193.08,27.612 L193.08,27.9089 L192.064,27.9089 L192.064,30.7682 C192.064,31.3099 192.2,31.6068 192.47,31.6589 C192.502,31.6693 192.538,31.6745 192.58,31.6745 C192.788,31.6641 192.991,31.5443 193.189,31.3151 L193.314,31.4401 C192.991,31.9505 192.59,32.2057 192.111,32.2057 C191.528,32.1953 191.231,31.7735 191.22,30.9401 L191.22,27.9089 L190.689,27.9089 C190.668,27.888 190.658,27.8672 190.658,27.8464 C190.658,27.8047 190.7,27.763 190.783,27.7214 C191.064,27.5339 191.398,27.1693 191.783,26.6276 C191.793,26.6172 191.799,26.612 191.799,26.612 C191.903,26.4557 191.97,26.362 192.002,26.3307 C192.043,26.3412 192.064,26.3828 192.064,26.4557 L192.064,27.612 L193.08,27.612 M195.064,28.6901 L195.064,31.0964 C195.064,31.4818 195.127,31.7214 195.252,31.8151 C195.345,31.888 195.512,31.9349 195.752,31.9557 L195.752,32.112 L193.58,32.112 L193.58,31.9557 C193.882,31.9245 194.069,31.8516 194.142,31.737 C194.194,31.6328 194.22,31.4193 194.22,31.0964 L194.22,26.3776 C194.22,26.1172 194.168,25.961 194.064,25.9089 C194.002,25.8776 193.903,25.862 193.767,25.862 C193.715,25.862 193.658,25.8672 193.595,25.8776 L193.595,25.7214 C194.075,25.5964 194.549,25.4505 195.017,25.2839 L195.064,25.3151 L195.064,28.3464 C195.45,27.8568 195.861,27.5807 196.299,27.5182 C196.372,27.5182 196.45,27.5182 196.533,27.5182 C197.345,27.5287 197.757,28.0547 197.767,29.0964 L197.767,31.0964 C197.767,31.4714 197.814,31.7057 197.908,31.7995 C197.981,31.8724 198.132,31.9245 198.361,31.9557 L198.361,32.112 L196.252,32.112 L196.252,31.9557 C196.564,31.9245 196.757,31.8412 196.83,31.7057 C196.892,31.5912 196.924,31.388 196.924,31.0964 L196.924,29.112 C196.913,28.4141 196.663,28.0599 196.174,28.0495 C195.851,28.0495 195.523,28.2162 195.189,28.5495 C195.148,28.6016 195.106,28.6485 195.064,28.6901"/>
</svg>
