<?xml version="1.0" encoding="UTF-8" standalone="no"?>
<svg width="595.44px" height="841.68px" viewBox="0 0 595.44 841.68"
 xmlns="http://www.w3.org/2000/svg" xmlns:xlink="http://www.w3.org/1999/xlink" version="1.2" baseProfile="tiny">
<title>Guitar Scales and Arpeggios</title>
<desc>Generated by MuseScore 2.1.0</desc>
<polyline class="StaffLines" fill="none" stroke="#000000" stroke-width="0.40" stroke-linejoin="bevel" points="28.08,62.856 567.36,62.856"/>
<polyline class="StaffLines" fill="none" stroke="#000000" stroke-width="0.40" stroke-linejoin="bevel" points="28.08,67.824 567.36,67.824"/>
<polyline class="StaffLines" fill="none" stroke="#000000" stroke-width="0.40" stroke-linejoin="bevel" points="28.08,72.792 567.36,72.792"/>
<polyline class="StaffLines" fill="none" stroke="#000000" stroke-width="0.40" stroke-linejoin="bevel" points="28.08,77.76 567.36,77.76"/>
<polyline class="StaffLines" fill="none" stroke="#000000" stroke-width="0.40" stroke-linejoin="bevel" points="28.08,82.728 567.36,82.728"/>
<polyline class="StaffLines" fill="none" stroke="#000000" stroke-width="0.40" stroke-linejoin="bevel" points="28.08,115.02 567.36,115.02"/>
<polyline class="StaffLines" fill="none" stroke="#000000" stroke-width="0.40" stroke-linejoin="bevel" points="28.08,122.472 567.36,122.472"/>
<polyline class="StaffLines" fill="none" stroke="#000000" stroke-width="0.40" stroke-linejoin="bevel" points="28.08,129.924 567.36,129.924"/>
<polyline class="StaffLines" fill="none" stroke="#000000" stroke-width="0.40" stroke-linejoin="bevel" points="28.08,137.376 567.36,137.376"/>
<polyline class="StaffLines" fill="none" stroke="#000000" stroke-width="0.40" stroke-linejoin="bevel" points="28.08,144.828 567.36,144.828"/>
<polyline class="StaffLines" fill="none" stroke="#000000" stroke-width="0.40" stroke-linejoin="bevel" points="28.08,152.28 567.36,152.28"/>
<polyline class="BarLine" fill="none" stroke="#000000" stroke-width="0.79" stroke-linejoin="bevel" points="28.4774,62.856 28.4774,152.28"/>
<polyline class="BarLine" fill="none" stroke="#000000" stroke-width="0.79" stroke-linejoin="bevel" points="562.491,115.02 562.491,152.28"/>
<polyline class="BarLine" fill="none" stroke="#000000" stroke-width="2.48" stroke-linejoin="bevel" points="566.118,115.02 566.118,152.28"/>
<polyline class="BarLine" fill="none" stroke="#000000" stroke-width="0.79" stroke-linejoin="bevel" points="562.491,62.856 562.491,82.728"/>
<polyline class="BarLine" fill="none" stroke="#000000" stroke-width="2.48" stroke-linejoin="bevel" points="566.118,62.856 566.118,82.728"/>
<polyline class="Stem" fill="none" stroke="#000000" stroke-width="0.65" stroke-linecap="round" stroke-linejoin="bevel" points="485.726,84.4489 485.726,67.824"/>
<polyline class="Stem" fill="none" stroke="#000000" stroke-width="0.65" stroke-linecap="round" stroke-linejoin="bevel" points="433.819,81.7949 433.819,65.34"/>
<polyline class="Stem" fill="none" stroke="#000000" stroke-width="0.65" stroke-linecap="round" stroke-linejoin="bevel" points="382.091,79.3109 382.091,62.856"/>
<polyline class="Stem" fill="none" stroke="#000000" stroke-width="0.65" stroke-linecap="round" stroke-linejoin="bevel" points="330.363,76.8269 330.363,60.993"/>
<polyline class="Stem" fill="none" stroke="#000000" stroke-width="0.65" stroke-linecap="round" stroke-linejoin="bevel" points="278.635,74.3429 278.635,59.13"/>
<polyline class="Stem" fill="none" stroke="#000000" stroke-width="0.65" stroke-linecap="round" stroke-linejoin="bevel" points="226.907,76.8269 226.907,60.993"/>
<polyline class="Stem" fill="none" stroke="#000000" stroke-width="0.65" stroke-linecap="round" stroke-linejoin="bevel" points="175.179,79.3109 175.179,62.856"/>
<polyline class="Stem" fill="none" stroke="#000000" stroke-width="0.65" stroke-linecap="round" stroke-linejoin="bevel" points="123.451,81.7949 123.451,65.34"/>
<polyline class="Stem" fill="none" stroke="#000000" stroke-width="0.65" stroke-linecap="round" stroke-linejoin="bevel" points="71.7231,84.2789 71.7231,67.824"/>
<path class="Note" fill="#ffffff" fill-rule="evenodd" d="M480.074,133.65 L486.036,133.65 L486.036,141.102 L480.074,141.102 L480.074,133.65 "/>
<path class="Note" transform="matrix(0.9936,0,0,0.9936,480.571,140.854)" d="M0.390625,-3.09375 C0.390625,-5 0.927083,-6.07813 2,-6.32813 C2.14583,-6.36979 2.30208,-6.39063 2.46875,-6.39063 C3.78125,-6.39063 4.47917,-5.40104 4.5625,-3.42188 C4.5625,-3.28646 4.5625,-3.15625 4.5625,-3.03125 C4.5625,-1.40625 4.15104,-0.385417 3.32813,0.03125 C3.06771,0.145833 2.78125,0.203125 2.46875,0.203125 C1.41667,0.203125 0.760417,-0.442708 0.5,-1.73438 C0.427083,-2.14063 0.390625,-2.59375 0.390625,-3.09375 M2.46875,-5.64063 C1.625,-5.63021 1.20313,-4.77083 1.20313,-3.0625 C1.20313,-1.32292 1.61979,-0.453125 2.45313,-0.453125 C3.16146,-0.453125 3.57813,-1.02604 3.70313,-2.17188 C3.73438,-2.44271 3.75,-2.75 3.75,-3.09375 C3.75,-4.79167 3.32292,-5.64063 2.46875,-5.64063"/>
<path class="Note" fill="#78c7c7" transform="matrix(0.9936,0,0,0.9936,479.15,85.212)" d="M6.3125,-1.3125 C6.3125,-1.53125 6.22917,-1.71875 6.0625,-1.875 C5.88542,-2.04167 5.6875,-2.125 5.46875,-2.125 C5.08333,-2.125 4.29688,-1.73438 3.10938,-0.953125 C1.88021,-0.161458 1.13021,0.40625 0.859375,0.75 C0.713542,0.927083 0.640625,1.11458 0.640625,1.3125 C0.640625,1.53125 0.729167,1.71875 0.90625,1.875 C1.0625,2.04167 1.25521,2.125 1.48438,2.125 C1.85938,2.125 2.65625,1.73438 3.875,0.953125 C5.07292,0.171875 5.8125,-0.395833 6.09375,-0.75 C6.23958,-0.916667 6.3125,-1.10417 6.3125,-1.3125 M5.28125,-2.75 C6.39583,-2.75 6.95313,-2.27083 6.95313,-1.3125 C6.95313,-0.84375 6.81771,-0.296875 6.54688,0.328125 C6.27604,0.942708 5.91146,1.41146 5.45313,1.73438 C4.45313,2.41146 3.19792,2.75 1.6875,2.75 C0.5625,2.75 0,2.27083 0,1.3125 C0,0.885417 0.135417,0.34375 0.40625,-0.3125 C0.666667,-0.9375 1.03125,-1.41146 1.5,-1.73438 C2.51042,-2.41146 3.77083,-2.75 5.28125,-2.75"/>
<path class="Note" fill="#ffffff" fill-rule="evenodd" d="M428.346,133.65 L434.308,133.65 L434.308,141.102 L428.346,141.102 L428.346,133.65 "/>
<path class="Note" transform="matrix(0.9936,0,0,0.9936,428.843,140.854)" d="M0.453125,-4.17188 C0.494792,-5.64063 1.19792,-6.38021 2.5625,-6.39063 C3.28125,-6.39063 3.83333,-6.14583 4.21875,-5.65625 C4.46875,-5.32292 4.59375,-4.93229 4.59375,-4.48438 C4.59375,-3.68229 4.14583,-3.03125 3.25,-2.53125 L2.34375,-2.04688 C1.79167,-1.75521 1.44271,-1.4375 1.29688,-1.09375 C1.24479,-0.989583 1.21354,-0.869792 1.20313,-0.734375 L4.5625,-0.734375 L4.5625,0 L0.3125,0 C0.354167,-0.760417 0.520833,-1.33854 0.8125,-1.73438 C1.07292,-2.05729 1.5,-2.38542 2.09375,-2.71875 L2.92188,-3.1875 C3.49479,-3.52083 3.78646,-3.94271 3.79688,-4.45313 C3.79688,-4.88021 3.61458,-5.21354 3.25,-5.45313 C3.04167,-5.57813 2.80208,-5.64063 2.53125,-5.64063 C1.73958,-5.64063 1.3125,-5.16667 1.25,-4.21875 C1.25,-4.19792 1.25,-4.18229 1.25,-4.17188 L0.453125,-4.17188 "/>
<path class="Note" fill="#ff9933" transform="matrix(0.9936,0,0,0.9936,427.601,82.728)" d="M4.39063,-2.75 C5.01563,-2.75 5.54688,-2.58854 5.98438,-2.26563 C6.38021,-1.91146 6.57813,-1.46875 6.57813,-0.9375 C6.57813,-0.0416667 6.11979,0.796875 5.20313,1.57813 C4.26563,2.35938 3.26042,2.75 2.1875,2.75 C1.5625,2.75 1.03646,2.58854 0.609375,2.26563 C0.203125,1.91146 0,1.46875 0,0.9375 C0,0.0416667 0.46875,-0.796875 1.40625,-1.57813 C2.32292,-2.35938 3.31771,-2.75 4.39063,-2.75"/>
<path class="Note" fill="#ffffff" fill-rule="evenodd" d="M376.618,133.65 L382.58,133.65 L382.58,141.102 L376.618,141.102 L376.618,133.65 "/>
<path class="Note" transform="matrix(0.9936,0,0,0.9936,377.115,140.854)" d="M2.4375,-5.64063 C1.75,-5.64063 1.35417,-5.32813 1.25,-4.70313 C1.22917,-4.59896 1.21875,-4.47917 1.21875,-4.34375 L0.421875,-4.34375 C0.442708,-5.59375 1.01563,-6.27083 2.14063,-6.375 C2.23438,-6.38542 2.32813,-6.39063 2.42188,-6.39063 C3.26563,-6.39063 3.84375,-6.10938 4.15625,-5.54688 C4.29167,-5.28646 4.35938,-4.98438 4.35938,-4.64063 C4.35938,-4.00521 4.0625,-3.57292 3.46875,-3.34375 C4.03125,-3.14583 4.375,-2.81771 4.5,-2.35938 C4.54167,-2.19271 4.5625,-2.00521 4.5625,-1.79688 C4.5625,-1.05729 4.27604,-0.505208 3.70313,-0.140625 C3.33854,0.0885417 2.90104,0.203125 2.39063,0.203125 C1.21354,0.203125 0.526042,-0.348958 0.328125,-1.45313 C0.317708,-1.57813 0.302083,-1.71354 0.28125,-1.85938 L1.07813,-1.85938 C1.13021,-1.08854 1.46875,-0.65625 2.09375,-0.5625 C2.19792,-0.541667 2.30729,-0.53125 2.42188,-0.53125 C3.04688,-0.53125 3.45313,-0.765625 3.64063,-1.23438 C3.71354,-1.40104 3.75,-1.58854 3.75,-1.79688 C3.73958,-2.54688 3.29688,-2.92708 2.42188,-2.9375 L2.09375,-2.92188 L1.98438,-2.92188 L1.98438,-3.67188 C2.66146,-3.68229 3.10417,-3.77604 3.3125,-3.95313 C3.47917,-4.09896 3.5625,-4.31771 3.5625,-4.60938 C3.5625,-5.09896 3.34896,-5.41667 2.92188,-5.5625 C2.77604,-5.61458 2.61458,-5.64063 2.4375,-5.64063"/>
<path class="Note" fill="#ebeb19" transform="matrix(0.9936,0,0,0.9936,375.873,80.244)" d="M4.39063,-2.75 C5.01563,-2.75 5.54688,-2.58854 5.98438,-2.26563 C6.38021,-1.91146 6.57813,-1.46875 6.57813,-0.9375 C6.57813,-0.0416667 6.11979,0.796875 5.20313,1.57813 C4.26563,2.35938 3.26042,2.75 2.1875,2.75 C1.5625,2.75 1.03646,2.58854 0.609375,2.26563 C0.203125,1.91146 0,1.46875 0,0.9375 C0,0.0416667 0.46875,-0.796875 1.40625,-1.57813 C2.32292,-2.35938 3.31771,-2.75 4.39063,-2.75"/>
<path class="Note" fill="#ffffff" fill-rule="evenodd" d="M324.89,126.198 L330.852,126.198 L330.852,133.65 L324.89,133.65 L324.89,126.198 "/>
<path class="Note" transform="matrix(0.9936,0,0,0.9936,325.387,133.402)" d="M0.390625,-3.09375 C0.390625,-5 0.927083,-6.07813 2,-6.32813 C2.14583,-6.36979 2.30208,-6.39063 2.46875,-6.39063 C3.78125,-6.39063 4.47917,-5.40104 4.5625,-3.42188 C4.5625,-3.28646 4.5625,-3.15625 4.5625,-3.03125 C4.5625,-1.40625 4.15104,-0.385417 3.32813,0.03125 C3.06771,0.145833 2.78125,0.203125 2.46875,0.203125 C1.41667,0.203125 0.760417,-0.442708 0.5,-1.73438 C0.427083,-2.14063 0.390625,-2.59375 0.390625,-3.09375 M2.46875,-5.64063 C1.625,-5.63021 1.20313,-4.77083 1.20313,-3.0625 C1.20313,-1.32292 1.61979,-0.453125 2.45313,-0.453125 C3.16146,-0.453125 3.57813,-1.02604 3.70313,-2.17188 C3.73438,-2.44271 3.75,-2.75 3.75,-3.09375 C3.75,-4.79167 3.32292,-5.64063 2.46875,-5.64063"/>
<path class="Note" fill="#99cc33" transform="matrix(0.9936,0,0,0.9936,324.145,77.76)" d="M4.39063,-2.75 C5.01563,-2.75 5.54688,-2.58854 5.98438,-2.26563 C6.38021,-1.91146 6.57813,-1.46875 6.57813,-0.9375 C6.57813,-0.0416667 6.11979,0.796875 5.20313,1.57813 C4.26563,2.35938 3.26042,2.75 2.1875,2.75 C1.5625,2.75 1.03646,2.58854 0.609375,2.26563 C0.203125,1.91146 0,1.46875 0,0.9375 C0,0.0416667 0.46875,-0.796875 1.40625,-1.57813 C2.32292,-2.35938 3.31771,-2.75 4.39063,-2.75"/>
<path class="Note" fill="#ffffff" fill-rule="evenodd" d="M273.162,126.198 L279.124,126.198 L279.124,133.65 L273.162,133.65 L273.162,126.198 "/>
<path class="Note" transform="matrix(0.9936,0,0,0.9936,273.659,133.402)" d="M0.453125,-4.17188 C0.494792,-5.64063 1.19792,-6.38021 2.5625,-6.39063 C3.28125,-6.39063 3.83333,-6.14583 4.21875,-5.65625 C4.46875,-5.32292 4.59375,-4.93229 4.59375,-4.48438 C4.59375,-3.68229 4.14583,-3.03125 3.25,-2.53125 L2.34375,-2.04688 C1.79167,-1.75521 1.44271,-1.4375 1.29688,-1.09375 C1.24479,-0.989583 1.21354,-0.869792 1.20313,-0.734375 L4.5625,-0.734375 L4.5625,0 L0.3125,0 C0.354167,-0.760417 0.520833,-1.33854 0.8125,-1.73438 C1.07292,-2.05729 1.5,-2.38542 2.09375,-2.71875 L2.92188,-3.1875 C3.49479,-3.52083 3.78646,-3.94271 3.79688,-4.45313 C3.79688,-4.88021 3.61458,-5.21354 3.25,-5.45313 C3.04167,-5.57813 2.80208,-5.64063 2.53125,-5.64063 C1.73958,-5.64063 1.3125,-5.16667 1.25,-4.21875 C1.25,-4.19792 1.25,-4.18229 1.25,-4.17188 L0.453125,-4.17188 "/>
<path class="Note" fill="#cc00ff" transform="matrix(0.9936,0,0,0.9936,272.417,75.276)" d="M4.39063,-2.75 C5.01563,-2.75 5.54688,-2.58854 5.98438,-2.26563 C6.38021,-1.91146 6.57813,-1.46875 6.57813,-0.9375 C6.57813,-0.0416667 6.11979,0.796875 5.20313,1.57813 C4.26563,2.35938 3.26042,2.75 2.1875,2.75 C1.5625,2.75 1.03646,2.58854 0.609375,2.26563 C0.203125,1.91146 0,1.46875 0,0.9375 C0,0.0416667 0.46875,-0.796875 1.40625,-1.57813 C2.32292,-2.35938 3.31771,-2.75 4.39063,-2.75"/>
<path class="Note" fill="#ffffff" fill-rule="evenodd" d="M221.434,126.198 L227.396,126.198 L227.396,133.65 L221.434,133.65 L221.434,126.198 "/>
<path class="Note" transform="matrix(0.9936,0,0,0.9936,221.931,133.402)" d="M0.390625,-3.09375 C0.390625,-5 0.927083,-6.07813 2,-6.32813 C2.14583,-6.36979 2.30208,-6.39063 2.46875,-6.39063 C3.78125,-6.39063 4.47917,-5.40104 4.5625,-3.42188 C4.5625,-3.28646 4.5625,-3.15625 4.5625,-3.03125 C4.5625,-1.40625 4.15104,-0.385417 3.32813,0.03125 C3.06771,0.145833 2.78125,0.203125 2.46875,0.203125 C1.41667,0.203125 0.760417,-0.442708 0.5,-1.73438 C0.427083,-2.14063 0.390625,-2.59375 0.390625,-3.09375 M2.46875,-5.64063 C1.625,-5.63021 1.20313,-4.77083 1.20313,-3.0625 C1.20313,-1.32292 1.61979,-0.453125 2.45313,-0.453125 C3.16146,-0.453125 3.57813,-1.02604 3.70313,-2.17188 C3.73438,-2.44271 3.75,-2.75 3.75,-3.09375 C3.75,-4.79167 3.32292,-5.64063 2.46875,-5.64063"/>
<path class="Note" fill="#99cc33" transform="matrix(0.9936,0,0,0.9936,220.689,77.76)" d="M4.39063,-2.75 C5.01563,-2.75 5.54688,-2.58854 5.98438,-2.26563 C6.38021,-1.91146 6.57813,-1.46875 6.57813,-0.9375 C6.57813,-0.0416667 6.11979,0.796875 5.20313,1.57813 C4.26563,2.35938 3.26042,2.75 2.1875,2.75 C1.5625,2.75 1.03646,2.58854 0.609375,2.26563 C0.203125,1.91146 0,1.46875 0,0.9375 C0,0.0416667 0.46875,-0.796875 1.40625,-1.57813 C2.32292,-2.35938 3.31771,-2.75 4.39063,-2.75"/>
<path class="Note" fill="#ffffff" fill-rule="evenodd" d="M169.706,133.65 L175.668,133.65 L175.668,141.102 L169.706,141.102 L169.706,133.65 "/>
<path class="Note" transform="matrix(0.9936,0,0,0.9936,170.203,140.854)" d="M2.4375,-5.64063 C1.75,-5.64063 1.35417,-5.32813 1.25,-4.70313 C1.22917,-4.59896 1.21875,-4.47917 1.21875,-4.34375 L0.421875,-4.34375 C0.442708,-5.59375 1.01563,-6.27083 2.14063,-6.375 C2.23438,-6.38542 2.32813,-6.39063 2.42188,-6.39063 C3.26563,-6.39063 3.84375,-6.10938 4.15625,-5.54688 C4.29167,-5.28646 4.35938,-4.98438 4.35938,-4.64063 C4.35938,-4.00521 4.0625,-3.57292 3.46875,-3.34375 C4.03125,-3.14583 4.375,-2.81771 4.5,-2.35938 C4.54167,-2.19271 4.5625,-2.00521 4.5625,-1.79688 C4.5625,-1.05729 4.27604,-0.505208 3.70313,-0.140625 C3.33854,0.0885417 2.90104,0.203125 2.39063,0.203125 C1.21354,0.203125 0.526042,-0.348958 0.328125,-1.45313 C0.317708,-1.57813 0.302083,-1.71354 0.28125,-1.85938 L1.07813,-1.85938 C1.13021,-1.08854 1.46875,-0.65625 2.09375,-0.5625 C2.19792,-0.541667 2.30729,-0.53125 2.42188,-0.53125 C3.04688,-0.53125 3.45313,-0.765625 3.64063,-1.23438 C3.71354,-1.40104 3.75,-1.58854 3.75,-1.79688 C3.73958,-2.54688 3.29688,-2.92708 2.42188,-2.9375 L2.09375,-2.92188 L1.98438,-2.92188 L1.98438,-3.67188 C2.66146,-3.68229 3.10417,-3.77604 3.3125,-3.95313 C3.47917,-4.09896 3.5625,-4.31771 3.5625,-4.60938 C3.5625,-5.09896 3.34896,-5.41667 2.92188,-5.5625 C2.77604,-5.61458 2.61458,-5.64063 2.4375,-5.64063"/>
<path class="Note" fill="#ebeb19" transform="matrix(0.9936,0,0,0.9936,168.961,80.244)" d="M4.39063,-2.75 C5.01563,-2.75 5.54688,-2.58854 5.98438,-2.26563 C6.38021,-1.91146 6.57813,-1.46875 6.57813,-0.9375 C6.57813,-0.0416667 6.11979,0.796875 5.20313,1.57813 C4.26563,2.35938 3.26042,2.75 2.1875,2.75 C1.5625,2.75 1.03646,2.58854 0.609375,2.26563 C0.203125,1.91146 0,1.46875 0,0.9375 C0,0.0416667 0.46875,-0.796875 1.40625,-1.57813 C2.32292,-2.35938 3.31771,-2.75 4.39063,-2.75"/>
<path class="Note" fill="#ffffff" fill-rule="evenodd" d="M117.979,133.65 L123.94,133.65 L123.94,141.102 L117.979,141.102 L117.979,133.65 "/>
<path class="Note" transform="matrix(0.9936,0,0,0.9936,118.475,140.854)" d="M0.453125,-4.17188 C0.494792,-5.64063 1.19792,-6.38021 2.5625,-6.39063 C3.28125,-6.39063 3.83333,-6.14583 4.21875,-5.65625 C4.46875,-5.32292 4.59375,-4.93229 4.59375,-4.48438 C4.59375,-3.68229 4.14583,-3.03125 3.25,-2.53125 L2.34375,-2.04688 C1.79167,-1.75521 1.44271,-1.4375 1.29688,-1.09375 C1.24479,-0.989583 1.21354,-0.869792 1.20313,-0.734375 L4.5625,-0.734375 L4.5625,0 L0.3125,0 C0.354167,-0.760417 0.520833,-1.33854 0.8125,-1.73438 C1.07292,-2.05729 1.5,-2.38542 2.09375,-2.71875 L2.92188,-3.1875 C3.49479,-3.52083 3.78646,-3.94271 3.79688,-4.45313 C3.79688,-4.88021 3.61458,-5.21354 3.25,-5.45313 C3.04167,-5.57813 2.80208,-5.64063 2.53125,-5.64063 C1.73958,-5.64063 1.3125,-5.16667 1.25,-4.21875 C1.25,-4.19792 1.25,-4.18229 1.25,-4.17188 L0.453125,-4.17188 "/>
<path class="Note" fill="#ff9933" transform="matrix(0.9936,0,0,0.9936,117.233,82.728)" d="M4.39063,-2.75 C5.01563,-2.75 5.54688,-2.58854 5.98438,-2.26563 C6.38021,-1.91146 6.57813,-1.46875 6.57813,-0.9375 C6.57813,-0.0416667 6.11979,0.796875 5.20313,1.57813 C4.26563,2.35938 3.26042,2.75 2.1875,2.75 C1.5625,2.75 1.03646,2.58854 0.609375,2.26563 C0.203125,1.91146 0,1.46875 0,0.9375 C0,0.0416667 0.46875,-0.796875 1.40625,-1.57813 C2.32292,-2.35938 3.31771,-2.75 4.39063,-2.75"/>
<path class="Note" fill="#ffffff" fill-rule="evenodd" d="M66.2505,133.65 L72.2121,133.65 L72.2121,141.102 L66.2505,141.102 L66.2505,133.65 "/>
<path class="Note" transform="matrix(0.9936,0,0,0.9936,66.7473,140.854)" d="M0.390625,-3.09375 C0.390625,-5 0.927083,-6.07813 2,-6.32813 C2.14583,-6.36979 2.30208,-6.39063 2.46875,-6.39063 C3.78125,-6.39063 4.47917,-5.40104 4.5625,-3.42188 C4.5625,-3.28646 4.5625,-3.15625 4.5625,-3.03125 C4.5625,-1.40625 4.15104,-0.385417 3.32813,0.03125 C3.06771,0.145833 2.78125,0.203125 2.46875,0.203125 C1.41667,0.203125 0.760417,-0.442708 0.5,-1.73438 C0.427083,-2.14063 0.390625,-2.59375 0.390625,-3.09375 M2.46875,-5.64063 C1.625,-5.63021 1.20313,-4.77083 1.20313,-3.0625 C1.20313,-1.32292 1.61979,-0.453125 2.45313,-0.453125 C3.16146,-0.453125 3.57813,-1.02604 3.70313,-2.17188 C3.73438,-2.44271 3.75,-2.75 3.75,-3.09375 C3.75,-4.79167 3.32292,-5.64063 2.46875,-5.64063"/>
<path class="Note" fill="#78c7c7" transform="matrix(0.9936,0,0,0.9936,65.5053,85.212)" d="M4.39063,-2.75 C5.01563,-2.75 5.54688,-2.58854 5.98438,-2.26563 C6.38021,-1.91146 6.57813,-1.46875 6.57813,-0.9375 C6.57813,-0.0416667 6.11979,0.796875 5.20313,1.57813 C4.26563,2.35938 3.26042,2.75 2.1875,2.75 C1.5625,2.75 1.03646,2.58854 0.609375,2.26563 C0.203125,1.91146 0,1.46875 0,0.9375 C0,0.0416667 0.46875,-0.796875 1.40625,-1.57813 C2.32292,-2.35938 3.31771,-2.75 4.39063,-2.75"/>
<path class="Clef" transform="matrix(0.9936,0,0,0.9936,32.0544,133.65)" d="M5.32813,8.5 C5.32813,8.86458 5.04167,9.04688 4.46875,9.04688 C4.02083,9.04688 3.625,8.91146 3.28125,8.64063 C2.95833,8.34896 2.79688,7.98438 2.79688,7.54688 C2.79688,6.76563 3.27083,6.14063 4.21875,5.67188 C5.14583,5.18229 6.23438,4.9375 7.48438,4.9375 C7.96354,4.9375 8.47917,4.97396 9.03125,5.04688 C9.42708,5.09896 9.875,5.20313 10.375,5.35938 C10.8125,5.49479 11.1563,5.70573 11.4063,5.99219 C11.6563,6.27865 11.7813,6.61458 11.7813,7 C11.7813,7.89583 11.3177,8.63021 10.3906,9.20313 C11.7448,9.45313 12.4271,10.0573 12.4375,11.0156 C12.4375,11.8281 12.0729,12.5599 11.3438,13.2109 C10.6146,13.862 9.79167,14.1875 8.875,14.1875 C8.47917,14.1875 8.07813,14.0938 7.67188,13.9063 C7.29688,13.7292 7.03125,13.5625 6.875,13.4063 C6.71875,13.2188 6.64063,13.0781 6.64063,12.9844 C6.64063,12.8594 6.70833,12.75 6.84375,12.6563 C6.95833,12.5417 7.07813,12.4844 7.20313,12.4844 C7.25521,12.4844 7.36719,12.5677 7.53906,12.7344 C7.71094,12.901 7.95833,12.9844 8.28125,12.9844 C8.72917,12.9844 9.16146,12.7969 9.57813,12.4219 C9.97396,12.0573 10.1719,11.6198 10.1719,11.1094 C10.1719,10.6719 9.98438,10.3542 9.60938,10.1563 C9.24479,9.95833 8.76563,9.85938 8.17188,9.85938 C8.06771,9.85938 8.01563,9.75 8.01563,9.53125 C8.01563,9.21875 8.13021,9.0625 8.35938,9.0625 C8.72396,9.0625 9.05208,8.90625 9.34375,8.59375 C9.61458,8.26042 9.75,7.90104 9.75,7.51563 C9.75,7.40104 9.71875,7.22917 9.65625,7 C9.60417,6.84375 9.44792,6.65104 9.1875,6.42188 C8.9375,6.21354 8.58854,6.07292 8.14063,6 C8.02604,6.63542 7.88021,7.44792 7.70313,8.4375 C7.52604,9.42708 7.40625,10.0781 7.34375,10.3906 C7.125,11.5156 6.72396,12.4583 6.14063,13.2188 C5.52604,14.0313 4.86458,14.4375 4.15625,14.4375 C3.9375,14.4375 3.71354,14.3854 3.48438,14.2813 C3.29688,14.1979 3.0625,14.0365 2.78125,13.7969 C2.52083,13.5885 2.34375,13.4479 2.25,13.375 C2.19792,13.3438 2.17188,13.2865 2.17188,13.2031 C2.17188,13.0781 2.21875,12.9635 2.3125,12.8594 C2.41667,12.7344 2.52604,12.6719 2.64063,12.6719 C2.71354,12.6719 2.89323,12.7969 3.17969,13.0469 C3.46615,13.2969 3.76563,13.4219 4.07813,13.4219 C4.68229,13.4219 5.13542,13.0365 5.4375,12.2656 C5.71875,11.526 5.85938,10.6094 5.85938,9.51563 L5.85938,9.35938 C5.85938,8.63021 5.97917,7.54167 6.21875,6.09375 C5.80208,6.22917 5.46875,6.42708 5.21875,6.6875 C4.95833,6.94792 4.82813,7.21875 4.82813,7.5 C4.82813,7.71875 4.91146,7.90625 5.07813,8.0625 C5.24479,8.21875 5.32813,8.36458 5.32813,8.5 M1.40625,2.39063 C1.46875,2.39063 1.625,2.45313 1.875,2.57813 C2.13542,2.71354 2.35938,2.78125 2.54688,2.78125 C3.03646,2.78125 3.64063,2.42188 4.35938,1.70313 C6.43229,-0.411458 7.85938,-2.65104 8.64063,-5.01563 C8.79688,-5.51563 9.17708,-5.76563 9.78125,-5.76563 C10.0938,-5.76563 10.3646,-5.69792 10.5938,-5.5625 C10.8125,-5.42708 10.9219,-5.28646 10.9219,-5.14063 L10.5625,2.17188 C10.5625,2.55729 10.7031,2.75 10.9844,2.75 C11.1198,2.75 11.3281,2.6875 11.6094,2.5625 C11.8698,2.42708 12.026,2.35938 12.0781,2.35938 C12.1823,2.35938 12.2448,2.47396 12.2656,2.70313 C12.2656,2.91146 12.1823,3.04167 12.0156,3.09375 C11.8802,3.125 11.6198,3.24479 11.2344,3.45313 C10.8281,3.66146 10.5104,3.76563 10.2813,3.76563 C9.78125,3.76563 9.42708,3.375 9.21875,2.59375 C8.89583,1.375 8.6875,0.104167 8.59375,-1.21875 C8.07292,-0.552083 7.49479,0.119792 6.85938,0.796875 C7.08854,1.24479 7.51563,1.46875 8.14063,1.46875 C8.23438,1.46875 8.30729,1.46354 8.35938,1.45313 L8.375,1.45313 C8.47917,1.45313 8.53125,1.54688 8.53125,1.73438 C8.53125,1.98438 8.44792,2.13542 8.28125,2.1875 C8.01042,2.28125 7.72396,2.32813 7.42188,2.32813 C6.77604,2.32813 6.30729,2.10417 6.01563,1.65625 L5.23438,2.35938 C4.14063,3.29688 3.25,3.76563 2.5625,3.76563 C2.375,3.76563 2.1875,3.73438 2,3.67188 C1.84375,3.60938 1.66146,3.51042 1.45313,3.375 C1.36979,3.34375 1.27865,3.29688 1.17969,3.23438 C1.08073,3.17188 1.02083,3.13542 1,3.125 C0.9375,3.10417 0.90625,3.04688 0.90625,2.95313 C0.90625,2.84896 0.958333,2.72396 1.0625,2.57813 C1.14583,2.45313 1.26042,2.39063 1.40625,2.39063 M5.76563,-10.7969 C5.76563,-10.474 5.48438,-10.3125 4.92188,-10.3125 C4.43229,-10.3125 4.00521,-10.474 3.64063,-10.7969 C3.28646,-11.1302 3.10938,-11.5313 3.10938,-12 C3.10938,-12.4479 3.25,-12.8385 3.53125,-13.1719 C3.83333,-13.5052 4.21875,-13.7552 4.6875,-13.9219 C5.11458,-14.0781 5.59896,-14.2031 6.14063,-14.2969 C6.69271,-14.3594 7.22396,-14.3906 7.73438,-14.3906 C8.03646,-14.3906 8.59896,-14.2552 9.42188,-13.9844 C10.2552,-13.7135 10.8333,-13.5781 11.1563,-13.5781 C11.5625,-13.5781 11.9479,-13.651 12.3125,-13.7969 C12.6042,-13.9219 12.8906,-14.0677 13.1719,-14.2344 C13.3906,-14.3802 13.5104,-14.4531 13.5313,-14.4531 C13.6563,-14.4531 13.7604,-14.4167 13.8438,-14.3438 C13.9479,-14.2396 14,-14.151 14,-14.0781 C14,-13.9948 13.8802,-13.849 13.6406,-13.6406 C13.3802,-13.401 13.0078,-13.1641 12.5234,-12.9297 C12.0391,-12.6953 11.5313,-12.5781 11,-12.5781 C10.7604,-12.5781 10.4688,-12.6198 10.125,-12.7031 C9.89583,-11.2552 9.66146,-9.96875 9.42188,-8.84375 C9.21354,-7.85417 8.79688,-6.98958 8.17188,-6.25 C7.56771,-5.51042 6.89583,-5.14063 6.15625,-5.14063 C5.85417,-5.14063 5.58854,-5.19792 5.35938,-5.3125 C5.09896,-5.44792 4.82292,-5.64583 4.53125,-5.90625 C4.30208,-6.09375 4.08333,-6.26563 3.875,-6.42188 C3.82292,-6.46354 3.79688,-6.52604 3.79688,-6.60938 C3.79688,-6.69271 3.84896,-6.80729 3.95313,-6.95313 C4.05729,-7.06771 4.15104,-7.125 4.23438,-7.125 C4.31771,-7.125 4.54167,-6.96354 4.90625,-6.64063 C5.27083,-6.31771 5.59375,-6.15625 5.875,-6.15625 C6.39583,-6.15625 6.80208,-6.45313 7.09375,-7.04688 C7.375,-7.64063 7.53646,-8.34375 7.57813,-9.15625 C7.64063,-10.5 7.79167,-11.8906 8.03125,-13.3281 C7.73958,-13.3906 7.52604,-13.4219 7.39063,-13.4219 C6.76563,-13.4219 6.22917,-13.2917 5.78125,-13.0313 C5.34375,-12.7813 5.125,-12.4427 5.125,-12.0156 C5.125,-11.7031 5.22917,-11.4635 5.4375,-11.2969 C5.65625,-11.1094 5.76563,-10.9427 5.76563,-10.7969"/>
<path class="Clef" transform="matrix(0.9936,0,0,0.9936,32.0544,77.76)" d="M7.34375,-5.125 C7.34375,-5.125 7.38542,-5.125 7.46875,-5.125 C7.52083,-5.13542 7.5625,-5.14063 7.59375,-5.14063 C9.05208,-5.14063 10.25,-4.625 11.1875,-3.59375 C12.125,-2.58333 12.5938,-1.40104 12.5938,-0.046875 C12.5938,1.64063 11.901,3.01042 10.5156,4.0625 C10.151,4.35417 9.67188,4.58854 9.07813,4.76563 C9.15104,5.60938 9.1875,6.29167 9.1875,6.8125 C9.1875,6.91667 9.17188,7.29688 9.14063,7.95313 C9.08854,9.16146 8.67188,10.2083 7.89063,11.0938 C7.14063,11.9688 6.20313,12.4063 5.07813,12.4063 C4.02604,12.4063 3.13021,12.0365 2.39063,11.2969 C1.64063,10.5365 1.26563,9.625 1.26563,8.5625 C1.26563,8 1.48438,7.52083 1.92188,7.125 C2.35938,6.73958 2.86979,6.54688 3.45313,6.54688 C3.97396,6.54688 4.41146,6.75 4.76563,7.15625 C5.13021,7.53125 5.3125,8 5.3125,8.5625 C5.3125,9.0625 5.13021,9.49479 4.76563,9.85938 C4.40104,10.224 3.96354,10.4063 3.45313,10.4063 C3.24479,10.4063 3.04688,10.3698 2.85938,10.2969 C3.43229,11.1406 4.19271,11.5625 5.14063,11.5625 C6.03646,11.5625 6.77083,11.1979 7.34375,10.4688 C7.94792,9.71875 8.27604,8.83854 8.32813,7.82813 C8.34896,7.20313 8.35938,6.84896 8.35938,6.76563 C8.35938,6.03646 8.33333,5.4375 8.28125,4.96875 C7.63542,5.07292 7.05729,5.125 6.54688,5.125 C4.73438,5.125 3.19271,4.40625 1.92188,2.96875 C0.671875,1.52083 0.046875,-0.197917 0.046875,-2.1875 C0.046875,-2.60417 0.0833333,-3.02604 0.15625,-3.45313 C0.239583,-3.80729 0.338542,-4.19271 0.453125,-4.60938 C0.515625,-4.84896 0.692708,-5.22917 0.984375,-5.75 C1.08854,-5.90625 1.20573,-6.10156 1.33594,-6.33594 C1.46615,-6.57031 1.55729,-6.72396 1.60938,-6.79688 C1.73438,-7.05729 1.98438,-7.41146 2.35938,-7.85938 C2.46354,-7.97396 2.57292,-8.10156 2.6875,-8.24219 C2.80208,-8.38281 2.89844,-8.5 2.97656,-8.59375 C3.05469,-8.6875 3.11198,-8.76042 3.14844,-8.8125 C3.1849,-8.86458 3.47917,-9.20833 4.03125,-9.84375 C4.15625,-9.97917 4.28125,-10.1198 4.40625,-10.2656 C4.53125,-10.4115 4.63281,-10.5286 4.71094,-10.6172 C4.78906,-10.7057 4.84896,-10.7656 4.89063,-10.7969 C4.42188,-12.349 4.125,-13.5885 4,-14.5156 C3.91667,-15.2552 3.875,-16.2708 3.875,-17.5625 C3.875,-18.6979 4.13542,-19.7604 4.65625,-20.75 C5.15625,-21.7708 5.86458,-22.6094 6.78125,-23.2656 C6.84375,-23.3073 6.90625,-23.3281 6.96875,-23.3281 C7.0625,-23.3281 7.13021,-23.3073 7.17188,-23.2656 C7.86979,-22.4219 8.47396,-21.3229 8.98438,-19.9688 C9.50521,-18.6146 9.76563,-17.3802 9.76563,-16.2656 C9.76563,-15.0156 9.46875,-13.8438 8.875,-12.75 C8.19792,-11.5938 7.32292,-10.3958 6.25,-9.15625 C6.52083,-8.30208 6.88542,-6.95833 7.34375,-5.125 M9,3.96875 C9.67708,3.71875 10.2083,3.29688 10.5938,2.70313 C11.0104,2.13021 11.2188,1.48438 11.2188,0.765625 C11.2188,-0.161458 10.9063,-0.984375 10.2813,-1.70313 C9.63542,-2.44271 8.81771,-2.85938 7.82813,-2.95313 C8.39063,-0.203125 8.78125,2.10417 9,3.96875 M1.45313,-0.546875 C1.45313,0.744792 1.97396,1.88021 3.01563,2.85938 C4.07813,3.80729 5.27604,4.28125 6.60938,4.28125 C7.15104,4.28125 7.68229,4.23958 8.20313,4.15625 C7.99479,2.17708 7.58333,-0.192708 6.96875,-2.95313 C6.22917,-2.86979 5.64063,-2.60938 5.20313,-2.17188 C4.76563,-1.71354 4.54688,-1.19792 4.54688,-0.625 C4.54688,0.364583 5.07813,1.16667 6.14063,1.78125 C6.22396,1.875 6.26563,1.97396 6.26563,2.07813 C6.26563,2.18229 6.22396,2.27604 6.14063,2.35938 C6.05729,2.45313 5.95833,2.5 5.84375,2.5 C5.83333,2.5 5.77604,2.48958 5.67188,2.46875 C4.92188,2.0625 4.34896,1.54167 3.95313,0.90625 C3.56771,0.21875 3.375,-0.46875 3.375,-1.15625 C3.375,-2.05208 3.65625,-2.86458 4.21875,-3.59375 C4.80208,-4.32292 5.5625,-4.79167 6.5,-5 C6.13542,-6.45833 5.83854,-7.59896 5.60938,-8.42188 C5.40104,-8.18229 5.15104,-7.89844 4.85938,-7.57031 C4.56771,-7.24219 4.39583,-7.04167 4.34375,-6.96875 C3.875,-6.36458 3.51563,-5.89063 3.26563,-5.54688 C2.81771,-4.93229 2.48958,-4.40625 2.28125,-3.96875 C2.0625,-3.46875 1.86979,-2.92708 1.70313,-2.34375 C1.53646,-1.78125 1.45313,-1.18229 1.45313,-0.546875 M7.96875,-20.4063 C6.98958,-19.9271 6.22396,-19.2396 5.67188,-18.3438 C5.09896,-17.4167 4.8125,-16.4219 4.8125,-15.3594 C4.8125,-14.4219 5.04688,-13.1563 5.51563,-11.5625 C6.45313,-12.6979 7.15625,-13.7448 7.625,-14.7031 C8.11458,-15.724 8.35938,-16.7865 8.35938,-17.8906 C8.35938,-18.724 8.22917,-19.5625 7.96875,-20.4063 M5.82813,15.2344 C6.16146,14.901 6.32813,14.5625 6.32813,14.2188 C6.30729,13.9479 6.19271,13.7396 5.98438,13.5938 C5.74479,13.4375 5.46875,13.3594 5.15625,13.3594 C4.9375,13.3594 4.75521,13.4323 4.60938,13.5781 C4.48438,13.7031 4.42188,13.8646 4.42188,14.0625 C4.42188,14.3021 4.51563,14.4792 4.70313,14.5938 L5.82813,15.2344 M6.14063,15.4063 C6.68229,15.7083 6.95313,16.1146 6.95313,16.625 L6.95313,16.6875 C6.95313,17.0833 6.79167,17.4219 6.46875,17.7031 C6.14583,17.9844 5.68229,18.125 5.07813,18.125 C4.58854,18.125 4.16146,17.9948 3.79688,17.7344 C3.43229,17.4844 3.25,17.1458 3.25,16.7188 C3.25,16.5521 3.29167,16.3958 3.375,16.25 C3.47917,16.0833 3.56771,15.9688 3.64063,15.9063 L4,15.5313 C3.60417,15.2604 3.40625,14.901 3.40625,14.4531 C3.40625,14.099 3.5625,13.7865 3.875,13.5156 C4.19792,13.2552 4.625,13.125 5.15625,13.125 C5.60417,13.125 5.98438,13.224 6.29688,13.4219 C6.60938,13.6198 6.76563,13.8854 6.76563,14.2188 C6.76563,14.5729 6.55729,14.9688 6.14063,15.4063 M4.29688,15.7031 C3.91146,16.0469 3.70313,16.3854 3.67188,16.7188 C3.70313,17.0729 3.84896,17.3542 4.10938,17.5625 C4.39063,17.7813 4.71354,17.8906 5.07813,17.8906 C5.33854,17.8906 5.54688,17.8073 5.70313,17.6406 C5.85938,17.4844 5.9375,17.2969 5.9375,17.0781 C5.92708,16.7865 5.8125,16.5781 5.59375,16.4531 L4.29688,15.7031 "/>
<path class="KeySig" transform="matrix(0.9936,0,0,0.9936,49.4657,72.792)" d="M0.921875,-0.828125 L0.921875,0.71875 C0.921875,1.27083 0.947917,1.70833 1,2.03125 C1.42708,1.66667 1.73438,1.39583 1.92188,1.21875 C2.13021,1.01042 2.33854,0.721354 2.54688,0.351563 C2.75521,-0.0182292 2.85938,-0.385417 2.85938,-0.75 C2.85938,-1.11458 2.78125,-1.42708 2.625,-1.6875 C2.46875,-1.94792 2.26042,-2.07813 2,-2.07813 C1.6875,-2.07813 1.42708,-1.95833 1.21875,-1.71875 C1.02083,-1.45833 0.921875,-1.16146 0.921875,-0.828125 M0.09375,2.75 L-0.15625,-9.14063 C0.03125,-9.24479 0.216146,-9.29688 0.398438,-9.29688 C0.580729,-9.29688 0.760417,-9.24479 0.9375,-9.14063 L0.78125,-2.25 C1.3125,-2.70833 1.92708,-2.9375 2.625,-2.9375 C3.125,-2.9375 3.54427,-2.72917 3.88281,-2.3125 C4.22135,-1.89583 4.39063,-1.41667 4.39063,-0.875 C4.39063,-0.541667 4.28125,-0.182292 4.0625,0.203125 C3.85417,0.546875 3.63542,0.817708 3.40625,1.01563 C3.27083,1.11979 2.9375,1.38021 2.40625,1.79688 C2.25,1.91146 2.0651,2.04688 1.85156,2.20313 C1.63802,2.35938 1.50521,2.45833 1.45313,2.5 C1.35938,2.55208 1.27083,2.65625 1.1875,2.8125 C1.10417,2.94792 1,3.05729 0.875,3.14063 C0.791667,3.22396 0.684896,3.26563 0.554688,3.26563 C0.424479,3.26563 0.317708,3.21875 0.234375,3.125 C0.140625,3.03125 0.09375,2.90625 0.09375,2.75"/>
<path class="Fingering" d="M474.666,87.8214 C474.072,87.8214 473.609,87.5141 473.275,86.8995 C472.994,86.3995 472.853,85.7745 472.853,85.0245 C472.853,84.1287 473.062,83.4255 473.478,82.9151 C473.812,82.5193 474.218,82.3162 474.697,82.3057 C475.26,82.3057 475.702,82.5922 476.025,83.1651 C476.327,83.6755 476.478,84.311 476.478,85.0714 C476.478,86.0401 476.254,86.7797 475.806,87.2901 C475.484,87.6443 475.103,87.8214 474.666,87.8214 M474.666,82.5089 C474.02,82.5089 473.671,83.2797 473.619,84.8214 C473.619,84.9151 473.619,85.0089 473.619,85.1026 C473.629,86.7693 473.978,87.6078 474.666,87.6182 C475.353,87.6078 475.697,86.7641 475.697,85.087 C475.697,83.5662 475.426,82.7172 474.885,82.5401 C474.812,82.5193 474.739,82.5089 474.666,82.5089"/>
<path class="Fingering" d="M421.367,81.4155 C421.607,80.3947 422.133,79.8686 422.945,79.8374 C422.977,79.8374 423.003,79.8374 423.023,79.8374 C423.513,79.8374 423.904,80.0145 424.195,80.3686 C424.404,80.629 424.508,80.9207 424.508,81.2436 C424.508,81.8374 424.19,82.478 423.555,83.1655 C423.534,83.1863 423.508,83.2072 423.477,83.228 L422.148,84.6499 L424.055,84.6499 C424.263,84.6499 424.424,84.5926 424.539,84.478 C424.612,84.4051 424.701,84.2853 424.805,84.1186 L424.914,84.1499 L424.477,85.228 L421.352,85.228 L421.352,85.1342 L422.773,83.6186 C423.451,82.879 423.799,82.1863 423.82,81.5405 C423.82,81.0926 423.648,80.7697 423.305,80.5717 C423.128,80.4676 422.924,80.4155 422.695,80.4155 C422.341,80.4155 422.065,80.5509 421.867,80.8217 C421.753,80.978 421.643,81.1915 421.539,81.4624 L421.367,81.4155 "/>
<path class="Fingering" d="M370.03,82.119 C370.155,82.119 370.337,82.1867 370.577,82.3221 C370.827,82.4784 371.04,82.5565 371.217,82.5565 C371.582,82.5565 371.868,82.395 372.077,82.0721 C372.202,81.8638 372.264,81.6294 372.264,81.369 C372.264,80.6086 371.811,80.1919 370.905,80.119 C370.811,80.1086 370.712,80.1034 370.608,80.1034 L370.608,79.994 C371.212,79.7961 371.608,79.5409 371.795,79.2284 C371.889,79.0617 371.936,78.8794 371.936,78.6815 C371.936,78.3273 371.79,78.0721 371.499,77.9159 C371.363,77.8534 371.217,77.8221 371.061,77.8221 C370.613,77.8221 370.243,78.0565 369.952,78.5252 C369.92,78.5669 369.894,78.6138 369.874,78.6659 L369.749,78.6346 C369.999,77.9575 370.363,77.5461 370.842,77.4002 C370.988,77.3586 371.15,77.3377 371.327,77.3377 C371.806,77.3377 372.16,77.5044 372.389,77.8377 C372.514,78.0148 372.577,78.2127 372.577,78.4315 C372.577,78.7544 372.426,79.0461 372.124,79.3065 C372.03,79.3794 371.931,79.4575 371.827,79.5409 C372.306,79.7492 372.613,80.0357 372.749,80.4002 C372.811,80.5773 372.842,80.7752 372.842,80.994 C372.842,81.6294 372.577,82.1242 372.045,82.4784 C371.65,82.7284 371.181,82.8534 370.639,82.8534 C370.15,82.8534 369.858,82.744 369.764,82.5252 C369.743,82.4836 369.733,82.4419 369.733,82.4002 C369.733,82.244 369.811,82.1555 369.967,82.1346 C369.988,82.1242 370.009,82.119 370.03,82.119"/>
<path class="Fingering" d="M319.661,80.3694 C319.067,80.3694 318.604,80.0621 318.271,79.4475 C317.989,78.9475 317.849,78.3225 317.849,77.5725 C317.849,76.6767 318.057,75.9735 318.474,75.4631 C318.807,75.0673 319.213,74.8642 319.692,74.8537 C320.255,74.8537 320.698,75.1402 321.021,75.7131 C321.323,76.2235 321.474,76.859 321.474,77.6194 C321.474,78.5881 321.25,79.3277 320.802,79.8381 C320.479,80.1923 320.099,80.3694 319.661,80.3694 M319.661,75.0569 C319.015,75.0569 318.666,75.8277 318.614,77.3694 C318.614,77.4631 318.614,77.5569 318.614,77.6506 C318.625,79.3173 318.974,80.1558 319.661,80.1662 C320.349,80.1558 320.692,79.3121 320.692,77.635 C320.692,76.1142 320.422,75.2652 319.88,75.0881 C319.807,75.0673 319.734,75.0569 319.661,75.0569"/>
<path class="Fingering" d="M266.183,73.9635 C266.423,72.9427 266.949,72.4166 267.761,72.3854 C267.793,72.3854 267.819,72.3854 267.839,72.3854 C268.329,72.3854 268.72,72.5625 269.011,72.9166 C269.22,73.177 269.324,73.4687 269.324,73.7916 C269.324,74.3854 269.006,75.026 268.371,75.7135 C268.35,75.7343 268.324,75.7552 268.293,75.776 L266.964,77.1979 L268.871,77.1979 C269.079,77.1979 269.241,77.1406 269.355,77.026 C269.428,76.9531 269.517,76.8333 269.621,76.6666 L269.73,76.6979 L269.293,77.776 L266.168,77.776 L266.168,77.6822 L267.589,76.1666 C268.267,75.427 268.616,74.7343 268.636,74.0885 C268.636,73.6406 268.464,73.3177 268.121,73.1197 C267.944,73.0156 267.741,72.9635 267.511,72.9635 C267.157,72.9635 266.881,73.0989 266.683,73.3697 C266.569,73.526 266.459,73.7395 266.355,74.0104 L266.183,73.9635 "/>
<path class="Fingering" d="M216.205,80.3694 C215.612,80.3694 215.148,80.0621 214.815,79.4475 C214.533,78.9475 214.393,78.3225 214.393,77.5725 C214.393,76.6767 214.601,75.9735 215.018,75.4631 C215.351,75.0673 215.757,74.8642 216.237,74.8537 C216.799,74.8537 217.242,75.1402 217.565,75.7131 C217.867,76.2235 218.018,76.859 218.018,77.6194 C218.018,78.5881 217.794,79.3277 217.346,79.8381 C217.023,80.1923 216.643,80.3694 216.205,80.3694 M216.205,75.0569 C215.559,75.0569 215.21,75.8277 215.158,77.3694 C215.158,77.4631 215.158,77.5569 215.158,77.6506 C215.169,79.3173 215.518,80.1558 216.205,80.1662 C216.893,80.1558 217.237,79.3121 217.237,77.635 C217.237,76.1142 216.966,75.2652 216.424,75.0881 C216.351,75.0673 216.278,75.0569 216.205,75.0569"/>
<path class="Fingering" d="M163.118,82.119 C163.243,82.119 163.425,82.1867 163.665,82.3221 C163.915,82.4784 164.128,82.5565 164.305,82.5565 C164.67,82.5565 164.956,82.395 165.165,82.0721 C165.29,81.8638 165.352,81.6294 165.352,81.369 C165.352,80.6086 164.899,80.1919 163.993,80.119 C163.899,80.1086 163.8,80.1034 163.696,80.1034 L163.696,79.994 C164.3,79.7961 164.696,79.5409 164.884,79.2284 C164.977,79.0617 165.024,78.8794 165.024,78.6815 C165.024,78.3273 164.878,78.0721 164.587,77.9159 C164.451,77.8534 164.305,77.8221 164.149,77.8221 C163.701,77.8221 163.331,78.0565 163.04,78.5252 C163.009,78.5669 162.983,78.6138 162.962,78.6659 L162.837,78.6346 C163.087,77.9575 163.451,77.5461 163.93,77.4002 C164.076,77.3586 164.238,77.3377 164.415,77.3377 C164.894,77.3377 165.248,77.5044 165.477,77.8377 C165.602,78.0148 165.665,78.2127 165.665,78.4315 C165.665,78.7544 165.514,79.0461 165.212,79.3065 C165.118,79.3794 165.019,79.4575 164.915,79.5409 C165.394,79.7492 165.701,80.0357 165.837,80.4002 C165.899,80.5773 165.93,80.7752 165.93,80.994 C165.93,81.6294 165.665,82.1242 165.134,82.4784 C164.738,82.7284 164.269,82.8534 163.727,82.8534 C163.238,82.8534 162.946,82.744 162.852,82.5252 C162.831,82.4836 162.821,82.4419 162.821,82.4002 C162.821,82.244 162.899,82.1555 163.055,82.1346 C163.076,82.1242 163.097,82.119 163.118,82.119"/>
<path class="Fingering" d="M110.999,81.4155 C111.239,80.3947 111.765,79.8686 112.577,79.8374 C112.609,79.8374 112.635,79.8374 112.656,79.8374 C113.145,79.8374 113.536,80.0145 113.827,80.3686 C114.036,80.629 114.14,80.9207 114.14,81.2436 C114.14,81.8374 113.822,82.478 113.187,83.1655 C113.166,83.1863 113.14,83.2072 113.109,83.228 L111.781,84.6499 L113.687,84.6499 C113.895,84.6499 114.057,84.5926 114.171,84.478 C114.244,84.4051 114.333,84.2853 114.437,84.1186 L114.546,84.1499 L114.109,85.228 L110.984,85.228 L110.984,85.1342 L112.406,83.6186 C113.083,82.879 113.432,82.1863 113.452,81.5405 C113.452,81.0926 113.281,80.7697 112.937,80.5717 C112.76,80.4676 112.557,80.4155 112.327,80.4155 C111.973,80.4155 111.697,80.5509 111.499,80.8217 C111.385,80.978 111.275,81.1915 111.171,81.4624 L110.999,81.4155 "/>
<path class="Fingering" d="M61.0213,87.8214 C60.4276,87.8214 59.964,87.5141 59.6307,86.8995 C59.3495,86.3995 59.2088,85.7745 59.2088,85.0245 C59.2088,84.1287 59.4172,83.4255 59.8338,82.9151 C60.1672,82.5193 60.5734,82.3162 61.0526,82.3057 C61.6151,82.3057 62.0578,82.5922 62.3807,83.1651 C62.6828,83.6755 62.8338,84.311 62.8338,85.0714 C62.8338,86.0401 62.6099,86.7797 62.162,87.2901 C61.839,87.6443 61.4588,87.8214 61.0213,87.8214 M61.0213,82.5089 C60.3755,82.5089 60.0265,83.2797 59.9745,84.8214 C59.9745,84.9151 59.9745,85.0089 59.9745,85.1026 C59.9849,86.7693 60.3338,87.6078 61.0213,87.6182 C61.7088,87.6078 62.0526,86.7641 62.0526,85.087 C62.0526,83.5662 61.7818,82.7172 61.2401,82.5401 C61.1672,82.5193 61.0943,82.5089 61.0213,82.5089"/>
<path class="Tempo" d="M59.2619,40.4371 C59.0588,40.2809 58.8088,40.1871 58.4963,40.1871 C57.3088,40.1871 56.3557,41.0621 56.3557,41.9996 C56.3557,42.5621 56.8088,42.9059 57.4026,42.9059 C58.3557,42.9059 59.5432,41.9996 59.5432,41.0934 L59.5432,34.9527 L59.2619,34.9527 L59.2619,40.4371 "/>
<path class="Tempo" d="M69.9026,39.0152 L63.2932,39.0152 L63.2932,37.859 L69.9026,37.859 L69.9026,39.0152 M69.9026,41.9371 L63.2932,41.9371 L63.2932,40.7965 L69.9026,40.7965 L69.9026,41.9371 M79.1838,34.734 L79.1838,35.0465 C77.788,35.3382 76.8296,36.0621 76.3088,37.2184 C76.1838,37.4996 76.0796,37.8069 75.9963,38.1402 C76.3088,38.0152 76.6421,37.9527 76.9963,37.9527 C77.8713,37.9527 78.5067,38.2913 78.9026,38.9684 C79.1317,39.3538 79.2463,39.8069 79.2463,40.3277 C79.2463,41.2652 78.9338,42.0048 78.3088,42.5465 C77.8401,42.9423 77.2932,43.1402 76.6682,43.1402 C75.689,43.1402 74.9442,42.7288 74.4338,41.9059 C74.0588,41.3017 73.8713,40.5673 73.8713,39.7027 C73.8713,38.1194 74.5171,36.8642 75.8088,35.9371 C75.8505,35.9059 75.8921,35.8746 75.9338,35.8434 C76.5901,35.3955 77.3192,35.083 78.1213,34.9059 C78.4234,34.8434 78.7776,34.7861 79.1838,34.734 M75.7463,40.0777 C75.7463,41.609 75.9338,42.4892 76.3088,42.7184 C76.4234,42.7809 76.5484,42.8121 76.6838,42.8121 C76.9963,42.8121 77.1994,42.6767 77.2932,42.4059 C77.3765,42.1559 77.4182,41.7027 77.4182,41.0465 C77.4182,39.7757 77.2619,38.9892 76.9494,38.6871 C76.7932,38.5413 76.5901,38.4684 76.3401,38.4684 C76.0901,38.4684 75.9286,38.5517 75.8557,38.7184 C75.7828,38.8955 75.7463,39.3486 75.7463,40.0777 M79.8244,38.9059 C79.8244,37.5934 80.1369,36.5309 80.7619,35.7184 C81.2723,35.0725 81.8661,34.7444 82.5432,34.734 C83.3244,34.734 83.9703,35.1402 84.4807,35.9527 C84.9911,36.7652 85.2463,37.76 85.2463,38.9371 C85.2463,40.3121 84.9286,41.4059 84.2932,42.2184 C83.7932,42.8225 83.2151,43.1298 82.5588,43.1402 C81.7255,43.1402 81.0536,42.7132 80.5432,41.859 C80.064,41.0673 79.8244,40.083 79.8244,38.9059 M82.5588,42.7965 C82.913,42.7965 83.1473,42.4736 83.2619,41.8277 C83.3244,41.4423 83.3557,40.9423 83.3557,40.3277 L83.3557,37.5777 C83.3557,36.1402 83.163,35.3225 82.7776,35.1246 C82.7046,35.083 82.6213,35.0621 82.5276,35.0621 C82.163,35.0621 81.9234,35.3955 81.8088,36.0621 C81.7567,36.4371 81.7307,36.9423 81.7307,37.5777 L81.7307,40.3277 C81.7307,41.6819 81.8973,42.4736 82.2307,42.7027 C82.3244,42.7652 82.4338,42.7965 82.5588,42.7965"/>
<path class="StaffText" d="M69.3335,25.2057 C69.7814,25.2057 70.2814,25.3203 70.8335,25.5495 C71.073,25.6432 71.2449,25.6901 71.3491,25.6901 C71.4949,25.6901 71.6251,25.5807 71.7397,25.362 C71.7501,25.3203 71.7658,25.2787 71.7866,25.237 L72.0522,25.237 L72.0522,27.5807 L71.8022,27.5807 C71.5314,26.9766 71.2501,26.5339 70.9585,26.2526 C70.896,26.1901 70.8387,26.138 70.7866,26.0964 C70.3595,25.7214 69.9168,25.5339 69.4585,25.5339 C68.4585,25.5339 67.8647,26.2526 67.6772,27.6901 C67.646,28.013 67.6303,28.362 67.6303,28.737 C67.6303,29.9245 67.8439,30.7943 68.271,31.3464 C68.6043,31.763 69.0626,31.9714 69.646,31.9714 C70.2085,31.9714 70.5262,31.7943 70.5991,31.4401 C70.6095,31.3776 70.6147,31.3099 70.6147,31.237 L70.6147,30.1901 C70.6147,29.8985 70.5418,29.711 70.396,29.6276 C70.2501,29.5547 69.9845,29.5078 69.5991,29.487 L69.5991,29.237 L73.0366,29.237 L73.0366,29.487 C72.6303,29.5287 72.3803,29.6172 72.2866,29.7526 C72.2137,29.8672 72.1772,30.086 72.1772,30.4089 L72.1772,31.6745 C71.5835,32.0287 70.797,32.237 69.8178,32.2995 C69.6824,32.2995 69.547,32.2995 69.4116,32.2995 C68.297,32.2995 67.4064,31.9401 66.7397,31.2214 C66.146,30.5755 65.8491,29.7682 65.8491,28.7995 C65.8491,27.7578 66.1928,26.8932 66.8803,26.2057 C67.547,25.5391 68.3647,25.2057 69.3335,25.2057 M77.0991,28.8307 C76.8803,28.8307 76.6668,28.711 76.4585,28.4714 C76.3439,28.3255 76.2605,28.2474 76.2085,28.237 C75.9897,28.237 75.823,28.388 75.7085,28.6901 C75.6355,28.8464 75.5991,29.013 75.5991,29.1901 L75.5991,31.0807 C75.5991,31.4453 75.672,31.6693 75.8178,31.7526 C75.9116,31.8151 76.0835,31.8568 76.3335,31.8776 L76.3335,32.112 L73.6928,32.112 L73.6928,31.8776 C73.9637,31.8255 74.1251,31.7318 74.1772,31.5964 C74.198,31.5235 74.2085,31.4141 74.2085,31.2682 L74.2085,28.3307 C74.2085,28.0703 74.1355,27.9037 73.9897,27.8307 C73.9168,27.7891 73.8178,27.7578 73.6928,27.737 L73.6928,27.5026 L75.5678,27.5026 L75.5678,28.3307 C75.9428,27.7787 76.3126,27.4714 76.6772,27.4089 C76.7605,27.388 76.8387,27.3776 76.9116,27.3776 C77.2553,27.3776 77.5001,27.5182 77.646,27.7995 C77.698,27.9141 77.7241,28.0339 77.7241,28.1589 C77.7241,28.4714 77.5991,28.6797 77.3491,28.7839 C77.2658,28.8151 77.1824,28.8307 77.0991,28.8307 M78.9741,28.0807 C78.9741,28.112 79.0262,28.2057 79.1303,28.362 C79.2241,28.5078 79.271,28.6328 79.271,28.737 C79.271,28.9974 79.1408,29.1745 78.8803,29.2682 C78.7866,29.2995 78.6928,29.3151 78.5991,29.3151 C78.2345,29.3151 78.021,29.1537 77.9585,28.8307 C77.948,28.7682 77.9428,28.711 77.9428,28.6589 C77.9428,28.1901 78.198,27.8412 78.7085,27.612 C79.0314,27.4557 79.4064,27.3776 79.8335,27.3776 C80.7085,27.3776 81.3074,27.6172 81.6303,28.0964 C81.7553,28.2943 81.8178,28.5182 81.8178,28.7682 L81.8178,31.3464 C81.8283,31.5026 81.896,31.586 82.021,31.5964 C82.073,31.586 82.1095,31.5703 82.1303,31.5495 L82.2397,31.4557 L82.3803,31.6589 C81.9845,32.0339 81.6147,32.2318 81.271,32.2526 C80.896,32.2526 80.6512,32.112 80.5366,31.8307 C80.5053,31.737 80.4741,31.638 80.4428,31.5339 C79.9012,32.0026 79.3751,32.2422 78.8647,32.2526 C78.4272,32.2526 78.1095,32.086 77.9116,31.7526 C77.8074,31.586 77.7553,31.4037 77.7553,31.2057 C77.7553,30.6224 78.2033,30.1485 79.0991,29.7839 C79.3387,29.6797 79.7866,29.5287 80.4428,29.3307 L80.4428,28.5964 C80.4428,28.0651 80.2241,27.7735 79.7866,27.7214 C79.7241,27.7214 79.6616,27.7214 79.5991,27.7214 C79.3074,27.7214 79.1095,27.8047 79.0053,27.9714 C78.9845,28.0026 78.9741,28.0391 78.9741,28.0807 M80.4272,31.0964 L80.4272,29.6589 C79.6251,29.8776 79.2189,30.2787 79.2085,30.862 C79.2085,31.1953 79.3178,31.4037 79.5366,31.487 C79.5991,31.5078 79.6616,31.5182 79.7241,31.5182 C79.9533,31.5182 80.1876,31.3776 80.4272,31.0964 M85.896,32.237 L85.896,31.5964 C85.5418,31.9714 85.198,32.1849 84.8647,32.237 C84.771,32.2474 84.672,32.2526 84.5678,32.2526 C83.9741,32.2526 83.5053,31.9766 83.1616,31.4245 C82.8908,30.9974 82.7553,30.4922 82.7553,29.9089 C82.7553,29.0547 83.0001,28.3828 83.4897,27.8932 C83.823,27.5495 84.2189,27.3776 84.6772,27.3776 C85.0314,27.3776 85.3543,27.513 85.646,27.7839 C85.7293,27.8568 85.8022,27.9245 85.8647,27.987 L85.8647,26.1745 C85.8647,25.9245 85.8074,25.7682 85.6928,25.7057 C85.5887,25.6537 85.3908,25.6172 85.0991,25.5964 L85.0991,25.362 L87.2553,25.362 L87.2553,31.112 C87.2553,31.3932 87.3387,31.5651 87.5053,31.6276 C87.5887,31.6589 87.7033,31.6797 87.8491,31.6901 L87.8491,31.9245 L87.2241,32.0026 C86.672,32.0755 86.2293,32.1537 85.896,32.237 M85.021,31.7057 C85.3126,31.7057 85.5626,31.5391 85.771,31.2057 C85.823,31.112 85.8543,31.0443 85.8647,31.0026 L85.8647,28.5495 C85.7397,28.2162 85.5314,28.0182 85.2397,27.9557 C85.1876,27.9453 85.1355,27.9401 85.0835,27.9401 C84.573,27.9401 84.2918,28.4453 84.2397,29.4557 C84.2397,29.5703 84.2397,29.6953 84.2397,29.8307 C84.2397,31.0703 84.5001,31.6953 85.021,31.7057 M90.1928,29.6589 C90.2449,30.6797 90.5105,31.2787 90.9897,31.4557 C91.1147,31.4974 91.2449,31.5182 91.3803,31.5182 C91.7449,31.5182 92.0783,31.3516 92.3803,31.0182 C92.4324,30.9662 92.4793,30.9141 92.521,30.862 L92.7553,31.0026 C92.3387,31.6068 91.9272,31.987 91.521,32.1432 C91.3126,32.2162 91.0783,32.2526 90.8178,32.2526 C90.0678,32.2526 89.5053,31.9453 89.1303,31.3307 C88.8803,30.9141 88.7553,30.4141 88.7553,29.8307 C88.7553,28.9349 89.0262,28.263 89.5678,27.8151 C89.9324,27.5235 90.3595,27.3776 90.8491,27.3776 C91.9533,27.3776 92.573,28.0964 92.7085,29.5339 C92.7085,29.5755 92.7085,29.6172 92.7085,29.6589 L90.1928,29.6589 M91.4897,29.1432 C91.4689,28.5182 91.4012,28.1224 91.2866,27.9557 C91.1928,27.7995 91.047,27.7214 90.8491,27.7214 C90.5574,27.7214 90.3595,27.8932 90.2553,28.237 C90.1928,28.4766 90.1564,28.8307 90.146,29.2995 L91.4897,29.2995 L91.4897,29.1432 M95.7397,28.7214 C95.7397,27.6276 96.0001,26.737 96.521,26.0495 C96.948,25.5182 97.4428,25.2474 98.0053,25.237 C98.6616,25.237 99.2033,25.5755 99.6303,26.2526 C100.047,26.9297 100.255,27.7578 100.255,28.737 C100.255,29.8828 99.9897,30.7943 99.4585,31.4714 C99.0522,31.9818 98.573,32.237 98.021,32.237 C97.323,32.237 96.7605,31.8828 96.3335,31.1745 C95.9376,30.5182 95.7397,29.7005 95.7397,28.7214 M98.021,31.9557 C98.3126,31.9557 98.5053,31.6849 98.5991,31.1432 C98.6512,30.8203 98.6772,30.4037 98.6772,29.8932 L98.6772,27.612 C98.6772,26.4037 98.521,25.7214 98.2085,25.5651 C98.1355,25.5339 98.0626,25.5182 97.9897,25.5182 C97.6876,25.5182 97.4897,25.7943 97.396,26.3464 C97.3439,26.6589 97.3178,27.0807 97.3178,27.612 L97.3178,29.8932 C97.3178,31.0287 97.4585,31.6901 97.7397,31.8776 C97.823,31.9297 97.9168,31.9557 98.021,31.9557 M102.162,30.5495 C102.485,30.5495 102.729,30.6901 102.896,30.9714 C102.979,31.1172 103.021,31.263 103.021,31.4089 C103.021,31.7214 102.88,31.961 102.599,32.1276 C102.453,32.2005 102.307,32.237 102.162,32.237 C101.828,32.237 101.583,32.0964 101.427,31.8151 C101.354,31.6797 101.318,31.5391 101.318,31.3932 C101.318,31.0912 101.453,30.8568 101.724,30.6901 C101.86,30.5964 102.005,30.5495 102.162,30.5495 M102.162,27.3932 C102.485,27.3932 102.729,27.5287 102.896,27.7995 C102.979,27.9453 103.021,28.0912 103.021,28.237 C103.021,28.5599 102.88,28.8047 102.599,28.9714 C102.464,29.0443 102.318,29.0807 102.162,29.0807 C101.828,29.0807 101.583,28.9349 101.427,28.6432 C101.354,28.5078 101.318,28.3672 101.318,28.2214 C101.318,27.9193 101.453,27.6849 101.724,27.5182 C101.86,27.4349 102.005,27.3932 102.162,27.3932"/>
<path class="StaffText" d="M113.349,28.7682 C113.349,29.7162 113.052,30.487 112.458,31.0807 C111.771,31.7682 110.781,32.112 109.49,32.112 L106.662,32.112 L106.662,31.9245 C107.068,31.8932 107.318,31.8099 107.412,31.6745 C107.495,31.5599 107.537,31.3412 107.537,31.0182 L107.537,26.5807 C107.537,26.2057 107.485,25.9662 107.38,25.862 C107.266,25.7787 107.026,25.7214 106.662,25.6901 L106.662,25.5026 L109.349,25.5026 C111.162,25.5026 112.37,26.0703 112.974,27.2057 C113.224,27.6745 113.349,28.1953 113.349,28.7682 M112.255,28.8464 C112.255,27.7839 111.906,26.9922 111.208,26.4714 C110.667,26.0755 109.953,25.8776 109.068,25.8776 C108.797,25.8776 108.636,25.9401 108.583,26.0651 C108.563,26.1172 108.552,26.1849 108.552,26.2682 L108.552,31.3307 C108.552,31.5391 108.63,31.6641 108.787,31.7057 C108.87,31.7266 108.964,31.737 109.068,31.737 C111.078,31.737 112.136,30.8776 112.24,29.1589 C112.25,29.0547 112.255,28.9505 112.255,28.8464 M116.63,28.1589 L116.63,27.987 C117.11,27.8412 117.578,27.6849 118.037,27.5182 L118.099,27.5339 L118.099,28.2995 C118.672,27.862 119.083,27.612 119.333,27.5495 C119.438,27.5287 119.542,27.5182 119.646,27.5182 C120.177,27.5287 120.531,27.8151 120.708,28.3776 C121.24,27.8047 121.787,27.5182 122.349,27.5182 C123.11,27.5287 123.495,28.1276 123.505,29.3151 L123.505,31.362 C123.516,31.7266 123.656,31.9193 123.927,31.9401 L124.193,31.9557 L124.193,32.112 L122.005,32.112 L122.005,31.9557 C122.328,31.9245 122.521,31.8516 122.583,31.737 C122.636,31.6432 122.662,31.4818 122.662,31.2526 L122.662,29.1432 C122.662,28.5912 122.552,28.2578 122.333,28.1432 C122.229,28.0807 122.089,28.0495 121.912,28.0495 C121.464,28.0599 121.099,28.263 120.818,28.6589 L120.818,31.1745 C120.818,31.5495 120.906,31.7839 121.083,31.8776 C121.188,31.9297 121.339,31.9557 121.537,31.9557 L121.537,32.112 L119.302,32.112 L119.302,31.9557 C119.625,31.9349 119.823,31.862 119.896,31.737 C119.958,31.6432 119.99,31.4818 119.99,31.2526 L119.99,29.0964 C119.99,28.3985 119.766,28.0495 119.318,28.0495 C118.953,28.0495 118.63,28.1693 118.349,28.4089 C118.276,28.4818 118.208,28.5599 118.146,28.6432 L118.146,31.4401 C118.146,31.6901 118.235,31.8464 118.412,31.9089 C118.505,31.9401 118.641,31.9557 118.818,31.9557 L118.818,32.112 L116.599,32.112 L116.599,31.9557 C116.953,31.9557 117.167,31.8724 117.24,31.7057 C117.281,31.6016 117.302,31.4557 117.302,31.2682 L117.302,28.7526 C117.302,28.3776 117.224,28.1693 117.068,28.1276 C117.037,28.1172 117,28.112 116.958,28.112 C116.854,28.112 116.745,28.1276 116.63,28.1589 M125.13,28.1901 C124.974,28.1901 124.833,28.2005 124.708,28.2214 L124.708,28.0651 C125.177,27.9297 125.693,27.7474 126.255,27.5182 L126.287,27.5495 L126.287,31.0964 C126.287,31.4818 126.344,31.7214 126.458,31.8151 C126.552,31.888 126.745,31.9349 127.037,31.9557 L127.037,32.112 L124.662,32.112 L124.662,31.9557 C125.026,31.9349 125.255,31.8672 125.349,31.7526 C125.422,31.638 125.458,31.4193 125.458,31.0964 L125.458,28.7682 C125.458,28.4141 125.375,28.2214 125.208,28.1901 C125.177,28.1901 125.151,28.1901 125.13,28.1901 M125.787,25.2839 C126.005,25.2839 126.162,25.3828 126.255,25.5807 C126.287,25.6537 126.302,25.7266 126.302,25.7995 C126.302,26.0182 126.198,26.1745 125.99,26.2682 C125.917,26.2891 125.849,26.2995 125.787,26.2995 C125.568,26.2995 125.412,26.2005 125.318,26.0026 C125.297,25.9297 125.287,25.862 125.287,25.7995 C125.287,25.5807 125.38,25.4245 125.568,25.3307 C125.641,25.2995 125.714,25.2839 125.787,25.2839 M127.599,28.1276 L127.599,27.9557 C128.099,27.8099 128.563,27.6641 128.99,27.5182 L129.052,27.5339 L129.052,28.3151 C129.531,27.8776 129.906,27.6224 130.177,27.5495 C130.281,27.5287 130.391,27.5182 130.505,27.5182 C131.047,27.5182 131.406,27.7891 131.583,28.3307 C131.646,28.5287 131.677,28.7526 131.677,29.0026 L131.677,31.2995 C131.677,31.612 131.75,31.8047 131.896,31.8776 C131.99,31.9089 132.12,31.9349 132.287,31.9557 L132.287,32.112 L130.208,32.112 L130.208,31.9557 C130.511,31.9349 130.698,31.836 130.771,31.6589 C130.823,31.5443 130.849,31.3672 130.849,31.1276 L130.849,29.0339 C130.828,28.388 130.583,28.0599 130.115,28.0495 C129.865,28.0495 129.604,28.1641 129.333,28.3932 C129.261,28.4662 129.177,28.5443 129.083,28.6276 L129.083,31.4401 C129.083,31.6797 129.182,31.836 129.38,31.9089 C129.474,31.9297 129.594,31.9453 129.74,31.9557 L129.74,32.112 L127.63,32.112 L127.63,31.9557 C127.922,31.9349 128.104,31.8516 128.177,31.7057 C128.219,31.5912 128.24,31.4245 128.24,31.2057 L128.24,28.7214 C128.24,28.3568 128.167,28.1537 128.021,28.112 C127.979,28.0912 127.932,28.0807 127.88,28.0807 C127.755,28.0807 127.662,28.0964 127.599,28.1276 M134.958,27.5182 C135.698,27.5182 136.281,27.7891 136.708,28.3307 C137.011,28.737 137.162,29.2162 137.162,29.7682 C137.162,30.5495 136.906,31.1745 136.396,31.6432 C135.979,32.0182 135.495,32.2057 134.943,32.2057 C134.235,32.2057 133.672,31.9349 133.255,31.3932 C132.922,30.9557 132.755,30.4401 132.755,29.8464 C132.755,29.0339 133.031,28.4089 133.583,27.9714 C133.969,27.6693 134.427,27.5182 134.958,27.5182 M133.662,29.362 C133.662,30.2682 133.849,30.961 134.224,31.4401 C134.464,31.7526 134.745,31.9089 135.068,31.9089 C135.589,31.9089 135.948,31.612 136.146,31.0182 C136.229,30.7578 136.271,30.461 136.271,30.1276 C136.271,29.2422 136.057,28.586 135.63,28.1589 C135.401,27.9297 135.136,27.8151 134.833,27.8151 C134.365,27.8151 134.026,28.0547 133.818,28.5339 C133.714,28.7735 133.662,29.0495 133.662,29.362 M140.521,28.487 C140.417,28.487 140.266,28.4037 140.068,28.237 C139.974,28.1537 139.901,28.112 139.849,28.112 C139.682,28.112 139.511,28.2422 139.333,28.5026 C139.219,28.6693 139.162,28.8151 139.162,28.9401 L139.162,31.2057 C139.162,31.5495 139.25,31.763 139.427,31.8464 C139.552,31.9089 139.745,31.9453 140.005,31.9557 L140.005,32.112 L137.599,32.112 L137.599,31.9557 C137.953,31.8932 138.167,31.8099 138.24,31.7057 C138.292,31.6224 138.318,31.4766 138.318,31.2682 L138.318,28.7526 C138.318,28.388 138.235,28.1901 138.068,28.1589 C138.037,28.1485 138.005,28.1432 137.974,28.1432 C137.86,28.1432 137.745,28.1589 137.63,28.1901 L137.63,28.0339 C138.162,27.8672 138.651,27.6953 139.099,27.5182 L139.162,27.5339 L139.162,28.4245 C139.505,27.9453 139.797,27.6589 140.037,27.5651 C140.141,27.5339 140.245,27.5182 140.349,27.5182 C140.662,27.5182 140.844,27.6485 140.896,27.9089 C140.896,27.9505 140.896,27.9974 140.896,28.0495 C140.865,28.3203 140.74,28.4662 140.521,28.487 M146.177,27.7214 C146.198,27.711 146.255,27.6745 146.349,27.612 L146.458,27.612 L146.49,28.9714 L146.349,28.9714 C146.182,28.3255 145.943,27.9401 145.63,27.8151 C145.516,27.763 145.386,27.737 145.24,27.737 C144.886,27.737 144.646,27.8776 144.521,28.1589 C144.49,28.2422 144.474,28.3307 144.474,28.4245 C144.485,28.7057 144.63,28.9297 144.912,29.0964 L145.99,29.737 C146.469,30.0287 146.74,30.3464 146.802,30.6901 C146.813,30.763 146.818,30.8464 146.818,30.9401 C146.818,31.3568 146.636,31.6953 146.271,31.9557 C146.011,32.1224 145.724,32.2057 145.412,32.2057 C145.276,32.2057 144.969,32.1589 144.49,32.0651 C144.375,32.0443 144.287,32.0339 144.224,32.0339 C144.12,32.0443 144.042,32.086 143.99,32.1589 L143.865,32.1589 L143.865,30.5964 L144.021,30.5964 C144.125,31.0651 144.255,31.3932 144.412,31.5807 C144.63,31.8516 144.922,31.987 145.287,31.987 C145.714,31.987 145.979,31.8307 146.083,31.5182 C146.115,31.4453 146.13,31.362 146.13,31.2682 C146.12,30.9662 145.943,30.7162 145.599,30.5182 L145.021,30.1901 C144.396,29.836 144.026,29.4818 143.912,29.1276 C143.87,29.0026 143.849,28.8776 143.849,28.7526 C143.849,28.2839 144.052,27.9349 144.458,27.7057 C144.688,27.5807 144.938,27.5182 145.208,27.5182 C145.427,27.5182 145.688,27.5703 145.99,27.6745 C146.073,27.7057 146.136,27.7214 146.177,27.7214 M147.755,29.987 C147.755,29.1432 148.042,28.4818 148.615,28.0026 C149.011,27.6797 149.453,27.5182 149.943,27.5182 C150.495,27.5182 150.922,27.6693 151.224,27.9714 C151.401,28.1485 151.49,28.3412 151.49,28.5495 C151.49,28.7266 151.396,28.8516 151.208,28.9245 C151.136,28.9557 151.068,28.9714 151.005,28.9714 C150.797,28.9714 150.646,28.836 150.552,28.5651 C150.542,28.5443 150.537,28.5235 150.537,28.5026 L150.474,28.2839 C150.412,28.0339 150.297,27.888 150.13,27.8464 C150.057,27.8255 149.974,27.8151 149.88,27.8151 C149.38,27.8151 149,28.0547 148.74,28.5339 C148.594,28.8255 148.521,29.1641 148.521,29.5495 C148.521,30.2787 148.745,30.8255 149.193,31.1901 C149.453,31.388 149.745,31.487 150.068,31.487 C150.485,31.487 150.844,31.3203 151.146,30.987 C151.25,30.862 151.365,30.7162 151.49,30.5495 L151.63,30.6432 C151.255,31.362 150.839,31.8307 150.38,32.0495 C150.141,32.1537 149.901,32.2057 149.662,32.2057 C149.016,32.2057 148.511,31.9401 148.146,31.4089 C147.886,31.0026 147.755,30.5287 147.755,29.987 M151.755,31.1432 C151.755,30.6328 152.073,30.2005 152.708,29.8464 C152.896,29.7526 153.396,29.5391 154.208,29.2057 C154.229,29.2057 154.245,29.2005 154.255,29.1901 L154.255,28.5807 C154.203,28.0599 153.948,27.7839 153.49,27.7526 C153.177,27.7526 152.958,27.8516 152.833,28.0495 C152.792,28.1224 152.771,28.1849 152.771,28.237 C152.771,28.2995 152.781,28.3828 152.802,28.487 C152.813,28.5599 152.818,28.612 152.818,28.6432 C152.818,28.8203 152.729,28.9453 152.552,29.0182 C152.49,29.0495 152.432,29.0651 152.38,29.0651 C152.193,29.0651 152.063,28.9766 151.99,28.7995 C151.958,28.7474 151.943,28.6901 151.943,28.6276 C151.943,28.263 152.162,27.9662 152.599,27.737 C152.901,27.5912 153.245,27.5182 153.63,27.5182 C154.349,27.5182 154.792,27.7735 154.958,28.2839 C155.031,28.5026 155.068,28.7787 155.068,29.112 L155.068,31.0495 C155.068,31.3828 155.13,31.5703 155.255,31.612 C155.297,31.6224 155.333,31.6276 155.365,31.6276 C155.511,31.6172 155.656,31.5547 155.802,31.4401 L155.802,31.6901 C155.531,32.0026 155.281,32.1745 155.052,32.2057 C155,32.2057 154.948,32.2057 154.896,32.2057 C154.583,32.2057 154.386,32.0495 154.302,31.737 C154.281,31.6537 154.271,31.5599 154.271,31.4557 C153.677,31.9349 153.188,32.1849 152.802,32.2057 C152.375,32.2057 152.068,32.0339 151.88,31.6901 C151.797,31.5235 151.755,31.3412 151.755,31.1432 M154.255,30.862 L154.255,29.4245 C153.432,29.7266 152.927,30.0339 152.74,30.3464 C152.667,30.4922 152.63,30.6485 152.63,30.8151 C152.63,31.211 152.776,31.461 153.068,31.5651 C153.141,31.5964 153.208,31.612 153.271,31.612 C153.49,31.6016 153.729,31.5235 153.99,31.3776 C154.136,31.2943 154.219,31.1901 154.24,31.0651 C154.25,31.0026 154.255,30.9349 154.255,30.862 M155.599,25.8776 L155.599,25.7214 C156.266,25.5547 156.797,25.4089 157.193,25.2839 L157.24,25.2995 L157.24,31.2682 C157.24,31.5807 157.302,31.7735 157.427,31.8464 C157.542,31.8985 157.729,31.9349 157.99,31.9557 L157.99,32.112 L155.63,32.112 L155.63,31.9557 C156.005,31.9245 156.235,31.836 156.318,31.6901 C156.37,31.5964 156.396,31.4453 156.396,31.237 L156.396,26.4714 C156.396,26.138 156.323,25.9453 156.177,25.8932 C156.115,25.8724 156.047,25.862 155.974,25.862 C155.839,25.862 155.714,25.8672 155.599,25.8776 M159.474,29.3464 C159.516,30.5235 159.901,31.2162 160.63,31.4245 C160.755,31.4662 160.891,31.487 161.037,31.487 C161.526,31.487 161.943,31.2787 162.287,30.862 C162.38,30.7474 162.479,30.612 162.583,30.4557 L162.74,30.5182 C162.375,31.4766 161.802,32.0287 161.021,32.1745 C160.886,32.1953 160.755,32.2057 160.63,32.2057 C159.891,32.2057 159.36,31.8932 159.037,31.2682 C158.849,30.8932 158.755,30.461 158.755,29.9714 C158.755,29.086 159.031,28.4141 159.583,27.9557 C159.948,27.6641 160.37,27.5182 160.849,27.5182 C161.766,27.5182 162.318,28.0391 162.505,29.0807 C162.526,29.1745 162.542,29.263 162.552,29.3464 L159.474,29.3464 M159.49,29.0495 L161.537,29.0495 C161.443,28.4766 161.276,28.1224 161.037,27.987 C160.912,27.9245 160.75,27.8932 160.552,27.8932 C159.958,27.8932 159.604,28.2682 159.49,29.0182 C159.49,29.0287 159.49,29.0391 159.49,29.0495 M168.099,27.612 L168.099,27.9089 L167.083,27.9089 L167.083,30.7682 C167.083,31.3099 167.219,31.6068 167.49,31.6589 C167.521,31.6693 167.557,31.6745 167.599,31.6745 C167.807,31.6641 168.011,31.5443 168.208,31.3151 L168.333,31.4401 C168.011,31.9505 167.61,32.2057 167.13,32.2057 C166.547,32.1953 166.25,31.7735 166.24,30.9401 L166.24,27.9089 L165.708,27.9089 C165.688,27.888 165.677,27.8672 165.677,27.8464 C165.677,27.8047 165.719,27.763 165.802,27.7214 C166.083,27.5339 166.417,27.1693 166.802,26.6276 C166.813,26.6172 166.818,26.612 166.818,26.612 C166.922,26.4557 166.99,26.362 167.021,26.3307 C167.063,26.3412 167.083,26.3828 167.083,26.4557 L167.083,27.612 L168.099,27.612 M170.958,27.5182 C171.698,27.5182 172.281,27.7891 172.708,28.3307 C173.011,28.737 173.162,29.2162 173.162,29.7682 C173.162,30.5495 172.906,31.1745 172.396,31.6432 C171.979,32.0182 171.495,32.2057 170.943,32.2057 C170.235,32.2057 169.672,31.9349 169.255,31.3932 C168.922,30.9557 168.755,30.4401 168.755,29.8464 C168.755,29.0339 169.031,28.4089 169.583,27.9714 C169.969,27.6693 170.427,27.5182 170.958,27.5182 M169.662,29.362 C169.662,30.2682 169.849,30.961 170.224,31.4401 C170.464,31.7526 170.745,31.9089 171.068,31.9089 C171.589,31.9089 171.948,31.612 172.146,31.0182 C172.229,30.7578 172.271,30.461 172.271,30.1276 C172.271,29.2422 172.057,28.586 171.63,28.1589 C171.401,27.9297 171.136,27.8151 170.833,27.8151 C170.365,27.8151 170.026,28.0547 169.818,28.5339 C169.714,28.7735 169.662,29.0495 169.662,29.362 M180.068,30.1432 C180.068,29.2266 179.573,28.5807 178.583,28.2057 C178.136,28.0391 177.698,27.9557 177.271,27.9557 C177.198,27.9453 177.156,27.9193 177.146,27.8776 C177.146,27.8464 177.151,27.8255 177.162,27.8151 L178.24,25.5026 L180.333,25.5026 C180.511,25.5026 180.651,25.4297 180.755,25.2839 C180.766,25.263 180.776,25.2474 180.787,25.237 L180.88,25.2995 L180.505,26.1432 C180.464,26.1953 180.386,26.2214 180.271,26.2214 L178.318,26.2214 L177.896,27.0807 C179.198,27.3203 180.047,27.7526 180.443,28.3776 C180.662,28.7214 180.771,29.1537 180.771,29.6745 C180.771,30.8099 180.297,31.5807 179.349,31.987 C178.943,32.1641 178.511,32.2526 178.052,32.2526 C177.406,32.2526 177.011,32.1068 176.865,31.8151 C176.833,31.763 176.818,31.7005 176.818,31.6276 C176.839,31.388 176.985,31.2682 177.255,31.2682 C177.443,31.2682 177.688,31.3724 177.99,31.5807 C178.281,31.7787 178.511,31.8776 178.677,31.8776 C179.146,31.8776 179.516,31.6589 179.787,31.2214 C179.974,30.8985 180.068,30.5391 180.068,30.1432 M184.099,27.612 L184.099,27.9089 L183.083,27.9089 L183.083,30.7682 C183.083,31.3099 183.219,31.6068 183.49,31.6589 C183.521,31.6693 183.557,31.6745 183.599,31.6745 C183.807,31.6641 184.011,31.5443 184.208,31.3151 L184.333,31.4401 C184.011,31.9505 183.61,32.2057 183.13,32.2057 C182.547,32.1953 182.25,31.7735 182.24,30.9401 L182.24,27.9089 L181.708,27.9089 C181.688,27.888 181.677,27.8672 181.677,27.8464 C181.677,27.8047 181.719,27.763 181.802,27.7214 C182.083,27.5339 182.417,27.1693 182.802,26.6276 C182.813,26.6172 182.818,26.612 182.818,26.612 C182.922,26.4557 182.99,26.362 183.021,26.3307 C183.063,26.3412 183.083,26.3828 183.083,26.4557 L183.083,27.612 L184.099,27.612 M186.083,28.6901 L186.083,31.0964 C186.083,31.4818 186.146,31.7214 186.271,31.8151 C186.365,31.888 186.531,31.9349 186.771,31.9557 L186.771,32.112 L184.599,32.112 L184.599,31.9557 C184.901,31.9245 185.089,31.8516 185.162,31.737 C185.214,31.6328 185.24,31.4193 185.24,31.0964 L185.24,26.3776 C185.24,26.1172 185.188,25.961 185.083,25.9089 C185.021,25.8776 184.922,25.862 184.787,25.862 C184.735,25.862 184.677,25.8672 184.615,25.8776 L184.615,25.7214 C185.094,25.5964 185.568,25.4505 186.037,25.2839 L186.083,25.3151 L186.083,28.3464 C186.469,27.8568 186.88,27.5807 187.318,27.5182 C187.391,27.5182 187.469,27.5182 187.552,27.5182 C188.365,27.5287 188.776,28.0547 188.787,29.0964 L188.787,31.0964 C188.787,31.4714 188.833,31.7057 188.927,31.7995 C189,31.8724 189.151,31.9245 189.38,31.9557 L189.38,32.112 L187.271,32.112 L187.271,31.9557 C187.583,31.9245 187.776,31.8412 187.849,31.7057 C187.912,31.5912 187.943,31.388 187.943,31.0964 L187.943,29.112 C187.932,28.4141 187.682,28.0599 187.193,28.0495 C186.87,28.0495 186.542,28.2162 186.208,28.5495 C186.167,28.6016 186.125,28.6485 186.083,28.6901"/>
</svg>
