<?xml version="1.0" encoding="UTF-8" standalone="no"?>
<svg width="595.44px" height="841.68px" viewBox="0 0 595.44 841.68"
 xmlns="http://www.w3.org/2000/svg" xmlns:xlink="http://www.w3.org/1999/xlink" version="1.2" baseProfile="tiny">
<title>Guitar Scales and Arpeggios</title>
<desc>Generated by MuseScore 2.1.0</desc>
<polyline class="StaffLines" fill="none" stroke="#000000" stroke-width="0.40" stroke-linejoin="bevel" points="28.08,62.856 567.36,62.856"/>
<polyline class="StaffLines" fill="none" stroke="#000000" stroke-width="0.40" stroke-linejoin="bevel" points="28.08,67.824 567.36,67.824"/>
<polyline class="StaffLines" fill="none" stroke="#000000" stroke-width="0.40" stroke-linejoin="bevel" points="28.08,72.792 567.36,72.792"/>
<polyline class="StaffLines" fill="none" stroke="#000000" stroke-width="0.40" stroke-linejoin="bevel" points="28.08,77.76 567.36,77.76"/>
<polyline class="StaffLines" fill="none" stroke="#000000" stroke-width="0.40" stroke-linejoin="bevel" points="28.08,82.728 567.36,82.728"/>
<polyline class="StaffLines" fill="none" stroke="#000000" stroke-width="0.40" stroke-linejoin="bevel" points="28.08,115.02 567.36,115.02"/>
<polyline class="StaffLines" fill="none" stroke="#000000" stroke-width="0.40" stroke-linejoin="bevel" points="28.08,122.472 567.36,122.472"/>
<polyline class="StaffLines" fill="none" stroke="#000000" stroke-width="0.40" stroke-linejoin="bevel" points="28.08,129.924 567.36,129.924"/>
<polyline class="StaffLines" fill="none" stroke="#000000" stroke-width="0.40" stroke-linejoin="bevel" points="28.08,137.376 567.36,137.376"/>
<polyline class="StaffLines" fill="none" stroke="#000000" stroke-width="0.40" stroke-linejoin="bevel" points="28.08,144.828 567.36,144.828"/>
<polyline class="StaffLines" fill="none" stroke="#000000" stroke-width="0.40" stroke-linejoin="bevel" points="28.08,152.28 567.36,152.28"/>
<polyline class="BarLine" fill="none" stroke="#000000" stroke-width="0.79" stroke-linejoin="bevel" points="28.4774,62.856 28.4774,152.28"/>
<polyline class="BarLine" fill="none" stroke="#000000" stroke-width="0.79" stroke-linejoin="bevel" points="562.491,115.02 562.491,152.28"/>
<polyline class="BarLine" fill="none" stroke="#000000" stroke-width="2.48" stroke-linejoin="bevel" points="566.118,115.02 566.118,152.28"/>
<polyline class="BarLine" fill="none" stroke="#000000" stroke-width="0.79" stroke-linejoin="bevel" points="562.491,62.856 562.491,82.728"/>
<polyline class="BarLine" fill="none" stroke="#000000" stroke-width="2.48" stroke-linejoin="bevel" points="566.118,62.856 566.118,82.728"/>
<polyline class="Stem" fill="none" stroke="#000000" stroke-width="0.65" stroke-linecap="round" stroke-linejoin="bevel" points="485.726,79.4809 485.726,62.856"/>
<polyline class="Stem" fill="none" stroke="#000000" stroke-width="0.65" stroke-linecap="round" stroke-linejoin="bevel" points="433.819,76.8269 433.819,60.993"/>
<polyline class="Stem" fill="none" stroke="#000000" stroke-width="0.65" stroke-linecap="round" stroke-linejoin="bevel" points="382.091,74.3429 382.091,59.13"/>
<polyline class="Stem" fill="none" stroke="#000000" stroke-width="0.65" stroke-linecap="round" stroke-linejoin="bevel" points="324.468,73.7251 324.468,88.317"/>
<polyline class="Stem" fill="none" stroke="#000000" stroke-width="0.65" stroke-linecap="round" stroke-linejoin="bevel" points="272.74,71.2411 272.74,86.454"/>
<polyline class="Stem" fill="none" stroke="#000000" stroke-width="0.65" stroke-linecap="round" stroke-linejoin="bevel" points="221.012,73.7251 221.012,88.317"/>
<polyline class="Stem" fill="none" stroke="#000000" stroke-width="0.65" stroke-linecap="round" stroke-linejoin="bevel" points="175.179,74.3429 175.179,59.13"/>
<polyline class="Stem" fill="none" stroke="#000000" stroke-width="0.65" stroke-linecap="round" stroke-linejoin="bevel" points="123.451,76.8269 123.451,60.993"/>
<polyline class="Stem" fill="none" stroke="#000000" stroke-width="0.65" stroke-linecap="round" stroke-linejoin="bevel" points="71.7231,79.3109 71.7231,62.856"/>
<path class="Note" fill="#ffffff" fill-rule="evenodd" d="M480.074,133.65 L486.036,133.65 L486.036,141.102 L480.074,141.102 L480.074,133.65 "/>
<path class="Note" transform="matrix(0.9936,0,0,0.9936,480.571,140.854)" d="M2.4375,-5.64063 C1.75,-5.64063 1.35417,-5.32813 1.25,-4.70313 C1.22917,-4.59896 1.21875,-4.47917 1.21875,-4.34375 L0.421875,-4.34375 C0.442708,-5.59375 1.01563,-6.27083 2.14063,-6.375 C2.23438,-6.38542 2.32813,-6.39063 2.42188,-6.39063 C3.26563,-6.39063 3.84375,-6.10938 4.15625,-5.54688 C4.29167,-5.28646 4.35938,-4.98438 4.35938,-4.64063 C4.35938,-4.00521 4.0625,-3.57292 3.46875,-3.34375 C4.03125,-3.14583 4.375,-2.81771 4.5,-2.35938 C4.54167,-2.19271 4.5625,-2.00521 4.5625,-1.79688 C4.5625,-1.05729 4.27604,-0.505208 3.70313,-0.140625 C3.33854,0.0885417 2.90104,0.203125 2.39063,0.203125 C1.21354,0.203125 0.526042,-0.348958 0.328125,-1.45313 C0.317708,-1.57813 0.302083,-1.71354 0.28125,-1.85938 L1.07813,-1.85938 C1.13021,-1.08854 1.46875,-0.65625 2.09375,-0.5625 C2.19792,-0.541667 2.30729,-0.53125 2.42188,-0.53125 C3.04688,-0.53125 3.45313,-0.765625 3.64063,-1.23438 C3.71354,-1.40104 3.75,-1.58854 3.75,-1.79688 C3.73958,-2.54688 3.29688,-2.92708 2.42188,-2.9375 L2.09375,-2.92188 L1.98438,-2.92188 L1.98438,-3.67188 C2.66146,-3.68229 3.10417,-3.77604 3.3125,-3.95313 C3.47917,-4.09896 3.5625,-4.31771 3.5625,-4.60938 C3.5625,-5.09896 3.34896,-5.41667 2.92188,-5.5625 C2.77604,-5.61458 2.61458,-5.64063 2.4375,-5.64063"/>
<path class="Note" fill="#ebeb19" transform="matrix(0.9936,0,0,0.9936,479.15,80.244)" d="M6.3125,-1.3125 C6.3125,-1.53125 6.22917,-1.71875 6.0625,-1.875 C5.88542,-2.04167 5.6875,-2.125 5.46875,-2.125 C5.08333,-2.125 4.29688,-1.73438 3.10938,-0.953125 C1.88021,-0.161458 1.13021,0.40625 0.859375,0.75 C0.713542,0.927083 0.640625,1.11458 0.640625,1.3125 C0.640625,1.53125 0.729167,1.71875 0.90625,1.875 C1.0625,2.04167 1.25521,2.125 1.48438,2.125 C1.85938,2.125 2.65625,1.73438 3.875,0.953125 C5.07292,0.171875 5.8125,-0.395833 6.09375,-0.75 C6.23958,-0.916667 6.3125,-1.10417 6.3125,-1.3125 M5.28125,-2.75 C6.39583,-2.75 6.95313,-2.27083 6.95313,-1.3125 C6.95313,-0.84375 6.81771,-0.296875 6.54688,0.328125 C6.27604,0.942708 5.91146,1.41146 5.45313,1.73438 C4.45313,2.41146 3.19792,2.75 1.6875,2.75 C0.5625,2.75 0,2.27083 0,1.3125 C0,0.885417 0.135417,0.34375 0.40625,-0.3125 C0.666667,-0.9375 1.03125,-1.41146 1.5,-1.73438 C2.51042,-2.41146 3.77083,-2.75 5.28125,-2.75"/>
<path class="Note" fill="#ffffff" fill-rule="evenodd" d="M428.346,126.198 L434.308,126.198 L434.308,133.65 L428.346,133.65 L428.346,126.198 "/>
<path class="Note" transform="matrix(0.9936,0,0,0.9936,428.843,133.402)" d="M0.390625,-3.09375 C0.390625,-5 0.927083,-6.07813 2,-6.32813 C2.14583,-6.36979 2.30208,-6.39063 2.46875,-6.39063 C3.78125,-6.39063 4.47917,-5.40104 4.5625,-3.42188 C4.5625,-3.28646 4.5625,-3.15625 4.5625,-3.03125 C4.5625,-1.40625 4.15104,-0.385417 3.32813,0.03125 C3.06771,0.145833 2.78125,0.203125 2.46875,0.203125 C1.41667,0.203125 0.760417,-0.442708 0.5,-1.73438 C0.427083,-2.14063 0.390625,-2.59375 0.390625,-3.09375 M2.46875,-5.64063 C1.625,-5.63021 1.20313,-4.77083 1.20313,-3.0625 C1.20313,-1.32292 1.61979,-0.453125 2.45313,-0.453125 C3.16146,-0.453125 3.57813,-1.02604 3.70313,-2.17188 C3.73438,-2.44271 3.75,-2.75 3.75,-3.09375 C3.75,-4.79167 3.32292,-5.64063 2.46875,-5.64063"/>
<path class="Note" fill="#99cc33" transform="matrix(0.9936,0,0,0.9936,427.601,77.76)" d="M4.39063,-2.75 C5.01563,-2.75 5.54688,-2.58854 5.98438,-2.26563 C6.38021,-1.91146 6.57813,-1.46875 6.57813,-0.9375 C6.57813,-0.0416667 6.11979,0.796875 5.20313,1.57813 C4.26563,2.35938 3.26042,2.75 2.1875,2.75 C1.5625,2.75 1.03646,2.58854 0.609375,2.26563 C0.203125,1.91146 0,1.46875 0,0.9375 C0,0.0416667 0.46875,-0.796875 1.40625,-1.57813 C2.32292,-2.35938 3.31771,-2.75 4.39063,-2.75"/>
<path class="Note" fill="#ffffff" fill-rule="evenodd" d="M376.618,126.198 L382.58,126.198 L382.58,133.65 L376.618,133.65 L376.618,126.198 "/>
<path class="Note" transform="matrix(0.9936,0,0,0.9936,377.115,133.402)" d="M0.453125,-4.17188 C0.494792,-5.64063 1.19792,-6.38021 2.5625,-6.39063 C3.28125,-6.39063 3.83333,-6.14583 4.21875,-5.65625 C4.46875,-5.32292 4.59375,-4.93229 4.59375,-4.48438 C4.59375,-3.68229 4.14583,-3.03125 3.25,-2.53125 L2.34375,-2.04688 C1.79167,-1.75521 1.44271,-1.4375 1.29688,-1.09375 C1.24479,-0.989583 1.21354,-0.869792 1.20313,-0.734375 L4.5625,-0.734375 L4.5625,0 L0.3125,0 C0.354167,-0.760417 0.520833,-1.33854 0.8125,-1.73438 C1.07292,-2.05729 1.5,-2.38542 2.09375,-2.71875 L2.92188,-3.1875 C3.49479,-3.52083 3.78646,-3.94271 3.79688,-4.45313 C3.79688,-4.88021 3.61458,-5.21354 3.25,-5.45313 C3.04167,-5.57813 2.80208,-5.64063 2.53125,-5.64063 C1.73958,-5.64063 1.3125,-5.16667 1.25,-4.21875 C1.25,-4.19792 1.25,-4.18229 1.25,-4.17188 L0.453125,-4.17188 "/>
<path class="Note" fill="#cc00ff" transform="matrix(0.9936,0,0,0.9936,375.873,75.276)" d="M4.39063,-2.75 C5.01563,-2.75 5.54688,-2.58854 5.98438,-2.26563 C6.38021,-1.91146 6.57813,-1.46875 6.57813,-0.9375 C6.57813,-0.0416667 6.11979,0.796875 5.20313,1.57813 C4.26563,2.35938 3.26042,2.75 2.1875,2.75 C1.5625,2.75 1.03646,2.58854 0.609375,2.26563 C0.203125,1.91146 0,1.46875 0,0.9375 C0,0.0416667 0.46875,-0.796875 1.40625,-1.57813 C2.32292,-2.35938 3.31771,-2.75 4.39063,-2.75"/>
<path class="Note" fill="#ffffff" fill-rule="evenodd" d="M324.89,126.198 L330.852,126.198 L330.852,133.65 L324.89,133.65 L324.89,126.198 "/>
<path class="Note" transform="matrix(0.9936,0,0,0.9936,325.387,133.402)" d="M2.4375,-5.64063 C1.75,-5.64063 1.35417,-5.32813 1.25,-4.70313 C1.22917,-4.59896 1.21875,-4.47917 1.21875,-4.34375 L0.421875,-4.34375 C0.442708,-5.59375 1.01563,-6.27083 2.14063,-6.375 C2.23438,-6.38542 2.32813,-6.39063 2.42188,-6.39063 C3.26563,-6.39063 3.84375,-6.10938 4.15625,-5.54688 C4.29167,-5.28646 4.35938,-4.98438 4.35938,-4.64063 C4.35938,-4.00521 4.0625,-3.57292 3.46875,-3.34375 C4.03125,-3.14583 4.375,-2.81771 4.5,-2.35938 C4.54167,-2.19271 4.5625,-2.00521 4.5625,-1.79688 C4.5625,-1.05729 4.27604,-0.505208 3.70313,-0.140625 C3.33854,0.0885417 2.90104,0.203125 2.39063,0.203125 C1.21354,0.203125 0.526042,-0.348958 0.328125,-1.45313 C0.317708,-1.57813 0.302083,-1.71354 0.28125,-1.85938 L1.07813,-1.85938 C1.13021,-1.08854 1.46875,-0.65625 2.09375,-0.5625 C2.19792,-0.541667 2.30729,-0.53125 2.42188,-0.53125 C3.04688,-0.53125 3.45313,-0.765625 3.64063,-1.23438 C3.71354,-1.40104 3.75,-1.58854 3.75,-1.79688 C3.73958,-2.54688 3.29688,-2.92708 2.42188,-2.9375 L2.09375,-2.92188 L1.98438,-2.92188 L1.98438,-3.67188 C2.66146,-3.68229 3.10417,-3.77604 3.3125,-3.95313 C3.47917,-4.09896 3.5625,-4.31771 3.5625,-4.60938 C3.5625,-5.09896 3.34896,-5.41667 2.92188,-5.5625 C2.77604,-5.61458 2.61458,-5.64063 2.4375,-5.64063"/>
<path class="Note" fill="#bf6a1f" transform="matrix(0.9936,0,0,0.9936,324.145,72.792)" d="M4.39063,-2.75 C5.01563,-2.75 5.54688,-2.58854 5.98438,-2.26563 C6.38021,-1.91146 6.57813,-1.46875 6.57813,-0.9375 C6.57813,-0.0416667 6.11979,0.796875 5.20313,1.57813 C4.26563,2.35938 3.26042,2.75 2.1875,2.75 C1.5625,2.75 1.03646,2.58854 0.609375,2.26563 C0.203125,1.91146 0,1.46875 0,0.9375 C0,0.0416667 0.46875,-0.796875 1.40625,-1.57813 C2.32292,-2.35938 3.31771,-2.75 4.39063,-2.75"/>
<path class="Note" fill="#ffffff" fill-rule="evenodd" d="M273.162,118.746 L279.124,118.746 L279.124,126.198 L273.162,126.198 L273.162,118.746 "/>
<path class="Note" transform="matrix(0.9936,0,0,0.9936,273.659,125.95)" d="M2.32813,-4.54688 L0.921875,-4.54688 L0.921875,-5.10938 C1.53646,-5.19271 1.93229,-5.30208 2.10938,-5.4375 C2.28646,-5.57292 2.4375,-5.85417 2.5625,-6.28125 C2.57292,-6.3125 2.58854,-6.34896 2.60938,-6.39063 L3.125,-6.39063 L3.125,0 L2.32813,0 L2.32813,-4.54688 "/>
<path class="Note" fill="#ed2929" transform="matrix(0.9936,0,0,0.9936,272.417,70.308)" d="M4.39063,-2.75 C5.01563,-2.75 5.54688,-2.58854 5.98438,-2.26563 C6.38021,-1.91146 6.57813,-1.46875 6.57813,-0.9375 C6.57813,-0.0416667 6.11979,0.796875 5.20313,1.57813 C4.26563,2.35938 3.26042,2.75 2.1875,2.75 C1.5625,2.75 1.03646,2.58854 0.609375,2.26563 C0.203125,1.91146 0,1.46875 0,0.9375 C0,0.0416667 0.46875,-0.796875 1.40625,-1.57813 C2.32292,-2.35938 3.31771,-2.75 4.39063,-2.75"/>
<path class="Note" fill="#ffffff" fill-rule="evenodd" d="M221.434,126.198 L227.396,126.198 L227.396,133.65 L221.434,133.65 L221.434,126.198 "/>
<path class="Note" transform="matrix(0.9936,0,0,0.9936,221.931,133.402)" d="M2.4375,-5.64063 C1.75,-5.64063 1.35417,-5.32813 1.25,-4.70313 C1.22917,-4.59896 1.21875,-4.47917 1.21875,-4.34375 L0.421875,-4.34375 C0.442708,-5.59375 1.01563,-6.27083 2.14063,-6.375 C2.23438,-6.38542 2.32813,-6.39063 2.42188,-6.39063 C3.26563,-6.39063 3.84375,-6.10938 4.15625,-5.54688 C4.29167,-5.28646 4.35938,-4.98438 4.35938,-4.64063 C4.35938,-4.00521 4.0625,-3.57292 3.46875,-3.34375 C4.03125,-3.14583 4.375,-2.81771 4.5,-2.35938 C4.54167,-2.19271 4.5625,-2.00521 4.5625,-1.79688 C4.5625,-1.05729 4.27604,-0.505208 3.70313,-0.140625 C3.33854,0.0885417 2.90104,0.203125 2.39063,0.203125 C1.21354,0.203125 0.526042,-0.348958 0.328125,-1.45313 C0.317708,-1.57813 0.302083,-1.71354 0.28125,-1.85938 L1.07813,-1.85938 C1.13021,-1.08854 1.46875,-0.65625 2.09375,-0.5625 C2.19792,-0.541667 2.30729,-0.53125 2.42188,-0.53125 C3.04688,-0.53125 3.45313,-0.765625 3.64063,-1.23438 C3.71354,-1.40104 3.75,-1.58854 3.75,-1.79688 C3.73958,-2.54688 3.29688,-2.92708 2.42188,-2.9375 L2.09375,-2.92188 L1.98438,-2.92188 L1.98438,-3.67188 C2.66146,-3.68229 3.10417,-3.77604 3.3125,-3.95313 C3.47917,-4.09896 3.5625,-4.31771 3.5625,-4.60938 C3.5625,-5.09896 3.34896,-5.41667 2.92188,-5.5625 C2.77604,-5.61458 2.61458,-5.64063 2.4375,-5.64063"/>
<path class="Note" fill="#bf6a1f" transform="matrix(0.9936,0,0,0.9936,220.689,72.792)" d="M4.39063,-2.75 C5.01563,-2.75 5.54688,-2.58854 5.98438,-2.26563 C6.38021,-1.91146 6.57813,-1.46875 6.57813,-0.9375 C6.57813,-0.0416667 6.11979,0.796875 5.20313,1.57813 C4.26563,2.35938 3.26042,2.75 2.1875,2.75 C1.5625,2.75 1.03646,2.58854 0.609375,2.26563 C0.203125,1.91146 0,1.46875 0,0.9375 C0,0.0416667 0.46875,-0.796875 1.40625,-1.57813 C2.32292,-2.35938 3.31771,-2.75 4.39063,-2.75"/>
<path class="Note" fill="#ffffff" fill-rule="evenodd" d="M169.706,126.198 L175.668,126.198 L175.668,133.65 L169.706,133.65 L169.706,126.198 "/>
<path class="Note" transform="matrix(0.9936,0,0,0.9936,170.203,133.402)" d="M0.453125,-4.17188 C0.494792,-5.64063 1.19792,-6.38021 2.5625,-6.39063 C3.28125,-6.39063 3.83333,-6.14583 4.21875,-5.65625 C4.46875,-5.32292 4.59375,-4.93229 4.59375,-4.48438 C4.59375,-3.68229 4.14583,-3.03125 3.25,-2.53125 L2.34375,-2.04688 C1.79167,-1.75521 1.44271,-1.4375 1.29688,-1.09375 C1.24479,-0.989583 1.21354,-0.869792 1.20313,-0.734375 L4.5625,-0.734375 L4.5625,0 L0.3125,0 C0.354167,-0.760417 0.520833,-1.33854 0.8125,-1.73438 C1.07292,-2.05729 1.5,-2.38542 2.09375,-2.71875 L2.92188,-3.1875 C3.49479,-3.52083 3.78646,-3.94271 3.79688,-4.45313 C3.79688,-4.88021 3.61458,-5.21354 3.25,-5.45313 C3.04167,-5.57813 2.80208,-5.64063 2.53125,-5.64063 C1.73958,-5.64063 1.3125,-5.16667 1.25,-4.21875 C1.25,-4.19792 1.25,-4.18229 1.25,-4.17188 L0.453125,-4.17188 "/>
<path class="Note" fill="#cc00ff" transform="matrix(0.9936,0,0,0.9936,168.961,75.276)" d="M4.39063,-2.75 C5.01563,-2.75 5.54688,-2.58854 5.98438,-2.26563 C6.38021,-1.91146 6.57813,-1.46875 6.57813,-0.9375 C6.57813,-0.0416667 6.11979,0.796875 5.20313,1.57813 C4.26563,2.35938 3.26042,2.75 2.1875,2.75 C1.5625,2.75 1.03646,2.58854 0.609375,2.26563 C0.203125,1.91146 0,1.46875 0,0.9375 C0,0.0416667 0.46875,-0.796875 1.40625,-1.57813 C2.32292,-2.35938 3.31771,-2.75 4.39063,-2.75"/>
<path class="Note" fill="#ffffff" fill-rule="evenodd" d="M117.979,126.198 L123.94,126.198 L123.94,133.65 L117.979,133.65 L117.979,126.198 "/>
<path class="Note" transform="matrix(0.9936,0,0,0.9936,118.475,133.402)" d="M0.390625,-3.09375 C0.390625,-5 0.927083,-6.07813 2,-6.32813 C2.14583,-6.36979 2.30208,-6.39063 2.46875,-6.39063 C3.78125,-6.39063 4.47917,-5.40104 4.5625,-3.42188 C4.5625,-3.28646 4.5625,-3.15625 4.5625,-3.03125 C4.5625,-1.40625 4.15104,-0.385417 3.32813,0.03125 C3.06771,0.145833 2.78125,0.203125 2.46875,0.203125 C1.41667,0.203125 0.760417,-0.442708 0.5,-1.73438 C0.427083,-2.14063 0.390625,-2.59375 0.390625,-3.09375 M2.46875,-5.64063 C1.625,-5.63021 1.20313,-4.77083 1.20313,-3.0625 C1.20313,-1.32292 1.61979,-0.453125 2.45313,-0.453125 C3.16146,-0.453125 3.57813,-1.02604 3.70313,-2.17188 C3.73438,-2.44271 3.75,-2.75 3.75,-3.09375 C3.75,-4.79167 3.32292,-5.64063 2.46875,-5.64063"/>
<path class="Note" fill="#99cc33" transform="matrix(0.9936,0,0,0.9936,117.233,77.76)" d="M4.39063,-2.75 C5.01563,-2.75 5.54688,-2.58854 5.98438,-2.26563 C6.38021,-1.91146 6.57813,-1.46875 6.57813,-0.9375 C6.57813,-0.0416667 6.11979,0.796875 5.20313,1.57813 C4.26563,2.35938 3.26042,2.75 2.1875,2.75 C1.5625,2.75 1.03646,2.58854 0.609375,2.26563 C0.203125,1.91146 0,1.46875 0,0.9375 C0,0.0416667 0.46875,-0.796875 1.40625,-1.57813 C2.32292,-2.35938 3.31771,-2.75 4.39063,-2.75"/>
<path class="Note" fill="#ffffff" fill-rule="evenodd" d="M66.2505,133.65 L72.2121,133.65 L72.2121,141.102 L66.2505,141.102 L66.2505,133.65 "/>
<path class="Note" transform="matrix(0.9936,0,0,0.9936,66.7473,140.854)" d="M2.4375,-5.64063 C1.75,-5.64063 1.35417,-5.32813 1.25,-4.70313 C1.22917,-4.59896 1.21875,-4.47917 1.21875,-4.34375 L0.421875,-4.34375 C0.442708,-5.59375 1.01563,-6.27083 2.14063,-6.375 C2.23438,-6.38542 2.32813,-6.39063 2.42188,-6.39063 C3.26563,-6.39063 3.84375,-6.10938 4.15625,-5.54688 C4.29167,-5.28646 4.35938,-4.98438 4.35938,-4.64063 C4.35938,-4.00521 4.0625,-3.57292 3.46875,-3.34375 C4.03125,-3.14583 4.375,-2.81771 4.5,-2.35938 C4.54167,-2.19271 4.5625,-2.00521 4.5625,-1.79688 C4.5625,-1.05729 4.27604,-0.505208 3.70313,-0.140625 C3.33854,0.0885417 2.90104,0.203125 2.39063,0.203125 C1.21354,0.203125 0.526042,-0.348958 0.328125,-1.45313 C0.317708,-1.57813 0.302083,-1.71354 0.28125,-1.85938 L1.07813,-1.85938 C1.13021,-1.08854 1.46875,-0.65625 2.09375,-0.5625 C2.19792,-0.541667 2.30729,-0.53125 2.42188,-0.53125 C3.04688,-0.53125 3.45313,-0.765625 3.64063,-1.23438 C3.71354,-1.40104 3.75,-1.58854 3.75,-1.79688 C3.73958,-2.54688 3.29688,-2.92708 2.42188,-2.9375 L2.09375,-2.92188 L1.98438,-2.92188 L1.98438,-3.67188 C2.66146,-3.68229 3.10417,-3.77604 3.3125,-3.95313 C3.47917,-4.09896 3.5625,-4.31771 3.5625,-4.60938 C3.5625,-5.09896 3.34896,-5.41667 2.92188,-5.5625 C2.77604,-5.61458 2.61458,-5.64063 2.4375,-5.64063"/>
<path class="Note" fill="#ebeb19" transform="matrix(0.9936,0,0,0.9936,65.5053,80.244)" d="M4.39063,-2.75 C5.01563,-2.75 5.54688,-2.58854 5.98438,-2.26563 C6.38021,-1.91146 6.57813,-1.46875 6.57813,-0.9375 C6.57813,-0.0416667 6.11979,0.796875 5.20313,1.57813 C4.26563,2.35938 3.26042,2.75 2.1875,2.75 C1.5625,2.75 1.03646,2.58854 0.609375,2.26563 C0.203125,1.91146 0,1.46875 0,0.9375 C0,0.0416667 0.46875,-0.796875 1.40625,-1.57813 C2.32292,-2.35938 3.31771,-2.75 4.39063,-2.75"/>
<path class="Clef" transform="matrix(0.9936,0,0,0.9936,32.0544,133.65)" d="M5.32813,8.5 C5.32813,8.86458 5.04167,9.04688 4.46875,9.04688 C4.02083,9.04688 3.625,8.91146 3.28125,8.64063 C2.95833,8.34896 2.79688,7.98438 2.79688,7.54688 C2.79688,6.76563 3.27083,6.14063 4.21875,5.67188 C5.14583,5.18229 6.23438,4.9375 7.48438,4.9375 C7.96354,4.9375 8.47917,4.97396 9.03125,5.04688 C9.42708,5.09896 9.875,5.20313 10.375,5.35938 C10.8125,5.49479 11.1563,5.70573 11.4063,5.99219 C11.6563,6.27865 11.7813,6.61458 11.7813,7 C11.7813,7.89583 11.3177,8.63021 10.3906,9.20313 C11.7448,9.45313 12.4271,10.0573 12.4375,11.0156 C12.4375,11.8281 12.0729,12.5599 11.3438,13.2109 C10.6146,13.862 9.79167,14.1875 8.875,14.1875 C8.47917,14.1875 8.07813,14.0938 7.67188,13.9063 C7.29688,13.7292 7.03125,13.5625 6.875,13.4063 C6.71875,13.2188 6.64063,13.0781 6.64063,12.9844 C6.64063,12.8594 6.70833,12.75 6.84375,12.6563 C6.95833,12.5417 7.07813,12.4844 7.20313,12.4844 C7.25521,12.4844 7.36719,12.5677 7.53906,12.7344 C7.71094,12.901 7.95833,12.9844 8.28125,12.9844 C8.72917,12.9844 9.16146,12.7969 9.57813,12.4219 C9.97396,12.0573 10.1719,11.6198 10.1719,11.1094 C10.1719,10.6719 9.98438,10.3542 9.60938,10.1563 C9.24479,9.95833 8.76563,9.85938 8.17188,9.85938 C8.06771,9.85938 8.01563,9.75 8.01563,9.53125 C8.01563,9.21875 8.13021,9.0625 8.35938,9.0625 C8.72396,9.0625 9.05208,8.90625 9.34375,8.59375 C9.61458,8.26042 9.75,7.90104 9.75,7.51563 C9.75,7.40104 9.71875,7.22917 9.65625,7 C9.60417,6.84375 9.44792,6.65104 9.1875,6.42188 C8.9375,6.21354 8.58854,6.07292 8.14063,6 C8.02604,6.63542 7.88021,7.44792 7.70313,8.4375 C7.52604,9.42708 7.40625,10.0781 7.34375,10.3906 C7.125,11.5156 6.72396,12.4583 6.14063,13.2188 C5.52604,14.0313 4.86458,14.4375 4.15625,14.4375 C3.9375,14.4375 3.71354,14.3854 3.48438,14.2813 C3.29688,14.1979 3.0625,14.0365 2.78125,13.7969 C2.52083,13.5885 2.34375,13.4479 2.25,13.375 C2.19792,13.3438 2.17188,13.2865 2.17188,13.2031 C2.17188,13.0781 2.21875,12.9635 2.3125,12.8594 C2.41667,12.7344 2.52604,12.6719 2.64063,12.6719 C2.71354,12.6719 2.89323,12.7969 3.17969,13.0469 C3.46615,13.2969 3.76563,13.4219 4.07813,13.4219 C4.68229,13.4219 5.13542,13.0365 5.4375,12.2656 C5.71875,11.526 5.85938,10.6094 5.85938,9.51563 L5.85938,9.35938 C5.85938,8.63021 5.97917,7.54167 6.21875,6.09375 C5.80208,6.22917 5.46875,6.42708 5.21875,6.6875 C4.95833,6.94792 4.82813,7.21875 4.82813,7.5 C4.82813,7.71875 4.91146,7.90625 5.07813,8.0625 C5.24479,8.21875 5.32813,8.36458 5.32813,8.5 M1.40625,2.39063 C1.46875,2.39063 1.625,2.45313 1.875,2.57813 C2.13542,2.71354 2.35938,2.78125 2.54688,2.78125 C3.03646,2.78125 3.64063,2.42188 4.35938,1.70313 C6.43229,-0.411458 7.85938,-2.65104 8.64063,-5.01563 C8.79688,-5.51563 9.17708,-5.76563 9.78125,-5.76563 C10.0938,-5.76563 10.3646,-5.69792 10.5938,-5.5625 C10.8125,-5.42708 10.9219,-5.28646 10.9219,-5.14063 L10.5625,2.17188 C10.5625,2.55729 10.7031,2.75 10.9844,2.75 C11.1198,2.75 11.3281,2.6875 11.6094,2.5625 C11.8698,2.42708 12.026,2.35938 12.0781,2.35938 C12.1823,2.35938 12.2448,2.47396 12.2656,2.70313 C12.2656,2.91146 12.1823,3.04167 12.0156,3.09375 C11.8802,3.125 11.6198,3.24479 11.2344,3.45313 C10.8281,3.66146 10.5104,3.76563 10.2813,3.76563 C9.78125,3.76563 9.42708,3.375 9.21875,2.59375 C8.89583,1.375 8.6875,0.104167 8.59375,-1.21875 C8.07292,-0.552083 7.49479,0.119792 6.85938,0.796875 C7.08854,1.24479 7.51563,1.46875 8.14063,1.46875 C8.23438,1.46875 8.30729,1.46354 8.35938,1.45313 L8.375,1.45313 C8.47917,1.45313 8.53125,1.54688 8.53125,1.73438 C8.53125,1.98438 8.44792,2.13542 8.28125,2.1875 C8.01042,2.28125 7.72396,2.32813 7.42188,2.32813 C6.77604,2.32813 6.30729,2.10417 6.01563,1.65625 L5.23438,2.35938 C4.14063,3.29688 3.25,3.76563 2.5625,3.76563 C2.375,3.76563 2.1875,3.73438 2,3.67188 C1.84375,3.60938 1.66146,3.51042 1.45313,3.375 C1.36979,3.34375 1.27865,3.29688 1.17969,3.23438 C1.08073,3.17188 1.02083,3.13542 1,3.125 C0.9375,3.10417 0.90625,3.04688 0.90625,2.95313 C0.90625,2.84896 0.958333,2.72396 1.0625,2.57813 C1.14583,2.45313 1.26042,2.39063 1.40625,2.39063 M5.76563,-10.7969 C5.76563,-10.474 5.48438,-10.3125 4.92188,-10.3125 C4.43229,-10.3125 4.00521,-10.474 3.64063,-10.7969 C3.28646,-11.1302 3.10938,-11.5313 3.10938,-12 C3.10938,-12.4479 3.25,-12.8385 3.53125,-13.1719 C3.83333,-13.5052 4.21875,-13.7552 4.6875,-13.9219 C5.11458,-14.0781 5.59896,-14.2031 6.14063,-14.2969 C6.69271,-14.3594 7.22396,-14.3906 7.73438,-14.3906 C8.03646,-14.3906 8.59896,-14.2552 9.42188,-13.9844 C10.2552,-13.7135 10.8333,-13.5781 11.1563,-13.5781 C11.5625,-13.5781 11.9479,-13.651 12.3125,-13.7969 C12.6042,-13.9219 12.8906,-14.0677 13.1719,-14.2344 C13.3906,-14.3802 13.5104,-14.4531 13.5313,-14.4531 C13.6563,-14.4531 13.7604,-14.4167 13.8438,-14.3438 C13.9479,-14.2396 14,-14.151 14,-14.0781 C14,-13.9948 13.8802,-13.849 13.6406,-13.6406 C13.3802,-13.401 13.0078,-13.1641 12.5234,-12.9297 C12.0391,-12.6953 11.5313,-12.5781 11,-12.5781 C10.7604,-12.5781 10.4688,-12.6198 10.125,-12.7031 C9.89583,-11.2552 9.66146,-9.96875 9.42188,-8.84375 C9.21354,-7.85417 8.79688,-6.98958 8.17188,-6.25 C7.56771,-5.51042 6.89583,-5.14063 6.15625,-5.14063 C5.85417,-5.14063 5.58854,-5.19792 5.35938,-5.3125 C5.09896,-5.44792 4.82292,-5.64583 4.53125,-5.90625 C4.30208,-6.09375 4.08333,-6.26563 3.875,-6.42188 C3.82292,-6.46354 3.79688,-6.52604 3.79688,-6.60938 C3.79688,-6.69271 3.84896,-6.80729 3.95313,-6.95313 C4.05729,-7.06771 4.15104,-7.125 4.23438,-7.125 C4.31771,-7.125 4.54167,-6.96354 4.90625,-6.64063 C5.27083,-6.31771 5.59375,-6.15625 5.875,-6.15625 C6.39583,-6.15625 6.80208,-6.45313 7.09375,-7.04688 C7.375,-7.64063 7.53646,-8.34375 7.57813,-9.15625 C7.64063,-10.5 7.79167,-11.8906 8.03125,-13.3281 C7.73958,-13.3906 7.52604,-13.4219 7.39063,-13.4219 C6.76563,-13.4219 6.22917,-13.2917 5.78125,-13.0313 C5.34375,-12.7813 5.125,-12.4427 5.125,-12.0156 C5.125,-11.7031 5.22917,-11.4635 5.4375,-11.2969 C5.65625,-11.1094 5.76563,-10.9427 5.76563,-10.7969"/>
<path class="Clef" transform="matrix(0.9936,0,0,0.9936,32.0544,77.76)" d="M7.34375,-5.125 C7.34375,-5.125 7.38542,-5.125 7.46875,-5.125 C7.52083,-5.13542 7.5625,-5.14063 7.59375,-5.14063 C9.05208,-5.14063 10.25,-4.625 11.1875,-3.59375 C12.125,-2.58333 12.5938,-1.40104 12.5938,-0.046875 C12.5938,1.64063 11.901,3.01042 10.5156,4.0625 C10.151,4.35417 9.67188,4.58854 9.07813,4.76563 C9.15104,5.60938 9.1875,6.29167 9.1875,6.8125 C9.1875,6.91667 9.17188,7.29688 9.14063,7.95313 C9.08854,9.16146 8.67188,10.2083 7.89063,11.0938 C7.14063,11.9688 6.20313,12.4063 5.07813,12.4063 C4.02604,12.4063 3.13021,12.0365 2.39063,11.2969 C1.64063,10.5365 1.26563,9.625 1.26563,8.5625 C1.26563,8 1.48438,7.52083 1.92188,7.125 C2.35938,6.73958 2.86979,6.54688 3.45313,6.54688 C3.97396,6.54688 4.41146,6.75 4.76563,7.15625 C5.13021,7.53125 5.3125,8 5.3125,8.5625 C5.3125,9.0625 5.13021,9.49479 4.76563,9.85938 C4.40104,10.224 3.96354,10.4063 3.45313,10.4063 C3.24479,10.4063 3.04688,10.3698 2.85938,10.2969 C3.43229,11.1406 4.19271,11.5625 5.14063,11.5625 C6.03646,11.5625 6.77083,11.1979 7.34375,10.4688 C7.94792,9.71875 8.27604,8.83854 8.32813,7.82813 C8.34896,7.20313 8.35938,6.84896 8.35938,6.76563 C8.35938,6.03646 8.33333,5.4375 8.28125,4.96875 C7.63542,5.07292 7.05729,5.125 6.54688,5.125 C4.73438,5.125 3.19271,4.40625 1.92188,2.96875 C0.671875,1.52083 0.046875,-0.197917 0.046875,-2.1875 C0.046875,-2.60417 0.0833333,-3.02604 0.15625,-3.45313 C0.239583,-3.80729 0.338542,-4.19271 0.453125,-4.60938 C0.515625,-4.84896 0.692708,-5.22917 0.984375,-5.75 C1.08854,-5.90625 1.20573,-6.10156 1.33594,-6.33594 C1.46615,-6.57031 1.55729,-6.72396 1.60938,-6.79688 C1.73438,-7.05729 1.98438,-7.41146 2.35938,-7.85938 C2.46354,-7.97396 2.57292,-8.10156 2.6875,-8.24219 C2.80208,-8.38281 2.89844,-8.5 2.97656,-8.59375 C3.05469,-8.6875 3.11198,-8.76042 3.14844,-8.8125 C3.1849,-8.86458 3.47917,-9.20833 4.03125,-9.84375 C4.15625,-9.97917 4.28125,-10.1198 4.40625,-10.2656 C4.53125,-10.4115 4.63281,-10.5286 4.71094,-10.6172 C4.78906,-10.7057 4.84896,-10.7656 4.89063,-10.7969 C4.42188,-12.349 4.125,-13.5885 4,-14.5156 C3.91667,-15.2552 3.875,-16.2708 3.875,-17.5625 C3.875,-18.6979 4.13542,-19.7604 4.65625,-20.75 C5.15625,-21.7708 5.86458,-22.6094 6.78125,-23.2656 C6.84375,-23.3073 6.90625,-23.3281 6.96875,-23.3281 C7.0625,-23.3281 7.13021,-23.3073 7.17188,-23.2656 C7.86979,-22.4219 8.47396,-21.3229 8.98438,-19.9688 C9.50521,-18.6146 9.76563,-17.3802 9.76563,-16.2656 C9.76563,-15.0156 9.46875,-13.8438 8.875,-12.75 C8.19792,-11.5938 7.32292,-10.3958 6.25,-9.15625 C6.52083,-8.30208 6.88542,-6.95833 7.34375,-5.125 M9,3.96875 C9.67708,3.71875 10.2083,3.29688 10.5938,2.70313 C11.0104,2.13021 11.2188,1.48438 11.2188,0.765625 C11.2188,-0.161458 10.9063,-0.984375 10.2813,-1.70313 C9.63542,-2.44271 8.81771,-2.85938 7.82813,-2.95313 C8.39063,-0.203125 8.78125,2.10417 9,3.96875 M1.45313,-0.546875 C1.45313,0.744792 1.97396,1.88021 3.01563,2.85938 C4.07813,3.80729 5.27604,4.28125 6.60938,4.28125 C7.15104,4.28125 7.68229,4.23958 8.20313,4.15625 C7.99479,2.17708 7.58333,-0.192708 6.96875,-2.95313 C6.22917,-2.86979 5.64063,-2.60938 5.20313,-2.17188 C4.76563,-1.71354 4.54688,-1.19792 4.54688,-0.625 C4.54688,0.364583 5.07813,1.16667 6.14063,1.78125 C6.22396,1.875 6.26563,1.97396 6.26563,2.07813 C6.26563,2.18229 6.22396,2.27604 6.14063,2.35938 C6.05729,2.45313 5.95833,2.5 5.84375,2.5 C5.83333,2.5 5.77604,2.48958 5.67188,2.46875 C4.92188,2.0625 4.34896,1.54167 3.95313,0.90625 C3.56771,0.21875 3.375,-0.46875 3.375,-1.15625 C3.375,-2.05208 3.65625,-2.86458 4.21875,-3.59375 C4.80208,-4.32292 5.5625,-4.79167 6.5,-5 C6.13542,-6.45833 5.83854,-7.59896 5.60938,-8.42188 C5.40104,-8.18229 5.15104,-7.89844 4.85938,-7.57031 C4.56771,-7.24219 4.39583,-7.04167 4.34375,-6.96875 C3.875,-6.36458 3.51563,-5.89063 3.26563,-5.54688 C2.81771,-4.93229 2.48958,-4.40625 2.28125,-3.96875 C2.0625,-3.46875 1.86979,-2.92708 1.70313,-2.34375 C1.53646,-1.78125 1.45313,-1.18229 1.45313,-0.546875 M7.96875,-20.4063 C6.98958,-19.9271 6.22396,-19.2396 5.67188,-18.3438 C5.09896,-17.4167 4.8125,-16.4219 4.8125,-15.3594 C4.8125,-14.4219 5.04688,-13.1563 5.51563,-11.5625 C6.45313,-12.6979 7.15625,-13.7448 7.625,-14.7031 C8.11458,-15.724 8.35938,-16.7865 8.35938,-17.8906 C8.35938,-18.724 8.22917,-19.5625 7.96875,-20.4063 M5.82813,15.2344 C6.16146,14.901 6.32813,14.5625 6.32813,14.2188 C6.30729,13.9479 6.19271,13.7396 5.98438,13.5938 C5.74479,13.4375 5.46875,13.3594 5.15625,13.3594 C4.9375,13.3594 4.75521,13.4323 4.60938,13.5781 C4.48438,13.7031 4.42188,13.8646 4.42188,14.0625 C4.42188,14.3021 4.51563,14.4792 4.70313,14.5938 L5.82813,15.2344 M6.14063,15.4063 C6.68229,15.7083 6.95313,16.1146 6.95313,16.625 L6.95313,16.6875 C6.95313,17.0833 6.79167,17.4219 6.46875,17.7031 C6.14583,17.9844 5.68229,18.125 5.07813,18.125 C4.58854,18.125 4.16146,17.9948 3.79688,17.7344 C3.43229,17.4844 3.25,17.1458 3.25,16.7188 C3.25,16.5521 3.29167,16.3958 3.375,16.25 C3.47917,16.0833 3.56771,15.9688 3.64063,15.9063 L4,15.5313 C3.60417,15.2604 3.40625,14.901 3.40625,14.4531 C3.40625,14.099 3.5625,13.7865 3.875,13.5156 C4.19792,13.2552 4.625,13.125 5.15625,13.125 C5.60417,13.125 5.98438,13.224 6.29688,13.4219 C6.60938,13.6198 6.76563,13.8854 6.76563,14.2188 C6.76563,14.5729 6.55729,14.9688 6.14063,15.4063 M4.29688,15.7031 C3.91146,16.0469 3.70313,16.3854 3.67188,16.7188 C3.70313,17.0729 3.84896,17.3542 4.10938,17.5625 C4.39063,17.7813 4.71354,17.8906 5.07813,17.8906 C5.33854,17.8906 5.54688,17.8073 5.70313,17.6406 C5.85938,17.4844 5.9375,17.2969 5.9375,17.0781 C5.92708,16.7865 5.8125,16.5781 5.59375,16.4531 L4.29688,15.7031 "/>
<path class="KeySig" transform="matrix(0.9936,0,0,0.9936,49.4657,72.792)" d="M0.921875,-0.828125 L0.921875,0.71875 C0.921875,1.27083 0.947917,1.70833 1,2.03125 C1.42708,1.66667 1.73438,1.39583 1.92188,1.21875 C2.13021,1.01042 2.33854,0.721354 2.54688,0.351563 C2.75521,-0.0182292 2.85938,-0.385417 2.85938,-0.75 C2.85938,-1.11458 2.78125,-1.42708 2.625,-1.6875 C2.46875,-1.94792 2.26042,-2.07813 2,-2.07813 C1.6875,-2.07813 1.42708,-1.95833 1.21875,-1.71875 C1.02083,-1.45833 0.921875,-1.16146 0.921875,-0.828125 M0.09375,2.75 L-0.15625,-9.14063 C0.03125,-9.24479 0.216146,-9.29688 0.398438,-9.29688 C0.580729,-9.29688 0.760417,-9.24479 0.9375,-9.14063 L0.78125,-2.25 C1.3125,-2.70833 1.92708,-2.9375 2.625,-2.9375 C3.125,-2.9375 3.54427,-2.72917 3.88281,-2.3125 C4.22135,-1.89583 4.39063,-1.41667 4.39063,-0.875 C4.39063,-0.541667 4.28125,-0.182292 4.0625,0.203125 C3.85417,0.546875 3.63542,0.817708 3.40625,1.01563 C3.27083,1.11979 2.9375,1.38021 2.40625,1.79688 C2.25,1.91146 2.0651,2.04688 1.85156,2.20313 C1.63802,2.35938 1.50521,2.45833 1.45313,2.5 C1.35938,2.55208 1.27083,2.65625 1.1875,2.8125 C1.10417,2.94792 1,3.05729 0.875,3.14063 C0.791667,3.22396 0.684896,3.26563 0.554688,3.26563 C0.424479,3.26563 0.317708,3.21875 0.234375,3.125 C0.140625,3.03125 0.09375,2.90625 0.09375,2.75"/>
<path class="Fingering" d="M473.306,82.119 C473.431,82.119 473.614,82.1867 473.853,82.3221 C474.103,82.4784 474.317,82.5565 474.494,82.5565 C474.859,82.5565 475.145,82.395 475.353,82.0721 C475.478,81.8638 475.541,81.6294 475.541,81.369 C475.541,80.6086 475.088,80.1919 474.181,80.119 C474.088,80.1086 473.989,80.1034 473.885,80.1034 L473.885,79.994 C474.489,79.7961 474.885,79.5409 475.072,79.2284 C475.166,79.0617 475.213,78.8794 475.213,78.6815 C475.213,78.3273 475.067,78.0721 474.775,77.9159 C474.64,77.8534 474.494,77.8221 474.338,77.8221 C473.89,77.8221 473.52,78.0565 473.228,78.5252 C473.197,78.5669 473.171,78.6138 473.15,78.6659 L473.025,78.6346 C473.275,77.9575 473.64,77.5461 474.119,77.4002 C474.265,77.3586 474.426,77.3377 474.603,77.3377 C475.083,77.3377 475.437,77.5044 475.666,77.8377 C475.791,78.0148 475.853,78.2127 475.853,78.4315 C475.853,78.7544 475.702,79.0461 475.4,79.3065 C475.306,79.3794 475.208,79.4575 475.103,79.5409 C475.583,79.7492 475.89,80.0357 476.025,80.4002 C476.088,80.5773 476.119,80.7752 476.119,80.994 C476.119,81.6294 475.853,82.1242 475.322,82.4784 C474.926,82.7284 474.458,82.8534 473.916,82.8534 C473.426,82.8534 473.135,82.744 473.041,82.5252 C473.02,82.4836 473.01,82.4419 473.01,82.4002 C473.01,82.244 473.088,82.1555 473.244,82.1346 C473.265,82.1242 473.286,82.119 473.306,82.119"/>
<path class="Fingering" d="M423.117,80.3694 C422.523,80.3694 422.06,80.0621 421.727,79.4475 C421.445,78.9475 421.305,78.3225 421.305,77.5725 C421.305,76.6767 421.513,75.9735 421.93,75.4631 C422.263,75.0673 422.669,74.8642 423.148,74.8537 C423.711,74.8537 424.154,75.1402 424.477,75.7131 C424.779,76.2235 424.93,76.859 424.93,77.6194 C424.93,78.5881 424.706,79.3277 424.258,79.8381 C423.935,80.1923 423.555,80.3694 423.117,80.3694 M423.117,75.0569 C422.471,75.0569 422.122,75.8277 422.07,77.3694 C422.07,77.4631 422.07,77.5569 422.07,77.6506 C422.081,79.3173 422.43,80.1558 423.117,80.1662 C423.805,80.1558 424.148,79.3121 424.148,77.635 C424.148,76.1142 423.878,75.2652 423.336,75.0881 C423.263,75.0673 423.19,75.0569 423.117,75.0569"/>
<path class="Fingering" d="M369.639,73.9635 C369.879,72.9427 370.405,72.4166 371.217,72.3854 C371.249,72.3854 371.275,72.3854 371.295,72.3854 C371.785,72.3854 372.176,72.5625 372.467,72.9166 C372.676,73.177 372.78,73.4687 372.78,73.7916 C372.78,74.3854 372.462,75.026 371.827,75.7135 C371.806,75.7343 371.78,75.7552 371.749,75.776 L370.42,77.1979 L372.327,77.1979 C372.535,77.1979 372.696,77.1406 372.811,77.026 C372.884,76.9531 372.973,76.8333 373.077,76.6666 L373.186,76.6979 L372.749,77.776 L369.624,77.776 L369.624,77.6822 L371.045,76.1666 C371.723,75.427 372.071,74.7343 372.092,74.0885 C372.092,73.6406 371.92,73.3177 371.577,73.1197 C371.4,73.0156 371.196,72.9635 370.967,72.9635 C370.613,72.9635 370.337,73.0989 370.139,73.3697 C370.025,73.526 369.915,73.7395 369.811,74.0104 L369.639,73.9635 "/>
<path class="Fingering" d="M318.302,74.667 C318.427,74.667 318.609,74.7347 318.849,74.8701 C319.099,75.0264 319.312,75.1045 319.489,75.1045 C319.854,75.1045 320.14,74.943 320.349,74.6201 C320.474,74.4118 320.536,74.1774 320.536,73.917 C320.536,73.1566 320.083,72.7399 319.177,72.667 C319.083,72.6566 318.984,72.6514 318.88,72.6514 L318.88,72.542 C319.484,72.3441 319.88,72.0889 320.067,71.7764 C320.161,71.6097 320.208,71.4274 320.208,71.2295 C320.208,70.8753 320.062,70.6201 319.771,70.4639 C319.635,70.4014 319.489,70.3701 319.333,70.3701 C318.885,70.3701 318.515,70.6045 318.224,71.0733 C318.192,71.1149 318.166,71.1618 318.146,71.2139 L318.021,71.1826 C318.271,70.5055 318.635,70.0941 319.114,69.9483 C319.26,69.9066 319.422,69.8858 319.599,69.8858 C320.078,69.8858 320.432,70.0524 320.661,70.3858 C320.786,70.5628 320.849,70.7608 320.849,70.9795 C320.849,71.3024 320.698,71.5941 320.396,71.8545 C320.302,71.9274 320.203,72.0055 320.099,72.0889 C320.578,72.2972 320.885,72.5837 321.021,72.9483 C321.083,73.1253 321.114,73.3233 321.114,73.542 C321.114,74.1774 320.849,74.6722 320.317,75.0264 C319.922,75.2764 319.453,75.4014 318.911,75.4014 C318.422,75.4014 318.13,75.292 318.036,75.0733 C318.015,75.0316 318.005,74.9899 318.005,74.9483 C318.005,74.792 318.083,74.7035 318.239,74.6826 C318.26,74.6722 318.281,74.667 318.302,74.667"/>
<path class="Fingering" d="M267.402,68.0736 C267.287,68.0736 267.095,68.1309 266.824,68.2455 L266.824,68.1361 L268.261,67.4017 L268.324,67.4174 L268.324,72.2142 C268.324,72.4226 268.386,72.558 268.511,72.6205 C268.616,72.6622 268.808,72.683 269.089,72.683 L269.089,72.808 L266.871,72.808 L266.871,72.683 C267.225,72.6726 267.449,72.6101 267.543,72.4955 C267.605,72.4017 267.636,72.2559 267.636,72.058 L267.636,68.4486 C267.626,68.1986 267.548,68.0736 267.402,68.0736"/>
<path class="Fingering" d="M214.846,74.667 C214.971,74.667 215.153,74.7347 215.393,74.8701 C215.643,75.0264 215.856,75.1045 216.033,75.1045 C216.398,75.1045 216.684,74.943 216.893,74.6201 C217.018,74.4118 217.08,74.1774 217.08,73.917 C217.08,73.1566 216.627,72.7399 215.721,72.667 C215.627,72.6566 215.528,72.6514 215.424,72.6514 L215.424,72.542 C216.028,72.3441 216.424,72.0889 216.612,71.7764 C216.705,71.6097 216.752,71.4274 216.752,71.2295 C216.752,70.8753 216.606,70.6201 216.315,70.4639 C216.179,70.4014 216.033,70.3701 215.877,70.3701 C215.429,70.3701 215.059,70.6045 214.768,71.0733 C214.737,71.1149 214.71,71.1618 214.69,71.2139 L214.565,71.1826 C214.815,70.5055 215.179,70.0941 215.658,69.9483 C215.804,69.9066 215.966,69.8858 216.143,69.8858 C216.622,69.8858 216.976,70.0524 217.205,70.3858 C217.33,70.5628 217.393,70.7608 217.393,70.9795 C217.393,71.3024 217.242,71.5941 216.94,71.8545 C216.846,71.9274 216.747,72.0055 216.643,72.0889 C217.122,72.2972 217.429,72.5837 217.565,72.9483 C217.627,73.1253 217.658,73.3233 217.658,73.542 C217.658,74.1774 217.393,74.6722 216.862,75.0264 C216.466,75.2764 215.997,75.4014 215.455,75.4014 C214.966,75.4014 214.674,75.292 214.58,75.0733 C214.559,75.0316 214.549,74.9899 214.549,74.9483 C214.549,74.792 214.627,74.7035 214.783,74.6826 C214.804,74.6722 214.825,74.667 214.846,74.667"/>
<path class="Fingering" d="M162.727,73.9635 C162.967,72.9427 163.493,72.4166 164.305,72.3854 C164.337,72.3854 164.363,72.3854 164.384,72.3854 C164.873,72.3854 165.264,72.5625 165.555,72.9166 C165.764,73.177 165.868,73.4687 165.868,73.7916 C165.868,74.3854 165.55,75.026 164.915,75.7135 C164.894,75.7343 164.868,75.7552 164.837,75.776 L163.509,77.1979 L165.415,77.1979 C165.623,77.1979 165.785,77.1406 165.899,77.026 C165.972,76.9531 166.061,76.8333 166.165,76.6666 L166.274,76.6979 L165.837,77.776 L162.712,77.776 L162.712,77.6822 L164.134,76.1666 C164.811,75.427 165.16,74.7343 165.18,74.0885 C165.18,73.6406 165.009,73.3177 164.665,73.1197 C164.488,73.0156 164.285,72.9635 164.055,72.9635 C163.701,72.9635 163.425,73.0989 163.227,73.3697 C163.113,73.526 163.003,73.7395 162.899,74.0104 L162.727,73.9635 "/>
<path class="Fingering" d="M112.749,80.3694 C112.156,80.3694 111.692,80.0621 111.359,79.4475 C111.077,78.9475 110.937,78.3225 110.937,77.5725 C110.937,76.6767 111.145,75.9735 111.562,75.4631 C111.895,75.0673 112.301,74.8642 112.781,74.8537 C113.343,74.8537 113.786,75.1402 114.109,75.7131 C114.411,76.2235 114.562,76.859 114.562,77.6194 C114.562,78.5881 114.338,79.3277 113.89,79.8381 C113.567,80.1923 113.187,80.3694 112.749,80.3694 M112.749,75.0569 C112.103,75.0569 111.755,75.8277 111.702,77.3694 C111.702,77.4631 111.702,77.5569 111.702,77.6506 C111.713,79.3173 112.062,80.1558 112.749,80.1662 C113.437,80.1558 113.781,79.3121 113.781,77.635 C113.781,76.1142 113.51,75.2652 112.968,75.0881 C112.895,75.0673 112.822,75.0569 112.749,75.0569"/>
<path class="Fingering" d="M59.662,82.119 C59.787,82.119 59.9693,82.1867 60.2088,82.3221 C60.4588,82.4784 60.6724,82.5565 60.8495,82.5565 C61.214,82.5565 61.5005,82.395 61.7088,82.0721 C61.8338,81.8638 61.8963,81.6294 61.8963,81.369 C61.8963,80.6086 61.4432,80.1919 60.537,80.119 C60.4432,80.1086 60.3443,80.1034 60.2401,80.1034 L60.2401,79.994 C60.8443,79.7961 61.2401,79.5409 61.4276,79.2284 C61.5213,79.0617 61.5682,78.8794 61.5682,78.6815 C61.5682,78.3273 61.4224,78.0721 61.1307,77.9159 C60.9953,77.8534 60.8495,77.8221 60.6932,77.8221 C60.2453,77.8221 59.8755,78.0565 59.5838,78.5252 C59.5526,78.5669 59.5265,78.6138 59.5057,78.6659 L59.3807,78.6346 C59.6307,77.9575 59.9953,77.5461 60.4745,77.4002 C60.6203,77.3586 60.7818,77.3377 60.9588,77.3377 C61.438,77.3377 61.7922,77.5044 62.0213,77.8377 C62.1463,78.0148 62.2088,78.2127 62.2088,78.4315 C62.2088,78.7544 62.0578,79.0461 61.7557,79.3065 C61.662,79.3794 61.563,79.4575 61.4588,79.5409 C61.938,79.7492 62.2453,80.0357 62.3807,80.4002 C62.4432,80.5773 62.4745,80.7752 62.4745,80.994 C62.4745,81.6294 62.2088,82.1242 61.6776,82.4784 C61.2818,82.7284 60.813,82.8534 60.2713,82.8534 C59.7818,82.8534 59.4901,82.744 59.3963,82.5252 C59.3755,82.4836 59.3651,82.4419 59.3651,82.4002 C59.3651,82.244 59.4432,82.1555 59.5995,82.1346 C59.6203,82.1242 59.6411,82.119 59.662,82.119"/>
<path class="Tempo" d="M59.2619,40.4371 C59.0588,40.2809 58.8088,40.1871 58.4963,40.1871 C57.3088,40.1871 56.3557,41.0621 56.3557,41.9996 C56.3557,42.5621 56.8088,42.9059 57.4026,42.9059 C58.3557,42.9059 59.5432,41.9996 59.5432,41.0934 L59.5432,34.9527 L59.2619,34.9527 L59.2619,40.4371 "/>
<path class="Tempo" d="M69.9026,39.0152 L63.2932,39.0152 L63.2932,37.859 L69.9026,37.859 L69.9026,39.0152 M69.9026,41.9371 L63.2932,41.9371 L63.2932,40.7965 L69.9026,40.7965 L69.9026,41.9371 M79.1838,34.734 L79.1838,35.0465 C77.788,35.3382 76.8296,36.0621 76.3088,37.2184 C76.1838,37.4996 76.0796,37.8069 75.9963,38.1402 C76.3088,38.0152 76.6421,37.9527 76.9963,37.9527 C77.8713,37.9527 78.5067,38.2913 78.9026,38.9684 C79.1317,39.3538 79.2463,39.8069 79.2463,40.3277 C79.2463,41.2652 78.9338,42.0048 78.3088,42.5465 C77.8401,42.9423 77.2932,43.1402 76.6682,43.1402 C75.689,43.1402 74.9442,42.7288 74.4338,41.9059 C74.0588,41.3017 73.8713,40.5673 73.8713,39.7027 C73.8713,38.1194 74.5171,36.8642 75.8088,35.9371 C75.8505,35.9059 75.8921,35.8746 75.9338,35.8434 C76.5901,35.3955 77.3192,35.083 78.1213,34.9059 C78.4234,34.8434 78.7776,34.7861 79.1838,34.734 M75.7463,40.0777 C75.7463,41.609 75.9338,42.4892 76.3088,42.7184 C76.4234,42.7809 76.5484,42.8121 76.6838,42.8121 C76.9963,42.8121 77.1994,42.6767 77.2932,42.4059 C77.3765,42.1559 77.4182,41.7027 77.4182,41.0465 C77.4182,39.7757 77.2619,38.9892 76.9494,38.6871 C76.7932,38.5413 76.5901,38.4684 76.3401,38.4684 C76.0901,38.4684 75.9286,38.5517 75.8557,38.7184 C75.7828,38.8955 75.7463,39.3486 75.7463,40.0777 M79.8244,38.9059 C79.8244,37.5934 80.1369,36.5309 80.7619,35.7184 C81.2723,35.0725 81.8661,34.7444 82.5432,34.734 C83.3244,34.734 83.9703,35.1402 84.4807,35.9527 C84.9911,36.7652 85.2463,37.76 85.2463,38.9371 C85.2463,40.3121 84.9286,41.4059 84.2932,42.2184 C83.7932,42.8225 83.2151,43.1298 82.5588,43.1402 C81.7255,43.1402 81.0536,42.7132 80.5432,41.859 C80.064,41.0673 79.8244,40.083 79.8244,38.9059 M82.5588,42.7965 C82.913,42.7965 83.1473,42.4736 83.2619,41.8277 C83.3244,41.4423 83.3557,40.9423 83.3557,40.3277 L83.3557,37.5777 C83.3557,36.1402 83.163,35.3225 82.7776,35.1246 C82.7046,35.083 82.6213,35.0621 82.5276,35.0621 C82.163,35.0621 81.9234,35.3955 81.8088,36.0621 C81.7567,36.4371 81.7307,36.9423 81.7307,37.5777 L81.7307,40.3277 C81.7307,41.6819 81.8973,42.4736 82.2307,42.7027 C82.3244,42.7652 82.4338,42.7965 82.5588,42.7965"/>
<path class="StaffText" d="M69.8303,25.2057 C70.2782,25.2057 70.7782,25.3203 71.3303,25.5495 C71.5698,25.6432 71.7417,25.6901 71.8459,25.6901 C71.9917,25.6901 72.1219,25.5807 72.2365,25.362 C72.2469,25.3203 72.2626,25.2787 72.2834,25.237 L72.549,25.237 L72.549,27.5807 L72.299,27.5807 C72.0282,26.9766 71.7469,26.5339 71.4553,26.2526 C71.3928,26.1901 71.3355,26.138 71.2834,26.0964 C70.8563,25.7214 70.4136,25.5339 69.9553,25.5339 C68.9553,25.5339 68.3615,26.2526 68.174,27.6901 C68.1428,28.013 68.1271,28.362 68.1271,28.737 C68.1271,29.9245 68.3407,30.7943 68.7678,31.3464 C69.1011,31.763 69.5594,31.9714 70.1428,31.9714 C70.7053,31.9714 71.023,31.7943 71.0959,31.4401 C71.1063,31.3776 71.1115,31.3099 71.1115,31.237 L71.1115,30.1901 C71.1115,29.8985 71.0386,29.711 70.8928,29.6276 C70.7469,29.5547 70.4813,29.5078 70.0959,29.487 L70.0959,29.237 L73.5334,29.237 L73.5334,29.487 C73.1271,29.5287 72.8771,29.6172 72.7834,29.7526 C72.7105,29.8672 72.674,30.086 72.674,30.4089 L72.674,31.6745 C72.0803,32.0287 71.2938,32.237 70.3146,32.2995 C70.1792,32.2995 70.0438,32.2995 69.9084,32.2995 C68.7938,32.2995 67.9032,31.9401 67.2365,31.2214 C66.6428,30.5755 66.3459,29.7682 66.3459,28.7995 C66.3459,27.7578 66.6896,26.8932 67.3771,26.2057 C68.0438,25.5391 68.8615,25.2057 69.8303,25.2057 M77.5959,28.8307 C77.3771,28.8307 77.1636,28.711 76.9553,28.4714 C76.8407,28.3255 76.7573,28.2474 76.7053,28.237 C76.4865,28.237 76.3198,28.388 76.2053,28.6901 C76.1323,28.8464 76.0959,29.013 76.0959,29.1901 L76.0959,31.0807 C76.0959,31.4453 76.1688,31.6693 76.3146,31.7526 C76.4084,31.8151 76.5803,31.8568 76.8303,31.8776 L76.8303,32.112 L74.1896,32.112 L74.1896,31.8776 C74.4605,31.8255 74.6219,31.7318 74.674,31.5964 C74.6948,31.5235 74.7053,31.4141 74.7053,31.2682 L74.7053,28.3307 C74.7053,28.0703 74.6323,27.9037 74.4865,27.8307 C74.4136,27.7891 74.3146,27.7578 74.1896,27.737 L74.1896,27.5026 L76.0646,27.5026 L76.0646,28.3307 C76.4396,27.7787 76.8094,27.4714 77.174,27.4089 C77.2573,27.388 77.3355,27.3776 77.4084,27.3776 C77.7521,27.3776 77.9969,27.5182 78.1428,27.7995 C78.1948,27.9141 78.2209,28.0339 78.2209,28.1589 C78.2209,28.4714 78.0959,28.6797 77.8459,28.7839 C77.7626,28.8151 77.6792,28.8307 77.5959,28.8307 M79.4709,28.0807 C79.4709,28.112 79.523,28.2057 79.6271,28.362 C79.7209,28.5078 79.7678,28.6328 79.7678,28.737 C79.7678,28.9974 79.6376,29.1745 79.3771,29.2682 C79.2834,29.2995 79.1896,29.3151 79.0959,29.3151 C78.7313,29.3151 78.5178,29.1537 78.4553,28.8307 C78.4448,28.7682 78.4396,28.711 78.4396,28.6589 C78.4396,28.1901 78.6948,27.8412 79.2053,27.612 C79.5282,27.4557 79.9032,27.3776 80.3303,27.3776 C81.2053,27.3776 81.8042,27.6172 82.1271,28.0964 C82.2521,28.2943 82.3146,28.5182 82.3146,28.7682 L82.3146,31.3464 C82.3251,31.5026 82.3928,31.586 82.5178,31.5964 C82.5698,31.586 82.6063,31.5703 82.6271,31.5495 L82.7365,31.4557 L82.8771,31.6589 C82.4813,32.0339 82.1115,32.2318 81.7678,32.2526 C81.3928,32.2526 81.148,32.112 81.0334,31.8307 C81.0021,31.737 80.9709,31.638 80.9396,31.5339 C80.398,32.0026 79.8719,32.2422 79.3615,32.2526 C78.924,32.2526 78.6063,32.086 78.4084,31.7526 C78.3042,31.586 78.2521,31.4037 78.2521,31.2057 C78.2521,30.6224 78.7001,30.1485 79.5959,29.7839 C79.8355,29.6797 80.2834,29.5287 80.9396,29.3307 L80.9396,28.5964 C80.9396,28.0651 80.7209,27.7735 80.2834,27.7214 C80.2209,27.7214 80.1584,27.7214 80.0959,27.7214 C79.8042,27.7214 79.6063,27.8047 79.5021,27.9714 C79.4813,28.0026 79.4709,28.0391 79.4709,28.0807 M80.924,31.0964 L80.924,29.6589 C80.1219,29.8776 79.7157,30.2787 79.7053,30.862 C79.7053,31.1953 79.8146,31.4037 80.0334,31.487 C80.0959,31.5078 80.1584,31.5182 80.2209,31.5182 C80.4501,31.5182 80.6844,31.3776 80.924,31.0964 M86.3928,32.237 L86.3928,31.5964 C86.0386,31.9714 85.6948,32.1849 85.3615,32.237 C85.2678,32.2474 85.1688,32.2526 85.0646,32.2526 C84.4709,32.2526 84.0021,31.9766 83.6584,31.4245 C83.3876,30.9974 83.2521,30.4922 83.2521,29.9089 C83.2521,29.0547 83.4969,28.3828 83.9865,27.8932 C84.3198,27.5495 84.7157,27.3776 85.174,27.3776 C85.5282,27.3776 85.8511,27.513 86.1428,27.7839 C86.2261,27.8568 86.299,27.9245 86.3615,27.987 L86.3615,26.1745 C86.3615,25.9245 86.3042,25.7682 86.1896,25.7057 C86.0855,25.6537 85.8876,25.6172 85.5959,25.5964 L85.5959,25.362 L87.7521,25.362 L87.7521,31.112 C87.7521,31.3932 87.8355,31.5651 88.0021,31.6276 C88.0855,31.6589 88.2001,31.6797 88.3459,31.6901 L88.3459,31.9245 L87.7209,32.0026 C87.1688,32.0755 86.7261,32.1537 86.3928,32.237 M85.5178,31.7057 C85.8094,31.7057 86.0594,31.5391 86.2678,31.2057 C86.3198,31.112 86.3511,31.0443 86.3615,31.0026 L86.3615,28.5495 C86.2365,28.2162 86.0282,28.0182 85.7365,27.9557 C85.6844,27.9453 85.6323,27.9401 85.5803,27.9401 C85.0698,27.9401 84.7886,28.4453 84.7365,29.4557 C84.7365,29.5703 84.7365,29.6953 84.7365,29.8307 C84.7365,31.0703 84.9969,31.6953 85.5178,31.7057 M90.6896,29.6589 C90.7417,30.6797 91.0073,31.2787 91.4865,31.4557 C91.6115,31.4974 91.7417,31.5182 91.8771,31.5182 C92.2417,31.5182 92.5751,31.3516 92.8771,31.0182 C92.9292,30.9662 92.9761,30.9141 93.0178,30.862 L93.2521,31.0026 C92.8355,31.6068 92.424,31.987 92.0178,32.1432 C91.8094,32.2162 91.5751,32.2526 91.3146,32.2526 C90.5646,32.2526 90.0021,31.9453 89.6271,31.3307 C89.3771,30.9141 89.2521,30.4141 89.2521,29.8307 C89.2521,28.9349 89.523,28.263 90.0646,27.8151 C90.4292,27.5235 90.8563,27.3776 91.3459,27.3776 C92.4501,27.3776 93.0698,28.0964 93.2053,29.5339 C93.2053,29.5755 93.2053,29.6172 93.2053,29.6589 L90.6896,29.6589 M91.9865,29.1432 C91.9657,28.5182 91.898,28.1224 91.7834,27.9557 C91.6896,27.7995 91.5438,27.7214 91.3459,27.7214 C91.0542,27.7214 90.8563,27.8932 90.7521,28.237 C90.6896,28.4766 90.6532,28.8307 90.6428,29.2995 L91.9865,29.2995 L91.9865,29.1432 M96.2365,28.7214 C96.2365,27.6276 96.4969,26.737 97.0178,26.0495 C97.4448,25.5182 97.9396,25.2474 98.5021,25.237 C99.1584,25.237 99.7001,25.5755 100.127,26.2526 C100.544,26.9297 100.752,27.7578 100.752,28.737 C100.752,29.8828 100.487,30.7943 99.9553,31.4714 C99.549,31.9818 99.0698,32.237 98.5178,32.237 C97.8198,32.237 97.2573,31.8828 96.8303,31.1745 C96.4344,30.5182 96.2365,29.7005 96.2365,28.7214 M98.5178,31.9557 C98.8094,31.9557 99.0021,31.6849 99.0959,31.1432 C99.148,30.8203 99.174,30.4037 99.174,29.8932 L99.174,27.612 C99.174,26.4037 99.0178,25.7214 98.7053,25.5651 C98.6323,25.5339 98.5594,25.5182 98.4865,25.5182 C98.1844,25.5182 97.9865,25.7943 97.8928,26.3464 C97.8407,26.6589 97.8146,27.0807 97.8146,27.612 L97.8146,29.8932 C97.8146,31.0287 97.9553,31.6901 98.2365,31.8776 C98.3198,31.9297 98.4136,31.9557 98.5178,31.9557 M102.658,30.5495 C102.981,30.5495 103.226,30.6901 103.393,30.9714 C103.476,31.1172 103.518,31.263 103.518,31.4089 C103.518,31.7214 103.377,31.961 103.096,32.1276 C102.95,32.2005 102.804,32.237 102.658,32.237 C102.325,32.237 102.08,32.0964 101.924,31.8151 C101.851,31.6797 101.815,31.5391 101.815,31.3932 C101.815,31.0912 101.95,30.8568 102.221,30.6901 C102.356,30.5964 102.502,30.5495 102.658,30.5495 M102.658,27.3932 C102.981,27.3932 103.226,27.5287 103.393,27.7995 C103.476,27.9453 103.518,28.0912 103.518,28.237 C103.518,28.5599 103.377,28.8047 103.096,28.9714 C102.96,29.0443 102.815,29.0807 102.658,29.0807 C102.325,29.0807 102.08,28.9349 101.924,28.6432 C101.851,28.5078 101.815,28.3672 101.815,28.2214 C101.815,27.9193 101.95,27.6849 102.221,27.5182 C102.356,27.4349 102.502,27.3932 102.658,27.3932"/>
<path class="StaffText" d="M111.815,29.7682 L111.596,29.7682 C111.523,29.3516 111.408,29.0912 111.252,28.987 C111.106,28.8932 110.851,28.8464 110.487,28.8464 L109.033,28.8464 L109.033,30.9245 C109.033,31.362 109.106,31.638 109.252,31.7526 C109.367,31.8464 109.601,31.9037 109.955,31.9245 L109.955,32.112 L107.158,32.112 L107.158,31.9245 C107.544,31.8932 107.789,31.8151 107.893,31.6901 C107.976,31.5547 108.018,31.2943 108.018,30.9089 L108.018,26.5807 C108.018,26.1953 107.95,25.9505 107.815,25.8464 C107.69,25.763 107.471,25.711 107.158,25.6901 L107.158,25.5026 L112.455,25.5026 L112.487,26.9245 L112.237,26.9245 C112.153,26.4766 112.023,26.1901 111.846,26.0651 C111.648,25.9401 111.273,25.8776 110.721,25.8776 L109.362,25.8776 C109.184,25.8776 109.085,25.9245 109.065,26.0182 C109.044,26.0703 109.033,26.1328 109.033,26.2057 L109.033,28.4089 L110.487,28.4089 C110.924,28.4089 111.21,28.3307 111.346,28.1745 C111.45,28.0495 111.533,27.8203 111.596,27.487 L111.815,27.487 L111.815,29.7682 M116.127,28.1589 L116.127,27.987 C116.606,27.8412 117.075,27.6849 117.533,27.5182 L117.596,27.5339 L117.596,28.2995 C118.169,27.862 118.58,27.612 118.83,27.5495 C118.934,27.5287 119.039,27.5182 119.143,27.5182 C119.674,27.5287 120.028,27.8151 120.205,28.3776 C120.737,27.8047 121.283,27.5182 121.846,27.5182 C122.606,27.5287 122.992,28.1276 123.002,29.3151 L123.002,31.362 C123.013,31.7266 123.153,31.9193 123.424,31.9401 L123.69,31.9557 L123.69,32.112 L121.502,32.112 L121.502,31.9557 C121.825,31.9245 122.018,31.8516 122.08,31.737 C122.132,31.6432 122.158,31.4818 122.158,31.2526 L122.158,29.1432 C122.158,28.5912 122.049,28.2578 121.83,28.1432 C121.726,28.0807 121.585,28.0495 121.408,28.0495 C120.96,28.0599 120.596,28.263 120.315,28.6589 L120.315,31.1745 C120.315,31.5495 120.403,31.7839 120.58,31.8776 C120.684,31.9297 120.835,31.9557 121.033,31.9557 L121.033,32.112 L118.799,32.112 L118.799,31.9557 C119.122,31.9349 119.32,31.862 119.393,31.737 C119.455,31.6432 119.487,31.4818 119.487,31.2526 L119.487,29.0964 C119.487,28.3985 119.263,28.0495 118.815,28.0495 C118.45,28.0495 118.127,28.1693 117.846,28.4089 C117.773,28.4818 117.705,28.5599 117.643,28.6432 L117.643,31.4401 C117.643,31.6901 117.731,31.8464 117.908,31.9089 C118.002,31.9401 118.138,31.9557 118.315,31.9557 L118.315,32.112 L116.096,32.112 L116.096,31.9557 C116.45,31.9557 116.664,31.8724 116.737,31.7057 C116.778,31.6016 116.799,31.4557 116.799,31.2682 L116.799,28.7526 C116.799,28.3776 116.721,28.1693 116.565,28.1276 C116.533,28.1172 116.497,28.112 116.455,28.112 C116.351,28.112 116.242,28.1276 116.127,28.1589 M124.252,31.1432 C124.252,30.6328 124.57,30.2005 125.205,29.8464 C125.393,29.7526 125.893,29.5391 126.705,29.2057 C126.726,29.2057 126.742,29.2005 126.752,29.1901 L126.752,28.5807 C126.7,28.0599 126.445,27.7839 125.987,27.7526 C125.674,27.7526 125.455,27.8516 125.33,28.0495 C125.289,28.1224 125.268,28.1849 125.268,28.237 C125.268,28.2995 125.278,28.3828 125.299,28.487 C125.309,28.5599 125.315,28.612 125.315,28.6432 C125.315,28.8203 125.226,28.9453 125.049,29.0182 C124.987,29.0495 124.929,29.0651 124.877,29.0651 C124.69,29.0651 124.559,28.9766 124.487,28.7995 C124.455,28.7474 124.44,28.6901 124.44,28.6276 C124.44,28.263 124.658,27.9662 125.096,27.737 C125.398,27.5912 125.742,27.5182 126.127,27.5182 C126.846,27.5182 127.289,27.7735 127.455,28.2839 C127.528,28.5026 127.565,28.7787 127.565,29.112 L127.565,31.0495 C127.565,31.3828 127.627,31.5703 127.752,31.612 C127.794,31.6224 127.83,31.6276 127.862,31.6276 C128.007,31.6172 128.153,31.5547 128.299,31.4401 L128.299,31.6901 C128.028,32.0026 127.778,32.1745 127.549,32.2057 C127.497,32.2057 127.445,32.2057 127.393,32.2057 C127.08,32.2057 126.882,32.0495 126.799,31.737 C126.778,31.6537 126.768,31.5599 126.768,31.4557 C126.174,31.9349 125.684,32.1849 125.299,32.2057 C124.872,32.2057 124.565,32.0339 124.377,31.6901 C124.294,31.5235 124.252,31.3412 124.252,31.1432 M126.752,30.862 L126.752,29.4245 C125.929,29.7266 125.424,30.0339 125.237,30.3464 C125.164,30.4922 125.127,30.6485 125.127,30.8151 C125.127,31.211 125.273,31.461 125.565,31.5651 C125.638,31.5964 125.705,31.612 125.768,31.612 C125.987,31.6016 126.226,31.5235 126.487,31.3776 C126.632,31.2943 126.716,31.1901 126.737,31.0651 C126.747,31.0026 126.752,30.9349 126.752,30.862 M129.471,28.1901 C129.471,28.1901 129.32,28.2005 129.018,28.2214 L129.018,28.0495 C129.559,27.8828 130.08,27.7057 130.58,27.5182 L130.627,27.5495 L130.627,32.112 C130.627,33.3412 130.216,34.0495 129.393,34.237 C129.247,34.2682 129.096,34.2839 128.94,34.2839 C128.502,34.2839 128.21,34.1745 128.065,33.9557 C128.023,33.8828 128.002,33.8099 128.002,33.737 C128.002,33.5495 128.091,33.4297 128.268,33.3776 C128.32,33.3568 128.367,33.3464 128.408,33.3464 C128.554,33.3464 128.71,33.4505 128.877,33.6589 C129.054,33.8464 129.2,33.9453 129.315,33.9557 C129.544,33.9557 129.684,33.7943 129.737,33.4714 C129.768,33.2735 129.783,32.9714 129.783,32.5651 L129.783,28.7682 C129.783,28.4141 129.705,28.2214 129.549,28.1901 C129.518,28.1901 129.492,28.1901 129.471,28.1901 M130.127,25.2839 C130.346,25.2839 130.502,25.3828 130.596,25.5807 C130.627,25.6537 130.643,25.7266 130.643,25.7995 C130.643,26.0182 130.533,26.1745 130.315,26.2682 C130.252,26.2891 130.19,26.2995 130.127,26.2995 C129.898,26.2995 129.742,26.2005 129.658,26.0026 C129.638,25.9297 129.627,25.862 129.627,25.7995 C129.627,25.5807 129.721,25.4245 129.908,25.3307 C129.981,25.2995 130.054,25.2839 130.127,25.2839 M133.455,27.5182 C134.195,27.5182 134.778,27.7891 135.205,28.3307 C135.507,28.737 135.658,29.2162 135.658,29.7682 C135.658,30.5495 135.403,31.1745 134.893,31.6432 C134.476,32.0182 133.992,32.2057 133.44,32.2057 C132.731,32.2057 132.169,31.9349 131.752,31.3932 C131.419,30.9557 131.252,30.4401 131.252,29.8464 C131.252,29.0339 131.528,28.4089 132.08,27.9714 C132.466,27.6693 132.924,27.5182 133.455,27.5182 M132.158,29.362 C132.158,30.2682 132.346,30.961 132.721,31.4401 C132.96,31.7526 133.242,31.9089 133.565,31.9089 C134.085,31.9089 134.445,31.612 134.643,31.0182 C134.726,30.7578 134.768,30.461 134.768,30.1276 C134.768,29.2422 134.554,28.586 134.127,28.1589 C133.898,27.9297 133.632,27.8151 133.33,27.8151 C132.862,27.8151 132.523,28.0547 132.315,28.5339 C132.21,28.7735 132.158,29.0495 132.158,29.362 M139.018,28.487 C138.914,28.487 138.763,28.4037 138.565,28.237 C138.471,28.1537 138.398,28.112 138.346,28.112 C138.179,28.112 138.007,28.2422 137.83,28.5026 C137.716,28.6693 137.658,28.8151 137.658,28.9401 L137.658,31.2057 C137.658,31.5495 137.747,31.763 137.924,31.8464 C138.049,31.9089 138.242,31.9453 138.502,31.9557 L138.502,32.112 L136.096,32.112 L136.096,31.9557 C136.45,31.8932 136.664,31.8099 136.737,31.7057 C136.789,31.6224 136.815,31.4766 136.815,31.2682 L136.815,28.7526 C136.815,28.388 136.731,28.1901 136.565,28.1589 C136.533,28.1485 136.502,28.1432 136.471,28.1432 C136.356,28.1432 136.242,28.1589 136.127,28.1901 L136.127,28.0339 C136.658,27.8672 137.148,27.6953 137.596,27.5182 L137.658,27.5339 L137.658,28.4245 C138.002,27.9453 138.294,27.6589 138.533,27.5651 C138.638,27.5339 138.742,27.5182 138.846,27.5182 C139.158,27.5182 139.341,27.6485 139.393,27.9089 C139.393,27.9505 139.393,27.9974 139.393,28.0495 C139.362,28.3203 139.237,28.4662 139.018,28.487 M144.674,27.7214 C144.695,27.711 144.752,27.6745 144.846,27.612 L144.955,27.612 L144.987,28.9714 L144.846,28.9714 C144.679,28.3255 144.44,27.9401 144.127,27.8151 C144.013,27.763 143.882,27.737 143.737,27.737 C143.382,27.737 143.143,27.8776 143.018,28.1589 C142.987,28.2422 142.971,28.3307 142.971,28.4245 C142.981,28.7057 143.127,28.9297 143.408,29.0964 L144.487,29.737 C144.966,30.0287 145.237,30.3464 145.299,30.6901 C145.309,30.763 145.315,30.8464 145.315,30.9401 C145.315,31.3568 145.132,31.6953 144.768,31.9557 C144.507,32.1224 144.221,32.2057 143.908,32.2057 C143.773,32.2057 143.466,32.1589 142.987,32.0651 C142.872,32.0443 142.783,32.0339 142.721,32.0339 C142.617,32.0443 142.539,32.086 142.487,32.1589 L142.362,32.1589 L142.362,30.5964 L142.518,30.5964 C142.622,31.0651 142.752,31.3932 142.908,31.5807 C143.127,31.8516 143.419,31.987 143.783,31.987 C144.21,31.987 144.476,31.8307 144.58,31.5182 C144.612,31.4453 144.627,31.362 144.627,31.2682 C144.617,30.9662 144.44,30.7162 144.096,30.5182 L143.518,30.1901 C142.893,29.836 142.523,29.4818 142.408,29.1276 C142.367,29.0026 142.346,28.8776 142.346,28.7526 C142.346,28.2839 142.549,27.9349 142.955,27.7057 C143.184,27.5807 143.434,27.5182 143.705,27.5182 C143.924,27.5182 144.184,27.5703 144.487,27.6745 C144.57,27.7057 144.632,27.7214 144.674,27.7214 M146.252,29.987 C146.252,29.1432 146.539,28.4818 147.112,28.0026 C147.507,27.6797 147.95,27.5182 148.44,27.5182 C148.992,27.5182 149.419,27.6693 149.721,27.9714 C149.898,28.1485 149.987,28.3412 149.987,28.5495 C149.987,28.7266 149.893,28.8516 149.705,28.9245 C149.632,28.9557 149.565,28.9714 149.502,28.9714 C149.294,28.9714 149.143,28.836 149.049,28.5651 C149.039,28.5443 149.033,28.5235 149.033,28.5026 L148.971,28.2839 C148.908,28.0339 148.794,27.888 148.627,27.8464 C148.554,27.8255 148.471,27.8151 148.377,27.8151 C147.877,27.8151 147.497,28.0547 147.237,28.5339 C147.091,28.8255 147.018,29.1641 147.018,29.5495 C147.018,30.2787 147.242,30.8255 147.69,31.1901 C147.95,31.388 148.242,31.487 148.565,31.487 C148.981,31.487 149.341,31.3203 149.643,30.987 C149.747,30.862 149.862,30.7162 149.987,30.5495 L150.127,30.6432 C149.752,31.362 149.335,31.8307 148.877,32.0495 C148.638,32.1537 148.398,32.2057 148.158,32.2057 C147.513,32.2057 147.007,31.9401 146.643,31.4089 C146.382,31.0026 146.252,30.5287 146.252,29.987 M150.252,31.1432 C150.252,30.6328 150.57,30.2005 151.205,29.8464 C151.393,29.7526 151.893,29.5391 152.705,29.2057 C152.726,29.2057 152.742,29.2005 152.752,29.1901 L152.752,28.5807 C152.7,28.0599 152.445,27.7839 151.987,27.7526 C151.674,27.7526 151.455,27.8516 151.33,28.0495 C151.289,28.1224 151.268,28.1849 151.268,28.237 C151.268,28.2995 151.278,28.3828 151.299,28.487 C151.309,28.5599 151.315,28.612 151.315,28.6432 C151.315,28.8203 151.226,28.9453 151.049,29.0182 C150.987,29.0495 150.929,29.0651 150.877,29.0651 C150.69,29.0651 150.559,28.9766 150.487,28.7995 C150.455,28.7474 150.44,28.6901 150.44,28.6276 C150.44,28.263 150.658,27.9662 151.096,27.737 C151.398,27.5912 151.742,27.5182 152.127,27.5182 C152.846,27.5182 153.289,27.7735 153.455,28.2839 C153.528,28.5026 153.565,28.7787 153.565,29.112 L153.565,31.0495 C153.565,31.3828 153.627,31.5703 153.752,31.612 C153.794,31.6224 153.83,31.6276 153.862,31.6276 C154.007,31.6172 154.153,31.5547 154.299,31.4401 L154.299,31.6901 C154.028,32.0026 153.778,32.1745 153.549,32.2057 C153.497,32.2057 153.445,32.2057 153.393,32.2057 C153.08,32.2057 152.882,32.0495 152.799,31.737 C152.778,31.6537 152.768,31.5599 152.768,31.4557 C152.174,31.9349 151.684,32.1849 151.299,32.2057 C150.872,32.2057 150.565,32.0339 150.377,31.6901 C150.294,31.5235 150.252,31.3412 150.252,31.1432 M152.752,30.862 L152.752,29.4245 C151.929,29.7266 151.424,30.0339 151.237,30.3464 C151.164,30.4922 151.127,30.6485 151.127,30.8151 C151.127,31.211 151.273,31.461 151.565,31.5651 C151.638,31.5964 151.705,31.612 151.768,31.612 C151.987,31.6016 152.226,31.5235 152.487,31.3776 C152.632,31.2943 152.716,31.1901 152.737,31.0651 C152.747,31.0026 152.752,30.9349 152.752,30.862 M154.096,25.8776 L154.096,25.7214 C154.763,25.5547 155.294,25.4089 155.69,25.2839 L155.737,25.2995 L155.737,31.2682 C155.737,31.5807 155.799,31.7735 155.924,31.8464 C156.039,31.8985 156.226,31.9349 156.487,31.9557 L156.487,32.112 L154.127,32.112 L154.127,31.9557 C154.502,31.9245 154.731,31.836 154.815,31.6901 C154.867,31.5964 154.893,31.4453 154.893,31.237 L154.893,26.4714 C154.893,26.138 154.82,25.9453 154.674,25.8932 C154.612,25.8724 154.544,25.862 154.471,25.862 C154.335,25.862 154.21,25.8672 154.096,25.8776 M157.971,29.3464 C158.013,30.5235 158.398,31.2162 159.127,31.4245 C159.252,31.4662 159.388,31.487 159.533,31.487 C160.023,31.487 160.44,31.2787 160.783,30.862 C160.877,30.7474 160.976,30.612 161.08,30.4557 L161.237,30.5182 C160.872,31.4766 160.299,32.0287 159.518,32.1745 C159.382,32.1953 159.252,32.2057 159.127,32.2057 C158.388,32.2057 157.856,31.8932 157.533,31.2682 C157.346,30.8932 157.252,30.461 157.252,29.9714 C157.252,29.086 157.528,28.4141 158.08,27.9557 C158.445,27.6641 158.867,27.5182 159.346,27.5182 C160.263,27.5182 160.815,28.0391 161.002,29.0807 C161.023,29.1745 161.039,29.263 161.049,29.3464 L157.971,29.3464 M157.987,29.0495 L160.033,29.0495 C159.94,28.4766 159.773,28.1224 159.533,27.987 C159.408,27.9245 159.247,27.8932 159.049,27.8932 C158.455,27.8932 158.101,28.2682 157.987,29.0182 C157.987,29.0287 157.987,29.0391 157.987,29.0495 M166.596,27.612 L166.596,27.9089 L165.58,27.9089 L165.58,30.7682 C165.58,31.3099 165.716,31.6068 165.987,31.6589 C166.018,31.6693 166.054,31.6745 166.096,31.6745 C166.304,31.6641 166.507,31.5443 166.705,31.3151 L166.83,31.4401 C166.507,31.9505 166.106,32.2057 165.627,32.2057 C165.044,32.1953 164.747,31.7735 164.737,30.9401 L164.737,27.9089 L164.205,27.9089 C164.184,27.888 164.174,27.8672 164.174,27.8464 C164.174,27.8047 164.216,27.763 164.299,27.7214 C164.58,27.5339 164.914,27.1693 165.299,26.6276 C165.309,26.6172 165.315,26.612 165.315,26.612 C165.419,26.4557 165.487,26.362 165.518,26.3307 C165.559,26.3412 165.58,26.3828 165.58,26.4557 L165.58,27.612 L166.596,27.612 M169.455,27.5182 C170.195,27.5182 170.778,27.7891 171.205,28.3307 C171.507,28.737 171.658,29.2162 171.658,29.7682 C171.658,30.5495 171.403,31.1745 170.893,31.6432 C170.476,32.0182 169.992,32.2057 169.44,32.2057 C168.731,32.2057 168.169,31.9349 167.752,31.3932 C167.419,30.9557 167.252,30.4401 167.252,29.8464 C167.252,29.0339 167.528,28.4089 168.08,27.9714 C168.466,27.6693 168.924,27.5182 169.455,27.5182 M168.158,29.362 C168.158,30.2682 168.346,30.961 168.721,31.4401 C168.96,31.7526 169.242,31.9089 169.565,31.9089 C170.085,31.9089 170.445,31.612 170.643,31.0182 C170.726,30.7578 170.768,30.461 170.768,30.1276 C170.768,29.2422 170.554,28.586 170.127,28.1589 C169.898,27.9297 169.632,27.8151 169.33,27.8151 C168.862,27.8151 168.523,28.0547 168.315,28.5339 C168.21,28.7735 168.158,29.0495 168.158,29.362 M178.565,30.1432 C178.565,29.2266 178.07,28.5807 177.08,28.2057 C176.632,28.0391 176.195,27.9557 175.768,27.9557 C175.695,27.9453 175.653,27.9193 175.643,27.8776 C175.643,27.8464 175.648,27.8255 175.658,27.8151 L176.737,25.5026 L178.83,25.5026 C179.007,25.5026 179.148,25.4297 179.252,25.2839 C179.263,25.263 179.273,25.2474 179.283,25.237 L179.377,25.2995 L179.002,26.1432 C178.96,26.1953 178.882,26.2214 178.768,26.2214 L176.815,26.2214 L176.393,27.0807 C177.695,27.3203 178.544,27.7526 178.94,28.3776 C179.158,28.7214 179.268,29.1537 179.268,29.6745 C179.268,30.8099 178.794,31.5807 177.846,31.987 C177.44,32.1641 177.007,32.2526 176.549,32.2526 C175.903,32.2526 175.507,32.1068 175.362,31.8151 C175.33,31.763 175.315,31.7005 175.315,31.6276 C175.335,31.388 175.481,31.2682 175.752,31.2682 C175.94,31.2682 176.184,31.3724 176.487,31.5807 C176.778,31.7787 177.007,31.8776 177.174,31.8776 C177.643,31.8776 178.013,31.6589 178.283,31.2214 C178.471,30.8985 178.565,30.5391 178.565,30.1432 M182.596,27.612 L182.596,27.9089 L181.58,27.9089 L181.58,30.7682 C181.58,31.3099 181.716,31.6068 181.987,31.6589 C182.018,31.6693 182.054,31.6745 182.096,31.6745 C182.304,31.6641 182.507,31.5443 182.705,31.3151 L182.83,31.4401 C182.507,31.9505 182.106,32.2057 181.627,32.2057 C181.044,32.1953 180.747,31.7735 180.737,30.9401 L180.737,27.9089 L180.205,27.9089 C180.184,27.888 180.174,27.8672 180.174,27.8464 C180.174,27.8047 180.216,27.763 180.299,27.7214 C180.58,27.5339 180.914,27.1693 181.299,26.6276 C181.309,26.6172 181.315,26.612 181.315,26.612 C181.419,26.4557 181.487,26.362 181.518,26.3307 C181.559,26.3412 181.58,26.3828 181.58,26.4557 L181.58,27.612 L182.596,27.612 M184.58,28.6901 L184.58,31.0964 C184.58,31.4818 184.643,31.7214 184.768,31.8151 C184.862,31.888 185.028,31.9349 185.268,31.9557 L185.268,32.112 L183.096,32.112 L183.096,31.9557 C183.398,31.9245 183.585,31.8516 183.658,31.737 C183.71,31.6328 183.737,31.4193 183.737,31.0964 L183.737,26.3776 C183.737,26.1172 183.684,25.961 183.58,25.9089 C183.518,25.8776 183.419,25.862 183.283,25.862 C183.231,25.862 183.174,25.8672 183.112,25.8776 L183.112,25.7214 C183.591,25.5964 184.065,25.4505 184.533,25.2839 L184.58,25.3151 L184.58,28.3464 C184.966,27.8568 185.377,27.5807 185.815,27.5182 C185.888,27.5182 185.966,27.5182 186.049,27.5182 C186.862,27.5287 187.273,28.0547 187.283,29.0964 L187.283,31.0964 C187.283,31.4714 187.33,31.7057 187.424,31.7995 C187.497,31.8724 187.648,31.9245 187.877,31.9557 L187.877,32.112 L185.768,32.112 L185.768,31.9557 C186.08,31.9245 186.273,31.8412 186.346,31.7057 C186.408,31.5912 186.44,31.388 186.44,31.0964 L186.44,29.112 C186.429,28.4141 186.179,28.0599 185.69,28.0495 C185.367,28.0495 185.039,28.2162 184.705,28.5495 C184.664,28.6016 184.622,28.6485 184.58,28.6901"/>
</svg>
