<?xml version="1.0" encoding="UTF-8" standalone="no"?>
<svg width="595.44px" height="841.68px" viewBox="0 0 595.44 841.68"
 xmlns="http://www.w3.org/2000/svg" xmlns:xlink="http://www.w3.org/1999/xlink" version="1.2" baseProfile="tiny">
<title>Guitar Scales and Arpeggios</title>
<desc>Generated by MuseScore 2.1.0</desc>
<polyline class="StaffLines" fill="none" stroke="#000000" stroke-width="0.40" stroke-linejoin="bevel" points="28.08,62.856 567.36,62.856"/>
<polyline class="StaffLines" fill="none" stroke="#000000" stroke-width="0.40" stroke-linejoin="bevel" points="28.08,67.824 567.36,67.824"/>
<polyline class="StaffLines" fill="none" stroke="#000000" stroke-width="0.40" stroke-linejoin="bevel" points="28.08,72.792 567.36,72.792"/>
<polyline class="StaffLines" fill="none" stroke="#000000" stroke-width="0.40" stroke-linejoin="bevel" points="28.08,77.76 567.36,77.76"/>
<polyline class="StaffLines" fill="none" stroke="#000000" stroke-width="0.40" stroke-linejoin="bevel" points="28.08,82.728 567.36,82.728"/>
<polyline class="StaffLines" fill="none" stroke="#000000" stroke-width="0.40" stroke-linejoin="bevel" points="28.08,115.02 567.36,115.02"/>
<polyline class="StaffLines" fill="none" stroke="#000000" stroke-width="0.40" stroke-linejoin="bevel" points="28.08,122.472 567.36,122.472"/>
<polyline class="StaffLines" fill="none" stroke="#000000" stroke-width="0.40" stroke-linejoin="bevel" points="28.08,129.924 567.36,129.924"/>
<polyline class="StaffLines" fill="none" stroke="#000000" stroke-width="0.40" stroke-linejoin="bevel" points="28.08,137.376 567.36,137.376"/>
<polyline class="StaffLines" fill="none" stroke="#000000" stroke-width="0.40" stroke-linejoin="bevel" points="28.08,144.828 567.36,144.828"/>
<polyline class="StaffLines" fill="none" stroke="#000000" stroke-width="0.40" stroke-linejoin="bevel" points="28.08,152.28 567.36,152.28"/>
<polyline class="BarLine" fill="none" stroke="#000000" stroke-width="0.79" stroke-linejoin="bevel" points="28.4774,62.856 28.4774,152.28"/>
<polyline class="BarLine" fill="none" stroke="#000000" stroke-width="0.79" stroke-linejoin="bevel" points="562.491,115.02 562.491,152.28"/>
<polyline class="BarLine" fill="none" stroke="#000000" stroke-width="2.48" stroke-linejoin="bevel" points="566.118,115.02 566.118,152.28"/>
<polyline class="BarLine" fill="none" stroke="#000000" stroke-width="0.79" stroke-linejoin="bevel" points="562.491,62.856 562.491,82.728"/>
<polyline class="BarLine" fill="none" stroke="#000000" stroke-width="2.48" stroke-linejoin="bevel" points="566.118,62.856 566.118,82.728"/>
<polyline class="Stem" fill="none" stroke="#000000" stroke-width="0.65" stroke-linecap="round" stroke-linejoin="bevel" points="485.885,76.9969 485.885,60.993"/>
<polyline class="Stem" fill="none" stroke="#000000" stroke-width="0.65" stroke-linecap="round" stroke-linejoin="bevel" points="434.076,74.3429 434.076,59.13"/>
<polyline class="Stem" fill="none" stroke="#000000" stroke-width="0.65" stroke-linecap="round" stroke-linejoin="bevel" points="376.552,73.7251 376.552,88.317"/>
<polyline class="Stem" fill="none" stroke="#000000" stroke-width="0.65" stroke-linecap="round" stroke-linejoin="bevel" points="324.923,71.2411 324.923,86.454"/>
<polyline class="Stem" fill="none" stroke="#000000" stroke-width="0.65" stroke-linecap="round" stroke-linejoin="bevel" points="273.294,68.7571 273.294,84.591"/>
<polyline class="Stem" fill="none" stroke="#000000" stroke-width="0.65" stroke-linecap="round" stroke-linejoin="bevel" points="221.665,71.2411 221.665,86.454"/>
<polyline class="Stem" fill="none" stroke="#000000" stroke-width="0.65" stroke-linecap="round" stroke-linejoin="bevel" points="170.036,73.7251 170.036,88.317"/>
<polyline class="Stem" fill="none" stroke="#000000" stroke-width="0.65" stroke-linecap="round" stroke-linejoin="bevel" points="124.302,74.3429 124.302,59.13"/>
<polyline class="Stem" fill="none" stroke="#000000" stroke-width="0.65" stroke-linecap="round" stroke-linejoin="bevel" points="72.6732,76.8269 72.6732,60.993"/>
<path class="Note" fill="#ffffff" fill-rule="evenodd" d="M480.233,126.198 L486.194,126.198 L486.194,133.65 L480.233,133.65 L480.233,126.198 "/>
<path class="Note" transform="matrix(0.9936,0,0,0.9936,480.73,133.402)" d="M0.390625,-3.09375 C0.390625,-5 0.927083,-6.07813 2,-6.32813 C2.14583,-6.36979 2.30208,-6.39063 2.46875,-6.39063 C3.78125,-6.39063 4.47917,-5.40104 4.5625,-3.42188 C4.5625,-3.28646 4.5625,-3.15625 4.5625,-3.03125 C4.5625,-1.40625 4.15104,-0.385417 3.32813,0.03125 C3.06771,0.145833 2.78125,0.203125 2.46875,0.203125 C1.41667,0.203125 0.760417,-0.442708 0.5,-1.73438 C0.427083,-2.14063 0.390625,-2.59375 0.390625,-3.09375 M2.46875,-5.64063 C1.625,-5.63021 1.20313,-4.77083 1.20313,-3.0625 C1.20313,-1.32292 1.61979,-0.453125 2.45313,-0.453125 C3.16146,-0.453125 3.57813,-1.02604 3.70313,-2.17188 C3.73438,-2.44271 3.75,-2.75 3.75,-3.09375 C3.75,-4.79167 3.32292,-5.64063 2.46875,-5.64063"/>
<path class="Note" fill="#99cc33" transform="matrix(0.9936,0,0,0.9936,479.308,77.76)" d="M6.3125,-1.3125 C6.3125,-1.53125 6.22917,-1.71875 6.0625,-1.875 C5.88542,-2.04167 5.6875,-2.125 5.46875,-2.125 C5.08333,-2.125 4.29688,-1.73438 3.10938,-0.953125 C1.88021,-0.161458 1.13021,0.40625 0.859375,0.75 C0.713542,0.927083 0.640625,1.11458 0.640625,1.3125 C0.640625,1.53125 0.729167,1.71875 0.90625,1.875 C1.0625,2.04167 1.25521,2.125 1.48438,2.125 C1.85938,2.125 2.65625,1.73438 3.875,0.953125 C5.07292,0.171875 5.8125,-0.395833 6.09375,-0.75 C6.23958,-0.916667 6.3125,-1.10417 6.3125,-1.3125 M5.28125,-2.75 C6.39583,-2.75 6.95313,-2.27083 6.95313,-1.3125 C6.95313,-0.84375 6.81771,-0.296875 6.54688,0.328125 C6.27604,0.942708 5.91146,1.41146 5.45313,1.73438 C4.45313,2.41146 3.19792,2.75 1.6875,2.75 C0.5625,2.75 0,2.27083 0,1.3125 C0,0.885417 0.135417,0.34375 0.40625,-0.3125 C0.666667,-0.9375 1.03125,-1.41146 1.5,-1.73438 C2.51042,-2.41146 3.77083,-2.75 5.28125,-2.75"/>
<path class="Note" fill="#ffffff" fill-rule="evenodd" d="M428.604,126.198 L434.565,126.198 L434.565,133.65 L428.604,133.65 L428.604,126.198 "/>
<path class="Note" transform="matrix(0.9936,0,0,0.9936,429.101,133.402)" d="M0.453125,-4.17188 C0.494792,-5.64063 1.19792,-6.38021 2.5625,-6.39063 C3.28125,-6.39063 3.83333,-6.14583 4.21875,-5.65625 C4.46875,-5.32292 4.59375,-4.93229 4.59375,-4.48438 C4.59375,-3.68229 4.14583,-3.03125 3.25,-2.53125 L2.34375,-2.04688 C1.79167,-1.75521 1.44271,-1.4375 1.29688,-1.09375 C1.24479,-0.989583 1.21354,-0.869792 1.20313,-0.734375 L4.5625,-0.734375 L4.5625,0 L0.3125,0 C0.354167,-0.760417 0.520833,-1.33854 0.8125,-1.73438 C1.07292,-2.05729 1.5,-2.38542 2.09375,-2.71875 L2.92188,-3.1875 C3.49479,-3.52083 3.78646,-3.94271 3.79688,-4.45313 C3.79688,-4.88021 3.61458,-5.21354 3.25,-5.45313 C3.04167,-5.57813 2.80208,-5.64063 2.53125,-5.64063 C1.73958,-5.64063 1.3125,-5.16667 1.25,-4.21875 C1.25,-4.19792 1.25,-4.18229 1.25,-4.17188 L0.453125,-4.17188 "/>
<path class="Note" fill="#cc00ff" transform="matrix(0.9936,0,0,0.9936,427.859,75.276)" d="M4.39063,-2.75 C5.01563,-2.75 5.54688,-2.58854 5.98438,-2.26563 C6.38021,-1.91146 6.57813,-1.46875 6.57813,-0.9375 C6.57813,-0.0416667 6.11979,0.796875 5.20313,1.57813 C4.26563,2.35938 3.26042,2.75 2.1875,2.75 C1.5625,2.75 1.03646,2.58854 0.609375,2.26563 C0.203125,1.91146 0,1.46875 0,0.9375 C0,0.0416667 0.46875,-0.796875 1.40625,-1.57813 C2.32292,-2.35938 3.31771,-2.75 4.39063,-2.75"/>
<path class="Note" fill="#ffffff" fill-rule="evenodd" d="M376.975,118.746 L382.936,118.746 L382.936,126.198 L376.975,126.198 L376.975,118.746 "/>
<path class="Note" transform="matrix(0.9936,0,0,0.9936,377.472,125.95)" d="M0.390625,-3.09375 C0.390625,-5 0.927083,-6.07813 2,-6.32813 C2.14583,-6.36979 2.30208,-6.39063 2.46875,-6.39063 C3.78125,-6.39063 4.47917,-5.40104 4.5625,-3.42188 C4.5625,-3.28646 4.5625,-3.15625 4.5625,-3.03125 C4.5625,-1.40625 4.15104,-0.385417 3.32813,0.03125 C3.06771,0.145833 2.78125,0.203125 2.46875,0.203125 C1.41667,0.203125 0.760417,-0.442708 0.5,-1.73438 C0.427083,-2.14063 0.390625,-2.59375 0.390625,-3.09375 M2.46875,-5.64063 C1.625,-5.63021 1.20313,-4.77083 1.20313,-3.0625 C1.20313,-1.32292 1.61979,-0.453125 2.45313,-0.453125 C3.16146,-0.453125 3.57813,-1.02604 3.70313,-2.17188 C3.73438,-2.44271 3.75,-2.75 3.75,-3.09375 C3.75,-4.79167 3.32292,-5.64063 2.46875,-5.64063"/>
<path class="Note" fill="#ff9ee6" transform="matrix(0.9936,0,0,0.9936,376.23,72.792)" d="M4.39063,-2.75 C5.01563,-2.75 5.54688,-2.58854 5.98438,-2.26563 C6.38021,-1.91146 6.57813,-1.46875 6.57813,-0.9375 C6.57813,-0.0416667 6.11979,0.796875 5.20313,1.57813 C4.26563,2.35938 3.26042,2.75 2.1875,2.75 C1.5625,2.75 1.03646,2.58854 0.609375,2.26563 C0.203125,1.91146 0,1.46875 0,0.9375 C0,0.0416667 0.46875,-0.796875 1.40625,-1.57813 C2.32292,-2.35938 3.31771,-2.75 4.39063,-2.75"/>
<path class="Note" fill="#ffffff" fill-rule="evenodd" d="M325.346,118.746 L331.307,118.746 L331.307,126.198 L325.346,126.198 L325.346,118.746 "/>
<path class="Note" transform="matrix(0.9936,0,0,0.9936,325.842,125.95)" d="M2.32813,-4.54688 L0.921875,-4.54688 L0.921875,-5.10938 C1.53646,-5.19271 1.93229,-5.30208 2.10938,-5.4375 C2.28646,-5.57292 2.4375,-5.85417 2.5625,-6.28125 C2.57292,-6.3125 2.58854,-6.34896 2.60938,-6.39063 L3.125,-6.39063 L3.125,0 L2.32813,0 L2.32813,-4.54688 "/>
<path class="Note" fill="#ed2929" transform="matrix(0.9936,0,0,0.9936,324.6,70.308)" d="M4.39063,-2.75 C5.01563,-2.75 5.54688,-2.58854 5.98438,-2.26563 C6.38021,-1.91146 6.57813,-1.46875 6.57813,-0.9375 C6.57813,-0.0416667 6.11979,0.796875 5.20313,1.57813 C4.26563,2.35938 3.26042,2.75 2.1875,2.75 C1.5625,2.75 1.03646,2.58854 0.609375,2.26563 C0.203125,1.91146 0,1.46875 0,0.9375 C0,0.0416667 0.46875,-0.796875 1.40625,-1.57813 C2.32292,-2.35938 3.31771,-2.75 4.39063,-2.75"/>
<path class="Note" fill="#ffffff" fill-rule="evenodd" d="M273.717,118.746 L279.678,118.746 L279.678,126.198 L273.717,126.198 L273.717,118.746 "/>
<path class="Note" transform="matrix(0.9936,0,0,0.9936,274.213,125.95)" d="M2.4375,-5.64063 C1.75,-5.64063 1.35417,-5.32813 1.25,-4.70313 C1.22917,-4.59896 1.21875,-4.47917 1.21875,-4.34375 L0.421875,-4.34375 C0.442708,-5.59375 1.01563,-6.27083 2.14063,-6.375 C2.23438,-6.38542 2.32813,-6.39063 2.42188,-6.39063 C3.26563,-6.39063 3.84375,-6.10938 4.15625,-5.54688 C4.29167,-5.28646 4.35938,-4.98438 4.35938,-4.64063 C4.35938,-4.00521 4.0625,-3.57292 3.46875,-3.34375 C4.03125,-3.14583 4.375,-2.81771 4.5,-2.35938 C4.54167,-2.19271 4.5625,-2.00521 4.5625,-1.79688 C4.5625,-1.05729 4.27604,-0.505208 3.70313,-0.140625 C3.33854,0.0885417 2.90104,0.203125 2.39063,0.203125 C1.21354,0.203125 0.526042,-0.348958 0.328125,-1.45313 C0.317708,-1.57813 0.302083,-1.71354 0.28125,-1.85938 L1.07813,-1.85938 C1.13021,-1.08854 1.46875,-0.65625 2.09375,-0.5625 C2.19792,-0.541667 2.30729,-0.53125 2.42188,-0.53125 C3.04688,-0.53125 3.45313,-0.765625 3.64063,-1.23438 C3.71354,-1.40104 3.75,-1.58854 3.75,-1.79688 C3.73958,-2.54688 3.29688,-2.92708 2.42188,-2.9375 L2.09375,-2.92188 L1.98438,-2.92188 L1.98438,-3.67188 C2.66146,-3.68229 3.10417,-3.77604 3.3125,-3.95313 C3.47917,-4.09896 3.5625,-4.31771 3.5625,-4.60938 C3.5625,-5.09896 3.34896,-5.41667 2.92188,-5.5625 C2.77604,-5.61458 2.61458,-5.64063 2.4375,-5.64063"/>
<path class="Note" fill="#78c7c7" transform="matrix(0.9936,0,0,0.9936,272.971,67.824)" d="M4.39063,-2.75 C5.01563,-2.75 5.54688,-2.58854 5.98438,-2.26563 C6.38021,-1.91146 6.57813,-1.46875 6.57813,-0.9375 C6.57813,-0.0416667 6.11979,0.796875 5.20313,1.57813 C4.26563,2.35938 3.26042,2.75 2.1875,2.75 C1.5625,2.75 1.03646,2.58854 0.609375,2.26563 C0.203125,1.91146 0,1.46875 0,0.9375 C0,0.0416667 0.46875,-0.796875 1.40625,-1.57813 C2.32292,-2.35938 3.31771,-2.75 4.39063,-2.75"/>
<path class="Note" fill="#ffffff" fill-rule="evenodd" d="M222.088,118.746 L228.049,118.746 L228.049,126.198 L222.088,126.198 L222.088,118.746 "/>
<path class="Note" transform="matrix(0.9936,0,0,0.9936,222.584,125.95)" d="M2.32813,-4.54688 L0.921875,-4.54688 L0.921875,-5.10938 C1.53646,-5.19271 1.93229,-5.30208 2.10938,-5.4375 C2.28646,-5.57292 2.4375,-5.85417 2.5625,-6.28125 C2.57292,-6.3125 2.58854,-6.34896 2.60938,-6.39063 L3.125,-6.39063 L3.125,0 L2.32813,0 L2.32813,-4.54688 "/>
<path class="Note" fill="#ed2929" transform="matrix(0.9936,0,0,0.9936,221.342,70.308)" d="M4.39063,-2.75 C5.01563,-2.75 5.54688,-2.58854 5.98438,-2.26563 C6.38021,-1.91146 6.57813,-1.46875 6.57813,-0.9375 C6.57813,-0.0416667 6.11979,0.796875 5.20313,1.57813 C4.26563,2.35938 3.26042,2.75 2.1875,2.75 C1.5625,2.75 1.03646,2.58854 0.609375,2.26563 C0.203125,1.91146 0,1.46875 0,0.9375 C0,0.0416667 0.46875,-0.796875 1.40625,-1.57813 C2.32292,-2.35938 3.31771,-2.75 4.39063,-2.75"/>
<path class="Note" fill="#ffffff" fill-rule="evenodd" d="M170.459,118.746 L176.42,118.746 L176.42,126.198 L170.459,126.198 L170.459,118.746 "/>
<path class="Note" transform="matrix(0.9936,0,0,0.9936,170.955,125.95)" d="M0.390625,-3.09375 C0.390625,-5 0.927083,-6.07813 2,-6.32813 C2.14583,-6.36979 2.30208,-6.39063 2.46875,-6.39063 C3.78125,-6.39063 4.47917,-5.40104 4.5625,-3.42188 C4.5625,-3.28646 4.5625,-3.15625 4.5625,-3.03125 C4.5625,-1.40625 4.15104,-0.385417 3.32813,0.03125 C3.06771,0.145833 2.78125,0.203125 2.46875,0.203125 C1.41667,0.203125 0.760417,-0.442708 0.5,-1.73438 C0.427083,-2.14063 0.390625,-2.59375 0.390625,-3.09375 M2.46875,-5.64063 C1.625,-5.63021 1.20313,-4.77083 1.20313,-3.0625 C1.20313,-1.32292 1.61979,-0.453125 2.45313,-0.453125 C3.16146,-0.453125 3.57813,-1.02604 3.70313,-2.17188 C3.73438,-2.44271 3.75,-2.75 3.75,-3.09375 C3.75,-4.79167 3.32292,-5.64063 2.46875,-5.64063"/>
<path class="Note" fill="#ff9ee6" transform="matrix(0.9936,0,0,0.9936,169.713,72.792)" d="M4.39063,-2.75 C5.01563,-2.75 5.54688,-2.58854 5.98438,-2.26563 C6.38021,-1.91146 6.57813,-1.46875 6.57813,-0.9375 C6.57813,-0.0416667 6.11979,0.796875 5.20313,1.57813 C4.26563,2.35938 3.26042,2.75 2.1875,2.75 C1.5625,2.75 1.03646,2.58854 0.609375,2.26563 C0.203125,1.91146 0,1.46875 0,0.9375 C0,0.0416667 0.46875,-0.796875 1.40625,-1.57813 C2.32292,-2.35938 3.31771,-2.75 4.39063,-2.75"/>
<path class="Note" fill="#ffffff" fill-rule="evenodd" d="M118.83,126.198 L124.791,126.198 L124.791,133.65 L118.83,133.65 L118.83,126.198 "/>
<path class="Note" transform="matrix(0.9936,0,0,0.9936,119.326,133.402)" d="M0.453125,-4.17188 C0.494792,-5.64063 1.19792,-6.38021 2.5625,-6.39063 C3.28125,-6.39063 3.83333,-6.14583 4.21875,-5.65625 C4.46875,-5.32292 4.59375,-4.93229 4.59375,-4.48438 C4.59375,-3.68229 4.14583,-3.03125 3.25,-2.53125 L2.34375,-2.04688 C1.79167,-1.75521 1.44271,-1.4375 1.29688,-1.09375 C1.24479,-0.989583 1.21354,-0.869792 1.20313,-0.734375 L4.5625,-0.734375 L4.5625,0 L0.3125,0 C0.354167,-0.760417 0.520833,-1.33854 0.8125,-1.73438 C1.07292,-2.05729 1.5,-2.38542 2.09375,-2.71875 L2.92188,-3.1875 C3.49479,-3.52083 3.78646,-3.94271 3.79688,-4.45313 C3.79688,-4.88021 3.61458,-5.21354 3.25,-5.45313 C3.04167,-5.57813 2.80208,-5.64063 2.53125,-5.64063 C1.73958,-5.64063 1.3125,-5.16667 1.25,-4.21875 C1.25,-4.19792 1.25,-4.18229 1.25,-4.17188 L0.453125,-4.17188 "/>
<path class="Note" fill="#cc00ff" transform="matrix(0.9936,0,0,0.9936,118.084,75.276)" d="M4.39063,-2.75 C5.01563,-2.75 5.54688,-2.58854 5.98438,-2.26563 C6.38021,-1.91146 6.57813,-1.46875 6.57813,-0.9375 C6.57813,-0.0416667 6.11979,0.796875 5.20313,1.57813 C4.26563,2.35938 3.26042,2.75 2.1875,2.75 C1.5625,2.75 1.03646,2.58854 0.609375,2.26563 C0.203125,1.91146 0,1.46875 0,0.9375 C0,0.0416667 0.46875,-0.796875 1.40625,-1.57813 C2.32292,-2.35938 3.31771,-2.75 4.39063,-2.75"/>
<path class="Note" fill="#ffffff" fill-rule="evenodd" d="M67.2007,126.198 L73.1623,126.198 L73.1623,133.65 L67.2007,133.65 L67.2007,126.198 "/>
<path class="Note" transform="matrix(0.9936,0,0,0.9936,67.6975,133.402)" d="M0.390625,-3.09375 C0.390625,-5 0.927083,-6.07813 2,-6.32813 C2.14583,-6.36979 2.30208,-6.39063 2.46875,-6.39063 C3.78125,-6.39063 4.47917,-5.40104 4.5625,-3.42188 C4.5625,-3.28646 4.5625,-3.15625 4.5625,-3.03125 C4.5625,-1.40625 4.15104,-0.385417 3.32813,0.03125 C3.06771,0.145833 2.78125,0.203125 2.46875,0.203125 C1.41667,0.203125 0.760417,-0.442708 0.5,-1.73438 C0.427083,-2.14063 0.390625,-2.59375 0.390625,-3.09375 M2.46875,-5.64063 C1.625,-5.63021 1.20313,-4.77083 1.20313,-3.0625 C1.20313,-1.32292 1.61979,-0.453125 2.45313,-0.453125 C3.16146,-0.453125 3.57813,-1.02604 3.70313,-2.17188 C3.73438,-2.44271 3.75,-2.75 3.75,-3.09375 C3.75,-4.79167 3.32292,-5.64063 2.46875,-5.64063"/>
<path class="Note" fill="#99cc33" transform="matrix(0.9936,0,0,0.9936,66.4555,77.76)" d="M4.39063,-2.75 C5.01563,-2.75 5.54688,-2.58854 5.98438,-2.26563 C6.38021,-1.91146 6.57813,-1.46875 6.57813,-0.9375 C6.57813,-0.0416667 6.11979,0.796875 5.20313,1.57813 C4.26563,2.35938 3.26042,2.75 2.1875,2.75 C1.5625,2.75 1.03646,2.58854 0.609375,2.26563 C0.203125,1.91146 0,1.46875 0,0.9375 C0,0.0416667 0.46875,-0.796875 1.40625,-1.57813 C2.32292,-2.35938 3.31771,-2.75 4.39063,-2.75"/>
<path class="Clef" transform="matrix(0.9936,0,0,0.9936,32.0544,133.65)" d="M5.32813,8.5 C5.32813,8.86458 5.04167,9.04688 4.46875,9.04688 C4.02083,9.04688 3.625,8.91146 3.28125,8.64063 C2.95833,8.34896 2.79688,7.98438 2.79688,7.54688 C2.79688,6.76563 3.27083,6.14063 4.21875,5.67188 C5.14583,5.18229 6.23438,4.9375 7.48438,4.9375 C7.96354,4.9375 8.47917,4.97396 9.03125,5.04688 C9.42708,5.09896 9.875,5.20313 10.375,5.35938 C10.8125,5.49479 11.1563,5.70573 11.4063,5.99219 C11.6563,6.27865 11.7813,6.61458 11.7813,7 C11.7813,7.89583 11.3177,8.63021 10.3906,9.20313 C11.7448,9.45313 12.4271,10.0573 12.4375,11.0156 C12.4375,11.8281 12.0729,12.5599 11.3438,13.2109 C10.6146,13.862 9.79167,14.1875 8.875,14.1875 C8.47917,14.1875 8.07813,14.0938 7.67188,13.9063 C7.29688,13.7292 7.03125,13.5625 6.875,13.4063 C6.71875,13.2188 6.64063,13.0781 6.64063,12.9844 C6.64063,12.8594 6.70833,12.75 6.84375,12.6563 C6.95833,12.5417 7.07813,12.4844 7.20313,12.4844 C7.25521,12.4844 7.36719,12.5677 7.53906,12.7344 C7.71094,12.901 7.95833,12.9844 8.28125,12.9844 C8.72917,12.9844 9.16146,12.7969 9.57813,12.4219 C9.97396,12.0573 10.1719,11.6198 10.1719,11.1094 C10.1719,10.6719 9.98438,10.3542 9.60938,10.1563 C9.24479,9.95833 8.76563,9.85938 8.17188,9.85938 C8.06771,9.85938 8.01563,9.75 8.01563,9.53125 C8.01563,9.21875 8.13021,9.0625 8.35938,9.0625 C8.72396,9.0625 9.05208,8.90625 9.34375,8.59375 C9.61458,8.26042 9.75,7.90104 9.75,7.51563 C9.75,7.40104 9.71875,7.22917 9.65625,7 C9.60417,6.84375 9.44792,6.65104 9.1875,6.42188 C8.9375,6.21354 8.58854,6.07292 8.14063,6 C8.02604,6.63542 7.88021,7.44792 7.70313,8.4375 C7.52604,9.42708 7.40625,10.0781 7.34375,10.3906 C7.125,11.5156 6.72396,12.4583 6.14063,13.2188 C5.52604,14.0313 4.86458,14.4375 4.15625,14.4375 C3.9375,14.4375 3.71354,14.3854 3.48438,14.2813 C3.29688,14.1979 3.0625,14.0365 2.78125,13.7969 C2.52083,13.5885 2.34375,13.4479 2.25,13.375 C2.19792,13.3438 2.17188,13.2865 2.17188,13.2031 C2.17188,13.0781 2.21875,12.9635 2.3125,12.8594 C2.41667,12.7344 2.52604,12.6719 2.64063,12.6719 C2.71354,12.6719 2.89323,12.7969 3.17969,13.0469 C3.46615,13.2969 3.76563,13.4219 4.07813,13.4219 C4.68229,13.4219 5.13542,13.0365 5.4375,12.2656 C5.71875,11.526 5.85938,10.6094 5.85938,9.51563 L5.85938,9.35938 C5.85938,8.63021 5.97917,7.54167 6.21875,6.09375 C5.80208,6.22917 5.46875,6.42708 5.21875,6.6875 C4.95833,6.94792 4.82813,7.21875 4.82813,7.5 C4.82813,7.71875 4.91146,7.90625 5.07813,8.0625 C5.24479,8.21875 5.32813,8.36458 5.32813,8.5 M1.40625,2.39063 C1.46875,2.39063 1.625,2.45313 1.875,2.57813 C2.13542,2.71354 2.35938,2.78125 2.54688,2.78125 C3.03646,2.78125 3.64063,2.42188 4.35938,1.70313 C6.43229,-0.411458 7.85938,-2.65104 8.64063,-5.01563 C8.79688,-5.51563 9.17708,-5.76563 9.78125,-5.76563 C10.0938,-5.76563 10.3646,-5.69792 10.5938,-5.5625 C10.8125,-5.42708 10.9219,-5.28646 10.9219,-5.14063 L10.5625,2.17188 C10.5625,2.55729 10.7031,2.75 10.9844,2.75 C11.1198,2.75 11.3281,2.6875 11.6094,2.5625 C11.8698,2.42708 12.026,2.35938 12.0781,2.35938 C12.1823,2.35938 12.2448,2.47396 12.2656,2.70313 C12.2656,2.91146 12.1823,3.04167 12.0156,3.09375 C11.8802,3.125 11.6198,3.24479 11.2344,3.45313 C10.8281,3.66146 10.5104,3.76563 10.2813,3.76563 C9.78125,3.76563 9.42708,3.375 9.21875,2.59375 C8.89583,1.375 8.6875,0.104167 8.59375,-1.21875 C8.07292,-0.552083 7.49479,0.119792 6.85938,0.796875 C7.08854,1.24479 7.51563,1.46875 8.14063,1.46875 C8.23438,1.46875 8.30729,1.46354 8.35938,1.45313 L8.375,1.45313 C8.47917,1.45313 8.53125,1.54688 8.53125,1.73438 C8.53125,1.98438 8.44792,2.13542 8.28125,2.1875 C8.01042,2.28125 7.72396,2.32813 7.42188,2.32813 C6.77604,2.32813 6.30729,2.10417 6.01563,1.65625 L5.23438,2.35938 C4.14063,3.29688 3.25,3.76563 2.5625,3.76563 C2.375,3.76563 2.1875,3.73438 2,3.67188 C1.84375,3.60938 1.66146,3.51042 1.45313,3.375 C1.36979,3.34375 1.27865,3.29688 1.17969,3.23438 C1.08073,3.17188 1.02083,3.13542 1,3.125 C0.9375,3.10417 0.90625,3.04688 0.90625,2.95313 C0.90625,2.84896 0.958333,2.72396 1.0625,2.57813 C1.14583,2.45313 1.26042,2.39063 1.40625,2.39063 M5.76563,-10.7969 C5.76563,-10.474 5.48438,-10.3125 4.92188,-10.3125 C4.43229,-10.3125 4.00521,-10.474 3.64063,-10.7969 C3.28646,-11.1302 3.10938,-11.5313 3.10938,-12 C3.10938,-12.4479 3.25,-12.8385 3.53125,-13.1719 C3.83333,-13.5052 4.21875,-13.7552 4.6875,-13.9219 C5.11458,-14.0781 5.59896,-14.2031 6.14063,-14.2969 C6.69271,-14.3594 7.22396,-14.3906 7.73438,-14.3906 C8.03646,-14.3906 8.59896,-14.2552 9.42188,-13.9844 C10.2552,-13.7135 10.8333,-13.5781 11.1563,-13.5781 C11.5625,-13.5781 11.9479,-13.651 12.3125,-13.7969 C12.6042,-13.9219 12.8906,-14.0677 13.1719,-14.2344 C13.3906,-14.3802 13.5104,-14.4531 13.5313,-14.4531 C13.6563,-14.4531 13.7604,-14.4167 13.8438,-14.3438 C13.9479,-14.2396 14,-14.151 14,-14.0781 C14,-13.9948 13.8802,-13.849 13.6406,-13.6406 C13.3802,-13.401 13.0078,-13.1641 12.5234,-12.9297 C12.0391,-12.6953 11.5313,-12.5781 11,-12.5781 C10.7604,-12.5781 10.4688,-12.6198 10.125,-12.7031 C9.89583,-11.2552 9.66146,-9.96875 9.42188,-8.84375 C9.21354,-7.85417 8.79688,-6.98958 8.17188,-6.25 C7.56771,-5.51042 6.89583,-5.14063 6.15625,-5.14063 C5.85417,-5.14063 5.58854,-5.19792 5.35938,-5.3125 C5.09896,-5.44792 4.82292,-5.64583 4.53125,-5.90625 C4.30208,-6.09375 4.08333,-6.26563 3.875,-6.42188 C3.82292,-6.46354 3.79688,-6.52604 3.79688,-6.60938 C3.79688,-6.69271 3.84896,-6.80729 3.95313,-6.95313 C4.05729,-7.06771 4.15104,-7.125 4.23438,-7.125 C4.31771,-7.125 4.54167,-6.96354 4.90625,-6.64063 C5.27083,-6.31771 5.59375,-6.15625 5.875,-6.15625 C6.39583,-6.15625 6.80208,-6.45313 7.09375,-7.04688 C7.375,-7.64063 7.53646,-8.34375 7.57813,-9.15625 C7.64063,-10.5 7.79167,-11.8906 8.03125,-13.3281 C7.73958,-13.3906 7.52604,-13.4219 7.39063,-13.4219 C6.76563,-13.4219 6.22917,-13.2917 5.78125,-13.0313 C5.34375,-12.7813 5.125,-12.4427 5.125,-12.0156 C5.125,-11.7031 5.22917,-11.4635 5.4375,-11.2969 C5.65625,-11.1094 5.76563,-10.9427 5.76563,-10.7969"/>
<path class="Clef" transform="matrix(0.9936,0,0,0.9936,32.0544,77.76)" d="M7.34375,-5.125 C7.34375,-5.125 7.38542,-5.125 7.46875,-5.125 C7.52083,-5.13542 7.5625,-5.14063 7.59375,-5.14063 C9.05208,-5.14063 10.25,-4.625 11.1875,-3.59375 C12.125,-2.58333 12.5938,-1.40104 12.5938,-0.046875 C12.5938,1.64063 11.901,3.01042 10.5156,4.0625 C10.151,4.35417 9.67188,4.58854 9.07813,4.76563 C9.15104,5.60938 9.1875,6.29167 9.1875,6.8125 C9.1875,6.91667 9.17188,7.29688 9.14063,7.95313 C9.08854,9.16146 8.67188,10.2083 7.89063,11.0938 C7.14063,11.9688 6.20313,12.4063 5.07813,12.4063 C4.02604,12.4063 3.13021,12.0365 2.39063,11.2969 C1.64063,10.5365 1.26563,9.625 1.26563,8.5625 C1.26563,8 1.48438,7.52083 1.92188,7.125 C2.35938,6.73958 2.86979,6.54688 3.45313,6.54688 C3.97396,6.54688 4.41146,6.75 4.76563,7.15625 C5.13021,7.53125 5.3125,8 5.3125,8.5625 C5.3125,9.0625 5.13021,9.49479 4.76563,9.85938 C4.40104,10.224 3.96354,10.4063 3.45313,10.4063 C3.24479,10.4063 3.04688,10.3698 2.85938,10.2969 C3.43229,11.1406 4.19271,11.5625 5.14063,11.5625 C6.03646,11.5625 6.77083,11.1979 7.34375,10.4688 C7.94792,9.71875 8.27604,8.83854 8.32813,7.82813 C8.34896,7.20313 8.35938,6.84896 8.35938,6.76563 C8.35938,6.03646 8.33333,5.4375 8.28125,4.96875 C7.63542,5.07292 7.05729,5.125 6.54688,5.125 C4.73438,5.125 3.19271,4.40625 1.92188,2.96875 C0.671875,1.52083 0.046875,-0.197917 0.046875,-2.1875 C0.046875,-2.60417 0.0833333,-3.02604 0.15625,-3.45313 C0.239583,-3.80729 0.338542,-4.19271 0.453125,-4.60938 C0.515625,-4.84896 0.692708,-5.22917 0.984375,-5.75 C1.08854,-5.90625 1.20573,-6.10156 1.33594,-6.33594 C1.46615,-6.57031 1.55729,-6.72396 1.60938,-6.79688 C1.73438,-7.05729 1.98438,-7.41146 2.35938,-7.85938 C2.46354,-7.97396 2.57292,-8.10156 2.6875,-8.24219 C2.80208,-8.38281 2.89844,-8.5 2.97656,-8.59375 C3.05469,-8.6875 3.11198,-8.76042 3.14844,-8.8125 C3.1849,-8.86458 3.47917,-9.20833 4.03125,-9.84375 C4.15625,-9.97917 4.28125,-10.1198 4.40625,-10.2656 C4.53125,-10.4115 4.63281,-10.5286 4.71094,-10.6172 C4.78906,-10.7057 4.84896,-10.7656 4.89063,-10.7969 C4.42188,-12.349 4.125,-13.5885 4,-14.5156 C3.91667,-15.2552 3.875,-16.2708 3.875,-17.5625 C3.875,-18.6979 4.13542,-19.7604 4.65625,-20.75 C5.15625,-21.7708 5.86458,-22.6094 6.78125,-23.2656 C6.84375,-23.3073 6.90625,-23.3281 6.96875,-23.3281 C7.0625,-23.3281 7.13021,-23.3073 7.17188,-23.2656 C7.86979,-22.4219 8.47396,-21.3229 8.98438,-19.9688 C9.50521,-18.6146 9.76563,-17.3802 9.76563,-16.2656 C9.76563,-15.0156 9.46875,-13.8438 8.875,-12.75 C8.19792,-11.5938 7.32292,-10.3958 6.25,-9.15625 C6.52083,-8.30208 6.88542,-6.95833 7.34375,-5.125 M9,3.96875 C9.67708,3.71875 10.2083,3.29688 10.5938,2.70313 C11.0104,2.13021 11.2188,1.48438 11.2188,0.765625 C11.2188,-0.161458 10.9063,-0.984375 10.2813,-1.70313 C9.63542,-2.44271 8.81771,-2.85938 7.82813,-2.95313 C8.39063,-0.203125 8.78125,2.10417 9,3.96875 M1.45313,-0.546875 C1.45313,0.744792 1.97396,1.88021 3.01563,2.85938 C4.07813,3.80729 5.27604,4.28125 6.60938,4.28125 C7.15104,4.28125 7.68229,4.23958 8.20313,4.15625 C7.99479,2.17708 7.58333,-0.192708 6.96875,-2.95313 C6.22917,-2.86979 5.64063,-2.60938 5.20313,-2.17188 C4.76563,-1.71354 4.54688,-1.19792 4.54688,-0.625 C4.54688,0.364583 5.07813,1.16667 6.14063,1.78125 C6.22396,1.875 6.26563,1.97396 6.26563,2.07813 C6.26563,2.18229 6.22396,2.27604 6.14063,2.35938 C6.05729,2.45313 5.95833,2.5 5.84375,2.5 C5.83333,2.5 5.77604,2.48958 5.67188,2.46875 C4.92188,2.0625 4.34896,1.54167 3.95313,0.90625 C3.56771,0.21875 3.375,-0.46875 3.375,-1.15625 C3.375,-2.05208 3.65625,-2.86458 4.21875,-3.59375 C4.80208,-4.32292 5.5625,-4.79167 6.5,-5 C6.13542,-6.45833 5.83854,-7.59896 5.60938,-8.42188 C5.40104,-8.18229 5.15104,-7.89844 4.85938,-7.57031 C4.56771,-7.24219 4.39583,-7.04167 4.34375,-6.96875 C3.875,-6.36458 3.51563,-5.89063 3.26563,-5.54688 C2.81771,-4.93229 2.48958,-4.40625 2.28125,-3.96875 C2.0625,-3.46875 1.86979,-2.92708 1.70313,-2.34375 C1.53646,-1.78125 1.45313,-1.18229 1.45313,-0.546875 M7.96875,-20.4063 C6.98958,-19.9271 6.22396,-19.2396 5.67188,-18.3438 C5.09896,-17.4167 4.8125,-16.4219 4.8125,-15.3594 C4.8125,-14.4219 5.04688,-13.1563 5.51563,-11.5625 C6.45313,-12.6979 7.15625,-13.7448 7.625,-14.7031 C8.11458,-15.724 8.35938,-16.7865 8.35938,-17.8906 C8.35938,-18.724 8.22917,-19.5625 7.96875,-20.4063 M5.82813,15.2344 C6.16146,14.901 6.32813,14.5625 6.32813,14.2188 C6.30729,13.9479 6.19271,13.7396 5.98438,13.5938 C5.74479,13.4375 5.46875,13.3594 5.15625,13.3594 C4.9375,13.3594 4.75521,13.4323 4.60938,13.5781 C4.48438,13.7031 4.42188,13.8646 4.42188,14.0625 C4.42188,14.3021 4.51563,14.4792 4.70313,14.5938 L5.82813,15.2344 M6.14063,15.4063 C6.68229,15.7083 6.95313,16.1146 6.95313,16.625 L6.95313,16.6875 C6.95313,17.0833 6.79167,17.4219 6.46875,17.7031 C6.14583,17.9844 5.68229,18.125 5.07813,18.125 C4.58854,18.125 4.16146,17.9948 3.79688,17.7344 C3.43229,17.4844 3.25,17.1458 3.25,16.7188 C3.25,16.5521 3.29167,16.3958 3.375,16.25 C3.47917,16.0833 3.56771,15.9688 3.64063,15.9063 L4,15.5313 C3.60417,15.2604 3.40625,14.901 3.40625,14.4531 C3.40625,14.099 3.5625,13.7865 3.875,13.5156 C4.19792,13.2552 4.625,13.125 5.15625,13.125 C5.60417,13.125 5.98438,13.224 6.29688,13.4219 C6.60938,13.6198 6.76563,13.8854 6.76563,14.2188 C6.76563,14.5729 6.55729,14.9688 6.14063,15.4063 M4.29688,15.7031 C3.91146,16.0469 3.70313,16.3854 3.67188,16.7188 C3.70313,17.0729 3.84896,17.3542 4.10938,17.5625 C4.39063,17.7813 4.71354,17.8906 5.07813,17.8906 C5.33854,17.8906 5.54688,17.8073 5.70313,17.6406 C5.85938,17.4844 5.9375,17.2969 5.9375,17.0781 C5.92708,16.7865 5.8125,16.5781 5.59375,16.4531 L4.29688,15.7031 "/>
<path class="KeySig" transform="matrix(0.9936,0,0,0.9936,49.3492,62.856)" d="M4.3125,6.23438 C4.3125,6.48438 4.1901,6.60938 3.94531,6.60938 C3.70052,6.60938 3.57813,6.48438 3.57813,6.23438 L3.57813,3.34375 L1.92188,3.96875 L1.92188,7.125 C1.92188,7.375 1.79688,7.5 1.54688,7.5 C1.29688,7.5 1.17188,7.375 1.17188,7.125 L1.17188,4.21875 L0.546875,4.45313 C0.536458,4.46354 0.484375,4.46875 0.390625,4.46875 C0.286458,4.46875 0.195313,4.42969 0.117188,4.35156 C0.0390625,4.27344 0,4.18229 0,4.07813 L0,2.875 C0,2.67708 0.0833333,2.55208 0.25,2.5 L1.17188,2.1875 L1.17188,-1.01563 L0.546875,-0.796875 C0.536458,-0.786458 0.484375,-0.78125 0.390625,-0.78125 C0.286458,-0.78125 0.195313,-0.820313 0.117188,-0.898438 C0.0390625,-0.976563 0,-1.06771 0,-1.17188 L0,-2.39063 C0,-2.56771 0.0833333,-2.68229 0.25,-2.73438 L1.17188,-3.09375 L1.17188,-6.23438 C1.17188,-6.48438 1.29688,-6.60938 1.54688,-6.60938 C1.79688,-6.60938 1.92188,-6.48438 1.92188,-6.23438 L1.92188,-3.34375 L3.57813,-3.96875 L3.57813,-7.125 C3.57813,-7.375 3.70052,-7.5 3.94531,-7.5 C4.1901,-7.5 4.3125,-7.375 4.3125,-7.125 L4.3125,-4.21875 L4.96875,-4.45313 C4.97917,-4.46354 5.02083,-4.46875 5.09375,-4.46875 C5.1875,-4.46875 5.28646,-4.43229 5.39063,-4.35938 C5.47396,-4.27604 5.51563,-4.18229 5.51563,-4.07813 L5.51563,-2.875 C5.51563,-2.6875 5.42188,-2.5625 5.23438,-2.5 L4.3125,-2.1875 L4.3125,1.01563 L4.96875,0.796875 C4.97917,0.786458 5.02083,0.78125 5.09375,0.78125 C5.1875,0.78125 5.28646,0.822917 5.39063,0.90625 C5.47396,0.979167 5.51563,1.06771 5.51563,1.17188 L5.51563,2.39063 C5.51563,2.55729 5.42188,2.67188 5.23438,2.73438 L4.3125,3.09375 L4.3125,6.23438 M3.57813,-1.89063 L1.92188,-1.3125 L1.92188,1.89063 L3.57813,1.3125 L3.57813,-1.89063 "/>
<path class="Fingering" d="M474.824,80.3694 C474.23,80.3694 473.767,80.0621 473.434,79.4475 C473.152,78.9475 473.012,78.3225 473.012,77.5725 C473.012,76.6767 473.22,75.9735 473.637,75.4631 C473.97,75.0673 474.376,74.8642 474.855,74.8537 C475.418,74.8537 475.861,75.1402 476.184,75.7131 C476.486,76.2235 476.637,76.859 476.637,77.6194 C476.637,78.5881 476.413,79.3277 475.965,79.8381 C475.642,80.1923 475.262,80.3694 474.824,80.3694 M474.824,75.0569 C474.178,75.0569 473.829,75.8277 473.777,77.3694 C473.777,77.4631 473.777,77.5569 473.777,77.6506 C473.788,79.3173 474.137,80.1558 474.824,80.1662 C475.512,80.1558 475.855,79.3121 475.855,77.635 C475.855,76.1142 475.585,75.2652 475.043,75.0881 C474.97,75.0673 474.897,75.0569 474.824,75.0569"/>
<path class="Fingering" d="M421.625,73.9635 C421.864,72.9427 422.39,72.4166 423.203,72.3854 C423.234,72.3854 423.26,72.3854 423.281,72.3854 C423.77,72.3854 424.161,72.5625 424.453,72.9166 C424.661,73.177 424.765,73.4687 424.765,73.7916 C424.765,74.3854 424.447,75.026 423.812,75.7135 C423.791,75.7343 423.765,75.7552 423.734,75.776 L422.406,77.1979 L424.312,77.1979 C424.52,77.1979 424.682,77.1406 424.796,77.026 C424.869,76.9531 424.958,76.8333 425.062,76.6666 L425.171,76.6979 L424.734,77.776 L421.609,77.776 L421.609,77.6822 L423.031,76.1666 C423.708,75.427 424.057,74.7343 424.078,74.0885 C424.078,73.6406 423.906,73.3177 423.562,73.1197 C423.385,73.0156 423.182,72.9635 422.953,72.9635 C422.598,72.9635 422.322,73.0989 422.125,73.3697 C422.01,73.526 421.901,73.7395 421.796,74.0104 L421.625,73.9635 "/>
<path class="Fingering" d="M371.746,75.4014 C371.152,75.4014 370.688,75.0941 370.355,74.4795 C370.074,73.9795 369.933,73.3545 369.933,72.6045 C369.933,71.7087 370.141,71.0055 370.558,70.4951 C370.891,70.0993 371.298,69.8962 371.777,69.8858 C372.339,69.8858 372.782,70.1722 373.105,70.7451 C373.407,71.2555 373.558,71.891 373.558,72.6514 C373.558,73.6201 373.334,74.3597 372.886,74.8701 C372.563,75.2243 372.183,75.4014 371.746,75.4014 M371.746,70.0889 C371.1,70.0889 370.751,70.8597 370.699,72.4014 C370.699,72.4951 370.699,72.5889 370.699,72.6826 C370.709,74.3493 371.058,75.1878 371.746,75.1983 C372.433,75.1878 372.777,74.3441 372.777,72.667 C372.777,71.1462 372.506,70.2972 371.964,70.1201 C371.891,70.0993 371.818,70.0889 371.746,70.0889"/>
<path class="Fingering" d="M319.585,68.0736 C319.471,68.0736 319.278,68.1309 319.007,68.2455 L319.007,68.1361 L320.445,67.4017 L320.507,67.4174 L320.507,72.2142 C320.507,72.4226 320.57,72.558 320.695,72.6205 C320.799,72.6622 320.991,72.683 321.273,72.683 L321.273,72.808 L319.054,72.808 L319.054,72.683 C319.408,72.6726 319.632,72.6101 319.726,72.4955 C319.788,72.4017 319.82,72.2559 319.82,72.058 L319.82,68.4486 C319.809,68.1986 319.731,68.0736 319.585,68.0736"/>
<path class="Fingering" d="M267.128,69.699 C267.253,69.699 267.435,69.7667 267.675,69.9021 C267.925,70.0584 268.139,70.1365 268.316,70.1365 C268.68,70.1365 268.967,69.975 269.175,69.6521 C269.3,69.4438 269.362,69.2094 269.362,68.949 C269.362,68.1886 268.909,67.7719 268.003,67.699 C267.909,67.6886 267.81,67.6834 267.706,67.6834 L267.706,67.574 C268.31,67.3761 268.706,67.1209 268.894,66.8084 C268.987,66.6417 269.034,66.4594 269.034,66.2615 C269.034,65.9073 268.889,65.6521 268.597,65.4959 C268.461,65.4334 268.316,65.4021 268.159,65.4021 C267.711,65.4021 267.342,65.6365 267.05,66.1052 C267.019,66.1469 266.993,66.1938 266.972,66.2459 L266.847,66.2146 C267.097,65.5375 267.461,65.1261 267.941,64.9802 C268.086,64.9386 268.248,64.9177 268.425,64.9177 C268.904,64.9177 269.258,65.0844 269.487,65.4177 C269.612,65.5948 269.675,65.7927 269.675,66.0115 C269.675,66.3344 269.524,66.6261 269.222,66.8865 C269.128,66.9594 269.029,67.0375 268.925,67.1209 C269.404,67.3292 269.711,67.6157 269.847,67.9802 C269.909,68.1573 269.941,68.3552 269.941,68.574 C269.941,69.2094 269.675,69.7042 269.144,70.0584 C268.748,70.3084 268.279,70.4334 267.737,70.4334 C267.248,70.4334 266.956,70.324 266.862,70.1052 C266.842,70.0636 266.831,70.0219 266.831,69.9802 C266.831,69.824 266.909,69.7355 267.066,69.7146 C267.086,69.7042 267.107,69.699 267.128,69.699"/>
<path class="Fingering" d="M216.327,68.0736 C216.213,68.0736 216.02,68.1309 215.749,68.2455 L215.749,68.1361 L217.187,67.4017 L217.249,67.4174 L217.249,72.2142 C217.249,72.4226 217.312,72.558 217.437,72.6205 C217.541,72.6622 217.733,72.683 218.015,72.683 L218.015,72.808 L215.796,72.808 L215.796,72.683 C216.15,72.6726 216.374,72.6101 216.468,72.4955 C216.53,72.4017 216.562,72.2559 216.562,72.058 L216.562,68.4486 C216.551,68.1986 216.473,68.0736 216.327,68.0736"/>
<path class="Fingering" d="M165.229,75.4014 C164.636,75.4014 164.172,75.0941 163.839,74.4795 C163.558,73.9795 163.417,73.3545 163.417,72.6045 C163.417,71.7087 163.625,71.0055 164.042,70.4951 C164.375,70.0993 164.782,69.8962 165.261,69.8858 C165.823,69.8858 166.266,70.1722 166.589,70.7451 C166.891,71.2555 167.042,71.891 167.042,72.6514 C167.042,73.6201 166.818,74.3597 166.37,74.8701 C166.047,75.2243 165.667,75.4014 165.229,75.4014 M165.229,70.0889 C164.584,70.0889 164.235,70.8597 164.183,72.4014 C164.183,72.4951 164.183,72.5889 164.183,72.6826 C164.193,74.3493 164.542,75.1878 165.229,75.1983 C165.917,75.1878 166.261,74.3441 166.261,72.667 C166.261,71.1462 165.99,70.2972 165.448,70.1201 C165.375,70.0993 165.302,70.0889 165.229,70.0889"/>
<path class="Fingering" d="M111.85,73.9635 C112.09,72.9427 112.616,72.4166 113.429,72.3854 C113.46,72.3854 113.486,72.3854 113.507,72.3854 C113.996,72.3854 114.387,72.5625 114.679,72.9166 C114.887,73.177 114.991,73.4687 114.991,73.7916 C114.991,74.3854 114.673,75.026 114.038,75.7135 C114.017,75.7343 113.991,75.7552 113.96,75.776 L112.632,77.1979 L114.538,77.1979 C114.746,77.1979 114.908,77.1406 115.022,77.026 C115.095,76.9531 115.184,76.8333 115.288,76.6666 L115.397,76.6979 L114.96,77.776 L111.835,77.776 L111.835,77.6822 L113.257,76.1666 C113.934,75.427 114.283,74.7343 114.304,74.0885 C114.304,73.6406 114.132,73.3177 113.788,73.1197 C113.611,73.0156 113.408,72.9635 113.179,72.9635 C112.824,72.9635 112.548,73.0989 112.35,73.3697 C112.236,73.526 112.127,73.7395 112.022,74.0104 L111.85,73.9635 "/>
<path class="Fingering" d="M61.9715,80.3694 C61.3777,80.3694 60.9142,80.0621 60.5808,79.4475 C60.2996,78.9475 60.159,78.3225 60.159,77.5725 C60.159,76.6767 60.3673,75.9735 60.784,75.4631 C61.1173,75.0673 61.5236,74.8642 62.0027,74.8537 C62.5652,74.8537 63.0079,75.1402 63.3308,75.7131 C63.6329,76.2235 63.784,76.859 63.784,77.6194 C63.784,78.5881 63.56,79.3277 63.1121,79.8381 C62.7892,80.1923 62.409,80.3694 61.9715,80.3694 M61.9715,75.0569 C61.3256,75.0569 60.9767,75.8277 60.9246,77.3694 C60.9246,77.4631 60.9246,77.5569 60.9246,77.6506 C60.935,79.3173 61.284,80.1558 61.9715,80.1662 C62.659,80.1558 63.0027,79.3121 63.0027,77.635 C63.0027,76.1142 62.7319,75.2652 62.1902,75.0881 C62.1173,75.0673 62.0444,75.0569 61.9715,75.0569"/>
<path class="Tempo" d="M60.2121,40.4371 C60.0089,40.2809 59.7589,40.1871 59.4464,40.1871 C58.2589,40.1871 57.3058,41.0621 57.3058,41.9996 C57.3058,42.5621 57.7589,42.9059 58.3527,42.9059 C59.3058,42.9059 60.4933,41.9996 60.4933,41.0934 L60.4933,34.9527 L60.2121,34.9527 L60.2121,40.4371 "/>
<path class="Tempo" d="M70.8527,39.0152 L64.2433,39.0152 L64.2433,37.859 L70.8527,37.859 L70.8527,39.0152 M70.8527,41.9371 L64.2433,41.9371 L64.2433,40.7965 L70.8527,40.7965 L70.8527,41.9371 M80.1339,34.734 L80.1339,35.0465 C78.7381,35.3382 77.7798,36.0621 77.2589,37.2184 C77.1339,37.4996 77.0298,37.8069 76.9464,38.1402 C77.2589,38.0152 77.5923,37.9527 77.9464,37.9527 C78.8214,37.9527 79.4569,38.2913 79.8527,38.9684 C80.0819,39.3538 80.1964,39.8069 80.1964,40.3277 C80.1964,41.2652 79.8839,42.0048 79.2589,42.5465 C78.7902,42.9423 78.2433,43.1402 77.6183,43.1402 C76.6391,43.1402 75.8944,42.7288 75.3839,41.9059 C75.0089,41.3017 74.8214,40.5673 74.8214,39.7027 C74.8214,38.1194 75.4673,36.8642 76.7589,35.9371 C76.8006,35.9059 76.8423,35.8746 76.8839,35.8434 C77.5402,35.3955 78.2694,35.083 79.0714,34.9059 C79.3735,34.8434 79.7277,34.7861 80.1339,34.734 M76.6964,40.0777 C76.6964,41.609 76.8839,42.4892 77.2589,42.7184 C77.3735,42.7809 77.4985,42.8121 77.6339,42.8121 C77.9464,42.8121 78.1496,42.6767 78.2433,42.4059 C78.3266,42.1559 78.3683,41.7027 78.3683,41.0465 C78.3683,39.7757 78.2121,38.9892 77.8996,38.6871 C77.7433,38.5413 77.5402,38.4684 77.2902,38.4684 C77.0402,38.4684 76.8787,38.5517 76.8058,38.7184 C76.7329,38.8955 76.6964,39.3486 76.6964,40.0777 M80.7746,38.9059 C80.7746,37.5934 81.0871,36.5309 81.7121,35.7184 C82.2225,35.0725 82.8162,34.7444 83.4933,34.734 C84.2746,34.734 84.9204,35.1402 85.4308,35.9527 C85.9412,36.7652 86.1964,37.76 86.1964,38.9371 C86.1964,40.3121 85.8787,41.4059 85.2433,42.2184 C84.7433,42.8225 84.1652,43.1298 83.5089,43.1402 C82.6756,43.1402 82.0037,42.7132 81.4933,41.859 C81.0141,41.0673 80.7746,40.083 80.7746,38.9059 M83.5089,42.7965 C83.8631,42.7965 84.0975,42.4736 84.2121,41.8277 C84.2746,41.4423 84.3058,40.9423 84.3058,40.3277 L84.3058,37.5777 C84.3058,36.1402 84.1131,35.3225 83.7277,35.1246 C83.6548,35.083 83.5714,35.0621 83.4777,35.0621 C83.1131,35.0621 82.8735,35.3955 82.7589,36.0621 C82.7069,36.4371 82.6808,36.9423 82.6808,37.5777 L82.6808,40.3277 C82.6808,41.6819 82.8475,42.4736 83.1808,42.7027 C83.2746,42.7652 83.3839,42.7965 83.5089,42.7965"/>
<path class="StaffText" d="M69.7868,25.2057 C70.2347,25.2057 70.7347,25.3203 71.2868,25.5495 C71.5264,25.6432 71.6983,25.6901 71.8024,25.6901 C71.9483,25.6901 72.0785,25.5807 72.193,25.362 C72.2035,25.3203 72.2191,25.2787 72.2399,25.237 L72.5055,25.237 L72.5055,27.5807 L72.2555,27.5807 C71.9847,26.9766 71.7035,26.5339 71.4118,26.2526 C71.3493,26.1901 71.292,26.138 71.2399,26.0964 C70.8128,25.7214 70.3701,25.5339 69.9118,25.5339 C68.9118,25.5339 68.318,26.2526 68.1305,27.6901 C68.0993,28.013 68.0837,28.362 68.0837,28.737 C68.0837,29.9245 68.2972,30.7943 68.7243,31.3464 C69.0576,31.763 69.516,31.9714 70.0993,31.9714 C70.6618,31.9714 70.9795,31.7943 71.0524,31.4401 C71.0628,31.3776 71.068,31.3099 71.068,31.237 L71.068,30.1901 C71.068,29.8985 70.9951,29.711 70.8493,29.6276 C70.7035,29.5547 70.4378,29.5078 70.0524,29.487 L70.0524,29.237 L73.4899,29.237 L73.4899,29.487 C73.0837,29.5287 72.8337,29.6172 72.7399,29.7526 C72.667,29.8672 72.6305,30.086 72.6305,30.4089 L72.6305,31.6745 C72.0368,32.0287 71.2503,32.237 70.2712,32.2995 C70.1358,32.2995 70.0003,32.2995 69.8649,32.2995 C68.7503,32.2995 67.8597,31.9401 67.193,31.2214 C66.5993,30.5755 66.3024,29.7682 66.3024,28.7995 C66.3024,27.7578 66.6462,26.8932 67.3337,26.2057 C68.0003,25.5391 68.818,25.2057 69.7868,25.2057 M77.5524,28.8307 C77.3337,28.8307 77.1201,28.711 76.9118,28.4714 C76.7972,28.3255 76.7139,28.2474 76.6618,28.237 C76.443,28.237 76.2764,28.388 76.1618,28.6901 C76.0889,28.8464 76.0524,29.013 76.0524,29.1901 L76.0524,31.0807 C76.0524,31.4453 76.1253,31.6693 76.2712,31.7526 C76.3649,31.8151 76.5368,31.8568 76.7868,31.8776 L76.7868,32.112 L74.1462,32.112 L74.1462,31.8776 C74.417,31.8255 74.5785,31.7318 74.6305,31.5964 C74.6514,31.5235 74.6618,31.4141 74.6618,31.2682 L74.6618,28.3307 C74.6618,28.0703 74.5889,27.9037 74.443,27.8307 C74.3701,27.7891 74.2712,27.7578 74.1462,27.737 L74.1462,27.5026 L76.0212,27.5026 L76.0212,28.3307 C76.3962,27.7787 76.766,27.4714 77.1305,27.4089 C77.2139,27.388 77.292,27.3776 77.3649,27.3776 C77.7087,27.3776 77.9535,27.5182 78.0993,27.7995 C78.1514,27.9141 78.1774,28.0339 78.1774,28.1589 C78.1774,28.4714 78.0524,28.6797 77.8024,28.7839 C77.7191,28.8151 77.6358,28.8307 77.5524,28.8307 M79.4274,28.0807 C79.4274,28.112 79.4795,28.2057 79.5837,28.362 C79.6774,28.5078 79.7243,28.6328 79.7243,28.737 C79.7243,28.9974 79.5941,29.1745 79.3337,29.2682 C79.2399,29.2995 79.1462,29.3151 79.0524,29.3151 C78.6878,29.3151 78.4743,29.1537 78.4118,28.8307 C78.4014,28.7682 78.3962,28.711 78.3962,28.6589 C78.3962,28.1901 78.6514,27.8412 79.1618,27.612 C79.4847,27.4557 79.8597,27.3776 80.2868,27.3776 C81.1618,27.3776 81.7608,27.6172 82.0837,28.0964 C82.2087,28.2943 82.2712,28.5182 82.2712,28.7682 L82.2712,31.3464 C82.2816,31.5026 82.3493,31.586 82.4743,31.5964 C82.5264,31.586 82.5628,31.5703 82.5837,31.5495 L82.693,31.4557 L82.8337,31.6589 C82.4378,32.0339 82.068,32.2318 81.7243,32.2526 C81.3493,32.2526 81.1045,32.112 80.9899,31.8307 C80.9587,31.737 80.9274,31.638 80.8962,31.5339 C80.3545,32.0026 79.8285,32.2422 79.318,32.2526 C78.8805,32.2526 78.5628,32.086 78.3649,31.7526 C78.2608,31.586 78.2087,31.4037 78.2087,31.2057 C78.2087,30.6224 78.6566,30.1485 79.5524,29.7839 C79.792,29.6797 80.2399,29.5287 80.8962,29.3307 L80.8962,28.5964 C80.8962,28.0651 80.6774,27.7735 80.2399,27.7214 C80.1774,27.7214 80.1149,27.7214 80.0524,27.7214 C79.7608,27.7214 79.5628,27.8047 79.4587,27.9714 C79.4378,28.0026 79.4274,28.0391 79.4274,28.0807 M80.8805,31.0964 L80.8805,29.6589 C80.0785,29.8776 79.6722,30.2787 79.6618,30.862 C79.6618,31.1953 79.7712,31.4037 79.9899,31.487 C80.0524,31.5078 80.1149,31.5182 80.1774,31.5182 C80.4066,31.5182 80.641,31.3776 80.8805,31.0964 M86.3493,32.237 L86.3493,31.5964 C85.9951,31.9714 85.6514,32.1849 85.318,32.237 C85.2243,32.2474 85.1253,32.2526 85.0212,32.2526 C84.4274,32.2526 83.9587,31.9766 83.6149,31.4245 C83.3441,30.9974 83.2087,30.4922 83.2087,29.9089 C83.2087,29.0547 83.4535,28.3828 83.943,27.8932 C84.2764,27.5495 84.6722,27.3776 85.1305,27.3776 C85.4847,27.3776 85.8076,27.513 86.0993,27.7839 C86.1826,27.8568 86.2555,27.9245 86.318,27.987 L86.318,26.1745 C86.318,25.9245 86.2608,25.7682 86.1462,25.7057 C86.042,25.6537 85.8441,25.6172 85.5524,25.5964 L85.5524,25.362 L87.7087,25.362 L87.7087,31.112 C87.7087,31.3932 87.792,31.5651 87.9587,31.6276 C88.042,31.6589 88.1566,31.6797 88.3024,31.6901 L88.3024,31.9245 L87.6774,32.0026 C87.1253,32.0755 86.6826,32.1537 86.3493,32.237 M85.4743,31.7057 C85.766,31.7057 86.016,31.5391 86.2243,31.2057 C86.2764,31.112 86.3076,31.0443 86.318,31.0026 L86.318,28.5495 C86.193,28.2162 85.9847,28.0182 85.693,27.9557 C85.641,27.9453 85.5889,27.9401 85.5368,27.9401 C85.0264,27.9401 84.7451,28.4453 84.693,29.4557 C84.693,29.5703 84.693,29.6953 84.693,29.8307 C84.693,31.0703 84.9535,31.6953 85.4743,31.7057 M90.6462,29.6589 C90.6983,30.6797 90.9639,31.2787 91.443,31.4557 C91.568,31.4974 91.6983,31.5182 91.8337,31.5182 C92.1983,31.5182 92.5316,31.3516 92.8337,31.0182 C92.8858,30.9662 92.9326,30.9141 92.9743,30.862 L93.2087,31.0026 C92.792,31.6068 92.3805,31.987 91.9743,32.1432 C91.766,32.2162 91.5316,32.2526 91.2712,32.2526 C90.5212,32.2526 89.9587,31.9453 89.5837,31.3307 C89.3337,30.9141 89.2087,30.4141 89.2087,29.8307 C89.2087,28.9349 89.4795,28.263 90.0212,27.8151 C90.3858,27.5235 90.8128,27.3776 91.3024,27.3776 C92.4066,27.3776 93.0264,28.0964 93.1618,29.5339 C93.1618,29.5755 93.1618,29.6172 93.1618,29.6589 L90.6462,29.6589 M91.943,29.1432 C91.9222,28.5182 91.8545,28.1224 91.7399,27.9557 C91.6462,27.7995 91.5003,27.7214 91.3024,27.7214 C91.0108,27.7214 90.8128,27.8932 90.7087,28.237 C90.6462,28.4766 90.6097,28.8307 90.5993,29.2995 L91.943,29.2995 L91.943,29.1432 M96.193,28.7214 C96.193,27.6276 96.4535,26.737 96.9743,26.0495 C97.4014,25.5182 97.8962,25.2474 98.4587,25.237 C99.1149,25.237 99.6566,25.5755 100.084,26.2526 C100.5,26.9297 100.709,27.7578 100.709,28.737 C100.709,29.8828 100.443,30.7943 99.9118,31.4714 C99.5055,31.9818 99.0264,32.237 98.4743,32.237 C97.7764,32.237 97.2139,31.8828 96.7868,31.1745 C96.391,30.5182 96.193,29.7005 96.193,28.7214 M98.4743,31.9557 C98.766,31.9557 98.9587,31.6849 99.0524,31.1432 C99.1045,30.8203 99.1305,30.4037 99.1305,29.8932 L99.1305,27.612 C99.1305,26.4037 98.9743,25.7214 98.6618,25.5651 C98.5889,25.5339 98.516,25.5182 98.443,25.5182 C98.141,25.5182 97.943,25.7943 97.8493,26.3464 C97.7972,26.6589 97.7712,27.0807 97.7712,27.612 L97.7712,29.8932 C97.7712,31.0287 97.9118,31.6901 98.193,31.8776 C98.2764,31.9297 98.3701,31.9557 98.4743,31.9557 M102.615,30.5495 C102.938,30.5495 103.183,30.6901 103.349,30.9714 C103.433,31.1172 103.474,31.263 103.474,31.4089 C103.474,31.7214 103.334,31.961 103.052,32.1276 C102.907,32.2005 102.761,32.237 102.615,32.237 C102.282,32.237 102.037,32.0964 101.881,31.8151 C101.808,31.6797 101.771,31.5391 101.771,31.3932 C101.771,31.0912 101.907,30.8568 102.177,30.6901 C102.313,30.5964 102.459,30.5495 102.615,30.5495 M102.615,27.3932 C102.938,27.3932 103.183,27.5287 103.349,27.7995 C103.433,27.9453 103.474,28.0912 103.474,28.237 C103.474,28.5599 103.334,28.8047 103.052,28.9714 C102.917,29.0443 102.771,29.0807 102.615,29.0807 C102.282,29.0807 102.037,28.9349 101.881,28.6432 C101.808,28.5078 101.771,28.3672 101.771,28.2214 C101.771,27.9193 101.907,27.6849 102.177,27.5182 C102.313,27.4349 102.459,27.3932 102.615,27.3932"/>
<path class="StaffText" d="M110.912,25.7526 C109.839,25.7526 109.11,26.2735 108.724,27.3151 C108.537,27.7839 108.443,28.2995 108.443,28.862 C108.443,30.0391 108.802,30.888 109.521,31.4089 C109.948,31.7214 110.469,31.8776 111.084,31.8776 C111.615,31.8776 112.011,31.763 112.271,31.5339 C112.355,31.4505 112.401,31.3672 112.412,31.2839 L112.412,29.6432 C112.412,29.2474 112.339,28.9974 112.193,28.8932 C112.089,28.8307 111.865,28.7839 111.521,28.7526 L111.521,28.5807 L114.068,28.5807 L114.068,28.7526 C113.735,28.7839 113.532,28.8724 113.459,29.0182 C113.407,29.1224 113.381,29.2943 113.381,29.5339 L113.381,31.5651 C113.099,31.8047 112.584,31.9974 111.834,32.1432 C111.469,32.2162 111.146,32.2526 110.865,32.2526 C109.948,32.2526 109.167,32.0182 108.521,31.5495 C107.719,30.9453 107.313,30.0547 107.302,28.8776 C107.302,27.8151 107.651,26.9505 108.349,26.2839 C108.995,25.6797 109.792,25.3776 110.74,25.3776 C111.146,25.3776 111.62,25.4557 112.162,25.612 C112.328,25.6641 112.453,25.6901 112.537,25.6901 C112.745,25.6901 112.886,25.6016 112.959,25.4245 C112.969,25.4037 112.98,25.388 112.99,25.3776 L113.209,25.3776 L113.287,27.487 L113.052,27.487 C112.75,26.7474 112.381,26.2526 111.943,26.0026 C111.641,25.836 111.297,25.7526 110.912,25.7526 M117.084,28.1589 L117.084,27.987 C117.563,27.8412 118.032,27.6849 118.49,27.5182 L118.552,27.5339 L118.552,28.2995 C119.125,27.862 119.537,27.612 119.787,27.5495 C119.891,27.5287 119.995,27.5182 120.099,27.5182 C120.631,27.5287 120.985,27.8151 121.162,28.3776 C121.693,27.8047 122.24,27.5182 122.802,27.5182 C123.563,27.5287 123.948,28.1276 123.959,29.3151 L123.959,31.362 C123.969,31.7266 124.11,31.9193 124.381,31.9401 L124.646,31.9557 L124.646,32.112 L122.459,32.112 L122.459,31.9557 C122.782,31.9245 122.974,31.8516 123.037,31.737 C123.089,31.6432 123.115,31.4818 123.115,31.2526 L123.115,29.1432 C123.115,28.5912 123.006,28.2578 122.787,28.1432 C122.683,28.0807 122.542,28.0495 122.365,28.0495 C121.917,28.0599 121.552,28.263 121.271,28.6589 L121.271,31.1745 C121.271,31.5495 121.36,31.7839 121.537,31.8776 C121.641,31.9297 121.792,31.9557 121.99,31.9557 L121.99,32.112 L119.756,32.112 L119.756,31.9557 C120.078,31.9349 120.276,31.862 120.349,31.737 C120.412,31.6432 120.443,31.4818 120.443,31.2526 L120.443,29.0964 C120.443,28.3985 120.219,28.0495 119.771,28.0495 C119.407,28.0495 119.084,28.1693 118.802,28.4089 C118.73,28.4818 118.662,28.5599 118.599,28.6432 L118.599,31.4401 C118.599,31.6901 118.688,31.8464 118.865,31.9089 C118.959,31.9401 119.094,31.9557 119.271,31.9557 L119.271,32.112 L117.052,32.112 L117.052,31.9557 C117.407,31.9557 117.62,31.8724 117.693,31.7057 C117.735,31.6016 117.756,31.4557 117.756,31.2682 L117.756,28.7526 C117.756,28.3776 117.677,28.1693 117.521,28.1276 C117.49,28.1172 117.453,28.112 117.412,28.112 C117.308,28.112 117.198,28.1276 117.084,28.1589 M125.209,31.1432 C125.209,30.6328 125.526,30.2005 126.162,29.8464 C126.349,29.7526 126.849,29.5391 127.662,29.2057 C127.683,29.2057 127.698,29.2005 127.709,29.1901 L127.709,28.5807 C127.657,28.0599 127.401,27.7839 126.943,27.7526 C126.631,27.7526 126.412,27.8516 126.287,28.0495 C126.245,28.1224 126.224,28.1849 126.224,28.237 C126.224,28.2995 126.235,28.3828 126.256,28.487 C126.266,28.5599 126.271,28.612 126.271,28.6432 C126.271,28.8203 126.183,28.9453 126.006,29.0182 C125.943,29.0495 125.886,29.0651 125.834,29.0651 C125.646,29.0651 125.516,28.9766 125.443,28.7995 C125.412,28.7474 125.396,28.6901 125.396,28.6276 C125.396,28.263 125.615,27.9662 126.052,27.737 C126.355,27.5912 126.698,27.5182 127.084,27.5182 C127.802,27.5182 128.245,27.7735 128.412,28.2839 C128.485,28.5026 128.521,28.7787 128.521,29.112 L128.521,31.0495 C128.521,31.3828 128.584,31.5703 128.709,31.612 C128.75,31.6224 128.787,31.6276 128.818,31.6276 C128.964,31.6172 129.11,31.5547 129.256,31.4401 L129.256,31.6901 C128.985,32.0026 128.735,32.1745 128.506,32.2057 C128.453,32.2057 128.401,32.2057 128.349,32.2057 C128.037,32.2057 127.839,32.0495 127.756,31.737 C127.735,31.6537 127.724,31.5599 127.724,31.4557 C127.131,31.9349 126.641,32.1849 126.256,32.2057 C125.828,32.2057 125.521,32.0339 125.334,31.6901 C125.25,31.5235 125.209,31.3412 125.209,31.1432 M127.709,30.862 L127.709,29.4245 C126.886,29.7266 126.381,30.0339 126.193,30.3464 C126.12,30.4922 126.084,30.6485 126.084,30.8151 C126.084,31.211 126.23,31.461 126.521,31.5651 C126.594,31.5964 126.662,31.612 126.724,31.612 C126.943,31.6016 127.183,31.5235 127.443,31.3776 C127.589,31.2943 127.672,31.1901 127.693,31.0651 C127.703,31.0026 127.709,30.9349 127.709,30.862 M130.427,28.1901 C130.427,28.1901 130.276,28.2005 129.974,28.2214 L129.974,28.0495 C130.516,27.8828 131.037,27.7057 131.537,27.5182 L131.584,27.5495 L131.584,32.112 C131.584,33.3412 131.172,34.0495 130.349,34.237 C130.203,34.2682 130.052,34.2839 129.896,34.2839 C129.459,34.2839 129.167,34.1745 129.021,33.9557 C128.98,33.8828 128.959,33.8099 128.959,33.737 C128.959,33.5495 129.047,33.4297 129.224,33.3776 C129.276,33.3568 129.323,33.3464 129.365,33.3464 C129.511,33.3464 129.667,33.4505 129.834,33.6589 C130.011,33.8464 130.157,33.9453 130.271,33.9557 C130.5,33.9557 130.641,33.7943 130.693,33.4714 C130.724,33.2735 130.74,32.9714 130.74,32.5651 L130.74,28.7682 C130.74,28.4141 130.662,28.2214 130.506,28.1901 C130.474,28.1901 130.448,28.1901 130.427,28.1901 M131.084,25.2839 C131.302,25.2839 131.459,25.3828 131.552,25.5807 C131.584,25.6537 131.599,25.7266 131.599,25.7995 C131.599,26.0182 131.49,26.1745 131.271,26.2682 C131.209,26.2891 131.146,26.2995 131.084,26.2995 C130.855,26.2995 130.698,26.2005 130.615,26.0026 C130.594,25.9297 130.584,25.862 130.584,25.7995 C130.584,25.5807 130.677,25.4245 130.865,25.3307 C130.938,25.2995 131.011,25.2839 131.084,25.2839 M134.412,27.5182 C135.151,27.5182 135.735,27.7891 136.162,28.3307 C136.464,28.737 136.615,29.2162 136.615,29.7682 C136.615,30.5495 136.36,31.1745 135.849,31.6432 C135.433,32.0182 134.948,32.2057 134.396,32.2057 C133.688,32.2057 133.125,31.9349 132.709,31.3932 C132.375,30.9557 132.209,30.4401 132.209,29.8464 C132.209,29.0339 132.485,28.4089 133.037,27.9714 C133.422,27.6693 133.881,27.5182 134.412,27.5182 M133.115,29.362 C133.115,30.2682 133.302,30.961 133.677,31.4401 C133.917,31.7526 134.198,31.9089 134.521,31.9089 C135.042,31.9089 135.401,31.612 135.599,31.0182 C135.683,30.7578 135.724,30.461 135.724,30.1276 C135.724,29.2422 135.511,28.586 135.084,28.1589 C134.855,27.9297 134.589,27.8151 134.287,27.8151 C133.818,27.8151 133.48,28.0547 133.271,28.5339 C133.167,28.7735 133.115,29.0495 133.115,29.362 M139.974,28.487 C139.87,28.487 139.719,28.4037 139.521,28.237 C139.427,28.1537 139.355,28.112 139.302,28.112 C139.136,28.112 138.964,28.2422 138.787,28.5026 C138.672,28.6693 138.615,28.8151 138.615,28.9401 L138.615,31.2057 C138.615,31.5495 138.703,31.763 138.881,31.8464 C139.006,31.9089 139.198,31.9453 139.459,31.9557 L139.459,32.112 L137.052,32.112 L137.052,31.9557 C137.407,31.8932 137.62,31.8099 137.693,31.7057 C137.745,31.6224 137.771,31.4766 137.771,31.2682 L137.771,28.7526 C137.771,28.388 137.688,28.1901 137.521,28.1589 C137.49,28.1485 137.459,28.1432 137.427,28.1432 C137.313,28.1432 137.198,28.1589 137.084,28.1901 L137.084,28.0339 C137.615,27.8672 138.105,27.6953 138.552,27.5182 L138.615,27.5339 L138.615,28.4245 C138.959,27.9453 139.25,27.6589 139.49,27.5651 C139.594,27.5339 139.698,27.5182 139.802,27.5182 C140.115,27.5182 140.297,27.6485 140.349,27.9089 C140.349,27.9505 140.349,27.9974 140.349,28.0495 C140.318,28.3203 140.193,28.4662 139.974,28.487 M145.631,27.7214 C145.651,27.711 145.709,27.6745 145.802,27.612 L145.912,27.612 L145.943,28.9714 L145.802,28.9714 C145.636,28.3255 145.396,27.9401 145.084,27.8151 C144.969,27.763 144.839,27.737 144.693,27.737 C144.339,27.737 144.099,27.8776 143.974,28.1589 C143.943,28.2422 143.927,28.3307 143.927,28.4245 C143.938,28.7057 144.084,28.9297 144.365,29.0964 L145.443,29.737 C145.922,30.0287 146.193,30.3464 146.256,30.6901 C146.266,30.763 146.271,30.8464 146.271,30.9401 C146.271,31.3568 146.089,31.6953 145.724,31.9557 C145.464,32.1224 145.177,32.2057 144.865,32.2057 C144.73,32.2057 144.422,32.1589 143.943,32.0651 C143.828,32.0443 143.74,32.0339 143.677,32.0339 C143.573,32.0443 143.495,32.086 143.443,32.1589 L143.318,32.1589 L143.318,30.5964 L143.474,30.5964 C143.578,31.0651 143.709,31.3932 143.865,31.5807 C144.084,31.8516 144.375,31.987 144.74,31.987 C145.167,31.987 145.433,31.8307 145.537,31.5182 C145.568,31.4453 145.584,31.362 145.584,31.2682 C145.573,30.9662 145.396,30.7162 145.052,30.5182 L144.474,30.1901 C143.849,29.836 143.48,29.4818 143.365,29.1276 C143.323,29.0026 143.302,28.8776 143.302,28.7526 C143.302,28.2839 143.506,27.9349 143.912,27.7057 C144.141,27.5807 144.391,27.5182 144.662,27.5182 C144.881,27.5182 145.141,27.5703 145.443,27.6745 C145.526,27.7057 145.589,27.7214 145.631,27.7214 M147.209,29.987 C147.209,29.1432 147.495,28.4818 148.068,28.0026 C148.464,27.6797 148.907,27.5182 149.396,27.5182 C149.948,27.5182 150.375,27.6693 150.677,27.9714 C150.855,28.1485 150.943,28.3412 150.943,28.5495 C150.943,28.7266 150.849,28.8516 150.662,28.9245 C150.589,28.9557 150.521,28.9714 150.459,28.9714 C150.25,28.9714 150.099,28.836 150.006,28.5651 C149.995,28.5443 149.99,28.5235 149.99,28.5026 L149.927,28.2839 C149.865,28.0339 149.75,27.888 149.584,27.8464 C149.511,27.8255 149.427,27.8151 149.334,27.8151 C148.834,27.8151 148.453,28.0547 148.193,28.5339 C148.047,28.8255 147.974,29.1641 147.974,29.5495 C147.974,30.2787 148.198,30.8255 148.646,31.1901 C148.907,31.388 149.198,31.487 149.521,31.487 C149.938,31.487 150.297,31.3203 150.599,30.987 C150.703,30.862 150.818,30.7162 150.943,30.5495 L151.084,30.6432 C150.709,31.362 150.292,31.8307 149.834,32.0495 C149.594,32.1537 149.355,32.2057 149.115,32.2057 C148.469,32.2057 147.964,31.9401 147.599,31.4089 C147.339,31.0026 147.209,30.5287 147.209,29.987 M151.209,31.1432 C151.209,30.6328 151.526,30.2005 152.162,29.8464 C152.349,29.7526 152.849,29.5391 153.662,29.2057 C153.683,29.2057 153.698,29.2005 153.709,29.1901 L153.709,28.5807 C153.657,28.0599 153.401,27.7839 152.943,27.7526 C152.631,27.7526 152.412,27.8516 152.287,28.0495 C152.245,28.1224 152.224,28.1849 152.224,28.237 C152.224,28.2995 152.235,28.3828 152.256,28.487 C152.266,28.5599 152.271,28.612 152.271,28.6432 C152.271,28.8203 152.183,28.9453 152.006,29.0182 C151.943,29.0495 151.886,29.0651 151.834,29.0651 C151.646,29.0651 151.516,28.9766 151.443,28.7995 C151.412,28.7474 151.396,28.6901 151.396,28.6276 C151.396,28.263 151.615,27.9662 152.052,27.737 C152.355,27.5912 152.698,27.5182 153.084,27.5182 C153.802,27.5182 154.245,27.7735 154.412,28.2839 C154.485,28.5026 154.521,28.7787 154.521,29.112 L154.521,31.0495 C154.521,31.3828 154.584,31.5703 154.709,31.612 C154.75,31.6224 154.787,31.6276 154.818,31.6276 C154.964,31.6172 155.11,31.5547 155.256,31.4401 L155.256,31.6901 C154.985,32.0026 154.735,32.1745 154.506,32.2057 C154.453,32.2057 154.401,32.2057 154.349,32.2057 C154.037,32.2057 153.839,32.0495 153.756,31.737 C153.735,31.6537 153.724,31.5599 153.724,31.4557 C153.131,31.9349 152.641,32.1849 152.256,32.2057 C151.828,32.2057 151.521,32.0339 151.334,31.6901 C151.25,31.5235 151.209,31.3412 151.209,31.1432 M153.709,30.862 L153.709,29.4245 C152.886,29.7266 152.381,30.0339 152.193,30.3464 C152.12,30.4922 152.084,30.6485 152.084,30.8151 C152.084,31.211 152.23,31.461 152.521,31.5651 C152.594,31.5964 152.662,31.612 152.724,31.612 C152.943,31.6016 153.183,31.5235 153.443,31.3776 C153.589,31.2943 153.672,31.1901 153.693,31.0651 C153.703,31.0026 153.709,30.9349 153.709,30.862 M155.052,25.8776 L155.052,25.7214 C155.719,25.5547 156.25,25.4089 156.646,25.2839 L156.693,25.2995 L156.693,31.2682 C156.693,31.5807 156.756,31.7735 156.881,31.8464 C156.995,31.8985 157.183,31.9349 157.443,31.9557 L157.443,32.112 L155.084,32.112 L155.084,31.9557 C155.459,31.9245 155.688,31.836 155.771,31.6901 C155.823,31.5964 155.849,31.4453 155.849,31.237 L155.849,26.4714 C155.849,26.138 155.776,25.9453 155.631,25.8932 C155.568,25.8724 155.5,25.862 155.427,25.862 C155.292,25.862 155.167,25.8672 155.052,25.8776 M158.927,29.3464 C158.969,30.5235 159.355,31.2162 160.084,31.4245 C160.209,31.4662 160.344,31.487 160.49,31.487 C160.98,31.487 161.396,31.2787 161.74,30.862 C161.834,30.7474 161.933,30.612 162.037,30.4557 L162.193,30.5182 C161.828,31.4766 161.256,32.0287 160.474,32.1745 C160.339,32.1953 160.209,32.2057 160.084,32.2057 C159.344,32.2057 158.813,31.8932 158.49,31.2682 C158.302,30.8932 158.209,30.461 158.209,29.9714 C158.209,29.086 158.485,28.4141 159.037,27.9557 C159.401,27.6641 159.823,27.5182 160.302,27.5182 C161.219,27.5182 161.771,28.0391 161.959,29.0807 C161.98,29.1745 161.995,29.263 162.006,29.3464 L158.927,29.3464 M158.943,29.0495 L160.99,29.0495 C160.896,28.4766 160.73,28.1224 160.49,27.987 C160.365,27.9245 160.203,27.8932 160.006,27.8932 C159.412,27.8932 159.058,28.2682 158.943,29.0182 C158.943,29.0287 158.943,29.0391 158.943,29.0495 M167.552,27.612 L167.552,27.9089 L166.537,27.9089 L166.537,30.7682 C166.537,31.3099 166.672,31.6068 166.943,31.6589 C166.974,31.6693 167.011,31.6745 167.052,31.6745 C167.261,31.6641 167.464,31.5443 167.662,31.3151 L167.787,31.4401 C167.464,31.9505 167.063,32.2057 166.584,32.2057 C166,32.1953 165.703,31.7735 165.693,30.9401 L165.693,27.9089 L165.162,27.9089 C165.141,27.888 165.131,27.8672 165.131,27.8464 C165.131,27.8047 165.172,27.763 165.256,27.7214 C165.537,27.5339 165.87,27.1693 166.256,26.6276 C166.266,26.6172 166.271,26.612 166.271,26.612 C166.375,26.4557 166.443,26.362 166.474,26.3307 C166.516,26.3412 166.537,26.3828 166.537,26.4557 L166.537,27.612 L167.552,27.612 M170.412,27.5182 C171.151,27.5182 171.735,27.7891 172.162,28.3307 C172.464,28.737 172.615,29.2162 172.615,29.7682 C172.615,30.5495 172.36,31.1745 171.849,31.6432 C171.433,32.0182 170.948,32.2057 170.396,32.2057 C169.688,32.2057 169.125,31.9349 168.709,31.3932 C168.375,30.9557 168.209,30.4401 168.209,29.8464 C168.209,29.0339 168.485,28.4089 169.037,27.9714 C169.422,27.6693 169.881,27.5182 170.412,27.5182 M169.115,29.362 C169.115,30.2682 169.302,30.961 169.677,31.4401 C169.917,31.7526 170.198,31.9089 170.521,31.9089 C171.042,31.9089 171.401,31.612 171.599,31.0182 C171.683,30.7578 171.724,30.461 171.724,30.1276 C171.724,29.2422 171.511,28.586 171.084,28.1589 C170.855,27.9297 170.589,27.8151 170.287,27.8151 C169.818,27.8151 169.48,28.0547 169.271,28.5339 C169.167,28.7735 169.115,29.0495 169.115,29.362 M179.521,30.1432 C179.521,29.2266 179.026,28.5807 178.037,28.2057 C177.589,28.0391 177.151,27.9557 176.724,27.9557 C176.651,27.9453 176.61,27.9193 176.599,27.8776 C176.599,27.8464 176.605,27.8255 176.615,27.8151 L177.693,25.5026 L179.787,25.5026 C179.964,25.5026 180.105,25.4297 180.209,25.2839 C180.219,25.263 180.23,25.2474 180.24,25.237 L180.334,25.2995 L179.959,26.1432 C179.917,26.1953 179.839,26.2214 179.724,26.2214 L177.771,26.2214 L177.349,27.0807 C178.651,27.3203 179.5,27.7526 179.896,28.3776 C180.115,28.7214 180.224,29.1537 180.224,29.6745 C180.224,30.8099 179.75,31.5807 178.802,31.987 C178.396,32.1641 177.964,32.2526 177.506,32.2526 C176.86,32.2526 176.464,32.1068 176.318,31.8151 C176.287,31.763 176.271,31.7005 176.271,31.6276 C176.292,31.388 176.438,31.2682 176.709,31.2682 C176.896,31.2682 177.141,31.3724 177.443,31.5807 C177.735,31.7787 177.964,31.8776 178.131,31.8776 C178.599,31.8776 178.969,31.6589 179.24,31.2214 C179.427,30.8985 179.521,30.5391 179.521,30.1432 M183.552,27.612 L183.552,27.9089 L182.537,27.9089 L182.537,30.7682 C182.537,31.3099 182.672,31.6068 182.943,31.6589 C182.974,31.6693 183.011,31.6745 183.052,31.6745 C183.261,31.6641 183.464,31.5443 183.662,31.3151 L183.787,31.4401 C183.464,31.9505 183.063,32.2057 182.584,32.2057 C182,32.1953 181.703,31.7735 181.693,30.9401 L181.693,27.9089 L181.162,27.9089 C181.141,27.888 181.131,27.8672 181.131,27.8464 C181.131,27.8047 181.172,27.763 181.256,27.7214 C181.537,27.5339 181.87,27.1693 182.256,26.6276 C182.266,26.6172 182.271,26.612 182.271,26.612 C182.375,26.4557 182.443,26.362 182.474,26.3307 C182.516,26.3412 182.537,26.3828 182.537,26.4557 L182.537,27.612 L183.552,27.612 M185.537,28.6901 L185.537,31.0964 C185.537,31.4818 185.599,31.7214 185.724,31.8151 C185.818,31.888 185.985,31.9349 186.224,31.9557 L186.224,32.112 L184.052,32.112 L184.052,31.9557 C184.355,31.9245 184.542,31.8516 184.615,31.737 C184.667,31.6328 184.693,31.4193 184.693,31.0964 L184.693,26.3776 C184.693,26.1172 184.641,25.961 184.537,25.9089 C184.474,25.8776 184.375,25.862 184.24,25.862 C184.188,25.862 184.131,25.8672 184.068,25.8776 L184.068,25.7214 C184.547,25.5964 185.021,25.4505 185.49,25.2839 L185.537,25.3151 L185.537,28.3464 C185.922,27.8568 186.334,27.5807 186.771,27.5182 C186.844,27.5182 186.922,27.5182 187.006,27.5182 C187.818,27.5287 188.23,28.0547 188.24,29.0964 L188.24,31.0964 C188.24,31.4714 188.287,31.7057 188.381,31.7995 C188.453,31.8724 188.605,31.9245 188.834,31.9557 L188.834,32.112 L186.724,32.112 L186.724,31.9557 C187.037,31.9245 187.23,31.8412 187.302,31.7057 C187.365,31.5912 187.396,31.388 187.396,31.0964 L187.396,29.112 C187.386,28.4141 187.136,28.0599 186.646,28.0495 C186.323,28.0495 185.995,28.2162 185.662,28.5495 C185.62,28.6016 185.578,28.6485 185.537,28.6901"/>
</svg>
