<?xml version="1.0" encoding="UTF-8" standalone="no"?>
<svg width="595.44px" height="841.68px" viewBox="0 0 595.44 841.68"
 xmlns="http://www.w3.org/2000/svg" xmlns:xlink="http://www.w3.org/1999/xlink" version="1.2" baseProfile="tiny">
<title>Guitar Scales and Arpeggios</title>
<desc>Generated by MuseScore 2.1.0</desc>
<polyline class="StaffLines" fill="none" stroke="#000000" stroke-width="0.40" stroke-linejoin="bevel" points="28.08,62.856 567.36,62.856"/>
<polyline class="StaffLines" fill="none" stroke="#000000" stroke-width="0.40" stroke-linejoin="bevel" points="28.08,67.824 567.36,67.824"/>
<polyline class="StaffLines" fill="none" stroke="#000000" stroke-width="0.40" stroke-linejoin="bevel" points="28.08,72.792 567.36,72.792"/>
<polyline class="StaffLines" fill="none" stroke="#000000" stroke-width="0.40" stroke-linejoin="bevel" points="28.08,77.76 567.36,77.76"/>
<polyline class="StaffLines" fill="none" stroke="#000000" stroke-width="0.40" stroke-linejoin="bevel" points="28.08,82.728 567.36,82.728"/>
<polyline class="StaffLines" fill="none" stroke="#000000" stroke-width="0.40" stroke-linejoin="bevel" points="28.08,115.02 567.36,115.02"/>
<polyline class="StaffLines" fill="none" stroke="#000000" stroke-width="0.40" stroke-linejoin="bevel" points="28.08,122.472 567.36,122.472"/>
<polyline class="StaffLines" fill="none" stroke="#000000" stroke-width="0.40" stroke-linejoin="bevel" points="28.08,129.924 567.36,129.924"/>
<polyline class="StaffLines" fill="none" stroke="#000000" stroke-width="0.40" stroke-linejoin="bevel" points="28.08,137.376 567.36,137.376"/>
<polyline class="StaffLines" fill="none" stroke="#000000" stroke-width="0.40" stroke-linejoin="bevel" points="28.08,144.828 567.36,144.828"/>
<polyline class="StaffLines" fill="none" stroke="#000000" stroke-width="0.40" stroke-linejoin="bevel" points="28.08,152.28 567.36,152.28"/>
<polyline class="BarLine" fill="none" stroke="#000000" stroke-width="0.79" stroke-linejoin="bevel" points="28.4774,62.856 28.4774,152.28"/>
<polyline class="BarLine" fill="none" stroke="#000000" stroke-width="0.79" stroke-linejoin="bevel" points="562.491,115.02 562.491,152.28"/>
<polyline class="BarLine" fill="none" stroke="#000000" stroke-width="2.48" stroke-linejoin="bevel" points="566.118,115.02 566.118,152.28"/>
<polyline class="BarLine" fill="none" stroke="#000000" stroke-width="0.79" stroke-linejoin="bevel" points="562.491,62.856 562.491,82.728"/>
<polyline class="BarLine" fill="none" stroke="#000000" stroke-width="2.48" stroke-linejoin="bevel" points="566.118,62.856 566.118,82.728"/>
<polyline class="LedgerLine" fill="none" stroke="#000000" stroke-width="0.79" stroke-linecap="square" stroke-linejoin="bevel" points="503.935,87.696 513.456,87.696"/>
<polyline class="LedgerLine" fill="none" stroke="#000000" stroke-width="0.79" stroke-linecap="square" stroke-linejoin="bevel" points="503.935,92.664 513.456,92.664"/>
<polyline class="LedgerLine" fill="none" stroke="#000000" stroke-width="0.79" stroke-linecap="square" stroke-linejoin="bevel" points="468.517,87.696 478.038,87.696"/>
<polyline class="LedgerLine" fill="none" stroke="#000000" stroke-width="0.79" stroke-linecap="square" stroke-linejoin="bevel" points="291.427,57.888 300.948,57.888"/>
<polyline class="LedgerLine" fill="none" stroke="#000000" stroke-width="0.79" stroke-linecap="square" stroke-linejoin="bevel" points="114.337,87.696 123.858,87.696"/>
<polyline class="LedgerLine" fill="none" stroke="#000000" stroke-width="0.79" stroke-linecap="square" stroke-linejoin="bevel" points="78.9189,87.696 88.4404,87.696"/>
<polyline class="LedgerLine" fill="none" stroke="#000000" stroke-width="0.79" stroke-linecap="square" stroke-linejoin="bevel" points="78.9189,92.664 88.4404,92.664"/>
<polyline class="Stem" fill="none" stroke="#000000" stroke-width="0.65" stroke-linecap="round" stroke-linejoin="bevel" points="511.643,91.7309 511.643,72.792"/>
<polyline class="Stem" fill="none" stroke="#000000" stroke-width="0.65" stroke-linecap="round" stroke-linejoin="bevel" points="476.225,86.7629 476.225,67.824"/>
<polyline class="Stem" fill="none" stroke="#000000" stroke-width="0.65" stroke-linecap="round" stroke-linejoin="bevel" points="440.807,81.7949 440.807,64.719"/>
<polyline class="Stem" fill="none" stroke="#000000" stroke-width="0.65" stroke-linecap="round" stroke-linejoin="bevel" points="405.389,74.3429 405.389,61.614"/>
<polyline class="Stem" fill="none" stroke="#000000" stroke-width="0.65" stroke-linecap="round" stroke-linejoin="bevel" points="364.076,71.2411 364.076,86.454"/>
<polyline class="Stem" fill="none" stroke="#000000" stroke-width="0.65" stroke-linecap="round" stroke-linejoin="bevel" points="328.658,66.2731 328.658,83.349"/>
<polyline class="Stem" fill="none" stroke="#000000" stroke-width="0.65" stroke-linecap="round" stroke-linejoin="bevel" points="293.24,58.8211 293.24,80.244"/>
<polyline class="Stem" fill="none" stroke="#000000" stroke-width="0.65" stroke-linecap="round" stroke-linejoin="bevel" points="257.822,66.2731 257.822,82.728"/>
<polyline class="Stem" fill="none" stroke="#000000" stroke-width="0.65" stroke-linecap="round" stroke-linejoin="bevel" points="222.404,71.2411 222.404,85.833"/>
<polyline class="Stem" fill="none" stroke="#000000" stroke-width="0.65" stroke-linecap="round" stroke-linejoin="bevel" points="186.986,76.2091 186.986,88.938"/>
<polyline class="Stem" fill="none" stroke="#000000" stroke-width="0.65" stroke-linecap="round" stroke-linejoin="bevel" points="157.463,81.7949 157.463,67.824"/>
<polyline class="Stem" fill="none" stroke="#000000" stroke-width="0.65" stroke-linecap="round" stroke-linejoin="bevel" points="122.045,86.7629 122.045,70.929"/>
<polyline class="Stem" fill="none" stroke="#000000" stroke-width="0.65" stroke-linecap="round" stroke-linejoin="bevel" points="86.6271,91.7309 86.6271,74.034"/>
<path class="Note" fill="#ffffff" fill-rule="evenodd" d="M506.17,148.554 L512.132,148.554 L512.132,156.006 L506.17,156.006 L506.17,148.554 "/>
<path class="Note" transform="matrix(0.9936,0,0,0.9936,506.667,155.758)" d="M2.9375,-1.5 L0.25,-1.5 L0.25,-2.375 L3.15625,-6.39063 L3.73438,-6.39063 L3.73438,-2.23438 L4.6875,-2.23438 L4.6875,-1.5 L3.73438,-1.5 L3.73438,0 L2.9375,0 L2.9375,-1.5 M2.9375,-2.23438 L2.9375,-5.03125 L0.9375,-2.23438 L2.9375,-2.23438 "/>
<path class="Note" fill="#660099" transform="matrix(0.9936,0,0,0.9936,505.425,92.664)" d="M4.39063,-2.75 C5.01563,-2.75 5.54688,-2.58854 5.98438,-2.26563 C6.38021,-1.91146 6.57813,-1.46875 6.57813,-0.9375 C6.57813,-0.0416667 6.11979,0.796875 5.20313,1.57813 C4.26563,2.35938 3.26042,2.75 2.1875,2.75 C1.5625,2.75 1.03646,2.58854 0.609375,2.26563 C0.203125,1.91146 0,1.46875 0,0.9375 C0,0.0416667 0.46875,-0.796875 1.40625,-1.57813 C2.32292,-2.35938 3.31771,-2.75 4.39063,-2.75"/>
<path class="Note" fill="#ffffff" fill-rule="evenodd" d="M470.752,141.102 L476.714,141.102 L476.714,148.554 L470.752,148.554 L470.752,141.102 "/>
<path class="Note" transform="matrix(0.9936,0,0,0.9936,471.249,148.306)" d="M2.4375,-5.64063 C1.75,-5.64063 1.35417,-5.32813 1.25,-4.70313 C1.22917,-4.59896 1.21875,-4.47917 1.21875,-4.34375 L0.421875,-4.34375 C0.442708,-5.59375 1.01563,-6.27083 2.14063,-6.375 C2.23438,-6.38542 2.32813,-6.39063 2.42188,-6.39063 C3.26563,-6.39063 3.84375,-6.10938 4.15625,-5.54688 C4.29167,-5.28646 4.35938,-4.98438 4.35938,-4.64063 C4.35938,-4.00521 4.0625,-3.57292 3.46875,-3.34375 C4.03125,-3.14583 4.375,-2.81771 4.5,-2.35938 C4.54167,-2.19271 4.5625,-2.00521 4.5625,-1.79688 C4.5625,-1.05729 4.27604,-0.505208 3.70313,-0.140625 C3.33854,0.0885417 2.90104,0.203125 2.39063,0.203125 C1.21354,0.203125 0.526042,-0.348958 0.328125,-1.45313 C0.317708,-1.57813 0.302083,-1.71354 0.28125,-1.85938 L1.07813,-1.85938 C1.13021,-1.08854 1.46875,-0.65625 2.09375,-0.5625 C2.19792,-0.541667 2.30729,-0.53125 2.42188,-0.53125 C3.04688,-0.53125 3.45313,-0.765625 3.64063,-1.23438 C3.71354,-1.40104 3.75,-1.58854 3.75,-1.79688 C3.73958,-2.54688 3.29688,-2.92708 2.42188,-2.9375 L2.09375,-2.92188 L1.98438,-2.92188 L1.98438,-3.67188 C2.66146,-3.68229 3.10417,-3.77604 3.3125,-3.95313 C3.47917,-4.09896 3.5625,-4.31771 3.5625,-4.60938 C3.5625,-5.09896 3.34896,-5.41667 2.92188,-5.5625 C2.77604,-5.61458 2.61458,-5.64063 2.4375,-5.64063"/>
<path class="Note" fill="#ed2929" transform="matrix(0.9936,0,0,0.9936,470.007,87.696)" d="M4.39063,-2.75 C5.01563,-2.75 5.54688,-2.58854 5.98438,-2.26563 C6.38021,-1.91146 6.57813,-1.46875 6.57813,-0.9375 C6.57813,-0.0416667 6.11979,0.796875 5.20313,1.57813 C4.26563,2.35938 3.26042,2.75 2.1875,2.75 C1.5625,2.75 1.03646,2.58854 0.609375,2.26563 C0.203125,1.91146 0,1.46875 0,0.9375 C0,0.0416667 0.46875,-0.796875 1.40625,-1.57813 C2.32292,-2.35938 3.31771,-2.75 4.39063,-2.75"/>
<path class="Note" fill="#ffffff" fill-rule="evenodd" d="M435.334,141.102 L441.296,141.102 L441.296,148.554 L435.334,148.554 L435.334,141.102 "/>
<path class="Note" transform="matrix(0.9936,0,0,0.9936,435.831,148.306)" d="M0.390625,-2.90625 C0.390625,-4.76042 0.901042,-5.875 1.92188,-6.25 C2.16146,-6.34375 2.41146,-6.39063 2.67188,-6.39063 C3.35938,-6.39063 3.86979,-6.10938 4.20313,-5.54688 C4.33854,-5.30729 4.43229,-5.03125 4.48438,-4.71875 L3.6875,-4.71875 C3.58333,-5.22917 3.3125,-5.53125 2.875,-5.625 C2.79167,-5.63542 2.70833,-5.64063 2.625,-5.64063 C1.95833,-5.64063 1.52083,-5.21875 1.3125,-4.375 C1.23958,-4.04167 1.20313,-3.67188 1.20313,-3.26563 C1.55729,-3.75521 2.04688,-4 2.67188,-4 C3.33854,-4 3.85417,-3.75 4.21875,-3.25 C4.48958,-2.88542 4.625,-2.45833 4.625,-1.96875 C4.625,-1.23958 4.375,-0.671875 3.875,-0.265625 C3.5,0.046875 3.05208,0.203125 2.53125,0.203125 C1.10417,0.192708 0.390625,-0.84375 0.390625,-2.90625 M2.5625,-3.26563 C2.05208,-3.26563 1.67708,-3.07292 1.4375,-2.6875 C1.3125,-2.46875 1.25,-2.21875 1.25,-1.9375 C1.25,-1.4375 1.43229,-1.04688 1.79688,-0.765625 C2.00521,-0.609375 2.25,-0.53125 2.53125,-0.53125 C2.98958,-0.53125 3.33854,-0.71875 3.57813,-1.09375 C3.73438,-1.33333 3.8125,-1.60417 3.8125,-1.90625 C3.8125,-2.51042 3.59896,-2.92188 3.17188,-3.14063 C2.99479,-3.22396 2.79167,-3.26563 2.5625,-3.26563"/>
<path class="Note" fill="#00008b" transform="matrix(0.9936,0,0,0.9936,434.589,82.728)" d="M4.39063,-2.75 C5.01563,-2.75 5.54688,-2.58854 5.98438,-2.26563 C6.38021,-1.91146 6.57813,-1.46875 6.57813,-0.9375 C6.57813,-0.0416667 6.11979,0.796875 5.20313,1.57813 C4.26563,2.35938 3.26042,2.75 2.1875,2.75 C1.5625,2.75 1.03646,2.58854 0.609375,2.26563 C0.203125,1.91146 0,1.46875 0,0.9375 C0,0.0416667 0.46875,-0.796875 1.40625,-1.57813 C2.32292,-2.35938 3.31771,-2.75 4.39063,-2.75"/>
<path class="Note" fill="#ffffff" fill-rule="evenodd" d="M399.916,133.65 L405.878,133.65 L405.878,141.102 L399.916,141.102 L399.916,133.65 "/>
<path class="Note" transform="matrix(0.9936,0,0,0.9936,400.413,140.854)" d="M0.390625,-2.90625 C0.390625,-4.76042 0.901042,-5.875 1.92188,-6.25 C2.16146,-6.34375 2.41146,-6.39063 2.67188,-6.39063 C3.35938,-6.39063 3.86979,-6.10938 4.20313,-5.54688 C4.33854,-5.30729 4.43229,-5.03125 4.48438,-4.71875 L3.6875,-4.71875 C3.58333,-5.22917 3.3125,-5.53125 2.875,-5.625 C2.79167,-5.63542 2.70833,-5.64063 2.625,-5.64063 C1.95833,-5.64063 1.52083,-5.21875 1.3125,-4.375 C1.23958,-4.04167 1.20313,-3.67188 1.20313,-3.26563 C1.55729,-3.75521 2.04688,-4 2.67188,-4 C3.33854,-4 3.85417,-3.75 4.21875,-3.25 C4.48958,-2.88542 4.625,-2.45833 4.625,-1.96875 C4.625,-1.23958 4.375,-0.671875 3.875,-0.265625 C3.5,0.046875 3.05208,0.203125 2.53125,0.203125 C1.10417,0.192708 0.390625,-0.84375 0.390625,-2.90625 M2.5625,-3.26563 C2.05208,-3.26563 1.67708,-3.07292 1.4375,-2.6875 C1.3125,-2.46875 1.25,-2.21875 1.25,-1.9375 C1.25,-1.4375 1.43229,-1.04688 1.79688,-0.765625 C2.00521,-0.609375 2.25,-0.53125 2.53125,-0.53125 C2.98958,-0.53125 3.33854,-0.71875 3.57813,-1.09375 C3.73438,-1.33333 3.8125,-1.60417 3.8125,-1.90625 C3.8125,-2.51042 3.59896,-2.92188 3.17188,-3.14063 C2.99479,-3.22396 2.79167,-3.26563 2.5625,-3.26563"/>
<path class="Note" fill="#660099" transform="matrix(0.9936,0,0,0.9936,399.171,75.276)" d="M4.39063,-2.75 C5.01563,-2.75 5.54688,-2.58854 5.98438,-2.26563 C6.38021,-1.91146 6.57813,-1.46875 6.57813,-0.9375 C6.57813,-0.0416667 6.11979,0.796875 5.20313,1.57813 C4.26563,2.35938 3.26042,2.75 2.1875,2.75 C1.5625,2.75 1.03646,2.58854 0.609375,2.26563 C0.203125,1.91146 0,1.46875 0,0.9375 C0,0.0416667 0.46875,-0.796875 1.40625,-1.57813 C2.32292,-2.35938 3.31771,-2.75 4.39063,-2.75"/>
<path class="Note" fill="#ffffff" fill-rule="evenodd" d="M364.498,126.198 L370.46,126.198 L370.46,133.65 L364.498,133.65 L364.498,126.198 "/>
<path class="Note" transform="matrix(0.9936,0,0,0.9936,364.995,133.402)" d="M4.28125,-6.39063 L4.28125,-5.64063 L1.625,-5.64063 L1.375,-3.8125 C1.73958,-4.09375 2.13542,-4.23438 2.5625,-4.23438 C3.28125,-4.23438 3.83333,-3.97396 4.21875,-3.45313 C4.48958,-3.07813 4.625,-2.625 4.625,-2.09375 C4.625,-1.3125 4.35938,-0.708333 3.82813,-0.28125 C3.44271,0.0416667 2.97917,0.203125 2.4375,0.203125 C1.26042,0.203125 0.557292,-0.359375 0.328125,-1.48438 C0.328125,-1.50521 0.322917,-1.53125 0.3125,-1.5625 L1.10938,-1.5625 C1.30729,-0.885417 1.73958,-0.541667 2.40625,-0.53125 C3.02083,-0.53125 3.44271,-0.770833 3.67188,-1.25 C3.76563,-1.46875 3.8125,-1.71354 3.8125,-1.98438 C3.8125,-2.63021 3.58333,-3.07813 3.125,-3.32813 C2.91667,-3.44271 2.67708,-3.5 2.40625,-3.5 C2.03125,-3.5 1.70833,-3.38021 1.4375,-3.14063 C1.375,-3.07813 1.3125,-3.01042 1.25,-2.9375 L0.515625,-2.9375 L0.984375,-6.39063 L4.28125,-6.39063 "/>
<path class="Note" fill="#ed2929" transform="matrix(0.9936,0,0,0.9936,363.753,70.308)" d="M4.39063,-2.75 C5.01563,-2.75 5.54688,-2.58854 5.98438,-2.26563 C6.38021,-1.91146 6.57813,-1.46875 6.57813,-0.9375 C6.57813,-0.0416667 6.11979,0.796875 5.20313,1.57813 C4.26563,2.35938 3.26042,2.75 2.1875,2.75 C1.5625,2.75 1.03646,2.58854 0.609375,2.26563 C0.203125,1.91146 0,1.46875 0,0.9375 C0,0.0416667 0.46875,-0.796875 1.40625,-1.57813 C2.32292,-2.35938 3.31771,-2.75 4.39063,-2.75"/>
<path class="Note" fill="#ffffff" fill-rule="evenodd" d="M329.08,118.746 L335.042,118.746 L335.042,126.198 L329.08,126.198 L329.08,118.746 "/>
<path class="Note" transform="matrix(0.9936,0,0,0.9936,329.577,125.95)" d="M2.9375,-1.5 L0.25,-1.5 L0.25,-2.375 L3.15625,-6.39063 L3.73438,-6.39063 L3.73438,-2.23438 L4.6875,-2.23438 L4.6875,-1.5 L3.73438,-1.5 L3.73438,0 L2.9375,0 L2.9375,-1.5 M2.9375,-2.23438 L2.9375,-5.03125 L0.9375,-2.23438 L2.9375,-2.23438 "/>
<path class="Note" fill="#00008b" transform="matrix(0.9936,0,0,0.9936,328.335,65.34)" d="M4.39063,-2.75 C5.01563,-2.75 5.54688,-2.58854 5.98438,-2.26563 C6.38021,-1.91146 6.57813,-1.46875 6.57813,-0.9375 C6.57813,-0.0416667 6.11979,0.796875 5.20313,1.57813 C4.26563,2.35938 3.26042,2.75 2.1875,2.75 C1.5625,2.75 1.03646,2.58854 0.609375,2.26563 C0.203125,1.91146 0,1.46875 0,0.9375 C0,0.0416667 0.46875,-0.796875 1.40625,-1.57813 C2.32292,-2.35938 3.31771,-2.75 4.39063,-2.75"/>
<path class="Note" fill="#ffffff" fill-rule="evenodd" d="M293.662,111.294 L299.624,111.294 L299.624,118.746 L293.662,118.746 L293.662,111.294 "/>
<path class="Note" transform="matrix(0.9936,0,0,0.9936,294.159,118.498)" d="M2.9375,-1.5 L0.25,-1.5 L0.25,-2.375 L3.15625,-6.39063 L3.73438,-6.39063 L3.73438,-2.23438 L4.6875,-2.23438 L4.6875,-1.5 L3.73438,-1.5 L3.73438,0 L2.9375,0 L2.9375,-1.5 M2.9375,-2.23438 L2.9375,-5.03125 L0.9375,-2.23438 L2.9375,-2.23438 "/>
<path class="Note" fill="#660099" transform="matrix(0.9936,0,0,0.9936,292.917,57.888)" d="M4.39063,-2.75 C5.01563,-2.75 5.54688,-2.58854 5.98438,-2.26563 C6.38021,-1.91146 6.57813,-1.46875 6.57813,-0.9375 C6.57813,-0.0416667 6.11979,0.796875 5.20313,1.57813 C4.26563,2.35938 3.26042,2.75 2.1875,2.75 C1.5625,2.75 1.03646,2.58854 0.609375,2.26563 C0.203125,1.91146 0,1.46875 0,0.9375 C0,0.0416667 0.46875,-0.796875 1.40625,-1.57813 C2.32292,-2.35938 3.31771,-2.75 4.39063,-2.75"/>
<path class="Note" fill="#ffffff" fill-rule="evenodd" d="M258.244,118.746 L264.206,118.746 L264.206,126.198 L258.244,126.198 L258.244,118.746 "/>
<path class="Note" transform="matrix(0.9936,0,0,0.9936,258.741,125.95)" d="M2.9375,-1.5 L0.25,-1.5 L0.25,-2.375 L3.15625,-6.39063 L3.73438,-6.39063 L3.73438,-2.23438 L4.6875,-2.23438 L4.6875,-1.5 L3.73438,-1.5 L3.73438,0 L2.9375,0 L2.9375,-1.5 M2.9375,-2.23438 L2.9375,-5.03125 L0.9375,-2.23438 L2.9375,-2.23438 "/>
<path class="Note" fill="#00008b" transform="matrix(0.9936,0,0,0.9936,257.499,65.34)" d="M4.39063,-2.75 C5.01563,-2.75 5.54688,-2.58854 5.98438,-2.26563 C6.38021,-1.91146 6.57813,-1.46875 6.57813,-0.9375 C6.57813,-0.0416667 6.11979,0.796875 5.20313,1.57813 C4.26563,2.35938 3.26042,2.75 2.1875,2.75 C1.5625,2.75 1.03646,2.58854 0.609375,2.26563 C0.203125,1.91146 0,1.46875 0,0.9375 C0,0.0416667 0.46875,-0.796875 1.40625,-1.57813 C2.32292,-2.35938 3.31771,-2.75 4.39063,-2.75"/>
<path class="Note" fill="#ffffff" fill-rule="evenodd" d="M222.826,126.198 L228.788,126.198 L228.788,133.65 L222.826,133.65 L222.826,126.198 "/>
<path class="Note" transform="matrix(0.9936,0,0,0.9936,223.323,133.402)" d="M4.28125,-6.39063 L4.28125,-5.64063 L1.625,-5.64063 L1.375,-3.8125 C1.73958,-4.09375 2.13542,-4.23438 2.5625,-4.23438 C3.28125,-4.23438 3.83333,-3.97396 4.21875,-3.45313 C4.48958,-3.07813 4.625,-2.625 4.625,-2.09375 C4.625,-1.3125 4.35938,-0.708333 3.82813,-0.28125 C3.44271,0.0416667 2.97917,0.203125 2.4375,0.203125 C1.26042,0.203125 0.557292,-0.359375 0.328125,-1.48438 C0.328125,-1.50521 0.322917,-1.53125 0.3125,-1.5625 L1.10938,-1.5625 C1.30729,-0.885417 1.73958,-0.541667 2.40625,-0.53125 C3.02083,-0.53125 3.44271,-0.770833 3.67188,-1.25 C3.76563,-1.46875 3.8125,-1.71354 3.8125,-1.98438 C3.8125,-2.63021 3.58333,-3.07813 3.125,-3.32813 C2.91667,-3.44271 2.67708,-3.5 2.40625,-3.5 C2.03125,-3.5 1.70833,-3.38021 1.4375,-3.14063 C1.375,-3.07813 1.3125,-3.01042 1.25,-2.9375 L0.515625,-2.9375 L0.984375,-6.39063 L4.28125,-6.39063 "/>
<path class="Note" fill="#ed2929" transform="matrix(0.9936,0,0,0.9936,222.081,70.308)" d="M4.39063,-2.75 C5.01563,-2.75 5.54688,-2.58854 5.98438,-2.26563 C6.38021,-1.91146 6.57813,-1.46875 6.57813,-0.9375 C6.57813,-0.0416667 6.11979,0.796875 5.20313,1.57813 C4.26563,2.35938 3.26042,2.75 2.1875,2.75 C1.5625,2.75 1.03646,2.58854 0.609375,2.26563 C0.203125,1.91146 0,1.46875 0,0.9375 C0,0.0416667 0.46875,-0.796875 1.40625,-1.57813 C2.32292,-2.35938 3.31771,-2.75 4.39063,-2.75"/>
<path class="Note" fill="#ffffff" fill-rule="evenodd" d="M187.408,133.65 L193.37,133.65 L193.37,141.102 L187.408,141.102 L187.408,133.65 "/>
<path class="Note" transform="matrix(0.9936,0,0,0.9936,187.905,140.854)" d="M0.390625,-2.90625 C0.390625,-4.76042 0.901042,-5.875 1.92188,-6.25 C2.16146,-6.34375 2.41146,-6.39063 2.67188,-6.39063 C3.35938,-6.39063 3.86979,-6.10938 4.20313,-5.54688 C4.33854,-5.30729 4.43229,-5.03125 4.48438,-4.71875 L3.6875,-4.71875 C3.58333,-5.22917 3.3125,-5.53125 2.875,-5.625 C2.79167,-5.63542 2.70833,-5.64063 2.625,-5.64063 C1.95833,-5.64063 1.52083,-5.21875 1.3125,-4.375 C1.23958,-4.04167 1.20313,-3.67188 1.20313,-3.26563 C1.55729,-3.75521 2.04688,-4 2.67188,-4 C3.33854,-4 3.85417,-3.75 4.21875,-3.25 C4.48958,-2.88542 4.625,-2.45833 4.625,-1.96875 C4.625,-1.23958 4.375,-0.671875 3.875,-0.265625 C3.5,0.046875 3.05208,0.203125 2.53125,0.203125 C1.10417,0.192708 0.390625,-0.84375 0.390625,-2.90625 M2.5625,-3.26563 C2.05208,-3.26563 1.67708,-3.07292 1.4375,-2.6875 C1.3125,-2.46875 1.25,-2.21875 1.25,-1.9375 C1.25,-1.4375 1.43229,-1.04688 1.79688,-0.765625 C2.00521,-0.609375 2.25,-0.53125 2.53125,-0.53125 C2.98958,-0.53125 3.33854,-0.71875 3.57813,-1.09375 C3.73438,-1.33333 3.8125,-1.60417 3.8125,-1.90625 C3.8125,-2.51042 3.59896,-2.92188 3.17188,-3.14063 C2.99479,-3.22396 2.79167,-3.26563 2.5625,-3.26563"/>
<path class="Note" fill="#660099" transform="matrix(0.9936,0,0,0.9936,186.663,75.276)" d="M4.39063,-2.75 C5.01563,-2.75 5.54688,-2.58854 5.98438,-2.26563 C6.38021,-1.91146 6.57813,-1.46875 6.57813,-0.9375 C6.57813,-0.0416667 6.11979,0.796875 5.20313,1.57813 C4.26563,2.35938 3.26042,2.75 2.1875,2.75 C1.5625,2.75 1.03646,2.58854 0.609375,2.26563 C0.203125,1.91146 0,1.46875 0,0.9375 C0,0.0416667 0.46875,-0.796875 1.40625,-1.57813 C2.32292,-2.35938 3.31771,-2.75 4.39063,-2.75"/>
<path class="Note" fill="#ffffff" fill-rule="evenodd" d="M151.991,141.102 L157.952,141.102 L157.952,148.554 L151.991,148.554 L151.991,141.102 "/>
<path class="Note" transform="matrix(0.9936,0,0,0.9936,152.487,148.306)" d="M0.390625,-2.90625 C0.390625,-4.76042 0.901042,-5.875 1.92188,-6.25 C2.16146,-6.34375 2.41146,-6.39063 2.67188,-6.39063 C3.35938,-6.39063 3.86979,-6.10938 4.20313,-5.54688 C4.33854,-5.30729 4.43229,-5.03125 4.48438,-4.71875 L3.6875,-4.71875 C3.58333,-5.22917 3.3125,-5.53125 2.875,-5.625 C2.79167,-5.63542 2.70833,-5.64063 2.625,-5.64063 C1.95833,-5.64063 1.52083,-5.21875 1.3125,-4.375 C1.23958,-4.04167 1.20313,-3.67188 1.20313,-3.26563 C1.55729,-3.75521 2.04688,-4 2.67188,-4 C3.33854,-4 3.85417,-3.75 4.21875,-3.25 C4.48958,-2.88542 4.625,-2.45833 4.625,-1.96875 C4.625,-1.23958 4.375,-0.671875 3.875,-0.265625 C3.5,0.046875 3.05208,0.203125 2.53125,0.203125 C1.10417,0.192708 0.390625,-0.84375 0.390625,-2.90625 M2.5625,-3.26563 C2.05208,-3.26563 1.67708,-3.07292 1.4375,-2.6875 C1.3125,-2.46875 1.25,-2.21875 1.25,-1.9375 C1.25,-1.4375 1.43229,-1.04688 1.79688,-0.765625 C2.00521,-0.609375 2.25,-0.53125 2.53125,-0.53125 C2.98958,-0.53125 3.33854,-0.71875 3.57813,-1.09375 C3.73438,-1.33333 3.8125,-1.60417 3.8125,-1.90625 C3.8125,-2.51042 3.59896,-2.92188 3.17188,-3.14063 C2.99479,-3.22396 2.79167,-3.26563 2.5625,-3.26563"/>
<path class="Note" fill="#00008b" transform="matrix(0.9936,0,0,0.9936,151.245,82.728)" d="M4.39063,-2.75 C5.01563,-2.75 5.54688,-2.58854 5.98438,-2.26563 C6.38021,-1.91146 6.57813,-1.46875 6.57813,-0.9375 C6.57813,-0.0416667 6.11979,0.796875 5.20313,1.57813 C4.26563,2.35938 3.26042,2.75 2.1875,2.75 C1.5625,2.75 1.03646,2.58854 0.609375,2.26563 C0.203125,1.91146 0,1.46875 0,0.9375 C0,0.0416667 0.46875,-0.796875 1.40625,-1.57813 C2.32292,-2.35938 3.31771,-2.75 4.39063,-2.75"/>
<path class="Note" fill="#ffffff" fill-rule="evenodd" d="M116.573,141.102 L122.534,141.102 L122.534,148.554 L116.573,148.554 L116.573,141.102 "/>
<path class="Note" transform="matrix(0.9936,0,0,0.9936,117.069,148.306)" d="M2.4375,-5.64063 C1.75,-5.64063 1.35417,-5.32813 1.25,-4.70313 C1.22917,-4.59896 1.21875,-4.47917 1.21875,-4.34375 L0.421875,-4.34375 C0.442708,-5.59375 1.01563,-6.27083 2.14063,-6.375 C2.23438,-6.38542 2.32813,-6.39063 2.42188,-6.39063 C3.26563,-6.39063 3.84375,-6.10938 4.15625,-5.54688 C4.29167,-5.28646 4.35938,-4.98438 4.35938,-4.64063 C4.35938,-4.00521 4.0625,-3.57292 3.46875,-3.34375 C4.03125,-3.14583 4.375,-2.81771 4.5,-2.35938 C4.54167,-2.19271 4.5625,-2.00521 4.5625,-1.79688 C4.5625,-1.05729 4.27604,-0.505208 3.70313,-0.140625 C3.33854,0.0885417 2.90104,0.203125 2.39063,0.203125 C1.21354,0.203125 0.526042,-0.348958 0.328125,-1.45313 C0.317708,-1.57813 0.302083,-1.71354 0.28125,-1.85938 L1.07813,-1.85938 C1.13021,-1.08854 1.46875,-0.65625 2.09375,-0.5625 C2.19792,-0.541667 2.30729,-0.53125 2.42188,-0.53125 C3.04688,-0.53125 3.45313,-0.765625 3.64063,-1.23438 C3.71354,-1.40104 3.75,-1.58854 3.75,-1.79688 C3.73958,-2.54688 3.29688,-2.92708 2.42188,-2.9375 L2.09375,-2.92188 L1.98438,-2.92188 L1.98438,-3.67188 C2.66146,-3.68229 3.10417,-3.77604 3.3125,-3.95313 C3.47917,-4.09896 3.5625,-4.31771 3.5625,-4.60938 C3.5625,-5.09896 3.34896,-5.41667 2.92188,-5.5625 C2.77604,-5.61458 2.61458,-5.64063 2.4375,-5.64063"/>
<path class="Note" fill="#ed2929" transform="matrix(0.9936,0,0,0.9936,115.827,87.696)" d="M4.39063,-2.75 C5.01563,-2.75 5.54688,-2.58854 5.98438,-2.26563 C6.38021,-1.91146 6.57813,-1.46875 6.57813,-0.9375 C6.57813,-0.0416667 6.11979,0.796875 5.20313,1.57813 C4.26563,2.35938 3.26042,2.75 2.1875,2.75 C1.5625,2.75 1.03646,2.58854 0.609375,2.26563 C0.203125,1.91146 0,1.46875 0,0.9375 C0,0.0416667 0.46875,-0.796875 1.40625,-1.57813 C2.32292,-2.35938 3.31771,-2.75 4.39063,-2.75"/>
<path class="Note" fill="#ffffff" fill-rule="evenodd" d="M81.1545,148.554 L87.1161,148.554 L87.1161,156.006 L81.1545,156.006 L81.1545,148.554 "/>
<path class="Note" transform="matrix(0.9936,0,0,0.9936,81.6513,155.758)" d="M2.9375,-1.5 L0.25,-1.5 L0.25,-2.375 L3.15625,-6.39063 L3.73438,-6.39063 L3.73438,-2.23438 L4.6875,-2.23438 L4.6875,-1.5 L3.73438,-1.5 L3.73438,0 L2.9375,0 L2.9375,-1.5 M2.9375,-2.23438 L2.9375,-5.03125 L0.9375,-2.23438 L2.9375,-2.23438 "/>
<path class="Note" fill="#660099" transform="matrix(0.9936,0,0,0.9936,80.4093,92.664)" d="M4.39063,-2.75 C5.01563,-2.75 5.54688,-2.58854 5.98438,-2.26563 C6.38021,-1.91146 6.57813,-1.46875 6.57813,-0.9375 C6.57813,-0.0416667 6.11979,0.796875 5.20313,1.57813 C4.26563,2.35938 3.26042,2.75 2.1875,2.75 C1.5625,2.75 1.03646,2.58854 0.609375,2.26563 C0.203125,1.91146 0,1.46875 0,0.9375 C0,0.0416667 0.46875,-0.796875 1.40625,-1.57813 C2.32292,-2.35938 3.31771,-2.75 4.39063,-2.75"/>
<path class="Clef" transform="matrix(0.9936,0,0,0.9936,32.0544,133.65)" d="M5.32813,8.5 C5.32813,8.86458 5.04167,9.04688 4.46875,9.04688 C4.02083,9.04688 3.625,8.91146 3.28125,8.64063 C2.95833,8.34896 2.79688,7.98438 2.79688,7.54688 C2.79688,6.76563 3.27083,6.14063 4.21875,5.67188 C5.14583,5.18229 6.23438,4.9375 7.48438,4.9375 C7.96354,4.9375 8.47917,4.97396 9.03125,5.04688 C9.42708,5.09896 9.875,5.20313 10.375,5.35938 C10.8125,5.49479 11.1563,5.70573 11.4063,5.99219 C11.6563,6.27865 11.7813,6.61458 11.7813,7 C11.7813,7.89583 11.3177,8.63021 10.3906,9.20313 C11.7448,9.45313 12.4271,10.0573 12.4375,11.0156 C12.4375,11.8281 12.0729,12.5599 11.3438,13.2109 C10.6146,13.862 9.79167,14.1875 8.875,14.1875 C8.47917,14.1875 8.07813,14.0938 7.67188,13.9063 C7.29688,13.7292 7.03125,13.5625 6.875,13.4063 C6.71875,13.2188 6.64063,13.0781 6.64063,12.9844 C6.64063,12.8594 6.70833,12.75 6.84375,12.6563 C6.95833,12.5417 7.07813,12.4844 7.20313,12.4844 C7.25521,12.4844 7.36719,12.5677 7.53906,12.7344 C7.71094,12.901 7.95833,12.9844 8.28125,12.9844 C8.72917,12.9844 9.16146,12.7969 9.57813,12.4219 C9.97396,12.0573 10.1719,11.6198 10.1719,11.1094 C10.1719,10.6719 9.98438,10.3542 9.60938,10.1563 C9.24479,9.95833 8.76563,9.85938 8.17188,9.85938 C8.06771,9.85938 8.01563,9.75 8.01563,9.53125 C8.01563,9.21875 8.13021,9.0625 8.35938,9.0625 C8.72396,9.0625 9.05208,8.90625 9.34375,8.59375 C9.61458,8.26042 9.75,7.90104 9.75,7.51563 C9.75,7.40104 9.71875,7.22917 9.65625,7 C9.60417,6.84375 9.44792,6.65104 9.1875,6.42188 C8.9375,6.21354 8.58854,6.07292 8.14063,6 C8.02604,6.63542 7.88021,7.44792 7.70313,8.4375 C7.52604,9.42708 7.40625,10.0781 7.34375,10.3906 C7.125,11.5156 6.72396,12.4583 6.14063,13.2188 C5.52604,14.0313 4.86458,14.4375 4.15625,14.4375 C3.9375,14.4375 3.71354,14.3854 3.48438,14.2813 C3.29688,14.1979 3.0625,14.0365 2.78125,13.7969 C2.52083,13.5885 2.34375,13.4479 2.25,13.375 C2.19792,13.3438 2.17188,13.2865 2.17188,13.2031 C2.17188,13.0781 2.21875,12.9635 2.3125,12.8594 C2.41667,12.7344 2.52604,12.6719 2.64063,12.6719 C2.71354,12.6719 2.89323,12.7969 3.17969,13.0469 C3.46615,13.2969 3.76563,13.4219 4.07813,13.4219 C4.68229,13.4219 5.13542,13.0365 5.4375,12.2656 C5.71875,11.526 5.85938,10.6094 5.85938,9.51563 L5.85938,9.35938 C5.85938,8.63021 5.97917,7.54167 6.21875,6.09375 C5.80208,6.22917 5.46875,6.42708 5.21875,6.6875 C4.95833,6.94792 4.82813,7.21875 4.82813,7.5 C4.82813,7.71875 4.91146,7.90625 5.07813,8.0625 C5.24479,8.21875 5.32813,8.36458 5.32813,8.5 M1.40625,2.39063 C1.46875,2.39063 1.625,2.45313 1.875,2.57813 C2.13542,2.71354 2.35938,2.78125 2.54688,2.78125 C3.03646,2.78125 3.64063,2.42188 4.35938,1.70313 C6.43229,-0.411458 7.85938,-2.65104 8.64063,-5.01563 C8.79688,-5.51563 9.17708,-5.76563 9.78125,-5.76563 C10.0938,-5.76563 10.3646,-5.69792 10.5938,-5.5625 C10.8125,-5.42708 10.9219,-5.28646 10.9219,-5.14063 L10.5625,2.17188 C10.5625,2.55729 10.7031,2.75 10.9844,2.75 C11.1198,2.75 11.3281,2.6875 11.6094,2.5625 C11.8698,2.42708 12.026,2.35938 12.0781,2.35938 C12.1823,2.35938 12.2448,2.47396 12.2656,2.70313 C12.2656,2.91146 12.1823,3.04167 12.0156,3.09375 C11.8802,3.125 11.6198,3.24479 11.2344,3.45313 C10.8281,3.66146 10.5104,3.76563 10.2813,3.76563 C9.78125,3.76563 9.42708,3.375 9.21875,2.59375 C8.89583,1.375 8.6875,0.104167 8.59375,-1.21875 C8.07292,-0.552083 7.49479,0.119792 6.85938,0.796875 C7.08854,1.24479 7.51563,1.46875 8.14063,1.46875 C8.23438,1.46875 8.30729,1.46354 8.35938,1.45313 L8.375,1.45313 C8.47917,1.45313 8.53125,1.54688 8.53125,1.73438 C8.53125,1.98438 8.44792,2.13542 8.28125,2.1875 C8.01042,2.28125 7.72396,2.32813 7.42188,2.32813 C6.77604,2.32813 6.30729,2.10417 6.01563,1.65625 L5.23438,2.35938 C4.14063,3.29688 3.25,3.76563 2.5625,3.76563 C2.375,3.76563 2.1875,3.73438 2,3.67188 C1.84375,3.60938 1.66146,3.51042 1.45313,3.375 C1.36979,3.34375 1.27865,3.29688 1.17969,3.23438 C1.08073,3.17188 1.02083,3.13542 1,3.125 C0.9375,3.10417 0.90625,3.04688 0.90625,2.95313 C0.90625,2.84896 0.958333,2.72396 1.0625,2.57813 C1.14583,2.45313 1.26042,2.39063 1.40625,2.39063 M5.76563,-10.7969 C5.76563,-10.474 5.48438,-10.3125 4.92188,-10.3125 C4.43229,-10.3125 4.00521,-10.474 3.64063,-10.7969 C3.28646,-11.1302 3.10938,-11.5313 3.10938,-12 C3.10938,-12.4479 3.25,-12.8385 3.53125,-13.1719 C3.83333,-13.5052 4.21875,-13.7552 4.6875,-13.9219 C5.11458,-14.0781 5.59896,-14.2031 6.14063,-14.2969 C6.69271,-14.3594 7.22396,-14.3906 7.73438,-14.3906 C8.03646,-14.3906 8.59896,-14.2552 9.42188,-13.9844 C10.2552,-13.7135 10.8333,-13.5781 11.1563,-13.5781 C11.5625,-13.5781 11.9479,-13.651 12.3125,-13.7969 C12.6042,-13.9219 12.8906,-14.0677 13.1719,-14.2344 C13.3906,-14.3802 13.5104,-14.4531 13.5313,-14.4531 C13.6563,-14.4531 13.7604,-14.4167 13.8438,-14.3438 C13.9479,-14.2396 14,-14.151 14,-14.0781 C14,-13.9948 13.8802,-13.849 13.6406,-13.6406 C13.3802,-13.401 13.0078,-13.1641 12.5234,-12.9297 C12.0391,-12.6953 11.5313,-12.5781 11,-12.5781 C10.7604,-12.5781 10.4688,-12.6198 10.125,-12.7031 C9.89583,-11.2552 9.66146,-9.96875 9.42188,-8.84375 C9.21354,-7.85417 8.79688,-6.98958 8.17188,-6.25 C7.56771,-5.51042 6.89583,-5.14063 6.15625,-5.14063 C5.85417,-5.14063 5.58854,-5.19792 5.35938,-5.3125 C5.09896,-5.44792 4.82292,-5.64583 4.53125,-5.90625 C4.30208,-6.09375 4.08333,-6.26563 3.875,-6.42188 C3.82292,-6.46354 3.79688,-6.52604 3.79688,-6.60938 C3.79688,-6.69271 3.84896,-6.80729 3.95313,-6.95313 C4.05729,-7.06771 4.15104,-7.125 4.23438,-7.125 C4.31771,-7.125 4.54167,-6.96354 4.90625,-6.64063 C5.27083,-6.31771 5.59375,-6.15625 5.875,-6.15625 C6.39583,-6.15625 6.80208,-6.45313 7.09375,-7.04688 C7.375,-7.64063 7.53646,-8.34375 7.57813,-9.15625 C7.64063,-10.5 7.79167,-11.8906 8.03125,-13.3281 C7.73958,-13.3906 7.52604,-13.4219 7.39063,-13.4219 C6.76563,-13.4219 6.22917,-13.2917 5.78125,-13.0313 C5.34375,-12.7813 5.125,-12.4427 5.125,-12.0156 C5.125,-11.7031 5.22917,-11.4635 5.4375,-11.2969 C5.65625,-11.1094 5.76563,-10.9427 5.76563,-10.7969"/>
<path class="Clef" transform="matrix(0.9936,0,0,0.9936,32.0544,77.76)" d="M7.34375,-5.125 C7.34375,-5.125 7.38542,-5.125 7.46875,-5.125 C7.52083,-5.13542 7.5625,-5.14063 7.59375,-5.14063 C9.05208,-5.14063 10.25,-4.625 11.1875,-3.59375 C12.125,-2.58333 12.5938,-1.40104 12.5938,-0.046875 C12.5938,1.64063 11.901,3.01042 10.5156,4.0625 C10.151,4.35417 9.67188,4.58854 9.07813,4.76563 C9.15104,5.60938 9.1875,6.29167 9.1875,6.8125 C9.1875,6.91667 9.17188,7.29688 9.14063,7.95313 C9.08854,9.16146 8.67188,10.2083 7.89063,11.0938 C7.14063,11.9688 6.20313,12.4063 5.07813,12.4063 C4.02604,12.4063 3.13021,12.0365 2.39063,11.2969 C1.64063,10.5365 1.26563,9.625 1.26563,8.5625 C1.26563,8 1.48438,7.52083 1.92188,7.125 C2.35938,6.73958 2.86979,6.54688 3.45313,6.54688 C3.97396,6.54688 4.41146,6.75 4.76563,7.15625 C5.13021,7.53125 5.3125,8 5.3125,8.5625 C5.3125,9.0625 5.13021,9.49479 4.76563,9.85938 C4.40104,10.224 3.96354,10.4063 3.45313,10.4063 C3.24479,10.4063 3.04688,10.3698 2.85938,10.2969 C3.43229,11.1406 4.19271,11.5625 5.14063,11.5625 C6.03646,11.5625 6.77083,11.1979 7.34375,10.4688 C7.94792,9.71875 8.27604,8.83854 8.32813,7.82813 C8.34896,7.20313 8.35938,6.84896 8.35938,6.76563 C8.35938,6.03646 8.33333,5.4375 8.28125,4.96875 C7.63542,5.07292 7.05729,5.125 6.54688,5.125 C4.73438,5.125 3.19271,4.40625 1.92188,2.96875 C0.671875,1.52083 0.046875,-0.197917 0.046875,-2.1875 C0.046875,-2.60417 0.0833333,-3.02604 0.15625,-3.45313 C0.239583,-3.80729 0.338542,-4.19271 0.453125,-4.60938 C0.515625,-4.84896 0.692708,-5.22917 0.984375,-5.75 C1.08854,-5.90625 1.20573,-6.10156 1.33594,-6.33594 C1.46615,-6.57031 1.55729,-6.72396 1.60938,-6.79688 C1.73438,-7.05729 1.98438,-7.41146 2.35938,-7.85938 C2.46354,-7.97396 2.57292,-8.10156 2.6875,-8.24219 C2.80208,-8.38281 2.89844,-8.5 2.97656,-8.59375 C3.05469,-8.6875 3.11198,-8.76042 3.14844,-8.8125 C3.1849,-8.86458 3.47917,-9.20833 4.03125,-9.84375 C4.15625,-9.97917 4.28125,-10.1198 4.40625,-10.2656 C4.53125,-10.4115 4.63281,-10.5286 4.71094,-10.6172 C4.78906,-10.7057 4.84896,-10.7656 4.89063,-10.7969 C4.42188,-12.349 4.125,-13.5885 4,-14.5156 C3.91667,-15.2552 3.875,-16.2708 3.875,-17.5625 C3.875,-18.6979 4.13542,-19.7604 4.65625,-20.75 C5.15625,-21.7708 5.86458,-22.6094 6.78125,-23.2656 C6.84375,-23.3073 6.90625,-23.3281 6.96875,-23.3281 C7.0625,-23.3281 7.13021,-23.3073 7.17188,-23.2656 C7.86979,-22.4219 8.47396,-21.3229 8.98438,-19.9688 C9.50521,-18.6146 9.76563,-17.3802 9.76563,-16.2656 C9.76563,-15.0156 9.46875,-13.8438 8.875,-12.75 C8.19792,-11.5938 7.32292,-10.3958 6.25,-9.15625 C6.52083,-8.30208 6.88542,-6.95833 7.34375,-5.125 M9,3.96875 C9.67708,3.71875 10.2083,3.29688 10.5938,2.70313 C11.0104,2.13021 11.2188,1.48438 11.2188,0.765625 C11.2188,-0.161458 10.9063,-0.984375 10.2813,-1.70313 C9.63542,-2.44271 8.81771,-2.85938 7.82813,-2.95313 C8.39063,-0.203125 8.78125,2.10417 9,3.96875 M1.45313,-0.546875 C1.45313,0.744792 1.97396,1.88021 3.01563,2.85938 C4.07813,3.80729 5.27604,4.28125 6.60938,4.28125 C7.15104,4.28125 7.68229,4.23958 8.20313,4.15625 C7.99479,2.17708 7.58333,-0.192708 6.96875,-2.95313 C6.22917,-2.86979 5.64063,-2.60938 5.20313,-2.17188 C4.76563,-1.71354 4.54688,-1.19792 4.54688,-0.625 C4.54688,0.364583 5.07813,1.16667 6.14063,1.78125 C6.22396,1.875 6.26563,1.97396 6.26563,2.07813 C6.26563,2.18229 6.22396,2.27604 6.14063,2.35938 C6.05729,2.45313 5.95833,2.5 5.84375,2.5 C5.83333,2.5 5.77604,2.48958 5.67188,2.46875 C4.92188,2.0625 4.34896,1.54167 3.95313,0.90625 C3.56771,0.21875 3.375,-0.46875 3.375,-1.15625 C3.375,-2.05208 3.65625,-2.86458 4.21875,-3.59375 C4.80208,-4.32292 5.5625,-4.79167 6.5,-5 C6.13542,-6.45833 5.83854,-7.59896 5.60938,-8.42188 C5.40104,-8.18229 5.15104,-7.89844 4.85938,-7.57031 C4.56771,-7.24219 4.39583,-7.04167 4.34375,-6.96875 C3.875,-6.36458 3.51563,-5.89063 3.26563,-5.54688 C2.81771,-4.93229 2.48958,-4.40625 2.28125,-3.96875 C2.0625,-3.46875 1.86979,-2.92708 1.70313,-2.34375 C1.53646,-1.78125 1.45313,-1.18229 1.45313,-0.546875 M7.96875,-20.4063 C6.98958,-19.9271 6.22396,-19.2396 5.67188,-18.3438 C5.09896,-17.4167 4.8125,-16.4219 4.8125,-15.3594 C4.8125,-14.4219 5.04688,-13.1563 5.51563,-11.5625 C6.45313,-12.6979 7.15625,-13.7448 7.625,-14.7031 C8.11458,-15.724 8.35938,-16.7865 8.35938,-17.8906 C8.35938,-18.724 8.22917,-19.5625 7.96875,-20.4063 M5.82813,15.2344 C6.16146,14.901 6.32813,14.5625 6.32813,14.2188 C6.30729,13.9479 6.19271,13.7396 5.98438,13.5938 C5.74479,13.4375 5.46875,13.3594 5.15625,13.3594 C4.9375,13.3594 4.75521,13.4323 4.60938,13.5781 C4.48438,13.7031 4.42188,13.8646 4.42188,14.0625 C4.42188,14.3021 4.51563,14.4792 4.70313,14.5938 L5.82813,15.2344 M6.14063,15.4063 C6.68229,15.7083 6.95313,16.1146 6.95313,16.625 L6.95313,16.6875 C6.95313,17.0833 6.79167,17.4219 6.46875,17.7031 C6.14583,17.9844 5.68229,18.125 5.07813,18.125 C4.58854,18.125 4.16146,17.9948 3.79688,17.7344 C3.43229,17.4844 3.25,17.1458 3.25,16.7188 C3.25,16.5521 3.29167,16.3958 3.375,16.25 C3.47917,16.0833 3.56771,15.9688 3.64063,15.9063 L4,15.5313 C3.60417,15.2604 3.40625,14.901 3.40625,14.4531 C3.40625,14.099 3.5625,13.7865 3.875,13.5156 C4.19792,13.2552 4.625,13.125 5.15625,13.125 C5.60417,13.125 5.98438,13.224 6.29688,13.4219 C6.60938,13.6198 6.76563,13.8854 6.76563,14.2188 C6.76563,14.5729 6.55729,14.9688 6.14063,15.4063 M4.29688,15.7031 C3.91146,16.0469 3.70313,16.3854 3.67188,16.7188 C3.70313,17.0729 3.84896,17.3542 4.10938,17.5625 C4.39063,17.7813 4.71354,17.8906 5.07813,17.8906 C5.33854,17.8906 5.54688,17.8073 5.70313,17.6406 C5.85938,17.4844 5.9375,17.2969 5.9375,17.0781 C5.92708,16.7865 5.8125,16.5781 5.59375,16.4531 L4.29688,15.7031 "/>
<path class="KeySig" transform="matrix(0.9936,0,0,0.9936,64.3697,67.824)" d="M0.921875,-0.828125 L0.921875,0.71875 C0.921875,1.27083 0.947917,1.70833 1,2.03125 C1.42708,1.66667 1.73438,1.39583 1.92188,1.21875 C2.13021,1.01042 2.33854,0.721354 2.54688,0.351563 C2.75521,-0.0182292 2.85938,-0.385417 2.85938,-0.75 C2.85938,-1.11458 2.78125,-1.42708 2.625,-1.6875 C2.46875,-1.94792 2.26042,-2.07813 2,-2.07813 C1.6875,-2.07813 1.42708,-1.95833 1.21875,-1.71875 C1.02083,-1.45833 0.921875,-1.16146 0.921875,-0.828125 M0.09375,2.75 L-0.15625,-9.14063 C0.03125,-9.24479 0.216146,-9.29688 0.398438,-9.29688 C0.580729,-9.29688 0.760417,-9.24479 0.9375,-9.14063 L0.78125,-2.25 C1.3125,-2.70833 1.92708,-2.9375 2.625,-2.9375 C3.125,-2.9375 3.54427,-2.72917 3.88281,-2.3125 C4.22135,-1.89583 4.39063,-1.41667 4.39063,-0.875 C4.39063,-0.541667 4.28125,-0.182292 4.0625,0.203125 C3.85417,0.546875 3.63542,0.817708 3.40625,1.01563 C3.27083,1.11979 2.9375,1.38021 2.40625,1.79688 C2.25,1.91146 2.0651,2.04688 1.85156,2.20313 C1.63802,2.35938 1.50521,2.45833 1.45313,2.5 C1.35938,2.55208 1.27083,2.65625 1.1875,2.8125 C1.10417,2.94792 1,3.05729 0.875,3.14063 C0.791667,3.22396 0.684896,3.26563 0.554688,3.26563 C0.424479,3.26563 0.317708,3.21875 0.234375,3.125 C0.140625,3.03125 0.09375,2.90625 0.09375,2.75"/>
<path class="KeySig" transform="matrix(0.9936,0,0,0.9936,59.4017,75.276)" d="M0.921875,-0.828125 L0.921875,0.71875 C0.921875,1.27083 0.947917,1.70833 1,2.03125 C1.42708,1.66667 1.73438,1.39583 1.92188,1.21875 C2.13021,1.01042 2.33854,0.721354 2.54688,0.351563 C2.75521,-0.0182292 2.85938,-0.385417 2.85938,-0.75 C2.85938,-1.11458 2.78125,-1.42708 2.625,-1.6875 C2.46875,-1.94792 2.26042,-2.07813 2,-2.07813 C1.6875,-2.07813 1.42708,-1.95833 1.21875,-1.71875 C1.02083,-1.45833 0.921875,-1.16146 0.921875,-0.828125 M0.09375,2.75 L-0.15625,-9.14063 C0.03125,-9.24479 0.216146,-9.29688 0.398438,-9.29688 C0.580729,-9.29688 0.760417,-9.24479 0.9375,-9.14063 L0.78125,-2.25 C1.3125,-2.70833 1.92708,-2.9375 2.625,-2.9375 C3.125,-2.9375 3.54427,-2.72917 3.88281,-2.3125 C4.22135,-1.89583 4.39063,-1.41667 4.39063,-0.875 C4.39063,-0.541667 4.28125,-0.182292 4.0625,0.203125 C3.85417,0.546875 3.63542,0.817708 3.40625,1.01563 C3.27083,1.11979 2.9375,1.38021 2.40625,1.79688 C2.25,1.91146 2.0651,2.04688 1.85156,2.20313 C1.63802,2.35938 1.50521,2.45833 1.45313,2.5 C1.35938,2.55208 1.27083,2.65625 1.1875,2.8125 C1.10417,2.94792 1,3.05729 0.875,3.14063 C0.791667,3.22396 0.684896,3.26563 0.554688,3.26563 C0.424479,3.26563 0.317708,3.21875 0.234375,3.125 C0.140625,3.03125 0.09375,2.90625 0.09375,2.75"/>
<path class="KeySig" transform="matrix(0.9936,0,0,0.9936,54.4337,65.34)" d="M0.921875,-0.828125 L0.921875,0.71875 C0.921875,1.27083 0.947917,1.70833 1,2.03125 C1.42708,1.66667 1.73438,1.39583 1.92188,1.21875 C2.13021,1.01042 2.33854,0.721354 2.54688,0.351563 C2.75521,-0.0182292 2.85938,-0.385417 2.85938,-0.75 C2.85938,-1.11458 2.78125,-1.42708 2.625,-1.6875 C2.46875,-1.94792 2.26042,-2.07813 2,-2.07813 C1.6875,-2.07813 1.42708,-1.95833 1.21875,-1.71875 C1.02083,-1.45833 0.921875,-1.16146 0.921875,-0.828125 M0.09375,2.75 L-0.15625,-9.14063 C0.03125,-9.24479 0.216146,-9.29688 0.398438,-9.29688 C0.580729,-9.29688 0.760417,-9.24479 0.9375,-9.14063 L0.78125,-2.25 C1.3125,-2.70833 1.92708,-2.9375 2.625,-2.9375 C3.125,-2.9375 3.54427,-2.72917 3.88281,-2.3125 C4.22135,-1.89583 4.39063,-1.41667 4.39063,-0.875 C4.39063,-0.541667 4.28125,-0.182292 4.0625,0.203125 C3.85417,0.546875 3.63542,0.817708 3.40625,1.01563 C3.27083,1.11979 2.9375,1.38021 2.40625,1.79688 C2.25,1.91146 2.0651,2.04688 1.85156,2.20313 C1.63802,2.35938 1.50521,2.45833 1.45313,2.5 C1.35938,2.55208 1.27083,2.65625 1.1875,2.8125 C1.10417,2.94792 1,3.05729 0.875,3.14063 C0.791667,3.22396 0.684896,3.26563 0.554688,3.26563 C0.424479,3.26563 0.317708,3.21875 0.234375,3.125 C0.140625,3.03125 0.09375,2.90625 0.09375,2.75"/>
<path class="KeySig" transform="matrix(0.9936,0,0,0.9936,49.4657,72.792)" d="M0.921875,-0.828125 L0.921875,0.71875 C0.921875,1.27083 0.947917,1.70833 1,2.03125 C1.42708,1.66667 1.73438,1.39583 1.92188,1.21875 C2.13021,1.01042 2.33854,0.721354 2.54688,0.351563 C2.75521,-0.0182292 2.85938,-0.385417 2.85938,-0.75 C2.85938,-1.11458 2.78125,-1.42708 2.625,-1.6875 C2.46875,-1.94792 2.26042,-2.07813 2,-2.07813 C1.6875,-2.07813 1.42708,-1.95833 1.21875,-1.71875 C1.02083,-1.45833 0.921875,-1.16146 0.921875,-0.828125 M0.09375,2.75 L-0.15625,-9.14063 C0.03125,-9.24479 0.216146,-9.29688 0.398438,-9.29688 C0.580729,-9.29688 0.760417,-9.24479 0.9375,-9.14063 L0.78125,-2.25 C1.3125,-2.70833 1.92708,-2.9375 2.625,-2.9375 C3.125,-2.9375 3.54427,-2.72917 3.88281,-2.3125 C4.22135,-1.89583 4.39063,-1.41667 4.39063,-0.875 C4.39063,-0.541667 4.28125,-0.182292 4.0625,0.203125 C3.85417,0.546875 3.63542,0.817708 3.40625,1.01563 C3.27083,1.11979 2.9375,1.38021 2.40625,1.79688 C2.25,1.91146 2.0651,2.04688 1.85156,2.20313 C1.63802,2.35938 1.50521,2.45833 1.45313,2.5 C1.35938,2.55208 1.27083,2.65625 1.1875,2.8125 C1.10417,2.94792 1,3.05729 0.875,3.14063 C0.791667,3.22396 0.684896,3.26563 0.554688,3.26563 C0.424479,3.26563 0.317708,3.21875 0.234375,3.125 C0.140625,3.03125 0.09375,2.90625 0.09375,2.75"/>
<path class="Beam" fill-rule="evenodd" d="M405.066,60.3154 L476.548,66.582 L476.548,69.066 L405.066,62.7994 L405.066,60.3154 "/>
<path class="Beam" fill-rule="evenodd" d="M292.917,79.002 L364.399,85.2686 L364.399,87.7526 L292.917,81.486 L292.917,79.002 "/>
<path class="Beam" fill-rule="evenodd" d="M186.663,87.696 L258.145,81.4294 L258.145,83.9134 L186.663,90.18 L186.663,87.696 "/>
<path class="Beam" fill-rule="evenodd" d="M86.3042,72.8486 L157.786,66.582 L157.786,69.066 L86.3042,75.3326 L86.3042,72.8486 "/>
<path class="Fingering" d="M499.191,91.3515 C499.431,90.3307 499.957,89.8046 500.769,89.7734 C500.801,89.7734 500.827,89.7734 500.847,89.7734 C501.337,89.7734 501.728,89.9505 502.019,90.3046 C502.228,90.565 502.332,90.8567 502.332,91.1796 C502.332,91.7734 502.014,92.414 501.379,93.1015 C501.358,93.1223 501.332,93.1432 501.301,93.164 L499.972,94.5859 L501.879,94.5859 C502.087,94.5859 502.248,94.5286 502.363,94.414 C502.436,94.3411 502.524,94.2213 502.629,94.0546 L502.738,94.0859 L502.301,95.164 L499.176,95.164 L499.176,95.0702 L500.597,93.5546 C501.274,92.815 501.623,92.1223 501.644,91.4765 C501.644,91.0286 501.472,90.7057 501.129,90.5077 C500.952,90.4036 500.748,90.3515 500.519,90.3515 C500.165,90.3515 499.889,90.4869 499.691,90.7577 C499.577,90.914 499.467,91.1275 499.363,91.3984 L499.191,91.3515 "/>
<path class="Fingering" d="M464.992,85.4616 C464.877,85.4616 464.685,85.5189 464.414,85.6335 L464.414,85.5241 L465.851,84.7897 L465.914,84.8054 L465.914,89.6022 C465.914,89.8106 465.976,89.946 466.101,90.0085 C466.205,90.0502 466.398,90.071 466.679,90.071 L466.679,90.196 L464.461,90.196 L464.461,90.071 C464.815,90.0606 465.039,89.9981 465.133,89.8835 C465.195,89.7897 465.226,89.6439 465.226,89.446 L465.226,85.8366 C465.216,85.5866 465.138,85.4616 464.992,85.4616"/>
<path class="Fingering" d="M428.746,84.603 C428.871,84.603 429.053,84.6707 429.293,84.8061 C429.543,84.9624 429.756,85.0405 429.933,85.0405 C430.298,85.0405 430.584,84.879 430.793,84.5561 C430.918,84.3478 430.98,84.1134 430.98,83.853 C430.98,83.0926 430.527,82.6759 429.621,82.603 C429.527,82.5926 429.428,82.5874 429.324,82.5874 L429.324,82.478 C429.928,82.2801 430.324,82.0249 430.511,81.7124 C430.605,81.5457 430.652,81.3634 430.652,81.1655 C430.652,80.8113 430.506,80.5561 430.215,80.3999 C430.079,80.3374 429.933,80.3061 429.777,80.3061 C429.329,80.3061 428.959,80.5405 428.668,81.0092 C428.636,81.0509 428.61,81.0978 428.59,81.1499 L428.465,81.1186 C428.715,80.4415 429.079,80.0301 429.558,79.8842 C429.704,79.8426 429.866,79.8217 430.043,79.8217 C430.522,79.8217 430.876,79.9884 431.105,80.3217 C431.23,80.4988 431.293,80.6967 431.293,80.9155 C431.293,81.2384 431.142,81.5301 430.84,81.7905 C430.746,81.8634 430.647,81.9415 430.543,82.0249 C431.022,82.2332 431.329,82.5197 431.465,82.8842 C431.527,83.0613 431.558,83.2592 431.558,83.478 C431.558,84.1134 431.293,84.6082 430.761,84.9624 C430.366,85.2124 429.897,85.3374 429.355,85.3374 C428.866,85.3374 428.574,85.228 428.48,85.0092 C428.459,84.9676 428.449,84.9259 428.449,84.8842 C428.449,84.728 428.527,84.6395 428.683,84.6186 C428.704,84.6082 428.725,84.603 428.746,84.603"/>
<path class="Fingering" d="M396.468,75.9635 L396.468,76.4479 L395.64,76.4479 L395.64,77.776 L395.031,77.776 L395.031,76.4479 L392.781,76.4479 L392.781,75.9635 L395.297,72.3697 L395.64,72.3697 L395.64,75.9635 L396.468,75.9635 M395.015,75.9635 L395.015,73.2135 L393.109,75.9635 L395.015,75.9635 "/>
<path class="Fingering" d="M357.519,68.9955 C357.759,67.9747 358.285,67.4486 359.097,67.4174 C359.129,67.4174 359.155,67.4174 359.175,67.4174 C359.665,67.4174 360.056,67.5945 360.347,67.9486 C360.556,68.209 360.66,68.5007 360.66,68.8236 C360.66,69.4174 360.342,70.058 359.707,70.7455 C359.686,70.7663 359.66,70.7872 359.629,70.808 L358.3,72.2299 L360.207,72.2299 C360.415,72.2299 360.577,72.1726 360.691,72.058 C360.764,71.9851 360.853,71.8653 360.957,71.6986 L361.066,71.7299 L360.629,72.808 L357.504,72.808 L357.504,72.7142 L358.925,71.1986 C359.603,70.459 359.952,69.7663 359.972,69.1205 C359.972,68.6726 359.8,68.3497 359.457,68.1517 C359.28,68.0476 359.077,67.9955 358.847,67.9955 C358.493,67.9955 358.217,68.1309 358.019,68.4017 C357.905,68.558 357.795,68.7715 357.691,69.0424 L357.519,68.9955 "/>
<path class="Fingering" d="M323.32,63.1056 C323.205,63.1056 323.013,63.1629 322.742,63.2775 L322.742,63.1681 L324.179,62.4337 L324.242,62.4494 L324.242,67.2462 C324.242,67.4546 324.304,67.59 324.429,67.6525 C324.534,67.6942 324.726,67.715 325.007,67.715 L325.007,67.84 L322.789,67.84 L322.789,67.715 C323.143,67.7046 323.367,67.6421 323.461,67.5275 C323.523,67.4337 323.554,67.2879 323.554,67.09 L323.554,63.4806 C323.544,63.2306 323.466,63.1056 323.32,63.1056"/>
<path class="Fingering" d="M287.902,55.6536 C287.787,55.6536 287.595,55.7109 287.324,55.8255 L287.324,55.7161 L288.761,54.9817 L288.824,54.9974 L288.824,59.7942 C288.824,60.0026 288.886,60.138 289.011,60.2005 C289.116,60.2422 289.308,60.263 289.589,60.263 L289.589,60.388 L287.371,60.388 L287.371,60.263 C287.725,60.2526 287.949,60.1901 288.043,60.0755 C288.105,59.9817 288.136,59.8359 288.136,59.638 L288.136,56.0286 C288.126,55.7786 288.048,55.6536 287.902,55.6536"/>
<path class="Fingering" d="M252.484,63.1056 C252.369,63.1056 252.177,63.1629 251.906,63.2775 L251.906,63.1681 L253.343,62.4337 L253.406,62.4494 L253.406,67.2462 C253.406,67.4546 253.468,67.59 253.593,67.6525 C253.698,67.6942 253.89,67.715 254.172,67.715 L254.172,67.84 L251.953,67.84 L251.953,67.715 C252.307,67.7046 252.531,67.6421 252.625,67.5275 C252.687,67.4337 252.718,67.2879 252.718,67.09 L252.718,63.4806 C252.708,63.2306 252.63,63.1056 252.484,63.1056"/>
<path class="Fingering" d="M215.847,68.9955 C216.087,67.9747 216.613,67.4486 217.425,67.4174 C217.457,67.4174 217.483,67.4174 217.504,67.4174 C217.993,67.4174 218.384,67.5945 218.675,67.9486 C218.884,68.209 218.988,68.5007 218.988,68.8236 C218.988,69.4174 218.67,70.058 218.035,70.7455 C218.014,70.7663 217.988,70.7872 217.957,70.808 L216.629,72.2299 L218.535,72.2299 C218.743,72.2299 218.905,72.1726 219.019,72.058 C219.092,71.9851 219.181,71.8653 219.285,71.6986 L219.394,71.7299 L218.957,72.808 L215.832,72.808 L215.832,72.7142 L217.254,71.1986 C217.931,70.459 218.28,69.7663 218.3,69.1205 C218.3,68.6726 218.129,68.3497 217.785,68.1517 C217.608,68.0476 217.405,67.9955 217.175,67.9955 C216.821,67.9955 216.545,68.1309 216.347,68.4017 C216.233,68.558 216.123,68.7715 216.019,69.0424 L215.847,68.9955 "/>
<path class="Fingering" d="M183.961,75.9635 L183.961,76.4479 L183.132,76.4479 L183.132,77.776 L182.523,77.776 L182.523,76.4479 L180.273,76.4479 L180.273,75.9635 L182.789,72.3697 L183.132,72.3697 L183.132,75.9635 L183.961,75.9635 M182.507,75.9635 L182.507,73.2135 L180.601,75.9635 L182.507,75.9635 "/>
<path class="Fingering" d="M145.402,84.603 C145.527,84.603 145.709,84.6707 145.949,84.8061 C146.199,84.9624 146.412,85.0405 146.589,85.0405 C146.954,85.0405 147.24,84.879 147.449,84.5561 C147.574,84.3478 147.636,84.1134 147.636,83.853 C147.636,83.0926 147.183,82.6759 146.277,82.603 C146.183,82.5926 146.084,82.5874 145.98,82.5874 L145.98,82.478 C146.584,82.2801 146.98,82.0249 147.168,81.7124 C147.261,81.5457 147.308,81.3634 147.308,81.1655 C147.308,80.8113 147.162,80.5561 146.871,80.3999 C146.735,80.3374 146.589,80.3061 146.433,80.3061 C145.985,80.3061 145.615,80.5405 145.324,81.0092 C145.293,81.0509 145.267,81.0978 145.246,81.1499 L145.121,81.1186 C145.371,80.4415 145.735,80.0301 146.214,79.8842 C146.36,79.8426 146.522,79.8217 146.699,79.8217 C147.178,79.8217 147.532,79.9884 147.761,80.3217 C147.886,80.4988 147.949,80.6967 147.949,80.9155 C147.949,81.2384 147.798,81.5301 147.496,81.7905 C147.402,81.8634 147.303,81.9415 147.199,82.0249 C147.678,82.2332 147.985,82.5197 148.121,82.8842 C148.183,83.0613 148.214,83.2592 148.214,83.478 C148.214,84.1134 147.949,84.6082 147.418,84.9624 C147.022,85.2124 146.553,85.3374 146.011,85.3374 C145.522,85.3374 145.23,85.228 145.136,85.0092 C145.115,84.9676 145.105,84.9259 145.105,84.8842 C145.105,84.728 145.183,84.6395 145.339,84.6186 C145.36,84.6082 145.381,84.603 145.402,84.603"/>
<path class="Fingering" d="M110.812,85.4616 C110.697,85.4616 110.505,85.5189 110.234,85.6335 L110.234,85.5241 L111.671,84.7897 L111.734,84.8054 L111.734,89.6022 C111.734,89.8106 111.796,89.946 111.921,90.0085 C112.026,90.0502 112.218,90.071 112.5,90.071 L112.5,90.196 L110.281,90.196 L110.281,90.071 C110.635,90.0606 110.859,89.9981 110.953,89.8835 C111.015,89.7897 111.046,89.6439 111.046,89.446 L111.046,85.8366 C111.036,85.5866 110.958,85.4616 110.812,85.4616"/>
<path class="Fingering" d="M74.1753,91.3515 C74.4149,90.3307 74.941,89.8046 75.7535,89.7734 C75.7847,89.7734 75.8108,89.7734 75.8316,89.7734 C76.3212,89.7734 76.7118,89.9505 77.0035,90.3046 C77.2118,90.565 77.316,90.8567 77.316,91.1796 C77.316,91.7734 76.9983,92.414 76.3628,93.1015 C76.342,93.1223 76.316,93.1432 76.2847,93.164 L74.9566,94.5859 L76.8628,94.5859 C77.0712,94.5859 77.2326,94.5286 77.3472,94.414 C77.4201,94.3411 77.5087,94.2213 77.6128,94.0546 L77.7222,94.0859 L77.2847,95.164 L74.1597,95.164 L74.1597,95.0702 L75.5816,93.5546 C76.2587,92.815 76.6076,92.1223 76.6285,91.4765 C76.6285,91.0286 76.4566,90.7057 76.1128,90.5077 C75.9358,90.4036 75.7326,90.3515 75.5035,90.3515 C75.1493,90.3515 74.8733,90.4869 74.6753,90.7577 C74.5608,90.914 74.4514,91.1275 74.3472,91.3984 L74.1753,91.3515 "/>
<path class="Tempo" d="M74.2441,34.859 C74.1972,34.859 74.1659,34.859 74.1659,34.9371 L74.1659,40.4371 C73.9628,40.2809 73.7128,40.1871 73.4003,40.1871 C72.2128,40.1871 71.2597,41.0621 71.2597,41.9996 C71.2597,42.5621 71.7128,42.9059 72.3066,42.9059 C73.2597,42.9059 74.4472,41.9996 74.4472,41.0934 L74.4472,37.0934 C74.8222,37.1715 75.4472,37.4371 75.8222,38.4684 C75.9159,38.734 76.0097,39.1402 76.0097,39.5934 C76.0097,39.9059 75.9472,40.2809 75.8222,40.609 C75.7909,40.6559 75.7909,40.6871 75.7909,40.7184 C75.7909,40.8434 75.8691,40.9059 75.9316,40.9371 C75.9316,40.9527 75.9628,40.9527 75.9784,40.9527 C76.0409,40.9527 76.1034,40.9059 76.1659,40.7965 C76.1816,40.7027 76.3691,40.0465 76.3691,39.5621 L76.3691,39.4996 C76.3378,38.5777 75.9316,37.6871 75.4159,36.9371 C74.9784,36.359 74.6347,35.734 74.4941,35.0309 C74.4472,34.8902 74.3847,34.859 74.3066,34.859 L74.2441,34.859 "/>
<path class="Tempo" d="M86.7284,39.0152 L80.1191,39.0152 L80.1191,37.859 L86.7284,37.859 L86.7284,39.0152 M86.7284,41.9371 L80.1191,41.9371 L80.1191,40.7965 L86.7284,40.7965 L86.7284,41.9371 M92.1659,36.0465 C92.0409,36.0465 91.7232,36.1402 91.2128,36.3277 C91.1816,36.3382 91.1607,36.3486 91.1503,36.359 L91.1503,36.0465 L94.1659,34.734 L94.3691,34.734 L94.3691,41.5621 C94.3691,42.0517 94.468,42.3642 94.6659,42.4996 C94.843,42.6246 95.1763,42.6923 95.6659,42.7027 L95.6659,42.984 L91.1659,42.984 L91.1659,42.7027 C91.8222,42.6923 92.2336,42.5882 92.4003,42.3902 C92.5357,42.2236 92.6034,41.9267 92.6034,41.4996 L92.6034,36.8746 C92.593,36.333 92.4472,36.0569 92.1659,36.0465 M96.7441,37.1715 C97.2961,35.6819 98.0722,34.8746 99.0722,34.7496 C99.1763,34.7392 99.2805,34.734 99.3847,34.734 C100.176,34.734 100.781,35.0205 101.197,35.5934 C101.468,35.9788 101.603,36.4215 101.603,36.9215 C101.603,37.7861 101.176,38.6298 100.322,39.4527 C100.281,39.484 100.249,39.5152 100.228,39.5465 L98.2909,41.3902 L100.103,41.3902 C100.739,41.3902 101.145,41.333 101.322,41.2184 C101.489,41.1038 101.65,40.8486 101.807,40.4527 L102.103,40.4527 L101.557,42.984 L96.5722,42.984 L96.5722,42.7027 C98.2388,40.9215 99.2649,39.6455 99.6503,38.8746 C99.8586,38.4475 99.9628,38.0309 99.9628,37.6246 C99.9628,37.0934 99.7701,36.6767 99.3847,36.3746 C99.1451,36.1871 98.8638,36.0934 98.5409,36.0934 C97.9472,36.0934 97.4784,36.4215 97.1347,37.0777 C97.1138,37.109 97.093,37.1402 97.0722,37.1715 L96.7441,37.1715 M102.65,38.9059 C102.65,37.5934 102.963,36.5309 103.588,35.7184 C104.098,35.0725 104.692,34.7444 105.369,34.734 C106.15,34.734 106.796,35.1402 107.307,35.9527 C107.817,36.7652 108.072,37.76 108.072,38.9371 C108.072,40.3121 107.754,41.4059 107.119,42.2184 C106.619,42.8225 106.041,43.1298 105.385,43.1402 C104.551,43.1402 103.879,42.7132 103.369,41.859 C102.89,41.0673 102.65,40.083 102.65,38.9059 M105.385,42.7965 C105.739,42.7965 105.973,42.4736 106.088,41.8277 C106.15,41.4423 106.182,40.9423 106.182,40.3277 L106.182,37.5777 C106.182,36.1402 105.989,35.3225 105.603,35.1246 C105.531,35.083 105.447,35.0621 105.353,35.0621 C104.989,35.0621 104.749,35.3955 104.635,36.0621 C104.583,36.4371 104.557,36.9423 104.557,37.5777 L104.557,40.3277 C104.557,41.6819 104.723,42.4736 105.057,42.7027 C105.15,42.7652 105.26,42.7965 105.385,42.7965"/>
<path class="StaffText" d="M81.5343,53.871 L81.5343,49.4335 C81.5343,49.0481 81.4666,48.8085 81.3312,48.7148 C81.2166,48.621 80.9614,48.5638 80.5656,48.5429 L80.5656,48.3554 L83.5343,48.3554 L83.5343,48.5429 C83.076,48.5638 82.7948,48.6367 82.6906,48.7617 C82.5968,48.8867 82.55,49.1106 82.55,49.4335 L82.55,53.871 C82.55,54.2669 82.6281,54.5169 82.7843,54.621 C82.9093,54.7148 83.1593,54.7669 83.5343,54.7773 L83.5343,54.9648 L80.5656,54.9648 L80.5656,54.7773 C81.0135,54.7669 81.2895,54.694 81.3937,54.5585 C81.4875,54.4335 81.5343,54.2044 81.5343,53.871 M84.5343,53.871 L84.5343,49.4335 C84.5343,49.0481 84.4666,48.8085 84.3312,48.7148 C84.2166,48.621 83.9614,48.5638 83.5656,48.5429 L83.5656,48.3554 L86.5343,48.3554 L86.5343,48.5429 C86.076,48.5638 85.7948,48.6367 85.6906,48.7617 C85.5968,48.8867 85.55,49.1106 85.55,49.4335 L85.55,53.871 C85.55,54.2669 85.6281,54.5169 85.7843,54.621 C85.9093,54.7148 86.1593,54.7669 86.5343,54.7773 L86.5343,54.9648 L83.5656,54.9648 L83.5656,54.7773 C84.0135,54.7669 84.2895,54.694 84.3937,54.5585 C84.4875,54.4335 84.5343,54.2044 84.5343,53.871 M87.5343,53.871 L87.5343,49.4335 C87.5343,49.0481 87.4666,48.8085 87.3312,48.7148 C87.2166,48.621 86.9614,48.5638 86.5656,48.5429 L86.5656,48.3554 L89.5343,48.3554 L89.5343,48.5429 C89.076,48.5638 88.7948,48.6367 88.6906,48.7617 C88.5968,48.8867 88.55,49.1106 88.55,49.4335 L88.55,53.871 C88.55,54.2669 88.6281,54.5169 88.7843,54.621 C88.9093,54.7148 89.1593,54.7669 89.5343,54.7773 L89.5343,54.9648 L86.5656,54.9648 L86.5656,54.7773 C87.0135,54.7669 87.2895,54.694 87.3937,54.5585 C87.4875,54.4335 87.5343,54.2044 87.5343,53.871"/>
<path class="StaffText" d="M84.2375,25.2057 C84.6854,25.2057 85.1854,25.3203 85.7375,25.5495 C85.977,25.6432 86.1489,25.6901 86.2531,25.6901 C86.3989,25.6901 86.5291,25.5807 86.6437,25.362 C86.6541,25.3203 86.6698,25.2787 86.6906,25.237 L86.9562,25.237 L86.9562,27.5807 L86.7062,27.5807 C86.4354,26.9766 86.1541,26.5339 85.8625,26.2526 C85.8,26.1901 85.7427,26.138 85.6906,26.0964 C85.2635,25.7214 84.8208,25.5339 84.3625,25.5339 C83.3625,25.5339 82.7687,26.2526 82.5812,27.6901 C82.55,28.013 82.5343,28.362 82.5343,28.737 C82.5343,29.9245 82.7479,30.7943 83.175,31.3464 C83.5083,31.763 83.9666,31.9714 84.55,31.9714 C85.1125,31.9714 85.4302,31.7943 85.5031,31.4401 C85.5135,31.3776 85.5187,31.3099 85.5187,31.237 L85.5187,30.1901 C85.5187,29.8985 85.4458,29.711 85.3,29.6276 C85.1541,29.5547 84.8885,29.5078 84.5031,29.487 L84.5031,29.237 L87.9406,29.237 L87.9406,29.487 C87.5343,29.5287 87.2843,29.6172 87.1906,29.7526 C87.1177,29.8672 87.0812,30.086 87.0812,30.4089 L87.0812,31.6745 C86.4875,32.0287 85.701,32.237 84.7218,32.2995 C84.5864,32.2995 84.451,32.2995 84.3156,32.2995 C83.201,32.2995 82.3104,31.9401 81.6437,31.2214 C81.05,30.5755 80.7531,29.7682 80.7531,28.7995 C80.7531,27.7578 81.0968,26.8932 81.7843,26.2057 C82.451,25.5391 83.2687,25.2057 84.2375,25.2057 M92.0031,28.8307 C91.7843,28.8307 91.5708,28.711 91.3625,28.4714 C91.2479,28.3255 91.1645,28.2474 91.1125,28.237 C90.8937,28.237 90.727,28.388 90.6125,28.6901 C90.5395,28.8464 90.5031,29.013 90.5031,29.1901 L90.5031,31.0807 C90.5031,31.4453 90.576,31.6693 90.7218,31.7526 C90.8156,31.8151 90.9875,31.8568 91.2375,31.8776 L91.2375,32.112 L88.5968,32.112 L88.5968,31.8776 C88.8677,31.8255 89.0291,31.7318 89.0812,31.5964 C89.102,31.5235 89.1125,31.4141 89.1125,31.2682 L89.1125,28.3307 C89.1125,28.0703 89.0395,27.9037 88.8937,27.8307 C88.8208,27.7891 88.7218,27.7578 88.5968,27.737 L88.5968,27.5026 L90.4718,27.5026 L90.4718,28.3307 C90.8468,27.7787 91.2166,27.4714 91.5812,27.4089 C91.6645,27.388 91.7427,27.3776 91.8156,27.3776 C92.1593,27.3776 92.4041,27.5182 92.55,27.7995 C92.602,27.9141 92.6281,28.0339 92.6281,28.1589 C92.6281,28.4714 92.5031,28.6797 92.2531,28.7839 C92.1698,28.8151 92.0864,28.8307 92.0031,28.8307 M93.8781,28.0807 C93.8781,28.112 93.9302,28.2057 94.0343,28.362 C94.1281,28.5078 94.175,28.6328 94.175,28.737 C94.175,28.9974 94.0448,29.1745 93.7843,29.2682 C93.6906,29.2995 93.5968,29.3151 93.5031,29.3151 C93.1385,29.3151 92.925,29.1537 92.8625,28.8307 C92.852,28.7682 92.8468,28.711 92.8468,28.6589 C92.8468,28.1901 93.102,27.8412 93.6125,27.612 C93.9354,27.4557 94.3104,27.3776 94.7375,27.3776 C95.6125,27.3776 96.2114,27.6172 96.5343,28.0964 C96.6593,28.2943 96.7218,28.5182 96.7218,28.7682 L96.7218,31.3464 C96.7323,31.5026 96.8,31.586 96.925,31.5964 C96.977,31.586 97.0135,31.5703 97.0343,31.5495 L97.1437,31.4557 L97.2843,31.6589 C96.8885,32.0339 96.5187,32.2318 96.175,32.2526 C95.8,32.2526 95.5552,32.112 95.4406,31.8307 C95.4093,31.737 95.3781,31.638 95.3468,31.5339 C94.8052,32.0026 94.2791,32.2422 93.7687,32.2526 C93.3312,32.2526 93.0135,32.086 92.8156,31.7526 C92.7114,31.586 92.6593,31.4037 92.6593,31.2057 C92.6593,30.6224 93.1073,30.1485 94.0031,29.7839 C94.2427,29.6797 94.6906,29.5287 95.3468,29.3307 L95.3468,28.5964 C95.3468,28.0651 95.1281,27.7735 94.6906,27.7214 C94.6281,27.7214 94.5656,27.7214 94.5031,27.7214 C94.2114,27.7214 94.0135,27.8047 93.9093,27.9714 C93.8885,28.0026 93.8781,28.0391 93.8781,28.0807 M95.3312,31.0964 L95.3312,29.6589 C94.5291,29.8776 94.1229,30.2787 94.1125,30.862 C94.1125,31.1953 94.2218,31.4037 94.4406,31.487 C94.5031,31.5078 94.5656,31.5182 94.6281,31.5182 C94.8573,31.5182 95.0916,31.3776 95.3312,31.0964 M100.8,32.237 L100.8,31.5964 C100.446,31.9714 100.102,32.1849 99.7687,32.237 C99.675,32.2474 99.576,32.2526 99.4718,32.2526 C98.8781,32.2526 98.4093,31.9766 98.0656,31.4245 C97.7948,30.9974 97.6593,30.4922 97.6593,29.9089 C97.6593,29.0547 97.9041,28.3828 98.3937,27.8932 C98.727,27.5495 99.1229,27.3776 99.5812,27.3776 C99.9354,27.3776 100.258,27.513 100.55,27.7839 C100.633,27.8568 100.706,27.9245 100.769,27.987 L100.769,26.1745 C100.769,25.9245 100.711,25.7682 100.597,25.7057 C100.493,25.6537 100.295,25.6172 100.003,25.5964 L100.003,25.362 L102.159,25.362 L102.159,31.112 C102.159,31.3932 102.243,31.5651 102.409,31.6276 C102.493,31.6589 102.607,31.6797 102.753,31.6901 L102.753,31.9245 L102.128,32.0026 C101.576,32.0755 101.133,32.1537 100.8,32.237 M99.925,31.7057 C100.217,31.7057 100.467,31.5391 100.675,31.2057 C100.727,31.112 100.758,31.0443 100.769,31.0026 L100.769,28.5495 C100.644,28.2162 100.435,28.0182 100.144,27.9557 C100.092,27.9453 100.04,27.9401 99.9875,27.9401 C99.477,27.9401 99.1958,28.4453 99.1437,29.4557 C99.1437,29.5703 99.1437,29.6953 99.1437,29.8307 C99.1437,31.0703 99.4041,31.6953 99.925,31.7057 M105.097,29.6589 C105.149,30.6797 105.415,31.2787 105.894,31.4557 C106.019,31.4974 106.149,31.5182 106.284,31.5182 C106.649,31.5182 106.982,31.3516 107.284,31.0182 C107.336,30.9662 107.383,30.9141 107.425,30.862 L107.659,31.0026 C107.243,31.6068 106.831,31.987 106.425,32.1432 C106.217,32.2162 105.982,32.2526 105.722,32.2526 C104.972,32.2526 104.409,31.9453 104.034,31.3307 C103.784,30.9141 103.659,30.4141 103.659,29.8307 C103.659,28.9349 103.93,28.263 104.472,27.8151 C104.836,27.5235 105.264,27.3776 105.753,27.3776 C106.857,27.3776 107.477,28.0964 107.612,29.5339 C107.612,29.5755 107.612,29.6172 107.612,29.6589 L105.097,29.6589 M106.394,29.1432 C106.373,28.5182 106.305,28.1224 106.191,27.9557 C106.097,27.7995 105.951,27.7214 105.753,27.7214 C105.461,27.7214 105.264,27.8932 105.159,28.237 C105.097,28.4766 105.06,28.8307 105.05,29.2995 L106.394,29.2995 L106.394,29.1432 M114.534,29.5651 L115.159,29.5651 L115.159,30.6745 L114.534,30.6745 L114.534,32.112 L113.081,32.112 L113.081,30.6745 L110.597,30.6745 L110.597,29.5495 C111.149,28.6745 111.998,27.4922 113.144,26.0026 L113.722,25.237 L114.534,25.237 L114.534,29.5651 M113.097,29.5651 L113.097,26.5964 L111.003,29.5651 L113.097,29.5651 M117.066,30.5495 C117.389,30.5495 117.633,30.6901 117.8,30.9714 C117.883,31.1172 117.925,31.263 117.925,31.4089 C117.925,31.7214 117.784,31.961 117.503,32.1276 C117.357,32.2005 117.211,32.237 117.066,32.237 C116.732,32.237 116.487,32.0964 116.331,31.8151 C116.258,31.6797 116.222,31.5391 116.222,31.3932 C116.222,31.0912 116.357,30.8568 116.628,30.6901 C116.764,30.5964 116.909,30.5495 117.066,30.5495 M117.066,27.3932 C117.389,27.3932 117.633,27.5287 117.8,27.7995 C117.883,27.9453 117.925,28.0912 117.925,28.237 C117.925,28.5599 117.784,28.8047 117.503,28.9714 C117.368,29.0443 117.222,29.0807 117.066,29.0807 C116.732,29.0807 116.487,28.9349 116.331,28.6432 C116.258,28.5078 116.222,28.3672 116.222,28.2214 C116.222,27.9193 116.357,27.6849 116.628,27.5182 C116.764,27.4349 116.909,27.3932 117.066,27.3932"/>
<path class="StaffText" d="M128.472,31.9245 L128.472,32.112 L125.909,32.112 L125.909,31.9245 C126.326,31.9141 126.555,31.8412 126.597,31.7057 C126.607,31.6641 126.612,31.6224 126.612,31.5807 C126.612,31.4245 126.55,31.2057 126.425,30.9245 L126.019,29.987 L123.394,29.987 L122.941,31.1276 C122.889,31.2735 122.862,31.4037 122.862,31.5182 C122.873,31.7787 123.097,31.9141 123.534,31.9245 L123.534,32.112 L121.566,32.112 L121.566,31.9245 C121.805,31.9141 121.987,31.8307 122.112,31.6745 C122.258,31.4766 122.487,31.013 122.8,30.2839 L124.878,25.3776 L125.081,25.3776 L127.566,31.0495 C127.764,31.487 127.93,31.7474 128.066,31.8307 C128.159,31.8828 128.295,31.9141 128.472,31.9245 M123.566,29.5495 L125.878,29.5495 L124.722,26.7995 L123.566,29.5495 M130.003,25.2995 L130.003,28.3307 C130.149,27.9974 130.425,27.7578 130.831,27.612 C131.019,27.5495 131.206,27.5182 131.394,27.5182 C131.956,27.5182 132.409,27.7682 132.753,28.2682 C133.024,28.6745 133.159,29.1485 133.159,29.6901 C133.159,30.4714 132.894,31.1068 132.362,31.5964 C131.925,32.0026 131.409,32.2057 130.816,32.2057 C130.264,32.2057 129.805,32.1016 129.441,31.8932 C129.264,31.7891 129.175,31.6849 129.175,31.5807 L129.175,26.3776 C129.175,26.1172 129.107,25.961 128.972,25.9089 C128.909,25.888 128.81,25.8776 128.675,25.8776 C128.602,25.8776 128.545,25.8776 128.503,25.8776 L128.503,25.7214 C129.024,25.5964 129.508,25.4505 129.956,25.2839 L130.003,25.2995 M130.003,28.8776 L130.003,31.4245 C130.003,31.5912 130.149,31.7214 130.441,31.8151 C130.607,31.8776 130.784,31.9089 130.972,31.9089 C131.586,31.9089 131.987,31.5912 132.175,30.9557 C132.248,30.7162 132.284,30.4453 132.284,30.1432 C132.284,29.2578 132.06,28.6485 131.612,28.3151 C131.425,28.1797 131.222,28.112 131.003,28.112 C130.649,28.112 130.368,28.237 130.159,28.487 C130.055,28.612 130.003,28.7422 130.003,28.8776 M136.534,28.1589 L136.534,27.987 C137.014,27.8412 137.482,27.6849 137.941,27.5182 L138.003,27.5339 L138.003,28.2995 C138.576,27.862 138.987,27.612 139.237,27.5495 C139.342,27.5287 139.446,27.5182 139.55,27.5182 C140.081,27.5287 140.435,27.8151 140.612,28.3776 C141.144,27.8047 141.691,27.5182 142.253,27.5182 C143.014,27.5287 143.399,28.1276 143.409,29.3151 L143.409,31.362 C143.42,31.7266 143.56,31.9193 143.831,31.9401 L144.097,31.9557 L144.097,32.112 L141.909,32.112 L141.909,31.9557 C142.232,31.9245 142.425,31.8516 142.487,31.737 C142.54,31.6432 142.566,31.4818 142.566,31.2526 L142.566,29.1432 C142.566,28.5912 142.456,28.2578 142.237,28.1432 C142.133,28.0807 141.993,28.0495 141.816,28.0495 C141.368,28.0599 141.003,28.263 140.722,28.6589 L140.722,31.1745 C140.722,31.5495 140.81,31.7839 140.987,31.8776 C141.092,31.9297 141.243,31.9557 141.441,31.9557 L141.441,32.112 L139.206,32.112 L139.206,31.9557 C139.529,31.9349 139.727,31.862 139.8,31.737 C139.862,31.6432 139.894,31.4818 139.894,31.2526 L139.894,29.0964 C139.894,28.3985 139.67,28.0495 139.222,28.0495 C138.857,28.0495 138.534,28.1693 138.253,28.4089 C138.18,28.4818 138.112,28.5599 138.05,28.6432 L138.05,31.4401 C138.05,31.6901 138.139,31.8464 138.316,31.9089 C138.409,31.9401 138.545,31.9557 138.722,31.9557 L138.722,32.112 L136.503,32.112 L136.503,31.9557 C136.857,31.9557 137.071,31.8724 137.144,31.7057 C137.185,31.6016 137.206,31.4557 137.206,31.2682 L137.206,28.7526 C137.206,28.3776 137.128,28.1693 136.972,28.1276 C136.941,28.1172 136.904,28.112 136.862,28.112 C136.758,28.112 136.649,28.1276 136.534,28.1589 M144.659,31.1432 C144.659,30.6328 144.977,30.2005 145.612,29.8464 C145.8,29.7526 146.3,29.5391 147.112,29.2057 C147.133,29.2057 147.149,29.2005 147.159,29.1901 L147.159,28.5807 C147.107,28.0599 146.852,27.7839 146.394,27.7526 C146.081,27.7526 145.862,27.8516 145.737,28.0495 C145.696,28.1224 145.675,28.1849 145.675,28.237 C145.675,28.2995 145.685,28.3828 145.706,28.487 C145.717,28.5599 145.722,28.612 145.722,28.6432 C145.722,28.8203 145.633,28.9453 145.456,29.0182 C145.394,29.0495 145.336,29.0651 145.284,29.0651 C145.097,29.0651 144.967,28.9766 144.894,28.7995 C144.862,28.7474 144.847,28.6901 144.847,28.6276 C144.847,28.263 145.066,27.9662 145.503,27.737 C145.805,27.5912 146.149,27.5182 146.534,27.5182 C147.253,27.5182 147.696,27.7735 147.862,28.2839 C147.935,28.5026 147.972,28.7787 147.972,29.112 L147.972,31.0495 C147.972,31.3828 148.034,31.5703 148.159,31.612 C148.201,31.6224 148.237,31.6276 148.269,31.6276 C148.415,31.6172 148.56,31.5547 148.706,31.4401 L148.706,31.6901 C148.435,32.0026 148.185,32.1745 147.956,32.2057 C147.904,32.2057 147.852,32.2057 147.8,32.2057 C147.487,32.2057 147.29,32.0495 147.206,31.737 C147.185,31.6537 147.175,31.5599 147.175,31.4557 C146.581,31.9349 146.092,32.1849 145.706,32.2057 C145.279,32.2057 144.972,32.0339 144.784,31.6901 C144.701,31.5235 144.659,31.3412 144.659,31.1432 M147.159,30.862 L147.159,29.4245 C146.336,29.7266 145.831,30.0339 145.644,30.3464 C145.571,30.4922 145.534,30.6485 145.534,30.8151 C145.534,31.211 145.68,31.461 145.972,31.5651 C146.045,31.5964 146.112,31.612 146.175,31.612 C146.394,31.6016 146.633,31.5235 146.894,31.3776 C147.04,31.2943 147.123,31.1901 147.144,31.0651 C147.154,31.0026 147.159,30.9349 147.159,30.862 M149.878,28.1901 C149.878,28.1901 149.727,28.2005 149.425,28.2214 L149.425,28.0495 C149.967,27.8828 150.487,27.7057 150.987,27.5182 L151.034,27.5495 L151.034,32.112 C151.034,33.3412 150.623,34.0495 149.8,34.237 C149.654,34.2682 149.503,34.2839 149.347,34.2839 C148.909,34.2839 148.618,34.1745 148.472,33.9557 C148.43,33.8828 148.409,33.8099 148.409,33.737 C148.409,33.5495 148.498,33.4297 148.675,33.3776 C148.727,33.3568 148.774,33.3464 148.816,33.3464 C148.961,33.3464 149.118,33.4505 149.284,33.6589 C149.461,33.8464 149.607,33.9453 149.722,33.9557 C149.951,33.9557 150.092,33.7943 150.144,33.4714 C150.175,33.2735 150.191,32.9714 150.191,32.5651 L150.191,28.7682 C150.191,28.4141 150.112,28.2214 149.956,28.1901 C149.925,28.1901 149.899,28.1901 149.878,28.1901 M150.534,25.2839 C150.753,25.2839 150.909,25.3828 151.003,25.5807 C151.034,25.6537 151.05,25.7266 151.05,25.7995 C151.05,26.0182 150.941,26.1745 150.722,26.2682 C150.659,26.2891 150.597,26.2995 150.534,26.2995 C150.305,26.2995 150.149,26.2005 150.066,26.0026 C150.045,25.9297 150.034,25.862 150.034,25.7995 C150.034,25.5807 150.128,25.4245 150.316,25.3307 C150.389,25.2995 150.461,25.2839 150.534,25.2839 M153.862,27.5182 C154.602,27.5182 155.185,27.7891 155.612,28.3307 C155.915,28.737 156.066,29.2162 156.066,29.7682 C156.066,30.5495 155.81,31.1745 155.3,31.6432 C154.883,32.0182 154.399,32.2057 153.847,32.2057 C153.139,32.2057 152.576,31.9349 152.159,31.3932 C151.826,30.9557 151.659,30.4401 151.659,29.8464 C151.659,29.0339 151.935,28.4089 152.487,27.9714 C152.873,27.6693 153.331,27.5182 153.862,27.5182 M152.566,29.362 C152.566,30.2682 152.753,30.961 153.128,31.4401 C153.368,31.7526 153.649,31.9089 153.972,31.9089 C154.493,31.9089 154.852,31.612 155.05,31.0182 C155.133,30.7578 155.175,30.461 155.175,30.1276 C155.175,29.2422 154.961,28.586 154.534,28.1589 C154.305,27.9297 154.04,27.8151 153.737,27.8151 C153.269,27.8151 152.93,28.0547 152.722,28.5339 C152.618,28.7735 152.566,29.0495 152.566,29.362 M159.425,28.487 C159.321,28.487 159.17,28.4037 158.972,28.237 C158.878,28.1537 158.805,28.112 158.753,28.112 C158.586,28.112 158.415,28.2422 158.237,28.5026 C158.123,28.6693 158.066,28.8151 158.066,28.9401 L158.066,31.2057 C158.066,31.5495 158.154,31.763 158.331,31.8464 C158.456,31.9089 158.649,31.9453 158.909,31.9557 L158.909,32.112 L156.503,32.112 L156.503,31.9557 C156.857,31.8932 157.071,31.8099 157.144,31.7057 C157.196,31.6224 157.222,31.4766 157.222,31.2682 L157.222,28.7526 C157.222,28.388 157.139,28.1901 156.972,28.1589 C156.941,28.1485 156.909,28.1432 156.878,28.1432 C156.764,28.1432 156.649,28.1589 156.534,28.1901 L156.534,28.0339 C157.066,27.8672 157.555,27.6953 158.003,27.5182 L158.066,27.5339 L158.066,28.4245 C158.409,27.9453 158.701,27.6589 158.941,27.5651 C159.045,27.5339 159.149,27.5182 159.253,27.5182 C159.566,27.5182 159.748,27.6485 159.8,27.9089 C159.8,27.9505 159.8,27.9974 159.8,28.0495 C159.769,28.3203 159.644,28.4662 159.425,28.487 M162.659,31.1432 C162.659,30.6328 162.977,30.2005 163.612,29.8464 C163.8,29.7526 164.3,29.5391 165.112,29.2057 C165.133,29.2057 165.149,29.2005 165.159,29.1901 L165.159,28.5807 C165.107,28.0599 164.852,27.7839 164.394,27.7526 C164.081,27.7526 163.862,27.8516 163.737,28.0495 C163.696,28.1224 163.675,28.1849 163.675,28.237 C163.675,28.2995 163.685,28.3828 163.706,28.487 C163.717,28.5599 163.722,28.612 163.722,28.6432 C163.722,28.8203 163.633,28.9453 163.456,29.0182 C163.394,29.0495 163.336,29.0651 163.284,29.0651 C163.097,29.0651 162.967,28.9766 162.894,28.7995 C162.862,28.7474 162.847,28.6901 162.847,28.6276 C162.847,28.263 163.066,27.9662 163.503,27.737 C163.805,27.5912 164.149,27.5182 164.534,27.5182 C165.253,27.5182 165.696,27.7735 165.862,28.2839 C165.935,28.5026 165.972,28.7787 165.972,29.112 L165.972,31.0495 C165.972,31.3828 166.034,31.5703 166.159,31.612 C166.201,31.6224 166.237,31.6276 166.269,31.6276 C166.415,31.6172 166.56,31.5547 166.706,31.4401 L166.706,31.6901 C166.435,32.0026 166.185,32.1745 165.956,32.2057 C165.904,32.2057 165.852,32.2057 165.8,32.2057 C165.487,32.2057 165.29,32.0495 165.206,31.737 C165.185,31.6537 165.175,31.5599 165.175,31.4557 C164.581,31.9349 164.092,32.1849 163.706,32.2057 C163.279,32.2057 162.972,32.0339 162.784,31.6901 C162.701,31.5235 162.659,31.3412 162.659,31.1432 M165.159,30.862 L165.159,29.4245 C164.336,29.7266 163.831,30.0339 163.644,30.3464 C163.571,30.4922 163.534,30.6485 163.534,30.8151 C163.534,31.211 163.68,31.461 163.972,31.5651 C164.045,31.5964 164.112,31.612 164.175,31.612 C164.394,31.6016 164.633,31.5235 164.894,31.3776 C165.04,31.2943 165.123,31.1901 165.144,31.0651 C165.154,31.0026 165.159,30.9349 165.159,30.862 M169.425,28.487 C169.321,28.487 169.17,28.4037 168.972,28.237 C168.878,28.1537 168.805,28.112 168.753,28.112 C168.586,28.112 168.415,28.2422 168.237,28.5026 C168.123,28.6693 168.066,28.8151 168.066,28.9401 L168.066,31.2057 C168.066,31.5495 168.154,31.763 168.331,31.8464 C168.456,31.9089 168.649,31.9453 168.909,31.9557 L168.909,32.112 L166.503,32.112 L166.503,31.9557 C166.857,31.8932 167.071,31.8099 167.144,31.7057 C167.196,31.6224 167.222,31.4766 167.222,31.2682 L167.222,28.7526 C167.222,28.388 167.139,28.1901 166.972,28.1589 C166.941,28.1485 166.909,28.1432 166.878,28.1432 C166.764,28.1432 166.649,28.1589 166.534,28.1901 L166.534,28.0339 C167.066,27.8672 167.555,27.6953 168.003,27.5182 L168.066,27.5339 L168.066,28.4245 C168.409,27.9453 168.701,27.6589 168.941,27.5651 C169.045,27.5339 169.149,27.5182 169.253,27.5182 C169.566,27.5182 169.748,27.6485 169.8,27.9089 C169.8,27.9505 169.8,27.9974 169.8,28.0495 C169.769,28.3203 169.644,28.4662 169.425,28.487 M169.55,28.1901 L169.55,28.0182 C169.977,27.8932 170.456,27.7266 170.987,27.5182 L171.05,27.5339 L171.05,28.2995 C171.477,27.7787 171.956,27.5182 172.487,27.5182 C173.05,27.5182 173.493,27.7787 173.816,28.2995 C174.045,28.6849 174.159,29.1328 174.159,29.6432 C174.159,30.4557 173.909,31.1172 173.409,31.6276 C173.024,32.013 172.576,32.2057 172.066,32.2057 C171.732,32.2057 171.441,32.1068 171.191,31.9089 C171.139,31.8776 171.092,31.8412 171.05,31.7995 L171.05,33.362 C171.05,33.7057 171.118,33.9141 171.253,33.987 C171.378,34.0599 171.602,34.0964 171.925,34.0964 L171.925,34.2839 L169.503,34.2839 L169.503,34.112 C169.857,34.0807 170.071,33.9974 170.144,33.862 C170.185,33.7682 170.206,33.6224 170.206,33.4245 L170.206,28.737 C170.206,28.4453 170.154,28.2735 170.05,28.2214 C169.987,28.1901 169.904,28.1745 169.8,28.1745 C169.685,28.1745 169.602,28.1797 169.55,28.1901 M171.05,28.7839 L171.05,31.2526 C171.05,31.4297 171.196,31.5964 171.487,31.7526 C171.696,31.8568 171.894,31.9089 172.081,31.9089 C172.54,31.9089 172.878,31.6537 173.097,31.1432 C173.232,30.8203 173.3,30.4557 173.3,30.0495 C173.3,29.2266 173.092,28.6537 172.675,28.3307 C172.498,28.1849 172.295,28.112 172.066,28.112 C171.764,28.112 171.493,28.2214 171.253,28.4401 C171.128,28.5547 171.06,28.6693 171.05,28.7839 M175.378,29.3464 C175.42,30.5235 175.805,31.2162 176.534,31.4245 C176.659,31.4662 176.795,31.487 176.941,31.487 C177.43,31.487 177.847,31.2787 178.191,30.862 C178.284,30.7474 178.383,30.612 178.487,30.4557 L178.644,30.5182 C178.279,31.4766 177.706,32.0287 176.925,32.1745 C176.79,32.1953 176.659,32.2057 176.534,32.2057 C175.795,32.2057 175.264,31.8932 174.941,31.2682 C174.753,30.8932 174.659,30.461 174.659,29.9714 C174.659,29.086 174.935,28.4141 175.487,27.9557 C175.852,27.6641 176.274,27.5182 176.753,27.5182 C177.67,27.5182 178.222,28.0391 178.409,29.0807 C178.43,29.1745 178.446,29.263 178.456,29.3464 L175.378,29.3464 M175.394,29.0495 L177.441,29.0495 C177.347,28.4766 177.18,28.1224 176.941,27.987 C176.816,27.9245 176.654,27.8932 176.456,27.8932 C175.862,27.8932 175.508,28.2682 175.394,29.0182 C175.394,29.0287 175.394,29.0391 175.394,29.0495 M179.003,31.5339 C179.003,31.3985 179.081,31.2526 179.237,31.0964 C179.331,31.0026 179.55,30.7995 179.894,30.487 C179.394,30.2266 179.097,29.8985 179.003,29.5026 C178.982,29.388 178.972,29.2682 178.972,29.1432 C178.972,28.612 179.185,28.1849 179.612,27.862 C179.915,27.6328 180.258,27.5182 180.644,27.5182 C180.894,27.5182 181.201,27.586 181.566,27.7214 C181.805,27.8047 182.019,27.8464 182.206,27.8464 L182.972,27.8464 L182.972,28.2214 L182.144,28.2214 C182.269,28.513 182.331,28.7943 182.331,29.0651 C182.331,29.638 182.107,30.0703 181.659,30.362 C181.389,30.5391 181.097,30.6276 180.784,30.6276 C180.691,30.6276 180.498,30.6068 180.206,30.5651 C180.008,30.6276 179.842,30.7682 179.706,30.987 C179.644,31.0703 179.612,31.1432 179.612,31.2057 C179.612,31.362 179.862,31.4505 180.362,31.4714 C180.373,31.4714 180.383,31.4714 180.394,31.4714 L181.675,31.5339 C182.227,31.5443 182.597,31.7474 182.784,32.1432 C182.857,32.2787 182.894,32.4297 182.894,32.5964 C182.894,33.0964 182.581,33.5235 181.956,33.8776 C181.446,34.1485 180.889,34.2839 180.284,34.2839 C179.659,34.2839 179.175,34.1328 178.831,33.8307 C178.654,33.6641 178.566,33.487 178.566,33.2995 C178.566,33.0078 178.779,32.6797 179.206,32.3151 C179.31,32.2318 179.42,32.1432 179.534,32.0495 C179.232,31.9141 179.06,31.7787 179.019,31.6432 C179.008,31.612 179.003,31.5755 179.003,31.5339 M179.753,32.0807 C179.451,32.4557 179.29,32.7162 179.269,32.862 C179.258,32.9037 179.253,32.9453 179.253,32.987 C179.253,33.2891 179.477,33.5078 179.925,33.6432 C180.154,33.7162 180.42,33.7526 180.722,33.7526 C181.555,33.7526 182.123,33.5703 182.425,33.2057 C182.55,33.0495 182.612,32.888 182.612,32.7214 C182.612,32.4714 182.446,32.3151 182.112,32.2526 C181.925,32.2214 181.675,32.2057 181.362,32.2057 C180.696,32.2057 180.159,32.1641 179.753,32.0807 M181.566,29.4714 C181.566,29.0443 181.477,28.6641 181.3,28.3307 C181.102,27.9974 180.847,27.8255 180.534,27.8151 C180.159,27.8151 179.925,28.013 179.831,28.4089 C179.81,28.513 179.8,28.6276 179.8,28.7526 C179.8,29.5547 180.024,30.0651 180.472,30.2839 C180.586,30.3464 180.701,30.3776 180.816,30.3776 C181.18,30.3776 181.415,30.1953 181.519,29.8307 C181.55,29.7162 181.566,29.5964 181.566,29.4714 M184.003,31.5339 C184.003,31.3985 184.081,31.2526 184.237,31.0964 C184.331,31.0026 184.55,30.7995 184.894,30.487 C184.394,30.2266 184.097,29.8985 184.003,29.5026 C183.982,29.388 183.972,29.2682 183.972,29.1432 C183.972,28.612 184.185,28.1849 184.612,27.862 C184.915,27.6328 185.258,27.5182 185.644,27.5182 C185.894,27.5182 186.201,27.586 186.566,27.7214 C186.805,27.8047 187.019,27.8464 187.206,27.8464 L187.972,27.8464 L187.972,28.2214 L187.144,28.2214 C187.269,28.513 187.331,28.7943 187.331,29.0651 C187.331,29.638 187.107,30.0703 186.659,30.362 C186.389,30.5391 186.097,30.6276 185.784,30.6276 C185.691,30.6276 185.498,30.6068 185.206,30.5651 C185.008,30.6276 184.842,30.7682 184.706,30.987 C184.644,31.0703 184.612,31.1432 184.612,31.2057 C184.612,31.362 184.862,31.4505 185.362,31.4714 C185.373,31.4714 185.383,31.4714 185.394,31.4714 L186.675,31.5339 C187.227,31.5443 187.597,31.7474 187.784,32.1432 C187.857,32.2787 187.894,32.4297 187.894,32.5964 C187.894,33.0964 187.581,33.5235 186.956,33.8776 C186.446,34.1485 185.889,34.2839 185.284,34.2839 C184.659,34.2839 184.175,34.1328 183.831,33.8307 C183.654,33.6641 183.566,33.487 183.566,33.2995 C183.566,33.0078 183.779,32.6797 184.206,32.3151 C184.31,32.2318 184.42,32.1432 184.534,32.0495 C184.232,31.9141 184.06,31.7787 184.019,31.6432 C184.008,31.612 184.003,31.5755 184.003,31.5339 M184.753,32.0807 C184.451,32.4557 184.29,32.7162 184.269,32.862 C184.258,32.9037 184.253,32.9453 184.253,32.987 C184.253,33.2891 184.477,33.5078 184.925,33.6432 C185.154,33.7162 185.42,33.7526 185.722,33.7526 C186.555,33.7526 187.123,33.5703 187.425,33.2057 C187.55,33.0495 187.612,32.888 187.612,32.7214 C187.612,32.4714 187.446,32.3151 187.112,32.2526 C186.925,32.2214 186.675,32.2057 186.362,32.2057 C185.696,32.2057 185.159,32.1641 184.753,32.0807 M186.566,29.4714 C186.566,29.0443 186.477,28.6641 186.3,28.3307 C186.102,27.9974 185.847,27.8255 185.534,27.8151 C185.159,27.8151 184.925,28.013 184.831,28.4089 C184.81,28.513 184.8,28.6276 184.8,28.7526 C184.8,29.5547 185.024,30.0651 185.472,30.2839 C185.586,30.3464 185.701,30.3776 185.816,30.3776 C186.18,30.3776 186.415,30.1953 186.519,29.8307 C186.55,29.7162 186.566,29.5964 186.566,29.4714 M189.034,28.1901 C188.878,28.1901 188.737,28.2005 188.612,28.2214 L188.612,28.0651 C189.081,27.9297 189.597,27.7474 190.159,27.5182 L190.191,27.5495 L190.191,31.0964 C190.191,31.4818 190.248,31.7214 190.362,31.8151 C190.456,31.888 190.649,31.9349 190.941,31.9557 L190.941,32.112 L188.566,32.112 L188.566,31.9557 C188.93,31.9349 189.159,31.8672 189.253,31.7526 C189.326,31.638 189.362,31.4193 189.362,31.0964 L189.362,28.7682 C189.362,28.4141 189.279,28.2214 189.112,28.1901 C189.081,28.1901 189.055,28.1901 189.034,28.1901 M189.691,25.2839 C189.909,25.2839 190.066,25.3828 190.159,25.5807 C190.191,25.6537 190.206,25.7266 190.206,25.7995 C190.206,26.0182 190.102,26.1745 189.894,26.2682 C189.821,26.2891 189.753,26.2995 189.691,26.2995 C189.472,26.2995 189.316,26.2005 189.222,26.0026 C189.201,25.9297 189.191,25.862 189.191,25.7995 C189.191,25.5807 189.284,25.4245 189.472,25.3307 C189.545,25.2995 189.618,25.2839 189.691,25.2839 M193.862,27.5182 C194.602,27.5182 195.185,27.7891 195.612,28.3307 C195.915,28.737 196.066,29.2162 196.066,29.7682 C196.066,30.5495 195.81,31.1745 195.3,31.6432 C194.883,32.0182 194.399,32.2057 193.847,32.2057 C193.139,32.2057 192.576,31.9349 192.159,31.3932 C191.826,30.9557 191.659,30.4401 191.659,29.8464 C191.659,29.0339 191.935,28.4089 192.487,27.9714 C192.873,27.6693 193.331,27.5182 193.862,27.5182 M192.566,29.362 C192.566,30.2682 192.753,30.961 193.128,31.4401 C193.368,31.7526 193.649,31.9089 193.972,31.9089 C194.493,31.9089 194.852,31.612 195.05,31.0182 C195.133,30.7578 195.175,30.461 195.175,30.1276 C195.175,29.2422 194.961,28.586 194.534,28.1589 C194.305,27.9297 194.04,27.8151 193.737,27.8151 C193.269,27.8151 192.93,28.0547 192.722,28.5339 C192.618,28.7735 192.566,29.0495 192.566,29.362 M202.003,27.612 L202.003,27.9089 L200.987,27.9089 L200.987,30.7682 C200.987,31.3099 201.123,31.6068 201.394,31.6589 C201.425,31.6693 201.461,31.6745 201.503,31.6745 C201.711,31.6641 201.915,31.5443 202.112,31.3151 L202.237,31.4401 C201.915,31.9505 201.514,32.2057 201.034,32.2057 C200.451,32.1953 200.154,31.7735 200.144,30.9401 L200.144,27.9089 L199.612,27.9089 C199.592,27.888 199.581,27.8672 199.581,27.8464 C199.581,27.8047 199.623,27.763 199.706,27.7214 C199.987,27.5339 200.321,27.1693 200.706,26.6276 C200.717,26.6172 200.722,26.612 200.722,26.612 C200.826,26.4557 200.894,26.362 200.925,26.3307 C200.967,26.3412 200.987,26.3828 200.987,26.4557 L200.987,27.612 L202.003,27.612 M205.753,29.0182 C205.545,28.3932 205.378,28.0235 205.253,27.9089 C205.159,27.836 205.029,27.7891 204.862,27.7682 L204.862,27.612 L206.894,27.612 L206.894,27.7682 C206.56,27.8099 206.373,27.8828 206.331,27.987 C206.321,28.0287 206.316,28.0755 206.316,28.1276 C206.316,28.211 206.368,28.3985 206.472,28.6901 L206.487,28.7057 L206.487,28.7214 L207.331,30.9557 L208.222,28.737 C208.336,28.4557 208.394,28.237 208.394,28.0807 C208.394,27.9557 208.316,27.8672 208.159,27.8151 C208.097,27.7943 208.029,27.7787 207.956,27.7682 L207.956,27.612 L209.191,27.612 L209.191,27.7682 C209.066,27.8099 208.972,27.8828 208.909,27.987 C208.878,28.0599 208.831,28.1641 208.769,28.2995 L207.394,31.7682 C207.258,32.0807 207.165,32.2422 207.112,32.2526 C207.071,32.2526 207.003,32.1432 206.909,31.9245 C206.899,31.8932 206.889,31.8568 206.878,31.8151 L205.972,29.4557 L204.847,31.862 C204.732,32.112 204.649,32.2422 204.597,32.2526 C204.545,32.2526 204.461,32.112 204.347,31.8307 C204.336,31.8203 204.331,31.8151 204.331,31.8151 L202.987,28.3932 C202.852,28.0495 202.727,27.8516 202.612,27.7995 C202.56,27.7787 202.508,27.7682 202.456,27.7682 L202.456,27.612 L204.253,27.612 L204.253,27.7682 C203.982,27.7995 203.836,27.8776 203.816,28.0026 C203.805,28.0339 203.8,28.0651 203.8,28.0964 C203.8,28.1901 203.821,28.2891 203.862,28.3932 L204.847,31.0026 L205.753,29.0182 M211.862,27.5182 C212.602,27.5182 213.185,27.7891 213.612,28.3307 C213.915,28.737 214.066,29.2162 214.066,29.7682 C214.066,30.5495 213.81,31.1745 213.3,31.6432 C212.883,32.0182 212.399,32.2057 211.847,32.2057 C211.139,32.2057 210.576,31.9349 210.159,31.3932 C209.826,30.9557 209.659,30.4401 209.659,29.8464 C209.659,29.0339 209.935,28.4089 210.487,27.9714 C210.873,27.6693 211.331,27.5182 211.862,27.5182 M210.566,29.362 C210.566,30.2682 210.753,30.961 211.128,31.4401 C211.368,31.7526 211.649,31.9089 211.972,31.9089 C212.493,31.9089 212.852,31.612 213.05,31.0182 C213.133,30.7578 213.175,30.461 213.175,30.1276 C213.175,29.2422 212.961,28.586 212.534,28.1589 C212.305,27.9297 212.04,27.8151 211.737,27.8151 C211.269,27.8151 210.93,28.0547 210.722,28.5339 C210.618,28.7735 210.566,29.0495 210.566,29.362 M219.862,27.5182 C220.602,27.5182 221.185,27.7891 221.612,28.3307 C221.915,28.737 222.066,29.2162 222.066,29.7682 C222.066,30.5495 221.81,31.1745 221.3,31.6432 C220.883,32.0182 220.399,32.2057 219.847,32.2057 C219.139,32.2057 218.576,31.9349 218.159,31.3932 C217.826,30.9557 217.659,30.4401 217.659,29.8464 C217.659,29.0339 217.935,28.4089 218.487,27.9714 C218.873,27.6693 219.331,27.5182 219.862,27.5182 M218.566,29.362 C218.566,30.2682 218.753,30.961 219.128,31.4401 C219.368,31.7526 219.649,31.9089 219.972,31.9089 C220.493,31.9089 220.852,31.612 221.05,31.0182 C221.133,30.7578 221.175,30.461 221.175,30.1276 C221.175,29.2422 220.961,28.586 220.534,28.1589 C220.305,27.9297 220.04,27.8151 219.737,27.8151 C219.269,27.8151 218.93,28.0547 218.722,28.5339 C218.618,28.7735 218.566,29.0495 218.566,29.362 M222.659,29.987 C222.659,29.1432 222.946,28.4818 223.519,28.0026 C223.915,27.6797 224.357,27.5182 224.847,27.5182 C225.399,27.5182 225.826,27.6693 226.128,27.9714 C226.305,28.1485 226.394,28.3412 226.394,28.5495 C226.394,28.7266 226.3,28.8516 226.112,28.9245 C226.04,28.9557 225.972,28.9714 225.909,28.9714 C225.701,28.9714 225.55,28.836 225.456,28.5651 C225.446,28.5443 225.441,28.5235 225.441,28.5026 L225.378,28.2839 C225.316,28.0339 225.201,27.888 225.034,27.8464 C224.961,27.8255 224.878,27.8151 224.784,27.8151 C224.284,27.8151 223.904,28.0547 223.644,28.5339 C223.498,28.8255 223.425,29.1641 223.425,29.5495 C223.425,30.2787 223.649,30.8255 224.097,31.1901 C224.357,31.388 224.649,31.487 224.972,31.487 C225.389,31.487 225.748,31.3203 226.05,30.987 C226.154,30.862 226.269,30.7162 226.394,30.5495 L226.534,30.6432 C226.159,31.362 225.743,31.8307 225.284,32.0495 C225.045,32.1537 224.805,32.2057 224.566,32.2057 C223.92,32.2057 223.415,31.9401 223.05,31.4089 C222.79,31.0026 222.659,30.5287 222.659,29.987 M229.003,27.612 L229.003,27.9089 L227.987,27.9089 L227.987,30.7682 C227.987,31.3099 228.123,31.6068 228.394,31.6589 C228.425,31.6693 228.461,31.6745 228.503,31.6745 C228.711,31.6641 228.915,31.5443 229.112,31.3151 L229.237,31.4401 C228.915,31.9505 228.514,32.2057 228.034,32.2057 C227.451,32.1953 227.154,31.7735 227.144,30.9401 L227.144,27.9089 L226.612,27.9089 C226.592,27.888 226.581,27.8672 226.581,27.8464 C226.581,27.8047 226.623,27.763 226.706,27.7214 C226.987,27.5339 227.321,27.1693 227.706,26.6276 C227.717,26.6172 227.722,26.612 227.722,26.612 C227.826,26.4557 227.894,26.362 227.925,26.3307 C227.967,26.3412 227.987,26.3828 227.987,26.4557 L227.987,27.612 L229.003,27.612 M229.659,31.1432 C229.659,30.6328 229.977,30.2005 230.612,29.8464 C230.8,29.7526 231.3,29.5391 232.112,29.2057 C232.133,29.2057 232.149,29.2005 232.159,29.1901 L232.159,28.5807 C232.107,28.0599 231.852,27.7839 231.394,27.7526 C231.081,27.7526 230.862,27.8516 230.737,28.0495 C230.696,28.1224 230.675,28.1849 230.675,28.237 C230.675,28.2995 230.685,28.3828 230.706,28.487 C230.717,28.5599 230.722,28.612 230.722,28.6432 C230.722,28.8203 230.633,28.9453 230.456,29.0182 C230.394,29.0495 230.336,29.0651 230.284,29.0651 C230.097,29.0651 229.967,28.9766 229.894,28.7995 C229.862,28.7474 229.847,28.6901 229.847,28.6276 C229.847,28.263 230.066,27.9662 230.503,27.737 C230.805,27.5912 231.149,27.5182 231.534,27.5182 C232.253,27.5182 232.696,27.7735 232.862,28.2839 C232.935,28.5026 232.972,28.7787 232.972,29.112 L232.972,31.0495 C232.972,31.3828 233.034,31.5703 233.159,31.612 C233.201,31.6224 233.237,31.6276 233.269,31.6276 C233.415,31.6172 233.56,31.5547 233.706,31.4401 L233.706,31.6901 C233.435,32.0026 233.185,32.1745 232.956,32.2057 C232.904,32.2057 232.852,32.2057 232.8,32.2057 C232.487,32.2057 232.29,32.0495 232.206,31.737 C232.185,31.6537 232.175,31.5599 232.175,31.4557 C231.581,31.9349 231.092,32.1849 230.706,32.2057 C230.279,32.2057 229.972,32.0339 229.784,31.6901 C229.701,31.5235 229.659,31.3412 229.659,31.1432 M232.159,30.862 L232.159,29.4245 C231.336,29.7266 230.831,30.0339 230.644,30.3464 C230.571,30.4922 230.534,30.6485 230.534,30.8151 C230.534,31.211 230.68,31.461 230.972,31.5651 C231.045,31.5964 231.112,31.612 231.175,31.612 C231.394,31.6016 231.633,31.5235 231.894,31.3776 C232.04,31.2943 232.123,31.1901 232.144,31.0651 C232.154,31.0026 232.159,30.9349 232.159,30.862 M238.034,27.612 L238.034,27.7682 C237.868,27.7891 237.743,27.8568 237.659,27.9714 C237.586,28.0755 237.498,28.2682 237.394,28.5495 L236.112,31.7526 C235.977,32.0755 235.883,32.2422 235.831,32.2526 C235.758,32.2526 235.675,32.1068 235.581,31.8151 C235.571,31.8047 235.566,31.7943 235.566,31.7839 L234.362,28.9089 C234.112,28.3151 233.925,27.9662 233.8,27.862 C233.717,27.7995 233.602,27.7682 233.456,27.7682 L233.456,27.612 L235.425,27.612 L235.425,27.7682 C235.144,27.7891 234.993,27.862 234.972,27.987 C234.961,28.0078 234.956,28.0287 234.956,28.0495 C234.956,28.1641 234.987,28.2839 235.05,28.4089 L236.066,30.9714 L237.05,28.3776 C237.092,28.2839 237.112,28.1849 237.112,28.0807 C237.112,27.9037 236.967,27.7995 236.675,27.7682 C236.665,27.7682 236.654,27.7682 236.644,27.7682 L236.644,27.612 L238.034,27.612 M239.378,29.3464 C239.42,30.5235 239.805,31.2162 240.534,31.4245 C240.659,31.4662 240.795,31.487 240.941,31.487 C241.43,31.487 241.847,31.2787 242.191,30.862 C242.284,30.7474 242.383,30.612 242.487,30.4557 L242.644,30.5182 C242.279,31.4766 241.706,32.0287 240.925,32.1745 C240.79,32.1953 240.659,32.2057 240.534,32.2057 C239.795,32.2057 239.264,31.8932 238.941,31.2682 C238.753,30.8932 238.659,30.461 238.659,29.9714 C238.659,29.086 238.935,28.4141 239.487,27.9557 C239.852,27.6641 240.274,27.5182 240.753,27.5182 C241.67,27.5182 242.222,28.0391 242.409,29.0807 C242.43,29.1745 242.446,29.263 242.456,29.3464 L239.378,29.3464 M239.394,29.0495 L241.441,29.0495 C241.347,28.4766 241.18,28.1224 240.941,27.987 C240.816,27.9245 240.654,27.8932 240.456,27.8932 C239.862,27.8932 239.508,28.2682 239.394,29.0182 C239.394,29.0287 239.394,29.0391 239.394,29.0495 M245.081,27.7214 C245.102,27.711 245.159,27.6745 245.253,27.612 L245.362,27.612 L245.394,28.9714 L245.253,28.9714 C245.086,28.3255 244.847,27.9401 244.534,27.8151 C244.42,27.763 244.29,27.737 244.144,27.737 C243.79,27.737 243.55,27.8776 243.425,28.1589 C243.394,28.2422 243.378,28.3307 243.378,28.4245 C243.389,28.7057 243.534,28.9297 243.816,29.0964 L244.894,29.737 C245.373,30.0287 245.644,30.3464 245.706,30.6901 C245.717,30.763 245.722,30.8464 245.722,30.9401 C245.722,31.3568 245.54,31.6953 245.175,31.9557 C244.915,32.1224 244.628,32.2057 244.316,32.2057 C244.18,32.2057 243.873,32.1589 243.394,32.0651 C243.279,32.0443 243.191,32.0339 243.128,32.0339 C243.024,32.0443 242.946,32.086 242.894,32.1589 L242.769,32.1589 L242.769,30.5964 L242.925,30.5964 C243.029,31.0651 243.159,31.3932 243.316,31.5807 C243.534,31.8516 243.826,31.987 244.191,31.987 C244.618,31.987 244.883,31.8307 244.987,31.5182 C245.019,31.4453 245.034,31.362 245.034,31.2682 C245.024,30.9662 244.847,30.7162 244.503,30.5182 L243.925,30.1901 C243.3,29.836 242.93,29.4818 242.816,29.1276 C242.774,29.0026 242.753,28.8776 242.753,28.7526 C242.753,28.2839 242.956,27.9349 243.362,27.7057 C243.592,27.5807 243.842,27.5182 244.112,27.5182 C244.331,27.5182 244.592,27.5703 244.894,27.6745 C244.977,27.7057 245.04,27.7214 245.081,27.7214"/>
</svg>
