<?xml version="1.0" encoding="UTF-8" standalone="no"?>
<svg width="595.44px" height="841.68px" viewBox="0 0 595.44 841.68"
 xmlns="http://www.w3.org/2000/svg" xmlns:xlink="http://www.w3.org/1999/xlink" version="1.2" baseProfile="tiny">
<title>Guitar Scales and Arpeggios</title>
<desc>Generated by MuseScore 2.1.0</desc>
<polyline class="StaffLines" fill="none" stroke="#000000" stroke-width="0.40" stroke-linejoin="bevel" points="28.08,62.856 567.36,62.856"/>
<polyline class="StaffLines" fill="none" stroke="#000000" stroke-width="0.40" stroke-linejoin="bevel" points="28.08,67.824 567.36,67.824"/>
<polyline class="StaffLines" fill="none" stroke="#000000" stroke-width="0.40" stroke-linejoin="bevel" points="28.08,72.792 567.36,72.792"/>
<polyline class="StaffLines" fill="none" stroke="#000000" stroke-width="0.40" stroke-linejoin="bevel" points="28.08,77.76 567.36,77.76"/>
<polyline class="StaffLines" fill="none" stroke="#000000" stroke-width="0.40" stroke-linejoin="bevel" points="28.08,82.728 567.36,82.728"/>
<polyline class="StaffLines" fill="none" stroke="#000000" stroke-width="0.40" stroke-linejoin="bevel" points="28.08,115.02 567.36,115.02"/>
<polyline class="StaffLines" fill="none" stroke="#000000" stroke-width="0.40" stroke-linejoin="bevel" points="28.08,122.472 567.36,122.472"/>
<polyline class="StaffLines" fill="none" stroke="#000000" stroke-width="0.40" stroke-linejoin="bevel" points="28.08,129.924 567.36,129.924"/>
<polyline class="StaffLines" fill="none" stroke="#000000" stroke-width="0.40" stroke-linejoin="bevel" points="28.08,137.376 567.36,137.376"/>
<polyline class="StaffLines" fill="none" stroke="#000000" stroke-width="0.40" stroke-linejoin="bevel" points="28.08,144.828 567.36,144.828"/>
<polyline class="StaffLines" fill="none" stroke="#000000" stroke-width="0.40" stroke-linejoin="bevel" points="28.08,152.28 567.36,152.28"/>
<polyline class="BarLine" fill="none" stroke="#000000" stroke-width="0.79" stroke-linejoin="bevel" points="28.4774,62.856 28.4774,152.28"/>
<polyline class="BarLine" fill="none" stroke="#000000" stroke-width="0.79" stroke-linejoin="bevel" points="562.491,115.02 562.491,152.28"/>
<polyline class="BarLine" fill="none" stroke="#000000" stroke-width="2.48" stroke-linejoin="bevel" points="566.118,115.02 566.118,152.28"/>
<polyline class="BarLine" fill="none" stroke="#000000" stroke-width="0.79" stroke-linejoin="bevel" points="562.491,62.856 562.491,82.728"/>
<polyline class="BarLine" fill="none" stroke="#000000" stroke-width="2.48" stroke-linejoin="bevel" points="566.118,62.856 566.118,82.728"/>
<polyline class="LedgerLine" fill="none" stroke="#000000" stroke-width="0.79" stroke-linecap="square" stroke-linejoin="bevel" points="502.878,87.696 512.399,87.696"/>
<polyline class="LedgerLine" fill="none" stroke="#000000" stroke-width="0.79" stroke-linecap="square" stroke-linejoin="bevel" points="286.405,57.888 295.927,57.888"/>
<polyline class="LedgerLine" fill="none" stroke="#000000" stroke-width="0.79" stroke-linecap="square" stroke-linejoin="bevel" points="69.9331,87.696 79.4546,87.696"/>
<polyline class="Stem" fill="none" stroke="#000000" stroke-width="0.65" stroke-linecap="round" stroke-linejoin="bevel" points="510.586,89.2469 510.586,72.792"/>
<polyline class="Stem" fill="none" stroke="#000000" stroke-width="0.65" stroke-linecap="round" stroke-linejoin="bevel" points="474.507,84.2789 474.507,64.098"/>
<polyline class="Stem" fill="none" stroke="#000000" stroke-width="0.65" stroke-linecap="round" stroke-linejoin="bevel" points="438.428,79.3109 438.428,60.372"/>
<polyline class="Stem" fill="none" stroke="#000000" stroke-width="0.65" stroke-linecap="round" stroke-linejoin="bevel" points="402.35,71.8589 402.35,56.646"/>
<polyline class="Stem" fill="none" stroke="#000000" stroke-width="0.65" stroke-linecap="round" stroke-linejoin="bevel" points="360.376,68.7571 360.376,82.728"/>
<polyline class="Stem" fill="none" stroke="#000000" stroke-width="0.65" stroke-linecap="round" stroke-linejoin="bevel" points="324.297,63.7891 324.297,80.244"/>
<polyline class="Stem" fill="none" stroke="#000000" stroke-width="0.65" stroke-linecap="round" stroke-linejoin="bevel" points="288.219,56.3371 288.219,77.76"/>
<polyline class="Stem" fill="none" stroke="#000000" stroke-width="0.65" stroke-linecap="round" stroke-linejoin="bevel" points="252.14,63.7891 252.14,81.486"/>
<polyline class="Stem" fill="none" stroke="#000000" stroke-width="0.65" stroke-linecap="round" stroke-linejoin="bevel" points="216.061,68.7571 216.061,84.591"/>
<polyline class="Stem" fill="none" stroke="#000000" stroke-width="0.65" stroke-linecap="round" stroke-linejoin="bevel" points="179.983,73.7251 179.983,87.696"/>
<polyline class="Stem" fill="none" stroke="#000000" stroke-width="0.65" stroke-linecap="round" stroke-linejoin="bevel" points="149.799,79.3109 149.799,66.582"/>
<polyline class="Stem" fill="none" stroke="#000000" stroke-width="0.65" stroke-linecap="round" stroke-linejoin="bevel" points="113.72,84.2789 113.72,69.687"/>
<polyline class="Stem" fill="none" stroke="#000000" stroke-width="0.65" stroke-linecap="round" stroke-linejoin="bevel" points="77.6412,89.2469 77.6412,72.792"/>
<path class="Note" fill="#ffffff" fill-rule="evenodd" d="M505.113,141.102 L511.075,141.102 L511.075,148.554 L505.113,148.554 L505.113,141.102 "/>
<path class="Note" transform="matrix(0.9936,0,0,0.9936,505.61,148.306)" d="M0.453125,-4.17188 C0.494792,-5.64063 1.19792,-6.38021 2.5625,-6.39063 C3.28125,-6.39063 3.83333,-6.14583 4.21875,-5.65625 C4.46875,-5.32292 4.59375,-4.93229 4.59375,-4.48438 C4.59375,-3.68229 4.14583,-3.03125 3.25,-2.53125 L2.34375,-2.04688 C1.79167,-1.75521 1.44271,-1.4375 1.29688,-1.09375 C1.24479,-0.989583 1.21354,-0.869792 1.20313,-0.734375 L4.5625,-0.734375 L4.5625,0 L0.3125,0 C0.354167,-0.760417 0.520833,-1.33854 0.8125,-1.73438 C1.07292,-2.05729 1.5,-2.38542 2.09375,-2.71875 L2.92188,-3.1875 C3.49479,-3.52083 3.78646,-3.94271 3.79688,-4.45313 C3.79688,-4.88021 3.61458,-5.21354 3.25,-5.45313 C3.04167,-5.57813 2.80208,-5.64063 2.53125,-5.64063 C1.73958,-5.64063 1.3125,-5.16667 1.25,-4.21875 C1.25,-4.19792 1.25,-4.18229 1.25,-4.17188 L0.453125,-4.17188 "/>
<path class="Note" fill="#ff9ee6" transform="matrix(0.9936,0,0,0.9936,504.368,90.18)" d="M4.39063,-2.75 C5.01563,-2.75 5.54688,-2.58854 5.98438,-2.26563 C6.38021,-1.91146 6.57813,-1.46875 6.57813,-0.9375 C6.57813,-0.0416667 6.11979,0.796875 5.20313,1.57813 C4.26563,2.35938 3.26042,2.75 2.1875,2.75 C1.5625,2.75 1.03646,2.58854 0.609375,2.26563 C0.203125,1.91146 0,1.46875 0,0.9375 C0,0.0416667 0.46875,-0.796875 1.40625,-1.57813 C2.32292,-2.35938 3.31771,-2.75 4.39063,-2.75"/>
<path class="Note" fill="#ffffff" fill-rule="evenodd" d="M469.034,141.102 L474.996,141.102 L474.996,148.554 L469.034,148.554 L469.034,141.102 "/>
<path class="Note" transform="matrix(0.9936,0,0,0.9936,469.531,148.306)" d="M4.28125,-6.39063 L4.28125,-5.64063 L1.625,-5.64063 L1.375,-3.8125 C1.73958,-4.09375 2.13542,-4.23438 2.5625,-4.23438 C3.28125,-4.23438 3.83333,-3.97396 4.21875,-3.45313 C4.48958,-3.07813 4.625,-2.625 4.625,-2.09375 C4.625,-1.3125 4.35938,-0.708333 3.82813,-0.28125 C3.44271,0.0416667 2.97917,0.203125 2.4375,0.203125 C1.26042,0.203125 0.557292,-0.359375 0.328125,-1.48438 C0.328125,-1.50521 0.322917,-1.53125 0.3125,-1.5625 L1.10938,-1.5625 C1.30729,-0.885417 1.73958,-0.541667 2.40625,-0.53125 C3.02083,-0.53125 3.44271,-0.770833 3.67188,-1.25 C3.76563,-1.46875 3.8125,-1.71354 3.8125,-1.98438 C3.8125,-2.63021 3.58333,-3.07813 3.125,-3.32813 C2.91667,-3.44271 2.67708,-3.5 2.40625,-3.5 C2.03125,-3.5 1.70833,-3.38021 1.4375,-3.14063 C1.375,-3.07813 1.3125,-3.01042 1.25,-2.9375 L0.515625,-2.9375 L0.984375,-6.39063 L4.28125,-6.39063 "/>
<path class="Note" fill="#78c7c7" transform="matrix(0.9936,0,0,0.9936,468.289,85.212)" d="M4.39063,-2.75 C5.01563,-2.75 5.54688,-2.58854 5.98438,-2.26563 C6.38021,-1.91146 6.57813,-1.46875 6.57813,-0.9375 C6.57813,-0.0416667 6.11979,0.796875 5.20313,1.57813 C4.26563,2.35938 3.26042,2.75 2.1875,2.75 C1.5625,2.75 1.03646,2.58854 0.609375,2.26563 C0.203125,1.91146 0,1.46875 0,0.9375 C0,0.0416667 0.46875,-0.796875 1.40625,-1.57813 C2.32292,-2.35938 3.31771,-2.75 4.39063,-2.75"/>
<path class="Note" fill="#ffffff" fill-rule="evenodd" d="M432.956,133.65 L438.917,133.65 L438.917,141.102 L432.956,141.102 L432.956,133.65 "/>
<path class="Note" transform="matrix(0.9936,0,0,0.9936,433.453,140.854)" d="M2.9375,-1.5 L0.25,-1.5 L0.25,-2.375 L3.15625,-6.39063 L3.73438,-6.39063 L3.73438,-2.23438 L4.6875,-2.23438 L4.6875,-1.5 L3.73438,-1.5 L3.73438,0 L2.9375,0 L2.9375,-1.5 M2.9375,-2.23438 L2.9375,-5.03125 L0.9375,-2.23438 L2.9375,-2.23438 "/>
<path class="Note" fill="#286704" transform="matrix(0.9936,0,0,0.9936,432.211,80.244)" d="M4.39063,-2.75 C5.01563,-2.75 5.54688,-2.58854 5.98438,-2.26563 C6.38021,-1.91146 6.57813,-1.46875 6.57813,-0.9375 C6.57813,-0.0416667 6.11979,0.796875 5.20313,1.57813 C4.26563,2.35938 3.26042,2.75 2.1875,2.75 C1.5625,2.75 1.03646,2.58854 0.609375,2.26563 C0.203125,1.91146 0,1.46875 0,0.9375 C0,0.0416667 0.46875,-0.796875 1.40625,-1.57813 C2.32292,-2.35938 3.31771,-2.75 4.39063,-2.75"/>
<path class="Note" fill="#ffffff" fill-rule="evenodd" d="M396.877,126.198 L402.839,126.198 L402.839,133.65 L396.877,133.65 L396.877,126.198 "/>
<path class="Note" transform="matrix(0.9936,0,0,0.9936,397.374,133.402)" d="M2.9375,-1.5 L0.25,-1.5 L0.25,-2.375 L3.15625,-6.39063 L3.73438,-6.39063 L3.73438,-2.23438 L4.6875,-2.23438 L4.6875,-1.5 L3.73438,-1.5 L3.73438,0 L2.9375,0 L2.9375,-1.5 M2.9375,-2.23438 L2.9375,-5.03125 L0.9375,-2.23438 L2.9375,-2.23438 "/>
<path class="Note" fill="#ff9ee6" transform="matrix(0.9936,0,0,0.9936,396.132,72.792)" d="M4.39063,-2.75 C5.01563,-2.75 5.54688,-2.58854 5.98438,-2.26563 C6.38021,-1.91146 6.57813,-1.46875 6.57813,-0.9375 C6.57813,-0.0416667 6.11979,0.796875 5.20313,1.57813 C4.26563,2.35938 3.26042,2.75 2.1875,2.75 C1.5625,2.75 1.03646,2.58854 0.609375,2.26563 C0.203125,1.91146 0,1.46875 0,0.9375 C0,0.0416667 0.46875,-0.796875 1.40625,-1.57813 C2.32292,-2.35938 3.31771,-2.75 4.39063,-2.75"/>
<path class="Note" fill="#ffffff" fill-rule="evenodd" d="M360.798,118.746 L366.76,118.746 L366.76,126.198 L360.798,126.198 L360.798,118.746 "/>
<path class="Note" transform="matrix(0.9936,0,0,0.9936,361.295,125.95)" d="M2.4375,-5.64063 C1.75,-5.64063 1.35417,-5.32813 1.25,-4.70313 C1.22917,-4.59896 1.21875,-4.47917 1.21875,-4.34375 L0.421875,-4.34375 C0.442708,-5.59375 1.01563,-6.27083 2.14063,-6.375 C2.23438,-6.38542 2.32813,-6.39063 2.42188,-6.39063 C3.26563,-6.39063 3.84375,-6.10938 4.15625,-5.54688 C4.29167,-5.28646 4.35938,-4.98438 4.35938,-4.64063 C4.35938,-4.00521 4.0625,-3.57292 3.46875,-3.34375 C4.03125,-3.14583 4.375,-2.81771 4.5,-2.35938 C4.54167,-2.19271 4.5625,-2.00521 4.5625,-1.79688 C4.5625,-1.05729 4.27604,-0.505208 3.70313,-0.140625 C3.33854,0.0885417 2.90104,0.203125 2.39063,0.203125 C1.21354,0.203125 0.526042,-0.348958 0.328125,-1.45313 C0.317708,-1.57813 0.302083,-1.71354 0.28125,-1.85938 L1.07813,-1.85938 C1.13021,-1.08854 1.46875,-0.65625 2.09375,-0.5625 C2.19792,-0.541667 2.30729,-0.53125 2.42188,-0.53125 C3.04688,-0.53125 3.45313,-0.765625 3.64063,-1.23438 C3.71354,-1.40104 3.75,-1.58854 3.75,-1.79688 C3.73958,-2.54688 3.29688,-2.92708 2.42188,-2.9375 L2.09375,-2.92188 L1.98438,-2.92188 L1.98438,-3.67188 C2.66146,-3.68229 3.10417,-3.77604 3.3125,-3.95313 C3.47917,-4.09896 3.5625,-4.31771 3.5625,-4.60938 C3.5625,-5.09896 3.34896,-5.41667 2.92188,-5.5625 C2.77604,-5.61458 2.61458,-5.64063 2.4375,-5.64063"/>
<path class="Note" fill="#78c7c7" transform="matrix(0.9936,0,0,0.9936,360.053,67.824)" d="M4.39063,-2.75 C5.01563,-2.75 5.54688,-2.58854 5.98438,-2.26563 C6.38021,-1.91146 6.57813,-1.46875 6.57813,-0.9375 C6.57813,-0.0416667 6.11979,0.796875 5.20313,1.57813 C4.26563,2.35938 3.26042,2.75 2.1875,2.75 C1.5625,2.75 1.03646,2.58854 0.609375,2.26563 C0.203125,1.91146 0,1.46875 0,0.9375 C0,0.0416667 0.46875,-0.796875 1.40625,-1.57813 C2.32292,-2.35938 3.31771,-2.75 4.39063,-2.75"/>
<path class="Note" fill="#ffffff" fill-rule="evenodd" d="M324.72,118.746 L330.681,118.746 L330.681,126.198 L324.72,126.198 L324.72,118.746 "/>
<path class="Note" transform="matrix(0.9936,0,0,0.9936,325.216,125.95)" d="M4.6875,-6.39063 L4.6875,-5.75 C3.46875,-4.125 2.66146,-2.49479 2.26563,-0.859375 C2.19271,-0.578125 2.13542,-0.291667 2.09375,0 L1.25,0 C1.54167,-1.32292 1.96875,-2.5 2.53125,-3.53125 C2.86458,-4.14583 3.30729,-4.84896 3.85938,-5.64063 L0.421875,-5.64063 L0.421875,-6.39063 L4.6875,-6.39063 "/>
<path class="Note" fill="#286704" transform="matrix(0.9936,0,0,0.9936,323.974,62.856)" d="M4.39063,-2.75 C5.01563,-2.75 5.54688,-2.58854 5.98438,-2.26563 C6.38021,-1.91146 6.57813,-1.46875 6.57813,-0.9375 C6.57813,-0.0416667 6.11979,0.796875 5.20313,1.57813 C4.26563,2.35938 3.26042,2.75 2.1875,2.75 C1.5625,2.75 1.03646,2.58854 0.609375,2.26563 C0.203125,1.91146 0,1.46875 0,0.9375 C0,0.0416667 0.46875,-0.796875 1.40625,-1.57813 C2.32292,-2.35938 3.31771,-2.75 4.39063,-2.75"/>
<path class="Note" fill="#ffffff" fill-rule="evenodd" d="M288.641,111.294 L294.603,111.294 L294.603,118.746 L288.641,118.746 L288.641,111.294 "/>
<path class="Note" transform="matrix(0.9936,0,0,0.9936,289.138,118.498)" d="M4.6875,-6.39063 L4.6875,-5.75 C3.46875,-4.125 2.66146,-2.49479 2.26563,-0.859375 C2.19271,-0.578125 2.13542,-0.291667 2.09375,0 L1.25,0 C1.54167,-1.32292 1.96875,-2.5 2.53125,-3.53125 C2.86458,-4.14583 3.30729,-4.84896 3.85938,-5.64063 L0.421875,-5.64063 L0.421875,-6.39063 L4.6875,-6.39063 "/>
<path class="Note" fill="#ff9ee6" transform="matrix(0.9936,0,0,0.9936,287.896,55.404)" d="M4.39063,-2.75 C5.01563,-2.75 5.54688,-2.58854 5.98438,-2.26563 C6.38021,-1.91146 6.57813,-1.46875 6.57813,-0.9375 C6.57813,-0.0416667 6.11979,0.796875 5.20313,1.57813 C4.26563,2.35938 3.26042,2.75 2.1875,2.75 C1.5625,2.75 1.03646,2.58854 0.609375,2.26563 C0.203125,1.91146 0,1.46875 0,0.9375 C0,0.0416667 0.46875,-0.796875 1.40625,-1.57813 C2.32292,-2.35938 3.31771,-2.75 4.39063,-2.75"/>
<path class="Note" fill="#ffffff" fill-rule="evenodd" d="M252.562,118.746 L258.524,118.746 L258.524,126.198 L252.562,126.198 L252.562,118.746 "/>
<path class="Note" transform="matrix(0.9936,0,0,0.9936,253.059,125.95)" d="M4.6875,-6.39063 L4.6875,-5.75 C3.46875,-4.125 2.66146,-2.49479 2.26563,-0.859375 C2.19271,-0.578125 2.13542,-0.291667 2.09375,0 L1.25,0 C1.54167,-1.32292 1.96875,-2.5 2.53125,-3.53125 C2.86458,-4.14583 3.30729,-4.84896 3.85938,-5.64063 L0.421875,-5.64063 L0.421875,-6.39063 L4.6875,-6.39063 "/>
<path class="Note" fill="#286704" transform="matrix(0.9936,0,0,0.9936,251.817,62.856)" d="M4.39063,-2.75 C5.01563,-2.75 5.54688,-2.58854 5.98438,-2.26563 C6.38021,-1.91146 6.57813,-1.46875 6.57813,-0.9375 C6.57813,-0.0416667 6.11979,0.796875 5.20313,1.57813 C4.26563,2.35938 3.26042,2.75 2.1875,2.75 C1.5625,2.75 1.03646,2.58854 0.609375,2.26563 C0.203125,1.91146 0,1.46875 0,0.9375 C0,0.0416667 0.46875,-0.796875 1.40625,-1.57813 C2.32292,-2.35938 3.31771,-2.75 4.39063,-2.75"/>
<path class="Note" fill="#ffffff" fill-rule="evenodd" d="M216.484,118.746 L222.445,118.746 L222.445,126.198 L216.484,126.198 L216.484,118.746 "/>
<path class="Note" transform="matrix(0.9936,0,0,0.9936,216.98,125.95)" d="M2.4375,-5.64063 C1.75,-5.64063 1.35417,-5.32813 1.25,-4.70313 C1.22917,-4.59896 1.21875,-4.47917 1.21875,-4.34375 L0.421875,-4.34375 C0.442708,-5.59375 1.01563,-6.27083 2.14063,-6.375 C2.23438,-6.38542 2.32813,-6.39063 2.42188,-6.39063 C3.26563,-6.39063 3.84375,-6.10938 4.15625,-5.54688 C4.29167,-5.28646 4.35938,-4.98438 4.35938,-4.64063 C4.35938,-4.00521 4.0625,-3.57292 3.46875,-3.34375 C4.03125,-3.14583 4.375,-2.81771 4.5,-2.35938 C4.54167,-2.19271 4.5625,-2.00521 4.5625,-1.79688 C4.5625,-1.05729 4.27604,-0.505208 3.70313,-0.140625 C3.33854,0.0885417 2.90104,0.203125 2.39063,0.203125 C1.21354,0.203125 0.526042,-0.348958 0.328125,-1.45313 C0.317708,-1.57813 0.302083,-1.71354 0.28125,-1.85938 L1.07813,-1.85938 C1.13021,-1.08854 1.46875,-0.65625 2.09375,-0.5625 C2.19792,-0.541667 2.30729,-0.53125 2.42188,-0.53125 C3.04688,-0.53125 3.45313,-0.765625 3.64063,-1.23438 C3.71354,-1.40104 3.75,-1.58854 3.75,-1.79688 C3.73958,-2.54688 3.29688,-2.92708 2.42188,-2.9375 L2.09375,-2.92188 L1.98438,-2.92188 L1.98438,-3.67188 C2.66146,-3.68229 3.10417,-3.77604 3.3125,-3.95313 C3.47917,-4.09896 3.5625,-4.31771 3.5625,-4.60938 C3.5625,-5.09896 3.34896,-5.41667 2.92188,-5.5625 C2.77604,-5.61458 2.61458,-5.64063 2.4375,-5.64063"/>
<path class="Note" fill="#78c7c7" transform="matrix(0.9936,0,0,0.9936,215.738,67.824)" d="M4.39063,-2.75 C5.01563,-2.75 5.54688,-2.58854 5.98438,-2.26563 C6.38021,-1.91146 6.57813,-1.46875 6.57813,-0.9375 C6.57813,-0.0416667 6.11979,0.796875 5.20313,1.57813 C4.26563,2.35938 3.26042,2.75 2.1875,2.75 C1.5625,2.75 1.03646,2.58854 0.609375,2.26563 C0.203125,1.91146 0,1.46875 0,0.9375 C0,0.0416667 0.46875,-0.796875 1.40625,-1.57813 C2.32292,-2.35938 3.31771,-2.75 4.39063,-2.75"/>
<path class="Note" fill="#ffffff" fill-rule="evenodd" d="M180.405,126.198 L186.366,126.198 L186.366,133.65 L180.405,133.65 L180.405,126.198 "/>
<path class="Note" transform="matrix(0.9936,0,0,0.9936,180.902,133.402)" d="M2.9375,-1.5 L0.25,-1.5 L0.25,-2.375 L3.15625,-6.39063 L3.73438,-6.39063 L3.73438,-2.23438 L4.6875,-2.23438 L4.6875,-1.5 L3.73438,-1.5 L3.73438,0 L2.9375,0 L2.9375,-1.5 M2.9375,-2.23438 L2.9375,-5.03125 L0.9375,-2.23438 L2.9375,-2.23438 "/>
<path class="Note" fill="#ff9ee6" transform="matrix(0.9936,0,0,0.9936,179.66,72.792)" d="M4.39063,-2.75 C5.01563,-2.75 5.54688,-2.58854 5.98438,-2.26563 C6.38021,-1.91146 6.57813,-1.46875 6.57813,-0.9375 C6.57813,-0.0416667 6.11979,0.796875 5.20313,1.57813 C4.26563,2.35938 3.26042,2.75 2.1875,2.75 C1.5625,2.75 1.03646,2.58854 0.609375,2.26563 C0.203125,1.91146 0,1.46875 0,0.9375 C0,0.0416667 0.46875,-0.796875 1.40625,-1.57813 C2.32292,-2.35938 3.31771,-2.75 4.39063,-2.75"/>
<path class="Note" fill="#ffffff" fill-rule="evenodd" d="M144.326,133.65 L150.288,133.65 L150.288,141.102 L144.326,141.102 L144.326,133.65 "/>
<path class="Note" transform="matrix(0.9936,0,0,0.9936,144.823,140.854)" d="M2.9375,-1.5 L0.25,-1.5 L0.25,-2.375 L3.15625,-6.39063 L3.73438,-6.39063 L3.73438,-2.23438 L4.6875,-2.23438 L4.6875,-1.5 L3.73438,-1.5 L3.73438,0 L2.9375,0 L2.9375,-1.5 M2.9375,-2.23438 L2.9375,-5.03125 L0.9375,-2.23438 L2.9375,-2.23438 "/>
<path class="Note" fill="#286704" transform="matrix(0.9936,0,0,0.9936,143.581,80.244)" d="M4.39063,-2.75 C5.01563,-2.75 5.54688,-2.58854 5.98438,-2.26563 C6.38021,-1.91146 6.57813,-1.46875 6.57813,-0.9375 C6.57813,-0.0416667 6.11979,0.796875 5.20313,1.57813 C4.26563,2.35938 3.26042,2.75 2.1875,2.75 C1.5625,2.75 1.03646,2.58854 0.609375,2.26563 C0.203125,1.91146 0,1.46875 0,0.9375 C0,0.0416667 0.46875,-0.796875 1.40625,-1.57813 C2.32292,-2.35938 3.31771,-2.75 4.39063,-2.75"/>
<path class="Note" fill="#ffffff" fill-rule="evenodd" d="M108.247,141.102 L114.209,141.102 L114.209,148.554 L108.247,148.554 L108.247,141.102 "/>
<path class="Note" transform="matrix(0.9936,0,0,0.9936,108.744,148.306)" d="M4.28125,-6.39063 L4.28125,-5.64063 L1.625,-5.64063 L1.375,-3.8125 C1.73958,-4.09375 2.13542,-4.23438 2.5625,-4.23438 C3.28125,-4.23438 3.83333,-3.97396 4.21875,-3.45313 C4.48958,-3.07813 4.625,-2.625 4.625,-2.09375 C4.625,-1.3125 4.35938,-0.708333 3.82813,-0.28125 C3.44271,0.0416667 2.97917,0.203125 2.4375,0.203125 C1.26042,0.203125 0.557292,-0.359375 0.328125,-1.48438 C0.328125,-1.50521 0.322917,-1.53125 0.3125,-1.5625 L1.10938,-1.5625 C1.30729,-0.885417 1.73958,-0.541667 2.40625,-0.53125 C3.02083,-0.53125 3.44271,-0.770833 3.67188,-1.25 C3.76563,-1.46875 3.8125,-1.71354 3.8125,-1.98438 C3.8125,-2.63021 3.58333,-3.07813 3.125,-3.32813 C2.91667,-3.44271 2.67708,-3.5 2.40625,-3.5 C2.03125,-3.5 1.70833,-3.38021 1.4375,-3.14063 C1.375,-3.07813 1.3125,-3.01042 1.25,-2.9375 L0.515625,-2.9375 L0.984375,-6.39063 L4.28125,-6.39063 "/>
<path class="Note" fill="#78c7c7" transform="matrix(0.9936,0,0,0.9936,107.502,85.212)" d="M4.39063,-2.75 C5.01563,-2.75 5.54688,-2.58854 5.98438,-2.26563 C6.38021,-1.91146 6.57813,-1.46875 6.57813,-0.9375 C6.57813,-0.0416667 6.11979,0.796875 5.20313,1.57813 C4.26563,2.35938 3.26042,2.75 2.1875,2.75 C1.5625,2.75 1.03646,2.58854 0.609375,2.26563 C0.203125,1.91146 0,1.46875 0,0.9375 C0,0.0416667 0.46875,-0.796875 1.40625,-1.57813 C2.32292,-2.35938 3.31771,-2.75 4.39063,-2.75"/>
<path class="Note" fill="#ffffff" fill-rule="evenodd" d="M72.1687,141.102 L78.1303,141.102 L78.1303,148.554 L72.1687,148.554 L72.1687,141.102 "/>
<path class="Note" transform="matrix(0.9936,0,0,0.9936,72.6655,148.306)" d="M0.453125,-4.17188 C0.494792,-5.64063 1.19792,-6.38021 2.5625,-6.39063 C3.28125,-6.39063 3.83333,-6.14583 4.21875,-5.65625 C4.46875,-5.32292 4.59375,-4.93229 4.59375,-4.48438 C4.59375,-3.68229 4.14583,-3.03125 3.25,-2.53125 L2.34375,-2.04688 C1.79167,-1.75521 1.44271,-1.4375 1.29688,-1.09375 C1.24479,-0.989583 1.21354,-0.869792 1.20313,-0.734375 L4.5625,-0.734375 L4.5625,0 L0.3125,0 C0.354167,-0.760417 0.520833,-1.33854 0.8125,-1.73438 C1.07292,-2.05729 1.5,-2.38542 2.09375,-2.71875 L2.92188,-3.1875 C3.49479,-3.52083 3.78646,-3.94271 3.79688,-4.45313 C3.79688,-4.88021 3.61458,-5.21354 3.25,-5.45313 C3.04167,-5.57813 2.80208,-5.64063 2.53125,-5.64063 C1.73958,-5.64063 1.3125,-5.16667 1.25,-4.21875 C1.25,-4.19792 1.25,-4.18229 1.25,-4.17188 L0.453125,-4.17188 "/>
<path class="Note" fill="#ff9ee6" transform="matrix(0.9936,0,0,0.9936,71.4235,90.18)" d="M4.39063,-2.75 C5.01563,-2.75 5.54688,-2.58854 5.98438,-2.26563 C6.38021,-1.91146 6.57813,-1.46875 6.57813,-0.9375 C6.57813,-0.0416667 6.11979,0.796875 5.20313,1.57813 C4.26563,2.35938 3.26042,2.75 2.1875,2.75 C1.5625,2.75 1.03646,2.58854 0.609375,2.26563 C0.203125,1.91146 0,1.46875 0,0.9375 C0,0.0416667 0.46875,-0.796875 1.40625,-1.57813 C2.32292,-2.35938 3.31771,-2.75 4.39063,-2.75"/>
<path class="Clef" transform="matrix(0.9936,0,0,0.9936,32.0544,133.65)" d="M5.32813,8.5 C5.32813,8.86458 5.04167,9.04688 4.46875,9.04688 C4.02083,9.04688 3.625,8.91146 3.28125,8.64063 C2.95833,8.34896 2.79688,7.98438 2.79688,7.54688 C2.79688,6.76563 3.27083,6.14063 4.21875,5.67188 C5.14583,5.18229 6.23438,4.9375 7.48438,4.9375 C7.96354,4.9375 8.47917,4.97396 9.03125,5.04688 C9.42708,5.09896 9.875,5.20313 10.375,5.35938 C10.8125,5.49479 11.1563,5.70573 11.4063,5.99219 C11.6563,6.27865 11.7813,6.61458 11.7813,7 C11.7813,7.89583 11.3177,8.63021 10.3906,9.20313 C11.7448,9.45313 12.4271,10.0573 12.4375,11.0156 C12.4375,11.8281 12.0729,12.5599 11.3438,13.2109 C10.6146,13.862 9.79167,14.1875 8.875,14.1875 C8.47917,14.1875 8.07813,14.0938 7.67188,13.9063 C7.29688,13.7292 7.03125,13.5625 6.875,13.4063 C6.71875,13.2188 6.64063,13.0781 6.64063,12.9844 C6.64063,12.8594 6.70833,12.75 6.84375,12.6563 C6.95833,12.5417 7.07813,12.4844 7.20313,12.4844 C7.25521,12.4844 7.36719,12.5677 7.53906,12.7344 C7.71094,12.901 7.95833,12.9844 8.28125,12.9844 C8.72917,12.9844 9.16146,12.7969 9.57813,12.4219 C9.97396,12.0573 10.1719,11.6198 10.1719,11.1094 C10.1719,10.6719 9.98438,10.3542 9.60938,10.1563 C9.24479,9.95833 8.76563,9.85938 8.17188,9.85938 C8.06771,9.85938 8.01563,9.75 8.01563,9.53125 C8.01563,9.21875 8.13021,9.0625 8.35938,9.0625 C8.72396,9.0625 9.05208,8.90625 9.34375,8.59375 C9.61458,8.26042 9.75,7.90104 9.75,7.51563 C9.75,7.40104 9.71875,7.22917 9.65625,7 C9.60417,6.84375 9.44792,6.65104 9.1875,6.42188 C8.9375,6.21354 8.58854,6.07292 8.14063,6 C8.02604,6.63542 7.88021,7.44792 7.70313,8.4375 C7.52604,9.42708 7.40625,10.0781 7.34375,10.3906 C7.125,11.5156 6.72396,12.4583 6.14063,13.2188 C5.52604,14.0313 4.86458,14.4375 4.15625,14.4375 C3.9375,14.4375 3.71354,14.3854 3.48438,14.2813 C3.29688,14.1979 3.0625,14.0365 2.78125,13.7969 C2.52083,13.5885 2.34375,13.4479 2.25,13.375 C2.19792,13.3438 2.17188,13.2865 2.17188,13.2031 C2.17188,13.0781 2.21875,12.9635 2.3125,12.8594 C2.41667,12.7344 2.52604,12.6719 2.64063,12.6719 C2.71354,12.6719 2.89323,12.7969 3.17969,13.0469 C3.46615,13.2969 3.76563,13.4219 4.07813,13.4219 C4.68229,13.4219 5.13542,13.0365 5.4375,12.2656 C5.71875,11.526 5.85938,10.6094 5.85938,9.51563 L5.85938,9.35938 C5.85938,8.63021 5.97917,7.54167 6.21875,6.09375 C5.80208,6.22917 5.46875,6.42708 5.21875,6.6875 C4.95833,6.94792 4.82813,7.21875 4.82813,7.5 C4.82813,7.71875 4.91146,7.90625 5.07813,8.0625 C5.24479,8.21875 5.32813,8.36458 5.32813,8.5 M1.40625,2.39063 C1.46875,2.39063 1.625,2.45313 1.875,2.57813 C2.13542,2.71354 2.35938,2.78125 2.54688,2.78125 C3.03646,2.78125 3.64063,2.42188 4.35938,1.70313 C6.43229,-0.411458 7.85938,-2.65104 8.64063,-5.01563 C8.79688,-5.51563 9.17708,-5.76563 9.78125,-5.76563 C10.0938,-5.76563 10.3646,-5.69792 10.5938,-5.5625 C10.8125,-5.42708 10.9219,-5.28646 10.9219,-5.14063 L10.5625,2.17188 C10.5625,2.55729 10.7031,2.75 10.9844,2.75 C11.1198,2.75 11.3281,2.6875 11.6094,2.5625 C11.8698,2.42708 12.026,2.35938 12.0781,2.35938 C12.1823,2.35938 12.2448,2.47396 12.2656,2.70313 C12.2656,2.91146 12.1823,3.04167 12.0156,3.09375 C11.8802,3.125 11.6198,3.24479 11.2344,3.45313 C10.8281,3.66146 10.5104,3.76563 10.2813,3.76563 C9.78125,3.76563 9.42708,3.375 9.21875,2.59375 C8.89583,1.375 8.6875,0.104167 8.59375,-1.21875 C8.07292,-0.552083 7.49479,0.119792 6.85938,0.796875 C7.08854,1.24479 7.51563,1.46875 8.14063,1.46875 C8.23438,1.46875 8.30729,1.46354 8.35938,1.45313 L8.375,1.45313 C8.47917,1.45313 8.53125,1.54688 8.53125,1.73438 C8.53125,1.98438 8.44792,2.13542 8.28125,2.1875 C8.01042,2.28125 7.72396,2.32813 7.42188,2.32813 C6.77604,2.32813 6.30729,2.10417 6.01563,1.65625 L5.23438,2.35938 C4.14063,3.29688 3.25,3.76563 2.5625,3.76563 C2.375,3.76563 2.1875,3.73438 2,3.67188 C1.84375,3.60938 1.66146,3.51042 1.45313,3.375 C1.36979,3.34375 1.27865,3.29688 1.17969,3.23438 C1.08073,3.17188 1.02083,3.13542 1,3.125 C0.9375,3.10417 0.90625,3.04688 0.90625,2.95313 C0.90625,2.84896 0.958333,2.72396 1.0625,2.57813 C1.14583,2.45313 1.26042,2.39063 1.40625,2.39063 M5.76563,-10.7969 C5.76563,-10.474 5.48438,-10.3125 4.92188,-10.3125 C4.43229,-10.3125 4.00521,-10.474 3.64063,-10.7969 C3.28646,-11.1302 3.10938,-11.5313 3.10938,-12 C3.10938,-12.4479 3.25,-12.8385 3.53125,-13.1719 C3.83333,-13.5052 4.21875,-13.7552 4.6875,-13.9219 C5.11458,-14.0781 5.59896,-14.2031 6.14063,-14.2969 C6.69271,-14.3594 7.22396,-14.3906 7.73438,-14.3906 C8.03646,-14.3906 8.59896,-14.2552 9.42188,-13.9844 C10.2552,-13.7135 10.8333,-13.5781 11.1563,-13.5781 C11.5625,-13.5781 11.9479,-13.651 12.3125,-13.7969 C12.6042,-13.9219 12.8906,-14.0677 13.1719,-14.2344 C13.3906,-14.3802 13.5104,-14.4531 13.5313,-14.4531 C13.6563,-14.4531 13.7604,-14.4167 13.8438,-14.3438 C13.9479,-14.2396 14,-14.151 14,-14.0781 C14,-13.9948 13.8802,-13.849 13.6406,-13.6406 C13.3802,-13.401 13.0078,-13.1641 12.5234,-12.9297 C12.0391,-12.6953 11.5313,-12.5781 11,-12.5781 C10.7604,-12.5781 10.4688,-12.6198 10.125,-12.7031 C9.89583,-11.2552 9.66146,-9.96875 9.42188,-8.84375 C9.21354,-7.85417 8.79688,-6.98958 8.17188,-6.25 C7.56771,-5.51042 6.89583,-5.14063 6.15625,-5.14063 C5.85417,-5.14063 5.58854,-5.19792 5.35938,-5.3125 C5.09896,-5.44792 4.82292,-5.64583 4.53125,-5.90625 C4.30208,-6.09375 4.08333,-6.26563 3.875,-6.42188 C3.82292,-6.46354 3.79688,-6.52604 3.79688,-6.60938 C3.79688,-6.69271 3.84896,-6.80729 3.95313,-6.95313 C4.05729,-7.06771 4.15104,-7.125 4.23438,-7.125 C4.31771,-7.125 4.54167,-6.96354 4.90625,-6.64063 C5.27083,-6.31771 5.59375,-6.15625 5.875,-6.15625 C6.39583,-6.15625 6.80208,-6.45313 7.09375,-7.04688 C7.375,-7.64063 7.53646,-8.34375 7.57813,-9.15625 C7.64063,-10.5 7.79167,-11.8906 8.03125,-13.3281 C7.73958,-13.3906 7.52604,-13.4219 7.39063,-13.4219 C6.76563,-13.4219 6.22917,-13.2917 5.78125,-13.0313 C5.34375,-12.7813 5.125,-12.4427 5.125,-12.0156 C5.125,-11.7031 5.22917,-11.4635 5.4375,-11.2969 C5.65625,-11.1094 5.76563,-10.9427 5.76563,-10.7969"/>
<path class="Clef" transform="matrix(0.9936,0,0,0.9936,32.0544,77.76)" d="M7.34375,-5.125 C7.34375,-5.125 7.38542,-5.125 7.46875,-5.125 C7.52083,-5.13542 7.5625,-5.14063 7.59375,-5.14063 C9.05208,-5.14063 10.25,-4.625 11.1875,-3.59375 C12.125,-2.58333 12.5938,-1.40104 12.5938,-0.046875 C12.5938,1.64063 11.901,3.01042 10.5156,4.0625 C10.151,4.35417 9.67188,4.58854 9.07813,4.76563 C9.15104,5.60938 9.1875,6.29167 9.1875,6.8125 C9.1875,6.91667 9.17188,7.29688 9.14063,7.95313 C9.08854,9.16146 8.67188,10.2083 7.89063,11.0938 C7.14063,11.9688 6.20313,12.4063 5.07813,12.4063 C4.02604,12.4063 3.13021,12.0365 2.39063,11.2969 C1.64063,10.5365 1.26563,9.625 1.26563,8.5625 C1.26563,8 1.48438,7.52083 1.92188,7.125 C2.35938,6.73958 2.86979,6.54688 3.45313,6.54688 C3.97396,6.54688 4.41146,6.75 4.76563,7.15625 C5.13021,7.53125 5.3125,8 5.3125,8.5625 C5.3125,9.0625 5.13021,9.49479 4.76563,9.85938 C4.40104,10.224 3.96354,10.4063 3.45313,10.4063 C3.24479,10.4063 3.04688,10.3698 2.85938,10.2969 C3.43229,11.1406 4.19271,11.5625 5.14063,11.5625 C6.03646,11.5625 6.77083,11.1979 7.34375,10.4688 C7.94792,9.71875 8.27604,8.83854 8.32813,7.82813 C8.34896,7.20313 8.35938,6.84896 8.35938,6.76563 C8.35938,6.03646 8.33333,5.4375 8.28125,4.96875 C7.63542,5.07292 7.05729,5.125 6.54688,5.125 C4.73438,5.125 3.19271,4.40625 1.92188,2.96875 C0.671875,1.52083 0.046875,-0.197917 0.046875,-2.1875 C0.046875,-2.60417 0.0833333,-3.02604 0.15625,-3.45313 C0.239583,-3.80729 0.338542,-4.19271 0.453125,-4.60938 C0.515625,-4.84896 0.692708,-5.22917 0.984375,-5.75 C1.08854,-5.90625 1.20573,-6.10156 1.33594,-6.33594 C1.46615,-6.57031 1.55729,-6.72396 1.60938,-6.79688 C1.73438,-7.05729 1.98438,-7.41146 2.35938,-7.85938 C2.46354,-7.97396 2.57292,-8.10156 2.6875,-8.24219 C2.80208,-8.38281 2.89844,-8.5 2.97656,-8.59375 C3.05469,-8.6875 3.11198,-8.76042 3.14844,-8.8125 C3.1849,-8.86458 3.47917,-9.20833 4.03125,-9.84375 C4.15625,-9.97917 4.28125,-10.1198 4.40625,-10.2656 C4.53125,-10.4115 4.63281,-10.5286 4.71094,-10.6172 C4.78906,-10.7057 4.84896,-10.7656 4.89063,-10.7969 C4.42188,-12.349 4.125,-13.5885 4,-14.5156 C3.91667,-15.2552 3.875,-16.2708 3.875,-17.5625 C3.875,-18.6979 4.13542,-19.7604 4.65625,-20.75 C5.15625,-21.7708 5.86458,-22.6094 6.78125,-23.2656 C6.84375,-23.3073 6.90625,-23.3281 6.96875,-23.3281 C7.0625,-23.3281 7.13021,-23.3073 7.17188,-23.2656 C7.86979,-22.4219 8.47396,-21.3229 8.98438,-19.9688 C9.50521,-18.6146 9.76563,-17.3802 9.76563,-16.2656 C9.76563,-15.0156 9.46875,-13.8438 8.875,-12.75 C8.19792,-11.5938 7.32292,-10.3958 6.25,-9.15625 C6.52083,-8.30208 6.88542,-6.95833 7.34375,-5.125 M9,3.96875 C9.67708,3.71875 10.2083,3.29688 10.5938,2.70313 C11.0104,2.13021 11.2188,1.48438 11.2188,0.765625 C11.2188,-0.161458 10.9063,-0.984375 10.2813,-1.70313 C9.63542,-2.44271 8.81771,-2.85938 7.82813,-2.95313 C8.39063,-0.203125 8.78125,2.10417 9,3.96875 M1.45313,-0.546875 C1.45313,0.744792 1.97396,1.88021 3.01563,2.85938 C4.07813,3.80729 5.27604,4.28125 6.60938,4.28125 C7.15104,4.28125 7.68229,4.23958 8.20313,4.15625 C7.99479,2.17708 7.58333,-0.192708 6.96875,-2.95313 C6.22917,-2.86979 5.64063,-2.60938 5.20313,-2.17188 C4.76563,-1.71354 4.54688,-1.19792 4.54688,-0.625 C4.54688,0.364583 5.07813,1.16667 6.14063,1.78125 C6.22396,1.875 6.26563,1.97396 6.26563,2.07813 C6.26563,2.18229 6.22396,2.27604 6.14063,2.35938 C6.05729,2.45313 5.95833,2.5 5.84375,2.5 C5.83333,2.5 5.77604,2.48958 5.67188,2.46875 C4.92188,2.0625 4.34896,1.54167 3.95313,0.90625 C3.56771,0.21875 3.375,-0.46875 3.375,-1.15625 C3.375,-2.05208 3.65625,-2.86458 4.21875,-3.59375 C4.80208,-4.32292 5.5625,-4.79167 6.5,-5 C6.13542,-6.45833 5.83854,-7.59896 5.60938,-8.42188 C5.40104,-8.18229 5.15104,-7.89844 4.85938,-7.57031 C4.56771,-7.24219 4.39583,-7.04167 4.34375,-6.96875 C3.875,-6.36458 3.51563,-5.89063 3.26563,-5.54688 C2.81771,-4.93229 2.48958,-4.40625 2.28125,-3.96875 C2.0625,-3.46875 1.86979,-2.92708 1.70313,-2.34375 C1.53646,-1.78125 1.45313,-1.18229 1.45313,-0.546875 M7.96875,-20.4063 C6.98958,-19.9271 6.22396,-19.2396 5.67188,-18.3438 C5.09896,-17.4167 4.8125,-16.4219 4.8125,-15.3594 C4.8125,-14.4219 5.04688,-13.1563 5.51563,-11.5625 C6.45313,-12.6979 7.15625,-13.7448 7.625,-14.7031 C8.11458,-15.724 8.35938,-16.7865 8.35938,-17.8906 C8.35938,-18.724 8.22917,-19.5625 7.96875,-20.4063 M5.82813,15.2344 C6.16146,14.901 6.32813,14.5625 6.32813,14.2188 C6.30729,13.9479 6.19271,13.7396 5.98438,13.5938 C5.74479,13.4375 5.46875,13.3594 5.15625,13.3594 C4.9375,13.3594 4.75521,13.4323 4.60938,13.5781 C4.48438,13.7031 4.42188,13.8646 4.42188,14.0625 C4.42188,14.3021 4.51563,14.4792 4.70313,14.5938 L5.82813,15.2344 M6.14063,15.4063 C6.68229,15.7083 6.95313,16.1146 6.95313,16.625 L6.95313,16.6875 C6.95313,17.0833 6.79167,17.4219 6.46875,17.7031 C6.14583,17.9844 5.68229,18.125 5.07813,18.125 C4.58854,18.125 4.16146,17.9948 3.79688,17.7344 C3.43229,17.4844 3.25,17.1458 3.25,16.7188 C3.25,16.5521 3.29167,16.3958 3.375,16.25 C3.47917,16.0833 3.56771,15.9688 3.64063,15.9063 L4,15.5313 C3.60417,15.2604 3.40625,14.901 3.40625,14.4531 C3.40625,14.099 3.5625,13.7865 3.875,13.5156 C4.19792,13.2552 4.625,13.125 5.15625,13.125 C5.60417,13.125 5.98438,13.224 6.29688,13.4219 C6.60938,13.6198 6.76563,13.8854 6.76563,14.2188 C6.76563,14.5729 6.55729,14.9688 6.14063,15.4063 M4.29688,15.7031 C3.91146,16.0469 3.70313,16.3854 3.67188,16.7188 C3.70313,17.0729 3.84896,17.3542 4.10938,17.5625 C4.39063,17.7813 4.71354,17.8906 5.07813,17.8906 C5.33854,17.8906 5.54688,17.8073 5.70313,17.6406 C5.85938,17.4844 5.9375,17.2969 5.9375,17.0781 C5.92708,16.7865 5.8125,16.5781 5.59375,16.4531 L4.29688,15.7031 "/>
<path class="KeySig" transform="matrix(0.9936,0,0,0.9936,54.3173,70.308)" d="M4.3125,6.23438 C4.3125,6.48438 4.1901,6.60938 3.94531,6.60938 C3.70052,6.60938 3.57813,6.48438 3.57813,6.23438 L3.57813,3.34375 L1.92188,3.96875 L1.92188,7.125 C1.92188,7.375 1.79688,7.5 1.54688,7.5 C1.29688,7.5 1.17188,7.375 1.17188,7.125 L1.17188,4.21875 L0.546875,4.45313 C0.536458,4.46354 0.484375,4.46875 0.390625,4.46875 C0.286458,4.46875 0.195313,4.42969 0.117188,4.35156 C0.0390625,4.27344 0,4.18229 0,4.07813 L0,2.875 C0,2.67708 0.0833333,2.55208 0.25,2.5 L1.17188,2.1875 L1.17188,-1.01563 L0.546875,-0.796875 C0.536458,-0.786458 0.484375,-0.78125 0.390625,-0.78125 C0.286458,-0.78125 0.195313,-0.820313 0.117188,-0.898438 C0.0390625,-0.976563 0,-1.06771 0,-1.17188 L0,-2.39063 C0,-2.56771 0.0833333,-2.68229 0.25,-2.73438 L1.17188,-3.09375 L1.17188,-6.23438 C1.17188,-6.48438 1.29688,-6.60938 1.54688,-6.60938 C1.79688,-6.60938 1.92188,-6.48438 1.92188,-6.23438 L1.92188,-3.34375 L3.57813,-3.96875 L3.57813,-7.125 C3.57813,-7.375 3.70052,-7.5 3.94531,-7.5 C4.1901,-7.5 4.3125,-7.375 4.3125,-7.125 L4.3125,-4.21875 L4.96875,-4.45313 C4.97917,-4.46354 5.02083,-4.46875 5.09375,-4.46875 C5.1875,-4.46875 5.28646,-4.43229 5.39063,-4.35938 C5.47396,-4.27604 5.51563,-4.18229 5.51563,-4.07813 L5.51563,-2.875 C5.51563,-2.6875 5.42188,-2.5625 5.23438,-2.5 L4.3125,-2.1875 L4.3125,1.01563 L4.96875,0.796875 C4.97917,0.786458 5.02083,0.78125 5.09375,0.78125 C5.1875,0.78125 5.28646,0.822917 5.39063,0.90625 C5.47396,0.979167 5.51563,1.06771 5.51563,1.17188 L5.51563,2.39063 C5.51563,2.55729 5.42188,2.67188 5.23438,2.73438 L4.3125,3.09375 L4.3125,6.23438 M3.57813,-1.89063 L1.92188,-1.3125 L1.92188,1.89063 L3.57813,1.3125 L3.57813,-1.89063 "/>
<path class="KeySig" transform="matrix(0.9936,0,0,0.9936,49.3492,62.856)" d="M4.3125,6.23438 C4.3125,6.48438 4.1901,6.60938 3.94531,6.60938 C3.70052,6.60938 3.57813,6.48438 3.57813,6.23438 L3.57813,3.34375 L1.92188,3.96875 L1.92188,7.125 C1.92188,7.375 1.79688,7.5 1.54688,7.5 C1.29688,7.5 1.17188,7.375 1.17188,7.125 L1.17188,4.21875 L0.546875,4.45313 C0.536458,4.46354 0.484375,4.46875 0.390625,4.46875 C0.286458,4.46875 0.195313,4.42969 0.117188,4.35156 C0.0390625,4.27344 0,4.18229 0,4.07813 L0,2.875 C0,2.67708 0.0833333,2.55208 0.25,2.5 L1.17188,2.1875 L1.17188,-1.01563 L0.546875,-0.796875 C0.536458,-0.786458 0.484375,-0.78125 0.390625,-0.78125 C0.286458,-0.78125 0.195313,-0.820313 0.117188,-0.898438 C0.0390625,-0.976563 0,-1.06771 0,-1.17188 L0,-2.39063 C0,-2.56771 0.0833333,-2.68229 0.25,-2.73438 L1.17188,-3.09375 L1.17188,-6.23438 C1.17188,-6.48438 1.29688,-6.60938 1.54688,-6.60938 C1.79688,-6.60938 1.92188,-6.48438 1.92188,-6.23438 L1.92188,-3.34375 L3.57813,-3.96875 L3.57813,-7.125 C3.57813,-7.375 3.70052,-7.5 3.94531,-7.5 C4.1901,-7.5 4.3125,-7.375 4.3125,-7.125 L4.3125,-4.21875 L4.96875,-4.45313 C4.97917,-4.46354 5.02083,-4.46875 5.09375,-4.46875 C5.1875,-4.46875 5.28646,-4.43229 5.39063,-4.35938 C5.47396,-4.27604 5.51563,-4.18229 5.51563,-4.07813 L5.51563,-2.875 C5.51563,-2.6875 5.42188,-2.5625 5.23438,-2.5 L4.3125,-2.1875 L4.3125,1.01563 L4.96875,0.796875 C4.97917,0.786458 5.02083,0.78125 5.09375,0.78125 C5.1875,0.78125 5.28646,0.822917 5.39063,0.90625 C5.47396,0.979167 5.51563,1.06771 5.51563,1.17188 L5.51563,2.39063 C5.51563,2.55729 5.42188,2.67188 5.23438,2.73438 L4.3125,3.09375 L4.3125,6.23438 M3.57813,-1.89063 L1.92188,-1.3125 L1.92188,1.89063 L3.57813,1.3125 L3.57813,-1.89063 "/>
<path class="Beam" fill-rule="evenodd" d="M402.027,55.3373 L474.83,62.856 L474.83,65.34 L402.027,57.8213 L402.027,55.3373 "/>
<path class="Beam" fill-rule="evenodd" d="M287.896,76.518 L360.699,81.5305 L360.699,84.0145 L287.896,79.002 L287.896,76.518 "/>
<path class="Beam" fill-rule="evenodd" d="M179.66,86.454 L252.463,80.1884 L252.463,82.6724 L179.66,88.938 L179.66,86.454 "/>
<path class="Beam" fill-rule="evenodd" d="M77.3183,71.6056 L150.122,65.34 L150.122,67.824 L77.3183,74.0896 L77.3183,71.6056 "/>
<path class="Fingering" d="M499.353,87.9456 C499.238,87.9456 499.045,88.0029 498.775,88.1175 L498.775,88.0081 L500.212,87.2737 L500.275,87.2894 L500.275,92.0862 C500.275,92.2946 500.337,92.43 500.462,92.4925 C500.566,92.5342 500.759,92.555 501.04,92.555 L501.04,92.68 L498.821,92.68 L498.821,92.555 C499.176,92.5446 499.4,92.4821 499.493,92.3675 C499.556,92.2737 499.587,92.1279 499.587,91.93 L499.587,88.3206 C499.577,88.0706 499.499,87.9456 499.353,87.9456"/>
<path class="Fingering" d="M465.587,85.8995 L465.587,86.3839 L464.758,86.3839 L464.758,87.712 L464.149,87.712 L464.149,86.3839 L461.899,86.3839 L461.899,85.8995 L464.415,82.3057 L464.758,82.3057 L464.758,85.8995 L465.587,85.8995 M464.133,85.8995 L464.133,83.1495 L462.227,85.8995 L464.133,85.8995 "/>
<path class="Fingering" d="M426.367,82.119 C426.492,82.119 426.674,82.1867 426.914,82.3221 C427.164,82.4784 427.378,82.5565 427.555,82.5565 C427.919,82.5565 428.206,82.395 428.414,82.0721 C428.539,81.8638 428.602,81.6294 428.602,81.369 C428.602,80.6086 428.148,80.1919 427.242,80.119 C427.148,80.1086 427.049,80.1034 426.945,80.1034 L426.945,79.994 C427.549,79.7961 427.945,79.5409 428.133,79.2284 C428.227,79.0617 428.273,78.8794 428.273,78.6815 C428.273,78.3273 428.128,78.0721 427.836,77.9159 C427.701,77.8534 427.555,77.8221 427.398,77.8221 C426.951,77.8221 426.581,78.0565 426.289,78.5252 C426.258,78.5669 426.232,78.6138 426.211,78.6659 L426.086,78.6346 C426.336,77.9575 426.701,77.5461 427.18,77.4002 C427.326,77.3586 427.487,77.3377 427.664,77.3377 C428.143,77.3377 428.497,77.5044 428.727,77.8377 C428.852,78.0148 428.914,78.2127 428.914,78.4315 C428.914,78.7544 428.763,79.0461 428.461,79.3065 C428.367,79.3794 428.268,79.4575 428.164,79.5409 C428.643,79.7492 428.951,80.0357 429.086,80.4002 C429.148,80.5773 429.18,80.7752 429.18,80.994 C429.18,81.6294 428.914,82.1242 428.383,82.4784 C427.987,82.7284 427.518,82.8534 426.977,82.8534 C426.487,82.8534 426.195,82.744 426.102,82.5252 C426.081,82.4836 426.07,82.4419 426.07,82.4002 C426.07,82.244 426.148,82.1555 426.305,82.1346 C426.326,82.1242 426.346,82.119 426.367,82.119"/>
<path class="Fingering" d="M393.429,73.4795 L393.429,73.9639 L392.601,73.9639 L392.601,75.292 L391.992,75.292 L391.992,73.9639 L389.742,73.9639 L389.742,73.4795 L392.257,69.8858 L392.601,69.8858 L392.601,73.4795 L393.429,73.4795 M391.976,73.4795 L391.976,70.7295 L390.07,73.4795 L391.976,73.4795 "/>
<path class="Fingering" d="M353.819,66.5115 C354.059,65.4907 354.585,64.9646 355.397,64.9334 C355.429,64.9334 355.455,64.9334 355.475,64.9334 C355.965,64.9334 356.356,65.1105 356.647,65.4646 C356.856,65.725 356.96,66.0167 356.96,66.3396 C356.96,66.9334 356.642,67.574 356.007,68.2615 C355.986,68.2823 355.96,68.3032 355.929,68.324 L354.6,69.7459 L356.507,69.7459 C356.715,69.7459 356.876,69.6886 356.991,69.574 C357.064,69.5011 357.152,69.3813 357.257,69.2146 L357.366,69.2459 L356.929,70.324 L353.804,70.324 L353.804,70.2302 L355.225,68.7146 C355.902,67.975 356.251,67.2823 356.272,66.6365 C356.272,66.1886 356.1,65.8657 355.757,65.6677 C355.58,65.5636 355.376,65.5115 355.147,65.5115 C354.793,65.5115 354.517,65.6469 354.319,65.9177 C354.205,66.074 354.095,66.2875 353.991,66.5584 L353.819,66.5115 "/>
<path class="Fingering" d="M317.74,61.5435 C317.98,60.5227 318.506,59.9966 319.319,59.9654 C319.35,59.9654 319.376,59.9654 319.397,59.9654 C319.886,59.9654 320.277,60.1425 320.569,60.4966 C320.777,60.757 320.881,61.0487 320.881,61.3716 C320.881,61.9654 320.563,62.606 319.928,63.2935 C319.907,63.3143 319.881,63.3352 319.85,63.356 L318.522,64.7779 L320.428,64.7779 C320.636,64.7779 320.798,64.7206 320.912,64.606 C320.985,64.5331 321.074,64.4133 321.178,64.2466 L321.287,64.2779 L320.85,65.356 L317.725,65.356 L317.725,65.2622 L319.147,63.7466 C319.824,63.007 320.173,62.3143 320.194,61.6685 C320.194,61.2206 320.022,60.8977 319.678,60.6997 C319.501,60.5956 319.298,60.5435 319.069,60.5435 C318.714,60.5435 318.438,60.6789 318.24,60.9497 C318.126,61.106 318.016,61.3195 317.912,61.5904 L317.74,61.5435 "/>
<path class="Fingering" d="M282.052,57.279 C282.177,57.279 282.36,57.3467 282.599,57.4821 C282.849,57.6384 283.063,57.7165 283.24,57.7165 C283.604,57.7165 283.891,57.555 284.099,57.2321 C284.224,57.0238 284.287,56.7894 284.287,56.529 C284.287,55.7686 283.834,55.3519 282.927,55.279 C282.834,55.2686 282.735,55.2634 282.63,55.2634 L282.63,55.154 C283.235,54.9561 283.63,54.7009 283.818,54.3884 C283.912,54.2217 283.959,54.0394 283.959,53.8415 C283.959,53.4873 283.813,53.2321 283.521,53.0759 C283.386,53.0134 283.24,52.9821 283.084,52.9821 C282.636,52.9821 282.266,53.2165 281.974,53.6852 C281.943,53.7269 281.917,53.7738 281.896,53.8259 L281.771,53.7946 C282.021,53.1175 282.386,52.7061 282.865,52.5602 C283.011,52.5186 283.172,52.4977 283.349,52.4977 C283.828,52.4977 284.183,52.6644 284.412,52.9977 C284.537,53.1748 284.599,53.3727 284.599,53.5915 C284.599,53.9144 284.448,54.2061 284.146,54.4665 C284.052,54.5394 283.953,54.6175 283.849,54.7009 C284.328,54.9092 284.636,55.1957 284.771,55.5602 C284.834,55.7373 284.865,55.9352 284.865,56.154 C284.865,56.7894 284.599,57.2842 284.068,57.6384 C283.672,57.8884 283.203,58.0134 282.662,58.0134 C282.172,58.0134 281.88,57.904 281.787,57.6852 C281.766,57.6436 281.755,57.6019 281.755,57.5602 C281.755,57.404 281.834,57.3155 281.99,57.2946 C282.011,57.2842 282.032,57.279 282.052,57.279"/>
<path class="Fingering" d="M245.583,61.5435 C245.823,60.5227 246.349,59.9966 247.161,59.9654 C247.192,59.9654 247.218,59.9654 247.239,59.9654 C247.729,59.9654 248.119,60.1425 248.411,60.4966 C248.619,60.757 248.724,61.0487 248.724,61.3716 C248.724,61.9654 248.406,62.606 247.771,63.2935 C247.75,63.3143 247.724,63.3352 247.692,63.356 L246.364,64.7779 L248.271,64.7779 C248.479,64.7779 248.64,64.7206 248.755,64.606 C248.828,64.5331 248.916,64.4133 249.021,64.2466 L249.13,64.2779 L248.692,65.356 L245.567,65.356 L245.567,65.2622 L246.989,63.7466 C247.666,63.007 248.015,62.3143 248.036,61.6685 C248.036,61.2206 247.864,60.8977 247.521,60.6997 C247.343,60.5956 247.14,60.5435 246.911,60.5435 C246.557,60.5435 246.281,60.6789 246.083,60.9497 C245.968,61.106 245.859,61.3195 245.755,61.5904 L245.583,61.5435 "/>
<path class="Fingering" d="M209.504,66.5115 C209.744,65.4907 210.27,64.9646 211.082,64.9334 C211.114,64.9334 211.14,64.9334 211.161,64.9334 C211.65,64.9334 212.041,65.1105 212.332,65.4646 C212.541,65.725 212.645,66.0167 212.645,66.3396 C212.645,66.9334 212.327,67.574 211.692,68.2615 C211.671,68.2823 211.645,68.3032 211.614,68.324 L210.286,69.7459 L212.192,69.7459 C212.4,69.7459 212.562,69.6886 212.676,69.574 C212.749,69.5011 212.838,69.3813 212.942,69.2146 L213.051,69.2459 L212.614,70.324 L209.489,70.324 L209.489,70.2302 L210.911,68.7146 C211.588,67.975 211.937,67.2823 211.957,66.6365 C211.957,66.1886 211.786,65.8657 211.442,65.6677 C211.265,65.5636 211.062,65.5115 210.832,65.5115 C210.478,65.5115 210.202,65.6469 210.004,65.9177 C209.89,66.074 209.78,66.2875 209.676,66.5584 L209.504,66.5115 "/>
<path class="Fingering" d="M176.957,73.4795 L176.957,73.9639 L176.129,73.9639 L176.129,75.292 L175.519,75.292 L175.519,73.9639 L173.269,73.9639 L173.269,73.4795 L175.785,69.8858 L176.129,69.8858 L176.129,73.4795 L176.957,73.4795 M175.504,73.4795 L175.504,70.7295 L173.597,73.4795 L175.504,73.4795 "/>
<path class="Fingering" d="M137.738,82.119 C137.863,82.119 138.045,82.1867 138.284,82.3221 C138.534,82.4784 138.748,82.5565 138.925,82.5565 C139.29,82.5565 139.576,82.395 139.784,82.0721 C139.909,81.8638 139.972,81.6294 139.972,81.369 C139.972,80.6086 139.519,80.1919 138.613,80.119 C138.519,80.1086 138.42,80.1034 138.316,80.1034 L138.316,79.994 C138.92,79.7961 139.316,79.5409 139.503,79.2284 C139.597,79.0617 139.644,78.8794 139.644,78.6815 C139.644,78.3273 139.498,78.0721 139.206,77.9159 C139.071,77.8534 138.925,77.8221 138.769,77.8221 C138.321,77.8221 137.951,78.0565 137.659,78.5252 C137.628,78.5669 137.602,78.6138 137.581,78.6659 L137.456,78.6346 C137.706,77.9575 138.071,77.5461 138.55,77.4002 C138.696,77.3586 138.857,77.3377 139.034,77.3377 C139.514,77.3377 139.868,77.5044 140.097,77.8377 C140.222,78.0148 140.284,78.2127 140.284,78.4315 C140.284,78.7544 140.133,79.0461 139.831,79.3065 C139.738,79.3794 139.639,79.4575 139.534,79.5409 C140.014,79.7492 140.321,80.0357 140.456,80.4002 C140.519,80.5773 140.55,80.7752 140.55,80.994 C140.55,81.6294 140.284,82.1242 139.753,82.4784 C139.357,82.7284 138.889,82.8534 138.347,82.8534 C137.857,82.8534 137.566,82.744 137.472,82.5252 C137.451,82.4836 137.441,82.4419 137.441,82.4002 C137.441,82.244 137.519,82.1555 137.675,82.1346 C137.696,82.1242 137.717,82.119 137.738,82.119"/>
<path class="Fingering" d="M104.799,85.8995 L104.799,86.3839 L103.971,86.3839 L103.971,87.712 L103.362,87.712 L103.362,86.3839 L101.112,86.3839 L101.112,85.8995 L103.628,82.3057 L103.971,82.3057 L103.971,85.8995 L104.799,85.8995 M103.346,85.8995 L103.346,83.1495 L101.44,85.8995 L103.346,85.8995 "/>
<path class="Fingering" d="M66.4082,87.9456 C66.2936,87.9456 66.1009,88.0029 65.8301,88.1175 L65.8301,88.0081 L67.2676,87.2737 L67.3301,87.2894 L67.3301,92.0862 C67.3301,92.2946 67.3926,92.43 67.5176,92.4925 C67.6218,92.5342 67.8145,92.555 68.0957,92.555 L68.0957,92.68 L65.877,92.68 L65.877,92.555 C66.2311,92.5446 66.4551,92.4821 66.5488,92.3675 C66.6113,92.2737 66.6426,92.1279 66.6426,91.93 L66.6426,88.3206 C66.6322,88.0706 66.5541,87.9456 66.4082,87.9456"/>
<path class="Tempo" d="M65.2582,34.859 C65.2113,34.859 65.1801,34.859 65.1801,34.9371 L65.1801,40.4371 C64.9769,40.2809 64.7269,40.1871 64.4144,40.1871 C63.2269,40.1871 62.2738,41.0621 62.2738,41.9996 C62.2738,42.5621 62.7269,42.9059 63.3207,42.9059 C64.2738,42.9059 65.4613,41.9996 65.4613,41.0934 L65.4613,37.0934 C65.8363,37.1715 66.4613,37.4371 66.8363,38.4684 C66.9301,38.734 67.0238,39.1402 67.0238,39.5934 C67.0238,39.9059 66.9613,40.2809 66.8363,40.609 C66.8051,40.6559 66.8051,40.6871 66.8051,40.7184 C66.8051,40.8434 66.8832,40.9059 66.9457,40.9371 C66.9457,40.9527 66.9769,40.9527 66.9926,40.9527 C67.0551,40.9527 67.1176,40.9059 67.1801,40.7965 C67.1957,40.7027 67.3832,40.0465 67.3832,39.5621 L67.3832,39.4996 C67.3519,38.5777 66.9457,37.6871 66.4301,36.9371 C65.9926,36.359 65.6488,35.734 65.5082,35.0309 C65.4613,34.8902 65.3988,34.859 65.3207,34.859 L65.2582,34.859 "/>
<path class="Tempo" d="M77.7426,39.0152 L71.1332,39.0152 L71.1332,37.859 L77.7426,37.859 L77.7426,39.0152 M77.7426,41.9371 L71.1332,41.9371 L71.1332,40.7965 L77.7426,40.7965 L77.7426,41.9371 M83.1801,36.0465 C83.0551,36.0465 82.7374,36.1402 82.2269,36.3277 C82.1957,36.3382 82.1749,36.3486 82.1644,36.359 L82.1644,36.0465 L85.1801,34.734 L85.3832,34.734 L85.3832,41.5621 C85.3832,42.0517 85.4821,42.3642 85.6801,42.4996 C85.8571,42.6246 86.1905,42.6923 86.6801,42.7027 L86.6801,42.984 L82.1801,42.984 L82.1801,42.7027 C82.8363,42.6923 83.2478,42.5882 83.4144,42.3902 C83.5499,42.2236 83.6176,41.9267 83.6176,41.4996 L83.6176,36.8746 C83.6071,36.333 83.4613,36.0569 83.1801,36.0465 M87.7582,37.1715 C88.3103,35.6819 89.0863,34.8746 90.0863,34.7496 C90.1905,34.7392 90.2946,34.734 90.3988,34.734 C91.1905,34.734 91.7946,35.0205 92.2113,35.5934 C92.4821,35.9788 92.6176,36.4215 92.6176,36.9215 C92.6176,37.7861 92.1905,38.6298 91.3363,39.4527 C91.2946,39.484 91.2634,39.5152 91.2426,39.5465 L89.3051,41.3902 L91.1176,41.3902 C91.753,41.3902 92.1592,41.333 92.3363,41.2184 C92.503,41.1038 92.6644,40.8486 92.8207,40.4527 L93.1176,40.4527 L92.5707,42.984 L87.5863,42.984 L87.5863,42.7027 C89.253,40.9215 90.279,39.6455 90.6644,38.8746 C90.8728,38.4475 90.9769,38.0309 90.9769,37.6246 C90.9769,37.0934 90.7842,36.6767 90.3988,36.3746 C90.1592,36.1871 89.878,36.0934 89.5551,36.0934 C88.9613,36.0934 88.4926,36.4215 88.1488,37.0777 C88.128,37.109 88.1071,37.1402 88.0863,37.1715 L87.7582,37.1715 M93.6644,38.9059 C93.6644,37.5934 93.9769,36.5309 94.6019,35.7184 C95.1124,35.0725 95.7061,34.7444 96.3832,34.734 C97.1644,34.734 97.8103,35.1402 98.3207,35.9527 C98.8311,36.7652 99.0863,37.76 99.0863,38.9371 C99.0863,40.3121 98.7686,41.4059 98.1332,42.2184 C97.6332,42.8225 97.0551,43.1298 96.3988,43.1402 C95.5655,43.1402 94.8936,42.7132 94.3832,41.859 C93.904,41.0673 93.6644,40.083 93.6644,38.9059 M96.3988,42.7965 C96.753,42.7965 96.9874,42.4736 97.1019,41.8277 C97.1644,41.4423 97.1957,40.9423 97.1957,40.3277 L97.1957,37.5777 C97.1957,36.1402 97.003,35.3225 96.6176,35.1246 C96.5446,35.083 96.4613,35.0621 96.3676,35.0621 C96.003,35.0621 95.7634,35.3955 95.6488,36.0621 C95.5967,36.4371 95.5707,36.9423 95.5707,37.5777 L95.5707,40.3277 C95.5707,41.6819 95.7374,42.4736 96.0707,42.7027 C96.1644,42.7652 96.2738,42.7965 96.3988,42.7965"/>
<path class="StaffText" d="M361.178,50.8902 L361.178,46.4527 C361.178,46.0673 361.11,45.8277 360.975,45.734 C360.86,45.6402 360.605,45.583 360.209,45.5621 L360.209,45.3746 L363.178,45.3746 L363.178,45.5621 C362.72,45.583 362.439,45.6559 362.334,45.7809 C362.241,45.9059 362.194,46.1298 362.194,46.4527 L362.194,50.8902 C362.194,51.2861 362.272,51.5361 362.428,51.6402 C362.553,51.734 362.803,51.7861 363.178,51.7965 L363.178,51.984 L360.209,51.984 L360.209,51.7965 C360.657,51.7861 360.933,51.7132 361.038,51.5777 C361.131,51.4527 361.178,51.2236 361.178,50.8902 M364.178,50.8902 L364.178,46.4527 C364.178,46.0673 364.11,45.8277 363.975,45.734 C363.86,45.6402 363.605,45.583 363.209,45.5621 L363.209,45.3746 L366.178,45.3746 L366.178,45.5621 C365.72,45.583 365.439,45.6559 365.334,45.7809 C365.241,45.9059 365.194,46.1298 365.194,46.4527 L365.194,50.8902 C365.194,51.2861 365.272,51.5361 365.428,51.6402 C365.553,51.734 365.803,51.7861 366.178,51.7965 L366.178,51.984 L363.209,51.984 L363.209,51.7965 C363.657,51.7861 363.933,51.7132 364.038,51.5777 C364.131,51.4527 364.178,51.2236 364.178,50.8902"/>
<path class="StaffText" d="M258.723,45.3746 L258.723,45.5621 C258.452,45.5725 258.265,45.6455 258.161,45.7809 C258.067,45.9059 257.947,46.1402 257.801,46.484 L255.583,52.0934 L255.442,52.0934 L252.973,46.609 C252.744,46.0777 252.541,45.7652 252.364,45.6715 C252.249,45.5986 252.098,45.5621 251.911,45.5621 L251.911,45.3746 L254.583,45.3746 L254.583,45.5621 C254.395,45.5725 254.296,45.5777 254.286,45.5777 C253.984,45.609 253.833,45.7132 253.833,45.8902 C253.833,46.0361 253.968,46.4059 254.239,46.9996 L255.739,50.3746 L257.208,46.7027 C257.343,46.3902 257.411,46.1507 257.411,45.984 C257.411,45.7757 257.291,45.6455 257.051,45.5934 C256.947,45.5725 256.822,45.5621 256.676,45.5621 L256.676,45.3746 L258.723,45.3746 M259.942,50.8902 L259.942,46.4527 C259.942,46.0673 259.874,45.8277 259.739,45.734 C259.624,45.6402 259.369,45.583 258.973,45.5621 L258.973,45.3746 L261.942,45.3746 L261.942,45.5621 C261.484,45.583 261.202,45.6559 261.098,45.7809 C261.005,45.9059 260.958,46.1298 260.958,46.4527 L260.958,50.8902 C260.958,51.2861 261.036,51.5361 261.192,51.6402 C261.317,51.734 261.567,51.7861 261.942,51.7965 L261.942,51.984 L258.973,51.984 L258.973,51.7965 C259.421,51.7861 259.697,51.7132 259.801,51.5777 C259.895,51.4527 259.942,51.2236 259.942,50.8902"/>
<path class="StaffText" d="M72.5485,55.8582 L72.5485,51.4207 C72.5485,51.0353 72.4808,50.7957 72.3453,50.702 C72.2308,50.6082 71.9756,50.551 71.5797,50.5301 L71.5797,50.3426 L74.5485,50.3426 L74.5485,50.5301 C74.0901,50.551 73.8089,50.6239 73.7047,50.7489 C73.611,50.8739 73.5641,51.0978 73.5641,51.4207 L73.5641,55.8582 C73.5641,56.2541 73.6422,56.5041 73.7985,56.6082 C73.9235,56.702 74.1735,56.7541 74.5485,56.7645 L74.5485,56.952 L71.5797,56.952 L71.5797,56.7645 C72.0276,56.7541 72.3037,56.6812 72.4078,56.5457 C72.5016,56.4207 72.5485,56.1916 72.5485,55.8582 M75.5485,55.8582 L75.5485,51.4207 C75.5485,51.0353 75.4808,50.7957 75.3453,50.702 C75.2308,50.6082 74.9756,50.551 74.5797,50.5301 L74.5797,50.3426 L77.5485,50.3426 L77.5485,50.5301 C77.0901,50.551 76.8089,50.6239 76.7047,50.7489 C76.611,50.8739 76.5641,51.0978 76.5641,51.4207 L76.5641,55.8582 C76.5641,56.2541 76.6422,56.5041 76.7985,56.6082 C76.9235,56.702 77.1735,56.7541 77.5485,56.7645 L77.5485,56.952 L74.5797,56.952 L74.5797,56.7645 C75.0276,56.7541 75.3037,56.6812 75.4078,56.5457 C75.5016,56.4207 75.5485,56.1916 75.5485,55.8582"/>
<path class="StaffText" d="M75.2516,25.2057 C75.6995,25.2057 76.1995,25.3203 76.7516,25.5495 C76.9912,25.6432 77.1631,25.6901 77.2672,25.6901 C77.4131,25.6901 77.5433,25.5807 77.6578,25.362 C77.6683,25.3203 77.6839,25.2787 77.7047,25.237 L77.9703,25.237 L77.9703,27.5807 L77.7203,27.5807 C77.4495,26.9766 77.1683,26.5339 76.8766,26.2526 C76.8141,26.1901 76.7568,26.138 76.7047,26.0964 C76.2776,25.7214 75.8349,25.5339 75.3766,25.5339 C74.3766,25.5339 73.7828,26.2526 73.5953,27.6901 C73.5641,28.013 73.5485,28.362 73.5485,28.737 C73.5485,29.9245 73.762,30.7943 74.1891,31.3464 C74.5224,31.763 74.9808,31.9714 75.5641,31.9714 C76.1266,31.9714 76.4443,31.7943 76.5172,31.4401 C76.5276,31.3776 76.5328,31.3099 76.5328,31.237 L76.5328,30.1901 C76.5328,29.8985 76.4599,29.711 76.3141,29.6276 C76.1683,29.5547 75.9026,29.5078 75.5172,29.487 L75.5172,29.237 L78.9547,29.237 L78.9547,29.487 C78.5485,29.5287 78.2985,29.6172 78.2047,29.7526 C78.1318,29.8672 78.0953,30.086 78.0953,30.4089 L78.0953,31.6745 C77.5016,32.0287 76.7151,32.237 75.736,32.2995 C75.6006,32.2995 75.4651,32.2995 75.3297,32.2995 C74.2151,32.2995 73.3245,31.9401 72.6578,31.2214 C72.0641,30.5755 71.7672,29.7682 71.7672,28.7995 C71.7672,27.7578 72.111,26.8932 72.7985,26.2057 C73.4651,25.5391 74.2828,25.2057 75.2516,25.2057 M83.0172,28.8307 C82.7985,28.8307 82.5849,28.711 82.3766,28.4714 C82.262,28.3255 82.1787,28.2474 82.1266,28.237 C81.9078,28.237 81.7412,28.388 81.6266,28.6901 C81.5537,28.8464 81.5172,29.013 81.5172,29.1901 L81.5172,31.0807 C81.5172,31.4453 81.5901,31.6693 81.736,31.7526 C81.8297,31.8151 82.0016,31.8568 82.2516,31.8776 L82.2516,32.112 L79.611,32.112 L79.611,31.8776 C79.8818,31.8255 80.0433,31.7318 80.0953,31.5964 C80.1162,31.5235 80.1266,31.4141 80.1266,31.2682 L80.1266,28.3307 C80.1266,28.0703 80.0537,27.9037 79.9078,27.8307 C79.8349,27.7891 79.736,27.7578 79.611,27.737 L79.611,27.5026 L81.486,27.5026 L81.486,28.3307 C81.861,27.7787 82.2308,27.4714 82.5953,27.4089 C82.6787,27.388 82.7568,27.3776 82.8297,27.3776 C83.1735,27.3776 83.4183,27.5182 83.5641,27.7995 C83.6162,27.9141 83.6422,28.0339 83.6422,28.1589 C83.6422,28.4714 83.5172,28.6797 83.2672,28.7839 C83.1839,28.8151 83.1006,28.8307 83.0172,28.8307 M84.8922,28.0807 C84.8922,28.112 84.9443,28.2057 85.0485,28.362 C85.1422,28.5078 85.1891,28.6328 85.1891,28.737 C85.1891,28.9974 85.0589,29.1745 84.7985,29.2682 C84.7047,29.2995 84.611,29.3151 84.5172,29.3151 C84.1526,29.3151 83.9391,29.1537 83.8766,28.8307 C83.8662,28.7682 83.861,28.711 83.861,28.6589 C83.861,28.1901 84.1162,27.8412 84.6266,27.612 C84.9495,27.4557 85.3245,27.3776 85.7516,27.3776 C86.6266,27.3776 87.2256,27.6172 87.5485,28.0964 C87.6735,28.2943 87.736,28.5182 87.736,28.7682 L87.736,31.3464 C87.7464,31.5026 87.8141,31.586 87.9391,31.5964 C87.9912,31.586 88.0276,31.5703 88.0485,31.5495 L88.1578,31.4557 L88.2985,31.6589 C87.9026,32.0339 87.5328,32.2318 87.1891,32.2526 C86.8141,32.2526 86.5693,32.112 86.4547,31.8307 C86.4235,31.737 86.3922,31.638 86.361,31.5339 C85.8193,32.0026 85.2933,32.2422 84.7828,32.2526 C84.3453,32.2526 84.0276,32.086 83.8297,31.7526 C83.7256,31.586 83.6735,31.4037 83.6735,31.2057 C83.6735,30.6224 84.1214,30.1485 85.0172,29.7839 C85.2568,29.6797 85.7047,29.5287 86.361,29.3307 L86.361,28.5964 C86.361,28.0651 86.1422,27.7735 85.7047,27.7214 C85.6422,27.7214 85.5797,27.7214 85.5172,27.7214 C85.2256,27.7214 85.0276,27.8047 84.9235,27.9714 C84.9026,28.0026 84.8922,28.0391 84.8922,28.0807 M86.3453,31.0964 L86.3453,29.6589 C85.5433,29.8776 85.137,30.2787 85.1266,30.862 C85.1266,31.1953 85.236,31.4037 85.4547,31.487 C85.5172,31.5078 85.5797,31.5182 85.6422,31.5182 C85.8714,31.5182 86.1058,31.3776 86.3453,31.0964 M91.8141,32.237 L91.8141,31.5964 C91.4599,31.9714 91.1162,32.1849 90.7828,32.237 C90.6891,32.2474 90.5901,32.2526 90.486,32.2526 C89.8922,32.2526 89.4235,31.9766 89.0797,31.4245 C88.8089,30.9974 88.6735,30.4922 88.6735,29.9089 C88.6735,29.0547 88.9183,28.3828 89.4078,27.8932 C89.7412,27.5495 90.137,27.3776 90.5953,27.3776 C90.9495,27.3776 91.2724,27.513 91.5641,27.7839 C91.6474,27.8568 91.7203,27.9245 91.7828,27.987 L91.7828,26.1745 C91.7828,25.9245 91.7256,25.7682 91.611,25.7057 C91.5068,25.6537 91.3089,25.6172 91.0172,25.5964 L91.0172,25.362 L93.1735,25.362 L93.1735,31.112 C93.1735,31.3932 93.2568,31.5651 93.4235,31.6276 C93.5068,31.6589 93.6214,31.6797 93.7672,31.6901 L93.7672,31.9245 L93.1422,32.0026 C92.5901,32.0755 92.1474,32.1537 91.8141,32.237 M90.9391,31.7057 C91.2308,31.7057 91.4808,31.5391 91.6891,31.2057 C91.7412,31.112 91.7724,31.0443 91.7828,31.0026 L91.7828,28.5495 C91.6578,28.2162 91.4495,28.0182 91.1578,27.9557 C91.1058,27.9453 91.0537,27.9401 91.0016,27.9401 C90.4912,27.9401 90.2099,28.4453 90.1578,29.4557 C90.1578,29.5703 90.1578,29.6953 90.1578,29.8307 C90.1578,31.0703 90.4183,31.6953 90.9391,31.7057 M96.111,29.6589 C96.1631,30.6797 96.4287,31.2787 96.9078,31.4557 C97.0328,31.4974 97.1631,31.5182 97.2985,31.5182 C97.6631,31.5182 97.9964,31.3516 98.2985,31.0182 C98.3506,30.9662 98.3974,30.9141 98.4391,30.862 L98.6735,31.0026 C98.2568,31.6068 97.8453,31.987 97.4391,32.1432 C97.2308,32.2162 96.9964,32.2526 96.736,32.2526 C95.986,32.2526 95.4235,31.9453 95.0485,31.3307 C94.7985,30.9141 94.6735,30.4141 94.6735,29.8307 C94.6735,28.9349 94.9443,28.263 95.486,27.8151 C95.8506,27.5235 96.2776,27.3776 96.7672,27.3776 C97.8714,27.3776 98.4912,28.0964 98.6266,29.5339 C98.6266,29.5755 98.6266,29.6172 98.6266,29.6589 L96.111,29.6589 M97.4078,29.1432 C97.387,28.5182 97.3193,28.1224 97.2047,27.9557 C97.111,27.7995 96.9651,27.7214 96.7672,27.7214 C96.4756,27.7214 96.2776,27.8932 96.1735,28.237 C96.111,28.4766 96.0745,28.8307 96.0641,29.2995 L97.4078,29.2995 L97.4078,29.1432 M105.548,29.5651 L106.173,29.5651 L106.173,30.6745 L105.548,30.6745 L105.548,32.112 L104.095,32.112 L104.095,30.6745 L101.611,30.6745 L101.611,29.5495 C102.163,28.6745 103.012,27.4922 104.158,26.0026 L104.736,25.237 L105.548,25.237 L105.548,29.5651 M104.111,29.5651 L104.111,26.5964 L102.017,29.5651 L104.111,29.5651 M108.08,30.5495 C108.403,30.5495 108.647,30.6901 108.814,30.9714 C108.897,31.1172 108.939,31.263 108.939,31.4089 C108.939,31.7214 108.798,31.961 108.517,32.1276 C108.371,32.2005 108.226,32.237 108.08,32.237 C107.746,32.237 107.502,32.0964 107.345,31.8151 C107.272,31.6797 107.236,31.5391 107.236,31.3932 C107.236,31.0912 107.371,30.8568 107.642,30.6901 C107.778,30.5964 107.923,30.5495 108.08,30.5495 M108.08,27.3932 C108.403,27.3932 108.647,27.5287 108.814,27.7995 C108.897,27.9453 108.939,28.0912 108.939,28.237 C108.939,28.5599 108.798,28.8047 108.517,28.9714 C108.382,29.0443 108.236,29.0807 108.08,29.0807 C107.746,29.0807 107.502,28.9349 107.345,28.6432 C107.272,28.5078 107.236,28.3672 107.236,28.2214 C107.236,27.9193 107.371,27.6849 107.642,27.5182 C107.778,27.4349 107.923,27.3932 108.08,27.3932"/>
<path class="StaffText" d="M118.33,30.3151 C118.33,30.8776 118.106,31.3255 117.658,31.6589 C117.231,31.961 116.647,32.112 115.908,32.112 L112.58,32.112 L112.58,31.9245 C113.017,31.9141 113.293,31.836 113.408,31.6901 C113.491,31.5755 113.533,31.3516 113.533,31.0182 L113.533,26.5807 C113.533,26.1953 113.47,25.9557 113.345,25.862 C113.22,25.7682 112.965,25.711 112.58,25.6901 L112.58,25.5026 L115.377,25.5026 C117.095,25.5235 117.965,26.0912 117.986,27.2057 C117.986,27.9245 117.58,28.3932 116.767,28.612 C116.746,28.612 116.715,28.6224 116.673,28.6432 C116.642,28.6432 116.627,28.6432 116.627,28.6432 C117.252,28.7995 117.694,29.0235 117.955,29.3151 C118.205,29.5964 118.33,29.9297 118.33,30.3151 M115.189,31.737 C116.168,31.737 116.783,31.4974 117.033,31.0182 C117.127,30.8203 117.173,30.586 117.173,30.3151 C117.173,29.5964 116.819,29.1485 116.111,28.9714 C115.788,28.888 115.267,28.8464 114.548,28.8464 L114.548,31.3307 C114.548,31.5287 114.637,31.6537 114.814,31.7057 C114.908,31.7266 115.033,31.737 115.189,31.737 M114.548,28.4714 L115.502,28.4714 C116.283,28.4714 116.757,28.1953 116.923,27.6432 C116.955,27.5182 116.97,27.388 116.97,27.2526 C116.97,26.4714 116.543,26.0235 115.689,25.9089 C115.533,25.888 115.371,25.8776 115.205,25.8776 L114.767,25.8776 C114.632,25.888 114.559,25.987 114.548,26.1745 L114.548,28.4714 M121.548,28.1589 L121.548,27.987 C122.028,27.8412 122.496,27.6849 122.955,27.5182 L123.017,27.5339 L123.017,28.2995 C123.59,27.862 124.002,27.612 124.252,27.5495 C124.356,27.5287 124.46,27.5182 124.564,27.5182 C125.095,27.5287 125.45,27.8151 125.627,28.3776 C126.158,27.8047 126.705,27.5182 127.267,27.5182 C128.028,27.5287 128.413,28.1276 128.423,29.3151 L128.423,31.362 C128.434,31.7266 128.575,31.9193 128.845,31.9401 L129.111,31.9557 L129.111,32.112 L126.923,32.112 L126.923,31.9557 C127.246,31.9245 127.439,31.8516 127.502,31.737 C127.554,31.6432 127.58,31.4818 127.58,31.2526 L127.58,29.1432 C127.58,28.5912 127.47,28.2578 127.252,28.1432 C127.147,28.0807 127.007,28.0495 126.83,28.0495 C126.382,28.0599 126.017,28.263 125.736,28.6589 L125.736,31.1745 C125.736,31.5495 125.825,31.7839 126.002,31.8776 C126.106,31.9297 126.257,31.9557 126.455,31.9557 L126.455,32.112 L124.22,32.112 L124.22,31.9557 C124.543,31.9349 124.741,31.862 124.814,31.737 C124.877,31.6432 124.908,31.4818 124.908,31.2526 L124.908,29.0964 C124.908,28.3985 124.684,28.0495 124.236,28.0495 C123.871,28.0495 123.548,28.1693 123.267,28.4089 C123.194,28.4818 123.127,28.5599 123.064,28.6432 L123.064,31.4401 C123.064,31.6901 123.153,31.8464 123.33,31.9089 C123.423,31.9401 123.559,31.9557 123.736,31.9557 L123.736,32.112 L121.517,32.112 L121.517,31.9557 C121.871,31.9557 122.085,31.8724 122.158,31.7057 C122.2,31.6016 122.22,31.4557 122.22,31.2682 L122.22,28.7526 C122.22,28.3776 122.142,28.1693 121.986,28.1276 C121.955,28.1172 121.918,28.112 121.877,28.112 C121.772,28.112 121.663,28.1276 121.548,28.1589 M130.048,28.1901 C129.892,28.1901 129.752,28.2005 129.627,28.2214 L129.627,28.0651 C130.095,27.9297 130.611,27.7474 131.173,27.5182 L131.205,27.5495 L131.205,31.0964 C131.205,31.4818 131.262,31.7214 131.377,31.8151 C131.47,31.888 131.663,31.9349 131.955,31.9557 L131.955,32.112 L129.58,32.112 L129.58,31.9557 C129.944,31.9349 130.173,31.8672 130.267,31.7526 C130.34,31.638 130.377,31.4193 130.377,31.0964 L130.377,28.7682 C130.377,28.4141 130.293,28.2214 130.127,28.1901 C130.095,28.1901 130.069,28.1901 130.048,28.1901 M130.705,25.2839 C130.923,25.2839 131.08,25.3828 131.173,25.5807 C131.205,25.6537 131.22,25.7266 131.22,25.7995 C131.22,26.0182 131.116,26.1745 130.908,26.2682 C130.835,26.2891 130.767,26.2995 130.705,26.2995 C130.486,26.2995 130.33,26.2005 130.236,26.0026 C130.215,25.9297 130.205,25.862 130.205,25.7995 C130.205,25.5807 130.298,25.4245 130.486,25.3307 C130.559,25.2995 130.632,25.2839 130.705,25.2839 M132.517,28.1276 L132.517,27.9557 C133.017,27.8099 133.481,27.6641 133.908,27.5182 L133.97,27.5339 L133.97,28.3151 C134.45,27.8776 134.825,27.6224 135.095,27.5495 C135.2,27.5287 135.309,27.5182 135.423,27.5182 C135.965,27.5182 136.325,27.7891 136.502,28.3307 C136.564,28.5287 136.595,28.7526 136.595,29.0026 L136.595,31.2995 C136.595,31.612 136.668,31.8047 136.814,31.8776 C136.908,31.9089 137.038,31.9349 137.205,31.9557 L137.205,32.112 L135.127,32.112 L135.127,31.9557 C135.429,31.9349 135.616,31.836 135.689,31.6589 C135.741,31.5443 135.767,31.3672 135.767,31.1276 L135.767,29.0339 C135.746,28.388 135.502,28.0599 135.033,28.0495 C134.783,28.0495 134.522,28.1641 134.252,28.3932 C134.179,28.4662 134.095,28.5443 134.002,28.6276 L134.002,31.4401 C134.002,31.6797 134.101,31.836 134.298,31.9089 C134.392,31.9297 134.512,31.9453 134.658,31.9557 L134.658,32.112 L132.548,32.112 L132.548,31.9557 C132.84,31.9349 133.022,31.8516 133.095,31.7057 C133.137,31.5912 133.158,31.4245 133.158,31.2057 L133.158,28.7214 C133.158,28.3568 133.085,28.1537 132.939,28.112 C132.897,28.0912 132.851,28.0807 132.798,28.0807 C132.673,28.0807 132.58,28.0964 132.517,28.1276 M139.877,27.5182 C140.616,27.5182 141.2,27.7891 141.627,28.3307 C141.929,28.737 142.08,29.2162 142.08,29.7682 C142.08,30.5495 141.825,31.1745 141.314,31.6432 C140.897,32.0182 140.413,32.2057 139.861,32.2057 C139.153,32.2057 138.59,31.9349 138.173,31.3932 C137.84,30.9557 137.673,30.4401 137.673,29.8464 C137.673,29.0339 137.95,28.4089 138.502,27.9714 C138.887,27.6693 139.345,27.5182 139.877,27.5182 M138.58,29.362 C138.58,30.2682 138.767,30.961 139.142,31.4401 C139.382,31.7526 139.663,31.9089 139.986,31.9089 C140.507,31.9089 140.866,31.612 141.064,31.0182 C141.147,30.7578 141.189,30.461 141.189,30.1276 C141.189,29.2422 140.976,28.586 140.548,28.1589 C140.319,27.9297 140.054,27.8151 139.752,27.8151 C139.283,27.8151 138.944,28.0547 138.736,28.5339 C138.632,28.7735 138.58,29.0495 138.58,29.362 M145.439,28.487 C145.335,28.487 145.184,28.4037 144.986,28.237 C144.892,28.1537 144.819,28.112 144.767,28.112 C144.601,28.112 144.429,28.2422 144.252,28.5026 C144.137,28.6693 144.08,28.8151 144.08,28.9401 L144.08,31.2057 C144.08,31.5495 144.168,31.763 144.345,31.8464 C144.47,31.9089 144.663,31.9453 144.923,31.9557 L144.923,32.112 L142.517,32.112 L142.517,31.9557 C142.871,31.8932 143.085,31.8099 143.158,31.7057 C143.21,31.6224 143.236,31.4766 143.236,31.2682 L143.236,28.7526 C143.236,28.388 143.153,28.1901 142.986,28.1589 C142.955,28.1485 142.923,28.1432 142.892,28.1432 C142.778,28.1432 142.663,28.1589 142.548,28.1901 L142.548,28.0339 C143.08,27.8672 143.569,27.6953 144.017,27.5182 L144.08,27.5339 L144.08,28.4245 C144.423,27.9453 144.715,27.6589 144.955,27.5651 C145.059,27.5339 145.163,27.5182 145.267,27.5182 C145.58,27.5182 145.762,27.6485 145.814,27.9089 C145.814,27.9505 145.814,27.9974 145.814,28.0495 C145.783,28.3203 145.658,28.4662 145.439,28.487 M148.673,31.1432 C148.673,30.6328 148.991,30.2005 149.627,29.8464 C149.814,29.7526 150.314,29.5391 151.127,29.2057 C151.147,29.2057 151.163,29.2005 151.173,29.1901 L151.173,28.5807 C151.121,28.0599 150.866,27.7839 150.408,27.7526 C150.095,27.7526 149.877,27.8516 149.752,28.0495 C149.71,28.1224 149.689,28.1849 149.689,28.237 C149.689,28.2995 149.7,28.3828 149.72,28.487 C149.731,28.5599 149.736,28.612 149.736,28.6432 C149.736,28.8203 149.647,28.9453 149.47,29.0182 C149.408,29.0495 149.351,29.0651 149.298,29.0651 C149.111,29.0651 148.981,28.9766 148.908,28.7995 C148.877,28.7474 148.861,28.6901 148.861,28.6276 C148.861,28.263 149.08,27.9662 149.517,27.737 C149.819,27.5912 150.163,27.5182 150.548,27.5182 C151.267,27.5182 151.71,27.7735 151.877,28.2839 C151.95,28.5026 151.986,28.7787 151.986,29.112 L151.986,31.0495 C151.986,31.3828 152.048,31.5703 152.173,31.612 C152.215,31.6224 152.252,31.6276 152.283,31.6276 C152.429,31.6172 152.575,31.5547 152.72,31.4401 L152.72,31.6901 C152.45,32.0026 152.2,32.1745 151.97,32.2057 C151.918,32.2057 151.866,32.2057 151.814,32.2057 C151.502,32.2057 151.304,32.0495 151.22,31.737 C151.2,31.6537 151.189,31.5599 151.189,31.4557 C150.595,31.9349 150.106,32.1849 149.72,32.2057 C149.293,32.2057 148.986,32.0339 148.798,31.6901 C148.715,31.5235 148.673,31.3412 148.673,31.1432 M151.173,30.862 L151.173,29.4245 C150.351,29.7266 149.845,30.0339 149.658,30.3464 C149.585,30.4922 149.548,30.6485 149.548,30.8151 C149.548,31.211 149.694,31.461 149.986,31.5651 C150.059,31.5964 150.127,31.612 150.189,31.612 C150.408,31.6016 150.647,31.5235 150.908,31.3776 C151.054,31.2943 151.137,31.1901 151.158,31.0651 C151.168,31.0026 151.173,30.9349 151.173,30.862 M155.439,28.487 C155.335,28.487 155.184,28.4037 154.986,28.237 C154.892,28.1537 154.819,28.112 154.767,28.112 C154.601,28.112 154.429,28.2422 154.252,28.5026 C154.137,28.6693 154.08,28.8151 154.08,28.9401 L154.08,31.2057 C154.08,31.5495 154.168,31.763 154.345,31.8464 C154.47,31.9089 154.663,31.9453 154.923,31.9557 L154.923,32.112 L152.517,32.112 L152.517,31.9557 C152.871,31.8932 153.085,31.8099 153.158,31.7057 C153.21,31.6224 153.236,31.4766 153.236,31.2682 L153.236,28.7526 C153.236,28.388 153.153,28.1901 152.986,28.1589 C152.955,28.1485 152.923,28.1432 152.892,28.1432 C152.778,28.1432 152.663,28.1589 152.548,28.1901 L152.548,28.0339 C153.08,27.8672 153.569,27.6953 154.017,27.5182 L154.08,27.5339 L154.08,28.4245 C154.423,27.9453 154.715,27.6589 154.955,27.5651 C155.059,27.5339 155.163,27.5182 155.267,27.5182 C155.58,27.5182 155.762,27.6485 155.814,27.9089 C155.814,27.9505 155.814,27.9974 155.814,28.0495 C155.783,28.3203 155.658,28.4662 155.439,28.487 M155.564,28.1901 L155.564,28.0182 C155.991,27.8932 156.47,27.7266 157.002,27.5182 L157.064,27.5339 L157.064,28.2995 C157.491,27.7787 157.97,27.5182 158.502,27.5182 C159.064,27.5182 159.507,27.7787 159.83,28.2995 C160.059,28.6849 160.173,29.1328 160.173,29.6432 C160.173,30.4557 159.923,31.1172 159.423,31.6276 C159.038,32.013 158.59,32.2057 158.08,32.2057 C157.746,32.2057 157.455,32.1068 157.205,31.9089 C157.153,31.8776 157.106,31.8412 157.064,31.7995 L157.064,33.362 C157.064,33.7057 157.132,33.9141 157.267,33.987 C157.392,34.0599 157.616,34.0964 157.939,34.0964 L157.939,34.2839 L155.517,34.2839 L155.517,34.112 C155.871,34.0807 156.085,33.9974 156.158,33.862 C156.2,33.7682 156.22,33.6224 156.22,33.4245 L156.22,28.737 C156.22,28.4453 156.168,28.2735 156.064,28.2214 C156.002,28.1901 155.918,28.1745 155.814,28.1745 C155.7,28.1745 155.616,28.1797 155.564,28.1901 M157.064,28.7839 L157.064,31.2526 C157.064,31.4297 157.21,31.5964 157.502,31.7526 C157.71,31.8568 157.908,31.9089 158.095,31.9089 C158.554,31.9089 158.892,31.6537 159.111,31.1432 C159.246,30.8203 159.314,30.4557 159.314,30.0495 C159.314,29.2266 159.106,28.6537 158.689,28.3307 C158.512,28.1849 158.309,28.112 158.08,28.112 C157.778,28.112 157.507,28.2214 157.267,28.4401 C157.142,28.5547 157.075,28.6693 157.064,28.7839 M161.392,29.3464 C161.434,30.5235 161.819,31.2162 162.548,31.4245 C162.673,31.4662 162.809,31.487 162.955,31.487 C163.444,31.487 163.861,31.2787 164.205,30.862 C164.298,30.7474 164.397,30.612 164.502,30.4557 L164.658,30.5182 C164.293,31.4766 163.72,32.0287 162.939,32.1745 C162.804,32.1953 162.673,32.2057 162.548,32.2057 C161.809,32.2057 161.278,31.8932 160.955,31.2682 C160.767,30.8932 160.673,30.461 160.673,29.9714 C160.673,29.086 160.95,28.4141 161.502,27.9557 C161.866,27.6641 162.288,27.5182 162.767,27.5182 C163.684,27.5182 164.236,28.0391 164.423,29.0807 C164.444,29.1745 164.46,29.263 164.47,29.3464 L161.392,29.3464 M161.408,29.0495 L163.455,29.0495 C163.361,28.4766 163.194,28.1224 162.955,27.987 C162.83,27.9245 162.668,27.8932 162.47,27.8932 C161.877,27.8932 161.522,28.2682 161.408,29.0182 C161.408,29.0287 161.408,29.0391 161.408,29.0495 M165.017,31.5339 C165.017,31.3985 165.095,31.2526 165.252,31.0964 C165.345,31.0026 165.564,30.7995 165.908,30.487 C165.408,30.2266 165.111,29.8985 165.017,29.5026 C164.996,29.388 164.986,29.2682 164.986,29.1432 C164.986,28.612 165.2,28.1849 165.627,27.862 C165.929,27.6328 166.272,27.5182 166.658,27.5182 C166.908,27.5182 167.215,27.586 167.58,27.7214 C167.819,27.8047 168.033,27.8464 168.22,27.8464 L168.986,27.8464 L168.986,28.2214 L168.158,28.2214 C168.283,28.513 168.345,28.7943 168.345,29.0651 C168.345,29.638 168.121,30.0703 167.673,30.362 C167.403,30.5391 167.111,30.6276 166.798,30.6276 C166.705,30.6276 166.512,30.6068 166.22,30.5651 C166.022,30.6276 165.856,30.7682 165.72,30.987 C165.658,31.0703 165.627,31.1432 165.627,31.2057 C165.627,31.362 165.877,31.4505 166.377,31.4714 C166.387,31.4714 166.397,31.4714 166.408,31.4714 L167.689,31.5339 C168.241,31.5443 168.611,31.7474 168.798,32.1432 C168.871,32.2787 168.908,32.4297 168.908,32.5964 C168.908,33.0964 168.595,33.5235 167.97,33.8776 C167.46,34.1485 166.903,34.2839 166.298,34.2839 C165.673,34.2839 165.189,34.1328 164.845,33.8307 C164.668,33.6641 164.58,33.487 164.58,33.2995 C164.58,33.0078 164.793,32.6797 165.22,32.3151 C165.325,32.2318 165.434,32.1432 165.548,32.0495 C165.246,31.9141 165.075,31.7787 165.033,31.6432 C165.022,31.612 165.017,31.5755 165.017,31.5339 M165.767,32.0807 C165.465,32.4557 165.304,32.7162 165.283,32.862 C165.272,32.9037 165.267,32.9453 165.267,32.987 C165.267,33.2891 165.491,33.5078 165.939,33.6432 C166.168,33.7162 166.434,33.7526 166.736,33.7526 C167.569,33.7526 168.137,33.5703 168.439,33.2057 C168.564,33.0495 168.627,32.888 168.627,32.7214 C168.627,32.4714 168.46,32.3151 168.127,32.2526 C167.939,32.2214 167.689,32.2057 167.377,32.2057 C166.71,32.2057 166.173,32.1641 165.767,32.0807 M167.58,29.4714 C167.58,29.0443 167.491,28.6641 167.314,28.3307 C167.116,27.9974 166.861,27.8255 166.548,27.8151 C166.173,27.8151 165.939,28.013 165.845,28.4089 C165.825,28.513 165.814,28.6276 165.814,28.7526 C165.814,29.5547 166.038,30.0651 166.486,30.2839 C166.601,30.3464 166.715,30.3776 166.83,30.3776 C167.194,30.3776 167.429,30.1953 167.533,29.8307 C167.564,29.7162 167.58,29.5964 167.58,29.4714 M170.017,31.5339 C170.017,31.3985 170.095,31.2526 170.252,31.0964 C170.345,31.0026 170.564,30.7995 170.908,30.487 C170.408,30.2266 170.111,29.8985 170.017,29.5026 C169.996,29.388 169.986,29.2682 169.986,29.1432 C169.986,28.612 170.2,28.1849 170.627,27.862 C170.929,27.6328 171.272,27.5182 171.658,27.5182 C171.908,27.5182 172.215,27.586 172.58,27.7214 C172.819,27.8047 173.033,27.8464 173.22,27.8464 L173.986,27.8464 L173.986,28.2214 L173.158,28.2214 C173.283,28.513 173.345,28.7943 173.345,29.0651 C173.345,29.638 173.121,30.0703 172.673,30.362 C172.403,30.5391 172.111,30.6276 171.798,30.6276 C171.705,30.6276 171.512,30.6068 171.22,30.5651 C171.022,30.6276 170.856,30.7682 170.72,30.987 C170.658,31.0703 170.627,31.1432 170.627,31.2057 C170.627,31.362 170.877,31.4505 171.377,31.4714 C171.387,31.4714 171.397,31.4714 171.408,31.4714 L172.689,31.5339 C173.241,31.5443 173.611,31.7474 173.798,32.1432 C173.871,32.2787 173.908,32.4297 173.908,32.5964 C173.908,33.0964 173.595,33.5235 172.97,33.8776 C172.46,34.1485 171.903,34.2839 171.298,34.2839 C170.673,34.2839 170.189,34.1328 169.845,33.8307 C169.668,33.6641 169.58,33.487 169.58,33.2995 C169.58,33.0078 169.793,32.6797 170.22,32.3151 C170.325,32.2318 170.434,32.1432 170.548,32.0495 C170.246,31.9141 170.075,31.7787 170.033,31.6432 C170.022,31.612 170.017,31.5755 170.017,31.5339 M170.767,32.0807 C170.465,32.4557 170.304,32.7162 170.283,32.862 C170.272,32.9037 170.267,32.9453 170.267,32.987 C170.267,33.2891 170.491,33.5078 170.939,33.6432 C171.168,33.7162 171.434,33.7526 171.736,33.7526 C172.569,33.7526 173.137,33.5703 173.439,33.2057 C173.564,33.0495 173.627,32.888 173.627,32.7214 C173.627,32.4714 173.46,32.3151 173.127,32.2526 C172.939,32.2214 172.689,32.2057 172.377,32.2057 C171.71,32.2057 171.173,32.1641 170.767,32.0807 M172.58,29.4714 C172.58,29.0443 172.491,28.6641 172.314,28.3307 C172.116,27.9974 171.861,27.8255 171.548,27.8151 C171.173,27.8151 170.939,28.013 170.845,28.4089 C170.825,28.513 170.814,28.6276 170.814,28.7526 C170.814,29.5547 171.038,30.0651 171.486,30.2839 C171.601,30.3464 171.715,30.3776 171.83,30.3776 C172.194,30.3776 172.429,30.1953 172.533,29.8307 C172.564,29.7162 172.58,29.5964 172.58,29.4714 M175.048,28.1901 C174.892,28.1901 174.752,28.2005 174.627,28.2214 L174.627,28.0651 C175.095,27.9297 175.611,27.7474 176.173,27.5182 L176.205,27.5495 L176.205,31.0964 C176.205,31.4818 176.262,31.7214 176.377,31.8151 C176.47,31.888 176.663,31.9349 176.955,31.9557 L176.955,32.112 L174.58,32.112 L174.58,31.9557 C174.944,31.9349 175.173,31.8672 175.267,31.7526 C175.34,31.638 175.377,31.4193 175.377,31.0964 L175.377,28.7682 C175.377,28.4141 175.293,28.2214 175.127,28.1901 C175.095,28.1901 175.069,28.1901 175.048,28.1901 M175.705,25.2839 C175.923,25.2839 176.08,25.3828 176.173,25.5807 C176.205,25.6537 176.22,25.7266 176.22,25.7995 C176.22,26.0182 176.116,26.1745 175.908,26.2682 C175.835,26.2891 175.767,26.2995 175.705,26.2995 C175.486,26.2995 175.33,26.2005 175.236,26.0026 C175.215,25.9297 175.205,25.862 175.205,25.7995 C175.205,25.5807 175.298,25.4245 175.486,25.3307 C175.559,25.2995 175.632,25.2839 175.705,25.2839 M179.877,27.5182 C180.616,27.5182 181.2,27.7891 181.627,28.3307 C181.929,28.737 182.08,29.2162 182.08,29.7682 C182.08,30.5495 181.825,31.1745 181.314,31.6432 C180.897,32.0182 180.413,32.2057 179.861,32.2057 C179.153,32.2057 178.59,31.9349 178.173,31.3932 C177.84,30.9557 177.673,30.4401 177.673,29.8464 C177.673,29.0339 177.95,28.4089 178.502,27.9714 C178.887,27.6693 179.345,27.5182 179.877,27.5182 M178.58,29.362 C178.58,30.2682 178.767,30.961 179.142,31.4401 C179.382,31.7526 179.663,31.9089 179.986,31.9089 C180.507,31.9089 180.866,31.612 181.064,31.0182 C181.147,30.7578 181.189,30.461 181.189,30.1276 C181.189,29.2422 180.976,28.586 180.548,28.1589 C180.319,27.9297 180.054,27.8151 179.752,27.8151 C179.283,27.8151 178.944,28.0547 178.736,28.5339 C178.632,28.7735 178.58,29.0495 178.58,29.362 M188.017,27.612 L188.017,27.9089 L187.002,27.9089 L187.002,30.7682 C187.002,31.3099 187.137,31.6068 187.408,31.6589 C187.439,31.6693 187.476,31.6745 187.517,31.6745 C187.726,31.6641 187.929,31.5443 188.127,31.3151 L188.252,31.4401 C187.929,31.9505 187.528,32.2057 187.048,32.2057 C186.465,32.1953 186.168,31.7735 186.158,30.9401 L186.158,27.9089 L185.627,27.9089 C185.606,27.888 185.595,27.8672 185.595,27.8464 C185.595,27.8047 185.637,27.763 185.72,27.7214 C186.002,27.5339 186.335,27.1693 186.72,26.6276 C186.731,26.6172 186.736,26.612 186.736,26.612 C186.84,26.4557 186.908,26.362 186.939,26.3307 C186.981,26.3412 187.002,26.3828 187.002,26.4557 L187.002,27.612 L188.017,27.612 M191.767,29.0182 C191.559,28.3932 191.392,28.0235 191.267,27.9089 C191.173,27.836 191.043,27.7891 190.877,27.7682 L190.877,27.612 L192.908,27.612 L192.908,27.7682 C192.575,27.8099 192.387,27.8828 192.345,27.987 C192.335,28.0287 192.33,28.0755 192.33,28.1276 C192.33,28.211 192.382,28.3985 192.486,28.6901 L192.502,28.7057 L192.502,28.7214 L193.345,30.9557 L194.236,28.737 C194.351,28.4557 194.408,28.237 194.408,28.0807 C194.408,27.9557 194.33,27.8672 194.173,27.8151 C194.111,27.7943 194.043,27.7787 193.97,27.7682 L193.97,27.612 L195.205,27.612 L195.205,27.7682 C195.08,27.8099 194.986,27.8828 194.923,27.987 C194.892,28.0599 194.845,28.1641 194.783,28.2995 L193.408,31.7682 C193.272,32.0807 193.179,32.2422 193.127,32.2526 C193.085,32.2526 193.017,32.1432 192.923,31.9245 C192.913,31.8932 192.903,31.8568 192.892,31.8151 L191.986,29.4557 L190.861,31.862 C190.746,32.112 190.663,32.2422 190.611,32.2526 C190.559,32.2526 190.476,32.112 190.361,31.8307 C190.351,31.8203 190.345,31.8151 190.345,31.8151 L189.002,28.3932 C188.866,28.0495 188.741,27.8516 188.627,27.7995 C188.575,27.7787 188.522,27.7682 188.47,27.7682 L188.47,27.612 L190.267,27.612 L190.267,27.7682 C189.996,27.7995 189.851,27.8776 189.83,28.0026 C189.819,28.0339 189.814,28.0651 189.814,28.0964 C189.814,28.1901 189.835,28.2891 189.877,28.3932 L190.861,31.0026 L191.767,29.0182 M197.877,27.5182 C198.616,27.5182 199.2,27.7891 199.627,28.3307 C199.929,28.737 200.08,29.2162 200.08,29.7682 C200.08,30.5495 199.825,31.1745 199.314,31.6432 C198.897,32.0182 198.413,32.2057 197.861,32.2057 C197.153,32.2057 196.59,31.9349 196.173,31.3932 C195.84,30.9557 195.673,30.4401 195.673,29.8464 C195.673,29.0339 195.95,28.4089 196.502,27.9714 C196.887,27.6693 197.345,27.5182 197.877,27.5182 M196.58,29.362 C196.58,30.2682 196.767,30.961 197.142,31.4401 C197.382,31.7526 197.663,31.9089 197.986,31.9089 C198.507,31.9089 198.866,31.612 199.064,31.0182 C199.147,30.7578 199.189,30.461 199.189,30.1276 C199.189,29.2422 198.976,28.586 198.548,28.1589 C198.319,27.9297 198.054,27.8151 197.752,27.8151 C197.283,27.8151 196.944,28.0547 196.736,28.5339 C196.632,28.7735 196.58,29.0495 196.58,29.362 M205.877,27.5182 C206.616,27.5182 207.2,27.7891 207.627,28.3307 C207.929,28.737 208.08,29.2162 208.08,29.7682 C208.08,30.5495 207.825,31.1745 207.314,31.6432 C206.897,32.0182 206.413,32.2057 205.861,32.2057 C205.153,32.2057 204.59,31.9349 204.173,31.3932 C203.84,30.9557 203.673,30.4401 203.673,29.8464 C203.673,29.0339 203.95,28.4089 204.502,27.9714 C204.887,27.6693 205.345,27.5182 205.877,27.5182 M204.58,29.362 C204.58,30.2682 204.767,30.961 205.142,31.4401 C205.382,31.7526 205.663,31.9089 205.986,31.9089 C206.507,31.9089 206.866,31.612 207.064,31.0182 C207.147,30.7578 207.189,30.461 207.189,30.1276 C207.189,29.2422 206.976,28.586 206.548,28.1589 C206.319,27.9297 206.054,27.8151 205.752,27.8151 C205.283,27.8151 204.944,28.0547 204.736,28.5339 C204.632,28.7735 204.58,29.0495 204.58,29.362 M208.673,29.987 C208.673,29.1432 208.96,28.4818 209.533,28.0026 C209.929,27.6797 210.371,27.5182 210.861,27.5182 C211.413,27.5182 211.84,27.6693 212.142,27.9714 C212.319,28.1485 212.408,28.3412 212.408,28.5495 C212.408,28.7266 212.314,28.8516 212.127,28.9245 C212.054,28.9557 211.986,28.9714 211.923,28.9714 C211.715,28.9714 211.564,28.836 211.47,28.5651 C211.46,28.5443 211.455,28.5235 211.455,28.5026 L211.392,28.2839 C211.33,28.0339 211.215,27.888 211.048,27.8464 C210.976,27.8255 210.892,27.8151 210.798,27.8151 C210.298,27.8151 209.918,28.0547 209.658,28.5339 C209.512,28.8255 209.439,29.1641 209.439,29.5495 C209.439,30.2787 209.663,30.8255 210.111,31.1901 C210.371,31.388 210.663,31.487 210.986,31.487 C211.403,31.487 211.762,31.3203 212.064,30.987 C212.168,30.862 212.283,30.7162 212.408,30.5495 L212.548,30.6432 C212.173,31.362 211.757,31.8307 211.298,32.0495 C211.059,32.1537 210.819,32.2057 210.58,32.2057 C209.934,32.2057 209.429,31.9401 209.064,31.4089 C208.804,31.0026 208.673,30.5287 208.673,29.987 M215.017,27.612 L215.017,27.9089 L214.002,27.9089 L214.002,30.7682 C214.002,31.3099 214.137,31.6068 214.408,31.6589 C214.439,31.6693 214.476,31.6745 214.517,31.6745 C214.726,31.6641 214.929,31.5443 215.127,31.3151 L215.252,31.4401 C214.929,31.9505 214.528,32.2057 214.048,32.2057 C213.465,32.1953 213.168,31.7735 213.158,30.9401 L213.158,27.9089 L212.627,27.9089 C212.606,27.888 212.595,27.8672 212.595,27.8464 C212.595,27.8047 212.637,27.763 212.72,27.7214 C213.002,27.5339 213.335,27.1693 213.72,26.6276 C213.731,26.6172 213.736,26.612 213.736,26.612 C213.84,26.4557 213.908,26.362 213.939,26.3307 C213.981,26.3412 214.002,26.3828 214.002,26.4557 L214.002,27.612 L215.017,27.612 M215.673,31.1432 C215.673,30.6328 215.991,30.2005 216.627,29.8464 C216.814,29.7526 217.314,29.5391 218.127,29.2057 C218.147,29.2057 218.163,29.2005 218.173,29.1901 L218.173,28.5807 C218.121,28.0599 217.866,27.7839 217.408,27.7526 C217.095,27.7526 216.877,27.8516 216.752,28.0495 C216.71,28.1224 216.689,28.1849 216.689,28.237 C216.689,28.2995 216.7,28.3828 216.72,28.487 C216.731,28.5599 216.736,28.612 216.736,28.6432 C216.736,28.8203 216.647,28.9453 216.47,29.0182 C216.408,29.0495 216.351,29.0651 216.298,29.0651 C216.111,29.0651 215.981,28.9766 215.908,28.7995 C215.877,28.7474 215.861,28.6901 215.861,28.6276 C215.861,28.263 216.08,27.9662 216.517,27.737 C216.819,27.5912 217.163,27.5182 217.548,27.5182 C218.267,27.5182 218.71,27.7735 218.877,28.2839 C218.95,28.5026 218.986,28.7787 218.986,29.112 L218.986,31.0495 C218.986,31.3828 219.048,31.5703 219.173,31.612 C219.215,31.6224 219.252,31.6276 219.283,31.6276 C219.429,31.6172 219.575,31.5547 219.72,31.4401 L219.72,31.6901 C219.45,32.0026 219.2,32.1745 218.97,32.2057 C218.918,32.2057 218.866,32.2057 218.814,32.2057 C218.502,32.2057 218.304,32.0495 218.22,31.737 C218.2,31.6537 218.189,31.5599 218.189,31.4557 C217.595,31.9349 217.106,32.1849 216.72,32.2057 C216.293,32.2057 215.986,32.0339 215.798,31.6901 C215.715,31.5235 215.673,31.3412 215.673,31.1432 M218.173,30.862 L218.173,29.4245 C217.351,29.7266 216.845,30.0339 216.658,30.3464 C216.585,30.4922 216.548,30.6485 216.548,30.8151 C216.548,31.211 216.694,31.461 216.986,31.5651 C217.059,31.5964 217.127,31.612 217.189,31.612 C217.408,31.6016 217.647,31.5235 217.908,31.3776 C218.054,31.2943 218.137,31.1901 218.158,31.0651 C218.168,31.0026 218.173,30.9349 218.173,30.862 M224.048,27.612 L224.048,27.7682 C223.882,27.7891 223.757,27.8568 223.673,27.9714 C223.601,28.0755 223.512,28.2682 223.408,28.5495 L222.127,31.7526 C221.991,32.0755 221.897,32.2422 221.845,32.2526 C221.772,32.2526 221.689,32.1068 221.595,31.8151 C221.585,31.8047 221.58,31.7943 221.58,31.7839 L220.377,28.9089 C220.127,28.3151 219.939,27.9662 219.814,27.862 C219.731,27.7995 219.616,27.7682 219.47,27.7682 L219.47,27.612 L221.439,27.612 L221.439,27.7682 C221.158,27.7891 221.007,27.862 220.986,27.987 C220.976,28.0078 220.97,28.0287 220.97,28.0495 C220.97,28.1641 221.002,28.2839 221.064,28.4089 L222.08,30.9714 L223.064,28.3776 C223.106,28.2839 223.127,28.1849 223.127,28.0807 C223.127,27.9037 222.981,27.7995 222.689,27.7682 C222.679,27.7682 222.668,27.7682 222.658,27.7682 L222.658,27.612 L224.048,27.612 M225.392,29.3464 C225.434,30.5235 225.819,31.2162 226.548,31.4245 C226.673,31.4662 226.809,31.487 226.955,31.487 C227.444,31.487 227.861,31.2787 228.205,30.862 C228.298,30.7474 228.397,30.612 228.502,30.4557 L228.658,30.5182 C228.293,31.4766 227.72,32.0287 226.939,32.1745 C226.804,32.1953 226.673,32.2057 226.548,32.2057 C225.809,32.2057 225.278,31.8932 224.955,31.2682 C224.767,30.8932 224.673,30.461 224.673,29.9714 C224.673,29.086 224.95,28.4141 225.502,27.9557 C225.866,27.6641 226.288,27.5182 226.767,27.5182 C227.684,27.5182 228.236,28.0391 228.423,29.0807 C228.444,29.1745 228.46,29.263 228.47,29.3464 L225.392,29.3464 M225.408,29.0495 L227.455,29.0495 C227.361,28.4766 227.194,28.1224 226.955,27.987 C226.83,27.9245 226.668,27.8932 226.47,27.8932 C225.877,27.8932 225.522,28.2682 225.408,29.0182 C225.408,29.0287 225.408,29.0391 225.408,29.0495 M231.095,27.7214 C231.116,27.711 231.173,27.6745 231.267,27.612 L231.377,27.612 L231.408,28.9714 L231.267,28.9714 C231.101,28.3255 230.861,27.9401 230.548,27.8151 C230.434,27.763 230.304,27.737 230.158,27.737 C229.804,27.737 229.564,27.8776 229.439,28.1589 C229.408,28.2422 229.392,28.3307 229.392,28.4245 C229.403,28.7057 229.548,28.9297 229.83,29.0964 L230.908,29.737 C231.387,30.0287 231.658,30.3464 231.72,30.6901 C231.731,30.763 231.736,30.8464 231.736,30.9401 C231.736,31.3568 231.554,31.6953 231.189,31.9557 C230.929,32.1224 230.642,32.2057 230.33,32.2057 C230.194,32.2057 229.887,32.1589 229.408,32.0651 C229.293,32.0443 229.205,32.0339 229.142,32.0339 C229.038,32.0443 228.96,32.086 228.908,32.1589 L228.783,32.1589 L228.783,30.5964 L228.939,30.5964 C229.043,31.0651 229.173,31.3932 229.33,31.5807 C229.548,31.8516 229.84,31.987 230.205,31.987 C230.632,31.987 230.897,31.8307 231.002,31.5182 C231.033,31.4453 231.048,31.362 231.048,31.2682 C231.038,30.9662 230.861,30.7162 230.517,30.5182 L229.939,30.1901 C229.314,29.836 228.944,29.4818 228.83,29.1276 C228.788,29.0026 228.767,28.8776 228.767,28.7526 C228.767,28.2839 228.97,27.9349 229.377,27.7057 C229.606,27.5807 229.856,27.5182 230.127,27.5182 C230.345,27.5182 230.606,27.5703 230.908,27.6745 C230.991,27.7057 231.054,27.7214 231.095,27.7214"/>
</svg>
