<?xml version="1.0" encoding="UTF-8" standalone="no"?>
<svg width="595.44px" height="841.68px" viewBox="0 0 595.44 841.68"
 xmlns="http://www.w3.org/2000/svg" xmlns:xlink="http://www.w3.org/1999/xlink" version="1.2" baseProfile="tiny">
<title>Guitar Scales and Arpeggios</title>
<desc>Generated by MuseScore 2.1.0</desc>
<polyline class="StaffLines" fill="none" stroke="#000000" stroke-width="0.40" stroke-linejoin="bevel" points="28.08,62.856 567.36,62.856"/>
<polyline class="StaffLines" fill="none" stroke="#000000" stroke-width="0.40" stroke-linejoin="bevel" points="28.08,67.824 567.36,67.824"/>
<polyline class="StaffLines" fill="none" stroke="#000000" stroke-width="0.40" stroke-linejoin="bevel" points="28.08,72.792 567.36,72.792"/>
<polyline class="StaffLines" fill="none" stroke="#000000" stroke-width="0.40" stroke-linejoin="bevel" points="28.08,77.76 567.36,77.76"/>
<polyline class="StaffLines" fill="none" stroke="#000000" stroke-width="0.40" stroke-linejoin="bevel" points="28.08,82.728 567.36,82.728"/>
<polyline class="StaffLines" fill="none" stroke="#000000" stroke-width="0.40" stroke-linejoin="bevel" points="28.08,115.02 567.36,115.02"/>
<polyline class="StaffLines" fill="none" stroke="#000000" stroke-width="0.40" stroke-linejoin="bevel" points="28.08,122.472 567.36,122.472"/>
<polyline class="StaffLines" fill="none" stroke="#000000" stroke-width="0.40" stroke-linejoin="bevel" points="28.08,129.924 567.36,129.924"/>
<polyline class="StaffLines" fill="none" stroke="#000000" stroke-width="0.40" stroke-linejoin="bevel" points="28.08,137.376 567.36,137.376"/>
<polyline class="StaffLines" fill="none" stroke="#000000" stroke-width="0.40" stroke-linejoin="bevel" points="28.08,144.828 567.36,144.828"/>
<polyline class="StaffLines" fill="none" stroke="#000000" stroke-width="0.40" stroke-linejoin="bevel" points="28.08,152.28 567.36,152.28"/>
<polyline class="BarLine" fill="none" stroke="#000000" stroke-width="0.79" stroke-linejoin="bevel" points="28.4774,62.856 28.4774,152.28"/>
<polyline class="BarLine" fill="none" stroke="#000000" stroke-width="0.79" stroke-linejoin="bevel" points="562.491,115.02 562.491,152.28"/>
<polyline class="BarLine" fill="none" stroke="#000000" stroke-width="2.48" stroke-linejoin="bevel" points="566.118,115.02 566.118,152.28"/>
<polyline class="BarLine" fill="none" stroke="#000000" stroke-width="0.79" stroke-linejoin="bevel" points="562.491,62.856 562.491,82.728"/>
<polyline class="BarLine" fill="none" stroke="#000000" stroke-width="2.48" stroke-linejoin="bevel" points="566.118,62.856 566.118,82.728"/>
<polyline class="LedgerLine" fill="none" stroke="#000000" stroke-width="0.79" stroke-linecap="square" stroke-linejoin="bevel" points="322.484,57.888 332.006,57.888"/>
<polyline class="LedgerLine" fill="none" stroke="#000000" stroke-width="0.79" stroke-linecap="square" stroke-linejoin="bevel" points="286.405,52.92 295.927,52.92"/>
<polyline class="LedgerLine" fill="none" stroke="#000000" stroke-width="0.79" stroke-linecap="square" stroke-linejoin="bevel" points="286.405,57.888 295.927,57.888"/>
<polyline class="LedgerLine" fill="none" stroke="#000000" stroke-width="0.79" stroke-linecap="square" stroke-linejoin="bevel" points="250.327,57.888 259.848,57.888"/>
<polyline class="Stem" fill="none" stroke="#000000" stroke-width="0.65" stroke-linecap="round" stroke-linejoin="bevel" points="510.586,84.2789 510.586,67.824"/>
<polyline class="Stem" fill="none" stroke="#000000" stroke-width="0.65" stroke-linecap="round" stroke-linejoin="bevel" points="474.507,79.3109 474.507,59.13"/>
<polyline class="Stem" fill="none" stroke="#000000" stroke-width="0.65" stroke-linecap="round" stroke-linejoin="bevel" points="438.428,74.3429 438.428,56.025"/>
<polyline class="Stem" fill="none" stroke="#000000" stroke-width="0.65" stroke-linecap="round" stroke-linejoin="bevel" points="402.35,66.8909 402.35,52.92"/>
<polyline class="Stem" fill="none" stroke="#000000" stroke-width="0.65" stroke-linecap="round" stroke-linejoin="bevel" points="360.376,63.7891 360.376,77.76"/>
<polyline class="Stem" fill="none" stroke="#000000" stroke-width="0.65" stroke-linecap="round" stroke-linejoin="bevel" points="324.297,58.8211 324.297,75.276"/>
<polyline class="Stem" fill="none" stroke="#000000" stroke-width="0.65" stroke-linecap="round" stroke-linejoin="bevel" points="288.219,51.3691 288.219,72.792"/>
<polyline class="Stem" fill="none" stroke="#000000" stroke-width="0.65" stroke-linecap="round" stroke-linejoin="bevel" points="252.14,58.8211 252.14,76.518"/>
<polyline class="Stem" fill="none" stroke="#000000" stroke-width="0.65" stroke-linecap="round" stroke-linejoin="bevel" points="216.061,63.7891 216.061,79.623"/>
<polyline class="Stem" fill="none" stroke="#000000" stroke-width="0.65" stroke-linecap="round" stroke-linejoin="bevel" points="179.983,68.7571 179.983,82.728"/>
<polyline class="Stem" fill="none" stroke="#000000" stroke-width="0.65" stroke-linecap="round" stroke-linejoin="bevel" points="149.799,74.3429 149.799,61.614"/>
<polyline class="Stem" fill="none" stroke="#000000" stroke-width="0.65" stroke-linecap="round" stroke-linejoin="bevel" points="113.72,79.3109 113.72,64.719"/>
<polyline class="Stem" fill="none" stroke="#000000" stroke-width="0.65" stroke-linecap="round" stroke-linejoin="bevel" points="77.6412,84.2789 77.6412,67.824"/>
<path class="Note" fill="#ffffff" fill-rule="evenodd" d="M505.113,133.65 L511.075,133.65 L511.075,141.102 L505.113,141.102 L505.113,133.65 "/>
<path class="Note" transform="matrix(0.9936,0,0,0.9936,505.61,140.854)" d="M0.390625,-3.09375 C0.390625,-5 0.927083,-6.07813 2,-6.32813 C2.14583,-6.36979 2.30208,-6.39063 2.46875,-6.39063 C3.78125,-6.39063 4.47917,-5.40104 4.5625,-3.42188 C4.5625,-3.28646 4.5625,-3.15625 4.5625,-3.03125 C4.5625,-1.40625 4.15104,-0.385417 3.32813,0.03125 C3.06771,0.145833 2.78125,0.203125 2.46875,0.203125 C1.41667,0.203125 0.760417,-0.442708 0.5,-1.73438 C0.427083,-2.14063 0.390625,-2.59375 0.390625,-3.09375 M2.46875,-5.64063 C1.625,-5.63021 1.20313,-4.77083 1.20313,-3.0625 C1.20313,-1.32292 1.61979,-0.453125 2.45313,-0.453125 C3.16146,-0.453125 3.57813,-1.02604 3.70313,-2.17188 C3.73438,-2.44271 3.75,-2.75 3.75,-3.09375 C3.75,-4.79167 3.32292,-5.64063 2.46875,-5.64063"/>
<path class="Note" fill="#78c7c7" transform="matrix(0.9936,0,0,0.9936,504.368,85.212)" d="M4.39063,-2.75 C5.01563,-2.75 5.54688,-2.58854 5.98438,-2.26563 C6.38021,-1.91146 6.57813,-1.46875 6.57813,-0.9375 C6.57813,-0.0416667 6.11979,0.796875 5.20313,1.57813 C4.26563,2.35938 3.26042,2.75 2.1875,2.75 C1.5625,2.75 1.03646,2.58854 0.609375,2.26563 C0.203125,1.91146 0,1.46875 0,0.9375 C0,0.0416667 0.46875,-0.796875 1.40625,-1.57813 C2.32292,-2.35938 3.31771,-2.75 4.39063,-2.75"/>
<path class="Note" fill="#ffffff" fill-rule="evenodd" d="M469.034,133.65 L474.996,133.65 L474.996,141.102 L469.034,141.102 L469.034,133.65 "/>
<path class="Note" transform="matrix(0.9936,0,0,0.9936,469.531,140.854)" d="M2.9375,-1.5 L0.25,-1.5 L0.25,-2.375 L3.15625,-6.39063 L3.73438,-6.39063 L3.73438,-2.23438 L4.6875,-2.23438 L4.6875,-1.5 L3.73438,-1.5 L3.73438,0 L2.9375,0 L2.9375,-1.5 M2.9375,-2.23438 L2.9375,-5.03125 L0.9375,-2.23438 L2.9375,-2.23438 "/>
<path class="Note" fill="#286704" transform="matrix(0.9936,0,0,0.9936,468.289,80.244)" d="M4.39063,-2.75 C5.01563,-2.75 5.54688,-2.58854 5.98438,-2.26563 C6.38021,-1.91146 6.57813,-1.46875 6.57813,-0.9375 C6.57813,-0.0416667 6.11979,0.796875 5.20313,1.57813 C4.26563,2.35938 3.26042,2.75 2.1875,2.75 C1.5625,2.75 1.03646,2.58854 0.609375,2.26563 C0.203125,1.91146 0,1.46875 0,0.9375 C0,0.0416667 0.46875,-0.796875 1.40625,-1.57813 C2.32292,-2.35938 3.31771,-2.75 4.39063,-2.75"/>
<path class="Note" fill="#ffffff" fill-rule="evenodd" d="M432.956,126.198 L438.917,126.198 L438.917,133.65 L432.956,133.65 L432.956,126.198 "/>
<path class="Note" transform="matrix(0.9936,0,0,0.9936,433.453,133.402)" d="M0.453125,-4.17188 C0.494792,-5.64063 1.19792,-6.38021 2.5625,-6.39063 C3.28125,-6.39063 3.83333,-6.14583 4.21875,-5.65625 C4.46875,-5.32292 4.59375,-4.93229 4.59375,-4.48438 C4.59375,-3.68229 4.14583,-3.03125 3.25,-2.53125 L2.34375,-2.04688 C1.79167,-1.75521 1.44271,-1.4375 1.29688,-1.09375 C1.24479,-0.989583 1.21354,-0.869792 1.20313,-0.734375 L4.5625,-0.734375 L4.5625,0 L0.3125,0 C0.354167,-0.760417 0.520833,-1.33854 0.8125,-1.73438 C1.07292,-2.05729 1.5,-2.38542 2.09375,-2.71875 L2.92188,-3.1875 C3.49479,-3.52083 3.78646,-3.94271 3.79688,-4.45313 C3.79688,-4.88021 3.61458,-5.21354 3.25,-5.45313 C3.04167,-5.57813 2.80208,-5.64063 2.53125,-5.64063 C1.73958,-5.64063 1.3125,-5.16667 1.25,-4.21875 C1.25,-4.19792 1.25,-4.18229 1.25,-4.17188 L0.453125,-4.17188 "/>
<path class="Note" fill="#cc00ff" transform="matrix(0.9936,0,0,0.9936,432.211,75.276)" d="M4.39063,-2.75 C5.01563,-2.75 5.54688,-2.58854 5.98438,-2.26563 C6.38021,-1.91146 6.57813,-1.46875 6.57813,-0.9375 C6.57813,-0.0416667 6.11979,0.796875 5.20313,1.57813 C4.26563,2.35938 3.26042,2.75 2.1875,2.75 C1.5625,2.75 1.03646,2.58854 0.609375,2.26563 C0.203125,1.91146 0,1.46875 0,0.9375 C0,0.0416667 0.46875,-0.796875 1.40625,-1.57813 C2.32292,-2.35938 3.31771,-2.75 4.39063,-2.75"/>
<path class="Note" fill="#ffffff" fill-rule="evenodd" d="M396.877,126.198 L402.839,126.198 L402.839,133.65 L396.877,133.65 L396.877,126.198 "/>
<path class="Note" transform="matrix(0.9936,0,0,0.9936,397.374,133.402)" d="M4.6875,-6.39063 L4.6875,-5.75 C3.46875,-4.125 2.66146,-2.49479 2.26563,-0.859375 C2.19271,-0.578125 2.13542,-0.291667 2.09375,0 L1.25,0 C1.54167,-1.32292 1.96875,-2.5 2.53125,-3.53125 C2.86458,-4.14583 3.30729,-4.84896 3.85938,-5.64063 L0.421875,-5.64063 L0.421875,-6.39063 L4.6875,-6.39063 "/>
<path class="Note" fill="#78c7c7" transform="matrix(0.9936,0,0,0.9936,396.132,67.824)" d="M4.39063,-2.75 C5.01563,-2.75 5.54688,-2.58854 5.98438,-2.26563 C6.38021,-1.91146 6.57813,-1.46875 6.57813,-0.9375 C6.57813,-0.0416667 6.11979,0.796875 5.20313,1.57813 C4.26563,2.35938 3.26042,2.75 2.1875,2.75 C1.5625,2.75 1.03646,2.58854 0.609375,2.26563 C0.203125,1.91146 0,1.46875 0,0.9375 C0,0.0416667 0.46875,-0.796875 1.40625,-1.57813 C2.32292,-2.35938 3.31771,-2.75 4.39063,-2.75"/>
<path class="Note" fill="#ffffff" fill-rule="evenodd" d="M360.798,118.746 L366.76,118.746 L366.76,126.198 L360.798,126.198 L360.798,118.746 "/>
<path class="Note" transform="matrix(0.9936,0,0,0.9936,361.295,125.95)" d="M4.6875,-6.39063 L4.6875,-5.75 C3.46875,-4.125 2.66146,-2.49479 2.26563,-0.859375 C2.19271,-0.578125 2.13542,-0.291667 2.09375,0 L1.25,0 C1.54167,-1.32292 1.96875,-2.5 2.53125,-3.53125 C2.86458,-4.14583 3.30729,-4.84896 3.85938,-5.64063 L0.421875,-5.64063 L0.421875,-6.39063 L4.6875,-6.39063 "/>
<path class="Note" fill="#286704" transform="matrix(0.9936,0,0,0.9936,360.053,62.856)" d="M4.39063,-2.75 C5.01563,-2.75 5.54688,-2.58854 5.98438,-2.26563 C6.38021,-1.91146 6.57813,-1.46875 6.57813,-0.9375 C6.57813,-0.0416667 6.11979,0.796875 5.20313,1.57813 C4.26563,2.35938 3.26042,2.75 2.1875,2.75 C1.5625,2.75 1.03646,2.58854 0.609375,2.26563 C0.203125,1.91146 0,1.46875 0,0.9375 C0,0.0416667 0.46875,-0.796875 1.40625,-1.57813 C2.32292,-2.35938 3.31771,-2.75 4.39063,-2.75"/>
<path class="Note" fill="#ffffff" fill-rule="evenodd" d="M322.236,118.746 L333.165,118.746 L333.165,126.198 L322.236,126.198 L322.236,118.746 "/>
<path class="Note" transform="matrix(0.9936,0,0,0.9936,322.732,125.95)" d="M2.32813,-4.54688 L0.921875,-4.54688 L0.921875,-5.10938 C1.53646,-5.19271 1.93229,-5.30208 2.10938,-5.4375 C2.28646,-5.57292 2.4375,-5.85417 2.5625,-6.28125 C2.57292,-6.3125 2.58854,-6.34896 2.60938,-6.39063 L3.125,-6.39063 L3.125,0 L2.32813,0 L2.32813,-4.54688 M5.39063,-3.09375 C5.39063,-5 5.92708,-6.07813 7,-6.32813 C7.14583,-6.36979 7.30208,-6.39063 7.46875,-6.39063 C8.78125,-6.39063 9.47917,-5.40104 9.5625,-3.42188 C9.5625,-3.28646 9.5625,-3.15625 9.5625,-3.03125 C9.5625,-1.40625 9.15104,-0.385417 8.32813,0.03125 C8.06771,0.145833 7.78125,0.203125 7.46875,0.203125 C6.41667,0.203125 5.76042,-0.442708 5.5,-1.73438 C5.42708,-2.14063 5.39063,-2.59375 5.39063,-3.09375 M7.46875,-5.64063 C6.625,-5.63021 6.20313,-4.77083 6.20313,-3.0625 C6.20313,-1.32292 6.61979,-0.453125 7.45313,-0.453125 C8.16146,-0.453125 8.57813,-1.02604 8.70313,-2.17188 C8.73438,-2.44271 8.75,-2.75 8.75,-3.09375 C8.75,-4.79167 8.32292,-5.64063 7.46875,-5.64063"/>
<path class="Note" fill="#cc00ff" transform="matrix(0.9936,0,0,0.9936,323.974,57.888)" d="M4.39063,-2.75 C5.01563,-2.75 5.54688,-2.58854 5.98438,-2.26563 C6.38021,-1.91146 6.57813,-1.46875 6.57813,-0.9375 C6.57813,-0.0416667 6.11979,0.796875 5.20313,1.57813 C4.26563,2.35938 3.26042,2.75 2.1875,2.75 C1.5625,2.75 1.03646,2.58854 0.609375,2.26563 C0.203125,1.91146 0,1.46875 0,0.9375 C0,0.0416667 0.46875,-0.796875 1.40625,-1.57813 C2.32292,-2.35938 3.31771,-2.75 4.39063,-2.75"/>
<path class="Note" fill="#ffffff" fill-rule="evenodd" d="M286.157,111.294 L297.087,111.294 L297.087,118.746 L286.157,118.746 L286.157,111.294 "/>
<path class="Note" transform="matrix(0.9936,0,0,0.9936,286.654,118.498)" d="M2.32813,-4.54688 L0.921875,-4.54688 L0.921875,-5.10938 C1.53646,-5.19271 1.93229,-5.30208 2.10938,-5.4375 C2.28646,-5.57292 2.4375,-5.85417 2.5625,-6.28125 C2.57292,-6.3125 2.58854,-6.34896 2.60938,-6.39063 L3.125,-6.39063 L3.125,0 L2.32813,0 L2.32813,-4.54688 M5.39063,-3.09375 C5.39063,-5 5.92708,-6.07813 7,-6.32813 C7.14583,-6.36979 7.30208,-6.39063 7.46875,-6.39063 C8.78125,-6.39063 9.47917,-5.40104 9.5625,-3.42188 C9.5625,-3.28646 9.5625,-3.15625 9.5625,-3.03125 C9.5625,-1.40625 9.15104,-0.385417 8.32813,0.03125 C8.06771,0.145833 7.78125,0.203125 7.46875,0.203125 C6.41667,0.203125 5.76042,-0.442708 5.5,-1.73438 C5.42708,-2.14063 5.39063,-2.59375 5.39063,-3.09375 M7.46875,-5.64063 C6.625,-5.63021 6.20313,-4.77083 6.20313,-3.0625 C6.20313,-1.32292 6.61979,-0.453125 7.45313,-0.453125 C8.16146,-0.453125 8.57813,-1.02604 8.70313,-2.17188 C8.73438,-2.44271 8.75,-2.75 8.75,-3.09375 C8.75,-4.79167 8.32292,-5.64063 7.46875,-5.64063"/>
<path class="Note" fill="#78c7c7" transform="matrix(0.9936,0,0,0.9936,287.896,50.436)" d="M4.39063,-2.75 C5.01563,-2.75 5.54688,-2.58854 5.98438,-2.26563 C6.38021,-1.91146 6.57813,-1.46875 6.57813,-0.9375 C6.57813,-0.0416667 6.11979,0.796875 5.20313,1.57813 C4.26563,2.35938 3.26042,2.75 2.1875,2.75 C1.5625,2.75 1.03646,2.58854 0.609375,2.26563 C0.203125,1.91146 0,1.46875 0,0.9375 C0,0.0416667 0.46875,-0.796875 1.40625,-1.57813 C2.32292,-2.35938 3.31771,-2.75 4.39063,-2.75"/>
<path class="Note" fill="#ffffff" fill-rule="evenodd" d="M250.078,118.746 L261.008,118.746 L261.008,126.198 L250.078,126.198 L250.078,118.746 "/>
<path class="Note" transform="matrix(0.9936,0,0,0.9936,250.575,125.95)" d="M2.32813,-4.54688 L0.921875,-4.54688 L0.921875,-5.10938 C1.53646,-5.19271 1.93229,-5.30208 2.10938,-5.4375 C2.28646,-5.57292 2.4375,-5.85417 2.5625,-6.28125 C2.57292,-6.3125 2.58854,-6.34896 2.60938,-6.39063 L3.125,-6.39063 L3.125,0 L2.32813,0 L2.32813,-4.54688 M5.39063,-3.09375 C5.39063,-5 5.92708,-6.07813 7,-6.32813 C7.14583,-6.36979 7.30208,-6.39063 7.46875,-6.39063 C8.78125,-6.39063 9.47917,-5.40104 9.5625,-3.42188 C9.5625,-3.28646 9.5625,-3.15625 9.5625,-3.03125 C9.5625,-1.40625 9.15104,-0.385417 8.32813,0.03125 C8.06771,0.145833 7.78125,0.203125 7.46875,0.203125 C6.41667,0.203125 5.76042,-0.442708 5.5,-1.73438 C5.42708,-2.14063 5.39063,-2.59375 5.39063,-3.09375 M7.46875,-5.64063 C6.625,-5.63021 6.20313,-4.77083 6.20313,-3.0625 C6.20313,-1.32292 6.61979,-0.453125 7.45313,-0.453125 C8.16146,-0.453125 8.57813,-1.02604 8.70313,-2.17188 C8.73438,-2.44271 8.75,-2.75 8.75,-3.09375 C8.75,-4.79167 8.32292,-5.64063 7.46875,-5.64063"/>
<path class="Note" fill="#cc00ff" transform="matrix(0.9936,0,0,0.9936,251.817,57.888)" d="M4.39063,-2.75 C5.01563,-2.75 5.54688,-2.58854 5.98438,-2.26563 C6.38021,-1.91146 6.57813,-1.46875 6.57813,-0.9375 C6.57813,-0.0416667 6.11979,0.796875 5.20313,1.57813 C4.26563,2.35938 3.26042,2.75 2.1875,2.75 C1.5625,2.75 1.03646,2.58854 0.609375,2.26563 C0.203125,1.91146 0,1.46875 0,0.9375 C0,0.0416667 0.46875,-0.796875 1.40625,-1.57813 C2.32292,-2.35938 3.31771,-2.75 4.39063,-2.75"/>
<path class="Note" fill="#ffffff" fill-rule="evenodd" d="M216.484,118.746 L222.445,118.746 L222.445,126.198 L216.484,126.198 L216.484,118.746 "/>
<path class="Note" transform="matrix(0.9936,0,0,0.9936,216.98,125.95)" d="M4.6875,-6.39063 L4.6875,-5.75 C3.46875,-4.125 2.66146,-2.49479 2.26563,-0.859375 C2.19271,-0.578125 2.13542,-0.291667 2.09375,0 L1.25,0 C1.54167,-1.32292 1.96875,-2.5 2.53125,-3.53125 C2.86458,-4.14583 3.30729,-4.84896 3.85938,-5.64063 L0.421875,-5.64063 L0.421875,-6.39063 L4.6875,-6.39063 "/>
<path class="Note" fill="#286704" transform="matrix(0.9936,0,0,0.9936,215.738,62.856)" d="M4.39063,-2.75 C5.01563,-2.75 5.54688,-2.58854 5.98438,-2.26563 C6.38021,-1.91146 6.57813,-1.46875 6.57813,-0.9375 C6.57813,-0.0416667 6.11979,0.796875 5.20313,1.57813 C4.26563,2.35938 3.26042,2.75 2.1875,2.75 C1.5625,2.75 1.03646,2.58854 0.609375,2.26563 C0.203125,1.91146 0,1.46875 0,0.9375 C0,0.0416667 0.46875,-0.796875 1.40625,-1.57813 C2.32292,-2.35938 3.31771,-2.75 4.39063,-2.75"/>
<path class="Note" fill="#ffffff" fill-rule="evenodd" d="M180.405,126.198 L186.366,126.198 L186.366,133.65 L180.405,133.65 L180.405,126.198 "/>
<path class="Note" transform="matrix(0.9936,0,0,0.9936,180.902,133.402)" d="M4.6875,-6.39063 L4.6875,-5.75 C3.46875,-4.125 2.66146,-2.49479 2.26563,-0.859375 C2.19271,-0.578125 2.13542,-0.291667 2.09375,0 L1.25,0 C1.54167,-1.32292 1.96875,-2.5 2.53125,-3.53125 C2.86458,-4.14583 3.30729,-4.84896 3.85938,-5.64063 L0.421875,-5.64063 L0.421875,-6.39063 L4.6875,-6.39063 "/>
<path class="Note" fill="#78c7c7" transform="matrix(0.9936,0,0,0.9936,179.66,67.824)" d="M4.39063,-2.75 C5.01563,-2.75 5.54688,-2.58854 5.98438,-2.26563 C6.38021,-1.91146 6.57813,-1.46875 6.57813,-0.9375 C6.57813,-0.0416667 6.11979,0.796875 5.20313,1.57813 C4.26563,2.35938 3.26042,2.75 2.1875,2.75 C1.5625,2.75 1.03646,2.58854 0.609375,2.26563 C0.203125,1.91146 0,1.46875 0,0.9375 C0,0.0416667 0.46875,-0.796875 1.40625,-1.57813 C2.32292,-2.35938 3.31771,-2.75 4.39063,-2.75"/>
<path class="Note" fill="#ffffff" fill-rule="evenodd" d="M144.326,126.198 L150.288,126.198 L150.288,133.65 L144.326,133.65 L144.326,126.198 "/>
<path class="Note" transform="matrix(0.9936,0,0,0.9936,144.823,133.402)" d="M0.453125,-4.17188 C0.494792,-5.64063 1.19792,-6.38021 2.5625,-6.39063 C3.28125,-6.39063 3.83333,-6.14583 4.21875,-5.65625 C4.46875,-5.32292 4.59375,-4.93229 4.59375,-4.48438 C4.59375,-3.68229 4.14583,-3.03125 3.25,-2.53125 L2.34375,-2.04688 C1.79167,-1.75521 1.44271,-1.4375 1.29688,-1.09375 C1.24479,-0.989583 1.21354,-0.869792 1.20313,-0.734375 L4.5625,-0.734375 L4.5625,0 L0.3125,0 C0.354167,-0.760417 0.520833,-1.33854 0.8125,-1.73438 C1.07292,-2.05729 1.5,-2.38542 2.09375,-2.71875 L2.92188,-3.1875 C3.49479,-3.52083 3.78646,-3.94271 3.79688,-4.45313 C3.79688,-4.88021 3.61458,-5.21354 3.25,-5.45313 C3.04167,-5.57813 2.80208,-5.64063 2.53125,-5.64063 C1.73958,-5.64063 1.3125,-5.16667 1.25,-4.21875 C1.25,-4.19792 1.25,-4.18229 1.25,-4.17188 L0.453125,-4.17188 "/>
<path class="Note" fill="#cc00ff" transform="matrix(0.9936,0,0,0.9936,143.581,75.276)" d="M4.39063,-2.75 C5.01563,-2.75 5.54688,-2.58854 5.98438,-2.26563 C6.38021,-1.91146 6.57813,-1.46875 6.57813,-0.9375 C6.57813,-0.0416667 6.11979,0.796875 5.20313,1.57813 C4.26563,2.35938 3.26042,2.75 2.1875,2.75 C1.5625,2.75 1.03646,2.58854 0.609375,2.26563 C0.203125,1.91146 0,1.46875 0,0.9375 C0,0.0416667 0.46875,-0.796875 1.40625,-1.57813 C2.32292,-2.35938 3.31771,-2.75 4.39063,-2.75"/>
<path class="Note" fill="#ffffff" fill-rule="evenodd" d="M108.247,133.65 L114.209,133.65 L114.209,141.102 L108.247,141.102 L108.247,133.65 "/>
<path class="Note" transform="matrix(0.9936,0,0,0.9936,108.744,140.854)" d="M2.9375,-1.5 L0.25,-1.5 L0.25,-2.375 L3.15625,-6.39063 L3.73438,-6.39063 L3.73438,-2.23438 L4.6875,-2.23438 L4.6875,-1.5 L3.73438,-1.5 L3.73438,0 L2.9375,0 L2.9375,-1.5 M2.9375,-2.23438 L2.9375,-5.03125 L0.9375,-2.23438 L2.9375,-2.23438 "/>
<path class="Note" fill="#286704" transform="matrix(0.9936,0,0,0.9936,107.502,80.244)" d="M4.39063,-2.75 C5.01563,-2.75 5.54688,-2.58854 5.98438,-2.26563 C6.38021,-1.91146 6.57813,-1.46875 6.57813,-0.9375 C6.57813,-0.0416667 6.11979,0.796875 5.20313,1.57813 C4.26563,2.35938 3.26042,2.75 2.1875,2.75 C1.5625,2.75 1.03646,2.58854 0.609375,2.26563 C0.203125,1.91146 0,1.46875 0,0.9375 C0,0.0416667 0.46875,-0.796875 1.40625,-1.57813 C2.32292,-2.35938 3.31771,-2.75 4.39063,-2.75"/>
<path class="Note" fill="#ffffff" fill-rule="evenodd" d="M72.1687,133.65 L78.1303,133.65 L78.1303,141.102 L72.1687,141.102 L72.1687,133.65 "/>
<path class="Note" transform="matrix(0.9936,0,0,0.9936,72.6655,140.854)" d="M0.390625,-3.09375 C0.390625,-5 0.927083,-6.07813 2,-6.32813 C2.14583,-6.36979 2.30208,-6.39063 2.46875,-6.39063 C3.78125,-6.39063 4.47917,-5.40104 4.5625,-3.42188 C4.5625,-3.28646 4.5625,-3.15625 4.5625,-3.03125 C4.5625,-1.40625 4.15104,-0.385417 3.32813,0.03125 C3.06771,0.145833 2.78125,0.203125 2.46875,0.203125 C1.41667,0.203125 0.760417,-0.442708 0.5,-1.73438 C0.427083,-2.14063 0.390625,-2.59375 0.390625,-3.09375 M2.46875,-5.64063 C1.625,-5.63021 1.20313,-4.77083 1.20313,-3.0625 C1.20313,-1.32292 1.61979,-0.453125 2.45313,-0.453125 C3.16146,-0.453125 3.57813,-1.02604 3.70313,-2.17188 C3.73438,-2.44271 3.75,-2.75 3.75,-3.09375 C3.75,-4.79167 3.32292,-5.64063 2.46875,-5.64063"/>
<path class="Note" fill="#78c7c7" transform="matrix(0.9936,0,0,0.9936,71.4235,85.212)" d="M4.39063,-2.75 C5.01563,-2.75 5.54688,-2.58854 5.98438,-2.26563 C6.38021,-1.91146 6.57813,-1.46875 6.57813,-0.9375 C6.57813,-0.0416667 6.11979,0.796875 5.20313,1.57813 C4.26563,2.35938 3.26042,2.75 2.1875,2.75 C1.5625,2.75 1.03646,2.58854 0.609375,2.26563 C0.203125,1.91146 0,1.46875 0,0.9375 C0,0.0416667 0.46875,-0.796875 1.40625,-1.57813 C2.32292,-2.35938 3.31771,-2.75 4.39063,-2.75"/>
<path class="Clef" transform="matrix(0.9936,0,0,0.9936,32.0544,133.65)" d="M5.32813,8.5 C5.32813,8.86458 5.04167,9.04688 4.46875,9.04688 C4.02083,9.04688 3.625,8.91146 3.28125,8.64063 C2.95833,8.34896 2.79688,7.98438 2.79688,7.54688 C2.79688,6.76563 3.27083,6.14063 4.21875,5.67188 C5.14583,5.18229 6.23438,4.9375 7.48438,4.9375 C7.96354,4.9375 8.47917,4.97396 9.03125,5.04688 C9.42708,5.09896 9.875,5.20313 10.375,5.35938 C10.8125,5.49479 11.1563,5.70573 11.4063,5.99219 C11.6563,6.27865 11.7813,6.61458 11.7813,7 C11.7813,7.89583 11.3177,8.63021 10.3906,9.20313 C11.7448,9.45313 12.4271,10.0573 12.4375,11.0156 C12.4375,11.8281 12.0729,12.5599 11.3438,13.2109 C10.6146,13.862 9.79167,14.1875 8.875,14.1875 C8.47917,14.1875 8.07813,14.0938 7.67188,13.9063 C7.29688,13.7292 7.03125,13.5625 6.875,13.4063 C6.71875,13.2188 6.64063,13.0781 6.64063,12.9844 C6.64063,12.8594 6.70833,12.75 6.84375,12.6563 C6.95833,12.5417 7.07813,12.4844 7.20313,12.4844 C7.25521,12.4844 7.36719,12.5677 7.53906,12.7344 C7.71094,12.901 7.95833,12.9844 8.28125,12.9844 C8.72917,12.9844 9.16146,12.7969 9.57813,12.4219 C9.97396,12.0573 10.1719,11.6198 10.1719,11.1094 C10.1719,10.6719 9.98438,10.3542 9.60938,10.1563 C9.24479,9.95833 8.76563,9.85938 8.17188,9.85938 C8.06771,9.85938 8.01563,9.75 8.01563,9.53125 C8.01563,9.21875 8.13021,9.0625 8.35938,9.0625 C8.72396,9.0625 9.05208,8.90625 9.34375,8.59375 C9.61458,8.26042 9.75,7.90104 9.75,7.51563 C9.75,7.40104 9.71875,7.22917 9.65625,7 C9.60417,6.84375 9.44792,6.65104 9.1875,6.42188 C8.9375,6.21354 8.58854,6.07292 8.14063,6 C8.02604,6.63542 7.88021,7.44792 7.70313,8.4375 C7.52604,9.42708 7.40625,10.0781 7.34375,10.3906 C7.125,11.5156 6.72396,12.4583 6.14063,13.2188 C5.52604,14.0313 4.86458,14.4375 4.15625,14.4375 C3.9375,14.4375 3.71354,14.3854 3.48438,14.2813 C3.29688,14.1979 3.0625,14.0365 2.78125,13.7969 C2.52083,13.5885 2.34375,13.4479 2.25,13.375 C2.19792,13.3438 2.17188,13.2865 2.17188,13.2031 C2.17188,13.0781 2.21875,12.9635 2.3125,12.8594 C2.41667,12.7344 2.52604,12.6719 2.64063,12.6719 C2.71354,12.6719 2.89323,12.7969 3.17969,13.0469 C3.46615,13.2969 3.76563,13.4219 4.07813,13.4219 C4.68229,13.4219 5.13542,13.0365 5.4375,12.2656 C5.71875,11.526 5.85938,10.6094 5.85938,9.51563 L5.85938,9.35938 C5.85938,8.63021 5.97917,7.54167 6.21875,6.09375 C5.80208,6.22917 5.46875,6.42708 5.21875,6.6875 C4.95833,6.94792 4.82813,7.21875 4.82813,7.5 C4.82813,7.71875 4.91146,7.90625 5.07813,8.0625 C5.24479,8.21875 5.32813,8.36458 5.32813,8.5 M1.40625,2.39063 C1.46875,2.39063 1.625,2.45313 1.875,2.57813 C2.13542,2.71354 2.35938,2.78125 2.54688,2.78125 C3.03646,2.78125 3.64063,2.42188 4.35938,1.70313 C6.43229,-0.411458 7.85938,-2.65104 8.64063,-5.01563 C8.79688,-5.51563 9.17708,-5.76563 9.78125,-5.76563 C10.0938,-5.76563 10.3646,-5.69792 10.5938,-5.5625 C10.8125,-5.42708 10.9219,-5.28646 10.9219,-5.14063 L10.5625,2.17188 C10.5625,2.55729 10.7031,2.75 10.9844,2.75 C11.1198,2.75 11.3281,2.6875 11.6094,2.5625 C11.8698,2.42708 12.026,2.35938 12.0781,2.35938 C12.1823,2.35938 12.2448,2.47396 12.2656,2.70313 C12.2656,2.91146 12.1823,3.04167 12.0156,3.09375 C11.8802,3.125 11.6198,3.24479 11.2344,3.45313 C10.8281,3.66146 10.5104,3.76563 10.2813,3.76563 C9.78125,3.76563 9.42708,3.375 9.21875,2.59375 C8.89583,1.375 8.6875,0.104167 8.59375,-1.21875 C8.07292,-0.552083 7.49479,0.119792 6.85938,0.796875 C7.08854,1.24479 7.51563,1.46875 8.14063,1.46875 C8.23438,1.46875 8.30729,1.46354 8.35938,1.45313 L8.375,1.45313 C8.47917,1.45313 8.53125,1.54688 8.53125,1.73438 C8.53125,1.98438 8.44792,2.13542 8.28125,2.1875 C8.01042,2.28125 7.72396,2.32813 7.42188,2.32813 C6.77604,2.32813 6.30729,2.10417 6.01563,1.65625 L5.23438,2.35938 C4.14063,3.29688 3.25,3.76563 2.5625,3.76563 C2.375,3.76563 2.1875,3.73438 2,3.67188 C1.84375,3.60938 1.66146,3.51042 1.45313,3.375 C1.36979,3.34375 1.27865,3.29688 1.17969,3.23438 C1.08073,3.17188 1.02083,3.13542 1,3.125 C0.9375,3.10417 0.90625,3.04688 0.90625,2.95313 C0.90625,2.84896 0.958333,2.72396 1.0625,2.57813 C1.14583,2.45313 1.26042,2.39063 1.40625,2.39063 M5.76563,-10.7969 C5.76563,-10.474 5.48438,-10.3125 4.92188,-10.3125 C4.43229,-10.3125 4.00521,-10.474 3.64063,-10.7969 C3.28646,-11.1302 3.10938,-11.5313 3.10938,-12 C3.10938,-12.4479 3.25,-12.8385 3.53125,-13.1719 C3.83333,-13.5052 4.21875,-13.7552 4.6875,-13.9219 C5.11458,-14.0781 5.59896,-14.2031 6.14063,-14.2969 C6.69271,-14.3594 7.22396,-14.3906 7.73438,-14.3906 C8.03646,-14.3906 8.59896,-14.2552 9.42188,-13.9844 C10.2552,-13.7135 10.8333,-13.5781 11.1563,-13.5781 C11.5625,-13.5781 11.9479,-13.651 12.3125,-13.7969 C12.6042,-13.9219 12.8906,-14.0677 13.1719,-14.2344 C13.3906,-14.3802 13.5104,-14.4531 13.5313,-14.4531 C13.6563,-14.4531 13.7604,-14.4167 13.8438,-14.3438 C13.9479,-14.2396 14,-14.151 14,-14.0781 C14,-13.9948 13.8802,-13.849 13.6406,-13.6406 C13.3802,-13.401 13.0078,-13.1641 12.5234,-12.9297 C12.0391,-12.6953 11.5313,-12.5781 11,-12.5781 C10.7604,-12.5781 10.4688,-12.6198 10.125,-12.7031 C9.89583,-11.2552 9.66146,-9.96875 9.42188,-8.84375 C9.21354,-7.85417 8.79688,-6.98958 8.17188,-6.25 C7.56771,-5.51042 6.89583,-5.14063 6.15625,-5.14063 C5.85417,-5.14063 5.58854,-5.19792 5.35938,-5.3125 C5.09896,-5.44792 4.82292,-5.64583 4.53125,-5.90625 C4.30208,-6.09375 4.08333,-6.26563 3.875,-6.42188 C3.82292,-6.46354 3.79688,-6.52604 3.79688,-6.60938 C3.79688,-6.69271 3.84896,-6.80729 3.95313,-6.95313 C4.05729,-7.06771 4.15104,-7.125 4.23438,-7.125 C4.31771,-7.125 4.54167,-6.96354 4.90625,-6.64063 C5.27083,-6.31771 5.59375,-6.15625 5.875,-6.15625 C6.39583,-6.15625 6.80208,-6.45313 7.09375,-7.04688 C7.375,-7.64063 7.53646,-8.34375 7.57813,-9.15625 C7.64063,-10.5 7.79167,-11.8906 8.03125,-13.3281 C7.73958,-13.3906 7.52604,-13.4219 7.39063,-13.4219 C6.76563,-13.4219 6.22917,-13.2917 5.78125,-13.0313 C5.34375,-12.7813 5.125,-12.4427 5.125,-12.0156 C5.125,-11.7031 5.22917,-11.4635 5.4375,-11.2969 C5.65625,-11.1094 5.76563,-10.9427 5.76563,-10.7969"/>
<path class="Clef" transform="matrix(0.9936,0,0,0.9936,32.0544,77.76)" d="M7.34375,-5.125 C7.34375,-5.125 7.38542,-5.125 7.46875,-5.125 C7.52083,-5.13542 7.5625,-5.14063 7.59375,-5.14063 C9.05208,-5.14063 10.25,-4.625 11.1875,-3.59375 C12.125,-2.58333 12.5938,-1.40104 12.5938,-0.046875 C12.5938,1.64063 11.901,3.01042 10.5156,4.0625 C10.151,4.35417 9.67188,4.58854 9.07813,4.76563 C9.15104,5.60938 9.1875,6.29167 9.1875,6.8125 C9.1875,6.91667 9.17188,7.29688 9.14063,7.95313 C9.08854,9.16146 8.67188,10.2083 7.89063,11.0938 C7.14063,11.9688 6.20313,12.4063 5.07813,12.4063 C4.02604,12.4063 3.13021,12.0365 2.39063,11.2969 C1.64063,10.5365 1.26563,9.625 1.26563,8.5625 C1.26563,8 1.48438,7.52083 1.92188,7.125 C2.35938,6.73958 2.86979,6.54688 3.45313,6.54688 C3.97396,6.54688 4.41146,6.75 4.76563,7.15625 C5.13021,7.53125 5.3125,8 5.3125,8.5625 C5.3125,9.0625 5.13021,9.49479 4.76563,9.85938 C4.40104,10.224 3.96354,10.4063 3.45313,10.4063 C3.24479,10.4063 3.04688,10.3698 2.85938,10.2969 C3.43229,11.1406 4.19271,11.5625 5.14063,11.5625 C6.03646,11.5625 6.77083,11.1979 7.34375,10.4688 C7.94792,9.71875 8.27604,8.83854 8.32813,7.82813 C8.34896,7.20313 8.35938,6.84896 8.35938,6.76563 C8.35938,6.03646 8.33333,5.4375 8.28125,4.96875 C7.63542,5.07292 7.05729,5.125 6.54688,5.125 C4.73438,5.125 3.19271,4.40625 1.92188,2.96875 C0.671875,1.52083 0.046875,-0.197917 0.046875,-2.1875 C0.046875,-2.60417 0.0833333,-3.02604 0.15625,-3.45313 C0.239583,-3.80729 0.338542,-4.19271 0.453125,-4.60938 C0.515625,-4.84896 0.692708,-5.22917 0.984375,-5.75 C1.08854,-5.90625 1.20573,-6.10156 1.33594,-6.33594 C1.46615,-6.57031 1.55729,-6.72396 1.60938,-6.79688 C1.73438,-7.05729 1.98438,-7.41146 2.35938,-7.85938 C2.46354,-7.97396 2.57292,-8.10156 2.6875,-8.24219 C2.80208,-8.38281 2.89844,-8.5 2.97656,-8.59375 C3.05469,-8.6875 3.11198,-8.76042 3.14844,-8.8125 C3.1849,-8.86458 3.47917,-9.20833 4.03125,-9.84375 C4.15625,-9.97917 4.28125,-10.1198 4.40625,-10.2656 C4.53125,-10.4115 4.63281,-10.5286 4.71094,-10.6172 C4.78906,-10.7057 4.84896,-10.7656 4.89063,-10.7969 C4.42188,-12.349 4.125,-13.5885 4,-14.5156 C3.91667,-15.2552 3.875,-16.2708 3.875,-17.5625 C3.875,-18.6979 4.13542,-19.7604 4.65625,-20.75 C5.15625,-21.7708 5.86458,-22.6094 6.78125,-23.2656 C6.84375,-23.3073 6.90625,-23.3281 6.96875,-23.3281 C7.0625,-23.3281 7.13021,-23.3073 7.17188,-23.2656 C7.86979,-22.4219 8.47396,-21.3229 8.98438,-19.9688 C9.50521,-18.6146 9.76563,-17.3802 9.76563,-16.2656 C9.76563,-15.0156 9.46875,-13.8438 8.875,-12.75 C8.19792,-11.5938 7.32292,-10.3958 6.25,-9.15625 C6.52083,-8.30208 6.88542,-6.95833 7.34375,-5.125 M9,3.96875 C9.67708,3.71875 10.2083,3.29688 10.5938,2.70313 C11.0104,2.13021 11.2188,1.48438 11.2188,0.765625 C11.2188,-0.161458 10.9063,-0.984375 10.2813,-1.70313 C9.63542,-2.44271 8.81771,-2.85938 7.82813,-2.95313 C8.39063,-0.203125 8.78125,2.10417 9,3.96875 M1.45313,-0.546875 C1.45313,0.744792 1.97396,1.88021 3.01563,2.85938 C4.07813,3.80729 5.27604,4.28125 6.60938,4.28125 C7.15104,4.28125 7.68229,4.23958 8.20313,4.15625 C7.99479,2.17708 7.58333,-0.192708 6.96875,-2.95313 C6.22917,-2.86979 5.64063,-2.60938 5.20313,-2.17188 C4.76563,-1.71354 4.54688,-1.19792 4.54688,-0.625 C4.54688,0.364583 5.07813,1.16667 6.14063,1.78125 C6.22396,1.875 6.26563,1.97396 6.26563,2.07813 C6.26563,2.18229 6.22396,2.27604 6.14063,2.35938 C6.05729,2.45313 5.95833,2.5 5.84375,2.5 C5.83333,2.5 5.77604,2.48958 5.67188,2.46875 C4.92188,2.0625 4.34896,1.54167 3.95313,0.90625 C3.56771,0.21875 3.375,-0.46875 3.375,-1.15625 C3.375,-2.05208 3.65625,-2.86458 4.21875,-3.59375 C4.80208,-4.32292 5.5625,-4.79167 6.5,-5 C6.13542,-6.45833 5.83854,-7.59896 5.60938,-8.42188 C5.40104,-8.18229 5.15104,-7.89844 4.85938,-7.57031 C4.56771,-7.24219 4.39583,-7.04167 4.34375,-6.96875 C3.875,-6.36458 3.51563,-5.89063 3.26563,-5.54688 C2.81771,-4.93229 2.48958,-4.40625 2.28125,-3.96875 C2.0625,-3.46875 1.86979,-2.92708 1.70313,-2.34375 C1.53646,-1.78125 1.45313,-1.18229 1.45313,-0.546875 M7.96875,-20.4063 C6.98958,-19.9271 6.22396,-19.2396 5.67188,-18.3438 C5.09896,-17.4167 4.8125,-16.4219 4.8125,-15.3594 C4.8125,-14.4219 5.04688,-13.1563 5.51563,-11.5625 C6.45313,-12.6979 7.15625,-13.7448 7.625,-14.7031 C8.11458,-15.724 8.35938,-16.7865 8.35938,-17.8906 C8.35938,-18.724 8.22917,-19.5625 7.96875,-20.4063 M5.82813,15.2344 C6.16146,14.901 6.32813,14.5625 6.32813,14.2188 C6.30729,13.9479 6.19271,13.7396 5.98438,13.5938 C5.74479,13.4375 5.46875,13.3594 5.15625,13.3594 C4.9375,13.3594 4.75521,13.4323 4.60938,13.5781 C4.48438,13.7031 4.42188,13.8646 4.42188,14.0625 C4.42188,14.3021 4.51563,14.4792 4.70313,14.5938 L5.82813,15.2344 M6.14063,15.4063 C6.68229,15.7083 6.95313,16.1146 6.95313,16.625 L6.95313,16.6875 C6.95313,17.0833 6.79167,17.4219 6.46875,17.7031 C6.14583,17.9844 5.68229,18.125 5.07813,18.125 C4.58854,18.125 4.16146,17.9948 3.79688,17.7344 C3.43229,17.4844 3.25,17.1458 3.25,16.7188 C3.25,16.5521 3.29167,16.3958 3.375,16.25 C3.47917,16.0833 3.56771,15.9688 3.64063,15.9063 L4,15.5313 C3.60417,15.2604 3.40625,14.901 3.40625,14.4531 C3.40625,14.099 3.5625,13.7865 3.875,13.5156 C4.19792,13.2552 4.625,13.125 5.15625,13.125 C5.60417,13.125 5.98438,13.224 6.29688,13.4219 C6.60938,13.6198 6.76563,13.8854 6.76563,14.2188 C6.76563,14.5729 6.55729,14.9688 6.14063,15.4063 M4.29688,15.7031 C3.91146,16.0469 3.70313,16.3854 3.67188,16.7188 C3.70313,17.0729 3.84896,17.3542 4.10938,17.5625 C4.39063,17.7813 4.71354,17.8906 5.07813,17.8906 C5.33854,17.8906 5.54688,17.8073 5.70313,17.6406 C5.85938,17.4844 5.9375,17.2969 5.9375,17.0781 C5.92708,16.7865 5.8125,16.5781 5.59375,16.4531 L4.29688,15.7031 "/>
<path class="KeySig" transform="matrix(0.9936,0,0,0.9936,54.3173,70.308)" d="M4.3125,6.23438 C4.3125,6.48438 4.1901,6.60938 3.94531,6.60938 C3.70052,6.60938 3.57813,6.48438 3.57813,6.23438 L3.57813,3.34375 L1.92188,3.96875 L1.92188,7.125 C1.92188,7.375 1.79688,7.5 1.54688,7.5 C1.29688,7.5 1.17188,7.375 1.17188,7.125 L1.17188,4.21875 L0.546875,4.45313 C0.536458,4.46354 0.484375,4.46875 0.390625,4.46875 C0.286458,4.46875 0.195313,4.42969 0.117188,4.35156 C0.0390625,4.27344 0,4.18229 0,4.07813 L0,2.875 C0,2.67708 0.0833333,2.55208 0.25,2.5 L1.17188,2.1875 L1.17188,-1.01563 L0.546875,-0.796875 C0.536458,-0.786458 0.484375,-0.78125 0.390625,-0.78125 C0.286458,-0.78125 0.195313,-0.820313 0.117188,-0.898438 C0.0390625,-0.976563 0,-1.06771 0,-1.17188 L0,-2.39063 C0,-2.56771 0.0833333,-2.68229 0.25,-2.73438 L1.17188,-3.09375 L1.17188,-6.23438 C1.17188,-6.48438 1.29688,-6.60938 1.54688,-6.60938 C1.79688,-6.60938 1.92188,-6.48438 1.92188,-6.23438 L1.92188,-3.34375 L3.57813,-3.96875 L3.57813,-7.125 C3.57813,-7.375 3.70052,-7.5 3.94531,-7.5 C4.1901,-7.5 4.3125,-7.375 4.3125,-7.125 L4.3125,-4.21875 L4.96875,-4.45313 C4.97917,-4.46354 5.02083,-4.46875 5.09375,-4.46875 C5.1875,-4.46875 5.28646,-4.43229 5.39063,-4.35938 C5.47396,-4.27604 5.51563,-4.18229 5.51563,-4.07813 L5.51563,-2.875 C5.51563,-2.6875 5.42188,-2.5625 5.23438,-2.5 L4.3125,-2.1875 L4.3125,1.01563 L4.96875,0.796875 C4.97917,0.786458 5.02083,0.78125 5.09375,0.78125 C5.1875,0.78125 5.28646,0.822917 5.39063,0.90625 C5.47396,0.979167 5.51563,1.06771 5.51563,1.17188 L5.51563,2.39063 C5.51563,2.55729 5.42188,2.67188 5.23438,2.73438 L4.3125,3.09375 L4.3125,6.23438 M3.57813,-1.89063 L1.92188,-1.3125 L1.92188,1.89063 L3.57813,1.3125 L3.57813,-1.89063 "/>
<path class="KeySig" transform="matrix(0.9936,0,0,0.9936,49.3492,62.856)" d="M4.3125,6.23438 C4.3125,6.48438 4.1901,6.60938 3.94531,6.60938 C3.70052,6.60938 3.57813,6.48438 3.57813,6.23438 L3.57813,3.34375 L1.92188,3.96875 L1.92188,7.125 C1.92188,7.375 1.79688,7.5 1.54688,7.5 C1.29688,7.5 1.17188,7.375 1.17188,7.125 L1.17188,4.21875 L0.546875,4.45313 C0.536458,4.46354 0.484375,4.46875 0.390625,4.46875 C0.286458,4.46875 0.195313,4.42969 0.117188,4.35156 C0.0390625,4.27344 0,4.18229 0,4.07813 L0,2.875 C0,2.67708 0.0833333,2.55208 0.25,2.5 L1.17188,2.1875 L1.17188,-1.01563 L0.546875,-0.796875 C0.536458,-0.786458 0.484375,-0.78125 0.390625,-0.78125 C0.286458,-0.78125 0.195313,-0.820313 0.117188,-0.898438 C0.0390625,-0.976563 0,-1.06771 0,-1.17188 L0,-2.39063 C0,-2.56771 0.0833333,-2.68229 0.25,-2.73438 L1.17188,-3.09375 L1.17188,-6.23438 C1.17188,-6.48438 1.29688,-6.60938 1.54688,-6.60938 C1.79688,-6.60938 1.92188,-6.48438 1.92188,-6.23438 L1.92188,-3.34375 L3.57813,-3.96875 L3.57813,-7.125 C3.57813,-7.375 3.70052,-7.5 3.94531,-7.5 C4.1901,-7.5 4.3125,-7.375 4.3125,-7.125 L4.3125,-4.21875 L4.96875,-4.45313 C4.97917,-4.46354 5.02083,-4.46875 5.09375,-4.46875 C5.1875,-4.46875 5.28646,-4.43229 5.39063,-4.35938 C5.47396,-4.27604 5.51563,-4.18229 5.51563,-4.07813 L5.51563,-2.875 C5.51563,-2.6875 5.42188,-2.5625 5.23438,-2.5 L4.3125,-2.1875 L4.3125,1.01563 L4.96875,0.796875 C4.97917,0.786458 5.02083,0.78125 5.09375,0.78125 C5.1875,0.78125 5.28646,0.822917 5.39063,0.90625 C5.47396,0.979167 5.51563,1.06771 5.51563,1.17188 L5.51563,2.39063 C5.51563,2.55729 5.42188,2.67188 5.23438,2.73438 L4.3125,3.09375 L4.3125,6.23438 M3.57813,-1.89063 L1.92188,-1.3125 L1.92188,1.89063 L3.57813,1.3125 L3.57813,-1.89063 "/>
<path class="Beam" fill-rule="evenodd" d="M402.027,51.6224 L474.83,57.888 L474.83,60.372 L402.027,54.1064 L402.027,51.6224 "/>
<path class="Beam" fill-rule="evenodd" d="M287.896,71.55 L360.699,76.5625 L360.699,79.0465 L287.896,74.034 L287.896,71.55 "/>
<path class="Beam" fill-rule="evenodd" d="M179.66,81.486 L252.463,75.2204 L252.463,77.7044 L179.66,83.97 L179.66,81.486 "/>
<path class="Beam" fill-rule="evenodd" d="M77.3183,66.6376 L150.122,60.372 L150.122,62.856 L77.3183,69.1216 L77.3183,66.6376 "/>
<path class="Fingering" d="M499.884,87.8214 C499.29,87.8214 498.827,87.5141 498.493,86.8995 C498.212,86.3995 498.071,85.7745 498.071,85.0245 C498.071,84.1287 498.28,83.4255 498.696,82.9151 C499.03,82.5193 499.436,82.3162 499.915,82.3057 C500.478,82.3057 500.92,82.5922 501.243,83.1651 C501.545,83.6755 501.696,84.311 501.696,85.0714 C501.696,86.0401 501.473,86.7797 501.025,87.2901 C500.702,87.6443 500.321,87.8214 499.884,87.8214 M499.884,82.5089 C499.238,82.5089 498.889,83.2797 498.837,84.8214 C498.837,84.9151 498.837,85.0089 498.837,85.1026 C498.848,86.7693 499.196,87.6078 499.884,87.6182 C500.571,87.6078 500.915,86.7641 500.915,85.087 C500.915,83.5662 500.644,82.7172 500.103,82.5401 C500.03,82.5193 499.957,82.5089 499.884,82.5089"/>
<path class="Fingering" d="M462.446,82.119 C462.571,82.119 462.753,82.1867 462.993,82.3221 C463.243,82.4784 463.456,82.5565 463.633,82.5565 C463.998,82.5565 464.284,82.395 464.493,82.0721 C464.618,81.8638 464.68,81.6294 464.68,81.369 C464.68,80.6086 464.227,80.1919 463.321,80.119 C463.227,80.1086 463.128,80.1034 463.024,80.1034 L463.024,79.994 C463.628,79.7961 464.024,79.5409 464.212,79.2284 C464.305,79.0617 464.352,78.8794 464.352,78.6815 C464.352,78.3273 464.206,78.0721 463.915,77.9159 C463.779,77.8534 463.633,77.8221 463.477,77.8221 C463.029,77.8221 462.659,78.0565 462.368,78.5252 C462.337,78.5669 462.31,78.6138 462.29,78.6659 L462.165,78.6346 C462.415,77.9575 462.779,77.5461 463.258,77.4002 C463.404,77.3586 463.566,77.3377 463.743,77.3377 C464.222,77.3377 464.576,77.5044 464.805,77.8377 C464.93,78.0148 464.993,78.2127 464.993,78.4315 C464.993,78.7544 464.842,79.0461 464.54,79.3065 C464.446,79.3794 464.347,79.4575 464.243,79.5409 C464.722,79.7492 465.029,80.0357 465.165,80.4002 C465.227,80.5773 465.258,80.7752 465.258,80.994 C465.258,81.6294 464.993,82.1242 464.462,82.4784 C464.066,82.7284 463.597,82.8534 463.055,82.8534 C462.566,82.8534 462.274,82.744 462.18,82.5252 C462.159,82.4836 462.149,82.4419 462.149,82.4002 C462.149,82.244 462.227,82.1555 462.383,82.1346 C462.404,82.1242 462.425,82.119 462.446,82.119"/>
<path class="Fingering" d="M427.195,73.0416 C427.081,73.0416 426.888,73.0989 426.617,73.2135 L426.617,73.1041 L428.055,72.3697 L428.117,72.3854 L428.117,77.1822 C428.117,77.3906 428.18,77.526 428.305,77.5885 C428.409,77.6302 428.602,77.651 428.883,77.651 L428.883,77.776 L426.664,77.776 L426.664,77.651 C427.018,77.6406 427.242,77.5781 427.336,77.4635 C427.398,77.3697 427.43,77.2239 427.43,77.026 L427.43,73.4166 C427.419,73.1666 427.341,73.0416 427.195,73.0416"/>
<path class="Fingering" d="M391.117,65.5896 C391.002,65.5896 390.809,65.6469 390.538,65.7615 L390.538,65.6521 L391.976,64.9177 L392.038,64.9334 L392.038,69.7302 C392.038,69.9386 392.101,70.074 392.226,70.1365 C392.33,70.1782 392.523,70.199 392.804,70.199 L392.804,70.324 L390.585,70.324 L390.585,70.199 C390.94,70.1886 391.163,70.1261 391.257,70.0115 C391.32,69.9177 391.351,69.7719 391.351,69.574 L391.351,65.9646 C391.341,65.7146 391.262,65.5896 391.117,65.5896"/>
<path class="Fingering" d="M353.819,61.5435 C354.059,60.5227 354.585,59.9966 355.397,59.9654 C355.429,59.9654 355.455,59.9654 355.475,59.9654 C355.965,59.9654 356.356,60.1425 356.647,60.4966 C356.856,60.757 356.96,61.0487 356.96,61.3716 C356.96,61.9654 356.642,62.606 356.007,63.2935 C355.986,63.3143 355.96,63.3352 355.929,63.356 L354.6,64.7779 L356.507,64.7779 C356.715,64.7779 356.876,64.7206 356.991,64.606 C357.064,64.5331 357.152,64.4133 357.257,64.2466 L357.366,64.2779 L356.929,65.356 L353.804,65.356 L353.804,65.2622 L355.225,63.7466 C355.902,63.007 356.251,62.3143 356.272,61.6685 C356.272,61.2206 356.1,60.8977 355.757,60.6997 C355.58,60.5956 355.376,60.5435 355.147,60.5435 C354.793,60.5435 354.517,60.6789 354.319,60.9497 C354.205,61.106 354.095,61.3195 353.991,61.5904 L353.819,61.5435 "/>
<path class="Fingering" d="M318.131,59.763 C318.256,59.763 318.438,59.8307 318.678,59.9661 C318.928,60.1224 319.141,60.2005 319.319,60.2005 C319.683,60.2005 319.97,60.039 320.178,59.7161 C320.303,59.5078 320.365,59.2734 320.365,59.013 C320.365,58.2526 319.912,57.8359 319.006,57.763 C318.912,57.7526 318.813,57.7474 318.709,57.7474 L318.709,57.638 C319.313,57.4401 319.709,57.1849 319.897,56.8724 C319.99,56.7057 320.037,56.5234 320.037,56.3255 C320.037,55.9713 319.891,55.7161 319.6,55.5599 C319.464,55.4974 319.319,55.4661 319.162,55.4661 C318.714,55.4661 318.345,55.7005 318.053,56.1692 C318.022,56.2109 317.996,56.2578 317.975,56.3099 L317.85,56.2786 C318.1,55.6015 318.464,55.1901 318.944,55.0442 C319.089,55.0026 319.251,54.9817 319.428,54.9817 C319.907,54.9817 320.261,55.1484 320.49,55.4817 C320.615,55.6588 320.678,55.8567 320.678,56.0755 C320.678,56.3984 320.527,56.6901 320.225,56.9505 C320.131,57.0234 320.032,57.1015 319.928,57.1849 C320.407,57.3932 320.714,57.6797 320.85,58.0442 C320.912,58.2213 320.944,58.4192 320.944,58.638 C320.944,59.2734 320.678,59.7682 320.147,60.1224 C319.751,60.3724 319.282,60.4974 318.74,60.4974 C318.251,60.4974 317.959,60.388 317.865,60.1692 C317.845,60.1276 317.834,60.0859 317.834,60.0442 C317.834,59.888 317.912,59.7995 318.069,59.7786 C318.089,59.7682 318.11,59.763 318.131,59.763"/>
<path class="Fingering" d="M285.193,51.1235 L285.193,51.6079 L284.365,51.6079 L284.365,52.936 L283.755,52.936 L283.755,51.6079 L281.505,51.6079 L281.505,51.1235 L284.021,47.5297 L284.365,47.5297 L284.365,51.1235 L285.193,51.1235 M283.74,51.1235 L283.74,48.3735 L281.834,51.1235 L283.74,51.1235 "/>
<path class="Fingering" d="M245.974,59.763 C246.099,59.763 246.281,59.8307 246.521,59.9661 C246.771,60.1224 246.984,60.2005 247.161,60.2005 C247.526,60.2005 247.812,60.039 248.021,59.7161 C248.146,59.5078 248.208,59.2734 248.208,59.013 C248.208,58.2526 247.755,57.8359 246.849,57.763 C246.755,57.7526 246.656,57.7474 246.552,57.7474 L246.552,57.638 C247.156,57.4401 247.552,57.1849 247.739,56.8724 C247.833,56.7057 247.88,56.5234 247.88,56.3255 C247.88,55.9713 247.734,55.7161 247.442,55.5599 C247.307,55.4974 247.161,55.4661 247.005,55.4661 C246.557,55.4661 246.187,55.7005 245.896,56.1692 C245.864,56.2109 245.838,56.2578 245.817,56.3099 L245.692,56.2786 C245.942,55.6015 246.307,55.1901 246.786,55.0442 C246.932,55.0026 247.093,54.9817 247.271,54.9817 C247.75,54.9817 248.104,55.1484 248.333,55.4817 C248.458,55.6588 248.521,55.8567 248.521,56.0755 C248.521,56.3984 248.369,56.6901 248.067,56.9505 C247.974,57.0234 247.875,57.1015 247.771,57.1849 C248.25,57.3932 248.557,57.6797 248.692,58.0442 C248.755,58.2213 248.786,58.4192 248.786,58.638 C248.786,59.2734 248.521,59.7682 247.989,60.1224 C247.593,60.3724 247.125,60.4974 246.583,60.4974 C246.093,60.4974 245.802,60.388 245.708,60.1692 C245.687,60.1276 245.677,60.0859 245.677,60.0442 C245.677,59.888 245.755,59.7995 245.911,59.7786 C245.932,59.7682 245.953,59.763 245.974,59.763"/>
<path class="Fingering" d="M209.504,61.5435 C209.744,60.5227 210.27,59.9966 211.082,59.9654 C211.114,59.9654 211.14,59.9654 211.161,59.9654 C211.65,59.9654 212.041,60.1425 212.332,60.4966 C212.541,60.757 212.645,61.0487 212.645,61.3716 C212.645,61.9654 212.327,62.606 211.692,63.2935 C211.671,63.3143 211.645,63.3352 211.614,63.356 L210.286,64.7779 L212.192,64.7779 C212.4,64.7779 212.562,64.7206 212.676,64.606 C212.749,64.5331 212.838,64.4133 212.942,64.2466 L213.051,64.2779 L212.614,65.356 L209.489,65.356 L209.489,65.2622 L210.911,63.7466 C211.588,63.007 211.937,62.3143 211.957,61.6685 C211.957,61.2206 211.786,60.8977 211.442,60.6997 C211.265,60.5956 211.062,60.5435 210.832,60.5435 C210.478,60.5435 210.202,60.6789 210.004,60.9497 C209.89,61.106 209.78,61.3195 209.676,61.5904 L209.504,61.5435 "/>
<path class="Fingering" d="M174.644,65.5896 C174.53,65.5896 174.337,65.6469 174.066,65.7615 L174.066,65.6521 L175.504,64.9177 L175.566,64.9334 L175.566,69.7302 C175.566,69.9386 175.629,70.074 175.754,70.1365 C175.858,70.1782 176.051,70.199 176.332,70.199 L176.332,70.324 L174.113,70.324 L174.113,70.199 C174.467,70.1886 174.691,70.1261 174.785,70.0115 C174.847,69.9177 174.879,69.7719 174.879,69.574 L174.879,65.9646 C174.868,65.7146 174.79,65.5896 174.644,65.5896"/>
<path class="Fingering" d="M138.566,73.0416 C138.451,73.0416 138.258,73.0989 137.988,73.2135 L137.988,73.1041 L139.425,72.3697 L139.488,72.3854 L139.488,77.1822 C139.488,77.3906 139.55,77.526 139.675,77.5885 C139.779,77.6302 139.972,77.651 140.253,77.651 L140.253,77.776 L138.034,77.776 L138.034,77.651 C138.389,77.6406 138.613,77.5781 138.706,77.4635 C138.769,77.3697 138.8,77.2239 138.8,77.026 L138.8,73.4166 C138.79,73.1666 138.711,73.0416 138.566,73.0416"/>
<path class="Fingering" d="M101.659,82.119 C101.784,82.119 101.966,82.1867 102.206,82.3221 C102.456,82.4784 102.669,82.5565 102.846,82.5565 C103.211,82.5565 103.497,82.395 103.706,82.0721 C103.831,81.8638 103.893,81.6294 103.893,81.369 C103.893,80.6086 103.44,80.1919 102.534,80.119 C102.44,80.1086 102.341,80.1034 102.237,80.1034 L102.237,79.994 C102.841,79.7961 103.237,79.5409 103.424,79.2284 C103.518,79.0617 103.565,78.8794 103.565,78.6815 C103.565,78.3273 103.419,78.0721 103.128,77.9159 C102.992,77.8534 102.846,77.8221 102.69,77.8221 C102.242,77.8221 101.872,78.0565 101.581,78.5252 C101.549,78.5669 101.523,78.6138 101.503,78.6659 L101.378,78.6346 C101.628,77.9575 101.992,77.5461 102.471,77.4002 C102.617,77.3586 102.779,77.3377 102.956,77.3377 C103.435,77.3377 103.789,77.5044 104.018,77.8377 C104.143,78.0148 104.206,78.2127 104.206,78.4315 C104.206,78.7544 104.055,79.0461 103.753,79.3065 C103.659,79.3794 103.56,79.4575 103.456,79.5409 C103.935,79.7492 104.242,80.0357 104.378,80.4002 C104.44,80.5773 104.471,80.7752 104.471,80.994 C104.471,81.6294 104.206,82.1242 103.674,82.4784 C103.279,82.7284 102.81,82.8534 102.268,82.8534 C101.779,82.8534 101.487,82.744 101.393,82.5252 C101.372,82.4836 101.362,82.4419 101.362,82.4002 C101.362,82.244 101.44,82.1555 101.596,82.1346 C101.617,82.1242 101.638,82.119 101.659,82.119"/>
<path class="Fingering" d="M66.9395,87.8214 C66.3457,87.8214 65.8822,87.5141 65.5488,86.8995 C65.2676,86.3995 65.127,85.7745 65.127,85.0245 C65.127,84.1287 65.3353,83.4255 65.752,82.9151 C66.0853,82.5193 66.4916,82.3162 66.9707,82.3057 C67.5332,82.3057 67.9759,82.5922 68.2988,83.1651 C68.6009,83.6755 68.752,84.311 68.752,85.0714 C68.752,86.0401 68.528,86.7797 68.0801,87.2901 C67.7572,87.6443 67.377,87.8214 66.9395,87.8214 M66.9395,82.5089 C66.2936,82.5089 65.9447,83.2797 65.8926,84.8214 C65.8926,84.9151 65.8926,85.0089 65.8926,85.1026 C65.903,86.7693 66.252,87.6078 66.9395,87.6182 C67.627,87.6078 67.9707,86.7641 67.9707,85.087 C67.9707,83.5662 67.6999,82.7172 67.1582,82.5401 C67.0853,82.5193 67.0124,82.5089 66.9395,82.5089"/>
<path class="Tempo" d="M65.2582,34.859 C65.2113,34.859 65.1801,34.859 65.1801,34.9371 L65.1801,40.4371 C64.9769,40.2809 64.7269,40.1871 64.4144,40.1871 C63.2269,40.1871 62.2738,41.0621 62.2738,41.9996 C62.2738,42.5621 62.7269,42.9059 63.3207,42.9059 C64.2738,42.9059 65.4613,41.9996 65.4613,41.0934 L65.4613,37.0934 C65.8363,37.1715 66.4613,37.4371 66.8363,38.4684 C66.9301,38.734 67.0238,39.1402 67.0238,39.5934 C67.0238,39.9059 66.9613,40.2809 66.8363,40.609 C66.8051,40.6559 66.8051,40.6871 66.8051,40.7184 C66.8051,40.8434 66.8832,40.9059 66.9457,40.9371 C66.9457,40.9527 66.9769,40.9527 66.9926,40.9527 C67.0551,40.9527 67.1176,40.9059 67.1801,40.7965 C67.1957,40.7027 67.3832,40.0465 67.3832,39.5621 L67.3832,39.4996 C67.3519,38.5777 66.9457,37.6871 66.4301,36.9371 C65.9926,36.359 65.6488,35.734 65.5082,35.0309 C65.4613,34.8902 65.3988,34.859 65.3207,34.859 L65.2582,34.859 "/>
<path class="Tempo" d="M77.7426,39.0152 L71.1332,39.0152 L71.1332,37.859 L77.7426,37.859 L77.7426,39.0152 M77.7426,41.9371 L71.1332,41.9371 L71.1332,40.7965 L77.7426,40.7965 L77.7426,41.9371 M83.1801,36.0465 C83.0551,36.0465 82.7374,36.1402 82.2269,36.3277 C82.1957,36.3382 82.1749,36.3486 82.1644,36.359 L82.1644,36.0465 L85.1801,34.734 L85.3832,34.734 L85.3832,41.5621 C85.3832,42.0517 85.4821,42.3642 85.6801,42.4996 C85.8571,42.6246 86.1905,42.6923 86.6801,42.7027 L86.6801,42.984 L82.1801,42.984 L82.1801,42.7027 C82.8363,42.6923 83.2478,42.5882 83.4144,42.3902 C83.5499,42.2236 83.6176,41.9267 83.6176,41.4996 L83.6176,36.8746 C83.6071,36.333 83.4613,36.0569 83.1801,36.0465 M87.7582,37.1715 C88.3103,35.6819 89.0863,34.8746 90.0863,34.7496 C90.1905,34.7392 90.2946,34.734 90.3988,34.734 C91.1905,34.734 91.7946,35.0205 92.2113,35.5934 C92.4821,35.9788 92.6176,36.4215 92.6176,36.9215 C92.6176,37.7861 92.1905,38.6298 91.3363,39.4527 C91.2946,39.484 91.2634,39.5152 91.2426,39.5465 L89.3051,41.3902 L91.1176,41.3902 C91.753,41.3902 92.1592,41.333 92.3363,41.2184 C92.503,41.1038 92.6644,40.8486 92.8207,40.4527 L93.1176,40.4527 L92.5707,42.984 L87.5863,42.984 L87.5863,42.7027 C89.253,40.9215 90.279,39.6455 90.6644,38.8746 C90.8728,38.4475 90.9769,38.0309 90.9769,37.6246 C90.9769,37.0934 90.7842,36.6767 90.3988,36.3746 C90.1592,36.1871 89.878,36.0934 89.5551,36.0934 C88.9613,36.0934 88.4926,36.4215 88.1488,37.0777 C88.128,37.109 88.1071,37.1402 88.0863,37.1715 L87.7582,37.1715 M93.6644,38.9059 C93.6644,37.5934 93.9769,36.5309 94.6019,35.7184 C95.1124,35.0725 95.7061,34.7444 96.3832,34.734 C97.1644,34.734 97.8103,35.1402 98.3207,35.9527 C98.8311,36.7652 99.0863,37.76 99.0863,38.9371 C99.0863,40.3121 98.7686,41.4059 98.1332,42.2184 C97.6332,42.8225 97.0551,43.1298 96.3988,43.1402 C95.5655,43.1402 94.8936,42.7132 94.3832,41.859 C93.904,41.0673 93.6644,40.083 93.6644,38.9059 M96.3988,42.7965 C96.753,42.7965 96.9874,42.4736 97.1019,41.8277 C97.1644,41.4423 97.1957,40.9423 97.1957,40.3277 L97.1957,37.5777 C97.1957,36.1402 97.003,35.3225 96.6176,35.1246 C96.5446,35.083 96.4613,35.0621 96.3676,35.0621 C96.003,35.0621 95.7634,35.3955 95.6488,36.0621 C95.5967,36.4371 95.5707,36.9423 95.5707,37.5777 L95.5707,40.3277 C95.5707,41.6819 95.7374,42.4736 96.0707,42.7027 C96.1644,42.7652 96.2738,42.7965 96.3988,42.7965"/>
<path class="StaffText" d="M433.336,48.903 L433.336,44.4655 C433.336,44.0801 433.268,43.8405 433.132,43.7468 C433.018,43.653 432.763,43.5958 432.367,43.5749 L432.367,43.3874 L435.336,43.3874 L435.336,43.5749 C434.877,43.5958 434.596,43.6687 434.492,43.7937 C434.398,43.9187 434.351,44.1426 434.351,44.4655 L434.351,48.903 C434.351,49.2989 434.429,49.5489 434.586,49.653 C434.711,49.7468 434.961,49.7989 435.336,49.8093 L435.336,49.9968 L432.367,49.9968 L432.367,49.8093 C432.815,49.7989 433.091,49.726 433.195,49.5905 C433.289,49.4655 433.336,49.2364 433.336,48.903 M436.336,48.903 L436.336,44.4655 C436.336,44.0801 436.268,43.8405 436.132,43.7468 C436.018,43.653 435.763,43.5958 435.367,43.5749 L435.367,43.3874 L438.336,43.3874 L438.336,43.5749 C437.877,43.5958 437.596,43.6687 437.492,43.7937 C437.398,43.9187 437.351,44.1426 437.351,44.4655 L437.351,48.903 C437.351,49.2989 437.429,49.5489 437.586,49.653 C437.711,49.7468 437.961,49.7989 438.336,49.8093 L438.336,49.9968 L435.367,49.9968 L435.367,49.8093 C435.815,49.7989 436.091,49.726 436.195,49.5905 C436.289,49.4655 436.336,49.2364 436.336,48.903"/>
<path class="StaffText" d="M183.088,48.8522 L183.088,49.0397 C182.817,49.0501 182.63,49.1231 182.526,49.2585 C182.432,49.3835 182.312,49.6178 182.166,49.9616 L179.948,55.571 L179.807,55.571 L177.338,50.0866 C177.109,49.5553 176.906,49.2428 176.729,49.1491 C176.614,49.0762 176.463,49.0397 176.276,49.0397 L176.276,48.8522 L178.948,48.8522 L178.948,49.0397 C178.76,49.0501 178.661,49.0553 178.651,49.0553 C178.349,49.0866 178.198,49.1908 178.198,49.3678 C178.198,49.5137 178.333,49.8835 178.604,50.4772 L180.104,53.8522 L181.573,50.1803 C181.708,49.8678 181.776,49.6283 181.776,49.4616 C181.776,49.2533 181.656,49.1231 181.416,49.071 C181.312,49.0501 181.187,49.0397 181.041,49.0397 L181.041,48.8522 L183.088,48.8522 M184.307,54.3678 L184.307,49.9303 C184.307,49.5449 184.239,49.3053 184.104,49.2116 C183.989,49.1178 183.734,49.0606 183.338,49.0397 L183.338,48.8522 L186.307,48.8522 L186.307,49.0397 C185.849,49.0606 185.567,49.1335 185.463,49.2585 C185.369,49.3835 185.323,49.6074 185.323,49.9303 L185.323,54.3678 C185.323,54.7637 185.401,55.0137 185.557,55.1178 C185.682,55.2116 185.932,55.2637 186.307,55.2741 L186.307,55.4616 L183.338,55.4616 L183.338,55.2741 C183.786,55.2637 184.062,55.1908 184.166,55.0553 C184.26,54.9303 184.307,54.7012 184.307,54.3678 M187.307,54.3678 L187.307,49.9303 C187.307,49.5449 187.239,49.3053 187.104,49.2116 C186.989,49.1178 186.734,49.0606 186.338,49.0397 L186.338,48.8522 L189.307,48.8522 L189.307,49.0397 C188.849,49.0606 188.567,49.1335 188.463,49.2585 C188.369,49.3835 188.323,49.6074 188.323,49.9303 L188.323,54.3678 C188.323,54.7637 188.401,55.0137 188.557,55.1178 C188.682,55.2116 188.932,55.2637 189.307,55.2741 L189.307,55.4616 L186.338,55.4616 L186.338,55.2741 C186.786,55.2637 187.062,55.1908 187.166,55.0553 C187.26,54.9303 187.307,54.7012 187.307,54.3678"/>
<path class="StaffText" d="M72.5485,53.871 L72.5485,49.4335 C72.5485,49.0481 72.4808,48.8085 72.3453,48.7148 C72.2308,48.621 71.9756,48.5638 71.5797,48.5429 L71.5797,48.3554 L74.5485,48.3554 L74.5485,48.5429 C74.0901,48.5638 73.8089,48.6367 73.7047,48.7617 C73.611,48.8867 73.5641,49.1106 73.5641,49.4335 L73.5641,53.871 C73.5641,54.2669 73.6422,54.5169 73.7985,54.621 C73.9235,54.7148 74.1735,54.7669 74.5485,54.7773 L74.5485,54.9648 L71.5797,54.9648 L71.5797,54.7773 C72.0276,54.7669 72.3037,54.694 72.4078,54.5585 C72.5016,54.4335 72.5485,54.2044 72.5485,53.871 M75.5485,53.871 L75.5485,49.4335 C75.5485,49.0481 75.4808,48.8085 75.3453,48.7148 C75.2308,48.621 74.9756,48.5638 74.5797,48.5429 L74.5797,48.3554 L77.5485,48.3554 L77.5485,48.5429 C77.0901,48.5638 76.8089,48.6367 76.7047,48.7617 C76.611,48.8867 76.5641,49.1106 76.5641,49.4335 L76.5641,53.871 C76.5641,54.2669 76.6422,54.5169 76.7985,54.621 C76.9235,54.7148 77.1735,54.7669 77.5485,54.7773 L77.5485,54.9648 L74.5797,54.9648 L74.5797,54.7773 C75.0276,54.7669 75.3037,54.694 75.4078,54.5585 C75.5016,54.4335 75.5485,54.2044 75.5485,53.871"/>
<path class="StaffText" d="M75.2516,25.2057 C75.6995,25.2057 76.1995,25.3203 76.7516,25.5495 C76.9912,25.6432 77.1631,25.6901 77.2672,25.6901 C77.4131,25.6901 77.5433,25.5807 77.6578,25.362 C77.6683,25.3203 77.6839,25.2787 77.7047,25.237 L77.9703,25.237 L77.9703,27.5807 L77.7203,27.5807 C77.4495,26.9766 77.1683,26.5339 76.8766,26.2526 C76.8141,26.1901 76.7568,26.138 76.7047,26.0964 C76.2776,25.7214 75.8349,25.5339 75.3766,25.5339 C74.3766,25.5339 73.7828,26.2526 73.5953,27.6901 C73.5641,28.013 73.5485,28.362 73.5485,28.737 C73.5485,29.9245 73.762,30.7943 74.1891,31.3464 C74.5224,31.763 74.9808,31.9714 75.5641,31.9714 C76.1266,31.9714 76.4443,31.7943 76.5172,31.4401 C76.5276,31.3776 76.5328,31.3099 76.5328,31.237 L76.5328,30.1901 C76.5328,29.8985 76.4599,29.711 76.3141,29.6276 C76.1683,29.5547 75.9026,29.5078 75.5172,29.487 L75.5172,29.237 L78.9547,29.237 L78.9547,29.487 C78.5485,29.5287 78.2985,29.6172 78.2047,29.7526 C78.1318,29.8672 78.0953,30.086 78.0953,30.4089 L78.0953,31.6745 C77.5016,32.0287 76.7151,32.237 75.736,32.2995 C75.6006,32.2995 75.4651,32.2995 75.3297,32.2995 C74.2151,32.2995 73.3245,31.9401 72.6578,31.2214 C72.0641,30.5755 71.7672,29.7682 71.7672,28.7995 C71.7672,27.7578 72.111,26.8932 72.7985,26.2057 C73.4651,25.5391 74.2828,25.2057 75.2516,25.2057 M83.0172,28.8307 C82.7985,28.8307 82.5849,28.711 82.3766,28.4714 C82.262,28.3255 82.1787,28.2474 82.1266,28.237 C81.9078,28.237 81.7412,28.388 81.6266,28.6901 C81.5537,28.8464 81.5172,29.013 81.5172,29.1901 L81.5172,31.0807 C81.5172,31.4453 81.5901,31.6693 81.736,31.7526 C81.8297,31.8151 82.0016,31.8568 82.2516,31.8776 L82.2516,32.112 L79.611,32.112 L79.611,31.8776 C79.8818,31.8255 80.0433,31.7318 80.0953,31.5964 C80.1162,31.5235 80.1266,31.4141 80.1266,31.2682 L80.1266,28.3307 C80.1266,28.0703 80.0537,27.9037 79.9078,27.8307 C79.8349,27.7891 79.736,27.7578 79.611,27.737 L79.611,27.5026 L81.486,27.5026 L81.486,28.3307 C81.861,27.7787 82.2308,27.4714 82.5953,27.4089 C82.6787,27.388 82.7568,27.3776 82.8297,27.3776 C83.1735,27.3776 83.4183,27.5182 83.5641,27.7995 C83.6162,27.9141 83.6422,28.0339 83.6422,28.1589 C83.6422,28.4714 83.5172,28.6797 83.2672,28.7839 C83.1839,28.8151 83.1006,28.8307 83.0172,28.8307 M84.8922,28.0807 C84.8922,28.112 84.9443,28.2057 85.0485,28.362 C85.1422,28.5078 85.1891,28.6328 85.1891,28.737 C85.1891,28.9974 85.0589,29.1745 84.7985,29.2682 C84.7047,29.2995 84.611,29.3151 84.5172,29.3151 C84.1526,29.3151 83.9391,29.1537 83.8766,28.8307 C83.8662,28.7682 83.861,28.711 83.861,28.6589 C83.861,28.1901 84.1162,27.8412 84.6266,27.612 C84.9495,27.4557 85.3245,27.3776 85.7516,27.3776 C86.6266,27.3776 87.2256,27.6172 87.5485,28.0964 C87.6735,28.2943 87.736,28.5182 87.736,28.7682 L87.736,31.3464 C87.7464,31.5026 87.8141,31.586 87.9391,31.5964 C87.9912,31.586 88.0276,31.5703 88.0485,31.5495 L88.1578,31.4557 L88.2985,31.6589 C87.9026,32.0339 87.5328,32.2318 87.1891,32.2526 C86.8141,32.2526 86.5693,32.112 86.4547,31.8307 C86.4235,31.737 86.3922,31.638 86.361,31.5339 C85.8193,32.0026 85.2933,32.2422 84.7828,32.2526 C84.3453,32.2526 84.0276,32.086 83.8297,31.7526 C83.7256,31.586 83.6735,31.4037 83.6735,31.2057 C83.6735,30.6224 84.1214,30.1485 85.0172,29.7839 C85.2568,29.6797 85.7047,29.5287 86.361,29.3307 L86.361,28.5964 C86.361,28.0651 86.1422,27.7735 85.7047,27.7214 C85.6422,27.7214 85.5797,27.7214 85.5172,27.7214 C85.2256,27.7214 85.0276,27.8047 84.9235,27.9714 C84.9026,28.0026 84.8922,28.0391 84.8922,28.0807 M86.3453,31.0964 L86.3453,29.6589 C85.5433,29.8776 85.137,30.2787 85.1266,30.862 C85.1266,31.1953 85.236,31.4037 85.4547,31.487 C85.5172,31.5078 85.5797,31.5182 85.6422,31.5182 C85.8714,31.5182 86.1058,31.3776 86.3453,31.0964 M91.8141,32.237 L91.8141,31.5964 C91.4599,31.9714 91.1162,32.1849 90.7828,32.237 C90.6891,32.2474 90.5901,32.2526 90.486,32.2526 C89.8922,32.2526 89.4235,31.9766 89.0797,31.4245 C88.8089,30.9974 88.6735,30.4922 88.6735,29.9089 C88.6735,29.0547 88.9183,28.3828 89.4078,27.8932 C89.7412,27.5495 90.137,27.3776 90.5953,27.3776 C90.9495,27.3776 91.2724,27.513 91.5641,27.7839 C91.6474,27.8568 91.7203,27.9245 91.7828,27.987 L91.7828,26.1745 C91.7828,25.9245 91.7256,25.7682 91.611,25.7057 C91.5068,25.6537 91.3089,25.6172 91.0172,25.5964 L91.0172,25.362 L93.1735,25.362 L93.1735,31.112 C93.1735,31.3932 93.2568,31.5651 93.4235,31.6276 C93.5068,31.6589 93.6214,31.6797 93.7672,31.6901 L93.7672,31.9245 L93.1422,32.0026 C92.5901,32.0755 92.1474,32.1537 91.8141,32.237 M90.9391,31.7057 C91.2308,31.7057 91.4808,31.5391 91.6891,31.2057 C91.7412,31.112 91.7724,31.0443 91.7828,31.0026 L91.7828,28.5495 C91.6578,28.2162 91.4495,28.0182 91.1578,27.9557 C91.1058,27.9453 91.0537,27.9401 91.0016,27.9401 C90.4912,27.9401 90.2099,28.4453 90.1578,29.4557 C90.1578,29.5703 90.1578,29.6953 90.1578,29.8307 C90.1578,31.0703 90.4183,31.6953 90.9391,31.7057 M96.111,29.6589 C96.1631,30.6797 96.4287,31.2787 96.9078,31.4557 C97.0328,31.4974 97.1631,31.5182 97.2985,31.5182 C97.6631,31.5182 97.9964,31.3516 98.2985,31.0182 C98.3506,30.9662 98.3974,30.9141 98.4391,30.862 L98.6735,31.0026 C98.2568,31.6068 97.8453,31.987 97.4391,32.1432 C97.2308,32.2162 96.9964,32.2526 96.736,32.2526 C95.986,32.2526 95.4235,31.9453 95.0485,31.3307 C94.7985,30.9141 94.6735,30.4141 94.6735,29.8307 C94.6735,28.9349 94.9443,28.263 95.486,27.8151 C95.8506,27.5235 96.2776,27.3776 96.7672,27.3776 C97.8714,27.3776 98.4912,28.0964 98.6266,29.5339 C98.6266,29.5755 98.6266,29.6172 98.6266,29.6589 L96.111,29.6589 M97.4078,29.1432 C97.387,28.5182 97.3193,28.1224 97.2047,27.9557 C97.111,27.7995 96.9651,27.7214 96.7672,27.7214 C96.4756,27.7214 96.2776,27.8932 96.1735,28.237 C96.111,28.4766 96.0745,28.8307 96.0641,29.2995 L97.4078,29.2995 L97.4078,29.1432 M105.548,29.5651 L106.173,29.5651 L106.173,30.6745 L105.548,30.6745 L105.548,32.112 L104.095,32.112 L104.095,30.6745 L101.611,30.6745 L101.611,29.5495 C102.163,28.6745 103.012,27.4922 104.158,26.0026 L104.736,25.237 L105.548,25.237 L105.548,29.5651 M104.111,29.5651 L104.111,26.5964 L102.017,29.5651 L104.111,29.5651 M108.08,30.5495 C108.403,30.5495 108.647,30.6901 108.814,30.9714 C108.897,31.1172 108.939,31.263 108.939,31.4089 C108.939,31.7214 108.798,31.961 108.517,32.1276 C108.371,32.2005 108.226,32.237 108.08,32.237 C107.746,32.237 107.502,32.0964 107.345,31.8151 C107.272,31.6797 107.236,31.5391 107.236,31.3932 C107.236,31.0912 107.371,30.8568 107.642,30.6901 C107.778,30.5964 107.923,30.5495 108.08,30.5495 M108.08,27.3932 C108.403,27.3932 108.647,27.5287 108.814,27.7995 C108.897,27.9453 108.939,28.0912 108.939,28.237 C108.939,28.5599 108.798,28.8047 108.517,28.9714 C108.382,29.0443 108.236,29.0807 108.08,29.0807 C107.746,29.0807 107.502,28.9349 107.345,28.6432 C107.272,28.5078 107.236,28.3672 107.236,28.2214 C107.236,27.9193 107.371,27.6849 107.642,27.5182 C107.778,27.4349 107.923,27.3932 108.08,27.3932"/>
<path class="StaffText" d="M119.267,28.7682 C119.267,29.7162 118.97,30.487 118.377,31.0807 C117.689,31.7682 116.7,32.112 115.408,32.112 L112.58,32.112 L112.58,31.9245 C112.986,31.8932 113.236,31.8099 113.33,31.6745 C113.413,31.5599 113.455,31.3412 113.455,31.0182 L113.455,26.5807 C113.455,26.2057 113.403,25.9662 113.298,25.862 C113.184,25.7787 112.944,25.7214 112.58,25.6901 L112.58,25.5026 L115.267,25.5026 C117.08,25.5026 118.288,26.0703 118.892,27.2057 C119.142,27.6745 119.267,28.1953 119.267,28.7682 M118.173,28.8464 C118.173,27.7839 117.825,26.9922 117.127,26.4714 C116.585,26.0755 115.871,25.8776 114.986,25.8776 C114.715,25.8776 114.554,25.9401 114.502,26.0651 C114.481,26.1172 114.47,26.1849 114.47,26.2682 L114.47,31.3307 C114.47,31.5391 114.548,31.6641 114.705,31.7057 C114.788,31.7266 114.882,31.737 114.986,31.737 C116.996,31.737 118.054,30.8776 118.158,29.1589 C118.168,29.0547 118.173,28.9505 118.173,28.8464 M122.548,28.1589 L122.548,27.987 C123.028,27.8412 123.496,27.6849 123.955,27.5182 L124.017,27.5339 L124.017,28.2995 C124.59,27.862 125.002,27.612 125.252,27.5495 C125.356,27.5287 125.46,27.5182 125.564,27.5182 C126.095,27.5287 126.45,27.8151 126.627,28.3776 C127.158,27.8047 127.705,27.5182 128.267,27.5182 C129.028,27.5287 129.413,28.1276 129.423,29.3151 L129.423,31.362 C129.434,31.7266 129.575,31.9193 129.845,31.9401 L130.111,31.9557 L130.111,32.112 L127.923,32.112 L127.923,31.9557 C128.246,31.9245 128.439,31.8516 128.502,31.737 C128.554,31.6432 128.58,31.4818 128.58,31.2526 L128.58,29.1432 C128.58,28.5912 128.47,28.2578 128.252,28.1432 C128.147,28.0807 128.007,28.0495 127.83,28.0495 C127.382,28.0599 127.017,28.263 126.736,28.6589 L126.736,31.1745 C126.736,31.5495 126.825,31.7839 127.002,31.8776 C127.106,31.9297 127.257,31.9557 127.455,31.9557 L127.455,32.112 L125.22,32.112 L125.22,31.9557 C125.543,31.9349 125.741,31.862 125.814,31.737 C125.877,31.6432 125.908,31.4818 125.908,31.2526 L125.908,29.0964 C125.908,28.3985 125.684,28.0495 125.236,28.0495 C124.871,28.0495 124.548,28.1693 124.267,28.4089 C124.194,28.4818 124.127,28.5599 124.064,28.6432 L124.064,31.4401 C124.064,31.6901 124.153,31.8464 124.33,31.9089 C124.423,31.9401 124.559,31.9557 124.736,31.9557 L124.736,32.112 L122.517,32.112 L122.517,31.9557 C122.871,31.9557 123.085,31.8724 123.158,31.7057 C123.2,31.6016 123.22,31.4557 123.22,31.2682 L123.22,28.7526 C123.22,28.3776 123.142,28.1693 122.986,28.1276 C122.955,28.1172 122.918,28.112 122.877,28.112 C122.772,28.112 122.663,28.1276 122.548,28.1589 M130.673,31.1432 C130.673,30.6328 130.991,30.2005 131.627,29.8464 C131.814,29.7526 132.314,29.5391 133.127,29.2057 C133.147,29.2057 133.163,29.2005 133.173,29.1901 L133.173,28.5807 C133.121,28.0599 132.866,27.7839 132.408,27.7526 C132.095,27.7526 131.877,27.8516 131.752,28.0495 C131.71,28.1224 131.689,28.1849 131.689,28.237 C131.689,28.2995 131.7,28.3828 131.72,28.487 C131.731,28.5599 131.736,28.612 131.736,28.6432 C131.736,28.8203 131.647,28.9453 131.47,29.0182 C131.408,29.0495 131.351,29.0651 131.298,29.0651 C131.111,29.0651 130.981,28.9766 130.908,28.7995 C130.877,28.7474 130.861,28.6901 130.861,28.6276 C130.861,28.263 131.08,27.9662 131.517,27.737 C131.819,27.5912 132.163,27.5182 132.548,27.5182 C133.267,27.5182 133.71,27.7735 133.877,28.2839 C133.95,28.5026 133.986,28.7787 133.986,29.112 L133.986,31.0495 C133.986,31.3828 134.048,31.5703 134.173,31.612 C134.215,31.6224 134.252,31.6276 134.283,31.6276 C134.429,31.6172 134.575,31.5547 134.72,31.4401 L134.72,31.6901 C134.45,32.0026 134.2,32.1745 133.97,32.2057 C133.918,32.2057 133.866,32.2057 133.814,32.2057 C133.502,32.2057 133.304,32.0495 133.22,31.737 C133.2,31.6537 133.189,31.5599 133.189,31.4557 C132.595,31.9349 132.106,32.1849 131.72,32.2057 C131.293,32.2057 130.986,32.0339 130.798,31.6901 C130.715,31.5235 130.673,31.3412 130.673,31.1432 M133.173,30.862 L133.173,29.4245 C132.351,29.7266 131.845,30.0339 131.658,30.3464 C131.585,30.4922 131.548,30.6485 131.548,30.8151 C131.548,31.211 131.694,31.461 131.986,31.5651 C132.059,31.5964 132.127,31.612 132.189,31.612 C132.408,31.6016 132.647,31.5235 132.908,31.3776 C133.054,31.2943 133.137,31.1901 133.158,31.0651 C133.168,31.0026 133.173,30.9349 133.173,30.862 M135.892,28.1901 C135.892,28.1901 135.741,28.2005 135.439,28.2214 L135.439,28.0495 C135.981,27.8828 136.502,27.7057 137.002,27.5182 L137.048,27.5495 L137.048,32.112 C137.048,33.3412 136.637,34.0495 135.814,34.237 C135.668,34.2682 135.517,34.2839 135.361,34.2839 C134.923,34.2839 134.632,34.1745 134.486,33.9557 C134.444,33.8828 134.423,33.8099 134.423,33.737 C134.423,33.5495 134.512,33.4297 134.689,33.3776 C134.741,33.3568 134.788,33.3464 134.83,33.3464 C134.976,33.3464 135.132,33.4505 135.298,33.6589 C135.476,33.8464 135.621,33.9453 135.736,33.9557 C135.965,33.9557 136.106,33.7943 136.158,33.4714 C136.189,33.2735 136.205,32.9714 136.205,32.5651 L136.205,28.7682 C136.205,28.4141 136.127,28.2214 135.97,28.1901 C135.939,28.1901 135.913,28.1901 135.892,28.1901 M136.548,25.2839 C136.767,25.2839 136.923,25.3828 137.017,25.5807 C137.048,25.6537 137.064,25.7266 137.064,25.7995 C137.064,26.0182 136.955,26.1745 136.736,26.2682 C136.673,26.2891 136.611,26.2995 136.548,26.2995 C136.319,26.2995 136.163,26.2005 136.08,26.0026 C136.059,25.9297 136.048,25.862 136.048,25.7995 C136.048,25.5807 136.142,25.4245 136.33,25.3307 C136.403,25.2995 136.476,25.2839 136.548,25.2839 M139.877,27.5182 C140.616,27.5182 141.2,27.7891 141.627,28.3307 C141.929,28.737 142.08,29.2162 142.08,29.7682 C142.08,30.5495 141.825,31.1745 141.314,31.6432 C140.897,32.0182 140.413,32.2057 139.861,32.2057 C139.153,32.2057 138.59,31.9349 138.173,31.3932 C137.84,30.9557 137.673,30.4401 137.673,29.8464 C137.673,29.0339 137.95,28.4089 138.502,27.9714 C138.887,27.6693 139.345,27.5182 139.877,27.5182 M138.58,29.362 C138.58,30.2682 138.767,30.961 139.142,31.4401 C139.382,31.7526 139.663,31.9089 139.986,31.9089 C140.507,31.9089 140.866,31.612 141.064,31.0182 C141.147,30.7578 141.189,30.461 141.189,30.1276 C141.189,29.2422 140.976,28.586 140.548,28.1589 C140.319,27.9297 140.054,27.8151 139.752,27.8151 C139.283,27.8151 138.944,28.0547 138.736,28.5339 C138.632,28.7735 138.58,29.0495 138.58,29.362 M145.439,28.487 C145.335,28.487 145.184,28.4037 144.986,28.237 C144.892,28.1537 144.819,28.112 144.767,28.112 C144.601,28.112 144.429,28.2422 144.252,28.5026 C144.137,28.6693 144.08,28.8151 144.08,28.9401 L144.08,31.2057 C144.08,31.5495 144.168,31.763 144.345,31.8464 C144.47,31.9089 144.663,31.9453 144.923,31.9557 L144.923,32.112 L142.517,32.112 L142.517,31.9557 C142.871,31.8932 143.085,31.8099 143.158,31.7057 C143.21,31.6224 143.236,31.4766 143.236,31.2682 L143.236,28.7526 C143.236,28.388 143.153,28.1901 142.986,28.1589 C142.955,28.1485 142.923,28.1432 142.892,28.1432 C142.778,28.1432 142.663,28.1589 142.548,28.1901 L142.548,28.0339 C143.08,27.8672 143.569,27.6953 144.017,27.5182 L144.08,27.5339 L144.08,28.4245 C144.423,27.9453 144.715,27.6589 144.955,27.5651 C145.059,27.5339 145.163,27.5182 145.267,27.5182 C145.58,27.5182 145.762,27.6485 145.814,27.9089 C145.814,27.9505 145.814,27.9974 145.814,28.0495 C145.783,28.3203 145.658,28.4662 145.439,28.487 M148.673,31.1432 C148.673,30.6328 148.991,30.2005 149.627,29.8464 C149.814,29.7526 150.314,29.5391 151.127,29.2057 C151.147,29.2057 151.163,29.2005 151.173,29.1901 L151.173,28.5807 C151.121,28.0599 150.866,27.7839 150.408,27.7526 C150.095,27.7526 149.877,27.8516 149.752,28.0495 C149.71,28.1224 149.689,28.1849 149.689,28.237 C149.689,28.2995 149.7,28.3828 149.72,28.487 C149.731,28.5599 149.736,28.612 149.736,28.6432 C149.736,28.8203 149.647,28.9453 149.47,29.0182 C149.408,29.0495 149.351,29.0651 149.298,29.0651 C149.111,29.0651 148.981,28.9766 148.908,28.7995 C148.877,28.7474 148.861,28.6901 148.861,28.6276 C148.861,28.263 149.08,27.9662 149.517,27.737 C149.819,27.5912 150.163,27.5182 150.548,27.5182 C151.267,27.5182 151.71,27.7735 151.877,28.2839 C151.95,28.5026 151.986,28.7787 151.986,29.112 L151.986,31.0495 C151.986,31.3828 152.048,31.5703 152.173,31.612 C152.215,31.6224 152.252,31.6276 152.283,31.6276 C152.429,31.6172 152.575,31.5547 152.72,31.4401 L152.72,31.6901 C152.45,32.0026 152.2,32.1745 151.97,32.2057 C151.918,32.2057 151.866,32.2057 151.814,32.2057 C151.502,32.2057 151.304,32.0495 151.22,31.737 C151.2,31.6537 151.189,31.5599 151.189,31.4557 C150.595,31.9349 150.106,32.1849 149.72,32.2057 C149.293,32.2057 148.986,32.0339 148.798,31.6901 C148.715,31.5235 148.673,31.3412 148.673,31.1432 M151.173,30.862 L151.173,29.4245 C150.351,29.7266 149.845,30.0339 149.658,30.3464 C149.585,30.4922 149.548,30.6485 149.548,30.8151 C149.548,31.211 149.694,31.461 149.986,31.5651 C150.059,31.5964 150.127,31.612 150.189,31.612 C150.408,31.6016 150.647,31.5235 150.908,31.3776 C151.054,31.2943 151.137,31.1901 151.158,31.0651 C151.168,31.0026 151.173,30.9349 151.173,30.862 M155.439,28.487 C155.335,28.487 155.184,28.4037 154.986,28.237 C154.892,28.1537 154.819,28.112 154.767,28.112 C154.601,28.112 154.429,28.2422 154.252,28.5026 C154.137,28.6693 154.08,28.8151 154.08,28.9401 L154.08,31.2057 C154.08,31.5495 154.168,31.763 154.345,31.8464 C154.47,31.9089 154.663,31.9453 154.923,31.9557 L154.923,32.112 L152.517,32.112 L152.517,31.9557 C152.871,31.8932 153.085,31.8099 153.158,31.7057 C153.21,31.6224 153.236,31.4766 153.236,31.2682 L153.236,28.7526 C153.236,28.388 153.153,28.1901 152.986,28.1589 C152.955,28.1485 152.923,28.1432 152.892,28.1432 C152.778,28.1432 152.663,28.1589 152.548,28.1901 L152.548,28.0339 C153.08,27.8672 153.569,27.6953 154.017,27.5182 L154.08,27.5339 L154.08,28.4245 C154.423,27.9453 154.715,27.6589 154.955,27.5651 C155.059,27.5339 155.163,27.5182 155.267,27.5182 C155.58,27.5182 155.762,27.6485 155.814,27.9089 C155.814,27.9505 155.814,27.9974 155.814,28.0495 C155.783,28.3203 155.658,28.4662 155.439,28.487 M155.564,28.1901 L155.564,28.0182 C155.991,27.8932 156.47,27.7266 157.002,27.5182 L157.064,27.5339 L157.064,28.2995 C157.491,27.7787 157.97,27.5182 158.502,27.5182 C159.064,27.5182 159.507,27.7787 159.83,28.2995 C160.059,28.6849 160.173,29.1328 160.173,29.6432 C160.173,30.4557 159.923,31.1172 159.423,31.6276 C159.038,32.013 158.59,32.2057 158.08,32.2057 C157.746,32.2057 157.455,32.1068 157.205,31.9089 C157.153,31.8776 157.106,31.8412 157.064,31.7995 L157.064,33.362 C157.064,33.7057 157.132,33.9141 157.267,33.987 C157.392,34.0599 157.616,34.0964 157.939,34.0964 L157.939,34.2839 L155.517,34.2839 L155.517,34.112 C155.871,34.0807 156.085,33.9974 156.158,33.862 C156.2,33.7682 156.22,33.6224 156.22,33.4245 L156.22,28.737 C156.22,28.4453 156.168,28.2735 156.064,28.2214 C156.002,28.1901 155.918,28.1745 155.814,28.1745 C155.7,28.1745 155.616,28.1797 155.564,28.1901 M157.064,28.7839 L157.064,31.2526 C157.064,31.4297 157.21,31.5964 157.502,31.7526 C157.71,31.8568 157.908,31.9089 158.095,31.9089 C158.554,31.9089 158.892,31.6537 159.111,31.1432 C159.246,30.8203 159.314,30.4557 159.314,30.0495 C159.314,29.2266 159.106,28.6537 158.689,28.3307 C158.512,28.1849 158.309,28.112 158.08,28.112 C157.778,28.112 157.507,28.2214 157.267,28.4401 C157.142,28.5547 157.075,28.6693 157.064,28.7839 M161.392,29.3464 C161.434,30.5235 161.819,31.2162 162.548,31.4245 C162.673,31.4662 162.809,31.487 162.955,31.487 C163.444,31.487 163.861,31.2787 164.205,30.862 C164.298,30.7474 164.397,30.612 164.502,30.4557 L164.658,30.5182 C164.293,31.4766 163.72,32.0287 162.939,32.1745 C162.804,32.1953 162.673,32.2057 162.548,32.2057 C161.809,32.2057 161.278,31.8932 160.955,31.2682 C160.767,30.8932 160.673,30.461 160.673,29.9714 C160.673,29.086 160.95,28.4141 161.502,27.9557 C161.866,27.6641 162.288,27.5182 162.767,27.5182 C163.684,27.5182 164.236,28.0391 164.423,29.0807 C164.444,29.1745 164.46,29.263 164.47,29.3464 L161.392,29.3464 M161.408,29.0495 L163.455,29.0495 C163.361,28.4766 163.194,28.1224 162.955,27.987 C162.83,27.9245 162.668,27.8932 162.47,27.8932 C161.877,27.8932 161.522,28.2682 161.408,29.0182 C161.408,29.0287 161.408,29.0391 161.408,29.0495 M165.017,31.5339 C165.017,31.3985 165.095,31.2526 165.252,31.0964 C165.345,31.0026 165.564,30.7995 165.908,30.487 C165.408,30.2266 165.111,29.8985 165.017,29.5026 C164.996,29.388 164.986,29.2682 164.986,29.1432 C164.986,28.612 165.2,28.1849 165.627,27.862 C165.929,27.6328 166.272,27.5182 166.658,27.5182 C166.908,27.5182 167.215,27.586 167.58,27.7214 C167.819,27.8047 168.033,27.8464 168.22,27.8464 L168.986,27.8464 L168.986,28.2214 L168.158,28.2214 C168.283,28.513 168.345,28.7943 168.345,29.0651 C168.345,29.638 168.121,30.0703 167.673,30.362 C167.403,30.5391 167.111,30.6276 166.798,30.6276 C166.705,30.6276 166.512,30.6068 166.22,30.5651 C166.022,30.6276 165.856,30.7682 165.72,30.987 C165.658,31.0703 165.627,31.1432 165.627,31.2057 C165.627,31.362 165.877,31.4505 166.377,31.4714 C166.387,31.4714 166.397,31.4714 166.408,31.4714 L167.689,31.5339 C168.241,31.5443 168.611,31.7474 168.798,32.1432 C168.871,32.2787 168.908,32.4297 168.908,32.5964 C168.908,33.0964 168.595,33.5235 167.97,33.8776 C167.46,34.1485 166.903,34.2839 166.298,34.2839 C165.673,34.2839 165.189,34.1328 164.845,33.8307 C164.668,33.6641 164.58,33.487 164.58,33.2995 C164.58,33.0078 164.793,32.6797 165.22,32.3151 C165.325,32.2318 165.434,32.1432 165.548,32.0495 C165.246,31.9141 165.075,31.7787 165.033,31.6432 C165.022,31.612 165.017,31.5755 165.017,31.5339 M165.767,32.0807 C165.465,32.4557 165.304,32.7162 165.283,32.862 C165.272,32.9037 165.267,32.9453 165.267,32.987 C165.267,33.2891 165.491,33.5078 165.939,33.6432 C166.168,33.7162 166.434,33.7526 166.736,33.7526 C167.569,33.7526 168.137,33.5703 168.439,33.2057 C168.564,33.0495 168.627,32.888 168.627,32.7214 C168.627,32.4714 168.46,32.3151 168.127,32.2526 C167.939,32.2214 167.689,32.2057 167.377,32.2057 C166.71,32.2057 166.173,32.1641 165.767,32.0807 M167.58,29.4714 C167.58,29.0443 167.491,28.6641 167.314,28.3307 C167.116,27.9974 166.861,27.8255 166.548,27.8151 C166.173,27.8151 165.939,28.013 165.845,28.4089 C165.825,28.513 165.814,28.6276 165.814,28.7526 C165.814,29.5547 166.038,30.0651 166.486,30.2839 C166.601,30.3464 166.715,30.3776 166.83,30.3776 C167.194,30.3776 167.429,30.1953 167.533,29.8307 C167.564,29.7162 167.58,29.5964 167.58,29.4714 M170.017,31.5339 C170.017,31.3985 170.095,31.2526 170.252,31.0964 C170.345,31.0026 170.564,30.7995 170.908,30.487 C170.408,30.2266 170.111,29.8985 170.017,29.5026 C169.996,29.388 169.986,29.2682 169.986,29.1432 C169.986,28.612 170.2,28.1849 170.627,27.862 C170.929,27.6328 171.272,27.5182 171.658,27.5182 C171.908,27.5182 172.215,27.586 172.58,27.7214 C172.819,27.8047 173.033,27.8464 173.22,27.8464 L173.986,27.8464 L173.986,28.2214 L173.158,28.2214 C173.283,28.513 173.345,28.7943 173.345,29.0651 C173.345,29.638 173.121,30.0703 172.673,30.362 C172.403,30.5391 172.111,30.6276 171.798,30.6276 C171.705,30.6276 171.512,30.6068 171.22,30.5651 C171.022,30.6276 170.856,30.7682 170.72,30.987 C170.658,31.0703 170.627,31.1432 170.627,31.2057 C170.627,31.362 170.877,31.4505 171.377,31.4714 C171.387,31.4714 171.397,31.4714 171.408,31.4714 L172.689,31.5339 C173.241,31.5443 173.611,31.7474 173.798,32.1432 C173.871,32.2787 173.908,32.4297 173.908,32.5964 C173.908,33.0964 173.595,33.5235 172.97,33.8776 C172.46,34.1485 171.903,34.2839 171.298,34.2839 C170.673,34.2839 170.189,34.1328 169.845,33.8307 C169.668,33.6641 169.58,33.487 169.58,33.2995 C169.58,33.0078 169.793,32.6797 170.22,32.3151 C170.325,32.2318 170.434,32.1432 170.548,32.0495 C170.246,31.9141 170.075,31.7787 170.033,31.6432 C170.022,31.612 170.017,31.5755 170.017,31.5339 M170.767,32.0807 C170.465,32.4557 170.304,32.7162 170.283,32.862 C170.272,32.9037 170.267,32.9453 170.267,32.987 C170.267,33.2891 170.491,33.5078 170.939,33.6432 C171.168,33.7162 171.434,33.7526 171.736,33.7526 C172.569,33.7526 173.137,33.5703 173.439,33.2057 C173.564,33.0495 173.627,32.888 173.627,32.7214 C173.627,32.4714 173.46,32.3151 173.127,32.2526 C172.939,32.2214 172.689,32.2057 172.377,32.2057 C171.71,32.2057 171.173,32.1641 170.767,32.0807 M172.58,29.4714 C172.58,29.0443 172.491,28.6641 172.314,28.3307 C172.116,27.9974 171.861,27.8255 171.548,27.8151 C171.173,27.8151 170.939,28.013 170.845,28.4089 C170.825,28.513 170.814,28.6276 170.814,28.7526 C170.814,29.5547 171.038,30.0651 171.486,30.2839 C171.601,30.3464 171.715,30.3776 171.83,30.3776 C172.194,30.3776 172.429,30.1953 172.533,29.8307 C172.564,29.7162 172.58,29.5964 172.58,29.4714 M175.048,28.1901 C174.892,28.1901 174.752,28.2005 174.627,28.2214 L174.627,28.0651 C175.095,27.9297 175.611,27.7474 176.173,27.5182 L176.205,27.5495 L176.205,31.0964 C176.205,31.4818 176.262,31.7214 176.377,31.8151 C176.47,31.888 176.663,31.9349 176.955,31.9557 L176.955,32.112 L174.58,32.112 L174.58,31.9557 C174.944,31.9349 175.173,31.8672 175.267,31.7526 C175.34,31.638 175.377,31.4193 175.377,31.0964 L175.377,28.7682 C175.377,28.4141 175.293,28.2214 175.127,28.1901 C175.095,28.1901 175.069,28.1901 175.048,28.1901 M175.705,25.2839 C175.923,25.2839 176.08,25.3828 176.173,25.5807 C176.205,25.6537 176.22,25.7266 176.22,25.7995 C176.22,26.0182 176.116,26.1745 175.908,26.2682 C175.835,26.2891 175.767,26.2995 175.705,26.2995 C175.486,26.2995 175.33,26.2005 175.236,26.0026 C175.215,25.9297 175.205,25.862 175.205,25.7995 C175.205,25.5807 175.298,25.4245 175.486,25.3307 C175.559,25.2995 175.632,25.2839 175.705,25.2839 M179.877,27.5182 C180.616,27.5182 181.2,27.7891 181.627,28.3307 C181.929,28.737 182.08,29.2162 182.08,29.7682 C182.08,30.5495 181.825,31.1745 181.314,31.6432 C180.897,32.0182 180.413,32.2057 179.861,32.2057 C179.153,32.2057 178.59,31.9349 178.173,31.3932 C177.84,30.9557 177.673,30.4401 177.673,29.8464 C177.673,29.0339 177.95,28.4089 178.502,27.9714 C178.887,27.6693 179.345,27.5182 179.877,27.5182 M178.58,29.362 C178.58,30.2682 178.767,30.961 179.142,31.4401 C179.382,31.7526 179.663,31.9089 179.986,31.9089 C180.507,31.9089 180.866,31.612 181.064,31.0182 C181.147,30.7578 181.189,30.461 181.189,30.1276 C181.189,29.2422 180.976,28.586 180.548,28.1589 C180.319,27.9297 180.054,27.8151 179.752,27.8151 C179.283,27.8151 178.944,28.0547 178.736,28.5339 C178.632,28.7735 178.58,29.0495 178.58,29.362 M188.017,27.612 L188.017,27.9089 L187.002,27.9089 L187.002,30.7682 C187.002,31.3099 187.137,31.6068 187.408,31.6589 C187.439,31.6693 187.476,31.6745 187.517,31.6745 C187.726,31.6641 187.929,31.5443 188.127,31.3151 L188.252,31.4401 C187.929,31.9505 187.528,32.2057 187.048,32.2057 C186.465,32.1953 186.168,31.7735 186.158,30.9401 L186.158,27.9089 L185.627,27.9089 C185.606,27.888 185.595,27.8672 185.595,27.8464 C185.595,27.8047 185.637,27.763 185.72,27.7214 C186.002,27.5339 186.335,27.1693 186.72,26.6276 C186.731,26.6172 186.736,26.612 186.736,26.612 C186.84,26.4557 186.908,26.362 186.939,26.3307 C186.981,26.3412 187.002,26.3828 187.002,26.4557 L187.002,27.612 L188.017,27.612 M191.767,29.0182 C191.559,28.3932 191.392,28.0235 191.267,27.9089 C191.173,27.836 191.043,27.7891 190.877,27.7682 L190.877,27.612 L192.908,27.612 L192.908,27.7682 C192.575,27.8099 192.387,27.8828 192.345,27.987 C192.335,28.0287 192.33,28.0755 192.33,28.1276 C192.33,28.211 192.382,28.3985 192.486,28.6901 L192.502,28.7057 L192.502,28.7214 L193.345,30.9557 L194.236,28.737 C194.351,28.4557 194.408,28.237 194.408,28.0807 C194.408,27.9557 194.33,27.8672 194.173,27.8151 C194.111,27.7943 194.043,27.7787 193.97,27.7682 L193.97,27.612 L195.205,27.612 L195.205,27.7682 C195.08,27.8099 194.986,27.8828 194.923,27.987 C194.892,28.0599 194.845,28.1641 194.783,28.2995 L193.408,31.7682 C193.272,32.0807 193.179,32.2422 193.127,32.2526 C193.085,32.2526 193.017,32.1432 192.923,31.9245 C192.913,31.8932 192.903,31.8568 192.892,31.8151 L191.986,29.4557 L190.861,31.862 C190.746,32.112 190.663,32.2422 190.611,32.2526 C190.559,32.2526 190.476,32.112 190.361,31.8307 C190.351,31.8203 190.345,31.8151 190.345,31.8151 L189.002,28.3932 C188.866,28.0495 188.741,27.8516 188.627,27.7995 C188.575,27.7787 188.522,27.7682 188.47,27.7682 L188.47,27.612 L190.267,27.612 L190.267,27.7682 C189.996,27.7995 189.851,27.8776 189.83,28.0026 C189.819,28.0339 189.814,28.0651 189.814,28.0964 C189.814,28.1901 189.835,28.2891 189.877,28.3932 L190.861,31.0026 L191.767,29.0182 M197.877,27.5182 C198.616,27.5182 199.2,27.7891 199.627,28.3307 C199.929,28.737 200.08,29.2162 200.08,29.7682 C200.08,30.5495 199.825,31.1745 199.314,31.6432 C198.897,32.0182 198.413,32.2057 197.861,32.2057 C197.153,32.2057 196.59,31.9349 196.173,31.3932 C195.84,30.9557 195.673,30.4401 195.673,29.8464 C195.673,29.0339 195.95,28.4089 196.502,27.9714 C196.887,27.6693 197.345,27.5182 197.877,27.5182 M196.58,29.362 C196.58,30.2682 196.767,30.961 197.142,31.4401 C197.382,31.7526 197.663,31.9089 197.986,31.9089 C198.507,31.9089 198.866,31.612 199.064,31.0182 C199.147,30.7578 199.189,30.461 199.189,30.1276 C199.189,29.2422 198.976,28.586 198.548,28.1589 C198.319,27.9297 198.054,27.8151 197.752,27.8151 C197.283,27.8151 196.944,28.0547 196.736,28.5339 C196.632,28.7735 196.58,29.0495 196.58,29.362 M205.877,27.5182 C206.616,27.5182 207.2,27.7891 207.627,28.3307 C207.929,28.737 208.08,29.2162 208.08,29.7682 C208.08,30.5495 207.825,31.1745 207.314,31.6432 C206.897,32.0182 206.413,32.2057 205.861,32.2057 C205.153,32.2057 204.59,31.9349 204.173,31.3932 C203.84,30.9557 203.673,30.4401 203.673,29.8464 C203.673,29.0339 203.95,28.4089 204.502,27.9714 C204.887,27.6693 205.345,27.5182 205.877,27.5182 M204.58,29.362 C204.58,30.2682 204.767,30.961 205.142,31.4401 C205.382,31.7526 205.663,31.9089 205.986,31.9089 C206.507,31.9089 206.866,31.612 207.064,31.0182 C207.147,30.7578 207.189,30.461 207.189,30.1276 C207.189,29.2422 206.976,28.586 206.548,28.1589 C206.319,27.9297 206.054,27.8151 205.752,27.8151 C205.283,27.8151 204.944,28.0547 204.736,28.5339 C204.632,28.7735 204.58,29.0495 204.58,29.362 M208.673,29.987 C208.673,29.1432 208.96,28.4818 209.533,28.0026 C209.929,27.6797 210.371,27.5182 210.861,27.5182 C211.413,27.5182 211.84,27.6693 212.142,27.9714 C212.319,28.1485 212.408,28.3412 212.408,28.5495 C212.408,28.7266 212.314,28.8516 212.127,28.9245 C212.054,28.9557 211.986,28.9714 211.923,28.9714 C211.715,28.9714 211.564,28.836 211.47,28.5651 C211.46,28.5443 211.455,28.5235 211.455,28.5026 L211.392,28.2839 C211.33,28.0339 211.215,27.888 211.048,27.8464 C210.976,27.8255 210.892,27.8151 210.798,27.8151 C210.298,27.8151 209.918,28.0547 209.658,28.5339 C209.512,28.8255 209.439,29.1641 209.439,29.5495 C209.439,30.2787 209.663,30.8255 210.111,31.1901 C210.371,31.388 210.663,31.487 210.986,31.487 C211.403,31.487 211.762,31.3203 212.064,30.987 C212.168,30.862 212.283,30.7162 212.408,30.5495 L212.548,30.6432 C212.173,31.362 211.757,31.8307 211.298,32.0495 C211.059,32.1537 210.819,32.2057 210.58,32.2057 C209.934,32.2057 209.429,31.9401 209.064,31.4089 C208.804,31.0026 208.673,30.5287 208.673,29.987 M215.017,27.612 L215.017,27.9089 L214.002,27.9089 L214.002,30.7682 C214.002,31.3099 214.137,31.6068 214.408,31.6589 C214.439,31.6693 214.476,31.6745 214.517,31.6745 C214.726,31.6641 214.929,31.5443 215.127,31.3151 L215.252,31.4401 C214.929,31.9505 214.528,32.2057 214.048,32.2057 C213.465,32.1953 213.168,31.7735 213.158,30.9401 L213.158,27.9089 L212.627,27.9089 C212.606,27.888 212.595,27.8672 212.595,27.8464 C212.595,27.8047 212.637,27.763 212.72,27.7214 C213.002,27.5339 213.335,27.1693 213.72,26.6276 C213.731,26.6172 213.736,26.612 213.736,26.612 C213.84,26.4557 213.908,26.362 213.939,26.3307 C213.981,26.3412 214.002,26.3828 214.002,26.4557 L214.002,27.612 L215.017,27.612 M215.673,31.1432 C215.673,30.6328 215.991,30.2005 216.627,29.8464 C216.814,29.7526 217.314,29.5391 218.127,29.2057 C218.147,29.2057 218.163,29.2005 218.173,29.1901 L218.173,28.5807 C218.121,28.0599 217.866,27.7839 217.408,27.7526 C217.095,27.7526 216.877,27.8516 216.752,28.0495 C216.71,28.1224 216.689,28.1849 216.689,28.237 C216.689,28.2995 216.7,28.3828 216.72,28.487 C216.731,28.5599 216.736,28.612 216.736,28.6432 C216.736,28.8203 216.647,28.9453 216.47,29.0182 C216.408,29.0495 216.351,29.0651 216.298,29.0651 C216.111,29.0651 215.981,28.9766 215.908,28.7995 C215.877,28.7474 215.861,28.6901 215.861,28.6276 C215.861,28.263 216.08,27.9662 216.517,27.737 C216.819,27.5912 217.163,27.5182 217.548,27.5182 C218.267,27.5182 218.71,27.7735 218.877,28.2839 C218.95,28.5026 218.986,28.7787 218.986,29.112 L218.986,31.0495 C218.986,31.3828 219.048,31.5703 219.173,31.612 C219.215,31.6224 219.252,31.6276 219.283,31.6276 C219.429,31.6172 219.575,31.5547 219.72,31.4401 L219.72,31.6901 C219.45,32.0026 219.2,32.1745 218.97,32.2057 C218.918,32.2057 218.866,32.2057 218.814,32.2057 C218.502,32.2057 218.304,32.0495 218.22,31.737 C218.2,31.6537 218.189,31.5599 218.189,31.4557 C217.595,31.9349 217.106,32.1849 216.72,32.2057 C216.293,32.2057 215.986,32.0339 215.798,31.6901 C215.715,31.5235 215.673,31.3412 215.673,31.1432 M218.173,30.862 L218.173,29.4245 C217.351,29.7266 216.845,30.0339 216.658,30.3464 C216.585,30.4922 216.548,30.6485 216.548,30.8151 C216.548,31.211 216.694,31.461 216.986,31.5651 C217.059,31.5964 217.127,31.612 217.189,31.612 C217.408,31.6016 217.647,31.5235 217.908,31.3776 C218.054,31.2943 218.137,31.1901 218.158,31.0651 C218.168,31.0026 218.173,30.9349 218.173,30.862 M224.048,27.612 L224.048,27.7682 C223.882,27.7891 223.757,27.8568 223.673,27.9714 C223.601,28.0755 223.512,28.2682 223.408,28.5495 L222.127,31.7526 C221.991,32.0755 221.897,32.2422 221.845,32.2526 C221.772,32.2526 221.689,32.1068 221.595,31.8151 C221.585,31.8047 221.58,31.7943 221.58,31.7839 L220.377,28.9089 C220.127,28.3151 219.939,27.9662 219.814,27.862 C219.731,27.7995 219.616,27.7682 219.47,27.7682 L219.47,27.612 L221.439,27.612 L221.439,27.7682 C221.158,27.7891 221.007,27.862 220.986,27.987 C220.976,28.0078 220.97,28.0287 220.97,28.0495 C220.97,28.1641 221.002,28.2839 221.064,28.4089 L222.08,30.9714 L223.064,28.3776 C223.106,28.2839 223.127,28.1849 223.127,28.0807 C223.127,27.9037 222.981,27.7995 222.689,27.7682 C222.679,27.7682 222.668,27.7682 222.658,27.7682 L222.658,27.612 L224.048,27.612 M225.392,29.3464 C225.434,30.5235 225.819,31.2162 226.548,31.4245 C226.673,31.4662 226.809,31.487 226.955,31.487 C227.444,31.487 227.861,31.2787 228.205,30.862 C228.298,30.7474 228.397,30.612 228.502,30.4557 L228.658,30.5182 C228.293,31.4766 227.72,32.0287 226.939,32.1745 C226.804,32.1953 226.673,32.2057 226.548,32.2057 C225.809,32.2057 225.278,31.8932 224.955,31.2682 C224.767,30.8932 224.673,30.461 224.673,29.9714 C224.673,29.086 224.95,28.4141 225.502,27.9557 C225.866,27.6641 226.288,27.5182 226.767,27.5182 C227.684,27.5182 228.236,28.0391 228.423,29.0807 C228.444,29.1745 228.46,29.263 228.47,29.3464 L225.392,29.3464 M225.408,29.0495 L227.455,29.0495 C227.361,28.4766 227.194,28.1224 226.955,27.987 C226.83,27.9245 226.668,27.8932 226.47,27.8932 C225.877,27.8932 225.522,28.2682 225.408,29.0182 C225.408,29.0287 225.408,29.0391 225.408,29.0495 M231.095,27.7214 C231.116,27.711 231.173,27.6745 231.267,27.612 L231.377,27.612 L231.408,28.9714 L231.267,28.9714 C231.101,28.3255 230.861,27.9401 230.548,27.8151 C230.434,27.763 230.304,27.737 230.158,27.737 C229.804,27.737 229.564,27.8776 229.439,28.1589 C229.408,28.2422 229.392,28.3307 229.392,28.4245 C229.403,28.7057 229.548,28.9297 229.83,29.0964 L230.908,29.737 C231.387,30.0287 231.658,30.3464 231.72,30.6901 C231.731,30.763 231.736,30.8464 231.736,30.9401 C231.736,31.3568 231.554,31.6953 231.189,31.9557 C230.929,32.1224 230.642,32.2057 230.33,32.2057 C230.194,32.2057 229.887,32.1589 229.408,32.0651 C229.293,32.0443 229.205,32.0339 229.142,32.0339 C229.038,32.0443 228.96,32.086 228.908,32.1589 L228.783,32.1589 L228.783,30.5964 L228.939,30.5964 C229.043,31.0651 229.173,31.3932 229.33,31.5807 C229.548,31.8516 229.84,31.987 230.205,31.987 C230.632,31.987 230.897,31.8307 231.002,31.5182 C231.033,31.4453 231.048,31.362 231.048,31.2682 C231.038,30.9662 230.861,30.7162 230.517,30.5182 L229.939,30.1901 C229.314,29.836 228.944,29.4818 228.83,29.1276 C228.788,29.0026 228.767,28.8776 228.767,28.7526 C228.767,28.2839 228.97,27.9349 229.377,27.7057 C229.606,27.5807 229.856,27.5182 230.127,27.5182 C230.345,27.5182 230.606,27.5703 230.908,27.6745 C230.991,27.7057 231.054,27.7214 231.095,27.7214"/>
</svg>
