<?xml version="1.0" encoding="UTF-8" standalone="no"?>
<svg width="595.44px" height="841.68px" viewBox="0 0 595.44 841.68"
 xmlns="http://www.w3.org/2000/svg" xmlns:xlink="http://www.w3.org/1999/xlink" version="1.2" baseProfile="tiny">
<title>Guitar Scales and Arpeggios</title>
<desc>Generated by MuseScore 2.1.0</desc>
<polyline class="StaffLines" fill="none" stroke="#000000" stroke-width="0.40" stroke-linejoin="bevel" points="28.08,62.856 567.36,62.856"/>
<polyline class="StaffLines" fill="none" stroke="#000000" stroke-width="0.40" stroke-linejoin="bevel" points="28.08,67.824 567.36,67.824"/>
<polyline class="StaffLines" fill="none" stroke="#000000" stroke-width="0.40" stroke-linejoin="bevel" points="28.08,72.792 567.36,72.792"/>
<polyline class="StaffLines" fill="none" stroke="#000000" stroke-width="0.40" stroke-linejoin="bevel" points="28.08,77.76 567.36,77.76"/>
<polyline class="StaffLines" fill="none" stroke="#000000" stroke-width="0.40" stroke-linejoin="bevel" points="28.08,82.728 567.36,82.728"/>
<polyline class="StaffLines" fill="none" stroke="#000000" stroke-width="0.40" stroke-linejoin="bevel" points="28.08,115.02 567.36,115.02"/>
<polyline class="StaffLines" fill="none" stroke="#000000" stroke-width="0.40" stroke-linejoin="bevel" points="28.08,122.472 567.36,122.472"/>
<polyline class="StaffLines" fill="none" stroke="#000000" stroke-width="0.40" stroke-linejoin="bevel" points="28.08,129.924 567.36,129.924"/>
<polyline class="StaffLines" fill="none" stroke="#000000" stroke-width="0.40" stroke-linejoin="bevel" points="28.08,137.376 567.36,137.376"/>
<polyline class="StaffLines" fill="none" stroke="#000000" stroke-width="0.40" stroke-linejoin="bevel" points="28.08,144.828 567.36,144.828"/>
<polyline class="StaffLines" fill="none" stroke="#000000" stroke-width="0.40" stroke-linejoin="bevel" points="28.08,152.28 567.36,152.28"/>
<polyline class="BarLine" fill="none" stroke="#000000" stroke-width="0.79" stroke-linejoin="bevel" points="28.4774,62.856 28.4774,152.28"/>
<polyline class="BarLine" fill="none" stroke="#000000" stroke-width="0.79" stroke-linejoin="bevel" points="562.491,115.02 562.491,152.28"/>
<polyline class="BarLine" fill="none" stroke="#000000" stroke-width="2.48" stroke-linejoin="bevel" points="566.118,115.02 566.118,152.28"/>
<polyline class="BarLine" fill="none" stroke="#000000" stroke-width="0.79" stroke-linejoin="bevel" points="562.491,62.856 562.491,82.728"/>
<polyline class="BarLine" fill="none" stroke="#000000" stroke-width="2.48" stroke-linejoin="bevel" points="566.118,62.856 566.118,82.728"/>
<polyline class="LedgerLine" fill="none" stroke="#000000" stroke-width="0.79" stroke-linecap="square" stroke-linejoin="bevel" points="478.667,87.696 488.188,87.696"/>
<polyline class="LedgerLine" fill="none" stroke="#000000" stroke-width="0.79" stroke-linecap="square" stroke-linejoin="bevel" points="478.667,92.664 488.188,92.664"/>
<polyline class="LedgerLine" fill="none" stroke="#000000" stroke-width="0.79" stroke-linecap="square" stroke-linejoin="bevel" points="478.667,97.632 488.188,97.632"/>
<polyline class="LedgerLine" fill="none" stroke="#000000" stroke-width="0.79" stroke-linecap="square" stroke-linejoin="bevel" points="427.456,87.696 436.978,87.696"/>
<polyline class="LedgerLine" fill="none" stroke="#000000" stroke-width="0.79" stroke-linecap="square" stroke-linejoin="bevel" points="427.456,92.664 436.978,92.664"/>
<polyline class="LedgerLine" fill="none" stroke="#000000" stroke-width="0.79" stroke-linecap="square" stroke-linejoin="bevel" points="376.246,87.696 385.767,87.696"/>
<polyline class="LedgerLine" fill="none" stroke="#000000" stroke-width="0.79" stroke-linecap="square" stroke-linejoin="bevel" points="171.404,87.696 180.925,87.696"/>
<polyline class="LedgerLine" fill="none" stroke="#000000" stroke-width="0.79" stroke-linecap="square" stroke-linejoin="bevel" points="120.193,87.696 129.715,87.696"/>
<polyline class="LedgerLine" fill="none" stroke="#000000" stroke-width="0.79" stroke-linecap="square" stroke-linejoin="bevel" points="120.193,92.664 129.715,92.664"/>
<polyline class="LedgerLine" fill="none" stroke="#000000" stroke-width="0.79" stroke-linecap="square" stroke-linejoin="bevel" points="68.9829,87.696 78.5044,87.696"/>
<polyline class="LedgerLine" fill="none" stroke="#000000" stroke-width="0.79" stroke-linecap="square" stroke-linejoin="bevel" points="68.9829,92.664 78.5044,92.664"/>
<polyline class="LedgerLine" fill="none" stroke="#000000" stroke-width="0.79" stroke-linecap="square" stroke-linejoin="bevel" points="68.9829,97.632 78.5044,97.632"/>
<polyline class="Stem" fill="none" stroke="#000000" stroke-width="0.65" stroke-linecap="round" stroke-linejoin="bevel" points="486.375,96.6989 486.375,72.792"/>
<polyline class="Stem" fill="none" stroke="#000000" stroke-width="0.65" stroke-linecap="round" stroke-linejoin="bevel" points="435.164,91.7309 435.164,72.792"/>
<polyline class="Stem" fill="none" stroke="#000000" stroke-width="0.65" stroke-linecap="round" stroke-linejoin="bevel" points="383.954,86.7629 383.954,70.722"/>
<polyline class="Stem" fill="none" stroke="#000000" stroke-width="0.65" stroke-linecap="round" stroke-linejoin="bevel" points="332.743,81.7949 332.743,68.652"/>
<polyline class="Stem" fill="none" stroke="#000000" stroke-width="0.65" stroke-linecap="round" stroke-linejoin="bevel" points="281.533,79.3109 281.533,66.582"/>
<polyline class="Stem" fill="none" stroke="#000000" stroke-width="0.65" stroke-linecap="round" stroke-linejoin="bevel" points="230.323,81.7949 230.323,67.824"/>
<polyline class="Stem" fill="none" stroke="#000000" stroke-width="0.65" stroke-linecap="round" stroke-linejoin="bevel" points="179.112,86.7629 179.112,69.48"/>
<polyline class="Stem" fill="none" stroke="#000000" stroke-width="0.65" stroke-linecap="round" stroke-linejoin="bevel" points="127.902,91.7309 127.902,71.136"/>
<polyline class="Stem" fill="none" stroke="#000000" stroke-width="0.65" stroke-linecap="round" stroke-linejoin="bevel" points="76.6911,96.6989 76.6911,72.792"/>
<path class="Note" fill="#ffffff" fill-rule="evenodd" d="M480.902,148.554 L486.864,148.554 L486.864,156.006 L480.902,156.006 L480.902,148.554 "/>
<path class="Note" transform="matrix(0.9936,0,0,0.9936,481.399,155.758)" d="M2.32813,-4.54688 L0.921875,-4.54688 L0.921875,-5.10938 C1.53646,-5.19271 1.93229,-5.30208 2.10938,-5.4375 C2.28646,-5.57292 2.4375,-5.85417 2.5625,-6.28125 C2.57292,-6.3125 2.58854,-6.34896 2.60938,-6.39063 L3.125,-6.39063 L3.125,0 L2.32813,0 L2.32813,-4.54688 "/>
<path class="Note" fill="#ebeb19" transform="matrix(0.9936,0,0,0.9936,480.157,97.632)" d="M4.39063,-2.75 C5.01563,-2.75 5.54688,-2.58854 5.98438,-2.26563 C6.38021,-1.91146 6.57813,-1.46875 6.57813,-0.9375 C6.57813,-0.0416667 6.11979,0.796875 5.20313,1.57813 C4.26563,2.35938 3.26042,2.75 2.1875,2.75 C1.5625,2.75 1.03646,2.58854 0.609375,2.26563 C0.203125,1.91146 0,1.46875 0,0.9375 C0,0.0416667 0.46875,-0.796875 1.40625,-1.57813 C2.32292,-2.35938 3.31771,-2.75 4.39063,-2.75"/>
<path class="Note" fill="#ffffff" fill-rule="evenodd" d="M429.692,141.102 L435.653,141.102 L435.653,148.554 L429.692,148.554 L429.692,141.102 "/>
<path class="Note" transform="matrix(0.9936,0,0,0.9936,430.189,148.306)" d="M0.390625,-3.09375 C0.390625,-5 0.927083,-6.07813 2,-6.32813 C2.14583,-6.36979 2.30208,-6.39063 2.46875,-6.39063 C3.78125,-6.39063 4.47917,-5.40104 4.5625,-3.42188 C4.5625,-3.28646 4.5625,-3.15625 4.5625,-3.03125 C4.5625,-1.40625 4.15104,-0.385417 3.32813,0.03125 C3.06771,0.145833 2.78125,0.203125 2.46875,0.203125 C1.41667,0.203125 0.760417,-0.442708 0.5,-1.73438 C0.427083,-2.14063 0.390625,-2.59375 0.390625,-3.09375 M2.46875,-5.64063 C1.625,-5.63021 1.20313,-4.77083 1.20313,-3.0625 C1.20313,-1.32292 1.61979,-0.453125 2.45313,-0.453125 C3.16146,-0.453125 3.57813,-1.02604 3.70313,-2.17188 C3.73438,-2.44271 3.75,-2.75 3.75,-3.09375 C3.75,-4.79167 3.32292,-5.64063 2.46875,-5.64063"/>
<path class="Note" fill="#cc00ff" transform="matrix(0.9936,0,0,0.9936,428.947,92.664)" d="M4.39063,-2.75 C5.01563,-2.75 5.54688,-2.58854 5.98438,-2.26563 C6.38021,-1.91146 6.57813,-1.46875 6.57813,-0.9375 C6.57813,-0.0416667 6.11979,0.796875 5.20313,1.57813 C4.26563,2.35938 3.26042,2.75 2.1875,2.75 C1.5625,2.75 1.03646,2.58854 0.609375,2.26563 C0.203125,1.91146 0,1.46875 0,0.9375 C0,0.0416667 0.46875,-0.796875 1.40625,-1.57813 C2.32292,-2.35938 3.31771,-2.75 4.39063,-2.75"/>
<path class="Note" fill="#ffffff" fill-rule="evenodd" d="M378.481,141.102 L384.443,141.102 L384.443,148.554 L378.481,148.554 L378.481,141.102 "/>
<path class="Note" transform="matrix(0.9936,0,0,0.9936,378.978,148.306)" d="M2.4375,-5.64063 C1.75,-5.64063 1.35417,-5.32813 1.25,-4.70313 C1.22917,-4.59896 1.21875,-4.47917 1.21875,-4.34375 L0.421875,-4.34375 C0.442708,-5.59375 1.01563,-6.27083 2.14063,-6.375 C2.23438,-6.38542 2.32813,-6.39063 2.42188,-6.39063 C3.26563,-6.39063 3.84375,-6.10938 4.15625,-5.54688 C4.29167,-5.28646 4.35938,-4.98438 4.35938,-4.64063 C4.35938,-4.00521 4.0625,-3.57292 3.46875,-3.34375 C4.03125,-3.14583 4.375,-2.81771 4.5,-2.35938 C4.54167,-2.19271 4.5625,-2.00521 4.5625,-1.79688 C4.5625,-1.05729 4.27604,-0.505208 3.70313,-0.140625 C3.33854,0.0885417 2.90104,0.203125 2.39063,0.203125 C1.21354,0.203125 0.526042,-0.348958 0.328125,-1.45313 C0.317708,-1.57813 0.302083,-1.71354 0.28125,-1.85938 L1.07813,-1.85938 C1.13021,-1.08854 1.46875,-0.65625 2.09375,-0.5625 C2.19792,-0.541667 2.30729,-0.53125 2.42188,-0.53125 C3.04688,-0.53125 3.45313,-0.765625 3.64063,-1.23438 C3.71354,-1.40104 3.75,-1.58854 3.75,-1.79688 C3.73958,-2.54688 3.29688,-2.92708 2.42188,-2.9375 L2.09375,-2.92188 L1.98438,-2.92188 L1.98438,-3.67188 C2.66146,-3.68229 3.10417,-3.77604 3.3125,-3.95313 C3.47917,-4.09896 3.5625,-4.31771 3.5625,-4.60938 C3.5625,-5.09896 3.34896,-5.41667 2.92188,-5.5625 C2.77604,-5.61458 2.61458,-5.64063 2.4375,-5.64063"/>
<path class="Note" fill="#ed2929" transform="matrix(0.9936,0,0,0.9936,377.736,87.696)" d="M4.39063,-2.75 C5.01563,-2.75 5.54688,-2.58854 5.98438,-2.26563 C6.38021,-1.91146 6.57813,-1.46875 6.57813,-0.9375 C6.57813,-0.0416667 6.11979,0.796875 5.20313,1.57813 C4.26563,2.35938 3.26042,2.75 2.1875,2.75 C1.5625,2.75 1.03646,2.58854 0.609375,2.26563 C0.203125,1.91146 0,1.46875 0,0.9375 C0,0.0416667 0.46875,-0.796875 1.40625,-1.57813 C2.32292,-2.35938 3.31771,-2.75 4.39063,-2.75"/>
<path class="Note" fill="#ffffff" fill-rule="evenodd" d="M327.271,133.65 L333.233,133.65 L333.233,141.102 L327.271,141.102 L327.271,133.65 "/>
<path class="Note" transform="matrix(0.9936,0,0,0.9936,327.768,140.854)" d="M2.32813,-4.54688 L0.921875,-4.54688 L0.921875,-5.10938 C1.53646,-5.19271 1.93229,-5.30208 2.10938,-5.4375 C2.28646,-5.57292 2.4375,-5.85417 2.5625,-6.28125 C2.57292,-6.3125 2.58854,-6.34896 2.60938,-6.39063 L3.125,-6.39063 L3.125,0 L2.32813,0 L2.32813,-4.54688 "/>
<path class="Note" fill="#00008b" transform="matrix(0.9936,0,0,0.9936,326.526,82.728)" d="M4.39063,-2.75 C5.01563,-2.75 5.54688,-2.58854 5.98438,-2.26563 C6.38021,-1.91146 6.57813,-1.46875 6.57813,-0.9375 C6.57813,-0.0416667 6.11979,0.796875 5.20313,1.57813 C4.26563,2.35938 3.26042,2.75 2.1875,2.75 C1.5625,2.75 1.03646,2.58854 0.609375,2.26563 C0.203125,1.91146 0,1.46875 0,0.9375 C0,0.0416667 0.46875,-0.796875 1.40625,-1.57813 C2.32292,-2.35938 3.31771,-2.75 4.39063,-2.75"/>
<path class="Note" fill="#ffffff" fill-rule="evenodd" d="M276.06,133.65 L282.022,133.65 L282.022,141.102 L276.06,141.102 L276.06,133.65 "/>
<path class="Note" transform="matrix(0.9936,0,0,0.9936,276.557,140.854)" d="M2.4375,-5.64063 C1.75,-5.64063 1.35417,-5.32813 1.25,-4.70313 C1.22917,-4.59896 1.21875,-4.47917 1.21875,-4.34375 L0.421875,-4.34375 C0.442708,-5.59375 1.01563,-6.27083 2.14063,-6.375 C2.23438,-6.38542 2.32813,-6.39063 2.42188,-6.39063 C3.26563,-6.39063 3.84375,-6.10938 4.15625,-5.54688 C4.29167,-5.28646 4.35938,-4.98438 4.35938,-4.64063 C4.35938,-4.00521 4.0625,-3.57292 3.46875,-3.34375 C4.03125,-3.14583 4.375,-2.81771 4.5,-2.35938 C4.54167,-2.19271 4.5625,-2.00521 4.5625,-1.79688 C4.5625,-1.05729 4.27604,-0.505208 3.70313,-0.140625 C3.33854,0.0885417 2.90104,0.203125 2.39063,0.203125 C1.21354,0.203125 0.526042,-0.348958 0.328125,-1.45313 C0.317708,-1.57813 0.302083,-1.71354 0.28125,-1.85938 L1.07813,-1.85938 C1.13021,-1.08854 1.46875,-0.65625 2.09375,-0.5625 C2.19792,-0.541667 2.30729,-0.53125 2.42188,-0.53125 C3.04688,-0.53125 3.45313,-0.765625 3.64063,-1.23438 C3.71354,-1.40104 3.75,-1.58854 3.75,-1.79688 C3.73958,-2.54688 3.29688,-2.92708 2.42188,-2.9375 L2.09375,-2.92188 L1.98438,-2.92188 L1.98438,-3.67188 C2.66146,-3.68229 3.10417,-3.77604 3.3125,-3.95313 C3.47917,-4.09896 3.5625,-4.31771 3.5625,-4.60938 C3.5625,-5.09896 3.34896,-5.41667 2.92188,-5.5625 C2.77604,-5.61458 2.61458,-5.64063 2.4375,-5.64063"/>
<path class="Note" fill="#ebeb19" transform="matrix(0.9936,0,0,0.9936,275.315,80.244)" d="M4.39063,-2.75 C5.01563,-2.75 5.54688,-2.58854 5.98438,-2.26563 C6.38021,-1.91146 6.57813,-1.46875 6.57813,-0.9375 C6.57813,-0.0416667 6.11979,0.796875 5.20313,1.57813 C4.26563,2.35938 3.26042,2.75 2.1875,2.75 C1.5625,2.75 1.03646,2.58854 0.609375,2.26563 C0.203125,1.91146 0,1.46875 0,0.9375 C0,0.0416667 0.46875,-0.796875 1.40625,-1.57813 C2.32292,-2.35938 3.31771,-2.75 4.39063,-2.75"/>
<path class="Note" fill="#ffffff" fill-rule="evenodd" d="M224.85,133.65 L230.812,133.65 L230.812,141.102 L224.85,141.102 L224.85,133.65 "/>
<path class="Note" transform="matrix(0.9936,0,0,0.9936,225.347,140.854)" d="M2.32813,-4.54688 L0.921875,-4.54688 L0.921875,-5.10938 C1.53646,-5.19271 1.93229,-5.30208 2.10938,-5.4375 C2.28646,-5.57292 2.4375,-5.85417 2.5625,-6.28125 C2.57292,-6.3125 2.58854,-6.34896 2.60938,-6.39063 L3.125,-6.39063 L3.125,0 L2.32813,0 L2.32813,-4.54688 "/>
<path class="Note" fill="#00008b" transform="matrix(0.9936,0,0,0.9936,224.105,82.728)" d="M4.39063,-2.75 C5.01563,-2.75 5.54688,-2.58854 5.98438,-2.26563 C6.38021,-1.91146 6.57813,-1.46875 6.57813,-0.9375 C6.57813,-0.0416667 6.11979,0.796875 5.20313,1.57813 C4.26563,2.35938 3.26042,2.75 2.1875,2.75 C1.5625,2.75 1.03646,2.58854 0.609375,2.26563 C0.203125,1.91146 0,1.46875 0,0.9375 C0,0.0416667 0.46875,-0.796875 1.40625,-1.57813 C2.32292,-2.35938 3.31771,-2.75 4.39063,-2.75"/>
<path class="Note" fill="#ffffff" fill-rule="evenodd" d="M173.639,141.102 L179.601,141.102 L179.601,148.554 L173.639,148.554 L173.639,141.102 "/>
<path class="Note" transform="matrix(0.9936,0,0,0.9936,174.136,148.306)" d="M2.4375,-5.64063 C1.75,-5.64063 1.35417,-5.32813 1.25,-4.70313 C1.22917,-4.59896 1.21875,-4.47917 1.21875,-4.34375 L0.421875,-4.34375 C0.442708,-5.59375 1.01563,-6.27083 2.14063,-6.375 C2.23438,-6.38542 2.32813,-6.39063 2.42188,-6.39063 C3.26563,-6.39063 3.84375,-6.10938 4.15625,-5.54688 C4.29167,-5.28646 4.35938,-4.98438 4.35938,-4.64063 C4.35938,-4.00521 4.0625,-3.57292 3.46875,-3.34375 C4.03125,-3.14583 4.375,-2.81771 4.5,-2.35938 C4.54167,-2.19271 4.5625,-2.00521 4.5625,-1.79688 C4.5625,-1.05729 4.27604,-0.505208 3.70313,-0.140625 C3.33854,0.0885417 2.90104,0.203125 2.39063,0.203125 C1.21354,0.203125 0.526042,-0.348958 0.328125,-1.45313 C0.317708,-1.57813 0.302083,-1.71354 0.28125,-1.85938 L1.07813,-1.85938 C1.13021,-1.08854 1.46875,-0.65625 2.09375,-0.5625 C2.19792,-0.541667 2.30729,-0.53125 2.42188,-0.53125 C3.04688,-0.53125 3.45313,-0.765625 3.64063,-1.23438 C3.71354,-1.40104 3.75,-1.58854 3.75,-1.79688 C3.73958,-2.54688 3.29688,-2.92708 2.42188,-2.9375 L2.09375,-2.92188 L1.98438,-2.92188 L1.98438,-3.67188 C2.66146,-3.68229 3.10417,-3.77604 3.3125,-3.95313 C3.47917,-4.09896 3.5625,-4.31771 3.5625,-4.60938 C3.5625,-5.09896 3.34896,-5.41667 2.92188,-5.5625 C2.77604,-5.61458 2.61458,-5.64063 2.4375,-5.64063"/>
<path class="Note" fill="#ed2929" transform="matrix(0.9936,0,0,0.9936,172.894,87.696)" d="M4.39063,-2.75 C5.01563,-2.75 5.54688,-2.58854 5.98438,-2.26563 C6.38021,-1.91146 6.57813,-1.46875 6.57813,-0.9375 C6.57813,-0.0416667 6.11979,0.796875 5.20313,1.57813 C4.26563,2.35938 3.26042,2.75 2.1875,2.75 C1.5625,2.75 1.03646,2.58854 0.609375,2.26563 C0.203125,1.91146 0,1.46875 0,0.9375 C0,0.0416667 0.46875,-0.796875 1.40625,-1.57813 C2.32292,-2.35938 3.31771,-2.75 4.39063,-2.75"/>
<path class="Note" fill="#ffffff" fill-rule="evenodd" d="M122.429,141.102 L128.391,141.102 L128.391,148.554 L122.429,148.554 L122.429,141.102 "/>
<path class="Note" transform="matrix(0.9936,0,0,0.9936,122.926,148.306)" d="M0.390625,-3.09375 C0.390625,-5 0.927083,-6.07813 2,-6.32813 C2.14583,-6.36979 2.30208,-6.39063 2.46875,-6.39063 C3.78125,-6.39063 4.47917,-5.40104 4.5625,-3.42188 C4.5625,-3.28646 4.5625,-3.15625 4.5625,-3.03125 C4.5625,-1.40625 4.15104,-0.385417 3.32813,0.03125 C3.06771,0.145833 2.78125,0.203125 2.46875,0.203125 C1.41667,0.203125 0.760417,-0.442708 0.5,-1.73438 C0.427083,-2.14063 0.390625,-2.59375 0.390625,-3.09375 M2.46875,-5.64063 C1.625,-5.63021 1.20313,-4.77083 1.20313,-3.0625 C1.20313,-1.32292 1.61979,-0.453125 2.45313,-0.453125 C3.16146,-0.453125 3.57813,-1.02604 3.70313,-2.17188 C3.73438,-2.44271 3.75,-2.75 3.75,-3.09375 C3.75,-4.79167 3.32292,-5.64063 2.46875,-5.64063"/>
<path class="Note" fill="#cc00ff" transform="matrix(0.9936,0,0,0.9936,121.684,92.664)" d="M4.39063,-2.75 C5.01563,-2.75 5.54688,-2.58854 5.98438,-2.26563 C6.38021,-1.91146 6.57813,-1.46875 6.57813,-0.9375 C6.57813,-0.0416667 6.11979,0.796875 5.20313,1.57813 C4.26563,2.35938 3.26042,2.75 2.1875,2.75 C1.5625,2.75 1.03646,2.58854 0.609375,2.26563 C0.203125,1.91146 0,1.46875 0,0.9375 C0,0.0416667 0.46875,-0.796875 1.40625,-1.57813 C2.32292,-2.35938 3.31771,-2.75 4.39063,-2.75"/>
<path class="Note" fill="#ffffff" fill-rule="evenodd" d="M71.2185,148.554 L77.1801,148.554 L77.1801,156.006 L71.2185,156.006 L71.2185,148.554 "/>
<path class="Note" transform="matrix(0.9936,0,0,0.9936,71.7153,155.758)" d="M2.32813,-4.54688 L0.921875,-4.54688 L0.921875,-5.10938 C1.53646,-5.19271 1.93229,-5.30208 2.10938,-5.4375 C2.28646,-5.57292 2.4375,-5.85417 2.5625,-6.28125 C2.57292,-6.3125 2.58854,-6.34896 2.60938,-6.39063 L3.125,-6.39063 L3.125,0 L2.32813,0 L2.32813,-4.54688 "/>
<path class="Note" fill="#ebeb19" transform="matrix(0.9936,0,0,0.9936,70.4733,97.632)" d="M4.39063,-2.75 C5.01563,-2.75 5.54688,-2.58854 5.98438,-2.26563 C6.38021,-1.91146 6.57813,-1.46875 6.57813,-0.9375 C6.57813,-0.0416667 6.11979,0.796875 5.20313,1.57813 C4.26563,2.35938 3.26042,2.75 2.1875,2.75 C1.5625,2.75 1.03646,2.58854 0.609375,2.26563 C0.203125,1.91146 0,1.46875 0,0.9375 C0,0.0416667 0.46875,-0.796875 1.40625,-1.57813 C2.32292,-2.35938 3.31771,-2.75 4.39063,-2.75"/>
<path class="Clef" transform="matrix(0.9936,0,0,0.9936,32.0544,133.65)" d="M5.32813,8.5 C5.32813,8.86458 5.04167,9.04688 4.46875,9.04688 C4.02083,9.04688 3.625,8.91146 3.28125,8.64063 C2.95833,8.34896 2.79688,7.98438 2.79688,7.54688 C2.79688,6.76563 3.27083,6.14063 4.21875,5.67188 C5.14583,5.18229 6.23438,4.9375 7.48438,4.9375 C7.96354,4.9375 8.47917,4.97396 9.03125,5.04688 C9.42708,5.09896 9.875,5.20313 10.375,5.35938 C10.8125,5.49479 11.1563,5.70573 11.4063,5.99219 C11.6563,6.27865 11.7813,6.61458 11.7813,7 C11.7813,7.89583 11.3177,8.63021 10.3906,9.20313 C11.7448,9.45313 12.4271,10.0573 12.4375,11.0156 C12.4375,11.8281 12.0729,12.5599 11.3438,13.2109 C10.6146,13.862 9.79167,14.1875 8.875,14.1875 C8.47917,14.1875 8.07813,14.0938 7.67188,13.9063 C7.29688,13.7292 7.03125,13.5625 6.875,13.4063 C6.71875,13.2188 6.64063,13.0781 6.64063,12.9844 C6.64063,12.8594 6.70833,12.75 6.84375,12.6563 C6.95833,12.5417 7.07813,12.4844 7.20313,12.4844 C7.25521,12.4844 7.36719,12.5677 7.53906,12.7344 C7.71094,12.901 7.95833,12.9844 8.28125,12.9844 C8.72917,12.9844 9.16146,12.7969 9.57813,12.4219 C9.97396,12.0573 10.1719,11.6198 10.1719,11.1094 C10.1719,10.6719 9.98438,10.3542 9.60938,10.1563 C9.24479,9.95833 8.76563,9.85938 8.17188,9.85938 C8.06771,9.85938 8.01563,9.75 8.01563,9.53125 C8.01563,9.21875 8.13021,9.0625 8.35938,9.0625 C8.72396,9.0625 9.05208,8.90625 9.34375,8.59375 C9.61458,8.26042 9.75,7.90104 9.75,7.51563 C9.75,7.40104 9.71875,7.22917 9.65625,7 C9.60417,6.84375 9.44792,6.65104 9.1875,6.42188 C8.9375,6.21354 8.58854,6.07292 8.14063,6 C8.02604,6.63542 7.88021,7.44792 7.70313,8.4375 C7.52604,9.42708 7.40625,10.0781 7.34375,10.3906 C7.125,11.5156 6.72396,12.4583 6.14063,13.2188 C5.52604,14.0313 4.86458,14.4375 4.15625,14.4375 C3.9375,14.4375 3.71354,14.3854 3.48438,14.2813 C3.29688,14.1979 3.0625,14.0365 2.78125,13.7969 C2.52083,13.5885 2.34375,13.4479 2.25,13.375 C2.19792,13.3438 2.17188,13.2865 2.17188,13.2031 C2.17188,13.0781 2.21875,12.9635 2.3125,12.8594 C2.41667,12.7344 2.52604,12.6719 2.64063,12.6719 C2.71354,12.6719 2.89323,12.7969 3.17969,13.0469 C3.46615,13.2969 3.76563,13.4219 4.07813,13.4219 C4.68229,13.4219 5.13542,13.0365 5.4375,12.2656 C5.71875,11.526 5.85938,10.6094 5.85938,9.51563 L5.85938,9.35938 C5.85938,8.63021 5.97917,7.54167 6.21875,6.09375 C5.80208,6.22917 5.46875,6.42708 5.21875,6.6875 C4.95833,6.94792 4.82813,7.21875 4.82813,7.5 C4.82813,7.71875 4.91146,7.90625 5.07813,8.0625 C5.24479,8.21875 5.32813,8.36458 5.32813,8.5 M1.40625,2.39063 C1.46875,2.39063 1.625,2.45313 1.875,2.57813 C2.13542,2.71354 2.35938,2.78125 2.54688,2.78125 C3.03646,2.78125 3.64063,2.42188 4.35938,1.70313 C6.43229,-0.411458 7.85938,-2.65104 8.64063,-5.01563 C8.79688,-5.51563 9.17708,-5.76563 9.78125,-5.76563 C10.0938,-5.76563 10.3646,-5.69792 10.5938,-5.5625 C10.8125,-5.42708 10.9219,-5.28646 10.9219,-5.14063 L10.5625,2.17188 C10.5625,2.55729 10.7031,2.75 10.9844,2.75 C11.1198,2.75 11.3281,2.6875 11.6094,2.5625 C11.8698,2.42708 12.026,2.35938 12.0781,2.35938 C12.1823,2.35938 12.2448,2.47396 12.2656,2.70313 C12.2656,2.91146 12.1823,3.04167 12.0156,3.09375 C11.8802,3.125 11.6198,3.24479 11.2344,3.45313 C10.8281,3.66146 10.5104,3.76563 10.2813,3.76563 C9.78125,3.76563 9.42708,3.375 9.21875,2.59375 C8.89583,1.375 8.6875,0.104167 8.59375,-1.21875 C8.07292,-0.552083 7.49479,0.119792 6.85938,0.796875 C7.08854,1.24479 7.51563,1.46875 8.14063,1.46875 C8.23438,1.46875 8.30729,1.46354 8.35938,1.45313 L8.375,1.45313 C8.47917,1.45313 8.53125,1.54688 8.53125,1.73438 C8.53125,1.98438 8.44792,2.13542 8.28125,2.1875 C8.01042,2.28125 7.72396,2.32813 7.42188,2.32813 C6.77604,2.32813 6.30729,2.10417 6.01563,1.65625 L5.23438,2.35938 C4.14063,3.29688 3.25,3.76563 2.5625,3.76563 C2.375,3.76563 2.1875,3.73438 2,3.67188 C1.84375,3.60938 1.66146,3.51042 1.45313,3.375 C1.36979,3.34375 1.27865,3.29688 1.17969,3.23438 C1.08073,3.17188 1.02083,3.13542 1,3.125 C0.9375,3.10417 0.90625,3.04688 0.90625,2.95313 C0.90625,2.84896 0.958333,2.72396 1.0625,2.57813 C1.14583,2.45313 1.26042,2.39063 1.40625,2.39063 M5.76563,-10.7969 C5.76563,-10.474 5.48438,-10.3125 4.92188,-10.3125 C4.43229,-10.3125 4.00521,-10.474 3.64063,-10.7969 C3.28646,-11.1302 3.10938,-11.5313 3.10938,-12 C3.10938,-12.4479 3.25,-12.8385 3.53125,-13.1719 C3.83333,-13.5052 4.21875,-13.7552 4.6875,-13.9219 C5.11458,-14.0781 5.59896,-14.2031 6.14063,-14.2969 C6.69271,-14.3594 7.22396,-14.3906 7.73438,-14.3906 C8.03646,-14.3906 8.59896,-14.2552 9.42188,-13.9844 C10.2552,-13.7135 10.8333,-13.5781 11.1563,-13.5781 C11.5625,-13.5781 11.9479,-13.651 12.3125,-13.7969 C12.6042,-13.9219 12.8906,-14.0677 13.1719,-14.2344 C13.3906,-14.3802 13.5104,-14.4531 13.5313,-14.4531 C13.6563,-14.4531 13.7604,-14.4167 13.8438,-14.3438 C13.9479,-14.2396 14,-14.151 14,-14.0781 C14,-13.9948 13.8802,-13.849 13.6406,-13.6406 C13.3802,-13.401 13.0078,-13.1641 12.5234,-12.9297 C12.0391,-12.6953 11.5313,-12.5781 11,-12.5781 C10.7604,-12.5781 10.4688,-12.6198 10.125,-12.7031 C9.89583,-11.2552 9.66146,-9.96875 9.42188,-8.84375 C9.21354,-7.85417 8.79688,-6.98958 8.17188,-6.25 C7.56771,-5.51042 6.89583,-5.14063 6.15625,-5.14063 C5.85417,-5.14063 5.58854,-5.19792 5.35938,-5.3125 C5.09896,-5.44792 4.82292,-5.64583 4.53125,-5.90625 C4.30208,-6.09375 4.08333,-6.26563 3.875,-6.42188 C3.82292,-6.46354 3.79688,-6.52604 3.79688,-6.60938 C3.79688,-6.69271 3.84896,-6.80729 3.95313,-6.95313 C4.05729,-7.06771 4.15104,-7.125 4.23438,-7.125 C4.31771,-7.125 4.54167,-6.96354 4.90625,-6.64063 C5.27083,-6.31771 5.59375,-6.15625 5.875,-6.15625 C6.39583,-6.15625 6.80208,-6.45313 7.09375,-7.04688 C7.375,-7.64063 7.53646,-8.34375 7.57813,-9.15625 C7.64063,-10.5 7.79167,-11.8906 8.03125,-13.3281 C7.73958,-13.3906 7.52604,-13.4219 7.39063,-13.4219 C6.76563,-13.4219 6.22917,-13.2917 5.78125,-13.0313 C5.34375,-12.7813 5.125,-12.4427 5.125,-12.0156 C5.125,-11.7031 5.22917,-11.4635 5.4375,-11.2969 C5.65625,-11.1094 5.76563,-10.9427 5.76563,-10.7969"/>
<path class="Clef" transform="matrix(0.9936,0,0,0.9936,32.0544,77.76)" d="M7.34375,-5.125 C7.34375,-5.125 7.38542,-5.125 7.46875,-5.125 C7.52083,-5.13542 7.5625,-5.14063 7.59375,-5.14063 C9.05208,-5.14063 10.25,-4.625 11.1875,-3.59375 C12.125,-2.58333 12.5938,-1.40104 12.5938,-0.046875 C12.5938,1.64063 11.901,3.01042 10.5156,4.0625 C10.151,4.35417 9.67188,4.58854 9.07813,4.76563 C9.15104,5.60938 9.1875,6.29167 9.1875,6.8125 C9.1875,6.91667 9.17188,7.29688 9.14063,7.95313 C9.08854,9.16146 8.67188,10.2083 7.89063,11.0938 C7.14063,11.9688 6.20313,12.4063 5.07813,12.4063 C4.02604,12.4063 3.13021,12.0365 2.39063,11.2969 C1.64063,10.5365 1.26563,9.625 1.26563,8.5625 C1.26563,8 1.48438,7.52083 1.92188,7.125 C2.35938,6.73958 2.86979,6.54688 3.45313,6.54688 C3.97396,6.54688 4.41146,6.75 4.76563,7.15625 C5.13021,7.53125 5.3125,8 5.3125,8.5625 C5.3125,9.0625 5.13021,9.49479 4.76563,9.85938 C4.40104,10.224 3.96354,10.4063 3.45313,10.4063 C3.24479,10.4063 3.04688,10.3698 2.85938,10.2969 C3.43229,11.1406 4.19271,11.5625 5.14063,11.5625 C6.03646,11.5625 6.77083,11.1979 7.34375,10.4688 C7.94792,9.71875 8.27604,8.83854 8.32813,7.82813 C8.34896,7.20313 8.35938,6.84896 8.35938,6.76563 C8.35938,6.03646 8.33333,5.4375 8.28125,4.96875 C7.63542,5.07292 7.05729,5.125 6.54688,5.125 C4.73438,5.125 3.19271,4.40625 1.92188,2.96875 C0.671875,1.52083 0.046875,-0.197917 0.046875,-2.1875 C0.046875,-2.60417 0.0833333,-3.02604 0.15625,-3.45313 C0.239583,-3.80729 0.338542,-4.19271 0.453125,-4.60938 C0.515625,-4.84896 0.692708,-5.22917 0.984375,-5.75 C1.08854,-5.90625 1.20573,-6.10156 1.33594,-6.33594 C1.46615,-6.57031 1.55729,-6.72396 1.60938,-6.79688 C1.73438,-7.05729 1.98438,-7.41146 2.35938,-7.85938 C2.46354,-7.97396 2.57292,-8.10156 2.6875,-8.24219 C2.80208,-8.38281 2.89844,-8.5 2.97656,-8.59375 C3.05469,-8.6875 3.11198,-8.76042 3.14844,-8.8125 C3.1849,-8.86458 3.47917,-9.20833 4.03125,-9.84375 C4.15625,-9.97917 4.28125,-10.1198 4.40625,-10.2656 C4.53125,-10.4115 4.63281,-10.5286 4.71094,-10.6172 C4.78906,-10.7057 4.84896,-10.7656 4.89063,-10.7969 C4.42188,-12.349 4.125,-13.5885 4,-14.5156 C3.91667,-15.2552 3.875,-16.2708 3.875,-17.5625 C3.875,-18.6979 4.13542,-19.7604 4.65625,-20.75 C5.15625,-21.7708 5.86458,-22.6094 6.78125,-23.2656 C6.84375,-23.3073 6.90625,-23.3281 6.96875,-23.3281 C7.0625,-23.3281 7.13021,-23.3073 7.17188,-23.2656 C7.86979,-22.4219 8.47396,-21.3229 8.98438,-19.9688 C9.50521,-18.6146 9.76563,-17.3802 9.76563,-16.2656 C9.76563,-15.0156 9.46875,-13.8438 8.875,-12.75 C8.19792,-11.5938 7.32292,-10.3958 6.25,-9.15625 C6.52083,-8.30208 6.88542,-6.95833 7.34375,-5.125 M9,3.96875 C9.67708,3.71875 10.2083,3.29688 10.5938,2.70313 C11.0104,2.13021 11.2188,1.48438 11.2188,0.765625 C11.2188,-0.161458 10.9063,-0.984375 10.2813,-1.70313 C9.63542,-2.44271 8.81771,-2.85938 7.82813,-2.95313 C8.39063,-0.203125 8.78125,2.10417 9,3.96875 M1.45313,-0.546875 C1.45313,0.744792 1.97396,1.88021 3.01563,2.85938 C4.07813,3.80729 5.27604,4.28125 6.60938,4.28125 C7.15104,4.28125 7.68229,4.23958 8.20313,4.15625 C7.99479,2.17708 7.58333,-0.192708 6.96875,-2.95313 C6.22917,-2.86979 5.64063,-2.60938 5.20313,-2.17188 C4.76563,-1.71354 4.54688,-1.19792 4.54688,-0.625 C4.54688,0.364583 5.07813,1.16667 6.14063,1.78125 C6.22396,1.875 6.26563,1.97396 6.26563,2.07813 C6.26563,2.18229 6.22396,2.27604 6.14063,2.35938 C6.05729,2.45313 5.95833,2.5 5.84375,2.5 C5.83333,2.5 5.77604,2.48958 5.67188,2.46875 C4.92188,2.0625 4.34896,1.54167 3.95313,0.90625 C3.56771,0.21875 3.375,-0.46875 3.375,-1.15625 C3.375,-2.05208 3.65625,-2.86458 4.21875,-3.59375 C4.80208,-4.32292 5.5625,-4.79167 6.5,-5 C6.13542,-6.45833 5.83854,-7.59896 5.60938,-8.42188 C5.40104,-8.18229 5.15104,-7.89844 4.85938,-7.57031 C4.56771,-7.24219 4.39583,-7.04167 4.34375,-6.96875 C3.875,-6.36458 3.51563,-5.89063 3.26563,-5.54688 C2.81771,-4.93229 2.48958,-4.40625 2.28125,-3.96875 C2.0625,-3.46875 1.86979,-2.92708 1.70313,-2.34375 C1.53646,-1.78125 1.45313,-1.18229 1.45313,-0.546875 M7.96875,-20.4063 C6.98958,-19.9271 6.22396,-19.2396 5.67188,-18.3438 C5.09896,-17.4167 4.8125,-16.4219 4.8125,-15.3594 C4.8125,-14.4219 5.04688,-13.1563 5.51563,-11.5625 C6.45313,-12.6979 7.15625,-13.7448 7.625,-14.7031 C8.11458,-15.724 8.35938,-16.7865 8.35938,-17.8906 C8.35938,-18.724 8.22917,-19.5625 7.96875,-20.4063 M5.82813,15.2344 C6.16146,14.901 6.32813,14.5625 6.32813,14.2188 C6.30729,13.9479 6.19271,13.7396 5.98438,13.5938 C5.74479,13.4375 5.46875,13.3594 5.15625,13.3594 C4.9375,13.3594 4.75521,13.4323 4.60938,13.5781 C4.48438,13.7031 4.42188,13.8646 4.42188,14.0625 C4.42188,14.3021 4.51563,14.4792 4.70313,14.5938 L5.82813,15.2344 M6.14063,15.4063 C6.68229,15.7083 6.95313,16.1146 6.95313,16.625 L6.95313,16.6875 C6.95313,17.0833 6.79167,17.4219 6.46875,17.7031 C6.14583,17.9844 5.68229,18.125 5.07813,18.125 C4.58854,18.125 4.16146,17.9948 3.79688,17.7344 C3.43229,17.4844 3.25,17.1458 3.25,16.7188 C3.25,16.5521 3.29167,16.3958 3.375,16.25 C3.47917,16.0833 3.56771,15.9688 3.64063,15.9063 L4,15.5313 C3.60417,15.2604 3.40625,14.901 3.40625,14.4531 C3.40625,14.099 3.5625,13.7865 3.875,13.5156 C4.19792,13.2552 4.625,13.125 5.15625,13.125 C5.60417,13.125 5.98438,13.224 6.29688,13.4219 C6.60938,13.6198 6.76563,13.8854 6.76563,14.2188 C6.76563,14.5729 6.55729,14.9688 6.14063,15.4063 M4.29688,15.7031 C3.91146,16.0469 3.70313,16.3854 3.67188,16.7188 C3.70313,17.0729 3.84896,17.3542 4.10938,17.5625 C4.39063,17.7813 4.71354,17.8906 5.07813,17.8906 C5.33854,17.8906 5.54688,17.8073 5.70313,17.6406 C5.85938,17.4844 5.9375,17.2969 5.9375,17.0781 C5.92708,16.7865 5.8125,16.5781 5.59375,16.4531 L4.29688,15.7031 "/>
<path class="KeySig" transform="matrix(0.9936,0,0,0.9936,54.4337,65.34)" d="M0.921875,-0.828125 L0.921875,0.71875 C0.921875,1.27083 0.947917,1.70833 1,2.03125 C1.42708,1.66667 1.73438,1.39583 1.92188,1.21875 C2.13021,1.01042 2.33854,0.721354 2.54688,0.351563 C2.75521,-0.0182292 2.85938,-0.385417 2.85938,-0.75 C2.85938,-1.11458 2.78125,-1.42708 2.625,-1.6875 C2.46875,-1.94792 2.26042,-2.07813 2,-2.07813 C1.6875,-2.07813 1.42708,-1.95833 1.21875,-1.71875 C1.02083,-1.45833 0.921875,-1.16146 0.921875,-0.828125 M0.09375,2.75 L-0.15625,-9.14063 C0.03125,-9.24479 0.216146,-9.29688 0.398438,-9.29688 C0.580729,-9.29688 0.760417,-9.24479 0.9375,-9.14063 L0.78125,-2.25 C1.3125,-2.70833 1.92708,-2.9375 2.625,-2.9375 C3.125,-2.9375 3.54427,-2.72917 3.88281,-2.3125 C4.22135,-1.89583 4.39063,-1.41667 4.39063,-0.875 C4.39063,-0.541667 4.28125,-0.182292 4.0625,0.203125 C3.85417,0.546875 3.63542,0.817708 3.40625,1.01563 C3.27083,1.11979 2.9375,1.38021 2.40625,1.79688 C2.25,1.91146 2.0651,2.04688 1.85156,2.20313 C1.63802,2.35938 1.50521,2.45833 1.45313,2.5 C1.35938,2.55208 1.27083,2.65625 1.1875,2.8125 C1.10417,2.94792 1,3.05729 0.875,3.14063 C0.791667,3.22396 0.684896,3.26563 0.554688,3.26563 C0.424479,3.26563 0.317708,3.21875 0.234375,3.125 C0.140625,3.03125 0.09375,2.90625 0.09375,2.75"/>
<path class="KeySig" transform="matrix(0.9936,0,0,0.9936,49.4657,72.792)" d="M0.921875,-0.828125 L0.921875,0.71875 C0.921875,1.27083 0.947917,1.70833 1,2.03125 C1.42708,1.66667 1.73438,1.39583 1.92188,1.21875 C2.13021,1.01042 2.33854,0.721354 2.54688,0.351563 C2.75521,-0.0182292 2.85938,-0.385417 2.85938,-0.75 C2.85938,-1.11458 2.78125,-1.42708 2.625,-1.6875 C2.46875,-1.94792 2.26042,-2.07813 2,-2.07813 C1.6875,-2.07813 1.42708,-1.95833 1.21875,-1.71875 C1.02083,-1.45833 0.921875,-1.16146 0.921875,-0.828125 M0.09375,2.75 L-0.15625,-9.14063 C0.03125,-9.24479 0.216146,-9.29688 0.398438,-9.29688 C0.580729,-9.29688 0.760417,-9.24479 0.9375,-9.14063 L0.78125,-2.25 C1.3125,-2.70833 1.92708,-2.9375 2.625,-2.9375 C3.125,-2.9375 3.54427,-2.72917 3.88281,-2.3125 C4.22135,-1.89583 4.39063,-1.41667 4.39063,-0.875 C4.39063,-0.541667 4.28125,-0.182292 4.0625,0.203125 C3.85417,0.546875 3.63542,0.817708 3.40625,1.01563 C3.27083,1.11979 2.9375,1.38021 2.40625,1.79688 C2.25,1.91146 2.0651,2.04688 1.85156,2.20313 C1.63802,2.35938 1.50521,2.45833 1.45313,2.5 C1.35938,2.55208 1.27083,2.65625 1.1875,2.8125 C1.10417,2.94792 1,3.05729 0.875,3.14063 C0.791667,3.22396 0.684896,3.26563 0.554688,3.26563 C0.424479,3.26563 0.317708,3.21875 0.234375,3.125 C0.140625,3.03125 0.09375,2.90625 0.09375,2.75"/>
<path class="Beam" fill-rule="evenodd" d="M281.21,65.3139 L435.487,71.55 L435.487,74.034 L281.21,67.7979 L281.21,65.3139 "/>
<path class="Beam" fill-rule="evenodd" d="M76.3682,71.5709 L230.645,66.582 L230.645,69.066 L76.3682,74.0549 L76.3682,71.5709 "/>
<path class="Fingering" d="M475.142,95.3976 C475.027,95.3976 474.835,95.4549 474.564,95.5695 L474.564,95.4601 L476.001,94.7257 L476.064,94.7414 L476.064,99.5382 C476.064,99.7466 476.126,99.882 476.251,99.9445 C476.355,99.9862 476.548,100.007 476.829,100.007 L476.829,100.132 L474.611,100.132 L474.611,100.007 C474.965,99.9966 475.189,99.9341 475.283,99.8195 C475.345,99.7257 475.376,99.5799 475.376,99.382 L475.376,95.7726 C475.366,95.5226 475.288,95.3976 475.142,95.3976"/>
<path class="Fingering" d="M424.463,95.2734 C423.869,95.2734 423.405,94.9661 423.072,94.3515 C422.791,93.8515 422.65,93.2265 422.65,92.4765 C422.65,91.5807 422.859,90.8775 423.275,90.3671 C423.609,89.9713 424.015,89.7682 424.494,89.7577 C425.056,89.7577 425.499,90.0442 425.822,90.6171 C426.124,91.1275 426.275,91.763 426.275,92.5234 C426.275,93.4921 426.051,94.2317 425.603,94.7421 C425.28,95.0963 424.9,95.2734 424.463,95.2734 M424.463,89.9609 C423.817,89.9609 423.468,90.7317 423.416,92.2734 C423.416,92.3671 423.416,92.4609 423.416,92.5546 C423.426,94.2213 423.775,95.0598 424.463,95.0702 C425.15,95.0598 425.494,94.2161 425.494,92.539 C425.494,91.0182 425.223,90.1692 424.681,89.9921 C424.609,89.9713 424.536,89.9609 424.463,89.9609"/>
<path class="Fingering" d="M371.893,89.571 C372.018,89.571 372.2,89.6387 372.44,89.7741 C372.69,89.9304 372.903,90.0085 373.08,90.0085 C373.445,90.0085 373.731,89.847 373.94,89.5241 C374.065,89.3158 374.127,89.0814 374.127,88.821 C374.127,88.0606 373.674,87.6439 372.768,87.571 C372.674,87.5606 372.575,87.5554 372.471,87.5554 L372.471,87.446 C373.075,87.2481 373.471,86.9929 373.658,86.6804 C373.752,86.5137 373.799,86.3314 373.799,86.1335 C373.799,85.7793 373.653,85.5241 373.362,85.3679 C373.226,85.3054 373.08,85.2741 372.924,85.2741 C372.476,85.2741 372.106,85.5085 371.815,85.9772 C371.783,86.0189 371.757,86.0658 371.737,86.1179 L371.612,86.0866 C371.862,85.4095 372.226,84.9981 372.705,84.8522 C372.851,84.8106 373.013,84.7897 373.19,84.7897 C373.669,84.7897 374.023,84.9564 374.252,85.2897 C374.377,85.4668 374.44,85.6647 374.44,85.8835 C374.44,86.2064 374.289,86.4981 373.987,86.7585 C373.893,86.8314 373.794,86.9095 373.69,86.9929 C374.169,87.2012 374.476,87.4877 374.612,87.8522 C374.674,88.0293 374.705,88.2272 374.705,88.446 C374.705,89.0814 374.44,89.5762 373.908,89.9304 C373.513,90.1804 373.044,90.3054 372.502,90.3054 C372.013,90.3054 371.721,90.196 371.627,89.9772 C371.606,89.9356 371.596,89.8939 371.596,89.8522 C371.596,89.696 371.674,89.6075 371.83,89.5866 C371.851,89.5762 371.872,89.571 371.893,89.571"/>
<path class="Fingering" d="M321.51,80.4936 C321.396,80.4936 321.203,80.5509 320.932,80.6655 L320.932,80.5561 L322.37,79.8217 L322.432,79.8374 L322.432,84.6342 C322.432,84.8426 322.495,84.978 322.62,85.0405 C322.724,85.0822 322.917,85.103 323.198,85.103 L323.198,85.228 L320.979,85.228 L320.979,85.103 C321.333,85.0926 321.557,85.0301 321.651,84.9155 C321.714,84.8217 321.745,84.6759 321.745,84.478 L321.745,80.8686 C321.734,80.6186 321.656,80.4936 321.51,80.4936"/>
<path class="Fingering" d="M269.472,82.119 C269.597,82.119 269.779,82.1867 270.019,82.3221 C270.269,82.4784 270.482,82.5565 270.659,82.5565 C271.024,82.5565 271.31,82.395 271.519,82.0721 C271.644,81.8638 271.706,81.6294 271.706,81.369 C271.706,80.6086 271.253,80.1919 270.347,80.119 C270.253,80.1086 270.154,80.1034 270.05,80.1034 L270.05,79.994 C270.654,79.7961 271.05,79.5409 271.237,79.2284 C271.331,79.0617 271.378,78.8794 271.378,78.6815 C271.378,78.3273 271.232,78.0721 270.941,77.9159 C270.805,77.8534 270.659,77.8221 270.503,77.8221 C270.055,77.8221 269.685,78.0565 269.394,78.5252 C269.362,78.5669 269.336,78.6138 269.316,78.6659 L269.191,78.6346 C269.441,77.9575 269.805,77.5461 270.284,77.4002 C270.43,77.3586 270.592,77.3377 270.769,77.3377 C271.248,77.3377 271.602,77.5044 271.831,77.8377 C271.956,78.0148 272.019,78.2127 272.019,78.4315 C272.019,78.7544 271.868,79.0461 271.566,79.3065 C271.472,79.3794 271.373,79.4575 271.269,79.5409 C271.748,79.7492 272.055,80.0357 272.191,80.4002 C272.253,80.5773 272.284,80.7752 272.284,80.994 C272.284,81.6294 272.019,82.1242 271.487,82.4784 C271.092,82.7284 270.623,82.8534 270.081,82.8534 C269.592,82.8534 269.3,82.744 269.206,82.5252 C269.185,82.4836 269.175,82.4419 269.175,82.4002 C269.175,82.244 269.253,82.1555 269.409,82.1346 C269.43,82.1242 269.451,82.119 269.472,82.119"/>
<path class="Fingering" d="M219.09,80.4936 C218.975,80.4936 218.782,80.5509 218.511,80.6655 L218.511,80.5561 L219.949,79.8217 L220.011,79.8374 L220.011,84.6342 C220.011,84.8426 220.074,84.978 220.199,85.0405 C220.303,85.0822 220.496,85.103 220.777,85.103 L220.777,85.228 L218.558,85.228 L218.558,85.103 C218.912,85.0926 219.136,85.0301 219.23,84.9155 C219.293,84.8217 219.324,84.6759 219.324,84.478 L219.324,80.8686 C219.313,80.6186 219.235,80.4936 219.09,80.4936"/>
<path class="Fingering" d="M167.051,89.571 C167.176,89.571 167.358,89.6387 167.598,89.7741 C167.848,89.9304 168.061,90.0085 168.238,90.0085 C168.603,90.0085 168.889,89.847 169.098,89.5241 C169.223,89.3158 169.285,89.0814 169.285,88.821 C169.285,88.0606 168.832,87.6439 167.926,87.571 C167.832,87.5606 167.733,87.5554 167.629,87.5554 L167.629,87.446 C168.233,87.2481 168.629,86.9929 168.817,86.6804 C168.91,86.5137 168.957,86.3314 168.957,86.1335 C168.957,85.7793 168.811,85.5241 168.52,85.3679 C168.384,85.3054 168.238,85.2741 168.082,85.2741 C167.634,85.2741 167.264,85.5085 166.973,85.9772 C166.942,86.0189 166.916,86.0658 166.895,86.1179 L166.77,86.0866 C167.02,85.4095 167.384,84.9981 167.863,84.8522 C168.009,84.8106 168.171,84.7897 168.348,84.7897 C168.827,84.7897 169.181,84.9564 169.41,85.2897 C169.535,85.4668 169.598,85.6647 169.598,85.8835 C169.598,86.2064 169.447,86.4981 169.145,86.7585 C169.051,86.8314 168.952,86.9095 168.848,86.9929 C169.327,87.2012 169.634,87.4877 169.77,87.8522 C169.832,88.0293 169.863,88.2272 169.863,88.446 C169.863,89.0814 169.598,89.5762 169.067,89.9304 C168.671,90.1804 168.202,90.3054 167.66,90.3054 C167.171,90.3054 166.879,90.196 166.785,89.9772 C166.764,89.9356 166.754,89.8939 166.754,89.8522 C166.754,89.696 166.832,89.6075 166.988,89.5866 C167.009,89.5762 167.03,89.571 167.051,89.571"/>
<path class="Fingering" d="M117.2,95.2734 C116.606,95.2734 116.143,94.9661 115.809,94.3515 C115.528,93.8515 115.387,93.2265 115.387,92.4765 C115.387,91.5807 115.596,90.8775 116.012,90.3671 C116.346,89.9713 116.752,89.7682 117.231,89.7577 C117.794,89.7577 118.236,90.0442 118.559,90.6171 C118.861,91.1275 119.012,91.763 119.012,92.5234 C119.012,93.4921 118.788,94.2317 118.34,94.7421 C118.018,95.0963 117.637,95.2734 117.2,95.2734 M117.2,89.9609 C116.554,89.9609 116.205,90.7317 116.153,92.2734 C116.153,92.3671 116.153,92.4609 116.153,92.5546 C116.163,94.2213 116.512,95.0598 117.2,95.0702 C117.887,95.0598 118.231,94.2161 118.231,92.539 C118.231,91.0182 117.96,90.1692 117.419,89.9921 C117.346,89.9713 117.273,89.9609 117.2,89.9609"/>
<path class="Fingering" d="M65.4581,95.3976 C65.3435,95.3976 65.1508,95.4549 64.88,95.5695 L64.88,95.4601 L66.3175,94.7257 L66.38,94.7414 L66.38,99.5382 C66.38,99.7466 66.4425,99.882 66.5675,99.9445 C66.6716,99.9862 66.8643,100.007 67.1456,100.007 L67.1456,100.132 L64.9268,100.132 L64.9268,100.007 C65.281,99.9966 65.505,99.9341 65.5987,99.8195 C65.6612,99.7257 65.6925,99.5799 65.6925,99.382 L65.6925,95.7726 C65.682,95.5226 65.6039,95.3976 65.4581,95.3976"/>
<path class="Tempo" d="M64.3081,34.859 C64.2612,34.859 64.2299,34.859 64.2299,34.9371 L64.2299,40.4371 C64.0268,40.2809 63.7768,40.1871 63.4643,40.1871 C62.2768,40.1871 61.3237,41.0621 61.3237,41.9996 C61.3237,42.5621 61.7768,42.9059 62.3706,42.9059 C63.3237,42.9059 64.5112,41.9996 64.5112,41.0934 L64.5112,37.0934 C64.8862,37.1715 65.5112,37.4371 65.8862,38.4684 C65.9799,38.734 66.0737,39.1402 66.0737,39.5934 C66.0737,39.9059 66.0112,40.2809 65.8862,40.609 C65.8549,40.6559 65.8549,40.6871 65.8549,40.7184 C65.8549,40.8434 65.9331,40.9059 65.9956,40.9371 C65.9956,40.9527 66.0268,40.9527 66.0424,40.9527 C66.1049,40.9527 66.1674,40.9059 66.2299,40.7965 C66.2456,40.7027 66.4331,40.0465 66.4331,39.5621 L66.4331,39.4996 C66.4018,38.5777 65.9956,37.6871 65.4799,36.9371 C65.0424,36.359 64.6987,35.734 64.5581,35.0309 C64.5112,34.8902 64.4487,34.859 64.3706,34.859 L64.3081,34.859 "/>
<path class="Tempo" d="M76.7924,39.0152 L70.1831,39.0152 L70.1831,37.859 L76.7924,37.859 L76.7924,39.0152 M76.7924,41.9371 L70.1831,41.9371 L70.1831,40.7965 L76.7924,40.7965 L76.7924,41.9371 M82.2299,36.0465 C82.1049,36.0465 81.7872,36.1402 81.2768,36.3277 C81.2456,36.3382 81.2247,36.3486 81.2143,36.359 L81.2143,36.0465 L84.2299,34.734 L84.4331,34.734 L84.4331,41.5621 C84.4331,42.0517 84.532,42.3642 84.7299,42.4996 C84.907,42.6246 85.2403,42.6923 85.7299,42.7027 L85.7299,42.984 L81.2299,42.984 L81.2299,42.7027 C81.8862,42.6923 82.2976,42.5882 82.4643,42.3902 C82.5997,42.2236 82.6674,41.9267 82.6674,41.4996 L82.6674,36.8746 C82.657,36.333 82.5112,36.0569 82.2299,36.0465 M86.8081,37.1715 C87.3601,35.6819 88.1362,34.8746 89.1362,34.7496 C89.2403,34.7392 89.3445,34.734 89.4487,34.734 C90.2403,34.734 90.8445,35.0205 91.2612,35.5934 C91.532,35.9788 91.6674,36.4215 91.6674,36.9215 C91.6674,37.7861 91.2403,38.6298 90.3862,39.4527 C90.3445,39.484 90.3133,39.5152 90.2924,39.5465 L88.3549,41.3902 L90.1674,41.3902 C90.8028,41.3902 91.2091,41.333 91.3862,41.2184 C91.5528,41.1038 91.7143,40.8486 91.8706,40.4527 L92.1674,40.4527 L91.6206,42.984 L86.6362,42.984 L86.6362,42.7027 C88.3028,40.9215 89.3289,39.6455 89.7143,38.8746 C89.9226,38.4475 90.0268,38.0309 90.0268,37.6246 C90.0268,37.0934 89.8341,36.6767 89.4487,36.3746 C89.2091,36.1871 88.9278,36.0934 88.6049,36.0934 C88.0112,36.0934 87.5424,36.4215 87.1987,37.0777 C87.1778,37.109 87.157,37.1402 87.1362,37.1715 L86.8081,37.1715 M92.7143,38.9059 C92.7143,37.5934 93.0268,36.5309 93.6518,35.7184 C94.1622,35.0725 94.756,34.7444 95.4331,34.734 C96.2143,34.734 96.8601,35.1402 97.3706,35.9527 C97.881,36.7652 98.1362,37.76 98.1362,38.9371 C98.1362,40.3121 97.8185,41.4059 97.1831,42.2184 C96.6831,42.8225 96.1049,43.1298 95.4487,43.1402 C94.6153,43.1402 93.9435,42.7132 93.4331,41.859 C92.9539,41.0673 92.7143,40.083 92.7143,38.9059 M95.4487,42.7965 C95.8028,42.7965 96.0372,42.4736 96.1518,41.8277 C96.2143,41.4423 96.2456,40.9423 96.2456,40.3277 L96.2456,37.5777 C96.2456,36.1402 96.0528,35.3225 95.6674,35.1246 C95.5945,35.083 95.5112,35.0621 95.4174,35.0621 C95.0528,35.0621 94.8133,35.3955 94.6987,36.0621 C94.6466,36.4371 94.6206,36.9423 94.6206,37.5777 L94.6206,40.3277 C94.6206,41.6819 94.7872,42.4736 95.1206,42.7027 C95.2143,42.7652 95.3237,42.7965 95.4487,42.7965"/>
<path class="StaffText" d="M74.3015,25.2057 C74.7494,25.2057 75.2494,25.3203 75.8015,25.5495 C76.041,25.6432 76.2129,25.6901 76.3171,25.6901 C76.4629,25.6901 76.5931,25.5807 76.7077,25.362 C76.7181,25.3203 76.7338,25.2787 76.7546,25.237 L77.0202,25.237 L77.0202,27.5807 L76.7702,27.5807 C76.4994,26.9766 76.2181,26.5339 75.9265,26.2526 C75.864,26.1901 75.8067,26.138 75.7546,26.0964 C75.3275,25.7214 74.8848,25.5339 74.4265,25.5339 C73.4265,25.5339 72.8327,26.2526 72.6452,27.6901 C72.614,28.013 72.5983,28.362 72.5983,28.737 C72.5983,29.9245 72.8119,30.7943 73.239,31.3464 C73.5723,31.763 74.0306,31.9714 74.614,31.9714 C75.1765,31.9714 75.4942,31.7943 75.5671,31.4401 C75.5775,31.3776 75.5827,31.3099 75.5827,31.237 L75.5827,30.1901 C75.5827,29.8985 75.5098,29.711 75.364,29.6276 C75.2181,29.5547 74.9525,29.5078 74.5671,29.487 L74.5671,29.237 L78.0046,29.237 L78.0046,29.487 C77.5983,29.5287 77.3483,29.6172 77.2546,29.7526 C77.1817,29.8672 77.1452,30.086 77.1452,30.4089 L77.1452,31.6745 C76.5515,32.0287 75.765,32.237 74.7858,32.2995 C74.6504,32.2995 74.515,32.2995 74.3796,32.2995 C73.265,32.2995 72.3744,31.9401 71.7077,31.2214 C71.114,30.5755 70.8171,29.7682 70.8171,28.7995 C70.8171,27.7578 71.1608,26.8932 71.8483,26.2057 C72.515,25.5391 73.3327,25.2057 74.3015,25.2057 M82.0671,28.8307 C81.8483,28.8307 81.6348,28.711 81.4265,28.4714 C81.3119,28.3255 81.2285,28.2474 81.1765,28.237 C80.9577,28.237 80.791,28.388 80.6765,28.6901 C80.6035,28.8464 80.5671,29.013 80.5671,29.1901 L80.5671,31.0807 C80.5671,31.4453 80.64,31.6693 80.7858,31.7526 C80.8796,31.8151 81.0515,31.8568 81.3015,31.8776 L81.3015,32.112 L78.6608,32.112 L78.6608,31.8776 C78.9317,31.8255 79.0931,31.7318 79.1452,31.5964 C79.166,31.5235 79.1765,31.4141 79.1765,31.2682 L79.1765,28.3307 C79.1765,28.0703 79.1035,27.9037 78.9577,27.8307 C78.8848,27.7891 78.7858,27.7578 78.6608,27.737 L78.6608,27.5026 L80.5358,27.5026 L80.5358,28.3307 C80.9108,27.7787 81.2806,27.4714 81.6452,27.4089 C81.7285,27.388 81.8067,27.3776 81.8796,27.3776 C82.2233,27.3776 82.4681,27.5182 82.614,27.7995 C82.666,27.9141 82.6921,28.0339 82.6921,28.1589 C82.6921,28.4714 82.5671,28.6797 82.3171,28.7839 C82.2338,28.8151 82.1504,28.8307 82.0671,28.8307 M83.9421,28.0807 C83.9421,28.112 83.9942,28.2057 84.0983,28.362 C84.1921,28.5078 84.239,28.6328 84.239,28.737 C84.239,28.9974 84.1088,29.1745 83.8483,29.2682 C83.7546,29.2995 83.6608,29.3151 83.5671,29.3151 C83.2025,29.3151 82.989,29.1537 82.9265,28.8307 C82.916,28.7682 82.9108,28.711 82.9108,28.6589 C82.9108,28.1901 83.166,27.8412 83.6765,27.612 C83.9994,27.4557 84.3744,27.3776 84.8015,27.3776 C85.6765,27.3776 86.2754,27.6172 86.5983,28.0964 C86.7233,28.2943 86.7858,28.5182 86.7858,28.7682 L86.7858,31.3464 C86.7963,31.5026 86.864,31.586 86.989,31.5964 C87.041,31.586 87.0775,31.5703 87.0983,31.5495 L87.2077,31.4557 L87.3483,31.6589 C86.9525,32.0339 86.5827,32.2318 86.239,32.2526 C85.864,32.2526 85.6192,32.112 85.5046,31.8307 C85.4733,31.737 85.4421,31.638 85.4108,31.5339 C84.8692,32.0026 84.3431,32.2422 83.8327,32.2526 C83.3952,32.2526 83.0775,32.086 82.8796,31.7526 C82.7754,31.586 82.7233,31.4037 82.7233,31.2057 C82.7233,30.6224 83.1713,30.1485 84.0671,29.7839 C84.3067,29.6797 84.7546,29.5287 85.4108,29.3307 L85.4108,28.5964 C85.4108,28.0651 85.1921,27.7735 84.7546,27.7214 C84.6921,27.7214 84.6296,27.7214 84.5671,27.7214 C84.2754,27.7214 84.0775,27.8047 83.9733,27.9714 C83.9525,28.0026 83.9421,28.0391 83.9421,28.0807 M85.3952,31.0964 L85.3952,29.6589 C84.5931,29.8776 84.1869,30.2787 84.1765,30.862 C84.1765,31.1953 84.2858,31.4037 84.5046,31.487 C84.5671,31.5078 84.6296,31.5182 84.6921,31.5182 C84.9213,31.5182 85.1556,31.3776 85.3952,31.0964 M90.864,32.237 L90.864,31.5964 C90.5098,31.9714 90.166,32.1849 89.8327,32.237 C89.739,32.2474 89.64,32.2526 89.5358,32.2526 C88.9421,32.2526 88.4733,31.9766 88.1296,31.4245 C87.8588,30.9974 87.7233,30.4922 87.7233,29.9089 C87.7233,29.0547 87.9681,28.3828 88.4577,27.8932 C88.791,27.5495 89.1869,27.3776 89.6452,27.3776 C89.9994,27.3776 90.3223,27.513 90.614,27.7839 C90.6973,27.8568 90.7702,27.9245 90.8327,27.987 L90.8327,26.1745 C90.8327,25.9245 90.7754,25.7682 90.6608,25.7057 C90.5567,25.6537 90.3588,25.6172 90.0671,25.5964 L90.0671,25.362 L92.2233,25.362 L92.2233,31.112 C92.2233,31.3932 92.3067,31.5651 92.4733,31.6276 C92.5567,31.6589 92.6713,31.6797 92.8171,31.6901 L92.8171,31.9245 L92.1921,32.0026 C91.64,32.0755 91.1973,32.1537 90.864,32.237 M89.989,31.7057 C90.2806,31.7057 90.5306,31.5391 90.739,31.2057 C90.791,31.112 90.8223,31.0443 90.8327,31.0026 L90.8327,28.5495 C90.7077,28.2162 90.4994,28.0182 90.2077,27.9557 C90.1556,27.9453 90.1035,27.9401 90.0515,27.9401 C89.541,27.9401 89.2598,28.4453 89.2077,29.4557 C89.2077,29.5703 89.2077,29.6953 89.2077,29.8307 C89.2077,31.0703 89.4681,31.6953 89.989,31.7057 M95.1608,29.6589 C95.2129,30.6797 95.4785,31.2787 95.9577,31.4557 C96.0827,31.4974 96.2129,31.5182 96.3483,31.5182 C96.7129,31.5182 97.0463,31.3516 97.3483,31.0182 C97.4004,30.9662 97.4473,30.9141 97.489,30.862 L97.7233,31.0026 C97.3067,31.6068 96.8952,31.987 96.489,32.1432 C96.2806,32.2162 96.0463,32.2526 95.7858,32.2526 C95.0358,32.2526 94.4733,31.9453 94.0983,31.3307 C93.8483,30.9141 93.7233,30.4141 93.7233,29.8307 C93.7233,28.9349 93.9942,28.263 94.5358,27.8151 C94.9004,27.5235 95.3275,27.3776 95.8171,27.3776 C96.9213,27.3776 97.541,28.0964 97.6765,29.5339 C97.6765,29.5755 97.6765,29.6172 97.6765,29.6589 L95.1608,29.6589 M96.4577,29.1432 C96.4369,28.5182 96.3692,28.1224 96.2546,27.9557 C96.1608,27.7995 96.015,27.7214 95.8171,27.7214 C95.5254,27.7214 95.3275,27.8932 95.2233,28.237 C95.1608,28.4766 95.1244,28.8307 95.114,29.2995 L96.4577,29.2995 L96.4577,29.1432 M104.598,29.5651 L105.223,29.5651 L105.223,30.6745 L104.598,30.6745 L104.598,32.112 L103.145,32.112 L103.145,30.6745 L100.661,30.6745 L100.661,29.5495 C101.213,28.6745 102.062,27.4922 103.208,26.0026 L103.786,25.237 L104.598,25.237 L104.598,29.5651 M103.161,29.5651 L103.161,26.5964 L101.067,29.5651 L103.161,29.5651 M107.13,30.5495 C107.453,30.5495 107.697,30.6901 107.864,30.9714 C107.947,31.1172 107.989,31.263 107.989,31.4089 C107.989,31.7214 107.848,31.961 107.567,32.1276 C107.421,32.2005 107.275,32.237 107.13,32.237 C106.796,32.237 106.551,32.0964 106.395,31.8151 C106.322,31.6797 106.286,31.5391 106.286,31.3932 C106.286,31.0912 106.421,30.8568 106.692,30.6901 C106.828,30.5964 106.973,30.5495 107.13,30.5495 M107.13,27.3932 C107.453,27.3932 107.697,27.5287 107.864,27.7995 C107.947,27.9453 107.989,28.0912 107.989,28.237 C107.989,28.5599 107.848,28.8047 107.567,28.9714 C107.432,29.0443 107.286,29.0807 107.13,29.0807 C106.796,29.0807 106.551,28.9349 106.395,28.6432 C106.322,28.5078 106.286,28.3672 106.286,28.2214 C106.286,27.9193 106.421,27.6849 106.692,27.5182 C106.828,27.4349 106.973,27.3932 107.13,27.3932"/>
<path class="StaffText" d="M116.286,29.7682 L116.067,29.7682 C115.994,29.3516 115.88,29.0912 115.723,28.987 C115.578,28.8932 115.322,28.8464 114.958,28.8464 L113.505,28.8464 L113.505,30.9245 C113.505,31.362 113.578,31.638 113.723,31.7526 C113.838,31.8464 114.072,31.9037 114.426,31.9245 L114.426,32.112 L111.63,32.112 L111.63,31.9245 C112.015,31.8932 112.26,31.8151 112.364,31.6901 C112.447,31.5547 112.489,31.2943 112.489,30.9089 L112.489,26.5807 C112.489,26.1953 112.421,25.9505 112.286,25.8464 C112.161,25.763 111.942,25.711 111.63,25.6901 L111.63,25.5026 L116.926,25.5026 L116.958,26.9245 L116.708,26.9245 C116.624,26.4766 116.494,26.1901 116.317,26.0651 C116.119,25.9401 115.744,25.8776 115.192,25.8776 L113.833,25.8776 C113.656,25.8776 113.557,25.9245 113.536,26.0182 C113.515,26.0703 113.505,26.1328 113.505,26.2057 L113.505,28.4089 L114.958,28.4089 C115.395,28.4089 115.682,28.3307 115.817,28.1745 C115.921,28.0495 116.005,27.8203 116.067,27.487 L116.286,27.487 L116.286,29.7682 M123.895,32.2057 L123.848,32.1745 L123.848,31.5182 C123.494,31.9662 123.067,32.1953 122.567,32.2057 C121.911,32.2057 121.411,31.9297 121.067,31.3776 C120.838,31.0026 120.723,30.5651 120.723,30.0651 C120.723,29.2735 120.968,28.6224 121.458,28.112 C121.843,27.7162 122.291,27.5182 122.801,27.5182 C123.145,27.5182 123.473,27.6432 123.786,27.8932 C123.807,27.9141 123.828,27.9349 123.848,27.9557 L123.848,26.3776 C123.848,26.1172 123.786,25.961 123.661,25.9089 C123.598,25.888 123.51,25.8776 123.395,25.8776 C123.291,25.8776 123.218,25.8776 123.176,25.8776 L123.176,25.7214 C123.791,25.5651 124.281,25.4193 124.645,25.2839 L124.692,25.2995 L124.692,30.9557 C124.692,31.2578 124.749,31.4349 124.864,31.487 C124.926,31.5078 125.015,31.5182 125.13,31.5182 C125.161,31.5182 125.234,31.5182 125.348,31.5182 L125.364,31.5182 L125.364,31.6745 L123.895,32.2057 M122.958,31.6745 C123.312,31.6745 123.578,31.5443 123.755,31.2839 C123.817,31.2005 123.848,31.1328 123.848,31.0807 L123.848,28.7995 C123.848,28.4766 123.697,28.2057 123.395,27.987 C123.218,27.8724 123.031,27.8151 122.833,27.8151 C122.343,27.8151 121.989,28.0807 121.77,28.612 C121.645,28.9141 121.583,29.263 121.583,29.6589 C121.583,30.5026 121.807,31.0964 122.255,31.4401 C122.463,31.5964 122.697,31.6745 122.958,31.6745 M127.926,27.5182 C128.666,27.5182 129.249,27.7891 129.676,28.3307 C129.979,28.737 130.13,29.2162 130.13,29.7682 C130.13,30.5495 129.874,31.1745 129.364,31.6432 C128.947,32.0182 128.463,32.2057 127.911,32.2057 C127.203,32.2057 126.64,31.9349 126.223,31.3932 C125.89,30.9557 125.723,30.4401 125.723,29.8464 C125.723,29.0339 125.999,28.4089 126.551,27.9714 C126.937,27.6693 127.395,27.5182 127.926,27.5182 M126.63,29.362 C126.63,30.2682 126.817,30.961 127.192,31.4401 C127.432,31.7526 127.713,31.9089 128.036,31.9089 C128.557,31.9089 128.916,31.612 129.114,31.0182 C129.197,30.7578 129.239,30.461 129.239,30.1276 C129.239,29.2422 129.025,28.586 128.598,28.1589 C128.369,27.9297 128.104,27.8151 127.801,27.8151 C127.333,27.8151 126.994,28.0547 126.786,28.5339 C126.682,28.7735 126.63,29.0495 126.63,29.362 M130.598,28.1589 L130.598,27.987 C131.078,27.8412 131.546,27.6849 132.005,27.5182 L132.067,27.5339 L132.067,28.2995 C132.64,27.862 133.051,27.612 133.301,27.5495 C133.406,27.5287 133.51,27.5182 133.614,27.5182 C134.145,27.5287 134.499,27.8151 134.676,28.3776 C135.208,27.8047 135.755,27.5182 136.317,27.5182 C137.078,27.5287 137.463,28.1276 137.473,29.3151 L137.473,31.362 C137.484,31.7266 137.624,31.9193 137.895,31.9401 L138.161,31.9557 L138.161,32.112 L135.973,32.112 L135.973,31.9557 C136.296,31.9245 136.489,31.8516 136.551,31.737 C136.604,31.6432 136.63,31.4818 136.63,31.2526 L136.63,29.1432 C136.63,28.5912 136.52,28.2578 136.301,28.1432 C136.197,28.0807 136.057,28.0495 135.88,28.0495 C135.432,28.0599 135.067,28.263 134.786,28.6589 L134.786,31.1745 C134.786,31.5495 134.874,31.7839 135.051,31.8776 C135.156,31.9297 135.307,31.9557 135.505,31.9557 L135.505,32.112 L133.27,32.112 L133.27,31.9557 C133.593,31.9349 133.791,31.862 133.864,31.737 C133.926,31.6432 133.958,31.4818 133.958,31.2526 L133.958,29.0964 C133.958,28.3985 133.734,28.0495 133.286,28.0495 C132.921,28.0495 132.598,28.1693 132.317,28.4089 C132.244,28.4818 132.176,28.5599 132.114,28.6432 L132.114,31.4401 C132.114,31.6901 132.203,31.8464 132.38,31.9089 C132.473,31.9401 132.609,31.9557 132.786,31.9557 L132.786,32.112 L130.567,32.112 L130.567,31.9557 C130.921,31.9557 131.135,31.8724 131.208,31.7057 C131.249,31.6016 131.27,31.4557 131.27,31.2682 L131.27,28.7526 C131.27,28.3776 131.192,28.1693 131.036,28.1276 C131.005,28.1172 130.968,28.112 130.926,28.112 C130.822,28.112 130.713,28.1276 130.598,28.1589 M139.098,28.1901 C138.942,28.1901 138.801,28.2005 138.676,28.2214 L138.676,28.0651 C139.145,27.9297 139.661,27.7474 140.223,27.5182 L140.255,27.5495 L140.255,31.0964 C140.255,31.4818 140.312,31.7214 140.426,31.8151 C140.52,31.888 140.713,31.9349 141.005,31.9557 L141.005,32.112 L138.63,32.112 L138.63,31.9557 C138.994,31.9349 139.223,31.8672 139.317,31.7526 C139.39,31.638 139.426,31.4193 139.426,31.0964 L139.426,28.7682 C139.426,28.4141 139.343,28.2214 139.176,28.1901 C139.145,28.1901 139.119,28.1901 139.098,28.1901 M139.755,25.2839 C139.973,25.2839 140.13,25.3828 140.223,25.5807 C140.255,25.6537 140.27,25.7266 140.27,25.7995 C140.27,26.0182 140.166,26.1745 139.958,26.2682 C139.885,26.2891 139.817,26.2995 139.755,26.2995 C139.536,26.2995 139.38,26.2005 139.286,26.0026 C139.265,25.9297 139.255,25.862 139.255,25.7995 C139.255,25.5807 139.348,25.4245 139.536,25.3307 C139.609,25.2995 139.682,25.2839 139.755,25.2839 M141.567,28.1276 L141.567,27.9557 C142.067,27.8099 142.531,27.6641 142.958,27.5182 L143.02,27.5339 L143.02,28.3151 C143.499,27.8776 143.874,27.6224 144.145,27.5495 C144.249,27.5287 144.359,27.5182 144.473,27.5182 C145.015,27.5182 145.374,27.7891 145.551,28.3307 C145.614,28.5287 145.645,28.7526 145.645,29.0026 L145.645,31.2995 C145.645,31.612 145.718,31.8047 145.864,31.8776 C145.958,31.9089 146.088,31.9349 146.255,31.9557 L146.255,32.112 L144.176,32.112 L144.176,31.9557 C144.479,31.9349 144.666,31.836 144.739,31.6589 C144.791,31.5443 144.817,31.3672 144.817,31.1276 L144.817,29.0339 C144.796,28.388 144.551,28.0599 144.083,28.0495 C143.833,28.0495 143.572,28.1641 143.301,28.3932 C143.229,28.4662 143.145,28.5443 143.051,28.6276 L143.051,31.4401 C143.051,31.6797 143.15,31.836 143.348,31.9089 C143.442,31.9297 143.562,31.9453 143.708,31.9557 L143.708,32.112 L141.598,32.112 L141.598,31.9557 C141.89,31.9349 142.072,31.8516 142.145,31.7057 C142.187,31.5912 142.208,31.4245 142.208,31.2057 L142.208,28.7214 C142.208,28.3568 142.135,28.1537 141.989,28.112 C141.947,28.0912 141.9,28.0807 141.848,28.0807 C141.723,28.0807 141.63,28.0964 141.567,28.1276 M146.723,31.1432 C146.723,30.6328 147.041,30.2005 147.676,29.8464 C147.864,29.7526 148.364,29.5391 149.176,29.2057 C149.197,29.2057 149.213,29.2005 149.223,29.1901 L149.223,28.5807 C149.171,28.0599 148.916,27.7839 148.458,27.7526 C148.145,27.7526 147.926,27.8516 147.801,28.0495 C147.76,28.1224 147.739,28.1849 147.739,28.237 C147.739,28.2995 147.749,28.3828 147.77,28.487 C147.781,28.5599 147.786,28.612 147.786,28.6432 C147.786,28.8203 147.697,28.9453 147.52,29.0182 C147.458,29.0495 147.4,29.0651 147.348,29.0651 C147.161,29.0651 147.031,28.9766 146.958,28.7995 C146.926,28.7474 146.911,28.6901 146.911,28.6276 C146.911,28.263 147.13,27.9662 147.567,27.737 C147.869,27.5912 148.213,27.5182 148.598,27.5182 C149.317,27.5182 149.76,27.7735 149.926,28.2839 C149.999,28.5026 150.036,28.7787 150.036,29.112 L150.036,31.0495 C150.036,31.3828 150.098,31.5703 150.223,31.612 C150.265,31.6224 150.301,31.6276 150.333,31.6276 C150.479,31.6172 150.624,31.5547 150.77,31.4401 L150.77,31.6901 C150.499,32.0026 150.249,32.1745 150.02,32.2057 C149.968,32.2057 149.916,32.2057 149.864,32.2057 C149.551,32.2057 149.354,32.0495 149.27,31.737 C149.249,31.6537 149.239,31.5599 149.239,31.4557 C148.645,31.9349 148.156,32.1849 147.77,32.2057 C147.343,32.2057 147.036,32.0339 146.848,31.6901 C146.765,31.5235 146.723,31.3412 146.723,31.1432 M149.223,30.862 L149.223,29.4245 C148.4,29.7266 147.895,30.0339 147.708,30.3464 C147.635,30.4922 147.598,30.6485 147.598,30.8151 C147.598,31.211 147.744,31.461 148.036,31.5651 C148.109,31.5964 148.176,31.612 148.239,31.612 C148.458,31.6016 148.697,31.5235 148.958,31.3776 C149.104,31.2943 149.187,31.1901 149.208,31.0651 C149.218,31.0026 149.223,30.9349 149.223,30.862 M150.567,28.1276 L150.567,27.9557 C151.067,27.8099 151.531,27.6641 151.958,27.5182 L152.02,27.5339 L152.02,28.3151 C152.499,27.8776 152.874,27.6224 153.145,27.5495 C153.249,27.5287 153.359,27.5182 153.473,27.5182 C154.015,27.5182 154.374,27.7891 154.551,28.3307 C154.614,28.5287 154.645,28.7526 154.645,29.0026 L154.645,31.2995 C154.645,31.612 154.718,31.8047 154.864,31.8776 C154.958,31.9089 155.088,31.9349 155.255,31.9557 L155.255,32.112 L153.176,32.112 L153.176,31.9557 C153.479,31.9349 153.666,31.836 153.739,31.6589 C153.791,31.5443 153.817,31.3672 153.817,31.1276 L153.817,29.0339 C153.796,28.388 153.551,28.0599 153.083,28.0495 C152.833,28.0495 152.572,28.1641 152.301,28.3932 C152.229,28.4662 152.145,28.5443 152.051,28.6276 L152.051,31.4401 C152.051,31.6797 152.15,31.836 152.348,31.9089 C152.442,31.9297 152.562,31.9453 152.708,31.9557 L152.708,32.112 L150.598,32.112 L150.598,31.9557 C150.89,31.9349 151.072,31.8516 151.145,31.7057 C151.187,31.5912 151.208,31.4245 151.208,31.2057 L151.208,28.7214 C151.208,28.3568 151.135,28.1537 150.989,28.112 C150.947,28.0912 150.9,28.0807 150.848,28.0807 C150.723,28.0807 150.63,28.0964 150.567,28.1276 M158.067,27.612 L158.067,27.9089 L157.051,27.9089 L157.051,30.7682 C157.051,31.3099 157.187,31.6068 157.458,31.6589 C157.489,31.6693 157.525,31.6745 157.567,31.6745 C157.775,31.6641 157.979,31.5443 158.176,31.3151 L158.301,31.4401 C157.979,31.9505 157.578,32.2057 157.098,32.2057 C156.515,32.1953 156.218,31.7735 156.208,30.9401 L156.208,27.9089 L155.676,27.9089 C155.656,27.888 155.645,27.8672 155.645,27.8464 C155.645,27.8047 155.687,27.763 155.77,27.7214 C156.051,27.5339 156.385,27.1693 156.77,26.6276 C156.781,26.6172 156.786,26.612 156.786,26.612 C156.89,26.4557 156.958,26.362 156.989,26.3307 C157.031,26.3412 157.051,26.3828 157.051,26.4557 L157.051,27.612 L158.067,27.612 M165.958,25.5026 L165.958,25.6589 L163.848,32.1901 L163.192,32.1901 L165.176,26.2214 L163.005,26.2214 C162.682,26.2214 162.437,26.3047 162.27,26.4714 C162.156,26.586 162.015,26.7735 161.848,27.0339 L161.676,26.9557 L162.27,25.5026 L165.958,25.5026 M169.067,27.612 L169.067,27.9089 L168.051,27.9089 L168.051,30.7682 C168.051,31.3099 168.187,31.6068 168.458,31.6589 C168.489,31.6693 168.525,31.6745 168.567,31.6745 C168.775,31.6641 168.979,31.5443 169.176,31.3151 L169.301,31.4401 C168.979,31.9505 168.578,32.2057 168.098,32.2057 C167.515,32.1953 167.218,31.7735 167.208,30.9401 L167.208,27.9089 L166.676,27.9089 C166.656,27.888 166.645,27.8672 166.645,27.8464 C166.645,27.8047 166.687,27.763 166.77,27.7214 C167.051,27.5339 167.385,27.1693 167.77,26.6276 C167.781,26.6172 167.786,26.612 167.786,26.612 C167.89,26.4557 167.958,26.362 167.989,26.3307 C168.031,26.3412 168.051,26.3828 168.051,26.4557 L168.051,27.612 L169.067,27.612 M171.051,28.6901 L171.051,31.0964 C171.051,31.4818 171.114,31.7214 171.239,31.8151 C171.333,31.888 171.499,31.9349 171.739,31.9557 L171.739,32.112 L169.567,32.112 L169.567,31.9557 C169.869,31.9245 170.057,31.8516 170.13,31.737 C170.182,31.6328 170.208,31.4193 170.208,31.0964 L170.208,26.3776 C170.208,26.1172 170.156,25.961 170.051,25.9089 C169.989,25.8776 169.89,25.862 169.755,25.862 C169.703,25.862 169.645,25.8672 169.583,25.8776 L169.583,25.7214 C170.062,25.5964 170.536,25.4505 171.005,25.2839 L171.051,25.3151 L171.051,28.3464 C171.437,27.8568 171.848,27.5807 172.286,27.5182 C172.359,27.5182 172.437,27.5182 172.52,27.5182 C173.333,27.5287 173.744,28.0547 173.755,29.0964 L173.755,31.0964 C173.755,31.4714 173.801,31.7057 173.895,31.7995 C173.968,31.8724 174.119,31.9245 174.348,31.9557 L174.348,32.112 L172.239,32.112 L172.239,31.9557 C172.551,31.9245 172.744,31.8412 172.817,31.7057 C172.88,31.5912 172.911,31.388 172.911,31.0964 L172.911,29.112 C172.9,28.4141 172.65,28.0599 172.161,28.0495 C171.838,28.0495 171.51,28.2162 171.176,28.5495 C171.135,28.6016 171.093,28.6485 171.051,28.6901 M177.723,31.1432 C177.723,30.6328 178.041,30.2005 178.676,29.8464 C178.864,29.7526 179.364,29.5391 180.176,29.2057 C180.197,29.2057 180.213,29.2005 180.223,29.1901 L180.223,28.5807 C180.171,28.0599 179.916,27.7839 179.458,27.7526 C179.145,27.7526 178.926,27.8516 178.801,28.0495 C178.76,28.1224 178.739,28.1849 178.739,28.237 C178.739,28.2995 178.749,28.3828 178.77,28.487 C178.781,28.5599 178.786,28.612 178.786,28.6432 C178.786,28.8203 178.697,28.9453 178.52,29.0182 C178.458,29.0495 178.4,29.0651 178.348,29.0651 C178.161,29.0651 178.031,28.9766 177.958,28.7995 C177.926,28.7474 177.911,28.6901 177.911,28.6276 C177.911,28.263 178.13,27.9662 178.567,27.737 C178.869,27.5912 179.213,27.5182 179.598,27.5182 C180.317,27.5182 180.76,27.7735 180.926,28.2839 C180.999,28.5026 181.036,28.7787 181.036,29.112 L181.036,31.0495 C181.036,31.3828 181.098,31.5703 181.223,31.612 C181.265,31.6224 181.301,31.6276 181.333,31.6276 C181.479,31.6172 181.624,31.5547 181.77,31.4401 L181.77,31.6901 C181.499,32.0026 181.249,32.1745 181.02,32.2057 C180.968,32.2057 180.916,32.2057 180.864,32.2057 C180.551,32.2057 180.354,32.0495 180.27,31.737 C180.249,31.6537 180.239,31.5599 180.239,31.4557 C179.645,31.9349 179.156,32.1849 178.77,32.2057 C178.343,32.2057 178.036,32.0339 177.848,31.6901 C177.765,31.5235 177.723,31.3412 177.723,31.1432 M180.223,30.862 L180.223,29.4245 C179.4,29.7266 178.895,30.0339 178.708,30.3464 C178.635,30.4922 178.598,30.6485 178.598,30.8151 C178.598,31.211 178.744,31.461 179.036,31.5651 C179.109,31.5964 179.176,31.612 179.239,31.612 C179.458,31.6016 179.697,31.5235 179.958,31.3776 C180.104,31.2943 180.187,31.1901 180.208,31.0651 C180.218,31.0026 180.223,30.9349 180.223,30.862 M184.489,28.487 C184.385,28.487 184.234,28.4037 184.036,28.237 C183.942,28.1537 183.869,28.112 183.817,28.112 C183.65,28.112 183.479,28.2422 183.301,28.5026 C183.187,28.6693 183.13,28.8151 183.13,28.9401 L183.13,31.2057 C183.13,31.5495 183.218,31.763 183.395,31.8464 C183.52,31.9089 183.713,31.9453 183.973,31.9557 L183.973,32.112 L181.567,32.112 L181.567,31.9557 C181.921,31.8932 182.135,31.8099 182.208,31.7057 C182.26,31.6224 182.286,31.4766 182.286,31.2682 L182.286,28.7526 C182.286,28.388 182.203,28.1901 182.036,28.1589 C182.005,28.1485 181.973,28.1432 181.942,28.1432 C181.828,28.1432 181.713,28.1589 181.598,28.1901 L181.598,28.0339 C182.13,27.8672 182.619,27.6953 183.067,27.5182 L183.13,27.5339 L183.13,28.4245 C183.473,27.9453 183.765,27.6589 184.005,27.5651 C184.109,27.5339 184.213,27.5182 184.317,27.5182 C184.63,27.5182 184.812,27.6485 184.864,27.9089 C184.864,27.9505 184.864,27.9974 184.864,28.0495 C184.833,28.3203 184.708,28.4662 184.489,28.487 M184.614,28.1901 L184.614,28.0182 C185.041,27.8932 185.52,27.7266 186.051,27.5182 L186.114,27.5339 L186.114,28.2995 C186.541,27.7787 187.02,27.5182 187.551,27.5182 C188.114,27.5182 188.557,27.7787 188.88,28.2995 C189.109,28.6849 189.223,29.1328 189.223,29.6432 C189.223,30.4557 188.973,31.1172 188.473,31.6276 C188.088,32.013 187.64,32.2057 187.13,32.2057 C186.796,32.2057 186.505,32.1068 186.255,31.9089 C186.203,31.8776 186.156,31.8412 186.114,31.7995 L186.114,33.362 C186.114,33.7057 186.182,33.9141 186.317,33.987 C186.442,34.0599 186.666,34.0964 186.989,34.0964 L186.989,34.2839 L184.567,34.2839 L184.567,34.112 C184.921,34.0807 185.135,33.9974 185.208,33.862 C185.249,33.7682 185.27,33.6224 185.27,33.4245 L185.27,28.737 C185.27,28.4453 185.218,28.2735 185.114,28.2214 C185.051,28.1901 184.968,28.1745 184.864,28.1745 C184.749,28.1745 184.666,28.1797 184.614,28.1901 M186.114,28.7839 L186.114,31.2526 C186.114,31.4297 186.26,31.5964 186.551,31.7526 C186.76,31.8568 186.958,31.9089 187.145,31.9089 C187.604,31.9089 187.942,31.6537 188.161,31.1432 C188.296,30.8203 188.364,30.4557 188.364,30.0495 C188.364,29.2266 188.156,28.6537 187.739,28.3307 C187.562,28.1849 187.359,28.112 187.13,28.112 C186.828,28.112 186.557,28.2214 186.317,28.4401 C186.192,28.5547 186.124,28.6693 186.114,28.7839 M190.442,29.3464 C190.484,30.5235 190.869,31.2162 191.598,31.4245 C191.723,31.4662 191.859,31.487 192.005,31.487 C192.494,31.487 192.911,31.2787 193.255,30.862 C193.348,30.7474 193.447,30.612 193.551,30.4557 L193.708,30.5182 C193.343,31.4766 192.77,32.0287 191.989,32.1745 C191.854,32.1953 191.723,32.2057 191.598,32.2057 C190.859,32.2057 190.328,31.8932 190.005,31.2682 C189.817,30.8932 189.723,30.461 189.723,29.9714 C189.723,29.086 189.999,28.4141 190.551,27.9557 C190.916,27.6641 191.338,27.5182 191.817,27.5182 C192.734,27.5182 193.286,28.0391 193.473,29.0807 C193.494,29.1745 193.51,29.263 193.52,29.3464 L190.442,29.3464 M190.458,29.0495 L192.505,29.0495 C192.411,28.4766 192.244,28.1224 192.005,27.987 C191.88,27.9245 191.718,27.8932 191.52,27.8932 C190.926,27.8932 190.572,28.2682 190.458,29.0182 C190.458,29.0287 190.458,29.0391 190.458,29.0495 M194.067,31.5339 C194.067,31.3985 194.145,31.2526 194.301,31.0964 C194.395,31.0026 194.614,30.7995 194.958,30.487 C194.458,30.2266 194.161,29.8985 194.067,29.5026 C194.046,29.388 194.036,29.2682 194.036,29.1432 C194.036,28.612 194.249,28.1849 194.676,27.862 C194.979,27.6328 195.322,27.5182 195.708,27.5182 C195.958,27.5182 196.265,27.586 196.63,27.7214 C196.869,27.8047 197.083,27.8464 197.27,27.8464 L198.036,27.8464 L198.036,28.2214 L197.208,28.2214 C197.333,28.513 197.395,28.7943 197.395,29.0651 C197.395,29.638 197.171,30.0703 196.723,30.362 C196.453,30.5391 196.161,30.6276 195.848,30.6276 C195.755,30.6276 195.562,30.6068 195.27,30.5651 C195.072,30.6276 194.906,30.7682 194.77,30.987 C194.708,31.0703 194.676,31.1432 194.676,31.2057 C194.676,31.362 194.926,31.4505 195.426,31.4714 C195.437,31.4714 195.447,31.4714 195.458,31.4714 L196.739,31.5339 C197.291,31.5443 197.661,31.7474 197.848,32.1432 C197.921,32.2787 197.958,32.4297 197.958,32.5964 C197.958,33.0964 197.645,33.5235 197.02,33.8776 C196.51,34.1485 195.953,34.2839 195.348,34.2839 C194.723,34.2839 194.239,34.1328 193.895,33.8307 C193.718,33.6641 193.63,33.487 193.63,33.2995 C193.63,33.0078 193.843,32.6797 194.27,32.3151 C194.374,32.2318 194.484,32.1432 194.598,32.0495 C194.296,31.9141 194.124,31.7787 194.083,31.6432 C194.072,31.612 194.067,31.5755 194.067,31.5339 M194.817,32.0807 C194.515,32.4557 194.354,32.7162 194.333,32.862 C194.322,32.9037 194.317,32.9453 194.317,32.987 C194.317,33.2891 194.541,33.5078 194.989,33.6432 C195.218,33.7162 195.484,33.7526 195.786,33.7526 C196.619,33.7526 197.187,33.5703 197.489,33.2057 C197.614,33.0495 197.676,32.888 197.676,32.7214 C197.676,32.4714 197.51,32.3151 197.176,32.2526 C196.989,32.2214 196.739,32.2057 196.426,32.2057 C195.76,32.2057 195.223,32.1641 194.817,32.0807 M196.63,29.4714 C196.63,29.0443 196.541,28.6641 196.364,28.3307 C196.166,27.9974 195.911,27.8255 195.598,27.8151 C195.223,27.8151 194.989,28.013 194.895,28.4089 C194.874,28.513 194.864,28.6276 194.864,28.7526 C194.864,29.5547 195.088,30.0651 195.536,30.2839 C195.65,30.3464 195.765,30.3776 195.88,30.3776 C196.244,30.3776 196.479,30.1953 196.583,29.8307 C196.614,29.7162 196.63,29.5964 196.63,29.4714 M199.067,31.5339 C199.067,31.3985 199.145,31.2526 199.301,31.0964 C199.395,31.0026 199.614,30.7995 199.958,30.487 C199.458,30.2266 199.161,29.8985 199.067,29.5026 C199.046,29.388 199.036,29.2682 199.036,29.1432 C199.036,28.612 199.249,28.1849 199.676,27.862 C199.979,27.6328 200.322,27.5182 200.708,27.5182 C200.958,27.5182 201.265,27.586 201.63,27.7214 C201.869,27.8047 202.083,27.8464 202.27,27.8464 L203.036,27.8464 L203.036,28.2214 L202.208,28.2214 C202.333,28.513 202.395,28.7943 202.395,29.0651 C202.395,29.638 202.171,30.0703 201.723,30.362 C201.453,30.5391 201.161,30.6276 200.848,30.6276 C200.755,30.6276 200.562,30.6068 200.27,30.5651 C200.072,30.6276 199.906,30.7682 199.77,30.987 C199.708,31.0703 199.676,31.1432 199.676,31.2057 C199.676,31.362 199.926,31.4505 200.426,31.4714 C200.437,31.4714 200.447,31.4714 200.458,31.4714 L201.739,31.5339 C202.291,31.5443 202.661,31.7474 202.848,32.1432 C202.921,32.2787 202.958,32.4297 202.958,32.5964 C202.958,33.0964 202.645,33.5235 202.02,33.8776 C201.51,34.1485 200.953,34.2839 200.348,34.2839 C199.723,34.2839 199.239,34.1328 198.895,33.8307 C198.718,33.6641 198.63,33.487 198.63,33.2995 C198.63,33.0078 198.843,32.6797 199.27,32.3151 C199.374,32.2318 199.484,32.1432 199.598,32.0495 C199.296,31.9141 199.124,31.7787 199.083,31.6432 C199.072,31.612 199.067,31.5755 199.067,31.5339 M199.817,32.0807 C199.515,32.4557 199.354,32.7162 199.333,32.862 C199.322,32.9037 199.317,32.9453 199.317,32.987 C199.317,33.2891 199.541,33.5078 199.989,33.6432 C200.218,33.7162 200.484,33.7526 200.786,33.7526 C201.619,33.7526 202.187,33.5703 202.489,33.2057 C202.614,33.0495 202.676,32.888 202.676,32.7214 C202.676,32.4714 202.51,32.3151 202.176,32.2526 C201.989,32.2214 201.739,32.2057 201.426,32.2057 C200.76,32.2057 200.223,32.1641 199.817,32.0807 M201.63,29.4714 C201.63,29.0443 201.541,28.6641 201.364,28.3307 C201.166,27.9974 200.911,27.8255 200.598,27.8151 C200.223,27.8151 199.989,28.013 199.895,28.4089 C199.874,28.513 199.864,28.6276 199.864,28.7526 C199.864,29.5547 200.088,30.0651 200.536,30.2839 C200.65,30.3464 200.765,30.3776 200.88,30.3776 C201.244,30.3776 201.479,30.1953 201.583,29.8307 C201.614,29.7162 201.63,29.5964 201.63,29.4714 M204.098,28.1901 C203.942,28.1901 203.801,28.2005 203.676,28.2214 L203.676,28.0651 C204.145,27.9297 204.661,27.7474 205.223,27.5182 L205.255,27.5495 L205.255,31.0964 C205.255,31.4818 205.312,31.7214 205.426,31.8151 C205.52,31.888 205.713,31.9349 206.005,31.9557 L206.005,32.112 L203.63,32.112 L203.63,31.9557 C203.994,31.9349 204.223,31.8672 204.317,31.7526 C204.39,31.638 204.426,31.4193 204.426,31.0964 L204.426,28.7682 C204.426,28.4141 204.343,28.2214 204.176,28.1901 C204.145,28.1901 204.119,28.1901 204.098,28.1901 M204.755,25.2839 C204.973,25.2839 205.13,25.3828 205.223,25.5807 C205.255,25.6537 205.27,25.7266 205.27,25.7995 C205.27,26.0182 205.166,26.1745 204.958,26.2682 C204.885,26.2891 204.817,26.2995 204.755,26.2995 C204.536,26.2995 204.38,26.2005 204.286,26.0026 C204.265,25.9297 204.255,25.862 204.255,25.7995 C204.255,25.5807 204.348,25.4245 204.536,25.3307 C204.609,25.2995 204.682,25.2839 204.755,25.2839 M208.926,27.5182 C209.666,27.5182 210.249,27.7891 210.676,28.3307 C210.979,28.737 211.13,29.2162 211.13,29.7682 C211.13,30.5495 210.874,31.1745 210.364,31.6432 C209.947,32.0182 209.463,32.2057 208.911,32.2057 C208.203,32.2057 207.64,31.9349 207.223,31.3932 C206.89,30.9557 206.723,30.4401 206.723,29.8464 C206.723,29.0339 206.999,28.4089 207.551,27.9714 C207.937,27.6693 208.395,27.5182 208.926,27.5182 M207.63,29.362 C207.63,30.2682 207.817,30.961 208.192,31.4401 C208.432,31.7526 208.713,31.9089 209.036,31.9089 C209.557,31.9089 209.916,31.612 210.114,31.0182 C210.197,30.7578 210.239,30.461 210.239,30.1276 C210.239,29.2422 210.025,28.586 209.598,28.1589 C209.369,27.9297 209.104,27.8151 208.801,27.8151 C208.333,27.8151 207.994,28.0547 207.786,28.5339 C207.682,28.7735 207.63,29.0495 207.63,29.362 M216.926,27.5182 C217.666,27.5182 218.249,27.7891 218.676,28.3307 C218.979,28.737 219.13,29.2162 219.13,29.7682 C219.13,30.5495 218.874,31.1745 218.364,31.6432 C217.947,32.0182 217.463,32.2057 216.911,32.2057 C216.203,32.2057 215.64,31.9349 215.223,31.3932 C214.89,30.9557 214.723,30.4401 214.723,29.8464 C214.723,29.0339 214.999,28.4089 215.551,27.9714 C215.937,27.6693 216.395,27.5182 216.926,27.5182 M215.63,29.362 C215.63,30.2682 215.817,30.961 216.192,31.4401 C216.432,31.7526 216.713,31.9089 217.036,31.9089 C217.557,31.9089 217.916,31.612 218.114,31.0182 C218.197,30.7578 218.239,30.461 218.239,30.1276 C218.239,29.2422 218.025,28.586 217.598,28.1589 C217.369,27.9297 217.104,27.8151 216.801,27.8151 C216.333,27.8151 215.994,28.0547 215.786,28.5339 C215.682,28.7735 215.63,29.0495 215.63,29.362 M219.567,28.1276 L219.567,27.9557 C220.067,27.8099 220.531,27.6641 220.958,27.5182 L221.02,27.5339 L221.02,28.3151 C221.499,27.8776 221.874,27.6224 222.145,27.5495 C222.249,27.5287 222.359,27.5182 222.473,27.5182 C223.015,27.5182 223.374,27.7891 223.551,28.3307 C223.614,28.5287 223.645,28.7526 223.645,29.0026 L223.645,31.2995 C223.645,31.612 223.718,31.8047 223.864,31.8776 C223.958,31.9089 224.088,31.9349 224.255,31.9557 L224.255,32.112 L222.176,32.112 L222.176,31.9557 C222.479,31.9349 222.666,31.836 222.739,31.6589 C222.791,31.5443 222.817,31.3672 222.817,31.1276 L222.817,29.0339 C222.796,28.388 222.551,28.0599 222.083,28.0495 C221.833,28.0495 221.572,28.1641 221.301,28.3932 C221.229,28.4662 221.145,28.5443 221.051,28.6276 L221.051,31.4401 C221.051,31.6797 221.15,31.836 221.348,31.9089 C221.442,31.9297 221.562,31.9453 221.708,31.9557 L221.708,32.112 L219.598,32.112 L219.598,31.9557 C219.89,31.9349 220.072,31.8516 220.145,31.7057 C220.187,31.5912 220.208,31.4245 220.208,31.2057 L220.208,28.7214 C220.208,28.3568 220.135,28.1537 219.989,28.112 C219.947,28.0912 219.9,28.0807 219.848,28.0807 C219.723,28.0807 219.63,28.0964 219.567,28.1276 M225.442,29.3464 C225.484,30.5235 225.869,31.2162 226.598,31.4245 C226.723,31.4662 226.859,31.487 227.005,31.487 C227.494,31.487 227.911,31.2787 228.255,30.862 C228.348,30.7474 228.447,30.612 228.551,30.4557 L228.708,30.5182 C228.343,31.4766 227.77,32.0287 226.989,32.1745 C226.854,32.1953 226.723,32.2057 226.598,32.2057 C225.859,32.2057 225.328,31.8932 225.005,31.2682 C224.817,30.8932 224.723,30.461 224.723,29.9714 C224.723,29.086 224.999,28.4141 225.551,27.9557 C225.916,27.6641 226.338,27.5182 226.817,27.5182 C227.734,27.5182 228.286,28.0391 228.473,29.0807 C228.494,29.1745 228.51,29.263 228.52,29.3464 L225.442,29.3464 M225.458,29.0495 L227.505,29.0495 C227.411,28.4766 227.244,28.1224 227.005,27.987 C226.88,27.9245 226.718,27.8932 226.52,27.8932 C225.926,27.8932 225.572,28.2682 225.458,29.0182 C225.458,29.0287 225.458,29.0391 225.458,29.0495 M233.926,27.5182 C234.666,27.5182 235.249,27.7891 235.676,28.3307 C235.979,28.737 236.13,29.2162 236.13,29.7682 C236.13,30.5495 235.874,31.1745 235.364,31.6432 C234.947,32.0182 234.463,32.2057 233.911,32.2057 C233.203,32.2057 232.64,31.9349 232.223,31.3932 C231.89,30.9557 231.723,30.4401 231.723,29.8464 C231.723,29.0339 231.999,28.4089 232.551,27.9714 C232.937,27.6693 233.395,27.5182 233.926,27.5182 M232.63,29.362 C232.63,30.2682 232.817,30.961 233.192,31.4401 C233.432,31.7526 233.713,31.9089 234.036,31.9089 C234.557,31.9089 234.916,31.612 235.114,31.0182 C235.197,30.7578 235.239,30.461 235.239,30.1276 C235.239,29.2422 235.025,28.586 234.598,28.1589 C234.369,27.9297 234.104,27.8151 233.801,27.8151 C233.333,27.8151 232.994,28.0547 232.786,28.5339 C232.682,28.7735 232.63,29.0495 232.63,29.362 M236.723,29.987 C236.723,29.1432 237.01,28.4818 237.583,28.0026 C237.979,27.6797 238.421,27.5182 238.911,27.5182 C239.463,27.5182 239.89,27.6693 240.192,27.9714 C240.369,28.1485 240.458,28.3412 240.458,28.5495 C240.458,28.7266 240.364,28.8516 240.176,28.9245 C240.104,28.9557 240.036,28.9714 239.973,28.9714 C239.765,28.9714 239.614,28.836 239.52,28.5651 C239.51,28.5443 239.505,28.5235 239.505,28.5026 L239.442,28.2839 C239.38,28.0339 239.265,27.888 239.098,27.8464 C239.025,27.8255 238.942,27.8151 238.848,27.8151 C238.348,27.8151 237.968,28.0547 237.708,28.5339 C237.562,28.8255 237.489,29.1641 237.489,29.5495 C237.489,30.2787 237.713,30.8255 238.161,31.1901 C238.421,31.388 238.713,31.487 239.036,31.487 C239.453,31.487 239.812,31.3203 240.114,30.987 C240.218,30.862 240.333,30.7162 240.458,30.5495 L240.598,30.6432 C240.223,31.362 239.807,31.8307 239.348,32.0495 C239.109,32.1537 238.869,32.2057 238.63,32.2057 C237.984,32.2057 237.479,31.9401 237.114,31.4089 C236.854,31.0026 236.723,30.5287 236.723,29.987 M243.067,27.612 L243.067,27.9089 L242.051,27.9089 L242.051,30.7682 C242.051,31.3099 242.187,31.6068 242.458,31.6589 C242.489,31.6693 242.525,31.6745 242.567,31.6745 C242.775,31.6641 242.979,31.5443 243.176,31.3151 L243.301,31.4401 C242.979,31.9505 242.578,32.2057 242.098,32.2057 C241.515,32.1953 241.218,31.7735 241.208,30.9401 L241.208,27.9089 L240.676,27.9089 C240.656,27.888 240.645,27.8672 240.645,27.8464 C240.645,27.8047 240.687,27.763 240.77,27.7214 C241.051,27.5339 241.385,27.1693 241.77,26.6276 C241.781,26.6172 241.786,26.612 241.786,26.612 C241.89,26.4557 241.958,26.362 241.989,26.3307 C242.031,26.3412 242.051,26.3828 242.051,26.4557 L242.051,27.612 L243.067,27.612 M243.723,31.1432 C243.723,30.6328 244.041,30.2005 244.676,29.8464 C244.864,29.7526 245.364,29.5391 246.176,29.2057 C246.197,29.2057 246.213,29.2005 246.223,29.1901 L246.223,28.5807 C246.171,28.0599 245.916,27.7839 245.458,27.7526 C245.145,27.7526 244.926,27.8516 244.801,28.0495 C244.76,28.1224 244.739,28.1849 244.739,28.237 C244.739,28.2995 244.749,28.3828 244.77,28.487 C244.781,28.5599 244.786,28.612 244.786,28.6432 C244.786,28.8203 244.697,28.9453 244.52,29.0182 C244.458,29.0495 244.4,29.0651 244.348,29.0651 C244.161,29.0651 244.031,28.9766 243.958,28.7995 C243.926,28.7474 243.911,28.6901 243.911,28.6276 C243.911,28.263 244.13,27.9662 244.567,27.737 C244.869,27.5912 245.213,27.5182 245.598,27.5182 C246.317,27.5182 246.76,27.7735 246.926,28.2839 C246.999,28.5026 247.036,28.7787 247.036,29.112 L247.036,31.0495 C247.036,31.3828 247.098,31.5703 247.223,31.612 C247.265,31.6224 247.301,31.6276 247.333,31.6276 C247.479,31.6172 247.624,31.5547 247.77,31.4401 L247.77,31.6901 C247.499,32.0026 247.249,32.1745 247.02,32.2057 C246.968,32.2057 246.916,32.2057 246.864,32.2057 C246.551,32.2057 246.354,32.0495 246.27,31.737 C246.249,31.6537 246.239,31.5599 246.239,31.4557 C245.645,31.9349 245.156,32.1849 244.77,32.2057 C244.343,32.2057 244.036,32.0339 243.848,31.6901 C243.765,31.5235 243.723,31.3412 243.723,31.1432 M246.223,30.862 L246.223,29.4245 C245.4,29.7266 244.895,30.0339 244.708,30.3464 C244.635,30.4922 244.598,30.6485 244.598,30.8151 C244.598,31.211 244.744,31.461 245.036,31.5651 C245.109,31.5964 245.176,31.612 245.239,31.612 C245.458,31.6016 245.697,31.5235 245.958,31.3776 C246.104,31.2943 246.187,31.1901 246.208,31.0651 C246.218,31.0026 246.223,30.9349 246.223,30.862 M252.098,27.612 L252.098,27.7682 C251.932,27.7891 251.807,27.8568 251.723,27.9714 C251.65,28.0755 251.562,28.2682 251.458,28.5495 L250.176,31.7526 C250.041,32.0755 249.947,32.2422 249.895,32.2526 C249.822,32.2526 249.739,32.1068 249.645,31.8151 C249.635,31.8047 249.63,31.7943 249.63,31.7839 L248.426,28.9089 C248.176,28.3151 247.989,27.9662 247.864,27.862 C247.781,27.7995 247.666,27.7682 247.52,27.7682 L247.52,27.612 L249.489,27.612 L249.489,27.7682 C249.208,27.7891 249.057,27.862 249.036,27.987 C249.025,28.0078 249.02,28.0287 249.02,28.0495 C249.02,28.1641 249.051,28.2839 249.114,28.4089 L250.13,30.9714 L251.114,28.3776 C251.156,28.2839 251.176,28.1849 251.176,28.0807 C251.176,27.9037 251.031,27.7995 250.739,27.7682 C250.729,27.7682 250.718,27.7682 250.708,27.7682 L250.708,27.612 L252.098,27.612 M253.442,29.3464 C253.484,30.5235 253.869,31.2162 254.598,31.4245 C254.723,31.4662 254.859,31.487 255.005,31.487 C255.494,31.487 255.911,31.2787 256.255,30.862 C256.348,30.7474 256.447,30.612 256.551,30.4557 L256.708,30.5182 C256.343,31.4766 255.77,32.0287 254.989,32.1745 C254.854,32.1953 254.723,32.2057 254.598,32.2057 C253.859,32.2057 253.328,31.8932 253.005,31.2682 C252.817,30.8932 252.723,30.461 252.723,29.9714 C252.723,29.086 252.999,28.4141 253.551,27.9557 C253.916,27.6641 254.338,27.5182 254.817,27.5182 C255.734,27.5182 256.286,28.0391 256.473,29.0807 C256.494,29.1745 256.51,29.263 256.52,29.3464 L253.442,29.3464 M253.458,29.0495 L255.505,29.0495 C255.411,28.4766 255.244,28.1224 255.005,27.987 C254.88,27.9245 254.718,27.8932 254.52,27.8932 C253.926,27.8932 253.572,28.2682 253.458,29.0182 C253.458,29.0287 253.458,29.0391 253.458,29.0495"/>
</svg>
