<?xml version="1.0" encoding="UTF-8" standalone="no"?>
<svg width="595.44px" height="841.68px" viewBox="0 0 595.44 841.68"
 xmlns="http://www.w3.org/2000/svg" xmlns:xlink="http://www.w3.org/1999/xlink" version="1.2" baseProfile="tiny">
<title>Guitar Scales and Arpeggios</title>
<desc>Generated by MuseScore 2.1.0</desc>
<polyline class="StaffLines" fill="none" stroke="#000000" stroke-width="0.40" stroke-linejoin="bevel" points="28.08,62.856 567.36,62.856"/>
<polyline class="StaffLines" fill="none" stroke="#000000" stroke-width="0.40" stroke-linejoin="bevel" points="28.08,67.824 567.36,67.824"/>
<polyline class="StaffLines" fill="none" stroke="#000000" stroke-width="0.40" stroke-linejoin="bevel" points="28.08,72.792 567.36,72.792"/>
<polyline class="StaffLines" fill="none" stroke="#000000" stroke-width="0.40" stroke-linejoin="bevel" points="28.08,77.76 567.36,77.76"/>
<polyline class="StaffLines" fill="none" stroke="#000000" stroke-width="0.40" stroke-linejoin="bevel" points="28.08,82.728 567.36,82.728"/>
<polyline class="StaffLines" fill="none" stroke="#000000" stroke-width="0.40" stroke-linejoin="bevel" points="28.08,115.02 567.36,115.02"/>
<polyline class="StaffLines" fill="none" stroke="#000000" stroke-width="0.40" stroke-linejoin="bevel" points="28.08,122.472 567.36,122.472"/>
<polyline class="StaffLines" fill="none" stroke="#000000" stroke-width="0.40" stroke-linejoin="bevel" points="28.08,129.924 567.36,129.924"/>
<polyline class="StaffLines" fill="none" stroke="#000000" stroke-width="0.40" stroke-linejoin="bevel" points="28.08,137.376 567.36,137.376"/>
<polyline class="StaffLines" fill="none" stroke="#000000" stroke-width="0.40" stroke-linejoin="bevel" points="28.08,144.828 567.36,144.828"/>
<polyline class="StaffLines" fill="none" stroke="#000000" stroke-width="0.40" stroke-linejoin="bevel" points="28.08,152.28 567.36,152.28"/>
<polyline class="BarLine" fill="none" stroke="#000000" stroke-width="0.79" stroke-linejoin="bevel" points="28.4774,62.856 28.4774,152.28"/>
<polyline class="BarLine" fill="none" stroke="#000000" stroke-width="0.79" stroke-linejoin="bevel" points="562.491,115.02 562.491,152.28"/>
<polyline class="BarLine" fill="none" stroke="#000000" stroke-width="2.48" stroke-linejoin="bevel" points="566.118,115.02 566.118,152.28"/>
<polyline class="BarLine" fill="none" stroke="#000000" stroke-width="0.79" stroke-linejoin="bevel" points="562.491,62.856 562.491,82.728"/>
<polyline class="BarLine" fill="none" stroke="#000000" stroke-width="2.48" stroke-linejoin="bevel" points="566.118,62.856 566.118,82.728"/>
<polyline class="LedgerLine" fill="none" stroke="#000000" stroke-width="0.79" stroke-linecap="square" stroke-linejoin="bevel" points="503.462,87.696 512.984,87.696"/>
<polyline class="LedgerLine" fill="none" stroke="#000000" stroke-width="0.79" stroke-linecap="square" stroke-linejoin="bevel" points="503.462,92.664 512.984,92.664"/>
<polyline class="LedgerLine" fill="none" stroke="#000000" stroke-width="0.79" stroke-linecap="square" stroke-linejoin="bevel" points="467.749,87.696 477.27,87.696"/>
<polyline class="LedgerLine" fill="none" stroke="#000000" stroke-width="0.79" stroke-linecap="square" stroke-linejoin="bevel" points="289.182,57.888 298.703,57.888"/>
<polyline class="LedgerLine" fill="none" stroke="#000000" stroke-width="0.79" stroke-linecap="square" stroke-linejoin="bevel" points="110.614,87.696 120.136,87.696"/>
<polyline class="LedgerLine" fill="none" stroke="#000000" stroke-width="0.79" stroke-linecap="square" stroke-linejoin="bevel" points="74.9011,87.696 84.4226,87.696"/>
<polyline class="LedgerLine" fill="none" stroke="#000000" stroke-width="0.79" stroke-linecap="square" stroke-linejoin="bevel" points="74.9011,92.664 84.4226,92.664"/>
<polyline class="Stem" fill="none" stroke="#000000" stroke-width="0.65" stroke-linecap="round" stroke-linejoin="bevel" points="511.17,91.7309 511.17,72.792"/>
<polyline class="Stem" fill="none" stroke="#000000" stroke-width="0.65" stroke-linecap="round" stroke-linejoin="bevel" points="475.457,86.7629 475.457,67.824"/>
<polyline class="Stem" fill="none" stroke="#000000" stroke-width="0.65" stroke-linecap="round" stroke-linejoin="bevel" points="439.743,81.7949 439.743,64.719"/>
<polyline class="Stem" fill="none" stroke="#000000" stroke-width="0.65" stroke-linecap="round" stroke-linejoin="bevel" points="404.03,74.3429 404.03,61.614"/>
<polyline class="Stem" fill="none" stroke="#000000" stroke-width="0.65" stroke-linecap="round" stroke-linejoin="bevel" points="362.422,71.2411 362.422,86.454"/>
<polyline class="Stem" fill="none" stroke="#000000" stroke-width="0.65" stroke-linecap="round" stroke-linejoin="bevel" points="326.708,66.2731 326.708,83.349"/>
<polyline class="Stem" fill="none" stroke="#000000" stroke-width="0.65" stroke-linecap="round" stroke-linejoin="bevel" points="290.995,58.8211 290.995,80.244"/>
<polyline class="Stem" fill="none" stroke="#000000" stroke-width="0.65" stroke-linecap="round" stroke-linejoin="bevel" points="255.281,66.2731 255.281,82.728"/>
<polyline class="Stem" fill="none" stroke="#000000" stroke-width="0.65" stroke-linecap="round" stroke-linejoin="bevel" points="219.568,71.2411 219.568,85.833"/>
<polyline class="Stem" fill="none" stroke="#000000" stroke-width="0.65" stroke-linecap="round" stroke-linejoin="bevel" points="183.855,76.2091 183.855,88.938"/>
<polyline class="Stem" fill="none" stroke="#000000" stroke-width="0.65" stroke-linecap="round" stroke-linejoin="bevel" points="154.036,81.7949 154.036,67.824"/>
<polyline class="Stem" fill="none" stroke="#000000" stroke-width="0.65" stroke-linecap="round" stroke-linejoin="bevel" points="118.323,86.7629 118.323,70.929"/>
<polyline class="Stem" fill="none" stroke="#000000" stroke-width="0.65" stroke-linecap="round" stroke-linejoin="bevel" points="82.6092,91.7309 82.6092,74.034"/>
<path class="Note" fill="#ffffff" fill-rule="evenodd" d="M505.698,148.554 L511.659,148.554 L511.659,156.006 L505.698,156.006 L505.698,148.554 "/>
<path class="Note" transform="matrix(0.9936,0,0,0.9936,506.194,155.758)" d="M4.28125,-6.39063 L4.28125,-5.64063 L1.625,-5.64063 L1.375,-3.8125 C1.73958,-4.09375 2.13542,-4.23438 2.5625,-4.23438 C3.28125,-4.23438 3.83333,-3.97396 4.21875,-3.45313 C4.48958,-3.07813 4.625,-2.625 4.625,-2.09375 C4.625,-1.3125 4.35938,-0.708333 3.82813,-0.28125 C3.44271,0.0416667 2.97917,0.203125 2.4375,0.203125 C1.26042,0.203125 0.557292,-0.359375 0.328125,-1.48438 C0.328125,-1.50521 0.322917,-1.53125 0.3125,-1.5625 L1.10938,-1.5625 C1.30729,-0.885417 1.73958,-0.541667 2.40625,-0.53125 C3.02083,-0.53125 3.44271,-0.770833 3.67188,-1.25 C3.76563,-1.46875 3.8125,-1.71354 3.8125,-1.98438 C3.8125,-2.63021 3.58333,-3.07813 3.125,-3.32813 C2.91667,-3.44271 2.67708,-3.5 2.40625,-3.5 C2.03125,-3.5 1.70833,-3.38021 1.4375,-3.14063 C1.375,-3.07813 1.3125,-3.01042 1.25,-2.9375 L0.515625,-2.9375 L0.984375,-6.39063 L4.28125,-6.39063 "/>
<path class="Note" fill="#cc00ff" transform="matrix(0.9936,0,0,0.9936,504.952,92.664)" d="M4.39063,-2.75 C5.01563,-2.75 5.54688,-2.58854 5.98438,-2.26563 C6.38021,-1.91146 6.57813,-1.46875 6.57813,-0.9375 C6.57813,-0.0416667 6.11979,0.796875 5.20313,1.57813 C4.26563,2.35938 3.26042,2.75 2.1875,2.75 C1.5625,2.75 1.03646,2.58854 0.609375,2.26563 C0.203125,1.91146 0,1.46875 0,0.9375 C0,0.0416667 0.46875,-0.796875 1.40625,-1.57813 C2.32292,-2.35938 3.31771,-2.75 4.39063,-2.75"/>
<path class="Note" fill="#ffffff" fill-rule="evenodd" d="M469.984,141.102 L475.946,141.102 L475.946,148.554 L469.984,148.554 L469.984,141.102 "/>
<path class="Note" transform="matrix(0.9936,0,0,0.9936,470.481,148.306)" d="M2.9375,-1.5 L0.25,-1.5 L0.25,-2.375 L3.15625,-6.39063 L3.73438,-6.39063 L3.73438,-2.23438 L4.6875,-2.23438 L4.6875,-1.5 L3.73438,-1.5 L3.73438,0 L2.9375,0 L2.9375,-1.5 M2.9375,-2.23438 L2.9375,-5.03125 L0.9375,-2.23438 L2.9375,-2.23438 "/>
<path class="Note" fill="#9f000f" transform="matrix(0.9936,0,0,0.9936,469.239,87.696)" d="M4.39063,-2.75 C5.01563,-2.75 5.54688,-2.58854 5.98438,-2.26563 C6.38021,-1.91146 6.57813,-1.46875 6.57813,-0.9375 C6.57813,-0.0416667 6.11979,0.796875 5.20313,1.57813 C4.26563,2.35938 3.26042,2.75 2.1875,2.75 C1.5625,2.75 1.03646,2.58854 0.609375,2.26563 C0.203125,1.91146 0,1.46875 0,0.9375 C0,0.0416667 0.46875,-0.796875 1.40625,-1.57813 C2.32292,-2.35938 3.31771,-2.75 4.39063,-2.75"/>
<path class="Note" fill="#ffffff" fill-rule="evenodd" d="M434.271,141.102 L440.232,141.102 L440.232,148.554 L434.271,148.554 L434.271,141.102 "/>
<path class="Note" transform="matrix(0.9936,0,0,0.9936,434.768,148.306)" d="M4.6875,-6.39063 L4.6875,-5.75 C3.46875,-4.125 2.66146,-2.49479 2.26563,-0.859375 C2.19271,-0.578125 2.13542,-0.291667 2.09375,0 L1.25,0 C1.54167,-1.32292 1.96875,-2.5 2.53125,-3.53125 C2.86458,-4.14583 3.30729,-4.84896 3.85938,-5.64063 L0.421875,-5.64063 L0.421875,-6.39063 L4.6875,-6.39063 "/>
<path class="Note" fill="#ff9933" transform="matrix(0.9936,0,0,0.9936,433.526,82.728)" d="M4.39063,-2.75 C5.01563,-2.75 5.54688,-2.58854 5.98438,-2.26563 C6.38021,-1.91146 6.57813,-1.46875 6.57813,-0.9375 C6.57813,-0.0416667 6.11979,0.796875 5.20313,1.57813 C4.26563,2.35938 3.26042,2.75 2.1875,2.75 C1.5625,2.75 1.03646,2.58854 0.609375,2.26563 C0.203125,1.91146 0,1.46875 0,0.9375 C0,0.0416667 0.46875,-0.796875 1.40625,-1.57813 C2.32292,-2.35938 3.31771,-2.75 4.39063,-2.75"/>
<path class="Note" fill="#ffffff" fill-rule="evenodd" d="M398.557,133.65 L404.519,133.65 L404.519,141.102 L398.557,141.102 L398.557,133.65 "/>
<path class="Note" transform="matrix(0.9936,0,0,0.9936,399.054,140.854)" d="M4.6875,-6.39063 L4.6875,-5.75 C3.46875,-4.125 2.66146,-2.49479 2.26563,-0.859375 C2.19271,-0.578125 2.13542,-0.291667 2.09375,0 L1.25,0 C1.54167,-1.32292 1.96875,-2.5 2.53125,-3.53125 C2.86458,-4.14583 3.30729,-4.84896 3.85938,-5.64063 L0.421875,-5.64063 L0.421875,-6.39063 L4.6875,-6.39063 "/>
<path class="Note" fill="#cc00ff" transform="matrix(0.9936,0,0,0.9936,397.812,75.276)" d="M4.39063,-2.75 C5.01563,-2.75 5.54688,-2.58854 5.98438,-2.26563 C6.38021,-1.91146 6.57813,-1.46875 6.57813,-0.9375 C6.57813,-0.0416667 6.11979,0.796875 5.20313,1.57813 C4.26563,2.35938 3.26042,2.75 2.1875,2.75 C1.5625,2.75 1.03646,2.58854 0.609375,2.26563 C0.203125,1.91146 0,1.46875 0,0.9375 C0,0.0416667 0.46875,-0.796875 1.40625,-1.57813 C2.32292,-2.35938 3.31771,-2.75 4.39063,-2.75"/>
<path class="Note" fill="#ffffff" fill-rule="evenodd" d="M362.844,126.198 L368.806,126.198 L368.806,133.65 L362.844,133.65 L362.844,126.198 "/>
<path class="Note" transform="matrix(0.9936,0,0,0.9936,363.341,133.402)" d="M0.390625,-2.90625 C0.390625,-4.76042 0.901042,-5.875 1.92188,-6.25 C2.16146,-6.34375 2.41146,-6.39063 2.67188,-6.39063 C3.35938,-6.39063 3.86979,-6.10938 4.20313,-5.54688 C4.33854,-5.30729 4.43229,-5.03125 4.48438,-4.71875 L3.6875,-4.71875 C3.58333,-5.22917 3.3125,-5.53125 2.875,-5.625 C2.79167,-5.63542 2.70833,-5.64063 2.625,-5.64063 C1.95833,-5.64063 1.52083,-5.21875 1.3125,-4.375 C1.23958,-4.04167 1.20313,-3.67188 1.20313,-3.26563 C1.55729,-3.75521 2.04688,-4 2.67188,-4 C3.33854,-4 3.85417,-3.75 4.21875,-3.25 C4.48958,-2.88542 4.625,-2.45833 4.625,-1.96875 C4.625,-1.23958 4.375,-0.671875 3.875,-0.265625 C3.5,0.046875 3.05208,0.203125 2.53125,0.203125 C1.10417,0.192708 0.390625,-0.84375 0.390625,-2.90625 M2.5625,-3.26563 C2.05208,-3.26563 1.67708,-3.07292 1.4375,-2.6875 C1.3125,-2.46875 1.25,-2.21875 1.25,-1.9375 C1.25,-1.4375 1.43229,-1.04688 1.79688,-0.765625 C2.00521,-0.609375 2.25,-0.53125 2.53125,-0.53125 C2.98958,-0.53125 3.33854,-0.71875 3.57813,-1.09375 C3.73438,-1.33333 3.8125,-1.60417 3.8125,-1.90625 C3.8125,-2.51042 3.59896,-2.92188 3.17188,-3.14063 C2.99479,-3.22396 2.79167,-3.26563 2.5625,-3.26563"/>
<path class="Note" fill="#9f000f" transform="matrix(0.9936,0,0,0.9936,362.099,70.308)" d="M4.39063,-2.75 C5.01563,-2.75 5.54688,-2.58854 5.98438,-2.26563 C6.38021,-1.91146 6.57813,-1.46875 6.57813,-0.9375 C6.57813,-0.0416667 6.11979,0.796875 5.20313,1.57813 C4.26563,2.35938 3.26042,2.75 2.1875,2.75 C1.5625,2.75 1.03646,2.58854 0.609375,2.26563 C0.203125,1.91146 0,1.46875 0,0.9375 C0,0.0416667 0.46875,-0.796875 1.40625,-1.57813 C2.32292,-2.35938 3.31771,-2.75 4.39063,-2.75"/>
<path class="Note" fill="#ffffff" fill-rule="evenodd" d="M327.131,118.746 L333.092,118.746 L333.092,126.198 L327.131,126.198 L327.131,118.746 "/>
<path class="Note" transform="matrix(0.9936,0,0,0.9936,327.627,125.95)" d="M4.28125,-6.39063 L4.28125,-5.64063 L1.625,-5.64063 L1.375,-3.8125 C1.73958,-4.09375 2.13542,-4.23438 2.5625,-4.23438 C3.28125,-4.23438 3.83333,-3.97396 4.21875,-3.45313 C4.48958,-3.07813 4.625,-2.625 4.625,-2.09375 C4.625,-1.3125 4.35938,-0.708333 3.82813,-0.28125 C3.44271,0.0416667 2.97917,0.203125 2.4375,0.203125 C1.26042,0.203125 0.557292,-0.359375 0.328125,-1.48438 C0.328125,-1.50521 0.322917,-1.53125 0.3125,-1.5625 L1.10938,-1.5625 C1.30729,-0.885417 1.73958,-0.541667 2.40625,-0.53125 C3.02083,-0.53125 3.44271,-0.770833 3.67188,-1.25 C3.76563,-1.46875 3.8125,-1.71354 3.8125,-1.98438 C3.8125,-2.63021 3.58333,-3.07813 3.125,-3.32813 C2.91667,-3.44271 2.67708,-3.5 2.40625,-3.5 C2.03125,-3.5 1.70833,-3.38021 1.4375,-3.14063 C1.375,-3.07813 1.3125,-3.01042 1.25,-2.9375 L0.515625,-2.9375 L0.984375,-6.39063 L4.28125,-6.39063 "/>
<path class="Note" fill="#ff9933" transform="matrix(0.9936,0,0,0.9936,326.385,65.34)" d="M4.39063,-2.75 C5.01563,-2.75 5.54688,-2.58854 5.98438,-2.26563 C6.38021,-1.91146 6.57813,-1.46875 6.57813,-0.9375 C6.57813,-0.0416667 6.11979,0.796875 5.20313,1.57813 C4.26563,2.35938 3.26042,2.75 2.1875,2.75 C1.5625,2.75 1.03646,2.58854 0.609375,2.26563 C0.203125,1.91146 0,1.46875 0,0.9375 C0,0.0416667 0.46875,-0.796875 1.40625,-1.57813 C2.32292,-2.35938 3.31771,-2.75 4.39063,-2.75"/>
<path class="Note" fill="#ffffff" fill-rule="evenodd" d="M291.417,111.294 L297.379,111.294 L297.379,118.746 L291.417,118.746 L291.417,111.294 "/>
<path class="Note" transform="matrix(0.9936,0,0,0.9936,291.914,118.498)" d="M4.28125,-6.39063 L4.28125,-5.64063 L1.625,-5.64063 L1.375,-3.8125 C1.73958,-4.09375 2.13542,-4.23438 2.5625,-4.23438 C3.28125,-4.23438 3.83333,-3.97396 4.21875,-3.45313 C4.48958,-3.07813 4.625,-2.625 4.625,-2.09375 C4.625,-1.3125 4.35938,-0.708333 3.82813,-0.28125 C3.44271,0.0416667 2.97917,0.203125 2.4375,0.203125 C1.26042,0.203125 0.557292,-0.359375 0.328125,-1.48438 C0.328125,-1.50521 0.322917,-1.53125 0.3125,-1.5625 L1.10938,-1.5625 C1.30729,-0.885417 1.73958,-0.541667 2.40625,-0.53125 C3.02083,-0.53125 3.44271,-0.770833 3.67188,-1.25 C3.76563,-1.46875 3.8125,-1.71354 3.8125,-1.98438 C3.8125,-2.63021 3.58333,-3.07813 3.125,-3.32813 C2.91667,-3.44271 2.67708,-3.5 2.40625,-3.5 C2.03125,-3.5 1.70833,-3.38021 1.4375,-3.14063 C1.375,-3.07813 1.3125,-3.01042 1.25,-2.9375 L0.515625,-2.9375 L0.984375,-6.39063 L4.28125,-6.39063 "/>
<path class="Note" fill="#cc00ff" transform="matrix(0.9936,0,0,0.9936,290.672,57.888)" d="M4.39063,-2.75 C5.01563,-2.75 5.54688,-2.58854 5.98438,-2.26563 C6.38021,-1.91146 6.57813,-1.46875 6.57813,-0.9375 C6.57813,-0.0416667 6.11979,0.796875 5.20313,1.57813 C4.26563,2.35938 3.26042,2.75 2.1875,2.75 C1.5625,2.75 1.03646,2.58854 0.609375,2.26563 C0.203125,1.91146 0,1.46875 0,0.9375 C0,0.0416667 0.46875,-0.796875 1.40625,-1.57813 C2.32292,-2.35938 3.31771,-2.75 4.39063,-2.75"/>
<path class="Note" fill="#ffffff" fill-rule="evenodd" d="M255.704,118.746 L261.665,118.746 L261.665,126.198 L255.704,126.198 L255.704,118.746 "/>
<path class="Note" transform="matrix(0.9936,0,0,0.9936,256.201,125.95)" d="M4.28125,-6.39063 L4.28125,-5.64063 L1.625,-5.64063 L1.375,-3.8125 C1.73958,-4.09375 2.13542,-4.23438 2.5625,-4.23438 C3.28125,-4.23438 3.83333,-3.97396 4.21875,-3.45313 C4.48958,-3.07813 4.625,-2.625 4.625,-2.09375 C4.625,-1.3125 4.35938,-0.708333 3.82813,-0.28125 C3.44271,0.0416667 2.97917,0.203125 2.4375,0.203125 C1.26042,0.203125 0.557292,-0.359375 0.328125,-1.48438 C0.328125,-1.50521 0.322917,-1.53125 0.3125,-1.5625 L1.10938,-1.5625 C1.30729,-0.885417 1.73958,-0.541667 2.40625,-0.53125 C3.02083,-0.53125 3.44271,-0.770833 3.67188,-1.25 C3.76563,-1.46875 3.8125,-1.71354 3.8125,-1.98438 C3.8125,-2.63021 3.58333,-3.07813 3.125,-3.32813 C2.91667,-3.44271 2.67708,-3.5 2.40625,-3.5 C2.03125,-3.5 1.70833,-3.38021 1.4375,-3.14063 C1.375,-3.07813 1.3125,-3.01042 1.25,-2.9375 L0.515625,-2.9375 L0.984375,-6.39063 L4.28125,-6.39063 "/>
<path class="Note" fill="#ff9933" transform="matrix(0.9936,0,0,0.9936,254.959,65.34)" d="M4.39063,-2.75 C5.01563,-2.75 5.54688,-2.58854 5.98438,-2.26563 C6.38021,-1.91146 6.57813,-1.46875 6.57813,-0.9375 C6.57813,-0.0416667 6.11979,0.796875 5.20313,1.57813 C4.26563,2.35938 3.26042,2.75 2.1875,2.75 C1.5625,2.75 1.03646,2.58854 0.609375,2.26563 C0.203125,1.91146 0,1.46875 0,0.9375 C0,0.0416667 0.46875,-0.796875 1.40625,-1.57813 C2.32292,-2.35938 3.31771,-2.75 4.39063,-2.75"/>
<path class="Note" fill="#ffffff" fill-rule="evenodd" d="M219.99,126.198 L225.952,126.198 L225.952,133.65 L219.99,133.65 L219.99,126.198 "/>
<path class="Note" transform="matrix(0.9936,0,0,0.9936,220.487,133.402)" d="M0.390625,-2.90625 C0.390625,-4.76042 0.901042,-5.875 1.92188,-6.25 C2.16146,-6.34375 2.41146,-6.39063 2.67188,-6.39063 C3.35938,-6.39063 3.86979,-6.10938 4.20313,-5.54688 C4.33854,-5.30729 4.43229,-5.03125 4.48438,-4.71875 L3.6875,-4.71875 C3.58333,-5.22917 3.3125,-5.53125 2.875,-5.625 C2.79167,-5.63542 2.70833,-5.64063 2.625,-5.64063 C1.95833,-5.64063 1.52083,-5.21875 1.3125,-4.375 C1.23958,-4.04167 1.20313,-3.67188 1.20313,-3.26563 C1.55729,-3.75521 2.04688,-4 2.67188,-4 C3.33854,-4 3.85417,-3.75 4.21875,-3.25 C4.48958,-2.88542 4.625,-2.45833 4.625,-1.96875 C4.625,-1.23958 4.375,-0.671875 3.875,-0.265625 C3.5,0.046875 3.05208,0.203125 2.53125,0.203125 C1.10417,0.192708 0.390625,-0.84375 0.390625,-2.90625 M2.5625,-3.26563 C2.05208,-3.26563 1.67708,-3.07292 1.4375,-2.6875 C1.3125,-2.46875 1.25,-2.21875 1.25,-1.9375 C1.25,-1.4375 1.43229,-1.04688 1.79688,-0.765625 C2.00521,-0.609375 2.25,-0.53125 2.53125,-0.53125 C2.98958,-0.53125 3.33854,-0.71875 3.57813,-1.09375 C3.73438,-1.33333 3.8125,-1.60417 3.8125,-1.90625 C3.8125,-2.51042 3.59896,-2.92188 3.17188,-3.14063 C2.99479,-3.22396 2.79167,-3.26563 2.5625,-3.26563"/>
<path class="Note" fill="#9f000f" transform="matrix(0.9936,0,0,0.9936,219.245,70.308)" d="M4.39063,-2.75 C5.01563,-2.75 5.54688,-2.58854 5.98438,-2.26563 C6.38021,-1.91146 6.57813,-1.46875 6.57813,-0.9375 C6.57813,-0.0416667 6.11979,0.796875 5.20313,1.57813 C4.26563,2.35938 3.26042,2.75 2.1875,2.75 C1.5625,2.75 1.03646,2.58854 0.609375,2.26563 C0.203125,1.91146 0,1.46875 0,0.9375 C0,0.0416667 0.46875,-0.796875 1.40625,-1.57813 C2.32292,-2.35938 3.31771,-2.75 4.39063,-2.75"/>
<path class="Note" fill="#ffffff" fill-rule="evenodd" d="M184.277,133.65 L190.239,133.65 L190.239,141.102 L184.277,141.102 L184.277,133.65 "/>
<path class="Note" transform="matrix(0.9936,0,0,0.9936,184.774,140.854)" d="M4.6875,-6.39063 L4.6875,-5.75 C3.46875,-4.125 2.66146,-2.49479 2.26563,-0.859375 C2.19271,-0.578125 2.13542,-0.291667 2.09375,0 L1.25,0 C1.54167,-1.32292 1.96875,-2.5 2.53125,-3.53125 C2.86458,-4.14583 3.30729,-4.84896 3.85938,-5.64063 L0.421875,-5.64063 L0.421875,-6.39063 L4.6875,-6.39063 "/>
<path class="Note" fill="#cc00ff" transform="matrix(0.9936,0,0,0.9936,183.532,75.276)" d="M4.39063,-2.75 C5.01563,-2.75 5.54688,-2.58854 5.98438,-2.26563 C6.38021,-1.91146 6.57813,-1.46875 6.57813,-0.9375 C6.57813,-0.0416667 6.11979,0.796875 5.20313,1.57813 C4.26563,2.35938 3.26042,2.75 2.1875,2.75 C1.5625,2.75 1.03646,2.58854 0.609375,2.26563 C0.203125,1.91146 0,1.46875 0,0.9375 C0,0.0416667 0.46875,-0.796875 1.40625,-1.57813 C2.32292,-2.35938 3.31771,-2.75 4.39063,-2.75"/>
<path class="Note" fill="#ffffff" fill-rule="evenodd" d="M148.564,141.102 L154.525,141.102 L154.525,148.554 L148.564,148.554 L148.564,141.102 "/>
<path class="Note" transform="matrix(0.9936,0,0,0.9936,149.06,148.306)" d="M4.6875,-6.39063 L4.6875,-5.75 C3.46875,-4.125 2.66146,-2.49479 2.26563,-0.859375 C2.19271,-0.578125 2.13542,-0.291667 2.09375,0 L1.25,0 C1.54167,-1.32292 1.96875,-2.5 2.53125,-3.53125 C2.86458,-4.14583 3.30729,-4.84896 3.85938,-5.64063 L0.421875,-5.64063 L0.421875,-6.39063 L4.6875,-6.39063 "/>
<path class="Note" fill="#ff9933" transform="matrix(0.9936,0,0,0.9936,147.818,82.728)" d="M4.39063,-2.75 C5.01563,-2.75 5.54688,-2.58854 5.98438,-2.26563 C6.38021,-1.91146 6.57813,-1.46875 6.57813,-0.9375 C6.57813,-0.0416667 6.11979,0.796875 5.20313,1.57813 C4.26563,2.35938 3.26042,2.75 2.1875,2.75 C1.5625,2.75 1.03646,2.58854 0.609375,2.26563 C0.203125,1.91146 0,1.46875 0,0.9375 C0,0.0416667 0.46875,-0.796875 1.40625,-1.57813 C2.32292,-2.35938 3.31771,-2.75 4.39063,-2.75"/>
<path class="Note" fill="#ffffff" fill-rule="evenodd" d="M112.85,141.102 L118.812,141.102 L118.812,148.554 L112.85,148.554 L112.85,141.102 "/>
<path class="Note" transform="matrix(0.9936,0,0,0.9936,113.347,148.306)" d="M2.9375,-1.5 L0.25,-1.5 L0.25,-2.375 L3.15625,-6.39063 L3.73438,-6.39063 L3.73438,-2.23438 L4.6875,-2.23438 L4.6875,-1.5 L3.73438,-1.5 L3.73438,0 L2.9375,0 L2.9375,-1.5 M2.9375,-2.23438 L2.9375,-5.03125 L0.9375,-2.23438 L2.9375,-2.23438 "/>
<path class="Note" fill="#9f000f" transform="matrix(0.9936,0,0,0.9936,112.105,87.696)" d="M4.39063,-2.75 C5.01563,-2.75 5.54688,-2.58854 5.98438,-2.26563 C6.38021,-1.91146 6.57813,-1.46875 6.57813,-0.9375 C6.57813,-0.0416667 6.11979,0.796875 5.20313,1.57813 C4.26563,2.35938 3.26042,2.75 2.1875,2.75 C1.5625,2.75 1.03646,2.58854 0.609375,2.26563 C0.203125,1.91146 0,1.46875 0,0.9375 C0,0.0416667 0.46875,-0.796875 1.40625,-1.57813 C2.32292,-2.35938 3.31771,-2.75 4.39063,-2.75"/>
<path class="Note" fill="#ffffff" fill-rule="evenodd" d="M77.1367,148.554 L83.0983,148.554 L83.0983,156.006 L77.1367,156.006 L77.1367,148.554 "/>
<path class="Note" transform="matrix(0.9936,0,0,0.9936,77.6335,155.758)" d="M4.28125,-6.39063 L4.28125,-5.64063 L1.625,-5.64063 L1.375,-3.8125 C1.73958,-4.09375 2.13542,-4.23438 2.5625,-4.23438 C3.28125,-4.23438 3.83333,-3.97396 4.21875,-3.45313 C4.48958,-3.07813 4.625,-2.625 4.625,-2.09375 C4.625,-1.3125 4.35938,-0.708333 3.82813,-0.28125 C3.44271,0.0416667 2.97917,0.203125 2.4375,0.203125 C1.26042,0.203125 0.557292,-0.359375 0.328125,-1.48438 C0.328125,-1.50521 0.322917,-1.53125 0.3125,-1.5625 L1.10938,-1.5625 C1.30729,-0.885417 1.73958,-0.541667 2.40625,-0.53125 C3.02083,-0.53125 3.44271,-0.770833 3.67188,-1.25 C3.76563,-1.46875 3.8125,-1.71354 3.8125,-1.98438 C3.8125,-2.63021 3.58333,-3.07813 3.125,-3.32813 C2.91667,-3.44271 2.67708,-3.5 2.40625,-3.5 C2.03125,-3.5 1.70833,-3.38021 1.4375,-3.14063 C1.375,-3.07813 1.3125,-3.01042 1.25,-2.9375 L0.515625,-2.9375 L0.984375,-6.39063 L4.28125,-6.39063 "/>
<path class="Note" fill="#cc00ff" transform="matrix(0.9936,0,0,0.9936,76.3915,92.664)" d="M4.39063,-2.75 C5.01563,-2.75 5.54688,-2.58854 5.98438,-2.26563 C6.38021,-1.91146 6.57813,-1.46875 6.57813,-0.9375 C6.57813,-0.0416667 6.11979,0.796875 5.20313,1.57813 C4.26563,2.35938 3.26042,2.75 2.1875,2.75 C1.5625,2.75 1.03646,2.58854 0.609375,2.26563 C0.203125,1.91146 0,1.46875 0,0.9375 C0,0.0416667 0.46875,-0.796875 1.40625,-1.57813 C2.32292,-2.35938 3.31771,-2.75 4.39063,-2.75"/>
<path class="Clef" transform="matrix(0.9936,0,0,0.9936,32.0544,133.65)" d="M5.32813,8.5 C5.32813,8.86458 5.04167,9.04688 4.46875,9.04688 C4.02083,9.04688 3.625,8.91146 3.28125,8.64063 C2.95833,8.34896 2.79688,7.98438 2.79688,7.54688 C2.79688,6.76563 3.27083,6.14063 4.21875,5.67188 C5.14583,5.18229 6.23438,4.9375 7.48438,4.9375 C7.96354,4.9375 8.47917,4.97396 9.03125,5.04688 C9.42708,5.09896 9.875,5.20313 10.375,5.35938 C10.8125,5.49479 11.1563,5.70573 11.4063,5.99219 C11.6563,6.27865 11.7813,6.61458 11.7813,7 C11.7813,7.89583 11.3177,8.63021 10.3906,9.20313 C11.7448,9.45313 12.4271,10.0573 12.4375,11.0156 C12.4375,11.8281 12.0729,12.5599 11.3438,13.2109 C10.6146,13.862 9.79167,14.1875 8.875,14.1875 C8.47917,14.1875 8.07813,14.0938 7.67188,13.9063 C7.29688,13.7292 7.03125,13.5625 6.875,13.4063 C6.71875,13.2188 6.64063,13.0781 6.64063,12.9844 C6.64063,12.8594 6.70833,12.75 6.84375,12.6563 C6.95833,12.5417 7.07813,12.4844 7.20313,12.4844 C7.25521,12.4844 7.36719,12.5677 7.53906,12.7344 C7.71094,12.901 7.95833,12.9844 8.28125,12.9844 C8.72917,12.9844 9.16146,12.7969 9.57813,12.4219 C9.97396,12.0573 10.1719,11.6198 10.1719,11.1094 C10.1719,10.6719 9.98438,10.3542 9.60938,10.1563 C9.24479,9.95833 8.76563,9.85938 8.17188,9.85938 C8.06771,9.85938 8.01563,9.75 8.01563,9.53125 C8.01563,9.21875 8.13021,9.0625 8.35938,9.0625 C8.72396,9.0625 9.05208,8.90625 9.34375,8.59375 C9.61458,8.26042 9.75,7.90104 9.75,7.51563 C9.75,7.40104 9.71875,7.22917 9.65625,7 C9.60417,6.84375 9.44792,6.65104 9.1875,6.42188 C8.9375,6.21354 8.58854,6.07292 8.14063,6 C8.02604,6.63542 7.88021,7.44792 7.70313,8.4375 C7.52604,9.42708 7.40625,10.0781 7.34375,10.3906 C7.125,11.5156 6.72396,12.4583 6.14063,13.2188 C5.52604,14.0313 4.86458,14.4375 4.15625,14.4375 C3.9375,14.4375 3.71354,14.3854 3.48438,14.2813 C3.29688,14.1979 3.0625,14.0365 2.78125,13.7969 C2.52083,13.5885 2.34375,13.4479 2.25,13.375 C2.19792,13.3438 2.17188,13.2865 2.17188,13.2031 C2.17188,13.0781 2.21875,12.9635 2.3125,12.8594 C2.41667,12.7344 2.52604,12.6719 2.64063,12.6719 C2.71354,12.6719 2.89323,12.7969 3.17969,13.0469 C3.46615,13.2969 3.76563,13.4219 4.07813,13.4219 C4.68229,13.4219 5.13542,13.0365 5.4375,12.2656 C5.71875,11.526 5.85938,10.6094 5.85938,9.51563 L5.85938,9.35938 C5.85938,8.63021 5.97917,7.54167 6.21875,6.09375 C5.80208,6.22917 5.46875,6.42708 5.21875,6.6875 C4.95833,6.94792 4.82813,7.21875 4.82813,7.5 C4.82813,7.71875 4.91146,7.90625 5.07813,8.0625 C5.24479,8.21875 5.32813,8.36458 5.32813,8.5 M1.40625,2.39063 C1.46875,2.39063 1.625,2.45313 1.875,2.57813 C2.13542,2.71354 2.35938,2.78125 2.54688,2.78125 C3.03646,2.78125 3.64063,2.42188 4.35938,1.70313 C6.43229,-0.411458 7.85938,-2.65104 8.64063,-5.01563 C8.79688,-5.51563 9.17708,-5.76563 9.78125,-5.76563 C10.0938,-5.76563 10.3646,-5.69792 10.5938,-5.5625 C10.8125,-5.42708 10.9219,-5.28646 10.9219,-5.14063 L10.5625,2.17188 C10.5625,2.55729 10.7031,2.75 10.9844,2.75 C11.1198,2.75 11.3281,2.6875 11.6094,2.5625 C11.8698,2.42708 12.026,2.35938 12.0781,2.35938 C12.1823,2.35938 12.2448,2.47396 12.2656,2.70313 C12.2656,2.91146 12.1823,3.04167 12.0156,3.09375 C11.8802,3.125 11.6198,3.24479 11.2344,3.45313 C10.8281,3.66146 10.5104,3.76563 10.2813,3.76563 C9.78125,3.76563 9.42708,3.375 9.21875,2.59375 C8.89583,1.375 8.6875,0.104167 8.59375,-1.21875 C8.07292,-0.552083 7.49479,0.119792 6.85938,0.796875 C7.08854,1.24479 7.51563,1.46875 8.14063,1.46875 C8.23438,1.46875 8.30729,1.46354 8.35938,1.45313 L8.375,1.45313 C8.47917,1.45313 8.53125,1.54688 8.53125,1.73438 C8.53125,1.98438 8.44792,2.13542 8.28125,2.1875 C8.01042,2.28125 7.72396,2.32813 7.42188,2.32813 C6.77604,2.32813 6.30729,2.10417 6.01563,1.65625 L5.23438,2.35938 C4.14063,3.29688 3.25,3.76563 2.5625,3.76563 C2.375,3.76563 2.1875,3.73438 2,3.67188 C1.84375,3.60938 1.66146,3.51042 1.45313,3.375 C1.36979,3.34375 1.27865,3.29688 1.17969,3.23438 C1.08073,3.17188 1.02083,3.13542 1,3.125 C0.9375,3.10417 0.90625,3.04688 0.90625,2.95313 C0.90625,2.84896 0.958333,2.72396 1.0625,2.57813 C1.14583,2.45313 1.26042,2.39063 1.40625,2.39063 M5.76563,-10.7969 C5.76563,-10.474 5.48438,-10.3125 4.92188,-10.3125 C4.43229,-10.3125 4.00521,-10.474 3.64063,-10.7969 C3.28646,-11.1302 3.10938,-11.5313 3.10938,-12 C3.10938,-12.4479 3.25,-12.8385 3.53125,-13.1719 C3.83333,-13.5052 4.21875,-13.7552 4.6875,-13.9219 C5.11458,-14.0781 5.59896,-14.2031 6.14063,-14.2969 C6.69271,-14.3594 7.22396,-14.3906 7.73438,-14.3906 C8.03646,-14.3906 8.59896,-14.2552 9.42188,-13.9844 C10.2552,-13.7135 10.8333,-13.5781 11.1563,-13.5781 C11.5625,-13.5781 11.9479,-13.651 12.3125,-13.7969 C12.6042,-13.9219 12.8906,-14.0677 13.1719,-14.2344 C13.3906,-14.3802 13.5104,-14.4531 13.5313,-14.4531 C13.6563,-14.4531 13.7604,-14.4167 13.8438,-14.3438 C13.9479,-14.2396 14,-14.151 14,-14.0781 C14,-13.9948 13.8802,-13.849 13.6406,-13.6406 C13.3802,-13.401 13.0078,-13.1641 12.5234,-12.9297 C12.0391,-12.6953 11.5313,-12.5781 11,-12.5781 C10.7604,-12.5781 10.4688,-12.6198 10.125,-12.7031 C9.89583,-11.2552 9.66146,-9.96875 9.42188,-8.84375 C9.21354,-7.85417 8.79688,-6.98958 8.17188,-6.25 C7.56771,-5.51042 6.89583,-5.14063 6.15625,-5.14063 C5.85417,-5.14063 5.58854,-5.19792 5.35938,-5.3125 C5.09896,-5.44792 4.82292,-5.64583 4.53125,-5.90625 C4.30208,-6.09375 4.08333,-6.26563 3.875,-6.42188 C3.82292,-6.46354 3.79688,-6.52604 3.79688,-6.60938 C3.79688,-6.69271 3.84896,-6.80729 3.95313,-6.95313 C4.05729,-7.06771 4.15104,-7.125 4.23438,-7.125 C4.31771,-7.125 4.54167,-6.96354 4.90625,-6.64063 C5.27083,-6.31771 5.59375,-6.15625 5.875,-6.15625 C6.39583,-6.15625 6.80208,-6.45313 7.09375,-7.04688 C7.375,-7.64063 7.53646,-8.34375 7.57813,-9.15625 C7.64063,-10.5 7.79167,-11.8906 8.03125,-13.3281 C7.73958,-13.3906 7.52604,-13.4219 7.39063,-13.4219 C6.76563,-13.4219 6.22917,-13.2917 5.78125,-13.0313 C5.34375,-12.7813 5.125,-12.4427 5.125,-12.0156 C5.125,-11.7031 5.22917,-11.4635 5.4375,-11.2969 C5.65625,-11.1094 5.76563,-10.9427 5.76563,-10.7969"/>
<path class="Clef" transform="matrix(0.9936,0,0,0.9936,32.0544,77.76)" d="M7.34375,-5.125 C7.34375,-5.125 7.38542,-5.125 7.46875,-5.125 C7.52083,-5.13542 7.5625,-5.14063 7.59375,-5.14063 C9.05208,-5.14063 10.25,-4.625 11.1875,-3.59375 C12.125,-2.58333 12.5938,-1.40104 12.5938,-0.046875 C12.5938,1.64063 11.901,3.01042 10.5156,4.0625 C10.151,4.35417 9.67188,4.58854 9.07813,4.76563 C9.15104,5.60938 9.1875,6.29167 9.1875,6.8125 C9.1875,6.91667 9.17188,7.29688 9.14063,7.95313 C9.08854,9.16146 8.67188,10.2083 7.89063,11.0938 C7.14063,11.9688 6.20313,12.4063 5.07813,12.4063 C4.02604,12.4063 3.13021,12.0365 2.39063,11.2969 C1.64063,10.5365 1.26563,9.625 1.26563,8.5625 C1.26563,8 1.48438,7.52083 1.92188,7.125 C2.35938,6.73958 2.86979,6.54688 3.45313,6.54688 C3.97396,6.54688 4.41146,6.75 4.76563,7.15625 C5.13021,7.53125 5.3125,8 5.3125,8.5625 C5.3125,9.0625 5.13021,9.49479 4.76563,9.85938 C4.40104,10.224 3.96354,10.4063 3.45313,10.4063 C3.24479,10.4063 3.04688,10.3698 2.85938,10.2969 C3.43229,11.1406 4.19271,11.5625 5.14063,11.5625 C6.03646,11.5625 6.77083,11.1979 7.34375,10.4688 C7.94792,9.71875 8.27604,8.83854 8.32813,7.82813 C8.34896,7.20313 8.35938,6.84896 8.35938,6.76563 C8.35938,6.03646 8.33333,5.4375 8.28125,4.96875 C7.63542,5.07292 7.05729,5.125 6.54688,5.125 C4.73438,5.125 3.19271,4.40625 1.92188,2.96875 C0.671875,1.52083 0.046875,-0.197917 0.046875,-2.1875 C0.046875,-2.60417 0.0833333,-3.02604 0.15625,-3.45313 C0.239583,-3.80729 0.338542,-4.19271 0.453125,-4.60938 C0.515625,-4.84896 0.692708,-5.22917 0.984375,-5.75 C1.08854,-5.90625 1.20573,-6.10156 1.33594,-6.33594 C1.46615,-6.57031 1.55729,-6.72396 1.60938,-6.79688 C1.73438,-7.05729 1.98438,-7.41146 2.35938,-7.85938 C2.46354,-7.97396 2.57292,-8.10156 2.6875,-8.24219 C2.80208,-8.38281 2.89844,-8.5 2.97656,-8.59375 C3.05469,-8.6875 3.11198,-8.76042 3.14844,-8.8125 C3.1849,-8.86458 3.47917,-9.20833 4.03125,-9.84375 C4.15625,-9.97917 4.28125,-10.1198 4.40625,-10.2656 C4.53125,-10.4115 4.63281,-10.5286 4.71094,-10.6172 C4.78906,-10.7057 4.84896,-10.7656 4.89063,-10.7969 C4.42188,-12.349 4.125,-13.5885 4,-14.5156 C3.91667,-15.2552 3.875,-16.2708 3.875,-17.5625 C3.875,-18.6979 4.13542,-19.7604 4.65625,-20.75 C5.15625,-21.7708 5.86458,-22.6094 6.78125,-23.2656 C6.84375,-23.3073 6.90625,-23.3281 6.96875,-23.3281 C7.0625,-23.3281 7.13021,-23.3073 7.17188,-23.2656 C7.86979,-22.4219 8.47396,-21.3229 8.98438,-19.9688 C9.50521,-18.6146 9.76563,-17.3802 9.76563,-16.2656 C9.76563,-15.0156 9.46875,-13.8438 8.875,-12.75 C8.19792,-11.5938 7.32292,-10.3958 6.25,-9.15625 C6.52083,-8.30208 6.88542,-6.95833 7.34375,-5.125 M9,3.96875 C9.67708,3.71875 10.2083,3.29688 10.5938,2.70313 C11.0104,2.13021 11.2188,1.48438 11.2188,0.765625 C11.2188,-0.161458 10.9063,-0.984375 10.2813,-1.70313 C9.63542,-2.44271 8.81771,-2.85938 7.82813,-2.95313 C8.39063,-0.203125 8.78125,2.10417 9,3.96875 M1.45313,-0.546875 C1.45313,0.744792 1.97396,1.88021 3.01563,2.85938 C4.07813,3.80729 5.27604,4.28125 6.60938,4.28125 C7.15104,4.28125 7.68229,4.23958 8.20313,4.15625 C7.99479,2.17708 7.58333,-0.192708 6.96875,-2.95313 C6.22917,-2.86979 5.64063,-2.60938 5.20313,-2.17188 C4.76563,-1.71354 4.54688,-1.19792 4.54688,-0.625 C4.54688,0.364583 5.07813,1.16667 6.14063,1.78125 C6.22396,1.875 6.26563,1.97396 6.26563,2.07813 C6.26563,2.18229 6.22396,2.27604 6.14063,2.35938 C6.05729,2.45313 5.95833,2.5 5.84375,2.5 C5.83333,2.5 5.77604,2.48958 5.67188,2.46875 C4.92188,2.0625 4.34896,1.54167 3.95313,0.90625 C3.56771,0.21875 3.375,-0.46875 3.375,-1.15625 C3.375,-2.05208 3.65625,-2.86458 4.21875,-3.59375 C4.80208,-4.32292 5.5625,-4.79167 6.5,-5 C6.13542,-6.45833 5.83854,-7.59896 5.60938,-8.42188 C5.40104,-8.18229 5.15104,-7.89844 4.85938,-7.57031 C4.56771,-7.24219 4.39583,-7.04167 4.34375,-6.96875 C3.875,-6.36458 3.51563,-5.89063 3.26563,-5.54688 C2.81771,-4.93229 2.48958,-4.40625 2.28125,-3.96875 C2.0625,-3.46875 1.86979,-2.92708 1.70313,-2.34375 C1.53646,-1.78125 1.45313,-1.18229 1.45313,-0.546875 M7.96875,-20.4063 C6.98958,-19.9271 6.22396,-19.2396 5.67188,-18.3438 C5.09896,-17.4167 4.8125,-16.4219 4.8125,-15.3594 C4.8125,-14.4219 5.04688,-13.1563 5.51563,-11.5625 C6.45313,-12.6979 7.15625,-13.7448 7.625,-14.7031 C8.11458,-15.724 8.35938,-16.7865 8.35938,-17.8906 C8.35938,-18.724 8.22917,-19.5625 7.96875,-20.4063 M5.82813,15.2344 C6.16146,14.901 6.32813,14.5625 6.32813,14.2188 C6.30729,13.9479 6.19271,13.7396 5.98438,13.5938 C5.74479,13.4375 5.46875,13.3594 5.15625,13.3594 C4.9375,13.3594 4.75521,13.4323 4.60938,13.5781 C4.48438,13.7031 4.42188,13.8646 4.42188,14.0625 C4.42188,14.3021 4.51563,14.4792 4.70313,14.5938 L5.82813,15.2344 M6.14063,15.4063 C6.68229,15.7083 6.95313,16.1146 6.95313,16.625 L6.95313,16.6875 C6.95313,17.0833 6.79167,17.4219 6.46875,17.7031 C6.14583,17.9844 5.68229,18.125 5.07813,18.125 C4.58854,18.125 4.16146,17.9948 3.79688,17.7344 C3.43229,17.4844 3.25,17.1458 3.25,16.7188 C3.25,16.5521 3.29167,16.3958 3.375,16.25 C3.47917,16.0833 3.56771,15.9688 3.64063,15.9063 L4,15.5313 C3.60417,15.2604 3.40625,14.901 3.40625,14.4531 C3.40625,14.099 3.5625,13.7865 3.875,13.5156 C4.19792,13.2552 4.625,13.125 5.15625,13.125 C5.60417,13.125 5.98438,13.224 6.29688,13.4219 C6.60938,13.6198 6.76563,13.8854 6.76563,14.2188 C6.76563,14.5729 6.55729,14.9688 6.14063,15.4063 M4.29688,15.7031 C3.91146,16.0469 3.70313,16.3854 3.67188,16.7188 C3.70313,17.0729 3.84896,17.3542 4.10938,17.5625 C4.39063,17.7813 4.71354,17.8906 5.07813,17.8906 C5.33854,17.8906 5.54688,17.8073 5.70313,17.6406 C5.85938,17.4844 5.9375,17.2969 5.9375,17.0781 C5.92708,16.7865 5.8125,16.5781 5.59375,16.4531 L4.29688,15.7031 "/>
<path class="KeySig" transform="matrix(0.9936,0,0,0.9936,59.2852,60.372)" d="M4.3125,6.23438 C4.3125,6.48438 4.1901,6.60938 3.94531,6.60938 C3.70052,6.60938 3.57813,6.48438 3.57813,6.23438 L3.57813,3.34375 L1.92188,3.96875 L1.92188,7.125 C1.92188,7.375 1.79688,7.5 1.54688,7.5 C1.29688,7.5 1.17188,7.375 1.17188,7.125 L1.17188,4.21875 L0.546875,4.45313 C0.536458,4.46354 0.484375,4.46875 0.390625,4.46875 C0.286458,4.46875 0.195313,4.42969 0.117188,4.35156 C0.0390625,4.27344 0,4.18229 0,4.07813 L0,2.875 C0,2.67708 0.0833333,2.55208 0.25,2.5 L1.17188,2.1875 L1.17188,-1.01563 L0.546875,-0.796875 C0.536458,-0.786458 0.484375,-0.78125 0.390625,-0.78125 C0.286458,-0.78125 0.195313,-0.820313 0.117188,-0.898438 C0.0390625,-0.976563 0,-1.06771 0,-1.17188 L0,-2.39063 C0,-2.56771 0.0833333,-2.68229 0.25,-2.73438 L1.17188,-3.09375 L1.17188,-6.23438 C1.17188,-6.48438 1.29688,-6.60938 1.54688,-6.60938 C1.79688,-6.60938 1.92188,-6.48438 1.92188,-6.23438 L1.92188,-3.34375 L3.57813,-3.96875 L3.57813,-7.125 C3.57813,-7.375 3.70052,-7.5 3.94531,-7.5 C4.1901,-7.5 4.3125,-7.375 4.3125,-7.125 L4.3125,-4.21875 L4.96875,-4.45313 C4.97917,-4.46354 5.02083,-4.46875 5.09375,-4.46875 C5.1875,-4.46875 5.28646,-4.43229 5.39063,-4.35938 C5.47396,-4.27604 5.51563,-4.18229 5.51563,-4.07813 L5.51563,-2.875 C5.51563,-2.6875 5.42188,-2.5625 5.23438,-2.5 L4.3125,-2.1875 L4.3125,1.01563 L4.96875,0.796875 C4.97917,0.786458 5.02083,0.78125 5.09375,0.78125 C5.1875,0.78125 5.28646,0.822917 5.39063,0.90625 C5.47396,0.979167 5.51563,1.06771 5.51563,1.17188 L5.51563,2.39063 C5.51563,2.55729 5.42188,2.67188 5.23438,2.73438 L4.3125,3.09375 L4.3125,6.23438 M3.57813,-1.89063 L1.92188,-1.3125 L1.92188,1.89063 L3.57813,1.3125 L3.57813,-1.89063 "/>
<path class="KeySig" transform="matrix(0.9936,0,0,0.9936,54.3173,70.308)" d="M4.3125,6.23438 C4.3125,6.48438 4.1901,6.60938 3.94531,6.60938 C3.70052,6.60938 3.57813,6.48438 3.57813,6.23438 L3.57813,3.34375 L1.92188,3.96875 L1.92188,7.125 C1.92188,7.375 1.79688,7.5 1.54688,7.5 C1.29688,7.5 1.17188,7.375 1.17188,7.125 L1.17188,4.21875 L0.546875,4.45313 C0.536458,4.46354 0.484375,4.46875 0.390625,4.46875 C0.286458,4.46875 0.195313,4.42969 0.117188,4.35156 C0.0390625,4.27344 0,4.18229 0,4.07813 L0,2.875 C0,2.67708 0.0833333,2.55208 0.25,2.5 L1.17188,2.1875 L1.17188,-1.01563 L0.546875,-0.796875 C0.536458,-0.786458 0.484375,-0.78125 0.390625,-0.78125 C0.286458,-0.78125 0.195313,-0.820313 0.117188,-0.898438 C0.0390625,-0.976563 0,-1.06771 0,-1.17188 L0,-2.39063 C0,-2.56771 0.0833333,-2.68229 0.25,-2.73438 L1.17188,-3.09375 L1.17188,-6.23438 C1.17188,-6.48438 1.29688,-6.60938 1.54688,-6.60938 C1.79688,-6.60938 1.92188,-6.48438 1.92188,-6.23438 L1.92188,-3.34375 L3.57813,-3.96875 L3.57813,-7.125 C3.57813,-7.375 3.70052,-7.5 3.94531,-7.5 C4.1901,-7.5 4.3125,-7.375 4.3125,-7.125 L4.3125,-4.21875 L4.96875,-4.45313 C4.97917,-4.46354 5.02083,-4.46875 5.09375,-4.46875 C5.1875,-4.46875 5.28646,-4.43229 5.39063,-4.35938 C5.47396,-4.27604 5.51563,-4.18229 5.51563,-4.07813 L5.51563,-2.875 C5.51563,-2.6875 5.42188,-2.5625 5.23438,-2.5 L4.3125,-2.1875 L4.3125,1.01563 L4.96875,0.796875 C4.97917,0.786458 5.02083,0.78125 5.09375,0.78125 C5.1875,0.78125 5.28646,0.822917 5.39063,0.90625 C5.47396,0.979167 5.51563,1.06771 5.51563,1.17188 L5.51563,2.39063 C5.51563,2.55729 5.42188,2.67188 5.23438,2.73438 L4.3125,3.09375 L4.3125,6.23438 M3.57813,-1.89063 L1.92188,-1.3125 L1.92188,1.89063 L3.57813,1.3125 L3.57813,-1.89063 "/>
<path class="KeySig" transform="matrix(0.9936,0,0,0.9936,49.3492,62.856)" d="M4.3125,6.23438 C4.3125,6.48438 4.1901,6.60938 3.94531,6.60938 C3.70052,6.60938 3.57813,6.48438 3.57813,6.23438 L3.57813,3.34375 L1.92188,3.96875 L1.92188,7.125 C1.92188,7.375 1.79688,7.5 1.54688,7.5 C1.29688,7.5 1.17188,7.375 1.17188,7.125 L1.17188,4.21875 L0.546875,4.45313 C0.536458,4.46354 0.484375,4.46875 0.390625,4.46875 C0.286458,4.46875 0.195313,4.42969 0.117188,4.35156 C0.0390625,4.27344 0,4.18229 0,4.07813 L0,2.875 C0,2.67708 0.0833333,2.55208 0.25,2.5 L1.17188,2.1875 L1.17188,-1.01563 L0.546875,-0.796875 C0.536458,-0.786458 0.484375,-0.78125 0.390625,-0.78125 C0.286458,-0.78125 0.195313,-0.820313 0.117188,-0.898438 C0.0390625,-0.976563 0,-1.06771 0,-1.17188 L0,-2.39063 C0,-2.56771 0.0833333,-2.68229 0.25,-2.73438 L1.17188,-3.09375 L1.17188,-6.23438 C1.17188,-6.48438 1.29688,-6.60938 1.54688,-6.60938 C1.79688,-6.60938 1.92188,-6.48438 1.92188,-6.23438 L1.92188,-3.34375 L3.57813,-3.96875 L3.57813,-7.125 C3.57813,-7.375 3.70052,-7.5 3.94531,-7.5 C4.1901,-7.5 4.3125,-7.375 4.3125,-7.125 L4.3125,-4.21875 L4.96875,-4.45313 C4.97917,-4.46354 5.02083,-4.46875 5.09375,-4.46875 C5.1875,-4.46875 5.28646,-4.43229 5.39063,-4.35938 C5.47396,-4.27604 5.51563,-4.18229 5.51563,-4.07813 L5.51563,-2.875 C5.51563,-2.6875 5.42188,-2.5625 5.23438,-2.5 L4.3125,-2.1875 L4.3125,1.01563 L4.96875,0.796875 C4.97917,0.786458 5.02083,0.78125 5.09375,0.78125 C5.1875,0.78125 5.28646,0.822917 5.39063,0.90625 C5.47396,0.979167 5.51563,1.06771 5.51563,1.17188 L5.51563,2.39063 C5.51563,2.55729 5.42188,2.67188 5.23438,2.73438 L4.3125,3.09375 L4.3125,6.23438 M3.57813,-1.89063 L1.92188,-1.3125 L1.92188,1.89063 L3.57813,1.3125 L3.57813,-1.89063 "/>
<path class="Beam" fill-rule="evenodd" d="M403.707,60.3158 L475.78,66.582 L475.78,69.066 L403.707,62.7998 L403.707,60.3158 "/>
<path class="Beam" fill-rule="evenodd" d="M290.672,79.002 L362.745,85.2682 L362.745,87.7522 L290.672,81.486 L290.672,79.002 "/>
<path class="Beam" fill-rule="evenodd" d="M183.532,87.696 L255.604,81.4298 L255.604,83.9138 L183.532,90.18 L183.532,87.696 "/>
<path class="Beam" fill-rule="evenodd" d="M82.2863,72.8482 L154.359,66.582 L154.359,69.066 L82.2863,75.3322 L82.2863,72.8482 "/>
<path class="Fingering" d="M498.718,91.3515 C498.958,90.3307 499.484,89.8046 500.297,89.7734 C500.328,89.7734 500.354,89.7734 500.375,89.7734 C500.864,89.7734 501.255,89.9505 501.547,90.3046 C501.755,90.565 501.859,90.8567 501.859,91.1796 C501.859,91.7734 501.541,92.414 500.906,93.1015 C500.885,93.1223 500.859,93.1432 500.828,93.164 L499.5,94.5859 L501.406,94.5859 C501.614,94.5859 501.776,94.5286 501.89,94.414 C501.963,94.3411 502.052,94.2213 502.156,94.0546 L502.265,94.0859 L501.828,95.164 L498.703,95.164 L498.703,95.0702 L500.125,93.5546 C500.802,92.815 501.151,92.1223 501.172,91.4765 C501.172,91.0286 501,90.7057 500.656,90.5077 C500.479,90.4036 500.276,90.3515 500.047,90.3515 C499.692,90.3515 499.416,90.4869 499.218,90.7577 C499.104,90.914 498.994,91.1275 498.89,91.3984 L498.718,91.3515 "/>
<path class="Fingering" d="M464.224,85.4616 C464.109,85.4616 463.916,85.5189 463.646,85.6335 L463.646,85.5241 L465.083,84.7897 L465.146,84.8054 L465.146,89.6022 C465.146,89.8106 465.208,89.946 465.333,90.0085 C465.437,90.0502 465.63,90.071 465.911,90.071 L465.911,90.196 L463.693,90.196 L463.693,90.071 C464.047,90.0606 464.271,89.9981 464.364,89.8835 C464.427,89.7897 464.458,89.6439 464.458,89.446 L464.458,85.8366 C464.448,85.5866 464.37,85.4616 464.224,85.4616"/>
<path class="Fingering" d="M427.682,84.603 C427.807,84.603 427.99,84.6707 428.229,84.8061 C428.479,84.9624 428.693,85.0405 428.87,85.0405 C429.234,85.0405 429.521,84.879 429.729,84.5561 C429.854,84.3478 429.917,84.1134 429.917,83.853 C429.917,83.0926 429.464,82.6759 428.557,82.603 C428.464,82.5926 428.365,82.5874 428.26,82.5874 L428.26,82.478 C428.865,82.2801 429.26,82.0249 429.448,81.7124 C429.542,81.5457 429.589,81.3634 429.589,81.1655 C429.589,80.8113 429.443,80.5561 429.151,80.3999 C429.016,80.3374 428.87,80.3061 428.714,80.3061 C428.266,80.3061 427.896,80.5405 427.604,81.0092 C427.573,81.0509 427.547,81.0978 427.526,81.1499 L427.401,81.1186 C427.651,80.4415 428.016,80.0301 428.495,79.8842 C428.641,79.8426 428.802,79.8217 428.979,79.8217 C429.458,79.8217 429.812,79.9884 430.042,80.3217 C430.167,80.4988 430.229,80.6967 430.229,80.9155 C430.229,81.2384 430.078,81.5301 429.776,81.7905 C429.682,81.8634 429.583,81.9415 429.479,82.0249 C429.958,82.2332 430.266,82.5197 430.401,82.8842 C430.464,83.0613 430.495,83.2592 430.495,83.478 C430.495,84.1134 430.229,84.6082 429.698,84.9624 C429.302,85.2124 428.833,85.3374 428.292,85.3374 C427.802,85.3374 427.51,85.228 427.417,85.0092 C427.396,84.9676 427.385,84.9259 427.385,84.8842 C427.385,84.728 427.464,84.6395 427.62,84.6186 C427.641,84.6082 427.661,84.603 427.682,84.603"/>
<path class="Fingering" d="M395.109,75.9635 L395.109,76.4479 L394.281,76.4479 L394.281,77.776 L393.672,77.776 L393.672,76.4479 L391.422,76.4479 L391.422,75.9635 L393.938,72.3697 L394.281,72.3697 L394.281,75.9635 L395.109,75.9635 M393.656,75.9635 L393.656,73.2135 L391.75,75.9635 L393.656,75.9635 "/>
<path class="Fingering" d="M355.865,68.9955 C356.104,67.9747 356.63,67.4486 357.443,67.4174 C357.474,67.4174 357.5,67.4174 357.521,67.4174 C358.011,67.4174 358.401,67.5945 358.693,67.9486 C358.901,68.209 359.005,68.5007 359.005,68.8236 C359.005,69.4174 358.688,70.058 358.052,70.7455 C358.031,70.7663 358.005,70.7872 357.974,70.808 L356.646,72.2299 L358.552,72.2299 C358.761,72.2299 358.922,72.1726 359.037,72.058 C359.11,71.9851 359.198,71.8653 359.302,71.6986 L359.412,71.7299 L358.974,72.808 L355.849,72.808 L355.849,72.7142 L357.271,71.1986 C357.948,70.459 358.297,69.7663 358.318,69.1205 C358.318,68.6726 358.146,68.3497 357.802,68.1517 C357.625,68.0476 357.422,67.9955 357.193,67.9955 C356.839,67.9955 356.563,68.1309 356.365,68.4017 C356.25,68.558 356.141,68.7715 356.037,69.0424 L355.865,68.9955 "/>
<path class="Fingering" d="M321.37,63.1056 C321.256,63.1056 321.063,63.1629 320.792,63.2775 L320.792,63.1681 L322.23,62.4337 L322.292,62.4494 L322.292,67.2462 C322.292,67.4546 322.355,67.59 322.48,67.6525 C322.584,67.6942 322.776,67.715 323.058,67.715 L323.058,67.84 L320.839,67.84 L320.839,67.715 C321.193,67.7046 321.417,67.6421 321.511,67.5275 C321.573,67.4337 321.605,67.2879 321.605,67.09 L321.605,63.4806 C321.594,63.2306 321.516,63.1056 321.37,63.1056"/>
<path class="Fingering" d="M285.657,55.6536 C285.542,55.6536 285.349,55.7109 285.079,55.8255 L285.079,55.7161 L286.516,54.9817 L286.579,54.9974 L286.579,59.7942 C286.579,60.0026 286.641,60.138 286.766,60.2005 C286.87,60.2422 287.063,60.263 287.344,60.263 L287.344,60.388 L285.125,60.388 L285.125,60.263 C285.48,60.2526 285.704,60.1901 285.797,60.0755 C285.86,59.9817 285.891,59.8359 285.891,59.638 L285.891,56.0286 C285.881,55.7786 285.803,55.6536 285.657,55.6536"/>
<path class="Fingering" d="M249.943,63.1056 C249.829,63.1056 249.636,63.1629 249.365,63.2775 L249.365,63.1681 L250.803,62.4337 L250.865,62.4494 L250.865,67.2462 C250.865,67.4546 250.928,67.59 251.053,67.6525 C251.157,67.6942 251.35,67.715 251.631,67.715 L251.631,67.84 L249.412,67.84 L249.412,67.715 C249.766,67.7046 249.99,67.6421 250.084,67.5275 C250.146,67.4337 250.178,67.2879 250.178,67.09 L250.178,63.4806 C250.167,63.2306 250.089,63.1056 249.943,63.1056"/>
<path class="Fingering" d="M213.011,68.9955 C213.251,67.9747 213.777,67.4486 214.589,67.4174 C214.621,67.4174 214.647,67.4174 214.667,67.4174 C215.157,67.4174 215.548,67.5945 215.839,67.9486 C216.048,68.209 216.152,68.5007 216.152,68.8236 C216.152,69.4174 215.834,70.058 215.199,70.7455 C215.178,70.7663 215.152,70.7872 215.121,70.808 L213.792,72.2299 L215.699,72.2299 C215.907,72.2299 216.068,72.1726 216.183,72.058 C216.256,71.9851 216.344,71.8653 216.449,71.6986 L216.558,71.7299 L216.121,72.808 L212.996,72.808 L212.996,72.7142 L214.417,71.1986 C215.094,70.459 215.443,69.7663 215.464,69.1205 C215.464,68.6726 215.292,68.3497 214.949,68.1517 C214.772,68.0476 214.568,67.9955 214.339,67.9955 C213.985,67.9955 213.709,68.1309 213.511,68.4017 C213.397,68.558 213.287,68.7715 213.183,69.0424 L213.011,68.9955 "/>
<path class="Fingering" d="M180.829,75.9635 L180.829,76.4479 L180.001,76.4479 L180.001,77.776 L179.391,77.776 L179.391,76.4479 L177.141,76.4479 L177.141,75.9635 L179.657,72.3697 L180.001,72.3697 L180.001,75.9635 L180.829,75.9635 M179.376,75.9635 L179.376,73.2135 L177.47,75.9635 L179.376,75.9635 "/>
<path class="Fingering" d="M141.975,84.603 C142.1,84.603 142.282,84.6707 142.522,84.8061 C142.772,84.9624 142.985,85.0405 143.162,85.0405 C143.527,85.0405 143.813,84.879 144.022,84.5561 C144.147,84.3478 144.209,84.1134 144.209,83.853 C144.209,83.0926 143.756,82.6759 142.85,82.603 C142.756,82.5926 142.657,82.5874 142.553,82.5874 L142.553,82.478 C143.157,82.2801 143.553,82.0249 143.741,81.7124 C143.834,81.5457 143.881,81.3634 143.881,81.1655 C143.881,80.8113 143.735,80.5561 143.444,80.3999 C143.308,80.3374 143.162,80.3061 143.006,80.3061 C142.558,80.3061 142.188,80.5405 141.897,81.0092 C141.866,81.0509 141.84,81.0978 141.819,81.1499 L141.694,81.1186 C141.944,80.4415 142.308,80.0301 142.787,79.8842 C142.933,79.8426 143.095,79.8217 143.272,79.8217 C143.751,79.8217 144.105,79.9884 144.334,80.3217 C144.459,80.4988 144.522,80.6967 144.522,80.9155 C144.522,81.2384 144.371,81.5301 144.069,81.7905 C143.975,81.8634 143.876,81.9415 143.772,82.0249 C144.251,82.2332 144.558,82.5197 144.694,82.8842 C144.756,83.0613 144.787,83.2592 144.787,83.478 C144.787,84.1134 144.522,84.6082 143.991,84.9624 C143.595,85.2124 143.126,85.3374 142.584,85.3374 C142.095,85.3374 141.803,85.228 141.709,85.0092 C141.688,84.9676 141.678,84.9259 141.678,84.8842 C141.678,84.728 141.756,84.6395 141.912,84.6186 C141.933,84.6082 141.954,84.603 141.975,84.603"/>
<path class="Fingering" d="M107.09,85.4616 C106.975,85.4616 106.782,85.5189 106.512,85.6335 L106.512,85.5241 L107.949,84.7897 L108.012,84.8054 L108.012,89.6022 C108.012,89.8106 108.074,89.946 108.199,90.0085 C108.303,90.0502 108.496,90.071 108.777,90.071 L108.777,90.196 L106.558,90.196 L106.558,90.071 C106.913,90.0606 107.137,89.9981 107.23,89.8835 C107.293,89.7897 107.324,89.6439 107.324,89.446 L107.324,85.8366 C107.314,85.5866 107.235,85.4616 107.09,85.4616"/>
<path class="Fingering" d="M70.1575,91.3515 C70.3971,90.3307 70.9231,89.8046 71.7356,89.7734 C71.7668,89.7734 71.7929,89.7734 71.8137,89.7734 C72.3033,89.7734 72.6939,89.9505 72.9856,90.3046 C73.1939,90.565 73.2981,90.8567 73.2981,91.1796 C73.2981,91.7734 72.9804,92.414 72.345,93.1015 C72.3241,93.1223 72.2981,93.1432 72.2668,93.164 L70.9387,94.5859 L72.845,94.5859 C73.0533,94.5859 73.2148,94.5286 73.3293,94.414 C73.4023,94.3411 73.4908,94.2213 73.595,94.0546 L73.7043,94.0859 L73.2668,95.164 L70.1418,95.164 L70.1418,95.0702 L71.5637,93.5546 C72.2408,92.815 72.5898,92.1223 72.6106,91.4765 C72.6106,91.0286 72.4387,90.7057 72.095,90.5077 C71.9179,90.4036 71.7148,90.3515 71.4856,90.3515 C71.1314,90.3515 70.8554,90.4869 70.6575,90.7577 C70.5429,90.914 70.4335,91.1275 70.3293,91.3984 L70.1575,91.3515 "/>
<path class="Tempo" d="M70.2262,34.859 C70.1793,34.859 70.1481,34.859 70.1481,34.9371 L70.1481,40.4371 C69.9449,40.2809 69.6949,40.1871 69.3824,40.1871 C68.1949,40.1871 67.2418,41.0621 67.2418,41.9996 C67.2418,42.5621 67.6949,42.9059 68.2887,42.9059 C69.2418,42.9059 70.4293,41.9996 70.4293,41.0934 L70.4293,37.0934 C70.8043,37.1715 71.4293,37.4371 71.8043,38.4684 C71.8981,38.734 71.9918,39.1402 71.9918,39.5934 C71.9918,39.9059 71.9293,40.2809 71.8043,40.609 C71.7731,40.6559 71.7731,40.6871 71.7731,40.7184 C71.7731,40.8434 71.8512,40.9059 71.9137,40.9371 C71.9137,40.9527 71.9449,40.9527 71.9606,40.9527 C72.0231,40.9527 72.0856,40.9059 72.1481,40.7965 C72.1637,40.7027 72.3512,40.0465 72.3512,39.5621 L72.3512,39.4996 C72.3199,38.5777 71.9137,37.6871 71.3981,36.9371 C70.9606,36.359 70.6168,35.734 70.4762,35.0309 C70.4293,34.8902 70.3668,34.859 70.2887,34.859 L70.2262,34.859 "/>
<path class="Tempo" d="M82.7106,39.0152 L76.1012,39.0152 L76.1012,37.859 L82.7106,37.859 L82.7106,39.0152 M82.7106,41.9371 L76.1012,41.9371 L76.1012,40.7965 L82.7106,40.7965 L82.7106,41.9371 M88.1481,36.0465 C88.0231,36.0465 87.7054,36.1402 87.1949,36.3277 C87.1637,36.3382 87.1429,36.3486 87.1324,36.359 L87.1324,36.0465 L90.1481,34.734 L90.3512,34.734 L90.3512,41.5621 C90.3512,42.0517 90.4501,42.3642 90.6481,42.4996 C90.8251,42.6246 91.1585,42.6923 91.6481,42.7027 L91.6481,42.984 L87.1481,42.984 L87.1481,42.7027 C87.8043,42.6923 88.2158,42.5882 88.3824,42.3902 C88.5179,42.2236 88.5856,41.9267 88.5856,41.4996 L88.5856,36.8746 C88.5751,36.333 88.4293,36.0569 88.1481,36.0465 M92.7262,37.1715 C93.2783,35.6819 94.0543,34.8746 95.0543,34.7496 C95.1585,34.7392 95.2626,34.734 95.3668,34.734 C96.1585,34.734 96.7626,35.0205 97.1793,35.5934 C97.4501,35.9788 97.5856,36.4215 97.5856,36.9215 C97.5856,37.7861 97.1585,38.6298 96.3043,39.4527 C96.2626,39.484 96.2314,39.5152 96.2106,39.5465 L94.2731,41.3902 L96.0856,41.3902 C96.721,41.3902 97.1272,41.333 97.3043,41.2184 C97.471,41.1038 97.6324,40.8486 97.7887,40.4527 L98.0856,40.4527 L97.5387,42.984 L92.5543,42.984 L92.5543,42.7027 C94.221,40.9215 95.247,39.6455 95.6324,38.8746 C95.8408,38.4475 95.9449,38.0309 95.9449,37.6246 C95.9449,37.0934 95.7522,36.6767 95.3668,36.3746 C95.1272,36.1871 94.846,36.0934 94.5231,36.0934 C93.9293,36.0934 93.4606,36.4215 93.1168,37.0777 C93.096,37.109 93.0751,37.1402 93.0543,37.1715 L92.7262,37.1715 M98.6324,38.9059 C98.6324,37.5934 98.9449,36.5309 99.5699,35.7184 C100.08,35.0725 100.674,34.7444 101.351,34.734 C102.132,34.734 102.778,35.1402 103.289,35.9527 C103.799,36.7652 104.054,37.76 104.054,38.9371 C104.054,40.3121 103.737,41.4059 103.101,42.2184 C102.601,42.8225 102.023,43.1298 101.367,43.1402 C100.533,43.1402 99.8616,42.7132 99.3512,41.859 C98.872,41.0673 98.6324,40.083 98.6324,38.9059 M101.367,42.7965 C101.721,42.7965 101.955,42.4736 102.07,41.8277 C102.132,41.4423 102.164,40.9423 102.164,40.3277 L102.164,37.5777 C102.164,36.1402 101.971,35.3225 101.586,35.1246 C101.513,35.083 101.429,35.0621 101.336,35.0621 C100.971,35.0621 100.731,35.3955 100.617,36.0621 C100.565,36.4371 100.539,36.9423 100.539,37.5777 L100.539,40.3277 C100.539,41.6819 100.705,42.4736 101.039,42.7027 C101.132,42.7652 101.242,42.7965 101.367,42.7965"/>
<path class="StaffText" d="M470.364,50.8902 L470.364,46.4527 C470.364,46.0673 470.296,45.8277 470.161,45.734 C470.046,45.6402 469.791,45.583 469.395,45.5621 L469.395,45.3746 L472.364,45.3746 L472.364,45.5621 C471.906,45.583 471.624,45.6559 471.52,45.7809 C471.427,45.9059 471.38,46.1298 471.38,46.4527 L471.38,50.8902 C471.38,51.2861 471.458,51.5361 471.614,51.6402 C471.739,51.734 471.989,51.7861 472.364,51.7965 L472.364,51.984 L469.395,51.984 L469.395,51.7965 C469.843,51.7861 470.119,51.7132 470.223,51.5777 C470.317,51.4527 470.364,51.2236 470.364,50.8902 M479.145,45.3746 L479.145,45.5621 C478.874,45.5725 478.687,45.6455 478.583,45.7809 C478.489,45.9059 478.369,46.1402 478.223,46.484 L476.005,52.0934 L475.864,52.0934 L473.395,46.609 C473.166,46.0777 472.963,45.7652 472.786,45.6715 C472.671,45.5986 472.52,45.5621 472.333,45.5621 L472.333,45.3746 L475.005,45.3746 L475.005,45.5621 C474.817,45.5725 474.718,45.5777 474.708,45.5777 C474.406,45.609 474.255,45.7132 474.255,45.8902 C474.255,46.0361 474.39,46.4059 474.661,46.9996 L476.161,50.3746 L477.63,46.7027 C477.765,46.3902 477.833,46.1507 477.833,45.984 C477.833,45.7757 477.713,45.6455 477.473,45.5934 C477.369,45.5725 477.244,45.5621 477.098,45.5621 L477.098,45.3746 L479.145,45.3746 "/>
<path class="StaffText" d="M154.725,45.3746 L154.725,45.5621 C154.454,45.5725 154.266,45.6455 154.162,45.7809 C154.068,45.9059 153.949,46.1402 153.803,46.484 L151.584,52.0934 L151.443,52.0934 L148.975,46.609 C148.745,46.0777 148.542,45.7652 148.365,45.6715 C148.251,45.5986 148.1,45.5621 147.912,45.5621 L147.912,45.3746 L150.584,45.3746 L150.584,45.5621 C150.396,45.5725 150.297,45.5777 150.287,45.5777 C149.985,45.609 149.834,45.7132 149.834,45.8902 C149.834,46.0361 149.969,46.4059 150.24,46.9996 L151.74,50.3746 L153.209,46.7027 C153.344,46.3902 153.412,46.1507 153.412,45.984 C153.412,45.7757 153.292,45.6455 153.053,45.5934 C152.949,45.5725 152.824,45.5621 152.678,45.5621 L152.678,45.3746 L154.725,45.3746 "/>
<path class="StaffText" d="M77.5165,54.8646 L77.5165,50.4271 C77.5165,50.0417 77.4488,49.8021 77.3133,49.7084 C77.1988,49.6146 76.9436,49.5574 76.5477,49.5365 L76.5477,49.349 L79.5165,49.349 L79.5165,49.5365 C79.0581,49.5574 78.7769,49.6303 78.6727,49.7553 C78.579,49.8803 78.5321,50.1042 78.5321,50.4271 L78.5321,54.8646 C78.5321,55.2605 78.6102,55.5105 78.7665,55.6146 C78.8915,55.7084 79.1415,55.7605 79.5165,55.7709 L79.5165,55.9584 L76.5477,55.9584 L76.5477,55.7709 C76.9956,55.7605 77.2717,55.6876 77.3758,55.5521 C77.4696,55.4271 77.5165,55.198 77.5165,54.8646 M86.2977,49.349 L86.2977,49.5365 C86.0269,49.5469 85.8394,49.6199 85.7352,49.7553 C85.6415,49.8803 85.5217,50.1146 85.3758,50.4584 L83.1571,56.0678 L83.0165,56.0678 L80.5477,50.5834 C80.3186,50.0521 80.1154,49.7396 79.9383,49.6459 C79.8238,49.573 79.6727,49.5365 79.4852,49.5365 L79.4852,49.349 L82.1571,49.349 L82.1571,49.5365 C81.9696,49.5469 81.8706,49.5521 81.8602,49.5521 C81.5581,49.5834 81.4071,49.6876 81.4071,49.8646 C81.4071,50.0105 81.5425,50.3803 81.8133,50.974 L83.3133,54.349 L84.7821,50.6771 C84.9175,50.3646 84.9852,50.1251 84.9852,49.9584 C84.9852,49.7501 84.8654,49.6199 84.6258,49.5678 C84.5217,49.5469 84.3967,49.5365 84.2508,49.5365 L84.2508,49.349 L86.2977,49.349 "/>
<path class="StaffText" d="M80.2196,25.2057 C80.6675,25.2057 81.1675,25.3203 81.7196,25.5495 C81.9592,25.6432 82.1311,25.6901 82.2352,25.6901 C82.3811,25.6901 82.5113,25.5807 82.6258,25.362 C82.6363,25.3203 82.6519,25.2787 82.6727,25.237 L82.9383,25.237 L82.9383,27.5807 L82.6883,27.5807 C82.4175,26.9766 82.1363,26.5339 81.8446,26.2526 C81.7821,26.1901 81.7248,26.138 81.6727,26.0964 C81.2456,25.7214 80.8029,25.5339 80.3446,25.5339 C79.3446,25.5339 78.7508,26.2526 78.5633,27.6901 C78.5321,28.013 78.5165,28.362 78.5165,28.737 C78.5165,29.9245 78.73,30.7943 79.1571,31.3464 C79.4904,31.763 79.9488,31.9714 80.5321,31.9714 C81.0946,31.9714 81.4123,31.7943 81.4852,31.4401 C81.4956,31.3776 81.5008,31.3099 81.5008,31.237 L81.5008,30.1901 C81.5008,29.8985 81.4279,29.711 81.2821,29.6276 C81.1363,29.5547 80.8706,29.5078 80.4852,29.487 L80.4852,29.237 L83.9227,29.237 L83.9227,29.487 C83.5165,29.5287 83.2665,29.6172 83.1727,29.7526 C83.0998,29.8672 83.0633,30.086 83.0633,30.4089 L83.0633,31.6745 C82.4696,32.0287 81.6831,32.237 80.704,32.2995 C80.5686,32.2995 80.4331,32.2995 80.2977,32.2995 C79.1831,32.2995 78.2925,31.9401 77.6258,31.2214 C77.0321,30.5755 76.7352,29.7682 76.7352,28.7995 C76.7352,27.7578 77.079,26.8932 77.7665,26.2057 C78.4331,25.5391 79.2508,25.2057 80.2196,25.2057 M87.9852,28.8307 C87.7665,28.8307 87.5529,28.711 87.3446,28.4714 C87.23,28.3255 87.1467,28.2474 87.0946,28.237 C86.8758,28.237 86.7092,28.388 86.5946,28.6901 C86.5217,28.8464 86.4852,29.013 86.4852,29.1901 L86.4852,31.0807 C86.4852,31.4453 86.5581,31.6693 86.704,31.7526 C86.7977,31.8151 86.9696,31.8568 87.2196,31.8776 L87.2196,32.112 L84.579,32.112 L84.579,31.8776 C84.8498,31.8255 85.0113,31.7318 85.0633,31.5964 C85.0842,31.5235 85.0946,31.4141 85.0946,31.2682 L85.0946,28.3307 C85.0946,28.0703 85.0217,27.9037 84.8758,27.8307 C84.8029,27.7891 84.704,27.7578 84.579,27.737 L84.579,27.5026 L86.454,27.5026 L86.454,28.3307 C86.829,27.7787 87.1988,27.4714 87.5633,27.4089 C87.6467,27.388 87.7248,27.3776 87.7977,27.3776 C88.1415,27.3776 88.3863,27.5182 88.5321,27.7995 C88.5842,27.9141 88.6102,28.0339 88.6102,28.1589 C88.6102,28.4714 88.4852,28.6797 88.2352,28.7839 C88.1519,28.8151 88.0686,28.8307 87.9852,28.8307 M89.8602,28.0807 C89.8602,28.112 89.9123,28.2057 90.0165,28.362 C90.1102,28.5078 90.1571,28.6328 90.1571,28.737 C90.1571,28.9974 90.0269,29.1745 89.7665,29.2682 C89.6727,29.2995 89.579,29.3151 89.4852,29.3151 C89.1206,29.3151 88.9071,29.1537 88.8446,28.8307 C88.8342,28.7682 88.829,28.711 88.829,28.6589 C88.829,28.1901 89.0842,27.8412 89.5946,27.612 C89.9175,27.4557 90.2925,27.3776 90.7196,27.3776 C91.5946,27.3776 92.1936,27.6172 92.5165,28.0964 C92.6415,28.2943 92.704,28.5182 92.704,28.7682 L92.704,31.3464 C92.7144,31.5026 92.7821,31.586 92.9071,31.5964 C92.9592,31.586 92.9956,31.5703 93.0165,31.5495 L93.1258,31.4557 L93.2665,31.6589 C92.8706,32.0339 92.5008,32.2318 92.1571,32.2526 C91.7821,32.2526 91.5373,32.112 91.4227,31.8307 C91.3915,31.737 91.3602,31.638 91.329,31.5339 C90.7873,32.0026 90.2613,32.2422 89.7508,32.2526 C89.3133,32.2526 88.9956,32.086 88.7977,31.7526 C88.6936,31.586 88.6415,31.4037 88.6415,31.2057 C88.6415,30.6224 89.0894,30.1485 89.9852,29.7839 C90.2248,29.6797 90.6727,29.5287 91.329,29.3307 L91.329,28.5964 C91.329,28.0651 91.1102,27.7735 90.6727,27.7214 C90.6102,27.7214 90.5477,27.7214 90.4852,27.7214 C90.1936,27.7214 89.9956,27.8047 89.8915,27.9714 C89.8706,28.0026 89.8602,28.0391 89.8602,28.0807 M91.3133,31.0964 L91.3133,29.6589 C90.5113,29.8776 90.105,30.2787 90.0946,30.862 C90.0946,31.1953 90.204,31.4037 90.4227,31.487 C90.4852,31.5078 90.5477,31.5182 90.6102,31.5182 C90.8394,31.5182 91.0738,31.3776 91.3133,31.0964 M96.7821,32.237 L96.7821,31.5964 C96.4279,31.9714 96.0842,32.1849 95.7508,32.237 C95.6571,32.2474 95.5581,32.2526 95.454,32.2526 C94.8602,32.2526 94.3915,31.9766 94.0477,31.4245 C93.7769,30.9974 93.6415,30.4922 93.6415,29.9089 C93.6415,29.0547 93.8863,28.3828 94.3758,27.8932 C94.7092,27.5495 95.105,27.3776 95.5633,27.3776 C95.9175,27.3776 96.2404,27.513 96.5321,27.7839 C96.6154,27.8568 96.6883,27.9245 96.7508,27.987 L96.7508,26.1745 C96.7508,25.9245 96.6936,25.7682 96.579,25.7057 C96.4748,25.6537 96.2769,25.6172 95.9852,25.5964 L95.9852,25.362 L98.1415,25.362 L98.1415,31.112 C98.1415,31.3932 98.2248,31.5651 98.3915,31.6276 C98.4748,31.6589 98.5894,31.6797 98.7352,31.6901 L98.7352,31.9245 L98.1102,32.0026 C97.5581,32.0755 97.1154,32.1537 96.7821,32.237 M95.9071,31.7057 C96.1988,31.7057 96.4488,31.5391 96.6571,31.2057 C96.7092,31.112 96.7404,31.0443 96.7508,31.0026 L96.7508,28.5495 C96.6258,28.2162 96.4175,28.0182 96.1258,27.9557 C96.0738,27.9453 96.0217,27.9401 95.9696,27.9401 C95.4592,27.9401 95.1779,28.4453 95.1258,29.4557 C95.1258,29.5703 95.1258,29.6953 95.1258,29.8307 C95.1258,31.0703 95.3863,31.6953 95.9071,31.7057 M101.079,29.6589 C101.131,30.6797 101.397,31.2787 101.876,31.4557 C102.001,31.4974 102.131,31.5182 102.266,31.5182 C102.631,31.5182 102.964,31.3516 103.266,31.0182 C103.319,30.9662 103.365,30.9141 103.407,30.862 L103.641,31.0026 C103.225,31.6068 102.813,31.987 102.407,32.1432 C102.199,32.2162 101.964,32.2526 101.704,32.2526 C100.954,32.2526 100.391,31.9453 100.016,31.3307 C99.7665,30.9141 99.6415,30.4141 99.6415,29.8307 C99.6415,28.9349 99.9123,28.263 100.454,27.8151 C100.819,27.5235 101.246,27.3776 101.735,27.3776 C102.839,27.3776 103.459,28.0964 103.595,29.5339 C103.595,29.5755 103.595,29.6172 103.595,29.6589 L101.079,29.6589 M102.376,29.1432 C102.355,28.5182 102.287,28.1224 102.173,27.9557 C102.079,27.7995 101.933,27.7214 101.735,27.7214 C101.444,27.7214 101.246,27.8932 101.141,28.237 C101.079,28.4766 101.043,28.8307 101.032,29.2995 L102.376,29.2995 L102.376,29.1432 M109.923,30.5807 C109.923,29.8724 109.579,29.3255 108.891,28.9401 C108.652,28.8047 108.329,28.6641 107.923,28.5182 L107.923,28.3464 C108.579,28.138 108.98,27.862 109.126,27.5182 C109.188,27.3724 109.22,27.2057 109.22,27.0182 C109.22,26.5182 109.022,26.1901 108.626,26.0339 C108.49,25.9922 108.35,25.9714 108.204,25.9714 C107.798,25.9714 107.459,26.1485 107.188,26.5026 C107.115,26.5964 107.043,26.7005 106.97,26.8151 L106.766,26.7057 C107.319,25.737 108.079,25.2474 109.048,25.237 C109.819,25.237 110.324,25.487 110.563,25.987 C110.636,26.1641 110.673,26.362 110.673,26.5807 C110.673,26.9662 110.553,27.2735 110.313,27.5026 C110.188,27.6068 110.032,27.7162 109.845,27.8307 C110.657,28.2057 111.063,28.8047 111.063,29.6276 C111.063,30.3776 110.761,31.0078 110.157,31.5182 C109.584,32.0078 108.891,32.2526 108.079,32.2526 C107.391,32.2526 106.928,32.0807 106.688,31.737 C106.595,31.6224 106.548,31.4922 106.548,31.3464 C106.548,31.086 106.678,30.9089 106.938,30.8151 C107.022,30.7839 107.11,30.7682 107.204,30.7682 C107.464,30.7682 107.751,30.9193 108.063,31.2214 C108.345,31.4922 108.543,31.6537 108.657,31.7057 C108.761,31.7578 108.86,31.7839 108.954,31.7839 C109.391,31.7839 109.688,31.5703 109.845,31.1432 C109.897,30.9766 109.923,30.7891 109.923,30.5807 M113.048,30.5495 C113.371,30.5495 113.615,30.6901 113.782,30.9714 C113.865,31.1172 113.907,31.263 113.907,31.4089 C113.907,31.7214 113.766,31.961 113.485,32.1276 C113.339,32.2005 113.194,32.237 113.048,32.237 C112.714,32.237 112.47,32.0964 112.313,31.8151 C112.24,31.6797 112.204,31.5391 112.204,31.3932 C112.204,31.0912 112.339,30.8568 112.61,30.6901 C112.746,30.5964 112.891,30.5495 113.048,30.5495 M113.048,27.3932 C113.371,27.3932 113.615,27.5287 113.782,27.7995 C113.865,27.9453 113.907,28.0912 113.907,28.237 C113.907,28.5599 113.766,28.8047 113.485,28.9714 C113.35,29.0443 113.204,29.0807 113.048,29.0807 C112.714,29.0807 112.47,28.9349 112.313,28.6432 C112.24,28.5078 112.204,28.3672 112.204,28.2214 C112.204,27.9193 112.339,27.6849 112.61,27.5182 C112.746,27.4349 112.891,27.3932 113.048,27.3932"/>
<path class="StaffText" d="M124.454,31.9245 L124.454,32.112 L121.891,32.112 L121.891,31.9245 C122.308,31.9141 122.537,31.8412 122.579,31.7057 C122.589,31.6641 122.595,31.6224 122.595,31.5807 C122.595,31.4245 122.532,31.2057 122.407,30.9245 L122.001,29.987 L119.376,29.987 L118.923,31.1276 C118.871,31.2735 118.845,31.4037 118.845,31.5182 C118.855,31.7787 119.079,31.9141 119.516,31.9245 L119.516,32.112 L117.548,32.112 L117.548,31.9245 C117.787,31.9141 117.97,31.8307 118.095,31.6745 C118.24,31.4766 118.47,31.013 118.782,30.2839 L120.86,25.3776 L121.063,25.3776 L123.548,31.0495 C123.746,31.487 123.912,31.7474 124.048,31.8307 C124.141,31.8828 124.277,31.9141 124.454,31.9245 M119.548,29.5495 L121.86,29.5495 L120.704,26.7995 L119.548,29.5495 M127.516,28.1589 L127.516,27.987 C127.996,27.8412 128.464,27.6849 128.923,27.5182 L128.985,27.5339 L128.985,28.2995 C129.558,27.862 129.97,27.612 130.22,27.5495 C130.324,27.5287 130.428,27.5182 130.532,27.5182 C131.063,27.5287 131.418,27.8151 131.595,28.3776 C132.126,27.8047 132.673,27.5182 133.235,27.5182 C133.996,27.5287 134.381,28.1276 134.391,29.3151 L134.391,31.362 C134.402,31.7266 134.543,31.9193 134.813,31.9401 L135.079,31.9557 L135.079,32.112 L132.891,32.112 L132.891,31.9557 C133.214,31.9245 133.407,31.8516 133.47,31.737 C133.522,31.6432 133.548,31.4818 133.548,31.2526 L133.548,29.1432 C133.548,28.5912 133.438,28.2578 133.22,28.1432 C133.115,28.0807 132.975,28.0495 132.798,28.0495 C132.35,28.0599 131.985,28.263 131.704,28.6589 L131.704,31.1745 C131.704,31.5495 131.793,31.7839 131.97,31.8776 C132.074,31.9297 132.225,31.9557 132.423,31.9557 L132.423,32.112 L130.188,32.112 L130.188,31.9557 C130.511,31.9349 130.709,31.862 130.782,31.737 C130.845,31.6432 130.876,31.4818 130.876,31.2526 L130.876,29.0964 C130.876,28.3985 130.652,28.0495 130.204,28.0495 C129.839,28.0495 129.516,28.1693 129.235,28.4089 C129.162,28.4818 129.095,28.5599 129.032,28.6432 L129.032,31.4401 C129.032,31.6901 129.121,31.8464 129.298,31.9089 C129.391,31.9401 129.527,31.9557 129.704,31.9557 L129.704,32.112 L127.485,32.112 L127.485,31.9557 C127.839,31.9557 128.053,31.8724 128.126,31.7057 C128.168,31.6016 128.188,31.4557 128.188,31.2682 L128.188,28.7526 C128.188,28.3776 128.11,28.1693 127.954,28.1276 C127.923,28.1172 127.886,28.112 127.845,28.112 C127.74,28.112 127.631,28.1276 127.516,28.1589 M135.641,31.1432 C135.641,30.6328 135.959,30.2005 136.595,29.8464 C136.782,29.7526 137.282,29.5391 138.095,29.2057 C138.115,29.2057 138.131,29.2005 138.141,29.1901 L138.141,28.5807 C138.089,28.0599 137.834,27.7839 137.376,27.7526 C137.063,27.7526 136.845,27.8516 136.72,28.0495 C136.678,28.1224 136.657,28.1849 136.657,28.237 C136.657,28.2995 136.668,28.3828 136.688,28.487 C136.699,28.5599 136.704,28.612 136.704,28.6432 C136.704,28.8203 136.615,28.9453 136.438,29.0182 C136.376,29.0495 136.319,29.0651 136.266,29.0651 C136.079,29.0651 135.949,28.9766 135.876,28.7995 C135.845,28.7474 135.829,28.6901 135.829,28.6276 C135.829,28.263 136.048,27.9662 136.485,27.737 C136.787,27.5912 137.131,27.5182 137.516,27.5182 C138.235,27.5182 138.678,27.7735 138.845,28.2839 C138.918,28.5026 138.954,28.7787 138.954,29.112 L138.954,31.0495 C138.954,31.3828 139.016,31.5703 139.141,31.612 C139.183,31.6224 139.22,31.6276 139.251,31.6276 C139.397,31.6172 139.543,31.5547 139.688,31.4401 L139.688,31.6901 C139.418,32.0026 139.168,32.1745 138.938,32.2057 C138.886,32.2057 138.834,32.2057 138.782,32.2057 C138.47,32.2057 138.272,32.0495 138.188,31.737 C138.168,31.6537 138.157,31.5599 138.157,31.4557 C137.563,31.9349 137.074,32.1849 136.688,32.2057 C136.261,32.2057 135.954,32.0339 135.766,31.6901 C135.683,31.5235 135.641,31.3412 135.641,31.1432 M138.141,30.862 L138.141,29.4245 C137.319,29.7266 136.813,30.0339 136.626,30.3464 C136.553,30.4922 136.516,30.6485 136.516,30.8151 C136.516,31.211 136.662,31.461 136.954,31.5651 C137.027,31.5964 137.095,31.612 137.157,31.612 C137.376,31.6016 137.615,31.5235 137.876,31.3776 C138.022,31.2943 138.105,31.1901 138.126,31.0651 C138.136,31.0026 138.141,30.9349 138.141,30.862 M140.86,28.1901 C140.86,28.1901 140.709,28.2005 140.407,28.2214 L140.407,28.0495 C140.949,27.8828 141.47,27.7057 141.97,27.5182 L142.016,27.5495 L142.016,32.112 C142.016,33.3412 141.605,34.0495 140.782,34.237 C140.636,34.2682 140.485,34.2839 140.329,34.2839 C139.891,34.2839 139.6,34.1745 139.454,33.9557 C139.412,33.8828 139.391,33.8099 139.391,33.737 C139.391,33.5495 139.48,33.4297 139.657,33.3776 C139.709,33.3568 139.756,33.3464 139.798,33.3464 C139.944,33.3464 140.1,33.4505 140.266,33.6589 C140.444,33.8464 140.589,33.9453 140.704,33.9557 C140.933,33.9557 141.074,33.7943 141.126,33.4714 C141.157,33.2735 141.173,32.9714 141.173,32.5651 L141.173,28.7682 C141.173,28.4141 141.095,28.2214 140.938,28.1901 C140.907,28.1901 140.881,28.1901 140.86,28.1901 M141.516,25.2839 C141.735,25.2839 141.891,25.3828 141.985,25.5807 C142.016,25.6537 142.032,25.7266 142.032,25.7995 C142.032,26.0182 141.923,26.1745 141.704,26.2682 C141.641,26.2891 141.579,26.2995 141.516,26.2995 C141.287,26.2995 141.131,26.2005 141.048,26.0026 C141.027,25.9297 141.016,25.862 141.016,25.7995 C141.016,25.5807 141.11,25.4245 141.298,25.3307 C141.371,25.2995 141.444,25.2839 141.516,25.2839 M144.845,27.5182 C145.584,27.5182 146.168,27.7891 146.595,28.3307 C146.897,28.737 147.048,29.2162 147.048,29.7682 C147.048,30.5495 146.793,31.1745 146.282,31.6432 C145.865,32.0182 145.381,32.2057 144.829,32.2057 C144.121,32.2057 143.558,31.9349 143.141,31.3932 C142.808,30.9557 142.641,30.4401 142.641,29.8464 C142.641,29.0339 142.918,28.4089 143.47,27.9714 C143.855,27.6693 144.313,27.5182 144.845,27.5182 M143.548,29.362 C143.548,30.2682 143.735,30.961 144.11,31.4401 C144.35,31.7526 144.631,31.9089 144.954,31.9089 C145.475,31.9089 145.834,31.612 146.032,31.0182 C146.115,30.7578 146.157,30.461 146.157,30.1276 C146.157,29.2422 145.944,28.586 145.516,28.1589 C145.287,27.9297 145.022,27.8151 144.72,27.8151 C144.251,27.8151 143.912,28.0547 143.704,28.5339 C143.6,28.7735 143.548,29.0495 143.548,29.362 M150.407,28.487 C150.303,28.487 150.152,28.4037 149.954,28.237 C149.86,28.1537 149.787,28.112 149.735,28.112 C149.569,28.112 149.397,28.2422 149.22,28.5026 C149.105,28.6693 149.048,28.8151 149.048,28.9401 L149.048,31.2057 C149.048,31.5495 149.136,31.763 149.313,31.8464 C149.438,31.9089 149.631,31.9453 149.891,31.9557 L149.891,32.112 L147.485,32.112 L147.485,31.9557 C147.839,31.8932 148.053,31.8099 148.126,31.7057 C148.178,31.6224 148.204,31.4766 148.204,31.2682 L148.204,28.7526 C148.204,28.388 148.121,28.1901 147.954,28.1589 C147.923,28.1485 147.891,28.1432 147.86,28.1432 C147.746,28.1432 147.631,28.1589 147.516,28.1901 L147.516,28.0339 C148.048,27.8672 148.537,27.6953 148.985,27.5182 L149.048,27.5339 L149.048,28.4245 C149.391,27.9453 149.683,27.6589 149.923,27.5651 C150.027,27.5339 150.131,27.5182 150.235,27.5182 C150.548,27.5182 150.73,27.6485 150.782,27.9089 C150.782,27.9505 150.782,27.9974 150.782,28.0495 C150.751,28.3203 150.626,28.4662 150.407,28.487 M153.641,31.1432 C153.641,30.6328 153.959,30.2005 154.595,29.8464 C154.782,29.7526 155.282,29.5391 156.095,29.2057 C156.115,29.2057 156.131,29.2005 156.141,29.1901 L156.141,28.5807 C156.089,28.0599 155.834,27.7839 155.376,27.7526 C155.063,27.7526 154.845,27.8516 154.72,28.0495 C154.678,28.1224 154.657,28.1849 154.657,28.237 C154.657,28.2995 154.668,28.3828 154.688,28.487 C154.699,28.5599 154.704,28.612 154.704,28.6432 C154.704,28.8203 154.615,28.9453 154.438,29.0182 C154.376,29.0495 154.319,29.0651 154.266,29.0651 C154.079,29.0651 153.949,28.9766 153.876,28.7995 C153.845,28.7474 153.829,28.6901 153.829,28.6276 C153.829,28.263 154.048,27.9662 154.485,27.737 C154.787,27.5912 155.131,27.5182 155.516,27.5182 C156.235,27.5182 156.678,27.7735 156.845,28.2839 C156.918,28.5026 156.954,28.7787 156.954,29.112 L156.954,31.0495 C156.954,31.3828 157.016,31.5703 157.141,31.612 C157.183,31.6224 157.22,31.6276 157.251,31.6276 C157.397,31.6172 157.543,31.5547 157.688,31.4401 L157.688,31.6901 C157.418,32.0026 157.168,32.1745 156.938,32.2057 C156.886,32.2057 156.834,32.2057 156.782,32.2057 C156.47,32.2057 156.272,32.0495 156.188,31.737 C156.168,31.6537 156.157,31.5599 156.157,31.4557 C155.563,31.9349 155.074,32.1849 154.688,32.2057 C154.261,32.2057 153.954,32.0339 153.766,31.6901 C153.683,31.5235 153.641,31.3412 153.641,31.1432 M156.141,30.862 L156.141,29.4245 C155.319,29.7266 154.813,30.0339 154.626,30.3464 C154.553,30.4922 154.516,30.6485 154.516,30.8151 C154.516,31.211 154.662,31.461 154.954,31.5651 C155.027,31.5964 155.095,31.612 155.157,31.612 C155.376,31.6016 155.615,31.5235 155.876,31.3776 C156.022,31.2943 156.105,31.1901 156.126,31.0651 C156.136,31.0026 156.141,30.9349 156.141,30.862 M160.407,28.487 C160.303,28.487 160.152,28.4037 159.954,28.237 C159.86,28.1537 159.787,28.112 159.735,28.112 C159.569,28.112 159.397,28.2422 159.22,28.5026 C159.105,28.6693 159.048,28.8151 159.048,28.9401 L159.048,31.2057 C159.048,31.5495 159.136,31.763 159.313,31.8464 C159.438,31.9089 159.631,31.9453 159.891,31.9557 L159.891,32.112 L157.485,32.112 L157.485,31.9557 C157.839,31.8932 158.053,31.8099 158.126,31.7057 C158.178,31.6224 158.204,31.4766 158.204,31.2682 L158.204,28.7526 C158.204,28.388 158.121,28.1901 157.954,28.1589 C157.923,28.1485 157.891,28.1432 157.86,28.1432 C157.746,28.1432 157.631,28.1589 157.516,28.1901 L157.516,28.0339 C158.048,27.8672 158.537,27.6953 158.985,27.5182 L159.048,27.5339 L159.048,28.4245 C159.391,27.9453 159.683,27.6589 159.923,27.5651 C160.027,27.5339 160.131,27.5182 160.235,27.5182 C160.548,27.5182 160.73,27.6485 160.782,27.9089 C160.782,27.9505 160.782,27.9974 160.782,28.0495 C160.751,28.3203 160.626,28.4662 160.407,28.487 M160.532,28.1901 L160.532,28.0182 C160.959,27.8932 161.438,27.7266 161.97,27.5182 L162.032,27.5339 L162.032,28.2995 C162.459,27.7787 162.938,27.5182 163.47,27.5182 C164.032,27.5182 164.475,27.7787 164.798,28.2995 C165.027,28.6849 165.141,29.1328 165.141,29.6432 C165.141,30.4557 164.891,31.1172 164.391,31.6276 C164.006,32.013 163.558,32.2057 163.048,32.2057 C162.714,32.2057 162.423,32.1068 162.173,31.9089 C162.121,31.8776 162.074,31.8412 162.032,31.7995 L162.032,33.362 C162.032,33.7057 162.1,33.9141 162.235,33.987 C162.36,34.0599 162.584,34.0964 162.907,34.0964 L162.907,34.2839 L160.485,34.2839 L160.485,34.112 C160.839,34.0807 161.053,33.9974 161.126,33.862 C161.168,33.7682 161.188,33.6224 161.188,33.4245 L161.188,28.737 C161.188,28.4453 161.136,28.2735 161.032,28.2214 C160.97,28.1901 160.886,28.1745 160.782,28.1745 C160.668,28.1745 160.584,28.1797 160.532,28.1901 M162.032,28.7839 L162.032,31.2526 C162.032,31.4297 162.178,31.5964 162.47,31.7526 C162.678,31.8568 162.876,31.9089 163.063,31.9089 C163.522,31.9089 163.86,31.6537 164.079,31.1432 C164.214,30.8203 164.282,30.4557 164.282,30.0495 C164.282,29.2266 164.074,28.6537 163.657,28.3307 C163.48,28.1849 163.277,28.112 163.048,28.112 C162.746,28.112 162.475,28.2214 162.235,28.4401 C162.11,28.5547 162.043,28.6693 162.032,28.7839 M166.36,29.3464 C166.402,30.5235 166.787,31.2162 167.516,31.4245 C167.641,31.4662 167.777,31.487 167.923,31.487 C168.412,31.487 168.829,31.2787 169.173,30.862 C169.266,30.7474 169.365,30.612 169.47,30.4557 L169.626,30.5182 C169.261,31.4766 168.688,32.0287 167.907,32.1745 C167.772,32.1953 167.641,32.2057 167.516,32.2057 C166.777,32.2057 166.246,31.8932 165.923,31.2682 C165.735,30.8932 165.641,30.461 165.641,29.9714 C165.641,29.086 165.918,28.4141 166.47,27.9557 C166.834,27.6641 167.256,27.5182 167.735,27.5182 C168.652,27.5182 169.204,28.0391 169.391,29.0807 C169.412,29.1745 169.428,29.263 169.438,29.3464 L166.36,29.3464 M166.376,29.0495 L168.423,29.0495 C168.329,28.4766 168.162,28.1224 167.923,27.987 C167.798,27.9245 167.636,27.8932 167.438,27.8932 C166.845,27.8932 166.49,28.2682 166.376,29.0182 C166.376,29.0287 166.376,29.0391 166.376,29.0495 M169.985,31.5339 C169.985,31.3985 170.063,31.2526 170.22,31.0964 C170.313,31.0026 170.532,30.7995 170.876,30.487 C170.376,30.2266 170.079,29.8985 169.985,29.5026 C169.964,29.388 169.954,29.2682 169.954,29.1432 C169.954,28.612 170.168,28.1849 170.595,27.862 C170.897,27.6328 171.24,27.5182 171.626,27.5182 C171.876,27.5182 172.183,27.586 172.548,27.7214 C172.787,27.8047 173.001,27.8464 173.188,27.8464 L173.954,27.8464 L173.954,28.2214 L173.126,28.2214 C173.251,28.513 173.313,28.7943 173.313,29.0651 C173.313,29.638 173.089,30.0703 172.641,30.362 C172.371,30.5391 172.079,30.6276 171.766,30.6276 C171.673,30.6276 171.48,30.6068 171.188,30.5651 C170.99,30.6276 170.824,30.7682 170.688,30.987 C170.626,31.0703 170.595,31.1432 170.595,31.2057 C170.595,31.362 170.845,31.4505 171.345,31.4714 C171.355,31.4714 171.365,31.4714 171.376,31.4714 L172.657,31.5339 C173.209,31.5443 173.579,31.7474 173.766,32.1432 C173.839,32.2787 173.876,32.4297 173.876,32.5964 C173.876,33.0964 173.563,33.5235 172.938,33.8776 C172.428,34.1485 171.871,34.2839 171.266,34.2839 C170.641,34.2839 170.157,34.1328 169.813,33.8307 C169.636,33.6641 169.548,33.487 169.548,33.2995 C169.548,33.0078 169.761,32.6797 170.188,32.3151 C170.293,32.2318 170.402,32.1432 170.516,32.0495 C170.214,31.9141 170.043,31.7787 170.001,31.6432 C169.99,31.612 169.985,31.5755 169.985,31.5339 M170.735,32.0807 C170.433,32.4557 170.272,32.7162 170.251,32.862 C170.24,32.9037 170.235,32.9453 170.235,32.987 C170.235,33.2891 170.459,33.5078 170.907,33.6432 C171.136,33.7162 171.402,33.7526 171.704,33.7526 C172.537,33.7526 173.105,33.5703 173.407,33.2057 C173.532,33.0495 173.595,32.888 173.595,32.7214 C173.595,32.4714 173.428,32.3151 173.095,32.2526 C172.907,32.2214 172.657,32.2057 172.345,32.2057 C171.678,32.2057 171.141,32.1641 170.735,32.0807 M172.548,29.4714 C172.548,29.0443 172.459,28.6641 172.282,28.3307 C172.084,27.9974 171.829,27.8255 171.516,27.8151 C171.141,27.8151 170.907,28.013 170.813,28.4089 C170.793,28.513 170.782,28.6276 170.782,28.7526 C170.782,29.5547 171.006,30.0651 171.454,30.2839 C171.569,30.3464 171.683,30.3776 171.798,30.3776 C172.162,30.3776 172.397,30.1953 172.501,29.8307 C172.532,29.7162 172.548,29.5964 172.548,29.4714 M174.985,31.5339 C174.985,31.3985 175.063,31.2526 175.22,31.0964 C175.313,31.0026 175.532,30.7995 175.876,30.487 C175.376,30.2266 175.079,29.8985 174.985,29.5026 C174.964,29.388 174.954,29.2682 174.954,29.1432 C174.954,28.612 175.168,28.1849 175.595,27.862 C175.897,27.6328 176.24,27.5182 176.626,27.5182 C176.876,27.5182 177.183,27.586 177.548,27.7214 C177.787,27.8047 178.001,27.8464 178.188,27.8464 L178.954,27.8464 L178.954,28.2214 L178.126,28.2214 C178.251,28.513 178.313,28.7943 178.313,29.0651 C178.313,29.638 178.089,30.0703 177.641,30.362 C177.371,30.5391 177.079,30.6276 176.766,30.6276 C176.673,30.6276 176.48,30.6068 176.188,30.5651 C175.99,30.6276 175.824,30.7682 175.688,30.987 C175.626,31.0703 175.595,31.1432 175.595,31.2057 C175.595,31.362 175.845,31.4505 176.345,31.4714 C176.355,31.4714 176.365,31.4714 176.376,31.4714 L177.657,31.5339 C178.209,31.5443 178.579,31.7474 178.766,32.1432 C178.839,32.2787 178.876,32.4297 178.876,32.5964 C178.876,33.0964 178.563,33.5235 177.938,33.8776 C177.428,34.1485 176.871,34.2839 176.266,34.2839 C175.641,34.2839 175.157,34.1328 174.813,33.8307 C174.636,33.6641 174.548,33.487 174.548,33.2995 C174.548,33.0078 174.761,32.6797 175.188,32.3151 C175.293,32.2318 175.402,32.1432 175.516,32.0495 C175.214,31.9141 175.043,31.7787 175.001,31.6432 C174.99,31.612 174.985,31.5755 174.985,31.5339 M175.735,32.0807 C175.433,32.4557 175.272,32.7162 175.251,32.862 C175.24,32.9037 175.235,32.9453 175.235,32.987 C175.235,33.2891 175.459,33.5078 175.907,33.6432 C176.136,33.7162 176.402,33.7526 176.704,33.7526 C177.537,33.7526 178.105,33.5703 178.407,33.2057 C178.532,33.0495 178.595,32.888 178.595,32.7214 C178.595,32.4714 178.428,32.3151 178.095,32.2526 C177.907,32.2214 177.657,32.2057 177.345,32.2057 C176.678,32.2057 176.141,32.1641 175.735,32.0807 M177.548,29.4714 C177.548,29.0443 177.459,28.6641 177.282,28.3307 C177.084,27.9974 176.829,27.8255 176.516,27.8151 C176.141,27.8151 175.907,28.013 175.813,28.4089 C175.793,28.513 175.782,28.6276 175.782,28.7526 C175.782,29.5547 176.006,30.0651 176.454,30.2839 C176.569,30.3464 176.683,30.3776 176.798,30.3776 C177.162,30.3776 177.397,30.1953 177.501,29.8307 C177.532,29.7162 177.548,29.5964 177.548,29.4714 M180.016,28.1901 C179.86,28.1901 179.72,28.2005 179.595,28.2214 L179.595,28.0651 C180.063,27.9297 180.579,27.7474 181.141,27.5182 L181.173,27.5495 L181.173,31.0964 C181.173,31.4818 181.23,31.7214 181.345,31.8151 C181.438,31.888 181.631,31.9349 181.923,31.9557 L181.923,32.112 L179.548,32.112 L179.548,31.9557 C179.912,31.9349 180.141,31.8672 180.235,31.7526 C180.308,31.638 180.345,31.4193 180.345,31.0964 L180.345,28.7682 C180.345,28.4141 180.261,28.2214 180.095,28.1901 C180.063,28.1901 180.037,28.1901 180.016,28.1901 M180.673,25.2839 C180.891,25.2839 181.048,25.3828 181.141,25.5807 C181.173,25.6537 181.188,25.7266 181.188,25.7995 C181.188,26.0182 181.084,26.1745 180.876,26.2682 C180.803,26.2891 180.735,26.2995 180.673,26.2995 C180.454,26.2995 180.298,26.2005 180.204,26.0026 C180.183,25.9297 180.173,25.862 180.173,25.7995 C180.173,25.5807 180.266,25.4245 180.454,25.3307 C180.527,25.2995 180.6,25.2839 180.673,25.2839 M184.845,27.5182 C185.584,27.5182 186.168,27.7891 186.595,28.3307 C186.897,28.737 187.048,29.2162 187.048,29.7682 C187.048,30.5495 186.793,31.1745 186.282,31.6432 C185.865,32.0182 185.381,32.2057 184.829,32.2057 C184.121,32.2057 183.558,31.9349 183.141,31.3932 C182.808,30.9557 182.641,30.4401 182.641,29.8464 C182.641,29.0339 182.918,28.4089 183.47,27.9714 C183.855,27.6693 184.313,27.5182 184.845,27.5182 M183.548,29.362 C183.548,30.2682 183.735,30.961 184.11,31.4401 C184.35,31.7526 184.631,31.9089 184.954,31.9089 C185.475,31.9089 185.834,31.612 186.032,31.0182 C186.115,30.7578 186.157,30.461 186.157,30.1276 C186.157,29.2422 185.944,28.586 185.516,28.1589 C185.287,27.9297 185.022,27.8151 184.72,27.8151 C184.251,27.8151 183.912,28.0547 183.704,28.5339 C183.6,28.7735 183.548,29.0495 183.548,29.362 M192.985,27.612 L192.985,27.9089 L191.97,27.9089 L191.97,30.7682 C191.97,31.3099 192.105,31.6068 192.376,31.6589 C192.407,31.6693 192.444,31.6745 192.485,31.6745 C192.694,31.6641 192.897,31.5443 193.095,31.3151 L193.22,31.4401 C192.897,31.9505 192.496,32.2057 192.016,32.2057 C191.433,32.1953 191.136,31.7735 191.126,30.9401 L191.126,27.9089 L190.595,27.9089 C190.574,27.888 190.563,27.8672 190.563,27.8464 C190.563,27.8047 190.605,27.763 190.688,27.7214 C190.97,27.5339 191.303,27.1693 191.688,26.6276 C191.699,26.6172 191.704,26.612 191.704,26.612 C191.808,26.4557 191.876,26.362 191.907,26.3307 C191.949,26.3412 191.97,26.3828 191.97,26.4557 L191.97,27.612 L192.985,27.612 M196.735,29.0182 C196.527,28.3932 196.36,28.0235 196.235,27.9089 C196.141,27.836 196.011,27.7891 195.845,27.7682 L195.845,27.612 L197.876,27.612 L197.876,27.7682 C197.543,27.8099 197.355,27.8828 197.313,27.987 C197.303,28.0287 197.298,28.0755 197.298,28.1276 C197.298,28.211 197.35,28.3985 197.454,28.6901 L197.47,28.7057 L197.47,28.7214 L198.313,30.9557 L199.204,28.737 C199.319,28.4557 199.376,28.237 199.376,28.0807 C199.376,27.9557 199.298,27.8672 199.141,27.8151 C199.079,27.7943 199.011,27.7787 198.938,27.7682 L198.938,27.612 L200.173,27.612 L200.173,27.7682 C200.048,27.8099 199.954,27.8828 199.891,27.987 C199.86,28.0599 199.813,28.1641 199.751,28.2995 L198.376,31.7682 C198.24,32.0807 198.147,32.2422 198.095,32.2526 C198.053,32.2526 197.985,32.1432 197.891,31.9245 C197.881,31.8932 197.871,31.8568 197.86,31.8151 L196.954,29.4557 L195.829,31.862 C195.714,32.112 195.631,32.2422 195.579,32.2526 C195.527,32.2526 195.444,32.112 195.329,31.8307 C195.319,31.8203 195.313,31.8151 195.313,31.8151 L193.97,28.3932 C193.834,28.0495 193.709,27.8516 193.595,27.7995 C193.543,27.7787 193.49,27.7682 193.438,27.7682 L193.438,27.612 L195.235,27.612 L195.235,27.7682 C194.964,27.7995 194.819,27.8776 194.798,28.0026 C194.787,28.0339 194.782,28.0651 194.782,28.0964 C194.782,28.1901 194.803,28.2891 194.845,28.3932 L195.829,31.0026 L196.735,29.0182 M202.845,27.5182 C203.584,27.5182 204.168,27.7891 204.595,28.3307 C204.897,28.737 205.048,29.2162 205.048,29.7682 C205.048,30.5495 204.793,31.1745 204.282,31.6432 C203.865,32.0182 203.381,32.2057 202.829,32.2057 C202.121,32.2057 201.558,31.9349 201.141,31.3932 C200.808,30.9557 200.641,30.4401 200.641,29.8464 C200.641,29.0339 200.918,28.4089 201.47,27.9714 C201.855,27.6693 202.313,27.5182 202.845,27.5182 M201.548,29.362 C201.548,30.2682 201.735,30.961 202.11,31.4401 C202.35,31.7526 202.631,31.9089 202.954,31.9089 C203.475,31.9089 203.834,31.612 204.032,31.0182 C204.115,30.7578 204.157,30.461 204.157,30.1276 C204.157,29.2422 203.944,28.586 203.516,28.1589 C203.287,27.9297 203.022,27.8151 202.72,27.8151 C202.251,27.8151 201.912,28.0547 201.704,28.5339 C201.6,28.7735 201.548,29.0495 201.548,29.362 M210.845,27.5182 C211.584,27.5182 212.168,27.7891 212.595,28.3307 C212.897,28.737 213.048,29.2162 213.048,29.7682 C213.048,30.5495 212.793,31.1745 212.282,31.6432 C211.865,32.0182 211.381,32.2057 210.829,32.2057 C210.121,32.2057 209.558,31.9349 209.141,31.3932 C208.808,30.9557 208.641,30.4401 208.641,29.8464 C208.641,29.0339 208.918,28.4089 209.47,27.9714 C209.855,27.6693 210.313,27.5182 210.845,27.5182 M209.548,29.362 C209.548,30.2682 209.735,30.961 210.11,31.4401 C210.35,31.7526 210.631,31.9089 210.954,31.9089 C211.475,31.9089 211.834,31.612 212.032,31.0182 C212.115,30.7578 212.157,30.461 212.157,30.1276 C212.157,29.2422 211.944,28.586 211.516,28.1589 C211.287,27.9297 211.022,27.8151 210.72,27.8151 C210.251,27.8151 209.912,28.0547 209.704,28.5339 C209.6,28.7735 209.548,29.0495 209.548,29.362 M213.641,29.987 C213.641,29.1432 213.928,28.4818 214.501,28.0026 C214.897,27.6797 215.339,27.5182 215.829,27.5182 C216.381,27.5182 216.808,27.6693 217.11,27.9714 C217.287,28.1485 217.376,28.3412 217.376,28.5495 C217.376,28.7266 217.282,28.8516 217.095,28.9245 C217.022,28.9557 216.954,28.9714 216.891,28.9714 C216.683,28.9714 216.532,28.836 216.438,28.5651 C216.428,28.5443 216.423,28.5235 216.423,28.5026 L216.36,28.2839 C216.298,28.0339 216.183,27.888 216.016,27.8464 C215.944,27.8255 215.86,27.8151 215.766,27.8151 C215.266,27.8151 214.886,28.0547 214.626,28.5339 C214.48,28.8255 214.407,29.1641 214.407,29.5495 C214.407,30.2787 214.631,30.8255 215.079,31.1901 C215.339,31.388 215.631,31.487 215.954,31.487 C216.371,31.487 216.73,31.3203 217.032,30.987 C217.136,30.862 217.251,30.7162 217.376,30.5495 L217.516,30.6432 C217.141,31.362 216.725,31.8307 216.266,32.0495 C216.027,32.1537 215.787,32.2057 215.548,32.2057 C214.902,32.2057 214.397,31.9401 214.032,31.4089 C213.772,31.0026 213.641,30.5287 213.641,29.987 M219.985,27.612 L219.985,27.9089 L218.97,27.9089 L218.97,30.7682 C218.97,31.3099 219.105,31.6068 219.376,31.6589 C219.407,31.6693 219.444,31.6745 219.485,31.6745 C219.694,31.6641 219.897,31.5443 220.095,31.3151 L220.22,31.4401 C219.897,31.9505 219.496,32.2057 219.016,32.2057 C218.433,32.1953 218.136,31.7735 218.126,30.9401 L218.126,27.9089 L217.595,27.9089 C217.574,27.888 217.563,27.8672 217.563,27.8464 C217.563,27.8047 217.605,27.763 217.688,27.7214 C217.97,27.5339 218.303,27.1693 218.688,26.6276 C218.699,26.6172 218.704,26.612 218.704,26.612 C218.808,26.4557 218.876,26.362 218.907,26.3307 C218.949,26.3412 218.97,26.3828 218.97,26.4557 L218.97,27.612 L219.985,27.612 M220.641,31.1432 C220.641,30.6328 220.959,30.2005 221.595,29.8464 C221.782,29.7526 222.282,29.5391 223.095,29.2057 C223.115,29.2057 223.131,29.2005 223.141,29.1901 L223.141,28.5807 C223.089,28.0599 222.834,27.7839 222.376,27.7526 C222.063,27.7526 221.845,27.8516 221.72,28.0495 C221.678,28.1224 221.657,28.1849 221.657,28.237 C221.657,28.2995 221.668,28.3828 221.688,28.487 C221.699,28.5599 221.704,28.612 221.704,28.6432 C221.704,28.8203 221.615,28.9453 221.438,29.0182 C221.376,29.0495 221.319,29.0651 221.266,29.0651 C221.079,29.0651 220.949,28.9766 220.876,28.7995 C220.845,28.7474 220.829,28.6901 220.829,28.6276 C220.829,28.263 221.048,27.9662 221.485,27.737 C221.787,27.5912 222.131,27.5182 222.516,27.5182 C223.235,27.5182 223.678,27.7735 223.845,28.2839 C223.918,28.5026 223.954,28.7787 223.954,29.112 L223.954,31.0495 C223.954,31.3828 224.016,31.5703 224.141,31.612 C224.183,31.6224 224.22,31.6276 224.251,31.6276 C224.397,31.6172 224.543,31.5547 224.688,31.4401 L224.688,31.6901 C224.418,32.0026 224.168,32.1745 223.938,32.2057 C223.886,32.2057 223.834,32.2057 223.782,32.2057 C223.47,32.2057 223.272,32.0495 223.188,31.737 C223.168,31.6537 223.157,31.5599 223.157,31.4557 C222.563,31.9349 222.074,32.1849 221.688,32.2057 C221.261,32.2057 220.954,32.0339 220.766,31.6901 C220.683,31.5235 220.641,31.3412 220.641,31.1432 M223.141,30.862 L223.141,29.4245 C222.319,29.7266 221.813,30.0339 221.626,30.3464 C221.553,30.4922 221.516,30.6485 221.516,30.8151 C221.516,31.211 221.662,31.461 221.954,31.5651 C222.027,31.5964 222.095,31.612 222.157,31.612 C222.376,31.6016 222.615,31.5235 222.876,31.3776 C223.022,31.2943 223.105,31.1901 223.126,31.0651 C223.136,31.0026 223.141,30.9349 223.141,30.862 M229.016,27.612 L229.016,27.7682 C228.85,27.7891 228.725,27.8568 228.641,27.9714 C228.569,28.0755 228.48,28.2682 228.376,28.5495 L227.095,31.7526 C226.959,32.0755 226.865,32.2422 226.813,32.2526 C226.74,32.2526 226.657,32.1068 226.563,31.8151 C226.553,31.8047 226.548,31.7943 226.548,31.7839 L225.345,28.9089 C225.095,28.3151 224.907,27.9662 224.782,27.862 C224.699,27.7995 224.584,27.7682 224.438,27.7682 L224.438,27.612 L226.407,27.612 L226.407,27.7682 C226.126,27.7891 225.975,27.862 225.954,27.987 C225.944,28.0078 225.938,28.0287 225.938,28.0495 C225.938,28.1641 225.97,28.2839 226.032,28.4089 L227.048,30.9714 L228.032,28.3776 C228.074,28.2839 228.095,28.1849 228.095,28.0807 C228.095,27.9037 227.949,27.7995 227.657,27.7682 C227.647,27.7682 227.636,27.7682 227.626,27.7682 L227.626,27.612 L229.016,27.612 M230.36,29.3464 C230.402,30.5235 230.787,31.2162 231.516,31.4245 C231.641,31.4662 231.777,31.487 231.923,31.487 C232.412,31.487 232.829,31.2787 233.173,30.862 C233.266,30.7474 233.365,30.612 233.47,30.4557 L233.626,30.5182 C233.261,31.4766 232.688,32.0287 231.907,32.1745 C231.772,32.1953 231.641,32.2057 231.516,32.2057 C230.777,32.2057 230.246,31.8932 229.923,31.2682 C229.735,30.8932 229.641,30.461 229.641,29.9714 C229.641,29.086 229.918,28.4141 230.47,27.9557 C230.834,27.6641 231.256,27.5182 231.735,27.5182 C232.652,27.5182 233.204,28.0391 233.391,29.0807 C233.412,29.1745 233.428,29.263 233.438,29.3464 L230.36,29.3464 M230.376,29.0495 L232.423,29.0495 C232.329,28.4766 232.162,28.1224 231.923,27.987 C231.798,27.9245 231.636,27.8932 231.438,27.8932 C230.845,27.8932 230.49,28.2682 230.376,29.0182 C230.376,29.0287 230.376,29.0391 230.376,29.0495 M236.063,27.7214 C236.084,27.711 236.141,27.6745 236.235,27.612 L236.345,27.612 L236.376,28.9714 L236.235,28.9714 C236.069,28.3255 235.829,27.9401 235.516,27.8151 C235.402,27.763 235.272,27.737 235.126,27.737 C234.772,27.737 234.532,27.8776 234.407,28.1589 C234.376,28.2422 234.36,28.3307 234.36,28.4245 C234.371,28.7057 234.516,28.9297 234.798,29.0964 L235.876,29.737 C236.355,30.0287 236.626,30.3464 236.688,30.6901 C236.699,30.763 236.704,30.8464 236.704,30.9401 C236.704,31.3568 236.522,31.6953 236.157,31.9557 C235.897,32.1224 235.61,32.2057 235.298,32.2057 C235.162,32.2057 234.855,32.1589 234.376,32.0651 C234.261,32.0443 234.173,32.0339 234.11,32.0339 C234.006,32.0443 233.928,32.086 233.876,32.1589 L233.751,32.1589 L233.751,30.5964 L233.907,30.5964 C234.011,31.0651 234.141,31.3932 234.298,31.5807 C234.516,31.8516 234.808,31.987 235.173,31.987 C235.6,31.987 235.865,31.8307 235.97,31.5182 C236.001,31.4453 236.016,31.362 236.016,31.2682 C236.006,30.9662 235.829,30.7162 235.485,30.5182 L234.907,30.1901 C234.282,29.836 233.912,29.4818 233.798,29.1276 C233.756,29.0026 233.735,28.8776 233.735,28.7526 C233.735,28.2839 233.938,27.9349 234.345,27.7057 C234.574,27.5807 234.824,27.5182 235.095,27.5182 C235.313,27.5182 235.574,27.5703 235.876,27.6745 C235.959,27.7057 236.022,27.7214 236.063,27.7214"/>
</svg>
