<?xml version="1.0" encoding="UTF-8" standalone="no"?>
<svg width="595.44px" height="841.68px" viewBox="0 0 595.44 841.68"
 xmlns="http://www.w3.org/2000/svg" xmlns:xlink="http://www.w3.org/1999/xlink" version="1.2" baseProfile="tiny">
<title>Guitar Scales and Arpeggios</title>
<desc>Generated by MuseScore 2.1.0</desc>
<polyline class="StaffLines" fill="none" stroke="#000000" stroke-width="0.40" stroke-linejoin="bevel" points="28.08,62.856 567.36,62.856"/>
<polyline class="StaffLines" fill="none" stroke="#000000" stroke-width="0.40" stroke-linejoin="bevel" points="28.08,67.824 567.36,67.824"/>
<polyline class="StaffLines" fill="none" stroke="#000000" stroke-width="0.40" stroke-linejoin="bevel" points="28.08,72.792 567.36,72.792"/>
<polyline class="StaffLines" fill="none" stroke="#000000" stroke-width="0.40" stroke-linejoin="bevel" points="28.08,77.76 567.36,77.76"/>
<polyline class="StaffLines" fill="none" stroke="#000000" stroke-width="0.40" stroke-linejoin="bevel" points="28.08,82.728 567.36,82.728"/>
<polyline class="StaffLines" fill="none" stroke="#000000" stroke-width="0.40" stroke-linejoin="bevel" points="28.08,115.02 567.36,115.02"/>
<polyline class="StaffLines" fill="none" stroke="#000000" stroke-width="0.40" stroke-linejoin="bevel" points="28.08,122.472 567.36,122.472"/>
<polyline class="StaffLines" fill="none" stroke="#000000" stroke-width="0.40" stroke-linejoin="bevel" points="28.08,129.924 567.36,129.924"/>
<polyline class="StaffLines" fill="none" stroke="#000000" stroke-width="0.40" stroke-linejoin="bevel" points="28.08,137.376 567.36,137.376"/>
<polyline class="StaffLines" fill="none" stroke="#000000" stroke-width="0.40" stroke-linejoin="bevel" points="28.08,144.828 567.36,144.828"/>
<polyline class="StaffLines" fill="none" stroke="#000000" stroke-width="0.40" stroke-linejoin="bevel" points="28.08,152.28 567.36,152.28"/>
<polyline class="BarLine" fill="none" stroke="#000000" stroke-width="0.79" stroke-linejoin="bevel" points="28.4774,62.856 28.4774,152.28"/>
<polyline class="BarLine" fill="none" stroke="#000000" stroke-width="0.79" stroke-linejoin="bevel" points="562.491,115.02 562.491,152.28"/>
<polyline class="BarLine" fill="none" stroke="#000000" stroke-width="2.48" stroke-linejoin="bevel" points="566.118,115.02 566.118,152.28"/>
<polyline class="BarLine" fill="none" stroke="#000000" stroke-width="0.79" stroke-linejoin="bevel" points="562.491,62.856 562.491,82.728"/>
<polyline class="BarLine" fill="none" stroke="#000000" stroke-width="2.48" stroke-linejoin="bevel" points="566.118,62.856 566.118,82.728"/>
<polyline class="LedgerLine" fill="none" stroke="#000000" stroke-width="0.79" stroke-linecap="square" stroke-linejoin="bevel" points="458.15,87.696 467.672,87.696"/>
<polyline class="LedgerLine" fill="none" stroke="#000000" stroke-width="0.79" stroke-linecap="square" stroke-linejoin="bevel" points="73.9509,87.696 83.4724,87.696"/>
<polyline class="Stem" fill="none" stroke="#000000" stroke-width="0.65" stroke-linecap="round" stroke-linejoin="bevel" points="465.859,86.7629 465.859,70.308"/>
<polyline class="Stem" fill="none" stroke="#000000" stroke-width="0.65" stroke-linecap="round" stroke-linejoin="bevel" points="401.825,81.7949 401.825,62.856"/>
<polyline class="Stem" fill="none" stroke="#000000" stroke-width="0.65" stroke-linecap="round" stroke-linejoin="bevel" points="337.792,76.8269 337.792,59.751"/>
<polyline class="Stem" fill="none" stroke="#000000" stroke-width="0.65" stroke-linecap="round" stroke-linejoin="bevel" points="273.759,69.3749 273.759,56.646"/>
<polyline class="Stem" fill="none" stroke="#000000" stroke-width="0.65" stroke-linecap="round" stroke-linejoin="bevel" points="209.726,76.8269 209.726,62.856"/>
<polyline class="Stem" fill="none" stroke="#000000" stroke-width="0.65" stroke-linecap="round" stroke-linejoin="bevel" points="145.692,81.7949 145.692,65.961"/>
<polyline class="Stem" fill="none" stroke="#000000" stroke-width="0.65" stroke-linecap="round" stroke-linejoin="bevel" points="81.6591,86.7629 81.6591,69.066"/>
<path class="Note" fill="#ffffff" fill-rule="evenodd" d="M460.386,141.102 L466.348,141.102 L466.348,148.554 L460.386,148.554 L460.386,141.102 "/>
<path class="Note" transform="matrix(0.9936,0,0,0.9936,460.883,148.306)" d="M2.4375,-5.64063 C1.75,-5.64063 1.35417,-5.32813 1.25,-4.70313 C1.22917,-4.59896 1.21875,-4.47917 1.21875,-4.34375 L0.421875,-4.34375 C0.442708,-5.59375 1.01563,-6.27083 2.14063,-6.375 C2.23438,-6.38542 2.32813,-6.39063 2.42188,-6.39063 C3.26563,-6.39063 3.84375,-6.10938 4.15625,-5.54688 C4.29167,-5.28646 4.35938,-4.98438 4.35938,-4.64063 C4.35938,-4.00521 4.0625,-3.57292 3.46875,-3.34375 C4.03125,-3.14583 4.375,-2.81771 4.5,-2.35938 C4.54167,-2.19271 4.5625,-2.00521 4.5625,-1.79688 C4.5625,-1.05729 4.27604,-0.505208 3.70313,-0.140625 C3.33854,0.0885417 2.90104,0.203125 2.39063,0.203125 C1.21354,0.203125 0.526042,-0.348958 0.328125,-1.45313 C0.317708,-1.57813 0.302083,-1.71354 0.28125,-1.85938 L1.07813,-1.85938 C1.13021,-1.08854 1.46875,-0.65625 2.09375,-0.5625 C2.19792,-0.541667 2.30729,-0.53125 2.42188,-0.53125 C3.04688,-0.53125 3.45313,-0.765625 3.64063,-1.23438 C3.71354,-1.40104 3.75,-1.58854 3.75,-1.79688 C3.73958,-2.54688 3.29688,-2.92708 2.42188,-2.9375 L2.09375,-2.92188 L1.98438,-2.92188 L1.98438,-3.67188 C2.66146,-3.68229 3.10417,-3.77604 3.3125,-3.95313 C3.47917,-4.09896 3.5625,-4.31771 3.5625,-4.60938 C3.5625,-5.09896 3.34896,-5.41667 2.92188,-5.5625 C2.77604,-5.61458 2.61458,-5.64063 2.4375,-5.64063"/>
<path class="Note" fill="#ed2929" transform="matrix(0.9936,0,0,0.9936,459.641,87.696)" d="M4.39063,-2.75 C5.01563,-2.75 5.54688,-2.58854 5.98438,-2.26563 C6.38021,-1.91146 6.57813,-1.46875 6.57813,-0.9375 C6.57813,-0.0416667 6.11979,0.796875 5.20313,1.57813 C4.26563,2.35938 3.26042,2.75 2.1875,2.75 C1.5625,2.75 1.03646,2.58854 0.609375,2.26563 C0.203125,1.91146 0,1.46875 0,0.9375 C0,0.0416667 0.46875,-0.796875 1.40625,-1.57813 C2.32292,-2.35938 3.31771,-2.75 4.39063,-2.75"/>
<path class="Note" fill="#ffffff" fill-rule="evenodd" d="M396.353,133.65 L402.314,133.65 L402.314,141.102 L396.353,141.102 L396.353,133.65 "/>
<path class="Note" transform="matrix(0.9936,0,0,0.9936,396.85,140.854)" d="M2.32813,-4.54688 L0.921875,-4.54688 L0.921875,-5.10938 C1.53646,-5.19271 1.93229,-5.30208 2.10938,-5.4375 C2.28646,-5.57292 2.4375,-5.85417 2.5625,-6.28125 C2.57292,-6.3125 2.58854,-6.34896 2.60938,-6.39063 L3.125,-6.39063 L3.125,0 L2.32813,0 L2.32813,-4.54688 "/>
<path class="Note" fill="#00008b" transform="matrix(0.9936,0,0,0.9936,395.608,82.728)" d="M4.39063,-2.75 C5.01563,-2.75 5.54688,-2.58854 5.98438,-2.26563 C6.38021,-1.91146 6.57813,-1.46875 6.57813,-0.9375 C6.57813,-0.0416667 6.11979,0.796875 5.20313,1.57813 C4.26563,2.35938 3.26042,2.75 2.1875,2.75 C1.5625,2.75 1.03646,2.58854 0.609375,2.26563 C0.203125,1.91146 0,1.46875 0,0.9375 C0,0.0416667 0.46875,-0.796875 1.40625,-1.57813 C2.32292,-2.35938 3.31771,-2.75 4.39063,-2.75"/>
<path class="Note" fill="#ffffff" fill-rule="evenodd" d="M332.319,126.198 L338.281,126.198 L338.281,133.65 L332.319,133.65 L332.319,126.198 "/>
<path class="Note" transform="matrix(0.9936,0,0,0.9936,332.816,133.402)" d="M0.390625,-3.09375 C0.390625,-5 0.927083,-6.07813 2,-6.32813 C2.14583,-6.36979 2.30208,-6.39063 2.46875,-6.39063 C3.78125,-6.39063 4.47917,-5.40104 4.5625,-3.42188 C4.5625,-3.28646 4.5625,-3.15625 4.5625,-3.03125 C4.5625,-1.40625 4.15104,-0.385417 3.32813,0.03125 C3.06771,0.145833 2.78125,0.203125 2.46875,0.203125 C1.41667,0.203125 0.760417,-0.442708 0.5,-1.73438 C0.427083,-2.14063 0.390625,-2.59375 0.390625,-3.09375 M2.46875,-5.64063 C1.625,-5.63021 1.20313,-4.77083 1.20313,-3.0625 C1.20313,-1.32292 1.61979,-0.453125 2.45313,-0.453125 C3.16146,-0.453125 3.57813,-1.02604 3.70313,-2.17188 C3.73438,-2.44271 3.75,-2.75 3.75,-3.09375 C3.75,-4.79167 3.32292,-5.64063 2.46875,-5.64063"/>
<path class="Note" fill="#99cc33" transform="matrix(0.9936,0,0,0.9936,331.574,77.76)" d="M4.39063,-2.75 C5.01563,-2.75 5.54688,-2.58854 5.98438,-2.26563 C6.38021,-1.91146 6.57813,-1.46875 6.57813,-0.9375 C6.57813,-0.0416667 6.11979,0.796875 5.20313,1.57813 C4.26563,2.35938 3.26042,2.75 2.1875,2.75 C1.5625,2.75 1.03646,2.58854 0.609375,2.26563 C0.203125,1.91146 0,1.46875 0,0.9375 C0,0.0416667 0.46875,-0.796875 1.40625,-1.57813 C2.32292,-2.35938 3.31771,-2.75 4.39063,-2.75"/>
<path class="Note" fill="#ffffff" fill-rule="evenodd" d="M268.286,118.746 L274.248,118.746 L274.248,126.198 L268.286,126.198 L268.286,118.746 "/>
<path class="Note" transform="matrix(0.9936,0,0,0.9936,268.783,125.95)" d="M2.32813,-4.54688 L0.921875,-4.54688 L0.921875,-5.10938 C1.53646,-5.19271 1.93229,-5.30208 2.10938,-5.4375 C2.28646,-5.57292 2.4375,-5.85417 2.5625,-6.28125 C2.57292,-6.3125 2.58854,-6.34896 2.60938,-6.39063 L3.125,-6.39063 L3.125,0 L2.32813,0 L2.32813,-4.54688 "/>
<path class="Note" fill="#ed2929" transform="matrix(0.9936,0,0,0.9936,267.541,70.308)" d="M4.39063,-2.75 C5.01563,-2.75 5.54688,-2.58854 5.98438,-2.26563 C6.38021,-1.91146 6.57813,-1.46875 6.57813,-0.9375 C6.57813,-0.0416667 6.11979,0.796875 5.20313,1.57813 C4.26563,2.35938 3.26042,2.75 2.1875,2.75 C1.5625,2.75 1.03646,2.58854 0.609375,2.26563 C0.203125,1.91146 0,1.46875 0,0.9375 C0,0.0416667 0.46875,-0.796875 1.40625,-1.57813 C2.32292,-2.35938 3.31771,-2.75 4.39063,-2.75"/>
<path class="Note" fill="#ffffff" fill-rule="evenodd" d="M204.253,126.198 L210.215,126.198 L210.215,133.65 L204.253,133.65 L204.253,126.198 "/>
<path class="Note" transform="matrix(0.9936,0,0,0.9936,204.75,133.402)" d="M0.390625,-3.09375 C0.390625,-5 0.927083,-6.07813 2,-6.32813 C2.14583,-6.36979 2.30208,-6.39063 2.46875,-6.39063 C3.78125,-6.39063 4.47917,-5.40104 4.5625,-3.42188 C4.5625,-3.28646 4.5625,-3.15625 4.5625,-3.03125 C4.5625,-1.40625 4.15104,-0.385417 3.32813,0.03125 C3.06771,0.145833 2.78125,0.203125 2.46875,0.203125 C1.41667,0.203125 0.760417,-0.442708 0.5,-1.73438 C0.427083,-2.14063 0.390625,-2.59375 0.390625,-3.09375 M2.46875,-5.64063 C1.625,-5.63021 1.20313,-4.77083 1.20313,-3.0625 C1.20313,-1.32292 1.61979,-0.453125 2.45313,-0.453125 C3.16146,-0.453125 3.57813,-1.02604 3.70313,-2.17188 C3.73438,-2.44271 3.75,-2.75 3.75,-3.09375 C3.75,-4.79167 3.32292,-5.64063 2.46875,-5.64063"/>
<path class="Note" fill="#99cc33" transform="matrix(0.9936,0,0,0.9936,203.508,77.76)" d="M4.39063,-2.75 C5.01563,-2.75 5.54688,-2.58854 5.98438,-2.26563 C6.38021,-1.91146 6.57813,-1.46875 6.57813,-0.9375 C6.57813,-0.0416667 6.11979,0.796875 5.20313,1.57813 C4.26563,2.35938 3.26042,2.75 2.1875,2.75 C1.5625,2.75 1.03646,2.58854 0.609375,2.26563 C0.203125,1.91146 0,1.46875 0,0.9375 C0,0.0416667 0.46875,-0.796875 1.40625,-1.57813 C2.32292,-2.35938 3.31771,-2.75 4.39063,-2.75"/>
<path class="Note" fill="#ffffff" fill-rule="evenodd" d="M140.22,133.65 L146.181,133.65 L146.181,141.102 L140.22,141.102 L140.22,133.65 "/>
<path class="Note" transform="matrix(0.9936,0,0,0.9936,140.717,140.854)" d="M2.32813,-4.54688 L0.921875,-4.54688 L0.921875,-5.10938 C1.53646,-5.19271 1.93229,-5.30208 2.10938,-5.4375 C2.28646,-5.57292 2.4375,-5.85417 2.5625,-6.28125 C2.57292,-6.3125 2.58854,-6.34896 2.60938,-6.39063 L3.125,-6.39063 L3.125,0 L2.32813,0 L2.32813,-4.54688 "/>
<path class="Note" fill="#00008b" transform="matrix(0.9936,0,0,0.9936,139.475,82.728)" d="M4.39063,-2.75 C5.01563,-2.75 5.54688,-2.58854 5.98438,-2.26563 C6.38021,-1.91146 6.57813,-1.46875 6.57813,-0.9375 C6.57813,-0.0416667 6.11979,0.796875 5.20313,1.57813 C4.26563,2.35938 3.26042,2.75 2.1875,2.75 C1.5625,2.75 1.03646,2.58854 0.609375,2.26563 C0.203125,1.91146 0,1.46875 0,0.9375 C0,0.0416667 0.46875,-0.796875 1.40625,-1.57813 C2.32292,-2.35938 3.31771,-2.75 4.39063,-2.75"/>
<path class="Note" fill="#ffffff" fill-rule="evenodd" d="M76.1865,141.102 L82.1481,141.102 L82.1481,148.554 L76.1865,148.554 L76.1865,141.102 "/>
<path class="Note" transform="matrix(0.9936,0,0,0.9936,76.6833,148.306)" d="M2.4375,-5.64063 C1.75,-5.64063 1.35417,-5.32813 1.25,-4.70313 C1.22917,-4.59896 1.21875,-4.47917 1.21875,-4.34375 L0.421875,-4.34375 C0.442708,-5.59375 1.01563,-6.27083 2.14063,-6.375 C2.23438,-6.38542 2.32813,-6.39063 2.42188,-6.39063 C3.26563,-6.39063 3.84375,-6.10938 4.15625,-5.54688 C4.29167,-5.28646 4.35938,-4.98438 4.35938,-4.64063 C4.35938,-4.00521 4.0625,-3.57292 3.46875,-3.34375 C4.03125,-3.14583 4.375,-2.81771 4.5,-2.35938 C4.54167,-2.19271 4.5625,-2.00521 4.5625,-1.79688 C4.5625,-1.05729 4.27604,-0.505208 3.70313,-0.140625 C3.33854,0.0885417 2.90104,0.203125 2.39063,0.203125 C1.21354,0.203125 0.526042,-0.348958 0.328125,-1.45313 C0.317708,-1.57813 0.302083,-1.71354 0.28125,-1.85938 L1.07813,-1.85938 C1.13021,-1.08854 1.46875,-0.65625 2.09375,-0.5625 C2.19792,-0.541667 2.30729,-0.53125 2.42188,-0.53125 C3.04688,-0.53125 3.45313,-0.765625 3.64063,-1.23438 C3.71354,-1.40104 3.75,-1.58854 3.75,-1.79688 C3.73958,-2.54688 3.29688,-2.92708 2.42188,-2.9375 L2.09375,-2.92188 L1.98438,-2.92188 L1.98438,-3.67188 C2.66146,-3.68229 3.10417,-3.77604 3.3125,-3.95313 C3.47917,-4.09896 3.5625,-4.31771 3.5625,-4.60938 C3.5625,-5.09896 3.34896,-5.41667 2.92188,-5.5625 C2.77604,-5.61458 2.61458,-5.64063 2.4375,-5.64063"/>
<path class="Note" fill="#ed2929" transform="matrix(0.9936,0,0,0.9936,75.4413,87.696)" d="M4.39063,-2.75 C5.01563,-2.75 5.54688,-2.58854 5.98438,-2.26563 C6.38021,-1.91146 6.57813,-1.46875 6.57813,-0.9375 C6.57813,-0.0416667 6.11979,0.796875 5.20313,1.57813 C4.26563,2.35938 3.26042,2.75 2.1875,2.75 C1.5625,2.75 1.03646,2.58854 0.609375,2.26563 C0.203125,1.91146 0,1.46875 0,0.9375 C0,0.0416667 0.46875,-0.796875 1.40625,-1.57813 C2.32292,-2.35938 3.31771,-2.75 4.39063,-2.75"/>
<path class="Clef" transform="matrix(0.9936,0,0,0.9936,32.0544,133.65)" d="M5.32813,8.5 C5.32813,8.86458 5.04167,9.04688 4.46875,9.04688 C4.02083,9.04688 3.625,8.91146 3.28125,8.64063 C2.95833,8.34896 2.79688,7.98438 2.79688,7.54688 C2.79688,6.76563 3.27083,6.14063 4.21875,5.67188 C5.14583,5.18229 6.23438,4.9375 7.48438,4.9375 C7.96354,4.9375 8.47917,4.97396 9.03125,5.04688 C9.42708,5.09896 9.875,5.20313 10.375,5.35938 C10.8125,5.49479 11.1563,5.70573 11.4063,5.99219 C11.6563,6.27865 11.7813,6.61458 11.7813,7 C11.7813,7.89583 11.3177,8.63021 10.3906,9.20313 C11.7448,9.45313 12.4271,10.0573 12.4375,11.0156 C12.4375,11.8281 12.0729,12.5599 11.3438,13.2109 C10.6146,13.862 9.79167,14.1875 8.875,14.1875 C8.47917,14.1875 8.07813,14.0938 7.67188,13.9063 C7.29688,13.7292 7.03125,13.5625 6.875,13.4063 C6.71875,13.2188 6.64063,13.0781 6.64063,12.9844 C6.64063,12.8594 6.70833,12.75 6.84375,12.6563 C6.95833,12.5417 7.07813,12.4844 7.20313,12.4844 C7.25521,12.4844 7.36719,12.5677 7.53906,12.7344 C7.71094,12.901 7.95833,12.9844 8.28125,12.9844 C8.72917,12.9844 9.16146,12.7969 9.57813,12.4219 C9.97396,12.0573 10.1719,11.6198 10.1719,11.1094 C10.1719,10.6719 9.98438,10.3542 9.60938,10.1563 C9.24479,9.95833 8.76563,9.85938 8.17188,9.85938 C8.06771,9.85938 8.01563,9.75 8.01563,9.53125 C8.01563,9.21875 8.13021,9.0625 8.35938,9.0625 C8.72396,9.0625 9.05208,8.90625 9.34375,8.59375 C9.61458,8.26042 9.75,7.90104 9.75,7.51563 C9.75,7.40104 9.71875,7.22917 9.65625,7 C9.60417,6.84375 9.44792,6.65104 9.1875,6.42188 C8.9375,6.21354 8.58854,6.07292 8.14063,6 C8.02604,6.63542 7.88021,7.44792 7.70313,8.4375 C7.52604,9.42708 7.40625,10.0781 7.34375,10.3906 C7.125,11.5156 6.72396,12.4583 6.14063,13.2188 C5.52604,14.0313 4.86458,14.4375 4.15625,14.4375 C3.9375,14.4375 3.71354,14.3854 3.48438,14.2813 C3.29688,14.1979 3.0625,14.0365 2.78125,13.7969 C2.52083,13.5885 2.34375,13.4479 2.25,13.375 C2.19792,13.3438 2.17188,13.2865 2.17188,13.2031 C2.17188,13.0781 2.21875,12.9635 2.3125,12.8594 C2.41667,12.7344 2.52604,12.6719 2.64063,12.6719 C2.71354,12.6719 2.89323,12.7969 3.17969,13.0469 C3.46615,13.2969 3.76563,13.4219 4.07813,13.4219 C4.68229,13.4219 5.13542,13.0365 5.4375,12.2656 C5.71875,11.526 5.85938,10.6094 5.85938,9.51563 L5.85938,9.35938 C5.85938,8.63021 5.97917,7.54167 6.21875,6.09375 C5.80208,6.22917 5.46875,6.42708 5.21875,6.6875 C4.95833,6.94792 4.82813,7.21875 4.82813,7.5 C4.82813,7.71875 4.91146,7.90625 5.07813,8.0625 C5.24479,8.21875 5.32813,8.36458 5.32813,8.5 M1.40625,2.39063 C1.46875,2.39063 1.625,2.45313 1.875,2.57813 C2.13542,2.71354 2.35938,2.78125 2.54688,2.78125 C3.03646,2.78125 3.64063,2.42188 4.35938,1.70313 C6.43229,-0.411458 7.85938,-2.65104 8.64063,-5.01563 C8.79688,-5.51563 9.17708,-5.76563 9.78125,-5.76563 C10.0938,-5.76563 10.3646,-5.69792 10.5938,-5.5625 C10.8125,-5.42708 10.9219,-5.28646 10.9219,-5.14063 L10.5625,2.17188 C10.5625,2.55729 10.7031,2.75 10.9844,2.75 C11.1198,2.75 11.3281,2.6875 11.6094,2.5625 C11.8698,2.42708 12.026,2.35938 12.0781,2.35938 C12.1823,2.35938 12.2448,2.47396 12.2656,2.70313 C12.2656,2.91146 12.1823,3.04167 12.0156,3.09375 C11.8802,3.125 11.6198,3.24479 11.2344,3.45313 C10.8281,3.66146 10.5104,3.76563 10.2813,3.76563 C9.78125,3.76563 9.42708,3.375 9.21875,2.59375 C8.89583,1.375 8.6875,0.104167 8.59375,-1.21875 C8.07292,-0.552083 7.49479,0.119792 6.85938,0.796875 C7.08854,1.24479 7.51563,1.46875 8.14063,1.46875 C8.23438,1.46875 8.30729,1.46354 8.35938,1.45313 L8.375,1.45313 C8.47917,1.45313 8.53125,1.54688 8.53125,1.73438 C8.53125,1.98438 8.44792,2.13542 8.28125,2.1875 C8.01042,2.28125 7.72396,2.32813 7.42188,2.32813 C6.77604,2.32813 6.30729,2.10417 6.01563,1.65625 L5.23438,2.35938 C4.14063,3.29688 3.25,3.76563 2.5625,3.76563 C2.375,3.76563 2.1875,3.73438 2,3.67188 C1.84375,3.60938 1.66146,3.51042 1.45313,3.375 C1.36979,3.34375 1.27865,3.29688 1.17969,3.23438 C1.08073,3.17188 1.02083,3.13542 1,3.125 C0.9375,3.10417 0.90625,3.04688 0.90625,2.95313 C0.90625,2.84896 0.958333,2.72396 1.0625,2.57813 C1.14583,2.45313 1.26042,2.39063 1.40625,2.39063 M5.76563,-10.7969 C5.76563,-10.474 5.48438,-10.3125 4.92188,-10.3125 C4.43229,-10.3125 4.00521,-10.474 3.64063,-10.7969 C3.28646,-11.1302 3.10938,-11.5313 3.10938,-12 C3.10938,-12.4479 3.25,-12.8385 3.53125,-13.1719 C3.83333,-13.5052 4.21875,-13.7552 4.6875,-13.9219 C5.11458,-14.0781 5.59896,-14.2031 6.14063,-14.2969 C6.69271,-14.3594 7.22396,-14.3906 7.73438,-14.3906 C8.03646,-14.3906 8.59896,-14.2552 9.42188,-13.9844 C10.2552,-13.7135 10.8333,-13.5781 11.1563,-13.5781 C11.5625,-13.5781 11.9479,-13.651 12.3125,-13.7969 C12.6042,-13.9219 12.8906,-14.0677 13.1719,-14.2344 C13.3906,-14.3802 13.5104,-14.4531 13.5313,-14.4531 C13.6563,-14.4531 13.7604,-14.4167 13.8438,-14.3438 C13.9479,-14.2396 14,-14.151 14,-14.0781 C14,-13.9948 13.8802,-13.849 13.6406,-13.6406 C13.3802,-13.401 13.0078,-13.1641 12.5234,-12.9297 C12.0391,-12.6953 11.5313,-12.5781 11,-12.5781 C10.7604,-12.5781 10.4688,-12.6198 10.125,-12.7031 C9.89583,-11.2552 9.66146,-9.96875 9.42188,-8.84375 C9.21354,-7.85417 8.79688,-6.98958 8.17188,-6.25 C7.56771,-5.51042 6.89583,-5.14063 6.15625,-5.14063 C5.85417,-5.14063 5.58854,-5.19792 5.35938,-5.3125 C5.09896,-5.44792 4.82292,-5.64583 4.53125,-5.90625 C4.30208,-6.09375 4.08333,-6.26563 3.875,-6.42188 C3.82292,-6.46354 3.79688,-6.52604 3.79688,-6.60938 C3.79688,-6.69271 3.84896,-6.80729 3.95313,-6.95313 C4.05729,-7.06771 4.15104,-7.125 4.23438,-7.125 C4.31771,-7.125 4.54167,-6.96354 4.90625,-6.64063 C5.27083,-6.31771 5.59375,-6.15625 5.875,-6.15625 C6.39583,-6.15625 6.80208,-6.45313 7.09375,-7.04688 C7.375,-7.64063 7.53646,-8.34375 7.57813,-9.15625 C7.64063,-10.5 7.79167,-11.8906 8.03125,-13.3281 C7.73958,-13.3906 7.52604,-13.4219 7.39063,-13.4219 C6.76563,-13.4219 6.22917,-13.2917 5.78125,-13.0313 C5.34375,-12.7813 5.125,-12.4427 5.125,-12.0156 C5.125,-11.7031 5.22917,-11.4635 5.4375,-11.2969 C5.65625,-11.1094 5.76563,-10.9427 5.76563,-10.7969"/>
<path class="Clef" transform="matrix(0.9936,0,0,0.9936,32.0544,77.76)" d="M7.34375,-5.125 C7.34375,-5.125 7.38542,-5.125 7.46875,-5.125 C7.52083,-5.13542 7.5625,-5.14063 7.59375,-5.14063 C9.05208,-5.14063 10.25,-4.625 11.1875,-3.59375 C12.125,-2.58333 12.5938,-1.40104 12.5938,-0.046875 C12.5938,1.64063 11.901,3.01042 10.5156,4.0625 C10.151,4.35417 9.67188,4.58854 9.07813,4.76563 C9.15104,5.60938 9.1875,6.29167 9.1875,6.8125 C9.1875,6.91667 9.17188,7.29688 9.14063,7.95313 C9.08854,9.16146 8.67188,10.2083 7.89063,11.0938 C7.14063,11.9688 6.20313,12.4063 5.07813,12.4063 C4.02604,12.4063 3.13021,12.0365 2.39063,11.2969 C1.64063,10.5365 1.26563,9.625 1.26563,8.5625 C1.26563,8 1.48438,7.52083 1.92188,7.125 C2.35938,6.73958 2.86979,6.54688 3.45313,6.54688 C3.97396,6.54688 4.41146,6.75 4.76563,7.15625 C5.13021,7.53125 5.3125,8 5.3125,8.5625 C5.3125,9.0625 5.13021,9.49479 4.76563,9.85938 C4.40104,10.224 3.96354,10.4063 3.45313,10.4063 C3.24479,10.4063 3.04688,10.3698 2.85938,10.2969 C3.43229,11.1406 4.19271,11.5625 5.14063,11.5625 C6.03646,11.5625 6.77083,11.1979 7.34375,10.4688 C7.94792,9.71875 8.27604,8.83854 8.32813,7.82813 C8.34896,7.20313 8.35938,6.84896 8.35938,6.76563 C8.35938,6.03646 8.33333,5.4375 8.28125,4.96875 C7.63542,5.07292 7.05729,5.125 6.54688,5.125 C4.73438,5.125 3.19271,4.40625 1.92188,2.96875 C0.671875,1.52083 0.046875,-0.197917 0.046875,-2.1875 C0.046875,-2.60417 0.0833333,-3.02604 0.15625,-3.45313 C0.239583,-3.80729 0.338542,-4.19271 0.453125,-4.60938 C0.515625,-4.84896 0.692708,-5.22917 0.984375,-5.75 C1.08854,-5.90625 1.20573,-6.10156 1.33594,-6.33594 C1.46615,-6.57031 1.55729,-6.72396 1.60938,-6.79688 C1.73438,-7.05729 1.98438,-7.41146 2.35938,-7.85938 C2.46354,-7.97396 2.57292,-8.10156 2.6875,-8.24219 C2.80208,-8.38281 2.89844,-8.5 2.97656,-8.59375 C3.05469,-8.6875 3.11198,-8.76042 3.14844,-8.8125 C3.1849,-8.86458 3.47917,-9.20833 4.03125,-9.84375 C4.15625,-9.97917 4.28125,-10.1198 4.40625,-10.2656 C4.53125,-10.4115 4.63281,-10.5286 4.71094,-10.6172 C4.78906,-10.7057 4.84896,-10.7656 4.89063,-10.7969 C4.42188,-12.349 4.125,-13.5885 4,-14.5156 C3.91667,-15.2552 3.875,-16.2708 3.875,-17.5625 C3.875,-18.6979 4.13542,-19.7604 4.65625,-20.75 C5.15625,-21.7708 5.86458,-22.6094 6.78125,-23.2656 C6.84375,-23.3073 6.90625,-23.3281 6.96875,-23.3281 C7.0625,-23.3281 7.13021,-23.3073 7.17188,-23.2656 C7.86979,-22.4219 8.47396,-21.3229 8.98438,-19.9688 C9.50521,-18.6146 9.76563,-17.3802 9.76563,-16.2656 C9.76563,-15.0156 9.46875,-13.8438 8.875,-12.75 C8.19792,-11.5938 7.32292,-10.3958 6.25,-9.15625 C6.52083,-8.30208 6.88542,-6.95833 7.34375,-5.125 M9,3.96875 C9.67708,3.71875 10.2083,3.29688 10.5938,2.70313 C11.0104,2.13021 11.2188,1.48438 11.2188,0.765625 C11.2188,-0.161458 10.9063,-0.984375 10.2813,-1.70313 C9.63542,-2.44271 8.81771,-2.85938 7.82813,-2.95313 C8.39063,-0.203125 8.78125,2.10417 9,3.96875 M1.45313,-0.546875 C1.45313,0.744792 1.97396,1.88021 3.01563,2.85938 C4.07813,3.80729 5.27604,4.28125 6.60938,4.28125 C7.15104,4.28125 7.68229,4.23958 8.20313,4.15625 C7.99479,2.17708 7.58333,-0.192708 6.96875,-2.95313 C6.22917,-2.86979 5.64063,-2.60938 5.20313,-2.17188 C4.76563,-1.71354 4.54688,-1.19792 4.54688,-0.625 C4.54688,0.364583 5.07813,1.16667 6.14063,1.78125 C6.22396,1.875 6.26563,1.97396 6.26563,2.07813 C6.26563,2.18229 6.22396,2.27604 6.14063,2.35938 C6.05729,2.45313 5.95833,2.5 5.84375,2.5 C5.83333,2.5 5.77604,2.48958 5.67188,2.46875 C4.92188,2.0625 4.34896,1.54167 3.95313,0.90625 C3.56771,0.21875 3.375,-0.46875 3.375,-1.15625 C3.375,-2.05208 3.65625,-2.86458 4.21875,-3.59375 C4.80208,-4.32292 5.5625,-4.79167 6.5,-5 C6.13542,-6.45833 5.83854,-7.59896 5.60938,-8.42188 C5.40104,-8.18229 5.15104,-7.89844 4.85938,-7.57031 C4.56771,-7.24219 4.39583,-7.04167 4.34375,-6.96875 C3.875,-6.36458 3.51563,-5.89063 3.26563,-5.54688 C2.81771,-4.93229 2.48958,-4.40625 2.28125,-3.96875 C2.0625,-3.46875 1.86979,-2.92708 1.70313,-2.34375 C1.53646,-1.78125 1.45313,-1.18229 1.45313,-0.546875 M7.96875,-20.4063 C6.98958,-19.9271 6.22396,-19.2396 5.67188,-18.3438 C5.09896,-17.4167 4.8125,-16.4219 4.8125,-15.3594 C4.8125,-14.4219 5.04688,-13.1563 5.51563,-11.5625 C6.45313,-12.6979 7.15625,-13.7448 7.625,-14.7031 C8.11458,-15.724 8.35938,-16.7865 8.35938,-17.8906 C8.35938,-18.724 8.22917,-19.5625 7.96875,-20.4063 M5.82813,15.2344 C6.16146,14.901 6.32813,14.5625 6.32813,14.2188 C6.30729,13.9479 6.19271,13.7396 5.98438,13.5938 C5.74479,13.4375 5.46875,13.3594 5.15625,13.3594 C4.9375,13.3594 4.75521,13.4323 4.60938,13.5781 C4.48438,13.7031 4.42188,13.8646 4.42188,14.0625 C4.42188,14.3021 4.51563,14.4792 4.70313,14.5938 L5.82813,15.2344 M6.14063,15.4063 C6.68229,15.7083 6.95313,16.1146 6.95313,16.625 L6.95313,16.6875 C6.95313,17.0833 6.79167,17.4219 6.46875,17.7031 C6.14583,17.9844 5.68229,18.125 5.07813,18.125 C4.58854,18.125 4.16146,17.9948 3.79688,17.7344 C3.43229,17.4844 3.25,17.1458 3.25,16.7188 C3.25,16.5521 3.29167,16.3958 3.375,16.25 C3.47917,16.0833 3.56771,15.9688 3.64063,15.9063 L4,15.5313 C3.60417,15.2604 3.40625,14.901 3.40625,14.4531 C3.40625,14.099 3.5625,13.7865 3.875,13.5156 C4.19792,13.2552 4.625,13.125 5.15625,13.125 C5.60417,13.125 5.98438,13.224 6.29688,13.4219 C6.60938,13.6198 6.76563,13.8854 6.76563,14.2188 C6.76563,14.5729 6.55729,14.9688 6.14063,15.4063 M4.29688,15.7031 C3.91146,16.0469 3.70313,16.3854 3.67188,16.7188 C3.70313,17.0729 3.84896,17.3542 4.10938,17.5625 C4.39063,17.7813 4.71354,17.8906 5.07813,17.8906 C5.33854,17.8906 5.54688,17.8073 5.70313,17.6406 C5.85938,17.4844 5.9375,17.2969 5.9375,17.0781 C5.92708,16.7865 5.8125,16.5781 5.59375,16.4531 L4.29688,15.7031 "/>
<path class="KeySig" transform="matrix(0.9936,0,0,0.9936,59.4017,75.276)" d="M0.921875,-0.828125 L0.921875,0.71875 C0.921875,1.27083 0.947917,1.70833 1,2.03125 C1.42708,1.66667 1.73438,1.39583 1.92188,1.21875 C2.13021,1.01042 2.33854,0.721354 2.54688,0.351563 C2.75521,-0.0182292 2.85938,-0.385417 2.85938,-0.75 C2.85938,-1.11458 2.78125,-1.42708 2.625,-1.6875 C2.46875,-1.94792 2.26042,-2.07813 2,-2.07813 C1.6875,-2.07813 1.42708,-1.95833 1.21875,-1.71875 C1.02083,-1.45833 0.921875,-1.16146 0.921875,-0.828125 M0.09375,2.75 L-0.15625,-9.14063 C0.03125,-9.24479 0.216146,-9.29688 0.398438,-9.29688 C0.580729,-9.29688 0.760417,-9.24479 0.9375,-9.14063 L0.78125,-2.25 C1.3125,-2.70833 1.92708,-2.9375 2.625,-2.9375 C3.125,-2.9375 3.54427,-2.72917 3.88281,-2.3125 C4.22135,-1.89583 4.39063,-1.41667 4.39063,-0.875 C4.39063,-0.541667 4.28125,-0.182292 4.0625,0.203125 C3.85417,0.546875 3.63542,0.817708 3.40625,1.01563 C3.27083,1.11979 2.9375,1.38021 2.40625,1.79688 C2.25,1.91146 2.0651,2.04688 1.85156,2.20313 C1.63802,2.35938 1.50521,2.45833 1.45313,2.5 C1.35938,2.55208 1.27083,2.65625 1.1875,2.8125 C1.10417,2.94792 1,3.05729 0.875,3.14063 C0.791667,3.22396 0.684896,3.26563 0.554688,3.26563 C0.424479,3.26563 0.317708,3.21875 0.234375,3.125 C0.140625,3.03125 0.09375,2.90625 0.09375,2.75"/>
<path class="KeySig" transform="matrix(0.9936,0,0,0.9936,54.4337,65.34)" d="M0.921875,-0.828125 L0.921875,0.71875 C0.921875,1.27083 0.947917,1.70833 1,2.03125 C1.42708,1.66667 1.73438,1.39583 1.92188,1.21875 C2.13021,1.01042 2.33854,0.721354 2.54688,0.351563 C2.75521,-0.0182292 2.85938,-0.385417 2.85938,-0.75 C2.85938,-1.11458 2.78125,-1.42708 2.625,-1.6875 C2.46875,-1.94792 2.26042,-2.07813 2,-2.07813 C1.6875,-2.07813 1.42708,-1.95833 1.21875,-1.71875 C1.02083,-1.45833 0.921875,-1.16146 0.921875,-0.828125 M0.09375,2.75 L-0.15625,-9.14063 C0.03125,-9.24479 0.216146,-9.29688 0.398438,-9.29688 C0.580729,-9.29688 0.760417,-9.24479 0.9375,-9.14063 L0.78125,-2.25 C1.3125,-2.70833 1.92708,-2.9375 2.625,-2.9375 C3.125,-2.9375 3.54427,-2.72917 3.88281,-2.3125 C4.22135,-1.89583 4.39063,-1.41667 4.39063,-0.875 C4.39063,-0.541667 4.28125,-0.182292 4.0625,0.203125 C3.85417,0.546875 3.63542,0.817708 3.40625,1.01563 C3.27083,1.11979 2.9375,1.38021 2.40625,1.79688 C2.25,1.91146 2.0651,2.04688 1.85156,2.20313 C1.63802,2.35938 1.50521,2.45833 1.45313,2.5 C1.35938,2.55208 1.27083,2.65625 1.1875,2.8125 C1.10417,2.94792 1,3.05729 0.875,3.14063 C0.791667,3.22396 0.684896,3.26563 0.554688,3.26563 C0.424479,3.26563 0.317708,3.21875 0.234375,3.125 C0.140625,3.03125 0.09375,2.90625 0.09375,2.75"/>
<path class="KeySig" transform="matrix(0.9936,0,0,0.9936,49.4657,72.792)" d="M0.921875,-0.828125 L0.921875,0.71875 C0.921875,1.27083 0.947917,1.70833 1,2.03125 C1.42708,1.66667 1.73438,1.39583 1.92188,1.21875 C2.13021,1.01042 2.33854,0.721354 2.54688,0.351563 C2.75521,-0.0182292 2.85938,-0.385417 2.85938,-0.75 C2.85938,-1.11458 2.78125,-1.42708 2.625,-1.6875 C2.46875,-1.94792 2.26042,-2.07813 2,-2.07813 C1.6875,-2.07813 1.42708,-1.95833 1.21875,-1.71875 C1.02083,-1.45833 0.921875,-1.16146 0.921875,-0.828125 M0.09375,2.75 L-0.15625,-9.14063 C0.03125,-9.24479 0.216146,-9.29688 0.398438,-9.29688 C0.580729,-9.29688 0.760417,-9.24479 0.9375,-9.14063 L0.78125,-2.25 C1.3125,-2.70833 1.92708,-2.9375 2.625,-2.9375 C3.125,-2.9375 3.54427,-2.72917 3.88281,-2.3125 C4.22135,-1.89583 4.39063,-1.41667 4.39063,-0.875 C4.39063,-0.541667 4.28125,-0.182292 4.0625,0.203125 C3.85417,0.546875 3.63542,0.817708 3.40625,1.01563 C3.27083,1.11979 2.9375,1.38021 2.40625,1.79688 C2.25,1.91146 2.0651,2.04688 1.85156,2.20313 C1.63802,2.35938 1.50521,2.45833 1.45313,2.5 C1.35938,2.55208 1.27083,2.65625 1.1875,2.8125 C1.10417,2.94792 1,3.05729 0.875,3.14063 C0.791667,3.22396 0.684896,3.26563 0.554688,3.26563 C0.424479,3.26563 0.317708,3.21875 0.234375,3.125 C0.140625,3.03125 0.09375,2.90625 0.09375,2.75"/>
<path class="Beam" fill-rule="evenodd" d="M273.436,55.3727 L402.148,61.614 L402.148,64.098 L273.436,57.8567 L273.436,55.3727 "/>
<path class="Beam" fill-rule="evenodd" d="M81.3362,67.8553 L210.048,61.614 L210.048,64.098 L81.3362,70.3393 L81.3362,67.8553 "/>
<path class="Fingering" d="M453.797,89.571 C453.922,89.571 454.105,89.6387 454.344,89.7741 C454.594,89.9304 454.808,90.0085 454.985,90.0085 C455.349,90.0085 455.636,89.847 455.844,89.5241 C455.969,89.3158 456.032,89.0814 456.032,88.821 C456.032,88.0606 455.579,87.6439 454.672,87.571 C454.579,87.5606 454.48,87.5554 454.375,87.5554 L454.375,87.446 C454.98,87.2481 455.375,86.9929 455.563,86.6804 C455.657,86.5137 455.704,86.3314 455.704,86.1335 C455.704,85.7793 455.558,85.5241 455.266,85.3679 C455.131,85.3054 454.985,85.2741 454.829,85.2741 C454.381,85.2741 454.011,85.5085 453.719,85.9772 C453.688,86.0189 453.662,86.0658 453.641,86.1179 L453.516,86.0866 C453.766,85.4095 454.131,84.9981 454.61,84.8522 C454.756,84.8106 454.917,84.7897 455.094,84.7897 C455.573,84.7897 455.928,84.9564 456.157,85.2897 C456.282,85.4668 456.344,85.6647 456.344,85.8835 C456.344,86.2064 456.193,86.4981 455.891,86.7585 C455.797,86.8314 455.698,86.9095 455.594,86.9929 C456.073,87.2012 456.381,87.4877 456.516,87.8522 C456.579,88.0293 456.61,88.2272 456.61,88.446 C456.61,89.0814 456.344,89.5762 455.813,89.9304 C455.417,90.1804 454.948,90.3054 454.407,90.3054 C453.917,90.3054 453.625,90.196 453.532,89.9772 C453.511,89.9356 453.5,89.8939 453.5,89.8522 C453.5,89.696 453.579,89.6075 453.735,89.5866 C453.756,89.5762 453.777,89.571 453.797,89.571"/>
<path class="Fingering" d="M390.592,80.4936 C390.478,80.4936 390.285,80.5509 390.014,80.6655 L390.014,80.5561 L391.452,79.8217 L391.514,79.8374 L391.514,84.6342 C391.514,84.8426 391.577,84.978 391.702,85.0405 C391.806,85.0822 391.999,85.103 392.28,85.103 L392.28,85.228 L390.061,85.228 L390.061,85.103 C390.415,85.0926 390.639,85.0301 390.733,84.9155 C390.795,84.8217 390.827,84.6759 390.827,84.478 L390.827,80.8686 C390.816,80.6186 390.738,80.4936 390.592,80.4936"/>
<path class="Fingering" d="M327.09,80.3694 C326.497,80.3694 326.033,80.0621 325.7,79.4475 C325.418,78.9475 325.278,78.3225 325.278,77.5725 C325.278,76.6767 325.486,75.9735 325.903,75.4631 C326.236,75.0673 326.642,74.8642 327.122,74.8537 C327.684,74.8537 328.127,75.1402 328.45,75.7131 C328.752,76.2235 328.903,76.859 328.903,77.6194 C328.903,78.5881 328.679,79.3277 328.231,79.8381 C327.908,80.1923 327.528,80.3694 327.09,80.3694 M327.09,75.0569 C326.444,75.0569 326.095,75.8277 326.043,77.3694 C326.043,77.4631 326.043,77.5569 326.043,77.6506 C326.054,79.3173 326.403,80.1558 327.09,80.1662 C327.778,80.1558 328.122,79.3121 328.122,77.635 C328.122,76.1142 327.851,75.2652 327.309,75.0881 C327.236,75.0673 327.163,75.0569 327.09,75.0569"/>
<path class="Fingering" d="M262.526,68.0736 C262.411,68.0736 262.219,68.1309 261.948,68.2455 L261.948,68.1361 L263.385,67.4017 L263.448,67.4174 L263.448,72.2142 C263.448,72.4226 263.51,72.558 263.635,72.6205 C263.739,72.6622 263.932,72.683 264.213,72.683 L264.213,72.808 L261.995,72.808 L261.995,72.683 C262.349,72.6726 262.573,72.6101 262.666,72.4955 C262.729,72.4017 262.76,72.2559 262.76,72.058 L262.76,68.4486 C262.75,68.1986 262.672,68.0736 262.526,68.0736"/>
<path class="Fingering" d="M199.024,80.3694 C198.43,80.3694 197.967,80.0621 197.633,79.4475 C197.352,78.9475 197.211,78.3225 197.211,77.5725 C197.211,76.6767 197.42,75.9735 197.836,75.4631 C198.17,75.0673 198.576,74.8642 199.055,74.8537 C199.618,74.8537 200.06,75.1402 200.383,75.7131 C200.685,76.2235 200.836,76.859 200.836,77.6194 C200.836,78.5881 200.612,79.3277 200.164,79.8381 C199.842,80.1923 199.461,80.3694 199.024,80.3694 M199.024,75.0569 C198.378,75.0569 198.029,75.8277 197.977,77.3694 C197.977,77.4631 197.977,77.5569 197.977,77.6506 C197.987,79.3173 198.336,80.1558 199.024,80.1662 C199.711,80.1558 200.055,79.3121 200.055,77.635 C200.055,76.1142 199.784,75.2652 199.243,75.0881 C199.17,75.0673 199.097,75.0569 199.024,75.0569"/>
<path class="Fingering" d="M134.459,80.4936 C134.345,80.4936 134.152,80.5509 133.881,80.6655 L133.881,80.5561 L135.319,79.8217 L135.381,79.8374 L135.381,84.6342 C135.381,84.8426 135.444,84.978 135.569,85.0405 C135.673,85.0822 135.866,85.103 136.147,85.103 L136.147,85.228 L133.928,85.228 L133.928,85.103 C134.282,85.0926 134.506,85.0301 134.6,84.9155 C134.662,84.8217 134.694,84.6759 134.694,84.478 L134.694,80.8686 C134.683,80.6186 134.605,80.4936 134.459,80.4936"/>
<path class="Fingering" d="M69.598,89.571 C69.723,89.571 69.9053,89.6387 70.1448,89.7741 C70.3948,89.9304 70.6084,90.0085 70.7855,90.0085 C71.15,90.0085 71.4365,89.847 71.6448,89.5241 C71.7698,89.3158 71.8323,89.0814 71.8323,88.821 C71.8323,88.0606 71.3792,87.6439 70.473,87.571 C70.3792,87.5606 70.2803,87.5554 70.1761,87.5554 L70.1761,87.446 C70.7803,87.2481 71.1761,86.9929 71.3636,86.6804 C71.4573,86.5137 71.5042,86.3314 71.5042,86.1335 C71.5042,85.7793 71.3584,85.5241 71.0667,85.3679 C70.9313,85.3054 70.7855,85.2741 70.6292,85.2741 C70.1813,85.2741 69.8115,85.5085 69.5198,85.9772 C69.4886,86.0189 69.4625,86.0658 69.4417,86.1179 L69.3167,86.0866 C69.5667,85.4095 69.9313,84.9981 70.4105,84.8522 C70.5563,84.8106 70.7178,84.7897 70.8948,84.7897 C71.374,84.7897 71.7282,84.9564 71.9573,85.2897 C72.0823,85.4668 72.1448,85.6647 72.1448,85.8835 C72.1448,86.2064 71.9938,86.4981 71.6917,86.7585 C71.598,86.8314 71.499,86.9095 71.3948,86.9929 C71.874,87.2012 72.1813,87.4877 72.3167,87.8522 C72.3792,88.0293 72.4105,88.2272 72.4105,88.446 C72.4105,89.0814 72.1448,89.5762 71.6136,89.9304 C71.2178,90.1804 70.749,90.3054 70.2073,90.3054 C69.7178,90.3054 69.4261,90.196 69.3323,89.9772 C69.3115,89.9356 69.3011,89.8939 69.3011,89.8522 C69.3011,89.696 69.3792,89.6075 69.5355,89.5866 C69.5563,89.5762 69.5771,89.571 69.598,89.571"/>
<path class="Tempo" d="M69.2761,34.859 C69.2292,34.859 69.1979,34.859 69.1979,34.9371 L69.1979,40.4371 C68.9948,40.2809 68.7448,40.1871 68.4323,40.1871 C67.2448,40.1871 66.2917,41.0621 66.2917,41.9996 C66.2917,42.5621 66.7448,42.9059 67.3386,42.9059 C68.2917,42.9059 69.4792,41.9996 69.4792,41.0934 L69.4792,37.0934 C69.8542,37.1715 70.4792,37.4371 70.8542,38.4684 C70.9479,38.734 71.0417,39.1402 71.0417,39.5934 C71.0417,39.9059 70.9792,40.2809 70.8542,40.609 C70.8229,40.6559 70.8229,40.6871 70.8229,40.7184 C70.8229,40.8434 70.9011,40.9059 70.9636,40.9371 C70.9636,40.9527 70.9948,40.9527 71.0104,40.9527 C71.0729,40.9527 71.1354,40.9059 71.1979,40.7965 C71.2136,40.7027 71.4011,40.0465 71.4011,39.5621 L71.4011,39.4996 C71.3698,38.5777 70.9636,37.6871 70.4479,36.9371 C70.0104,36.359 69.6667,35.734 69.5261,35.0309 C69.4792,34.8902 69.4167,34.859 69.3386,34.859 L69.2761,34.859 "/>
<path class="Tempo" d="M81.7604,39.0152 L75.1511,39.0152 L75.1511,37.859 L81.7604,37.859 L81.7604,39.0152 M81.7604,41.9371 L75.1511,41.9371 L75.1511,40.7965 L81.7604,40.7965 L81.7604,41.9371 M87.1979,36.0465 C87.0729,36.0465 86.7552,36.1402 86.2448,36.3277 C86.2136,36.3382 86.1927,36.3486 86.1823,36.359 L86.1823,36.0465 L89.1979,34.734 L89.4011,34.734 L89.4011,41.5621 C89.4011,42.0517 89.5,42.3642 89.6979,42.4996 C89.875,42.6246 90.2083,42.6923 90.6979,42.7027 L90.6979,42.984 L86.1979,42.984 L86.1979,42.7027 C86.8542,42.6923 87.2656,42.5882 87.4323,42.3902 C87.5677,42.2236 87.6354,41.9267 87.6354,41.4996 L87.6354,36.8746 C87.625,36.333 87.4792,36.0569 87.1979,36.0465 M91.7761,37.1715 C92.3281,35.6819 93.1042,34.8746 94.1042,34.7496 C94.2083,34.7392 94.3125,34.734 94.4167,34.734 C95.2083,34.734 95.8125,35.0205 96.2292,35.5934 C96.5,35.9788 96.6354,36.4215 96.6354,36.9215 C96.6354,37.7861 96.2083,38.6298 95.3542,39.4527 C95.3125,39.484 95.2813,39.5152 95.2604,39.5465 L93.3229,41.3902 L95.1354,41.3902 C95.7708,41.3902 96.1771,41.333 96.3542,41.2184 C96.5208,41.1038 96.6823,40.8486 96.8386,40.4527 L97.1354,40.4527 L96.5886,42.984 L91.6042,42.984 L91.6042,42.7027 C93.2708,40.9215 94.2969,39.6455 94.6823,38.8746 C94.8906,38.4475 94.9948,38.0309 94.9948,37.6246 C94.9948,37.0934 94.8021,36.6767 94.4167,36.3746 C94.1771,36.1871 93.8958,36.0934 93.5729,36.0934 C92.9792,36.0934 92.5104,36.4215 92.1667,37.0777 C92.1458,37.109 92.125,37.1402 92.1042,37.1715 L91.7761,37.1715 M97.6823,38.9059 C97.6823,37.5934 97.9948,36.5309 98.6198,35.7184 C99.1302,35.0725 99.724,34.7444 100.401,34.734 C101.182,34.734 101.828,35.1402 102.339,35.9527 C102.849,36.7652 103.104,37.76 103.104,38.9371 C103.104,40.3121 102.786,41.4059 102.151,42.2184 C101.651,42.8225 101.073,43.1298 100.417,43.1402 C99.5833,43.1402 98.9115,42.7132 98.4011,41.859 C97.9219,41.0673 97.6823,40.083 97.6823,38.9059 M100.417,42.7965 C100.771,42.7965 101.005,42.4736 101.12,41.8277 C101.182,41.4423 101.214,40.9423 101.214,40.3277 L101.214,37.5777 C101.214,36.1402 101.021,35.3225 100.635,35.1246 C100.563,35.083 100.479,35.0621 100.385,35.0621 C100.021,35.0621 99.7813,35.3955 99.6667,36.0621 C99.6146,36.4371 99.5886,36.9423 99.5886,37.5777 L99.5886,40.3277 C99.5886,41.6819 99.7552,42.4736 100.089,42.7027 C100.182,42.7652 100.292,42.7965 100.417,42.7965"/>
<path class="StaffText" d="M78.7727,25.2057 C79.2206,25.2057 79.7206,25.3203 80.2727,25.5495 C80.5122,25.6432 80.6841,25.6901 80.7883,25.6901 C80.9341,25.6901 81.0643,25.5807 81.1789,25.362 C81.1893,25.3203 81.205,25.2787 81.2258,25.237 L81.4914,25.237 L81.4914,27.5807 L81.2414,27.5807 C80.9706,26.9766 80.6893,26.5339 80.3977,26.2526 C80.3352,26.1901 80.2779,26.138 80.2258,26.0964 C79.7987,25.7214 79.356,25.5339 78.8977,25.5339 C77.8977,25.5339 77.3039,26.2526 77.1164,27.6901 C77.0852,28.013 77.0695,28.362 77.0695,28.737 C77.0695,29.9245 77.2831,30.7943 77.7102,31.3464 C78.0435,31.763 78.5018,31.9714 79.0852,31.9714 C79.6477,31.9714 79.9654,31.7943 80.0383,31.4401 C80.0487,31.3776 80.0539,31.3099 80.0539,31.237 L80.0539,30.1901 C80.0539,29.8985 79.981,29.711 79.8352,29.6276 C79.6893,29.5547 79.4237,29.5078 79.0383,29.487 L79.0383,29.237 L82.4758,29.237 L82.4758,29.487 C82.0695,29.5287 81.8195,29.6172 81.7258,29.7526 C81.6529,29.8672 81.6164,30.086 81.6164,30.4089 L81.6164,31.6745 C81.0227,32.0287 80.2362,32.237 79.257,32.2995 C79.1216,32.2995 78.9862,32.2995 78.8508,32.2995 C77.7362,32.2995 76.8456,31.9401 76.1789,31.2214 C75.5852,30.5755 75.2883,29.7682 75.2883,28.7995 C75.2883,27.7578 75.632,26.8932 76.3195,26.2057 C76.9862,25.5391 77.8039,25.2057 78.7727,25.2057 M86.5383,28.8307 C86.3195,28.8307 86.106,28.711 85.8977,28.4714 C85.7831,28.3255 85.6997,28.2474 85.6477,28.237 C85.4289,28.237 85.2622,28.388 85.1477,28.6901 C85.0747,28.8464 85.0383,29.013 85.0383,29.1901 L85.0383,31.0807 C85.0383,31.4453 85.1112,31.6693 85.257,31.7526 C85.3508,31.8151 85.5227,31.8568 85.7727,31.8776 L85.7727,32.112 L83.132,32.112 L83.132,31.8776 C83.4029,31.8255 83.5643,31.7318 83.6164,31.5964 C83.6372,31.5235 83.6477,31.4141 83.6477,31.2682 L83.6477,28.3307 C83.6477,28.0703 83.5747,27.9037 83.4289,27.8307 C83.356,27.7891 83.257,27.7578 83.132,27.737 L83.132,27.5026 L85.007,27.5026 L85.007,28.3307 C85.382,27.7787 85.7518,27.4714 86.1164,27.4089 C86.1997,27.388 86.2779,27.3776 86.3508,27.3776 C86.6945,27.3776 86.9393,27.5182 87.0852,27.7995 C87.1372,27.9141 87.1633,28.0339 87.1633,28.1589 C87.1633,28.4714 87.0383,28.6797 86.7883,28.7839 C86.705,28.8151 86.6216,28.8307 86.5383,28.8307 M88.4133,28.0807 C88.4133,28.112 88.4654,28.2057 88.5695,28.362 C88.6633,28.5078 88.7102,28.6328 88.7102,28.737 C88.7102,28.9974 88.58,29.1745 88.3195,29.2682 C88.2258,29.2995 88.132,29.3151 88.0383,29.3151 C87.6737,29.3151 87.4602,29.1537 87.3977,28.8307 C87.3872,28.7682 87.382,28.711 87.382,28.6589 C87.382,28.1901 87.6372,27.8412 88.1477,27.612 C88.4706,27.4557 88.8456,27.3776 89.2727,27.3776 C90.1477,27.3776 90.7466,27.6172 91.0695,28.0964 C91.1945,28.2943 91.257,28.5182 91.257,28.7682 L91.257,31.3464 C91.2675,31.5026 91.3352,31.586 91.4602,31.5964 C91.5122,31.586 91.5487,31.5703 91.5695,31.5495 L91.6789,31.4557 L91.8195,31.6589 C91.4237,32.0339 91.0539,32.2318 90.7102,32.2526 C90.3352,32.2526 90.0904,32.112 89.9758,31.8307 C89.9445,31.737 89.9133,31.638 89.882,31.5339 C89.3404,32.0026 88.8143,32.2422 88.3039,32.2526 C87.8664,32.2526 87.5487,32.086 87.3508,31.7526 C87.2466,31.586 87.1945,31.4037 87.1945,31.2057 C87.1945,30.6224 87.6425,30.1485 88.5383,29.7839 C88.7779,29.6797 89.2258,29.5287 89.882,29.3307 L89.882,28.5964 C89.882,28.0651 89.6633,27.7735 89.2258,27.7214 C89.1633,27.7214 89.1008,27.7214 89.0383,27.7214 C88.7466,27.7214 88.5487,27.8047 88.4445,27.9714 C88.4237,28.0026 88.4133,28.0391 88.4133,28.0807 M89.8664,31.0964 L89.8664,29.6589 C89.0643,29.8776 88.6581,30.2787 88.6477,30.862 C88.6477,31.1953 88.757,31.4037 88.9758,31.487 C89.0383,31.5078 89.1008,31.5182 89.1633,31.5182 C89.3925,31.5182 89.6268,31.3776 89.8664,31.0964 M95.3352,32.237 L95.3352,31.5964 C94.981,31.9714 94.6372,32.1849 94.3039,32.237 C94.2102,32.2474 94.1112,32.2526 94.007,32.2526 C93.4133,32.2526 92.9445,31.9766 92.6008,31.4245 C92.33,30.9974 92.1945,30.4922 92.1945,29.9089 C92.1945,29.0547 92.4393,28.3828 92.9289,27.8932 C93.2622,27.5495 93.6581,27.3776 94.1164,27.3776 C94.4706,27.3776 94.7935,27.513 95.0852,27.7839 C95.1685,27.8568 95.2414,27.9245 95.3039,27.987 L95.3039,26.1745 C95.3039,25.9245 95.2466,25.7682 95.132,25.7057 C95.0279,25.6537 94.83,25.6172 94.5383,25.5964 L94.5383,25.362 L96.6945,25.362 L96.6945,31.112 C96.6945,31.3932 96.7779,31.5651 96.9445,31.6276 C97.0279,31.6589 97.1425,31.6797 97.2883,31.6901 L97.2883,31.9245 L96.6633,32.0026 C96.1112,32.0755 95.6685,32.1537 95.3352,32.237 M94.4602,31.7057 C94.7518,31.7057 95.0018,31.5391 95.2102,31.2057 C95.2622,31.112 95.2935,31.0443 95.3039,31.0026 L95.3039,28.5495 C95.1789,28.2162 94.9706,28.0182 94.6789,27.9557 C94.6268,27.9453 94.5747,27.9401 94.5227,27.9401 C94.0122,27.9401 93.731,28.4453 93.6789,29.4557 C93.6789,29.5703 93.6789,29.6953 93.6789,29.8307 C93.6789,31.0703 93.9393,31.6953 94.4602,31.7057 M99.632,29.6589 C99.6841,30.6797 99.9497,31.2787 100.429,31.4557 C100.554,31.4974 100.684,31.5182 100.82,31.5182 C101.184,31.5182 101.517,31.3516 101.82,31.0182 C101.872,30.9662 101.918,30.9141 101.96,30.862 L102.195,31.0026 C101.778,31.6068 101.366,31.987 100.96,32.1432 C100.752,32.2162 100.517,32.2526 100.257,32.2526 C99.507,32.2526 98.9445,31.9453 98.5695,31.3307 C98.3195,30.9141 98.1945,30.4141 98.1945,29.8307 C98.1945,28.9349 98.4654,28.263 99.007,27.8151 C99.3716,27.5235 99.7987,27.3776 100.288,27.3776 C101.392,27.3776 102.012,28.0964 102.148,29.5339 C102.148,29.5755 102.148,29.6172 102.148,29.6589 L99.632,29.6589 M100.929,29.1432 C100.908,28.5182 100.84,28.1224 100.726,27.9557 C100.632,27.7995 100.486,27.7214 100.288,27.7214 C99.9966,27.7214 99.7987,27.8932 99.6945,28.237 C99.632,28.4766 99.5956,28.8307 99.5852,29.2995 L100.929,29.2995 L100.929,29.1432 M108.476,30.5807 C108.476,29.8724 108.132,29.3255 107.445,28.9401 C107.205,28.8047 106.882,28.6641 106.476,28.5182 L106.476,28.3464 C107.132,28.138 107.533,27.862 107.679,27.5182 C107.741,27.3724 107.773,27.2057 107.773,27.0182 C107.773,26.5182 107.575,26.1901 107.179,26.0339 C107.043,25.9922 106.903,25.9714 106.757,25.9714 C106.351,25.9714 106.012,26.1485 105.741,26.5026 C105.668,26.5964 105.596,26.7005 105.523,26.8151 L105.32,26.7057 C105.872,25.737 106.632,25.2474 107.601,25.237 C108.372,25.237 108.877,25.487 109.116,25.987 C109.189,26.1641 109.226,26.362 109.226,26.5807 C109.226,26.9662 109.106,27.2735 108.866,27.5026 C108.741,27.6068 108.585,27.7162 108.398,27.8307 C109.21,28.2057 109.616,28.8047 109.616,29.6276 C109.616,30.3776 109.314,31.0078 108.71,31.5182 C108.137,32.0078 107.445,32.2526 106.632,32.2526 C105.945,32.2526 105.481,32.0807 105.241,31.737 C105.148,31.6224 105.101,31.4922 105.101,31.3464 C105.101,31.086 105.231,30.9089 105.491,30.8151 C105.575,30.7839 105.663,30.7682 105.757,30.7682 C106.017,30.7682 106.304,30.9193 106.616,31.2214 C106.898,31.4922 107.096,31.6537 107.21,31.7057 C107.314,31.7578 107.413,31.7839 107.507,31.7839 C107.945,31.7839 108.241,31.5703 108.398,31.1432 C108.45,30.9766 108.476,30.7891 108.476,30.5807 M111.601,30.5495 C111.924,30.5495 112.168,30.6901 112.335,30.9714 C112.418,31.1172 112.46,31.263 112.46,31.4089 C112.46,31.7214 112.32,31.961 112.038,32.1276 C111.892,32.2005 111.747,32.237 111.601,32.237 C111.267,32.237 111.023,32.0964 110.866,31.8151 C110.793,31.6797 110.757,31.5391 110.757,31.3932 C110.757,31.0912 110.892,30.8568 111.163,30.6901 C111.299,30.5964 111.445,30.5495 111.601,30.5495 M111.601,27.3932 C111.924,27.3932 112.168,27.5287 112.335,27.7995 C112.418,27.9453 112.46,28.0912 112.46,28.237 C112.46,28.5599 112.32,28.8047 112.038,28.9714 C111.903,29.0443 111.757,29.0807 111.601,29.0807 C111.267,29.0807 111.023,28.9349 110.866,28.6432 C110.793,28.5078 110.757,28.3672 110.757,28.2214 C110.757,27.9193 110.892,27.6849 111.163,27.5182 C111.299,27.4349 111.445,27.3932 111.601,27.3932"/>
<path class="StaffText" d="M116.288,28.8776 C116.288,27.7839 116.648,26.9037 117.366,26.237 C117.991,25.6641 118.752,25.3776 119.648,25.3776 C120.096,25.3776 120.58,25.4557 121.101,25.612 C121.278,25.6641 121.408,25.6901 121.491,25.6901 C121.7,25.6797 121.84,25.5755 121.913,25.3776 L122.116,25.3776 L122.21,27.612 L121.976,27.612 C121.611,26.3828 120.898,25.763 119.835,25.7526 C118.991,25.7526 118.351,26.112 117.913,26.8307 C117.611,27.3516 117.46,27.987 117.46,28.737 C117.46,30.2162 117.934,31.1693 118.882,31.5964 C119.205,31.7422 119.554,31.8151 119.929,31.8151 C120.648,31.8151 121.32,31.5443 121.945,31.0026 C122.017,30.9401 122.09,30.8724 122.163,30.7995 L122.335,30.987 C121.804,31.6953 121.059,32.1068 120.101,32.2214 C119.934,32.2422 119.773,32.2526 119.616,32.2526 C118.543,32.2526 117.695,31.8932 117.07,31.1745 C116.549,30.5599 116.288,29.7943 116.288,28.8776 M126.07,28.1589 L126.07,27.987 C126.549,27.8412 127.017,27.6849 127.476,27.5182 L127.538,27.5339 L127.538,28.2995 C128.111,27.862 128.523,27.612 128.773,27.5495 C128.877,27.5287 128.981,27.5182 129.085,27.5182 C129.616,27.5287 129.971,27.8151 130.148,28.3776 C130.679,27.8047 131.226,27.5182 131.788,27.5182 C132.549,27.5287 132.934,28.1276 132.945,29.3151 L132.945,31.362 C132.955,31.7266 133.096,31.9193 133.366,31.9401 L133.632,31.9557 L133.632,32.112 L131.445,32.112 L131.445,31.9557 C131.767,31.9245 131.96,31.8516 132.023,31.737 C132.075,31.6432 132.101,31.4818 132.101,31.2526 L132.101,29.1432 C132.101,28.5912 131.991,28.2578 131.773,28.1432 C131.668,28.0807 131.528,28.0495 131.351,28.0495 C130.903,28.0599 130.538,28.263 130.257,28.6589 L130.257,31.1745 C130.257,31.5495 130.346,31.7839 130.523,31.8776 C130.627,31.9297 130.778,31.9557 130.976,31.9557 L130.976,32.112 L128.741,32.112 L128.741,31.9557 C129.064,31.9349 129.262,31.862 129.335,31.737 C129.398,31.6432 129.429,31.4818 129.429,31.2526 L129.429,29.0964 C129.429,28.3985 129.205,28.0495 128.757,28.0495 C128.392,28.0495 128.07,28.1693 127.788,28.4089 C127.715,28.4818 127.648,28.5599 127.585,28.6432 L127.585,31.4401 C127.585,31.6901 127.674,31.8464 127.851,31.9089 C127.945,31.9401 128.08,31.9557 128.257,31.9557 L128.257,32.112 L126.038,32.112 L126.038,31.9557 C126.392,31.9557 126.606,31.8724 126.679,31.7057 C126.721,31.6016 126.741,31.4557 126.741,31.2682 L126.741,28.7526 C126.741,28.3776 126.663,28.1693 126.507,28.1276 C126.476,28.1172 126.439,28.112 126.398,28.112 C126.293,28.112 126.184,28.1276 126.07,28.1589 M134.57,28.1901 C134.413,28.1901 134.273,28.2005 134.148,28.2214 L134.148,28.0651 C134.616,27.9297 135.132,27.7474 135.695,27.5182 L135.726,27.5495 L135.726,31.0964 C135.726,31.4818 135.783,31.7214 135.898,31.8151 C135.991,31.888 136.184,31.9349 136.476,31.9557 L136.476,32.112 L134.101,32.112 L134.101,31.9557 C134.465,31.9349 134.695,31.8672 134.788,31.7526 C134.861,31.638 134.898,31.4193 134.898,31.0964 L134.898,28.7682 C134.898,28.4141 134.814,28.2214 134.648,28.1901 C134.616,28.1901 134.59,28.1901 134.57,28.1901 M135.226,25.2839 C135.445,25.2839 135.601,25.3828 135.695,25.5807 C135.726,25.6537 135.741,25.7266 135.741,25.7995 C135.741,26.0182 135.637,26.1745 135.429,26.2682 C135.356,26.2891 135.288,26.2995 135.226,26.2995 C135.007,26.2995 134.851,26.2005 134.757,26.0026 C134.736,25.9297 134.726,25.862 134.726,25.7995 C134.726,25.5807 134.82,25.4245 135.007,25.3307 C135.08,25.2995 135.153,25.2839 135.226,25.2839 M137.038,28.1276 L137.038,27.9557 C137.538,27.8099 138.002,27.6641 138.429,27.5182 L138.491,27.5339 L138.491,28.3151 C138.971,27.8776 139.346,27.6224 139.616,27.5495 C139.721,27.5287 139.83,27.5182 139.945,27.5182 C140.486,27.5182 140.846,27.7891 141.023,28.3307 C141.085,28.5287 141.116,28.7526 141.116,29.0026 L141.116,31.2995 C141.116,31.612 141.189,31.8047 141.335,31.8776 C141.429,31.9089 141.559,31.9349 141.726,31.9557 L141.726,32.112 L139.648,32.112 L139.648,31.9557 C139.95,31.9349 140.137,31.836 140.21,31.6589 C140.262,31.5443 140.288,31.3672 140.288,31.1276 L140.288,29.0339 C140.267,28.388 140.023,28.0599 139.554,28.0495 C139.304,28.0495 139.043,28.1641 138.773,28.3932 C138.7,28.4662 138.616,28.5443 138.523,28.6276 L138.523,31.4401 C138.523,31.6797 138.622,31.836 138.82,31.9089 C138.913,31.9297 139.033,31.9453 139.179,31.9557 L139.179,32.112 L137.07,32.112 L137.07,31.9557 C137.361,31.9349 137.543,31.8516 137.616,31.7057 C137.658,31.5912 137.679,31.4245 137.679,31.2057 L137.679,28.7214 C137.679,28.3568 137.606,28.1537 137.46,28.112 C137.418,28.0912 137.372,28.0807 137.32,28.0807 C137.195,28.0807 137.101,28.0964 137.038,28.1276 M144.398,27.5182 C145.137,27.5182 145.721,27.7891 146.148,28.3307 C146.45,28.737 146.601,29.2162 146.601,29.7682 C146.601,30.5495 146.346,31.1745 145.835,31.6432 C145.418,32.0182 144.934,32.2057 144.382,32.2057 C143.674,32.2057 143.111,31.9349 142.695,31.3932 C142.361,30.9557 142.195,30.4401 142.195,29.8464 C142.195,29.0339 142.471,28.4089 143.023,27.9714 C143.408,27.6693 143.866,27.5182 144.398,27.5182 M143.101,29.362 C143.101,30.2682 143.288,30.961 143.663,31.4401 C143.903,31.7526 144.184,31.9089 144.507,31.9089 C145.028,31.9089 145.387,31.612 145.585,31.0182 C145.668,30.7578 145.71,30.461 145.71,30.1276 C145.71,29.2422 145.497,28.586 145.07,28.1589 C144.84,27.9297 144.575,27.8151 144.273,27.8151 C143.804,27.8151 143.465,28.0547 143.257,28.5339 C143.153,28.7735 143.101,29.0495 143.101,29.362 M149.96,28.487 C149.856,28.487 149.705,28.4037 149.507,28.237 C149.413,28.1537 149.34,28.112 149.288,28.112 C149.122,28.112 148.95,28.2422 148.773,28.5026 C148.658,28.6693 148.601,28.8151 148.601,28.9401 L148.601,31.2057 C148.601,31.5495 148.689,31.763 148.866,31.8464 C148.991,31.9089 149.184,31.9453 149.445,31.9557 L149.445,32.112 L147.038,32.112 L147.038,31.9557 C147.392,31.8932 147.606,31.8099 147.679,31.7057 C147.731,31.6224 147.757,31.4766 147.757,31.2682 L147.757,28.7526 C147.757,28.388 147.674,28.1901 147.507,28.1589 C147.476,28.1485 147.445,28.1432 147.413,28.1432 C147.299,28.1432 147.184,28.1589 147.07,28.1901 L147.07,28.0339 C147.601,27.8672 148.09,27.6953 148.538,27.5182 L148.601,27.5339 L148.601,28.4245 C148.945,27.9453 149.236,27.6589 149.476,27.5651 C149.58,27.5339 149.684,27.5182 149.788,27.5182 C150.101,27.5182 150.283,27.6485 150.335,27.9089 C150.335,27.9505 150.335,27.9974 150.335,28.0495 C150.304,28.3203 150.179,28.4662 149.96,28.487 M153.195,31.1432 C153.195,30.6328 153.512,30.2005 154.148,29.8464 C154.335,29.7526 154.835,29.5391 155.648,29.2057 C155.668,29.2057 155.684,29.2005 155.695,29.1901 L155.695,28.5807 C155.642,28.0599 155.387,27.7839 154.929,27.7526 C154.616,27.7526 154.398,27.8516 154.273,28.0495 C154.231,28.1224 154.21,28.1849 154.21,28.237 C154.21,28.2995 154.221,28.3828 154.241,28.487 C154.252,28.5599 154.257,28.612 154.257,28.6432 C154.257,28.8203 154.168,28.9453 153.991,29.0182 C153.929,29.0495 153.872,29.0651 153.82,29.0651 C153.632,29.0651 153.502,28.9766 153.429,28.7995 C153.398,28.7474 153.382,28.6901 153.382,28.6276 C153.382,28.263 153.601,27.9662 154.038,27.737 C154.34,27.5912 154.684,27.5182 155.07,27.5182 C155.788,27.5182 156.231,27.7735 156.398,28.2839 C156.471,28.5026 156.507,28.7787 156.507,29.112 L156.507,31.0495 C156.507,31.3828 156.57,31.5703 156.695,31.612 C156.736,31.6224 156.773,31.6276 156.804,31.6276 C156.95,31.6172 157.096,31.5547 157.241,31.4401 L157.241,31.6901 C156.971,32.0026 156.721,32.1745 156.491,32.2057 C156.439,32.2057 156.387,32.2057 156.335,32.2057 C156.023,32.2057 155.825,32.0495 155.741,31.737 C155.721,31.6537 155.71,31.5599 155.71,31.4557 C155.116,31.9349 154.627,32.1849 154.241,32.2057 C153.814,32.2057 153.507,32.0339 153.32,31.6901 C153.236,31.5235 153.195,31.3412 153.195,31.1432 M155.695,30.862 L155.695,29.4245 C154.872,29.7266 154.366,30.0339 154.179,30.3464 C154.106,30.4922 154.07,30.6485 154.07,30.8151 C154.07,31.211 154.215,31.461 154.507,31.5651 C154.58,31.5964 154.648,31.612 154.71,31.612 C154.929,31.6016 155.168,31.5235 155.429,31.3776 C155.575,31.2943 155.658,31.1901 155.679,31.0651 C155.689,31.0026 155.695,30.9349 155.695,30.862 M159.96,28.487 C159.856,28.487 159.705,28.4037 159.507,28.237 C159.413,28.1537 159.34,28.112 159.288,28.112 C159.122,28.112 158.95,28.2422 158.773,28.5026 C158.658,28.6693 158.601,28.8151 158.601,28.9401 L158.601,31.2057 C158.601,31.5495 158.689,31.763 158.866,31.8464 C158.991,31.9089 159.184,31.9453 159.445,31.9557 L159.445,32.112 L157.038,32.112 L157.038,31.9557 C157.392,31.8932 157.606,31.8099 157.679,31.7057 C157.731,31.6224 157.757,31.4766 157.757,31.2682 L157.757,28.7526 C157.757,28.388 157.674,28.1901 157.507,28.1589 C157.476,28.1485 157.445,28.1432 157.413,28.1432 C157.299,28.1432 157.184,28.1589 157.07,28.1901 L157.07,28.0339 C157.601,27.8672 158.09,27.6953 158.538,27.5182 L158.601,27.5339 L158.601,28.4245 C158.945,27.9453 159.236,27.6589 159.476,27.5651 C159.58,27.5339 159.684,27.5182 159.788,27.5182 C160.101,27.5182 160.283,27.6485 160.335,27.9089 C160.335,27.9505 160.335,27.9974 160.335,28.0495 C160.304,28.3203 160.179,28.4662 159.96,28.487 M160.085,28.1901 L160.085,28.0182 C160.512,27.8932 160.991,27.7266 161.523,27.5182 L161.585,27.5339 L161.585,28.2995 C162.012,27.7787 162.491,27.5182 163.023,27.5182 C163.585,27.5182 164.028,27.7787 164.351,28.2995 C164.58,28.6849 164.695,29.1328 164.695,29.6432 C164.695,30.4557 164.445,31.1172 163.945,31.6276 C163.559,32.013 163.111,32.2057 162.601,32.2057 C162.267,32.2057 161.976,32.1068 161.726,31.9089 C161.674,31.8776 161.627,31.8412 161.585,31.7995 L161.585,33.362 C161.585,33.7057 161.653,33.9141 161.788,33.987 C161.913,34.0599 162.137,34.0964 162.46,34.0964 L162.46,34.2839 L160.038,34.2839 L160.038,34.112 C160.392,34.0807 160.606,33.9974 160.679,33.862 C160.721,33.7682 160.741,33.6224 160.741,33.4245 L160.741,28.737 C160.741,28.4453 160.689,28.2735 160.585,28.2214 C160.523,28.1901 160.439,28.1745 160.335,28.1745 C160.221,28.1745 160.137,28.1797 160.085,28.1901 M161.585,28.7839 L161.585,31.2526 C161.585,31.4297 161.731,31.5964 162.023,31.7526 C162.231,31.8568 162.429,31.9089 162.616,31.9089 C163.075,31.9089 163.413,31.6537 163.632,31.1432 C163.767,30.8203 163.835,30.4557 163.835,30.0495 C163.835,29.2266 163.627,28.6537 163.21,28.3307 C163.033,28.1849 162.83,28.112 162.601,28.112 C162.299,28.112 162.028,28.2214 161.788,28.4401 C161.663,28.5547 161.596,28.6693 161.585,28.7839 M165.913,29.3464 C165.955,30.5235 166.34,31.2162 167.07,31.4245 C167.195,31.4662 167.33,31.487 167.476,31.487 C167.965,31.487 168.382,31.2787 168.726,30.862 C168.82,30.7474 168.918,30.612 169.023,30.4557 L169.179,30.5182 C168.814,31.4766 168.241,32.0287 167.46,32.1745 C167.325,32.1953 167.195,32.2057 167.07,32.2057 C166.33,32.2057 165.799,31.8932 165.476,31.2682 C165.288,30.8932 165.195,30.461 165.195,29.9714 C165.195,29.086 165.471,28.4141 166.023,27.9557 C166.387,27.6641 166.809,27.5182 167.288,27.5182 C168.205,27.5182 168.757,28.0391 168.945,29.0807 C168.965,29.1745 168.981,29.263 168.991,29.3464 L165.913,29.3464 M165.929,29.0495 L167.976,29.0495 C167.882,28.4766 167.715,28.1224 167.476,27.987 C167.351,27.9245 167.189,27.8932 166.991,27.8932 C166.398,27.8932 166.043,28.2682 165.929,29.0182 C165.929,29.0287 165.929,29.0391 165.929,29.0495 M169.538,31.5339 C169.538,31.3985 169.616,31.2526 169.773,31.0964 C169.866,31.0026 170.085,30.7995 170.429,30.487 C169.929,30.2266 169.632,29.8985 169.538,29.5026 C169.517,29.388 169.507,29.2682 169.507,29.1432 C169.507,28.612 169.721,28.1849 170.148,27.862 C170.45,27.6328 170.793,27.5182 171.179,27.5182 C171.429,27.5182 171.736,27.586 172.101,27.7214 C172.34,27.8047 172.554,27.8464 172.741,27.8464 L173.507,27.8464 L173.507,28.2214 L172.679,28.2214 C172.804,28.513 172.866,28.7943 172.866,29.0651 C172.866,29.638 172.642,30.0703 172.195,30.362 C171.924,30.5391 171.632,30.6276 171.32,30.6276 C171.226,30.6276 171.033,30.6068 170.741,30.5651 C170.543,30.6276 170.377,30.7682 170.241,30.987 C170.179,31.0703 170.148,31.1432 170.148,31.2057 C170.148,31.362 170.398,31.4505 170.898,31.4714 C170.908,31.4714 170.918,31.4714 170.929,31.4714 L172.21,31.5339 C172.762,31.5443 173.132,31.7474 173.32,32.1432 C173.392,32.2787 173.429,32.4297 173.429,32.5964 C173.429,33.0964 173.116,33.5235 172.491,33.8776 C171.981,34.1485 171.424,34.2839 170.82,34.2839 C170.195,34.2839 169.71,34.1328 169.366,33.8307 C169.189,33.6641 169.101,33.487 169.101,33.2995 C169.101,33.0078 169.314,32.6797 169.741,32.3151 C169.846,32.2318 169.955,32.1432 170.07,32.0495 C169.767,31.9141 169.596,31.7787 169.554,31.6432 C169.543,31.612 169.538,31.5755 169.538,31.5339 M170.288,32.0807 C169.986,32.4557 169.825,32.7162 169.804,32.862 C169.793,32.9037 169.788,32.9453 169.788,32.987 C169.788,33.2891 170.012,33.5078 170.46,33.6432 C170.689,33.7162 170.955,33.7526 171.257,33.7526 C172.09,33.7526 172.658,33.5703 172.96,33.2057 C173.085,33.0495 173.148,32.888 173.148,32.7214 C173.148,32.4714 172.981,32.3151 172.648,32.2526 C172.46,32.2214 172.21,32.2057 171.898,32.2057 C171.231,32.2057 170.695,32.1641 170.288,32.0807 M172.101,29.4714 C172.101,29.0443 172.012,28.6641 171.835,28.3307 C171.637,27.9974 171.382,27.8255 171.07,27.8151 C170.695,27.8151 170.46,28.013 170.366,28.4089 C170.346,28.513 170.335,28.6276 170.335,28.7526 C170.335,29.5547 170.559,30.0651 171.007,30.2839 C171.122,30.3464 171.236,30.3776 171.351,30.3776 C171.715,30.3776 171.95,30.1953 172.054,29.8307 C172.085,29.7162 172.101,29.5964 172.101,29.4714 M174.538,31.5339 C174.538,31.3985 174.616,31.2526 174.773,31.0964 C174.866,31.0026 175.085,30.7995 175.429,30.487 C174.929,30.2266 174.632,29.8985 174.538,29.5026 C174.517,29.388 174.507,29.2682 174.507,29.1432 C174.507,28.612 174.721,28.1849 175.148,27.862 C175.45,27.6328 175.793,27.5182 176.179,27.5182 C176.429,27.5182 176.736,27.586 177.101,27.7214 C177.34,27.8047 177.554,27.8464 177.741,27.8464 L178.507,27.8464 L178.507,28.2214 L177.679,28.2214 C177.804,28.513 177.866,28.7943 177.866,29.0651 C177.866,29.638 177.642,30.0703 177.195,30.362 C176.924,30.5391 176.632,30.6276 176.32,30.6276 C176.226,30.6276 176.033,30.6068 175.741,30.5651 C175.543,30.6276 175.377,30.7682 175.241,30.987 C175.179,31.0703 175.148,31.1432 175.148,31.2057 C175.148,31.362 175.398,31.4505 175.898,31.4714 C175.908,31.4714 175.918,31.4714 175.929,31.4714 L177.21,31.5339 C177.762,31.5443 178.132,31.7474 178.32,32.1432 C178.392,32.2787 178.429,32.4297 178.429,32.5964 C178.429,33.0964 178.116,33.5235 177.491,33.8776 C176.981,34.1485 176.424,34.2839 175.82,34.2839 C175.195,34.2839 174.71,34.1328 174.366,33.8307 C174.189,33.6641 174.101,33.487 174.101,33.2995 C174.101,33.0078 174.314,32.6797 174.741,32.3151 C174.846,32.2318 174.955,32.1432 175.07,32.0495 C174.767,31.9141 174.596,31.7787 174.554,31.6432 C174.543,31.612 174.538,31.5755 174.538,31.5339 M175.288,32.0807 C174.986,32.4557 174.825,32.7162 174.804,32.862 C174.793,32.9037 174.788,32.9453 174.788,32.987 C174.788,33.2891 175.012,33.5078 175.46,33.6432 C175.689,33.7162 175.955,33.7526 176.257,33.7526 C177.09,33.7526 177.658,33.5703 177.96,33.2057 C178.085,33.0495 178.148,32.888 178.148,32.7214 C178.148,32.4714 177.981,32.3151 177.648,32.2526 C177.46,32.2214 177.21,32.2057 176.898,32.2057 C176.231,32.2057 175.695,32.1641 175.288,32.0807 M177.101,29.4714 C177.101,29.0443 177.012,28.6641 176.835,28.3307 C176.637,27.9974 176.382,27.8255 176.07,27.8151 C175.695,27.8151 175.46,28.013 175.366,28.4089 C175.346,28.513 175.335,28.6276 175.335,28.7526 C175.335,29.5547 175.559,30.0651 176.007,30.2839 C176.122,30.3464 176.236,30.3776 176.351,30.3776 C176.715,30.3776 176.95,30.1953 177.054,29.8307 C177.085,29.7162 177.101,29.5964 177.101,29.4714 M179.57,28.1901 C179.413,28.1901 179.273,28.2005 179.148,28.2214 L179.148,28.0651 C179.616,27.9297 180.132,27.7474 180.695,27.5182 L180.726,27.5495 L180.726,31.0964 C180.726,31.4818 180.783,31.7214 180.898,31.8151 C180.991,31.888 181.184,31.9349 181.476,31.9557 L181.476,32.112 L179.101,32.112 L179.101,31.9557 C179.465,31.9349 179.695,31.8672 179.788,31.7526 C179.861,31.638 179.898,31.4193 179.898,31.0964 L179.898,28.7682 C179.898,28.4141 179.814,28.2214 179.648,28.1901 C179.616,28.1901 179.59,28.1901 179.57,28.1901 M180.226,25.2839 C180.445,25.2839 180.601,25.3828 180.695,25.5807 C180.726,25.6537 180.741,25.7266 180.741,25.7995 C180.741,26.0182 180.637,26.1745 180.429,26.2682 C180.356,26.2891 180.288,26.2995 180.226,26.2995 C180.007,26.2995 179.851,26.2005 179.757,26.0026 C179.736,25.9297 179.726,25.862 179.726,25.7995 C179.726,25.5807 179.82,25.4245 180.007,25.3307 C180.08,25.2995 180.153,25.2839 180.226,25.2839 M184.398,27.5182 C185.137,27.5182 185.721,27.7891 186.148,28.3307 C186.45,28.737 186.601,29.2162 186.601,29.7682 C186.601,30.5495 186.346,31.1745 185.835,31.6432 C185.418,32.0182 184.934,32.2057 184.382,32.2057 C183.674,32.2057 183.111,31.9349 182.695,31.3932 C182.361,30.9557 182.195,30.4401 182.195,29.8464 C182.195,29.0339 182.471,28.4089 183.023,27.9714 C183.408,27.6693 183.866,27.5182 184.398,27.5182 M183.101,29.362 C183.101,30.2682 183.288,30.961 183.663,31.4401 C183.903,31.7526 184.184,31.9089 184.507,31.9089 C185.028,31.9089 185.387,31.612 185.585,31.0182 C185.668,30.7578 185.71,30.461 185.71,30.1276 C185.71,29.2422 185.497,28.586 185.07,28.1589 C184.84,27.9297 184.575,27.8151 184.273,27.8151 C183.804,27.8151 183.465,28.0547 183.257,28.5339 C183.153,28.7735 183.101,29.0495 183.101,29.362 M192.398,27.5182 C193.137,27.5182 193.721,27.7891 194.148,28.3307 C194.45,28.737 194.601,29.2162 194.601,29.7682 C194.601,30.5495 194.346,31.1745 193.835,31.6432 C193.418,32.0182 192.934,32.2057 192.382,32.2057 C191.674,32.2057 191.111,31.9349 190.695,31.3932 C190.361,30.9557 190.195,30.4401 190.195,29.8464 C190.195,29.0339 190.471,28.4089 191.023,27.9714 C191.408,27.6693 191.866,27.5182 192.398,27.5182 M191.101,29.362 C191.101,30.2682 191.288,30.961 191.663,31.4401 C191.903,31.7526 192.184,31.9089 192.507,31.9089 C193.028,31.9089 193.387,31.612 193.585,31.0182 C193.668,30.7578 193.71,30.461 193.71,30.1276 C193.71,29.2422 193.497,28.586 193.07,28.1589 C192.84,27.9297 192.575,27.8151 192.273,27.8151 C191.804,27.8151 191.465,28.0547 191.257,28.5339 C191.153,28.7735 191.101,29.0495 191.101,29.362 M195.038,28.1276 L195.038,27.9557 C195.538,27.8099 196.002,27.6641 196.429,27.5182 L196.491,27.5339 L196.491,28.3151 C196.971,27.8776 197.346,27.6224 197.616,27.5495 C197.721,27.5287 197.83,27.5182 197.945,27.5182 C198.486,27.5182 198.846,27.7891 199.023,28.3307 C199.085,28.5287 199.116,28.7526 199.116,29.0026 L199.116,31.2995 C199.116,31.612 199.189,31.8047 199.335,31.8776 C199.429,31.9089 199.559,31.9349 199.726,31.9557 L199.726,32.112 L197.648,32.112 L197.648,31.9557 C197.95,31.9349 198.137,31.836 198.21,31.6589 C198.262,31.5443 198.288,31.3672 198.288,31.1276 L198.288,29.0339 C198.267,28.388 198.023,28.0599 197.554,28.0495 C197.304,28.0495 197.043,28.1641 196.773,28.3932 C196.7,28.4662 196.616,28.5443 196.523,28.6276 L196.523,31.4401 C196.523,31.6797 196.622,31.836 196.82,31.9089 C196.913,31.9297 197.033,31.9453 197.179,31.9557 L197.179,32.112 L195.07,32.112 L195.07,31.9557 C195.361,31.9349 195.543,31.8516 195.616,31.7057 C195.658,31.5912 195.679,31.4245 195.679,31.2057 L195.679,28.7214 C195.679,28.3568 195.606,28.1537 195.46,28.112 C195.418,28.0912 195.372,28.0807 195.32,28.0807 C195.195,28.0807 195.101,28.0964 195.038,28.1276 M200.913,29.3464 C200.955,30.5235 201.34,31.2162 202.07,31.4245 C202.195,31.4662 202.33,31.487 202.476,31.487 C202.965,31.487 203.382,31.2787 203.726,30.862 C203.82,30.7474 203.918,30.612 204.023,30.4557 L204.179,30.5182 C203.814,31.4766 203.241,32.0287 202.46,32.1745 C202.325,32.1953 202.195,32.2057 202.07,32.2057 C201.33,32.2057 200.799,31.8932 200.476,31.2682 C200.288,30.8932 200.195,30.461 200.195,29.9714 C200.195,29.086 200.471,28.4141 201.023,27.9557 C201.387,27.6641 201.809,27.5182 202.288,27.5182 C203.205,27.5182 203.757,28.0391 203.945,29.0807 C203.965,29.1745 203.981,29.263 203.991,29.3464 L200.913,29.3464 M200.929,29.0495 L202.976,29.0495 C202.882,28.4766 202.715,28.1224 202.476,27.987 C202.351,27.9245 202.189,27.8932 201.991,27.8932 C201.398,27.8932 201.043,28.2682 200.929,29.0182 C200.929,29.0287 200.929,29.0391 200.929,29.0495 M209.398,27.5182 C210.137,27.5182 210.721,27.7891 211.148,28.3307 C211.45,28.737 211.601,29.2162 211.601,29.7682 C211.601,30.5495 211.346,31.1745 210.835,31.6432 C210.418,32.0182 209.934,32.2057 209.382,32.2057 C208.674,32.2057 208.111,31.9349 207.695,31.3932 C207.361,30.9557 207.195,30.4401 207.195,29.8464 C207.195,29.0339 207.471,28.4089 208.023,27.9714 C208.408,27.6693 208.866,27.5182 209.398,27.5182 M208.101,29.362 C208.101,30.2682 208.288,30.961 208.663,31.4401 C208.903,31.7526 209.184,31.9089 209.507,31.9089 C210.028,31.9089 210.387,31.612 210.585,31.0182 C210.668,30.7578 210.71,30.461 210.71,30.1276 C210.71,29.2422 210.497,28.586 210.07,28.1589 C209.84,27.9297 209.575,27.8151 209.273,27.8151 C208.804,27.8151 208.465,28.0547 208.257,28.5339 C208.153,28.7735 208.101,29.0495 208.101,29.362 M212.195,29.987 C212.195,29.1432 212.481,28.4818 213.054,28.0026 C213.45,27.6797 213.892,27.5182 214.382,27.5182 C214.934,27.5182 215.361,27.6693 215.663,27.9714 C215.84,28.1485 215.929,28.3412 215.929,28.5495 C215.929,28.7266 215.835,28.8516 215.648,28.9245 C215.575,28.9557 215.507,28.9714 215.445,28.9714 C215.236,28.9714 215.085,28.836 214.991,28.5651 C214.981,28.5443 214.976,28.5235 214.976,28.5026 L214.913,28.2839 C214.851,28.0339 214.736,27.888 214.57,27.8464 C214.497,27.8255 214.413,27.8151 214.32,27.8151 C213.82,27.8151 213.439,28.0547 213.179,28.5339 C213.033,28.8255 212.96,29.1641 212.96,29.5495 C212.96,30.2787 213.184,30.8255 213.632,31.1901 C213.892,31.388 214.184,31.487 214.507,31.487 C214.924,31.487 215.283,31.3203 215.585,30.987 C215.689,30.862 215.804,30.7162 215.929,30.5495 L216.07,30.6432 C215.695,31.362 215.278,31.8307 214.82,32.0495 C214.58,32.1537 214.34,32.2057 214.101,32.2057 C213.455,32.2057 212.95,31.9401 212.585,31.4089 C212.325,31.0026 212.195,30.5287 212.195,29.987 M218.538,27.612 L218.538,27.9089 L217.523,27.9089 L217.523,30.7682 C217.523,31.3099 217.658,31.6068 217.929,31.6589 C217.96,31.6693 217.997,31.6745 218.038,31.6745 C218.247,31.6641 218.45,31.5443 218.648,31.3151 L218.773,31.4401 C218.45,31.9505 218.049,32.2057 217.57,32.2057 C216.986,32.1953 216.689,31.7735 216.679,30.9401 L216.679,27.9089 L216.148,27.9089 C216.127,27.888 216.116,27.8672 216.116,27.8464 C216.116,27.8047 216.158,27.763 216.241,27.7214 C216.523,27.5339 216.856,27.1693 217.241,26.6276 C217.252,26.6172 217.257,26.612 217.257,26.612 C217.361,26.4557 217.429,26.362 217.46,26.3307 C217.502,26.3412 217.523,26.3828 217.523,26.4557 L217.523,27.612 L218.538,27.612 M219.195,31.1432 C219.195,30.6328 219.512,30.2005 220.148,29.8464 C220.335,29.7526 220.835,29.5391 221.648,29.2057 C221.668,29.2057 221.684,29.2005 221.695,29.1901 L221.695,28.5807 C221.642,28.0599 221.387,27.7839 220.929,27.7526 C220.616,27.7526 220.398,27.8516 220.273,28.0495 C220.231,28.1224 220.21,28.1849 220.21,28.237 C220.21,28.2995 220.221,28.3828 220.241,28.487 C220.252,28.5599 220.257,28.612 220.257,28.6432 C220.257,28.8203 220.168,28.9453 219.991,29.0182 C219.929,29.0495 219.872,29.0651 219.82,29.0651 C219.632,29.0651 219.502,28.9766 219.429,28.7995 C219.398,28.7474 219.382,28.6901 219.382,28.6276 C219.382,28.263 219.601,27.9662 220.038,27.737 C220.34,27.5912 220.684,27.5182 221.07,27.5182 C221.788,27.5182 222.231,27.7735 222.398,28.2839 C222.471,28.5026 222.507,28.7787 222.507,29.112 L222.507,31.0495 C222.507,31.3828 222.57,31.5703 222.695,31.612 C222.736,31.6224 222.773,31.6276 222.804,31.6276 C222.95,31.6172 223.096,31.5547 223.241,31.4401 L223.241,31.6901 C222.971,32.0026 222.721,32.1745 222.491,32.2057 C222.439,32.2057 222.387,32.2057 222.335,32.2057 C222.023,32.2057 221.825,32.0495 221.741,31.737 C221.721,31.6537 221.71,31.5599 221.71,31.4557 C221.116,31.9349 220.627,32.1849 220.241,32.2057 C219.814,32.2057 219.507,32.0339 219.32,31.6901 C219.236,31.5235 219.195,31.3412 219.195,31.1432 M221.695,30.862 L221.695,29.4245 C220.872,29.7266 220.366,30.0339 220.179,30.3464 C220.106,30.4922 220.07,30.6485 220.07,30.8151 C220.07,31.211 220.215,31.461 220.507,31.5651 C220.58,31.5964 220.648,31.612 220.71,31.612 C220.929,31.6016 221.168,31.5235 221.429,31.3776 C221.575,31.2943 221.658,31.1901 221.679,31.0651 C221.689,31.0026 221.695,30.9349 221.695,30.862 M227.57,27.612 L227.57,27.7682 C227.403,27.7891 227.278,27.8568 227.195,27.9714 C227.122,28.0755 227.033,28.2682 226.929,28.5495 L225.648,31.7526 C225.512,32.0755 225.418,32.2422 225.366,32.2526 C225.293,32.2526 225.21,32.1068 225.116,31.8151 C225.106,31.8047 225.101,31.7943 225.101,31.7839 L223.898,28.9089 C223.648,28.3151 223.46,27.9662 223.335,27.862 C223.252,27.7995 223.137,27.7682 222.991,27.7682 L222.991,27.612 L224.96,27.612 L224.96,27.7682 C224.679,27.7891 224.528,27.862 224.507,27.987 C224.497,28.0078 224.491,28.0287 224.491,28.0495 C224.491,28.1641 224.523,28.2839 224.585,28.4089 L225.601,30.9714 L226.585,28.3776 C226.627,28.2839 226.648,28.1849 226.648,28.0807 C226.648,27.9037 226.502,27.7995 226.21,27.7682 C226.2,27.7682 226.189,27.7682 226.179,27.7682 L226.179,27.612 L227.57,27.612 M228.913,29.3464 C228.955,30.5235 229.34,31.2162 230.07,31.4245 C230.195,31.4662 230.33,31.487 230.476,31.487 C230.965,31.487 231.382,31.2787 231.726,30.862 C231.82,30.7474 231.918,30.612 232.023,30.4557 L232.179,30.5182 C231.814,31.4766 231.241,32.0287 230.46,32.1745 C230.325,32.1953 230.195,32.2057 230.07,32.2057 C229.33,32.2057 228.799,31.8932 228.476,31.2682 C228.288,30.8932 228.195,30.461 228.195,29.9714 C228.195,29.086 228.471,28.4141 229.023,27.9557 C229.387,27.6641 229.809,27.5182 230.288,27.5182 C231.205,27.5182 231.757,28.0391 231.945,29.0807 C231.965,29.1745 231.981,29.263 231.991,29.3464 L228.913,29.3464 M228.929,29.0495 L230.976,29.0495 C230.882,28.4766 230.715,28.1224 230.476,27.987 C230.351,27.9245 230.189,27.8932 229.991,27.8932 C229.398,27.8932 229.043,28.2682 228.929,29.0182 C228.929,29.0287 228.929,29.0391 228.929,29.0495"/>
</svg>
