<?xml version="1.0" encoding="UTF-8" standalone="no"?>
<svg width="595.44px" height="841.68px" viewBox="0 0 595.44 841.68"
 xmlns="http://www.w3.org/2000/svg" xmlns:xlink="http://www.w3.org/1999/xlink" version="1.2" baseProfile="tiny">
<title>Guitar Scales and Arpeggios</title>
<desc>Generated by MuseScore 2.1.0</desc>
<polyline class="StaffLines" fill="none" stroke="#000000" stroke-width="0.40" stroke-linejoin="bevel" points="28.08,62.856 567.36,62.856"/>
<polyline class="StaffLines" fill="none" stroke="#000000" stroke-width="0.40" stroke-linejoin="bevel" points="28.08,67.824 567.36,67.824"/>
<polyline class="StaffLines" fill="none" stroke="#000000" stroke-width="0.40" stroke-linejoin="bevel" points="28.08,72.792 567.36,72.792"/>
<polyline class="StaffLines" fill="none" stroke="#000000" stroke-width="0.40" stroke-linejoin="bevel" points="28.08,77.76 567.36,77.76"/>
<polyline class="StaffLines" fill="none" stroke="#000000" stroke-width="0.40" stroke-linejoin="bevel" points="28.08,82.728 567.36,82.728"/>
<polyline class="StaffLines" fill="none" stroke="#000000" stroke-width="0.40" stroke-linejoin="bevel" points="28.08,115.02 567.36,115.02"/>
<polyline class="StaffLines" fill="none" stroke="#000000" stroke-width="0.40" stroke-linejoin="bevel" points="28.08,122.472 567.36,122.472"/>
<polyline class="StaffLines" fill="none" stroke="#000000" stroke-width="0.40" stroke-linejoin="bevel" points="28.08,129.924 567.36,129.924"/>
<polyline class="StaffLines" fill="none" stroke="#000000" stroke-width="0.40" stroke-linejoin="bevel" points="28.08,137.376 567.36,137.376"/>
<polyline class="StaffLines" fill="none" stroke="#000000" stroke-width="0.40" stroke-linejoin="bevel" points="28.08,144.828 567.36,144.828"/>
<polyline class="StaffLines" fill="none" stroke="#000000" stroke-width="0.40" stroke-linejoin="bevel" points="28.08,152.28 567.36,152.28"/>
<polyline class="BarLine" fill="none" stroke="#000000" stroke-width="0.79" stroke-linejoin="bevel" points="28.4774,62.856 28.4774,152.28"/>
<polyline class="BarLine" fill="none" stroke="#000000" stroke-width="0.79" stroke-linejoin="bevel" points="562.491,115.02 562.491,152.28"/>
<polyline class="BarLine" fill="none" stroke="#000000" stroke-width="2.48" stroke-linejoin="bevel" points="566.118,115.02 566.118,152.28"/>
<polyline class="BarLine" fill="none" stroke="#000000" stroke-width="0.79" stroke-linejoin="bevel" points="562.491,62.856 562.491,82.728"/>
<polyline class="BarLine" fill="none" stroke="#000000" stroke-width="2.48" stroke-linejoin="bevel" points="566.118,62.856 566.118,82.728"/>
<polyline class="Stem" fill="none" stroke="#000000" stroke-width="0.65" stroke-linecap="round" stroke-linejoin="bevel" points="465.859,81.7949 465.859,65.34"/>
<polyline class="Stem" fill="none" stroke="#000000" stroke-width="0.65" stroke-linecap="round" stroke-linejoin="bevel" points="395.93,78.6931 395.93,92.664"/>
<polyline class="Stem" fill="none" stroke="#000000" stroke-width="0.65" stroke-linecap="round" stroke-linejoin="bevel" points="331.897,73.7251 331.897,89.559"/>
<polyline class="Stem" fill="none" stroke="#000000" stroke-width="0.65" stroke-linecap="round" stroke-linejoin="bevel" points="267.864,66.2731 267.864,86.454"/>
<polyline class="Stem" fill="none" stroke="#000000" stroke-width="0.65" stroke-linecap="round" stroke-linejoin="bevel" points="209.726,71.8589 209.726,57.888"/>
<polyline class="Stem" fill="none" stroke="#000000" stroke-width="0.65" stroke-linecap="round" stroke-linejoin="bevel" points="145.692,76.8269 145.692,60.993"/>
<polyline class="Stem" fill="none" stroke="#000000" stroke-width="0.65" stroke-linecap="round" stroke-linejoin="bevel" points="81.6591,81.7949 81.6591,64.098"/>
<path class="Note" fill="#ffffff" fill-rule="evenodd" d="M460.386,133.65 L466.348,133.65 L466.348,141.102 L460.386,141.102 L460.386,133.65 "/>
<path class="Note" transform="matrix(0.9936,0,0,0.9936,460.883,140.854)" d="M2.32813,-4.54688 L0.921875,-4.54688 L0.921875,-5.10938 C1.53646,-5.19271 1.93229,-5.30208 2.10938,-5.4375 C2.28646,-5.57292 2.4375,-5.85417 2.5625,-6.28125 C2.57292,-6.3125 2.58854,-6.34896 2.60938,-6.39063 L3.125,-6.39063 L3.125,0 L2.32813,0 L2.32813,-4.54688 "/>
<path class="Note" fill="#00008b" transform="matrix(0.9936,0,0,0.9936,459.641,82.728)" d="M4.39063,-2.75 C5.01563,-2.75 5.54688,-2.58854 5.98438,-2.26563 C6.38021,-1.91146 6.57813,-1.46875 6.57813,-0.9375 C6.57813,-0.0416667 6.11979,0.796875 5.20313,1.57813 C4.26563,2.35938 3.26042,2.75 2.1875,2.75 C1.5625,2.75 1.03646,2.58854 0.609375,2.26563 C0.203125,1.91146 0,1.46875 0,0.9375 C0,0.0416667 0.46875,-0.796875 1.40625,-1.57813 C2.32292,-2.35938 3.31771,-2.75 4.39063,-2.75"/>
<path class="Note" fill="#ffffff" fill-rule="evenodd" d="M396.353,126.198 L402.314,126.198 L402.314,133.65 L396.353,133.65 L396.353,126.198 "/>
<path class="Note" transform="matrix(0.9936,0,0,0.9936,396.85,133.402)" d="M0.390625,-3.09375 C0.390625,-5 0.927083,-6.07813 2,-6.32813 C2.14583,-6.36979 2.30208,-6.39063 2.46875,-6.39063 C3.78125,-6.39063 4.47917,-5.40104 4.5625,-3.42188 C4.5625,-3.28646 4.5625,-3.15625 4.5625,-3.03125 C4.5625,-1.40625 4.15104,-0.385417 3.32813,0.03125 C3.06771,0.145833 2.78125,0.203125 2.46875,0.203125 C1.41667,0.203125 0.760417,-0.442708 0.5,-1.73438 C0.427083,-2.14063 0.390625,-2.59375 0.390625,-3.09375 M2.46875,-5.64063 C1.625,-5.63021 1.20313,-4.77083 1.20313,-3.0625 C1.20313,-1.32292 1.61979,-0.453125 2.45313,-0.453125 C3.16146,-0.453125 3.57813,-1.02604 3.70313,-2.17188 C3.73438,-2.44271 3.75,-2.75 3.75,-3.09375 C3.75,-4.79167 3.32292,-5.64063 2.46875,-5.64063"/>
<path class="Note" fill="#99cc33" transform="matrix(0.9936,0,0,0.9936,395.608,77.76)" d="M4.39063,-2.75 C5.01563,-2.75 5.54688,-2.58854 5.98438,-2.26563 C6.38021,-1.91146 6.57813,-1.46875 6.57813,-0.9375 C6.57813,-0.0416667 6.11979,0.796875 5.20313,1.57813 C4.26563,2.35938 3.26042,2.75 2.1875,2.75 C1.5625,2.75 1.03646,2.58854 0.609375,2.26563 C0.203125,1.91146 0,1.46875 0,0.9375 C0,0.0416667 0.46875,-0.796875 1.40625,-1.57813 C2.32292,-2.35938 3.31771,-2.75 4.39063,-2.75"/>
<path class="Note" fill="#ffffff" fill-rule="evenodd" d="M332.319,126.198 L338.281,126.198 L338.281,133.65 L332.319,133.65 L332.319,126.198 "/>
<path class="Note" transform="matrix(0.9936,0,0,0.9936,332.816,133.402)" d="M2.4375,-5.64063 C1.75,-5.64063 1.35417,-5.32813 1.25,-4.70313 C1.22917,-4.59896 1.21875,-4.47917 1.21875,-4.34375 L0.421875,-4.34375 C0.442708,-5.59375 1.01563,-6.27083 2.14063,-6.375 C2.23438,-6.38542 2.32813,-6.39063 2.42188,-6.39063 C3.26563,-6.39063 3.84375,-6.10938 4.15625,-5.54688 C4.29167,-5.28646 4.35938,-4.98438 4.35938,-4.64063 C4.35938,-4.00521 4.0625,-3.57292 3.46875,-3.34375 C4.03125,-3.14583 4.375,-2.81771 4.5,-2.35938 C4.54167,-2.19271 4.5625,-2.00521 4.5625,-1.79688 C4.5625,-1.05729 4.27604,-0.505208 3.70313,-0.140625 C3.33854,0.0885417 2.90104,0.203125 2.39063,0.203125 C1.21354,0.203125 0.526042,-0.348958 0.328125,-1.45313 C0.317708,-1.57813 0.302083,-1.71354 0.28125,-1.85938 L1.07813,-1.85938 C1.13021,-1.08854 1.46875,-0.65625 2.09375,-0.5625 C2.19792,-0.541667 2.30729,-0.53125 2.42188,-0.53125 C3.04688,-0.53125 3.45313,-0.765625 3.64063,-1.23438 C3.71354,-1.40104 3.75,-1.58854 3.75,-1.79688 C3.73958,-2.54688 3.29688,-2.92708 2.42188,-2.9375 L2.09375,-2.92188 L1.98438,-2.92188 L1.98438,-3.67188 C2.66146,-3.68229 3.10417,-3.77604 3.3125,-3.95313 C3.47917,-4.09896 3.5625,-4.31771 3.5625,-4.60938 C3.5625,-5.09896 3.34896,-5.41667 2.92188,-5.5625 C2.77604,-5.61458 2.61458,-5.64063 2.4375,-5.64063"/>
<path class="Note" fill="#bf6a1f" transform="matrix(0.9936,0,0,0.9936,331.574,72.792)" d="M4.39063,-2.75 C5.01563,-2.75 5.54688,-2.58854 5.98438,-2.26563 C6.38021,-1.91146 6.57813,-1.46875 6.57813,-0.9375 C6.57813,-0.0416667 6.11979,0.796875 5.20313,1.57813 C4.26563,2.35938 3.26042,2.75 2.1875,2.75 C1.5625,2.75 1.03646,2.58854 0.609375,2.26563 C0.203125,1.91146 0,1.46875 0,0.9375 C0,0.0416667 0.46875,-0.796875 1.40625,-1.57813 C2.32292,-2.35938 3.31771,-2.75 4.39063,-2.75"/>
<path class="Note" fill="#ffffff" fill-rule="evenodd" d="M268.286,118.746 L274.248,118.746 L274.248,126.198 L268.286,126.198 L268.286,118.746 "/>
<path class="Note" transform="matrix(0.9936,0,0,0.9936,268.783,125.95)" d="M2.9375,-1.5 L0.25,-1.5 L0.25,-2.375 L3.15625,-6.39063 L3.73438,-6.39063 L3.73438,-2.23438 L4.6875,-2.23438 L4.6875,-1.5 L3.73438,-1.5 L3.73438,0 L2.9375,0 L2.9375,-1.5 M2.9375,-2.23438 L2.9375,-5.03125 L0.9375,-2.23438 L2.9375,-2.23438 "/>
<path class="Note" fill="#00008b" transform="matrix(0.9936,0,0,0.9936,267.541,65.34)" d="M4.39063,-2.75 C5.01563,-2.75 5.54688,-2.58854 5.98438,-2.26563 C6.38021,-1.91146 6.57813,-1.46875 6.57813,-0.9375 C6.57813,-0.0416667 6.11979,0.796875 5.20313,1.57813 C4.26563,2.35938 3.26042,2.75 2.1875,2.75 C1.5625,2.75 1.03646,2.58854 0.609375,2.26563 C0.203125,1.91146 0,1.46875 0,0.9375 C0,0.0416667 0.46875,-0.796875 1.40625,-1.57813 C2.32292,-2.35938 3.31771,-2.75 4.39063,-2.75"/>
<path class="Note" fill="#ffffff" fill-rule="evenodd" d="M204.253,126.198 L210.215,126.198 L210.215,133.65 L204.253,133.65 L204.253,126.198 "/>
<path class="Note" transform="matrix(0.9936,0,0,0.9936,204.75,133.402)" d="M2.4375,-5.64063 C1.75,-5.64063 1.35417,-5.32813 1.25,-4.70313 C1.22917,-4.59896 1.21875,-4.47917 1.21875,-4.34375 L0.421875,-4.34375 C0.442708,-5.59375 1.01563,-6.27083 2.14063,-6.375 C2.23438,-6.38542 2.32813,-6.39063 2.42188,-6.39063 C3.26563,-6.39063 3.84375,-6.10938 4.15625,-5.54688 C4.29167,-5.28646 4.35938,-4.98438 4.35938,-4.64063 C4.35938,-4.00521 4.0625,-3.57292 3.46875,-3.34375 C4.03125,-3.14583 4.375,-2.81771 4.5,-2.35938 C4.54167,-2.19271 4.5625,-2.00521 4.5625,-1.79688 C4.5625,-1.05729 4.27604,-0.505208 3.70313,-0.140625 C3.33854,0.0885417 2.90104,0.203125 2.39063,0.203125 C1.21354,0.203125 0.526042,-0.348958 0.328125,-1.45313 C0.317708,-1.57813 0.302083,-1.71354 0.28125,-1.85938 L1.07813,-1.85938 C1.13021,-1.08854 1.46875,-0.65625 2.09375,-0.5625 C2.19792,-0.541667 2.30729,-0.53125 2.42188,-0.53125 C3.04688,-0.53125 3.45313,-0.765625 3.64063,-1.23438 C3.71354,-1.40104 3.75,-1.58854 3.75,-1.79688 C3.73958,-2.54688 3.29688,-2.92708 2.42188,-2.9375 L2.09375,-2.92188 L1.98438,-2.92188 L1.98438,-3.67188 C2.66146,-3.68229 3.10417,-3.77604 3.3125,-3.95313 C3.47917,-4.09896 3.5625,-4.31771 3.5625,-4.60938 C3.5625,-5.09896 3.34896,-5.41667 2.92188,-5.5625 C2.77604,-5.61458 2.61458,-5.64063 2.4375,-5.64063"/>
<path class="Note" fill="#bf6a1f" transform="matrix(0.9936,0,0,0.9936,203.508,72.792)" d="M4.39063,-2.75 C5.01563,-2.75 5.54688,-2.58854 5.98438,-2.26563 C6.38021,-1.91146 6.57813,-1.46875 6.57813,-0.9375 C6.57813,-0.0416667 6.11979,0.796875 5.20313,1.57813 C4.26563,2.35938 3.26042,2.75 2.1875,2.75 C1.5625,2.75 1.03646,2.58854 0.609375,2.26563 C0.203125,1.91146 0,1.46875 0,0.9375 C0,0.0416667 0.46875,-0.796875 1.40625,-1.57813 C2.32292,-2.35938 3.31771,-2.75 4.39063,-2.75"/>
<path class="Note" fill="#ffffff" fill-rule="evenodd" d="M140.22,126.198 L146.181,126.198 L146.181,133.65 L140.22,133.65 L140.22,126.198 "/>
<path class="Note" transform="matrix(0.9936,0,0,0.9936,140.717,133.402)" d="M0.390625,-3.09375 C0.390625,-5 0.927083,-6.07813 2,-6.32813 C2.14583,-6.36979 2.30208,-6.39063 2.46875,-6.39063 C3.78125,-6.39063 4.47917,-5.40104 4.5625,-3.42188 C4.5625,-3.28646 4.5625,-3.15625 4.5625,-3.03125 C4.5625,-1.40625 4.15104,-0.385417 3.32813,0.03125 C3.06771,0.145833 2.78125,0.203125 2.46875,0.203125 C1.41667,0.203125 0.760417,-0.442708 0.5,-1.73438 C0.427083,-2.14063 0.390625,-2.59375 0.390625,-3.09375 M2.46875,-5.64063 C1.625,-5.63021 1.20313,-4.77083 1.20313,-3.0625 C1.20313,-1.32292 1.61979,-0.453125 2.45313,-0.453125 C3.16146,-0.453125 3.57813,-1.02604 3.70313,-2.17188 C3.73438,-2.44271 3.75,-2.75 3.75,-3.09375 C3.75,-4.79167 3.32292,-5.64063 2.46875,-5.64063"/>
<path class="Note" fill="#99cc33" transform="matrix(0.9936,0,0,0.9936,139.475,77.76)" d="M4.39063,-2.75 C5.01563,-2.75 5.54688,-2.58854 5.98438,-2.26563 C6.38021,-1.91146 6.57813,-1.46875 6.57813,-0.9375 C6.57813,-0.0416667 6.11979,0.796875 5.20313,1.57813 C4.26563,2.35938 3.26042,2.75 2.1875,2.75 C1.5625,2.75 1.03646,2.58854 0.609375,2.26563 C0.203125,1.91146 0,1.46875 0,0.9375 C0,0.0416667 0.46875,-0.796875 1.40625,-1.57813 C2.32292,-2.35938 3.31771,-2.75 4.39063,-2.75"/>
<path class="Note" fill="#ffffff" fill-rule="evenodd" d="M76.1865,133.65 L82.1481,133.65 L82.1481,141.102 L76.1865,141.102 L76.1865,133.65 "/>
<path class="Note" transform="matrix(0.9936,0,0,0.9936,76.6833,140.854)" d="M2.32813,-4.54688 L0.921875,-4.54688 L0.921875,-5.10938 C1.53646,-5.19271 1.93229,-5.30208 2.10938,-5.4375 C2.28646,-5.57292 2.4375,-5.85417 2.5625,-6.28125 C2.57292,-6.3125 2.58854,-6.34896 2.60938,-6.39063 L3.125,-6.39063 L3.125,0 L2.32813,0 L2.32813,-4.54688 "/>
<path class="Note" fill="#00008b" transform="matrix(0.9936,0,0,0.9936,75.4413,82.728)" d="M4.39063,-2.75 C5.01563,-2.75 5.54688,-2.58854 5.98438,-2.26563 C6.38021,-1.91146 6.57813,-1.46875 6.57813,-0.9375 C6.57813,-0.0416667 6.11979,0.796875 5.20313,1.57813 C4.26563,2.35938 3.26042,2.75 2.1875,2.75 C1.5625,2.75 1.03646,2.58854 0.609375,2.26563 C0.203125,1.91146 0,1.46875 0,0.9375 C0,0.0416667 0.46875,-0.796875 1.40625,-1.57813 C2.32292,-2.35938 3.31771,-2.75 4.39063,-2.75"/>
<path class="Clef" transform="matrix(0.9936,0,0,0.9936,32.0544,133.65)" d="M5.32813,8.5 C5.32813,8.86458 5.04167,9.04688 4.46875,9.04688 C4.02083,9.04688 3.625,8.91146 3.28125,8.64063 C2.95833,8.34896 2.79688,7.98438 2.79688,7.54688 C2.79688,6.76563 3.27083,6.14063 4.21875,5.67188 C5.14583,5.18229 6.23438,4.9375 7.48438,4.9375 C7.96354,4.9375 8.47917,4.97396 9.03125,5.04688 C9.42708,5.09896 9.875,5.20313 10.375,5.35938 C10.8125,5.49479 11.1563,5.70573 11.4063,5.99219 C11.6563,6.27865 11.7813,6.61458 11.7813,7 C11.7813,7.89583 11.3177,8.63021 10.3906,9.20313 C11.7448,9.45313 12.4271,10.0573 12.4375,11.0156 C12.4375,11.8281 12.0729,12.5599 11.3438,13.2109 C10.6146,13.862 9.79167,14.1875 8.875,14.1875 C8.47917,14.1875 8.07813,14.0938 7.67188,13.9063 C7.29688,13.7292 7.03125,13.5625 6.875,13.4063 C6.71875,13.2188 6.64063,13.0781 6.64063,12.9844 C6.64063,12.8594 6.70833,12.75 6.84375,12.6563 C6.95833,12.5417 7.07813,12.4844 7.20313,12.4844 C7.25521,12.4844 7.36719,12.5677 7.53906,12.7344 C7.71094,12.901 7.95833,12.9844 8.28125,12.9844 C8.72917,12.9844 9.16146,12.7969 9.57813,12.4219 C9.97396,12.0573 10.1719,11.6198 10.1719,11.1094 C10.1719,10.6719 9.98438,10.3542 9.60938,10.1563 C9.24479,9.95833 8.76563,9.85938 8.17188,9.85938 C8.06771,9.85938 8.01563,9.75 8.01563,9.53125 C8.01563,9.21875 8.13021,9.0625 8.35938,9.0625 C8.72396,9.0625 9.05208,8.90625 9.34375,8.59375 C9.61458,8.26042 9.75,7.90104 9.75,7.51563 C9.75,7.40104 9.71875,7.22917 9.65625,7 C9.60417,6.84375 9.44792,6.65104 9.1875,6.42188 C8.9375,6.21354 8.58854,6.07292 8.14063,6 C8.02604,6.63542 7.88021,7.44792 7.70313,8.4375 C7.52604,9.42708 7.40625,10.0781 7.34375,10.3906 C7.125,11.5156 6.72396,12.4583 6.14063,13.2188 C5.52604,14.0313 4.86458,14.4375 4.15625,14.4375 C3.9375,14.4375 3.71354,14.3854 3.48438,14.2813 C3.29688,14.1979 3.0625,14.0365 2.78125,13.7969 C2.52083,13.5885 2.34375,13.4479 2.25,13.375 C2.19792,13.3438 2.17188,13.2865 2.17188,13.2031 C2.17188,13.0781 2.21875,12.9635 2.3125,12.8594 C2.41667,12.7344 2.52604,12.6719 2.64063,12.6719 C2.71354,12.6719 2.89323,12.7969 3.17969,13.0469 C3.46615,13.2969 3.76563,13.4219 4.07813,13.4219 C4.68229,13.4219 5.13542,13.0365 5.4375,12.2656 C5.71875,11.526 5.85938,10.6094 5.85938,9.51563 L5.85938,9.35938 C5.85938,8.63021 5.97917,7.54167 6.21875,6.09375 C5.80208,6.22917 5.46875,6.42708 5.21875,6.6875 C4.95833,6.94792 4.82813,7.21875 4.82813,7.5 C4.82813,7.71875 4.91146,7.90625 5.07813,8.0625 C5.24479,8.21875 5.32813,8.36458 5.32813,8.5 M1.40625,2.39063 C1.46875,2.39063 1.625,2.45313 1.875,2.57813 C2.13542,2.71354 2.35938,2.78125 2.54688,2.78125 C3.03646,2.78125 3.64063,2.42188 4.35938,1.70313 C6.43229,-0.411458 7.85938,-2.65104 8.64063,-5.01563 C8.79688,-5.51563 9.17708,-5.76563 9.78125,-5.76563 C10.0938,-5.76563 10.3646,-5.69792 10.5938,-5.5625 C10.8125,-5.42708 10.9219,-5.28646 10.9219,-5.14063 L10.5625,2.17188 C10.5625,2.55729 10.7031,2.75 10.9844,2.75 C11.1198,2.75 11.3281,2.6875 11.6094,2.5625 C11.8698,2.42708 12.026,2.35938 12.0781,2.35938 C12.1823,2.35938 12.2448,2.47396 12.2656,2.70313 C12.2656,2.91146 12.1823,3.04167 12.0156,3.09375 C11.8802,3.125 11.6198,3.24479 11.2344,3.45313 C10.8281,3.66146 10.5104,3.76563 10.2813,3.76563 C9.78125,3.76563 9.42708,3.375 9.21875,2.59375 C8.89583,1.375 8.6875,0.104167 8.59375,-1.21875 C8.07292,-0.552083 7.49479,0.119792 6.85938,0.796875 C7.08854,1.24479 7.51563,1.46875 8.14063,1.46875 C8.23438,1.46875 8.30729,1.46354 8.35938,1.45313 L8.375,1.45313 C8.47917,1.45313 8.53125,1.54688 8.53125,1.73438 C8.53125,1.98438 8.44792,2.13542 8.28125,2.1875 C8.01042,2.28125 7.72396,2.32813 7.42188,2.32813 C6.77604,2.32813 6.30729,2.10417 6.01563,1.65625 L5.23438,2.35938 C4.14063,3.29688 3.25,3.76563 2.5625,3.76563 C2.375,3.76563 2.1875,3.73438 2,3.67188 C1.84375,3.60938 1.66146,3.51042 1.45313,3.375 C1.36979,3.34375 1.27865,3.29688 1.17969,3.23438 C1.08073,3.17188 1.02083,3.13542 1,3.125 C0.9375,3.10417 0.90625,3.04688 0.90625,2.95313 C0.90625,2.84896 0.958333,2.72396 1.0625,2.57813 C1.14583,2.45313 1.26042,2.39063 1.40625,2.39063 M5.76563,-10.7969 C5.76563,-10.474 5.48438,-10.3125 4.92188,-10.3125 C4.43229,-10.3125 4.00521,-10.474 3.64063,-10.7969 C3.28646,-11.1302 3.10938,-11.5313 3.10938,-12 C3.10938,-12.4479 3.25,-12.8385 3.53125,-13.1719 C3.83333,-13.5052 4.21875,-13.7552 4.6875,-13.9219 C5.11458,-14.0781 5.59896,-14.2031 6.14063,-14.2969 C6.69271,-14.3594 7.22396,-14.3906 7.73438,-14.3906 C8.03646,-14.3906 8.59896,-14.2552 9.42188,-13.9844 C10.2552,-13.7135 10.8333,-13.5781 11.1563,-13.5781 C11.5625,-13.5781 11.9479,-13.651 12.3125,-13.7969 C12.6042,-13.9219 12.8906,-14.0677 13.1719,-14.2344 C13.3906,-14.3802 13.5104,-14.4531 13.5313,-14.4531 C13.6563,-14.4531 13.7604,-14.4167 13.8438,-14.3438 C13.9479,-14.2396 14,-14.151 14,-14.0781 C14,-13.9948 13.8802,-13.849 13.6406,-13.6406 C13.3802,-13.401 13.0078,-13.1641 12.5234,-12.9297 C12.0391,-12.6953 11.5313,-12.5781 11,-12.5781 C10.7604,-12.5781 10.4688,-12.6198 10.125,-12.7031 C9.89583,-11.2552 9.66146,-9.96875 9.42188,-8.84375 C9.21354,-7.85417 8.79688,-6.98958 8.17188,-6.25 C7.56771,-5.51042 6.89583,-5.14063 6.15625,-5.14063 C5.85417,-5.14063 5.58854,-5.19792 5.35938,-5.3125 C5.09896,-5.44792 4.82292,-5.64583 4.53125,-5.90625 C4.30208,-6.09375 4.08333,-6.26563 3.875,-6.42188 C3.82292,-6.46354 3.79688,-6.52604 3.79688,-6.60938 C3.79688,-6.69271 3.84896,-6.80729 3.95313,-6.95313 C4.05729,-7.06771 4.15104,-7.125 4.23438,-7.125 C4.31771,-7.125 4.54167,-6.96354 4.90625,-6.64063 C5.27083,-6.31771 5.59375,-6.15625 5.875,-6.15625 C6.39583,-6.15625 6.80208,-6.45313 7.09375,-7.04688 C7.375,-7.64063 7.53646,-8.34375 7.57813,-9.15625 C7.64063,-10.5 7.79167,-11.8906 8.03125,-13.3281 C7.73958,-13.3906 7.52604,-13.4219 7.39063,-13.4219 C6.76563,-13.4219 6.22917,-13.2917 5.78125,-13.0313 C5.34375,-12.7813 5.125,-12.4427 5.125,-12.0156 C5.125,-11.7031 5.22917,-11.4635 5.4375,-11.2969 C5.65625,-11.1094 5.76563,-10.9427 5.76563,-10.7969"/>
<path class="Clef" transform="matrix(0.9936,0,0,0.9936,32.0544,77.76)" d="M7.34375,-5.125 C7.34375,-5.125 7.38542,-5.125 7.46875,-5.125 C7.52083,-5.13542 7.5625,-5.14063 7.59375,-5.14063 C9.05208,-5.14063 10.25,-4.625 11.1875,-3.59375 C12.125,-2.58333 12.5938,-1.40104 12.5938,-0.046875 C12.5938,1.64063 11.901,3.01042 10.5156,4.0625 C10.151,4.35417 9.67188,4.58854 9.07813,4.76563 C9.15104,5.60938 9.1875,6.29167 9.1875,6.8125 C9.1875,6.91667 9.17188,7.29688 9.14063,7.95313 C9.08854,9.16146 8.67188,10.2083 7.89063,11.0938 C7.14063,11.9688 6.20313,12.4063 5.07813,12.4063 C4.02604,12.4063 3.13021,12.0365 2.39063,11.2969 C1.64063,10.5365 1.26563,9.625 1.26563,8.5625 C1.26563,8 1.48438,7.52083 1.92188,7.125 C2.35938,6.73958 2.86979,6.54688 3.45313,6.54688 C3.97396,6.54688 4.41146,6.75 4.76563,7.15625 C5.13021,7.53125 5.3125,8 5.3125,8.5625 C5.3125,9.0625 5.13021,9.49479 4.76563,9.85938 C4.40104,10.224 3.96354,10.4063 3.45313,10.4063 C3.24479,10.4063 3.04688,10.3698 2.85938,10.2969 C3.43229,11.1406 4.19271,11.5625 5.14063,11.5625 C6.03646,11.5625 6.77083,11.1979 7.34375,10.4688 C7.94792,9.71875 8.27604,8.83854 8.32813,7.82813 C8.34896,7.20313 8.35938,6.84896 8.35938,6.76563 C8.35938,6.03646 8.33333,5.4375 8.28125,4.96875 C7.63542,5.07292 7.05729,5.125 6.54688,5.125 C4.73438,5.125 3.19271,4.40625 1.92188,2.96875 C0.671875,1.52083 0.046875,-0.197917 0.046875,-2.1875 C0.046875,-2.60417 0.0833333,-3.02604 0.15625,-3.45313 C0.239583,-3.80729 0.338542,-4.19271 0.453125,-4.60938 C0.515625,-4.84896 0.692708,-5.22917 0.984375,-5.75 C1.08854,-5.90625 1.20573,-6.10156 1.33594,-6.33594 C1.46615,-6.57031 1.55729,-6.72396 1.60938,-6.79688 C1.73438,-7.05729 1.98438,-7.41146 2.35938,-7.85938 C2.46354,-7.97396 2.57292,-8.10156 2.6875,-8.24219 C2.80208,-8.38281 2.89844,-8.5 2.97656,-8.59375 C3.05469,-8.6875 3.11198,-8.76042 3.14844,-8.8125 C3.1849,-8.86458 3.47917,-9.20833 4.03125,-9.84375 C4.15625,-9.97917 4.28125,-10.1198 4.40625,-10.2656 C4.53125,-10.4115 4.63281,-10.5286 4.71094,-10.6172 C4.78906,-10.7057 4.84896,-10.7656 4.89063,-10.7969 C4.42188,-12.349 4.125,-13.5885 4,-14.5156 C3.91667,-15.2552 3.875,-16.2708 3.875,-17.5625 C3.875,-18.6979 4.13542,-19.7604 4.65625,-20.75 C5.15625,-21.7708 5.86458,-22.6094 6.78125,-23.2656 C6.84375,-23.3073 6.90625,-23.3281 6.96875,-23.3281 C7.0625,-23.3281 7.13021,-23.3073 7.17188,-23.2656 C7.86979,-22.4219 8.47396,-21.3229 8.98438,-19.9688 C9.50521,-18.6146 9.76563,-17.3802 9.76563,-16.2656 C9.76563,-15.0156 9.46875,-13.8438 8.875,-12.75 C8.19792,-11.5938 7.32292,-10.3958 6.25,-9.15625 C6.52083,-8.30208 6.88542,-6.95833 7.34375,-5.125 M9,3.96875 C9.67708,3.71875 10.2083,3.29688 10.5938,2.70313 C11.0104,2.13021 11.2188,1.48438 11.2188,0.765625 C11.2188,-0.161458 10.9063,-0.984375 10.2813,-1.70313 C9.63542,-2.44271 8.81771,-2.85938 7.82813,-2.95313 C8.39063,-0.203125 8.78125,2.10417 9,3.96875 M1.45313,-0.546875 C1.45313,0.744792 1.97396,1.88021 3.01563,2.85938 C4.07813,3.80729 5.27604,4.28125 6.60938,4.28125 C7.15104,4.28125 7.68229,4.23958 8.20313,4.15625 C7.99479,2.17708 7.58333,-0.192708 6.96875,-2.95313 C6.22917,-2.86979 5.64063,-2.60938 5.20313,-2.17188 C4.76563,-1.71354 4.54688,-1.19792 4.54688,-0.625 C4.54688,0.364583 5.07813,1.16667 6.14063,1.78125 C6.22396,1.875 6.26563,1.97396 6.26563,2.07813 C6.26563,2.18229 6.22396,2.27604 6.14063,2.35938 C6.05729,2.45313 5.95833,2.5 5.84375,2.5 C5.83333,2.5 5.77604,2.48958 5.67188,2.46875 C4.92188,2.0625 4.34896,1.54167 3.95313,0.90625 C3.56771,0.21875 3.375,-0.46875 3.375,-1.15625 C3.375,-2.05208 3.65625,-2.86458 4.21875,-3.59375 C4.80208,-4.32292 5.5625,-4.79167 6.5,-5 C6.13542,-6.45833 5.83854,-7.59896 5.60938,-8.42188 C5.40104,-8.18229 5.15104,-7.89844 4.85938,-7.57031 C4.56771,-7.24219 4.39583,-7.04167 4.34375,-6.96875 C3.875,-6.36458 3.51563,-5.89063 3.26563,-5.54688 C2.81771,-4.93229 2.48958,-4.40625 2.28125,-3.96875 C2.0625,-3.46875 1.86979,-2.92708 1.70313,-2.34375 C1.53646,-1.78125 1.45313,-1.18229 1.45313,-0.546875 M7.96875,-20.4063 C6.98958,-19.9271 6.22396,-19.2396 5.67188,-18.3438 C5.09896,-17.4167 4.8125,-16.4219 4.8125,-15.3594 C4.8125,-14.4219 5.04688,-13.1563 5.51563,-11.5625 C6.45313,-12.6979 7.15625,-13.7448 7.625,-14.7031 C8.11458,-15.724 8.35938,-16.7865 8.35938,-17.8906 C8.35938,-18.724 8.22917,-19.5625 7.96875,-20.4063 M5.82813,15.2344 C6.16146,14.901 6.32813,14.5625 6.32813,14.2188 C6.30729,13.9479 6.19271,13.7396 5.98438,13.5938 C5.74479,13.4375 5.46875,13.3594 5.15625,13.3594 C4.9375,13.3594 4.75521,13.4323 4.60938,13.5781 C4.48438,13.7031 4.42188,13.8646 4.42188,14.0625 C4.42188,14.3021 4.51563,14.4792 4.70313,14.5938 L5.82813,15.2344 M6.14063,15.4063 C6.68229,15.7083 6.95313,16.1146 6.95313,16.625 L6.95313,16.6875 C6.95313,17.0833 6.79167,17.4219 6.46875,17.7031 C6.14583,17.9844 5.68229,18.125 5.07813,18.125 C4.58854,18.125 4.16146,17.9948 3.79688,17.7344 C3.43229,17.4844 3.25,17.1458 3.25,16.7188 C3.25,16.5521 3.29167,16.3958 3.375,16.25 C3.47917,16.0833 3.56771,15.9688 3.64063,15.9063 L4,15.5313 C3.60417,15.2604 3.40625,14.901 3.40625,14.4531 C3.40625,14.099 3.5625,13.7865 3.875,13.5156 C4.19792,13.2552 4.625,13.125 5.15625,13.125 C5.60417,13.125 5.98438,13.224 6.29688,13.4219 C6.60938,13.6198 6.76563,13.8854 6.76563,14.2188 C6.76563,14.5729 6.55729,14.9688 6.14063,15.4063 M4.29688,15.7031 C3.91146,16.0469 3.70313,16.3854 3.67188,16.7188 C3.70313,17.0729 3.84896,17.3542 4.10938,17.5625 C4.39063,17.7813 4.71354,17.8906 5.07813,17.8906 C5.33854,17.8906 5.54688,17.8073 5.70313,17.6406 C5.85938,17.4844 5.9375,17.2969 5.9375,17.0781 C5.92708,16.7865 5.8125,16.5781 5.59375,16.4531 L4.29688,15.7031 "/>
<path class="KeySig" transform="matrix(0.9936,0,0,0.9936,59.4017,75.276)" d="M0.921875,-0.828125 L0.921875,0.71875 C0.921875,1.27083 0.947917,1.70833 1,2.03125 C1.42708,1.66667 1.73438,1.39583 1.92188,1.21875 C2.13021,1.01042 2.33854,0.721354 2.54688,0.351563 C2.75521,-0.0182292 2.85938,-0.385417 2.85938,-0.75 C2.85938,-1.11458 2.78125,-1.42708 2.625,-1.6875 C2.46875,-1.94792 2.26042,-2.07813 2,-2.07813 C1.6875,-2.07813 1.42708,-1.95833 1.21875,-1.71875 C1.02083,-1.45833 0.921875,-1.16146 0.921875,-0.828125 M0.09375,2.75 L-0.15625,-9.14063 C0.03125,-9.24479 0.216146,-9.29688 0.398438,-9.29688 C0.580729,-9.29688 0.760417,-9.24479 0.9375,-9.14063 L0.78125,-2.25 C1.3125,-2.70833 1.92708,-2.9375 2.625,-2.9375 C3.125,-2.9375 3.54427,-2.72917 3.88281,-2.3125 C4.22135,-1.89583 4.39063,-1.41667 4.39063,-0.875 C4.39063,-0.541667 4.28125,-0.182292 4.0625,0.203125 C3.85417,0.546875 3.63542,0.817708 3.40625,1.01563 C3.27083,1.11979 2.9375,1.38021 2.40625,1.79688 C2.25,1.91146 2.0651,2.04688 1.85156,2.20313 C1.63802,2.35938 1.50521,2.45833 1.45313,2.5 C1.35938,2.55208 1.27083,2.65625 1.1875,2.8125 C1.10417,2.94792 1,3.05729 0.875,3.14063 C0.791667,3.22396 0.684896,3.26563 0.554688,3.26563 C0.424479,3.26563 0.317708,3.21875 0.234375,3.125 C0.140625,3.03125 0.09375,2.90625 0.09375,2.75"/>
<path class="KeySig" transform="matrix(0.9936,0,0,0.9936,54.4337,65.34)" d="M0.921875,-0.828125 L0.921875,0.71875 C0.921875,1.27083 0.947917,1.70833 1,2.03125 C1.42708,1.66667 1.73438,1.39583 1.92188,1.21875 C2.13021,1.01042 2.33854,0.721354 2.54688,0.351563 C2.75521,-0.0182292 2.85938,-0.385417 2.85938,-0.75 C2.85938,-1.11458 2.78125,-1.42708 2.625,-1.6875 C2.46875,-1.94792 2.26042,-2.07813 2,-2.07813 C1.6875,-2.07813 1.42708,-1.95833 1.21875,-1.71875 C1.02083,-1.45833 0.921875,-1.16146 0.921875,-0.828125 M0.09375,2.75 L-0.15625,-9.14063 C0.03125,-9.24479 0.216146,-9.29688 0.398438,-9.29688 C0.580729,-9.29688 0.760417,-9.24479 0.9375,-9.14063 L0.78125,-2.25 C1.3125,-2.70833 1.92708,-2.9375 2.625,-2.9375 C3.125,-2.9375 3.54427,-2.72917 3.88281,-2.3125 C4.22135,-1.89583 4.39063,-1.41667 4.39063,-0.875 C4.39063,-0.541667 4.28125,-0.182292 4.0625,0.203125 C3.85417,0.546875 3.63542,0.817708 3.40625,1.01563 C3.27083,1.11979 2.9375,1.38021 2.40625,1.79688 C2.25,1.91146 2.0651,2.04688 1.85156,2.20313 C1.63802,2.35938 1.50521,2.45833 1.45313,2.5 C1.35938,2.55208 1.27083,2.65625 1.1875,2.8125 C1.10417,2.94792 1,3.05729 0.875,3.14063 C0.791667,3.22396 0.684896,3.26563 0.554688,3.26563 C0.424479,3.26563 0.317708,3.21875 0.234375,3.125 C0.140625,3.03125 0.09375,2.90625 0.09375,2.75"/>
<path class="KeySig" transform="matrix(0.9936,0,0,0.9936,49.4657,72.792)" d="M0.921875,-0.828125 L0.921875,0.71875 C0.921875,1.27083 0.947917,1.70833 1,2.03125 C1.42708,1.66667 1.73438,1.39583 1.92188,1.21875 C2.13021,1.01042 2.33854,0.721354 2.54688,0.351563 C2.75521,-0.0182292 2.85938,-0.385417 2.85938,-0.75 C2.85938,-1.11458 2.78125,-1.42708 2.625,-1.6875 C2.46875,-1.94792 2.26042,-2.07813 2,-2.07813 C1.6875,-2.07813 1.42708,-1.95833 1.21875,-1.71875 C1.02083,-1.45833 0.921875,-1.16146 0.921875,-0.828125 M0.09375,2.75 L-0.15625,-9.14063 C0.03125,-9.24479 0.216146,-9.29688 0.398438,-9.29688 C0.580729,-9.29688 0.760417,-9.24479 0.9375,-9.14063 L0.78125,-2.25 C1.3125,-2.70833 1.92708,-2.9375 2.625,-2.9375 C3.125,-2.9375 3.54427,-2.72917 3.88281,-2.3125 C4.22135,-1.89583 4.39063,-1.41667 4.39063,-0.875 C4.39063,-0.541667 4.28125,-0.182292 4.0625,0.203125 C3.85417,0.546875 3.63542,0.817708 3.40625,1.01563 C3.27083,1.11979 2.9375,1.38021 2.40625,1.79688 C2.25,1.91146 2.0651,2.04688 1.85156,2.20313 C1.63802,2.35938 1.50521,2.45833 1.45313,2.5 C1.35938,2.55208 1.27083,2.65625 1.1875,2.8125 C1.10417,2.94792 1,3.05729 0.875,3.14063 C0.791667,3.22396 0.684896,3.26563 0.554688,3.26563 C0.424479,3.26563 0.317708,3.21875 0.234375,3.125 C0.140625,3.03125 0.09375,2.90625 0.09375,2.75"/>
<path class="Beam" fill-rule="evenodd" d="M267.541,85.212 L396.253,91.4533 L396.253,93.9373 L267.541,87.696 L267.541,85.212 "/>
<path class="Beam" fill-rule="evenodd" d="M81.3362,62.8873 L210.048,56.646 L210.048,59.13 L81.3362,65.3713 L81.3362,62.8873 "/>
<path class="Fingering" d="M454.625,80.4936 C454.511,80.4936 454.318,80.5509 454.047,80.6655 L454.047,80.5561 L455.485,79.8217 L455.547,79.8374 L455.547,84.6342 C455.547,84.8426 455.61,84.978 455.735,85.0405 C455.839,85.0822 456.032,85.103 456.313,85.103 L456.313,85.228 L454.094,85.228 L454.094,85.103 C454.448,85.0926 454.672,85.0301 454.766,84.9155 C454.829,84.8217 454.86,84.6759 454.86,84.478 L454.86,80.8686 C454.849,80.6186 454.771,80.4936 454.625,80.4936"/>
<path class="Fingering" d="M391.124,80.3694 C390.53,80.3694 390.066,80.0621 389.733,79.4475 C389.452,78.9475 389.311,78.3225 389.311,77.5725 C389.311,76.6767 389.519,75.9735 389.936,75.4631 C390.269,75.0673 390.676,74.8642 391.155,74.8537 C391.717,74.8537 392.16,75.1402 392.483,75.7131 C392.785,76.2235 392.936,76.859 392.936,77.6194 C392.936,78.5881 392.712,79.3277 392.264,79.8381 C391.941,80.1923 391.561,80.3694 391.124,80.3694 M391.124,75.0569 C390.478,75.0569 390.129,75.8277 390.077,77.3694 C390.077,77.4631 390.077,77.5569 390.077,77.6506 C390.087,79.3173 390.436,80.1558 391.124,80.1662 C391.811,80.1558 392.155,79.3121 392.155,77.635 C392.155,76.1142 391.884,75.2652 391.342,75.0881 C391.269,75.0673 391.196,75.0569 391.124,75.0569"/>
<path class="Fingering" d="M325.731,74.667 C325.856,74.667 326.038,74.7347 326.278,74.8701 C326.528,75.0264 326.741,75.1045 326.918,75.1045 C327.283,75.1045 327.569,74.943 327.778,74.6201 C327.903,74.4118 327.965,74.1774 327.965,73.917 C327.965,73.1566 327.512,72.7399 326.606,72.667 C326.512,72.6566 326.413,72.6514 326.309,72.6514 L326.309,72.542 C326.913,72.3441 327.309,72.0889 327.497,71.7764 C327.59,71.6097 327.637,71.4274 327.637,71.2295 C327.637,70.8753 327.491,70.6201 327.2,70.4639 C327.064,70.4014 326.918,70.3701 326.762,70.3701 C326.314,70.3701 325.944,70.6045 325.653,71.0733 C325.622,71.1149 325.595,71.1618 325.575,71.2139 L325.45,71.1826 C325.7,70.5055 326.064,70.0941 326.543,69.9483 C326.689,69.9066 326.851,69.8858 327.028,69.8858 C327.507,69.8858 327.861,70.0524 328.09,70.3858 C328.215,70.5628 328.278,70.7608 328.278,70.9795 C328.278,71.3024 328.127,71.5941 327.825,71.8545 C327.731,71.9274 327.632,72.0055 327.528,72.0889 C328.007,72.2972 328.314,72.5837 328.45,72.9483 C328.512,73.1253 328.543,73.3233 328.543,73.542 C328.543,74.1774 328.278,74.6722 327.747,75.0264 C327.351,75.2764 326.882,75.4014 326.34,75.4014 C325.851,75.4014 325.559,75.292 325.465,75.0733 C325.444,75.0316 325.434,74.9899 325.434,74.9483 C325.434,74.792 325.512,74.7035 325.668,74.6826 C325.689,74.6722 325.71,74.667 325.731,74.667"/>
<path class="Fingering" d="M264.838,66.0275 L264.838,66.5119 L264.01,66.5119 L264.01,67.84 L263.401,67.84 L263.401,66.5119 L261.151,66.5119 L261.151,66.0275 L263.666,62.4337 L264.01,62.4337 L264.01,66.0275 L264.838,66.0275 M263.385,66.0275 L263.385,63.2775 L261.479,66.0275 L263.385,66.0275 "/>
<path class="Fingering" d="M197.664,74.667 C197.789,74.667 197.972,74.7347 198.211,74.8701 C198.461,75.0264 198.675,75.1045 198.852,75.1045 C199.217,75.1045 199.503,74.943 199.711,74.6201 C199.836,74.4118 199.899,74.1774 199.899,73.917 C199.899,73.1566 199.446,72.7399 198.539,72.667 C198.446,72.6566 198.347,72.6514 198.243,72.6514 L198.243,72.542 C198.847,72.3441 199.243,72.0889 199.43,71.7764 C199.524,71.6097 199.571,71.4274 199.571,71.2295 C199.571,70.8753 199.425,70.6201 199.133,70.4639 C198.998,70.4014 198.852,70.3701 198.696,70.3701 C198.248,70.3701 197.878,70.6045 197.586,71.0733 C197.555,71.1149 197.529,71.1618 197.508,71.2139 L197.383,71.1826 C197.633,70.5055 197.998,70.0941 198.477,69.9483 C198.623,69.9066 198.784,69.8858 198.961,69.8858 C199.44,69.8858 199.795,70.0524 200.024,70.3858 C200.149,70.5628 200.211,70.7608 200.211,70.9795 C200.211,71.3024 200.06,71.5941 199.758,71.8545 C199.664,71.9274 199.565,72.0055 199.461,72.0889 C199.94,72.2972 200.248,72.5837 200.383,72.9483 C200.446,73.1253 200.477,73.3233 200.477,73.542 C200.477,74.1774 200.211,74.6722 199.68,75.0264 C199.284,75.2764 198.815,75.4014 198.274,75.4014 C197.784,75.4014 197.493,75.292 197.399,75.0733 C197.378,75.0316 197.368,74.9899 197.368,74.9483 C197.368,74.792 197.446,74.7035 197.602,74.6826 C197.623,74.6722 197.644,74.667 197.664,74.667"/>
<path class="Fingering" d="M134.991,80.3694 C134.397,80.3694 133.933,80.0621 133.6,79.4475 C133.319,78.9475 133.178,78.3225 133.178,77.5725 C133.178,76.6767 133.386,75.9735 133.803,75.4631 C134.136,75.0673 134.543,74.8642 135.022,74.8537 C135.584,74.8537 136.027,75.1402 136.35,75.7131 C136.652,76.2235 136.803,76.859 136.803,77.6194 C136.803,78.5881 136.579,79.3277 136.131,79.8381 C135.808,80.1923 135.428,80.3694 134.991,80.3694 M134.991,75.0569 C134.345,75.0569 133.996,75.8277 133.944,77.3694 C133.944,77.4631 133.944,77.5569 133.944,77.6506 C133.954,79.3173 134.303,80.1558 134.991,80.1662 C135.678,80.1558 136.022,79.3121 136.022,77.635 C136.022,76.1142 135.751,75.2652 135.209,75.0881 C135.136,75.0673 135.063,75.0569 134.991,75.0569"/>
<path class="Fingering" d="M70.4261,80.4936 C70.3115,80.4936 70.1188,80.5509 69.848,80.6655 L69.848,80.5561 L71.2855,79.8217 L71.348,79.8374 L71.348,84.6342 C71.348,84.8426 71.4105,84.978 71.5355,85.0405 C71.6396,85.0822 71.8323,85.103 72.1136,85.103 L72.1136,85.228 L69.8948,85.228 L69.8948,85.103 C70.249,85.0926 70.473,85.0301 70.5667,84.9155 C70.6292,84.8217 70.6605,84.6759 70.6605,84.478 L70.6605,80.8686 C70.65,80.6186 70.5719,80.4936 70.4261,80.4936"/>
<path class="Tempo" d="M69.2761,34.859 C69.2292,34.859 69.1979,34.859 69.1979,34.9371 L69.1979,40.4371 C68.9948,40.2809 68.7448,40.1871 68.4323,40.1871 C67.2448,40.1871 66.2917,41.0621 66.2917,41.9996 C66.2917,42.5621 66.7448,42.9059 67.3386,42.9059 C68.2917,42.9059 69.4792,41.9996 69.4792,41.0934 L69.4792,37.0934 C69.8542,37.1715 70.4792,37.4371 70.8542,38.4684 C70.9479,38.734 71.0417,39.1402 71.0417,39.5934 C71.0417,39.9059 70.9792,40.2809 70.8542,40.609 C70.8229,40.6559 70.8229,40.6871 70.8229,40.7184 C70.8229,40.8434 70.9011,40.9059 70.9636,40.9371 C70.9636,40.9527 70.9948,40.9527 71.0104,40.9527 C71.0729,40.9527 71.1354,40.9059 71.1979,40.7965 C71.2136,40.7027 71.4011,40.0465 71.4011,39.5621 L71.4011,39.4996 C71.3698,38.5777 70.9636,37.6871 70.4479,36.9371 C70.0104,36.359 69.6667,35.734 69.5261,35.0309 C69.4792,34.8902 69.4167,34.859 69.3386,34.859 L69.2761,34.859 "/>
<path class="Tempo" d="M81.7604,39.0152 L75.1511,39.0152 L75.1511,37.859 L81.7604,37.859 L81.7604,39.0152 M81.7604,41.9371 L75.1511,41.9371 L75.1511,40.7965 L81.7604,40.7965 L81.7604,41.9371 M87.1979,36.0465 C87.0729,36.0465 86.7552,36.1402 86.2448,36.3277 C86.2136,36.3382 86.1927,36.3486 86.1823,36.359 L86.1823,36.0465 L89.1979,34.734 L89.4011,34.734 L89.4011,41.5621 C89.4011,42.0517 89.5,42.3642 89.6979,42.4996 C89.875,42.6246 90.2083,42.6923 90.6979,42.7027 L90.6979,42.984 L86.1979,42.984 L86.1979,42.7027 C86.8542,42.6923 87.2656,42.5882 87.4323,42.3902 C87.5677,42.2236 87.6354,41.9267 87.6354,41.4996 L87.6354,36.8746 C87.625,36.333 87.4792,36.0569 87.1979,36.0465 M91.7761,37.1715 C92.3281,35.6819 93.1042,34.8746 94.1042,34.7496 C94.2083,34.7392 94.3125,34.734 94.4167,34.734 C95.2083,34.734 95.8125,35.0205 96.2292,35.5934 C96.5,35.9788 96.6354,36.4215 96.6354,36.9215 C96.6354,37.7861 96.2083,38.6298 95.3542,39.4527 C95.3125,39.484 95.2813,39.5152 95.2604,39.5465 L93.3229,41.3902 L95.1354,41.3902 C95.7708,41.3902 96.1771,41.333 96.3542,41.2184 C96.5208,41.1038 96.6823,40.8486 96.8386,40.4527 L97.1354,40.4527 L96.5886,42.984 L91.6042,42.984 L91.6042,42.7027 C93.2708,40.9215 94.2969,39.6455 94.6823,38.8746 C94.8906,38.4475 94.9948,38.0309 94.9948,37.6246 C94.9948,37.0934 94.8021,36.6767 94.4167,36.3746 C94.1771,36.1871 93.8958,36.0934 93.5729,36.0934 C92.9792,36.0934 92.5104,36.4215 92.1667,37.0777 C92.1458,37.109 92.125,37.1402 92.1042,37.1715 L91.7761,37.1715 M97.6823,38.9059 C97.6823,37.5934 97.9948,36.5309 98.6198,35.7184 C99.1302,35.0725 99.724,34.7444 100.401,34.734 C101.182,34.734 101.828,35.1402 102.339,35.9527 C102.849,36.7652 103.104,37.76 103.104,38.9371 C103.104,40.3121 102.786,41.4059 102.151,42.2184 C101.651,42.8225 101.073,43.1298 100.417,43.1402 C99.5833,43.1402 98.9115,42.7132 98.4011,41.859 C97.9219,41.0673 97.6823,40.083 97.6823,38.9059 M100.417,42.7965 C100.771,42.7965 101.005,42.4736 101.12,41.8277 C101.182,41.4423 101.214,40.9423 101.214,40.3277 L101.214,37.5777 C101.214,36.1402 101.021,35.3225 100.635,35.1246 C100.563,35.083 100.479,35.0621 100.385,35.0621 C100.021,35.0621 99.7813,35.3955 99.6667,36.0621 C99.6146,36.4371 99.5886,36.9423 99.5886,37.5777 L99.5886,40.3277 C99.5886,41.6819 99.7552,42.4736 100.089,42.7027 C100.182,42.7652 100.292,42.7965 100.417,42.7965"/>
<path class="StaffText" d="M79.2695,25.2057 C79.7174,25.2057 80.2174,25.3203 80.7695,25.5495 C81.009,25.6432 81.1809,25.6901 81.2851,25.6901 C81.4309,25.6901 81.5611,25.5807 81.6757,25.362 C81.6861,25.3203 81.7018,25.2787 81.7226,25.237 L81.9882,25.237 L81.9882,27.5807 L81.7382,27.5807 C81.4674,26.9766 81.1861,26.5339 80.8945,26.2526 C80.832,26.1901 80.7747,26.138 80.7226,26.0964 C80.2955,25.7214 79.8528,25.5339 79.3945,25.5339 C78.3945,25.5339 77.8007,26.2526 77.6132,27.6901 C77.582,28.013 77.5663,28.362 77.5663,28.737 C77.5663,29.9245 77.7799,30.7943 78.207,31.3464 C78.5403,31.763 78.9986,31.9714 79.582,31.9714 C80.1445,31.9714 80.4622,31.7943 80.5351,31.4401 C80.5455,31.3776 80.5507,31.3099 80.5507,31.237 L80.5507,30.1901 C80.5507,29.8985 80.4778,29.711 80.332,29.6276 C80.1861,29.5547 79.9205,29.5078 79.5351,29.487 L79.5351,29.237 L82.9726,29.237 L82.9726,29.487 C82.5663,29.5287 82.3163,29.6172 82.2226,29.7526 C82.1497,29.8672 82.1132,30.086 82.1132,30.4089 L82.1132,31.6745 C81.5195,32.0287 80.733,32.237 79.7538,32.2995 C79.6184,32.2995 79.483,32.2995 79.3476,32.2995 C78.233,32.2995 77.3424,31.9401 76.6757,31.2214 C76.082,30.5755 75.7851,29.7682 75.7851,28.7995 C75.7851,27.7578 76.1288,26.8932 76.8163,26.2057 C77.483,25.5391 78.3007,25.2057 79.2695,25.2057 M87.0351,28.8307 C86.8163,28.8307 86.6028,28.711 86.3945,28.4714 C86.2799,28.3255 86.1965,28.2474 86.1445,28.237 C85.9257,28.237 85.759,28.388 85.6445,28.6901 C85.5715,28.8464 85.5351,29.013 85.5351,29.1901 L85.5351,31.0807 C85.5351,31.4453 85.608,31.6693 85.7538,31.7526 C85.8476,31.8151 86.0195,31.8568 86.2695,31.8776 L86.2695,32.112 L83.6288,32.112 L83.6288,31.8776 C83.8997,31.8255 84.0611,31.7318 84.1132,31.5964 C84.134,31.5235 84.1445,31.4141 84.1445,31.2682 L84.1445,28.3307 C84.1445,28.0703 84.0715,27.9037 83.9257,27.8307 C83.8528,27.7891 83.7538,27.7578 83.6288,27.737 L83.6288,27.5026 L85.5038,27.5026 L85.5038,28.3307 C85.8788,27.7787 86.2486,27.4714 86.6132,27.4089 C86.6965,27.388 86.7747,27.3776 86.8476,27.3776 C87.1913,27.3776 87.4361,27.5182 87.582,27.7995 C87.634,27.9141 87.6601,28.0339 87.6601,28.1589 C87.6601,28.4714 87.5351,28.6797 87.2851,28.7839 C87.2018,28.8151 87.1184,28.8307 87.0351,28.8307 M88.9101,28.0807 C88.9101,28.112 88.9622,28.2057 89.0663,28.362 C89.1601,28.5078 89.207,28.6328 89.207,28.737 C89.207,28.9974 89.0768,29.1745 88.8163,29.2682 C88.7226,29.2995 88.6288,29.3151 88.5351,29.3151 C88.1705,29.3151 87.957,29.1537 87.8945,28.8307 C87.884,28.7682 87.8788,28.711 87.8788,28.6589 C87.8788,28.1901 88.134,27.8412 88.6445,27.612 C88.9674,27.4557 89.3424,27.3776 89.7695,27.3776 C90.6445,27.3776 91.2434,27.6172 91.5663,28.0964 C91.6913,28.2943 91.7538,28.5182 91.7538,28.7682 L91.7538,31.3464 C91.7643,31.5026 91.832,31.586 91.957,31.5964 C92.009,31.586 92.0455,31.5703 92.0663,31.5495 L92.1757,31.4557 L92.3163,31.6589 C91.9205,32.0339 91.5507,32.2318 91.207,32.2526 C90.832,32.2526 90.5872,32.112 90.4726,31.8307 C90.4413,31.737 90.4101,31.638 90.3788,31.5339 C89.8372,32.0026 89.3111,32.2422 88.8007,32.2526 C88.3632,32.2526 88.0455,32.086 87.8476,31.7526 C87.7434,31.586 87.6913,31.4037 87.6913,31.2057 C87.6913,30.6224 88.1393,30.1485 89.0351,29.7839 C89.2747,29.6797 89.7226,29.5287 90.3788,29.3307 L90.3788,28.5964 C90.3788,28.0651 90.1601,27.7735 89.7226,27.7214 C89.6601,27.7214 89.5976,27.7214 89.5351,27.7214 C89.2434,27.7214 89.0455,27.8047 88.9413,27.9714 C88.9205,28.0026 88.9101,28.0391 88.9101,28.0807 M90.3632,31.0964 L90.3632,29.6589 C89.5611,29.8776 89.1549,30.2787 89.1445,30.862 C89.1445,31.1953 89.2538,31.4037 89.4726,31.487 C89.5351,31.5078 89.5976,31.5182 89.6601,31.5182 C89.8893,31.5182 90.1236,31.3776 90.3632,31.0964 M95.832,32.237 L95.832,31.5964 C95.4778,31.9714 95.134,32.1849 94.8007,32.237 C94.707,32.2474 94.608,32.2526 94.5038,32.2526 C93.9101,32.2526 93.4413,31.9766 93.0976,31.4245 C92.8268,30.9974 92.6913,30.4922 92.6913,29.9089 C92.6913,29.0547 92.9361,28.3828 93.4257,27.8932 C93.759,27.5495 94.1549,27.3776 94.6132,27.3776 C94.9674,27.3776 95.2903,27.513 95.582,27.7839 C95.6653,27.8568 95.7382,27.9245 95.8007,27.987 L95.8007,26.1745 C95.8007,25.9245 95.7434,25.7682 95.6288,25.7057 C95.5247,25.6537 95.3268,25.6172 95.0351,25.5964 L95.0351,25.362 L97.1913,25.362 L97.1913,31.112 C97.1913,31.3932 97.2747,31.5651 97.4413,31.6276 C97.5247,31.6589 97.6393,31.6797 97.7851,31.6901 L97.7851,31.9245 L97.1601,32.0026 C96.608,32.0755 96.1653,32.1537 95.832,32.237 M94.957,31.7057 C95.2486,31.7057 95.4986,31.5391 95.707,31.2057 C95.759,31.112 95.7903,31.0443 95.8007,31.0026 L95.8007,28.5495 C95.6757,28.2162 95.4674,28.0182 95.1757,27.9557 C95.1236,27.9453 95.0715,27.9401 95.0195,27.9401 C94.509,27.9401 94.2278,28.4453 94.1757,29.4557 C94.1757,29.5703 94.1757,29.6953 94.1757,29.8307 C94.1757,31.0703 94.4361,31.6953 94.957,31.7057 M100.129,29.6589 C100.181,30.6797 100.447,31.2787 100.926,31.4557 C101.051,31.4974 101.181,31.5182 101.316,31.5182 C101.681,31.5182 102.014,31.3516 102.316,31.0182 C102.368,30.9662 102.415,30.9141 102.457,30.862 L102.691,31.0026 C102.275,31.6068 101.863,31.987 101.457,32.1432 C101.249,32.2162 101.014,32.2526 100.754,32.2526 C100.004,32.2526 99.4413,31.9453 99.0663,31.3307 C98.8163,30.9141 98.6913,30.4141 98.6913,29.8307 C98.6913,28.9349 98.9622,28.263 99.5038,27.8151 C99.8684,27.5235 100.296,27.3776 100.785,27.3776 C101.889,27.3776 102.509,28.0964 102.644,29.5339 C102.644,29.5755 102.644,29.6172 102.644,29.6589 L100.129,29.6589 M101.426,29.1432 C101.405,28.5182 101.337,28.1224 101.223,27.9557 C101.129,27.7995 100.983,27.7214 100.785,27.7214 C100.493,27.7214 100.296,27.8932 100.191,28.237 C100.129,28.4766 100.092,28.8307 100.082,29.2995 L101.426,29.2995 L101.426,29.1432 M108.973,30.5807 C108.973,29.8724 108.629,29.3255 107.941,28.9401 C107.702,28.8047 107.379,28.6641 106.973,28.5182 L106.973,28.3464 C107.629,28.138 108.03,27.862 108.176,27.5182 C108.238,27.3724 108.269,27.2057 108.269,27.0182 C108.269,26.5182 108.072,26.1901 107.676,26.0339 C107.54,25.9922 107.4,25.9714 107.254,25.9714 C106.848,25.9714 106.509,26.1485 106.238,26.5026 C106.165,26.5964 106.092,26.7005 106.019,26.8151 L105.816,26.7057 C106.368,25.737 107.129,25.2474 108.098,25.237 C108.868,25.237 109.374,25.487 109.613,25.987 C109.686,26.1641 109.723,26.362 109.723,26.5807 C109.723,26.9662 109.603,27.2735 109.363,27.5026 C109.238,27.6068 109.082,27.7162 108.894,27.8307 C109.707,28.2057 110.113,28.8047 110.113,29.6276 C110.113,30.3776 109.811,31.0078 109.207,31.5182 C108.634,32.0078 107.941,32.2526 107.129,32.2526 C106.441,32.2526 105.978,32.0807 105.738,31.737 C105.644,31.6224 105.598,31.4922 105.598,31.3464 C105.598,31.086 105.728,30.9089 105.988,30.8151 C106.072,30.7839 106.16,30.7682 106.254,30.7682 C106.514,30.7682 106.801,30.9193 107.113,31.2214 C107.394,31.4922 107.592,31.6537 107.707,31.7057 C107.811,31.7578 107.91,31.7839 108.004,31.7839 C108.441,31.7839 108.738,31.5703 108.894,31.1432 C108.947,30.9766 108.973,30.7891 108.973,30.5807 M112.098,30.5495 C112.421,30.5495 112.665,30.6901 112.832,30.9714 C112.915,31.1172 112.957,31.263 112.957,31.4089 C112.957,31.7214 112.816,31.961 112.535,32.1276 C112.389,32.2005 112.243,32.237 112.098,32.237 C111.764,32.237 111.519,32.0964 111.363,31.8151 C111.29,31.6797 111.254,31.5391 111.254,31.3932 C111.254,31.0912 111.389,30.8568 111.66,30.6901 C111.796,30.5964 111.941,30.5495 112.098,30.5495 M112.098,27.3932 C112.421,27.3932 112.665,27.5287 112.832,27.7995 C112.915,27.9453 112.957,28.0912 112.957,28.237 C112.957,28.5599 112.816,28.8047 112.535,28.9714 C112.4,29.0443 112.254,29.0807 112.098,29.0807 C111.764,29.0807 111.519,28.9349 111.363,28.6432 C111.29,28.5078 111.254,28.3672 111.254,28.2214 C111.254,27.9193 111.389,27.6849 111.66,27.5182 C111.796,27.4349 111.941,27.3932 112.098,27.3932"/>
<path class="StaffText" d="M118.473,31.2995 C118.473,31.487 118.525,31.6068 118.629,31.6589 C118.754,31.711 119.056,31.737 119.535,31.737 L119.801,31.737 C120.572,31.737 121.113,31.6328 121.426,31.4245 C121.686,31.237 121.931,30.9037 122.16,30.4245 L122.441,30.4245 L121.988,32.112 L116.598,32.112 L116.598,31.9245 C117.004,31.8932 117.254,31.7995 117.348,31.6432 C117.421,31.5182 117.457,31.3099 117.457,31.0182 L117.457,26.5807 C117.457,26.1953 117.389,25.9505 117.254,25.8464 C117.129,25.763 116.91,25.711 116.598,25.6901 L116.598,25.5026 L121.894,25.5026 L121.926,26.9245 L121.676,26.9245 C121.592,26.4766 121.462,26.1901 121.285,26.0651 C121.087,25.9401 120.712,25.8776 120.16,25.8776 L118.816,25.8776 C118.629,25.8776 118.525,25.9245 118.504,26.0182 C118.483,26.0703 118.473,26.1328 118.473,26.2057 L118.473,28.4089 L120.019,28.4089 C120.509,28.4089 120.816,28.3047 120.941,28.0964 C121.004,27.9922 121.061,27.7891 121.113,27.487 L121.348,27.487 L121.348,29.7682 L121.113,29.7682 C121.051,29.3412 120.941,29.0807 120.785,28.987 C120.65,28.8932 120.394,28.8464 120.019,28.8464 L118.473,28.8464 L118.473,31.2995 M124.035,25.2995 L124.035,28.3307 C124.181,27.9974 124.457,27.7578 124.863,27.612 C125.051,27.5495 125.238,27.5182 125.426,27.5182 C125.988,27.5182 126.441,27.7682 126.785,28.2682 C127.056,28.6745 127.191,29.1485 127.191,29.6901 C127.191,30.4714 126.926,31.1068 126.394,31.5964 C125.957,32.0026 125.441,32.2057 124.848,32.2057 C124.296,32.2057 123.837,32.1016 123.473,31.8932 C123.296,31.7891 123.207,31.6849 123.207,31.5807 L123.207,26.3776 C123.207,26.1172 123.139,25.961 123.004,25.9089 C122.941,25.888 122.842,25.8776 122.707,25.8776 C122.634,25.8776 122.577,25.8776 122.535,25.8776 L122.535,25.7214 C123.056,25.5964 123.54,25.4505 123.988,25.2839 L124.035,25.2995 M124.035,28.8776 L124.035,31.4245 C124.035,31.5912 124.181,31.7214 124.473,31.8151 C124.639,31.8776 124.816,31.9089 125.004,31.9089 C125.618,31.9089 126.019,31.5912 126.207,30.9557 C126.28,30.7162 126.316,30.4453 126.316,30.1432 C126.316,29.2578 126.092,28.6485 125.644,28.3151 C125.457,28.1797 125.254,28.112 125.035,28.112 C124.681,28.112 124.4,28.237 124.191,28.487 C124.087,28.612 124.035,28.7422 124.035,28.8776 M130.566,28.1589 L130.566,27.987 C131.046,27.8412 131.514,27.6849 131.973,27.5182 L132.035,27.5339 L132.035,28.2995 C132.608,27.862 133.019,27.612 133.269,27.5495 C133.374,27.5287 133.478,27.5182 133.582,27.5182 C134.113,27.5287 134.467,27.8151 134.644,28.3776 C135.176,27.8047 135.723,27.5182 136.285,27.5182 C137.046,27.5287 137.431,28.1276 137.441,29.3151 L137.441,31.362 C137.452,31.7266 137.592,31.9193 137.863,31.9401 L138.129,31.9557 L138.129,32.112 L135.941,32.112 L135.941,31.9557 C136.264,31.9245 136.457,31.8516 136.519,31.737 C136.572,31.6432 136.598,31.4818 136.598,31.2526 L136.598,29.1432 C136.598,28.5912 136.488,28.2578 136.269,28.1432 C136.165,28.0807 136.025,28.0495 135.848,28.0495 C135.4,28.0599 135.035,28.263 134.754,28.6589 L134.754,31.1745 C134.754,31.5495 134.842,31.7839 135.019,31.8776 C135.124,31.9297 135.275,31.9557 135.473,31.9557 L135.473,32.112 L133.238,32.112 L133.238,31.9557 C133.561,31.9349 133.759,31.862 133.832,31.737 C133.894,31.6432 133.926,31.4818 133.926,31.2526 L133.926,29.0964 C133.926,28.3985 133.702,28.0495 133.254,28.0495 C132.889,28.0495 132.566,28.1693 132.285,28.4089 C132.212,28.4818 132.144,28.5599 132.082,28.6432 L132.082,31.4401 C132.082,31.6901 132.171,31.8464 132.348,31.9089 C132.441,31.9401 132.577,31.9557 132.754,31.9557 L132.754,32.112 L130.535,32.112 L130.535,31.9557 C130.889,31.9557 131.103,31.8724 131.176,31.7057 C131.217,31.6016 131.238,31.4557 131.238,31.2682 L131.238,28.7526 C131.238,28.3776 131.16,28.1693 131.004,28.1276 C130.973,28.1172 130.936,28.112 130.894,28.112 C130.79,28.112 130.681,28.1276 130.566,28.1589 M138.691,31.1432 C138.691,30.6328 139.009,30.2005 139.644,29.8464 C139.832,29.7526 140.332,29.5391 141.144,29.2057 C141.165,29.2057 141.181,29.2005 141.191,29.1901 L141.191,28.5807 C141.139,28.0599 140.884,27.7839 140.426,27.7526 C140.113,27.7526 139.894,27.8516 139.769,28.0495 C139.728,28.1224 139.707,28.1849 139.707,28.237 C139.707,28.2995 139.717,28.3828 139.738,28.487 C139.749,28.5599 139.754,28.612 139.754,28.6432 C139.754,28.8203 139.665,28.9453 139.488,29.0182 C139.426,29.0495 139.368,29.0651 139.316,29.0651 C139.129,29.0651 138.999,28.9766 138.926,28.7995 C138.894,28.7474 138.879,28.6901 138.879,28.6276 C138.879,28.263 139.098,27.9662 139.535,27.737 C139.837,27.5912 140.181,27.5182 140.566,27.5182 C141.285,27.5182 141.728,27.7735 141.894,28.2839 C141.967,28.5026 142.004,28.7787 142.004,29.112 L142.004,31.0495 C142.004,31.3828 142.066,31.5703 142.191,31.612 C142.233,31.6224 142.269,31.6276 142.301,31.6276 C142.447,31.6172 142.592,31.5547 142.738,31.4401 L142.738,31.6901 C142.467,32.0026 142.217,32.1745 141.988,32.2057 C141.936,32.2057 141.884,32.2057 141.832,32.2057 C141.519,32.2057 141.322,32.0495 141.238,31.737 C141.217,31.6537 141.207,31.5599 141.207,31.4557 C140.613,31.9349 140.124,32.1849 139.738,32.2057 C139.311,32.2057 139.004,32.0339 138.816,31.6901 C138.733,31.5235 138.691,31.3412 138.691,31.1432 M141.191,30.862 L141.191,29.4245 C140.368,29.7266 139.863,30.0339 139.676,30.3464 C139.603,30.4922 139.566,30.6485 139.566,30.8151 C139.566,31.211 139.712,31.461 140.004,31.5651 C140.077,31.5964 140.144,31.612 140.207,31.612 C140.426,31.6016 140.665,31.5235 140.926,31.3776 C141.072,31.2943 141.155,31.1901 141.176,31.0651 C141.186,31.0026 141.191,30.9349 141.191,30.862 M143.91,28.1901 C143.91,28.1901 143.759,28.2005 143.457,28.2214 L143.457,28.0495 C143.999,27.8828 144.519,27.7057 145.019,27.5182 L145.066,27.5495 L145.066,32.112 C145.066,33.3412 144.655,34.0495 143.832,34.237 C143.686,34.2682 143.535,34.2839 143.379,34.2839 C142.941,34.2839 142.65,34.1745 142.504,33.9557 C142.462,33.8828 142.441,33.8099 142.441,33.737 C142.441,33.5495 142.53,33.4297 142.707,33.3776 C142.759,33.3568 142.806,33.3464 142.848,33.3464 C142.993,33.3464 143.15,33.4505 143.316,33.6589 C143.493,33.8464 143.639,33.9453 143.754,33.9557 C143.983,33.9557 144.124,33.7943 144.176,33.4714 C144.207,33.2735 144.223,32.9714 144.223,32.5651 L144.223,28.7682 C144.223,28.4141 144.144,28.2214 143.988,28.1901 C143.957,28.1901 143.931,28.1901 143.91,28.1901 M144.566,25.2839 C144.785,25.2839 144.941,25.3828 145.035,25.5807 C145.066,25.6537 145.082,25.7266 145.082,25.7995 C145.082,26.0182 144.973,26.1745 144.754,26.2682 C144.691,26.2891 144.629,26.2995 144.566,26.2995 C144.337,26.2995 144.181,26.2005 144.098,26.0026 C144.077,25.9297 144.066,25.862 144.066,25.7995 C144.066,25.5807 144.16,25.4245 144.348,25.3307 C144.421,25.2995 144.493,25.2839 144.566,25.2839 M147.894,27.5182 C148.634,27.5182 149.217,27.7891 149.644,28.3307 C149.947,28.737 150.098,29.2162 150.098,29.7682 C150.098,30.5495 149.842,31.1745 149.332,31.6432 C148.915,32.0182 148.431,32.2057 147.879,32.2057 C147.171,32.2057 146.608,31.9349 146.191,31.3932 C145.858,30.9557 145.691,30.4401 145.691,29.8464 C145.691,29.0339 145.967,28.4089 146.519,27.9714 C146.905,27.6693 147.363,27.5182 147.894,27.5182 M146.598,29.362 C146.598,30.2682 146.785,30.961 147.16,31.4401 C147.4,31.7526 147.681,31.9089 148.004,31.9089 C148.525,31.9089 148.884,31.612 149.082,31.0182 C149.165,30.7578 149.207,30.461 149.207,30.1276 C149.207,29.2422 148.993,28.586 148.566,28.1589 C148.337,27.9297 148.072,27.8151 147.769,27.8151 C147.301,27.8151 146.962,28.0547 146.754,28.5339 C146.65,28.7735 146.598,29.0495 146.598,29.362 M153.457,28.487 C153.353,28.487 153.202,28.4037 153.004,28.237 C152.91,28.1537 152.837,28.112 152.785,28.112 C152.618,28.112 152.447,28.2422 152.269,28.5026 C152.155,28.6693 152.098,28.8151 152.098,28.9401 L152.098,31.2057 C152.098,31.5495 152.186,31.763 152.363,31.8464 C152.488,31.9089 152.681,31.9453 152.941,31.9557 L152.941,32.112 L150.535,32.112 L150.535,31.9557 C150.889,31.8932 151.103,31.8099 151.176,31.7057 C151.228,31.6224 151.254,31.4766 151.254,31.2682 L151.254,28.7526 C151.254,28.388 151.171,28.1901 151.004,28.1589 C150.973,28.1485 150.941,28.1432 150.91,28.1432 C150.796,28.1432 150.681,28.1589 150.566,28.1901 L150.566,28.0339 C151.098,27.8672 151.587,27.6953 152.035,27.5182 L152.098,27.5339 L152.098,28.4245 C152.441,27.9453 152.733,27.6589 152.973,27.5651 C153.077,27.5339 153.181,27.5182 153.285,27.5182 C153.598,27.5182 153.78,27.6485 153.832,27.9089 C153.832,27.9505 153.832,27.9974 153.832,28.0495 C153.801,28.3203 153.676,28.4662 153.457,28.487 M156.691,31.1432 C156.691,30.6328 157.009,30.2005 157.644,29.8464 C157.832,29.7526 158.332,29.5391 159.144,29.2057 C159.165,29.2057 159.181,29.2005 159.191,29.1901 L159.191,28.5807 C159.139,28.0599 158.884,27.7839 158.426,27.7526 C158.113,27.7526 157.894,27.8516 157.769,28.0495 C157.728,28.1224 157.707,28.1849 157.707,28.237 C157.707,28.2995 157.717,28.3828 157.738,28.487 C157.749,28.5599 157.754,28.612 157.754,28.6432 C157.754,28.8203 157.665,28.9453 157.488,29.0182 C157.426,29.0495 157.368,29.0651 157.316,29.0651 C157.129,29.0651 156.999,28.9766 156.926,28.7995 C156.894,28.7474 156.879,28.6901 156.879,28.6276 C156.879,28.263 157.098,27.9662 157.535,27.737 C157.837,27.5912 158.181,27.5182 158.566,27.5182 C159.285,27.5182 159.728,27.7735 159.894,28.2839 C159.967,28.5026 160.004,28.7787 160.004,29.112 L160.004,31.0495 C160.004,31.3828 160.066,31.5703 160.191,31.612 C160.233,31.6224 160.269,31.6276 160.301,31.6276 C160.447,31.6172 160.592,31.5547 160.738,31.4401 L160.738,31.6901 C160.467,32.0026 160.217,32.1745 159.988,32.2057 C159.936,32.2057 159.884,32.2057 159.832,32.2057 C159.519,32.2057 159.322,32.0495 159.238,31.737 C159.217,31.6537 159.207,31.5599 159.207,31.4557 C158.613,31.9349 158.124,32.1849 157.738,32.2057 C157.311,32.2057 157.004,32.0339 156.816,31.6901 C156.733,31.5235 156.691,31.3412 156.691,31.1432 M159.191,30.862 L159.191,29.4245 C158.368,29.7266 157.863,30.0339 157.676,30.3464 C157.603,30.4922 157.566,30.6485 157.566,30.8151 C157.566,31.211 157.712,31.461 158.004,31.5651 C158.077,31.5964 158.144,31.612 158.207,31.612 C158.426,31.6016 158.665,31.5235 158.926,31.3776 C159.072,31.2943 159.155,31.1901 159.176,31.0651 C159.186,31.0026 159.191,30.9349 159.191,30.862 M163.457,28.487 C163.353,28.487 163.202,28.4037 163.004,28.237 C162.91,28.1537 162.837,28.112 162.785,28.112 C162.618,28.112 162.447,28.2422 162.269,28.5026 C162.155,28.6693 162.098,28.8151 162.098,28.9401 L162.098,31.2057 C162.098,31.5495 162.186,31.763 162.363,31.8464 C162.488,31.9089 162.681,31.9453 162.941,31.9557 L162.941,32.112 L160.535,32.112 L160.535,31.9557 C160.889,31.8932 161.103,31.8099 161.176,31.7057 C161.228,31.6224 161.254,31.4766 161.254,31.2682 L161.254,28.7526 C161.254,28.388 161.171,28.1901 161.004,28.1589 C160.973,28.1485 160.941,28.1432 160.91,28.1432 C160.796,28.1432 160.681,28.1589 160.566,28.1901 L160.566,28.0339 C161.098,27.8672 161.587,27.6953 162.035,27.5182 L162.098,27.5339 L162.098,28.4245 C162.441,27.9453 162.733,27.6589 162.973,27.5651 C163.077,27.5339 163.181,27.5182 163.285,27.5182 C163.598,27.5182 163.78,27.6485 163.832,27.9089 C163.832,27.9505 163.832,27.9974 163.832,28.0495 C163.801,28.3203 163.676,28.4662 163.457,28.487 M163.582,28.1901 L163.582,28.0182 C164.009,27.8932 164.488,27.7266 165.019,27.5182 L165.082,27.5339 L165.082,28.2995 C165.509,27.7787 165.988,27.5182 166.519,27.5182 C167.082,27.5182 167.525,27.7787 167.848,28.2995 C168.077,28.6849 168.191,29.1328 168.191,29.6432 C168.191,30.4557 167.941,31.1172 167.441,31.6276 C167.056,32.013 166.608,32.2057 166.098,32.2057 C165.764,32.2057 165.473,32.1068 165.223,31.9089 C165.171,31.8776 165.124,31.8412 165.082,31.7995 L165.082,33.362 C165.082,33.7057 165.15,33.9141 165.285,33.987 C165.41,34.0599 165.634,34.0964 165.957,34.0964 L165.957,34.2839 L163.535,34.2839 L163.535,34.112 C163.889,34.0807 164.103,33.9974 164.176,33.862 C164.217,33.7682 164.238,33.6224 164.238,33.4245 L164.238,28.737 C164.238,28.4453 164.186,28.2735 164.082,28.2214 C164.019,28.1901 163.936,28.1745 163.832,28.1745 C163.717,28.1745 163.634,28.1797 163.582,28.1901 M165.082,28.7839 L165.082,31.2526 C165.082,31.4297 165.228,31.5964 165.519,31.7526 C165.728,31.8568 165.926,31.9089 166.113,31.9089 C166.572,31.9089 166.91,31.6537 167.129,31.1432 C167.264,30.8203 167.332,30.4557 167.332,30.0495 C167.332,29.2266 167.124,28.6537 166.707,28.3307 C166.53,28.1849 166.327,28.112 166.098,28.112 C165.796,28.112 165.525,28.2214 165.285,28.4401 C165.16,28.5547 165.092,28.6693 165.082,28.7839 M169.41,29.3464 C169.452,30.5235 169.837,31.2162 170.566,31.4245 C170.691,31.4662 170.827,31.487 170.973,31.487 C171.462,31.487 171.879,31.2787 172.223,30.862 C172.316,30.7474 172.415,30.612 172.519,30.4557 L172.676,30.5182 C172.311,31.4766 171.738,32.0287 170.957,32.1745 C170.822,32.1953 170.691,32.2057 170.566,32.2057 C169.827,32.2057 169.296,31.8932 168.973,31.2682 C168.785,30.8932 168.691,30.461 168.691,29.9714 C168.691,29.086 168.967,28.4141 169.519,27.9557 C169.884,27.6641 170.306,27.5182 170.785,27.5182 C171.702,27.5182 172.254,28.0391 172.441,29.0807 C172.462,29.1745 172.478,29.263 172.488,29.3464 L169.41,29.3464 M169.426,29.0495 L171.473,29.0495 C171.379,28.4766 171.212,28.1224 170.973,27.987 C170.848,27.9245 170.686,27.8932 170.488,27.8932 C169.894,27.8932 169.54,28.2682 169.426,29.0182 C169.426,29.0287 169.426,29.0391 169.426,29.0495 M173.035,31.5339 C173.035,31.3985 173.113,31.2526 173.269,31.0964 C173.363,31.0026 173.582,30.7995 173.926,30.487 C173.426,30.2266 173.129,29.8985 173.035,29.5026 C173.014,29.388 173.004,29.2682 173.004,29.1432 C173.004,28.612 173.217,28.1849 173.644,27.862 C173.947,27.6328 174.29,27.5182 174.676,27.5182 C174.926,27.5182 175.233,27.586 175.598,27.7214 C175.837,27.8047 176.051,27.8464 176.238,27.8464 L177.004,27.8464 L177.004,28.2214 L176.176,28.2214 C176.301,28.513 176.363,28.7943 176.363,29.0651 C176.363,29.638 176.139,30.0703 175.691,30.362 C175.421,30.5391 175.129,30.6276 174.816,30.6276 C174.723,30.6276 174.53,30.6068 174.238,30.5651 C174.04,30.6276 173.874,30.7682 173.738,30.987 C173.676,31.0703 173.644,31.1432 173.644,31.2057 C173.644,31.362 173.894,31.4505 174.394,31.4714 C174.405,31.4714 174.415,31.4714 174.426,31.4714 L175.707,31.5339 C176.259,31.5443 176.629,31.7474 176.816,32.1432 C176.889,32.2787 176.926,32.4297 176.926,32.5964 C176.926,33.0964 176.613,33.5235 175.988,33.8776 C175.478,34.1485 174.921,34.2839 174.316,34.2839 C173.691,34.2839 173.207,34.1328 172.863,33.8307 C172.686,33.6641 172.598,33.487 172.598,33.2995 C172.598,33.0078 172.811,32.6797 173.238,32.3151 C173.342,32.2318 173.452,32.1432 173.566,32.0495 C173.264,31.9141 173.092,31.7787 173.051,31.6432 C173.04,31.612 173.035,31.5755 173.035,31.5339 M173.785,32.0807 C173.483,32.4557 173.322,32.7162 173.301,32.862 C173.29,32.9037 173.285,32.9453 173.285,32.987 C173.285,33.2891 173.509,33.5078 173.957,33.6432 C174.186,33.7162 174.452,33.7526 174.754,33.7526 C175.587,33.7526 176.155,33.5703 176.457,33.2057 C176.582,33.0495 176.644,32.888 176.644,32.7214 C176.644,32.4714 176.478,32.3151 176.144,32.2526 C175.957,32.2214 175.707,32.2057 175.394,32.2057 C174.728,32.2057 174.191,32.1641 173.785,32.0807 M175.598,29.4714 C175.598,29.0443 175.509,28.6641 175.332,28.3307 C175.134,27.9974 174.879,27.8255 174.566,27.8151 C174.191,27.8151 173.957,28.013 173.863,28.4089 C173.842,28.513 173.832,28.6276 173.832,28.7526 C173.832,29.5547 174.056,30.0651 174.504,30.2839 C174.618,30.3464 174.733,30.3776 174.848,30.3776 C175.212,30.3776 175.447,30.1953 175.551,29.8307 C175.582,29.7162 175.598,29.5964 175.598,29.4714 M178.035,31.5339 C178.035,31.3985 178.113,31.2526 178.269,31.0964 C178.363,31.0026 178.582,30.7995 178.926,30.487 C178.426,30.2266 178.129,29.8985 178.035,29.5026 C178.014,29.388 178.004,29.2682 178.004,29.1432 C178.004,28.612 178.217,28.1849 178.644,27.862 C178.947,27.6328 179.29,27.5182 179.676,27.5182 C179.926,27.5182 180.233,27.586 180.598,27.7214 C180.837,27.8047 181.051,27.8464 181.238,27.8464 L182.004,27.8464 L182.004,28.2214 L181.176,28.2214 C181.301,28.513 181.363,28.7943 181.363,29.0651 C181.363,29.638 181.139,30.0703 180.691,30.362 C180.421,30.5391 180.129,30.6276 179.816,30.6276 C179.723,30.6276 179.53,30.6068 179.238,30.5651 C179.04,30.6276 178.874,30.7682 178.738,30.987 C178.676,31.0703 178.644,31.1432 178.644,31.2057 C178.644,31.362 178.894,31.4505 179.394,31.4714 C179.405,31.4714 179.415,31.4714 179.426,31.4714 L180.707,31.5339 C181.259,31.5443 181.629,31.7474 181.816,32.1432 C181.889,32.2787 181.926,32.4297 181.926,32.5964 C181.926,33.0964 181.613,33.5235 180.988,33.8776 C180.478,34.1485 179.921,34.2839 179.316,34.2839 C178.691,34.2839 178.207,34.1328 177.863,33.8307 C177.686,33.6641 177.598,33.487 177.598,33.2995 C177.598,33.0078 177.811,32.6797 178.238,32.3151 C178.342,32.2318 178.452,32.1432 178.566,32.0495 C178.264,31.9141 178.092,31.7787 178.051,31.6432 C178.04,31.612 178.035,31.5755 178.035,31.5339 M178.785,32.0807 C178.483,32.4557 178.322,32.7162 178.301,32.862 C178.29,32.9037 178.285,32.9453 178.285,32.987 C178.285,33.2891 178.509,33.5078 178.957,33.6432 C179.186,33.7162 179.452,33.7526 179.754,33.7526 C180.587,33.7526 181.155,33.5703 181.457,33.2057 C181.582,33.0495 181.644,32.888 181.644,32.7214 C181.644,32.4714 181.478,32.3151 181.144,32.2526 C180.957,32.2214 180.707,32.2057 180.394,32.2057 C179.728,32.2057 179.191,32.1641 178.785,32.0807 M180.598,29.4714 C180.598,29.0443 180.509,28.6641 180.332,28.3307 C180.134,27.9974 179.879,27.8255 179.566,27.8151 C179.191,27.8151 178.957,28.013 178.863,28.4089 C178.842,28.513 178.832,28.6276 178.832,28.7526 C178.832,29.5547 179.056,30.0651 179.504,30.2839 C179.618,30.3464 179.733,30.3776 179.848,30.3776 C180.212,30.3776 180.447,30.1953 180.551,29.8307 C180.582,29.7162 180.598,29.5964 180.598,29.4714 M183.066,28.1901 C182.91,28.1901 182.769,28.2005 182.644,28.2214 L182.644,28.0651 C183.113,27.9297 183.629,27.7474 184.191,27.5182 L184.223,27.5495 L184.223,31.0964 C184.223,31.4818 184.28,31.7214 184.394,31.8151 C184.488,31.888 184.681,31.9349 184.973,31.9557 L184.973,32.112 L182.598,32.112 L182.598,31.9557 C182.962,31.9349 183.191,31.8672 183.285,31.7526 C183.358,31.638 183.394,31.4193 183.394,31.0964 L183.394,28.7682 C183.394,28.4141 183.311,28.2214 183.144,28.1901 C183.113,28.1901 183.087,28.1901 183.066,28.1901 M183.723,25.2839 C183.941,25.2839 184.098,25.3828 184.191,25.5807 C184.223,25.6537 184.238,25.7266 184.238,25.7995 C184.238,26.0182 184.134,26.1745 183.926,26.2682 C183.853,26.2891 183.785,26.2995 183.723,26.2995 C183.504,26.2995 183.348,26.2005 183.254,26.0026 C183.233,25.9297 183.223,25.862 183.223,25.7995 C183.223,25.5807 183.316,25.4245 183.504,25.3307 C183.577,25.2995 183.65,25.2839 183.723,25.2839 M187.894,27.5182 C188.634,27.5182 189.217,27.7891 189.644,28.3307 C189.947,28.737 190.098,29.2162 190.098,29.7682 C190.098,30.5495 189.842,31.1745 189.332,31.6432 C188.915,32.0182 188.431,32.2057 187.879,32.2057 C187.171,32.2057 186.608,31.9349 186.191,31.3932 C185.858,30.9557 185.691,30.4401 185.691,29.8464 C185.691,29.0339 185.967,28.4089 186.519,27.9714 C186.905,27.6693 187.363,27.5182 187.894,27.5182 M186.598,29.362 C186.598,30.2682 186.785,30.961 187.16,31.4401 C187.4,31.7526 187.681,31.9089 188.004,31.9089 C188.525,31.9089 188.884,31.612 189.082,31.0182 C189.165,30.7578 189.207,30.461 189.207,30.1276 C189.207,29.2422 188.993,28.586 188.566,28.1589 C188.337,27.9297 188.072,27.8151 187.769,27.8151 C187.301,27.8151 186.962,28.0547 186.754,28.5339 C186.65,28.7735 186.598,29.0495 186.598,29.362 M195.894,27.5182 C196.634,27.5182 197.217,27.7891 197.644,28.3307 C197.947,28.737 198.098,29.2162 198.098,29.7682 C198.098,30.5495 197.842,31.1745 197.332,31.6432 C196.915,32.0182 196.431,32.2057 195.879,32.2057 C195.171,32.2057 194.608,31.9349 194.191,31.3932 C193.858,30.9557 193.691,30.4401 193.691,29.8464 C193.691,29.0339 193.967,28.4089 194.519,27.9714 C194.905,27.6693 195.363,27.5182 195.894,27.5182 M194.598,29.362 C194.598,30.2682 194.785,30.961 195.16,31.4401 C195.4,31.7526 195.681,31.9089 196.004,31.9089 C196.525,31.9089 196.884,31.612 197.082,31.0182 C197.165,30.7578 197.207,30.461 197.207,30.1276 C197.207,29.2422 196.993,28.586 196.566,28.1589 C196.337,27.9297 196.072,27.8151 195.769,27.8151 C195.301,27.8151 194.962,28.0547 194.754,28.5339 C194.65,28.7735 194.598,29.0495 194.598,29.362 M198.535,28.1276 L198.535,27.9557 C199.035,27.8099 199.499,27.6641 199.926,27.5182 L199.988,27.5339 L199.988,28.3151 C200.467,27.8776 200.842,27.6224 201.113,27.5495 C201.217,27.5287 201.327,27.5182 201.441,27.5182 C201.983,27.5182 202.342,27.7891 202.519,28.3307 C202.582,28.5287 202.613,28.7526 202.613,29.0026 L202.613,31.2995 C202.613,31.612 202.686,31.8047 202.832,31.8776 C202.926,31.9089 203.056,31.9349 203.223,31.9557 L203.223,32.112 L201.144,32.112 L201.144,31.9557 C201.447,31.9349 201.634,31.836 201.707,31.6589 C201.759,31.5443 201.785,31.3672 201.785,31.1276 L201.785,29.0339 C201.764,28.388 201.519,28.0599 201.051,28.0495 C200.801,28.0495 200.54,28.1641 200.269,28.3932 C200.197,28.4662 200.113,28.5443 200.019,28.6276 L200.019,31.4401 C200.019,31.6797 200.118,31.836 200.316,31.9089 C200.41,31.9297 200.53,31.9453 200.676,31.9557 L200.676,32.112 L198.566,32.112 L198.566,31.9557 C198.858,31.9349 199.04,31.8516 199.113,31.7057 C199.155,31.5912 199.176,31.4245 199.176,31.2057 L199.176,28.7214 C199.176,28.3568 199.103,28.1537 198.957,28.112 C198.915,28.0912 198.868,28.0807 198.816,28.0807 C198.691,28.0807 198.598,28.0964 198.535,28.1276 M204.41,29.3464 C204.452,30.5235 204.837,31.2162 205.566,31.4245 C205.691,31.4662 205.827,31.487 205.973,31.487 C206.462,31.487 206.879,31.2787 207.223,30.862 C207.316,30.7474 207.415,30.612 207.519,30.4557 L207.676,30.5182 C207.311,31.4766 206.738,32.0287 205.957,32.1745 C205.822,32.1953 205.691,32.2057 205.566,32.2057 C204.827,32.2057 204.296,31.8932 203.973,31.2682 C203.785,30.8932 203.691,30.461 203.691,29.9714 C203.691,29.086 203.967,28.4141 204.519,27.9557 C204.884,27.6641 205.306,27.5182 205.785,27.5182 C206.702,27.5182 207.254,28.0391 207.441,29.0807 C207.462,29.1745 207.478,29.263 207.488,29.3464 L204.41,29.3464 M204.426,29.0495 L206.473,29.0495 C206.379,28.4766 206.212,28.1224 205.973,27.987 C205.848,27.9245 205.686,27.8932 205.488,27.8932 C204.894,27.8932 204.54,28.2682 204.426,29.0182 C204.426,29.0287 204.426,29.0391 204.426,29.0495 M212.894,27.5182 C213.634,27.5182 214.217,27.7891 214.644,28.3307 C214.947,28.737 215.098,29.2162 215.098,29.7682 C215.098,30.5495 214.842,31.1745 214.332,31.6432 C213.915,32.0182 213.431,32.2057 212.879,32.2057 C212.171,32.2057 211.608,31.9349 211.191,31.3932 C210.858,30.9557 210.691,30.4401 210.691,29.8464 C210.691,29.0339 210.967,28.4089 211.519,27.9714 C211.905,27.6693 212.363,27.5182 212.894,27.5182 M211.598,29.362 C211.598,30.2682 211.785,30.961 212.16,31.4401 C212.4,31.7526 212.681,31.9089 213.004,31.9089 C213.525,31.9089 213.884,31.612 214.082,31.0182 C214.165,30.7578 214.207,30.461 214.207,30.1276 C214.207,29.2422 213.993,28.586 213.566,28.1589 C213.337,27.9297 213.072,27.8151 212.769,27.8151 C212.301,27.8151 211.962,28.0547 211.754,28.5339 C211.65,28.7735 211.598,29.0495 211.598,29.362 M215.691,29.987 C215.691,29.1432 215.978,28.4818 216.551,28.0026 C216.947,27.6797 217.389,27.5182 217.879,27.5182 C218.431,27.5182 218.858,27.6693 219.16,27.9714 C219.337,28.1485 219.426,28.3412 219.426,28.5495 C219.426,28.7266 219.332,28.8516 219.144,28.9245 C219.072,28.9557 219.004,28.9714 218.941,28.9714 C218.733,28.9714 218.582,28.836 218.488,28.5651 C218.478,28.5443 218.473,28.5235 218.473,28.5026 L218.41,28.2839 C218.348,28.0339 218.233,27.888 218.066,27.8464 C217.993,27.8255 217.91,27.8151 217.816,27.8151 C217.316,27.8151 216.936,28.0547 216.676,28.5339 C216.53,28.8255 216.457,29.1641 216.457,29.5495 C216.457,30.2787 216.681,30.8255 217.129,31.1901 C217.389,31.388 217.681,31.487 218.004,31.487 C218.421,31.487 218.78,31.3203 219.082,30.987 C219.186,30.862 219.301,30.7162 219.426,30.5495 L219.566,30.6432 C219.191,31.362 218.775,31.8307 218.316,32.0495 C218.077,32.1537 217.837,32.2057 217.598,32.2057 C216.952,32.2057 216.447,31.9401 216.082,31.4089 C215.822,31.0026 215.691,30.5287 215.691,29.987 M222.035,27.612 L222.035,27.9089 L221.019,27.9089 L221.019,30.7682 C221.019,31.3099 221.155,31.6068 221.426,31.6589 C221.457,31.6693 221.493,31.6745 221.535,31.6745 C221.743,31.6641 221.947,31.5443 222.144,31.3151 L222.269,31.4401 C221.947,31.9505 221.546,32.2057 221.066,32.2057 C220.483,32.1953 220.186,31.7735 220.176,30.9401 L220.176,27.9089 L219.644,27.9089 C219.624,27.888 219.613,27.8672 219.613,27.8464 C219.613,27.8047 219.655,27.763 219.738,27.7214 C220.019,27.5339 220.353,27.1693 220.738,26.6276 C220.749,26.6172 220.754,26.612 220.754,26.612 C220.858,26.4557 220.926,26.362 220.957,26.3307 C220.999,26.3412 221.019,26.3828 221.019,26.4557 L221.019,27.612 L222.035,27.612 M222.691,31.1432 C222.691,30.6328 223.009,30.2005 223.644,29.8464 C223.832,29.7526 224.332,29.5391 225.144,29.2057 C225.165,29.2057 225.181,29.2005 225.191,29.1901 L225.191,28.5807 C225.139,28.0599 224.884,27.7839 224.426,27.7526 C224.113,27.7526 223.894,27.8516 223.769,28.0495 C223.728,28.1224 223.707,28.1849 223.707,28.237 C223.707,28.2995 223.717,28.3828 223.738,28.487 C223.749,28.5599 223.754,28.612 223.754,28.6432 C223.754,28.8203 223.665,28.9453 223.488,29.0182 C223.426,29.0495 223.368,29.0651 223.316,29.0651 C223.129,29.0651 222.999,28.9766 222.926,28.7995 C222.894,28.7474 222.879,28.6901 222.879,28.6276 C222.879,28.263 223.098,27.9662 223.535,27.737 C223.837,27.5912 224.181,27.5182 224.566,27.5182 C225.285,27.5182 225.728,27.7735 225.894,28.2839 C225.967,28.5026 226.004,28.7787 226.004,29.112 L226.004,31.0495 C226.004,31.3828 226.066,31.5703 226.191,31.612 C226.233,31.6224 226.269,31.6276 226.301,31.6276 C226.447,31.6172 226.592,31.5547 226.738,31.4401 L226.738,31.6901 C226.467,32.0026 226.217,32.1745 225.988,32.2057 C225.936,32.2057 225.884,32.2057 225.832,32.2057 C225.519,32.2057 225.322,32.0495 225.238,31.737 C225.217,31.6537 225.207,31.5599 225.207,31.4557 C224.613,31.9349 224.124,32.1849 223.738,32.2057 C223.311,32.2057 223.004,32.0339 222.816,31.6901 C222.733,31.5235 222.691,31.3412 222.691,31.1432 M225.191,30.862 L225.191,29.4245 C224.368,29.7266 223.863,30.0339 223.676,30.3464 C223.603,30.4922 223.566,30.6485 223.566,30.8151 C223.566,31.211 223.712,31.461 224.004,31.5651 C224.077,31.5964 224.144,31.612 224.207,31.612 C224.426,31.6016 224.665,31.5235 224.926,31.3776 C225.072,31.2943 225.155,31.1901 225.176,31.0651 C225.186,31.0026 225.191,30.9349 225.191,30.862 M231.066,27.612 L231.066,27.7682 C230.9,27.7891 230.775,27.8568 230.691,27.9714 C230.618,28.0755 230.53,28.2682 230.426,28.5495 L229.144,31.7526 C229.009,32.0755 228.915,32.2422 228.863,32.2526 C228.79,32.2526 228.707,32.1068 228.613,31.8151 C228.603,31.8047 228.598,31.7943 228.598,31.7839 L227.394,28.9089 C227.144,28.3151 226.957,27.9662 226.832,27.862 C226.749,27.7995 226.634,27.7682 226.488,27.7682 L226.488,27.612 L228.457,27.612 L228.457,27.7682 C228.176,27.7891 228.025,27.862 228.004,27.987 C227.993,28.0078 227.988,28.0287 227.988,28.0495 C227.988,28.1641 228.019,28.2839 228.082,28.4089 L229.098,30.9714 L230.082,28.3776 C230.124,28.2839 230.144,28.1849 230.144,28.0807 C230.144,27.9037 229.999,27.7995 229.707,27.7682 C229.697,27.7682 229.686,27.7682 229.676,27.7682 L229.676,27.612 L231.066,27.612 M232.41,29.3464 C232.452,30.5235 232.837,31.2162 233.566,31.4245 C233.691,31.4662 233.827,31.487 233.973,31.487 C234.462,31.487 234.879,31.2787 235.223,30.862 C235.316,30.7474 235.415,30.612 235.519,30.4557 L235.676,30.5182 C235.311,31.4766 234.738,32.0287 233.957,32.1745 C233.822,32.1953 233.691,32.2057 233.566,32.2057 C232.827,32.2057 232.296,31.8932 231.973,31.2682 C231.785,30.8932 231.691,30.461 231.691,29.9714 C231.691,29.086 231.967,28.4141 232.519,27.9557 C232.884,27.6641 233.306,27.5182 233.785,27.5182 C234.702,27.5182 235.254,28.0391 235.441,29.0807 C235.462,29.1745 235.478,29.263 235.488,29.3464 L232.41,29.3464 M232.426,29.0495 L234.473,29.0495 C234.379,28.4766 234.212,28.1224 233.973,27.987 C233.848,27.9245 233.686,27.8932 233.488,27.8932 C232.894,27.8932 232.54,28.2682 232.426,29.0182 C232.426,29.0287 232.426,29.0391 232.426,29.0495"/>
</svg>
