<?xml version="1.0" encoding="UTF-8" standalone="no"?>
<svg width="595.44px" height="841.68px" viewBox="0 0 595.44 841.68"
 xmlns="http://www.w3.org/2000/svg" xmlns:xlink="http://www.w3.org/1999/xlink" version="1.2" baseProfile="tiny">
<title>Guitar Scales and Arpeggios</title>
<desc>Generated by MuseScore 2.1.0</desc>
<polyline class="StaffLines" fill="none" stroke="#000000" stroke-width="0.40" stroke-linejoin="bevel" points="28.08,62.856 567.36,62.856"/>
<polyline class="StaffLines" fill="none" stroke="#000000" stroke-width="0.40" stroke-linejoin="bevel" points="28.08,67.824 567.36,67.824"/>
<polyline class="StaffLines" fill="none" stroke="#000000" stroke-width="0.40" stroke-linejoin="bevel" points="28.08,72.792 567.36,72.792"/>
<polyline class="StaffLines" fill="none" stroke="#000000" stroke-width="0.40" stroke-linejoin="bevel" points="28.08,77.76 567.36,77.76"/>
<polyline class="StaffLines" fill="none" stroke="#000000" stroke-width="0.40" stroke-linejoin="bevel" points="28.08,82.728 567.36,82.728"/>
<polyline class="StaffLines" fill="none" stroke="#000000" stroke-width="0.40" stroke-linejoin="bevel" points="28.08,115.02 567.36,115.02"/>
<polyline class="StaffLines" fill="none" stroke="#000000" stroke-width="0.40" stroke-linejoin="bevel" points="28.08,122.472 567.36,122.472"/>
<polyline class="StaffLines" fill="none" stroke="#000000" stroke-width="0.40" stroke-linejoin="bevel" points="28.08,129.924 567.36,129.924"/>
<polyline class="StaffLines" fill="none" stroke="#000000" stroke-width="0.40" stroke-linejoin="bevel" points="28.08,137.376 567.36,137.376"/>
<polyline class="StaffLines" fill="none" stroke="#000000" stroke-width="0.40" stroke-linejoin="bevel" points="28.08,144.828 567.36,144.828"/>
<polyline class="StaffLines" fill="none" stroke="#000000" stroke-width="0.40" stroke-linejoin="bevel" points="28.08,152.28 567.36,152.28"/>
<polyline class="BarLine" fill="none" stroke="#000000" stroke-width="0.79" stroke-linejoin="bevel" points="28.4774,62.856 28.4774,152.28"/>
<polyline class="BarLine" fill="none" stroke="#000000" stroke-width="0.79" stroke-linejoin="bevel" points="562.491,115.02 562.491,152.28"/>
<polyline class="BarLine" fill="none" stroke="#000000" stroke-width="2.48" stroke-linejoin="bevel" points="566.118,115.02 566.118,152.28"/>
<polyline class="BarLine" fill="none" stroke="#000000" stroke-width="0.79" stroke-linejoin="bevel" points="562.491,62.856 562.491,82.728"/>
<polyline class="BarLine" fill="none" stroke="#000000" stroke-width="2.48" stroke-linejoin="bevel" points="566.118,62.856 566.118,82.728"/>
<polyline class="LedgerLine" fill="none" stroke="#000000" stroke-width="0.79" stroke-linecap="square" stroke-linejoin="bevel" points="501.649,87.696 511.171,87.696"/>
<polyline class="LedgerLine" fill="none" stroke="#000000" stroke-width="0.79" stroke-linecap="square" stroke-linejoin="bevel" points="501.649,92.664 511.171,92.664"/>
<polyline class="LedgerLine" fill="none" stroke="#000000" stroke-width="0.79" stroke-linecap="square" stroke-linejoin="bevel" points="464.803,87.696 474.324,87.696"/>
<polyline class="LedgerLine" fill="none" stroke="#000000" stroke-width="0.79" stroke-linecap="square" stroke-linejoin="bevel" points="280.571,57.888 290.092,57.888"/>
<polyline class="LedgerLine" fill="none" stroke="#000000" stroke-width="0.79" stroke-linecap="square" stroke-linejoin="bevel" points="96.3389,87.696 105.86,87.696"/>
<polyline class="LedgerLine" fill="none" stroke="#000000" stroke-width="0.79" stroke-linecap="square" stroke-linejoin="bevel" points="59.4925,87.696 69.014,87.696"/>
<polyline class="LedgerLine" fill="none" stroke="#000000" stroke-width="0.79" stroke-linecap="square" stroke-linejoin="bevel" points="59.4925,92.664 69.014,92.664"/>
<polyline class="Stem" fill="none" stroke="#000000" stroke-width="0.65" stroke-linecap="round" stroke-linejoin="bevel" points="509.357,91.7309 509.357,72.792"/>
<polyline class="Stem" fill="none" stroke="#000000" stroke-width="0.65" stroke-linecap="round" stroke-linejoin="bevel" points="472.511,86.7629 472.511,67.824"/>
<polyline class="Stem" fill="none" stroke="#000000" stroke-width="0.65" stroke-linecap="round" stroke-linejoin="bevel" points="435.665,81.7949 435.665,64.719"/>
<polyline class="Stem" fill="none" stroke="#000000" stroke-width="0.65" stroke-linecap="round" stroke-linejoin="bevel" points="398.818,74.3429 398.818,61.614"/>
<polyline class="Stem" fill="none" stroke="#000000" stroke-width="0.65" stroke-linecap="round" stroke-linejoin="bevel" points="356.077,71.2411 356.077,86.454"/>
<polyline class="Stem" fill="none" stroke="#000000" stroke-width="0.65" stroke-linecap="round" stroke-linejoin="bevel" points="319.231,66.2731 319.231,83.349"/>
<polyline class="Stem" fill="none" stroke="#000000" stroke-width="0.65" stroke-linecap="round" stroke-linejoin="bevel" points="282.384,58.8211 282.384,80.244"/>
<polyline class="Stem" fill="none" stroke="#000000" stroke-width="0.65" stroke-linecap="round" stroke-linejoin="bevel" points="245.538,66.2731 245.538,82.728"/>
<polyline class="Stem" fill="none" stroke="#000000" stroke-width="0.65" stroke-linecap="round" stroke-linejoin="bevel" points="208.691,71.2411 208.691,85.833"/>
<polyline class="Stem" fill="none" stroke="#000000" stroke-width="0.65" stroke-linecap="round" stroke-linejoin="bevel" points="171.845,76.2091 171.845,88.938"/>
<polyline class="Stem" fill="none" stroke="#000000" stroke-width="0.65" stroke-linecap="round" stroke-linejoin="bevel" points="140.893,81.7949 140.893,67.824"/>
<polyline class="Stem" fill="none" stroke="#000000" stroke-width="0.65" stroke-linecap="round" stroke-linejoin="bevel" points="104.047,86.7629 104.047,70.929"/>
<polyline class="Stem" fill="none" stroke="#000000" stroke-width="0.65" stroke-linecap="round" stroke-linejoin="bevel" points="67.2007,91.7309 67.2007,74.034"/>
<path class="Note" fill="#ffffff" fill-rule="evenodd" d="M503.885,148.554 L509.846,148.554 L509.846,156.006 L503.885,156.006 L503.885,148.554 "/>
<path class="Note" transform="matrix(0.9936,0,0,0.9936,504.382,155.758)" d="M4.28125,-6.39063 L4.28125,-5.64063 L1.625,-5.64063 L1.375,-3.8125 C1.73958,-4.09375 2.13542,-4.23438 2.5625,-4.23438 C3.28125,-4.23438 3.83333,-3.97396 4.21875,-3.45313 C4.48958,-3.07813 4.625,-2.625 4.625,-2.09375 C4.625,-1.3125 4.35938,-0.708333 3.82813,-0.28125 C3.44271,0.0416667 2.97917,0.203125 2.4375,0.203125 C1.26042,0.203125 0.557292,-0.359375 0.328125,-1.48438 C0.328125,-1.50521 0.322917,-1.53125 0.3125,-1.5625 L1.10938,-1.5625 C1.30729,-0.885417 1.73958,-0.541667 2.40625,-0.53125 C3.02083,-0.53125 3.44271,-0.770833 3.67188,-1.25 C3.76563,-1.46875 3.8125,-1.71354 3.8125,-1.98438 C3.8125,-2.63021 3.58333,-3.07813 3.125,-3.32813 C2.91667,-3.44271 2.67708,-3.5 2.40625,-3.5 C2.03125,-3.5 1.70833,-3.38021 1.4375,-3.14063 C1.375,-3.07813 1.3125,-3.01042 1.25,-2.9375 L0.515625,-2.9375 L0.984375,-6.39063 L4.28125,-6.39063 "/>
<path class="Note" fill="#cc00ff" transform="matrix(0.9936,0,0,0.9936,503.14,92.664)" d="M4.39063,-2.75 C5.01563,-2.75 5.54688,-2.58854 5.98438,-2.26563 C6.38021,-1.91146 6.57813,-1.46875 6.57813,-0.9375 C6.57813,-0.0416667 6.11979,0.796875 5.20313,1.57813 C4.26563,2.35938 3.26042,2.75 2.1875,2.75 C1.5625,2.75 1.03646,2.58854 0.609375,2.26563 C0.203125,1.91146 0,1.46875 0,0.9375 C0,0.0416667 0.46875,-0.796875 1.40625,-1.57813 C2.32292,-2.35938 3.31771,-2.75 4.39063,-2.75"/>
<path class="Note" fill="#ffffff" fill-rule="evenodd" d="M467.038,148.554 L473,148.554 L473,156.006 L467.038,156.006 L467.038,148.554 "/>
<path class="Note" transform="matrix(0.9936,0,0,0.9936,467.535,155.758)" d="M3.51563,-3.39063 C4.24479,-3.03646 4.61458,-2.5 4.625,-1.78125 C4.625,-1.10417 4.36458,-0.583333 3.84375,-0.21875 C3.46875,0.0625 3.01042,0.203125 2.46875,0.203125 C1.72917,0.203125 1.15625,-0.0416667 0.75,-0.53125 C0.46875,-0.885417 0.328125,-1.30729 0.328125,-1.79688 C0.338542,-2.51563 0.703125,-3.04688 1.42188,-3.39063 C0.994792,-3.66146 0.729167,-3.9375 0.625,-4.21875 C0.583333,-4.35417 0.5625,-4.51563 0.5625,-4.70313 C0.5625,-5.28646 0.802083,-5.73438 1.28125,-6.04688 C1.625,-6.27604 2.02083,-6.39063 2.46875,-6.39063 C3.16667,-6.39063 3.69271,-6.16146 4.04688,-5.70313 C4.27604,-5.41146 4.39063,-5.07813 4.39063,-4.70313 C4.39063,-4.29688 4.25521,-3.97396 3.98438,-3.73438 C3.86979,-3.61979 3.71354,-3.50521 3.51563,-3.39063 M2.46875,-5.64063 C1.98958,-5.64063 1.65625,-5.47396 1.46875,-5.14063 C1.40625,-5.00521 1.375,-4.85417 1.375,-4.6875 C1.375,-4.29167 1.55729,-4.01563 1.92188,-3.85938 C2.08854,-3.78646 2.27083,-3.75 2.46875,-3.75 C2.95833,-3.75 3.29167,-3.91146 3.46875,-4.23438 C3.54167,-4.36979 3.57813,-4.52083 3.57813,-4.6875 C3.57813,-5.11458 3.38542,-5.40104 3,-5.54688 C2.84375,-5.60938 2.66667,-5.64063 2.46875,-5.64063 M2.46875,-3 C1.9375,-3 1.55729,-2.8125 1.32813,-2.4375 C1.20313,-2.23958 1.14063,-2.02083 1.14063,-1.78125 C1.14063,-1.29167 1.33854,-0.932292 1.73438,-0.703125 C1.94271,-0.588542 2.18229,-0.53125 2.45313,-0.53125 C3.00521,-0.53125 3.39583,-0.723958 3.625,-1.10938 C3.75,-1.30729 3.8125,-1.53125 3.8125,-1.78125 C3.8125,-2.26042 3.60938,-2.61458 3.20313,-2.84375 C2.98438,-2.94792 2.73958,-3 2.46875,-3"/>
<path class="Note" fill="#ed2929" transform="matrix(0.9936,0,0,0.9936,466.293,87.696)" d="M4.39063,-2.75 C5.01563,-2.75 5.54688,-2.58854 5.98438,-2.26563 C6.38021,-1.91146 6.57813,-1.46875 6.57813,-0.9375 C6.57813,-0.0416667 6.11979,0.796875 5.20313,1.57813 C4.26563,2.35938 3.26042,2.75 2.1875,2.75 C1.5625,2.75 1.03646,2.58854 0.609375,2.26563 C0.203125,1.91146 0,1.46875 0,0.9375 C0,0.0416667 0.46875,-0.796875 1.40625,-1.57813 C2.32292,-2.35938 3.31771,-2.75 4.39063,-2.75"/>
<path class="Note" fill="#ffffff" fill-rule="evenodd" d="M430.192,141.102 L436.154,141.102 L436.154,148.554 L430.192,148.554 L430.192,141.102 "/>
<path class="Note" transform="matrix(0.9936,0,0,0.9936,430.689,148.306)" d="M4.6875,-6.39063 L4.6875,-5.75 C3.46875,-4.125 2.66146,-2.49479 2.26563,-0.859375 C2.19271,-0.578125 2.13542,-0.291667 2.09375,0 L1.25,0 C1.54167,-1.32292 1.96875,-2.5 2.53125,-3.53125 C2.86458,-4.14583 3.30729,-4.84896 3.85938,-5.64063 L0.421875,-5.64063 L0.421875,-6.39063 L4.6875,-6.39063 "/>
<path class="Note" fill="#ff9933" transform="matrix(0.9936,0,0,0.9936,429.447,82.728)" d="M4.39063,-2.75 C5.01563,-2.75 5.54688,-2.58854 5.98438,-2.26563 C6.38021,-1.91146 6.57813,-1.46875 6.57813,-0.9375 C6.57813,-0.0416667 6.11979,0.796875 5.20313,1.57813 C4.26563,2.35938 3.26042,2.75 2.1875,2.75 C1.5625,2.75 1.03646,2.58854 0.609375,2.26563 C0.203125,1.91146 0,1.46875 0,0.9375 C0,0.0416667 0.46875,-0.796875 1.40625,-1.57813 C2.32292,-2.35938 3.31771,-2.75 4.39063,-2.75"/>
<path class="Note" fill="#ffffff" fill-rule="evenodd" d="M393.346,133.65 L399.307,133.65 L399.307,141.102 L393.346,141.102 L393.346,133.65 "/>
<path class="Note" transform="matrix(0.9936,0,0,0.9936,393.842,140.854)" d="M4.6875,-6.39063 L4.6875,-5.75 C3.46875,-4.125 2.66146,-2.49479 2.26563,-0.859375 C2.19271,-0.578125 2.13542,-0.291667 2.09375,0 L1.25,0 C1.54167,-1.32292 1.96875,-2.5 2.53125,-3.53125 C2.86458,-4.14583 3.30729,-4.84896 3.85938,-5.64063 L0.421875,-5.64063 L0.421875,-6.39063 L4.6875,-6.39063 "/>
<path class="Note" fill="#cc00ff" transform="matrix(0.9936,0,0,0.9936,392.6,75.276)" d="M4.39063,-2.75 C5.01563,-2.75 5.54688,-2.58854 5.98438,-2.26563 C6.38021,-1.91146 6.57813,-1.46875 6.57813,-0.9375 C6.57813,-0.0416667 6.11979,0.796875 5.20313,1.57813 C4.26563,2.35938 3.26042,2.75 2.1875,2.75 C1.5625,2.75 1.03646,2.58854 0.609375,2.26563 C0.203125,1.91146 0,1.46875 0,0.9375 C0,0.0416667 0.46875,-0.796875 1.40625,-1.57813 C2.32292,-2.35938 3.31771,-2.75 4.39063,-2.75"/>
<path class="Note" fill="#ffffff" fill-rule="evenodd" d="M356.499,126.198 L362.461,126.198 L362.461,133.65 L356.499,133.65 L356.499,126.198 "/>
<path class="Note" transform="matrix(0.9936,0,0,0.9936,356.996,133.402)" d="M4.28125,-6.39063 L4.28125,-5.64063 L1.625,-5.64063 L1.375,-3.8125 C1.73958,-4.09375 2.13542,-4.23438 2.5625,-4.23438 C3.28125,-4.23438 3.83333,-3.97396 4.21875,-3.45313 C4.48958,-3.07813 4.625,-2.625 4.625,-2.09375 C4.625,-1.3125 4.35938,-0.708333 3.82813,-0.28125 C3.44271,0.0416667 2.97917,0.203125 2.4375,0.203125 C1.26042,0.203125 0.557292,-0.359375 0.328125,-1.48438 C0.328125,-1.50521 0.322917,-1.53125 0.3125,-1.5625 L1.10938,-1.5625 C1.30729,-0.885417 1.73958,-0.541667 2.40625,-0.53125 C3.02083,-0.53125 3.44271,-0.770833 3.67188,-1.25 C3.76563,-1.46875 3.8125,-1.71354 3.8125,-1.98438 C3.8125,-2.63021 3.58333,-3.07813 3.125,-3.32813 C2.91667,-3.44271 2.67708,-3.5 2.40625,-3.5 C2.03125,-3.5 1.70833,-3.38021 1.4375,-3.14063 C1.375,-3.07813 1.3125,-3.01042 1.25,-2.9375 L0.515625,-2.9375 L0.984375,-6.39063 L4.28125,-6.39063 "/>
<path class="Note" fill="#ed2929" transform="matrix(0.9936,0,0,0.9936,355.754,70.308)" d="M4.39063,-2.75 C5.01563,-2.75 5.54688,-2.58854 5.98438,-2.26563 C6.38021,-1.91146 6.57813,-1.46875 6.57813,-0.9375 C6.57813,-0.0416667 6.11979,0.796875 5.20313,1.57813 C4.26563,2.35938 3.26042,2.75 2.1875,2.75 C1.5625,2.75 1.03646,2.58854 0.609375,2.26563 C0.203125,1.91146 0,1.46875 0,0.9375 C0,0.0416667 0.46875,-0.796875 1.40625,-1.57813 C2.32292,-2.35938 3.31771,-2.75 4.39063,-2.75"/>
<path class="Note" fill="#ffffff" fill-rule="evenodd" d="M319.653,118.746 L325.614,118.746 L325.614,126.198 L319.653,126.198 L319.653,118.746 "/>
<path class="Note" transform="matrix(0.9936,0,0,0.9936,320.15,125.95)" d="M4.28125,-6.39063 L4.28125,-5.64063 L1.625,-5.64063 L1.375,-3.8125 C1.73958,-4.09375 2.13542,-4.23438 2.5625,-4.23438 C3.28125,-4.23438 3.83333,-3.97396 4.21875,-3.45313 C4.48958,-3.07813 4.625,-2.625 4.625,-2.09375 C4.625,-1.3125 4.35938,-0.708333 3.82813,-0.28125 C3.44271,0.0416667 2.97917,0.203125 2.4375,0.203125 C1.26042,0.203125 0.557292,-0.359375 0.328125,-1.48438 C0.328125,-1.50521 0.322917,-1.53125 0.3125,-1.5625 L1.10938,-1.5625 C1.30729,-0.885417 1.73958,-0.541667 2.40625,-0.53125 C3.02083,-0.53125 3.44271,-0.770833 3.67188,-1.25 C3.76563,-1.46875 3.8125,-1.71354 3.8125,-1.98438 C3.8125,-2.63021 3.58333,-3.07813 3.125,-3.32813 C2.91667,-3.44271 2.67708,-3.5 2.40625,-3.5 C2.03125,-3.5 1.70833,-3.38021 1.4375,-3.14063 C1.375,-3.07813 1.3125,-3.01042 1.25,-2.9375 L0.515625,-2.9375 L0.984375,-6.39063 L4.28125,-6.39063 "/>
<path class="Note" fill="#ff9933" transform="matrix(0.9936,0,0,0.9936,318.908,65.34)" d="M4.39063,-2.75 C5.01563,-2.75 5.54688,-2.58854 5.98438,-2.26563 C6.38021,-1.91146 6.57813,-1.46875 6.57813,-0.9375 C6.57813,-0.0416667 6.11979,0.796875 5.20313,1.57813 C4.26563,2.35938 3.26042,2.75 2.1875,2.75 C1.5625,2.75 1.03646,2.58854 0.609375,2.26563 C0.203125,1.91146 0,1.46875 0,0.9375 C0,0.0416667 0.46875,-0.796875 1.40625,-1.57813 C2.32292,-2.35938 3.31771,-2.75 4.39063,-2.75"/>
<path class="Note" fill="#ffffff" fill-rule="evenodd" d="M282.806,111.294 L288.768,111.294 L288.768,118.746 L282.806,118.746 L282.806,111.294 "/>
<path class="Note" transform="matrix(0.9936,0,0,0.9936,283.303,118.498)" d="M4.28125,-6.39063 L4.28125,-5.64063 L1.625,-5.64063 L1.375,-3.8125 C1.73958,-4.09375 2.13542,-4.23438 2.5625,-4.23438 C3.28125,-4.23438 3.83333,-3.97396 4.21875,-3.45313 C4.48958,-3.07813 4.625,-2.625 4.625,-2.09375 C4.625,-1.3125 4.35938,-0.708333 3.82813,-0.28125 C3.44271,0.0416667 2.97917,0.203125 2.4375,0.203125 C1.26042,0.203125 0.557292,-0.359375 0.328125,-1.48438 C0.328125,-1.50521 0.322917,-1.53125 0.3125,-1.5625 L1.10938,-1.5625 C1.30729,-0.885417 1.73958,-0.541667 2.40625,-0.53125 C3.02083,-0.53125 3.44271,-0.770833 3.67188,-1.25 C3.76563,-1.46875 3.8125,-1.71354 3.8125,-1.98438 C3.8125,-2.63021 3.58333,-3.07813 3.125,-3.32813 C2.91667,-3.44271 2.67708,-3.5 2.40625,-3.5 C2.03125,-3.5 1.70833,-3.38021 1.4375,-3.14063 C1.375,-3.07813 1.3125,-3.01042 1.25,-2.9375 L0.515625,-2.9375 L0.984375,-6.39063 L4.28125,-6.39063 "/>
<path class="Note" fill="#cc00ff" transform="matrix(0.9936,0,0,0.9936,282.061,57.888)" d="M4.39063,-2.75 C5.01563,-2.75 5.54688,-2.58854 5.98438,-2.26563 C6.38021,-1.91146 6.57813,-1.46875 6.57813,-0.9375 C6.57813,-0.0416667 6.11979,0.796875 5.20313,1.57813 C4.26563,2.35938 3.26042,2.75 2.1875,2.75 C1.5625,2.75 1.03646,2.58854 0.609375,2.26563 C0.203125,1.91146 0,1.46875 0,0.9375 C0,0.0416667 0.46875,-0.796875 1.40625,-1.57813 C2.32292,-2.35938 3.31771,-2.75 4.39063,-2.75"/>
<path class="Note" fill="#ffffff" fill-rule="evenodd" d="M245.96,118.746 L251.922,118.746 L251.922,126.198 L245.96,126.198 L245.96,118.746 "/>
<path class="Note" transform="matrix(0.9936,0,0,0.9936,246.457,125.95)" d="M4.28125,-6.39063 L4.28125,-5.64063 L1.625,-5.64063 L1.375,-3.8125 C1.73958,-4.09375 2.13542,-4.23438 2.5625,-4.23438 C3.28125,-4.23438 3.83333,-3.97396 4.21875,-3.45313 C4.48958,-3.07813 4.625,-2.625 4.625,-2.09375 C4.625,-1.3125 4.35938,-0.708333 3.82813,-0.28125 C3.44271,0.0416667 2.97917,0.203125 2.4375,0.203125 C1.26042,0.203125 0.557292,-0.359375 0.328125,-1.48438 C0.328125,-1.50521 0.322917,-1.53125 0.3125,-1.5625 L1.10938,-1.5625 C1.30729,-0.885417 1.73958,-0.541667 2.40625,-0.53125 C3.02083,-0.53125 3.44271,-0.770833 3.67188,-1.25 C3.76563,-1.46875 3.8125,-1.71354 3.8125,-1.98438 C3.8125,-2.63021 3.58333,-3.07813 3.125,-3.32813 C2.91667,-3.44271 2.67708,-3.5 2.40625,-3.5 C2.03125,-3.5 1.70833,-3.38021 1.4375,-3.14063 C1.375,-3.07813 1.3125,-3.01042 1.25,-2.9375 L0.515625,-2.9375 L0.984375,-6.39063 L4.28125,-6.39063 "/>
<path class="Note" fill="#ff9933" transform="matrix(0.9936,0,0,0.9936,245.215,65.34)" d="M4.39063,-2.75 C5.01563,-2.75 5.54688,-2.58854 5.98438,-2.26563 C6.38021,-1.91146 6.57813,-1.46875 6.57813,-0.9375 C6.57813,-0.0416667 6.11979,0.796875 5.20313,1.57813 C4.26563,2.35938 3.26042,2.75 2.1875,2.75 C1.5625,2.75 1.03646,2.58854 0.609375,2.26563 C0.203125,1.91146 0,1.46875 0,0.9375 C0,0.0416667 0.46875,-0.796875 1.40625,-1.57813 C2.32292,-2.35938 3.31771,-2.75 4.39063,-2.75"/>
<path class="Note" fill="#ffffff" fill-rule="evenodd" d="M209.114,126.198 L215.075,126.198 L215.075,133.65 L209.114,133.65 L209.114,126.198 "/>
<path class="Note" transform="matrix(0.9936,0,0,0.9936,209.611,133.402)" d="M4.28125,-6.39063 L4.28125,-5.64063 L1.625,-5.64063 L1.375,-3.8125 C1.73958,-4.09375 2.13542,-4.23438 2.5625,-4.23438 C3.28125,-4.23438 3.83333,-3.97396 4.21875,-3.45313 C4.48958,-3.07813 4.625,-2.625 4.625,-2.09375 C4.625,-1.3125 4.35938,-0.708333 3.82813,-0.28125 C3.44271,0.0416667 2.97917,0.203125 2.4375,0.203125 C1.26042,0.203125 0.557292,-0.359375 0.328125,-1.48438 C0.328125,-1.50521 0.322917,-1.53125 0.3125,-1.5625 L1.10938,-1.5625 C1.30729,-0.885417 1.73958,-0.541667 2.40625,-0.53125 C3.02083,-0.53125 3.44271,-0.770833 3.67188,-1.25 C3.76563,-1.46875 3.8125,-1.71354 3.8125,-1.98438 C3.8125,-2.63021 3.58333,-3.07813 3.125,-3.32813 C2.91667,-3.44271 2.67708,-3.5 2.40625,-3.5 C2.03125,-3.5 1.70833,-3.38021 1.4375,-3.14063 C1.375,-3.07813 1.3125,-3.01042 1.25,-2.9375 L0.515625,-2.9375 L0.984375,-6.39063 L4.28125,-6.39063 "/>
<path class="Note" fill="#ed2929" transform="matrix(0.9936,0,0,0.9936,208.369,70.308)" d="M4.39063,-2.75 C5.01563,-2.75 5.54688,-2.58854 5.98438,-2.26563 C6.38021,-1.91146 6.57813,-1.46875 6.57813,-0.9375 C6.57813,-0.0416667 6.11979,0.796875 5.20313,1.57813 C4.26563,2.35938 3.26042,2.75 2.1875,2.75 C1.5625,2.75 1.03646,2.58854 0.609375,2.26563 C0.203125,1.91146 0,1.46875 0,0.9375 C0,0.0416667 0.46875,-0.796875 1.40625,-1.57813 C2.32292,-2.35938 3.31771,-2.75 4.39063,-2.75"/>
<path class="Note" fill="#ffffff" fill-rule="evenodd" d="M172.267,133.65 L178.229,133.65 L178.229,141.102 L172.267,141.102 L172.267,133.65 "/>
<path class="Note" transform="matrix(0.9936,0,0,0.9936,172.764,140.854)" d="M4.6875,-6.39063 L4.6875,-5.75 C3.46875,-4.125 2.66146,-2.49479 2.26563,-0.859375 C2.19271,-0.578125 2.13542,-0.291667 2.09375,0 L1.25,0 C1.54167,-1.32292 1.96875,-2.5 2.53125,-3.53125 C2.86458,-4.14583 3.30729,-4.84896 3.85938,-5.64063 L0.421875,-5.64063 L0.421875,-6.39063 L4.6875,-6.39063 "/>
<path class="Note" fill="#cc00ff" transform="matrix(0.9936,0,0,0.9936,171.522,75.276)" d="M4.39063,-2.75 C5.01563,-2.75 5.54688,-2.58854 5.98438,-2.26563 C6.38021,-1.91146 6.57813,-1.46875 6.57813,-0.9375 C6.57813,-0.0416667 6.11979,0.796875 5.20313,1.57813 C4.26563,2.35938 3.26042,2.75 2.1875,2.75 C1.5625,2.75 1.03646,2.58854 0.609375,2.26563 C0.203125,1.91146 0,1.46875 0,0.9375 C0,0.0416667 0.46875,-0.796875 1.40625,-1.57813 C2.32292,-2.35938 3.31771,-2.75 4.39063,-2.75"/>
<path class="Note" fill="#ffffff" fill-rule="evenodd" d="M135.421,141.102 L141.383,141.102 L141.383,148.554 L135.421,148.554 L135.421,141.102 "/>
<path class="Note" transform="matrix(0.9936,0,0,0.9936,135.918,148.306)" d="M4.6875,-6.39063 L4.6875,-5.75 C3.46875,-4.125 2.66146,-2.49479 2.26563,-0.859375 C2.19271,-0.578125 2.13542,-0.291667 2.09375,0 L1.25,0 C1.54167,-1.32292 1.96875,-2.5 2.53125,-3.53125 C2.86458,-4.14583 3.30729,-4.84896 3.85938,-5.64063 L0.421875,-5.64063 L0.421875,-6.39063 L4.6875,-6.39063 "/>
<path class="Note" fill="#ff9933" transform="matrix(0.9936,0,0,0.9936,134.676,82.728)" d="M4.39063,-2.75 C5.01563,-2.75 5.54688,-2.58854 5.98438,-2.26563 C6.38021,-1.91146 6.57813,-1.46875 6.57813,-0.9375 C6.57813,-0.0416667 6.11979,0.796875 5.20313,1.57813 C4.26563,2.35938 3.26042,2.75 2.1875,2.75 C1.5625,2.75 1.03646,2.58854 0.609375,2.26563 C0.203125,1.91146 0,1.46875 0,0.9375 C0,0.0416667 0.46875,-0.796875 1.40625,-1.57813 C2.32292,-2.35938 3.31771,-2.75 4.39063,-2.75"/>
<path class="Note" fill="#ffffff" fill-rule="evenodd" d="M98.5745,148.554 L104.536,148.554 L104.536,156.006 L98.5745,156.006 L98.5745,148.554 "/>
<path class="Note" transform="matrix(0.9936,0,0,0.9936,99.0713,155.758)" d="M3.51563,-3.39063 C4.24479,-3.03646 4.61458,-2.5 4.625,-1.78125 C4.625,-1.10417 4.36458,-0.583333 3.84375,-0.21875 C3.46875,0.0625 3.01042,0.203125 2.46875,0.203125 C1.72917,0.203125 1.15625,-0.0416667 0.75,-0.53125 C0.46875,-0.885417 0.328125,-1.30729 0.328125,-1.79688 C0.338542,-2.51563 0.703125,-3.04688 1.42188,-3.39063 C0.994792,-3.66146 0.729167,-3.9375 0.625,-4.21875 C0.583333,-4.35417 0.5625,-4.51563 0.5625,-4.70313 C0.5625,-5.28646 0.802083,-5.73438 1.28125,-6.04688 C1.625,-6.27604 2.02083,-6.39063 2.46875,-6.39063 C3.16667,-6.39063 3.69271,-6.16146 4.04688,-5.70313 C4.27604,-5.41146 4.39063,-5.07813 4.39063,-4.70313 C4.39063,-4.29688 4.25521,-3.97396 3.98438,-3.73438 C3.86979,-3.61979 3.71354,-3.50521 3.51563,-3.39063 M2.46875,-5.64063 C1.98958,-5.64063 1.65625,-5.47396 1.46875,-5.14063 C1.40625,-5.00521 1.375,-4.85417 1.375,-4.6875 C1.375,-4.29167 1.55729,-4.01563 1.92188,-3.85938 C2.08854,-3.78646 2.27083,-3.75 2.46875,-3.75 C2.95833,-3.75 3.29167,-3.91146 3.46875,-4.23438 C3.54167,-4.36979 3.57813,-4.52083 3.57813,-4.6875 C3.57813,-5.11458 3.38542,-5.40104 3,-5.54688 C2.84375,-5.60938 2.66667,-5.64063 2.46875,-5.64063 M2.46875,-3 C1.9375,-3 1.55729,-2.8125 1.32813,-2.4375 C1.20313,-2.23958 1.14063,-2.02083 1.14063,-1.78125 C1.14063,-1.29167 1.33854,-0.932292 1.73438,-0.703125 C1.94271,-0.588542 2.18229,-0.53125 2.45313,-0.53125 C3.00521,-0.53125 3.39583,-0.723958 3.625,-1.10938 C3.75,-1.30729 3.8125,-1.53125 3.8125,-1.78125 C3.8125,-2.26042 3.60938,-2.61458 3.20313,-2.84375 C2.98438,-2.94792 2.73958,-3 2.46875,-3"/>
<path class="Note" fill="#ed2929" transform="matrix(0.9936,0,0,0.9936,97.8293,87.696)" d="M4.39063,-2.75 C5.01563,-2.75 5.54688,-2.58854 5.98438,-2.26563 C6.38021,-1.91146 6.57813,-1.46875 6.57813,-0.9375 C6.57813,-0.0416667 6.11979,0.796875 5.20313,1.57813 C4.26563,2.35938 3.26042,2.75 2.1875,2.75 C1.5625,2.75 1.03646,2.58854 0.609375,2.26563 C0.203125,1.91146 0,1.46875 0,0.9375 C0,0.0416667 0.46875,-0.796875 1.40625,-1.57813 C2.32292,-2.35938 3.31771,-2.75 4.39063,-2.75"/>
<path class="Note" fill="#ffffff" fill-rule="evenodd" d="M61.7281,148.554 L67.6897,148.554 L67.6897,156.006 L61.7281,156.006 L61.7281,148.554 "/>
<path class="Note" transform="matrix(0.9936,0,0,0.9936,62.2249,155.758)" d="M4.28125,-6.39063 L4.28125,-5.64063 L1.625,-5.64063 L1.375,-3.8125 C1.73958,-4.09375 2.13542,-4.23438 2.5625,-4.23438 C3.28125,-4.23438 3.83333,-3.97396 4.21875,-3.45313 C4.48958,-3.07813 4.625,-2.625 4.625,-2.09375 C4.625,-1.3125 4.35938,-0.708333 3.82813,-0.28125 C3.44271,0.0416667 2.97917,0.203125 2.4375,0.203125 C1.26042,0.203125 0.557292,-0.359375 0.328125,-1.48438 C0.328125,-1.50521 0.322917,-1.53125 0.3125,-1.5625 L1.10938,-1.5625 C1.30729,-0.885417 1.73958,-0.541667 2.40625,-0.53125 C3.02083,-0.53125 3.44271,-0.770833 3.67188,-1.25 C3.76563,-1.46875 3.8125,-1.71354 3.8125,-1.98438 C3.8125,-2.63021 3.58333,-3.07813 3.125,-3.32813 C2.91667,-3.44271 2.67708,-3.5 2.40625,-3.5 C2.03125,-3.5 1.70833,-3.38021 1.4375,-3.14063 C1.375,-3.07813 1.3125,-3.01042 1.25,-2.9375 L0.515625,-2.9375 L0.984375,-6.39063 L4.28125,-6.39063 "/>
<path class="Note" fill="#cc00ff" transform="matrix(0.9936,0,0,0.9936,60.9829,92.664)" d="M4.39063,-2.75 C5.01563,-2.75 5.54688,-2.58854 5.98438,-2.26563 C6.38021,-1.91146 6.57813,-1.46875 6.57813,-0.9375 C6.57813,-0.0416667 6.11979,0.796875 5.20313,1.57813 C4.26563,2.35938 3.26042,2.75 2.1875,2.75 C1.5625,2.75 1.03646,2.58854 0.609375,2.26563 C0.203125,1.91146 0,1.46875 0,0.9375 C0,0.0416667 0.46875,-0.796875 1.40625,-1.57813 C2.32292,-2.35938 3.31771,-2.75 4.39063,-2.75"/>
<path class="Clef" transform="matrix(0.9936,0,0,0.9936,32.0544,133.65)" d="M5.32813,8.5 C5.32813,8.86458 5.04167,9.04688 4.46875,9.04688 C4.02083,9.04688 3.625,8.91146 3.28125,8.64063 C2.95833,8.34896 2.79688,7.98438 2.79688,7.54688 C2.79688,6.76563 3.27083,6.14063 4.21875,5.67188 C5.14583,5.18229 6.23438,4.9375 7.48438,4.9375 C7.96354,4.9375 8.47917,4.97396 9.03125,5.04688 C9.42708,5.09896 9.875,5.20313 10.375,5.35938 C10.8125,5.49479 11.1563,5.70573 11.4063,5.99219 C11.6563,6.27865 11.7813,6.61458 11.7813,7 C11.7813,7.89583 11.3177,8.63021 10.3906,9.20313 C11.7448,9.45313 12.4271,10.0573 12.4375,11.0156 C12.4375,11.8281 12.0729,12.5599 11.3438,13.2109 C10.6146,13.862 9.79167,14.1875 8.875,14.1875 C8.47917,14.1875 8.07813,14.0938 7.67188,13.9063 C7.29688,13.7292 7.03125,13.5625 6.875,13.4063 C6.71875,13.2188 6.64063,13.0781 6.64063,12.9844 C6.64063,12.8594 6.70833,12.75 6.84375,12.6563 C6.95833,12.5417 7.07813,12.4844 7.20313,12.4844 C7.25521,12.4844 7.36719,12.5677 7.53906,12.7344 C7.71094,12.901 7.95833,12.9844 8.28125,12.9844 C8.72917,12.9844 9.16146,12.7969 9.57813,12.4219 C9.97396,12.0573 10.1719,11.6198 10.1719,11.1094 C10.1719,10.6719 9.98438,10.3542 9.60938,10.1563 C9.24479,9.95833 8.76563,9.85938 8.17188,9.85938 C8.06771,9.85938 8.01563,9.75 8.01563,9.53125 C8.01563,9.21875 8.13021,9.0625 8.35938,9.0625 C8.72396,9.0625 9.05208,8.90625 9.34375,8.59375 C9.61458,8.26042 9.75,7.90104 9.75,7.51563 C9.75,7.40104 9.71875,7.22917 9.65625,7 C9.60417,6.84375 9.44792,6.65104 9.1875,6.42188 C8.9375,6.21354 8.58854,6.07292 8.14063,6 C8.02604,6.63542 7.88021,7.44792 7.70313,8.4375 C7.52604,9.42708 7.40625,10.0781 7.34375,10.3906 C7.125,11.5156 6.72396,12.4583 6.14063,13.2188 C5.52604,14.0313 4.86458,14.4375 4.15625,14.4375 C3.9375,14.4375 3.71354,14.3854 3.48438,14.2813 C3.29688,14.1979 3.0625,14.0365 2.78125,13.7969 C2.52083,13.5885 2.34375,13.4479 2.25,13.375 C2.19792,13.3438 2.17188,13.2865 2.17188,13.2031 C2.17188,13.0781 2.21875,12.9635 2.3125,12.8594 C2.41667,12.7344 2.52604,12.6719 2.64063,12.6719 C2.71354,12.6719 2.89323,12.7969 3.17969,13.0469 C3.46615,13.2969 3.76563,13.4219 4.07813,13.4219 C4.68229,13.4219 5.13542,13.0365 5.4375,12.2656 C5.71875,11.526 5.85938,10.6094 5.85938,9.51563 L5.85938,9.35938 C5.85938,8.63021 5.97917,7.54167 6.21875,6.09375 C5.80208,6.22917 5.46875,6.42708 5.21875,6.6875 C4.95833,6.94792 4.82813,7.21875 4.82813,7.5 C4.82813,7.71875 4.91146,7.90625 5.07813,8.0625 C5.24479,8.21875 5.32813,8.36458 5.32813,8.5 M1.40625,2.39063 C1.46875,2.39063 1.625,2.45313 1.875,2.57813 C2.13542,2.71354 2.35938,2.78125 2.54688,2.78125 C3.03646,2.78125 3.64063,2.42188 4.35938,1.70313 C6.43229,-0.411458 7.85938,-2.65104 8.64063,-5.01563 C8.79688,-5.51563 9.17708,-5.76563 9.78125,-5.76563 C10.0938,-5.76563 10.3646,-5.69792 10.5938,-5.5625 C10.8125,-5.42708 10.9219,-5.28646 10.9219,-5.14063 L10.5625,2.17188 C10.5625,2.55729 10.7031,2.75 10.9844,2.75 C11.1198,2.75 11.3281,2.6875 11.6094,2.5625 C11.8698,2.42708 12.026,2.35938 12.0781,2.35938 C12.1823,2.35938 12.2448,2.47396 12.2656,2.70313 C12.2656,2.91146 12.1823,3.04167 12.0156,3.09375 C11.8802,3.125 11.6198,3.24479 11.2344,3.45313 C10.8281,3.66146 10.5104,3.76563 10.2813,3.76563 C9.78125,3.76563 9.42708,3.375 9.21875,2.59375 C8.89583,1.375 8.6875,0.104167 8.59375,-1.21875 C8.07292,-0.552083 7.49479,0.119792 6.85938,0.796875 C7.08854,1.24479 7.51563,1.46875 8.14063,1.46875 C8.23438,1.46875 8.30729,1.46354 8.35938,1.45313 L8.375,1.45313 C8.47917,1.45313 8.53125,1.54688 8.53125,1.73438 C8.53125,1.98438 8.44792,2.13542 8.28125,2.1875 C8.01042,2.28125 7.72396,2.32813 7.42188,2.32813 C6.77604,2.32813 6.30729,2.10417 6.01563,1.65625 L5.23438,2.35938 C4.14063,3.29688 3.25,3.76563 2.5625,3.76563 C2.375,3.76563 2.1875,3.73438 2,3.67188 C1.84375,3.60938 1.66146,3.51042 1.45313,3.375 C1.36979,3.34375 1.27865,3.29688 1.17969,3.23438 C1.08073,3.17188 1.02083,3.13542 1,3.125 C0.9375,3.10417 0.90625,3.04688 0.90625,2.95313 C0.90625,2.84896 0.958333,2.72396 1.0625,2.57813 C1.14583,2.45313 1.26042,2.39063 1.40625,2.39063 M5.76563,-10.7969 C5.76563,-10.474 5.48438,-10.3125 4.92188,-10.3125 C4.43229,-10.3125 4.00521,-10.474 3.64063,-10.7969 C3.28646,-11.1302 3.10938,-11.5313 3.10938,-12 C3.10938,-12.4479 3.25,-12.8385 3.53125,-13.1719 C3.83333,-13.5052 4.21875,-13.7552 4.6875,-13.9219 C5.11458,-14.0781 5.59896,-14.2031 6.14063,-14.2969 C6.69271,-14.3594 7.22396,-14.3906 7.73438,-14.3906 C8.03646,-14.3906 8.59896,-14.2552 9.42188,-13.9844 C10.2552,-13.7135 10.8333,-13.5781 11.1563,-13.5781 C11.5625,-13.5781 11.9479,-13.651 12.3125,-13.7969 C12.6042,-13.9219 12.8906,-14.0677 13.1719,-14.2344 C13.3906,-14.3802 13.5104,-14.4531 13.5313,-14.4531 C13.6563,-14.4531 13.7604,-14.4167 13.8438,-14.3438 C13.9479,-14.2396 14,-14.151 14,-14.0781 C14,-13.9948 13.8802,-13.849 13.6406,-13.6406 C13.3802,-13.401 13.0078,-13.1641 12.5234,-12.9297 C12.0391,-12.6953 11.5313,-12.5781 11,-12.5781 C10.7604,-12.5781 10.4688,-12.6198 10.125,-12.7031 C9.89583,-11.2552 9.66146,-9.96875 9.42188,-8.84375 C9.21354,-7.85417 8.79688,-6.98958 8.17188,-6.25 C7.56771,-5.51042 6.89583,-5.14063 6.15625,-5.14063 C5.85417,-5.14063 5.58854,-5.19792 5.35938,-5.3125 C5.09896,-5.44792 4.82292,-5.64583 4.53125,-5.90625 C4.30208,-6.09375 4.08333,-6.26563 3.875,-6.42188 C3.82292,-6.46354 3.79688,-6.52604 3.79688,-6.60938 C3.79688,-6.69271 3.84896,-6.80729 3.95313,-6.95313 C4.05729,-7.06771 4.15104,-7.125 4.23438,-7.125 C4.31771,-7.125 4.54167,-6.96354 4.90625,-6.64063 C5.27083,-6.31771 5.59375,-6.15625 5.875,-6.15625 C6.39583,-6.15625 6.80208,-6.45313 7.09375,-7.04688 C7.375,-7.64063 7.53646,-8.34375 7.57813,-9.15625 C7.64063,-10.5 7.79167,-11.8906 8.03125,-13.3281 C7.73958,-13.3906 7.52604,-13.4219 7.39063,-13.4219 C6.76563,-13.4219 6.22917,-13.2917 5.78125,-13.0313 C5.34375,-12.7813 5.125,-12.4427 5.125,-12.0156 C5.125,-11.7031 5.22917,-11.4635 5.4375,-11.2969 C5.65625,-11.1094 5.76563,-10.9427 5.76563,-10.7969"/>
<path class="Clef" transform="matrix(0.9936,0,0,0.9936,32.0544,77.76)" d="M7.34375,-5.125 C7.34375,-5.125 7.38542,-5.125 7.46875,-5.125 C7.52083,-5.13542 7.5625,-5.14063 7.59375,-5.14063 C9.05208,-5.14063 10.25,-4.625 11.1875,-3.59375 C12.125,-2.58333 12.5938,-1.40104 12.5938,-0.046875 C12.5938,1.64063 11.901,3.01042 10.5156,4.0625 C10.151,4.35417 9.67188,4.58854 9.07813,4.76563 C9.15104,5.60938 9.1875,6.29167 9.1875,6.8125 C9.1875,6.91667 9.17188,7.29688 9.14063,7.95313 C9.08854,9.16146 8.67188,10.2083 7.89063,11.0938 C7.14063,11.9688 6.20313,12.4063 5.07813,12.4063 C4.02604,12.4063 3.13021,12.0365 2.39063,11.2969 C1.64063,10.5365 1.26563,9.625 1.26563,8.5625 C1.26563,8 1.48438,7.52083 1.92188,7.125 C2.35938,6.73958 2.86979,6.54688 3.45313,6.54688 C3.97396,6.54688 4.41146,6.75 4.76563,7.15625 C5.13021,7.53125 5.3125,8 5.3125,8.5625 C5.3125,9.0625 5.13021,9.49479 4.76563,9.85938 C4.40104,10.224 3.96354,10.4063 3.45313,10.4063 C3.24479,10.4063 3.04688,10.3698 2.85938,10.2969 C3.43229,11.1406 4.19271,11.5625 5.14063,11.5625 C6.03646,11.5625 6.77083,11.1979 7.34375,10.4688 C7.94792,9.71875 8.27604,8.83854 8.32813,7.82813 C8.34896,7.20313 8.35938,6.84896 8.35938,6.76563 C8.35938,6.03646 8.33333,5.4375 8.28125,4.96875 C7.63542,5.07292 7.05729,5.125 6.54688,5.125 C4.73438,5.125 3.19271,4.40625 1.92188,2.96875 C0.671875,1.52083 0.046875,-0.197917 0.046875,-2.1875 C0.046875,-2.60417 0.0833333,-3.02604 0.15625,-3.45313 C0.239583,-3.80729 0.338542,-4.19271 0.453125,-4.60938 C0.515625,-4.84896 0.692708,-5.22917 0.984375,-5.75 C1.08854,-5.90625 1.20573,-6.10156 1.33594,-6.33594 C1.46615,-6.57031 1.55729,-6.72396 1.60938,-6.79688 C1.73438,-7.05729 1.98438,-7.41146 2.35938,-7.85938 C2.46354,-7.97396 2.57292,-8.10156 2.6875,-8.24219 C2.80208,-8.38281 2.89844,-8.5 2.97656,-8.59375 C3.05469,-8.6875 3.11198,-8.76042 3.14844,-8.8125 C3.1849,-8.86458 3.47917,-9.20833 4.03125,-9.84375 C4.15625,-9.97917 4.28125,-10.1198 4.40625,-10.2656 C4.53125,-10.4115 4.63281,-10.5286 4.71094,-10.6172 C4.78906,-10.7057 4.84896,-10.7656 4.89063,-10.7969 C4.42188,-12.349 4.125,-13.5885 4,-14.5156 C3.91667,-15.2552 3.875,-16.2708 3.875,-17.5625 C3.875,-18.6979 4.13542,-19.7604 4.65625,-20.75 C5.15625,-21.7708 5.86458,-22.6094 6.78125,-23.2656 C6.84375,-23.3073 6.90625,-23.3281 6.96875,-23.3281 C7.0625,-23.3281 7.13021,-23.3073 7.17188,-23.2656 C7.86979,-22.4219 8.47396,-21.3229 8.98438,-19.9688 C9.50521,-18.6146 9.76563,-17.3802 9.76563,-16.2656 C9.76563,-15.0156 9.46875,-13.8438 8.875,-12.75 C8.19792,-11.5938 7.32292,-10.3958 6.25,-9.15625 C6.52083,-8.30208 6.88542,-6.95833 7.34375,-5.125 M9,3.96875 C9.67708,3.71875 10.2083,3.29688 10.5938,2.70313 C11.0104,2.13021 11.2188,1.48438 11.2188,0.765625 C11.2188,-0.161458 10.9063,-0.984375 10.2813,-1.70313 C9.63542,-2.44271 8.81771,-2.85938 7.82813,-2.95313 C8.39063,-0.203125 8.78125,2.10417 9,3.96875 M1.45313,-0.546875 C1.45313,0.744792 1.97396,1.88021 3.01563,2.85938 C4.07813,3.80729 5.27604,4.28125 6.60938,4.28125 C7.15104,4.28125 7.68229,4.23958 8.20313,4.15625 C7.99479,2.17708 7.58333,-0.192708 6.96875,-2.95313 C6.22917,-2.86979 5.64063,-2.60938 5.20313,-2.17188 C4.76563,-1.71354 4.54688,-1.19792 4.54688,-0.625 C4.54688,0.364583 5.07813,1.16667 6.14063,1.78125 C6.22396,1.875 6.26563,1.97396 6.26563,2.07813 C6.26563,2.18229 6.22396,2.27604 6.14063,2.35938 C6.05729,2.45313 5.95833,2.5 5.84375,2.5 C5.83333,2.5 5.77604,2.48958 5.67188,2.46875 C4.92188,2.0625 4.34896,1.54167 3.95313,0.90625 C3.56771,0.21875 3.375,-0.46875 3.375,-1.15625 C3.375,-2.05208 3.65625,-2.86458 4.21875,-3.59375 C4.80208,-4.32292 5.5625,-4.79167 6.5,-5 C6.13542,-6.45833 5.83854,-7.59896 5.60938,-8.42188 C5.40104,-8.18229 5.15104,-7.89844 4.85938,-7.57031 C4.56771,-7.24219 4.39583,-7.04167 4.34375,-6.96875 C3.875,-6.36458 3.51563,-5.89063 3.26563,-5.54688 C2.81771,-4.93229 2.48958,-4.40625 2.28125,-3.96875 C2.0625,-3.46875 1.86979,-2.92708 1.70313,-2.34375 C1.53646,-1.78125 1.45313,-1.18229 1.45313,-0.546875 M7.96875,-20.4063 C6.98958,-19.9271 6.22396,-19.2396 5.67188,-18.3438 C5.09896,-17.4167 4.8125,-16.4219 4.8125,-15.3594 C4.8125,-14.4219 5.04688,-13.1563 5.51563,-11.5625 C6.45313,-12.6979 7.15625,-13.7448 7.625,-14.7031 C8.11458,-15.724 8.35938,-16.7865 8.35938,-17.8906 C8.35938,-18.724 8.22917,-19.5625 7.96875,-20.4063 M5.82813,15.2344 C6.16146,14.901 6.32813,14.5625 6.32813,14.2188 C6.30729,13.9479 6.19271,13.7396 5.98438,13.5938 C5.74479,13.4375 5.46875,13.3594 5.15625,13.3594 C4.9375,13.3594 4.75521,13.4323 4.60938,13.5781 C4.48438,13.7031 4.42188,13.8646 4.42188,14.0625 C4.42188,14.3021 4.51563,14.4792 4.70313,14.5938 L5.82813,15.2344 M6.14063,15.4063 C6.68229,15.7083 6.95313,16.1146 6.95313,16.625 L6.95313,16.6875 C6.95313,17.0833 6.79167,17.4219 6.46875,17.7031 C6.14583,17.9844 5.68229,18.125 5.07813,18.125 C4.58854,18.125 4.16146,17.9948 3.79688,17.7344 C3.43229,17.4844 3.25,17.1458 3.25,16.7188 C3.25,16.5521 3.29167,16.3958 3.375,16.25 C3.47917,16.0833 3.56771,15.9688 3.64063,15.9063 L4,15.5313 C3.60417,15.2604 3.40625,14.901 3.40625,14.4531 C3.40625,14.099 3.5625,13.7865 3.875,13.5156 C4.19792,13.2552 4.625,13.125 5.15625,13.125 C5.60417,13.125 5.98438,13.224 6.29688,13.4219 C6.60938,13.6198 6.76563,13.8854 6.76563,14.2188 C6.76563,14.5729 6.55729,14.9688 6.14063,15.4063 M4.29688,15.7031 C3.91146,16.0469 3.70313,16.3854 3.67188,16.7188 C3.70313,17.0729 3.84896,17.3542 4.10938,17.5625 C4.39063,17.7813 4.71354,17.8906 5.07813,17.8906 C5.33854,17.8906 5.54688,17.8073 5.70313,17.6406 C5.85938,17.4844 5.9375,17.2969 5.9375,17.0781 C5.92708,16.7865 5.8125,16.5781 5.59375,16.4531 L4.29688,15.7031 "/>
<path class="Beam" fill-rule="evenodd" d="M398.495,60.3176 L472.834,66.582 L472.834,69.066 L398.495,62.8016 L398.495,60.3176 "/>
<path class="Beam" fill-rule="evenodd" d="M282.061,79.002 L356.4,85.2664 L356.4,87.7504 L282.061,81.486 L282.061,79.002 "/>
<path class="Beam" fill-rule="evenodd" d="M171.522,87.696 L245.861,81.4316 L245.861,83.9156 L171.522,90.18 L171.522,87.696 "/>
<path class="Beam" fill-rule="evenodd" d="M66.8778,72.8464 L141.216,66.582 L141.216,69.066 L66.8778,75.3304 L66.8778,72.8464 "/>
<path class="Fingering" d="M498.124,90.4296 C498.01,90.4296 497.817,90.4869 497.546,90.6015 L497.546,90.4921 L498.984,89.7577 L499.046,89.7734 L499.046,94.5702 C499.046,94.7786 499.109,94.914 499.234,94.9765 C499.338,95.0182 499.531,95.039 499.812,95.039 L499.812,95.164 L497.593,95.164 L497.593,95.039 C497.947,95.0286 498.171,94.9661 498.265,94.8515 C498.328,94.7577 498.359,94.6119 498.359,94.414 L498.359,90.8046 C498.348,90.5546 498.27,90.4296 498.124,90.4296"/>
<path class="Fingering" d="M463.591,88.3835 L463.591,88.8679 L462.762,88.8679 L462.762,90.196 L462.153,90.196 L462.153,88.8679 L459.903,88.8679 L459.903,88.3835 L462.419,84.7897 L462.762,84.7897 L462.762,88.3835 L463.591,88.3835 M462.137,88.3835 L462.137,85.6335 L460.231,88.3835 L462.137,88.3835 "/>
<path class="Fingering" d="M423.604,84.603 C423.729,84.603 423.911,84.6707 424.15,84.8061 C424.4,84.9624 424.614,85.0405 424.791,85.0405 C425.156,85.0405 425.442,84.879 425.65,84.5561 C425.775,84.3478 425.838,84.1134 425.838,83.853 C425.838,83.0926 425.385,82.6759 424.479,82.603 C424.385,82.5926 424.286,82.5874 424.182,82.5874 L424.182,82.478 C424.786,82.2801 425.182,82.0249 425.369,81.7124 C425.463,81.5457 425.51,81.3634 425.51,81.1655 C425.51,80.8113 425.364,80.5561 425.072,80.3999 C424.937,80.3374 424.791,80.3061 424.635,80.3061 C424.187,80.3061 423.817,80.5405 423.525,81.0092 C423.494,81.0509 423.468,81.0978 423.447,81.1499 L423.322,81.1186 C423.572,80.4415 423.937,80.0301 424.416,79.8842 C424.562,79.8426 424.723,79.8217 424.9,79.8217 C425.38,79.8217 425.734,79.9884 425.963,80.3217 C426.088,80.4988 426.15,80.6967 426.15,80.9155 C426.15,81.2384 425.999,81.5301 425.697,81.7905 C425.604,81.8634 425.505,81.9415 425.4,82.0249 C425.88,82.2332 426.187,82.5197 426.322,82.8842 C426.385,83.0613 426.416,83.2592 426.416,83.478 C426.416,84.1134 426.15,84.6082 425.619,84.9624 C425.223,85.2124 424.755,85.3374 424.213,85.3374 C423.723,85.3374 423.432,85.228 423.338,85.0092 C423.317,84.9676 423.307,84.9259 423.307,84.8842 C423.307,84.728 423.385,84.6395 423.541,84.6186 C423.562,84.6082 423.583,84.603 423.604,84.603"/>
<path class="Fingering" d="M389.898,75.9635 L389.898,76.4479 L389.07,76.4479 L389.07,77.776 L388.46,77.776 L388.46,76.4479 L386.21,76.4479 L386.21,75.9635 L388.726,72.3697 L389.07,72.3697 L389.07,75.9635 L389.898,75.9635 M388.445,75.9635 L388.445,73.2135 L386.538,75.9635 L388.445,75.9635 "/>
<path class="Fingering" d="M350.739,68.0736 C350.624,68.0736 350.432,68.1309 350.161,68.2455 L350.161,68.1361 L351.598,67.4017 L351.661,67.4174 L351.661,72.2142 C351.661,72.4226 351.723,72.558 351.848,72.6205 C351.952,72.6622 352.145,72.683 352.426,72.683 L352.426,72.808 L350.208,72.808 L350.208,72.683 C350.562,72.6726 350.786,72.6101 350.879,72.4955 C350.942,72.4017 350.973,72.2559 350.973,72.058 L350.973,68.4486 C350.963,68.1986 350.885,68.0736 350.739,68.0736"/>
<path class="Fingering" d="M313.892,63.1056 C313.778,63.1056 313.585,63.1629 313.314,63.2775 L313.314,63.1681 L314.752,62.4337 L314.814,62.4494 L314.814,67.2462 C314.814,67.4546 314.877,67.59 315.002,67.6525 C315.106,67.6942 315.299,67.715 315.58,67.715 L315.58,67.84 L313.361,67.84 L313.361,67.715 C313.715,67.7046 313.939,67.6421 314.033,67.5275 C314.096,67.4337 314.127,67.2879 314.127,67.09 L314.127,63.4806 C314.116,63.2306 314.038,63.1056 313.892,63.1056"/>
<path class="Fingering" d="M277.046,55.6536 C276.931,55.6536 276.739,55.7109 276.468,55.8255 L276.468,55.7161 L277.905,54.9817 L277.968,54.9974 L277.968,59.7942 C277.968,60.0026 278.03,60.138 278.155,60.2005 C278.26,60.2422 278.452,60.263 278.734,60.263 L278.734,60.388 L276.515,60.388 L276.515,60.263 C276.869,60.2526 277.093,60.1901 277.187,60.0755 C277.249,59.9817 277.28,59.8359 277.28,59.638 L277.28,56.0286 C277.27,55.7786 277.192,55.6536 277.046,55.6536"/>
<path class="Fingering" d="M240.2,63.1056 C240.085,63.1056 239.892,63.1629 239.622,63.2775 L239.622,63.1681 L241.059,62.4337 L241.122,62.4494 L241.122,67.2462 C241.122,67.4546 241.184,67.59 241.309,67.6525 C241.413,67.6942 241.606,67.715 241.887,67.715 L241.887,67.84 L239.668,67.84 L239.668,67.715 C240.023,67.7046 240.247,67.6421 240.34,67.5275 C240.403,67.4337 240.434,67.2879 240.434,67.09 L240.434,63.4806 C240.424,63.2306 240.345,63.1056 240.2,63.1056"/>
<path class="Fingering" d="M203.353,68.0736 C203.239,68.0736 203.046,68.1309 202.775,68.2455 L202.775,68.1361 L204.213,67.4017 L204.275,67.4174 L204.275,72.2142 C204.275,72.4226 204.338,72.558 204.463,72.6205 C204.567,72.6622 204.76,72.683 205.041,72.683 L205.041,72.808 L202.822,72.808 L202.822,72.683 C203.176,72.6726 203.4,72.6101 203.494,72.4955 C203.556,72.4017 203.588,72.2559 203.588,72.058 L203.588,68.4486 C203.577,68.1986 203.499,68.0736 203.353,68.0736"/>
<path class="Fingering" d="M168.819,75.9635 L168.819,76.4479 L167.991,76.4479 L167.991,77.776 L167.382,77.776 L167.382,76.4479 L165.132,76.4479 L165.132,75.9635 L167.647,72.3697 L167.991,72.3697 L167.991,75.9635 L168.819,75.9635 M167.366,75.9635 L167.366,73.2135 L165.46,75.9635 L167.366,75.9635 "/>
<path class="Fingering" d="M128.832,84.603 C128.957,84.603 129.14,84.6707 129.379,84.8061 C129.629,84.9624 129.843,85.0405 130.02,85.0405 C130.384,85.0405 130.671,84.879 130.879,84.5561 C131.004,84.3478 131.067,84.1134 131.067,83.853 C131.067,83.0926 130.614,82.6759 129.707,82.603 C129.614,82.5926 129.515,82.5874 129.41,82.5874 L129.41,82.478 C130.015,82.2801 130.41,82.0249 130.598,81.7124 C130.692,81.5457 130.739,81.3634 130.739,81.1655 C130.739,80.8113 130.593,80.5561 130.301,80.3999 C130.166,80.3374 130.02,80.3061 129.864,80.3061 C129.416,80.3061 129.046,80.5405 128.754,81.0092 C128.723,81.0509 128.697,81.0978 128.676,81.1499 L128.551,81.1186 C128.801,80.4415 129.166,80.0301 129.645,79.8842 C129.791,79.8426 129.952,79.8217 130.129,79.8217 C130.608,79.8217 130.963,79.9884 131.192,80.3217 C131.317,80.4988 131.379,80.6967 131.379,80.9155 C131.379,81.2384 131.228,81.5301 130.926,81.7905 C130.832,81.8634 130.733,81.9415 130.629,82.0249 C131.108,82.2332 131.416,82.5197 131.551,82.8842 C131.614,83.0613 131.645,83.2592 131.645,83.478 C131.645,84.1134 131.379,84.6082 130.848,84.9624 C130.452,85.2124 129.983,85.3374 129.442,85.3374 C128.952,85.3374 128.66,85.228 128.567,85.0092 C128.546,84.9676 128.535,84.9259 128.535,84.8842 C128.535,84.728 128.614,84.6395 128.77,84.6186 C128.791,84.6082 128.811,84.603 128.832,84.603"/>
<path class="Fingering" d="M95.1266,88.3835 L95.1266,88.8679 L94.2984,88.8679 L94.2984,90.196 L93.6891,90.196 L93.6891,88.8679 L91.4391,88.8679 L91.4391,88.3835 L93.9547,84.7897 L94.2984,84.7897 L94.2984,88.3835 L95.1266,88.3835 M93.6734,88.3835 L93.6734,85.6335 L91.7672,88.3835 L93.6734,88.3835 "/>
<path class="Fingering" d="M55.9677,90.4296 C55.8531,90.4296 55.6604,90.4869 55.3895,90.6015 L55.3895,90.4921 L56.827,89.7577 L56.8895,89.7734 L56.8895,94.5702 C56.8895,94.7786 56.952,94.914 57.077,94.9765 C57.1812,95.0182 57.3739,95.039 57.6552,95.039 L57.6552,95.164 L55.4364,95.164 L55.4364,95.039 C55.7906,95.0286 56.0145,94.9661 56.1083,94.8515 C56.1708,94.7577 56.202,94.6119 56.202,94.414 L56.202,90.8046 C56.1916,90.5546 56.1135,90.4296 55.9677,90.4296"/>
<path class="Tempo" d="M54.8176,34.859 C54.7707,34.859 54.7395,34.859 54.7395,34.9371 L54.7395,40.4371 C54.5364,40.2809 54.2864,40.1871 53.9739,40.1871 C52.7864,40.1871 51.8332,41.0621 51.8332,41.9996 C51.8332,42.5621 52.2864,42.9059 52.8801,42.9059 C53.8332,42.9059 55.0207,41.9996 55.0207,41.0934 L55.0207,37.0934 C55.3957,37.1715 56.0207,37.4371 56.3957,38.4684 C56.4895,38.734 56.5832,39.1402 56.5832,39.5934 C56.5832,39.9059 56.5207,40.2809 56.3957,40.609 C56.3645,40.6559 56.3645,40.6871 56.3645,40.7184 C56.3645,40.8434 56.4426,40.9059 56.5051,40.9371 C56.5051,40.9527 56.5364,40.9527 56.552,40.9527 C56.6145,40.9527 56.677,40.9059 56.7395,40.7965 C56.7551,40.7027 56.9426,40.0465 56.9426,39.5621 L56.9426,39.4996 C56.9114,38.5777 56.5051,37.6871 55.9895,36.9371 C55.552,36.359 55.2082,35.734 55.0676,35.0309 C55.0207,34.8902 54.9582,34.859 54.8801,34.859 L54.8176,34.859 "/>
<path class="Tempo" d="M67.302,39.0152 L60.6926,39.0152 L60.6926,37.859 L67.302,37.859 L67.302,39.0152 M67.302,41.9371 L60.6926,41.9371 L60.6926,40.7965 L67.302,40.7965 L67.302,41.9371 M72.7395,36.0465 C72.6145,36.0465 72.2968,36.1402 71.7864,36.3277 C71.7551,36.3382 71.7343,36.3486 71.7239,36.359 L71.7239,36.0465 L74.7395,34.734 L74.9426,34.734 L74.9426,41.5621 C74.9426,42.0517 75.0416,42.3642 75.2395,42.4996 C75.4166,42.6246 75.7499,42.6923 76.2395,42.7027 L76.2395,42.984 L71.7395,42.984 L71.7395,42.7027 C72.3957,42.6923 72.8072,42.5882 72.9739,42.3902 C73.1093,42.2236 73.177,41.9267 73.177,41.4996 L73.177,36.8746 C73.1666,36.333 73.0207,36.0569 72.7395,36.0465 M81.1926,41.1402 C81.1926,40.2861 80.776,39.6298 79.9426,39.1715 C79.651,39.0152 79.2603,38.8486 78.7707,38.6715 L78.7707,38.4684 C79.5624,38.2184 80.0468,37.8902 80.2239,37.484 C80.2968,37.2965 80.3332,37.0934 80.3332,36.8746 C80.3332,36.2705 80.0989,35.8746 79.6301,35.6871 C79.4739,35.635 79.302,35.609 79.1145,35.609 C78.6353,35.609 78.2291,35.8225 77.8957,36.2496 C77.8124,36.3642 77.7291,36.4944 77.6457,36.6402 L77.3801,36.484 C78.0468,35.3277 78.9635,34.7444 80.1301,34.734 C81.0468,34.734 81.651,35.0361 81.9426,35.6402 C82.0364,35.8486 82.0832,36.083 82.0832,36.3434 C82.0832,36.8121 81.9374,37.1819 81.6457,37.4527 C81.4999,37.5777 81.3176,37.708 81.0989,37.8434 C82.0572,38.3017 82.5416,39.0205 82.552,39.9996 C82.552,40.9059 82.1874,41.6663 81.4582,42.2809 C80.7707,42.8642 79.9426,43.1559 78.9739,43.1559 C78.1405,43.1559 77.578,42.9527 77.2864,42.5465 C77.1822,42.4007 77.1301,42.2444 77.1301,42.0777 C77.1301,41.7652 77.2812,41.5517 77.5832,41.4371 C77.6874,41.3955 77.7968,41.3746 77.9114,41.3746 C78.2343,41.3746 78.5832,41.5569 78.9582,41.9215 C79.2916,42.2444 79.5207,42.4371 79.6457,42.4996 C79.7812,42.5621 79.9062,42.5934 80.0207,42.5934 C80.5416,42.5934 80.8957,42.333 81.0832,41.8121 C81.1562,41.6142 81.1926,41.3902 81.1926,41.1402 M83.2239,38.9059 C83.2239,37.5934 83.5364,36.5309 84.1614,35.7184 C84.6718,35.0725 85.2655,34.7444 85.9426,34.734 C86.7239,34.734 87.3697,35.1402 87.8801,35.9527 C88.3905,36.7652 88.6457,37.76 88.6457,38.9371 C88.6457,40.3121 88.328,41.4059 87.6926,42.2184 C87.1926,42.8225 86.6145,43.1298 85.9582,43.1402 C85.1249,43.1402 84.453,42.7132 83.9426,41.859 C83.4635,41.0673 83.2239,40.083 83.2239,38.9059 M85.9582,42.7965 C86.3124,42.7965 86.5468,42.4736 86.6614,41.8277 C86.7239,41.4423 86.7551,40.9423 86.7551,40.3277 L86.7551,37.5777 C86.7551,36.1402 86.5624,35.3225 86.177,35.1246 C86.1041,35.083 86.0207,35.0621 85.927,35.0621 C85.5624,35.0621 85.3228,35.3955 85.2082,36.0621 C85.1562,36.4371 85.1301,36.9423 85.1301,37.5777 L85.1301,40.3277 C85.1301,41.6819 85.2968,42.4736 85.6301,42.7027 C85.7239,42.7652 85.8332,42.7965 85.9582,42.7965"/>
<path class="StaffText" d="M67.8892,51.3362 L67.8892,51.5237 C67.6183,51.5341 67.4308,51.6071 67.3267,51.7425 C67.2329,51.8675 67.1131,52.1018 66.9673,52.4456 L64.7485,58.055 L64.6079,58.055 L62.1392,52.5706 C61.91,52.0393 61.7069,51.7268 61.5298,51.6331 C61.4152,51.5602 61.2642,51.5237 61.0767,51.5237 L61.0767,51.3362 L63.7485,51.3362 L63.7485,51.5237 C63.561,51.5341 63.4621,51.5393 63.4517,51.5393 C63.1496,51.5706 62.9985,51.6748 62.9985,51.8518 C62.9985,51.9977 63.134,52.3675 63.4048,52.9612 L64.9048,56.3362 L66.3735,52.6643 C66.509,52.3518 66.5767,52.1123 66.5767,51.9456 C66.5767,51.7373 66.4569,51.6071 66.2173,51.555 C66.1131,51.5341 65.9881,51.5237 65.8423,51.5237 L65.8423,51.3362 L67.8892,51.3362 "/>
<path class="StaffText" d="M64.811,25.2057 C65.259,25.2057 65.759,25.3203 66.311,25.5495 C66.5506,25.6432 66.7225,25.6901 66.8267,25.6901 C66.9725,25.6901 67.1027,25.5807 67.2173,25.362 C67.2277,25.3203 67.2433,25.2787 67.2642,25.237 L67.5298,25.237 L67.5298,27.5807 L67.2798,27.5807 C67.009,26.9766 66.7277,26.5339 66.436,26.2526 C66.3735,26.1901 66.3162,26.138 66.2642,26.0964 C65.8371,25.7214 65.3944,25.5339 64.936,25.5339 C63.936,25.5339 63.3423,26.2526 63.1548,27.6901 C63.1235,28.013 63.1079,28.362 63.1079,28.737 C63.1079,29.9245 63.3215,30.7943 63.7485,31.3464 C64.0819,31.763 64.5402,31.9714 65.1235,31.9714 C65.686,31.9714 66.0037,31.7943 66.0767,31.4401 C66.0871,31.3776 66.0923,31.3099 66.0923,31.237 L66.0923,30.1901 C66.0923,29.8985 66.0194,29.711 65.8735,29.6276 C65.7277,29.5547 65.4621,29.5078 65.0767,29.487 L65.0767,29.237 L68.5142,29.237 L68.5142,29.487 C68.1079,29.5287 67.8579,29.6172 67.7642,29.7526 C67.6912,29.8672 67.6548,30.086 67.6548,30.4089 L67.6548,31.6745 C67.061,32.0287 66.2746,32.237 65.2954,32.2995 C65.16,32.2995 65.0246,32.2995 64.8892,32.2995 C63.7746,32.2995 62.884,31.9401 62.2173,31.2214 C61.6235,30.5755 61.3267,29.7682 61.3267,28.7995 C61.3267,27.7578 61.6704,26.8932 62.3579,26.2057 C63.0246,25.5391 63.8423,25.2057 64.811,25.2057 M72.5767,28.8307 C72.3579,28.8307 72.1444,28.711 71.936,28.4714 C71.8215,28.3255 71.7381,28.2474 71.686,28.237 C71.4673,28.237 71.3006,28.388 71.186,28.6901 C71.1131,28.8464 71.0767,29.013 71.0767,29.1901 L71.0767,31.0807 C71.0767,31.4453 71.1496,31.6693 71.2954,31.7526 C71.3892,31.8151 71.561,31.8568 71.811,31.8776 L71.811,32.112 L69.1704,32.112 L69.1704,31.8776 C69.4412,31.8255 69.6027,31.7318 69.6548,31.5964 C69.6756,31.5235 69.686,31.4141 69.686,31.2682 L69.686,28.3307 C69.686,28.0703 69.6131,27.9037 69.4673,27.8307 C69.3944,27.7891 69.2954,27.7578 69.1704,27.737 L69.1704,27.5026 L71.0454,27.5026 L71.0454,28.3307 C71.4204,27.7787 71.7902,27.4714 72.1548,27.4089 C72.2381,27.388 72.3162,27.3776 72.3892,27.3776 C72.7329,27.3776 72.9777,27.5182 73.1235,27.7995 C73.1756,27.9141 73.2017,28.0339 73.2017,28.1589 C73.2017,28.4714 73.0767,28.6797 72.8267,28.7839 C72.7433,28.8151 72.66,28.8307 72.5767,28.8307 M74.4517,28.0807 C74.4517,28.112 74.5037,28.2057 74.6079,28.362 C74.7017,28.5078 74.7485,28.6328 74.7485,28.737 C74.7485,28.9974 74.6183,29.1745 74.3579,29.2682 C74.2642,29.2995 74.1704,29.3151 74.0767,29.3151 C73.7121,29.3151 73.4985,29.1537 73.436,28.8307 C73.4256,28.7682 73.4204,28.711 73.4204,28.6589 C73.4204,28.1901 73.6756,27.8412 74.186,27.612 C74.509,27.4557 74.884,27.3776 75.311,27.3776 C76.186,27.3776 76.785,27.6172 77.1079,28.0964 C77.2329,28.2943 77.2954,28.5182 77.2954,28.7682 L77.2954,31.3464 C77.3058,31.5026 77.3735,31.586 77.4985,31.5964 C77.5506,31.586 77.5871,31.5703 77.6079,31.5495 L77.7173,31.4557 L77.8579,31.6589 C77.4621,32.0339 77.0923,32.2318 76.7485,32.2526 C76.3735,32.2526 76.1287,32.112 76.0142,31.8307 C75.9829,31.737 75.9517,31.638 75.9204,31.5339 C75.3787,32.0026 74.8527,32.2422 74.3423,32.2526 C73.9048,32.2526 73.5871,32.086 73.3892,31.7526 C73.285,31.586 73.2329,31.4037 73.2329,31.2057 C73.2329,30.6224 73.6808,30.1485 74.5767,29.7839 C74.8162,29.6797 75.2642,29.5287 75.9204,29.3307 L75.9204,28.5964 C75.9204,28.0651 75.7017,27.7735 75.2642,27.7214 C75.2017,27.7214 75.1392,27.7214 75.0767,27.7214 C74.785,27.7214 74.5871,27.8047 74.4829,27.9714 C74.4621,28.0026 74.4517,28.0391 74.4517,28.0807 M75.9048,31.0964 L75.9048,29.6589 C75.1027,29.8776 74.6965,30.2787 74.686,30.862 C74.686,31.1953 74.7954,31.4037 75.0142,31.487 C75.0767,31.5078 75.1392,31.5182 75.2017,31.5182 C75.4308,31.5182 75.6652,31.3776 75.9048,31.0964 M81.3735,32.237 L81.3735,31.5964 C81.0194,31.9714 80.6756,32.1849 80.3423,32.237 C80.2485,32.2474 80.1496,32.2526 80.0454,32.2526 C79.4517,32.2526 78.9829,31.9766 78.6392,31.4245 C78.3683,30.9974 78.2329,30.4922 78.2329,29.9089 C78.2329,29.0547 78.4777,28.3828 78.9673,27.8932 C79.3006,27.5495 79.6965,27.3776 80.1548,27.3776 C80.509,27.3776 80.8319,27.513 81.1235,27.7839 C81.2069,27.8568 81.2798,27.9245 81.3423,27.987 L81.3423,26.1745 C81.3423,25.9245 81.285,25.7682 81.1704,25.7057 C81.0662,25.6537 80.8683,25.6172 80.5767,25.5964 L80.5767,25.362 L82.7329,25.362 L82.7329,31.112 C82.7329,31.3932 82.8162,31.5651 82.9829,31.6276 C83.0662,31.6589 83.1808,31.6797 83.3267,31.6901 L83.3267,31.9245 L82.7017,32.0026 C82.1496,32.0755 81.7069,32.1537 81.3735,32.237 M80.4985,31.7057 C80.7902,31.7057 81.0402,31.5391 81.2485,31.2057 C81.3006,31.112 81.3319,31.0443 81.3423,31.0026 L81.3423,28.5495 C81.2173,28.2162 81.009,28.0182 80.7173,27.9557 C80.6652,27.9453 80.6131,27.9401 80.561,27.9401 C80.0506,27.9401 79.7694,28.4453 79.7173,29.4557 C79.7173,29.5703 79.7173,29.6953 79.7173,29.8307 C79.7173,31.0703 79.9777,31.6953 80.4985,31.7057 M85.6704,29.6589 C85.7225,30.6797 85.9881,31.2787 86.4673,31.4557 C86.5923,31.4974 86.7225,31.5182 86.8579,31.5182 C87.2225,31.5182 87.5558,31.3516 87.8579,31.0182 C87.91,30.9662 87.9569,30.9141 87.9985,30.862 L88.2329,31.0026 C87.8162,31.6068 87.4048,31.987 86.9985,32.1432 C86.7902,32.2162 86.5558,32.2526 86.2954,32.2526 C85.5454,32.2526 84.9829,31.9453 84.6079,31.3307 C84.3579,30.9141 84.2329,30.4141 84.2329,29.8307 C84.2329,28.9349 84.5037,28.263 85.0454,27.8151 C85.41,27.5235 85.8371,27.3776 86.3267,27.3776 C87.4308,27.3776 88.0506,28.0964 88.186,29.5339 C88.186,29.5755 88.186,29.6172 88.186,29.6589 L85.6704,29.6589 M86.9673,29.1432 C86.9465,28.5182 86.8787,28.1224 86.7642,27.9557 C86.6704,27.7995 86.5246,27.7214 86.3267,27.7214 C86.035,27.7214 85.8371,27.8932 85.7329,28.237 C85.6704,28.4766 85.634,28.8307 85.6235,29.2995 L86.9673,29.2995 L86.9673,29.1432 M91.8267,30.7057 C92.0662,30.7057 92.3787,30.8412 92.7642,31.112 C93.1392,31.3516 93.41,31.487 93.5767,31.5182 C93.6287,31.5287 93.6756,31.5339 93.7173,31.5339 C94.0819,31.5339 94.3631,31.3776 94.561,31.0651 C94.6652,30.9089 94.7173,30.737 94.7173,30.5495 C94.7173,30.0391 94.4308,29.6276 93.8579,29.3151 C93.6912,29.2214 93.5037,29.138 93.2954,29.0651 C92.91,28.9505 92.311,28.862 91.4985,28.7995 L92.4673,25.362 L95.686,25.362 L95.2485,26.6276 L92.4673,26.6276 L92.2485,27.4401 C92.9465,27.4818 93.4517,27.5443 93.7642,27.6276 C94.5558,27.8568 95.0819,28.2995 95.3423,28.9557 C95.436,29.2162 95.4829,29.4922 95.4829,29.7839 C95.4829,30.5547 95.1756,31.1693 94.561,31.6276 C94.0402,32.0026 93.41,32.1901 92.6704,32.1901 C91.9933,32.1901 91.5402,32.0182 91.311,31.6745 C91.2381,31.5703 91.2017,31.4505 91.2017,31.3151 C91.2017,31.0443 91.3215,30.862 91.561,30.7682 C91.6444,30.7266 91.7329,30.7057 91.8267,30.7057 M97.6392,30.5495 C97.9621,30.5495 98.2069,30.6901 98.3735,30.9714 C98.4569,31.1172 98.4985,31.263 98.4985,31.4089 C98.4985,31.7214 98.3579,31.961 98.0767,32.1276 C97.9308,32.2005 97.785,32.237 97.6392,32.237 C97.3058,32.237 97.061,32.0964 96.9048,31.8151 C96.8319,31.6797 96.7954,31.5391 96.7954,31.3932 C96.7954,31.0912 96.9308,30.8568 97.2017,30.6901 C97.3371,30.5964 97.4829,30.5495 97.6392,30.5495 M97.6392,27.3932 C97.9621,27.3932 98.2069,27.5287 98.3735,27.7995 C98.4569,27.9453 98.4985,28.0912 98.4985,28.237 C98.4985,28.5599 98.3579,28.8047 98.0767,28.9714 C97.9412,29.0443 97.7954,29.0807 97.6392,29.0807 C97.3058,29.0807 97.061,28.9349 96.9048,28.6432 C96.8319,28.5078 96.7954,28.3672 96.7954,28.2214 C96.7954,27.9193 96.9308,27.6849 97.2017,27.5182 C97.3371,27.4349 97.4829,27.3932 97.6392,27.3932"/>
<path class="StaffText" d="M109.045,31.9245 L109.045,32.112 L106.483,32.112 L106.483,31.9245 C106.9,31.9141 107.129,31.8412 107.17,31.7057 C107.181,31.6641 107.186,31.6224 107.186,31.5807 C107.186,31.4245 107.124,31.2057 106.999,30.9245 L106.592,29.987 L103.967,29.987 L103.514,31.1276 C103.462,31.2735 103.436,31.4037 103.436,31.5182 C103.446,31.7787 103.67,31.9141 104.108,31.9245 L104.108,32.112 L102.139,32.112 L102.139,31.9245 C102.379,31.9141 102.561,31.8307 102.686,31.6745 C102.832,31.4766 103.061,31.013 103.374,30.2839 L105.452,25.3776 L105.655,25.3776 L108.139,31.0495 C108.337,31.487 108.504,31.7474 108.639,31.8307 C108.733,31.8828 108.868,31.9141 109.045,31.9245 M104.139,29.5495 L106.452,29.5495 L105.295,26.7995 L104.139,29.5495 M112.108,28.1589 L112.108,27.987 C112.587,27.8412 113.056,27.6849 113.514,27.5182 L113.577,27.5339 L113.577,28.2995 C114.15,27.862 114.561,27.612 114.811,27.5495 C114.915,27.5287 115.019,27.5182 115.124,27.5182 C115.655,27.5287 116.009,27.8151 116.186,28.3776 C116.717,27.8047 117.264,27.5182 117.827,27.5182 C118.587,27.5287 118.972,28.1276 118.983,29.3151 L118.983,31.362 C118.993,31.7266 119.134,31.9193 119.405,31.9401 L119.67,31.9557 L119.67,32.112 L117.483,32.112 L117.483,31.9557 C117.806,31.9245 117.999,31.8516 118.061,31.737 C118.113,31.6432 118.139,31.4818 118.139,31.2526 L118.139,29.1432 C118.139,28.5912 118.03,28.2578 117.811,28.1432 C117.707,28.0807 117.566,28.0495 117.389,28.0495 C116.941,28.0599 116.577,28.263 116.295,28.6589 L116.295,31.1745 C116.295,31.5495 116.384,31.7839 116.561,31.8776 C116.665,31.9297 116.816,31.9557 117.014,31.9557 L117.014,32.112 L114.78,32.112 L114.78,31.9557 C115.103,31.9349 115.301,31.862 115.374,31.737 C115.436,31.6432 115.467,31.4818 115.467,31.2526 L115.467,29.0964 C115.467,28.3985 115.243,28.0495 114.795,28.0495 C114.431,28.0495 114.108,28.1693 113.827,28.4089 C113.754,28.4818 113.686,28.5599 113.624,28.6432 L113.624,31.4401 C113.624,31.6901 113.712,31.8464 113.889,31.9089 C113.983,31.9401 114.118,31.9557 114.295,31.9557 L114.295,32.112 L112.077,32.112 L112.077,31.9557 C112.431,31.9557 112.644,31.8724 112.717,31.7057 C112.759,31.6016 112.78,31.4557 112.78,31.2682 L112.78,28.7526 C112.78,28.3776 112.702,28.1693 112.545,28.1276 C112.514,28.1172 112.478,28.112 112.436,28.112 C112.332,28.112 112.222,28.1276 112.108,28.1589 M120.608,28.1901 C120.452,28.1901 120.311,28.2005 120.186,28.2214 L120.186,28.0651 C120.655,27.9297 121.17,27.7474 121.733,27.5182 L121.764,27.5495 L121.764,31.0964 C121.764,31.4818 121.821,31.7214 121.936,31.8151 C122.03,31.888 122.222,31.9349 122.514,31.9557 L122.514,32.112 L120.139,32.112 L120.139,31.9557 C120.504,31.9349 120.733,31.8672 120.827,31.7526 C120.9,31.638 120.936,31.4193 120.936,31.0964 L120.936,28.7682 C120.936,28.4141 120.853,28.2214 120.686,28.1901 C120.655,28.1901 120.629,28.1901 120.608,28.1901 M121.264,25.2839 C121.483,25.2839 121.639,25.3828 121.733,25.5807 C121.764,25.6537 121.78,25.7266 121.78,25.7995 C121.78,26.0182 121.676,26.1745 121.467,26.2682 C121.394,26.2891 121.327,26.2995 121.264,26.2995 C121.045,26.2995 120.889,26.2005 120.795,26.0026 C120.775,25.9297 120.764,25.862 120.764,25.7995 C120.764,25.5807 120.858,25.4245 121.045,25.3307 C121.118,25.2995 121.191,25.2839 121.264,25.2839 M123.077,28.1276 L123.077,27.9557 C123.577,27.8099 124.04,27.6641 124.467,27.5182 L124.53,27.5339 L124.53,28.3151 C125.009,27.8776 125.384,27.6224 125.655,27.5495 C125.759,27.5287 125.868,27.5182 125.983,27.5182 C126.525,27.5182 126.884,27.7891 127.061,28.3307 C127.124,28.5287 127.155,28.7526 127.155,29.0026 L127.155,31.2995 C127.155,31.612 127.228,31.8047 127.374,31.8776 C127.467,31.9089 127.597,31.9349 127.764,31.9557 L127.764,32.112 L125.686,32.112 L125.686,31.9557 C125.988,31.9349 126.176,31.836 126.249,31.6589 C126.301,31.5443 126.327,31.3672 126.327,31.1276 L126.327,29.0339 C126.306,28.388 126.061,28.0599 125.592,28.0495 C125.342,28.0495 125.082,28.1641 124.811,28.3932 C124.738,28.4662 124.655,28.5443 124.561,28.6276 L124.561,31.4401 C124.561,31.6797 124.66,31.836 124.858,31.9089 C124.952,31.9297 125.071,31.9453 125.217,31.9557 L125.217,32.112 L123.108,32.112 L123.108,31.9557 C123.4,31.9349 123.582,31.8516 123.655,31.7057 C123.696,31.5912 123.717,31.4245 123.717,31.2057 L123.717,28.7214 C123.717,28.3568 123.644,28.1537 123.499,28.112 C123.457,28.0912 123.41,28.0807 123.358,28.0807 C123.233,28.0807 123.139,28.0964 123.077,28.1276 M130.436,27.5182 C131.176,27.5182 131.759,27.7891 132.186,28.3307 C132.488,28.737 132.639,29.2162 132.639,29.7682 C132.639,30.5495 132.384,31.1745 131.874,31.6432 C131.457,32.0182 130.972,32.2057 130.42,32.2057 C129.712,32.2057 129.15,31.9349 128.733,31.3932 C128.4,30.9557 128.233,30.4401 128.233,29.8464 C128.233,29.0339 128.509,28.4089 129.061,27.9714 C129.446,27.6693 129.905,27.5182 130.436,27.5182 M129.139,29.362 C129.139,30.2682 129.327,30.961 129.702,31.4401 C129.941,31.7526 130.222,31.9089 130.545,31.9089 C131.066,31.9089 131.426,31.612 131.624,31.0182 C131.707,30.7578 131.749,30.461 131.749,30.1276 C131.749,29.2422 131.535,28.586 131.108,28.1589 C130.879,27.9297 130.613,27.8151 130.311,27.8151 C129.842,27.8151 129.504,28.0547 129.295,28.5339 C129.191,28.7735 129.139,29.0495 129.139,29.362 M135.999,28.487 C135.894,28.487 135.743,28.4037 135.545,28.237 C135.452,28.1537 135.379,28.112 135.327,28.112 C135.16,28.112 134.988,28.2422 134.811,28.5026 C134.696,28.6693 134.639,28.8151 134.639,28.9401 L134.639,31.2057 C134.639,31.5495 134.728,31.763 134.905,31.8464 C135.03,31.9089 135.222,31.9453 135.483,31.9557 L135.483,32.112 L133.077,32.112 L133.077,31.9557 C133.431,31.8932 133.644,31.8099 133.717,31.7057 C133.769,31.6224 133.795,31.4766 133.795,31.2682 L133.795,28.7526 C133.795,28.388 133.712,28.1901 133.545,28.1589 C133.514,28.1485 133.483,28.1432 133.452,28.1432 C133.337,28.1432 133.222,28.1589 133.108,28.1901 L133.108,28.0339 C133.639,27.8672 134.129,27.6953 134.577,27.5182 L134.639,27.5339 L134.639,28.4245 C134.983,27.9453 135.275,27.6589 135.514,27.5651 C135.618,27.5339 135.722,27.5182 135.827,27.5182 C136.139,27.5182 136.321,27.6485 136.374,27.9089 C136.374,27.9505 136.374,27.9974 136.374,28.0495 C136.342,28.3203 136.217,28.4662 135.999,28.487 M139.233,31.1432 C139.233,30.6328 139.551,30.2005 140.186,29.8464 C140.374,29.7526 140.874,29.5391 141.686,29.2057 C141.707,29.2057 141.722,29.2005 141.733,29.1901 L141.733,28.5807 C141.681,28.0599 141.426,27.7839 140.967,27.7526 C140.655,27.7526 140.436,27.8516 140.311,28.0495 C140.269,28.1224 140.249,28.1849 140.249,28.237 C140.249,28.2995 140.259,28.3828 140.28,28.487 C140.29,28.5599 140.295,28.612 140.295,28.6432 C140.295,28.8203 140.207,28.9453 140.03,29.0182 C139.967,29.0495 139.91,29.0651 139.858,29.0651 C139.67,29.0651 139.54,28.9766 139.467,28.7995 C139.436,28.7474 139.42,28.6901 139.42,28.6276 C139.42,28.263 139.639,27.9662 140.077,27.737 C140.379,27.5912 140.722,27.5182 141.108,27.5182 C141.827,27.5182 142.269,27.7735 142.436,28.2839 C142.509,28.5026 142.545,28.7787 142.545,29.112 L142.545,31.0495 C142.545,31.3828 142.608,31.5703 142.733,31.612 C142.775,31.6224 142.811,31.6276 142.842,31.6276 C142.988,31.6172 143.134,31.5547 143.28,31.4401 L143.28,31.6901 C143.009,32.0026 142.759,32.1745 142.53,32.2057 C142.478,32.2057 142.426,32.2057 142.374,32.2057 C142.061,32.2057 141.863,32.0495 141.78,31.737 C141.759,31.6537 141.749,31.5599 141.749,31.4557 C141.155,31.9349 140.665,32.1849 140.28,32.2057 C139.853,32.2057 139.545,32.0339 139.358,31.6901 C139.275,31.5235 139.233,31.3412 139.233,31.1432 M141.733,30.862 L141.733,29.4245 C140.91,29.7266 140.405,30.0339 140.217,30.3464 C140.144,30.4922 140.108,30.6485 140.108,30.8151 C140.108,31.211 140.254,31.461 140.545,31.5651 C140.618,31.5964 140.686,31.612 140.749,31.612 C140.967,31.6016 141.207,31.5235 141.467,31.3776 C141.613,31.2943 141.696,31.1901 141.717,31.0651 C141.728,31.0026 141.733,30.9349 141.733,30.862 M145.999,28.487 C145.894,28.487 145.743,28.4037 145.545,28.237 C145.452,28.1537 145.379,28.112 145.327,28.112 C145.16,28.112 144.988,28.2422 144.811,28.5026 C144.696,28.6693 144.639,28.8151 144.639,28.9401 L144.639,31.2057 C144.639,31.5495 144.728,31.763 144.905,31.8464 C145.03,31.9089 145.222,31.9453 145.483,31.9557 L145.483,32.112 L143.077,32.112 L143.077,31.9557 C143.431,31.8932 143.644,31.8099 143.717,31.7057 C143.769,31.6224 143.795,31.4766 143.795,31.2682 L143.795,28.7526 C143.795,28.388 143.712,28.1901 143.545,28.1589 C143.514,28.1485 143.483,28.1432 143.452,28.1432 C143.337,28.1432 143.222,28.1589 143.108,28.1901 L143.108,28.0339 C143.639,27.8672 144.129,27.6953 144.577,27.5182 L144.639,27.5339 L144.639,28.4245 C144.983,27.9453 145.275,27.6589 145.514,27.5651 C145.618,27.5339 145.722,27.5182 145.827,27.5182 C146.139,27.5182 146.321,27.6485 146.374,27.9089 C146.374,27.9505 146.374,27.9974 146.374,28.0495 C146.342,28.3203 146.217,28.4662 145.999,28.487 M146.124,28.1901 L146.124,28.0182 C146.551,27.8932 147.03,27.7266 147.561,27.5182 L147.624,27.5339 L147.624,28.2995 C148.051,27.7787 148.53,27.5182 149.061,27.5182 C149.624,27.5182 150.066,27.7787 150.389,28.2995 C150.618,28.6849 150.733,29.1328 150.733,29.6432 C150.733,30.4557 150.483,31.1172 149.983,31.6276 C149.597,32.013 149.15,32.2057 148.639,32.2057 C148.306,32.2057 148.014,32.1068 147.764,31.9089 C147.712,31.8776 147.665,31.8412 147.624,31.7995 L147.624,33.362 C147.624,33.7057 147.691,33.9141 147.827,33.987 C147.952,34.0599 148.176,34.0964 148.499,34.0964 L148.499,34.2839 L146.077,34.2839 L146.077,34.112 C146.431,34.0807 146.644,33.9974 146.717,33.862 C146.759,33.7682 146.78,33.6224 146.78,33.4245 L146.78,28.737 C146.78,28.4453 146.728,28.2735 146.624,28.2214 C146.561,28.1901 146.478,28.1745 146.374,28.1745 C146.259,28.1745 146.176,28.1797 146.124,28.1901 M147.624,28.7839 L147.624,31.2526 C147.624,31.4297 147.769,31.5964 148.061,31.7526 C148.269,31.8568 148.467,31.9089 148.655,31.9089 C149.113,31.9089 149.452,31.6537 149.67,31.1432 C149.806,30.8203 149.874,30.4557 149.874,30.0495 C149.874,29.2266 149.665,28.6537 149.249,28.3307 C149.071,28.1849 148.868,28.112 148.639,28.112 C148.337,28.112 148.066,28.2214 147.827,28.4401 C147.702,28.5547 147.634,28.6693 147.624,28.7839 M151.952,29.3464 C151.993,30.5235 152.379,31.2162 153.108,31.4245 C153.233,31.4662 153.368,31.487 153.514,31.487 C154.004,31.487 154.42,31.2787 154.764,30.862 C154.858,30.7474 154.957,30.612 155.061,30.4557 L155.217,30.5182 C154.853,31.4766 154.28,32.0287 153.499,32.1745 C153.363,32.1953 153.233,32.2057 153.108,32.2057 C152.368,32.2057 151.837,31.8932 151.514,31.2682 C151.327,30.8932 151.233,30.461 151.233,29.9714 C151.233,29.086 151.509,28.4141 152.061,27.9557 C152.426,27.6641 152.847,27.5182 153.327,27.5182 C154.243,27.5182 154.795,28.0391 154.983,29.0807 C155.004,29.1745 155.019,29.263 155.03,29.3464 L151.952,29.3464 M151.967,29.0495 L154.014,29.0495 C153.92,28.4766 153.754,28.1224 153.514,27.987 C153.389,27.9245 153.228,27.8932 153.03,27.8932 C152.436,27.8932 152.082,28.2682 151.967,29.0182 C151.967,29.0287 151.967,29.0391 151.967,29.0495 M155.577,31.5339 C155.577,31.3985 155.655,31.2526 155.811,31.0964 C155.905,31.0026 156.124,30.7995 156.467,30.487 C155.967,30.2266 155.67,29.8985 155.577,29.5026 C155.556,29.388 155.545,29.2682 155.545,29.1432 C155.545,28.612 155.759,28.1849 156.186,27.862 C156.488,27.6328 156.832,27.5182 157.217,27.5182 C157.467,27.5182 157.775,27.586 158.139,27.7214 C158.379,27.8047 158.592,27.8464 158.78,27.8464 L159.545,27.8464 L159.545,28.2214 L158.717,28.2214 C158.842,28.513 158.905,28.7943 158.905,29.0651 C158.905,29.638 158.681,30.0703 158.233,30.362 C157.962,30.5391 157.67,30.6276 157.358,30.6276 C157.264,30.6276 157.071,30.6068 156.78,30.5651 C156.582,30.6276 156.415,30.7682 156.28,30.987 C156.217,31.0703 156.186,31.1432 156.186,31.2057 C156.186,31.362 156.436,31.4505 156.936,31.4714 C156.946,31.4714 156.957,31.4714 156.967,31.4714 L158.249,31.5339 C158.801,31.5443 159.17,31.7474 159.358,32.1432 C159.431,32.2787 159.467,32.4297 159.467,32.5964 C159.467,33.0964 159.155,33.5235 158.53,33.8776 C158.019,34.1485 157.462,34.2839 156.858,34.2839 C156.233,34.2839 155.749,34.1328 155.405,33.8307 C155.228,33.6641 155.139,33.487 155.139,33.2995 C155.139,33.0078 155.353,32.6797 155.78,32.3151 C155.884,32.2318 155.993,32.1432 156.108,32.0495 C155.806,31.9141 155.634,31.7787 155.592,31.6432 C155.582,31.612 155.577,31.5755 155.577,31.5339 M156.327,32.0807 C156.025,32.4557 155.863,32.7162 155.842,32.862 C155.832,32.9037 155.827,32.9453 155.827,32.987 C155.827,33.2891 156.051,33.5078 156.499,33.6432 C156.728,33.7162 156.993,33.7526 157.295,33.7526 C158.129,33.7526 158.696,33.5703 158.999,33.2057 C159.124,33.0495 159.186,32.888 159.186,32.7214 C159.186,32.4714 159.019,32.3151 158.686,32.2526 C158.499,32.2214 158.249,32.2057 157.936,32.2057 C157.269,32.2057 156.733,32.1641 156.327,32.0807 M158.139,29.4714 C158.139,29.0443 158.051,28.6641 157.874,28.3307 C157.676,27.9974 157.42,27.8255 157.108,27.8151 C156.733,27.8151 156.499,28.013 156.405,28.4089 C156.384,28.513 156.374,28.6276 156.374,28.7526 C156.374,29.5547 156.597,30.0651 157.045,30.2839 C157.16,30.3464 157.275,30.3776 157.389,30.3776 C157.754,30.3776 157.988,30.1953 158.092,29.8307 C158.124,29.7162 158.139,29.5964 158.139,29.4714 M160.577,31.5339 C160.577,31.3985 160.655,31.2526 160.811,31.0964 C160.905,31.0026 161.124,30.7995 161.467,30.487 C160.967,30.2266 160.67,29.8985 160.577,29.5026 C160.556,29.388 160.545,29.2682 160.545,29.1432 C160.545,28.612 160.759,28.1849 161.186,27.862 C161.488,27.6328 161.832,27.5182 162.217,27.5182 C162.467,27.5182 162.775,27.586 163.139,27.7214 C163.379,27.8047 163.592,27.8464 163.78,27.8464 L164.545,27.8464 L164.545,28.2214 L163.717,28.2214 C163.842,28.513 163.905,28.7943 163.905,29.0651 C163.905,29.638 163.681,30.0703 163.233,30.362 C162.962,30.5391 162.67,30.6276 162.358,30.6276 C162.264,30.6276 162.071,30.6068 161.78,30.5651 C161.582,30.6276 161.415,30.7682 161.28,30.987 C161.217,31.0703 161.186,31.1432 161.186,31.2057 C161.186,31.362 161.436,31.4505 161.936,31.4714 C161.946,31.4714 161.957,31.4714 161.967,31.4714 L163.249,31.5339 C163.801,31.5443 164.17,31.7474 164.358,32.1432 C164.431,32.2787 164.467,32.4297 164.467,32.5964 C164.467,33.0964 164.155,33.5235 163.53,33.8776 C163.019,34.1485 162.462,34.2839 161.858,34.2839 C161.233,34.2839 160.749,34.1328 160.405,33.8307 C160.228,33.6641 160.139,33.487 160.139,33.2995 C160.139,33.0078 160.353,32.6797 160.78,32.3151 C160.884,32.2318 160.993,32.1432 161.108,32.0495 C160.806,31.9141 160.634,31.7787 160.592,31.6432 C160.582,31.612 160.577,31.5755 160.577,31.5339 M161.327,32.0807 C161.025,32.4557 160.863,32.7162 160.842,32.862 C160.832,32.9037 160.827,32.9453 160.827,32.987 C160.827,33.2891 161.051,33.5078 161.499,33.6432 C161.728,33.7162 161.993,33.7526 162.295,33.7526 C163.129,33.7526 163.696,33.5703 163.999,33.2057 C164.124,33.0495 164.186,32.888 164.186,32.7214 C164.186,32.4714 164.019,32.3151 163.686,32.2526 C163.499,32.2214 163.249,32.2057 162.936,32.2057 C162.269,32.2057 161.733,32.1641 161.327,32.0807 M163.139,29.4714 C163.139,29.0443 163.051,28.6641 162.874,28.3307 C162.676,27.9974 162.42,27.8255 162.108,27.8151 C161.733,27.8151 161.499,28.013 161.405,28.4089 C161.384,28.513 161.374,28.6276 161.374,28.7526 C161.374,29.5547 161.597,30.0651 162.045,30.2839 C162.16,30.3464 162.275,30.3776 162.389,30.3776 C162.754,30.3776 162.988,30.1953 163.092,29.8307 C163.124,29.7162 163.139,29.5964 163.139,29.4714 M165.608,28.1901 C165.452,28.1901 165.311,28.2005 165.186,28.2214 L165.186,28.0651 C165.655,27.9297 166.17,27.7474 166.733,27.5182 L166.764,27.5495 L166.764,31.0964 C166.764,31.4818 166.821,31.7214 166.936,31.8151 C167.03,31.888 167.222,31.9349 167.514,31.9557 L167.514,32.112 L165.139,32.112 L165.139,31.9557 C165.504,31.9349 165.733,31.8672 165.827,31.7526 C165.9,31.638 165.936,31.4193 165.936,31.0964 L165.936,28.7682 C165.936,28.4141 165.853,28.2214 165.686,28.1901 C165.655,28.1901 165.629,28.1901 165.608,28.1901 M166.264,25.2839 C166.483,25.2839 166.639,25.3828 166.733,25.5807 C166.764,25.6537 166.78,25.7266 166.78,25.7995 C166.78,26.0182 166.676,26.1745 166.467,26.2682 C166.394,26.2891 166.327,26.2995 166.264,26.2995 C166.045,26.2995 165.889,26.2005 165.795,26.0026 C165.775,25.9297 165.764,25.862 165.764,25.7995 C165.764,25.5807 165.858,25.4245 166.045,25.3307 C166.118,25.2995 166.191,25.2839 166.264,25.2839 M170.436,27.5182 C171.176,27.5182 171.759,27.7891 172.186,28.3307 C172.488,28.737 172.639,29.2162 172.639,29.7682 C172.639,30.5495 172.384,31.1745 171.874,31.6432 C171.457,32.0182 170.972,32.2057 170.42,32.2057 C169.712,32.2057 169.15,31.9349 168.733,31.3932 C168.4,30.9557 168.233,30.4401 168.233,29.8464 C168.233,29.0339 168.509,28.4089 169.061,27.9714 C169.446,27.6693 169.905,27.5182 170.436,27.5182 M169.139,29.362 C169.139,30.2682 169.327,30.961 169.702,31.4401 C169.941,31.7526 170.222,31.9089 170.545,31.9089 C171.066,31.9089 171.426,31.612 171.624,31.0182 C171.707,30.7578 171.749,30.461 171.749,30.1276 C171.749,29.2422 171.535,28.586 171.108,28.1589 C170.879,27.9297 170.613,27.8151 170.311,27.8151 C169.842,27.8151 169.504,28.0547 169.295,28.5339 C169.191,28.7735 169.139,29.0495 169.139,29.362 M178.577,27.612 L178.577,27.9089 L177.561,27.9089 L177.561,30.7682 C177.561,31.3099 177.696,31.6068 177.967,31.6589 C177.999,31.6693 178.035,31.6745 178.077,31.6745 C178.285,31.6641 178.488,31.5443 178.686,31.3151 L178.811,31.4401 C178.488,31.9505 178.087,32.2057 177.608,32.2057 C177.025,32.1953 176.728,31.7735 176.717,30.9401 L176.717,27.9089 L176.186,27.9089 C176.165,27.888 176.155,27.8672 176.155,27.8464 C176.155,27.8047 176.196,27.763 176.28,27.7214 C176.561,27.5339 176.894,27.1693 177.28,26.6276 C177.29,26.6172 177.295,26.612 177.295,26.612 C177.4,26.4557 177.467,26.362 177.499,26.3307 C177.54,26.3412 177.561,26.3828 177.561,26.4557 L177.561,27.612 L178.577,27.612 M182.327,29.0182 C182.118,28.3932 181.952,28.0235 181.827,27.9089 C181.733,27.836 181.603,27.7891 181.436,27.7682 L181.436,27.612 L183.467,27.612 L183.467,27.7682 C183.134,27.8099 182.946,27.8828 182.905,27.987 C182.894,28.0287 182.889,28.0755 182.889,28.1276 C182.889,28.211 182.941,28.3985 183.045,28.6901 L183.061,28.7057 L183.061,28.7214 L183.905,30.9557 L184.795,28.737 C184.91,28.4557 184.967,28.237 184.967,28.0807 C184.967,27.9557 184.889,27.8672 184.733,27.8151 C184.67,27.7943 184.603,27.7787 184.53,27.7682 L184.53,27.612 L185.764,27.612 L185.764,27.7682 C185.639,27.8099 185.545,27.8828 185.483,27.987 C185.452,28.0599 185.405,28.1641 185.342,28.2995 L183.967,31.7682 C183.832,32.0807 183.738,32.2422 183.686,32.2526 C183.644,32.2526 183.577,32.1432 183.483,31.9245 C183.472,31.8932 183.462,31.8568 183.452,31.8151 L182.545,29.4557 L181.42,31.862 C181.306,32.112 181.222,32.2422 181.17,32.2526 C181.118,32.2526 181.035,32.112 180.92,31.8307 C180.91,31.8203 180.905,31.8151 180.905,31.8151 L179.561,28.3932 C179.426,28.0495 179.301,27.8516 179.186,27.7995 C179.134,27.7787 179.082,27.7682 179.03,27.7682 L179.03,27.612 L180.827,27.612 L180.827,27.7682 C180.556,27.7995 180.41,27.8776 180.389,28.0026 C180.379,28.0339 180.374,28.0651 180.374,28.0964 C180.374,28.1901 180.394,28.2891 180.436,28.3932 L181.42,31.0026 L182.327,29.0182 M188.436,27.5182 C189.176,27.5182 189.759,27.7891 190.186,28.3307 C190.488,28.737 190.639,29.2162 190.639,29.7682 C190.639,30.5495 190.384,31.1745 189.874,31.6432 C189.457,32.0182 188.972,32.2057 188.42,32.2057 C187.712,32.2057 187.15,31.9349 186.733,31.3932 C186.4,30.9557 186.233,30.4401 186.233,29.8464 C186.233,29.0339 186.509,28.4089 187.061,27.9714 C187.446,27.6693 187.905,27.5182 188.436,27.5182 M187.139,29.362 C187.139,30.2682 187.327,30.961 187.702,31.4401 C187.941,31.7526 188.222,31.9089 188.545,31.9089 C189.066,31.9089 189.426,31.612 189.624,31.0182 C189.707,30.7578 189.749,30.461 189.749,30.1276 C189.749,29.2422 189.535,28.586 189.108,28.1589 C188.879,27.9297 188.613,27.8151 188.311,27.8151 C187.842,27.8151 187.504,28.0547 187.295,28.5339 C187.191,28.7735 187.139,29.0495 187.139,29.362 M196.436,27.5182 C197.176,27.5182 197.759,27.7891 198.186,28.3307 C198.488,28.737 198.639,29.2162 198.639,29.7682 C198.639,30.5495 198.384,31.1745 197.874,31.6432 C197.457,32.0182 196.972,32.2057 196.42,32.2057 C195.712,32.2057 195.15,31.9349 194.733,31.3932 C194.4,30.9557 194.233,30.4401 194.233,29.8464 C194.233,29.0339 194.509,28.4089 195.061,27.9714 C195.446,27.6693 195.905,27.5182 196.436,27.5182 M195.139,29.362 C195.139,30.2682 195.327,30.961 195.702,31.4401 C195.941,31.7526 196.222,31.9089 196.545,31.9089 C197.066,31.9089 197.426,31.612 197.624,31.0182 C197.707,30.7578 197.749,30.461 197.749,30.1276 C197.749,29.2422 197.535,28.586 197.108,28.1589 C196.879,27.9297 196.613,27.8151 196.311,27.8151 C195.842,27.8151 195.504,28.0547 195.295,28.5339 C195.191,28.7735 195.139,29.0495 195.139,29.362 M199.233,29.987 C199.233,29.1432 199.519,28.4818 200.092,28.0026 C200.488,27.6797 200.931,27.5182 201.42,27.5182 C201.972,27.5182 202.4,27.6693 202.702,27.9714 C202.879,28.1485 202.967,28.3412 202.967,28.5495 C202.967,28.7266 202.874,28.8516 202.686,28.9245 C202.613,28.9557 202.545,28.9714 202.483,28.9714 C202.275,28.9714 202.124,28.836 202.03,28.5651 C202.019,28.5443 202.014,28.5235 202.014,28.5026 L201.952,28.2839 C201.889,28.0339 201.775,27.888 201.608,27.8464 C201.535,27.8255 201.452,27.8151 201.358,27.8151 C200.858,27.8151 200.478,28.0547 200.217,28.5339 C200.071,28.8255 199.999,29.1641 199.999,29.5495 C199.999,30.2787 200.222,30.8255 200.67,31.1901 C200.931,31.388 201.222,31.487 201.545,31.487 C201.962,31.487 202.321,31.3203 202.624,30.987 C202.728,30.862 202.842,30.7162 202.967,30.5495 L203.108,30.6432 C202.733,31.362 202.316,31.8307 201.858,32.0495 C201.618,32.1537 201.379,32.2057 201.139,32.2057 C200.493,32.2057 199.988,31.9401 199.624,31.4089 C199.363,31.0026 199.233,30.5287 199.233,29.987 M205.577,27.612 L205.577,27.9089 L204.561,27.9089 L204.561,30.7682 C204.561,31.3099 204.696,31.6068 204.967,31.6589 C204.999,31.6693 205.035,31.6745 205.077,31.6745 C205.285,31.6641 205.488,31.5443 205.686,31.3151 L205.811,31.4401 C205.488,31.9505 205.087,32.2057 204.608,32.2057 C204.025,32.1953 203.728,31.7735 203.717,30.9401 L203.717,27.9089 L203.186,27.9089 C203.165,27.888 203.155,27.8672 203.155,27.8464 C203.155,27.8047 203.196,27.763 203.28,27.7214 C203.561,27.5339 203.894,27.1693 204.28,26.6276 C204.29,26.6172 204.295,26.612 204.295,26.612 C204.4,26.4557 204.467,26.362 204.499,26.3307 C204.54,26.3412 204.561,26.3828 204.561,26.4557 L204.561,27.612 L205.577,27.612 M206.233,31.1432 C206.233,30.6328 206.551,30.2005 207.186,29.8464 C207.374,29.7526 207.874,29.5391 208.686,29.2057 C208.707,29.2057 208.722,29.2005 208.733,29.1901 L208.733,28.5807 C208.681,28.0599 208.426,27.7839 207.967,27.7526 C207.655,27.7526 207.436,27.8516 207.311,28.0495 C207.269,28.1224 207.249,28.1849 207.249,28.237 C207.249,28.2995 207.259,28.3828 207.28,28.487 C207.29,28.5599 207.295,28.612 207.295,28.6432 C207.295,28.8203 207.207,28.9453 207.03,29.0182 C206.967,29.0495 206.91,29.0651 206.858,29.0651 C206.67,29.0651 206.54,28.9766 206.467,28.7995 C206.436,28.7474 206.42,28.6901 206.42,28.6276 C206.42,28.263 206.639,27.9662 207.077,27.737 C207.379,27.5912 207.722,27.5182 208.108,27.5182 C208.827,27.5182 209.269,27.7735 209.436,28.2839 C209.509,28.5026 209.545,28.7787 209.545,29.112 L209.545,31.0495 C209.545,31.3828 209.608,31.5703 209.733,31.612 C209.775,31.6224 209.811,31.6276 209.842,31.6276 C209.988,31.6172 210.134,31.5547 210.28,31.4401 L210.28,31.6901 C210.009,32.0026 209.759,32.1745 209.53,32.2057 C209.478,32.2057 209.426,32.2057 209.374,32.2057 C209.061,32.2057 208.863,32.0495 208.78,31.737 C208.759,31.6537 208.749,31.5599 208.749,31.4557 C208.155,31.9349 207.665,32.1849 207.28,32.2057 C206.853,32.2057 206.545,32.0339 206.358,31.6901 C206.275,31.5235 206.233,31.3412 206.233,31.1432 M208.733,30.862 L208.733,29.4245 C207.91,29.7266 207.405,30.0339 207.217,30.3464 C207.144,30.4922 207.108,30.6485 207.108,30.8151 C207.108,31.211 207.254,31.461 207.545,31.5651 C207.618,31.5964 207.686,31.612 207.749,31.612 C207.967,31.6016 208.207,31.5235 208.467,31.3776 C208.613,31.2943 208.696,31.1901 208.717,31.0651 C208.728,31.0026 208.733,30.9349 208.733,30.862 M214.608,27.612 L214.608,27.7682 C214.441,27.7891 214.316,27.8568 214.233,27.9714 C214.16,28.0755 214.071,28.2682 213.967,28.5495 L212.686,31.7526 C212.551,32.0755 212.457,32.2422 212.405,32.2526 C212.332,32.2526 212.249,32.1068 212.155,31.8151 C212.144,31.8047 212.139,31.7943 212.139,31.7839 L210.936,28.9089 C210.686,28.3151 210.499,27.9662 210.374,27.862 C210.29,27.7995 210.176,27.7682 210.03,27.7682 L210.03,27.612 L211.999,27.612 L211.999,27.7682 C211.717,27.7891 211.566,27.862 211.545,27.987 C211.535,28.0078 211.53,28.0287 211.53,28.0495 C211.53,28.1641 211.561,28.2839 211.624,28.4089 L212.639,30.9714 L213.624,28.3776 C213.665,28.2839 213.686,28.1849 213.686,28.0807 C213.686,27.9037 213.54,27.7995 213.249,27.7682 C213.238,27.7682 213.228,27.7682 213.217,27.7682 L213.217,27.612 L214.608,27.612 M215.952,29.3464 C215.993,30.5235 216.379,31.2162 217.108,31.4245 C217.233,31.4662 217.368,31.487 217.514,31.487 C218.004,31.487 218.42,31.2787 218.764,30.862 C218.858,30.7474 218.957,30.612 219.061,30.4557 L219.217,30.5182 C218.853,31.4766 218.28,32.0287 217.499,32.1745 C217.363,32.1953 217.233,32.2057 217.108,32.2057 C216.368,32.2057 215.837,31.8932 215.514,31.2682 C215.327,30.8932 215.233,30.461 215.233,29.9714 C215.233,29.086 215.509,28.4141 216.061,27.9557 C216.426,27.6641 216.847,27.5182 217.327,27.5182 C218.243,27.5182 218.795,28.0391 218.983,29.0807 C219.004,29.1745 219.019,29.263 219.03,29.3464 L215.952,29.3464 M215.967,29.0495 L218.014,29.0495 C217.92,28.4766 217.754,28.1224 217.514,27.987 C217.389,27.9245 217.228,27.8932 217.03,27.8932 C216.436,27.8932 216.082,28.2682 215.967,29.0182 C215.967,29.0287 215.967,29.0391 215.967,29.0495 M221.655,27.7214 C221.676,27.711 221.733,27.6745 221.827,27.612 L221.936,27.612 L221.967,28.9714 L221.827,28.9714 C221.66,28.3255 221.42,27.9401 221.108,27.8151 C220.993,27.763 220.863,27.737 220.717,27.737 C220.363,27.737 220.124,27.8776 219.999,28.1589 C219.967,28.2422 219.952,28.3307 219.952,28.4245 C219.962,28.7057 220.108,28.9297 220.389,29.0964 L221.467,29.737 C221.946,30.0287 222.217,30.3464 222.28,30.6901 C222.29,30.763 222.295,30.8464 222.295,30.9401 C222.295,31.3568 222.113,31.6953 221.749,31.9557 C221.488,32.1224 221.202,32.2057 220.889,32.2057 C220.754,32.2057 220.446,32.1589 219.967,32.0651 C219.853,32.0443 219.764,32.0339 219.702,32.0339 C219.597,32.0443 219.519,32.086 219.467,32.1589 L219.342,32.1589 L219.342,30.5964 L219.499,30.5964 C219.603,31.0651 219.733,31.3932 219.889,31.5807 C220.108,31.8516 220.4,31.987 220.764,31.987 C221.191,31.987 221.457,31.8307 221.561,31.5182 C221.592,31.4453 221.608,31.362 221.608,31.2682 C221.597,30.9662 221.42,30.7162 221.077,30.5182 L220.499,30.1901 C219.874,29.836 219.504,29.4818 219.389,29.1276 C219.347,29.0026 219.327,28.8776 219.327,28.7526 C219.327,28.2839 219.53,27.9349 219.936,27.7057 C220.165,27.5807 220.415,27.5182 220.686,27.5182 C220.905,27.5182 221.165,27.5703 221.467,27.6745 C221.551,27.7057 221.613,27.7214 221.655,27.7214"/>
</svg>
