<?xml version="1.0" encoding="UTF-8" standalone="no"?>
<svg width="595.44px" height="841.68px" viewBox="0 0 595.44 841.68"
 xmlns="http://www.w3.org/2000/svg" xmlns:xlink="http://www.w3.org/1999/xlink" version="1.2" baseProfile="tiny">
<title>Guitar Scales and Arpeggios</title>
<desc>Generated by MuseScore 2.1.0</desc>
<polyline class="StaffLines" fill="none" stroke="#000000" stroke-width="0.40" stroke-linejoin="bevel" points="28.08,62.856 567.36,62.856"/>
<polyline class="StaffLines" fill="none" stroke="#000000" stroke-width="0.40" stroke-linejoin="bevel" points="28.08,67.824 567.36,67.824"/>
<polyline class="StaffLines" fill="none" stroke="#000000" stroke-width="0.40" stroke-linejoin="bevel" points="28.08,72.792 567.36,72.792"/>
<polyline class="StaffLines" fill="none" stroke="#000000" stroke-width="0.40" stroke-linejoin="bevel" points="28.08,77.76 567.36,77.76"/>
<polyline class="StaffLines" fill="none" stroke="#000000" stroke-width="0.40" stroke-linejoin="bevel" points="28.08,82.728 567.36,82.728"/>
<polyline class="StaffLines" fill="none" stroke="#000000" stroke-width="0.40" stroke-linejoin="bevel" points="28.08,115.02 567.36,115.02"/>
<polyline class="StaffLines" fill="none" stroke="#000000" stroke-width="0.40" stroke-linejoin="bevel" points="28.08,122.472 567.36,122.472"/>
<polyline class="StaffLines" fill="none" stroke="#000000" stroke-width="0.40" stroke-linejoin="bevel" points="28.08,129.924 567.36,129.924"/>
<polyline class="StaffLines" fill="none" stroke="#000000" stroke-width="0.40" stroke-linejoin="bevel" points="28.08,137.376 567.36,137.376"/>
<polyline class="StaffLines" fill="none" stroke="#000000" stroke-width="0.40" stroke-linejoin="bevel" points="28.08,144.828 567.36,144.828"/>
<polyline class="StaffLines" fill="none" stroke="#000000" stroke-width="0.40" stroke-linejoin="bevel" points="28.08,152.28 567.36,152.28"/>
<polyline class="BarLine" fill="none" stroke="#000000" stroke-width="0.79" stroke-linejoin="bevel" points="28.4774,62.856 28.4774,152.28"/>
<polyline class="BarLine" fill="none" stroke="#000000" stroke-width="0.79" stroke-linejoin="bevel" points="562.491,115.02 562.491,152.28"/>
<polyline class="BarLine" fill="none" stroke="#000000" stroke-width="2.48" stroke-linejoin="bevel" points="566.118,115.02 566.118,152.28"/>
<polyline class="BarLine" fill="none" stroke="#000000" stroke-width="0.79" stroke-linejoin="bevel" points="562.491,62.856 562.491,82.728"/>
<polyline class="BarLine" fill="none" stroke="#000000" stroke-width="2.48" stroke-linejoin="bevel" points="566.118,62.856 566.118,82.728"/>
<polyline class="LedgerLine" fill="none" stroke="#000000" stroke-width="0.79" stroke-linecap="square" stroke-linejoin="bevel" points="324.213,57.888 333.734,57.888"/>
<polyline class="LedgerLine" fill="none" stroke="#000000" stroke-width="0.79" stroke-linecap="square" stroke-linejoin="bevel" points="288.396,47.952 297.917,47.952"/>
<polyline class="LedgerLine" fill="none" stroke="#000000" stroke-width="0.79" stroke-linecap="square" stroke-linejoin="bevel" points="288.396,52.92 297.917,52.92"/>
<polyline class="LedgerLine" fill="none" stroke="#000000" stroke-width="0.79" stroke-linecap="square" stroke-linejoin="bevel" points="288.396,57.888 297.917,57.888"/>
<polyline class="LedgerLine" fill="none" stroke="#000000" stroke-width="0.79" stroke-linecap="square" stroke-linejoin="bevel" points="252.579,57.888 262.101,57.888"/>
<polyline class="Stem" fill="none" stroke="#000000" stroke-width="0.65" stroke-linecap="round" stroke-linejoin="bevel" points="511.005,81.7949 511.005,65.34"/>
<polyline class="Stem" fill="none" stroke="#000000" stroke-width="0.65" stroke-linecap="round" stroke-linejoin="bevel" points="469.293,78.6931 469.293,92.664"/>
<polyline class="Stem" fill="none" stroke="#000000" stroke-width="0.65" stroke-linecap="round" stroke-linejoin="bevel" points="433.476,73.7251 433.476,89.559"/>
<polyline class="Stem" fill="none" stroke="#000000" stroke-width="0.65" stroke-linecap="round" stroke-linejoin="bevel" points="397.66,66.2731 397.66,86.454"/>
<polyline class="Stem" fill="none" stroke="#000000" stroke-width="0.65" stroke-linecap="round" stroke-linejoin="bevel" points="361.843,61.3051 361.843,74.034"/>
<polyline class="Stem" fill="none" stroke="#000000" stroke-width="0.65" stroke-linecap="round" stroke-linejoin="bevel" points="326.026,56.3371 326.026,71.55"/>
<polyline class="Stem" fill="none" stroke="#000000" stroke-width="0.65" stroke-linecap="round" stroke-linejoin="bevel" points="290.209,48.8851 290.209,69.066"/>
<polyline class="Stem" fill="none" stroke="#000000" stroke-width="0.65" stroke-linecap="round" stroke-linejoin="bevel" points="254.393,56.3371 254.393,72.792"/>
<polyline class="Stem" fill="none" stroke="#000000" stroke-width="0.65" stroke-linecap="round" stroke-linejoin="bevel" points="218.576,61.3051 218.576,75.897"/>
<polyline class="Stem" fill="none" stroke="#000000" stroke-width="0.65" stroke-linecap="round" stroke-linejoin="bevel" points="182.759,66.2731 182.759,79.002"/>
<polyline class="Stem" fill="none" stroke="#000000" stroke-width="0.65" stroke-linecap="round" stroke-linejoin="bevel" points="152.837,71.8589 152.837,57.888"/>
<polyline class="Stem" fill="none" stroke="#000000" stroke-width="0.65" stroke-linecap="round" stroke-linejoin="bevel" points="117.02,76.8269 117.02,60.993"/>
<polyline class="Stem" fill="none" stroke="#000000" stroke-width="0.65" stroke-linecap="round" stroke-linejoin="bevel" points="81.2034,81.7949 81.2034,64.098"/>
<path class="Note" fill="#ffffff" fill-rule="evenodd" d="M503.048,148.554 L513.978,148.554 L513.978,156.006 L503.048,156.006 L503.048,148.554 "/>
<path class="Note" transform="matrix(0.9936,0,0,0.9936,503.545,155.758)" d="M2.32813,-4.54688 L0.921875,-4.54688 L0.921875,-5.10938 C1.53646,-5.19271 1.93229,-5.30208 2.10938,-5.4375 C2.28646,-5.57292 2.4375,-5.85417 2.5625,-6.28125 C2.57292,-6.3125 2.58854,-6.34896 2.60938,-6.39063 L3.125,-6.39063 L3.125,0 L2.32813,0 L2.32813,-4.54688 M7.32813,-4.54688 L5.92188,-4.54688 L5.92188,-5.10938 C6.53646,-5.19271 6.93229,-5.30208 7.10938,-5.4375 C7.28646,-5.57292 7.4375,-5.85417 7.5625,-6.28125 C7.57292,-6.3125 7.58854,-6.34896 7.60938,-6.39063 L8.125,-6.39063 L8.125,0 L7.32813,0 L7.32813,-4.54688 "/>
<path class="Note" fill="#00008b" transform="matrix(0.9936,0,0,0.9936,504.787,82.728)" d="M4.39063,-2.75 C5.01563,-2.75 5.54688,-2.58854 5.98438,-2.26563 C6.38021,-1.91146 6.57813,-1.46875 6.57813,-0.9375 C6.57813,-0.0416667 6.11979,0.796875 5.20313,1.57813 C4.26563,2.35938 3.26042,2.75 2.1875,2.75 C1.5625,2.75 1.03646,2.58854 0.609375,2.26563 C0.203125,1.91146 0,1.46875 0,0.9375 C0,0.0416667 0.46875,-0.796875 1.40625,-1.57813 C2.32292,-2.35938 3.31771,-2.75 4.39063,-2.75"/>
<path class="Note" fill="#ffffff" fill-rule="evenodd" d="M467.231,141.102 L478.161,141.102 L478.161,148.554 L467.231,148.554 L467.231,141.102 "/>
<path class="Note" transform="matrix(0.9936,0,0,0.9936,467.728,148.306)" d="M2.32813,-4.54688 L0.921875,-4.54688 L0.921875,-5.10938 C1.53646,-5.19271 1.93229,-5.30208 2.10938,-5.4375 C2.28646,-5.57292 2.4375,-5.85417 2.5625,-6.28125 C2.57292,-6.3125 2.58854,-6.34896 2.60938,-6.39063 L3.125,-6.39063 L3.125,0 L2.32813,0 L2.32813,-4.54688 M5.39063,-3.09375 C5.39063,-5 5.92708,-6.07813 7,-6.32813 C7.14583,-6.36979 7.30208,-6.39063 7.46875,-6.39063 C8.78125,-6.39063 9.47917,-5.40104 9.5625,-3.42188 C9.5625,-3.28646 9.5625,-3.15625 9.5625,-3.03125 C9.5625,-1.40625 9.15104,-0.385417 8.32813,0.03125 C8.06771,0.145833 7.78125,0.203125 7.46875,0.203125 C6.41667,0.203125 5.76042,-0.442708 5.5,-1.73438 C5.42708,-2.14063 5.39063,-2.59375 5.39063,-3.09375 M7.46875,-5.64063 C6.625,-5.63021 6.20313,-4.77083 6.20313,-3.0625 C6.20313,-1.32292 6.61979,-0.453125 7.45313,-0.453125 C8.16146,-0.453125 8.57813,-1.02604 8.70313,-2.17188 C8.73438,-2.44271 8.75,-2.75 8.75,-3.09375 C8.75,-4.79167 8.32292,-5.64063 7.46875,-5.64063"/>
<path class="Note" fill="#99cc33" transform="matrix(0.9936,0,0,0.9936,468.97,77.76)" d="M4.39063,-2.75 C5.01563,-2.75 5.54688,-2.58854 5.98438,-2.26563 C6.38021,-1.91146 6.57813,-1.46875 6.57813,-0.9375 C6.57813,-0.0416667 6.11979,0.796875 5.20313,1.57813 C4.26563,2.35938 3.26042,2.75 2.1875,2.75 C1.5625,2.75 1.03646,2.58854 0.609375,2.26563 C0.203125,1.91146 0,1.46875 0,0.9375 C0,0.0416667 0.46875,-0.796875 1.40625,-1.57813 C2.32292,-2.35938 3.31771,-2.75 4.39063,-2.75"/>
<path class="Note" fill="#ffffff" fill-rule="evenodd" d="M431.415,141.102 L442.344,141.102 L442.344,148.554 L431.415,148.554 L431.415,141.102 "/>
<path class="Note" transform="matrix(0.9936,0,0,0.9936,431.912,148.306)" d="M2.32813,-4.54688 L0.921875,-4.54688 L0.921875,-5.10938 C1.53646,-5.19271 1.93229,-5.30208 2.10938,-5.4375 C2.28646,-5.57292 2.4375,-5.85417 2.5625,-6.28125 C2.57292,-6.3125 2.58854,-6.34896 2.60938,-6.39063 L3.125,-6.39063 L3.125,0 L2.32813,0 L2.32813,-4.54688 M7.4375,-5.64063 C6.75,-5.64063 6.35417,-5.32813 6.25,-4.70313 C6.22917,-4.59896 6.21875,-4.47917 6.21875,-4.34375 L5.42188,-4.34375 C5.44271,-5.59375 6.01563,-6.27083 7.14063,-6.375 C7.23438,-6.38542 7.32813,-6.39063 7.42188,-6.39063 C8.26563,-6.39063 8.84375,-6.10938 9.15625,-5.54688 C9.29167,-5.28646 9.35938,-4.98438 9.35938,-4.64063 C9.35938,-4.00521 9.0625,-3.57292 8.46875,-3.34375 C9.03125,-3.14583 9.375,-2.81771 9.5,-2.35938 C9.54167,-2.19271 9.5625,-2.00521 9.5625,-1.79688 C9.5625,-1.05729 9.27604,-0.505208 8.70313,-0.140625 C8.33854,0.0885417 7.90104,0.203125 7.39063,0.203125 C6.21354,0.203125 5.52604,-0.348958 5.32813,-1.45313 C5.31771,-1.57813 5.30208,-1.71354 5.28125,-1.85938 L6.07813,-1.85938 C6.13021,-1.08854 6.46875,-0.65625 7.09375,-0.5625 C7.19792,-0.541667 7.30729,-0.53125 7.42188,-0.53125 C8.04688,-0.53125 8.45313,-0.765625 8.64063,-1.23438 C8.71354,-1.40104 8.75,-1.58854 8.75,-1.79688 C8.73958,-2.54688 8.29688,-2.92708 7.42188,-2.9375 L7.09375,-2.92188 L6.98438,-2.92188 L6.98438,-3.67188 C7.66146,-3.68229 8.10417,-3.77604 8.3125,-3.95313 C8.47917,-4.09896 8.5625,-4.31771 8.5625,-4.60938 C8.5625,-5.09896 8.34896,-5.41667 7.92188,-5.5625 C7.77604,-5.61458 7.61458,-5.64063 7.4375,-5.64063"/>
<path class="Note" fill="#bf6a1f" transform="matrix(0.9936,0,0,0.9936,433.154,72.792)" d="M4.39063,-2.75 C5.01563,-2.75 5.54688,-2.58854 5.98438,-2.26563 C6.38021,-1.91146 6.57813,-1.46875 6.57813,-0.9375 C6.57813,-0.0416667 6.11979,0.796875 5.20313,1.57813 C4.26563,2.35938 3.26042,2.75 2.1875,2.75 C1.5625,2.75 1.03646,2.58854 0.609375,2.26563 C0.203125,1.91146 0,1.46875 0,0.9375 C0,0.0416667 0.46875,-0.796875 1.40625,-1.57813 C2.32292,-2.35938 3.31771,-2.75 4.39063,-2.75"/>
<path class="Note" fill="#ffffff" fill-rule="evenodd" d="M395.598,133.65 L406.528,133.65 L406.528,141.102 L395.598,141.102 L395.598,133.65 "/>
<path class="Note" transform="matrix(0.9936,0,0,0.9936,396.095,140.854)" d="M2.32813,-4.54688 L0.921875,-4.54688 L0.921875,-5.10938 C1.53646,-5.19271 1.93229,-5.30208 2.10938,-5.4375 C2.28646,-5.57292 2.4375,-5.85417 2.5625,-6.28125 C2.57292,-6.3125 2.58854,-6.34896 2.60938,-6.39063 L3.125,-6.39063 L3.125,0 L2.32813,0 L2.32813,-4.54688 M7.4375,-5.64063 C6.75,-5.64063 6.35417,-5.32813 6.25,-4.70313 C6.22917,-4.59896 6.21875,-4.47917 6.21875,-4.34375 L5.42188,-4.34375 C5.44271,-5.59375 6.01563,-6.27083 7.14063,-6.375 C7.23438,-6.38542 7.32813,-6.39063 7.42188,-6.39063 C8.26563,-6.39063 8.84375,-6.10938 9.15625,-5.54688 C9.29167,-5.28646 9.35938,-4.98438 9.35938,-4.64063 C9.35938,-4.00521 9.0625,-3.57292 8.46875,-3.34375 C9.03125,-3.14583 9.375,-2.81771 9.5,-2.35938 C9.54167,-2.19271 9.5625,-2.00521 9.5625,-1.79688 C9.5625,-1.05729 9.27604,-0.505208 8.70313,-0.140625 C8.33854,0.0885417 7.90104,0.203125 7.39063,0.203125 C6.21354,0.203125 5.52604,-0.348958 5.32813,-1.45313 C5.31771,-1.57813 5.30208,-1.71354 5.28125,-1.85938 L6.07813,-1.85938 C6.13021,-1.08854 6.46875,-0.65625 7.09375,-0.5625 C7.19792,-0.541667 7.30729,-0.53125 7.42188,-0.53125 C8.04688,-0.53125 8.45313,-0.765625 8.64063,-1.23438 C8.71354,-1.40104 8.75,-1.58854 8.75,-1.79688 C8.73958,-2.54688 8.29688,-2.92708 7.42188,-2.9375 L7.09375,-2.92188 L6.98438,-2.92188 L6.98438,-3.67188 C7.66146,-3.68229 8.10417,-3.77604 8.3125,-3.95313 C8.47917,-4.09896 8.5625,-4.31771 8.5625,-4.60938 C8.5625,-5.09896 8.34896,-5.41667 7.92188,-5.5625 C7.77604,-5.61458 7.61458,-5.64063 7.4375,-5.64063"/>
<path class="Note" fill="#00008b" transform="matrix(0.9936,0,0,0.9936,397.337,65.34)" d="M4.39063,-2.75 C5.01563,-2.75 5.54688,-2.58854 5.98438,-2.26563 C6.38021,-1.91146 6.57813,-1.46875 6.57813,-0.9375 C6.57813,-0.0416667 6.11979,0.796875 5.20313,1.57813 C4.26563,2.35938 3.26042,2.75 2.1875,2.75 C1.5625,2.75 1.03646,2.58854 0.609375,2.26563 C0.203125,1.91146 0,1.46875 0,0.9375 C0,0.0416667 0.46875,-0.796875 1.40625,-1.57813 C2.32292,-2.35938 3.31771,-2.75 4.39063,-2.75"/>
<path class="Note" fill="#ffffff" fill-rule="evenodd" d="M359.781,126.198 L370.711,126.198 L370.711,133.65 L359.781,133.65 L359.781,126.198 "/>
<path class="Note" transform="matrix(0.9936,0,0,0.9936,360.278,133.402)" d="M2.32813,-4.54688 L0.921875,-4.54688 L0.921875,-5.10938 C1.53646,-5.19271 1.93229,-5.30208 2.10938,-5.4375 C2.28646,-5.57292 2.4375,-5.85417 2.5625,-6.28125 C2.57292,-6.3125 2.58854,-6.34896 2.60938,-6.39063 L3.125,-6.39063 L3.125,0 L2.32813,0 L2.32813,-4.54688 M5.45313,-4.17188 C5.49479,-5.64063 6.19792,-6.38021 7.5625,-6.39063 C8.28125,-6.39063 8.83333,-6.14583 9.21875,-5.65625 C9.46875,-5.32292 9.59375,-4.93229 9.59375,-4.48438 C9.59375,-3.68229 9.14583,-3.03125 8.25,-2.53125 L7.34375,-2.04688 C6.79167,-1.75521 6.44271,-1.4375 6.29688,-1.09375 C6.24479,-0.989583 6.21354,-0.869792 6.20313,-0.734375 L9.5625,-0.734375 L9.5625,0 L5.3125,0 C5.35417,-0.760417 5.52083,-1.33854 5.8125,-1.73438 C6.07292,-2.05729 6.5,-2.38542 7.09375,-2.71875 L7.92188,-3.1875 C8.49479,-3.52083 8.78646,-3.94271 8.79688,-4.45313 C8.79688,-4.88021 8.61458,-5.21354 8.25,-5.45313 C8.04167,-5.57813 7.80208,-5.64063 7.53125,-5.64063 C6.73958,-5.64063 6.3125,-5.16667 6.25,-4.21875 C6.25,-4.19792 6.25,-4.18229 6.25,-4.17188 L5.45313,-4.17188 "/>
<path class="Note" fill="#99cc33" transform="matrix(0.9936,0,0,0.9936,361.52,60.372)" d="M4.39063,-2.75 C5.01563,-2.75 5.54688,-2.58854 5.98438,-2.26563 C6.38021,-1.91146 6.57813,-1.46875 6.57813,-0.9375 C6.57813,-0.0416667 6.11979,0.796875 5.20313,1.57813 C4.26563,2.35938 3.26042,2.75 2.1875,2.75 C1.5625,2.75 1.03646,2.58854 0.609375,2.26563 C0.203125,1.91146 0,1.46875 0,0.9375 C0,0.0416667 0.46875,-0.796875 1.40625,-1.57813 C2.32292,-2.35938 3.31771,-2.75 4.39063,-2.75"/>
<path class="Note" fill="#ffffff" fill-rule="evenodd" d="M323.964,118.746 L334.894,118.746 L334.894,126.198 L323.964,126.198 L323.964,118.746 "/>
<path class="Note" transform="matrix(0.9936,0,0,0.9936,324.461,125.95)" d="M2.32813,-4.54688 L0.921875,-4.54688 L0.921875,-5.10938 C1.53646,-5.19271 1.93229,-5.30208 2.10938,-5.4375 C2.28646,-5.57292 2.4375,-5.85417 2.5625,-6.28125 C2.57292,-6.3125 2.58854,-6.34896 2.60938,-6.39063 L3.125,-6.39063 L3.125,0 L2.32813,0 L2.32813,-4.54688 M7.32813,-4.54688 L5.92188,-4.54688 L5.92188,-5.10938 C6.53646,-5.19271 6.93229,-5.30208 7.10938,-5.4375 C7.28646,-5.57292 7.4375,-5.85417 7.5625,-6.28125 C7.57292,-6.3125 7.58854,-6.34896 7.60938,-6.39063 L8.125,-6.39063 L8.125,0 L7.32813,0 L7.32813,-4.54688 "/>
<path class="Note" fill="#bf6a1f" transform="matrix(0.9936,0,0,0.9936,325.703,55.404)" d="M4.39063,-2.75 C5.01563,-2.75 5.54688,-2.58854 5.98438,-2.26563 C6.38021,-1.91146 6.57813,-1.46875 6.57813,-0.9375 C6.57813,-0.0416667 6.11979,0.796875 5.20313,1.57813 C4.26563,2.35938 3.26042,2.75 2.1875,2.75 C1.5625,2.75 1.03646,2.58854 0.609375,2.26563 C0.203125,1.91146 0,1.46875 0,0.9375 C0,0.0416667 0.46875,-0.796875 1.40625,-1.57813 C2.32292,-2.35938 3.31771,-2.75 4.39063,-2.75"/>
<path class="Note" fill="#ffffff" fill-rule="evenodd" d="M288.148,111.294 L299.077,111.294 L299.077,118.746 L288.148,118.746 L288.148,111.294 "/>
<path class="Note" transform="matrix(0.9936,0,0,0.9936,288.644,118.498)" d="M2.32813,-4.54688 L0.921875,-4.54688 L0.921875,-5.10938 C1.53646,-5.19271 1.93229,-5.30208 2.10938,-5.4375 C2.28646,-5.57292 2.4375,-5.85417 2.5625,-6.28125 C2.57292,-6.3125 2.58854,-6.34896 2.60938,-6.39063 L3.125,-6.39063 L3.125,0 L2.32813,0 L2.32813,-4.54688 M7.32813,-4.54688 L5.92188,-4.54688 L5.92188,-5.10938 C6.53646,-5.19271 6.93229,-5.30208 7.10938,-5.4375 C7.28646,-5.57292 7.4375,-5.85417 7.5625,-6.28125 C7.57292,-6.3125 7.58854,-6.34896 7.60938,-6.39063 L8.125,-6.39063 L8.125,0 L7.32813,0 L7.32813,-4.54688 "/>
<path class="Note" fill="#00008b" transform="matrix(0.9936,0,0,0.9936,289.886,47.952)" d="M4.39063,-2.75 C5.01563,-2.75 5.54688,-2.58854 5.98438,-2.26563 C6.38021,-1.91146 6.57813,-1.46875 6.57813,-0.9375 C6.57813,-0.0416667 6.11979,0.796875 5.20313,1.57813 C4.26563,2.35938 3.26042,2.75 2.1875,2.75 C1.5625,2.75 1.03646,2.58854 0.609375,2.26563 C0.203125,1.91146 0,1.46875 0,0.9375 C0,0.0416667 0.46875,-0.796875 1.40625,-1.57813 C2.32292,-2.35938 3.31771,-2.75 4.39063,-2.75"/>
<path class="Note" fill="#ffffff" fill-rule="evenodd" d="M252.331,118.746 L263.26,118.746 L263.26,126.198 L252.331,126.198 L252.331,118.746 "/>
<path class="Note" transform="matrix(0.9936,0,0,0.9936,252.828,125.95)" d="M2.32813,-4.54688 L0.921875,-4.54688 L0.921875,-5.10938 C1.53646,-5.19271 1.93229,-5.30208 2.10938,-5.4375 C2.28646,-5.57292 2.4375,-5.85417 2.5625,-6.28125 C2.57292,-6.3125 2.58854,-6.34896 2.60938,-6.39063 L3.125,-6.39063 L3.125,0 L2.32813,0 L2.32813,-4.54688 M7.32813,-4.54688 L5.92188,-4.54688 L5.92188,-5.10938 C6.53646,-5.19271 6.93229,-5.30208 7.10938,-5.4375 C7.28646,-5.57292 7.4375,-5.85417 7.5625,-6.28125 C7.57292,-6.3125 7.58854,-6.34896 7.60938,-6.39063 L8.125,-6.39063 L8.125,0 L7.32813,0 L7.32813,-4.54688 "/>
<path class="Note" fill="#bf6a1f" transform="matrix(0.9936,0,0,0.9936,254.07,55.404)" d="M4.39063,-2.75 C5.01563,-2.75 5.54688,-2.58854 5.98438,-2.26563 C6.38021,-1.91146 6.57813,-1.46875 6.57813,-0.9375 C6.57813,-0.0416667 6.11979,0.796875 5.20313,1.57813 C4.26563,2.35938 3.26042,2.75 2.1875,2.75 C1.5625,2.75 1.03646,2.58854 0.609375,2.26563 C0.203125,1.91146 0,1.46875 0,0.9375 C0,0.0416667 0.46875,-0.796875 1.40625,-1.57813 C2.32292,-2.35938 3.31771,-2.75 4.39063,-2.75"/>
<path class="Note" fill="#ffffff" fill-rule="evenodd" d="M216.514,126.198 L227.444,126.198 L227.444,133.65 L216.514,133.65 L216.514,126.198 "/>
<path class="Note" transform="matrix(0.9936,0,0,0.9936,217.011,133.402)" d="M2.32813,-4.54688 L0.921875,-4.54688 L0.921875,-5.10938 C1.53646,-5.19271 1.93229,-5.30208 2.10938,-5.4375 C2.28646,-5.57292 2.4375,-5.85417 2.5625,-6.28125 C2.57292,-6.3125 2.58854,-6.34896 2.60938,-6.39063 L3.125,-6.39063 L3.125,0 L2.32813,0 L2.32813,-4.54688 M5.45313,-4.17188 C5.49479,-5.64063 6.19792,-6.38021 7.5625,-6.39063 C8.28125,-6.39063 8.83333,-6.14583 9.21875,-5.65625 C9.46875,-5.32292 9.59375,-4.93229 9.59375,-4.48438 C9.59375,-3.68229 9.14583,-3.03125 8.25,-2.53125 L7.34375,-2.04688 C6.79167,-1.75521 6.44271,-1.4375 6.29688,-1.09375 C6.24479,-0.989583 6.21354,-0.869792 6.20313,-0.734375 L9.5625,-0.734375 L9.5625,0 L5.3125,0 C5.35417,-0.760417 5.52083,-1.33854 5.8125,-1.73438 C6.07292,-2.05729 6.5,-2.38542 7.09375,-2.71875 L7.92188,-3.1875 C8.49479,-3.52083 8.78646,-3.94271 8.79688,-4.45313 C8.79688,-4.88021 8.61458,-5.21354 8.25,-5.45313 C8.04167,-5.57813 7.80208,-5.64063 7.53125,-5.64063 C6.73958,-5.64063 6.3125,-5.16667 6.25,-4.21875 C6.25,-4.19792 6.25,-4.18229 6.25,-4.17188 L5.45313,-4.17188 "/>
<path class="Note" fill="#99cc33" transform="matrix(0.9936,0,0,0.9936,218.253,60.372)" d="M4.39063,-2.75 C5.01563,-2.75 5.54688,-2.58854 5.98438,-2.26563 C6.38021,-1.91146 6.57813,-1.46875 6.57813,-0.9375 C6.57813,-0.0416667 6.11979,0.796875 5.20313,1.57813 C4.26563,2.35938 3.26042,2.75 2.1875,2.75 C1.5625,2.75 1.03646,2.58854 0.609375,2.26563 C0.203125,1.91146 0,1.46875 0,0.9375 C0,0.0416667 0.46875,-0.796875 1.40625,-1.57813 C2.32292,-2.35938 3.31771,-2.75 4.39063,-2.75"/>
<path class="Note" fill="#ffffff" fill-rule="evenodd" d="M180.697,133.65 L191.627,133.65 L191.627,141.102 L180.697,141.102 L180.697,133.65 "/>
<path class="Note" transform="matrix(0.9936,0,0,0.9936,181.194,140.854)" d="M2.32813,-4.54688 L0.921875,-4.54688 L0.921875,-5.10938 C1.53646,-5.19271 1.93229,-5.30208 2.10938,-5.4375 C2.28646,-5.57292 2.4375,-5.85417 2.5625,-6.28125 C2.57292,-6.3125 2.58854,-6.34896 2.60938,-6.39063 L3.125,-6.39063 L3.125,0 L2.32813,0 L2.32813,-4.54688 M7.4375,-5.64063 C6.75,-5.64063 6.35417,-5.32813 6.25,-4.70313 C6.22917,-4.59896 6.21875,-4.47917 6.21875,-4.34375 L5.42188,-4.34375 C5.44271,-5.59375 6.01563,-6.27083 7.14063,-6.375 C7.23438,-6.38542 7.32813,-6.39063 7.42188,-6.39063 C8.26563,-6.39063 8.84375,-6.10938 9.15625,-5.54688 C9.29167,-5.28646 9.35938,-4.98438 9.35938,-4.64063 C9.35938,-4.00521 9.0625,-3.57292 8.46875,-3.34375 C9.03125,-3.14583 9.375,-2.81771 9.5,-2.35938 C9.54167,-2.19271 9.5625,-2.00521 9.5625,-1.79688 C9.5625,-1.05729 9.27604,-0.505208 8.70313,-0.140625 C8.33854,0.0885417 7.90104,0.203125 7.39063,0.203125 C6.21354,0.203125 5.52604,-0.348958 5.32813,-1.45313 C5.31771,-1.57813 5.30208,-1.71354 5.28125,-1.85938 L6.07813,-1.85938 C6.13021,-1.08854 6.46875,-0.65625 7.09375,-0.5625 C7.19792,-0.541667 7.30729,-0.53125 7.42188,-0.53125 C8.04688,-0.53125 8.45313,-0.765625 8.64063,-1.23438 C8.71354,-1.40104 8.75,-1.58854 8.75,-1.79688 C8.73958,-2.54688 8.29688,-2.92708 7.42188,-2.9375 L7.09375,-2.92188 L6.98438,-2.92188 L6.98438,-3.67188 C7.66146,-3.68229 8.10417,-3.77604 8.3125,-3.95313 C8.47917,-4.09896 8.5625,-4.31771 8.5625,-4.60938 C8.5625,-5.09896 8.34896,-5.41667 7.92188,-5.5625 C7.77604,-5.61458 7.61458,-5.64063 7.4375,-5.64063"/>
<path class="Note" fill="#00008b" transform="matrix(0.9936,0,0,0.9936,182.436,65.34)" d="M4.39063,-2.75 C5.01563,-2.75 5.54688,-2.58854 5.98438,-2.26563 C6.38021,-1.91146 6.57813,-1.46875 6.57813,-0.9375 C6.57813,-0.0416667 6.11979,0.796875 5.20313,1.57813 C4.26563,2.35938 3.26042,2.75 2.1875,2.75 C1.5625,2.75 1.03646,2.58854 0.609375,2.26563 C0.203125,1.91146 0,1.46875 0,0.9375 C0,0.0416667 0.46875,-0.796875 1.40625,-1.57813 C2.32292,-2.35938 3.31771,-2.75 4.39063,-2.75"/>
<path class="Note" fill="#ffffff" fill-rule="evenodd" d="M144.88,141.102 L155.81,141.102 L155.81,148.554 L144.88,148.554 L144.88,141.102 "/>
<path class="Note" transform="matrix(0.9936,0,0,0.9936,145.377,148.306)" d="M2.32813,-4.54688 L0.921875,-4.54688 L0.921875,-5.10938 C1.53646,-5.19271 1.93229,-5.30208 2.10938,-5.4375 C2.28646,-5.57292 2.4375,-5.85417 2.5625,-6.28125 C2.57292,-6.3125 2.58854,-6.34896 2.60938,-6.39063 L3.125,-6.39063 L3.125,0 L2.32813,0 L2.32813,-4.54688 M7.4375,-5.64063 C6.75,-5.64063 6.35417,-5.32813 6.25,-4.70313 C6.22917,-4.59896 6.21875,-4.47917 6.21875,-4.34375 L5.42188,-4.34375 C5.44271,-5.59375 6.01563,-6.27083 7.14063,-6.375 C7.23438,-6.38542 7.32813,-6.39063 7.42188,-6.39063 C8.26563,-6.39063 8.84375,-6.10938 9.15625,-5.54688 C9.29167,-5.28646 9.35938,-4.98438 9.35938,-4.64063 C9.35938,-4.00521 9.0625,-3.57292 8.46875,-3.34375 C9.03125,-3.14583 9.375,-2.81771 9.5,-2.35938 C9.54167,-2.19271 9.5625,-2.00521 9.5625,-1.79688 C9.5625,-1.05729 9.27604,-0.505208 8.70313,-0.140625 C8.33854,0.0885417 7.90104,0.203125 7.39063,0.203125 C6.21354,0.203125 5.52604,-0.348958 5.32813,-1.45313 C5.31771,-1.57813 5.30208,-1.71354 5.28125,-1.85938 L6.07813,-1.85938 C6.13021,-1.08854 6.46875,-0.65625 7.09375,-0.5625 C7.19792,-0.541667 7.30729,-0.53125 7.42188,-0.53125 C8.04688,-0.53125 8.45313,-0.765625 8.64063,-1.23438 C8.71354,-1.40104 8.75,-1.58854 8.75,-1.79688 C8.73958,-2.54688 8.29688,-2.92708 7.42188,-2.9375 L7.09375,-2.92188 L6.98438,-2.92188 L6.98438,-3.67188 C7.66146,-3.68229 8.10417,-3.77604 8.3125,-3.95313 C8.47917,-4.09896 8.5625,-4.31771 8.5625,-4.60938 C8.5625,-5.09896 8.34896,-5.41667 7.92188,-5.5625 C7.77604,-5.61458 7.61458,-5.64063 7.4375,-5.64063"/>
<path class="Note" fill="#bf6a1f" transform="matrix(0.9936,0,0,0.9936,146.619,72.792)" d="M4.39063,-2.75 C5.01563,-2.75 5.54688,-2.58854 5.98438,-2.26563 C6.38021,-1.91146 6.57813,-1.46875 6.57813,-0.9375 C6.57813,-0.0416667 6.11979,0.796875 5.20313,1.57813 C4.26563,2.35938 3.26042,2.75 2.1875,2.75 C1.5625,2.75 1.03646,2.58854 0.609375,2.26563 C0.203125,1.91146 0,1.46875 0,0.9375 C0,0.0416667 0.46875,-0.796875 1.40625,-1.57813 C2.32292,-2.35938 3.31771,-2.75 4.39063,-2.75"/>
<path class="Note" fill="#ffffff" fill-rule="evenodd" d="M109.064,141.102 L119.993,141.102 L119.993,148.554 L109.064,148.554 L109.064,141.102 "/>
<path class="Note" transform="matrix(0.9936,0,0,0.9936,109.56,148.306)" d="M2.32813,-4.54688 L0.921875,-4.54688 L0.921875,-5.10938 C1.53646,-5.19271 1.93229,-5.30208 2.10938,-5.4375 C2.28646,-5.57292 2.4375,-5.85417 2.5625,-6.28125 C2.57292,-6.3125 2.58854,-6.34896 2.60938,-6.39063 L3.125,-6.39063 L3.125,0 L2.32813,0 L2.32813,-4.54688 M5.39063,-3.09375 C5.39063,-5 5.92708,-6.07813 7,-6.32813 C7.14583,-6.36979 7.30208,-6.39063 7.46875,-6.39063 C8.78125,-6.39063 9.47917,-5.40104 9.5625,-3.42188 C9.5625,-3.28646 9.5625,-3.15625 9.5625,-3.03125 C9.5625,-1.40625 9.15104,-0.385417 8.32813,0.03125 C8.06771,0.145833 7.78125,0.203125 7.46875,0.203125 C6.41667,0.203125 5.76042,-0.442708 5.5,-1.73438 C5.42708,-2.14063 5.39063,-2.59375 5.39063,-3.09375 M7.46875,-5.64063 C6.625,-5.63021 6.20313,-4.77083 6.20313,-3.0625 C6.20313,-1.32292 6.61979,-0.453125 7.45313,-0.453125 C8.16146,-0.453125 8.57813,-1.02604 8.70313,-2.17188 C8.73438,-2.44271 8.75,-2.75 8.75,-3.09375 C8.75,-4.79167 8.32292,-5.64063 7.46875,-5.64063"/>
<path class="Note" fill="#99cc33" transform="matrix(0.9936,0,0,0.9936,110.802,77.76)" d="M4.39063,-2.75 C5.01563,-2.75 5.54688,-2.58854 5.98438,-2.26563 C6.38021,-1.91146 6.57813,-1.46875 6.57813,-0.9375 C6.57813,-0.0416667 6.11979,0.796875 5.20313,1.57813 C4.26563,2.35938 3.26042,2.75 2.1875,2.75 C1.5625,2.75 1.03646,2.58854 0.609375,2.26563 C0.203125,1.91146 0,1.46875 0,0.9375 C0,0.0416667 0.46875,-0.796875 1.40625,-1.57813 C2.32292,-2.35938 3.31771,-2.75 4.39063,-2.75"/>
<path class="Note" fill="#ffffff" fill-rule="evenodd" d="M73.2469,148.554 L84.1765,148.554 L84.1765,156.006 L73.2469,156.006 L73.2469,148.554 "/>
<path class="Note" transform="matrix(0.9936,0,0,0.9936,73.7437,155.758)" d="M2.32813,-4.54688 L0.921875,-4.54688 L0.921875,-5.10938 C1.53646,-5.19271 1.93229,-5.30208 2.10938,-5.4375 C2.28646,-5.57292 2.4375,-5.85417 2.5625,-6.28125 C2.57292,-6.3125 2.58854,-6.34896 2.60938,-6.39063 L3.125,-6.39063 L3.125,0 L2.32813,0 L2.32813,-4.54688 M7.32813,-4.54688 L5.92188,-4.54688 L5.92188,-5.10938 C6.53646,-5.19271 6.93229,-5.30208 7.10938,-5.4375 C7.28646,-5.57292 7.4375,-5.85417 7.5625,-6.28125 C7.57292,-6.3125 7.58854,-6.34896 7.60938,-6.39063 L8.125,-6.39063 L8.125,0 L7.32813,0 L7.32813,-4.54688 "/>
<path class="Note" fill="#00008b" transform="matrix(0.9936,0,0,0.9936,74.9857,82.728)" d="M4.39063,-2.75 C5.01563,-2.75 5.54688,-2.58854 5.98438,-2.26563 C6.38021,-1.91146 6.57813,-1.46875 6.57813,-0.9375 C6.57813,-0.0416667 6.11979,0.796875 5.20313,1.57813 C4.26563,2.35938 3.26042,2.75 2.1875,2.75 C1.5625,2.75 1.03646,2.58854 0.609375,2.26563 C0.203125,1.91146 0,1.46875 0,0.9375 C0,0.0416667 0.46875,-0.796875 1.40625,-1.57813 C2.32292,-2.35938 3.31771,-2.75 4.39063,-2.75"/>
<path class="Clef" transform="matrix(0.9936,0,0,0.9936,32.0544,133.65)" d="M5.32813,8.5 C5.32813,8.86458 5.04167,9.04688 4.46875,9.04688 C4.02083,9.04688 3.625,8.91146 3.28125,8.64063 C2.95833,8.34896 2.79688,7.98438 2.79688,7.54688 C2.79688,6.76563 3.27083,6.14063 4.21875,5.67188 C5.14583,5.18229 6.23438,4.9375 7.48438,4.9375 C7.96354,4.9375 8.47917,4.97396 9.03125,5.04688 C9.42708,5.09896 9.875,5.20313 10.375,5.35938 C10.8125,5.49479 11.1563,5.70573 11.4063,5.99219 C11.6563,6.27865 11.7813,6.61458 11.7813,7 C11.7813,7.89583 11.3177,8.63021 10.3906,9.20313 C11.7448,9.45313 12.4271,10.0573 12.4375,11.0156 C12.4375,11.8281 12.0729,12.5599 11.3438,13.2109 C10.6146,13.862 9.79167,14.1875 8.875,14.1875 C8.47917,14.1875 8.07813,14.0938 7.67188,13.9063 C7.29688,13.7292 7.03125,13.5625 6.875,13.4063 C6.71875,13.2188 6.64063,13.0781 6.64063,12.9844 C6.64063,12.8594 6.70833,12.75 6.84375,12.6563 C6.95833,12.5417 7.07813,12.4844 7.20313,12.4844 C7.25521,12.4844 7.36719,12.5677 7.53906,12.7344 C7.71094,12.901 7.95833,12.9844 8.28125,12.9844 C8.72917,12.9844 9.16146,12.7969 9.57813,12.4219 C9.97396,12.0573 10.1719,11.6198 10.1719,11.1094 C10.1719,10.6719 9.98438,10.3542 9.60938,10.1563 C9.24479,9.95833 8.76563,9.85938 8.17188,9.85938 C8.06771,9.85938 8.01563,9.75 8.01563,9.53125 C8.01563,9.21875 8.13021,9.0625 8.35938,9.0625 C8.72396,9.0625 9.05208,8.90625 9.34375,8.59375 C9.61458,8.26042 9.75,7.90104 9.75,7.51563 C9.75,7.40104 9.71875,7.22917 9.65625,7 C9.60417,6.84375 9.44792,6.65104 9.1875,6.42188 C8.9375,6.21354 8.58854,6.07292 8.14063,6 C8.02604,6.63542 7.88021,7.44792 7.70313,8.4375 C7.52604,9.42708 7.40625,10.0781 7.34375,10.3906 C7.125,11.5156 6.72396,12.4583 6.14063,13.2188 C5.52604,14.0313 4.86458,14.4375 4.15625,14.4375 C3.9375,14.4375 3.71354,14.3854 3.48438,14.2813 C3.29688,14.1979 3.0625,14.0365 2.78125,13.7969 C2.52083,13.5885 2.34375,13.4479 2.25,13.375 C2.19792,13.3438 2.17188,13.2865 2.17188,13.2031 C2.17188,13.0781 2.21875,12.9635 2.3125,12.8594 C2.41667,12.7344 2.52604,12.6719 2.64063,12.6719 C2.71354,12.6719 2.89323,12.7969 3.17969,13.0469 C3.46615,13.2969 3.76563,13.4219 4.07813,13.4219 C4.68229,13.4219 5.13542,13.0365 5.4375,12.2656 C5.71875,11.526 5.85938,10.6094 5.85938,9.51563 L5.85938,9.35938 C5.85938,8.63021 5.97917,7.54167 6.21875,6.09375 C5.80208,6.22917 5.46875,6.42708 5.21875,6.6875 C4.95833,6.94792 4.82813,7.21875 4.82813,7.5 C4.82813,7.71875 4.91146,7.90625 5.07813,8.0625 C5.24479,8.21875 5.32813,8.36458 5.32813,8.5 M1.40625,2.39063 C1.46875,2.39063 1.625,2.45313 1.875,2.57813 C2.13542,2.71354 2.35938,2.78125 2.54688,2.78125 C3.03646,2.78125 3.64063,2.42188 4.35938,1.70313 C6.43229,-0.411458 7.85938,-2.65104 8.64063,-5.01563 C8.79688,-5.51563 9.17708,-5.76563 9.78125,-5.76563 C10.0938,-5.76563 10.3646,-5.69792 10.5938,-5.5625 C10.8125,-5.42708 10.9219,-5.28646 10.9219,-5.14063 L10.5625,2.17188 C10.5625,2.55729 10.7031,2.75 10.9844,2.75 C11.1198,2.75 11.3281,2.6875 11.6094,2.5625 C11.8698,2.42708 12.026,2.35938 12.0781,2.35938 C12.1823,2.35938 12.2448,2.47396 12.2656,2.70313 C12.2656,2.91146 12.1823,3.04167 12.0156,3.09375 C11.8802,3.125 11.6198,3.24479 11.2344,3.45313 C10.8281,3.66146 10.5104,3.76563 10.2813,3.76563 C9.78125,3.76563 9.42708,3.375 9.21875,2.59375 C8.89583,1.375 8.6875,0.104167 8.59375,-1.21875 C8.07292,-0.552083 7.49479,0.119792 6.85938,0.796875 C7.08854,1.24479 7.51563,1.46875 8.14063,1.46875 C8.23438,1.46875 8.30729,1.46354 8.35938,1.45313 L8.375,1.45313 C8.47917,1.45313 8.53125,1.54688 8.53125,1.73438 C8.53125,1.98438 8.44792,2.13542 8.28125,2.1875 C8.01042,2.28125 7.72396,2.32813 7.42188,2.32813 C6.77604,2.32813 6.30729,2.10417 6.01563,1.65625 L5.23438,2.35938 C4.14063,3.29688 3.25,3.76563 2.5625,3.76563 C2.375,3.76563 2.1875,3.73438 2,3.67188 C1.84375,3.60938 1.66146,3.51042 1.45313,3.375 C1.36979,3.34375 1.27865,3.29688 1.17969,3.23438 C1.08073,3.17188 1.02083,3.13542 1,3.125 C0.9375,3.10417 0.90625,3.04688 0.90625,2.95313 C0.90625,2.84896 0.958333,2.72396 1.0625,2.57813 C1.14583,2.45313 1.26042,2.39063 1.40625,2.39063 M5.76563,-10.7969 C5.76563,-10.474 5.48438,-10.3125 4.92188,-10.3125 C4.43229,-10.3125 4.00521,-10.474 3.64063,-10.7969 C3.28646,-11.1302 3.10938,-11.5313 3.10938,-12 C3.10938,-12.4479 3.25,-12.8385 3.53125,-13.1719 C3.83333,-13.5052 4.21875,-13.7552 4.6875,-13.9219 C5.11458,-14.0781 5.59896,-14.2031 6.14063,-14.2969 C6.69271,-14.3594 7.22396,-14.3906 7.73438,-14.3906 C8.03646,-14.3906 8.59896,-14.2552 9.42188,-13.9844 C10.2552,-13.7135 10.8333,-13.5781 11.1563,-13.5781 C11.5625,-13.5781 11.9479,-13.651 12.3125,-13.7969 C12.6042,-13.9219 12.8906,-14.0677 13.1719,-14.2344 C13.3906,-14.3802 13.5104,-14.4531 13.5313,-14.4531 C13.6563,-14.4531 13.7604,-14.4167 13.8438,-14.3438 C13.9479,-14.2396 14,-14.151 14,-14.0781 C14,-13.9948 13.8802,-13.849 13.6406,-13.6406 C13.3802,-13.401 13.0078,-13.1641 12.5234,-12.9297 C12.0391,-12.6953 11.5313,-12.5781 11,-12.5781 C10.7604,-12.5781 10.4688,-12.6198 10.125,-12.7031 C9.89583,-11.2552 9.66146,-9.96875 9.42188,-8.84375 C9.21354,-7.85417 8.79688,-6.98958 8.17188,-6.25 C7.56771,-5.51042 6.89583,-5.14063 6.15625,-5.14063 C5.85417,-5.14063 5.58854,-5.19792 5.35938,-5.3125 C5.09896,-5.44792 4.82292,-5.64583 4.53125,-5.90625 C4.30208,-6.09375 4.08333,-6.26563 3.875,-6.42188 C3.82292,-6.46354 3.79688,-6.52604 3.79688,-6.60938 C3.79688,-6.69271 3.84896,-6.80729 3.95313,-6.95313 C4.05729,-7.06771 4.15104,-7.125 4.23438,-7.125 C4.31771,-7.125 4.54167,-6.96354 4.90625,-6.64063 C5.27083,-6.31771 5.59375,-6.15625 5.875,-6.15625 C6.39583,-6.15625 6.80208,-6.45313 7.09375,-7.04688 C7.375,-7.64063 7.53646,-8.34375 7.57813,-9.15625 C7.64063,-10.5 7.79167,-11.8906 8.03125,-13.3281 C7.73958,-13.3906 7.52604,-13.4219 7.39063,-13.4219 C6.76563,-13.4219 6.22917,-13.2917 5.78125,-13.0313 C5.34375,-12.7813 5.125,-12.4427 5.125,-12.0156 C5.125,-11.7031 5.22917,-11.4635 5.4375,-11.2969 C5.65625,-11.1094 5.76563,-10.9427 5.76563,-10.7969"/>
<path class="Clef" transform="matrix(0.9936,0,0,0.9936,32.0544,77.76)" d="M7.34375,-5.125 C7.34375,-5.125 7.38542,-5.125 7.46875,-5.125 C7.52083,-5.13542 7.5625,-5.14063 7.59375,-5.14063 C9.05208,-5.14063 10.25,-4.625 11.1875,-3.59375 C12.125,-2.58333 12.5938,-1.40104 12.5938,-0.046875 C12.5938,1.64063 11.901,3.01042 10.5156,4.0625 C10.151,4.35417 9.67188,4.58854 9.07813,4.76563 C9.15104,5.60938 9.1875,6.29167 9.1875,6.8125 C9.1875,6.91667 9.17188,7.29688 9.14063,7.95313 C9.08854,9.16146 8.67188,10.2083 7.89063,11.0938 C7.14063,11.9688 6.20313,12.4063 5.07813,12.4063 C4.02604,12.4063 3.13021,12.0365 2.39063,11.2969 C1.64063,10.5365 1.26563,9.625 1.26563,8.5625 C1.26563,8 1.48438,7.52083 1.92188,7.125 C2.35938,6.73958 2.86979,6.54688 3.45313,6.54688 C3.97396,6.54688 4.41146,6.75 4.76563,7.15625 C5.13021,7.53125 5.3125,8 5.3125,8.5625 C5.3125,9.0625 5.13021,9.49479 4.76563,9.85938 C4.40104,10.224 3.96354,10.4063 3.45313,10.4063 C3.24479,10.4063 3.04688,10.3698 2.85938,10.2969 C3.43229,11.1406 4.19271,11.5625 5.14063,11.5625 C6.03646,11.5625 6.77083,11.1979 7.34375,10.4688 C7.94792,9.71875 8.27604,8.83854 8.32813,7.82813 C8.34896,7.20313 8.35938,6.84896 8.35938,6.76563 C8.35938,6.03646 8.33333,5.4375 8.28125,4.96875 C7.63542,5.07292 7.05729,5.125 6.54688,5.125 C4.73438,5.125 3.19271,4.40625 1.92188,2.96875 C0.671875,1.52083 0.046875,-0.197917 0.046875,-2.1875 C0.046875,-2.60417 0.0833333,-3.02604 0.15625,-3.45313 C0.239583,-3.80729 0.338542,-4.19271 0.453125,-4.60938 C0.515625,-4.84896 0.692708,-5.22917 0.984375,-5.75 C1.08854,-5.90625 1.20573,-6.10156 1.33594,-6.33594 C1.46615,-6.57031 1.55729,-6.72396 1.60938,-6.79688 C1.73438,-7.05729 1.98438,-7.41146 2.35938,-7.85938 C2.46354,-7.97396 2.57292,-8.10156 2.6875,-8.24219 C2.80208,-8.38281 2.89844,-8.5 2.97656,-8.59375 C3.05469,-8.6875 3.11198,-8.76042 3.14844,-8.8125 C3.1849,-8.86458 3.47917,-9.20833 4.03125,-9.84375 C4.15625,-9.97917 4.28125,-10.1198 4.40625,-10.2656 C4.53125,-10.4115 4.63281,-10.5286 4.71094,-10.6172 C4.78906,-10.7057 4.84896,-10.7656 4.89063,-10.7969 C4.42188,-12.349 4.125,-13.5885 4,-14.5156 C3.91667,-15.2552 3.875,-16.2708 3.875,-17.5625 C3.875,-18.6979 4.13542,-19.7604 4.65625,-20.75 C5.15625,-21.7708 5.86458,-22.6094 6.78125,-23.2656 C6.84375,-23.3073 6.90625,-23.3281 6.96875,-23.3281 C7.0625,-23.3281 7.13021,-23.3073 7.17188,-23.2656 C7.86979,-22.4219 8.47396,-21.3229 8.98438,-19.9688 C9.50521,-18.6146 9.76563,-17.3802 9.76563,-16.2656 C9.76563,-15.0156 9.46875,-13.8438 8.875,-12.75 C8.19792,-11.5938 7.32292,-10.3958 6.25,-9.15625 C6.52083,-8.30208 6.88542,-6.95833 7.34375,-5.125 M9,3.96875 C9.67708,3.71875 10.2083,3.29688 10.5938,2.70313 C11.0104,2.13021 11.2188,1.48438 11.2188,0.765625 C11.2188,-0.161458 10.9063,-0.984375 10.2813,-1.70313 C9.63542,-2.44271 8.81771,-2.85938 7.82813,-2.95313 C8.39063,-0.203125 8.78125,2.10417 9,3.96875 M1.45313,-0.546875 C1.45313,0.744792 1.97396,1.88021 3.01563,2.85938 C4.07813,3.80729 5.27604,4.28125 6.60938,4.28125 C7.15104,4.28125 7.68229,4.23958 8.20313,4.15625 C7.99479,2.17708 7.58333,-0.192708 6.96875,-2.95313 C6.22917,-2.86979 5.64063,-2.60938 5.20313,-2.17188 C4.76563,-1.71354 4.54688,-1.19792 4.54688,-0.625 C4.54688,0.364583 5.07813,1.16667 6.14063,1.78125 C6.22396,1.875 6.26563,1.97396 6.26563,2.07813 C6.26563,2.18229 6.22396,2.27604 6.14063,2.35938 C6.05729,2.45313 5.95833,2.5 5.84375,2.5 C5.83333,2.5 5.77604,2.48958 5.67188,2.46875 C4.92188,2.0625 4.34896,1.54167 3.95313,0.90625 C3.56771,0.21875 3.375,-0.46875 3.375,-1.15625 C3.375,-2.05208 3.65625,-2.86458 4.21875,-3.59375 C4.80208,-4.32292 5.5625,-4.79167 6.5,-5 C6.13542,-6.45833 5.83854,-7.59896 5.60938,-8.42188 C5.40104,-8.18229 5.15104,-7.89844 4.85938,-7.57031 C4.56771,-7.24219 4.39583,-7.04167 4.34375,-6.96875 C3.875,-6.36458 3.51563,-5.89063 3.26563,-5.54688 C2.81771,-4.93229 2.48958,-4.40625 2.28125,-3.96875 C2.0625,-3.46875 1.86979,-2.92708 1.70313,-2.34375 C1.53646,-1.78125 1.45313,-1.18229 1.45313,-0.546875 M7.96875,-20.4063 C6.98958,-19.9271 6.22396,-19.2396 5.67188,-18.3438 C5.09896,-17.4167 4.8125,-16.4219 4.8125,-15.3594 C4.8125,-14.4219 5.04688,-13.1563 5.51563,-11.5625 C6.45313,-12.6979 7.15625,-13.7448 7.625,-14.7031 C8.11458,-15.724 8.35938,-16.7865 8.35938,-17.8906 C8.35938,-18.724 8.22917,-19.5625 7.96875,-20.4063 M5.82813,15.2344 C6.16146,14.901 6.32813,14.5625 6.32813,14.2188 C6.30729,13.9479 6.19271,13.7396 5.98438,13.5938 C5.74479,13.4375 5.46875,13.3594 5.15625,13.3594 C4.9375,13.3594 4.75521,13.4323 4.60938,13.5781 C4.48438,13.7031 4.42188,13.8646 4.42188,14.0625 C4.42188,14.3021 4.51563,14.4792 4.70313,14.5938 L5.82813,15.2344 M6.14063,15.4063 C6.68229,15.7083 6.95313,16.1146 6.95313,16.625 L6.95313,16.6875 C6.95313,17.0833 6.79167,17.4219 6.46875,17.7031 C6.14583,17.9844 5.68229,18.125 5.07813,18.125 C4.58854,18.125 4.16146,17.9948 3.79688,17.7344 C3.43229,17.4844 3.25,17.1458 3.25,16.7188 C3.25,16.5521 3.29167,16.3958 3.375,16.25 C3.47917,16.0833 3.56771,15.9688 3.64063,15.9063 L4,15.5313 C3.60417,15.2604 3.40625,14.901 3.40625,14.4531 C3.40625,14.099 3.5625,13.7865 3.875,13.5156 C4.19792,13.2552 4.625,13.125 5.15625,13.125 C5.60417,13.125 5.98438,13.224 6.29688,13.4219 C6.60938,13.6198 6.76563,13.8854 6.76563,14.2188 C6.76563,14.5729 6.55729,14.9688 6.14063,15.4063 M4.29688,15.7031 C3.91146,16.0469 3.70313,16.3854 3.67188,16.7188 C3.70313,17.0729 3.84896,17.3542 4.10938,17.5625 C4.39063,17.7813 4.71354,17.8906 5.07813,17.8906 C5.33854,17.8906 5.54688,17.8073 5.70313,17.6406 C5.85938,17.4844 5.9375,17.2969 5.9375,17.0781 C5.92708,16.7865 5.8125,16.5781 5.59375,16.4531 L4.29688,15.7031 "/>
<path class="KeySig" transform="matrix(0.9936,0,0,0.9936,59.4017,75.276)" d="M0.921875,-0.828125 L0.921875,0.71875 C0.921875,1.27083 0.947917,1.70833 1,2.03125 C1.42708,1.66667 1.73438,1.39583 1.92188,1.21875 C2.13021,1.01042 2.33854,0.721354 2.54688,0.351563 C2.75521,-0.0182292 2.85938,-0.385417 2.85938,-0.75 C2.85938,-1.11458 2.78125,-1.42708 2.625,-1.6875 C2.46875,-1.94792 2.26042,-2.07813 2,-2.07813 C1.6875,-2.07813 1.42708,-1.95833 1.21875,-1.71875 C1.02083,-1.45833 0.921875,-1.16146 0.921875,-0.828125 M0.09375,2.75 L-0.15625,-9.14063 C0.03125,-9.24479 0.216146,-9.29688 0.398438,-9.29688 C0.580729,-9.29688 0.760417,-9.24479 0.9375,-9.14063 L0.78125,-2.25 C1.3125,-2.70833 1.92708,-2.9375 2.625,-2.9375 C3.125,-2.9375 3.54427,-2.72917 3.88281,-2.3125 C4.22135,-1.89583 4.39063,-1.41667 4.39063,-0.875 C4.39063,-0.541667 4.28125,-0.182292 4.0625,0.203125 C3.85417,0.546875 3.63542,0.817708 3.40625,1.01563 C3.27083,1.11979 2.9375,1.38021 2.40625,1.79688 C2.25,1.91146 2.0651,2.04688 1.85156,2.20313 C1.63802,2.35938 1.50521,2.45833 1.45313,2.5 C1.35938,2.55208 1.27083,2.65625 1.1875,2.8125 C1.10417,2.94792 1,3.05729 0.875,3.14063 C0.791667,3.22396 0.684896,3.26563 0.554688,3.26563 C0.424479,3.26563 0.317708,3.21875 0.234375,3.125 C0.140625,3.03125 0.09375,2.90625 0.09375,2.75"/>
<path class="KeySig" transform="matrix(0.9936,0,0,0.9936,54.4337,65.34)" d="M0.921875,-0.828125 L0.921875,0.71875 C0.921875,1.27083 0.947917,1.70833 1,2.03125 C1.42708,1.66667 1.73438,1.39583 1.92188,1.21875 C2.13021,1.01042 2.33854,0.721354 2.54688,0.351563 C2.75521,-0.0182292 2.85938,-0.385417 2.85938,-0.75 C2.85938,-1.11458 2.78125,-1.42708 2.625,-1.6875 C2.46875,-1.94792 2.26042,-2.07813 2,-2.07813 C1.6875,-2.07813 1.42708,-1.95833 1.21875,-1.71875 C1.02083,-1.45833 0.921875,-1.16146 0.921875,-0.828125 M0.09375,2.75 L-0.15625,-9.14063 C0.03125,-9.24479 0.216146,-9.29688 0.398438,-9.29688 C0.580729,-9.29688 0.760417,-9.24479 0.9375,-9.14063 L0.78125,-2.25 C1.3125,-2.70833 1.92708,-2.9375 2.625,-2.9375 C3.125,-2.9375 3.54427,-2.72917 3.88281,-2.3125 C4.22135,-1.89583 4.39063,-1.41667 4.39063,-0.875 C4.39063,-0.541667 4.28125,-0.182292 4.0625,0.203125 C3.85417,0.546875 3.63542,0.817708 3.40625,1.01563 C3.27083,1.11979 2.9375,1.38021 2.40625,1.79688 C2.25,1.91146 2.0651,2.04688 1.85156,2.20313 C1.63802,2.35938 1.50521,2.45833 1.45313,2.5 C1.35938,2.55208 1.27083,2.65625 1.1875,2.8125 C1.10417,2.94792 1,3.05729 0.875,3.14063 C0.791667,3.22396 0.684896,3.26563 0.554688,3.26563 C0.424479,3.26563 0.317708,3.21875 0.234375,3.125 C0.140625,3.03125 0.09375,2.90625 0.09375,2.75"/>
<path class="KeySig" transform="matrix(0.9936,0,0,0.9936,49.4657,72.792)" d="M0.921875,-0.828125 L0.921875,0.71875 C0.921875,1.27083 0.947917,1.70833 1,2.03125 C1.42708,1.66667 1.73438,1.39583 1.92188,1.21875 C2.13021,1.01042 2.33854,0.721354 2.54688,0.351563 C2.75521,-0.0182292 2.85938,-0.385417 2.85938,-0.75 C2.85938,-1.11458 2.78125,-1.42708 2.625,-1.6875 C2.46875,-1.94792 2.26042,-2.07813 2,-2.07813 C1.6875,-2.07813 1.42708,-1.95833 1.21875,-1.71875 C1.02083,-1.45833 0.921875,-1.16146 0.921875,-0.828125 M0.09375,2.75 L-0.15625,-9.14063 C0.03125,-9.24479 0.216146,-9.29688 0.398438,-9.29688 C0.580729,-9.29688 0.760417,-9.24479 0.9375,-9.14063 L0.78125,-2.25 C1.3125,-2.70833 1.92708,-2.9375 2.625,-2.9375 C3.125,-2.9375 3.54427,-2.72917 3.88281,-2.3125 C4.22135,-1.89583 4.39063,-1.41667 4.39063,-0.875 C4.39063,-0.541667 4.28125,-0.182292 4.0625,0.203125 C3.85417,0.546875 3.63542,0.817708 3.40625,1.01563 C3.27083,1.11979 2.9375,1.38021 2.40625,1.79688 C2.25,1.91146 2.0651,2.04688 1.85156,2.20313 C1.63802,2.35938 1.50521,2.45833 1.45313,2.5 C1.35938,2.55208 1.27083,2.65625 1.1875,2.8125 C1.10417,2.94792 1,3.05729 0.875,3.14063 C0.791667,3.22396 0.684896,3.26563 0.554688,3.26563 C0.424479,3.26563 0.317708,3.21875 0.234375,3.125 C0.140625,3.03125 0.09375,2.90625 0.09375,2.75"/>
<path class="Beam" fill-rule="evenodd" d="M397.337,85.212 L469.616,91.478 L469.616,93.962 L397.337,87.696 L397.337,85.212 "/>
<path class="Beam" fill-rule="evenodd" d="M289.886,67.824 L362.166,72.8368 L362.166,75.3208 L289.886,70.308 L289.886,67.824 "/>
<path class="Beam" fill-rule="evenodd" d="M182.436,77.76 L254.715,71.494 L254.715,73.978 L182.436,80.244 L182.436,77.76 "/>
<path class="Beam" fill-rule="evenodd" d="M80.8805,62.912 L153.16,56.646 L153.16,59.13 L80.8805,65.396 L80.8805,62.912 "/>
<path class="Fingering" d="M498.553,81.4155 C498.793,80.3947 499.319,79.8686 500.131,79.8374 C500.162,79.8374 500.188,79.8374 500.209,79.8374 C500.699,79.8374 501.09,80.0145 501.381,80.3686 C501.59,80.629 501.694,80.9207 501.694,81.2436 C501.694,81.8374 501.376,82.478 500.741,83.1655 C500.72,83.1863 500.694,83.2072 500.662,83.228 L499.334,84.6499 L501.241,84.6499 C501.449,84.6499 501.61,84.5926 501.725,84.478 C501.798,84.4051 501.886,84.2853 501.991,84.1186 L502.1,84.1499 L501.662,85.228 L498.537,85.228 L498.537,85.1342 L499.959,83.6186 C500.636,82.879 500.985,82.1863 501.006,81.5405 C501.006,81.0926 500.834,80.7697 500.491,80.5717 C500.313,80.4676 500.11,80.4155 499.881,80.4155 C499.527,80.4155 499.251,80.5509 499.053,80.8217 C498.938,80.978 498.829,81.1915 498.725,81.4624 L498.553,81.4155 "/>
<path class="Fingering" d="M463.955,75.5256 C463.84,75.5256 463.648,75.5829 463.377,75.6975 L463.377,75.5881 L464.814,74.8537 L464.877,74.8694 L464.877,79.6662 C464.877,79.8746 464.939,80.01 465.064,80.0725 C465.169,80.1142 465.361,80.135 465.643,80.135 L465.643,80.26 L463.424,80.26 L463.424,80.135 C463.778,80.1246 464.002,80.0621 464.096,79.9475 C464.158,79.8537 464.189,79.7079 464.189,79.51 L464.189,75.9006 C464.179,75.6506 464.101,75.5256 463.955,75.5256"/>
<path class="Fingering" d="M427.31,74.667 C427.435,74.667 427.617,74.7347 427.857,74.8701 C428.107,75.0264 428.321,75.1045 428.498,75.1045 C428.862,75.1045 429.149,74.943 429.357,74.6201 C429.482,74.4118 429.545,74.1774 429.545,73.917 C429.545,73.1566 429.091,72.7399 428.185,72.667 C428.091,72.6566 427.992,72.6514 427.888,72.6514 L427.888,72.542 C428.492,72.3441 428.888,72.0889 429.076,71.7764 C429.17,71.6097 429.216,71.4274 429.216,71.2295 C429.216,70.8753 429.071,70.6201 428.779,70.4639 C428.643,70.4014 428.498,70.3701 428.341,70.3701 C427.893,70.3701 427.524,70.6045 427.232,71.0733 C427.201,71.1149 427.175,71.1618 427.154,71.2139 L427.029,71.1826 C427.279,70.5055 427.643,70.0941 428.123,69.9483 C428.268,69.9066 428.43,69.8858 428.607,69.8858 C429.086,69.8858 429.44,70.0524 429.67,70.3858 C429.795,70.5628 429.857,70.7608 429.857,70.9795 C429.857,71.3024 429.706,71.5941 429.404,71.8545 C429.31,71.9274 429.211,72.0055 429.107,72.0889 C429.586,72.2972 429.893,72.5837 430.029,72.9483 C430.091,73.1253 430.123,73.3233 430.123,73.542 C430.123,74.1774 429.857,74.6722 429.326,75.0264 C428.93,75.2764 428.461,75.4014 427.92,75.4014 C427.43,75.4014 427.138,75.292 427.045,75.0733 C427.024,75.0316 427.013,74.9899 427.013,74.9483 C427.013,74.792 427.091,74.7035 427.248,74.6826 C427.268,74.6722 427.289,74.667 427.31,74.667"/>
<path class="Fingering" d="M394.634,66.0275 L394.634,66.5119 L393.806,66.5119 L393.806,67.84 L393.196,67.84 L393.196,66.5119 L390.946,66.5119 L390.946,66.0275 L393.462,62.4337 L393.806,62.4337 L393.806,66.0275 L394.634,66.0275 M393.181,66.0275 L393.181,63.2775 L391.275,66.0275 L393.181,66.0275 "/>
<path class="Fingering" d="M355.286,59.0595 C355.526,58.0387 356.052,57.5126 356.864,57.4814 C356.895,57.4814 356.921,57.4814 356.942,57.4814 C357.432,57.4814 357.822,57.6585 358.114,58.0126 C358.322,58.273 358.427,58.5647 358.427,58.8876 C358.427,59.4814 358.109,60.122 357.473,60.8095 C357.453,60.8303 357.427,60.8512 357.395,60.872 L356.067,62.2939 L357.973,62.2939 C358.182,62.2939 358.343,62.2366 358.458,62.122 C358.531,62.0491 358.619,61.9293 358.723,61.7626 L358.833,61.7939 L358.395,62.872 L355.27,62.872 L355.27,62.7782 L356.692,61.2626 C357.369,60.523 357.718,59.8303 357.739,59.1845 C357.739,58.7366 357.567,58.4137 357.223,58.2157 C357.046,58.1116 356.843,58.0595 356.614,58.0595 C356.26,58.0595 355.984,58.1949 355.786,58.4657 C355.671,58.622 355.562,58.8355 355.458,59.1064 L355.286,59.0595 "/>
<path class="Fingering" d="M320.688,53.1696 C320.573,53.1696 320.381,53.2269 320.11,53.3415 L320.11,53.2321 L321.547,52.4977 L321.61,52.5134 L321.61,57.3102 C321.61,57.5186 321.672,57.654 321.797,57.7165 C321.901,57.7582 322.094,57.779 322.375,57.779 L322.375,57.904 L320.157,57.904 L320.157,57.779 C320.511,57.7686 320.735,57.7061 320.829,57.5915 C320.891,57.4977 320.922,57.3519 320.922,57.154 L320.922,53.5446 C320.912,53.2946 320.834,53.1696 320.688,53.1696"/>
<path class="Fingering" d="M284.871,45.7176 C284.757,45.7176 284.564,45.7749 284.293,45.8895 L284.293,45.7801 L285.731,45.0457 L285.793,45.0614 L285.793,49.8582 C285.793,50.0666 285.856,50.202 285.981,50.2645 C286.085,50.3062 286.277,50.327 286.559,50.327 L286.559,50.452 L284.34,50.452 L284.34,50.327 C284.694,50.3166 284.918,50.2541 285.012,50.1395 C285.074,50.0457 285.106,49.8999 285.106,49.702 L285.106,46.0926 C285.095,45.8426 285.017,45.7176 284.871,45.7176"/>
<path class="Fingering" d="M249.054,53.1696 C248.94,53.1696 248.747,53.2269 248.476,53.3415 L248.476,53.2321 L249.914,52.4977 L249.976,52.5134 L249.976,57.3102 C249.976,57.5186 250.039,57.654 250.164,57.7165 C250.268,57.7582 250.461,57.779 250.742,57.779 L250.742,57.904 L248.523,57.904 L248.523,57.779 C248.877,57.7686 249.101,57.7061 249.195,57.5915 C249.257,57.4977 249.289,57.3519 249.289,57.154 L249.289,53.5446 C249.278,53.2946 249.2,53.1696 249.054,53.1696"/>
<path class="Fingering" d="M212.019,59.0595 C212.258,58.0387 212.784,57.5126 213.597,57.4814 C213.628,57.4814 213.654,57.4814 213.675,57.4814 C214.165,57.4814 214.555,57.6585 214.847,58.0126 C215.055,58.273 215.159,58.5647 215.159,58.8876 C215.159,59.4814 214.842,60.122 214.206,60.8095 C214.185,60.8303 214.159,60.8512 214.128,60.872 L212.8,62.2939 L214.706,62.2939 C214.915,62.2939 215.076,62.2366 215.191,62.122 C215.264,62.0491 215.352,61.9293 215.456,61.7626 L215.566,61.7939 L215.128,62.872 L212.003,62.872 L212.003,62.7782 L213.425,61.2626 C214.102,60.523 214.451,59.8303 214.472,59.1845 C214.472,58.7366 214.3,58.4137 213.956,58.2157 C213.779,58.1116 213.576,58.0595 213.347,58.0595 C212.993,58.0595 212.717,58.1949 212.519,58.4657 C212.404,58.622 212.295,58.8355 212.191,59.1064 L212.019,59.0595 "/>
<path class="Fingering" d="M179.733,66.0275 L179.733,66.5119 L178.905,66.5119 L178.905,67.84 L178.296,67.84 L178.296,66.5119 L176.046,66.5119 L176.046,66.0275 L178.561,62.4337 L178.905,62.4337 L178.905,66.0275 L179.733,66.0275 M178.28,66.0275 L178.28,63.2775 L176.374,66.0275 L178.28,66.0275 "/>
<path class="Fingering" d="M140.776,74.667 C140.901,74.667 141.083,74.7347 141.323,74.8701 C141.573,75.0264 141.786,75.1045 141.963,75.1045 C142.328,75.1045 142.614,74.943 142.823,74.6201 C142.948,74.4118 143.01,74.1774 143.01,73.917 C143.01,73.1566 142.557,72.7399 141.651,72.667 C141.557,72.6566 141.458,72.6514 141.354,72.6514 L141.354,72.542 C141.958,72.3441 142.354,72.0889 142.541,71.7764 C142.635,71.6097 142.682,71.4274 142.682,71.2295 C142.682,70.8753 142.536,70.6201 142.245,70.4639 C142.109,70.4014 141.963,70.3701 141.807,70.3701 C141.359,70.3701 140.989,70.6045 140.698,71.0733 C140.666,71.1149 140.64,71.1618 140.62,71.2139 L140.495,71.1826 C140.745,70.5055 141.109,70.0941 141.588,69.9483 C141.734,69.9066 141.896,69.8858 142.073,69.8858 C142.552,69.8858 142.906,70.0524 143.135,70.3858 C143.26,70.5628 143.323,70.7608 143.323,70.9795 C143.323,71.3024 143.172,71.5941 142.87,71.8545 C142.776,71.9274 142.677,72.0055 142.573,72.0889 C143.052,72.2972 143.359,72.5837 143.495,72.9483 C143.557,73.1253 143.588,73.3233 143.588,73.542 C143.588,74.1774 143.323,74.6722 142.791,75.0264 C142.396,75.2764 141.927,75.4014 141.385,75.4014 C140.896,75.4014 140.604,75.292 140.51,75.0733 C140.489,75.0316 140.479,74.9899 140.479,74.9483 C140.479,74.792 140.557,74.7035 140.713,74.6826 C140.734,74.6722 140.755,74.667 140.776,74.667"/>
<path class="Fingering" d="M105.787,75.5256 C105.673,75.5256 105.48,75.5829 105.209,75.6975 L105.209,75.5881 L106.647,74.8537 L106.709,74.8694 L106.709,79.6662 C106.709,79.8746 106.772,80.01 106.897,80.0725 C107.001,80.1142 107.193,80.135 107.475,80.135 L107.475,80.26 L105.256,80.26 L105.256,80.135 C105.61,80.1246 105.834,80.0621 105.928,79.9475 C105.99,79.8537 106.022,79.7079 106.022,79.51 L106.022,75.9006 C106.011,75.6506 105.933,75.5256 105.787,75.5256"/>
<path class="Fingering" d="M68.7517,81.4155 C68.9913,80.3947 69.5173,79.8686 70.3298,79.8374 C70.3611,79.8374 70.3871,79.8374 70.4079,79.8374 C70.8975,79.8374 71.2881,80.0145 71.5798,80.3686 C71.7881,80.629 71.8923,80.9207 71.8923,81.2436 C71.8923,81.8374 71.5746,82.478 70.9392,83.1655 C70.9183,83.1863 70.8923,83.2072 70.8611,83.228 L69.5329,84.6499 L71.4392,84.6499 C71.6475,84.6499 71.809,84.5926 71.9236,84.478 C71.9965,84.4051 72.085,84.2853 72.1892,84.1186 L72.2986,84.1499 L71.8611,85.228 L68.7361,85.228 L68.7361,85.1342 L70.1579,83.6186 C70.835,82.879 71.184,82.1863 71.2048,81.5405 C71.2048,81.0926 71.0329,80.7697 70.6892,80.5717 C70.5121,80.4676 70.309,80.4155 70.0798,80.4155 C69.7256,80.4155 69.4496,80.5509 69.2517,80.8217 C69.1371,80.978 69.0277,81.1915 68.9236,81.4624 L68.7517,81.4155 "/>
<path class="Tempo" d="M69.2761,34.859 C69.2292,34.859 69.1979,34.859 69.1979,34.9371 L69.1979,40.4371 C68.9948,40.2809 68.7448,40.1871 68.4323,40.1871 C67.2448,40.1871 66.2917,41.0621 66.2917,41.9996 C66.2917,42.5621 66.7448,42.9059 67.3386,42.9059 C68.2917,42.9059 69.4792,41.9996 69.4792,41.0934 L69.4792,37.0934 C69.8542,37.1715 70.4792,37.4371 70.8542,38.4684 C70.9479,38.734 71.0417,39.1402 71.0417,39.5934 C71.0417,39.9059 70.9792,40.2809 70.8542,40.609 C70.8229,40.6559 70.8229,40.6871 70.8229,40.7184 C70.8229,40.8434 70.9011,40.9059 70.9636,40.9371 C70.9636,40.9527 70.9948,40.9527 71.0104,40.9527 C71.0729,40.9527 71.1354,40.9059 71.1979,40.7965 C71.2136,40.7027 71.4011,40.0465 71.4011,39.5621 L71.4011,39.4996 C71.3698,38.5777 70.9636,37.6871 70.4479,36.9371 C70.0104,36.359 69.6667,35.734 69.5261,35.0309 C69.4792,34.8902 69.4167,34.859 69.3386,34.859 L69.2761,34.859 "/>
<path class="Tempo" d="M81.7604,39.0152 L75.1511,39.0152 L75.1511,37.859 L81.7604,37.859 L81.7604,39.0152 M81.7604,41.9371 L75.1511,41.9371 L75.1511,40.7965 L81.7604,40.7965 L81.7604,41.9371 M87.1979,36.0465 C87.0729,36.0465 86.7552,36.1402 86.2448,36.3277 C86.2136,36.3382 86.1927,36.3486 86.1823,36.359 L86.1823,36.0465 L89.1979,34.734 L89.4011,34.734 L89.4011,41.5621 C89.4011,42.0517 89.5,42.3642 89.6979,42.4996 C89.875,42.6246 90.2083,42.6923 90.6979,42.7027 L90.6979,42.984 L86.1979,42.984 L86.1979,42.7027 C86.8542,42.6923 87.2656,42.5882 87.4323,42.3902 C87.5677,42.2236 87.6354,41.9267 87.6354,41.4996 L87.6354,36.8746 C87.625,36.333 87.4792,36.0569 87.1979,36.0465 M95.6511,41.1402 C95.6511,40.2861 95.2344,39.6298 94.4011,39.1715 C94.1094,39.0152 93.7188,38.8486 93.2292,38.6715 L93.2292,38.4684 C94.0208,38.2184 94.5052,37.8902 94.6823,37.484 C94.7552,37.2965 94.7917,37.0934 94.7917,36.8746 C94.7917,36.2705 94.5573,35.8746 94.0886,35.6871 C93.9323,35.635 93.7604,35.609 93.5729,35.609 C93.0938,35.609 92.6875,35.8225 92.3542,36.2496 C92.2708,36.3642 92.1875,36.4944 92.1042,36.6402 L91.8386,36.484 C92.5052,35.3277 93.4219,34.7444 94.5886,34.734 C95.5052,34.734 96.1094,35.0361 96.4011,35.6402 C96.4948,35.8486 96.5417,36.083 96.5417,36.3434 C96.5417,36.8121 96.3958,37.1819 96.1042,37.4527 C95.9583,37.5777 95.7761,37.708 95.5573,37.8434 C96.5156,38.3017 97,39.0205 97.0104,39.9996 C97.0104,40.9059 96.6458,41.6663 95.9167,42.2809 C95.2292,42.8642 94.4011,43.1559 93.4323,43.1559 C92.599,43.1559 92.0365,42.9527 91.7448,42.5465 C91.6406,42.4007 91.5886,42.2444 91.5886,42.0777 C91.5886,41.7652 91.7396,41.5517 92.0417,41.4371 C92.1458,41.3955 92.2552,41.3746 92.3698,41.3746 C92.6927,41.3746 93.0417,41.5569 93.4167,41.9215 C93.75,42.2444 93.9792,42.4371 94.1042,42.4996 C94.2396,42.5621 94.3646,42.5934 94.4792,42.5934 C95,42.5934 95.3542,42.333 95.5417,41.8121 C95.6146,41.6142 95.6511,41.3902 95.6511,41.1402 M97.6823,38.9059 C97.6823,37.5934 97.9948,36.5309 98.6198,35.7184 C99.1302,35.0725 99.724,34.7444 100.401,34.734 C101.182,34.734 101.828,35.1402 102.339,35.9527 C102.849,36.7652 103.104,37.76 103.104,38.9371 C103.104,40.3121 102.786,41.4059 102.151,42.2184 C101.651,42.8225 101.073,43.1298 100.417,43.1402 C99.5833,43.1402 98.9115,42.7132 98.4011,41.859 C97.9219,41.0673 97.6823,40.083 97.6823,38.9059 M100.417,42.7965 C100.771,42.7965 101.005,42.4736 101.12,41.8277 C101.182,41.4423 101.214,40.9423 101.214,40.3277 L101.214,37.5777 C101.214,36.1402 101.021,35.3225 100.635,35.1246 C100.563,35.083 100.479,35.0621 100.385,35.0621 C100.021,35.0621 99.7813,35.3955 99.6667,36.0621 C99.6146,36.4371 99.5886,36.9423 99.5886,37.5777 L99.5886,40.3277 C99.5886,41.6819 99.7552,42.4736 100.089,42.7027 C100.182,42.7652 100.292,42.7965 100.417,42.7965"/>
<path class="StaffText" d="M475.923,51.833 L475.923,52.0205 C475.559,52.0414 475.278,52.1247 475.08,52.2705 C474.913,52.3955 474.699,52.6247 474.439,52.958 L472.97,54.7705 L474.892,57.5205 C475.132,57.8643 475.345,58.0726 475.533,58.1455 C475.647,58.1976 475.804,58.2341 476.002,58.2549 L476.002,58.4424 L473.033,58.4424 L473.033,58.2549 C473.491,58.2028 473.746,58.1195 473.798,58.0049 C473.809,57.9841 473.814,57.9632 473.814,57.9424 C473.804,57.7861 473.632,57.458 473.298,56.958 L472.345,55.5674 L471.158,57.0361 C470.814,57.4736 470.642,57.7601 470.642,57.8955 C470.642,58.0518 470.741,58.1507 470.939,58.1924 C471.054,58.2236 471.205,58.2445 471.392,58.2549 L471.392,58.4424 L469.064,58.4424 L469.064,58.2549 C469.324,58.2341 469.522,58.1716 469.658,58.0674 C469.814,57.9424 470.1,57.6247 470.517,57.1143 L472.095,55.1768 L471.002,53.583 C470.491,52.8226 470.116,52.3643 469.877,52.208 C469.71,52.0934 469.481,52.0309 469.189,52.0205 L469.189,51.833 L472.205,51.833 L472.205,52.0205 L471.923,52.0205 C471.611,52.0414 471.455,52.1403 471.455,52.3174 C471.455,52.5361 471.736,53.0361 472.298,53.8174 L472.72,54.4111 L473.845,53.0205 C474.116,52.6872 474.252,52.458 474.252,52.333 C474.252,52.1872 474.158,52.0934 473.97,52.0518 C473.866,52.0309 473.725,52.0205 473.548,52.0205 L473.548,51.833 L475.923,51.833 "/>
<path class="StaffText" d="M153.572,45.3746 L153.572,45.5621 C153.208,45.583 152.927,45.6663 152.729,45.8121 C152.562,45.9371 152.348,46.1663 152.088,46.4996 L150.619,48.3121 L152.541,51.0621 C152.781,51.4059 152.994,51.6142 153.182,51.6871 C153.296,51.7392 153.453,51.7757 153.65,51.7965 L153.65,51.984 L150.682,51.984 L150.682,51.7965 C151.14,51.7444 151.395,51.6611 151.447,51.5465 C151.458,51.5257 151.463,51.5048 151.463,51.484 C151.453,51.3277 151.281,50.9996 150.947,50.4996 L149.994,49.109 L148.807,50.5777 C148.463,51.0152 148.291,51.3017 148.291,51.4371 C148.291,51.5934 148.39,51.6923 148.588,51.734 C148.703,51.7652 148.854,51.7861 149.041,51.7965 L149.041,51.984 L146.713,51.984 L146.713,51.7965 C146.973,51.7757 147.171,51.7132 147.307,51.609 C147.463,51.484 147.749,51.1663 148.166,50.6559 L149.744,48.7184 L148.65,47.1246 C148.14,46.3642 147.765,45.9059 147.525,45.7496 C147.359,45.635 147.13,45.5725 146.838,45.5621 L146.838,45.3746 L149.854,45.3746 L149.854,45.5621 L149.572,45.5621 C149.26,45.583 149.104,45.6819 149.104,45.859 C149.104,46.0777 149.385,46.5777 149.947,47.359 L150.369,47.9527 L151.494,46.5621 C151.765,46.2288 151.9,45.9996 151.9,45.8746 C151.9,45.7288 151.807,45.635 151.619,45.5934 C151.515,45.5725 151.374,45.5621 151.197,45.5621 L151.197,45.3746 L153.572,45.3746 M154.744,50.8902 L154.744,46.4527 C154.744,46.0673 154.677,45.8277 154.541,45.734 C154.427,45.6402 154.171,45.583 153.775,45.5621 L153.775,45.3746 L156.744,45.3746 L156.744,45.5621 C156.286,45.583 156.005,45.6559 155.9,45.7809 C155.807,45.9059 155.76,46.1298 155.76,46.4527 L155.76,50.8902 C155.76,51.2861 155.838,51.5361 155.994,51.6402 C156.119,51.734 156.369,51.7861 156.744,51.7965 L156.744,51.984 L153.775,51.984 L153.775,51.7965 C154.223,51.7861 154.499,51.7132 154.604,51.5777 C154.697,51.4527 154.744,51.2236 154.744,50.8902"/>
<path class="StaffText" d="M81.9388,49.349 L81.9388,49.5365 C81.5742,49.5574 81.293,49.6407 81.0951,49.7865 C80.9284,49.9115 80.7148,50.1407 80.4544,50.474 L78.9857,52.2865 L80.9076,55.0365 C81.1471,55.3803 81.3607,55.5886 81.5482,55.6615 C81.6628,55.7136 81.819,55.7501 82.0169,55.7709 L82.0169,55.9584 L79.0482,55.9584 L79.0482,55.7709 C79.5065,55.7188 79.7617,55.6355 79.8138,55.5209 C79.8242,55.5001 79.8294,55.4792 79.8294,55.4584 C79.819,55.3021 79.6471,54.974 79.3138,54.474 L78.3607,53.0834 L77.1732,54.5521 C76.8294,54.9896 76.6576,55.2761 76.6576,55.4115 C76.6576,55.5678 76.7565,55.6667 76.9544,55.7084 C77.069,55.7396 77.2201,55.7605 77.4076,55.7709 L77.4076,55.9584 L75.0794,55.9584 L75.0794,55.7709 C75.3398,55.7501 75.5378,55.6876 75.6732,55.5834 C75.8294,55.4584 76.1159,55.1407 76.5326,54.6303 L78.1107,52.6928 L77.0169,51.099 C76.5065,50.3386 76.1315,49.8803 75.8919,49.724 C75.7253,49.6094 75.4961,49.5469 75.2044,49.5365 L75.2044,49.349 L78.2201,49.349 L78.2201,49.5365 L77.9388,49.5365 C77.6263,49.5574 77.4701,49.6563 77.4701,49.8334 C77.4701,50.0521 77.7513,50.5521 78.3138,51.3334 L78.7357,51.9271 L79.8607,50.5365 C80.1315,50.2032 80.2669,49.974 80.2669,49.849 C80.2669,49.7032 80.1732,49.6094 79.9857,49.5678 C79.8815,49.5469 79.7409,49.5365 79.5638,49.5365 L79.5638,49.349 L81.9388,49.349 "/>
<path class="StaffText" d="M78.8138,25.2057 C79.2617,25.2057 79.7617,25.3203 80.3138,25.5495 C80.5534,25.6432 80.7253,25.6901 80.8294,25.6901 C80.9753,25.6901 81.1055,25.5807 81.2201,25.362 C81.2305,25.3203 81.2461,25.2787 81.2669,25.237 L81.5326,25.237 L81.5326,27.5807 L81.2826,27.5807 C81.0117,26.9766 80.7305,26.5339 80.4388,26.2526 C80.3763,26.1901 80.319,26.138 80.2669,26.0964 C79.8398,25.7214 79.3971,25.5339 78.9388,25.5339 C77.9388,25.5339 77.3451,26.2526 77.1576,27.6901 C77.1263,28.013 77.1107,28.362 77.1107,28.737 C77.1107,29.9245 77.3242,30.7943 77.7513,31.3464 C78.0846,31.763 78.543,31.9714 79.1263,31.9714 C79.6888,31.9714 80.0065,31.7943 80.0794,31.4401 C80.0898,31.3776 80.0951,31.3099 80.0951,31.237 L80.0951,30.1901 C80.0951,29.8985 80.0221,29.711 79.8763,29.6276 C79.7305,29.5547 79.4648,29.5078 79.0794,29.487 L79.0794,29.237 L82.5169,29.237 L82.5169,29.487 C82.1107,29.5287 81.8607,29.6172 81.7669,29.7526 C81.694,29.8672 81.6576,30.086 81.6576,30.4089 L81.6576,31.6745 C81.0638,32.0287 80.2773,32.237 79.2982,32.2995 C79.1628,32.2995 79.0273,32.2995 78.8919,32.2995 C77.7773,32.2995 76.8867,31.9401 76.2201,31.2214 C75.6263,30.5755 75.3294,29.7682 75.3294,28.7995 C75.3294,27.7578 75.6732,26.8932 76.3607,26.2057 C77.0273,25.5391 77.8451,25.2057 78.8138,25.2057 M86.5794,28.8307 C86.3607,28.8307 86.1471,28.711 85.9388,28.4714 C85.8242,28.3255 85.7409,28.2474 85.6888,28.237 C85.4701,28.237 85.3034,28.388 85.1888,28.6901 C85.1159,28.8464 85.0794,29.013 85.0794,29.1901 L85.0794,31.0807 C85.0794,31.4453 85.1523,31.6693 85.2982,31.7526 C85.3919,31.8151 85.5638,31.8568 85.8138,31.8776 L85.8138,32.112 L83.1732,32.112 L83.1732,31.8776 C83.444,31.8255 83.6055,31.7318 83.6576,31.5964 C83.6784,31.5235 83.6888,31.4141 83.6888,31.2682 L83.6888,28.3307 C83.6888,28.0703 83.6159,27.9037 83.4701,27.8307 C83.3971,27.7891 83.2982,27.7578 83.1732,27.737 L83.1732,27.5026 L85.0482,27.5026 L85.0482,28.3307 C85.4232,27.7787 85.793,27.4714 86.1576,27.4089 C86.2409,27.388 86.319,27.3776 86.3919,27.3776 C86.7357,27.3776 86.9805,27.5182 87.1263,27.7995 C87.1784,27.9141 87.2044,28.0339 87.2044,28.1589 C87.2044,28.4714 87.0794,28.6797 86.8294,28.7839 C86.7461,28.8151 86.6628,28.8307 86.5794,28.8307 M88.4544,28.0807 C88.4544,28.112 88.5065,28.2057 88.6107,28.362 C88.7044,28.5078 88.7513,28.6328 88.7513,28.737 C88.7513,28.9974 88.6211,29.1745 88.3607,29.2682 C88.2669,29.2995 88.1732,29.3151 88.0794,29.3151 C87.7148,29.3151 87.5013,29.1537 87.4388,28.8307 C87.4284,28.7682 87.4232,28.711 87.4232,28.6589 C87.4232,28.1901 87.6784,27.8412 88.1888,27.612 C88.5117,27.4557 88.8867,27.3776 89.3138,27.3776 C90.1888,27.3776 90.7878,27.6172 91.1107,28.0964 C91.2357,28.2943 91.2982,28.5182 91.2982,28.7682 L91.2982,31.3464 C91.3086,31.5026 91.3763,31.586 91.5013,31.5964 C91.5534,31.586 91.5898,31.5703 91.6107,31.5495 L91.7201,31.4557 L91.8607,31.6589 C91.4648,32.0339 91.0951,32.2318 90.7513,32.2526 C90.3763,32.2526 90.1315,32.112 90.0169,31.8307 C89.9857,31.737 89.9544,31.638 89.9232,31.5339 C89.3815,32.0026 88.8555,32.2422 88.3451,32.2526 C87.9076,32.2526 87.5898,32.086 87.3919,31.7526 C87.2878,31.586 87.2357,31.4037 87.2357,31.2057 C87.2357,30.6224 87.6836,30.1485 88.5794,29.7839 C88.819,29.6797 89.2669,29.5287 89.9232,29.3307 L89.9232,28.5964 C89.9232,28.0651 89.7044,27.7735 89.2669,27.7214 C89.2044,27.7214 89.1419,27.7214 89.0794,27.7214 C88.7878,27.7214 88.5898,27.8047 88.4857,27.9714 C88.4648,28.0026 88.4544,28.0391 88.4544,28.0807 M89.9076,31.0964 L89.9076,29.6589 C89.1055,29.8776 88.6992,30.2787 88.6888,30.862 C88.6888,31.1953 88.7982,31.4037 89.0169,31.487 C89.0794,31.5078 89.1419,31.5182 89.2044,31.5182 C89.4336,31.5182 89.668,31.3776 89.9076,31.0964 M95.3763,32.237 L95.3763,31.5964 C95.0221,31.9714 94.6784,32.1849 94.3451,32.237 C94.2513,32.2474 94.1523,32.2526 94.0482,32.2526 C93.4544,32.2526 92.9857,31.9766 92.6419,31.4245 C92.3711,30.9974 92.2357,30.4922 92.2357,29.9089 C92.2357,29.0547 92.4805,28.3828 92.9701,27.8932 C93.3034,27.5495 93.6992,27.3776 94.1576,27.3776 C94.5117,27.3776 94.8346,27.513 95.1263,27.7839 C95.2096,27.8568 95.2826,27.9245 95.3451,27.987 L95.3451,26.1745 C95.3451,25.9245 95.2878,25.7682 95.1732,25.7057 C95.069,25.6537 94.8711,25.6172 94.5794,25.5964 L94.5794,25.362 L96.7357,25.362 L96.7357,31.112 C96.7357,31.3932 96.819,31.5651 96.9857,31.6276 C97.069,31.6589 97.1836,31.6797 97.3294,31.6901 L97.3294,31.9245 L96.7044,32.0026 C96.1523,32.0755 95.7096,32.1537 95.3763,32.237 M94.5013,31.7057 C94.793,31.7057 95.043,31.5391 95.2513,31.2057 C95.3034,31.112 95.3346,31.0443 95.3451,31.0026 L95.3451,28.5495 C95.2201,28.2162 95.0117,28.0182 94.7201,27.9557 C94.668,27.9453 94.6159,27.9401 94.5638,27.9401 C94.0534,27.9401 93.7721,28.4453 93.7201,29.4557 C93.7201,29.5703 93.7201,29.6953 93.7201,29.8307 C93.7201,31.0703 93.9805,31.6953 94.5013,31.7057 M99.6732,29.6589 C99.7253,30.6797 99.9909,31.2787 100.47,31.4557 C100.595,31.4974 100.725,31.5182 100.861,31.5182 C101.225,31.5182 101.559,31.3516 101.861,31.0182 C101.913,30.9662 101.96,30.9141 102.001,30.862 L102.236,31.0026 C101.819,31.6068 101.408,31.987 101.001,32.1432 C100.793,32.2162 100.559,32.2526 100.298,32.2526 C99.5482,32.2526 98.9857,31.9453 98.6107,31.3307 C98.3607,30.9141 98.2357,30.4141 98.2357,29.8307 C98.2357,28.9349 98.5065,28.263 99.0482,27.8151 C99.4128,27.5235 99.8398,27.3776 100.329,27.3776 C101.434,27.3776 102.053,28.0964 102.189,29.5339 C102.189,29.5755 102.189,29.6172 102.189,29.6589 L99.6732,29.6589 M100.97,29.1432 C100.949,28.5182 100.882,28.1224 100.767,27.9557 C100.673,27.7995 100.527,27.7214 100.329,27.7214 C100.038,27.7214 99.8398,27.8932 99.7357,28.237 C99.6732,28.4766 99.6367,28.8307 99.6263,29.2995 L100.97,29.2995 L100.97,29.1432 M105.829,30.7057 C106.069,30.7057 106.382,30.8412 106.767,31.112 C107.142,31.3516 107.413,31.487 107.579,31.5182 C107.632,31.5287 107.678,31.5339 107.72,31.5339 C108.085,31.5339 108.366,31.3776 108.564,31.0651 C108.668,30.9089 108.72,30.737 108.72,30.5495 C108.72,30.0391 108.434,29.6276 107.861,29.3151 C107.694,29.2214 107.507,29.138 107.298,29.0651 C106.913,28.9505 106.314,28.862 105.501,28.7995 L106.47,25.362 L109.689,25.362 L109.251,26.6276 L106.47,26.6276 L106.251,27.4401 C106.949,27.4818 107.454,27.5443 107.767,27.6276 C108.559,27.8568 109.085,28.2995 109.345,28.9557 C109.439,29.2162 109.486,29.4922 109.486,29.7839 C109.486,30.5547 109.178,31.1693 108.564,31.6276 C108.043,32.0026 107.413,32.1901 106.673,32.1901 C105.996,32.1901 105.543,32.0182 105.314,31.6745 C105.241,31.5703 105.204,31.4505 105.204,31.3151 C105.204,31.0443 105.324,30.862 105.564,30.7682 C105.647,30.7266 105.736,30.7057 105.829,30.7057 M111.642,30.5495 C111.965,30.5495 112.21,30.6901 112.376,30.9714 C112.46,31.1172 112.501,31.263 112.501,31.4089 C112.501,31.7214 112.361,31.961 112.079,32.1276 C111.934,32.2005 111.788,32.237 111.642,32.237 C111.309,32.237 111.064,32.0964 110.908,31.8151 C110.835,31.6797 110.798,31.5391 110.798,31.3932 C110.798,31.0912 110.934,30.8568 111.204,30.6901 C111.34,30.5964 111.486,30.5495 111.642,30.5495 M111.642,27.3932 C111.965,27.3932 112.21,27.5287 112.376,27.7995 C112.46,27.9453 112.501,28.0912 112.501,28.237 C112.501,28.5599 112.361,28.8047 112.079,28.9714 C111.944,29.0443 111.798,29.0807 111.642,29.0807 C111.309,29.0807 111.064,28.9349 110.908,28.6432 C110.835,28.5078 110.798,28.3672 110.798,28.2214 C110.798,27.9193 110.934,27.6849 111.204,27.5182 C111.34,27.4349 111.486,27.3932 111.642,27.3932"/>
<path class="StaffText" d="M118.017,31.2995 C118.017,31.487 118.069,31.6068 118.173,31.6589 C118.298,31.711 118.6,31.737 119.079,31.737 L119.345,31.737 C120.116,31.737 120.658,31.6328 120.97,31.4245 C121.23,31.237 121.475,30.9037 121.704,30.4245 L121.986,30.4245 L121.533,32.112 L116.142,32.112 L116.142,31.9245 C116.548,31.8932 116.798,31.7995 116.892,31.6432 C116.965,31.5182 117.001,31.3099 117.001,31.0182 L117.001,26.5807 C117.001,26.1953 116.934,25.9505 116.798,25.8464 C116.673,25.763 116.454,25.711 116.142,25.6901 L116.142,25.5026 L121.439,25.5026 L121.47,26.9245 L121.22,26.9245 C121.137,26.4766 121.007,26.1901 120.829,26.0651 C120.632,25.9401 120.257,25.8776 119.704,25.8776 L118.361,25.8776 C118.173,25.8776 118.069,25.9245 118.048,26.0182 C118.027,26.0703 118.017,26.1328 118.017,26.2057 L118.017,28.4089 L119.564,28.4089 C120.053,28.4089 120.361,28.3047 120.486,28.0964 C120.548,27.9922 120.605,27.7891 120.658,27.487 L120.892,27.487 L120.892,29.7682 L120.658,29.7682 C120.595,29.3412 120.486,29.0807 120.329,28.987 C120.194,28.8932 119.939,28.8464 119.564,28.8464 L118.017,28.8464 L118.017,31.2995 M123.579,25.2995 L123.579,28.3307 C123.725,27.9974 124.001,27.7578 124.408,27.612 C124.595,27.5495 124.783,27.5182 124.97,27.5182 C125.533,27.5182 125.986,27.7682 126.329,28.2682 C126.6,28.6745 126.736,29.1485 126.736,29.6901 C126.736,30.4714 126.47,31.1068 125.939,31.5964 C125.501,32.0026 124.986,32.2057 124.392,32.2057 C123.84,32.2057 123.382,32.1016 123.017,31.8932 C122.84,31.7891 122.751,31.6849 122.751,31.5807 L122.751,26.3776 C122.751,26.1172 122.684,25.961 122.548,25.9089 C122.486,25.888 122.387,25.8776 122.251,25.8776 C122.178,25.8776 122.121,25.8776 122.079,25.8776 L122.079,25.7214 C122.6,25.5964 123.085,25.4505 123.533,25.2839 L123.579,25.2995 M123.579,28.8776 L123.579,31.4245 C123.579,31.5912 123.725,31.7214 124.017,31.8151 C124.184,31.8776 124.361,31.9089 124.548,31.9089 C125.163,31.9089 125.564,31.5912 125.751,30.9557 C125.824,30.7162 125.861,30.4453 125.861,30.1432 C125.861,29.2578 125.637,28.6485 125.189,28.3151 C125.001,28.1797 124.798,28.112 124.579,28.112 C124.225,28.112 123.944,28.237 123.736,28.487 C123.632,28.612 123.579,28.7422 123.579,28.8776 M130.111,28.1589 L130.111,27.987 C130.59,27.8412 131.059,27.6849 131.517,27.5182 L131.579,27.5339 L131.579,28.2995 C132.152,27.862 132.564,27.612 132.814,27.5495 C132.918,27.5287 133.022,27.5182 133.126,27.5182 C133.658,27.5287 134.012,27.8151 134.189,28.3776 C134.72,27.8047 135.267,27.5182 135.829,27.5182 C136.59,27.5287 136.975,28.1276 136.986,29.3151 L136.986,31.362 C136.996,31.7266 137.137,31.9193 137.408,31.9401 L137.673,31.9557 L137.673,32.112 L135.486,32.112 L135.486,31.9557 C135.809,31.9245 136.001,31.8516 136.064,31.737 C136.116,31.6432 136.142,31.4818 136.142,31.2526 L136.142,29.1432 C136.142,28.5912 136.033,28.2578 135.814,28.1432 C135.71,28.0807 135.569,28.0495 135.392,28.0495 C134.944,28.0599 134.579,28.263 134.298,28.6589 L134.298,31.1745 C134.298,31.5495 134.387,31.7839 134.564,31.8776 C134.668,31.9297 134.819,31.9557 135.017,31.9557 L135.017,32.112 L132.783,32.112 L132.783,31.9557 C133.105,31.9349 133.303,31.862 133.376,31.737 C133.439,31.6432 133.47,31.4818 133.47,31.2526 L133.47,29.0964 C133.47,28.3985 133.246,28.0495 132.798,28.0495 C132.434,28.0495 132.111,28.1693 131.829,28.4089 C131.757,28.4818 131.689,28.5599 131.626,28.6432 L131.626,31.4401 C131.626,31.6901 131.715,31.8464 131.892,31.9089 C131.986,31.9401 132.121,31.9557 132.298,31.9557 L132.298,32.112 L130.079,32.112 L130.079,31.9557 C130.434,31.9557 130.647,31.8724 130.72,31.7057 C130.762,31.6016 130.783,31.4557 130.783,31.2682 L130.783,28.7526 C130.783,28.3776 130.704,28.1693 130.548,28.1276 C130.517,28.1172 130.48,28.112 130.439,28.112 C130.335,28.112 130.225,28.1276 130.111,28.1589 M138.236,31.1432 C138.236,30.6328 138.553,30.2005 139.189,29.8464 C139.376,29.7526 139.876,29.5391 140.689,29.2057 C140.71,29.2057 140.725,29.2005 140.736,29.1901 L140.736,28.5807 C140.684,28.0599 140.428,27.7839 139.97,27.7526 C139.658,27.7526 139.439,27.8516 139.314,28.0495 C139.272,28.1224 139.251,28.1849 139.251,28.237 C139.251,28.2995 139.262,28.3828 139.283,28.487 C139.293,28.5599 139.298,28.612 139.298,28.6432 C139.298,28.8203 139.21,28.9453 139.033,29.0182 C138.97,29.0495 138.913,29.0651 138.861,29.0651 C138.673,29.0651 138.543,28.9766 138.47,28.7995 C138.439,28.7474 138.423,28.6901 138.423,28.6276 C138.423,28.263 138.642,27.9662 139.079,27.737 C139.382,27.5912 139.725,27.5182 140.111,27.5182 C140.829,27.5182 141.272,27.7735 141.439,28.2839 C141.512,28.5026 141.548,28.7787 141.548,29.112 L141.548,31.0495 C141.548,31.3828 141.611,31.5703 141.736,31.612 C141.777,31.6224 141.814,31.6276 141.845,31.6276 C141.991,31.6172 142.137,31.5547 142.283,31.4401 L142.283,31.6901 C142.012,32.0026 141.762,32.1745 141.533,32.2057 C141.48,32.2057 141.428,32.2057 141.376,32.2057 C141.064,32.2057 140.866,32.0495 140.783,31.737 C140.762,31.6537 140.751,31.5599 140.751,31.4557 C140.158,31.9349 139.668,32.1849 139.283,32.2057 C138.855,32.2057 138.548,32.0339 138.361,31.6901 C138.277,31.5235 138.236,31.3412 138.236,31.1432 M140.736,30.862 L140.736,29.4245 C139.913,29.7266 139.408,30.0339 139.22,30.3464 C139.147,30.4922 139.111,30.6485 139.111,30.8151 C139.111,31.211 139.257,31.461 139.548,31.5651 C139.621,31.5964 139.689,31.612 139.751,31.612 C139.97,31.6016 140.21,31.5235 140.47,31.3776 C140.616,31.2943 140.699,31.1901 140.72,31.0651 C140.73,31.0026 140.736,30.9349 140.736,30.862 M143.454,28.1901 C143.454,28.1901 143.303,28.2005 143.001,28.2214 L143.001,28.0495 C143.543,27.8828 144.064,27.7057 144.564,27.5182 L144.611,27.5495 L144.611,32.112 C144.611,33.3412 144.199,34.0495 143.376,34.237 C143.23,34.2682 143.079,34.2839 142.923,34.2839 C142.486,34.2839 142.194,34.1745 142.048,33.9557 C142.007,33.8828 141.986,33.8099 141.986,33.737 C141.986,33.5495 142.074,33.4297 142.251,33.3776 C142.303,33.3568 142.35,33.3464 142.392,33.3464 C142.538,33.3464 142.694,33.4505 142.861,33.6589 C143.038,33.8464 143.184,33.9453 143.298,33.9557 C143.527,33.9557 143.668,33.7943 143.72,33.4714 C143.751,33.2735 143.767,32.9714 143.767,32.5651 L143.767,28.7682 C143.767,28.4141 143.689,28.2214 143.533,28.1901 C143.501,28.1901 143.475,28.1901 143.454,28.1901 M144.111,25.2839 C144.329,25.2839 144.486,25.3828 144.579,25.5807 C144.611,25.6537 144.626,25.7266 144.626,25.7995 C144.626,26.0182 144.517,26.1745 144.298,26.2682 C144.236,26.2891 144.173,26.2995 144.111,26.2995 C143.882,26.2995 143.725,26.2005 143.642,26.0026 C143.621,25.9297 143.611,25.862 143.611,25.7995 C143.611,25.5807 143.704,25.4245 143.892,25.3307 C143.965,25.2995 144.038,25.2839 144.111,25.2839 M147.439,27.5182 C148.178,27.5182 148.762,27.7891 149.189,28.3307 C149.491,28.737 149.642,29.2162 149.642,29.7682 C149.642,30.5495 149.387,31.1745 148.876,31.6432 C148.46,32.0182 147.975,32.2057 147.423,32.2057 C146.715,32.2057 146.152,31.9349 145.736,31.3932 C145.402,30.9557 145.236,30.4401 145.236,29.8464 C145.236,29.0339 145.512,28.4089 146.064,27.9714 C146.449,27.6693 146.908,27.5182 147.439,27.5182 M146.142,29.362 C146.142,30.2682 146.329,30.961 146.704,31.4401 C146.944,31.7526 147.225,31.9089 147.548,31.9089 C148.069,31.9089 148.428,31.612 148.626,31.0182 C148.71,30.7578 148.751,30.461 148.751,30.1276 C148.751,29.2422 148.538,28.586 148.111,28.1589 C147.882,27.9297 147.616,27.8151 147.314,27.8151 C146.845,27.8151 146.507,28.0547 146.298,28.5339 C146.194,28.7735 146.142,29.0495 146.142,29.362 M153.001,28.487 C152.897,28.487 152.746,28.4037 152.548,28.237 C152.454,28.1537 152.382,28.112 152.329,28.112 C152.163,28.112 151.991,28.2422 151.814,28.5026 C151.699,28.6693 151.642,28.8151 151.642,28.9401 L151.642,31.2057 C151.642,31.5495 151.73,31.763 151.908,31.8464 C152.033,31.9089 152.225,31.9453 152.486,31.9557 L152.486,32.112 L150.079,32.112 L150.079,31.9557 C150.434,31.8932 150.647,31.8099 150.72,31.7057 C150.772,31.6224 150.798,31.4766 150.798,31.2682 L150.798,28.7526 C150.798,28.388 150.715,28.1901 150.548,28.1589 C150.517,28.1485 150.486,28.1432 150.454,28.1432 C150.34,28.1432 150.225,28.1589 150.111,28.1901 L150.111,28.0339 C150.642,27.8672 151.132,27.6953 151.579,27.5182 L151.642,27.5339 L151.642,28.4245 C151.986,27.9453 152.277,27.6589 152.517,27.5651 C152.621,27.5339 152.725,27.5182 152.829,27.5182 C153.142,27.5182 153.324,27.6485 153.376,27.9089 C153.376,27.9505 153.376,27.9974 153.376,28.0495 C153.345,28.3203 153.22,28.4662 153.001,28.487 M156.236,31.1432 C156.236,30.6328 156.553,30.2005 157.189,29.8464 C157.376,29.7526 157.876,29.5391 158.689,29.2057 C158.71,29.2057 158.725,29.2005 158.736,29.1901 L158.736,28.5807 C158.684,28.0599 158.428,27.7839 157.97,27.7526 C157.658,27.7526 157.439,27.8516 157.314,28.0495 C157.272,28.1224 157.251,28.1849 157.251,28.237 C157.251,28.2995 157.262,28.3828 157.283,28.487 C157.293,28.5599 157.298,28.612 157.298,28.6432 C157.298,28.8203 157.21,28.9453 157.033,29.0182 C156.97,29.0495 156.913,29.0651 156.861,29.0651 C156.673,29.0651 156.543,28.9766 156.47,28.7995 C156.439,28.7474 156.423,28.6901 156.423,28.6276 C156.423,28.263 156.642,27.9662 157.079,27.737 C157.382,27.5912 157.725,27.5182 158.111,27.5182 C158.829,27.5182 159.272,27.7735 159.439,28.2839 C159.512,28.5026 159.548,28.7787 159.548,29.112 L159.548,31.0495 C159.548,31.3828 159.611,31.5703 159.736,31.612 C159.777,31.6224 159.814,31.6276 159.845,31.6276 C159.991,31.6172 160.137,31.5547 160.283,31.4401 L160.283,31.6901 C160.012,32.0026 159.762,32.1745 159.533,32.2057 C159.48,32.2057 159.428,32.2057 159.376,32.2057 C159.064,32.2057 158.866,32.0495 158.783,31.737 C158.762,31.6537 158.751,31.5599 158.751,31.4557 C158.158,31.9349 157.668,32.1849 157.283,32.2057 C156.855,32.2057 156.548,32.0339 156.361,31.6901 C156.277,31.5235 156.236,31.3412 156.236,31.1432 M158.736,30.862 L158.736,29.4245 C157.913,29.7266 157.408,30.0339 157.22,30.3464 C157.147,30.4922 157.111,30.6485 157.111,30.8151 C157.111,31.211 157.257,31.461 157.548,31.5651 C157.621,31.5964 157.689,31.612 157.751,31.612 C157.97,31.6016 158.21,31.5235 158.47,31.3776 C158.616,31.2943 158.699,31.1901 158.72,31.0651 C158.73,31.0026 158.736,30.9349 158.736,30.862 M163.001,28.487 C162.897,28.487 162.746,28.4037 162.548,28.237 C162.454,28.1537 162.382,28.112 162.329,28.112 C162.163,28.112 161.991,28.2422 161.814,28.5026 C161.699,28.6693 161.642,28.8151 161.642,28.9401 L161.642,31.2057 C161.642,31.5495 161.73,31.763 161.908,31.8464 C162.033,31.9089 162.225,31.9453 162.486,31.9557 L162.486,32.112 L160.079,32.112 L160.079,31.9557 C160.434,31.8932 160.647,31.8099 160.72,31.7057 C160.772,31.6224 160.798,31.4766 160.798,31.2682 L160.798,28.7526 C160.798,28.388 160.715,28.1901 160.548,28.1589 C160.517,28.1485 160.486,28.1432 160.454,28.1432 C160.34,28.1432 160.225,28.1589 160.111,28.1901 L160.111,28.0339 C160.642,27.8672 161.132,27.6953 161.579,27.5182 L161.642,27.5339 L161.642,28.4245 C161.986,27.9453 162.277,27.6589 162.517,27.5651 C162.621,27.5339 162.725,27.5182 162.829,27.5182 C163.142,27.5182 163.324,27.6485 163.376,27.9089 C163.376,27.9505 163.376,27.9974 163.376,28.0495 C163.345,28.3203 163.22,28.4662 163.001,28.487 M163.126,28.1901 L163.126,28.0182 C163.553,27.8932 164.033,27.7266 164.564,27.5182 L164.626,27.5339 L164.626,28.2995 C165.053,27.7787 165.533,27.5182 166.064,27.5182 C166.626,27.5182 167.069,27.7787 167.392,28.2995 C167.621,28.6849 167.736,29.1328 167.736,29.6432 C167.736,30.4557 167.486,31.1172 166.986,31.6276 C166.6,32.013 166.152,32.2057 165.642,32.2057 C165.309,32.2057 165.017,32.1068 164.767,31.9089 C164.715,31.8776 164.668,31.8412 164.626,31.7995 L164.626,33.362 C164.626,33.7057 164.694,33.9141 164.829,33.987 C164.954,34.0599 165.178,34.0964 165.501,34.0964 L165.501,34.2839 L163.079,34.2839 L163.079,34.112 C163.434,34.0807 163.647,33.9974 163.72,33.862 C163.762,33.7682 163.783,33.6224 163.783,33.4245 L163.783,28.737 C163.783,28.4453 163.73,28.2735 163.626,28.2214 C163.564,28.1901 163.48,28.1745 163.376,28.1745 C163.262,28.1745 163.178,28.1797 163.126,28.1901 M164.626,28.7839 L164.626,31.2526 C164.626,31.4297 164.772,31.5964 165.064,31.7526 C165.272,31.8568 165.47,31.9089 165.658,31.9089 C166.116,31.9089 166.454,31.6537 166.673,31.1432 C166.809,30.8203 166.876,30.4557 166.876,30.0495 C166.876,29.2266 166.668,28.6537 166.251,28.3307 C166.074,28.1849 165.871,28.112 165.642,28.112 C165.34,28.112 165.069,28.2214 164.829,28.4401 C164.704,28.5547 164.637,28.6693 164.626,28.7839 M168.954,29.3464 C168.996,30.5235 169.382,31.2162 170.111,31.4245 C170.236,31.4662 170.371,31.487 170.517,31.487 C171.007,31.487 171.423,31.2787 171.767,30.862 C171.861,30.7474 171.96,30.612 172.064,30.4557 L172.22,30.5182 C171.855,31.4766 171.283,32.0287 170.501,32.1745 C170.366,32.1953 170.236,32.2057 170.111,32.2057 C169.371,32.2057 168.84,31.8932 168.517,31.2682 C168.329,30.8932 168.236,30.461 168.236,29.9714 C168.236,29.086 168.512,28.4141 169.064,27.9557 C169.428,27.6641 169.85,27.5182 170.329,27.5182 C171.246,27.5182 171.798,28.0391 171.986,29.0807 C172.007,29.1745 172.022,29.263 172.033,29.3464 L168.954,29.3464 M168.97,29.0495 L171.017,29.0495 C170.923,28.4766 170.757,28.1224 170.517,27.987 C170.392,27.9245 170.23,27.8932 170.033,27.8932 C169.439,27.8932 169.085,28.2682 168.97,29.0182 C168.97,29.0287 168.97,29.0391 168.97,29.0495 M172.579,31.5339 C172.579,31.3985 172.658,31.2526 172.814,31.0964 C172.908,31.0026 173.126,30.7995 173.47,30.487 C172.97,30.2266 172.673,29.8985 172.579,29.5026 C172.559,29.388 172.548,29.2682 172.548,29.1432 C172.548,28.612 172.762,28.1849 173.189,27.862 C173.491,27.6328 173.835,27.5182 174.22,27.5182 C174.47,27.5182 174.777,27.586 175.142,27.7214 C175.382,27.8047 175.595,27.8464 175.783,27.8464 L176.548,27.8464 L176.548,28.2214 L175.72,28.2214 C175.845,28.513 175.908,28.7943 175.908,29.0651 C175.908,29.638 175.684,30.0703 175.236,30.362 C174.965,30.5391 174.673,30.6276 174.361,30.6276 C174.267,30.6276 174.074,30.6068 173.783,30.5651 C173.585,30.6276 173.418,30.7682 173.283,30.987 C173.22,31.0703 173.189,31.1432 173.189,31.2057 C173.189,31.362 173.439,31.4505 173.939,31.4714 C173.949,31.4714 173.96,31.4714 173.97,31.4714 L175.251,31.5339 C175.803,31.5443 176.173,31.7474 176.361,32.1432 C176.434,32.2787 176.47,32.4297 176.47,32.5964 C176.47,33.0964 176.158,33.5235 175.533,33.8776 C175.022,34.1485 174.465,34.2839 173.861,34.2839 C173.236,34.2839 172.751,34.1328 172.408,33.8307 C172.23,33.6641 172.142,33.487 172.142,33.2995 C172.142,33.0078 172.355,32.6797 172.783,32.3151 C172.887,32.2318 172.996,32.1432 173.111,32.0495 C172.809,31.9141 172.637,31.7787 172.595,31.6432 C172.585,31.612 172.579,31.5755 172.579,31.5339 M173.329,32.0807 C173.027,32.4557 172.866,32.7162 172.845,32.862 C172.835,32.9037 172.829,32.9453 172.829,32.987 C172.829,33.2891 173.053,33.5078 173.501,33.6432 C173.73,33.7162 173.996,33.7526 174.298,33.7526 C175.132,33.7526 175.699,33.5703 176.001,33.2057 C176.126,33.0495 176.189,32.888 176.189,32.7214 C176.189,32.4714 176.022,32.3151 175.689,32.2526 C175.501,32.2214 175.251,32.2057 174.939,32.2057 C174.272,32.2057 173.736,32.1641 173.329,32.0807 M175.142,29.4714 C175.142,29.0443 175.053,28.6641 174.876,28.3307 C174.678,27.9974 174.423,27.8255 174.111,27.8151 C173.736,27.8151 173.501,28.013 173.408,28.4089 C173.387,28.513 173.376,28.6276 173.376,28.7526 C173.376,29.5547 173.6,30.0651 174.048,30.2839 C174.163,30.3464 174.277,30.3776 174.392,30.3776 C174.757,30.3776 174.991,30.1953 175.095,29.8307 C175.126,29.7162 175.142,29.5964 175.142,29.4714 M177.579,31.5339 C177.579,31.3985 177.658,31.2526 177.814,31.0964 C177.908,31.0026 178.126,30.7995 178.47,30.487 C177.97,30.2266 177.673,29.8985 177.579,29.5026 C177.559,29.388 177.548,29.2682 177.548,29.1432 C177.548,28.612 177.762,28.1849 178.189,27.862 C178.491,27.6328 178.835,27.5182 179.22,27.5182 C179.47,27.5182 179.777,27.586 180.142,27.7214 C180.382,27.8047 180.595,27.8464 180.783,27.8464 L181.548,27.8464 L181.548,28.2214 L180.72,28.2214 C180.845,28.513 180.908,28.7943 180.908,29.0651 C180.908,29.638 180.684,30.0703 180.236,30.362 C179.965,30.5391 179.673,30.6276 179.361,30.6276 C179.267,30.6276 179.074,30.6068 178.783,30.5651 C178.585,30.6276 178.418,30.7682 178.283,30.987 C178.22,31.0703 178.189,31.1432 178.189,31.2057 C178.189,31.362 178.439,31.4505 178.939,31.4714 C178.949,31.4714 178.96,31.4714 178.97,31.4714 L180.251,31.5339 C180.803,31.5443 181.173,31.7474 181.361,32.1432 C181.434,32.2787 181.47,32.4297 181.47,32.5964 C181.47,33.0964 181.158,33.5235 180.533,33.8776 C180.022,34.1485 179.465,34.2839 178.861,34.2839 C178.236,34.2839 177.751,34.1328 177.408,33.8307 C177.23,33.6641 177.142,33.487 177.142,33.2995 C177.142,33.0078 177.355,32.6797 177.783,32.3151 C177.887,32.2318 177.996,32.1432 178.111,32.0495 C177.809,31.9141 177.637,31.7787 177.595,31.6432 C177.585,31.612 177.579,31.5755 177.579,31.5339 M178.329,32.0807 C178.027,32.4557 177.866,32.7162 177.845,32.862 C177.835,32.9037 177.829,32.9453 177.829,32.987 C177.829,33.2891 178.053,33.5078 178.501,33.6432 C178.73,33.7162 178.996,33.7526 179.298,33.7526 C180.132,33.7526 180.699,33.5703 181.001,33.2057 C181.126,33.0495 181.189,32.888 181.189,32.7214 C181.189,32.4714 181.022,32.3151 180.689,32.2526 C180.501,32.2214 180.251,32.2057 179.939,32.2057 C179.272,32.2057 178.736,32.1641 178.329,32.0807 M180.142,29.4714 C180.142,29.0443 180.053,28.6641 179.876,28.3307 C179.678,27.9974 179.423,27.8255 179.111,27.8151 C178.736,27.8151 178.501,28.013 178.408,28.4089 C178.387,28.513 178.376,28.6276 178.376,28.7526 C178.376,29.5547 178.6,30.0651 179.048,30.2839 C179.163,30.3464 179.277,30.3776 179.392,30.3776 C179.757,30.3776 179.991,30.1953 180.095,29.8307 C180.126,29.7162 180.142,29.5964 180.142,29.4714 M182.611,28.1901 C182.454,28.1901 182.314,28.2005 182.189,28.2214 L182.189,28.0651 C182.658,27.9297 183.173,27.7474 183.736,27.5182 L183.767,27.5495 L183.767,31.0964 C183.767,31.4818 183.824,31.7214 183.939,31.8151 C184.033,31.888 184.225,31.9349 184.517,31.9557 L184.517,32.112 L182.142,32.112 L182.142,31.9557 C182.507,31.9349 182.736,31.8672 182.829,31.7526 C182.902,31.638 182.939,31.4193 182.939,31.0964 L182.939,28.7682 C182.939,28.4141 182.855,28.2214 182.689,28.1901 C182.658,28.1901 182.632,28.1901 182.611,28.1901 M183.267,25.2839 C183.486,25.2839 183.642,25.3828 183.736,25.5807 C183.767,25.6537 183.783,25.7266 183.783,25.7995 C183.783,26.0182 183.678,26.1745 183.47,26.2682 C183.397,26.2891 183.329,26.2995 183.267,26.2995 C183.048,26.2995 182.892,26.2005 182.798,26.0026 C182.777,25.9297 182.767,25.862 182.767,25.7995 C182.767,25.5807 182.861,25.4245 183.048,25.3307 C183.121,25.2995 183.194,25.2839 183.267,25.2839 M187.439,27.5182 C188.178,27.5182 188.762,27.7891 189.189,28.3307 C189.491,28.737 189.642,29.2162 189.642,29.7682 C189.642,30.5495 189.387,31.1745 188.876,31.6432 C188.46,32.0182 187.975,32.2057 187.423,32.2057 C186.715,32.2057 186.152,31.9349 185.736,31.3932 C185.402,30.9557 185.236,30.4401 185.236,29.8464 C185.236,29.0339 185.512,28.4089 186.064,27.9714 C186.449,27.6693 186.908,27.5182 187.439,27.5182 M186.142,29.362 C186.142,30.2682 186.329,30.961 186.704,31.4401 C186.944,31.7526 187.225,31.9089 187.548,31.9089 C188.069,31.9089 188.428,31.612 188.626,31.0182 C188.71,30.7578 188.751,30.461 188.751,30.1276 C188.751,29.2422 188.538,28.586 188.111,28.1589 C187.882,27.9297 187.616,27.8151 187.314,27.8151 C186.845,27.8151 186.507,28.0547 186.298,28.5339 C186.194,28.7735 186.142,29.0495 186.142,29.362 M195.579,27.612 L195.579,27.9089 L194.564,27.9089 L194.564,30.7682 C194.564,31.3099 194.699,31.6068 194.97,31.6589 C195.001,31.6693 195.038,31.6745 195.079,31.6745 C195.288,31.6641 195.491,31.5443 195.689,31.3151 L195.814,31.4401 C195.491,31.9505 195.09,32.2057 194.611,32.2057 C194.027,32.1953 193.73,31.7735 193.72,30.9401 L193.72,27.9089 L193.189,27.9089 C193.168,27.888 193.158,27.8672 193.158,27.8464 C193.158,27.8047 193.199,27.763 193.283,27.7214 C193.564,27.5339 193.897,27.1693 194.283,26.6276 C194.293,26.6172 194.298,26.612 194.298,26.612 C194.402,26.4557 194.47,26.362 194.501,26.3307 C194.543,26.3412 194.564,26.3828 194.564,26.4557 L194.564,27.612 L195.579,27.612 M199.329,29.0182 C199.121,28.3932 198.954,28.0235 198.829,27.9089 C198.736,27.836 198.605,27.7891 198.439,27.7682 L198.439,27.612 L200.47,27.612 L200.47,27.7682 C200.137,27.8099 199.949,27.8828 199.908,27.987 C199.897,28.0287 199.892,28.0755 199.892,28.1276 C199.892,28.211 199.944,28.3985 200.048,28.6901 L200.064,28.7057 L200.064,28.7214 L200.908,30.9557 L201.798,28.737 C201.913,28.4557 201.97,28.237 201.97,28.0807 C201.97,27.9557 201.892,27.8672 201.736,27.8151 C201.673,27.7943 201.605,27.7787 201.533,27.7682 L201.533,27.612 L202.767,27.612 L202.767,27.7682 C202.642,27.8099 202.548,27.8828 202.486,27.987 C202.454,28.0599 202.408,28.1641 202.345,28.2995 L200.97,31.7682 C200.835,32.0807 200.741,32.2422 200.689,32.2526 C200.647,32.2526 200.579,32.1432 200.486,31.9245 C200.475,31.8932 200.465,31.8568 200.454,31.8151 L199.548,29.4557 L198.423,31.862 C198.309,32.112 198.225,32.2422 198.173,32.2526 C198.121,32.2526 198.038,32.112 197.923,31.8307 C197.913,31.8203 197.908,31.8151 197.908,31.8151 L196.564,28.3932 C196.428,28.0495 196.303,27.8516 196.189,27.7995 C196.137,27.7787 196.085,27.7682 196.033,27.7682 L196.033,27.612 L197.829,27.612 L197.829,27.7682 C197.559,27.7995 197.413,27.8776 197.392,28.0026 C197.382,28.0339 197.376,28.0651 197.376,28.0964 C197.376,28.1901 197.397,28.2891 197.439,28.3932 L198.423,31.0026 L199.329,29.0182 M205.439,27.5182 C206.178,27.5182 206.762,27.7891 207.189,28.3307 C207.491,28.737 207.642,29.2162 207.642,29.7682 C207.642,30.5495 207.387,31.1745 206.876,31.6432 C206.46,32.0182 205.975,32.2057 205.423,32.2057 C204.715,32.2057 204.152,31.9349 203.736,31.3932 C203.402,30.9557 203.236,30.4401 203.236,29.8464 C203.236,29.0339 203.512,28.4089 204.064,27.9714 C204.449,27.6693 204.908,27.5182 205.439,27.5182 M204.142,29.362 C204.142,30.2682 204.329,30.961 204.704,31.4401 C204.944,31.7526 205.225,31.9089 205.548,31.9089 C206.069,31.9089 206.428,31.612 206.626,31.0182 C206.71,30.7578 206.751,30.461 206.751,30.1276 C206.751,29.2422 206.538,28.586 206.111,28.1589 C205.882,27.9297 205.616,27.8151 205.314,27.8151 C204.845,27.8151 204.507,28.0547 204.298,28.5339 C204.194,28.7735 204.142,29.0495 204.142,29.362 M213.439,27.5182 C214.178,27.5182 214.762,27.7891 215.189,28.3307 C215.491,28.737 215.642,29.2162 215.642,29.7682 C215.642,30.5495 215.387,31.1745 214.876,31.6432 C214.46,32.0182 213.975,32.2057 213.423,32.2057 C212.715,32.2057 212.152,31.9349 211.736,31.3932 C211.402,30.9557 211.236,30.4401 211.236,29.8464 C211.236,29.0339 211.512,28.4089 212.064,27.9714 C212.449,27.6693 212.908,27.5182 213.439,27.5182 M212.142,29.362 C212.142,30.2682 212.329,30.961 212.704,31.4401 C212.944,31.7526 213.225,31.9089 213.548,31.9089 C214.069,31.9089 214.428,31.612 214.626,31.0182 C214.71,30.7578 214.751,30.461 214.751,30.1276 C214.751,29.2422 214.538,28.586 214.111,28.1589 C213.882,27.9297 213.616,27.8151 213.314,27.8151 C212.845,27.8151 212.507,28.0547 212.298,28.5339 C212.194,28.7735 212.142,29.0495 212.142,29.362 M216.236,29.987 C216.236,29.1432 216.522,28.4818 217.095,28.0026 C217.491,27.6797 217.934,27.5182 218.423,27.5182 C218.975,27.5182 219.402,27.6693 219.704,27.9714 C219.882,28.1485 219.97,28.3412 219.97,28.5495 C219.97,28.7266 219.876,28.8516 219.689,28.9245 C219.616,28.9557 219.548,28.9714 219.486,28.9714 C219.277,28.9714 219.126,28.836 219.033,28.5651 C219.022,28.5443 219.017,28.5235 219.017,28.5026 L218.954,28.2839 C218.892,28.0339 218.777,27.888 218.611,27.8464 C218.538,27.8255 218.454,27.8151 218.361,27.8151 C217.861,27.8151 217.48,28.0547 217.22,28.5339 C217.074,28.8255 217.001,29.1641 217.001,29.5495 C217.001,30.2787 217.225,30.8255 217.673,31.1901 C217.934,31.388 218.225,31.487 218.548,31.487 C218.965,31.487 219.324,31.3203 219.626,30.987 C219.73,30.862 219.845,30.7162 219.97,30.5495 L220.111,30.6432 C219.736,31.362 219.319,31.8307 218.861,32.0495 C218.621,32.1537 218.382,32.2057 218.142,32.2057 C217.496,32.2057 216.991,31.9401 216.626,31.4089 C216.366,31.0026 216.236,30.5287 216.236,29.987 M222.579,27.612 L222.579,27.9089 L221.564,27.9089 L221.564,30.7682 C221.564,31.3099 221.699,31.6068 221.97,31.6589 C222.001,31.6693 222.038,31.6745 222.079,31.6745 C222.288,31.6641 222.491,31.5443 222.689,31.3151 L222.814,31.4401 C222.491,31.9505 222.09,32.2057 221.611,32.2057 C221.027,32.1953 220.73,31.7735 220.72,30.9401 L220.72,27.9089 L220.189,27.9089 C220.168,27.888 220.158,27.8672 220.158,27.8464 C220.158,27.8047 220.199,27.763 220.283,27.7214 C220.564,27.5339 220.897,27.1693 221.283,26.6276 C221.293,26.6172 221.298,26.612 221.298,26.612 C221.402,26.4557 221.47,26.362 221.501,26.3307 C221.543,26.3412 221.564,26.3828 221.564,26.4557 L221.564,27.612 L222.579,27.612 M223.236,31.1432 C223.236,30.6328 223.553,30.2005 224.189,29.8464 C224.376,29.7526 224.876,29.5391 225.689,29.2057 C225.71,29.2057 225.725,29.2005 225.736,29.1901 L225.736,28.5807 C225.684,28.0599 225.428,27.7839 224.97,27.7526 C224.658,27.7526 224.439,27.8516 224.314,28.0495 C224.272,28.1224 224.251,28.1849 224.251,28.237 C224.251,28.2995 224.262,28.3828 224.283,28.487 C224.293,28.5599 224.298,28.612 224.298,28.6432 C224.298,28.8203 224.21,28.9453 224.033,29.0182 C223.97,29.0495 223.913,29.0651 223.861,29.0651 C223.673,29.0651 223.543,28.9766 223.47,28.7995 C223.439,28.7474 223.423,28.6901 223.423,28.6276 C223.423,28.263 223.642,27.9662 224.079,27.737 C224.382,27.5912 224.725,27.5182 225.111,27.5182 C225.829,27.5182 226.272,27.7735 226.439,28.2839 C226.512,28.5026 226.548,28.7787 226.548,29.112 L226.548,31.0495 C226.548,31.3828 226.611,31.5703 226.736,31.612 C226.777,31.6224 226.814,31.6276 226.845,31.6276 C226.991,31.6172 227.137,31.5547 227.283,31.4401 L227.283,31.6901 C227.012,32.0026 226.762,32.1745 226.533,32.2057 C226.48,32.2057 226.428,32.2057 226.376,32.2057 C226.064,32.2057 225.866,32.0495 225.783,31.737 C225.762,31.6537 225.751,31.5599 225.751,31.4557 C225.158,31.9349 224.668,32.1849 224.283,32.2057 C223.855,32.2057 223.548,32.0339 223.361,31.6901 C223.277,31.5235 223.236,31.3412 223.236,31.1432 M225.736,30.862 L225.736,29.4245 C224.913,29.7266 224.408,30.0339 224.22,30.3464 C224.147,30.4922 224.111,30.6485 224.111,30.8151 C224.111,31.211 224.257,31.461 224.548,31.5651 C224.621,31.5964 224.689,31.612 224.751,31.612 C224.97,31.6016 225.21,31.5235 225.47,31.3776 C225.616,31.2943 225.699,31.1901 225.72,31.0651 C225.73,31.0026 225.736,30.9349 225.736,30.862 M231.611,27.612 L231.611,27.7682 C231.444,27.7891 231.319,27.8568 231.236,27.9714 C231.163,28.0755 231.074,28.2682 230.97,28.5495 L229.689,31.7526 C229.553,32.0755 229.46,32.2422 229.408,32.2526 C229.335,32.2526 229.251,32.1068 229.158,31.8151 C229.147,31.8047 229.142,31.7943 229.142,31.7839 L227.939,28.9089 C227.689,28.3151 227.501,27.9662 227.376,27.862 C227.293,27.7995 227.178,27.7682 227.033,27.7682 L227.033,27.612 L229.001,27.612 L229.001,27.7682 C228.72,27.7891 228.569,27.862 228.548,27.987 C228.538,28.0078 228.533,28.0287 228.533,28.0495 C228.533,28.1641 228.564,28.2839 228.626,28.4089 L229.642,30.9714 L230.626,28.3776 C230.668,28.2839 230.689,28.1849 230.689,28.0807 C230.689,27.9037 230.543,27.7995 230.251,27.7682 C230.241,27.7682 230.23,27.7682 230.22,27.7682 L230.22,27.612 L231.611,27.612 M232.954,29.3464 C232.996,30.5235 233.382,31.2162 234.111,31.4245 C234.236,31.4662 234.371,31.487 234.517,31.487 C235.007,31.487 235.423,31.2787 235.767,30.862 C235.861,30.7474 235.96,30.612 236.064,30.4557 L236.22,30.5182 C235.855,31.4766 235.283,32.0287 234.501,32.1745 C234.366,32.1953 234.236,32.2057 234.111,32.2057 C233.371,32.2057 232.84,31.8932 232.517,31.2682 C232.329,30.8932 232.236,30.461 232.236,29.9714 C232.236,29.086 232.512,28.4141 233.064,27.9557 C233.428,27.6641 233.85,27.5182 234.329,27.5182 C235.246,27.5182 235.798,28.0391 235.986,29.0807 C236.007,29.1745 236.022,29.263 236.033,29.3464 L232.954,29.3464 M232.97,29.0495 L235.017,29.0495 C234.923,28.4766 234.757,28.1224 234.517,27.987 C234.392,27.9245 234.23,27.8932 234.033,27.8932 C233.439,27.8932 233.085,28.2682 232.97,29.0182 C232.97,29.0287 232.97,29.0391 232.97,29.0495 M238.658,27.7214 C238.678,27.711 238.736,27.6745 238.829,27.612 L238.939,27.612 L238.97,28.9714 L238.829,28.9714 C238.663,28.3255 238.423,27.9401 238.111,27.8151 C237.996,27.763 237.866,27.737 237.72,27.737 C237.366,27.737 237.126,27.8776 237.001,28.1589 C236.97,28.2422 236.954,28.3307 236.954,28.4245 C236.965,28.7057 237.111,28.9297 237.392,29.0964 L238.47,29.737 C238.949,30.0287 239.22,30.3464 239.283,30.6901 C239.293,30.763 239.298,30.8464 239.298,30.9401 C239.298,31.3568 239.116,31.6953 238.751,31.9557 C238.491,32.1224 238.204,32.2057 237.892,32.2057 C237.757,32.2057 237.449,32.1589 236.97,32.0651 C236.855,32.0443 236.767,32.0339 236.704,32.0339 C236.6,32.0443 236.522,32.086 236.47,32.1589 L236.345,32.1589 L236.345,30.5964 L236.501,30.5964 C236.605,31.0651 236.736,31.3932 236.892,31.5807 C237.111,31.8516 237.402,31.987 237.767,31.987 C238.194,31.987 238.46,31.8307 238.564,31.5182 C238.595,31.4453 238.611,31.362 238.611,31.2682 C238.6,30.9662 238.423,30.7162 238.079,30.5182 L237.501,30.1901 C236.876,29.836 236.507,29.4818 236.392,29.1276 C236.35,29.0026 236.329,28.8776 236.329,28.7526 C236.329,28.2839 236.533,27.9349 236.939,27.7057 C237.168,27.5807 237.418,27.5182 237.689,27.5182 C237.908,27.5182 238.168,27.5703 238.47,27.6745 C238.553,27.7057 238.616,27.7214 238.658,27.7214"/>
</svg>
