<?xml version="1.0" encoding="UTF-8" standalone="no"?>
<svg width="595.44px" height="841.68px" viewBox="0 0 595.44 841.68"
 xmlns="http://www.w3.org/2000/svg" xmlns:xlink="http://www.w3.org/1999/xlink" version="1.2" baseProfile="tiny">
<title>Guitar Scales and Arpeggios</title>
<desc>Generated by MuseScore 2.1.0</desc>
<polyline class="StaffLines" fill="none" stroke="#000000" stroke-width="0.40" stroke-linejoin="bevel" points="28.08,62.856 567.36,62.856"/>
<polyline class="StaffLines" fill="none" stroke="#000000" stroke-width="0.40" stroke-linejoin="bevel" points="28.08,67.824 567.36,67.824"/>
<polyline class="StaffLines" fill="none" stroke="#000000" stroke-width="0.40" stroke-linejoin="bevel" points="28.08,72.792 567.36,72.792"/>
<polyline class="StaffLines" fill="none" stroke="#000000" stroke-width="0.40" stroke-linejoin="bevel" points="28.08,77.76 567.36,77.76"/>
<polyline class="StaffLines" fill="none" stroke="#000000" stroke-width="0.40" stroke-linejoin="bevel" points="28.08,82.728 567.36,82.728"/>
<polyline class="StaffLines" fill="none" stroke="#000000" stroke-width="0.40" stroke-linejoin="bevel" points="28.08,115.02 567.36,115.02"/>
<polyline class="StaffLines" fill="none" stroke="#000000" stroke-width="0.40" stroke-linejoin="bevel" points="28.08,122.472 567.36,122.472"/>
<polyline class="StaffLines" fill="none" stroke="#000000" stroke-width="0.40" stroke-linejoin="bevel" points="28.08,129.924 567.36,129.924"/>
<polyline class="StaffLines" fill="none" stroke="#000000" stroke-width="0.40" stroke-linejoin="bevel" points="28.08,137.376 567.36,137.376"/>
<polyline class="StaffLines" fill="none" stroke="#000000" stroke-width="0.40" stroke-linejoin="bevel" points="28.08,144.828 567.36,144.828"/>
<polyline class="StaffLines" fill="none" stroke="#000000" stroke-width="0.40" stroke-linejoin="bevel" points="28.08,152.28 567.36,152.28"/>
<polyline class="BarLine" fill="none" stroke="#000000" stroke-width="0.79" stroke-linejoin="bevel" points="28.4774,62.856 28.4774,152.28"/>
<polyline class="BarLine" fill="none" stroke="#000000" stroke-width="0.79" stroke-linejoin="bevel" points="562.491,115.02 562.491,152.28"/>
<polyline class="BarLine" fill="none" stroke="#000000" stroke-width="2.48" stroke-linejoin="bevel" points="566.118,115.02 566.118,152.28"/>
<polyline class="BarLine" fill="none" stroke="#000000" stroke-width="0.79" stroke-linejoin="bevel" points="562.491,62.856 562.491,82.728"/>
<polyline class="BarLine" fill="none" stroke="#000000" stroke-width="2.48" stroke-linejoin="bevel" points="566.118,62.856 566.118,82.728"/>
<polyline class="LedgerLine" fill="none" stroke="#000000" stroke-width="0.79" stroke-linecap="square" stroke-linejoin="bevel" points="503.935,87.696 513.456,87.696"/>
<polyline class="LedgerLine" fill="none" stroke="#000000" stroke-width="0.79" stroke-linecap="square" stroke-linejoin="bevel" points="503.935,92.664 513.456,92.664"/>
<polyline class="LedgerLine" fill="none" stroke="#000000" stroke-width="0.79" stroke-linecap="square" stroke-linejoin="bevel" points="503.935,97.632 513.456,97.632"/>
<polyline class="LedgerLine" fill="none" stroke="#000000" stroke-width="0.79" stroke-linecap="square" stroke-linejoin="bevel" points="468.517,87.696 478.038,87.696"/>
<polyline class="LedgerLine" fill="none" stroke="#000000" stroke-width="0.79" stroke-linecap="square" stroke-linejoin="bevel" points="468.517,92.664 478.038,92.664"/>
<polyline class="LedgerLine" fill="none" stroke="#000000" stroke-width="0.79" stroke-linecap="square" stroke-linejoin="bevel" points="433.099,87.696 442.62,87.696"/>
<polyline class="LedgerLine" fill="none" stroke="#000000" stroke-width="0.79" stroke-linecap="square" stroke-linejoin="bevel" points="149.755,87.696 159.276,87.696"/>
<polyline class="LedgerLine" fill="none" stroke="#000000" stroke-width="0.79" stroke-linecap="square" stroke-linejoin="bevel" points="114.337,87.696 123.858,87.696"/>
<polyline class="LedgerLine" fill="none" stroke="#000000" stroke-width="0.79" stroke-linecap="square" stroke-linejoin="bevel" points="114.337,92.664 123.858,92.664"/>
<polyline class="LedgerLine" fill="none" stroke="#000000" stroke-width="0.79" stroke-linecap="square" stroke-linejoin="bevel" points="78.9189,87.696 88.4404,87.696"/>
<polyline class="LedgerLine" fill="none" stroke="#000000" stroke-width="0.79" stroke-linecap="square" stroke-linejoin="bevel" points="78.9189,92.664 88.4404,92.664"/>
<polyline class="LedgerLine" fill="none" stroke="#000000" stroke-width="0.79" stroke-linecap="square" stroke-linejoin="bevel" points="78.9189,97.632 88.4404,97.632"/>
<polyline class="Stem" fill="none" stroke="#000000" stroke-width="0.65" stroke-linecap="round" stroke-linejoin="bevel" points="511.643,96.6989 511.643,72.792"/>
<polyline class="Stem" fill="none" stroke="#000000" stroke-width="0.65" stroke-linecap="round" stroke-linejoin="bevel" points="476.225,91.7309 476.225,72.792"/>
<polyline class="Stem" fill="none" stroke="#000000" stroke-width="0.65" stroke-linecap="round" stroke-linejoin="bevel" points="440.807,86.7629 440.807,69.687"/>
<polyline class="Stem" fill="none" stroke="#000000" stroke-width="0.65" stroke-linecap="round" stroke-linejoin="bevel" points="405.389,79.3109 405.389,66.582"/>
<polyline class="Stem" fill="none" stroke="#000000" stroke-width="0.65" stroke-linecap="round" stroke-linejoin="bevel" points="364.076,76.2091 364.076,91.422"/>
<polyline class="Stem" fill="none" stroke="#000000" stroke-width="0.65" stroke-linecap="round" stroke-linejoin="bevel" points="328.658,71.2411 328.658,88.317"/>
<polyline class="Stem" fill="none" stroke="#000000" stroke-width="0.65" stroke-linecap="round" stroke-linejoin="bevel" points="293.24,63.7891 293.24,85.212"/>
<polyline class="Stem" fill="none" stroke="#000000" stroke-width="0.65" stroke-linecap="round" stroke-linejoin="bevel" points="263.717,69.3749 263.717,56.646"/>
<polyline class="Stem" fill="none" stroke="#000000" stroke-width="0.65" stroke-linecap="round" stroke-linejoin="bevel" points="228.299,74.3429 228.299,59.751"/>
<polyline class="Stem" fill="none" stroke="#000000" stroke-width="0.65" stroke-linecap="round" stroke-linejoin="bevel" points="192.881,79.3109 192.881,62.856"/>
<polyline class="Stem" fill="none" stroke="#000000" stroke-width="0.65" stroke-linecap="round" stroke-linejoin="bevel" points="157.463,86.7629 157.463,71.55"/>
<polyline class="Stem" fill="none" stroke="#000000" stroke-width="0.65" stroke-linecap="round" stroke-linejoin="bevel" points="122.045,91.7309 122.045,72.792"/>
<polyline class="Stem" fill="none" stroke="#000000" stroke-width="0.65" stroke-linecap="round" stroke-linejoin="bevel" points="86.6271,96.6989 86.6271,74.034"/>
<path class="Note" fill="#ffffff" fill-rule="evenodd" d="M506.17,148.554 L512.132,148.554 L512.132,156.006 L506.17,156.006 L506.17,148.554 "/>
<path class="Note" transform="matrix(0.9936,0,0,0.9936,506.667,155.758)" d="M2.32813,-4.54688 L0.921875,-4.54688 L0.921875,-5.10938 C1.53646,-5.19271 1.93229,-5.30208 2.10938,-5.4375 C2.28646,-5.57292 2.4375,-5.85417 2.5625,-6.28125 C2.57292,-6.3125 2.58854,-6.34896 2.60938,-6.39063 L3.125,-6.39063 L3.125,0 L2.32813,0 L2.32813,-4.54688 "/>
<path class="Note" fill="#ebeb19" transform="matrix(0.9936,0,0,0.9936,505.425,97.632)" d="M4.39063,-2.75 C5.01563,-2.75 5.54688,-2.58854 5.98438,-2.26563 C6.38021,-1.91146 6.57813,-1.46875 6.57813,-0.9375 C6.57813,-0.0416667 6.11979,0.796875 5.20313,1.57813 C4.26563,2.35938 3.26042,2.75 2.1875,2.75 C1.5625,2.75 1.03646,2.58854 0.609375,2.26563 C0.203125,1.91146 0,1.46875 0,0.9375 C0,0.0416667 0.46875,-0.796875 1.40625,-1.57813 C2.32292,-2.35938 3.31771,-2.75 4.39063,-2.75"/>
<path class="Note" fill="#ffffff" fill-rule="evenodd" d="M470.752,148.554 L476.714,148.554 L476.714,156.006 L470.752,156.006 L470.752,148.554 "/>
<path class="Note" transform="matrix(0.9936,0,0,0.9936,471.249,155.758)" d="M2.9375,-1.5 L0.25,-1.5 L0.25,-2.375 L3.15625,-6.39063 L3.73438,-6.39063 L3.73438,-2.23438 L4.6875,-2.23438 L4.6875,-1.5 L3.73438,-1.5 L3.73438,0 L2.9375,0 L2.9375,-1.5 M2.9375,-2.23438 L2.9375,-5.03125 L0.9375,-2.23438 L2.9375,-2.23438 "/>
<path class="Note" fill="#660099" transform="matrix(0.9936,0,0,0.9936,470.007,92.664)" d="M4.39063,-2.75 C5.01563,-2.75 5.54688,-2.58854 5.98438,-2.26563 C6.38021,-1.91146 6.57813,-1.46875 6.57813,-0.9375 C6.57813,-0.0416667 6.11979,0.796875 5.20313,1.57813 C4.26563,2.35938 3.26042,2.75 2.1875,2.75 C1.5625,2.75 1.03646,2.58854 0.609375,2.26563 C0.203125,1.91146 0,1.46875 0,0.9375 C0,0.0416667 0.46875,-0.796875 1.40625,-1.57813 C2.32292,-2.35938 3.31771,-2.75 4.39063,-2.75"/>
<path class="Note" fill="#ffffff" fill-rule="evenodd" d="M435.334,141.102 L441.296,141.102 L441.296,148.554 L435.334,148.554 L435.334,141.102 "/>
<path class="Note" transform="matrix(0.9936,0,0,0.9936,435.831,148.306)" d="M2.4375,-5.64063 C1.75,-5.64063 1.35417,-5.32813 1.25,-4.70313 C1.22917,-4.59896 1.21875,-4.47917 1.21875,-4.34375 L0.421875,-4.34375 C0.442708,-5.59375 1.01563,-6.27083 2.14063,-6.375 C2.23438,-6.38542 2.32813,-6.39063 2.42188,-6.39063 C3.26563,-6.39063 3.84375,-6.10938 4.15625,-5.54688 C4.29167,-5.28646 4.35938,-4.98438 4.35938,-4.64063 C4.35938,-4.00521 4.0625,-3.57292 3.46875,-3.34375 C4.03125,-3.14583 4.375,-2.81771 4.5,-2.35938 C4.54167,-2.19271 4.5625,-2.00521 4.5625,-1.79688 C4.5625,-1.05729 4.27604,-0.505208 3.70313,-0.140625 C3.33854,0.0885417 2.90104,0.203125 2.39063,0.203125 C1.21354,0.203125 0.526042,-0.348958 0.328125,-1.45313 C0.317708,-1.57813 0.302083,-1.71354 0.28125,-1.85938 L1.07813,-1.85938 C1.13021,-1.08854 1.46875,-0.65625 2.09375,-0.5625 C2.19792,-0.541667 2.30729,-0.53125 2.42188,-0.53125 C3.04688,-0.53125 3.45313,-0.765625 3.64063,-1.23438 C3.71354,-1.40104 3.75,-1.58854 3.75,-1.79688 C3.73958,-2.54688 3.29688,-2.92708 2.42188,-2.9375 L2.09375,-2.92188 L1.98438,-2.92188 L1.98438,-3.67188 C2.66146,-3.68229 3.10417,-3.77604 3.3125,-3.95313 C3.47917,-4.09896 3.5625,-4.31771 3.5625,-4.60938 C3.5625,-5.09896 3.34896,-5.41667 2.92188,-5.5625 C2.77604,-5.61458 2.61458,-5.64063 2.4375,-5.64063"/>
<path class="Note" fill="#ed2929" transform="matrix(0.9936,0,0,0.9936,434.589,87.696)" d="M4.39063,-2.75 C5.01563,-2.75 5.54688,-2.58854 5.98438,-2.26563 C6.38021,-1.91146 6.57813,-1.46875 6.57813,-0.9375 C6.57813,-0.0416667 6.11979,0.796875 5.20313,1.57813 C4.26563,2.35938 3.26042,2.75 2.1875,2.75 C1.5625,2.75 1.03646,2.58854 0.609375,2.26563 C0.203125,1.91146 0,1.46875 0,0.9375 C0,0.0416667 0.46875,-0.796875 1.40625,-1.57813 C2.32292,-2.35938 3.31771,-2.75 4.39063,-2.75"/>
<path class="Note" fill="#ffffff" fill-rule="evenodd" d="M399.916,133.65 L405.878,133.65 L405.878,141.102 L399.916,141.102 L399.916,133.65 "/>
<path class="Note" transform="matrix(0.9936,0,0,0.9936,400.413,140.854)" d="M2.4375,-5.64063 C1.75,-5.64063 1.35417,-5.32813 1.25,-4.70313 C1.22917,-4.59896 1.21875,-4.47917 1.21875,-4.34375 L0.421875,-4.34375 C0.442708,-5.59375 1.01563,-6.27083 2.14063,-6.375 C2.23438,-6.38542 2.32813,-6.39063 2.42188,-6.39063 C3.26563,-6.39063 3.84375,-6.10938 4.15625,-5.54688 C4.29167,-5.28646 4.35938,-4.98438 4.35938,-4.64063 C4.35938,-4.00521 4.0625,-3.57292 3.46875,-3.34375 C4.03125,-3.14583 4.375,-2.81771 4.5,-2.35938 C4.54167,-2.19271 4.5625,-2.00521 4.5625,-1.79688 C4.5625,-1.05729 4.27604,-0.505208 3.70313,-0.140625 C3.33854,0.0885417 2.90104,0.203125 2.39063,0.203125 C1.21354,0.203125 0.526042,-0.348958 0.328125,-1.45313 C0.317708,-1.57813 0.302083,-1.71354 0.28125,-1.85938 L1.07813,-1.85938 C1.13021,-1.08854 1.46875,-0.65625 2.09375,-0.5625 C2.19792,-0.541667 2.30729,-0.53125 2.42188,-0.53125 C3.04688,-0.53125 3.45313,-0.765625 3.64063,-1.23438 C3.71354,-1.40104 3.75,-1.58854 3.75,-1.79688 C3.73958,-2.54688 3.29688,-2.92708 2.42188,-2.9375 L2.09375,-2.92188 L1.98438,-2.92188 L1.98438,-3.67188 C2.66146,-3.68229 3.10417,-3.77604 3.3125,-3.95313 C3.47917,-4.09896 3.5625,-4.31771 3.5625,-4.60938 C3.5625,-5.09896 3.34896,-5.41667 2.92188,-5.5625 C2.77604,-5.61458 2.61458,-5.64063 2.4375,-5.64063"/>
<path class="Note" fill="#ebeb19" transform="matrix(0.9936,0,0,0.9936,399.171,80.244)" d="M4.39063,-2.75 C5.01563,-2.75 5.54688,-2.58854 5.98438,-2.26563 C6.38021,-1.91146 6.57813,-1.46875 6.57813,-0.9375 C6.57813,-0.0416667 6.11979,0.796875 5.20313,1.57813 C4.26563,2.35938 3.26042,2.75 2.1875,2.75 C1.5625,2.75 1.03646,2.58854 0.609375,2.26563 C0.203125,1.91146 0,1.46875 0,0.9375 C0,0.0416667 0.46875,-0.796875 1.40625,-1.57813 C2.32292,-2.35938 3.31771,-2.75 4.39063,-2.75"/>
<path class="Note" fill="#ffffff" fill-rule="evenodd" d="M364.498,133.65 L370.46,133.65 L370.46,141.102 L364.498,141.102 L364.498,133.65 "/>
<path class="Note" transform="matrix(0.9936,0,0,0.9936,364.995,140.854)" d="M0.390625,-2.90625 C0.390625,-4.76042 0.901042,-5.875 1.92188,-6.25 C2.16146,-6.34375 2.41146,-6.39063 2.67188,-6.39063 C3.35938,-6.39063 3.86979,-6.10938 4.20313,-5.54688 C4.33854,-5.30729 4.43229,-5.03125 4.48438,-4.71875 L3.6875,-4.71875 C3.58333,-5.22917 3.3125,-5.53125 2.875,-5.625 C2.79167,-5.63542 2.70833,-5.64063 2.625,-5.64063 C1.95833,-5.64063 1.52083,-5.21875 1.3125,-4.375 C1.23958,-4.04167 1.20313,-3.67188 1.20313,-3.26563 C1.55729,-3.75521 2.04688,-4 2.67188,-4 C3.33854,-4 3.85417,-3.75 4.21875,-3.25 C4.48958,-2.88542 4.625,-2.45833 4.625,-1.96875 C4.625,-1.23958 4.375,-0.671875 3.875,-0.265625 C3.5,0.046875 3.05208,0.203125 2.53125,0.203125 C1.10417,0.192708 0.390625,-0.84375 0.390625,-2.90625 M2.5625,-3.26563 C2.05208,-3.26563 1.67708,-3.07292 1.4375,-2.6875 C1.3125,-2.46875 1.25,-2.21875 1.25,-1.9375 C1.25,-1.4375 1.43229,-1.04688 1.79688,-0.765625 C2.00521,-0.609375 2.25,-0.53125 2.53125,-0.53125 C2.98958,-0.53125 3.33854,-0.71875 3.57813,-1.09375 C3.73438,-1.33333 3.8125,-1.60417 3.8125,-1.90625 C3.8125,-2.51042 3.59896,-2.92188 3.17188,-3.14063 C2.99479,-3.22396 2.79167,-3.26563 2.5625,-3.26563"/>
<path class="Note" fill="#660099" transform="matrix(0.9936,0,0,0.9936,363.753,75.276)" d="M4.39063,-2.75 C5.01563,-2.75 5.54688,-2.58854 5.98438,-2.26563 C6.38021,-1.91146 6.57813,-1.46875 6.57813,-0.9375 C6.57813,-0.0416667 6.11979,0.796875 5.20313,1.57813 C4.26563,2.35938 3.26042,2.75 2.1875,2.75 C1.5625,2.75 1.03646,2.58854 0.609375,2.26563 C0.203125,1.91146 0,1.46875 0,0.9375 C0,0.0416667 0.46875,-0.796875 1.40625,-1.57813 C2.32292,-2.35938 3.31771,-2.75 4.39063,-2.75"/>
<path class="Note" fill="#ffffff" fill-rule="evenodd" d="M329.08,126.198 L335.042,126.198 L335.042,133.65 L329.08,133.65 L329.08,126.198 "/>
<path class="Note" transform="matrix(0.9936,0,0,0.9936,329.577,133.402)" d="M4.28125,-6.39063 L4.28125,-5.64063 L1.625,-5.64063 L1.375,-3.8125 C1.73958,-4.09375 2.13542,-4.23438 2.5625,-4.23438 C3.28125,-4.23438 3.83333,-3.97396 4.21875,-3.45313 C4.48958,-3.07813 4.625,-2.625 4.625,-2.09375 C4.625,-1.3125 4.35938,-0.708333 3.82813,-0.28125 C3.44271,0.0416667 2.97917,0.203125 2.4375,0.203125 C1.26042,0.203125 0.557292,-0.359375 0.328125,-1.48438 C0.328125,-1.50521 0.322917,-1.53125 0.3125,-1.5625 L1.10938,-1.5625 C1.30729,-0.885417 1.73958,-0.541667 2.40625,-0.53125 C3.02083,-0.53125 3.44271,-0.770833 3.67188,-1.25 C3.76563,-1.46875 3.8125,-1.71354 3.8125,-1.98438 C3.8125,-2.63021 3.58333,-3.07813 3.125,-3.32813 C2.91667,-3.44271 2.67708,-3.5 2.40625,-3.5 C2.03125,-3.5 1.70833,-3.38021 1.4375,-3.14063 C1.375,-3.07813 1.3125,-3.01042 1.25,-2.9375 L0.515625,-2.9375 L0.984375,-6.39063 L4.28125,-6.39063 "/>
<path class="Note" fill="#ed2929" transform="matrix(0.9936,0,0,0.9936,328.335,70.308)" d="M4.39063,-2.75 C5.01563,-2.75 5.54688,-2.58854 5.98438,-2.26563 C6.38021,-1.91146 6.57813,-1.46875 6.57813,-0.9375 C6.57813,-0.0416667 6.11979,0.796875 5.20313,1.57813 C4.26563,2.35938 3.26042,2.75 2.1875,2.75 C1.5625,2.75 1.03646,2.58854 0.609375,2.26563 C0.203125,1.91146 0,1.46875 0,0.9375 C0,0.0416667 0.46875,-0.796875 1.40625,-1.57813 C2.32292,-2.35938 3.31771,-2.75 4.39063,-2.75"/>
<path class="Note" fill="#ffffff" fill-rule="evenodd" d="M293.662,118.746 L299.624,118.746 L299.624,126.198 L293.662,126.198 L293.662,118.746 "/>
<path class="Note" transform="matrix(0.9936,0,0,0.9936,294.159,125.95)" d="M0.390625,-2.90625 C0.390625,-4.76042 0.901042,-5.875 1.92188,-6.25 C2.16146,-6.34375 2.41146,-6.39063 2.67188,-6.39063 C3.35938,-6.39063 3.86979,-6.10938 4.20313,-5.54688 C4.33854,-5.30729 4.43229,-5.03125 4.48438,-4.71875 L3.6875,-4.71875 C3.58333,-5.22917 3.3125,-5.53125 2.875,-5.625 C2.79167,-5.63542 2.70833,-5.64063 2.625,-5.64063 C1.95833,-5.64063 1.52083,-5.21875 1.3125,-4.375 C1.23958,-4.04167 1.20313,-3.67188 1.20313,-3.26563 C1.55729,-3.75521 2.04688,-4 2.67188,-4 C3.33854,-4 3.85417,-3.75 4.21875,-3.25 C4.48958,-2.88542 4.625,-2.45833 4.625,-1.96875 C4.625,-1.23958 4.375,-0.671875 3.875,-0.265625 C3.5,0.046875 3.05208,0.203125 2.53125,0.203125 C1.10417,0.192708 0.390625,-0.84375 0.390625,-2.90625 M2.5625,-3.26563 C2.05208,-3.26563 1.67708,-3.07292 1.4375,-2.6875 C1.3125,-2.46875 1.25,-2.21875 1.25,-1.9375 C1.25,-1.4375 1.43229,-1.04688 1.79688,-0.765625 C2.00521,-0.609375 2.25,-0.53125 2.53125,-0.53125 C2.98958,-0.53125 3.33854,-0.71875 3.57813,-1.09375 C3.73438,-1.33333 3.8125,-1.60417 3.8125,-1.90625 C3.8125,-2.51042 3.59896,-2.92188 3.17188,-3.14063 C2.99479,-3.22396 2.79167,-3.26563 2.5625,-3.26563"/>
<path class="Note" fill="#ebeb19" transform="matrix(0.9936,0,0,0.9936,292.917,62.856)" d="M4.39063,-2.75 C5.01563,-2.75 5.54688,-2.58854 5.98438,-2.26563 C6.38021,-1.91146 6.57813,-1.46875 6.57813,-0.9375 C6.57813,-0.0416667 6.11979,0.796875 5.20313,1.57813 C4.26563,2.35938 3.26042,2.75 2.1875,2.75 C1.5625,2.75 1.03646,2.58854 0.609375,2.26563 C0.203125,1.91146 0,1.46875 0,0.9375 C0,0.0416667 0.46875,-0.796875 1.40625,-1.57813 C2.32292,-2.35938 3.31771,-2.75 4.39063,-2.75"/>
<path class="Note" fill="#ffffff" fill-rule="evenodd" d="M258.244,126.198 L264.206,126.198 L264.206,133.65 L258.244,133.65 L258.244,126.198 "/>
<path class="Note" transform="matrix(0.9936,0,0,0.9936,258.741,133.402)" d="M4.28125,-6.39063 L4.28125,-5.64063 L1.625,-5.64063 L1.375,-3.8125 C1.73958,-4.09375 2.13542,-4.23438 2.5625,-4.23438 C3.28125,-4.23438 3.83333,-3.97396 4.21875,-3.45313 C4.48958,-3.07813 4.625,-2.625 4.625,-2.09375 C4.625,-1.3125 4.35938,-0.708333 3.82813,-0.28125 C3.44271,0.0416667 2.97917,0.203125 2.4375,0.203125 C1.26042,0.203125 0.557292,-0.359375 0.328125,-1.48438 C0.328125,-1.50521 0.322917,-1.53125 0.3125,-1.5625 L1.10938,-1.5625 C1.30729,-0.885417 1.73958,-0.541667 2.40625,-0.53125 C3.02083,-0.53125 3.44271,-0.770833 3.67188,-1.25 C3.76563,-1.46875 3.8125,-1.71354 3.8125,-1.98438 C3.8125,-2.63021 3.58333,-3.07813 3.125,-3.32813 C2.91667,-3.44271 2.67708,-3.5 2.40625,-3.5 C2.03125,-3.5 1.70833,-3.38021 1.4375,-3.14063 C1.375,-3.07813 1.3125,-3.01042 1.25,-2.9375 L0.515625,-2.9375 L0.984375,-6.39063 L4.28125,-6.39063 "/>
<path class="Note" fill="#ed2929" transform="matrix(0.9936,0,0,0.9936,257.499,70.308)" d="M4.39063,-2.75 C5.01563,-2.75 5.54688,-2.58854 5.98438,-2.26563 C6.38021,-1.91146 6.57813,-1.46875 6.57813,-0.9375 C6.57813,-0.0416667 6.11979,0.796875 5.20313,1.57813 C4.26563,2.35938 3.26042,2.75 2.1875,2.75 C1.5625,2.75 1.03646,2.58854 0.609375,2.26563 C0.203125,1.91146 0,1.46875 0,0.9375 C0,0.0416667 0.46875,-0.796875 1.40625,-1.57813 C2.32292,-2.35938 3.31771,-2.75 4.39063,-2.75"/>
<path class="Note" fill="#ffffff" fill-rule="evenodd" d="M222.826,133.65 L228.788,133.65 L228.788,141.102 L222.826,141.102 L222.826,133.65 "/>
<path class="Note" transform="matrix(0.9936,0,0,0.9936,223.323,140.854)" d="M0.390625,-2.90625 C0.390625,-4.76042 0.901042,-5.875 1.92188,-6.25 C2.16146,-6.34375 2.41146,-6.39063 2.67188,-6.39063 C3.35938,-6.39063 3.86979,-6.10938 4.20313,-5.54688 C4.33854,-5.30729 4.43229,-5.03125 4.48438,-4.71875 L3.6875,-4.71875 C3.58333,-5.22917 3.3125,-5.53125 2.875,-5.625 C2.79167,-5.63542 2.70833,-5.64063 2.625,-5.64063 C1.95833,-5.64063 1.52083,-5.21875 1.3125,-4.375 C1.23958,-4.04167 1.20313,-3.67188 1.20313,-3.26563 C1.55729,-3.75521 2.04688,-4 2.67188,-4 C3.33854,-4 3.85417,-3.75 4.21875,-3.25 C4.48958,-2.88542 4.625,-2.45833 4.625,-1.96875 C4.625,-1.23958 4.375,-0.671875 3.875,-0.265625 C3.5,0.046875 3.05208,0.203125 2.53125,0.203125 C1.10417,0.192708 0.390625,-0.84375 0.390625,-2.90625 M2.5625,-3.26563 C2.05208,-3.26563 1.67708,-3.07292 1.4375,-2.6875 C1.3125,-2.46875 1.25,-2.21875 1.25,-1.9375 C1.25,-1.4375 1.43229,-1.04688 1.79688,-0.765625 C2.00521,-0.609375 2.25,-0.53125 2.53125,-0.53125 C2.98958,-0.53125 3.33854,-0.71875 3.57813,-1.09375 C3.73438,-1.33333 3.8125,-1.60417 3.8125,-1.90625 C3.8125,-2.51042 3.59896,-2.92188 3.17188,-3.14063 C2.99479,-3.22396 2.79167,-3.26563 2.5625,-3.26563"/>
<path class="Note" fill="#660099" transform="matrix(0.9936,0,0,0.9936,222.081,75.276)" d="M4.39063,-2.75 C5.01563,-2.75 5.54688,-2.58854 5.98438,-2.26563 C6.38021,-1.91146 6.57813,-1.46875 6.57813,-0.9375 C6.57813,-0.0416667 6.11979,0.796875 5.20313,1.57813 C4.26563,2.35938 3.26042,2.75 2.1875,2.75 C1.5625,2.75 1.03646,2.58854 0.609375,2.26563 C0.203125,1.91146 0,1.46875 0,0.9375 C0,0.0416667 0.46875,-0.796875 1.40625,-1.57813 C2.32292,-2.35938 3.31771,-2.75 4.39063,-2.75"/>
<path class="Note" fill="#ffffff" fill-rule="evenodd" d="M187.408,133.65 L193.37,133.65 L193.37,141.102 L187.408,141.102 L187.408,133.65 "/>
<path class="Note" transform="matrix(0.9936,0,0,0.9936,187.905,140.854)" d="M2.4375,-5.64063 C1.75,-5.64063 1.35417,-5.32813 1.25,-4.70313 C1.22917,-4.59896 1.21875,-4.47917 1.21875,-4.34375 L0.421875,-4.34375 C0.442708,-5.59375 1.01563,-6.27083 2.14063,-6.375 C2.23438,-6.38542 2.32813,-6.39063 2.42188,-6.39063 C3.26563,-6.39063 3.84375,-6.10938 4.15625,-5.54688 C4.29167,-5.28646 4.35938,-4.98438 4.35938,-4.64063 C4.35938,-4.00521 4.0625,-3.57292 3.46875,-3.34375 C4.03125,-3.14583 4.375,-2.81771 4.5,-2.35938 C4.54167,-2.19271 4.5625,-2.00521 4.5625,-1.79688 C4.5625,-1.05729 4.27604,-0.505208 3.70313,-0.140625 C3.33854,0.0885417 2.90104,0.203125 2.39063,0.203125 C1.21354,0.203125 0.526042,-0.348958 0.328125,-1.45313 C0.317708,-1.57813 0.302083,-1.71354 0.28125,-1.85938 L1.07813,-1.85938 C1.13021,-1.08854 1.46875,-0.65625 2.09375,-0.5625 C2.19792,-0.541667 2.30729,-0.53125 2.42188,-0.53125 C3.04688,-0.53125 3.45313,-0.765625 3.64063,-1.23438 C3.71354,-1.40104 3.75,-1.58854 3.75,-1.79688 C3.73958,-2.54688 3.29688,-2.92708 2.42188,-2.9375 L2.09375,-2.92188 L1.98438,-2.92188 L1.98438,-3.67188 C2.66146,-3.68229 3.10417,-3.77604 3.3125,-3.95313 C3.47917,-4.09896 3.5625,-4.31771 3.5625,-4.60938 C3.5625,-5.09896 3.34896,-5.41667 2.92188,-5.5625 C2.77604,-5.61458 2.61458,-5.64063 2.4375,-5.64063"/>
<path class="Note" fill="#ebeb19" transform="matrix(0.9936,0,0,0.9936,186.663,80.244)" d="M4.39063,-2.75 C5.01563,-2.75 5.54688,-2.58854 5.98438,-2.26563 C6.38021,-1.91146 6.57813,-1.46875 6.57813,-0.9375 C6.57813,-0.0416667 6.11979,0.796875 5.20313,1.57813 C4.26563,2.35938 3.26042,2.75 2.1875,2.75 C1.5625,2.75 1.03646,2.58854 0.609375,2.26563 C0.203125,1.91146 0,1.46875 0,0.9375 C0,0.0416667 0.46875,-0.796875 1.40625,-1.57813 C2.32292,-2.35938 3.31771,-2.75 4.39063,-2.75"/>
<path class="Note" fill="#ffffff" fill-rule="evenodd" d="M151.991,141.102 L157.952,141.102 L157.952,148.554 L151.991,148.554 L151.991,141.102 "/>
<path class="Note" transform="matrix(0.9936,0,0,0.9936,152.487,148.306)" d="M2.4375,-5.64063 C1.75,-5.64063 1.35417,-5.32813 1.25,-4.70313 C1.22917,-4.59896 1.21875,-4.47917 1.21875,-4.34375 L0.421875,-4.34375 C0.442708,-5.59375 1.01563,-6.27083 2.14063,-6.375 C2.23438,-6.38542 2.32813,-6.39063 2.42188,-6.39063 C3.26563,-6.39063 3.84375,-6.10938 4.15625,-5.54688 C4.29167,-5.28646 4.35938,-4.98438 4.35938,-4.64063 C4.35938,-4.00521 4.0625,-3.57292 3.46875,-3.34375 C4.03125,-3.14583 4.375,-2.81771 4.5,-2.35938 C4.54167,-2.19271 4.5625,-2.00521 4.5625,-1.79688 C4.5625,-1.05729 4.27604,-0.505208 3.70313,-0.140625 C3.33854,0.0885417 2.90104,0.203125 2.39063,0.203125 C1.21354,0.203125 0.526042,-0.348958 0.328125,-1.45313 C0.317708,-1.57813 0.302083,-1.71354 0.28125,-1.85938 L1.07813,-1.85938 C1.13021,-1.08854 1.46875,-0.65625 2.09375,-0.5625 C2.19792,-0.541667 2.30729,-0.53125 2.42188,-0.53125 C3.04688,-0.53125 3.45313,-0.765625 3.64063,-1.23438 C3.71354,-1.40104 3.75,-1.58854 3.75,-1.79688 C3.73958,-2.54688 3.29688,-2.92708 2.42188,-2.9375 L2.09375,-2.92188 L1.98438,-2.92188 L1.98438,-3.67188 C2.66146,-3.68229 3.10417,-3.77604 3.3125,-3.95313 C3.47917,-4.09896 3.5625,-4.31771 3.5625,-4.60938 C3.5625,-5.09896 3.34896,-5.41667 2.92188,-5.5625 C2.77604,-5.61458 2.61458,-5.64063 2.4375,-5.64063"/>
<path class="Note" fill="#ed2929" transform="matrix(0.9936,0,0,0.9936,151.245,87.696)" d="M4.39063,-2.75 C5.01563,-2.75 5.54688,-2.58854 5.98438,-2.26563 C6.38021,-1.91146 6.57813,-1.46875 6.57813,-0.9375 C6.57813,-0.0416667 6.11979,0.796875 5.20313,1.57813 C4.26563,2.35938 3.26042,2.75 2.1875,2.75 C1.5625,2.75 1.03646,2.58854 0.609375,2.26563 C0.203125,1.91146 0,1.46875 0,0.9375 C0,0.0416667 0.46875,-0.796875 1.40625,-1.57813 C2.32292,-2.35938 3.31771,-2.75 4.39063,-2.75"/>
<path class="Note" fill="#ffffff" fill-rule="evenodd" d="M116.573,148.554 L122.534,148.554 L122.534,156.006 L116.573,156.006 L116.573,148.554 "/>
<path class="Note" transform="matrix(0.9936,0,0,0.9936,117.069,155.758)" d="M2.9375,-1.5 L0.25,-1.5 L0.25,-2.375 L3.15625,-6.39063 L3.73438,-6.39063 L3.73438,-2.23438 L4.6875,-2.23438 L4.6875,-1.5 L3.73438,-1.5 L3.73438,0 L2.9375,0 L2.9375,-1.5 M2.9375,-2.23438 L2.9375,-5.03125 L0.9375,-2.23438 L2.9375,-2.23438 "/>
<path class="Note" fill="#660099" transform="matrix(0.9936,0,0,0.9936,115.827,92.664)" d="M4.39063,-2.75 C5.01563,-2.75 5.54688,-2.58854 5.98438,-2.26563 C6.38021,-1.91146 6.57813,-1.46875 6.57813,-0.9375 C6.57813,-0.0416667 6.11979,0.796875 5.20313,1.57813 C4.26563,2.35938 3.26042,2.75 2.1875,2.75 C1.5625,2.75 1.03646,2.58854 0.609375,2.26563 C0.203125,1.91146 0,1.46875 0,0.9375 C0,0.0416667 0.46875,-0.796875 1.40625,-1.57813 C2.32292,-2.35938 3.31771,-2.75 4.39063,-2.75"/>
<path class="Note" fill="#ffffff" fill-rule="evenodd" d="M81.1545,148.554 L87.1161,148.554 L87.1161,156.006 L81.1545,156.006 L81.1545,148.554 "/>
<path class="Note" transform="matrix(0.9936,0,0,0.9936,81.6513,155.758)" d="M2.32813,-4.54688 L0.921875,-4.54688 L0.921875,-5.10938 C1.53646,-5.19271 1.93229,-5.30208 2.10938,-5.4375 C2.28646,-5.57292 2.4375,-5.85417 2.5625,-6.28125 C2.57292,-6.3125 2.58854,-6.34896 2.60938,-6.39063 L3.125,-6.39063 L3.125,0 L2.32813,0 L2.32813,-4.54688 "/>
<path class="Note" fill="#ebeb19" transform="matrix(0.9936,0,0,0.9936,80.4093,97.632)" d="M4.39063,-2.75 C5.01563,-2.75 5.54688,-2.58854 5.98438,-2.26563 C6.38021,-1.91146 6.57813,-1.46875 6.57813,-0.9375 C6.57813,-0.0416667 6.11979,0.796875 5.20313,1.57813 C4.26563,2.35938 3.26042,2.75 2.1875,2.75 C1.5625,2.75 1.03646,2.58854 0.609375,2.26563 C0.203125,1.91146 0,1.46875 0,0.9375 C0,0.0416667 0.46875,-0.796875 1.40625,-1.57813 C2.32292,-2.35938 3.31771,-2.75 4.39063,-2.75"/>
<path class="Clef" transform="matrix(0.9936,0,0,0.9936,32.0544,133.65)" d="M5.32813,8.5 C5.32813,8.86458 5.04167,9.04688 4.46875,9.04688 C4.02083,9.04688 3.625,8.91146 3.28125,8.64063 C2.95833,8.34896 2.79688,7.98438 2.79688,7.54688 C2.79688,6.76563 3.27083,6.14063 4.21875,5.67188 C5.14583,5.18229 6.23438,4.9375 7.48438,4.9375 C7.96354,4.9375 8.47917,4.97396 9.03125,5.04688 C9.42708,5.09896 9.875,5.20313 10.375,5.35938 C10.8125,5.49479 11.1563,5.70573 11.4063,5.99219 C11.6563,6.27865 11.7813,6.61458 11.7813,7 C11.7813,7.89583 11.3177,8.63021 10.3906,9.20313 C11.7448,9.45313 12.4271,10.0573 12.4375,11.0156 C12.4375,11.8281 12.0729,12.5599 11.3438,13.2109 C10.6146,13.862 9.79167,14.1875 8.875,14.1875 C8.47917,14.1875 8.07813,14.0938 7.67188,13.9063 C7.29688,13.7292 7.03125,13.5625 6.875,13.4063 C6.71875,13.2188 6.64063,13.0781 6.64063,12.9844 C6.64063,12.8594 6.70833,12.75 6.84375,12.6563 C6.95833,12.5417 7.07813,12.4844 7.20313,12.4844 C7.25521,12.4844 7.36719,12.5677 7.53906,12.7344 C7.71094,12.901 7.95833,12.9844 8.28125,12.9844 C8.72917,12.9844 9.16146,12.7969 9.57813,12.4219 C9.97396,12.0573 10.1719,11.6198 10.1719,11.1094 C10.1719,10.6719 9.98438,10.3542 9.60938,10.1563 C9.24479,9.95833 8.76563,9.85938 8.17188,9.85938 C8.06771,9.85938 8.01563,9.75 8.01563,9.53125 C8.01563,9.21875 8.13021,9.0625 8.35938,9.0625 C8.72396,9.0625 9.05208,8.90625 9.34375,8.59375 C9.61458,8.26042 9.75,7.90104 9.75,7.51563 C9.75,7.40104 9.71875,7.22917 9.65625,7 C9.60417,6.84375 9.44792,6.65104 9.1875,6.42188 C8.9375,6.21354 8.58854,6.07292 8.14063,6 C8.02604,6.63542 7.88021,7.44792 7.70313,8.4375 C7.52604,9.42708 7.40625,10.0781 7.34375,10.3906 C7.125,11.5156 6.72396,12.4583 6.14063,13.2188 C5.52604,14.0313 4.86458,14.4375 4.15625,14.4375 C3.9375,14.4375 3.71354,14.3854 3.48438,14.2813 C3.29688,14.1979 3.0625,14.0365 2.78125,13.7969 C2.52083,13.5885 2.34375,13.4479 2.25,13.375 C2.19792,13.3438 2.17188,13.2865 2.17188,13.2031 C2.17188,13.0781 2.21875,12.9635 2.3125,12.8594 C2.41667,12.7344 2.52604,12.6719 2.64063,12.6719 C2.71354,12.6719 2.89323,12.7969 3.17969,13.0469 C3.46615,13.2969 3.76563,13.4219 4.07813,13.4219 C4.68229,13.4219 5.13542,13.0365 5.4375,12.2656 C5.71875,11.526 5.85938,10.6094 5.85938,9.51563 L5.85938,9.35938 C5.85938,8.63021 5.97917,7.54167 6.21875,6.09375 C5.80208,6.22917 5.46875,6.42708 5.21875,6.6875 C4.95833,6.94792 4.82813,7.21875 4.82813,7.5 C4.82813,7.71875 4.91146,7.90625 5.07813,8.0625 C5.24479,8.21875 5.32813,8.36458 5.32813,8.5 M1.40625,2.39063 C1.46875,2.39063 1.625,2.45313 1.875,2.57813 C2.13542,2.71354 2.35938,2.78125 2.54688,2.78125 C3.03646,2.78125 3.64063,2.42188 4.35938,1.70313 C6.43229,-0.411458 7.85938,-2.65104 8.64063,-5.01563 C8.79688,-5.51563 9.17708,-5.76563 9.78125,-5.76563 C10.0938,-5.76563 10.3646,-5.69792 10.5938,-5.5625 C10.8125,-5.42708 10.9219,-5.28646 10.9219,-5.14063 L10.5625,2.17188 C10.5625,2.55729 10.7031,2.75 10.9844,2.75 C11.1198,2.75 11.3281,2.6875 11.6094,2.5625 C11.8698,2.42708 12.026,2.35938 12.0781,2.35938 C12.1823,2.35938 12.2448,2.47396 12.2656,2.70313 C12.2656,2.91146 12.1823,3.04167 12.0156,3.09375 C11.8802,3.125 11.6198,3.24479 11.2344,3.45313 C10.8281,3.66146 10.5104,3.76563 10.2813,3.76563 C9.78125,3.76563 9.42708,3.375 9.21875,2.59375 C8.89583,1.375 8.6875,0.104167 8.59375,-1.21875 C8.07292,-0.552083 7.49479,0.119792 6.85938,0.796875 C7.08854,1.24479 7.51563,1.46875 8.14063,1.46875 C8.23438,1.46875 8.30729,1.46354 8.35938,1.45313 L8.375,1.45313 C8.47917,1.45313 8.53125,1.54688 8.53125,1.73438 C8.53125,1.98438 8.44792,2.13542 8.28125,2.1875 C8.01042,2.28125 7.72396,2.32813 7.42188,2.32813 C6.77604,2.32813 6.30729,2.10417 6.01563,1.65625 L5.23438,2.35938 C4.14063,3.29688 3.25,3.76563 2.5625,3.76563 C2.375,3.76563 2.1875,3.73438 2,3.67188 C1.84375,3.60938 1.66146,3.51042 1.45313,3.375 C1.36979,3.34375 1.27865,3.29688 1.17969,3.23438 C1.08073,3.17188 1.02083,3.13542 1,3.125 C0.9375,3.10417 0.90625,3.04688 0.90625,2.95313 C0.90625,2.84896 0.958333,2.72396 1.0625,2.57813 C1.14583,2.45313 1.26042,2.39063 1.40625,2.39063 M5.76563,-10.7969 C5.76563,-10.474 5.48438,-10.3125 4.92188,-10.3125 C4.43229,-10.3125 4.00521,-10.474 3.64063,-10.7969 C3.28646,-11.1302 3.10938,-11.5313 3.10938,-12 C3.10938,-12.4479 3.25,-12.8385 3.53125,-13.1719 C3.83333,-13.5052 4.21875,-13.7552 4.6875,-13.9219 C5.11458,-14.0781 5.59896,-14.2031 6.14063,-14.2969 C6.69271,-14.3594 7.22396,-14.3906 7.73438,-14.3906 C8.03646,-14.3906 8.59896,-14.2552 9.42188,-13.9844 C10.2552,-13.7135 10.8333,-13.5781 11.1563,-13.5781 C11.5625,-13.5781 11.9479,-13.651 12.3125,-13.7969 C12.6042,-13.9219 12.8906,-14.0677 13.1719,-14.2344 C13.3906,-14.3802 13.5104,-14.4531 13.5313,-14.4531 C13.6563,-14.4531 13.7604,-14.4167 13.8438,-14.3438 C13.9479,-14.2396 14,-14.151 14,-14.0781 C14,-13.9948 13.8802,-13.849 13.6406,-13.6406 C13.3802,-13.401 13.0078,-13.1641 12.5234,-12.9297 C12.0391,-12.6953 11.5313,-12.5781 11,-12.5781 C10.7604,-12.5781 10.4688,-12.6198 10.125,-12.7031 C9.89583,-11.2552 9.66146,-9.96875 9.42188,-8.84375 C9.21354,-7.85417 8.79688,-6.98958 8.17188,-6.25 C7.56771,-5.51042 6.89583,-5.14063 6.15625,-5.14063 C5.85417,-5.14063 5.58854,-5.19792 5.35938,-5.3125 C5.09896,-5.44792 4.82292,-5.64583 4.53125,-5.90625 C4.30208,-6.09375 4.08333,-6.26563 3.875,-6.42188 C3.82292,-6.46354 3.79688,-6.52604 3.79688,-6.60938 C3.79688,-6.69271 3.84896,-6.80729 3.95313,-6.95313 C4.05729,-7.06771 4.15104,-7.125 4.23438,-7.125 C4.31771,-7.125 4.54167,-6.96354 4.90625,-6.64063 C5.27083,-6.31771 5.59375,-6.15625 5.875,-6.15625 C6.39583,-6.15625 6.80208,-6.45313 7.09375,-7.04688 C7.375,-7.64063 7.53646,-8.34375 7.57813,-9.15625 C7.64063,-10.5 7.79167,-11.8906 8.03125,-13.3281 C7.73958,-13.3906 7.52604,-13.4219 7.39063,-13.4219 C6.76563,-13.4219 6.22917,-13.2917 5.78125,-13.0313 C5.34375,-12.7813 5.125,-12.4427 5.125,-12.0156 C5.125,-11.7031 5.22917,-11.4635 5.4375,-11.2969 C5.65625,-11.1094 5.76563,-10.9427 5.76563,-10.7969"/>
<path class="Clef" transform="matrix(0.9936,0,0,0.9936,32.0544,77.76)" d="M7.34375,-5.125 C7.34375,-5.125 7.38542,-5.125 7.46875,-5.125 C7.52083,-5.13542 7.5625,-5.14063 7.59375,-5.14063 C9.05208,-5.14063 10.25,-4.625 11.1875,-3.59375 C12.125,-2.58333 12.5938,-1.40104 12.5938,-0.046875 C12.5938,1.64063 11.901,3.01042 10.5156,4.0625 C10.151,4.35417 9.67188,4.58854 9.07813,4.76563 C9.15104,5.60938 9.1875,6.29167 9.1875,6.8125 C9.1875,6.91667 9.17188,7.29688 9.14063,7.95313 C9.08854,9.16146 8.67188,10.2083 7.89063,11.0938 C7.14063,11.9688 6.20313,12.4063 5.07813,12.4063 C4.02604,12.4063 3.13021,12.0365 2.39063,11.2969 C1.64063,10.5365 1.26563,9.625 1.26563,8.5625 C1.26563,8 1.48438,7.52083 1.92188,7.125 C2.35938,6.73958 2.86979,6.54688 3.45313,6.54688 C3.97396,6.54688 4.41146,6.75 4.76563,7.15625 C5.13021,7.53125 5.3125,8 5.3125,8.5625 C5.3125,9.0625 5.13021,9.49479 4.76563,9.85938 C4.40104,10.224 3.96354,10.4063 3.45313,10.4063 C3.24479,10.4063 3.04688,10.3698 2.85938,10.2969 C3.43229,11.1406 4.19271,11.5625 5.14063,11.5625 C6.03646,11.5625 6.77083,11.1979 7.34375,10.4688 C7.94792,9.71875 8.27604,8.83854 8.32813,7.82813 C8.34896,7.20313 8.35938,6.84896 8.35938,6.76563 C8.35938,6.03646 8.33333,5.4375 8.28125,4.96875 C7.63542,5.07292 7.05729,5.125 6.54688,5.125 C4.73438,5.125 3.19271,4.40625 1.92188,2.96875 C0.671875,1.52083 0.046875,-0.197917 0.046875,-2.1875 C0.046875,-2.60417 0.0833333,-3.02604 0.15625,-3.45313 C0.239583,-3.80729 0.338542,-4.19271 0.453125,-4.60938 C0.515625,-4.84896 0.692708,-5.22917 0.984375,-5.75 C1.08854,-5.90625 1.20573,-6.10156 1.33594,-6.33594 C1.46615,-6.57031 1.55729,-6.72396 1.60938,-6.79688 C1.73438,-7.05729 1.98438,-7.41146 2.35938,-7.85938 C2.46354,-7.97396 2.57292,-8.10156 2.6875,-8.24219 C2.80208,-8.38281 2.89844,-8.5 2.97656,-8.59375 C3.05469,-8.6875 3.11198,-8.76042 3.14844,-8.8125 C3.1849,-8.86458 3.47917,-9.20833 4.03125,-9.84375 C4.15625,-9.97917 4.28125,-10.1198 4.40625,-10.2656 C4.53125,-10.4115 4.63281,-10.5286 4.71094,-10.6172 C4.78906,-10.7057 4.84896,-10.7656 4.89063,-10.7969 C4.42188,-12.349 4.125,-13.5885 4,-14.5156 C3.91667,-15.2552 3.875,-16.2708 3.875,-17.5625 C3.875,-18.6979 4.13542,-19.7604 4.65625,-20.75 C5.15625,-21.7708 5.86458,-22.6094 6.78125,-23.2656 C6.84375,-23.3073 6.90625,-23.3281 6.96875,-23.3281 C7.0625,-23.3281 7.13021,-23.3073 7.17188,-23.2656 C7.86979,-22.4219 8.47396,-21.3229 8.98438,-19.9688 C9.50521,-18.6146 9.76563,-17.3802 9.76563,-16.2656 C9.76563,-15.0156 9.46875,-13.8438 8.875,-12.75 C8.19792,-11.5938 7.32292,-10.3958 6.25,-9.15625 C6.52083,-8.30208 6.88542,-6.95833 7.34375,-5.125 M9,3.96875 C9.67708,3.71875 10.2083,3.29688 10.5938,2.70313 C11.0104,2.13021 11.2188,1.48438 11.2188,0.765625 C11.2188,-0.161458 10.9063,-0.984375 10.2813,-1.70313 C9.63542,-2.44271 8.81771,-2.85938 7.82813,-2.95313 C8.39063,-0.203125 8.78125,2.10417 9,3.96875 M1.45313,-0.546875 C1.45313,0.744792 1.97396,1.88021 3.01563,2.85938 C4.07813,3.80729 5.27604,4.28125 6.60938,4.28125 C7.15104,4.28125 7.68229,4.23958 8.20313,4.15625 C7.99479,2.17708 7.58333,-0.192708 6.96875,-2.95313 C6.22917,-2.86979 5.64063,-2.60938 5.20313,-2.17188 C4.76563,-1.71354 4.54688,-1.19792 4.54688,-0.625 C4.54688,0.364583 5.07813,1.16667 6.14063,1.78125 C6.22396,1.875 6.26563,1.97396 6.26563,2.07813 C6.26563,2.18229 6.22396,2.27604 6.14063,2.35938 C6.05729,2.45313 5.95833,2.5 5.84375,2.5 C5.83333,2.5 5.77604,2.48958 5.67188,2.46875 C4.92188,2.0625 4.34896,1.54167 3.95313,0.90625 C3.56771,0.21875 3.375,-0.46875 3.375,-1.15625 C3.375,-2.05208 3.65625,-2.86458 4.21875,-3.59375 C4.80208,-4.32292 5.5625,-4.79167 6.5,-5 C6.13542,-6.45833 5.83854,-7.59896 5.60938,-8.42188 C5.40104,-8.18229 5.15104,-7.89844 4.85938,-7.57031 C4.56771,-7.24219 4.39583,-7.04167 4.34375,-6.96875 C3.875,-6.36458 3.51563,-5.89063 3.26563,-5.54688 C2.81771,-4.93229 2.48958,-4.40625 2.28125,-3.96875 C2.0625,-3.46875 1.86979,-2.92708 1.70313,-2.34375 C1.53646,-1.78125 1.45313,-1.18229 1.45313,-0.546875 M7.96875,-20.4063 C6.98958,-19.9271 6.22396,-19.2396 5.67188,-18.3438 C5.09896,-17.4167 4.8125,-16.4219 4.8125,-15.3594 C4.8125,-14.4219 5.04688,-13.1563 5.51563,-11.5625 C6.45313,-12.6979 7.15625,-13.7448 7.625,-14.7031 C8.11458,-15.724 8.35938,-16.7865 8.35938,-17.8906 C8.35938,-18.724 8.22917,-19.5625 7.96875,-20.4063 M5.82813,15.2344 C6.16146,14.901 6.32813,14.5625 6.32813,14.2188 C6.30729,13.9479 6.19271,13.7396 5.98438,13.5938 C5.74479,13.4375 5.46875,13.3594 5.15625,13.3594 C4.9375,13.3594 4.75521,13.4323 4.60938,13.5781 C4.48438,13.7031 4.42188,13.8646 4.42188,14.0625 C4.42188,14.3021 4.51563,14.4792 4.70313,14.5938 L5.82813,15.2344 M6.14063,15.4063 C6.68229,15.7083 6.95313,16.1146 6.95313,16.625 L6.95313,16.6875 C6.95313,17.0833 6.79167,17.4219 6.46875,17.7031 C6.14583,17.9844 5.68229,18.125 5.07813,18.125 C4.58854,18.125 4.16146,17.9948 3.79688,17.7344 C3.43229,17.4844 3.25,17.1458 3.25,16.7188 C3.25,16.5521 3.29167,16.3958 3.375,16.25 C3.47917,16.0833 3.56771,15.9688 3.64063,15.9063 L4,15.5313 C3.60417,15.2604 3.40625,14.901 3.40625,14.4531 C3.40625,14.099 3.5625,13.7865 3.875,13.5156 C4.19792,13.2552 4.625,13.125 5.15625,13.125 C5.60417,13.125 5.98438,13.224 6.29688,13.4219 C6.60938,13.6198 6.76563,13.8854 6.76563,14.2188 C6.76563,14.5729 6.55729,14.9688 6.14063,15.4063 M4.29688,15.7031 C3.91146,16.0469 3.70313,16.3854 3.67188,16.7188 C3.70313,17.0729 3.84896,17.3542 4.10938,17.5625 C4.39063,17.7813 4.71354,17.8906 5.07813,17.8906 C5.33854,17.8906 5.54688,17.8073 5.70313,17.6406 C5.85938,17.4844 5.9375,17.2969 5.9375,17.0781 C5.92708,16.7865 5.8125,16.5781 5.59375,16.4531 L4.29688,15.7031 "/>
<path class="KeySig" transform="matrix(0.9936,0,0,0.9936,64.3697,67.824)" d="M0.921875,-0.828125 L0.921875,0.71875 C0.921875,1.27083 0.947917,1.70833 1,2.03125 C1.42708,1.66667 1.73438,1.39583 1.92188,1.21875 C2.13021,1.01042 2.33854,0.721354 2.54688,0.351563 C2.75521,-0.0182292 2.85938,-0.385417 2.85938,-0.75 C2.85938,-1.11458 2.78125,-1.42708 2.625,-1.6875 C2.46875,-1.94792 2.26042,-2.07813 2,-2.07813 C1.6875,-2.07813 1.42708,-1.95833 1.21875,-1.71875 C1.02083,-1.45833 0.921875,-1.16146 0.921875,-0.828125 M0.09375,2.75 L-0.15625,-9.14063 C0.03125,-9.24479 0.216146,-9.29688 0.398438,-9.29688 C0.580729,-9.29688 0.760417,-9.24479 0.9375,-9.14063 L0.78125,-2.25 C1.3125,-2.70833 1.92708,-2.9375 2.625,-2.9375 C3.125,-2.9375 3.54427,-2.72917 3.88281,-2.3125 C4.22135,-1.89583 4.39063,-1.41667 4.39063,-0.875 C4.39063,-0.541667 4.28125,-0.182292 4.0625,0.203125 C3.85417,0.546875 3.63542,0.817708 3.40625,1.01563 C3.27083,1.11979 2.9375,1.38021 2.40625,1.79688 C2.25,1.91146 2.0651,2.04688 1.85156,2.20313 C1.63802,2.35938 1.50521,2.45833 1.45313,2.5 C1.35938,2.55208 1.27083,2.65625 1.1875,2.8125 C1.10417,2.94792 1,3.05729 0.875,3.14063 C0.791667,3.22396 0.684896,3.26563 0.554688,3.26563 C0.424479,3.26563 0.317708,3.21875 0.234375,3.125 C0.140625,3.03125 0.09375,2.90625 0.09375,2.75"/>
<path class="KeySig" transform="matrix(0.9936,0,0,0.9936,59.4017,75.276)" d="M0.921875,-0.828125 L0.921875,0.71875 C0.921875,1.27083 0.947917,1.70833 1,2.03125 C1.42708,1.66667 1.73438,1.39583 1.92188,1.21875 C2.13021,1.01042 2.33854,0.721354 2.54688,0.351563 C2.75521,-0.0182292 2.85938,-0.385417 2.85938,-0.75 C2.85938,-1.11458 2.78125,-1.42708 2.625,-1.6875 C2.46875,-1.94792 2.26042,-2.07813 2,-2.07813 C1.6875,-2.07813 1.42708,-1.95833 1.21875,-1.71875 C1.02083,-1.45833 0.921875,-1.16146 0.921875,-0.828125 M0.09375,2.75 L-0.15625,-9.14063 C0.03125,-9.24479 0.216146,-9.29688 0.398438,-9.29688 C0.580729,-9.29688 0.760417,-9.24479 0.9375,-9.14063 L0.78125,-2.25 C1.3125,-2.70833 1.92708,-2.9375 2.625,-2.9375 C3.125,-2.9375 3.54427,-2.72917 3.88281,-2.3125 C4.22135,-1.89583 4.39063,-1.41667 4.39063,-0.875 C4.39063,-0.541667 4.28125,-0.182292 4.0625,0.203125 C3.85417,0.546875 3.63542,0.817708 3.40625,1.01563 C3.27083,1.11979 2.9375,1.38021 2.40625,1.79688 C2.25,1.91146 2.0651,2.04688 1.85156,2.20313 C1.63802,2.35938 1.50521,2.45833 1.45313,2.5 C1.35938,2.55208 1.27083,2.65625 1.1875,2.8125 C1.10417,2.94792 1,3.05729 0.875,3.14063 C0.791667,3.22396 0.684896,3.26563 0.554688,3.26563 C0.424479,3.26563 0.317708,3.21875 0.234375,3.125 C0.140625,3.03125 0.09375,2.90625 0.09375,2.75"/>
<path class="KeySig" transform="matrix(0.9936,0,0,0.9936,54.4337,65.34)" d="M0.921875,-0.828125 L0.921875,0.71875 C0.921875,1.27083 0.947917,1.70833 1,2.03125 C1.42708,1.66667 1.73438,1.39583 1.92188,1.21875 C2.13021,1.01042 2.33854,0.721354 2.54688,0.351563 C2.75521,-0.0182292 2.85938,-0.385417 2.85938,-0.75 C2.85938,-1.11458 2.78125,-1.42708 2.625,-1.6875 C2.46875,-1.94792 2.26042,-2.07813 2,-2.07813 C1.6875,-2.07813 1.42708,-1.95833 1.21875,-1.71875 C1.02083,-1.45833 0.921875,-1.16146 0.921875,-0.828125 M0.09375,2.75 L-0.15625,-9.14063 C0.03125,-9.24479 0.216146,-9.29688 0.398438,-9.29688 C0.580729,-9.29688 0.760417,-9.24479 0.9375,-9.14063 L0.78125,-2.25 C1.3125,-2.70833 1.92708,-2.9375 2.625,-2.9375 C3.125,-2.9375 3.54427,-2.72917 3.88281,-2.3125 C4.22135,-1.89583 4.39063,-1.41667 4.39063,-0.875 C4.39063,-0.541667 4.28125,-0.182292 4.0625,0.203125 C3.85417,0.546875 3.63542,0.817708 3.40625,1.01563 C3.27083,1.11979 2.9375,1.38021 2.40625,1.79688 C2.25,1.91146 2.0651,2.04688 1.85156,2.20313 C1.63802,2.35938 1.50521,2.45833 1.45313,2.5 C1.35938,2.55208 1.27083,2.65625 1.1875,2.8125 C1.10417,2.94792 1,3.05729 0.875,3.14063 C0.791667,3.22396 0.684896,3.26563 0.554688,3.26563 C0.424479,3.26563 0.317708,3.21875 0.234375,3.125 C0.140625,3.03125 0.09375,2.90625 0.09375,2.75"/>
<path class="KeySig" transform="matrix(0.9936,0,0,0.9936,49.4657,72.792)" d="M0.921875,-0.828125 L0.921875,0.71875 C0.921875,1.27083 0.947917,1.70833 1,2.03125 C1.42708,1.66667 1.73438,1.39583 1.92188,1.21875 C2.13021,1.01042 2.33854,0.721354 2.54688,0.351563 C2.75521,-0.0182292 2.85938,-0.385417 2.85938,-0.75 C2.85938,-1.11458 2.78125,-1.42708 2.625,-1.6875 C2.46875,-1.94792 2.26042,-2.07813 2,-2.07813 C1.6875,-2.07813 1.42708,-1.95833 1.21875,-1.71875 C1.02083,-1.45833 0.921875,-1.16146 0.921875,-0.828125 M0.09375,2.75 L-0.15625,-9.14063 C0.03125,-9.24479 0.216146,-9.29688 0.398438,-9.29688 C0.580729,-9.29688 0.760417,-9.24479 0.9375,-9.14063 L0.78125,-2.25 C1.3125,-2.70833 1.92708,-2.9375 2.625,-2.9375 C3.125,-2.9375 3.54427,-2.72917 3.88281,-2.3125 C4.22135,-1.89583 4.39063,-1.41667 4.39063,-0.875 C4.39063,-0.541667 4.28125,-0.182292 4.0625,0.203125 C3.85417,0.546875 3.63542,0.817708 3.40625,1.01563 C3.27083,1.11979 2.9375,1.38021 2.40625,1.79688 C2.25,1.91146 2.0651,2.04688 1.85156,2.20313 C1.63802,2.35938 1.50521,2.45833 1.45313,2.5 C1.35938,2.55208 1.27083,2.65625 1.1875,2.8125 C1.10417,2.94792 1,3.05729 0.875,3.14063 C0.791667,3.22396 0.684896,3.26563 0.554688,3.26563 C0.424479,3.26563 0.317708,3.21875 0.234375,3.125 C0.140625,3.03125 0.09375,2.90625 0.09375,2.75"/>
<path class="Beam" fill-rule="evenodd" d="M405.066,65.2834 L476.548,71.55 L476.548,74.034 L405.066,67.7674 L405.066,65.2834 "/>
<path class="Beam" fill-rule="evenodd" d="M292.917,83.97 L364.399,90.2366 L364.399,92.7206 L292.917,86.454 L292.917,83.97 "/>
<path class="Beam" fill-rule="evenodd" d="M192.558,61.6706 L264.04,55.404 L264.04,57.888 L192.558,64.1546 L192.558,61.6706 "/>
<path class="Beam" fill-rule="evenodd" d="M86.3042,72.8146 L157.786,70.308 L157.786,72.792 L86.3042,75.2986 L86.3042,72.8146 "/>
<path class="Fingering" d="M500.41,95.3976 C500.295,95.3976 500.103,95.4549 499.832,95.5695 L499.832,95.4601 L501.269,94.7257 L501.332,94.7414 L501.332,99.5382 C501.332,99.7466 501.394,99.882 501.519,99.9445 C501.623,99.9862 501.816,100.007 502.097,100.007 L502.097,100.132 L499.879,100.132 L499.879,100.007 C500.233,99.9966 500.457,99.9341 500.551,99.8195 C500.613,99.7257 500.644,99.5799 500.644,99.382 L500.644,95.7726 C500.634,95.5226 500.556,95.3976 500.41,95.3976"/>
<path class="Fingering" d="M467.304,93.3515 L467.304,93.8359 L466.476,93.8359 L466.476,95.164 L465.867,95.164 L465.867,93.8359 L463.617,93.8359 L463.617,93.3515 L466.133,89.7577 L466.476,89.7577 L466.476,93.3515 L467.304,93.3515 M465.851,93.3515 L465.851,90.6015 L463.945,93.3515 L465.851,93.3515 "/>
<path class="Fingering" d="M428.355,86.3835 C428.595,85.3627 429.121,84.8366 429.933,84.8054 C429.965,84.8054 429.991,84.8054 430.011,84.8054 C430.501,84.8054 430.892,84.9825 431.183,85.3366 C431.392,85.597 431.496,85.8887 431.496,86.2116 C431.496,86.8054 431.178,87.446 430.543,88.1335 C430.522,88.1543 430.496,88.1752 430.465,88.196 L429.136,89.6179 L431.043,89.6179 C431.251,89.6179 431.412,89.5606 431.527,89.446 C431.6,89.3731 431.689,89.2533 431.793,89.0866 L431.902,89.1179 L431.465,90.196 L428.34,90.196 L428.34,90.1022 L429.761,88.5866 C430.439,87.847 430.787,87.1543 430.808,86.5085 C430.808,86.0606 430.636,85.7377 430.293,85.5397 C430.116,85.4356 429.912,85.3835 429.683,85.3835 C429.329,85.3835 429.053,85.5189 428.855,85.7897 C428.741,85.946 428.631,86.1595 428.527,86.4304 L428.355,86.3835 "/>
<path class="Fingering" d="M393.328,82.119 C393.453,82.119 393.635,82.1867 393.875,82.3221 C394.125,82.4784 394.338,82.5565 394.515,82.5565 C394.88,82.5565 395.166,82.395 395.375,82.0721 C395.5,81.8638 395.562,81.6294 395.562,81.369 C395.562,80.6086 395.109,80.1919 394.203,80.119 C394.109,80.1086 394.01,80.1034 393.906,80.1034 L393.906,79.994 C394.51,79.7961 394.906,79.5409 395.093,79.2284 C395.187,79.0617 395.234,78.8794 395.234,78.6815 C395.234,78.3273 395.088,78.0721 394.797,77.9159 C394.661,77.8534 394.515,77.8221 394.359,77.8221 C393.911,77.8221 393.541,78.0565 393.25,78.5252 C393.218,78.5669 393.192,78.6138 393.172,78.6659 L393.047,78.6346 C393.297,77.9575 393.661,77.5461 394.14,77.4002 C394.286,77.3586 394.448,77.3377 394.625,77.3377 C395.104,77.3377 395.458,77.5044 395.687,77.8377 C395.812,78.0148 395.875,78.2127 395.875,78.4315 C395.875,78.7544 395.724,79.0461 395.422,79.3065 C395.328,79.3794 395.229,79.4575 395.125,79.5409 C395.604,79.7492 395.911,80.0357 396.047,80.4002 C396.109,80.5773 396.14,80.7752 396.14,80.994 C396.14,81.6294 395.875,82.1242 395.343,82.4784 C394.948,82.7284 394.479,82.8534 393.937,82.8534 C393.448,82.8534 393.156,82.744 393.062,82.5252 C393.041,82.4836 393.031,82.4419 393.031,82.4002 C393.031,82.244 393.109,82.1555 393.265,82.1346 C393.286,82.1242 393.307,82.119 393.328,82.119"/>
<path class="Fingering" d="M357.91,77.151 C358.035,77.151 358.217,77.2187 358.457,77.3541 C358.707,77.5104 358.92,77.5885 359.097,77.5885 C359.462,77.5885 359.748,77.427 359.957,77.1041 C360.082,76.8958 360.144,76.6614 360.144,76.401 C360.144,75.6406 359.691,75.2239 358.785,75.151 C358.691,75.1406 358.592,75.1354 358.488,75.1354 L358.488,75.026 C359.092,74.8281 359.488,74.5729 359.675,74.2604 C359.769,74.0937 359.816,73.9114 359.816,73.7135 C359.816,73.3593 359.67,73.1041 359.379,72.9479 C359.243,72.8854 359.097,72.8541 358.941,72.8541 C358.493,72.8541 358.123,73.0885 357.832,73.5572 C357.8,73.5989 357.774,73.6458 357.754,73.6979 L357.629,73.6666 C357.879,72.9895 358.243,72.5781 358.722,72.4322 C358.868,72.3906 359.03,72.3697 359.207,72.3697 C359.686,72.3697 360.04,72.5364 360.269,72.8697 C360.394,73.0468 360.457,73.2447 360.457,73.4635 C360.457,73.7864 360.306,74.0781 360.004,74.3385 C359.91,74.4114 359.811,74.4895 359.707,74.5729 C360.186,74.7812 360.493,75.0677 360.629,75.4322 C360.691,75.6093 360.722,75.8072 360.722,76.026 C360.722,76.6614 360.457,77.1562 359.925,77.5104 C359.53,77.7604 359.061,77.8854 358.519,77.8854 C358.03,77.8854 357.738,77.776 357.644,77.5572 C357.623,77.5156 357.613,77.4739 357.613,77.4322 C357.613,77.276 357.691,77.1875 357.847,77.1666 C357.868,77.1562 357.889,77.151 357.91,77.151"/>
<path class="Fingering" d="M322.101,68.9955 C322.341,67.9747 322.867,67.4486 323.679,67.4174 C323.711,67.4174 323.737,67.4174 323.757,67.4174 C324.247,67.4174 324.638,67.5945 324.929,67.9486 C325.138,68.209 325.242,68.5007 325.242,68.8236 C325.242,69.4174 324.924,70.058 324.289,70.7455 C324.268,70.7663 324.242,70.7872 324.211,70.808 L322.882,72.2299 L324.789,72.2299 C324.997,72.2299 325.159,72.1726 325.273,72.058 C325.346,71.9851 325.435,71.8653 325.539,71.6986 L325.648,71.7299 L325.211,72.808 L322.086,72.808 L322.086,72.7142 L323.507,71.1986 C324.185,70.459 324.534,69.7663 324.554,69.1205 C324.554,68.6726 324.382,68.3497 324.039,68.1517 C323.862,68.0476 323.659,67.9955 323.429,67.9955 C323.075,67.9955 322.799,68.1309 322.601,68.4017 C322.487,68.558 322.377,68.7715 322.273,69.0424 L322.101,68.9955 "/>
<path class="Fingering" d="M290.214,63.5435 L290.214,64.0279 L289.386,64.0279 L289.386,65.356 L288.777,65.356 L288.777,64.0279 L286.527,64.0279 L286.527,63.5435 L289.043,59.9497 L289.386,59.9497 L289.386,63.5435 L290.214,63.5435 M288.761,63.5435 L288.761,60.7935 L286.855,63.5435 L288.761,63.5435 "/>
<path class="Fingering" d="M251.265,68.9955 C251.505,67.9747 252.031,67.4486 252.843,67.4174 C252.875,67.4174 252.901,67.4174 252.922,67.4174 C253.411,67.4174 253.802,67.5945 254.093,67.9486 C254.302,68.209 254.406,68.5007 254.406,68.8236 C254.406,69.4174 254.088,70.058 253.453,70.7455 C253.432,70.7663 253.406,70.7872 253.375,70.808 L252.047,72.2299 L253.953,72.2299 C254.161,72.2299 254.323,72.1726 254.437,72.058 C254.51,71.9851 254.599,71.8653 254.703,71.6986 L254.812,71.7299 L254.375,72.808 L251.25,72.808 L251.25,72.7142 L252.672,71.1986 C253.349,70.459 253.698,69.7663 253.718,69.1205 C253.718,68.6726 253.547,68.3497 253.203,68.1517 C253.026,68.0476 252.823,67.9955 252.593,67.9955 C252.239,67.9955 251.963,68.1309 251.765,68.4017 C251.651,68.558 251.541,68.7715 251.437,69.0424 L251.265,68.9955 "/>
<path class="Fingering" d="M216.238,77.151 C216.363,77.151 216.545,77.2187 216.785,77.3541 C217.035,77.5104 217.248,77.5885 217.425,77.5885 C217.79,77.5885 218.076,77.427 218.285,77.1041 C218.41,76.8958 218.472,76.6614 218.472,76.401 C218.472,75.6406 218.019,75.2239 217.113,75.151 C217.019,75.1406 216.92,75.1354 216.816,75.1354 L216.816,75.026 C217.42,74.8281 217.816,74.5729 218.004,74.2604 C218.097,74.0937 218.144,73.9114 218.144,73.7135 C218.144,73.3593 217.998,73.1041 217.707,72.9479 C217.571,72.8854 217.425,72.8541 217.269,72.8541 C216.821,72.8541 216.451,73.0885 216.16,73.5572 C216.129,73.5989 216.102,73.6458 216.082,73.6979 L215.957,73.6666 C216.207,72.9895 216.571,72.5781 217.05,72.4322 C217.196,72.3906 217.358,72.3697 217.535,72.3697 C218.014,72.3697 218.368,72.5364 218.597,72.8697 C218.722,73.0468 218.785,73.2447 218.785,73.4635 C218.785,73.7864 218.634,74.0781 218.332,74.3385 C218.238,74.4114 218.139,74.4895 218.035,74.5729 C218.514,74.7812 218.821,75.0677 218.957,75.4322 C219.019,75.6093 219.05,75.8072 219.05,76.026 C219.05,76.6614 218.785,77.1562 218.254,77.5104 C217.858,77.7604 217.389,77.8854 216.847,77.8854 C216.358,77.8854 216.066,77.776 215.972,77.5572 C215.951,77.5156 215.941,77.4739 215.941,77.4322 C215.941,77.276 216.019,77.1875 216.175,77.1666 C216.196,77.1562 216.217,77.151 216.238,77.151"/>
<path class="Fingering" d="M180.82,82.119 C180.945,82.119 181.127,82.1867 181.367,82.3221 C181.617,82.4784 181.83,82.5565 182.007,82.5565 C182.372,82.5565 182.658,82.395 182.867,82.0721 C182.992,81.8638 183.054,81.6294 183.054,81.369 C183.054,80.6086 182.601,80.1919 181.695,80.119 C181.601,80.1086 181.502,80.1034 181.398,80.1034 L181.398,79.994 C182.002,79.7961 182.398,79.5409 182.586,79.2284 C182.679,79.0617 182.726,78.8794 182.726,78.6815 C182.726,78.3273 182.58,78.0721 182.289,77.9159 C182.153,77.8534 182.007,77.8221 181.851,77.8221 C181.403,77.8221 181.033,78.0565 180.742,78.5252 C180.711,78.5669 180.685,78.6138 180.664,78.6659 L180.539,78.6346 C180.789,77.9575 181.153,77.5461 181.632,77.4002 C181.778,77.3586 181.94,77.3377 182.117,77.3377 C182.596,77.3377 182.95,77.5044 183.179,77.8377 C183.304,78.0148 183.367,78.2127 183.367,78.4315 C183.367,78.7544 183.216,79.0461 182.914,79.3065 C182.82,79.3794 182.721,79.4575 182.617,79.5409 C183.096,79.7492 183.403,80.0357 183.539,80.4002 C183.601,80.5773 183.632,80.7752 183.632,80.994 C183.632,81.6294 183.367,82.1242 182.836,82.4784 C182.44,82.7284 181.971,82.8534 181.429,82.8534 C180.94,82.8534 180.648,82.744 180.554,82.5252 C180.533,82.4836 180.523,82.4419 180.523,82.4002 C180.523,82.244 180.601,82.1555 180.757,82.1346 C180.778,82.1242 180.799,82.119 180.82,82.119"/>
<path class="Fingering" d="M145.011,86.3835 C145.251,85.3627 145.777,84.8366 146.589,84.8054 C146.621,84.8054 146.647,84.8054 146.668,84.8054 C147.157,84.8054 147.548,84.9825 147.839,85.3366 C148.048,85.597 148.152,85.8887 148.152,86.2116 C148.152,86.8054 147.834,87.446 147.199,88.1335 C147.178,88.1543 147.152,88.1752 147.121,88.196 L145.793,89.6179 L147.699,89.6179 C147.907,89.6179 148.069,89.5606 148.183,89.446 C148.256,89.3731 148.345,89.2533 148.449,89.0866 L148.558,89.1179 L148.121,90.196 L144.996,90.196 L144.996,90.1022 L146.418,88.5866 C147.095,87.847 147.444,87.1543 147.464,86.5085 C147.464,86.0606 147.293,85.7377 146.949,85.5397 C146.772,85.4356 146.569,85.3835 146.339,85.3835 C145.985,85.3835 145.709,85.5189 145.511,85.7897 C145.397,85.946 145.287,86.1595 145.183,86.4304 L145.011,86.3835 "/>
<path class="Fingering" d="M113.125,93.3515 L113.125,93.8359 L112.296,93.8359 L112.296,95.164 L111.687,95.164 L111.687,93.8359 L109.437,93.8359 L109.437,93.3515 L111.953,89.7577 L112.296,89.7577 L112.296,93.3515 L113.125,93.3515 M111.671,93.3515 L111.671,90.6015 L109.765,93.3515 L111.671,93.3515 "/>
<path class="Fingering" d="M75.3941,95.3976 C75.2795,95.3976 75.0868,95.4549 74.816,95.5695 L74.816,95.4601 L76.2535,94.7257 L76.316,94.7414 L76.316,99.5382 C76.316,99.7466 76.3785,99.882 76.5035,99.9445 C76.6076,99.9862 76.8003,100.007 77.0816,100.007 L77.0816,100.132 L74.8628,100.132 L74.8628,100.007 C75.217,99.9966 75.441,99.9341 75.5347,99.8195 C75.5972,99.7257 75.6285,99.5799 75.6285,99.382 L75.6285,95.7726 C75.618,95.5226 75.5399,95.3976 75.3941,95.3976"/>
<path class="Tempo" d="M74.2441,34.859 C74.1972,34.859 74.1659,34.859 74.1659,34.9371 L74.1659,40.4371 C73.9628,40.2809 73.7128,40.1871 73.4003,40.1871 C72.2128,40.1871 71.2597,41.0621 71.2597,41.9996 C71.2597,42.5621 71.7128,42.9059 72.3066,42.9059 C73.2597,42.9059 74.4472,41.9996 74.4472,41.0934 L74.4472,37.0934 C74.8222,37.1715 75.4472,37.4371 75.8222,38.4684 C75.9159,38.734 76.0097,39.1402 76.0097,39.5934 C76.0097,39.9059 75.9472,40.2809 75.8222,40.609 C75.7909,40.6559 75.7909,40.6871 75.7909,40.7184 C75.7909,40.8434 75.8691,40.9059 75.9316,40.9371 C75.9316,40.9527 75.9628,40.9527 75.9784,40.9527 C76.0409,40.9527 76.1034,40.9059 76.1659,40.7965 C76.1816,40.7027 76.3691,40.0465 76.3691,39.5621 L76.3691,39.4996 C76.3378,38.5777 75.9316,37.6871 75.4159,36.9371 C74.9784,36.359 74.6347,35.734 74.4941,35.0309 C74.4472,34.8902 74.3847,34.859 74.3066,34.859 L74.2441,34.859 "/>
<path class="Tempo" d="M86.7284,39.0152 L80.1191,39.0152 L80.1191,37.859 L86.7284,37.859 L86.7284,39.0152 M86.7284,41.9371 L80.1191,41.9371 L80.1191,40.7965 L86.7284,40.7965 L86.7284,41.9371 M92.1659,36.0465 C92.0409,36.0465 91.7232,36.1402 91.2128,36.3277 C91.1816,36.3382 91.1607,36.3486 91.1503,36.359 L91.1503,36.0465 L94.1659,34.734 L94.3691,34.734 L94.3691,41.5621 C94.3691,42.0517 94.468,42.3642 94.6659,42.4996 C94.843,42.6246 95.1763,42.6923 95.6659,42.7027 L95.6659,42.984 L91.1659,42.984 L91.1659,42.7027 C91.8222,42.6923 92.2336,42.5882 92.4003,42.3902 C92.5357,42.2236 92.6034,41.9267 92.6034,41.4996 L92.6034,36.8746 C92.593,36.333 92.4472,36.0569 92.1659,36.0465 M100.619,41.1402 C100.619,40.2861 100.202,39.6298 99.3691,39.1715 C99.0774,39.0152 98.6868,38.8486 98.1972,38.6715 L98.1972,38.4684 C98.9888,38.2184 99.4732,37.8902 99.6503,37.484 C99.7232,37.2965 99.7597,37.0934 99.7597,36.8746 C99.7597,36.2705 99.5253,35.8746 99.0566,35.6871 C98.9003,35.635 98.7284,35.609 98.5409,35.609 C98.0618,35.609 97.6555,35.8225 97.3222,36.2496 C97.2388,36.3642 97.1555,36.4944 97.0722,36.6402 L96.8066,36.484 C97.4732,35.3277 98.3899,34.7444 99.5566,34.734 C100.473,34.734 101.077,35.0361 101.369,35.6402 C101.463,35.8486 101.51,36.083 101.51,36.3434 C101.51,36.8121 101.364,37.1819 101.072,37.4527 C100.926,37.5777 100.744,37.708 100.525,37.8434 C101.484,38.3017 101.968,39.0205 101.978,39.9996 C101.978,40.9059 101.614,41.6663 100.885,42.2809 C100.197,42.8642 99.3691,43.1559 98.4003,43.1559 C97.567,43.1559 97.0045,42.9527 96.7128,42.5465 C96.6086,42.4007 96.5566,42.2444 96.5566,42.0777 C96.5566,41.7652 96.7076,41.5517 97.0097,41.4371 C97.1138,41.3955 97.2232,41.3746 97.3378,41.3746 C97.6607,41.3746 98.0097,41.5569 98.3847,41.9215 C98.718,42.2444 98.9472,42.4371 99.0722,42.4996 C99.2076,42.5621 99.3326,42.5934 99.4472,42.5934 C99.968,42.5934 100.322,42.333 100.51,41.8121 C100.583,41.6142 100.619,41.3902 100.619,41.1402 M102.65,38.9059 C102.65,37.5934 102.963,36.5309 103.588,35.7184 C104.098,35.0725 104.692,34.7444 105.369,34.734 C106.15,34.734 106.796,35.1402 107.307,35.9527 C107.817,36.7652 108.072,37.76 108.072,38.9371 C108.072,40.3121 107.754,41.4059 107.119,42.2184 C106.619,42.8225 106.041,43.1298 105.385,43.1402 C104.551,43.1402 103.879,42.7132 103.369,41.859 C102.89,41.0673 102.65,40.083 102.65,38.9059 M105.385,42.7965 C105.739,42.7965 105.973,42.4736 106.088,41.8277 C106.15,41.4423 106.182,40.9423 106.182,40.3277 L106.182,37.5777 C106.182,36.1402 105.989,35.3225 105.603,35.1246 C105.531,35.083 105.447,35.0621 105.353,35.0621 C104.989,35.0621 104.749,35.3955 104.635,36.0621 C104.583,36.4371 104.557,36.9423 104.557,37.5777 L104.557,40.3277 C104.557,41.6819 104.723,42.4736 105.057,42.7027 C105.15,42.7652 105.26,42.7965 105.385,42.7965"/>
<path class="StaffText" d="M400.296,55.8582 L400.296,51.4207 C400.296,51.0353 400.228,50.7957 400.093,50.702 C399.978,50.6082 399.723,50.551 399.327,50.5301 L399.327,50.3426 L402.296,50.3426 L402.296,50.5301 C401.838,50.551 401.557,50.6239 401.452,50.7489 C401.359,50.8739 401.312,51.0978 401.312,51.4207 L401.312,55.8582 C401.312,56.2541 401.39,56.5041 401.546,56.6082 C401.671,56.702 401.921,56.7541 402.296,56.7645 L402.296,56.952 L399.327,56.952 L399.327,56.7645 C399.775,56.7541 400.051,56.6812 400.156,56.5457 C400.249,56.4207 400.296,56.1916 400.296,55.8582"/>
<path class="StaffText" d="M223.206,50.8902 L223.206,46.4527 C223.206,46.0673 223.139,45.8277 223.003,45.734 C222.889,45.6402 222.633,45.583 222.238,45.5621 L222.238,45.3746 L225.206,45.3746 L225.206,45.5621 C224.748,45.583 224.467,45.6559 224.363,45.7809 C224.269,45.9059 224.222,46.1298 224.222,46.4527 L224.222,50.8902 C224.222,51.2861 224.3,51.5361 224.456,51.6402 C224.581,51.734 224.831,51.7861 225.206,51.7965 L225.206,51.984 L222.238,51.984 L222.238,51.7965 C222.685,51.7861 222.961,51.7132 223.066,51.5777 C223.159,51.4527 223.206,51.2236 223.206,50.8902 M231.988,45.3746 L231.988,45.5621 C231.717,45.5725 231.529,45.6455 231.425,45.7809 C231.331,45.9059 231.211,46.1402 231.066,46.484 L228.847,52.0934 L228.706,52.0934 L226.238,46.609 C226.008,46.0777 225.805,45.7652 225.628,45.6715 C225.514,45.5986 225.363,45.5621 225.175,45.5621 L225.175,45.3746 L227.847,45.3746 L227.847,45.5621 C227.659,45.5725 227.56,45.5777 227.55,45.5777 C227.248,45.609 227.097,45.7132 227.097,45.8902 C227.097,46.0361 227.232,46.4059 227.503,46.9996 L229.003,50.3746 L230.472,46.7027 C230.607,46.3902 230.675,46.1507 230.675,45.984 C230.675,45.7757 230.555,45.6455 230.316,45.5934 C230.211,45.5725 230.086,45.5621 229.941,45.5621 L229.941,45.3746 L231.988,45.3746 "/>
<path class="StaffText" d="M84.2375,25.2057 C84.6854,25.2057 85.1854,25.3203 85.7375,25.5495 C85.977,25.6432 86.1489,25.6901 86.2531,25.6901 C86.3989,25.6901 86.5291,25.5807 86.6437,25.362 C86.6541,25.3203 86.6698,25.2787 86.6906,25.237 L86.9562,25.237 L86.9562,27.5807 L86.7062,27.5807 C86.4354,26.9766 86.1541,26.5339 85.8625,26.2526 C85.8,26.1901 85.7427,26.138 85.6906,26.0964 C85.2635,25.7214 84.8208,25.5339 84.3625,25.5339 C83.3625,25.5339 82.7687,26.2526 82.5812,27.6901 C82.55,28.013 82.5343,28.362 82.5343,28.737 C82.5343,29.9245 82.7479,30.7943 83.175,31.3464 C83.5083,31.763 83.9666,31.9714 84.55,31.9714 C85.1125,31.9714 85.4302,31.7943 85.5031,31.4401 C85.5135,31.3776 85.5187,31.3099 85.5187,31.237 L85.5187,30.1901 C85.5187,29.8985 85.4458,29.711 85.3,29.6276 C85.1541,29.5547 84.8885,29.5078 84.5031,29.487 L84.5031,29.237 L87.9406,29.237 L87.9406,29.487 C87.5343,29.5287 87.2843,29.6172 87.1906,29.7526 C87.1177,29.8672 87.0812,30.086 87.0812,30.4089 L87.0812,31.6745 C86.4875,32.0287 85.701,32.237 84.7218,32.2995 C84.5864,32.2995 84.451,32.2995 84.3156,32.2995 C83.201,32.2995 82.3104,31.9401 81.6437,31.2214 C81.05,30.5755 80.7531,29.7682 80.7531,28.7995 C80.7531,27.7578 81.0968,26.8932 81.7843,26.2057 C82.451,25.5391 83.2687,25.2057 84.2375,25.2057 M92.0031,28.8307 C91.7843,28.8307 91.5708,28.711 91.3625,28.4714 C91.2479,28.3255 91.1645,28.2474 91.1125,28.237 C90.8937,28.237 90.727,28.388 90.6125,28.6901 C90.5395,28.8464 90.5031,29.013 90.5031,29.1901 L90.5031,31.0807 C90.5031,31.4453 90.576,31.6693 90.7218,31.7526 C90.8156,31.8151 90.9875,31.8568 91.2375,31.8776 L91.2375,32.112 L88.5968,32.112 L88.5968,31.8776 C88.8677,31.8255 89.0291,31.7318 89.0812,31.5964 C89.102,31.5235 89.1125,31.4141 89.1125,31.2682 L89.1125,28.3307 C89.1125,28.0703 89.0395,27.9037 88.8937,27.8307 C88.8208,27.7891 88.7218,27.7578 88.5968,27.737 L88.5968,27.5026 L90.4718,27.5026 L90.4718,28.3307 C90.8468,27.7787 91.2166,27.4714 91.5812,27.4089 C91.6645,27.388 91.7427,27.3776 91.8156,27.3776 C92.1593,27.3776 92.4041,27.5182 92.55,27.7995 C92.602,27.9141 92.6281,28.0339 92.6281,28.1589 C92.6281,28.4714 92.5031,28.6797 92.2531,28.7839 C92.1698,28.8151 92.0864,28.8307 92.0031,28.8307 M93.8781,28.0807 C93.8781,28.112 93.9302,28.2057 94.0343,28.362 C94.1281,28.5078 94.175,28.6328 94.175,28.737 C94.175,28.9974 94.0448,29.1745 93.7843,29.2682 C93.6906,29.2995 93.5968,29.3151 93.5031,29.3151 C93.1385,29.3151 92.925,29.1537 92.8625,28.8307 C92.852,28.7682 92.8468,28.711 92.8468,28.6589 C92.8468,28.1901 93.102,27.8412 93.6125,27.612 C93.9354,27.4557 94.3104,27.3776 94.7375,27.3776 C95.6125,27.3776 96.2114,27.6172 96.5343,28.0964 C96.6593,28.2943 96.7218,28.5182 96.7218,28.7682 L96.7218,31.3464 C96.7323,31.5026 96.8,31.586 96.925,31.5964 C96.977,31.586 97.0135,31.5703 97.0343,31.5495 L97.1437,31.4557 L97.2843,31.6589 C96.8885,32.0339 96.5187,32.2318 96.175,32.2526 C95.8,32.2526 95.5552,32.112 95.4406,31.8307 C95.4093,31.737 95.3781,31.638 95.3468,31.5339 C94.8052,32.0026 94.2791,32.2422 93.7687,32.2526 C93.3312,32.2526 93.0135,32.086 92.8156,31.7526 C92.7114,31.586 92.6593,31.4037 92.6593,31.2057 C92.6593,30.6224 93.1073,30.1485 94.0031,29.7839 C94.2427,29.6797 94.6906,29.5287 95.3468,29.3307 L95.3468,28.5964 C95.3468,28.0651 95.1281,27.7735 94.6906,27.7214 C94.6281,27.7214 94.5656,27.7214 94.5031,27.7214 C94.2114,27.7214 94.0135,27.8047 93.9093,27.9714 C93.8885,28.0026 93.8781,28.0391 93.8781,28.0807 M95.3312,31.0964 L95.3312,29.6589 C94.5291,29.8776 94.1229,30.2787 94.1125,30.862 C94.1125,31.1953 94.2218,31.4037 94.4406,31.487 C94.5031,31.5078 94.5656,31.5182 94.6281,31.5182 C94.8573,31.5182 95.0916,31.3776 95.3312,31.0964 M100.8,32.237 L100.8,31.5964 C100.446,31.9714 100.102,32.1849 99.7687,32.237 C99.675,32.2474 99.576,32.2526 99.4718,32.2526 C98.8781,32.2526 98.4093,31.9766 98.0656,31.4245 C97.7948,30.9974 97.6593,30.4922 97.6593,29.9089 C97.6593,29.0547 97.9041,28.3828 98.3937,27.8932 C98.727,27.5495 99.1229,27.3776 99.5812,27.3776 C99.9354,27.3776 100.258,27.513 100.55,27.7839 C100.633,27.8568 100.706,27.9245 100.769,27.987 L100.769,26.1745 C100.769,25.9245 100.711,25.7682 100.597,25.7057 C100.493,25.6537 100.295,25.6172 100.003,25.5964 L100.003,25.362 L102.159,25.362 L102.159,31.112 C102.159,31.3932 102.243,31.5651 102.409,31.6276 C102.493,31.6589 102.607,31.6797 102.753,31.6901 L102.753,31.9245 L102.128,32.0026 C101.576,32.0755 101.133,32.1537 100.8,32.237 M99.925,31.7057 C100.217,31.7057 100.467,31.5391 100.675,31.2057 C100.727,31.112 100.758,31.0443 100.769,31.0026 L100.769,28.5495 C100.644,28.2162 100.435,28.0182 100.144,27.9557 C100.092,27.9453 100.04,27.9401 99.9875,27.9401 C99.477,27.9401 99.1958,28.4453 99.1437,29.4557 C99.1437,29.5703 99.1437,29.6953 99.1437,29.8307 C99.1437,31.0703 99.4041,31.6953 99.925,31.7057 M105.097,29.6589 C105.149,30.6797 105.415,31.2787 105.894,31.4557 C106.019,31.4974 106.149,31.5182 106.284,31.5182 C106.649,31.5182 106.982,31.3516 107.284,31.0182 C107.336,30.9662 107.383,30.9141 107.425,30.862 L107.659,31.0026 C107.243,31.6068 106.831,31.987 106.425,32.1432 C106.217,32.2162 105.982,32.2526 105.722,32.2526 C104.972,32.2526 104.409,31.9453 104.034,31.3307 C103.784,30.9141 103.659,30.4141 103.659,29.8307 C103.659,28.9349 103.93,28.263 104.472,27.8151 C104.836,27.5235 105.264,27.3776 105.753,27.3776 C106.857,27.3776 107.477,28.0964 107.612,29.5339 C107.612,29.5755 107.612,29.6172 107.612,29.6589 L105.097,29.6589 M106.394,29.1432 C106.373,28.5182 106.305,28.1224 106.191,27.9557 C106.097,27.7995 105.951,27.7214 105.753,27.7214 C105.461,27.7214 105.264,27.8932 105.159,28.237 C105.097,28.4766 105.06,28.8307 105.05,29.2995 L106.394,29.2995 L106.394,29.1432 M111.253,30.7057 C111.493,30.7057 111.805,30.8412 112.191,31.112 C112.566,31.3516 112.836,31.487 113.003,31.5182 C113.055,31.5287 113.102,31.5339 113.144,31.5339 C113.508,31.5339 113.79,31.3776 113.987,31.0651 C114.092,30.9089 114.144,30.737 114.144,30.5495 C114.144,30.0391 113.857,29.6276 113.284,29.3151 C113.118,29.2214 112.93,29.138 112.722,29.0651 C112.336,28.9505 111.737,28.862 110.925,28.7995 L111.894,25.362 L115.112,25.362 L114.675,26.6276 L111.894,26.6276 L111.675,27.4401 C112.373,27.4818 112.878,27.5443 113.191,27.6276 C113.982,27.8568 114.508,28.2995 114.769,28.9557 C114.862,29.2162 114.909,29.4922 114.909,29.7839 C114.909,30.5547 114.602,31.1693 113.987,31.6276 C113.467,32.0026 112.836,32.1901 112.097,32.1901 C111.42,32.1901 110.967,32.0182 110.737,31.6745 C110.665,31.5703 110.628,31.4505 110.628,31.3151 C110.628,31.0443 110.748,30.862 110.987,30.7682 C111.071,30.7266 111.159,30.7057 111.253,30.7057 M117.066,30.5495 C117.389,30.5495 117.633,30.6901 117.8,30.9714 C117.883,31.1172 117.925,31.263 117.925,31.4089 C117.925,31.7214 117.784,31.961 117.503,32.1276 C117.357,32.2005 117.211,32.237 117.066,32.237 C116.732,32.237 116.487,32.0964 116.331,31.8151 C116.258,31.6797 116.222,31.5391 116.222,31.3932 C116.222,31.0912 116.357,30.8568 116.628,30.6901 C116.764,30.5964 116.909,30.5495 117.066,30.5495 M117.066,27.3932 C117.389,27.3932 117.633,27.5287 117.8,27.7995 C117.883,27.9453 117.925,28.0912 117.925,28.237 C117.925,28.5599 117.784,28.8047 117.503,28.9714 C117.368,29.0443 117.222,29.0807 117.066,29.0807 C116.732,29.0807 116.487,28.9349 116.331,28.6432 C116.258,28.5078 116.222,28.3672 116.222,28.2214 C116.222,27.9193 116.357,27.6849 116.628,27.5182 C116.764,27.4349 116.909,27.3932 117.066,27.3932"/>
<path class="StaffText" d="M126.222,29.7682 L126.003,29.7682 C125.93,29.3516 125.816,29.0912 125.659,28.987 C125.514,28.8932 125.258,28.8464 124.894,28.8464 L123.441,28.8464 L123.441,30.9245 C123.441,31.362 123.514,31.638 123.659,31.7526 C123.774,31.8464 124.008,31.9037 124.362,31.9245 L124.362,32.112 L121.566,32.112 L121.566,31.9245 C121.951,31.8932 122.196,31.8151 122.3,31.6901 C122.383,31.5547 122.425,31.2943 122.425,30.9089 L122.425,26.5807 C122.425,26.1953 122.357,25.9505 122.222,25.8464 C122.097,25.763 121.878,25.711 121.566,25.6901 L121.566,25.5026 L126.862,25.5026 L126.894,26.9245 L126.644,26.9245 C126.56,26.4766 126.43,26.1901 126.253,26.0651 C126.055,25.9401 125.68,25.8776 125.128,25.8776 L123.769,25.8776 C123.592,25.8776 123.493,25.9245 123.472,26.0182 C123.451,26.0703 123.441,26.1328 123.441,26.2057 L123.441,28.4089 L124.894,28.4089 C125.331,28.4089 125.618,28.3307 125.753,28.1745 C125.857,28.0495 125.941,27.8203 126.003,27.487 L126.222,27.487 L126.222,29.7682 M130.534,28.1589 L130.534,27.987 C131.014,27.8412 131.482,27.6849 131.941,27.5182 L132.003,27.5339 L132.003,28.2995 C132.576,27.862 132.987,27.612 133.237,27.5495 C133.342,27.5287 133.446,27.5182 133.55,27.5182 C134.081,27.5287 134.435,27.8151 134.612,28.3776 C135.144,27.8047 135.691,27.5182 136.253,27.5182 C137.014,27.5287 137.399,28.1276 137.409,29.3151 L137.409,31.362 C137.42,31.7266 137.56,31.9193 137.831,31.9401 L138.097,31.9557 L138.097,32.112 L135.909,32.112 L135.909,31.9557 C136.232,31.9245 136.425,31.8516 136.487,31.737 C136.54,31.6432 136.566,31.4818 136.566,31.2526 L136.566,29.1432 C136.566,28.5912 136.456,28.2578 136.237,28.1432 C136.133,28.0807 135.993,28.0495 135.816,28.0495 C135.368,28.0599 135.003,28.263 134.722,28.6589 L134.722,31.1745 C134.722,31.5495 134.81,31.7839 134.987,31.8776 C135.092,31.9297 135.243,31.9557 135.441,31.9557 L135.441,32.112 L133.206,32.112 L133.206,31.9557 C133.529,31.9349 133.727,31.862 133.8,31.737 C133.862,31.6432 133.894,31.4818 133.894,31.2526 L133.894,29.0964 C133.894,28.3985 133.67,28.0495 133.222,28.0495 C132.857,28.0495 132.534,28.1693 132.253,28.4089 C132.18,28.4818 132.112,28.5599 132.05,28.6432 L132.05,31.4401 C132.05,31.6901 132.139,31.8464 132.316,31.9089 C132.409,31.9401 132.545,31.9557 132.722,31.9557 L132.722,32.112 L130.503,32.112 L130.503,31.9557 C130.857,31.9557 131.071,31.8724 131.144,31.7057 C131.185,31.6016 131.206,31.4557 131.206,31.2682 L131.206,28.7526 C131.206,28.3776 131.128,28.1693 130.972,28.1276 C130.941,28.1172 130.904,28.112 130.862,28.112 C130.758,28.112 130.649,28.1276 130.534,28.1589 M139.034,28.1901 C138.878,28.1901 138.737,28.2005 138.612,28.2214 L138.612,28.0651 C139.081,27.9297 139.597,27.7474 140.159,27.5182 L140.191,27.5495 L140.191,31.0964 C140.191,31.4818 140.248,31.7214 140.362,31.8151 C140.456,31.888 140.649,31.9349 140.941,31.9557 L140.941,32.112 L138.566,32.112 L138.566,31.9557 C138.93,31.9349 139.159,31.8672 139.253,31.7526 C139.326,31.638 139.362,31.4193 139.362,31.0964 L139.362,28.7682 C139.362,28.4141 139.279,28.2214 139.112,28.1901 C139.081,28.1901 139.055,28.1901 139.034,28.1901 M139.691,25.2839 C139.909,25.2839 140.066,25.3828 140.159,25.5807 C140.191,25.6537 140.206,25.7266 140.206,25.7995 C140.206,26.0182 140.102,26.1745 139.894,26.2682 C139.821,26.2891 139.753,26.2995 139.691,26.2995 C139.472,26.2995 139.316,26.2005 139.222,26.0026 C139.201,25.9297 139.191,25.862 139.191,25.7995 C139.191,25.5807 139.284,25.4245 139.472,25.3307 C139.545,25.2995 139.618,25.2839 139.691,25.2839 M141.503,28.1276 L141.503,27.9557 C142.003,27.8099 142.467,27.6641 142.894,27.5182 L142.956,27.5339 L142.956,28.3151 C143.435,27.8776 143.81,27.6224 144.081,27.5495 C144.185,27.5287 144.295,27.5182 144.409,27.5182 C144.951,27.5182 145.31,27.7891 145.487,28.3307 C145.55,28.5287 145.581,28.7526 145.581,29.0026 L145.581,31.2995 C145.581,31.612 145.654,31.8047 145.8,31.8776 C145.894,31.9089 146.024,31.9349 146.191,31.9557 L146.191,32.112 L144.112,32.112 L144.112,31.9557 C144.415,31.9349 144.602,31.836 144.675,31.6589 C144.727,31.5443 144.753,31.3672 144.753,31.1276 L144.753,29.0339 C144.732,28.388 144.487,28.0599 144.019,28.0495 C143.769,28.0495 143.508,28.1641 143.237,28.3932 C143.165,28.4662 143.081,28.5443 142.987,28.6276 L142.987,31.4401 C142.987,31.6797 143.086,31.836 143.284,31.9089 C143.378,31.9297 143.498,31.9453 143.644,31.9557 L143.644,32.112 L141.534,32.112 L141.534,31.9557 C141.826,31.9349 142.008,31.8516 142.081,31.7057 C142.123,31.5912 142.144,31.4245 142.144,31.2057 L142.144,28.7214 C142.144,28.3568 142.071,28.1537 141.925,28.112 C141.883,28.0912 141.836,28.0807 141.784,28.0807 C141.659,28.0807 141.566,28.0964 141.503,28.1276 M148.862,27.5182 C149.602,27.5182 150.185,27.7891 150.612,28.3307 C150.915,28.737 151.066,29.2162 151.066,29.7682 C151.066,30.5495 150.81,31.1745 150.3,31.6432 C149.883,32.0182 149.399,32.2057 148.847,32.2057 C148.139,32.2057 147.576,31.9349 147.159,31.3932 C146.826,30.9557 146.659,30.4401 146.659,29.8464 C146.659,29.0339 146.935,28.4089 147.487,27.9714 C147.873,27.6693 148.331,27.5182 148.862,27.5182 M147.566,29.362 C147.566,30.2682 147.753,30.961 148.128,31.4401 C148.368,31.7526 148.649,31.9089 148.972,31.9089 C149.493,31.9089 149.852,31.612 150.05,31.0182 C150.133,30.7578 150.175,30.461 150.175,30.1276 C150.175,29.2422 149.961,28.586 149.534,28.1589 C149.305,27.9297 149.04,27.8151 148.737,27.8151 C148.269,27.8151 147.93,28.0547 147.722,28.5339 C147.618,28.7735 147.566,29.0495 147.566,29.362 M154.425,28.487 C154.321,28.487 154.17,28.4037 153.972,28.237 C153.878,28.1537 153.805,28.112 153.753,28.112 C153.586,28.112 153.415,28.2422 153.237,28.5026 C153.123,28.6693 153.066,28.8151 153.066,28.9401 L153.066,31.2057 C153.066,31.5495 153.154,31.763 153.331,31.8464 C153.456,31.9089 153.649,31.9453 153.909,31.9557 L153.909,32.112 L151.503,32.112 L151.503,31.9557 C151.857,31.8932 152.071,31.8099 152.144,31.7057 C152.196,31.6224 152.222,31.4766 152.222,31.2682 L152.222,28.7526 C152.222,28.388 152.139,28.1901 151.972,28.1589 C151.941,28.1485 151.909,28.1432 151.878,28.1432 C151.764,28.1432 151.649,28.1589 151.534,28.1901 L151.534,28.0339 C152.066,27.8672 152.555,27.6953 153.003,27.5182 L153.066,27.5339 L153.066,28.4245 C153.409,27.9453 153.701,27.6589 153.941,27.5651 C154.045,27.5339 154.149,27.5182 154.253,27.5182 C154.566,27.5182 154.748,27.6485 154.8,27.9089 C154.8,27.9505 154.8,27.9974 154.8,28.0495 C154.769,28.3203 154.644,28.4662 154.425,28.487 M157.659,31.1432 C157.659,30.6328 157.977,30.2005 158.612,29.8464 C158.8,29.7526 159.3,29.5391 160.112,29.2057 C160.133,29.2057 160.149,29.2005 160.159,29.1901 L160.159,28.5807 C160.107,28.0599 159.852,27.7839 159.394,27.7526 C159.081,27.7526 158.862,27.8516 158.737,28.0495 C158.696,28.1224 158.675,28.1849 158.675,28.237 C158.675,28.2995 158.685,28.3828 158.706,28.487 C158.717,28.5599 158.722,28.612 158.722,28.6432 C158.722,28.8203 158.633,28.9453 158.456,29.0182 C158.394,29.0495 158.336,29.0651 158.284,29.0651 C158.097,29.0651 157.967,28.9766 157.894,28.7995 C157.862,28.7474 157.847,28.6901 157.847,28.6276 C157.847,28.263 158.066,27.9662 158.503,27.737 C158.805,27.5912 159.149,27.5182 159.534,27.5182 C160.253,27.5182 160.696,27.7735 160.862,28.2839 C160.935,28.5026 160.972,28.7787 160.972,29.112 L160.972,31.0495 C160.972,31.3828 161.034,31.5703 161.159,31.612 C161.201,31.6224 161.237,31.6276 161.269,31.6276 C161.415,31.6172 161.56,31.5547 161.706,31.4401 L161.706,31.6901 C161.435,32.0026 161.185,32.1745 160.956,32.2057 C160.904,32.2057 160.852,32.2057 160.8,32.2057 C160.487,32.2057 160.29,32.0495 160.206,31.737 C160.185,31.6537 160.175,31.5599 160.175,31.4557 C159.581,31.9349 159.092,32.1849 158.706,32.2057 C158.279,32.2057 157.972,32.0339 157.784,31.6901 C157.701,31.5235 157.659,31.3412 157.659,31.1432 M160.159,30.862 L160.159,29.4245 C159.336,29.7266 158.831,30.0339 158.644,30.3464 C158.571,30.4922 158.534,30.6485 158.534,30.8151 C158.534,31.211 158.68,31.461 158.972,31.5651 C159.045,31.5964 159.112,31.612 159.175,31.612 C159.394,31.6016 159.633,31.5235 159.894,31.3776 C160.04,31.2943 160.123,31.1901 160.144,31.0651 C160.154,31.0026 160.159,30.9349 160.159,30.862 M164.425,28.487 C164.321,28.487 164.17,28.4037 163.972,28.237 C163.878,28.1537 163.805,28.112 163.753,28.112 C163.586,28.112 163.415,28.2422 163.237,28.5026 C163.123,28.6693 163.066,28.8151 163.066,28.9401 L163.066,31.2057 C163.066,31.5495 163.154,31.763 163.331,31.8464 C163.456,31.9089 163.649,31.9453 163.909,31.9557 L163.909,32.112 L161.503,32.112 L161.503,31.9557 C161.857,31.8932 162.071,31.8099 162.144,31.7057 C162.196,31.6224 162.222,31.4766 162.222,31.2682 L162.222,28.7526 C162.222,28.388 162.139,28.1901 161.972,28.1589 C161.941,28.1485 161.909,28.1432 161.878,28.1432 C161.764,28.1432 161.649,28.1589 161.534,28.1901 L161.534,28.0339 C162.066,27.8672 162.555,27.6953 163.003,27.5182 L163.066,27.5339 L163.066,28.4245 C163.409,27.9453 163.701,27.6589 163.941,27.5651 C164.045,27.5339 164.149,27.5182 164.253,27.5182 C164.566,27.5182 164.748,27.6485 164.8,27.9089 C164.8,27.9505 164.8,27.9974 164.8,28.0495 C164.769,28.3203 164.644,28.4662 164.425,28.487 M164.55,28.1901 L164.55,28.0182 C164.977,27.8932 165.456,27.7266 165.987,27.5182 L166.05,27.5339 L166.05,28.2995 C166.477,27.7787 166.956,27.5182 167.487,27.5182 C168.05,27.5182 168.493,27.7787 168.816,28.2995 C169.045,28.6849 169.159,29.1328 169.159,29.6432 C169.159,30.4557 168.909,31.1172 168.409,31.6276 C168.024,32.013 167.576,32.2057 167.066,32.2057 C166.732,32.2057 166.441,32.1068 166.191,31.9089 C166.139,31.8776 166.092,31.8412 166.05,31.7995 L166.05,33.362 C166.05,33.7057 166.118,33.9141 166.253,33.987 C166.378,34.0599 166.602,34.0964 166.925,34.0964 L166.925,34.2839 L164.503,34.2839 L164.503,34.112 C164.857,34.0807 165.071,33.9974 165.144,33.862 C165.185,33.7682 165.206,33.6224 165.206,33.4245 L165.206,28.737 C165.206,28.4453 165.154,28.2735 165.05,28.2214 C164.987,28.1901 164.904,28.1745 164.8,28.1745 C164.685,28.1745 164.602,28.1797 164.55,28.1901 M166.05,28.7839 L166.05,31.2526 C166.05,31.4297 166.196,31.5964 166.487,31.7526 C166.696,31.8568 166.894,31.9089 167.081,31.9089 C167.54,31.9089 167.878,31.6537 168.097,31.1432 C168.232,30.8203 168.3,30.4557 168.3,30.0495 C168.3,29.2266 168.092,28.6537 167.675,28.3307 C167.498,28.1849 167.295,28.112 167.066,28.112 C166.764,28.112 166.493,28.2214 166.253,28.4401 C166.128,28.5547 166.06,28.6693 166.05,28.7839 M170.378,29.3464 C170.42,30.5235 170.805,31.2162 171.534,31.4245 C171.659,31.4662 171.795,31.487 171.941,31.487 C172.43,31.487 172.847,31.2787 173.191,30.862 C173.284,30.7474 173.383,30.612 173.487,30.4557 L173.644,30.5182 C173.279,31.4766 172.706,32.0287 171.925,32.1745 C171.79,32.1953 171.659,32.2057 171.534,32.2057 C170.795,32.2057 170.264,31.8932 169.941,31.2682 C169.753,30.8932 169.659,30.461 169.659,29.9714 C169.659,29.086 169.935,28.4141 170.487,27.9557 C170.852,27.6641 171.274,27.5182 171.753,27.5182 C172.67,27.5182 173.222,28.0391 173.409,29.0807 C173.43,29.1745 173.446,29.263 173.456,29.3464 L170.378,29.3464 M170.394,29.0495 L172.441,29.0495 C172.347,28.4766 172.18,28.1224 171.941,27.987 C171.816,27.9245 171.654,27.8932 171.456,27.8932 C170.862,27.8932 170.508,28.2682 170.394,29.0182 C170.394,29.0287 170.394,29.0391 170.394,29.0495 M174.003,31.5339 C174.003,31.3985 174.081,31.2526 174.237,31.0964 C174.331,31.0026 174.55,30.7995 174.894,30.487 C174.394,30.2266 174.097,29.8985 174.003,29.5026 C173.982,29.388 173.972,29.2682 173.972,29.1432 C173.972,28.612 174.185,28.1849 174.612,27.862 C174.915,27.6328 175.258,27.5182 175.644,27.5182 C175.894,27.5182 176.201,27.586 176.566,27.7214 C176.805,27.8047 177.019,27.8464 177.206,27.8464 L177.972,27.8464 L177.972,28.2214 L177.144,28.2214 C177.269,28.513 177.331,28.7943 177.331,29.0651 C177.331,29.638 177.107,30.0703 176.659,30.362 C176.389,30.5391 176.097,30.6276 175.784,30.6276 C175.691,30.6276 175.498,30.6068 175.206,30.5651 C175.008,30.6276 174.842,30.7682 174.706,30.987 C174.644,31.0703 174.612,31.1432 174.612,31.2057 C174.612,31.362 174.862,31.4505 175.362,31.4714 C175.373,31.4714 175.383,31.4714 175.394,31.4714 L176.675,31.5339 C177.227,31.5443 177.597,31.7474 177.784,32.1432 C177.857,32.2787 177.894,32.4297 177.894,32.5964 C177.894,33.0964 177.581,33.5235 176.956,33.8776 C176.446,34.1485 175.889,34.2839 175.284,34.2839 C174.659,34.2839 174.175,34.1328 173.831,33.8307 C173.654,33.6641 173.566,33.487 173.566,33.2995 C173.566,33.0078 173.779,32.6797 174.206,32.3151 C174.31,32.2318 174.42,32.1432 174.534,32.0495 C174.232,31.9141 174.06,31.7787 174.019,31.6432 C174.008,31.612 174.003,31.5755 174.003,31.5339 M174.753,32.0807 C174.451,32.4557 174.29,32.7162 174.269,32.862 C174.258,32.9037 174.253,32.9453 174.253,32.987 C174.253,33.2891 174.477,33.5078 174.925,33.6432 C175.154,33.7162 175.42,33.7526 175.722,33.7526 C176.555,33.7526 177.123,33.5703 177.425,33.2057 C177.55,33.0495 177.612,32.888 177.612,32.7214 C177.612,32.4714 177.446,32.3151 177.112,32.2526 C176.925,32.2214 176.675,32.2057 176.362,32.2057 C175.696,32.2057 175.159,32.1641 174.753,32.0807 M176.566,29.4714 C176.566,29.0443 176.477,28.6641 176.3,28.3307 C176.102,27.9974 175.847,27.8255 175.534,27.8151 C175.159,27.8151 174.925,28.013 174.831,28.4089 C174.81,28.513 174.8,28.6276 174.8,28.7526 C174.8,29.5547 175.024,30.0651 175.472,30.2839 C175.586,30.3464 175.701,30.3776 175.816,30.3776 C176.18,30.3776 176.415,30.1953 176.519,29.8307 C176.55,29.7162 176.566,29.5964 176.566,29.4714 M179.003,31.5339 C179.003,31.3985 179.081,31.2526 179.237,31.0964 C179.331,31.0026 179.55,30.7995 179.894,30.487 C179.394,30.2266 179.097,29.8985 179.003,29.5026 C178.982,29.388 178.972,29.2682 178.972,29.1432 C178.972,28.612 179.185,28.1849 179.612,27.862 C179.915,27.6328 180.258,27.5182 180.644,27.5182 C180.894,27.5182 181.201,27.586 181.566,27.7214 C181.805,27.8047 182.019,27.8464 182.206,27.8464 L182.972,27.8464 L182.972,28.2214 L182.144,28.2214 C182.269,28.513 182.331,28.7943 182.331,29.0651 C182.331,29.638 182.107,30.0703 181.659,30.362 C181.389,30.5391 181.097,30.6276 180.784,30.6276 C180.691,30.6276 180.498,30.6068 180.206,30.5651 C180.008,30.6276 179.842,30.7682 179.706,30.987 C179.644,31.0703 179.612,31.1432 179.612,31.2057 C179.612,31.362 179.862,31.4505 180.362,31.4714 C180.373,31.4714 180.383,31.4714 180.394,31.4714 L181.675,31.5339 C182.227,31.5443 182.597,31.7474 182.784,32.1432 C182.857,32.2787 182.894,32.4297 182.894,32.5964 C182.894,33.0964 182.581,33.5235 181.956,33.8776 C181.446,34.1485 180.889,34.2839 180.284,34.2839 C179.659,34.2839 179.175,34.1328 178.831,33.8307 C178.654,33.6641 178.566,33.487 178.566,33.2995 C178.566,33.0078 178.779,32.6797 179.206,32.3151 C179.31,32.2318 179.42,32.1432 179.534,32.0495 C179.232,31.9141 179.06,31.7787 179.019,31.6432 C179.008,31.612 179.003,31.5755 179.003,31.5339 M179.753,32.0807 C179.451,32.4557 179.29,32.7162 179.269,32.862 C179.258,32.9037 179.253,32.9453 179.253,32.987 C179.253,33.2891 179.477,33.5078 179.925,33.6432 C180.154,33.7162 180.42,33.7526 180.722,33.7526 C181.555,33.7526 182.123,33.5703 182.425,33.2057 C182.55,33.0495 182.612,32.888 182.612,32.7214 C182.612,32.4714 182.446,32.3151 182.112,32.2526 C181.925,32.2214 181.675,32.2057 181.362,32.2057 C180.696,32.2057 180.159,32.1641 179.753,32.0807 M181.566,29.4714 C181.566,29.0443 181.477,28.6641 181.3,28.3307 C181.102,27.9974 180.847,27.8255 180.534,27.8151 C180.159,27.8151 179.925,28.013 179.831,28.4089 C179.81,28.513 179.8,28.6276 179.8,28.7526 C179.8,29.5547 180.024,30.0651 180.472,30.2839 C180.586,30.3464 180.701,30.3776 180.816,30.3776 C181.18,30.3776 181.415,30.1953 181.519,29.8307 C181.55,29.7162 181.566,29.5964 181.566,29.4714 M184.034,28.1901 C183.878,28.1901 183.737,28.2005 183.612,28.2214 L183.612,28.0651 C184.081,27.9297 184.597,27.7474 185.159,27.5182 L185.191,27.5495 L185.191,31.0964 C185.191,31.4818 185.248,31.7214 185.362,31.8151 C185.456,31.888 185.649,31.9349 185.941,31.9557 L185.941,32.112 L183.566,32.112 L183.566,31.9557 C183.93,31.9349 184.159,31.8672 184.253,31.7526 C184.326,31.638 184.362,31.4193 184.362,31.0964 L184.362,28.7682 C184.362,28.4141 184.279,28.2214 184.112,28.1901 C184.081,28.1901 184.055,28.1901 184.034,28.1901 M184.691,25.2839 C184.909,25.2839 185.066,25.3828 185.159,25.5807 C185.191,25.6537 185.206,25.7266 185.206,25.7995 C185.206,26.0182 185.102,26.1745 184.894,26.2682 C184.821,26.2891 184.753,26.2995 184.691,26.2995 C184.472,26.2995 184.316,26.2005 184.222,26.0026 C184.201,25.9297 184.191,25.862 184.191,25.7995 C184.191,25.5807 184.284,25.4245 184.472,25.3307 C184.545,25.2995 184.618,25.2839 184.691,25.2839 M188.862,27.5182 C189.602,27.5182 190.185,27.7891 190.612,28.3307 C190.915,28.737 191.066,29.2162 191.066,29.7682 C191.066,30.5495 190.81,31.1745 190.3,31.6432 C189.883,32.0182 189.399,32.2057 188.847,32.2057 C188.139,32.2057 187.576,31.9349 187.159,31.3932 C186.826,30.9557 186.659,30.4401 186.659,29.8464 C186.659,29.0339 186.935,28.4089 187.487,27.9714 C187.873,27.6693 188.331,27.5182 188.862,27.5182 M187.566,29.362 C187.566,30.2682 187.753,30.961 188.128,31.4401 C188.368,31.7526 188.649,31.9089 188.972,31.9089 C189.493,31.9089 189.852,31.612 190.05,31.0182 C190.133,30.7578 190.175,30.461 190.175,30.1276 C190.175,29.2422 189.961,28.586 189.534,28.1589 C189.305,27.9297 189.04,27.8151 188.737,27.8151 C188.269,27.8151 187.93,28.0547 187.722,28.5339 C187.618,28.7735 187.566,29.0495 187.566,29.362 M197.003,27.612 L197.003,27.9089 L195.987,27.9089 L195.987,30.7682 C195.987,31.3099 196.123,31.6068 196.394,31.6589 C196.425,31.6693 196.461,31.6745 196.503,31.6745 C196.711,31.6641 196.915,31.5443 197.112,31.3151 L197.237,31.4401 C196.915,31.9505 196.514,32.2057 196.034,32.2057 C195.451,32.1953 195.154,31.7735 195.144,30.9401 L195.144,27.9089 L194.612,27.9089 C194.592,27.888 194.581,27.8672 194.581,27.8464 C194.581,27.8047 194.623,27.763 194.706,27.7214 C194.987,27.5339 195.321,27.1693 195.706,26.6276 C195.717,26.6172 195.722,26.612 195.722,26.612 C195.826,26.4557 195.894,26.362 195.925,26.3307 C195.967,26.3412 195.987,26.3828 195.987,26.4557 L195.987,27.612 L197.003,27.612 M200.753,29.0182 C200.545,28.3932 200.378,28.0235 200.253,27.9089 C200.159,27.836 200.029,27.7891 199.862,27.7682 L199.862,27.612 L201.894,27.612 L201.894,27.7682 C201.56,27.8099 201.373,27.8828 201.331,27.987 C201.321,28.0287 201.316,28.0755 201.316,28.1276 C201.316,28.211 201.368,28.3985 201.472,28.6901 L201.487,28.7057 L201.487,28.7214 L202.331,30.9557 L203.222,28.737 C203.336,28.4557 203.394,28.237 203.394,28.0807 C203.394,27.9557 203.316,27.8672 203.159,27.8151 C203.097,27.7943 203.029,27.7787 202.956,27.7682 L202.956,27.612 L204.191,27.612 L204.191,27.7682 C204.066,27.8099 203.972,27.8828 203.909,27.987 C203.878,28.0599 203.831,28.1641 203.769,28.2995 L202.394,31.7682 C202.258,32.0807 202.165,32.2422 202.112,32.2526 C202.071,32.2526 202.003,32.1432 201.909,31.9245 C201.899,31.8932 201.889,31.8568 201.878,31.8151 L200.972,29.4557 L199.847,31.862 C199.732,32.112 199.649,32.2422 199.597,32.2526 C199.545,32.2526 199.461,32.112 199.347,31.8307 C199.336,31.8203 199.331,31.8151 199.331,31.8151 L197.987,28.3932 C197.852,28.0495 197.727,27.8516 197.612,27.7995 C197.56,27.7787 197.508,27.7682 197.456,27.7682 L197.456,27.612 L199.253,27.612 L199.253,27.7682 C198.982,27.7995 198.836,27.8776 198.816,28.0026 C198.805,28.0339 198.8,28.0651 198.8,28.0964 C198.8,28.1901 198.821,28.2891 198.862,28.3932 L199.847,31.0026 L200.753,29.0182 M206.862,27.5182 C207.602,27.5182 208.185,27.7891 208.612,28.3307 C208.915,28.737 209.066,29.2162 209.066,29.7682 C209.066,30.5495 208.81,31.1745 208.3,31.6432 C207.883,32.0182 207.399,32.2057 206.847,32.2057 C206.139,32.2057 205.576,31.9349 205.159,31.3932 C204.826,30.9557 204.659,30.4401 204.659,29.8464 C204.659,29.0339 204.935,28.4089 205.487,27.9714 C205.873,27.6693 206.331,27.5182 206.862,27.5182 M205.566,29.362 C205.566,30.2682 205.753,30.961 206.128,31.4401 C206.368,31.7526 206.649,31.9089 206.972,31.9089 C207.493,31.9089 207.852,31.612 208.05,31.0182 C208.133,30.7578 208.175,30.461 208.175,30.1276 C208.175,29.2422 207.961,28.586 207.534,28.1589 C207.305,27.9297 207.04,27.8151 206.737,27.8151 C206.269,27.8151 205.93,28.0547 205.722,28.5339 C205.618,28.7735 205.566,29.0495 205.566,29.362 M214.862,27.5182 C215.602,27.5182 216.185,27.7891 216.612,28.3307 C216.915,28.737 217.066,29.2162 217.066,29.7682 C217.066,30.5495 216.81,31.1745 216.3,31.6432 C215.883,32.0182 215.399,32.2057 214.847,32.2057 C214.139,32.2057 213.576,31.9349 213.159,31.3932 C212.826,30.9557 212.659,30.4401 212.659,29.8464 C212.659,29.0339 212.935,28.4089 213.487,27.9714 C213.873,27.6693 214.331,27.5182 214.862,27.5182 M213.566,29.362 C213.566,30.2682 213.753,30.961 214.128,31.4401 C214.368,31.7526 214.649,31.9089 214.972,31.9089 C215.493,31.9089 215.852,31.612 216.05,31.0182 C216.133,30.7578 216.175,30.461 216.175,30.1276 C216.175,29.2422 215.961,28.586 215.534,28.1589 C215.305,27.9297 215.04,27.8151 214.737,27.8151 C214.269,27.8151 213.93,28.0547 213.722,28.5339 C213.618,28.7735 213.566,29.0495 213.566,29.362 M217.659,29.987 C217.659,29.1432 217.946,28.4818 218.519,28.0026 C218.915,27.6797 219.357,27.5182 219.847,27.5182 C220.399,27.5182 220.826,27.6693 221.128,27.9714 C221.305,28.1485 221.394,28.3412 221.394,28.5495 C221.394,28.7266 221.3,28.8516 221.112,28.9245 C221.04,28.9557 220.972,28.9714 220.909,28.9714 C220.701,28.9714 220.55,28.836 220.456,28.5651 C220.446,28.5443 220.441,28.5235 220.441,28.5026 L220.378,28.2839 C220.316,28.0339 220.201,27.888 220.034,27.8464 C219.961,27.8255 219.878,27.8151 219.784,27.8151 C219.284,27.8151 218.904,28.0547 218.644,28.5339 C218.498,28.8255 218.425,29.1641 218.425,29.5495 C218.425,30.2787 218.649,30.8255 219.097,31.1901 C219.357,31.388 219.649,31.487 219.972,31.487 C220.389,31.487 220.748,31.3203 221.05,30.987 C221.154,30.862 221.269,30.7162 221.394,30.5495 L221.534,30.6432 C221.159,31.362 220.743,31.8307 220.284,32.0495 C220.045,32.1537 219.805,32.2057 219.566,32.2057 C218.92,32.2057 218.415,31.9401 218.05,31.4089 C217.79,31.0026 217.659,30.5287 217.659,29.987 M224.003,27.612 L224.003,27.9089 L222.987,27.9089 L222.987,30.7682 C222.987,31.3099 223.123,31.6068 223.394,31.6589 C223.425,31.6693 223.461,31.6745 223.503,31.6745 C223.711,31.6641 223.915,31.5443 224.112,31.3151 L224.237,31.4401 C223.915,31.9505 223.514,32.2057 223.034,32.2057 C222.451,32.1953 222.154,31.7735 222.144,30.9401 L222.144,27.9089 L221.612,27.9089 C221.592,27.888 221.581,27.8672 221.581,27.8464 C221.581,27.8047 221.623,27.763 221.706,27.7214 C221.987,27.5339 222.321,27.1693 222.706,26.6276 C222.717,26.6172 222.722,26.612 222.722,26.612 C222.826,26.4557 222.894,26.362 222.925,26.3307 C222.967,26.3412 222.987,26.3828 222.987,26.4557 L222.987,27.612 L224.003,27.612 M224.659,31.1432 C224.659,30.6328 224.977,30.2005 225.612,29.8464 C225.8,29.7526 226.3,29.5391 227.112,29.2057 C227.133,29.2057 227.149,29.2005 227.159,29.1901 L227.159,28.5807 C227.107,28.0599 226.852,27.7839 226.394,27.7526 C226.081,27.7526 225.862,27.8516 225.737,28.0495 C225.696,28.1224 225.675,28.1849 225.675,28.237 C225.675,28.2995 225.685,28.3828 225.706,28.487 C225.717,28.5599 225.722,28.612 225.722,28.6432 C225.722,28.8203 225.633,28.9453 225.456,29.0182 C225.394,29.0495 225.336,29.0651 225.284,29.0651 C225.097,29.0651 224.967,28.9766 224.894,28.7995 C224.862,28.7474 224.847,28.6901 224.847,28.6276 C224.847,28.263 225.066,27.9662 225.503,27.737 C225.805,27.5912 226.149,27.5182 226.534,27.5182 C227.253,27.5182 227.696,27.7735 227.862,28.2839 C227.935,28.5026 227.972,28.7787 227.972,29.112 L227.972,31.0495 C227.972,31.3828 228.034,31.5703 228.159,31.612 C228.201,31.6224 228.237,31.6276 228.269,31.6276 C228.415,31.6172 228.56,31.5547 228.706,31.4401 L228.706,31.6901 C228.435,32.0026 228.185,32.1745 227.956,32.2057 C227.904,32.2057 227.852,32.2057 227.8,32.2057 C227.487,32.2057 227.29,32.0495 227.206,31.737 C227.185,31.6537 227.175,31.5599 227.175,31.4557 C226.581,31.9349 226.092,32.1849 225.706,32.2057 C225.279,32.2057 224.972,32.0339 224.784,31.6901 C224.701,31.5235 224.659,31.3412 224.659,31.1432 M227.159,30.862 L227.159,29.4245 C226.336,29.7266 225.831,30.0339 225.644,30.3464 C225.571,30.4922 225.534,30.6485 225.534,30.8151 C225.534,31.211 225.68,31.461 225.972,31.5651 C226.045,31.5964 226.112,31.612 226.175,31.612 C226.394,31.6016 226.633,31.5235 226.894,31.3776 C227.04,31.2943 227.123,31.1901 227.144,31.0651 C227.154,31.0026 227.159,30.9349 227.159,30.862 M233.034,27.612 L233.034,27.7682 C232.868,27.7891 232.743,27.8568 232.659,27.9714 C232.586,28.0755 232.498,28.2682 232.394,28.5495 L231.112,31.7526 C230.977,32.0755 230.883,32.2422 230.831,32.2526 C230.758,32.2526 230.675,32.1068 230.581,31.8151 C230.571,31.8047 230.566,31.7943 230.566,31.7839 L229.362,28.9089 C229.112,28.3151 228.925,27.9662 228.8,27.862 C228.717,27.7995 228.602,27.7682 228.456,27.7682 L228.456,27.612 L230.425,27.612 L230.425,27.7682 C230.144,27.7891 229.993,27.862 229.972,27.987 C229.961,28.0078 229.956,28.0287 229.956,28.0495 C229.956,28.1641 229.987,28.2839 230.05,28.4089 L231.066,30.9714 L232.05,28.3776 C232.092,28.2839 232.112,28.1849 232.112,28.0807 C232.112,27.9037 231.967,27.7995 231.675,27.7682 C231.665,27.7682 231.654,27.7682 231.644,27.7682 L231.644,27.612 L233.034,27.612 M234.378,29.3464 C234.42,30.5235 234.805,31.2162 235.534,31.4245 C235.659,31.4662 235.795,31.487 235.941,31.487 C236.43,31.487 236.847,31.2787 237.191,30.862 C237.284,30.7474 237.383,30.612 237.487,30.4557 L237.644,30.5182 C237.279,31.4766 236.706,32.0287 235.925,32.1745 C235.79,32.1953 235.659,32.2057 235.534,32.2057 C234.795,32.2057 234.264,31.8932 233.941,31.2682 C233.753,30.8932 233.659,30.461 233.659,29.9714 C233.659,29.086 233.935,28.4141 234.487,27.9557 C234.852,27.6641 235.274,27.5182 235.753,27.5182 C236.67,27.5182 237.222,28.0391 237.409,29.0807 C237.43,29.1745 237.446,29.263 237.456,29.3464 L234.378,29.3464 M234.394,29.0495 L236.441,29.0495 C236.347,28.4766 236.18,28.1224 235.941,27.987 C235.816,27.9245 235.654,27.8932 235.456,27.8932 C234.862,27.8932 234.508,28.2682 234.394,29.0182 C234.394,29.0287 234.394,29.0391 234.394,29.0495 M240.081,27.7214 C240.102,27.711 240.159,27.6745 240.253,27.612 L240.362,27.612 L240.394,28.9714 L240.253,28.9714 C240.086,28.3255 239.847,27.9401 239.534,27.8151 C239.42,27.763 239.29,27.737 239.144,27.737 C238.79,27.737 238.55,27.8776 238.425,28.1589 C238.394,28.2422 238.378,28.3307 238.378,28.4245 C238.389,28.7057 238.534,28.9297 238.816,29.0964 L239.894,29.737 C240.373,30.0287 240.644,30.3464 240.706,30.6901 C240.717,30.763 240.722,30.8464 240.722,30.9401 C240.722,31.3568 240.54,31.6953 240.175,31.9557 C239.915,32.1224 239.628,32.2057 239.316,32.2057 C239.18,32.2057 238.873,32.1589 238.394,32.0651 C238.279,32.0443 238.191,32.0339 238.128,32.0339 C238.024,32.0443 237.946,32.086 237.894,32.1589 L237.769,32.1589 L237.769,30.5964 L237.925,30.5964 C238.029,31.0651 238.159,31.3932 238.316,31.5807 C238.534,31.8516 238.826,31.987 239.191,31.987 C239.618,31.987 239.883,31.8307 239.987,31.5182 C240.019,31.4453 240.034,31.362 240.034,31.2682 C240.024,30.9662 239.847,30.7162 239.503,30.5182 L238.925,30.1901 C238.3,29.836 237.93,29.4818 237.816,29.1276 C237.774,29.0026 237.753,28.8776 237.753,28.7526 C237.753,28.2839 237.956,27.9349 238.362,27.7057 C238.592,27.5807 238.842,27.5182 239.112,27.5182 C239.331,27.5182 239.592,27.5703 239.894,27.6745 C239.977,27.7057 240.04,27.7214 240.081,27.7214"/>
</svg>
