<?xml version="1.0" encoding="UTF-8" standalone="no"?>
<svg width="595.44px" height="841.68px" viewBox="0 0 595.44 841.68"
 xmlns="http://www.w3.org/2000/svg" xmlns:xlink="http://www.w3.org/1999/xlink" version="1.2" baseProfile="tiny">
<title>Guitar Scales and Arpeggios</title>
<desc>Generated by MuseScore 2.1.0</desc>
<polyline class="StaffLines" fill="none" stroke="#000000" stroke-width="0.40" stroke-linejoin="bevel" points="28.08,62.856 567.36,62.856"/>
<polyline class="StaffLines" fill="none" stroke="#000000" stroke-width="0.40" stroke-linejoin="bevel" points="28.08,67.824 567.36,67.824"/>
<polyline class="StaffLines" fill="none" stroke="#000000" stroke-width="0.40" stroke-linejoin="bevel" points="28.08,72.792 567.36,72.792"/>
<polyline class="StaffLines" fill="none" stroke="#000000" stroke-width="0.40" stroke-linejoin="bevel" points="28.08,77.76 567.36,77.76"/>
<polyline class="StaffLines" fill="none" stroke="#000000" stroke-width="0.40" stroke-linejoin="bevel" points="28.08,82.728 567.36,82.728"/>
<polyline class="StaffLines" fill="none" stroke="#000000" stroke-width="0.40" stroke-linejoin="bevel" points="28.08,115.02 567.36,115.02"/>
<polyline class="StaffLines" fill="none" stroke="#000000" stroke-width="0.40" stroke-linejoin="bevel" points="28.08,122.472 567.36,122.472"/>
<polyline class="StaffLines" fill="none" stroke="#000000" stroke-width="0.40" stroke-linejoin="bevel" points="28.08,129.924 567.36,129.924"/>
<polyline class="StaffLines" fill="none" stroke="#000000" stroke-width="0.40" stroke-linejoin="bevel" points="28.08,137.376 567.36,137.376"/>
<polyline class="StaffLines" fill="none" stroke="#000000" stroke-width="0.40" stroke-linejoin="bevel" points="28.08,144.828 567.36,144.828"/>
<polyline class="StaffLines" fill="none" stroke="#000000" stroke-width="0.40" stroke-linejoin="bevel" points="28.08,152.28 567.36,152.28"/>
<polyline class="BarLine" fill="none" stroke="#000000" stroke-width="0.79" stroke-linejoin="bevel" points="28.4774,62.856 28.4774,152.28"/>
<polyline class="BarLine" fill="none" stroke="#000000" stroke-width="0.79" stroke-linejoin="bevel" points="562.491,115.02 562.491,152.28"/>
<polyline class="BarLine" fill="none" stroke="#000000" stroke-width="2.48" stroke-linejoin="bevel" points="566.118,115.02 566.118,152.28"/>
<polyline class="BarLine" fill="none" stroke="#000000" stroke-width="0.79" stroke-linejoin="bevel" points="562.491,62.856 562.491,82.728"/>
<polyline class="BarLine" fill="none" stroke="#000000" stroke-width="2.48" stroke-linejoin="bevel" points="566.118,62.856 566.118,82.728"/>
<path class="Accidental" fill="#660099" transform="matrix(0.9936,0,0,0.9936,311.397,77.76)" d="M4.3125,6.23438 C4.3125,6.48438 4.1901,6.60938 3.94531,6.60938 C3.70052,6.60938 3.57813,6.48438 3.57813,6.23438 L3.57813,3.34375 L1.92188,3.96875 L1.92188,7.125 C1.92188,7.375 1.79688,7.5 1.54688,7.5 C1.29688,7.5 1.17188,7.375 1.17188,7.125 L1.17188,4.21875 L0.546875,4.45313 C0.536458,4.46354 0.484375,4.46875 0.390625,4.46875 C0.286458,4.46875 0.195313,4.42969 0.117188,4.35156 C0.0390625,4.27344 0,4.18229 0,4.07813 L0,2.875 C0,2.67708 0.0833333,2.55208 0.25,2.5 L1.17188,2.1875 L1.17188,-1.01563 L0.546875,-0.796875 C0.536458,-0.786458 0.484375,-0.78125 0.390625,-0.78125 C0.286458,-0.78125 0.195313,-0.820313 0.117188,-0.898438 C0.0390625,-0.976563 0,-1.06771 0,-1.17188 L0,-2.39063 C0,-2.56771 0.0833333,-2.68229 0.25,-2.73438 L1.17188,-3.09375 L1.17188,-6.23438 C1.17188,-6.48438 1.29688,-6.60938 1.54688,-6.60938 C1.79688,-6.60938 1.92188,-6.48438 1.92188,-6.23438 L1.92188,-3.34375 L3.57813,-3.96875 L3.57813,-7.125 C3.57813,-7.375 3.70052,-7.5 3.94531,-7.5 C4.1901,-7.5 4.3125,-7.375 4.3125,-7.125 L4.3125,-4.21875 L4.96875,-4.45313 C4.97917,-4.46354 5.02083,-4.46875 5.09375,-4.46875 C5.1875,-4.46875 5.28646,-4.43229 5.39063,-4.35938 C5.47396,-4.27604 5.51563,-4.18229 5.51563,-4.07813 L5.51563,-2.875 C5.51563,-2.6875 5.42188,-2.5625 5.23438,-2.5 L4.3125,-2.1875 L4.3125,1.01563 L4.96875,0.796875 C4.97917,0.786458 5.02083,0.78125 5.09375,0.78125 C5.1875,0.78125 5.28646,0.822917 5.39063,0.90625 C5.47396,0.979167 5.51563,1.06771 5.51563,1.17188 L5.51563,2.39063 C5.51563,2.55729 5.42188,2.67188 5.23438,2.73438 L4.3125,3.09375 L4.3125,6.23438 M3.57813,-1.89063 L1.92188,-1.3125 L1.92188,1.89063 L3.57813,1.3125 L3.57813,-1.89063 "/>
<path class="Accidental" fill="#660099" transform="matrix(0.9936,0,0,0.9936,247.152,77.76)" d="M4.3125,6.23438 C4.3125,6.48438 4.1901,6.60938 3.94531,6.60938 C3.70052,6.60938 3.57813,6.48438 3.57813,6.23438 L3.57813,3.34375 L1.92188,3.96875 L1.92188,7.125 C1.92188,7.375 1.79688,7.5 1.54688,7.5 C1.29688,7.5 1.17188,7.375 1.17188,7.125 L1.17188,4.21875 L0.546875,4.45313 C0.536458,4.46354 0.484375,4.46875 0.390625,4.46875 C0.286458,4.46875 0.195313,4.42969 0.117188,4.35156 C0.0390625,4.27344 0,4.18229 0,4.07813 L0,2.875 C0,2.67708 0.0833333,2.55208 0.25,2.5 L1.17188,2.1875 L1.17188,-1.01563 L0.546875,-0.796875 C0.536458,-0.786458 0.484375,-0.78125 0.390625,-0.78125 C0.286458,-0.78125 0.195313,-0.820313 0.117188,-0.898438 C0.0390625,-0.976563 0,-1.06771 0,-1.17188 L0,-2.39063 C0,-2.56771 0.0833333,-2.68229 0.25,-2.73438 L1.17188,-3.09375 L1.17188,-6.23438 C1.17188,-6.48438 1.29688,-6.60938 1.54688,-6.60938 C1.79688,-6.60938 1.92188,-6.48438 1.92188,-6.23438 L1.92188,-3.34375 L3.57813,-3.96875 L3.57813,-7.125 C3.57813,-7.375 3.70052,-7.5 3.94531,-7.5 C4.1901,-7.5 4.3125,-7.375 4.3125,-7.125 L4.3125,-4.21875 L4.96875,-4.45313 C4.97917,-4.46354 5.02083,-4.46875 5.09375,-4.46875 C5.1875,-4.46875 5.28646,-4.43229 5.39063,-4.35938 C5.47396,-4.27604 5.51563,-4.18229 5.51563,-4.07813 L5.51563,-2.875 C5.51563,-2.6875 5.42188,-2.5625 5.23438,-2.5 L4.3125,-2.1875 L4.3125,1.01563 L4.96875,0.796875 C4.97917,0.786458 5.02083,0.78125 5.09375,0.78125 C5.1875,0.78125 5.28646,0.822917 5.39063,0.90625 C5.47396,0.979167 5.51563,1.06771 5.51563,1.17188 L5.51563,2.39063 C5.51563,2.55729 5.42188,2.67188 5.23438,2.73438 L4.3125,3.09375 L4.3125,6.23438 M3.57813,-1.89063 L1.92188,-1.3125 L1.92188,1.89063 L3.57813,1.3125 L3.57813,-1.89063 "/>
<polyline class="LedgerLine" fill="none" stroke="#000000" stroke-width="0.79" stroke-linecap="square" stroke-linejoin="bevel" points="509.028,87.696 518.908,87.696"/>
<polyline class="LedgerLine" fill="none" stroke="#000000" stroke-width="0.79" stroke-linecap="square" stroke-linejoin="bevel" points="509.028,92.664 518.908,92.664"/>
<polyline class="LedgerLine" fill="none" stroke="#000000" stroke-width="0.79" stroke-linecap="square" stroke-linejoin="bevel" points="477.085,87.696 486.607,87.696"/>
<polyline class="LedgerLine" fill="none" stroke="#000000" stroke-width="0.79" stroke-linecap="square" stroke-linejoin="bevel" points="444.963,87.696 454.484,87.696"/>
<polyline class="LedgerLine" fill="none" stroke="#000000" stroke-width="0.79" stroke-linecap="square" stroke-linejoin="bevel" points="123.738,87.696 133.259,87.696"/>
<polyline class="LedgerLine" fill="none" stroke="#000000" stroke-width="0.79" stroke-linecap="square" stroke-linejoin="bevel" points="91.615,87.696 101.136,87.696"/>
<polyline class="LedgerLine" fill="none" stroke="#000000" stroke-width="0.79" stroke-linecap="square" stroke-linejoin="bevel" points="59.4925,87.696 69.014,87.696"/>
<polyline class="LedgerLine" fill="none" stroke="#000000" stroke-width="0.79" stroke-linecap="square" stroke-linejoin="bevel" points="59.4925,92.664 69.014,92.664"/>
<polyline class="Stem" fill="none" stroke="#000000" stroke-width="0.65" stroke-linecap="round" stroke-linejoin="bevel" points="517.095,91.9009 517.095,72.792"/>
<polyline class="Stem" fill="none" stroke="#000000" stroke-width="0.65" stroke-linecap="round" stroke-linejoin="bevel" points="484.793,89.2469 484.793,72.792"/>
<polyline class="Stem" fill="none" stroke="#000000" stroke-width="0.65" stroke-linecap="round" stroke-linejoin="bevel" points="452.671,86.7629 452.671,70.308"/>
<polyline class="Stem" fill="none" stroke="#000000" stroke-width="0.65" stroke-linecap="round" stroke-linejoin="bevel" points="420.548,84.2789 420.548,67.824"/>
<polyline class="Stem" fill="none" stroke="#000000" stroke-width="0.65" stroke-linecap="round" stroke-linejoin="bevel" points="388.426,81.7949 388.426,65.34"/>
<polyline class="Stem" fill="none" stroke="#000000" stroke-width="0.65" stroke-linecap="round" stroke-linejoin="bevel" points="356.303,79.3109 356.303,62.856"/>
<polyline class="Stem" fill="none" stroke="#000000" stroke-width="0.65" stroke-linecap="round" stroke-linejoin="bevel" points="324.181,76.8269 324.181,60.993"/>
<polyline class="Stem" fill="none" stroke="#000000" stroke-width="0.65" stroke-linecap="round" stroke-linejoin="bevel" points="292.058,74.3429 292.058,59.13"/>
<polyline class="Stem" fill="none" stroke="#000000" stroke-width="0.65" stroke-linecap="round" stroke-linejoin="bevel" points="259.936,76.8269 259.936,60.993"/>
<polyline class="Stem" fill="none" stroke="#000000" stroke-width="0.65" stroke-linecap="round" stroke-linejoin="bevel" points="227.813,79.3109 227.813,62.856"/>
<polyline class="Stem" fill="none" stroke="#000000" stroke-width="0.65" stroke-linecap="round" stroke-linejoin="bevel" points="195.691,81.7949 195.691,65.34"/>
<polyline class="Stem" fill="none" stroke="#000000" stroke-width="0.65" stroke-linecap="round" stroke-linejoin="bevel" points="163.568,84.2789 163.568,67.824"/>
<polyline class="Stem" fill="none" stroke="#000000" stroke-width="0.65" stroke-linecap="round" stroke-linejoin="bevel" points="131.446,86.7629 131.446,70.308"/>
<polyline class="Stem" fill="none" stroke="#000000" stroke-width="0.65" stroke-linecap="round" stroke-linejoin="bevel" points="99.3232,89.2469 99.3232,72.792"/>
<polyline class="Stem" fill="none" stroke="#000000" stroke-width="0.65" stroke-linecap="round" stroke-linejoin="bevel" points="67.2007,91.7309 67.2007,72.792"/>
<path class="Note" fill="#ffffff" fill-rule="evenodd" d="M511.443,141.102 L517.405,141.102 L517.405,148.554 L511.443,148.554 L511.443,141.102 "/>
<path class="Note" transform="matrix(0.9936,0,0,0.9936,511.94,148.306)" d="M0.390625,-3.09375 C0.390625,-5 0.927083,-6.07813 2,-6.32813 C2.14583,-6.36979 2.30208,-6.39063 2.46875,-6.39063 C3.78125,-6.39063 4.47917,-5.40104 4.5625,-3.42188 C4.5625,-3.28646 4.5625,-3.15625 4.5625,-3.03125 C4.5625,-1.40625 4.15104,-0.385417 3.32813,0.03125 C3.06771,0.145833 2.78125,0.203125 2.46875,0.203125 C1.41667,0.203125 0.760417,-0.442708 0.5,-1.73438 C0.427083,-2.14063 0.390625,-2.59375 0.390625,-3.09375 M2.46875,-5.64063 C1.625,-5.63021 1.20313,-4.77083 1.20313,-3.0625 C1.20313,-1.32292 1.61979,-0.453125 2.45313,-0.453125 C3.16146,-0.453125 3.57813,-1.02604 3.70313,-2.17188 C3.73438,-2.44271 3.75,-2.75 3.75,-3.09375 C3.75,-4.79167 3.32292,-5.64063 2.46875,-5.64063"/>
<path class="Note" fill="#cc00ff" transform="matrix(0.9936,0,0,0.9936,510.519,92.664)" d="M6.3125,-1.3125 C6.3125,-1.53125 6.22917,-1.71875 6.0625,-1.875 C5.88542,-2.04167 5.6875,-2.125 5.46875,-2.125 C5.08333,-2.125 4.29688,-1.73438 3.10938,-0.953125 C1.88021,-0.161458 1.13021,0.40625 0.859375,0.75 C0.713542,0.927083 0.640625,1.11458 0.640625,1.3125 C0.640625,1.53125 0.729167,1.71875 0.90625,1.875 C1.0625,2.04167 1.25521,2.125 1.48438,2.125 C1.85938,2.125 2.65625,1.73438 3.875,0.953125 C5.07292,0.171875 5.8125,-0.395833 6.09375,-0.75 C6.23958,-0.916667 6.3125,-1.10417 6.3125,-1.3125 M5.28125,-2.75 C6.39583,-2.75 6.95313,-2.27083 6.95313,-1.3125 C6.95313,-0.84375 6.81771,-0.296875 6.54688,0.328125 C6.27604,0.942708 5.91146,1.41146 5.45313,1.73438 C4.45313,2.41146 3.19792,2.75 1.6875,2.75 C0.5625,2.75 0,2.27083 0,1.3125 C0,0.885417 0.135417,0.34375 0.40625,-0.3125 C0.666667,-0.9375 1.03125,-1.41146 1.5,-1.73438 C2.51042,-2.41146 3.77083,-2.75 5.28125,-2.75"/>
<path class="Note" fill="#ffffff" fill-rule="evenodd" d="M479.321,141.102 L485.282,141.102 L485.282,148.554 L479.321,148.554 L479.321,141.102 "/>
<path class="Note" transform="matrix(0.9936,0,0,0.9936,479.817,148.306)" d="M0.453125,-4.17188 C0.494792,-5.64063 1.19792,-6.38021 2.5625,-6.39063 C3.28125,-6.39063 3.83333,-6.14583 4.21875,-5.65625 C4.46875,-5.32292 4.59375,-4.93229 4.59375,-4.48438 C4.59375,-3.68229 4.14583,-3.03125 3.25,-2.53125 L2.34375,-2.04688 C1.79167,-1.75521 1.44271,-1.4375 1.29688,-1.09375 C1.24479,-0.989583 1.21354,-0.869792 1.20313,-0.734375 L4.5625,-0.734375 L4.5625,0 L0.3125,0 C0.354167,-0.760417 0.520833,-1.33854 0.8125,-1.73438 C1.07292,-2.05729 1.5,-2.38542 2.09375,-2.71875 L2.92188,-3.1875 C3.49479,-3.52083 3.78646,-3.94271 3.79688,-4.45313 C3.79688,-4.88021 3.61458,-5.21354 3.25,-5.45313 C3.04167,-5.57813 2.80208,-5.64063 2.53125,-5.64063 C1.73958,-5.64063 1.3125,-5.16667 1.25,-4.21875 C1.25,-4.19792 1.25,-4.18229 1.25,-4.17188 L0.453125,-4.17188 "/>
<path class="Note" fill="#ff9ee6" transform="matrix(0.9936,0,0,0.9936,478.575,90.18)" d="M4.39063,-2.75 C5.01563,-2.75 5.54688,-2.58854 5.98438,-2.26563 C6.38021,-1.91146 6.57813,-1.46875 6.57813,-0.9375 C6.57813,-0.0416667 6.11979,0.796875 5.20313,1.57813 C4.26563,2.35938 3.26042,2.75 2.1875,2.75 C1.5625,2.75 1.03646,2.58854 0.609375,2.26563 C0.203125,1.91146 0,1.46875 0,0.9375 C0,0.0416667 0.46875,-0.796875 1.40625,-1.57813 C2.32292,-2.35938 3.31771,-2.75 4.39063,-2.75"/>
<path class="Note" fill="#ffffff" fill-rule="evenodd" d="M447.198,141.102 L453.16,141.102 L453.16,148.554 L447.198,148.554 L447.198,141.102 "/>
<path class="Note" transform="matrix(0.9936,0,0,0.9936,447.695,148.306)" d="M2.4375,-5.64063 C1.75,-5.64063 1.35417,-5.32813 1.25,-4.70313 C1.22917,-4.59896 1.21875,-4.47917 1.21875,-4.34375 L0.421875,-4.34375 C0.442708,-5.59375 1.01563,-6.27083 2.14063,-6.375 C2.23438,-6.38542 2.32813,-6.39063 2.42188,-6.39063 C3.26563,-6.39063 3.84375,-6.10938 4.15625,-5.54688 C4.29167,-5.28646 4.35938,-4.98438 4.35938,-4.64063 C4.35938,-4.00521 4.0625,-3.57292 3.46875,-3.34375 C4.03125,-3.14583 4.375,-2.81771 4.5,-2.35938 C4.54167,-2.19271 4.5625,-2.00521 4.5625,-1.79688 C4.5625,-1.05729 4.27604,-0.505208 3.70313,-0.140625 C3.33854,0.0885417 2.90104,0.203125 2.39063,0.203125 C1.21354,0.203125 0.526042,-0.348958 0.328125,-1.45313 C0.317708,-1.57813 0.302083,-1.71354 0.28125,-1.85938 L1.07813,-1.85938 C1.13021,-1.08854 1.46875,-0.65625 2.09375,-0.5625 C2.19792,-0.541667 2.30729,-0.53125 2.42188,-0.53125 C3.04688,-0.53125 3.45313,-0.765625 3.64063,-1.23438 C3.71354,-1.40104 3.75,-1.58854 3.75,-1.79688 C3.73958,-2.54688 3.29688,-2.92708 2.42188,-2.9375 L2.09375,-2.92188 L1.98438,-2.92188 L1.98438,-3.67188 C2.66146,-3.68229 3.10417,-3.77604 3.3125,-3.95313 C3.47917,-4.09896 3.5625,-4.31771 3.5625,-4.60938 C3.5625,-5.09896 3.34896,-5.41667 2.92188,-5.5625 C2.77604,-5.61458 2.61458,-5.64063 2.4375,-5.64063"/>
<path class="Note" fill="#ed2929" transform="matrix(0.9936,0,0,0.9936,446.453,87.696)" d="M4.39063,-2.75 C5.01563,-2.75 5.54688,-2.58854 5.98438,-2.26563 C6.38021,-1.91146 6.57813,-1.46875 6.57813,-0.9375 C6.57813,-0.0416667 6.11979,0.796875 5.20313,1.57813 C4.26563,2.35938 3.26042,2.75 2.1875,2.75 C1.5625,2.75 1.03646,2.58854 0.609375,2.26563 C0.203125,1.91146 0,1.46875 0,0.9375 C0,0.0416667 0.46875,-0.796875 1.40625,-1.57813 C2.32292,-2.35938 3.31771,-2.75 4.39063,-2.75"/>
<path class="Note" fill="#ffffff" fill-rule="evenodd" d="M415.076,133.65 L421.037,133.65 L421.037,141.102 L415.076,141.102 L415.076,133.65 "/>
<path class="Note" transform="matrix(0.9936,0,0,0.9936,415.572,140.854)" d="M0.390625,-3.09375 C0.390625,-5 0.927083,-6.07813 2,-6.32813 C2.14583,-6.36979 2.30208,-6.39063 2.46875,-6.39063 C3.78125,-6.39063 4.47917,-5.40104 4.5625,-3.42188 C4.5625,-3.28646 4.5625,-3.15625 4.5625,-3.03125 C4.5625,-1.40625 4.15104,-0.385417 3.32813,0.03125 C3.06771,0.145833 2.78125,0.203125 2.46875,0.203125 C1.41667,0.203125 0.760417,-0.442708 0.5,-1.73438 C0.427083,-2.14063 0.390625,-2.59375 0.390625,-3.09375 M2.46875,-5.64063 C1.625,-5.63021 1.20313,-4.77083 1.20313,-3.0625 C1.20313,-1.32292 1.61979,-0.453125 2.45313,-0.453125 C3.16146,-0.453125 3.57813,-1.02604 3.70313,-2.17188 C3.73438,-2.44271 3.75,-2.75 3.75,-3.09375 C3.75,-4.79167 3.32292,-5.64063 2.46875,-5.64063"/>
<path class="Note" fill="#78c7c7" transform="matrix(0.9936,0,0,0.9936,414.33,85.212)" d="M4.39063,-2.75 C5.01563,-2.75 5.54688,-2.58854 5.98438,-2.26563 C6.38021,-1.91146 6.57813,-1.46875 6.57813,-0.9375 C6.57813,-0.0416667 6.11979,0.796875 5.20313,1.57813 C4.26563,2.35938 3.26042,2.75 2.1875,2.75 C1.5625,2.75 1.03646,2.58854 0.609375,2.26563 C0.203125,1.91146 0,1.46875 0,0.9375 C0,0.0416667 0.46875,-0.796875 1.40625,-1.57813 C2.32292,-2.35938 3.31771,-2.75 4.39063,-2.75"/>
<path class="Note" fill="#ffffff" fill-rule="evenodd" d="M382.953,133.65 L388.915,133.65 L388.915,141.102 L382.953,141.102 L382.953,133.65 "/>
<path class="Note" transform="matrix(0.9936,0,0,0.9936,383.45,140.854)" d="M0.453125,-4.17188 C0.494792,-5.64063 1.19792,-6.38021 2.5625,-6.39063 C3.28125,-6.39063 3.83333,-6.14583 4.21875,-5.65625 C4.46875,-5.32292 4.59375,-4.93229 4.59375,-4.48438 C4.59375,-3.68229 4.14583,-3.03125 3.25,-2.53125 L2.34375,-2.04688 C1.79167,-1.75521 1.44271,-1.4375 1.29688,-1.09375 C1.24479,-0.989583 1.21354,-0.869792 1.20313,-0.734375 L4.5625,-0.734375 L4.5625,0 L0.3125,0 C0.354167,-0.760417 0.520833,-1.33854 0.8125,-1.73438 C1.07292,-2.05729 1.5,-2.38542 2.09375,-2.71875 L2.92188,-3.1875 C3.49479,-3.52083 3.78646,-3.94271 3.79688,-4.45313 C3.79688,-4.88021 3.61458,-5.21354 3.25,-5.45313 C3.04167,-5.57813 2.80208,-5.64063 2.53125,-5.64063 C1.73958,-5.64063 1.3125,-5.16667 1.25,-4.21875 C1.25,-4.19792 1.25,-4.18229 1.25,-4.17188 L0.453125,-4.17188 "/>
<path class="Note" fill="#ff9933" transform="matrix(0.9936,0,0,0.9936,382.208,82.728)" d="M4.39063,-2.75 C5.01563,-2.75 5.54688,-2.58854 5.98438,-2.26563 C6.38021,-1.91146 6.57813,-1.46875 6.57813,-0.9375 C6.57813,-0.0416667 6.11979,0.796875 5.20313,1.57813 C4.26563,2.35938 3.26042,2.75 2.1875,2.75 C1.5625,2.75 1.03646,2.58854 0.609375,2.26563 C0.203125,1.91146 0,1.46875 0,0.9375 C0,0.0416667 0.46875,-0.796875 1.40625,-1.57813 C2.32292,-2.35938 3.31771,-2.75 4.39063,-2.75"/>
<path class="Note" fill="#ffffff" fill-rule="evenodd" d="M350.831,133.65 L356.792,133.65 L356.792,141.102 L350.831,141.102 L350.831,133.65 "/>
<path class="Note" transform="matrix(0.9936,0,0,0.9936,351.327,140.854)" d="M2.4375,-5.64063 C1.75,-5.64063 1.35417,-5.32813 1.25,-4.70313 C1.22917,-4.59896 1.21875,-4.47917 1.21875,-4.34375 L0.421875,-4.34375 C0.442708,-5.59375 1.01563,-6.27083 2.14063,-6.375 C2.23438,-6.38542 2.32813,-6.39063 2.42188,-6.39063 C3.26563,-6.39063 3.84375,-6.10938 4.15625,-5.54688 C4.29167,-5.28646 4.35938,-4.98438 4.35938,-4.64063 C4.35938,-4.00521 4.0625,-3.57292 3.46875,-3.34375 C4.03125,-3.14583 4.375,-2.81771 4.5,-2.35938 C4.54167,-2.19271 4.5625,-2.00521 4.5625,-1.79688 C4.5625,-1.05729 4.27604,-0.505208 3.70313,-0.140625 C3.33854,0.0885417 2.90104,0.203125 2.39063,0.203125 C1.21354,0.203125 0.526042,-0.348958 0.328125,-1.45313 C0.317708,-1.57813 0.302083,-1.71354 0.28125,-1.85938 L1.07813,-1.85938 C1.13021,-1.08854 1.46875,-0.65625 2.09375,-0.5625 C2.19792,-0.541667 2.30729,-0.53125 2.42188,-0.53125 C3.04688,-0.53125 3.45313,-0.765625 3.64063,-1.23438 C3.71354,-1.40104 3.75,-1.58854 3.75,-1.79688 C3.73958,-2.54688 3.29688,-2.92708 2.42188,-2.9375 L2.09375,-2.92188 L1.98438,-2.92188 L1.98438,-3.67188 C2.66146,-3.68229 3.10417,-3.77604 3.3125,-3.95313 C3.47917,-4.09896 3.5625,-4.31771 3.5625,-4.60938 C3.5625,-5.09896 3.34896,-5.41667 2.92188,-5.5625 C2.77604,-5.61458 2.61458,-5.64063 2.4375,-5.64063"/>
<path class="Note" fill="#ebeb19" transform="matrix(0.9936,0,0,0.9936,350.085,80.244)" d="M4.39063,-2.75 C5.01563,-2.75 5.54688,-2.58854 5.98438,-2.26563 C6.38021,-1.91146 6.57813,-1.46875 6.57813,-0.9375 C6.57813,-0.0416667 6.11979,0.796875 5.20313,1.57813 C4.26563,2.35938 3.26042,2.75 2.1875,2.75 C1.5625,2.75 1.03646,2.58854 0.609375,2.26563 C0.203125,1.91146 0,1.46875 0,0.9375 C0,0.0416667 0.46875,-0.796875 1.40625,-1.57813 C2.32292,-2.35938 3.31771,-2.75 4.39063,-2.75"/>
<path class="Note" fill="#ffffff" fill-rule="evenodd" d="M318.708,126.198 L324.67,126.198 L324.67,133.65 L318.708,133.65 L318.708,126.198 "/>
<path class="Note" transform="matrix(0.9936,0,0,0.9936,319.205,133.402)" d="M2.32813,-4.54688 L0.921875,-4.54688 L0.921875,-5.10938 C1.53646,-5.19271 1.93229,-5.30208 2.10938,-5.4375 C2.28646,-5.57292 2.4375,-5.85417 2.5625,-6.28125 C2.57292,-6.3125 2.58854,-6.34896 2.60938,-6.39063 L3.125,-6.39063 L3.125,0 L2.32813,0 L2.32813,-4.54688 "/>
<path class="Note" fill="#660099" transform="matrix(0.9936,0,0,0.9936,317.963,77.76)" d="M4.39063,-2.75 C5.01563,-2.75 5.54688,-2.58854 5.98438,-2.26563 C6.38021,-1.91146 6.57813,-1.46875 6.57813,-0.9375 C6.57813,-0.0416667 6.11979,0.796875 5.20313,1.57813 C4.26563,2.35938 3.26042,2.75 2.1875,2.75 C1.5625,2.75 1.03646,2.58854 0.609375,2.26563 C0.203125,1.91146 0,1.46875 0,0.9375 C0,0.0416667 0.46875,-0.796875 1.40625,-1.57813 C2.32292,-2.35938 3.31771,-2.75 4.39063,-2.75"/>
<path class="Note" fill="#ffffff" fill-rule="evenodd" d="M286.586,126.198 L292.547,126.198 L292.547,133.65 L286.586,133.65 L286.586,126.198 "/>
<path class="Note" transform="matrix(0.9936,0,0,0.9936,287.082,133.402)" d="M0.453125,-4.17188 C0.494792,-5.64063 1.19792,-6.38021 2.5625,-6.39063 C3.28125,-6.39063 3.83333,-6.14583 4.21875,-5.65625 C4.46875,-5.32292 4.59375,-4.93229 4.59375,-4.48438 C4.59375,-3.68229 4.14583,-3.03125 3.25,-2.53125 L2.34375,-2.04688 C1.79167,-1.75521 1.44271,-1.4375 1.29688,-1.09375 C1.24479,-0.989583 1.21354,-0.869792 1.20313,-0.734375 L4.5625,-0.734375 L4.5625,0 L0.3125,0 C0.354167,-0.760417 0.520833,-1.33854 0.8125,-1.73438 C1.07292,-2.05729 1.5,-2.38542 2.09375,-2.71875 L2.92188,-3.1875 C3.49479,-3.52083 3.78646,-3.94271 3.79688,-4.45313 C3.79688,-4.88021 3.61458,-5.21354 3.25,-5.45313 C3.04167,-5.57813 2.80208,-5.64063 2.53125,-5.64063 C1.73958,-5.64063 1.3125,-5.16667 1.25,-4.21875 C1.25,-4.19792 1.25,-4.18229 1.25,-4.17188 L0.453125,-4.17188 "/>
<path class="Note" fill="#cc00ff" transform="matrix(0.9936,0,0,0.9936,285.84,75.276)" d="M4.39063,-2.75 C5.01563,-2.75 5.54688,-2.58854 5.98438,-2.26563 C6.38021,-1.91146 6.57813,-1.46875 6.57813,-0.9375 C6.57813,-0.0416667 6.11979,0.796875 5.20313,1.57813 C4.26563,2.35938 3.26042,2.75 2.1875,2.75 C1.5625,2.75 1.03646,2.58854 0.609375,2.26563 C0.203125,1.91146 0,1.46875 0,0.9375 C0,0.0416667 0.46875,-0.796875 1.40625,-1.57813 C2.32292,-2.35938 3.31771,-2.75 4.39063,-2.75"/>
<path class="Note" fill="#ffffff" fill-rule="evenodd" d="M254.463,126.198 L260.425,126.198 L260.425,133.65 L254.463,133.65 L254.463,126.198 "/>
<path class="Note" transform="matrix(0.9936,0,0,0.9936,254.96,133.402)" d="M2.32813,-4.54688 L0.921875,-4.54688 L0.921875,-5.10938 C1.53646,-5.19271 1.93229,-5.30208 2.10938,-5.4375 C2.28646,-5.57292 2.4375,-5.85417 2.5625,-6.28125 C2.57292,-6.3125 2.58854,-6.34896 2.60938,-6.39063 L3.125,-6.39063 L3.125,0 L2.32813,0 L2.32813,-4.54688 "/>
<path class="Note" fill="#660099" transform="matrix(0.9936,0,0,0.9936,253.718,77.76)" d="M4.39063,-2.75 C5.01563,-2.75 5.54688,-2.58854 5.98438,-2.26563 C6.38021,-1.91146 6.57813,-1.46875 6.57813,-0.9375 C6.57813,-0.0416667 6.11979,0.796875 5.20313,1.57813 C4.26563,2.35938 3.26042,2.75 2.1875,2.75 C1.5625,2.75 1.03646,2.58854 0.609375,2.26563 C0.203125,1.91146 0,1.46875 0,0.9375 C0,0.0416667 0.46875,-0.796875 1.40625,-1.57813 C2.32292,-2.35938 3.31771,-2.75 4.39063,-2.75"/>
<path class="Note" fill="#ffffff" fill-rule="evenodd" d="M222.341,133.65 L228.302,133.65 L228.302,141.102 L222.341,141.102 L222.341,133.65 "/>
<path class="Note" transform="matrix(0.9936,0,0,0.9936,222.837,140.854)" d="M2.4375,-5.64063 C1.75,-5.64063 1.35417,-5.32813 1.25,-4.70313 C1.22917,-4.59896 1.21875,-4.47917 1.21875,-4.34375 L0.421875,-4.34375 C0.442708,-5.59375 1.01563,-6.27083 2.14063,-6.375 C2.23438,-6.38542 2.32813,-6.39063 2.42188,-6.39063 C3.26563,-6.39063 3.84375,-6.10938 4.15625,-5.54688 C4.29167,-5.28646 4.35938,-4.98438 4.35938,-4.64063 C4.35938,-4.00521 4.0625,-3.57292 3.46875,-3.34375 C4.03125,-3.14583 4.375,-2.81771 4.5,-2.35938 C4.54167,-2.19271 4.5625,-2.00521 4.5625,-1.79688 C4.5625,-1.05729 4.27604,-0.505208 3.70313,-0.140625 C3.33854,0.0885417 2.90104,0.203125 2.39063,0.203125 C1.21354,0.203125 0.526042,-0.348958 0.328125,-1.45313 C0.317708,-1.57813 0.302083,-1.71354 0.28125,-1.85938 L1.07813,-1.85938 C1.13021,-1.08854 1.46875,-0.65625 2.09375,-0.5625 C2.19792,-0.541667 2.30729,-0.53125 2.42188,-0.53125 C3.04688,-0.53125 3.45313,-0.765625 3.64063,-1.23438 C3.71354,-1.40104 3.75,-1.58854 3.75,-1.79688 C3.73958,-2.54688 3.29688,-2.92708 2.42188,-2.9375 L2.09375,-2.92188 L1.98438,-2.92188 L1.98438,-3.67188 C2.66146,-3.68229 3.10417,-3.77604 3.3125,-3.95313 C3.47917,-4.09896 3.5625,-4.31771 3.5625,-4.60938 C3.5625,-5.09896 3.34896,-5.41667 2.92188,-5.5625 C2.77604,-5.61458 2.61458,-5.64063 2.4375,-5.64063"/>
<path class="Note" fill="#ebeb19" transform="matrix(0.9936,0,0,0.9936,221.595,80.244)" d="M4.39063,-2.75 C5.01563,-2.75 5.54688,-2.58854 5.98438,-2.26563 C6.38021,-1.91146 6.57813,-1.46875 6.57813,-0.9375 C6.57813,-0.0416667 6.11979,0.796875 5.20313,1.57813 C4.26563,2.35938 3.26042,2.75 2.1875,2.75 C1.5625,2.75 1.03646,2.58854 0.609375,2.26563 C0.203125,1.91146 0,1.46875 0,0.9375 C0,0.0416667 0.46875,-0.796875 1.40625,-1.57813 C2.32292,-2.35938 3.31771,-2.75 4.39063,-2.75"/>
<path class="Note" fill="#ffffff" fill-rule="evenodd" d="M190.218,133.65 L196.18,133.65 L196.18,141.102 L190.218,141.102 L190.218,133.65 "/>
<path class="Note" transform="matrix(0.9936,0,0,0.9936,190.715,140.854)" d="M0.453125,-4.17188 C0.494792,-5.64063 1.19792,-6.38021 2.5625,-6.39063 C3.28125,-6.39063 3.83333,-6.14583 4.21875,-5.65625 C4.46875,-5.32292 4.59375,-4.93229 4.59375,-4.48438 C4.59375,-3.68229 4.14583,-3.03125 3.25,-2.53125 L2.34375,-2.04688 C1.79167,-1.75521 1.44271,-1.4375 1.29688,-1.09375 C1.24479,-0.989583 1.21354,-0.869792 1.20313,-0.734375 L4.5625,-0.734375 L4.5625,0 L0.3125,0 C0.354167,-0.760417 0.520833,-1.33854 0.8125,-1.73438 C1.07292,-2.05729 1.5,-2.38542 2.09375,-2.71875 L2.92188,-3.1875 C3.49479,-3.52083 3.78646,-3.94271 3.79688,-4.45313 C3.79688,-4.88021 3.61458,-5.21354 3.25,-5.45313 C3.04167,-5.57813 2.80208,-5.64063 2.53125,-5.64063 C1.73958,-5.64063 1.3125,-5.16667 1.25,-4.21875 C1.25,-4.19792 1.25,-4.18229 1.25,-4.17188 L0.453125,-4.17188 "/>
<path class="Note" fill="#ff9933" transform="matrix(0.9936,0,0,0.9936,189.473,82.728)" d="M4.39063,-2.75 C5.01563,-2.75 5.54688,-2.58854 5.98438,-2.26563 C6.38021,-1.91146 6.57813,-1.46875 6.57813,-0.9375 C6.57813,-0.0416667 6.11979,0.796875 5.20313,1.57813 C4.26563,2.35938 3.26042,2.75 2.1875,2.75 C1.5625,2.75 1.03646,2.58854 0.609375,2.26563 C0.203125,1.91146 0,1.46875 0,0.9375 C0,0.0416667 0.46875,-0.796875 1.40625,-1.57813 C2.32292,-2.35938 3.31771,-2.75 4.39063,-2.75"/>
<path class="Note" fill="#ffffff" fill-rule="evenodd" d="M158.096,133.65 L164.057,133.65 L164.057,141.102 L158.096,141.102 L158.096,133.65 "/>
<path class="Note" transform="matrix(0.9936,0,0,0.9936,158.592,140.854)" d="M0.390625,-3.09375 C0.390625,-5 0.927083,-6.07813 2,-6.32813 C2.14583,-6.36979 2.30208,-6.39063 2.46875,-6.39063 C3.78125,-6.39063 4.47917,-5.40104 4.5625,-3.42188 C4.5625,-3.28646 4.5625,-3.15625 4.5625,-3.03125 C4.5625,-1.40625 4.15104,-0.385417 3.32813,0.03125 C3.06771,0.145833 2.78125,0.203125 2.46875,0.203125 C1.41667,0.203125 0.760417,-0.442708 0.5,-1.73438 C0.427083,-2.14063 0.390625,-2.59375 0.390625,-3.09375 M2.46875,-5.64063 C1.625,-5.63021 1.20313,-4.77083 1.20313,-3.0625 C1.20313,-1.32292 1.61979,-0.453125 2.45313,-0.453125 C3.16146,-0.453125 3.57813,-1.02604 3.70313,-2.17188 C3.73438,-2.44271 3.75,-2.75 3.75,-3.09375 C3.75,-4.79167 3.32292,-5.64063 2.46875,-5.64063"/>
<path class="Note" fill="#78c7c7" transform="matrix(0.9936,0,0,0.9936,157.35,85.212)" d="M4.39063,-2.75 C5.01563,-2.75 5.54688,-2.58854 5.98438,-2.26563 C6.38021,-1.91146 6.57813,-1.46875 6.57813,-0.9375 C6.57813,-0.0416667 6.11979,0.796875 5.20313,1.57813 C4.26563,2.35938 3.26042,2.75 2.1875,2.75 C1.5625,2.75 1.03646,2.58854 0.609375,2.26563 C0.203125,1.91146 0,1.46875 0,0.9375 C0,0.0416667 0.46875,-0.796875 1.40625,-1.57813 C2.32292,-2.35938 3.31771,-2.75 4.39063,-2.75"/>
<path class="Note" fill="#ffffff" fill-rule="evenodd" d="M125.973,141.102 L131.935,141.102 L131.935,148.554 L125.973,148.554 L125.973,141.102 "/>
<path class="Note" transform="matrix(0.9936,0,0,0.9936,126.47,148.306)" d="M2.4375,-5.64063 C1.75,-5.64063 1.35417,-5.32813 1.25,-4.70313 C1.22917,-4.59896 1.21875,-4.47917 1.21875,-4.34375 L0.421875,-4.34375 C0.442708,-5.59375 1.01563,-6.27083 2.14063,-6.375 C2.23438,-6.38542 2.32813,-6.39063 2.42188,-6.39063 C3.26563,-6.39063 3.84375,-6.10938 4.15625,-5.54688 C4.29167,-5.28646 4.35938,-4.98438 4.35938,-4.64063 C4.35938,-4.00521 4.0625,-3.57292 3.46875,-3.34375 C4.03125,-3.14583 4.375,-2.81771 4.5,-2.35938 C4.54167,-2.19271 4.5625,-2.00521 4.5625,-1.79688 C4.5625,-1.05729 4.27604,-0.505208 3.70313,-0.140625 C3.33854,0.0885417 2.90104,0.203125 2.39063,0.203125 C1.21354,0.203125 0.526042,-0.348958 0.328125,-1.45313 C0.317708,-1.57813 0.302083,-1.71354 0.28125,-1.85938 L1.07813,-1.85938 C1.13021,-1.08854 1.46875,-0.65625 2.09375,-0.5625 C2.19792,-0.541667 2.30729,-0.53125 2.42188,-0.53125 C3.04688,-0.53125 3.45313,-0.765625 3.64063,-1.23438 C3.71354,-1.40104 3.75,-1.58854 3.75,-1.79688 C3.73958,-2.54688 3.29688,-2.92708 2.42188,-2.9375 L2.09375,-2.92188 L1.98438,-2.92188 L1.98438,-3.67188 C2.66146,-3.68229 3.10417,-3.77604 3.3125,-3.95313 C3.47917,-4.09896 3.5625,-4.31771 3.5625,-4.60938 C3.5625,-5.09896 3.34896,-5.41667 2.92188,-5.5625 C2.77604,-5.61458 2.61458,-5.64063 2.4375,-5.64063"/>
<path class="Note" fill="#ed2929" transform="matrix(0.9936,0,0,0.9936,125.228,87.696)" d="M4.39063,-2.75 C5.01563,-2.75 5.54688,-2.58854 5.98438,-2.26563 C6.38021,-1.91146 6.57813,-1.46875 6.57813,-0.9375 C6.57813,-0.0416667 6.11979,0.796875 5.20313,1.57813 C4.26563,2.35938 3.26042,2.75 2.1875,2.75 C1.5625,2.75 1.03646,2.58854 0.609375,2.26563 C0.203125,1.91146 0,1.46875 0,0.9375 C0,0.0416667 0.46875,-0.796875 1.40625,-1.57813 C2.32292,-2.35938 3.31771,-2.75 4.39063,-2.75"/>
<path class="Note" fill="#ffffff" fill-rule="evenodd" d="M93.8506,141.102 L99.8122,141.102 L99.8122,148.554 L93.8506,148.554 L93.8506,141.102 "/>
<path class="Note" transform="matrix(0.9936,0,0,0.9936,94.3474,148.306)" d="M0.453125,-4.17188 C0.494792,-5.64063 1.19792,-6.38021 2.5625,-6.39063 C3.28125,-6.39063 3.83333,-6.14583 4.21875,-5.65625 C4.46875,-5.32292 4.59375,-4.93229 4.59375,-4.48438 C4.59375,-3.68229 4.14583,-3.03125 3.25,-2.53125 L2.34375,-2.04688 C1.79167,-1.75521 1.44271,-1.4375 1.29688,-1.09375 C1.24479,-0.989583 1.21354,-0.869792 1.20313,-0.734375 L4.5625,-0.734375 L4.5625,0 L0.3125,0 C0.354167,-0.760417 0.520833,-1.33854 0.8125,-1.73438 C1.07292,-2.05729 1.5,-2.38542 2.09375,-2.71875 L2.92188,-3.1875 C3.49479,-3.52083 3.78646,-3.94271 3.79688,-4.45313 C3.79688,-4.88021 3.61458,-5.21354 3.25,-5.45313 C3.04167,-5.57813 2.80208,-5.64063 2.53125,-5.64063 C1.73958,-5.64063 1.3125,-5.16667 1.25,-4.21875 C1.25,-4.19792 1.25,-4.18229 1.25,-4.17188 L0.453125,-4.17188 "/>
<path class="Note" fill="#ff9ee6" transform="matrix(0.9936,0,0,0.9936,93.1054,90.18)" d="M4.39063,-2.75 C5.01563,-2.75 5.54688,-2.58854 5.98438,-2.26563 C6.38021,-1.91146 6.57813,-1.46875 6.57813,-0.9375 C6.57813,-0.0416667 6.11979,0.796875 5.20313,1.57813 C4.26563,2.35938 3.26042,2.75 2.1875,2.75 C1.5625,2.75 1.03646,2.58854 0.609375,2.26563 C0.203125,1.91146 0,1.46875 0,0.9375 C0,0.0416667 0.46875,-0.796875 1.40625,-1.57813 C2.32292,-2.35938 3.31771,-2.75 4.39063,-2.75"/>
<path class="Note" fill="#ffffff" fill-rule="evenodd" d="M61.7281,141.102 L67.6897,141.102 L67.6897,148.554 L61.7281,148.554 L61.7281,141.102 "/>
<path class="Note" transform="matrix(0.9936,0,0,0.9936,62.2249,148.306)" d="M0.390625,-3.09375 C0.390625,-5 0.927083,-6.07813 2,-6.32813 C2.14583,-6.36979 2.30208,-6.39063 2.46875,-6.39063 C3.78125,-6.39063 4.47917,-5.40104 4.5625,-3.42188 C4.5625,-3.28646 4.5625,-3.15625 4.5625,-3.03125 C4.5625,-1.40625 4.15104,-0.385417 3.32813,0.03125 C3.06771,0.145833 2.78125,0.203125 2.46875,0.203125 C1.41667,0.203125 0.760417,-0.442708 0.5,-1.73438 C0.427083,-2.14063 0.390625,-2.59375 0.390625,-3.09375 M2.46875,-5.64063 C1.625,-5.63021 1.20313,-4.77083 1.20313,-3.0625 C1.20313,-1.32292 1.61979,-0.453125 2.45313,-0.453125 C3.16146,-0.453125 3.57813,-1.02604 3.70313,-2.17188 C3.73438,-2.44271 3.75,-2.75 3.75,-3.09375 C3.75,-4.79167 3.32292,-5.64063 2.46875,-5.64063"/>
<path class="Note" fill="#cc00ff" transform="matrix(0.9936,0,0,0.9936,60.9829,92.664)" d="M4.39063,-2.75 C5.01563,-2.75 5.54688,-2.58854 5.98438,-2.26563 C6.38021,-1.91146 6.57813,-1.46875 6.57813,-0.9375 C6.57813,-0.0416667 6.11979,0.796875 5.20313,1.57813 C4.26563,2.35938 3.26042,2.75 2.1875,2.75 C1.5625,2.75 1.03646,2.58854 0.609375,2.26563 C0.203125,1.91146 0,1.46875 0,0.9375 C0,0.0416667 0.46875,-0.796875 1.40625,-1.57813 C2.32292,-2.35938 3.31771,-2.75 4.39063,-2.75"/>
<path class="Clef" transform="matrix(0.9936,0,0,0.9936,32.0544,133.65)" d="M5.32813,8.5 C5.32813,8.86458 5.04167,9.04688 4.46875,9.04688 C4.02083,9.04688 3.625,8.91146 3.28125,8.64063 C2.95833,8.34896 2.79688,7.98438 2.79688,7.54688 C2.79688,6.76563 3.27083,6.14063 4.21875,5.67188 C5.14583,5.18229 6.23438,4.9375 7.48438,4.9375 C7.96354,4.9375 8.47917,4.97396 9.03125,5.04688 C9.42708,5.09896 9.875,5.20313 10.375,5.35938 C10.8125,5.49479 11.1563,5.70573 11.4063,5.99219 C11.6563,6.27865 11.7813,6.61458 11.7813,7 C11.7813,7.89583 11.3177,8.63021 10.3906,9.20313 C11.7448,9.45313 12.4271,10.0573 12.4375,11.0156 C12.4375,11.8281 12.0729,12.5599 11.3438,13.2109 C10.6146,13.862 9.79167,14.1875 8.875,14.1875 C8.47917,14.1875 8.07813,14.0938 7.67188,13.9063 C7.29688,13.7292 7.03125,13.5625 6.875,13.4063 C6.71875,13.2188 6.64063,13.0781 6.64063,12.9844 C6.64063,12.8594 6.70833,12.75 6.84375,12.6563 C6.95833,12.5417 7.07813,12.4844 7.20313,12.4844 C7.25521,12.4844 7.36719,12.5677 7.53906,12.7344 C7.71094,12.901 7.95833,12.9844 8.28125,12.9844 C8.72917,12.9844 9.16146,12.7969 9.57813,12.4219 C9.97396,12.0573 10.1719,11.6198 10.1719,11.1094 C10.1719,10.6719 9.98438,10.3542 9.60938,10.1563 C9.24479,9.95833 8.76563,9.85938 8.17188,9.85938 C8.06771,9.85938 8.01563,9.75 8.01563,9.53125 C8.01563,9.21875 8.13021,9.0625 8.35938,9.0625 C8.72396,9.0625 9.05208,8.90625 9.34375,8.59375 C9.61458,8.26042 9.75,7.90104 9.75,7.51563 C9.75,7.40104 9.71875,7.22917 9.65625,7 C9.60417,6.84375 9.44792,6.65104 9.1875,6.42188 C8.9375,6.21354 8.58854,6.07292 8.14063,6 C8.02604,6.63542 7.88021,7.44792 7.70313,8.4375 C7.52604,9.42708 7.40625,10.0781 7.34375,10.3906 C7.125,11.5156 6.72396,12.4583 6.14063,13.2188 C5.52604,14.0313 4.86458,14.4375 4.15625,14.4375 C3.9375,14.4375 3.71354,14.3854 3.48438,14.2813 C3.29688,14.1979 3.0625,14.0365 2.78125,13.7969 C2.52083,13.5885 2.34375,13.4479 2.25,13.375 C2.19792,13.3438 2.17188,13.2865 2.17188,13.2031 C2.17188,13.0781 2.21875,12.9635 2.3125,12.8594 C2.41667,12.7344 2.52604,12.6719 2.64063,12.6719 C2.71354,12.6719 2.89323,12.7969 3.17969,13.0469 C3.46615,13.2969 3.76563,13.4219 4.07813,13.4219 C4.68229,13.4219 5.13542,13.0365 5.4375,12.2656 C5.71875,11.526 5.85938,10.6094 5.85938,9.51563 L5.85938,9.35938 C5.85938,8.63021 5.97917,7.54167 6.21875,6.09375 C5.80208,6.22917 5.46875,6.42708 5.21875,6.6875 C4.95833,6.94792 4.82813,7.21875 4.82813,7.5 C4.82813,7.71875 4.91146,7.90625 5.07813,8.0625 C5.24479,8.21875 5.32813,8.36458 5.32813,8.5 M1.40625,2.39063 C1.46875,2.39063 1.625,2.45313 1.875,2.57813 C2.13542,2.71354 2.35938,2.78125 2.54688,2.78125 C3.03646,2.78125 3.64063,2.42188 4.35938,1.70313 C6.43229,-0.411458 7.85938,-2.65104 8.64063,-5.01563 C8.79688,-5.51563 9.17708,-5.76563 9.78125,-5.76563 C10.0938,-5.76563 10.3646,-5.69792 10.5938,-5.5625 C10.8125,-5.42708 10.9219,-5.28646 10.9219,-5.14063 L10.5625,2.17188 C10.5625,2.55729 10.7031,2.75 10.9844,2.75 C11.1198,2.75 11.3281,2.6875 11.6094,2.5625 C11.8698,2.42708 12.026,2.35938 12.0781,2.35938 C12.1823,2.35938 12.2448,2.47396 12.2656,2.70313 C12.2656,2.91146 12.1823,3.04167 12.0156,3.09375 C11.8802,3.125 11.6198,3.24479 11.2344,3.45313 C10.8281,3.66146 10.5104,3.76563 10.2813,3.76563 C9.78125,3.76563 9.42708,3.375 9.21875,2.59375 C8.89583,1.375 8.6875,0.104167 8.59375,-1.21875 C8.07292,-0.552083 7.49479,0.119792 6.85938,0.796875 C7.08854,1.24479 7.51563,1.46875 8.14063,1.46875 C8.23438,1.46875 8.30729,1.46354 8.35938,1.45313 L8.375,1.45313 C8.47917,1.45313 8.53125,1.54688 8.53125,1.73438 C8.53125,1.98438 8.44792,2.13542 8.28125,2.1875 C8.01042,2.28125 7.72396,2.32813 7.42188,2.32813 C6.77604,2.32813 6.30729,2.10417 6.01563,1.65625 L5.23438,2.35938 C4.14063,3.29688 3.25,3.76563 2.5625,3.76563 C2.375,3.76563 2.1875,3.73438 2,3.67188 C1.84375,3.60938 1.66146,3.51042 1.45313,3.375 C1.36979,3.34375 1.27865,3.29688 1.17969,3.23438 C1.08073,3.17188 1.02083,3.13542 1,3.125 C0.9375,3.10417 0.90625,3.04688 0.90625,2.95313 C0.90625,2.84896 0.958333,2.72396 1.0625,2.57813 C1.14583,2.45313 1.26042,2.39063 1.40625,2.39063 M5.76563,-10.7969 C5.76563,-10.474 5.48438,-10.3125 4.92188,-10.3125 C4.43229,-10.3125 4.00521,-10.474 3.64063,-10.7969 C3.28646,-11.1302 3.10938,-11.5313 3.10938,-12 C3.10938,-12.4479 3.25,-12.8385 3.53125,-13.1719 C3.83333,-13.5052 4.21875,-13.7552 4.6875,-13.9219 C5.11458,-14.0781 5.59896,-14.2031 6.14063,-14.2969 C6.69271,-14.3594 7.22396,-14.3906 7.73438,-14.3906 C8.03646,-14.3906 8.59896,-14.2552 9.42188,-13.9844 C10.2552,-13.7135 10.8333,-13.5781 11.1563,-13.5781 C11.5625,-13.5781 11.9479,-13.651 12.3125,-13.7969 C12.6042,-13.9219 12.8906,-14.0677 13.1719,-14.2344 C13.3906,-14.3802 13.5104,-14.4531 13.5313,-14.4531 C13.6563,-14.4531 13.7604,-14.4167 13.8438,-14.3438 C13.9479,-14.2396 14,-14.151 14,-14.0781 C14,-13.9948 13.8802,-13.849 13.6406,-13.6406 C13.3802,-13.401 13.0078,-13.1641 12.5234,-12.9297 C12.0391,-12.6953 11.5313,-12.5781 11,-12.5781 C10.7604,-12.5781 10.4688,-12.6198 10.125,-12.7031 C9.89583,-11.2552 9.66146,-9.96875 9.42188,-8.84375 C9.21354,-7.85417 8.79688,-6.98958 8.17188,-6.25 C7.56771,-5.51042 6.89583,-5.14063 6.15625,-5.14063 C5.85417,-5.14063 5.58854,-5.19792 5.35938,-5.3125 C5.09896,-5.44792 4.82292,-5.64583 4.53125,-5.90625 C4.30208,-6.09375 4.08333,-6.26563 3.875,-6.42188 C3.82292,-6.46354 3.79688,-6.52604 3.79688,-6.60938 C3.79688,-6.69271 3.84896,-6.80729 3.95313,-6.95313 C4.05729,-7.06771 4.15104,-7.125 4.23438,-7.125 C4.31771,-7.125 4.54167,-6.96354 4.90625,-6.64063 C5.27083,-6.31771 5.59375,-6.15625 5.875,-6.15625 C6.39583,-6.15625 6.80208,-6.45313 7.09375,-7.04688 C7.375,-7.64063 7.53646,-8.34375 7.57813,-9.15625 C7.64063,-10.5 7.79167,-11.8906 8.03125,-13.3281 C7.73958,-13.3906 7.52604,-13.4219 7.39063,-13.4219 C6.76563,-13.4219 6.22917,-13.2917 5.78125,-13.0313 C5.34375,-12.7813 5.125,-12.4427 5.125,-12.0156 C5.125,-11.7031 5.22917,-11.4635 5.4375,-11.2969 C5.65625,-11.1094 5.76563,-10.9427 5.76563,-10.7969"/>
<path class="Clef" transform="matrix(0.9936,0,0,0.9936,32.0544,77.76)" d="M7.34375,-5.125 C7.34375,-5.125 7.38542,-5.125 7.46875,-5.125 C7.52083,-5.13542 7.5625,-5.14063 7.59375,-5.14063 C9.05208,-5.14063 10.25,-4.625 11.1875,-3.59375 C12.125,-2.58333 12.5938,-1.40104 12.5938,-0.046875 C12.5938,1.64063 11.901,3.01042 10.5156,4.0625 C10.151,4.35417 9.67188,4.58854 9.07813,4.76563 C9.15104,5.60938 9.1875,6.29167 9.1875,6.8125 C9.1875,6.91667 9.17188,7.29688 9.14063,7.95313 C9.08854,9.16146 8.67188,10.2083 7.89063,11.0938 C7.14063,11.9688 6.20313,12.4063 5.07813,12.4063 C4.02604,12.4063 3.13021,12.0365 2.39063,11.2969 C1.64063,10.5365 1.26563,9.625 1.26563,8.5625 C1.26563,8 1.48438,7.52083 1.92188,7.125 C2.35938,6.73958 2.86979,6.54688 3.45313,6.54688 C3.97396,6.54688 4.41146,6.75 4.76563,7.15625 C5.13021,7.53125 5.3125,8 5.3125,8.5625 C5.3125,9.0625 5.13021,9.49479 4.76563,9.85938 C4.40104,10.224 3.96354,10.4063 3.45313,10.4063 C3.24479,10.4063 3.04688,10.3698 2.85938,10.2969 C3.43229,11.1406 4.19271,11.5625 5.14063,11.5625 C6.03646,11.5625 6.77083,11.1979 7.34375,10.4688 C7.94792,9.71875 8.27604,8.83854 8.32813,7.82813 C8.34896,7.20313 8.35938,6.84896 8.35938,6.76563 C8.35938,6.03646 8.33333,5.4375 8.28125,4.96875 C7.63542,5.07292 7.05729,5.125 6.54688,5.125 C4.73438,5.125 3.19271,4.40625 1.92188,2.96875 C0.671875,1.52083 0.046875,-0.197917 0.046875,-2.1875 C0.046875,-2.60417 0.0833333,-3.02604 0.15625,-3.45313 C0.239583,-3.80729 0.338542,-4.19271 0.453125,-4.60938 C0.515625,-4.84896 0.692708,-5.22917 0.984375,-5.75 C1.08854,-5.90625 1.20573,-6.10156 1.33594,-6.33594 C1.46615,-6.57031 1.55729,-6.72396 1.60938,-6.79688 C1.73438,-7.05729 1.98438,-7.41146 2.35938,-7.85938 C2.46354,-7.97396 2.57292,-8.10156 2.6875,-8.24219 C2.80208,-8.38281 2.89844,-8.5 2.97656,-8.59375 C3.05469,-8.6875 3.11198,-8.76042 3.14844,-8.8125 C3.1849,-8.86458 3.47917,-9.20833 4.03125,-9.84375 C4.15625,-9.97917 4.28125,-10.1198 4.40625,-10.2656 C4.53125,-10.4115 4.63281,-10.5286 4.71094,-10.6172 C4.78906,-10.7057 4.84896,-10.7656 4.89063,-10.7969 C4.42188,-12.349 4.125,-13.5885 4,-14.5156 C3.91667,-15.2552 3.875,-16.2708 3.875,-17.5625 C3.875,-18.6979 4.13542,-19.7604 4.65625,-20.75 C5.15625,-21.7708 5.86458,-22.6094 6.78125,-23.2656 C6.84375,-23.3073 6.90625,-23.3281 6.96875,-23.3281 C7.0625,-23.3281 7.13021,-23.3073 7.17188,-23.2656 C7.86979,-22.4219 8.47396,-21.3229 8.98438,-19.9688 C9.50521,-18.6146 9.76563,-17.3802 9.76563,-16.2656 C9.76563,-15.0156 9.46875,-13.8438 8.875,-12.75 C8.19792,-11.5938 7.32292,-10.3958 6.25,-9.15625 C6.52083,-8.30208 6.88542,-6.95833 7.34375,-5.125 M9,3.96875 C9.67708,3.71875 10.2083,3.29688 10.5938,2.70313 C11.0104,2.13021 11.2188,1.48438 11.2188,0.765625 C11.2188,-0.161458 10.9063,-0.984375 10.2813,-1.70313 C9.63542,-2.44271 8.81771,-2.85938 7.82813,-2.95313 C8.39063,-0.203125 8.78125,2.10417 9,3.96875 M1.45313,-0.546875 C1.45313,0.744792 1.97396,1.88021 3.01563,2.85938 C4.07813,3.80729 5.27604,4.28125 6.60938,4.28125 C7.15104,4.28125 7.68229,4.23958 8.20313,4.15625 C7.99479,2.17708 7.58333,-0.192708 6.96875,-2.95313 C6.22917,-2.86979 5.64063,-2.60938 5.20313,-2.17188 C4.76563,-1.71354 4.54688,-1.19792 4.54688,-0.625 C4.54688,0.364583 5.07813,1.16667 6.14063,1.78125 C6.22396,1.875 6.26563,1.97396 6.26563,2.07813 C6.26563,2.18229 6.22396,2.27604 6.14063,2.35938 C6.05729,2.45313 5.95833,2.5 5.84375,2.5 C5.83333,2.5 5.77604,2.48958 5.67188,2.46875 C4.92188,2.0625 4.34896,1.54167 3.95313,0.90625 C3.56771,0.21875 3.375,-0.46875 3.375,-1.15625 C3.375,-2.05208 3.65625,-2.86458 4.21875,-3.59375 C4.80208,-4.32292 5.5625,-4.79167 6.5,-5 C6.13542,-6.45833 5.83854,-7.59896 5.60938,-8.42188 C5.40104,-8.18229 5.15104,-7.89844 4.85938,-7.57031 C4.56771,-7.24219 4.39583,-7.04167 4.34375,-6.96875 C3.875,-6.36458 3.51563,-5.89063 3.26563,-5.54688 C2.81771,-4.93229 2.48958,-4.40625 2.28125,-3.96875 C2.0625,-3.46875 1.86979,-2.92708 1.70313,-2.34375 C1.53646,-1.78125 1.45313,-1.18229 1.45313,-0.546875 M7.96875,-20.4063 C6.98958,-19.9271 6.22396,-19.2396 5.67188,-18.3438 C5.09896,-17.4167 4.8125,-16.4219 4.8125,-15.3594 C4.8125,-14.4219 5.04688,-13.1563 5.51563,-11.5625 C6.45313,-12.6979 7.15625,-13.7448 7.625,-14.7031 C8.11458,-15.724 8.35938,-16.7865 8.35938,-17.8906 C8.35938,-18.724 8.22917,-19.5625 7.96875,-20.4063 M5.82813,15.2344 C6.16146,14.901 6.32813,14.5625 6.32813,14.2188 C6.30729,13.9479 6.19271,13.7396 5.98438,13.5938 C5.74479,13.4375 5.46875,13.3594 5.15625,13.3594 C4.9375,13.3594 4.75521,13.4323 4.60938,13.5781 C4.48438,13.7031 4.42188,13.8646 4.42188,14.0625 C4.42188,14.3021 4.51563,14.4792 4.70313,14.5938 L5.82813,15.2344 M6.14063,15.4063 C6.68229,15.7083 6.95313,16.1146 6.95313,16.625 L6.95313,16.6875 C6.95313,17.0833 6.79167,17.4219 6.46875,17.7031 C6.14583,17.9844 5.68229,18.125 5.07813,18.125 C4.58854,18.125 4.16146,17.9948 3.79688,17.7344 C3.43229,17.4844 3.25,17.1458 3.25,16.7188 C3.25,16.5521 3.29167,16.3958 3.375,16.25 C3.47917,16.0833 3.56771,15.9688 3.64063,15.9063 L4,15.5313 C3.60417,15.2604 3.40625,14.901 3.40625,14.4531 C3.40625,14.099 3.5625,13.7865 3.875,13.5156 C4.19792,13.2552 4.625,13.125 5.15625,13.125 C5.60417,13.125 5.98438,13.224 6.29688,13.4219 C6.60938,13.6198 6.76563,13.8854 6.76563,14.2188 C6.76563,14.5729 6.55729,14.9688 6.14063,15.4063 M4.29688,15.7031 C3.91146,16.0469 3.70313,16.3854 3.67188,16.7188 C3.70313,17.0729 3.84896,17.3542 4.10938,17.5625 C4.39063,17.7813 4.71354,17.8906 5.07813,17.8906 C5.33854,17.8906 5.54688,17.8073 5.70313,17.6406 C5.85938,17.4844 5.9375,17.2969 5.9375,17.0781 C5.92708,16.7865 5.8125,16.5781 5.59375,16.4531 L4.29688,15.7031 "/>
<path class="Fingering" d="M506.035,95.2734 C505.441,95.2734 504.977,94.9661 504.644,94.3515 C504.363,93.8515 504.222,93.2265 504.222,92.4765 C504.222,91.5807 504.43,90.8775 504.847,90.3671 C505.18,89.9713 505.587,89.7682 506.066,89.7577 C506.628,89.7577 507.071,90.0442 507.394,90.6171 C507.696,91.1275 507.847,91.763 507.847,92.5234 C507.847,93.4921 507.623,94.2317 507.175,94.7421 C506.852,95.0963 506.472,95.2734 506.035,95.2734 M506.035,89.9609 C505.389,89.9609 505.04,90.7317 504.988,92.2734 C504.988,92.3671 504.988,92.4609 504.988,92.5546 C504.998,94.2213 505.347,95.0598 506.035,95.0702 C506.722,95.0598 507.066,94.2161 507.066,92.539 C507.066,91.0182 506.795,90.1692 506.253,89.9921 C506.18,89.9713 506.108,89.9609 506.035,89.9609"/>
<path class="Fingering" d="M472.341,88.8675 C472.581,87.8467 473.107,87.3206 473.92,87.2894 C473.951,87.2894 473.977,87.2894 473.998,87.2894 C474.487,87.2894 474.878,87.4665 475.17,87.8206 C475.378,88.081 475.482,88.3727 475.482,88.6956 C475.482,89.2894 475.164,89.93 474.529,90.6175 C474.508,90.6383 474.482,90.6592 474.451,90.68 L473.123,92.1019 L475.029,92.1019 C475.237,92.1019 475.399,92.0446 475.513,91.93 C475.586,91.8571 475.675,91.7373 475.779,91.5706 L475.888,91.6019 L475.451,92.68 L472.326,92.68 L472.326,92.5862 L473.748,91.0706 C474.425,90.331 474.774,89.6383 474.795,88.9925 C474.795,88.5446 474.623,88.2217 474.279,88.0237 C474.102,87.9196 473.899,87.8675 473.67,87.8675 C473.315,87.8675 473.039,88.0029 472.841,88.2737 C472.727,88.43 472.617,88.6435 472.513,88.9144 L472.341,88.8675 "/>
<path class="Fingering" d="M440.61,89.571 C440.735,89.571 440.917,89.6387 441.156,89.7741 C441.406,89.9304 441.62,90.0085 441.797,90.0085 C442.162,90.0085 442.448,89.847 442.656,89.5241 C442.781,89.3158 442.844,89.0814 442.844,88.821 C442.844,88.0606 442.391,87.6439 441.485,87.571 C441.391,87.5606 441.292,87.5554 441.188,87.5554 L441.188,87.446 C441.792,87.2481 442.188,86.9929 442.375,86.6804 C442.469,86.5137 442.516,86.3314 442.516,86.1335 C442.516,85.7793 442.37,85.5241 442.078,85.3679 C441.943,85.3054 441.797,85.2741 441.641,85.2741 C441.193,85.2741 440.823,85.5085 440.531,85.9772 C440.5,86.0189 440.474,86.0658 440.453,86.1179 L440.328,86.0866 C440.578,85.4095 440.943,84.9981 441.422,84.8522 C441.568,84.8106 441.729,84.7897 441.906,84.7897 C442.386,84.7897 442.74,84.9564 442.969,85.2897 C443.094,85.4668 443.156,85.6647 443.156,85.8835 C443.156,86.2064 443.005,86.4981 442.703,86.7585 C442.61,86.8314 442.511,86.9095 442.406,86.9929 C442.886,87.2012 443.193,87.4877 443.328,87.8522 C443.391,88.0293 443.422,88.2272 443.422,88.446 C443.422,89.0814 443.156,89.5762 442.625,89.9304 C442.229,90.1804 441.761,90.3054 441.219,90.3054 C440.729,90.3054 440.438,90.196 440.344,89.9772 C440.323,89.9356 440.313,89.8939 440.313,89.8522 C440.313,89.696 440.391,89.6075 440.547,89.5866 C440.568,89.5762 440.589,89.571 440.61,89.571"/>
<path class="Fingering" d="M409.846,87.8214 C409.253,87.8214 408.789,87.5141 408.456,86.8995 C408.175,86.3995 408.034,85.7745 408.034,85.0245 C408.034,84.1287 408.242,83.4255 408.659,82.9151 C408.992,82.5193 409.399,82.3162 409.878,82.3057 C410.44,82.3057 410.883,82.5922 411.206,83.1651 C411.508,83.6755 411.659,84.311 411.659,85.0714 C411.659,86.0401 411.435,86.7797 410.987,87.2901 C410.664,87.6443 410.284,87.8214 409.846,87.8214 M409.846,82.5089 C409.201,82.5089 408.852,83.2797 408.8,84.8214 C408.8,84.9151 408.8,85.0089 408.8,85.1026 C408.81,86.7693 409.159,87.6078 409.846,87.6182 C410.534,87.6078 410.878,86.7641 410.878,85.087 C410.878,83.5662 410.607,82.7172 410.065,82.5401 C409.992,82.5193 409.919,82.5089 409.846,82.5089"/>
<path class="Fingering" d="M375.974,81.4155 C376.213,80.3947 376.74,79.8686 377.552,79.8374 C377.583,79.8374 377.609,79.8374 377.63,79.8374 C378.12,79.8374 378.51,80.0145 378.802,80.3686 C379.01,80.629 379.115,80.9207 379.115,81.2436 C379.115,81.8374 378.797,82.478 378.161,83.1655 C378.141,83.1863 378.115,83.2072 378.083,83.228 L376.755,84.6499 L378.661,84.6499 C378.87,84.6499 379.031,84.5926 379.146,84.478 C379.219,84.4051 379.307,84.2853 379.411,84.1186 L379.521,84.1499 L379.083,85.228 L375.958,85.228 L375.958,85.1342 L377.38,83.6186 C378.057,82.879 378.406,82.1863 378.427,81.5405 C378.427,81.0926 378.255,80.7697 377.911,80.5717 C377.734,80.4676 377.531,80.4155 377.302,80.4155 C376.948,80.4155 376.672,80.5509 376.474,80.8217 C376.359,80.978 376.25,81.1915 376.146,81.4624 L375.974,81.4155 "/>
<path class="Fingering" d="M344.242,82.119 C344.367,82.119 344.549,82.1867 344.789,82.3221 C345.039,82.4784 345.252,82.5565 345.43,82.5565 C345.794,82.5565 346.081,82.395 346.289,82.0721 C346.414,81.8638 346.476,81.6294 346.476,81.369 C346.476,80.6086 346.023,80.1919 345.117,80.119 C345.023,80.1086 344.924,80.1034 344.82,80.1034 L344.82,79.994 C345.424,79.7961 345.82,79.5409 346.008,79.2284 C346.101,79.0617 346.148,78.8794 346.148,78.6815 C346.148,78.3273 346.002,78.0721 345.711,77.9159 C345.575,77.8534 345.43,77.8221 345.273,77.8221 C344.825,77.8221 344.456,78.0565 344.164,78.5252 C344.133,78.5669 344.107,78.6138 344.086,78.6659 L343.961,78.6346 C344.211,77.9575 344.575,77.5461 345.055,77.4002 C345.2,77.3586 345.362,77.3377 345.539,77.3377 C346.018,77.3377 346.372,77.5044 346.601,77.8377 C346.726,78.0148 346.789,78.2127 346.789,78.4315 C346.789,78.7544 346.638,79.0461 346.336,79.3065 C346.242,79.3794 346.143,79.4575 346.039,79.5409 C346.518,79.7492 346.825,80.0357 346.961,80.4002 C347.023,80.5773 347.055,80.7752 347.055,80.994 C347.055,81.6294 346.789,82.1242 346.258,82.4784 C345.862,82.7284 345.393,82.8534 344.851,82.8534 C344.362,82.8534 344.07,82.744 343.976,82.5252 C343.956,82.4836 343.945,82.4419 343.945,82.4002 C343.945,82.244 344.023,82.1555 344.18,82.1346 C344.2,82.1242 344.221,82.119 344.242,82.119"/>
<path class="Fingering" d="M306.382,75.5256 C306.268,75.5256 306.075,75.5829 305.804,75.6975 L305.804,75.5881 L307.242,74.8537 L307.304,74.8694 L307.304,79.6662 C307.304,79.8746 307.367,80.01 307.492,80.0725 C307.596,80.1142 307.788,80.135 308.07,80.135 L308.07,80.26 L305.851,80.26 L305.851,80.135 C306.205,80.1246 306.429,80.0621 306.523,79.9475 C306.585,79.8537 306.617,79.7079 306.617,79.51 L306.617,75.9006 C306.606,75.6506 306.528,75.5256 306.382,75.5256"/>
<path class="Fingering" d="M279.606,73.9635 C279.846,72.9427 280.372,72.4166 281.185,72.3854 C281.216,72.3854 281.242,72.3854 281.263,72.3854 C281.752,72.3854 282.143,72.5625 282.435,72.9166 C282.643,73.177 282.747,73.4687 282.747,73.7916 C282.747,74.3854 282.429,75.026 281.794,75.7135 C281.773,75.7343 281.747,75.7552 281.716,75.776 L280.388,77.1979 L282.294,77.1979 C282.502,77.1979 282.664,77.1406 282.778,77.026 C282.851,76.9531 282.94,76.8333 283.044,76.6666 L283.153,76.6979 L282.716,77.776 L279.591,77.776 L279.591,77.6822 L281.013,76.1666 C281.69,75.427 282.039,74.7343 282.06,74.0885 C282.06,73.6406 281.888,73.3177 281.544,73.1197 C281.367,73.0156 281.164,72.9635 280.935,72.9635 C280.58,72.9635 280.304,73.0989 280.106,73.3697 C279.992,73.526 279.882,73.7395 279.778,74.0104 L279.606,73.9635 "/>
<path class="Fingering" d="M242.137,75.5256 C242.023,75.5256 241.83,75.5829 241.559,75.6975 L241.559,75.5881 L242.997,74.8537 L243.059,74.8694 L243.059,79.6662 C243.059,79.8746 243.122,80.01 243.247,80.0725 C243.351,80.1142 243.543,80.135 243.825,80.135 L243.825,80.26 L241.606,80.26 L241.606,80.135 C241.96,80.1246 242.184,80.0621 242.278,79.9475 C242.34,79.8537 242.372,79.7079 242.372,79.51 L242.372,75.9006 C242.361,75.6506 242.283,75.5256 242.137,75.5256"/>
<path class="Fingering" d="M215.752,82.119 C215.877,82.119 216.059,82.1867 216.299,82.3221 C216.549,82.4784 216.762,82.5565 216.94,82.5565 C217.304,82.5565 217.591,82.395 217.799,82.0721 C217.924,81.8638 217.986,81.6294 217.986,81.369 C217.986,80.6086 217.533,80.1919 216.627,80.119 C216.533,80.1086 216.434,80.1034 216.33,80.1034 L216.33,79.994 C216.934,79.7961 217.33,79.5409 217.518,79.2284 C217.611,79.0617 217.658,78.8794 217.658,78.6815 C217.658,78.3273 217.512,78.0721 217.221,77.9159 C217.085,77.8534 216.94,77.8221 216.783,77.8221 C216.335,77.8221 215.966,78.0565 215.674,78.5252 C215.643,78.5669 215.617,78.6138 215.596,78.6659 L215.471,78.6346 C215.721,77.9575 216.085,77.5461 216.565,77.4002 C216.71,77.3586 216.872,77.3377 217.049,77.3377 C217.528,77.3377 217.882,77.5044 218.111,77.8377 C218.236,78.0148 218.299,78.2127 218.299,78.4315 C218.299,78.7544 218.148,79.0461 217.846,79.3065 C217.752,79.3794 217.653,79.4575 217.549,79.5409 C218.028,79.7492 218.335,80.0357 218.471,80.4002 C218.533,80.5773 218.565,80.7752 218.565,80.994 C218.565,81.6294 218.299,82.1242 217.768,82.4784 C217.372,82.7284 216.903,82.8534 216.361,82.8534 C215.872,82.8534 215.58,82.744 215.486,82.5252 C215.466,82.4836 215.455,82.4419 215.455,82.4002 C215.455,82.244 215.533,82.1555 215.69,82.1346 C215.71,82.1242 215.731,82.119 215.752,82.119"/>
<path class="Fingering" d="M183.239,81.4155 C183.478,80.3947 184.005,79.8686 184.817,79.8374 C184.848,79.8374 184.874,79.8374 184.895,79.8374 C185.385,79.8374 185.775,80.0145 186.067,80.3686 C186.275,80.629 186.38,80.9207 186.38,81.2436 C186.38,81.8374 186.062,82.478 185.426,83.1655 C185.406,83.1863 185.38,83.2072 185.348,83.228 L184.02,84.6499 L185.926,84.6499 C186.135,84.6499 186.296,84.5926 186.411,84.478 C186.484,84.4051 186.572,84.2853 186.676,84.1186 L186.786,84.1499 L186.348,85.228 L183.223,85.228 L183.223,85.1342 L184.645,83.6186 C185.322,82.879 185.671,82.1863 185.692,81.5405 C185.692,81.0926 185.52,80.7697 185.176,80.5717 C184.999,80.4676 184.796,80.4155 184.567,80.4155 C184.213,80.4155 183.937,80.5509 183.739,80.8217 C183.624,80.978 183.515,81.1915 183.411,81.4624 L183.239,81.4155 "/>
<path class="Fingering" d="M152.866,87.8214 C152.273,87.8214 151.809,87.5141 151.476,86.8995 C151.195,86.3995 151.054,85.7745 151.054,85.0245 C151.054,84.1287 151.262,83.4255 151.679,82.9151 C152.012,82.5193 152.418,82.3162 152.898,82.3057 C153.46,82.3057 153.903,82.5922 154.226,83.1651 C154.528,83.6755 154.679,84.311 154.679,85.0714 C154.679,86.0401 154.455,86.7797 154.007,87.2901 C153.684,87.6443 153.304,87.8214 152.866,87.8214 M152.866,82.5089 C152.221,82.5089 151.872,83.2797 151.82,84.8214 C151.82,84.9151 151.82,85.0089 151.82,85.1026 C151.83,86.7693 152.179,87.6078 152.866,87.6182 C153.554,87.6078 153.898,86.7641 153.898,85.087 C153.898,83.5662 153.627,82.7172 153.085,82.5401 C153.012,82.5193 152.939,82.5089 152.866,82.5089"/>
<path class="Fingering" d="M119.385,89.571 C119.51,89.571 119.692,89.6387 119.931,89.7741 C120.181,89.9304 120.395,90.0085 120.572,90.0085 C120.937,90.0085 121.223,89.847 121.431,89.5241 C121.556,89.3158 121.619,89.0814 121.619,88.821 C121.619,88.0606 121.166,87.6439 120.26,87.571 C120.166,87.5606 120.067,87.5554 119.963,87.5554 L119.963,87.446 C120.567,87.2481 120.963,86.9929 121.15,86.6804 C121.244,86.5137 121.291,86.3314 121.291,86.1335 C121.291,85.7793 121.145,85.5241 120.853,85.3679 C120.718,85.3054 120.572,85.2741 120.416,85.2741 C119.968,85.2741 119.598,85.5085 119.306,85.9772 C119.275,86.0189 119.249,86.0658 119.228,86.1179 L119.103,86.0866 C119.353,85.4095 119.718,84.9981 120.197,84.8522 C120.343,84.8106 120.504,84.7897 120.681,84.7897 C121.161,84.7897 121.515,84.9564 121.744,85.2897 C121.869,85.4668 121.931,85.6647 121.931,85.8835 C121.931,86.2064 121.78,86.4981 121.478,86.7585 C121.385,86.8314 121.286,86.9095 121.181,86.9929 C121.661,87.2012 121.968,87.4877 122.103,87.8522 C122.166,88.0293 122.197,88.2272 122.197,88.446 C122.197,89.0814 121.931,89.5762 121.4,89.9304 C121.004,90.1804 120.536,90.3054 119.994,90.3054 C119.504,90.3054 119.213,90.196 119.119,89.9772 C119.098,89.9356 119.088,89.8939 119.088,89.8522 C119.088,89.696 119.166,89.6075 119.322,89.5866 C119.343,89.5762 119.364,89.571 119.385,89.571"/>
<path class="Fingering" d="M86.8714,88.8675 C87.111,87.8467 87.637,87.3206 88.4495,87.2894 C88.4808,87.2894 88.5068,87.2894 88.5277,87.2894 C89.0172,87.2894 89.4079,87.4665 89.6995,87.8206 C89.9079,88.081 90.012,88.3727 90.012,88.6956 C90.012,89.2894 89.6943,89.93 89.0589,90.6175 C89.0381,90.6383 89.012,90.6592 88.9808,90.68 L87.6527,92.1019 L89.5589,92.1019 C89.7672,92.1019 89.9287,92.0446 90.0433,91.93 C90.1162,91.8571 90.2047,91.7373 90.3089,91.5706 L90.4183,91.6019 L89.9808,92.68 L86.8558,92.68 L86.8558,92.5862 L88.2777,91.0706 C88.9547,90.331 89.3037,89.6383 89.3245,88.9925 C89.3245,88.5446 89.1527,88.2217 88.8089,88.0237 C88.6318,87.9196 88.4287,87.8675 88.1995,87.8675 C87.8454,87.8675 87.5693,88.0029 87.3714,88.2737 C87.2568,88.43 87.1475,88.6435 87.0433,88.9144 L86.8714,88.8675 "/>
<path class="Fingering" d="M56.4989,95.2734 C55.9052,95.2734 55.4416,94.9661 55.1083,94.3515 C54.827,93.8515 54.6864,93.2265 54.6864,92.4765 C54.6864,91.5807 54.8947,90.8775 55.3114,90.3671 C55.6447,89.9713 56.051,89.7682 56.5302,89.7577 C57.0927,89.7577 57.5354,90.0442 57.8583,90.6171 C58.1604,91.1275 58.3114,91.763 58.3114,92.5234 C58.3114,93.4921 58.0875,94.2317 57.6395,94.7421 C57.3166,95.0963 56.9364,95.2734 56.4989,95.2734 M56.4989,89.9609 C55.8531,89.9609 55.5041,90.7317 55.452,92.2734 C55.452,92.3671 55.452,92.4609 55.452,92.5546 C55.4625,94.2213 55.8114,95.0598 56.4989,95.0702 C57.1864,95.0598 57.5302,94.2161 57.5302,92.539 C57.5302,91.0182 57.2593,90.1692 56.7177,89.9921 C56.6447,89.9713 56.5718,89.9609 56.4989,89.9609"/>
<path class="Tempo" d="M54.7395,40.4371 C54.5364,40.2809 54.2864,40.1871 53.9739,40.1871 C52.7864,40.1871 51.8332,41.0621 51.8332,41.9996 C51.8332,42.5621 52.2864,42.9059 52.8801,42.9059 C53.8332,42.9059 55.0207,41.9996 55.0207,41.0934 L55.0207,34.9527 L54.7395,34.9527 L54.7395,40.4371 "/>
<path class="Tempo" d="M65.3801,39.0152 L58.7707,39.0152 L58.7707,37.859 L65.3801,37.859 L65.3801,39.0152 M65.3801,41.9371 L58.7707,41.9371 L58.7707,40.7965 L65.3801,40.7965 L65.3801,41.9371 M70.8176,36.0465 C70.6926,36.0465 70.3749,36.1402 69.8645,36.3277 C69.8332,36.3382 69.8124,36.3486 69.802,36.359 L69.802,36.0465 L72.8176,34.734 L73.0207,34.734 L73.0207,41.5621 C73.0207,42.0517 73.1197,42.3642 73.3176,42.4996 C73.4947,42.6246 73.828,42.6923 74.3176,42.7027 L74.3176,42.984 L69.8176,42.984 L69.8176,42.7027 C70.4739,42.6923 70.8853,42.5882 71.052,42.3902 C71.1874,42.2236 71.2551,41.9267 71.2551,41.4996 L71.2551,36.8746 C71.2447,36.333 71.0989,36.0569 70.8176,36.0465 M75.302,38.9059 C75.302,37.5934 75.6145,36.5309 76.2395,35.7184 C76.7499,35.0725 77.3437,34.7444 78.0207,34.734 C78.802,34.734 79.4478,35.1402 79.9582,35.9527 C80.4687,36.7652 80.7239,37.76 80.7239,38.9371 C80.7239,40.3121 80.4062,41.4059 79.7707,42.2184 C79.2707,42.8225 78.6926,43.1298 78.0364,43.1402 C77.203,43.1402 76.5312,42.7132 76.0207,41.859 C75.5416,41.0673 75.302,40.083 75.302,38.9059 M78.0364,42.7965 C78.3905,42.7965 78.6249,42.4736 78.7395,41.8277 C78.802,41.4423 78.8332,40.9423 78.8332,40.3277 L78.8332,37.5777 C78.8332,36.1402 78.6405,35.3225 78.2551,35.1246 C78.1822,35.083 78.0989,35.0621 78.0051,35.0621 C77.6405,35.0621 77.401,35.3955 77.2864,36.0621 C77.2343,36.4371 77.2082,36.9423 77.2082,37.5777 L77.2082,40.3277 C77.2082,41.6819 77.3749,42.4736 77.7082,42.7027 C77.802,42.7652 77.9114,42.7965 78.0364,42.7965 M81.302,38.9059 C81.302,37.5934 81.6145,36.5309 82.2395,35.7184 C82.7499,35.0725 83.3437,34.7444 84.0207,34.734 C84.802,34.734 85.4478,35.1402 85.9582,35.9527 C86.4687,36.7652 86.7239,37.76 86.7239,38.9371 C86.7239,40.3121 86.4062,41.4059 85.7707,42.2184 C85.2707,42.8225 84.6926,43.1298 84.0364,43.1402 C83.203,43.1402 82.5312,42.7132 82.0207,41.859 C81.5416,41.0673 81.302,40.083 81.302,38.9059 M84.0364,42.7965 C84.3905,42.7965 84.6249,42.4736 84.7395,41.8277 C84.802,41.4423 84.8332,40.9423 84.8332,40.3277 L84.8332,37.5777 C84.8332,36.1402 84.6405,35.3225 84.2551,35.1246 C84.1822,35.083 84.0989,35.0621 84.0051,35.0621 C83.6405,35.0621 83.401,35.3955 83.2864,36.0621 C83.2343,36.4371 83.2082,36.9423 83.2082,37.5777 L83.2082,40.3277 C83.2082,41.6819 83.3749,42.4736 83.7082,42.7027 C83.802,42.7652 83.9114,42.7965 84.0364,42.7965"/>
<path class="StaffText" d="M64.811,25.2057 C65.259,25.2057 65.759,25.3203 66.311,25.5495 C66.5506,25.6432 66.7225,25.6901 66.8267,25.6901 C66.9725,25.6901 67.1027,25.5807 67.2173,25.362 C67.2277,25.3203 67.2433,25.2787 67.2642,25.237 L67.5298,25.237 L67.5298,27.5807 L67.2798,27.5807 C67.009,26.9766 66.7277,26.5339 66.436,26.2526 C66.3735,26.1901 66.3162,26.138 66.2642,26.0964 C65.8371,25.7214 65.3944,25.5339 64.936,25.5339 C63.936,25.5339 63.3423,26.2526 63.1548,27.6901 C63.1235,28.013 63.1079,28.362 63.1079,28.737 C63.1079,29.9245 63.3215,30.7943 63.7485,31.3464 C64.0819,31.763 64.5402,31.9714 65.1235,31.9714 C65.686,31.9714 66.0037,31.7943 66.0767,31.4401 C66.0871,31.3776 66.0923,31.3099 66.0923,31.237 L66.0923,30.1901 C66.0923,29.8985 66.0194,29.711 65.8735,29.6276 C65.7277,29.5547 65.4621,29.5078 65.0767,29.487 L65.0767,29.237 L68.5142,29.237 L68.5142,29.487 C68.1079,29.5287 67.8579,29.6172 67.7642,29.7526 C67.6912,29.8672 67.6548,30.086 67.6548,30.4089 L67.6548,31.6745 C67.061,32.0287 66.2746,32.237 65.2954,32.2995 C65.16,32.2995 65.0246,32.2995 64.8892,32.2995 C63.7746,32.2995 62.884,31.9401 62.2173,31.2214 C61.6235,30.5755 61.3267,29.7682 61.3267,28.7995 C61.3267,27.7578 61.6704,26.8932 62.3579,26.2057 C63.0246,25.5391 63.8423,25.2057 64.811,25.2057 M72.5767,28.8307 C72.3579,28.8307 72.1444,28.711 71.936,28.4714 C71.8215,28.3255 71.7381,28.2474 71.686,28.237 C71.4673,28.237 71.3006,28.388 71.186,28.6901 C71.1131,28.8464 71.0767,29.013 71.0767,29.1901 L71.0767,31.0807 C71.0767,31.4453 71.1496,31.6693 71.2954,31.7526 C71.3892,31.8151 71.561,31.8568 71.811,31.8776 L71.811,32.112 L69.1704,32.112 L69.1704,31.8776 C69.4412,31.8255 69.6027,31.7318 69.6548,31.5964 C69.6756,31.5235 69.686,31.4141 69.686,31.2682 L69.686,28.3307 C69.686,28.0703 69.6131,27.9037 69.4673,27.8307 C69.3944,27.7891 69.2954,27.7578 69.1704,27.737 L69.1704,27.5026 L71.0454,27.5026 L71.0454,28.3307 C71.4204,27.7787 71.7902,27.4714 72.1548,27.4089 C72.2381,27.388 72.3162,27.3776 72.3892,27.3776 C72.7329,27.3776 72.9777,27.5182 73.1235,27.7995 C73.1756,27.9141 73.2017,28.0339 73.2017,28.1589 C73.2017,28.4714 73.0767,28.6797 72.8267,28.7839 C72.7433,28.8151 72.66,28.8307 72.5767,28.8307 M74.4517,28.0807 C74.4517,28.112 74.5037,28.2057 74.6079,28.362 C74.7017,28.5078 74.7485,28.6328 74.7485,28.737 C74.7485,28.9974 74.6183,29.1745 74.3579,29.2682 C74.2642,29.2995 74.1704,29.3151 74.0767,29.3151 C73.7121,29.3151 73.4985,29.1537 73.436,28.8307 C73.4256,28.7682 73.4204,28.711 73.4204,28.6589 C73.4204,28.1901 73.6756,27.8412 74.186,27.612 C74.509,27.4557 74.884,27.3776 75.311,27.3776 C76.186,27.3776 76.785,27.6172 77.1079,28.0964 C77.2329,28.2943 77.2954,28.5182 77.2954,28.7682 L77.2954,31.3464 C77.3058,31.5026 77.3735,31.586 77.4985,31.5964 C77.5506,31.586 77.5871,31.5703 77.6079,31.5495 L77.7173,31.4557 L77.8579,31.6589 C77.4621,32.0339 77.0923,32.2318 76.7485,32.2526 C76.3735,32.2526 76.1287,32.112 76.0142,31.8307 C75.9829,31.737 75.9517,31.638 75.9204,31.5339 C75.3787,32.0026 74.8527,32.2422 74.3423,32.2526 C73.9048,32.2526 73.5871,32.086 73.3892,31.7526 C73.285,31.586 73.2329,31.4037 73.2329,31.2057 C73.2329,30.6224 73.6808,30.1485 74.5767,29.7839 C74.8162,29.6797 75.2642,29.5287 75.9204,29.3307 L75.9204,28.5964 C75.9204,28.0651 75.7017,27.7735 75.2642,27.7214 C75.2017,27.7214 75.1392,27.7214 75.0767,27.7214 C74.785,27.7214 74.5871,27.8047 74.4829,27.9714 C74.4621,28.0026 74.4517,28.0391 74.4517,28.0807 M75.9048,31.0964 L75.9048,29.6589 C75.1027,29.8776 74.6965,30.2787 74.686,30.862 C74.686,31.1953 74.7954,31.4037 75.0142,31.487 C75.0767,31.5078 75.1392,31.5182 75.2017,31.5182 C75.4308,31.5182 75.6652,31.3776 75.9048,31.0964 M81.3735,32.237 L81.3735,31.5964 C81.0194,31.9714 80.6756,32.1849 80.3423,32.237 C80.2485,32.2474 80.1496,32.2526 80.0454,32.2526 C79.4517,32.2526 78.9829,31.9766 78.6392,31.4245 C78.3683,30.9974 78.2329,30.4922 78.2329,29.9089 C78.2329,29.0547 78.4777,28.3828 78.9673,27.8932 C79.3006,27.5495 79.6965,27.3776 80.1548,27.3776 C80.509,27.3776 80.8319,27.513 81.1235,27.7839 C81.2069,27.8568 81.2798,27.9245 81.3423,27.987 L81.3423,26.1745 C81.3423,25.9245 81.285,25.7682 81.1704,25.7057 C81.0662,25.6537 80.8683,25.6172 80.5767,25.5964 L80.5767,25.362 L82.7329,25.362 L82.7329,31.112 C82.7329,31.3932 82.8162,31.5651 82.9829,31.6276 C83.0662,31.6589 83.1808,31.6797 83.3267,31.6901 L83.3267,31.9245 L82.7017,32.0026 C82.1496,32.0755 81.7069,32.1537 81.3735,32.237 M80.4985,31.7057 C80.7902,31.7057 81.0402,31.5391 81.2485,31.2057 C81.3006,31.112 81.3319,31.0443 81.3423,31.0026 L81.3423,28.5495 C81.2173,28.2162 81.009,28.0182 80.7173,27.9557 C80.6652,27.9453 80.6131,27.9401 80.561,27.9401 C80.0506,27.9401 79.7694,28.4453 79.7173,29.4557 C79.7173,29.5703 79.7173,29.6953 79.7173,29.8307 C79.7173,31.0703 79.9777,31.6953 80.4985,31.7057 M85.6704,29.6589 C85.7225,30.6797 85.9881,31.2787 86.4673,31.4557 C86.5923,31.4974 86.7225,31.5182 86.8579,31.5182 C87.2225,31.5182 87.5558,31.3516 87.8579,31.0182 C87.91,30.9662 87.9569,30.9141 87.9985,30.862 L88.2329,31.0026 C87.8162,31.6068 87.4048,31.987 86.9985,32.1432 C86.7902,32.2162 86.5558,32.2526 86.2954,32.2526 C85.5454,32.2526 84.9829,31.9453 84.6079,31.3307 C84.3579,30.9141 84.2329,30.4141 84.2329,29.8307 C84.2329,28.9349 84.5037,28.263 85.0454,27.8151 C85.41,27.5235 85.8371,27.3776 86.3267,27.3776 C87.4308,27.3776 88.0506,28.0964 88.186,29.5339 C88.186,29.5755 88.186,29.6172 88.186,29.6589 L85.6704,29.6589 M86.9673,29.1432 C86.9465,28.5182 86.8787,28.1224 86.7642,27.9557 C86.6704,27.7995 86.5246,27.7214 86.3267,27.7214 C86.035,27.7214 85.8371,27.8932 85.7329,28.237 C85.6704,28.4766 85.634,28.8307 85.6235,29.2995 L86.9673,29.2995 L86.9673,29.1432 M92.4829,26.3307 C92.3787,26.3307 92.1131,26.4089 91.686,26.5651 C91.6652,26.5755 91.6496,26.5807 91.6392,26.5807 L91.6392,26.3307 L94.1548,25.237 L94.3267,25.237 L94.3267,30.9401 C94.3267,31.3464 94.4048,31.6016 94.561,31.7057 C94.7069,31.8099 94.9881,31.8672 95.4048,31.8776 L95.4048,32.112 L91.6548,32.112 L91.6548,31.8776 C92.1965,31.8672 92.535,31.7839 92.6704,31.6276 C92.785,31.4818 92.8423,31.2318 92.8423,30.8776 L92.8423,27.0182 C92.8319,26.5703 92.7121,26.3412 92.4829,26.3307 M97.6392,30.5495 C97.9621,30.5495 98.2069,30.6901 98.3735,30.9714 C98.4569,31.1172 98.4985,31.263 98.4985,31.4089 C98.4985,31.7214 98.3579,31.961 98.0767,32.1276 C97.9308,32.2005 97.785,32.237 97.6392,32.237 C97.3058,32.237 97.061,32.0964 96.9048,31.8151 C96.8319,31.6797 96.7954,31.5391 96.7954,31.3932 C96.7954,31.0912 96.9308,30.8568 97.2017,30.6901 C97.3371,30.5964 97.4829,30.5495 97.6392,30.5495 M97.6392,27.3932 C97.9621,27.3932 98.2069,27.5287 98.3735,27.7995 C98.4569,27.9453 98.4985,28.0912 98.4985,28.237 C98.4985,28.5599 98.3579,28.8047 98.0767,28.9714 C97.9412,29.0443 97.7954,29.0807 97.6392,29.0807 C97.3058,29.0807 97.061,28.9349 96.9048,28.6432 C96.8319,28.5078 96.7954,28.3672 96.7954,28.2214 C96.7954,27.9193 96.9308,27.6849 97.2017,27.5182 C97.3371,27.4349 97.4829,27.3932 97.6392,27.3932"/>
<path class="StaffText" d="M109.045,31.9245 L109.045,32.112 L106.483,32.112 L106.483,31.9245 C106.9,31.9141 107.129,31.8412 107.17,31.7057 C107.181,31.6641 107.186,31.6224 107.186,31.5807 C107.186,31.4245 107.124,31.2057 106.999,30.9245 L106.592,29.987 L103.967,29.987 L103.514,31.1276 C103.462,31.2735 103.436,31.4037 103.436,31.5182 C103.446,31.7787 103.67,31.9141 104.108,31.9245 L104.108,32.112 L102.139,32.112 L102.139,31.9245 C102.379,31.9141 102.561,31.8307 102.686,31.6745 C102.832,31.4766 103.061,31.013 103.374,30.2839 L105.452,25.3776 L105.655,25.3776 L108.139,31.0495 C108.337,31.487 108.504,31.7474 108.639,31.8307 C108.733,31.8828 108.868,31.9141 109.045,31.9245 M104.139,29.5495 L106.452,29.5495 L105.295,26.7995 L104.139,29.5495 M113.561,28.6901 L113.561,31.0964 C113.561,31.4818 113.624,31.7214 113.749,31.8151 C113.842,31.888 114.009,31.9349 114.249,31.9557 L114.249,32.112 L112.077,32.112 L112.077,31.9557 C112.379,31.9245 112.566,31.8516 112.639,31.737 C112.691,31.6328 112.717,31.4193 112.717,31.0964 L112.717,26.3776 C112.717,26.1172 112.665,25.961 112.561,25.9089 C112.499,25.8776 112.4,25.862 112.264,25.862 C112.212,25.862 112.155,25.8672 112.092,25.8776 L112.092,25.7214 C112.571,25.5964 113.045,25.4505 113.514,25.2839 L113.561,25.3151 L113.561,28.3464 C113.946,27.8568 114.358,27.5807 114.795,27.5182 C114.868,27.5182 114.946,27.5182 115.03,27.5182 C115.842,27.5287 116.254,28.0547 116.264,29.0964 L116.264,31.0964 C116.264,31.4714 116.311,31.7057 116.405,31.7995 C116.478,31.8724 116.629,31.9245 116.858,31.9557 L116.858,32.112 L114.749,32.112 L114.749,31.9557 C115.061,31.9245 115.254,31.8412 115.327,31.7057 C115.389,31.5912 115.42,31.388 115.42,31.0964 L115.42,29.112 C115.41,28.4141 115.16,28.0599 114.67,28.0495 C114.347,28.0495 114.019,28.2162 113.686,28.5495 C113.644,28.6016 113.603,28.6485 113.561,28.6901 M117.233,31.1432 C117.233,30.6328 117.551,30.2005 118.186,29.8464 C118.374,29.7526 118.874,29.5391 119.686,29.2057 C119.707,29.2057 119.722,29.2005 119.733,29.1901 L119.733,28.5807 C119.681,28.0599 119.426,27.7839 118.967,27.7526 C118.655,27.7526 118.436,27.8516 118.311,28.0495 C118.269,28.1224 118.249,28.1849 118.249,28.237 C118.249,28.2995 118.259,28.3828 118.28,28.487 C118.29,28.5599 118.295,28.612 118.295,28.6432 C118.295,28.8203 118.207,28.9453 118.03,29.0182 C117.967,29.0495 117.91,29.0651 117.858,29.0651 C117.67,29.0651 117.54,28.9766 117.467,28.7995 C117.436,28.7474 117.42,28.6901 117.42,28.6276 C117.42,28.263 117.639,27.9662 118.077,27.737 C118.379,27.5912 118.722,27.5182 119.108,27.5182 C119.827,27.5182 120.269,27.7735 120.436,28.2839 C120.509,28.5026 120.545,28.7787 120.545,29.112 L120.545,31.0495 C120.545,31.3828 120.608,31.5703 120.733,31.612 C120.775,31.6224 120.811,31.6276 120.842,31.6276 C120.988,31.6172 121.134,31.5547 121.28,31.4401 L121.28,31.6901 C121.009,32.0026 120.759,32.1745 120.53,32.2057 C120.478,32.2057 120.426,32.2057 120.374,32.2057 C120.061,32.2057 119.863,32.0495 119.78,31.737 C119.759,31.6537 119.749,31.5599 119.749,31.4557 C119.155,31.9349 118.665,32.1849 118.28,32.2057 C117.853,32.2057 117.545,32.0339 117.358,31.6901 C117.275,31.5235 117.233,31.3412 117.233,31.1432 M119.733,30.862 L119.733,29.4245 C118.91,29.7266 118.405,30.0339 118.217,30.3464 C118.144,30.4922 118.108,30.6485 118.108,30.8151 C118.108,31.211 118.254,31.461 118.545,31.5651 C118.618,31.5964 118.686,31.612 118.749,31.612 C118.967,31.6016 119.207,31.5235 119.467,31.3776 C119.613,31.2943 119.696,31.1901 119.717,31.0651 C119.728,31.0026 119.733,30.9349 119.733,30.862 M123.999,28.487 C123.894,28.487 123.743,28.4037 123.545,28.237 C123.452,28.1537 123.379,28.112 123.327,28.112 C123.16,28.112 122.988,28.2422 122.811,28.5026 C122.696,28.6693 122.639,28.8151 122.639,28.9401 L122.639,31.2057 C122.639,31.5495 122.728,31.763 122.905,31.8464 C123.03,31.9089 123.222,31.9453 123.483,31.9557 L123.483,32.112 L121.077,32.112 L121.077,31.9557 C121.431,31.8932 121.644,31.8099 121.717,31.7057 C121.769,31.6224 121.795,31.4766 121.795,31.2682 L121.795,28.7526 C121.795,28.388 121.712,28.1901 121.545,28.1589 C121.514,28.1485 121.483,28.1432 121.452,28.1432 C121.337,28.1432 121.222,28.1589 121.108,28.1901 L121.108,28.0339 C121.639,27.8672 122.129,27.6953 122.577,27.5182 L122.639,27.5339 L122.639,28.4245 C122.983,27.9453 123.275,27.6589 123.514,27.5651 C123.618,27.5339 123.722,27.5182 123.827,27.5182 C124.139,27.5182 124.321,27.6485 124.374,27.9089 C124.374,27.9505 124.374,27.9974 124.374,28.0495 C124.342,28.3203 124.217,28.4662 123.999,28.487 M124.108,28.1589 L124.108,27.987 C124.587,27.8412 125.056,27.6849 125.514,27.5182 L125.577,27.5339 L125.577,28.2995 C126.15,27.862 126.561,27.612 126.811,27.5495 C126.915,27.5287 127.019,27.5182 127.124,27.5182 C127.655,27.5287 128.009,27.8151 128.186,28.3776 C128.717,27.8047 129.264,27.5182 129.827,27.5182 C130.587,27.5287 130.972,28.1276 130.983,29.3151 L130.983,31.362 C130.993,31.7266 131.134,31.9193 131.405,31.9401 L131.67,31.9557 L131.67,32.112 L129.483,32.112 L129.483,31.9557 C129.806,31.9245 129.999,31.8516 130.061,31.737 C130.113,31.6432 130.139,31.4818 130.139,31.2526 L130.139,29.1432 C130.139,28.5912 130.03,28.2578 129.811,28.1432 C129.707,28.0807 129.566,28.0495 129.389,28.0495 C128.941,28.0599 128.577,28.263 128.295,28.6589 L128.295,31.1745 C128.295,31.5495 128.384,31.7839 128.561,31.8776 C128.665,31.9297 128.816,31.9557 129.014,31.9557 L129.014,32.112 L126.78,32.112 L126.78,31.9557 C127.103,31.9349 127.301,31.862 127.374,31.737 C127.436,31.6432 127.467,31.4818 127.467,31.2526 L127.467,29.0964 C127.467,28.3985 127.243,28.0495 126.795,28.0495 C126.431,28.0495 126.108,28.1693 125.827,28.4089 C125.754,28.4818 125.686,28.5599 125.624,28.6432 L125.624,31.4401 C125.624,31.6901 125.712,31.8464 125.889,31.9089 C125.983,31.9401 126.118,31.9557 126.295,31.9557 L126.295,32.112 L124.077,32.112 L124.077,31.9557 C124.431,31.9557 124.644,31.8724 124.717,31.7057 C124.759,31.6016 124.78,31.4557 124.78,31.2682 L124.78,28.7526 C124.78,28.3776 124.702,28.1693 124.545,28.1276 C124.514,28.1172 124.478,28.112 124.436,28.112 C124.332,28.112 124.222,28.1276 124.108,28.1589 M134.436,27.5182 C135.176,27.5182 135.759,27.7891 136.186,28.3307 C136.488,28.737 136.639,29.2162 136.639,29.7682 C136.639,30.5495 136.384,31.1745 135.874,31.6432 C135.457,32.0182 134.972,32.2057 134.42,32.2057 C133.712,32.2057 133.15,31.9349 132.733,31.3932 C132.4,30.9557 132.233,30.4401 132.233,29.8464 C132.233,29.0339 132.509,28.4089 133.061,27.9714 C133.446,27.6693 133.905,27.5182 134.436,27.5182 M133.139,29.362 C133.139,30.2682 133.327,30.961 133.702,31.4401 C133.941,31.7526 134.222,31.9089 134.545,31.9089 C135.066,31.9089 135.426,31.612 135.624,31.0182 C135.707,30.7578 135.749,30.461 135.749,30.1276 C135.749,29.2422 135.535,28.586 135.108,28.1589 C134.879,27.9297 134.613,27.8151 134.311,27.8151 C133.842,27.8151 133.504,28.0547 133.295,28.5339 C133.191,28.7735 133.139,29.0495 133.139,29.362 M137.077,28.1276 L137.077,27.9557 C137.577,27.8099 138.04,27.6641 138.467,27.5182 L138.53,27.5339 L138.53,28.3151 C139.009,27.8776 139.384,27.6224 139.655,27.5495 C139.759,27.5287 139.868,27.5182 139.983,27.5182 C140.525,27.5182 140.884,27.7891 141.061,28.3307 C141.124,28.5287 141.155,28.7526 141.155,29.0026 L141.155,31.2995 C141.155,31.612 141.228,31.8047 141.374,31.8776 C141.467,31.9089 141.597,31.9349 141.764,31.9557 L141.764,32.112 L139.686,32.112 L139.686,31.9557 C139.988,31.9349 140.176,31.836 140.249,31.6589 C140.301,31.5443 140.327,31.3672 140.327,31.1276 L140.327,29.0339 C140.306,28.388 140.061,28.0599 139.592,28.0495 C139.342,28.0495 139.082,28.1641 138.811,28.3932 C138.738,28.4662 138.655,28.5443 138.561,28.6276 L138.561,31.4401 C138.561,31.6797 138.66,31.836 138.858,31.9089 C138.952,31.9297 139.071,31.9453 139.217,31.9557 L139.217,32.112 L137.108,32.112 L137.108,31.9557 C137.4,31.9349 137.582,31.8516 137.655,31.7057 C137.696,31.5912 137.717,31.4245 137.717,31.2057 L137.717,28.7214 C137.717,28.3568 137.644,28.1537 137.499,28.112 C137.457,28.0912 137.41,28.0807 137.358,28.0807 C137.233,28.0807 137.139,28.0964 137.077,28.1276 M142.608,28.1901 C142.452,28.1901 142.311,28.2005 142.186,28.2214 L142.186,28.0651 C142.655,27.9297 143.17,27.7474 143.733,27.5182 L143.764,27.5495 L143.764,31.0964 C143.764,31.4818 143.821,31.7214 143.936,31.8151 C144.03,31.888 144.222,31.9349 144.514,31.9557 L144.514,32.112 L142.139,32.112 L142.139,31.9557 C142.504,31.9349 142.733,31.8672 142.827,31.7526 C142.9,31.638 142.936,31.4193 142.936,31.0964 L142.936,28.7682 C142.936,28.4141 142.853,28.2214 142.686,28.1901 C142.655,28.1901 142.629,28.1901 142.608,28.1901 M143.264,25.2839 C143.483,25.2839 143.639,25.3828 143.733,25.5807 C143.764,25.6537 143.78,25.7266 143.78,25.7995 C143.78,26.0182 143.676,26.1745 143.467,26.2682 C143.394,26.2891 143.327,26.2995 143.264,26.2995 C143.045,26.2995 142.889,26.2005 142.795,26.0026 C142.775,25.9297 142.764,25.862 142.764,25.7995 C142.764,25.5807 142.858,25.4245 143.045,25.3307 C143.118,25.2995 143.191,25.2839 143.264,25.2839 M145.233,29.987 C145.233,29.1432 145.519,28.4818 146.092,28.0026 C146.488,27.6797 146.931,27.5182 147.42,27.5182 C147.972,27.5182 148.4,27.6693 148.702,27.9714 C148.879,28.1485 148.967,28.3412 148.967,28.5495 C148.967,28.7266 148.874,28.8516 148.686,28.9245 C148.613,28.9557 148.545,28.9714 148.483,28.9714 C148.275,28.9714 148.124,28.836 148.03,28.5651 C148.019,28.5443 148.014,28.5235 148.014,28.5026 L147.952,28.2839 C147.889,28.0339 147.775,27.888 147.608,27.8464 C147.535,27.8255 147.452,27.8151 147.358,27.8151 C146.858,27.8151 146.478,28.0547 146.217,28.5339 C146.071,28.8255 145.999,29.1641 145.999,29.5495 C145.999,30.2787 146.222,30.8255 146.67,31.1901 C146.931,31.388 147.222,31.487 147.545,31.487 C147.962,31.487 148.321,31.3203 148.624,30.987 C148.728,30.862 148.842,30.7162 148.967,30.5495 L149.108,30.6432 C148.733,31.362 148.316,31.8307 147.858,32.0495 C147.618,32.1537 147.379,32.2057 147.139,32.2057 C146.493,32.2057 145.988,31.9401 145.624,31.4089 C145.363,31.0026 145.233,30.5287 145.233,29.987 M152.108,28.1589 L152.108,27.987 C152.587,27.8412 153.056,27.6849 153.514,27.5182 L153.577,27.5339 L153.577,28.2995 C154.15,27.862 154.561,27.612 154.811,27.5495 C154.915,27.5287 155.019,27.5182 155.124,27.5182 C155.655,27.5287 156.009,27.8151 156.186,28.3776 C156.717,27.8047 157.264,27.5182 157.827,27.5182 C158.587,27.5287 158.972,28.1276 158.983,29.3151 L158.983,31.362 C158.993,31.7266 159.134,31.9193 159.405,31.9401 L159.67,31.9557 L159.67,32.112 L157.483,32.112 L157.483,31.9557 C157.806,31.9245 157.999,31.8516 158.061,31.737 C158.113,31.6432 158.139,31.4818 158.139,31.2526 L158.139,29.1432 C158.139,28.5912 158.03,28.2578 157.811,28.1432 C157.707,28.0807 157.566,28.0495 157.389,28.0495 C156.941,28.0599 156.577,28.263 156.295,28.6589 L156.295,31.1745 C156.295,31.5495 156.384,31.7839 156.561,31.8776 C156.665,31.9297 156.816,31.9557 157.014,31.9557 L157.014,32.112 L154.78,32.112 L154.78,31.9557 C155.103,31.9349 155.301,31.862 155.374,31.737 C155.436,31.6432 155.467,31.4818 155.467,31.2526 L155.467,29.0964 C155.467,28.3985 155.243,28.0495 154.795,28.0495 C154.431,28.0495 154.108,28.1693 153.827,28.4089 C153.754,28.4818 153.686,28.5599 153.624,28.6432 L153.624,31.4401 C153.624,31.6901 153.712,31.8464 153.889,31.9089 C153.983,31.9401 154.118,31.9557 154.295,31.9557 L154.295,32.112 L152.077,32.112 L152.077,31.9557 C152.431,31.9557 152.644,31.8724 152.717,31.7057 C152.759,31.6016 152.78,31.4557 152.78,31.2682 L152.78,28.7526 C152.78,28.3776 152.702,28.1693 152.545,28.1276 C152.514,28.1172 152.478,28.112 152.436,28.112 C152.332,28.112 152.222,28.1276 152.108,28.1589 M160.608,28.1901 C160.452,28.1901 160.311,28.2005 160.186,28.2214 L160.186,28.0651 C160.655,27.9297 161.17,27.7474 161.733,27.5182 L161.764,27.5495 L161.764,31.0964 C161.764,31.4818 161.821,31.7214 161.936,31.8151 C162.03,31.888 162.222,31.9349 162.514,31.9557 L162.514,32.112 L160.139,32.112 L160.139,31.9557 C160.504,31.9349 160.733,31.8672 160.827,31.7526 C160.9,31.638 160.936,31.4193 160.936,31.0964 L160.936,28.7682 C160.936,28.4141 160.853,28.2214 160.686,28.1901 C160.655,28.1901 160.629,28.1901 160.608,28.1901 M161.264,25.2839 C161.483,25.2839 161.639,25.3828 161.733,25.5807 C161.764,25.6537 161.78,25.7266 161.78,25.7995 C161.78,26.0182 161.676,26.1745 161.467,26.2682 C161.394,26.2891 161.327,26.2995 161.264,26.2995 C161.045,26.2995 160.889,26.2005 160.795,26.0026 C160.775,25.9297 160.764,25.862 160.764,25.7995 C160.764,25.5807 160.858,25.4245 161.045,25.3307 C161.118,25.2995 161.191,25.2839 161.264,25.2839 M163.077,28.1276 L163.077,27.9557 C163.577,27.8099 164.04,27.6641 164.467,27.5182 L164.53,27.5339 L164.53,28.3151 C165.009,27.8776 165.384,27.6224 165.655,27.5495 C165.759,27.5287 165.868,27.5182 165.983,27.5182 C166.525,27.5182 166.884,27.7891 167.061,28.3307 C167.124,28.5287 167.155,28.7526 167.155,29.0026 L167.155,31.2995 C167.155,31.612 167.228,31.8047 167.374,31.8776 C167.467,31.9089 167.597,31.9349 167.764,31.9557 L167.764,32.112 L165.686,32.112 L165.686,31.9557 C165.988,31.9349 166.176,31.836 166.249,31.6589 C166.301,31.5443 166.327,31.3672 166.327,31.1276 L166.327,29.0339 C166.306,28.388 166.061,28.0599 165.592,28.0495 C165.342,28.0495 165.082,28.1641 164.811,28.3932 C164.738,28.4662 164.655,28.5443 164.561,28.6276 L164.561,31.4401 C164.561,31.6797 164.66,31.836 164.858,31.9089 C164.952,31.9297 165.071,31.9453 165.217,31.9557 L165.217,32.112 L163.108,32.112 L163.108,31.9557 C163.4,31.9349 163.582,31.8516 163.655,31.7057 C163.696,31.5912 163.717,31.4245 163.717,31.2057 L163.717,28.7214 C163.717,28.3568 163.644,28.1537 163.499,28.112 C163.457,28.0912 163.41,28.0807 163.358,28.0807 C163.233,28.0807 163.139,28.0964 163.077,28.1276 M170.436,27.5182 C171.176,27.5182 171.759,27.7891 172.186,28.3307 C172.488,28.737 172.639,29.2162 172.639,29.7682 C172.639,30.5495 172.384,31.1745 171.874,31.6432 C171.457,32.0182 170.972,32.2057 170.42,32.2057 C169.712,32.2057 169.15,31.9349 168.733,31.3932 C168.4,30.9557 168.233,30.4401 168.233,29.8464 C168.233,29.0339 168.509,28.4089 169.061,27.9714 C169.446,27.6693 169.905,27.5182 170.436,27.5182 M169.139,29.362 C169.139,30.2682 169.327,30.961 169.702,31.4401 C169.941,31.7526 170.222,31.9089 170.545,31.9089 C171.066,31.9089 171.426,31.612 171.624,31.0182 C171.707,30.7578 171.749,30.461 171.749,30.1276 C171.749,29.2422 171.535,28.586 171.108,28.1589 C170.879,27.9297 170.613,27.8151 170.311,27.8151 C169.842,27.8151 169.504,28.0547 169.295,28.5339 C169.191,28.7735 169.139,29.0495 169.139,29.362 M175.999,28.487 C175.894,28.487 175.743,28.4037 175.545,28.237 C175.452,28.1537 175.379,28.112 175.327,28.112 C175.16,28.112 174.988,28.2422 174.811,28.5026 C174.696,28.6693 174.639,28.8151 174.639,28.9401 L174.639,31.2057 C174.639,31.5495 174.728,31.763 174.905,31.8464 C175.03,31.9089 175.222,31.9453 175.483,31.9557 L175.483,32.112 L173.077,32.112 L173.077,31.9557 C173.431,31.8932 173.644,31.8099 173.717,31.7057 C173.769,31.6224 173.795,31.4766 173.795,31.2682 L173.795,28.7526 C173.795,28.388 173.712,28.1901 173.545,28.1589 C173.514,28.1485 173.483,28.1432 173.452,28.1432 C173.337,28.1432 173.222,28.1589 173.108,28.1901 L173.108,28.0339 C173.639,27.8672 174.129,27.6953 174.577,27.5182 L174.639,27.5339 L174.639,28.4245 C174.983,27.9453 175.275,27.6589 175.514,27.5651 C175.618,27.5339 175.722,27.5182 175.827,27.5182 C176.139,27.5182 176.321,27.6485 176.374,27.9089 C176.374,27.9505 176.374,27.9974 176.374,28.0495 C176.342,28.3203 176.217,28.4662 175.999,28.487 M181.655,27.7214 C181.676,27.711 181.733,27.6745 181.827,27.612 L181.936,27.612 L181.967,28.9714 L181.827,28.9714 C181.66,28.3255 181.42,27.9401 181.108,27.8151 C180.993,27.763 180.863,27.737 180.717,27.737 C180.363,27.737 180.124,27.8776 179.999,28.1589 C179.967,28.2422 179.952,28.3307 179.952,28.4245 C179.962,28.7057 180.108,28.9297 180.389,29.0964 L181.467,29.737 C181.946,30.0287 182.217,30.3464 182.28,30.6901 C182.29,30.763 182.295,30.8464 182.295,30.9401 C182.295,31.3568 182.113,31.6953 181.749,31.9557 C181.488,32.1224 181.202,32.2057 180.889,32.2057 C180.754,32.2057 180.446,32.1589 179.967,32.0651 C179.853,32.0443 179.764,32.0339 179.702,32.0339 C179.597,32.0443 179.519,32.086 179.467,32.1589 L179.342,32.1589 L179.342,30.5964 L179.499,30.5964 C179.603,31.0651 179.733,31.3932 179.889,31.5807 C180.108,31.8516 180.4,31.987 180.764,31.987 C181.191,31.987 181.457,31.8307 181.561,31.5182 C181.592,31.4453 181.608,31.362 181.608,31.2682 C181.597,30.9662 181.42,30.7162 181.077,30.5182 L180.499,30.1901 C179.874,29.836 179.504,29.4818 179.389,29.1276 C179.347,29.0026 179.327,28.8776 179.327,28.7526 C179.327,28.2839 179.53,27.9349 179.936,27.7057 C180.165,27.5807 180.415,27.5182 180.686,27.5182 C180.905,27.5182 181.165,27.5703 181.467,27.6745 C181.551,27.7057 181.613,27.7214 181.655,27.7214 M183.233,29.987 C183.233,29.1432 183.519,28.4818 184.092,28.0026 C184.488,27.6797 184.931,27.5182 185.42,27.5182 C185.972,27.5182 186.4,27.6693 186.702,27.9714 C186.879,28.1485 186.967,28.3412 186.967,28.5495 C186.967,28.7266 186.874,28.8516 186.686,28.9245 C186.613,28.9557 186.545,28.9714 186.483,28.9714 C186.275,28.9714 186.124,28.836 186.03,28.5651 C186.019,28.5443 186.014,28.5235 186.014,28.5026 L185.952,28.2839 C185.889,28.0339 185.775,27.888 185.608,27.8464 C185.535,27.8255 185.452,27.8151 185.358,27.8151 C184.858,27.8151 184.478,28.0547 184.217,28.5339 C184.071,28.8255 183.999,29.1641 183.999,29.5495 C183.999,30.2787 184.222,30.8255 184.67,31.1901 C184.931,31.388 185.222,31.487 185.545,31.487 C185.962,31.487 186.321,31.3203 186.624,30.987 C186.728,30.862 186.842,30.7162 186.967,30.5495 L187.108,30.6432 C186.733,31.362 186.316,31.8307 185.858,32.0495 C185.618,32.1537 185.379,32.2057 185.139,32.2057 C184.493,32.2057 183.988,31.9401 183.624,31.4089 C183.363,31.0026 183.233,30.5287 183.233,29.987 M187.233,31.1432 C187.233,30.6328 187.551,30.2005 188.186,29.8464 C188.374,29.7526 188.874,29.5391 189.686,29.2057 C189.707,29.2057 189.722,29.2005 189.733,29.1901 L189.733,28.5807 C189.681,28.0599 189.426,27.7839 188.967,27.7526 C188.655,27.7526 188.436,27.8516 188.311,28.0495 C188.269,28.1224 188.249,28.1849 188.249,28.237 C188.249,28.2995 188.259,28.3828 188.28,28.487 C188.29,28.5599 188.295,28.612 188.295,28.6432 C188.295,28.8203 188.207,28.9453 188.03,29.0182 C187.967,29.0495 187.91,29.0651 187.858,29.0651 C187.67,29.0651 187.54,28.9766 187.467,28.7995 C187.436,28.7474 187.42,28.6901 187.42,28.6276 C187.42,28.263 187.639,27.9662 188.077,27.737 C188.379,27.5912 188.722,27.5182 189.108,27.5182 C189.827,27.5182 190.269,27.7735 190.436,28.2839 C190.509,28.5026 190.545,28.7787 190.545,29.112 L190.545,31.0495 C190.545,31.3828 190.608,31.5703 190.733,31.612 C190.775,31.6224 190.811,31.6276 190.842,31.6276 C190.988,31.6172 191.134,31.5547 191.28,31.4401 L191.28,31.6901 C191.009,32.0026 190.759,32.1745 190.53,32.2057 C190.478,32.2057 190.426,32.2057 190.374,32.2057 C190.061,32.2057 189.863,32.0495 189.78,31.737 C189.759,31.6537 189.749,31.5599 189.749,31.4557 C189.155,31.9349 188.665,32.1849 188.28,32.2057 C187.853,32.2057 187.545,32.0339 187.358,31.6901 C187.275,31.5235 187.233,31.3412 187.233,31.1432 M189.733,30.862 L189.733,29.4245 C188.91,29.7266 188.405,30.0339 188.217,30.3464 C188.144,30.4922 188.108,30.6485 188.108,30.8151 C188.108,31.211 188.254,31.461 188.545,31.5651 C188.618,31.5964 188.686,31.612 188.749,31.612 C188.967,31.6016 189.207,31.5235 189.467,31.3776 C189.613,31.2943 189.696,31.1901 189.717,31.0651 C189.728,31.0026 189.733,30.9349 189.733,30.862 M191.077,25.8776 L191.077,25.7214 C191.743,25.5547 192.275,25.4089 192.67,25.2839 L192.717,25.2995 L192.717,31.2682 C192.717,31.5807 192.78,31.7735 192.905,31.8464 C193.019,31.8985 193.207,31.9349 193.467,31.9557 L193.467,32.112 L191.108,32.112 L191.108,31.9557 C191.483,31.9245 191.712,31.836 191.795,31.6901 C191.847,31.5964 191.874,31.4453 191.874,31.237 L191.874,26.4714 C191.874,26.138 191.801,25.9453 191.655,25.8932 C191.592,25.8724 191.525,25.862 191.452,25.862 C191.316,25.862 191.191,25.8672 191.077,25.8776 M194.952,29.3464 C194.993,30.5235 195.379,31.2162 196.108,31.4245 C196.233,31.4662 196.368,31.487 196.514,31.487 C197.004,31.487 197.42,31.2787 197.764,30.862 C197.858,30.7474 197.957,30.612 198.061,30.4557 L198.217,30.5182 C197.853,31.4766 197.28,32.0287 196.499,32.1745 C196.363,32.1953 196.233,32.2057 196.108,32.2057 C195.368,32.2057 194.837,31.8932 194.514,31.2682 C194.327,30.8932 194.233,30.461 194.233,29.9714 C194.233,29.086 194.509,28.4141 195.061,27.9557 C195.426,27.6641 195.847,27.5182 196.327,27.5182 C197.243,27.5182 197.795,28.0391 197.983,29.0807 C198.004,29.1745 198.019,29.263 198.03,29.3464 L194.952,29.3464 M194.967,29.0495 L197.014,29.0495 C196.92,28.4766 196.754,28.1224 196.514,27.987 C196.389,27.9245 196.228,27.8932 196.03,27.8932 C195.436,27.8932 195.082,28.2682 194.967,29.0182 C194.967,29.0287 194.967,29.0391 194.967,29.0495 M203.436,27.5182 C204.176,27.5182 204.759,27.7891 205.186,28.3307 C205.488,28.737 205.639,29.2162 205.639,29.7682 C205.639,30.5495 205.384,31.1745 204.874,31.6432 C204.457,32.0182 203.972,32.2057 203.42,32.2057 C202.712,32.2057 202.15,31.9349 201.733,31.3932 C201.4,30.9557 201.233,30.4401 201.233,29.8464 C201.233,29.0339 201.509,28.4089 202.061,27.9714 C202.446,27.6693 202.905,27.5182 203.436,27.5182 M202.139,29.362 C202.139,30.2682 202.327,30.961 202.702,31.4401 C202.941,31.7526 203.222,31.9089 203.545,31.9089 C204.066,31.9089 204.426,31.612 204.624,31.0182 C204.707,30.7578 204.749,30.461 204.749,30.1276 C204.749,29.2422 204.535,28.586 204.108,28.1589 C203.879,27.9297 203.613,27.8151 203.311,27.8151 C202.842,27.8151 202.504,28.0547 202.295,28.5339 C202.191,28.7735 202.139,29.0495 202.139,29.362 M206.077,28.1276 L206.077,27.9557 C206.577,27.8099 207.04,27.6641 207.467,27.5182 L207.53,27.5339 L207.53,28.3151 C208.009,27.8776 208.384,27.6224 208.655,27.5495 C208.759,27.5287 208.868,27.5182 208.983,27.5182 C209.525,27.5182 209.884,27.7891 210.061,28.3307 C210.124,28.5287 210.155,28.7526 210.155,29.0026 L210.155,31.2995 C210.155,31.612 210.228,31.8047 210.374,31.8776 C210.467,31.9089 210.597,31.9349 210.764,31.9557 L210.764,32.112 L208.686,32.112 L208.686,31.9557 C208.988,31.9349 209.176,31.836 209.249,31.6589 C209.301,31.5443 209.327,31.3672 209.327,31.1276 L209.327,29.0339 C209.306,28.388 209.061,28.0599 208.592,28.0495 C208.342,28.0495 208.082,28.1641 207.811,28.3932 C207.738,28.4662 207.655,28.5443 207.561,28.6276 L207.561,31.4401 C207.561,31.6797 207.66,31.836 207.858,31.9089 C207.952,31.9297 208.071,31.9453 208.217,31.9557 L208.217,32.112 L206.108,32.112 L206.108,31.9557 C206.4,31.9349 206.582,31.8516 206.655,31.7057 C206.696,31.5912 206.717,31.4245 206.717,31.2057 L206.717,28.7214 C206.717,28.3568 206.644,28.1537 206.499,28.112 C206.457,28.0912 206.41,28.0807 206.358,28.0807 C206.233,28.0807 206.139,28.0964 206.077,28.1276 M211.952,29.3464 C211.993,30.5235 212.379,31.2162 213.108,31.4245 C213.233,31.4662 213.368,31.487 213.514,31.487 C214.004,31.487 214.42,31.2787 214.764,30.862 C214.858,30.7474 214.957,30.612 215.061,30.4557 L215.217,30.5182 C214.853,31.4766 214.28,32.0287 213.499,32.1745 C213.363,32.1953 213.233,32.2057 213.108,32.2057 C212.368,32.2057 211.837,31.8932 211.514,31.2682 C211.327,30.8932 211.233,30.461 211.233,29.9714 C211.233,29.086 211.509,28.4141 212.061,27.9557 C212.426,27.6641 212.847,27.5182 213.327,27.5182 C214.243,27.5182 214.795,28.0391 214.983,29.0807 C215.004,29.1745 215.019,29.263 215.03,29.3464 L211.952,29.3464 M211.967,29.0495 L214.014,29.0495 C213.92,28.4766 213.754,28.1224 213.514,27.987 C213.389,27.9245 213.228,27.8932 213.03,27.8932 C212.436,27.8932 212.082,28.2682 211.967,29.0182 C211.967,29.0287 211.967,29.0391 211.967,29.0495 M220.436,27.5182 C221.176,27.5182 221.759,27.7891 222.186,28.3307 C222.488,28.737 222.639,29.2162 222.639,29.7682 C222.639,30.5495 222.384,31.1745 221.874,31.6432 C221.457,32.0182 220.972,32.2057 220.42,32.2057 C219.712,32.2057 219.15,31.9349 218.733,31.3932 C218.4,30.9557 218.233,30.4401 218.233,29.8464 C218.233,29.0339 218.509,28.4089 219.061,27.9714 C219.446,27.6693 219.905,27.5182 220.436,27.5182 M219.139,29.362 C219.139,30.2682 219.327,30.961 219.702,31.4401 C219.941,31.7526 220.222,31.9089 220.545,31.9089 C221.066,31.9089 221.426,31.612 221.624,31.0182 C221.707,30.7578 221.749,30.461 221.749,30.1276 C221.749,29.2422 221.535,28.586 221.108,28.1589 C220.879,27.9297 220.613,27.8151 220.311,27.8151 C219.842,27.8151 219.504,28.0547 219.295,28.5339 C219.191,28.7735 219.139,29.0495 219.139,29.362 M223.233,29.987 C223.233,29.1432 223.519,28.4818 224.092,28.0026 C224.488,27.6797 224.931,27.5182 225.42,27.5182 C225.972,27.5182 226.4,27.6693 226.702,27.9714 C226.879,28.1485 226.967,28.3412 226.967,28.5495 C226.967,28.7266 226.874,28.8516 226.686,28.9245 C226.613,28.9557 226.545,28.9714 226.483,28.9714 C226.275,28.9714 226.124,28.836 226.03,28.5651 C226.019,28.5443 226.014,28.5235 226.014,28.5026 L225.952,28.2839 C225.889,28.0339 225.775,27.888 225.608,27.8464 C225.535,27.8255 225.452,27.8151 225.358,27.8151 C224.858,27.8151 224.478,28.0547 224.217,28.5339 C224.071,28.8255 223.999,29.1641 223.999,29.5495 C223.999,30.2787 224.222,30.8255 224.67,31.1901 C224.931,31.388 225.222,31.487 225.545,31.487 C225.962,31.487 226.321,31.3203 226.624,30.987 C226.728,30.862 226.842,30.7162 226.967,30.5495 L227.108,30.6432 C226.733,31.362 226.316,31.8307 225.858,32.0495 C225.618,32.1537 225.379,32.2057 225.139,32.2057 C224.493,32.2057 223.988,31.9401 223.624,31.4089 C223.363,31.0026 223.233,30.5287 223.233,29.987 M229.577,27.612 L229.577,27.9089 L228.561,27.9089 L228.561,30.7682 C228.561,31.3099 228.696,31.6068 228.967,31.6589 C228.999,31.6693 229.035,31.6745 229.077,31.6745 C229.285,31.6641 229.488,31.5443 229.686,31.3151 L229.811,31.4401 C229.488,31.9505 229.087,32.2057 228.608,32.2057 C228.025,32.1953 227.728,31.7735 227.717,30.9401 L227.717,27.9089 L227.186,27.9089 C227.165,27.888 227.155,27.8672 227.155,27.8464 C227.155,27.8047 227.196,27.763 227.28,27.7214 C227.561,27.5339 227.894,27.1693 228.28,26.6276 C228.29,26.6172 228.295,26.612 228.295,26.612 C228.4,26.4557 228.467,26.362 228.499,26.3307 C228.54,26.3412 228.561,26.3828 228.561,26.4557 L228.561,27.612 L229.577,27.612 M230.233,31.1432 C230.233,30.6328 230.551,30.2005 231.186,29.8464 C231.374,29.7526 231.874,29.5391 232.686,29.2057 C232.707,29.2057 232.722,29.2005 232.733,29.1901 L232.733,28.5807 C232.681,28.0599 232.426,27.7839 231.967,27.7526 C231.655,27.7526 231.436,27.8516 231.311,28.0495 C231.269,28.1224 231.249,28.1849 231.249,28.237 C231.249,28.2995 231.259,28.3828 231.28,28.487 C231.29,28.5599 231.295,28.612 231.295,28.6432 C231.295,28.8203 231.207,28.9453 231.03,29.0182 C230.967,29.0495 230.91,29.0651 230.858,29.0651 C230.67,29.0651 230.54,28.9766 230.467,28.7995 C230.436,28.7474 230.42,28.6901 230.42,28.6276 C230.42,28.263 230.639,27.9662 231.077,27.737 C231.379,27.5912 231.722,27.5182 232.108,27.5182 C232.827,27.5182 233.269,27.7735 233.436,28.2839 C233.509,28.5026 233.545,28.7787 233.545,29.112 L233.545,31.0495 C233.545,31.3828 233.608,31.5703 233.733,31.612 C233.775,31.6224 233.811,31.6276 233.842,31.6276 C233.988,31.6172 234.134,31.5547 234.28,31.4401 L234.28,31.6901 C234.009,32.0026 233.759,32.1745 233.53,32.2057 C233.478,32.2057 233.426,32.2057 233.374,32.2057 C233.061,32.2057 232.863,32.0495 232.78,31.737 C232.759,31.6537 232.749,31.5599 232.749,31.4557 C232.155,31.9349 231.665,32.1849 231.28,32.2057 C230.853,32.2057 230.545,32.0339 230.358,31.6901 C230.275,31.5235 230.233,31.3412 230.233,31.1432 M232.733,30.862 L232.733,29.4245 C231.91,29.7266 231.405,30.0339 231.217,30.3464 C231.144,30.4922 231.108,30.6485 231.108,30.8151 C231.108,31.211 231.254,31.461 231.545,31.5651 C231.618,31.5964 231.686,31.612 231.749,31.612 C231.967,31.6016 232.207,31.5235 232.467,31.3776 C232.613,31.2943 232.696,31.1901 232.717,31.0651 C232.728,31.0026 232.733,30.9349 232.733,30.862 M238.608,27.612 L238.608,27.7682 C238.441,27.7891 238.316,27.8568 238.233,27.9714 C238.16,28.0755 238.071,28.2682 237.967,28.5495 L236.686,31.7526 C236.551,32.0755 236.457,32.2422 236.405,32.2526 C236.332,32.2526 236.249,32.1068 236.155,31.8151 C236.144,31.8047 236.139,31.7943 236.139,31.7839 L234.936,28.9089 C234.686,28.3151 234.499,27.9662 234.374,27.862 C234.29,27.7995 234.176,27.7682 234.03,27.7682 L234.03,27.612 L235.999,27.612 L235.999,27.7682 C235.717,27.7891 235.566,27.862 235.545,27.987 C235.535,28.0078 235.53,28.0287 235.53,28.0495 C235.53,28.1641 235.561,28.2839 235.624,28.4089 L236.639,30.9714 L237.624,28.3776 C237.665,28.2839 237.686,28.1849 237.686,28.0807 C237.686,27.9037 237.54,27.7995 237.249,27.7682 C237.238,27.7682 237.228,27.7682 237.217,27.7682 L237.217,27.612 L238.608,27.612 M239.952,29.3464 C239.993,30.5235 240.379,31.2162 241.108,31.4245 C241.233,31.4662 241.368,31.487 241.514,31.487 C242.004,31.487 242.42,31.2787 242.764,30.862 C242.858,30.7474 242.957,30.612 243.061,30.4557 L243.217,30.5182 C242.853,31.4766 242.28,32.0287 241.499,32.1745 C241.363,32.1953 241.233,32.2057 241.108,32.2057 C240.368,32.2057 239.837,31.8932 239.514,31.2682 C239.327,30.8932 239.233,30.461 239.233,29.9714 C239.233,29.086 239.509,28.4141 240.061,27.9557 C240.426,27.6641 240.847,27.5182 241.327,27.5182 C242.243,27.5182 242.795,28.0391 242.983,29.0807 C243.004,29.1745 243.019,29.263 243.03,29.3464 L239.952,29.3464 M239.967,29.0495 L242.014,29.0495 C241.92,28.4766 241.754,28.1224 241.514,27.987 C241.389,27.9245 241.228,27.8932 241.03,27.8932 C240.436,27.8932 240.082,28.2682 239.967,29.0182 C239.967,29.0287 239.967,29.0391 239.967,29.0495"/>
</svg>
