<?xml version="1.0" encoding="UTF-8" standalone="no"?>
<svg width="595.44px" height="841.68px" viewBox="0 0 595.44 841.68"
 xmlns="http://www.w3.org/2000/svg" xmlns:xlink="http://www.w3.org/1999/xlink" version="1.2" baseProfile="tiny">
<title>Guitar Scales and Arpeggios</title>
<desc>Generated by MuseScore 2.1.0</desc>
<polyline class="StaffLines" fill="none" stroke="#000000" stroke-width="0.40" stroke-linejoin="bevel" points="28.08,62.856 567.36,62.856"/>
<polyline class="StaffLines" fill="none" stroke="#000000" stroke-width="0.40" stroke-linejoin="bevel" points="28.08,67.824 567.36,67.824"/>
<polyline class="StaffLines" fill="none" stroke="#000000" stroke-width="0.40" stroke-linejoin="bevel" points="28.08,72.792 567.36,72.792"/>
<polyline class="StaffLines" fill="none" stroke="#000000" stroke-width="0.40" stroke-linejoin="bevel" points="28.08,77.76 567.36,77.76"/>
<polyline class="StaffLines" fill="none" stroke="#000000" stroke-width="0.40" stroke-linejoin="bevel" points="28.08,82.728 567.36,82.728"/>
<polyline class="StaffLines" fill="none" stroke="#000000" stroke-width="0.40" stroke-linejoin="bevel" points="28.08,115.02 567.36,115.02"/>
<polyline class="StaffLines" fill="none" stroke="#000000" stroke-width="0.40" stroke-linejoin="bevel" points="28.08,122.472 567.36,122.472"/>
<polyline class="StaffLines" fill="none" stroke="#000000" stroke-width="0.40" stroke-linejoin="bevel" points="28.08,129.924 567.36,129.924"/>
<polyline class="StaffLines" fill="none" stroke="#000000" stroke-width="0.40" stroke-linejoin="bevel" points="28.08,137.376 567.36,137.376"/>
<polyline class="StaffLines" fill="none" stroke="#000000" stroke-width="0.40" stroke-linejoin="bevel" points="28.08,144.828 567.36,144.828"/>
<polyline class="StaffLines" fill="none" stroke="#000000" stroke-width="0.40" stroke-linejoin="bevel" points="28.08,152.28 567.36,152.28"/>
<polyline class="BarLine" fill="none" stroke="#000000" stroke-width="0.79" stroke-linejoin="bevel" points="28.4774,62.856 28.4774,152.28"/>
<polyline class="BarLine" fill="none" stroke="#000000" stroke-width="0.79" stroke-linejoin="bevel" points="562.491,115.02 562.491,152.28"/>
<polyline class="BarLine" fill="none" stroke="#000000" stroke-width="2.48" stroke-linejoin="bevel" points="566.118,115.02 566.118,152.28"/>
<polyline class="BarLine" fill="none" stroke="#000000" stroke-width="0.79" stroke-linejoin="bevel" points="562.491,62.856 562.491,82.728"/>
<polyline class="BarLine" fill="none" stroke="#000000" stroke-width="2.48" stroke-linejoin="bevel" points="566.118,62.856 566.118,82.728"/>
<polyline class="LedgerLine" fill="none" stroke="#000000" stroke-width="0.79" stroke-linecap="square" stroke-linejoin="bevel" points="491.305,87.696 501.186,87.696"/>
<polyline class="LedgerLine" fill="none" stroke="#000000" stroke-width="0.79" stroke-linecap="square" stroke-linejoin="bevel" points="491.305,92.664 501.186,92.664"/>
<polyline class="LedgerLine" fill="none" stroke="#000000" stroke-width="0.79" stroke-linecap="square" stroke-linejoin="bevel" points="448.286,87.696 457.807,87.696"/>
<polyline class="LedgerLine" fill="none" stroke="#000000" stroke-width="0.79" stroke-linecap="square" stroke-linejoin="bevel" points="102.692,87.696 112.213,87.696"/>
<polyline class="LedgerLine" fill="none" stroke="#000000" stroke-width="0.79" stroke-linecap="square" stroke-linejoin="bevel" points="59.4925,87.696 69.014,87.696"/>
<polyline class="LedgerLine" fill="none" stroke="#000000" stroke-width="0.79" stroke-linecap="square" stroke-linejoin="bevel" points="59.4925,92.664 69.014,92.664"/>
<polyline class="Stem" fill="none" stroke="#000000" stroke-width="0.65" stroke-linecap="round" stroke-linejoin="bevel" points="499.372,91.9009 499.372,72.792"/>
<polyline class="Stem" fill="none" stroke="#000000" stroke-width="0.65" stroke-linecap="round" stroke-linejoin="bevel" points="455.994,86.7629 455.994,70.308"/>
<polyline class="Stem" fill="none" stroke="#000000" stroke-width="0.65" stroke-linecap="round" stroke-linejoin="bevel" points="412.794,84.2789 412.794,67.824"/>
<polyline class="Stem" fill="none" stroke="#000000" stroke-width="0.65" stroke-linecap="round" stroke-linejoin="bevel" points="369.595,81.7949 369.595,65.34"/>
<polyline class="Stem" fill="none" stroke="#000000" stroke-width="0.65" stroke-linecap="round" stroke-linejoin="bevel" points="326.396,76.8269 326.396,60.993"/>
<polyline class="Stem" fill="none" stroke="#000000" stroke-width="0.65" stroke-linecap="round" stroke-linejoin="bevel" points="283.197,74.3429 283.197,59.13"/>
<polyline class="Stem" fill="none" stroke="#000000" stroke-width="0.65" stroke-linecap="round" stroke-linejoin="bevel" points="239.998,76.8269 239.998,60.993"/>
<polyline class="Stem" fill="none" stroke="#000000" stroke-width="0.65" stroke-linecap="round" stroke-linejoin="bevel" points="196.798,81.7949 196.798,65.34"/>
<polyline class="Stem" fill="none" stroke="#000000" stroke-width="0.65" stroke-linecap="round" stroke-linejoin="bevel" points="153.599,84.2789 153.599,67.824"/>
<polyline class="Stem" fill="none" stroke="#000000" stroke-width="0.65" stroke-linecap="round" stroke-linejoin="bevel" points="110.4,86.7629 110.4,70.308"/>
<polyline class="Stem" fill="none" stroke="#000000" stroke-width="0.65" stroke-linecap="round" stroke-linejoin="bevel" points="67.2007,91.7309 67.2007,72.792"/>
<path class="Note" fill="#ffffff" fill-rule="evenodd" d="M493.72,141.102 L499.682,141.102 L499.682,148.554 L493.72,148.554 L493.72,141.102 "/>
<path class="Note" transform="matrix(0.9936,0,0,0.9936,494.217,148.306)" d="M0.390625,-3.09375 C0.390625,-5 0.927083,-6.07813 2,-6.32813 C2.14583,-6.36979 2.30208,-6.39063 2.46875,-6.39063 C3.78125,-6.39063 4.47917,-5.40104 4.5625,-3.42188 C4.5625,-3.28646 4.5625,-3.15625 4.5625,-3.03125 C4.5625,-1.40625 4.15104,-0.385417 3.32813,0.03125 C3.06771,0.145833 2.78125,0.203125 2.46875,0.203125 C1.41667,0.203125 0.760417,-0.442708 0.5,-1.73438 C0.427083,-2.14063 0.390625,-2.59375 0.390625,-3.09375 M2.46875,-5.64063 C1.625,-5.63021 1.20313,-4.77083 1.20313,-3.0625 C1.20313,-1.32292 1.61979,-0.453125 2.45313,-0.453125 C3.16146,-0.453125 3.57813,-1.02604 3.70313,-2.17188 C3.73438,-2.44271 3.75,-2.75 3.75,-3.09375 C3.75,-4.79167 3.32292,-5.64063 2.46875,-5.64063"/>
<path class="Note" fill="#cc00ff" transform="matrix(0.9936,0,0,0.9936,492.796,92.664)" d="M6.3125,-1.3125 C6.3125,-1.53125 6.22917,-1.71875 6.0625,-1.875 C5.88542,-2.04167 5.6875,-2.125 5.46875,-2.125 C5.08333,-2.125 4.29688,-1.73438 3.10938,-0.953125 C1.88021,-0.161458 1.13021,0.40625 0.859375,0.75 C0.713542,0.927083 0.640625,1.11458 0.640625,1.3125 C0.640625,1.53125 0.729167,1.71875 0.90625,1.875 C1.0625,2.04167 1.25521,2.125 1.48438,2.125 C1.85938,2.125 2.65625,1.73438 3.875,0.953125 C5.07292,0.171875 5.8125,-0.395833 6.09375,-0.75 C6.23958,-0.916667 6.3125,-1.10417 6.3125,-1.3125 M5.28125,-2.75 C6.39583,-2.75 6.95313,-2.27083 6.95313,-1.3125 C6.95313,-0.84375 6.81771,-0.296875 6.54688,0.328125 C6.27604,0.942708 5.91146,1.41146 5.45313,1.73438 C4.45313,2.41146 3.19792,2.75 1.6875,2.75 C0.5625,2.75 0,2.27083 0,1.3125 C0,0.885417 0.135417,0.34375 0.40625,-0.3125 C0.666667,-0.9375 1.03125,-1.41146 1.5,-1.73438 C2.51042,-2.41146 3.77083,-2.75 5.28125,-2.75"/>
<path class="Note" fill="#ffffff" fill-rule="evenodd" d="M450.521,141.102 L456.483,141.102 L456.483,148.554 L450.521,148.554 L450.521,141.102 "/>
<path class="Note" transform="matrix(0.9936,0,0,0.9936,451.018,148.306)" d="M2.4375,-5.64063 C1.75,-5.64063 1.35417,-5.32813 1.25,-4.70313 C1.22917,-4.59896 1.21875,-4.47917 1.21875,-4.34375 L0.421875,-4.34375 C0.442708,-5.59375 1.01563,-6.27083 2.14063,-6.375 C2.23438,-6.38542 2.32813,-6.39063 2.42188,-6.39063 C3.26563,-6.39063 3.84375,-6.10938 4.15625,-5.54688 C4.29167,-5.28646 4.35938,-4.98438 4.35938,-4.64063 C4.35938,-4.00521 4.0625,-3.57292 3.46875,-3.34375 C4.03125,-3.14583 4.375,-2.81771 4.5,-2.35938 C4.54167,-2.19271 4.5625,-2.00521 4.5625,-1.79688 C4.5625,-1.05729 4.27604,-0.505208 3.70313,-0.140625 C3.33854,0.0885417 2.90104,0.203125 2.39063,0.203125 C1.21354,0.203125 0.526042,-0.348958 0.328125,-1.45313 C0.317708,-1.57813 0.302083,-1.71354 0.28125,-1.85938 L1.07813,-1.85938 C1.13021,-1.08854 1.46875,-0.65625 2.09375,-0.5625 C2.19792,-0.541667 2.30729,-0.53125 2.42188,-0.53125 C3.04688,-0.53125 3.45313,-0.765625 3.64063,-1.23438 C3.71354,-1.40104 3.75,-1.58854 3.75,-1.79688 C3.73958,-2.54688 3.29688,-2.92708 2.42188,-2.9375 L2.09375,-2.92188 L1.98438,-2.92188 L1.98438,-3.67188 C2.66146,-3.68229 3.10417,-3.77604 3.3125,-3.95313 C3.47917,-4.09896 3.5625,-4.31771 3.5625,-4.60938 C3.5625,-5.09896 3.34896,-5.41667 2.92188,-5.5625 C2.77604,-5.61458 2.61458,-5.64063 2.4375,-5.64063"/>
<path class="Note" fill="#ed2929" transform="matrix(0.9936,0,0,0.9936,449.776,87.696)" d="M4.39063,-2.75 C5.01563,-2.75 5.54688,-2.58854 5.98438,-2.26563 C6.38021,-1.91146 6.57813,-1.46875 6.57813,-0.9375 C6.57813,-0.0416667 6.11979,0.796875 5.20313,1.57813 C4.26563,2.35938 3.26042,2.75 2.1875,2.75 C1.5625,2.75 1.03646,2.58854 0.609375,2.26563 C0.203125,1.91146 0,1.46875 0,0.9375 C0,0.0416667 0.46875,-0.796875 1.40625,-1.57813 C2.32292,-2.35938 3.31771,-2.75 4.39063,-2.75"/>
<path class="Note" fill="#ffffff" fill-rule="evenodd" d="M407.322,133.65 L413.284,133.65 L413.284,141.102 L407.322,141.102 L407.322,133.65 "/>
<path class="Note" transform="matrix(0.9936,0,0,0.9936,407.819,140.854)" d="M0.390625,-3.09375 C0.390625,-5 0.927083,-6.07813 2,-6.32813 C2.14583,-6.36979 2.30208,-6.39063 2.46875,-6.39063 C3.78125,-6.39063 4.47917,-5.40104 4.5625,-3.42188 C4.5625,-3.28646 4.5625,-3.15625 4.5625,-3.03125 C4.5625,-1.40625 4.15104,-0.385417 3.32813,0.03125 C3.06771,0.145833 2.78125,0.203125 2.46875,0.203125 C1.41667,0.203125 0.760417,-0.442708 0.5,-1.73438 C0.427083,-2.14063 0.390625,-2.59375 0.390625,-3.09375 M2.46875,-5.64063 C1.625,-5.63021 1.20313,-4.77083 1.20313,-3.0625 C1.20313,-1.32292 1.61979,-0.453125 2.45313,-0.453125 C3.16146,-0.453125 3.57813,-1.02604 3.70313,-2.17188 C3.73438,-2.44271 3.75,-2.75 3.75,-3.09375 C3.75,-4.79167 3.32292,-5.64063 2.46875,-5.64063"/>
<path class="Note" fill="#78c7c7" transform="matrix(0.9936,0,0,0.9936,406.577,85.212)" d="M4.39063,-2.75 C5.01563,-2.75 5.54688,-2.58854 5.98438,-2.26563 C6.38021,-1.91146 6.57813,-1.46875 6.57813,-0.9375 C6.57813,-0.0416667 6.11979,0.796875 5.20313,1.57813 C4.26563,2.35938 3.26042,2.75 2.1875,2.75 C1.5625,2.75 1.03646,2.58854 0.609375,2.26563 C0.203125,1.91146 0,1.46875 0,0.9375 C0,0.0416667 0.46875,-0.796875 1.40625,-1.57813 C2.32292,-2.35938 3.31771,-2.75 4.39063,-2.75"/>
<path class="Note" fill="#ffffff" fill-rule="evenodd" d="M364.123,133.65 L370.084,133.65 L370.084,141.102 L364.123,141.102 L364.123,133.65 "/>
<path class="Note" transform="matrix(0.9936,0,0,0.9936,364.619,140.854)" d="M0.453125,-4.17188 C0.494792,-5.64063 1.19792,-6.38021 2.5625,-6.39063 C3.28125,-6.39063 3.83333,-6.14583 4.21875,-5.65625 C4.46875,-5.32292 4.59375,-4.93229 4.59375,-4.48438 C4.59375,-3.68229 4.14583,-3.03125 3.25,-2.53125 L2.34375,-2.04688 C1.79167,-1.75521 1.44271,-1.4375 1.29688,-1.09375 C1.24479,-0.989583 1.21354,-0.869792 1.20313,-0.734375 L4.5625,-0.734375 L4.5625,0 L0.3125,0 C0.354167,-0.760417 0.520833,-1.33854 0.8125,-1.73438 C1.07292,-2.05729 1.5,-2.38542 2.09375,-2.71875 L2.92188,-3.1875 C3.49479,-3.52083 3.78646,-3.94271 3.79688,-4.45313 C3.79688,-4.88021 3.61458,-5.21354 3.25,-5.45313 C3.04167,-5.57813 2.80208,-5.64063 2.53125,-5.64063 C1.73958,-5.64063 1.3125,-5.16667 1.25,-4.21875 C1.25,-4.19792 1.25,-4.18229 1.25,-4.17188 L0.453125,-4.17188 "/>
<path class="Note" fill="#ff9933" transform="matrix(0.9936,0,0,0.9936,363.377,82.728)" d="M4.39063,-2.75 C5.01563,-2.75 5.54688,-2.58854 5.98438,-2.26563 C6.38021,-1.91146 6.57813,-1.46875 6.57813,-0.9375 C6.57813,-0.0416667 6.11979,0.796875 5.20313,1.57813 C4.26563,2.35938 3.26042,2.75 2.1875,2.75 C1.5625,2.75 1.03646,2.58854 0.609375,2.26563 C0.203125,1.91146 0,1.46875 0,0.9375 C0,0.0416667 0.46875,-0.796875 1.40625,-1.57813 C2.32292,-2.35938 3.31771,-2.75 4.39063,-2.75"/>
<path class="Note" fill="#ffffff" fill-rule="evenodd" d="M320.923,126.198 L326.885,126.198 L326.885,133.65 L320.923,133.65 L320.923,126.198 "/>
<path class="Note" transform="matrix(0.9936,0,0,0.9936,321.42,133.402)" d="M0.390625,-3.09375 C0.390625,-5 0.927083,-6.07813 2,-6.32813 C2.14583,-6.36979 2.30208,-6.39063 2.46875,-6.39063 C3.78125,-6.39063 4.47917,-5.40104 4.5625,-3.42188 C4.5625,-3.28646 4.5625,-3.15625 4.5625,-3.03125 C4.5625,-1.40625 4.15104,-0.385417 3.32813,0.03125 C3.06771,0.145833 2.78125,0.203125 2.46875,0.203125 C1.41667,0.203125 0.760417,-0.442708 0.5,-1.73438 C0.427083,-2.14063 0.390625,-2.59375 0.390625,-3.09375 M2.46875,-5.64063 C1.625,-5.63021 1.20313,-4.77083 1.20313,-3.0625 C1.20313,-1.32292 1.61979,-0.453125 2.45313,-0.453125 C3.16146,-0.453125 3.57813,-1.02604 3.70313,-2.17188 C3.73438,-2.44271 3.75,-2.75 3.75,-3.09375 C3.75,-4.79167 3.32292,-5.64063 2.46875,-5.64063"/>
<path class="Note" fill="#99cc33" transform="matrix(0.9936,0,0,0.9936,320.178,77.76)" d="M4.39063,-2.75 C5.01563,-2.75 5.54688,-2.58854 5.98438,-2.26563 C6.38021,-1.91146 6.57813,-1.46875 6.57813,-0.9375 C6.57813,-0.0416667 6.11979,0.796875 5.20313,1.57813 C4.26563,2.35938 3.26042,2.75 2.1875,2.75 C1.5625,2.75 1.03646,2.58854 0.609375,2.26563 C0.203125,1.91146 0,1.46875 0,0.9375 C0,0.0416667 0.46875,-0.796875 1.40625,-1.57813 C2.32292,-2.35938 3.31771,-2.75 4.39063,-2.75"/>
<path class="Note" fill="#ffffff" fill-rule="evenodd" d="M277.724,126.198 L283.686,126.198 L283.686,133.65 L277.724,133.65 L277.724,126.198 "/>
<path class="Note" transform="matrix(0.9936,0,0,0.9936,278.221,133.402)" d="M0.453125,-4.17188 C0.494792,-5.64063 1.19792,-6.38021 2.5625,-6.39063 C3.28125,-6.39063 3.83333,-6.14583 4.21875,-5.65625 C4.46875,-5.32292 4.59375,-4.93229 4.59375,-4.48438 C4.59375,-3.68229 4.14583,-3.03125 3.25,-2.53125 L2.34375,-2.04688 C1.79167,-1.75521 1.44271,-1.4375 1.29688,-1.09375 C1.24479,-0.989583 1.21354,-0.869792 1.20313,-0.734375 L4.5625,-0.734375 L4.5625,0 L0.3125,0 C0.354167,-0.760417 0.520833,-1.33854 0.8125,-1.73438 C1.07292,-2.05729 1.5,-2.38542 2.09375,-2.71875 L2.92188,-3.1875 C3.49479,-3.52083 3.78646,-3.94271 3.79688,-4.45313 C3.79688,-4.88021 3.61458,-5.21354 3.25,-5.45313 C3.04167,-5.57813 2.80208,-5.64063 2.53125,-5.64063 C1.73958,-5.64063 1.3125,-5.16667 1.25,-4.21875 C1.25,-4.19792 1.25,-4.18229 1.25,-4.17188 L0.453125,-4.17188 "/>
<path class="Note" fill="#cc00ff" transform="matrix(0.9936,0,0,0.9936,276.979,75.276)" d="M4.39063,-2.75 C5.01563,-2.75 5.54688,-2.58854 5.98438,-2.26563 C6.38021,-1.91146 6.57813,-1.46875 6.57813,-0.9375 C6.57813,-0.0416667 6.11979,0.796875 5.20313,1.57813 C4.26563,2.35938 3.26042,2.75 2.1875,2.75 C1.5625,2.75 1.03646,2.58854 0.609375,2.26563 C0.203125,1.91146 0,1.46875 0,0.9375 C0,0.0416667 0.46875,-0.796875 1.40625,-1.57813 C2.32292,-2.35938 3.31771,-2.75 4.39063,-2.75"/>
<path class="Note" fill="#ffffff" fill-rule="evenodd" d="M234.525,126.198 L240.487,126.198 L240.487,133.65 L234.525,133.65 L234.525,126.198 "/>
<path class="Note" transform="matrix(0.9936,0,0,0.9936,235.022,133.402)" d="M0.390625,-3.09375 C0.390625,-5 0.927083,-6.07813 2,-6.32813 C2.14583,-6.36979 2.30208,-6.39063 2.46875,-6.39063 C3.78125,-6.39063 4.47917,-5.40104 4.5625,-3.42188 C4.5625,-3.28646 4.5625,-3.15625 4.5625,-3.03125 C4.5625,-1.40625 4.15104,-0.385417 3.32813,0.03125 C3.06771,0.145833 2.78125,0.203125 2.46875,0.203125 C1.41667,0.203125 0.760417,-0.442708 0.5,-1.73438 C0.427083,-2.14063 0.390625,-2.59375 0.390625,-3.09375 M2.46875,-5.64063 C1.625,-5.63021 1.20313,-4.77083 1.20313,-3.0625 C1.20313,-1.32292 1.61979,-0.453125 2.45313,-0.453125 C3.16146,-0.453125 3.57813,-1.02604 3.70313,-2.17188 C3.73438,-2.44271 3.75,-2.75 3.75,-3.09375 C3.75,-4.79167 3.32292,-5.64063 2.46875,-5.64063"/>
<path class="Note" fill="#99cc33" transform="matrix(0.9936,0,0,0.9936,233.78,77.76)" d="M4.39063,-2.75 C5.01563,-2.75 5.54688,-2.58854 5.98438,-2.26563 C6.38021,-1.91146 6.57813,-1.46875 6.57813,-0.9375 C6.57813,-0.0416667 6.11979,0.796875 5.20313,1.57813 C4.26563,2.35938 3.26042,2.75 2.1875,2.75 C1.5625,2.75 1.03646,2.58854 0.609375,2.26563 C0.203125,1.91146 0,1.46875 0,0.9375 C0,0.0416667 0.46875,-0.796875 1.40625,-1.57813 C2.32292,-2.35938 3.31771,-2.75 4.39063,-2.75"/>
<path class="Note" fill="#ffffff" fill-rule="evenodd" d="M191.326,133.65 L197.287,133.65 L197.287,141.102 L191.326,141.102 L191.326,133.65 "/>
<path class="Note" transform="matrix(0.9936,0,0,0.9936,191.823,140.854)" d="M0.453125,-4.17188 C0.494792,-5.64063 1.19792,-6.38021 2.5625,-6.39063 C3.28125,-6.39063 3.83333,-6.14583 4.21875,-5.65625 C4.46875,-5.32292 4.59375,-4.93229 4.59375,-4.48438 C4.59375,-3.68229 4.14583,-3.03125 3.25,-2.53125 L2.34375,-2.04688 C1.79167,-1.75521 1.44271,-1.4375 1.29688,-1.09375 C1.24479,-0.989583 1.21354,-0.869792 1.20313,-0.734375 L4.5625,-0.734375 L4.5625,0 L0.3125,0 C0.354167,-0.760417 0.520833,-1.33854 0.8125,-1.73438 C1.07292,-2.05729 1.5,-2.38542 2.09375,-2.71875 L2.92188,-3.1875 C3.49479,-3.52083 3.78646,-3.94271 3.79688,-4.45313 C3.79688,-4.88021 3.61458,-5.21354 3.25,-5.45313 C3.04167,-5.57813 2.80208,-5.64063 2.53125,-5.64063 C1.73958,-5.64063 1.3125,-5.16667 1.25,-4.21875 C1.25,-4.19792 1.25,-4.18229 1.25,-4.17188 L0.453125,-4.17188 "/>
<path class="Note" fill="#ff9933" transform="matrix(0.9936,0,0,0.9936,190.581,82.728)" d="M4.39063,-2.75 C5.01563,-2.75 5.54688,-2.58854 5.98438,-2.26563 C6.38021,-1.91146 6.57813,-1.46875 6.57813,-0.9375 C6.57813,-0.0416667 6.11979,0.796875 5.20313,1.57813 C4.26563,2.35938 3.26042,2.75 2.1875,2.75 C1.5625,2.75 1.03646,2.58854 0.609375,2.26563 C0.203125,1.91146 0,1.46875 0,0.9375 C0,0.0416667 0.46875,-0.796875 1.40625,-1.57813 C2.32292,-2.35938 3.31771,-2.75 4.39063,-2.75"/>
<path class="Note" fill="#ffffff" fill-rule="evenodd" d="M148.127,133.65 L154.088,133.65 L154.088,141.102 L148.127,141.102 L148.127,133.65 "/>
<path class="Note" transform="matrix(0.9936,0,0,0.9936,148.623,140.854)" d="M0.390625,-3.09375 C0.390625,-5 0.927083,-6.07813 2,-6.32813 C2.14583,-6.36979 2.30208,-6.39063 2.46875,-6.39063 C3.78125,-6.39063 4.47917,-5.40104 4.5625,-3.42188 C4.5625,-3.28646 4.5625,-3.15625 4.5625,-3.03125 C4.5625,-1.40625 4.15104,-0.385417 3.32813,0.03125 C3.06771,0.145833 2.78125,0.203125 2.46875,0.203125 C1.41667,0.203125 0.760417,-0.442708 0.5,-1.73438 C0.427083,-2.14063 0.390625,-2.59375 0.390625,-3.09375 M2.46875,-5.64063 C1.625,-5.63021 1.20313,-4.77083 1.20313,-3.0625 C1.20313,-1.32292 1.61979,-0.453125 2.45313,-0.453125 C3.16146,-0.453125 3.57813,-1.02604 3.70313,-2.17188 C3.73438,-2.44271 3.75,-2.75 3.75,-3.09375 C3.75,-4.79167 3.32292,-5.64063 2.46875,-5.64063"/>
<path class="Note" fill="#78c7c7" transform="matrix(0.9936,0,0,0.9936,147.381,85.212)" d="M4.39063,-2.75 C5.01563,-2.75 5.54688,-2.58854 5.98438,-2.26563 C6.38021,-1.91146 6.57813,-1.46875 6.57813,-0.9375 C6.57813,-0.0416667 6.11979,0.796875 5.20313,1.57813 C4.26563,2.35938 3.26042,2.75 2.1875,2.75 C1.5625,2.75 1.03646,2.58854 0.609375,2.26563 C0.203125,1.91146 0,1.46875 0,0.9375 C0,0.0416667 0.46875,-0.796875 1.40625,-1.57813 C2.32292,-2.35938 3.31771,-2.75 4.39063,-2.75"/>
<path class="Note" fill="#ffffff" fill-rule="evenodd" d="M104.927,141.102 L110.889,141.102 L110.889,148.554 L104.927,148.554 L104.927,141.102 "/>
<path class="Note" transform="matrix(0.9936,0,0,0.9936,105.424,148.306)" d="M2.4375,-5.64063 C1.75,-5.64063 1.35417,-5.32813 1.25,-4.70313 C1.22917,-4.59896 1.21875,-4.47917 1.21875,-4.34375 L0.421875,-4.34375 C0.442708,-5.59375 1.01563,-6.27083 2.14063,-6.375 C2.23438,-6.38542 2.32813,-6.39063 2.42188,-6.39063 C3.26563,-6.39063 3.84375,-6.10938 4.15625,-5.54688 C4.29167,-5.28646 4.35938,-4.98438 4.35938,-4.64063 C4.35938,-4.00521 4.0625,-3.57292 3.46875,-3.34375 C4.03125,-3.14583 4.375,-2.81771 4.5,-2.35938 C4.54167,-2.19271 4.5625,-2.00521 4.5625,-1.79688 C4.5625,-1.05729 4.27604,-0.505208 3.70313,-0.140625 C3.33854,0.0885417 2.90104,0.203125 2.39063,0.203125 C1.21354,0.203125 0.526042,-0.348958 0.328125,-1.45313 C0.317708,-1.57813 0.302083,-1.71354 0.28125,-1.85938 L1.07813,-1.85938 C1.13021,-1.08854 1.46875,-0.65625 2.09375,-0.5625 C2.19792,-0.541667 2.30729,-0.53125 2.42188,-0.53125 C3.04688,-0.53125 3.45313,-0.765625 3.64063,-1.23438 C3.71354,-1.40104 3.75,-1.58854 3.75,-1.79688 C3.73958,-2.54688 3.29688,-2.92708 2.42188,-2.9375 L2.09375,-2.92188 L1.98438,-2.92188 L1.98438,-3.67188 C2.66146,-3.68229 3.10417,-3.77604 3.3125,-3.95313 C3.47917,-4.09896 3.5625,-4.31771 3.5625,-4.60938 C3.5625,-5.09896 3.34896,-5.41667 2.92188,-5.5625 C2.77604,-5.61458 2.61458,-5.64063 2.4375,-5.64063"/>
<path class="Note" fill="#ed2929" transform="matrix(0.9936,0,0,0.9936,104.182,87.696)" d="M4.39063,-2.75 C5.01563,-2.75 5.54688,-2.58854 5.98438,-2.26563 C6.38021,-1.91146 6.57813,-1.46875 6.57813,-0.9375 C6.57813,-0.0416667 6.11979,0.796875 5.20313,1.57813 C4.26563,2.35938 3.26042,2.75 2.1875,2.75 C1.5625,2.75 1.03646,2.58854 0.609375,2.26563 C0.203125,1.91146 0,1.46875 0,0.9375 C0,0.0416667 0.46875,-0.796875 1.40625,-1.57813 C2.32292,-2.35938 3.31771,-2.75 4.39063,-2.75"/>
<path class="Note" fill="#ffffff" fill-rule="evenodd" d="M61.7281,141.102 L67.6897,141.102 L67.6897,148.554 L61.7281,148.554 L61.7281,141.102 "/>
<path class="Note" transform="matrix(0.9936,0,0,0.9936,62.2249,148.306)" d="M0.390625,-3.09375 C0.390625,-5 0.927083,-6.07813 2,-6.32813 C2.14583,-6.36979 2.30208,-6.39063 2.46875,-6.39063 C3.78125,-6.39063 4.47917,-5.40104 4.5625,-3.42188 C4.5625,-3.28646 4.5625,-3.15625 4.5625,-3.03125 C4.5625,-1.40625 4.15104,-0.385417 3.32813,0.03125 C3.06771,0.145833 2.78125,0.203125 2.46875,0.203125 C1.41667,0.203125 0.760417,-0.442708 0.5,-1.73438 C0.427083,-2.14063 0.390625,-2.59375 0.390625,-3.09375 M2.46875,-5.64063 C1.625,-5.63021 1.20313,-4.77083 1.20313,-3.0625 C1.20313,-1.32292 1.61979,-0.453125 2.45313,-0.453125 C3.16146,-0.453125 3.57813,-1.02604 3.70313,-2.17188 C3.73438,-2.44271 3.75,-2.75 3.75,-3.09375 C3.75,-4.79167 3.32292,-5.64063 2.46875,-5.64063"/>
<path class="Note" fill="#cc00ff" transform="matrix(0.9936,0,0,0.9936,60.9829,92.664)" d="M4.39063,-2.75 C5.01563,-2.75 5.54688,-2.58854 5.98438,-2.26563 C6.38021,-1.91146 6.57813,-1.46875 6.57813,-0.9375 C6.57813,-0.0416667 6.11979,0.796875 5.20313,1.57813 C4.26563,2.35938 3.26042,2.75 2.1875,2.75 C1.5625,2.75 1.03646,2.58854 0.609375,2.26563 C0.203125,1.91146 0,1.46875 0,0.9375 C0,0.0416667 0.46875,-0.796875 1.40625,-1.57813 C2.32292,-2.35938 3.31771,-2.75 4.39063,-2.75"/>
<path class="Clef" transform="matrix(0.9936,0,0,0.9936,32.0544,133.65)" d="M5.32813,8.5 C5.32813,8.86458 5.04167,9.04688 4.46875,9.04688 C4.02083,9.04688 3.625,8.91146 3.28125,8.64063 C2.95833,8.34896 2.79688,7.98438 2.79688,7.54688 C2.79688,6.76563 3.27083,6.14063 4.21875,5.67188 C5.14583,5.18229 6.23438,4.9375 7.48438,4.9375 C7.96354,4.9375 8.47917,4.97396 9.03125,5.04688 C9.42708,5.09896 9.875,5.20313 10.375,5.35938 C10.8125,5.49479 11.1563,5.70573 11.4063,5.99219 C11.6563,6.27865 11.7813,6.61458 11.7813,7 C11.7813,7.89583 11.3177,8.63021 10.3906,9.20313 C11.7448,9.45313 12.4271,10.0573 12.4375,11.0156 C12.4375,11.8281 12.0729,12.5599 11.3438,13.2109 C10.6146,13.862 9.79167,14.1875 8.875,14.1875 C8.47917,14.1875 8.07813,14.0938 7.67188,13.9063 C7.29688,13.7292 7.03125,13.5625 6.875,13.4063 C6.71875,13.2188 6.64063,13.0781 6.64063,12.9844 C6.64063,12.8594 6.70833,12.75 6.84375,12.6563 C6.95833,12.5417 7.07813,12.4844 7.20313,12.4844 C7.25521,12.4844 7.36719,12.5677 7.53906,12.7344 C7.71094,12.901 7.95833,12.9844 8.28125,12.9844 C8.72917,12.9844 9.16146,12.7969 9.57813,12.4219 C9.97396,12.0573 10.1719,11.6198 10.1719,11.1094 C10.1719,10.6719 9.98438,10.3542 9.60938,10.1563 C9.24479,9.95833 8.76563,9.85938 8.17188,9.85938 C8.06771,9.85938 8.01563,9.75 8.01563,9.53125 C8.01563,9.21875 8.13021,9.0625 8.35938,9.0625 C8.72396,9.0625 9.05208,8.90625 9.34375,8.59375 C9.61458,8.26042 9.75,7.90104 9.75,7.51563 C9.75,7.40104 9.71875,7.22917 9.65625,7 C9.60417,6.84375 9.44792,6.65104 9.1875,6.42188 C8.9375,6.21354 8.58854,6.07292 8.14063,6 C8.02604,6.63542 7.88021,7.44792 7.70313,8.4375 C7.52604,9.42708 7.40625,10.0781 7.34375,10.3906 C7.125,11.5156 6.72396,12.4583 6.14063,13.2188 C5.52604,14.0313 4.86458,14.4375 4.15625,14.4375 C3.9375,14.4375 3.71354,14.3854 3.48438,14.2813 C3.29688,14.1979 3.0625,14.0365 2.78125,13.7969 C2.52083,13.5885 2.34375,13.4479 2.25,13.375 C2.19792,13.3438 2.17188,13.2865 2.17188,13.2031 C2.17188,13.0781 2.21875,12.9635 2.3125,12.8594 C2.41667,12.7344 2.52604,12.6719 2.64063,12.6719 C2.71354,12.6719 2.89323,12.7969 3.17969,13.0469 C3.46615,13.2969 3.76563,13.4219 4.07813,13.4219 C4.68229,13.4219 5.13542,13.0365 5.4375,12.2656 C5.71875,11.526 5.85938,10.6094 5.85938,9.51563 L5.85938,9.35938 C5.85938,8.63021 5.97917,7.54167 6.21875,6.09375 C5.80208,6.22917 5.46875,6.42708 5.21875,6.6875 C4.95833,6.94792 4.82813,7.21875 4.82813,7.5 C4.82813,7.71875 4.91146,7.90625 5.07813,8.0625 C5.24479,8.21875 5.32813,8.36458 5.32813,8.5 M1.40625,2.39063 C1.46875,2.39063 1.625,2.45313 1.875,2.57813 C2.13542,2.71354 2.35938,2.78125 2.54688,2.78125 C3.03646,2.78125 3.64063,2.42188 4.35938,1.70313 C6.43229,-0.411458 7.85938,-2.65104 8.64063,-5.01563 C8.79688,-5.51563 9.17708,-5.76563 9.78125,-5.76563 C10.0938,-5.76563 10.3646,-5.69792 10.5938,-5.5625 C10.8125,-5.42708 10.9219,-5.28646 10.9219,-5.14063 L10.5625,2.17188 C10.5625,2.55729 10.7031,2.75 10.9844,2.75 C11.1198,2.75 11.3281,2.6875 11.6094,2.5625 C11.8698,2.42708 12.026,2.35938 12.0781,2.35938 C12.1823,2.35938 12.2448,2.47396 12.2656,2.70313 C12.2656,2.91146 12.1823,3.04167 12.0156,3.09375 C11.8802,3.125 11.6198,3.24479 11.2344,3.45313 C10.8281,3.66146 10.5104,3.76563 10.2813,3.76563 C9.78125,3.76563 9.42708,3.375 9.21875,2.59375 C8.89583,1.375 8.6875,0.104167 8.59375,-1.21875 C8.07292,-0.552083 7.49479,0.119792 6.85938,0.796875 C7.08854,1.24479 7.51563,1.46875 8.14063,1.46875 C8.23438,1.46875 8.30729,1.46354 8.35938,1.45313 L8.375,1.45313 C8.47917,1.45313 8.53125,1.54688 8.53125,1.73438 C8.53125,1.98438 8.44792,2.13542 8.28125,2.1875 C8.01042,2.28125 7.72396,2.32813 7.42188,2.32813 C6.77604,2.32813 6.30729,2.10417 6.01563,1.65625 L5.23438,2.35938 C4.14063,3.29688 3.25,3.76563 2.5625,3.76563 C2.375,3.76563 2.1875,3.73438 2,3.67188 C1.84375,3.60938 1.66146,3.51042 1.45313,3.375 C1.36979,3.34375 1.27865,3.29688 1.17969,3.23438 C1.08073,3.17188 1.02083,3.13542 1,3.125 C0.9375,3.10417 0.90625,3.04688 0.90625,2.95313 C0.90625,2.84896 0.958333,2.72396 1.0625,2.57813 C1.14583,2.45313 1.26042,2.39063 1.40625,2.39063 M5.76563,-10.7969 C5.76563,-10.474 5.48438,-10.3125 4.92188,-10.3125 C4.43229,-10.3125 4.00521,-10.474 3.64063,-10.7969 C3.28646,-11.1302 3.10938,-11.5313 3.10938,-12 C3.10938,-12.4479 3.25,-12.8385 3.53125,-13.1719 C3.83333,-13.5052 4.21875,-13.7552 4.6875,-13.9219 C5.11458,-14.0781 5.59896,-14.2031 6.14063,-14.2969 C6.69271,-14.3594 7.22396,-14.3906 7.73438,-14.3906 C8.03646,-14.3906 8.59896,-14.2552 9.42188,-13.9844 C10.2552,-13.7135 10.8333,-13.5781 11.1563,-13.5781 C11.5625,-13.5781 11.9479,-13.651 12.3125,-13.7969 C12.6042,-13.9219 12.8906,-14.0677 13.1719,-14.2344 C13.3906,-14.3802 13.5104,-14.4531 13.5313,-14.4531 C13.6563,-14.4531 13.7604,-14.4167 13.8438,-14.3438 C13.9479,-14.2396 14,-14.151 14,-14.0781 C14,-13.9948 13.8802,-13.849 13.6406,-13.6406 C13.3802,-13.401 13.0078,-13.1641 12.5234,-12.9297 C12.0391,-12.6953 11.5313,-12.5781 11,-12.5781 C10.7604,-12.5781 10.4688,-12.6198 10.125,-12.7031 C9.89583,-11.2552 9.66146,-9.96875 9.42188,-8.84375 C9.21354,-7.85417 8.79688,-6.98958 8.17188,-6.25 C7.56771,-5.51042 6.89583,-5.14063 6.15625,-5.14063 C5.85417,-5.14063 5.58854,-5.19792 5.35938,-5.3125 C5.09896,-5.44792 4.82292,-5.64583 4.53125,-5.90625 C4.30208,-6.09375 4.08333,-6.26563 3.875,-6.42188 C3.82292,-6.46354 3.79688,-6.52604 3.79688,-6.60938 C3.79688,-6.69271 3.84896,-6.80729 3.95313,-6.95313 C4.05729,-7.06771 4.15104,-7.125 4.23438,-7.125 C4.31771,-7.125 4.54167,-6.96354 4.90625,-6.64063 C5.27083,-6.31771 5.59375,-6.15625 5.875,-6.15625 C6.39583,-6.15625 6.80208,-6.45313 7.09375,-7.04688 C7.375,-7.64063 7.53646,-8.34375 7.57813,-9.15625 C7.64063,-10.5 7.79167,-11.8906 8.03125,-13.3281 C7.73958,-13.3906 7.52604,-13.4219 7.39063,-13.4219 C6.76563,-13.4219 6.22917,-13.2917 5.78125,-13.0313 C5.34375,-12.7813 5.125,-12.4427 5.125,-12.0156 C5.125,-11.7031 5.22917,-11.4635 5.4375,-11.2969 C5.65625,-11.1094 5.76563,-10.9427 5.76563,-10.7969"/>
<path class="Clef" transform="matrix(0.9936,0,0,0.9936,32.0544,77.76)" d="M7.34375,-5.125 C7.34375,-5.125 7.38542,-5.125 7.46875,-5.125 C7.52083,-5.13542 7.5625,-5.14063 7.59375,-5.14063 C9.05208,-5.14063 10.25,-4.625 11.1875,-3.59375 C12.125,-2.58333 12.5938,-1.40104 12.5938,-0.046875 C12.5938,1.64063 11.901,3.01042 10.5156,4.0625 C10.151,4.35417 9.67188,4.58854 9.07813,4.76563 C9.15104,5.60938 9.1875,6.29167 9.1875,6.8125 C9.1875,6.91667 9.17188,7.29688 9.14063,7.95313 C9.08854,9.16146 8.67188,10.2083 7.89063,11.0938 C7.14063,11.9688 6.20313,12.4063 5.07813,12.4063 C4.02604,12.4063 3.13021,12.0365 2.39063,11.2969 C1.64063,10.5365 1.26563,9.625 1.26563,8.5625 C1.26563,8 1.48438,7.52083 1.92188,7.125 C2.35938,6.73958 2.86979,6.54688 3.45313,6.54688 C3.97396,6.54688 4.41146,6.75 4.76563,7.15625 C5.13021,7.53125 5.3125,8 5.3125,8.5625 C5.3125,9.0625 5.13021,9.49479 4.76563,9.85938 C4.40104,10.224 3.96354,10.4063 3.45313,10.4063 C3.24479,10.4063 3.04688,10.3698 2.85938,10.2969 C3.43229,11.1406 4.19271,11.5625 5.14063,11.5625 C6.03646,11.5625 6.77083,11.1979 7.34375,10.4688 C7.94792,9.71875 8.27604,8.83854 8.32813,7.82813 C8.34896,7.20313 8.35938,6.84896 8.35938,6.76563 C8.35938,6.03646 8.33333,5.4375 8.28125,4.96875 C7.63542,5.07292 7.05729,5.125 6.54688,5.125 C4.73438,5.125 3.19271,4.40625 1.92188,2.96875 C0.671875,1.52083 0.046875,-0.197917 0.046875,-2.1875 C0.046875,-2.60417 0.0833333,-3.02604 0.15625,-3.45313 C0.239583,-3.80729 0.338542,-4.19271 0.453125,-4.60938 C0.515625,-4.84896 0.692708,-5.22917 0.984375,-5.75 C1.08854,-5.90625 1.20573,-6.10156 1.33594,-6.33594 C1.46615,-6.57031 1.55729,-6.72396 1.60938,-6.79688 C1.73438,-7.05729 1.98438,-7.41146 2.35938,-7.85938 C2.46354,-7.97396 2.57292,-8.10156 2.6875,-8.24219 C2.80208,-8.38281 2.89844,-8.5 2.97656,-8.59375 C3.05469,-8.6875 3.11198,-8.76042 3.14844,-8.8125 C3.1849,-8.86458 3.47917,-9.20833 4.03125,-9.84375 C4.15625,-9.97917 4.28125,-10.1198 4.40625,-10.2656 C4.53125,-10.4115 4.63281,-10.5286 4.71094,-10.6172 C4.78906,-10.7057 4.84896,-10.7656 4.89063,-10.7969 C4.42188,-12.349 4.125,-13.5885 4,-14.5156 C3.91667,-15.2552 3.875,-16.2708 3.875,-17.5625 C3.875,-18.6979 4.13542,-19.7604 4.65625,-20.75 C5.15625,-21.7708 5.86458,-22.6094 6.78125,-23.2656 C6.84375,-23.3073 6.90625,-23.3281 6.96875,-23.3281 C7.0625,-23.3281 7.13021,-23.3073 7.17188,-23.2656 C7.86979,-22.4219 8.47396,-21.3229 8.98438,-19.9688 C9.50521,-18.6146 9.76563,-17.3802 9.76563,-16.2656 C9.76563,-15.0156 9.46875,-13.8438 8.875,-12.75 C8.19792,-11.5938 7.32292,-10.3958 6.25,-9.15625 C6.52083,-8.30208 6.88542,-6.95833 7.34375,-5.125 M9,3.96875 C9.67708,3.71875 10.2083,3.29688 10.5938,2.70313 C11.0104,2.13021 11.2188,1.48438 11.2188,0.765625 C11.2188,-0.161458 10.9063,-0.984375 10.2813,-1.70313 C9.63542,-2.44271 8.81771,-2.85938 7.82813,-2.95313 C8.39063,-0.203125 8.78125,2.10417 9,3.96875 M1.45313,-0.546875 C1.45313,0.744792 1.97396,1.88021 3.01563,2.85938 C4.07813,3.80729 5.27604,4.28125 6.60938,4.28125 C7.15104,4.28125 7.68229,4.23958 8.20313,4.15625 C7.99479,2.17708 7.58333,-0.192708 6.96875,-2.95313 C6.22917,-2.86979 5.64063,-2.60938 5.20313,-2.17188 C4.76563,-1.71354 4.54688,-1.19792 4.54688,-0.625 C4.54688,0.364583 5.07813,1.16667 6.14063,1.78125 C6.22396,1.875 6.26563,1.97396 6.26563,2.07813 C6.26563,2.18229 6.22396,2.27604 6.14063,2.35938 C6.05729,2.45313 5.95833,2.5 5.84375,2.5 C5.83333,2.5 5.77604,2.48958 5.67188,2.46875 C4.92188,2.0625 4.34896,1.54167 3.95313,0.90625 C3.56771,0.21875 3.375,-0.46875 3.375,-1.15625 C3.375,-2.05208 3.65625,-2.86458 4.21875,-3.59375 C4.80208,-4.32292 5.5625,-4.79167 6.5,-5 C6.13542,-6.45833 5.83854,-7.59896 5.60938,-8.42188 C5.40104,-8.18229 5.15104,-7.89844 4.85938,-7.57031 C4.56771,-7.24219 4.39583,-7.04167 4.34375,-6.96875 C3.875,-6.36458 3.51563,-5.89063 3.26563,-5.54688 C2.81771,-4.93229 2.48958,-4.40625 2.28125,-3.96875 C2.0625,-3.46875 1.86979,-2.92708 1.70313,-2.34375 C1.53646,-1.78125 1.45313,-1.18229 1.45313,-0.546875 M7.96875,-20.4063 C6.98958,-19.9271 6.22396,-19.2396 5.67188,-18.3438 C5.09896,-17.4167 4.8125,-16.4219 4.8125,-15.3594 C4.8125,-14.4219 5.04688,-13.1563 5.51563,-11.5625 C6.45313,-12.6979 7.15625,-13.7448 7.625,-14.7031 C8.11458,-15.724 8.35938,-16.7865 8.35938,-17.8906 C8.35938,-18.724 8.22917,-19.5625 7.96875,-20.4063 M5.82813,15.2344 C6.16146,14.901 6.32813,14.5625 6.32813,14.2188 C6.30729,13.9479 6.19271,13.7396 5.98438,13.5938 C5.74479,13.4375 5.46875,13.3594 5.15625,13.3594 C4.9375,13.3594 4.75521,13.4323 4.60938,13.5781 C4.48438,13.7031 4.42188,13.8646 4.42188,14.0625 C4.42188,14.3021 4.51563,14.4792 4.70313,14.5938 L5.82813,15.2344 M6.14063,15.4063 C6.68229,15.7083 6.95313,16.1146 6.95313,16.625 L6.95313,16.6875 C6.95313,17.0833 6.79167,17.4219 6.46875,17.7031 C6.14583,17.9844 5.68229,18.125 5.07813,18.125 C4.58854,18.125 4.16146,17.9948 3.79688,17.7344 C3.43229,17.4844 3.25,17.1458 3.25,16.7188 C3.25,16.5521 3.29167,16.3958 3.375,16.25 C3.47917,16.0833 3.56771,15.9688 3.64063,15.9063 L4,15.5313 C3.60417,15.2604 3.40625,14.901 3.40625,14.4531 C3.40625,14.099 3.5625,13.7865 3.875,13.5156 C4.19792,13.2552 4.625,13.125 5.15625,13.125 C5.60417,13.125 5.98438,13.224 6.29688,13.4219 C6.60938,13.6198 6.76563,13.8854 6.76563,14.2188 C6.76563,14.5729 6.55729,14.9688 6.14063,15.4063 M4.29688,15.7031 C3.91146,16.0469 3.70313,16.3854 3.67188,16.7188 C3.70313,17.0729 3.84896,17.3542 4.10938,17.5625 C4.39063,17.7813 4.71354,17.8906 5.07813,17.8906 C5.33854,17.8906 5.54688,17.8073 5.70313,17.6406 C5.85938,17.4844 5.9375,17.2969 5.9375,17.0781 C5.92708,16.7865 5.8125,16.5781 5.59375,16.4531 L4.29688,15.7031 "/>
<path class="Fingering" d="M488.312,95.2734 C487.718,95.2734 487.255,94.9661 486.921,94.3515 C486.64,93.8515 486.499,93.2265 486.499,92.4765 C486.499,91.5807 486.708,90.8775 487.124,90.3671 C487.458,89.9713 487.864,89.7682 488.343,89.7577 C488.906,89.7577 489.348,90.0442 489.671,90.6171 C489.973,91.1275 490.124,91.763 490.124,92.5234 C490.124,93.4921 489.9,94.2317 489.452,94.7421 C489.13,95.0963 488.749,95.2734 488.312,95.2734 M488.312,89.9609 C487.666,89.9609 487.317,90.7317 487.265,92.2734 C487.265,92.3671 487.265,92.4609 487.265,92.5546 C487.275,94.2213 487.624,95.0598 488.312,95.0702 C488.999,95.0598 489.343,94.2161 489.343,92.539 C489.343,91.0182 489.072,90.1692 488.531,89.9921 C488.458,89.9713 488.385,89.9609 488.312,89.9609"/>
<path class="Fingering" d="M443.933,89.571 C444.058,89.571 444.24,89.6387 444.479,89.7741 C444.729,89.9304 444.943,90.0085 445.12,90.0085 C445.485,90.0085 445.771,89.847 445.979,89.5241 C446.104,89.3158 446.167,89.0814 446.167,88.821 C446.167,88.0606 445.714,87.6439 444.808,87.571 C444.714,87.5606 444.615,87.5554 444.511,87.5554 L444.511,87.446 C445.115,87.2481 445.511,86.9929 445.698,86.6804 C445.792,86.5137 445.839,86.3314 445.839,86.1335 C445.839,85.7793 445.693,85.5241 445.401,85.3679 C445.266,85.3054 445.12,85.2741 444.964,85.2741 C444.516,85.2741 444.146,85.5085 443.854,85.9772 C443.823,86.0189 443.797,86.0658 443.776,86.1179 L443.651,86.0866 C443.901,85.4095 444.266,84.9981 444.745,84.8522 C444.891,84.8106 445.052,84.7897 445.229,84.7897 C445.709,84.7897 446.063,84.9564 446.292,85.2897 C446.417,85.4668 446.479,85.6647 446.479,85.8835 C446.479,86.2064 446.328,86.4981 446.026,86.7585 C445.933,86.8314 445.834,86.9095 445.729,86.9929 C446.209,87.2012 446.516,87.4877 446.651,87.8522 C446.714,88.0293 446.745,88.2272 446.745,88.446 C446.745,89.0814 446.479,89.5762 445.948,89.9304 C445.552,90.1804 445.084,90.3054 444.542,90.3054 C444.052,90.3054 443.761,90.196 443.667,89.9772 C443.646,89.9356 443.636,89.8939 443.636,89.8522 C443.636,89.696 443.714,89.6075 443.87,89.5866 C443.891,89.5762 443.912,89.571 443.933,89.571"/>
<path class="Fingering" d="M402.093,87.8214 C401.499,87.8214 401.035,87.5141 400.702,86.8995 C400.421,86.3995 400.28,85.7745 400.28,85.0245 C400.28,84.1287 400.489,83.4255 400.905,82.9151 C401.239,82.5193 401.645,82.3162 402.124,82.3057 C402.686,82.3057 403.129,82.5922 403.452,83.1651 C403.754,83.6755 403.905,84.311 403.905,85.0714 C403.905,86.0401 403.681,86.7797 403.233,87.2901 C402.91,87.6443 402.53,87.8214 402.093,87.8214 M402.093,82.5089 C401.447,82.5089 401.098,83.2797 401.046,84.8214 C401.046,84.9151 401.046,85.0089 401.046,85.1026 C401.056,86.7693 401.405,87.6078 402.093,87.6182 C402.78,87.6078 403.124,86.7641 403.124,85.087 C403.124,83.5662 402.853,82.7172 402.311,82.5401 C402.239,82.5193 402.166,82.5089 402.093,82.5089"/>
<path class="Fingering" d="M357.143,81.4155 C357.383,80.3947 357.909,79.8686 358.722,79.8374 C358.753,79.8374 358.779,79.8374 358.8,79.8374 C359.289,79.8374 359.68,80.0145 359.972,80.3686 C360.18,80.629 360.284,80.9207 360.284,81.2436 C360.284,81.8374 359.966,82.478 359.331,83.1655 C359.31,83.1863 359.284,83.2072 359.253,83.228 L357.925,84.6499 L359.831,84.6499 C360.039,84.6499 360.201,84.5926 360.315,84.478 C360.388,84.4051 360.477,84.2853 360.581,84.1186 L360.69,84.1499 L360.253,85.228 L357.128,85.228 L357.128,85.1342 L358.55,83.6186 C359.227,82.879 359.576,82.1863 359.597,81.5405 C359.597,81.0926 359.425,80.7697 359.081,80.5717 C358.904,80.4676 358.701,80.4155 358.472,80.4155 C358.117,80.4155 357.841,80.5509 357.643,80.8217 C357.529,80.978 357.42,81.1915 357.315,81.4624 L357.143,81.4155 "/>
<path class="Fingering" d="M315.694,80.3694 C315.101,80.3694 314.637,80.0621 314.304,79.4475 C314.022,78.9475 313.882,78.3225 313.882,77.5725 C313.882,76.6767 314.09,75.9735 314.507,75.4631 C314.84,75.0673 315.246,74.8642 315.726,74.8537 C316.288,74.8537 316.731,75.1402 317.054,75.7131 C317.356,76.2235 317.507,76.859 317.507,77.6194 C317.507,78.5881 317.283,79.3277 316.835,79.8381 C316.512,80.1923 316.132,80.3694 315.694,80.3694 M315.694,75.0569 C315.048,75.0569 314.699,75.8277 314.647,77.3694 C314.647,77.4631 314.647,77.5569 314.647,77.6506 C314.658,79.3173 315.007,80.1558 315.694,80.1662 C316.382,80.1558 316.726,79.3121 316.726,77.635 C316.726,76.1142 316.455,75.2652 315.913,75.0881 C315.84,75.0673 315.767,75.0569 315.694,75.0569"/>
<path class="Fingering" d="M270.745,73.9635 C270.985,72.9427 271.511,72.4166 272.323,72.3854 C272.354,72.3854 272.38,72.3854 272.401,72.3854 C272.891,72.3854 273.281,72.5625 273.573,72.9166 C273.781,73.177 273.886,73.4687 273.886,73.7916 C273.886,74.3854 273.568,75.026 272.933,75.7135 C272.912,75.7343 272.886,75.7552 272.854,75.776 L271.526,77.1979 L273.433,77.1979 C273.641,77.1979 273.802,77.1406 273.917,77.026 C273.99,76.9531 274.078,76.8333 274.183,76.6666 L274.292,76.6979 L273.854,77.776 L270.729,77.776 L270.729,77.6822 L272.151,76.1666 C272.828,75.427 273.177,74.7343 273.198,74.0885 C273.198,73.6406 273.026,73.3177 272.683,73.1197 C272.505,73.0156 272.302,72.9635 272.073,72.9635 C271.719,72.9635 271.443,73.0989 271.245,73.3697 C271.13,73.526 271.021,73.7395 270.917,74.0104 L270.745,73.9635 "/>
<path class="Fingering" d="M229.296,80.3694 C228.702,80.3694 228.239,80.0621 227.905,79.4475 C227.624,78.9475 227.483,78.3225 227.483,77.5725 C227.483,76.6767 227.692,75.9735 228.108,75.4631 C228.442,75.0673 228.848,74.8642 229.327,74.8537 C229.89,74.8537 230.332,75.1402 230.655,75.7131 C230.957,76.2235 231.108,76.859 231.108,77.6194 C231.108,78.5881 230.884,79.3277 230.436,79.8381 C230.114,80.1923 229.733,80.3694 229.296,80.3694 M229.296,75.0569 C228.65,75.0569 228.301,75.8277 228.249,77.3694 C228.249,77.4631 228.249,77.5569 228.249,77.6506 C228.259,79.3173 228.608,80.1558 229.296,80.1662 C229.983,80.1558 230.327,79.3121 230.327,77.635 C230.327,76.1142 230.056,75.2652 229.515,75.0881 C229.442,75.0673 229.369,75.0569 229.296,75.0569"/>
<path class="Fingering" d="M184.347,81.4155 C184.586,80.3947 185.112,79.8686 185.925,79.8374 C185.956,79.8374 185.982,79.8374 186.003,79.8374 C186.492,79.8374 186.883,80.0145 187.175,80.3686 C187.383,80.629 187.487,80.9207 187.487,81.2436 C187.487,81.8374 187.17,82.478 186.534,83.1655 C186.513,83.1863 186.487,83.2072 186.456,83.228 L185.128,84.6499 L187.034,84.6499 C187.242,84.6499 187.404,84.5926 187.518,84.478 C187.591,84.4051 187.68,84.2853 187.784,84.1186 L187.893,84.1499 L187.456,85.228 L184.331,85.228 L184.331,85.1342 L185.753,83.6186 C186.43,82.879 186.779,82.1863 186.8,81.5405 C186.8,81.0926 186.628,80.7697 186.284,80.5717 C186.107,80.4676 185.904,80.4155 185.675,80.4155 C185.321,80.4155 185.045,80.5509 184.847,80.8217 C184.732,80.978 184.623,81.1915 184.518,81.4624 L184.347,81.4155 "/>
<path class="Fingering" d="M142.897,87.8214 C142.304,87.8214 141.84,87.5141 141.507,86.8995 C141.225,86.3995 141.085,85.7745 141.085,85.0245 C141.085,84.1287 141.293,83.4255 141.71,82.9151 C142.043,82.5193 142.449,82.3162 142.929,82.3057 C143.491,82.3057 143.934,82.5922 144.257,83.1651 C144.559,83.6755 144.71,84.311 144.71,85.0714 C144.71,86.0401 144.486,86.7797 144.038,87.2901 C143.715,87.6443 143.335,87.8214 142.897,87.8214 M142.897,82.5089 C142.252,82.5089 141.903,83.2797 141.85,84.8214 C141.85,84.9151 141.85,85.0089 141.85,85.1026 C141.861,86.7693 142.21,87.6078 142.897,87.6182 C143.585,87.6078 143.929,86.7641 143.929,85.087 C143.929,83.5662 143.658,82.7172 143.116,82.5401 C143.043,82.5193 142.97,82.5089 142.897,82.5089"/>
<path class="Fingering" d="M98.3388,89.571 C98.4638,89.571 98.6461,89.6387 98.8856,89.7741 C99.1356,89.9304 99.3492,90.0085 99.5263,90.0085 C99.8908,90.0085 100.177,89.847 100.386,89.5241 C100.511,89.3158 100.573,89.0814 100.573,88.821 C100.573,88.0606 100.12,87.6439 99.2138,87.571 C99.12,87.5606 99.0211,87.5554 98.9169,87.5554 L98.9169,87.446 C99.5211,87.2481 99.9169,86.9929 100.104,86.6804 C100.198,86.5137 100.245,86.3314 100.245,86.1335 C100.245,85.7793 100.099,85.5241 99.8075,85.3679 C99.6721,85.3054 99.5263,85.2741 99.37,85.2741 C98.9221,85.2741 98.5523,85.5085 98.2606,85.9772 C98.2294,86.0189 98.2033,86.0658 98.1825,86.1179 L98.0575,86.0866 C98.3075,85.4095 98.6721,84.9981 99.1513,84.8522 C99.2971,84.8106 99.4586,84.7897 99.6356,84.7897 C100.115,84.7897 100.469,84.9564 100.698,85.2897 C100.823,85.4668 100.886,85.6647 100.886,85.8835 C100.886,86.2064 100.735,86.4981 100.433,86.7585 C100.339,86.8314 100.24,86.9095 100.136,86.9929 C100.615,87.2012 100.922,87.4877 101.058,87.8522 C101.12,88.0293 101.151,88.2272 101.151,88.446 C101.151,89.0814 100.886,89.5762 100.354,89.9304 C99.9586,90.1804 99.4898,90.3054 98.9481,90.3054 C98.4586,90.3054 98.1669,90.196 98.0731,89.9772 C98.0523,89.9356 98.0419,89.8939 98.0419,89.8522 C98.0419,89.696 98.12,89.6075 98.2763,89.5866 C98.2971,89.5762 98.3179,89.571 98.3388,89.571"/>
<path class="Fingering" d="M56.4989,95.2734 C55.9052,95.2734 55.4416,94.9661 55.1083,94.3515 C54.827,93.8515 54.6864,93.2265 54.6864,92.4765 C54.6864,91.5807 54.8947,90.8775 55.3114,90.3671 C55.6447,89.9713 56.051,89.7682 56.5302,89.7577 C57.0927,89.7577 57.5354,90.0442 57.8583,90.6171 C58.1604,91.1275 58.3114,91.763 58.3114,92.5234 C58.3114,93.4921 58.0875,94.2317 57.6395,94.7421 C57.3166,95.0963 56.9364,95.2734 56.4989,95.2734 M56.4989,89.9609 C55.8531,89.9609 55.5041,90.7317 55.452,92.2734 C55.452,92.3671 55.452,92.4609 55.452,92.5546 C55.4625,94.2213 55.8114,95.0598 56.4989,95.0702 C57.1864,95.0598 57.5302,94.2161 57.5302,92.539 C57.5302,91.0182 57.2593,90.1692 56.7177,89.9921 C56.6447,89.9713 56.5718,89.9609 56.4989,89.9609"/>
<path class="Tempo" d="M54.7395,40.4371 C54.5364,40.2809 54.2864,40.1871 53.9739,40.1871 C52.7864,40.1871 51.8332,41.0621 51.8332,41.9996 C51.8332,42.5621 52.2864,42.9059 52.8801,42.9059 C53.8332,42.9059 55.0207,41.9996 55.0207,41.0934 L55.0207,34.9527 L54.7395,34.9527 L54.7395,40.4371 "/>
<path class="Tempo" d="M65.3801,39.0152 L58.7707,39.0152 L58.7707,37.859 L65.3801,37.859 L65.3801,39.0152 M65.3801,41.9371 L58.7707,41.9371 L58.7707,40.7965 L65.3801,40.7965 L65.3801,41.9371 M70.8176,36.0465 C70.6926,36.0465 70.3749,36.1402 69.8645,36.3277 C69.8332,36.3382 69.8124,36.3486 69.802,36.359 L69.802,36.0465 L72.8176,34.734 L73.0207,34.734 L73.0207,41.5621 C73.0207,42.0517 73.1197,42.3642 73.3176,42.4996 C73.4947,42.6246 73.828,42.6923 74.3176,42.7027 L74.3176,42.984 L69.8176,42.984 L69.8176,42.7027 C70.4739,42.6923 70.8853,42.5882 71.052,42.3902 C71.1874,42.2236 71.2551,41.9267 71.2551,41.4996 L71.2551,36.8746 C71.2447,36.333 71.0989,36.0569 70.8176,36.0465 M75.302,38.9059 C75.302,37.5934 75.6145,36.5309 76.2395,35.7184 C76.7499,35.0725 77.3437,34.7444 78.0207,34.734 C78.802,34.734 79.4478,35.1402 79.9582,35.9527 C80.4687,36.7652 80.7239,37.76 80.7239,38.9371 C80.7239,40.3121 80.4062,41.4059 79.7707,42.2184 C79.2707,42.8225 78.6926,43.1298 78.0364,43.1402 C77.203,43.1402 76.5312,42.7132 76.0207,41.859 C75.5416,41.0673 75.302,40.083 75.302,38.9059 M78.0364,42.7965 C78.3905,42.7965 78.6249,42.4736 78.7395,41.8277 C78.802,41.4423 78.8332,40.9423 78.8332,40.3277 L78.8332,37.5777 C78.8332,36.1402 78.6405,35.3225 78.2551,35.1246 C78.1822,35.083 78.0989,35.0621 78.0051,35.0621 C77.6405,35.0621 77.401,35.3955 77.2864,36.0621 C77.2343,36.4371 77.2082,36.9423 77.2082,37.5777 L77.2082,40.3277 C77.2082,41.6819 77.3749,42.4736 77.7082,42.7027 C77.802,42.7652 77.9114,42.7965 78.0364,42.7965 M81.302,38.9059 C81.302,37.5934 81.6145,36.5309 82.2395,35.7184 C82.7499,35.0725 83.3437,34.7444 84.0207,34.734 C84.802,34.734 85.4478,35.1402 85.9582,35.9527 C86.4687,36.7652 86.7239,37.76 86.7239,38.9371 C86.7239,40.3121 86.4062,41.4059 85.7707,42.2184 C85.2707,42.8225 84.6926,43.1298 84.0364,43.1402 C83.203,43.1402 82.5312,42.7132 82.0207,41.859 C81.5416,41.0673 81.302,40.083 81.302,38.9059 M84.0364,42.7965 C84.3905,42.7965 84.6249,42.4736 84.7395,41.8277 C84.802,41.4423 84.8332,40.9423 84.8332,40.3277 L84.8332,37.5777 C84.8332,36.1402 84.6405,35.3225 84.2551,35.1246 C84.1822,35.083 84.0989,35.0621 84.0051,35.0621 C83.6405,35.0621 83.401,35.3955 83.2864,36.0621 C83.2343,36.4371 83.2082,36.9423 83.2082,37.5777 L83.2082,40.3277 C83.2082,41.6819 83.3749,42.4736 83.7082,42.7027 C83.802,42.7652 83.9114,42.7965 84.0364,42.7965"/>
<path class="StaffText" d="M63.8174,25.2057 C64.2654,25.2057 64.7654,25.3203 65.3174,25.5495 C65.557,25.6432 65.7289,25.6901 65.8331,25.6901 C65.9789,25.6901 66.1091,25.5807 66.2237,25.362 C66.2341,25.3203 66.2497,25.2787 66.2706,25.237 L66.5362,25.237 L66.5362,27.5807 L66.2862,27.5807 C66.0154,26.9766 65.7341,26.5339 65.4424,26.2526 C65.3799,26.1901 65.3226,26.138 65.2706,26.0964 C64.8435,25.7214 64.4008,25.5339 63.9424,25.5339 C62.9424,25.5339 62.3487,26.2526 62.1612,27.6901 C62.1299,28.013 62.1143,28.362 62.1143,28.737 C62.1143,29.9245 62.3279,30.7943 62.7549,31.3464 C63.0883,31.763 63.5466,31.9714 64.1299,31.9714 C64.6924,31.9714 65.0101,31.7943 65.0831,31.4401 C65.0935,31.3776 65.0987,31.3099 65.0987,31.237 L65.0987,30.1901 C65.0987,29.8985 65.0258,29.711 64.8799,29.6276 C64.7341,29.5547 64.4685,29.5078 64.0831,29.487 L64.0831,29.237 L67.5206,29.237 L67.5206,29.487 C67.1143,29.5287 66.8643,29.6172 66.7706,29.7526 C66.6976,29.8672 66.6612,30.086 66.6612,30.4089 L66.6612,31.6745 C66.0674,32.0287 65.281,32.237 64.3018,32.2995 C64.1664,32.2995 64.031,32.2995 63.8956,32.2995 C62.781,32.2995 61.8904,31.9401 61.2237,31.2214 C60.6299,30.5755 60.3331,29.7682 60.3331,28.7995 C60.3331,27.7578 60.6768,26.8932 61.3643,26.2057 C62.031,25.5391 62.8487,25.2057 63.8174,25.2057 M71.5831,28.8307 C71.3643,28.8307 71.1508,28.711 70.9424,28.4714 C70.8279,28.3255 70.7445,28.2474 70.6924,28.237 C70.4737,28.237 70.307,28.388 70.1924,28.6901 C70.1195,28.8464 70.0831,29.013 70.0831,29.1901 L70.0831,31.0807 C70.0831,31.4453 70.156,31.6693 70.3018,31.7526 C70.3956,31.8151 70.5674,31.8568 70.8174,31.8776 L70.8174,32.112 L68.1768,32.112 L68.1768,31.8776 C68.4476,31.8255 68.6091,31.7318 68.6612,31.5964 C68.682,31.5235 68.6924,31.4141 68.6924,31.2682 L68.6924,28.3307 C68.6924,28.0703 68.6195,27.9037 68.4737,27.8307 C68.4008,27.7891 68.3018,27.7578 68.1768,27.737 L68.1768,27.5026 L70.0518,27.5026 L70.0518,28.3307 C70.4268,27.7787 70.7966,27.4714 71.1612,27.4089 C71.2445,27.388 71.3226,27.3776 71.3956,27.3776 C71.7393,27.3776 71.9841,27.5182 72.1299,27.7995 C72.182,27.9141 72.2081,28.0339 72.2081,28.1589 C72.2081,28.4714 72.0831,28.6797 71.8331,28.7839 C71.7497,28.8151 71.6664,28.8307 71.5831,28.8307 M73.4581,28.0807 C73.4581,28.112 73.5101,28.2057 73.6143,28.362 C73.7081,28.5078 73.7549,28.6328 73.7549,28.737 C73.7549,28.9974 73.6247,29.1745 73.3643,29.2682 C73.2706,29.2995 73.1768,29.3151 73.0831,29.3151 C72.7185,29.3151 72.5049,29.1537 72.4424,28.8307 C72.432,28.7682 72.4268,28.711 72.4268,28.6589 C72.4268,28.1901 72.682,27.8412 73.1924,27.612 C73.5154,27.4557 73.8904,27.3776 74.3174,27.3776 C75.1924,27.3776 75.7914,27.6172 76.1143,28.0964 C76.2393,28.2943 76.3018,28.5182 76.3018,28.7682 L76.3018,31.3464 C76.3122,31.5026 76.3799,31.586 76.5049,31.5964 C76.557,31.586 76.5935,31.5703 76.6143,31.5495 L76.7237,31.4557 L76.8643,31.6589 C76.4685,32.0339 76.0987,32.2318 75.7549,32.2526 C75.3799,32.2526 75.1351,32.112 75.0206,31.8307 C74.9893,31.737 74.9581,31.638 74.9268,31.5339 C74.3851,32.0026 73.8591,32.2422 73.3487,32.2526 C72.9112,32.2526 72.5935,32.086 72.3956,31.7526 C72.2914,31.586 72.2393,31.4037 72.2393,31.2057 C72.2393,30.6224 72.6872,30.1485 73.5831,29.7839 C73.8226,29.6797 74.2706,29.5287 74.9268,29.3307 L74.9268,28.5964 C74.9268,28.0651 74.7081,27.7735 74.2706,27.7214 C74.2081,27.7214 74.1456,27.7214 74.0831,27.7214 C73.7914,27.7214 73.5935,27.8047 73.4893,27.9714 C73.4685,28.0026 73.4581,28.0391 73.4581,28.0807 M74.9112,31.0964 L74.9112,29.6589 C74.1091,29.8776 73.7029,30.2787 73.6924,30.862 C73.6924,31.1953 73.8018,31.4037 74.0206,31.487 C74.0831,31.5078 74.1456,31.5182 74.2081,31.5182 C74.4372,31.5182 74.6716,31.3776 74.9112,31.0964 M80.3799,32.237 L80.3799,31.5964 C80.0258,31.9714 79.682,32.1849 79.3487,32.237 C79.2549,32.2474 79.156,32.2526 79.0518,32.2526 C78.4581,32.2526 77.9893,31.9766 77.6456,31.4245 C77.3747,30.9974 77.2393,30.4922 77.2393,29.9089 C77.2393,29.0547 77.4841,28.3828 77.9737,27.8932 C78.307,27.5495 78.7029,27.3776 79.1612,27.3776 C79.5154,27.3776 79.8383,27.513 80.1299,27.7839 C80.2133,27.8568 80.2862,27.9245 80.3487,27.987 L80.3487,26.1745 C80.3487,25.9245 80.2914,25.7682 80.1768,25.7057 C80.0726,25.6537 79.8747,25.6172 79.5831,25.5964 L79.5831,25.362 L81.7393,25.362 L81.7393,31.112 C81.7393,31.3932 81.8226,31.5651 81.9893,31.6276 C82.0726,31.6589 82.1872,31.6797 82.3331,31.6901 L82.3331,31.9245 L81.7081,32.0026 C81.156,32.0755 80.7133,32.1537 80.3799,32.237 M79.5049,31.7057 C79.7966,31.7057 80.0466,31.5391 80.2549,31.2057 C80.307,31.112 80.3383,31.0443 80.3487,31.0026 L80.3487,28.5495 C80.2237,28.2162 80.0154,28.0182 79.7237,27.9557 C79.6716,27.9453 79.6195,27.9401 79.5674,27.9401 C79.057,27.9401 78.7758,28.4453 78.7237,29.4557 C78.7237,29.5703 78.7237,29.6953 78.7237,29.8307 C78.7237,31.0703 78.9841,31.6953 79.5049,31.7057 M84.6768,29.6589 C84.7289,30.6797 84.9945,31.2787 85.4737,31.4557 C85.5987,31.4974 85.7289,31.5182 85.8643,31.5182 C86.2289,31.5182 86.5622,31.3516 86.8643,31.0182 C86.9164,30.9662 86.9633,30.9141 87.0049,30.862 L87.2393,31.0026 C86.8226,31.6068 86.4112,31.987 86.0049,32.1432 C85.7966,32.2162 85.5622,32.2526 85.3018,32.2526 C84.5518,32.2526 83.9893,31.9453 83.6143,31.3307 C83.3643,30.9141 83.2393,30.4141 83.2393,29.8307 C83.2393,28.9349 83.5101,28.263 84.0518,27.8151 C84.4164,27.5235 84.8435,27.3776 85.3331,27.3776 C86.4372,27.3776 87.057,28.0964 87.1924,29.5339 C87.1924,29.5755 87.1924,29.6172 87.1924,29.6589 L84.6768,29.6589 M85.9737,29.1432 C85.9529,28.5182 85.8851,28.1224 85.7706,27.9557 C85.6768,27.7995 85.531,27.7214 85.3331,27.7214 C85.0414,27.7214 84.8435,27.8932 84.7393,28.237 C84.6768,28.4766 84.6404,28.8307 84.6299,29.2995 L85.9737,29.2995 L85.9737,29.1432 M91.4893,26.3307 C91.3851,26.3307 91.1195,26.4089 90.6924,26.5651 C90.6716,26.5755 90.656,26.5807 90.6456,26.5807 L90.6456,26.3307 L93.1612,25.237 L93.3331,25.237 L93.3331,30.9401 C93.3331,31.3464 93.4112,31.6016 93.5674,31.7057 C93.7133,31.8099 93.9945,31.8672 94.4112,31.8776 L94.4112,32.112 L90.6612,32.112 L90.6612,31.8776 C91.2029,31.8672 91.5414,31.7839 91.6768,31.6276 C91.7914,31.4818 91.8487,31.2318 91.8487,30.8776 L91.8487,27.0182 C91.8383,26.5703 91.7185,26.3412 91.4893,26.3307 M96.6456,30.5495 C96.9685,30.5495 97.2133,30.6901 97.3799,30.9714 C97.4633,31.1172 97.5049,31.263 97.5049,31.4089 C97.5049,31.7214 97.3643,31.961 97.0831,32.1276 C96.9372,32.2005 96.7914,32.237 96.6456,32.237 C96.3122,32.237 96.0674,32.0964 95.9112,31.8151 C95.8383,31.6797 95.8018,31.5391 95.8018,31.3932 C95.8018,31.0912 95.9372,30.8568 96.2081,30.6901 C96.3435,30.5964 96.4893,30.5495 96.6456,30.5495 M96.6456,27.3932 C96.9685,27.3932 97.2133,27.5287 97.3799,27.7995 C97.4633,27.9453 97.5049,28.0912 97.5049,28.237 C97.5049,28.5599 97.3643,28.8047 97.0831,28.9714 C96.9476,29.0443 96.8018,29.0807 96.6456,29.0807 C96.3122,29.0807 96.0674,28.9349 95.9112,28.6432 C95.8383,28.5078 95.8018,28.3672 95.8018,28.2214 C95.8018,27.9193 95.9372,27.6849 96.2081,27.5182 C96.3435,27.4349 96.4893,27.3932 96.6456,27.3932"/>
<path class="StaffText" d="M108.052,31.9245 L108.052,32.112 L105.489,32.112 L105.489,31.9245 C105.906,31.9141 106.135,31.8412 106.177,31.7057 C106.187,31.6641 106.192,31.6224 106.192,31.5807 C106.192,31.4245 106.13,31.2057 106.005,30.9245 L105.599,29.987 L102.974,29.987 L102.521,31.1276 C102.468,31.2735 102.442,31.4037 102.442,31.5182 C102.453,31.7787 102.677,31.9141 103.114,31.9245 L103.114,32.112 L101.146,32.112 L101.146,31.9245 C101.385,31.9141 101.567,31.8307 101.692,31.6745 C101.838,31.4766 102.067,31.013 102.38,30.2839 L104.458,25.3776 L104.661,25.3776 L107.146,31.0495 C107.343,31.487 107.51,31.7474 107.646,31.8307 C107.739,31.8828 107.875,31.9141 108.052,31.9245 M103.146,29.5495 L105.458,29.5495 L104.302,26.7995 L103.146,29.5495 M111.114,28.1589 L111.114,27.987 C111.593,27.8412 112.062,27.6849 112.521,27.5182 L112.583,27.5339 L112.583,28.2995 C113.156,27.862 113.567,27.612 113.817,27.5495 C113.922,27.5287 114.026,27.5182 114.13,27.5182 C114.661,27.5287 115.015,27.8151 115.192,28.3776 C115.724,27.8047 116.271,27.5182 116.833,27.5182 C117.593,27.5287 117.979,28.1276 117.989,29.3151 L117.989,31.362 C118,31.7266 118.14,31.9193 118.411,31.9401 L118.677,31.9557 L118.677,32.112 L116.489,32.112 L116.489,31.9557 C116.812,31.9245 117.005,31.8516 117.067,31.737 C117.12,31.6432 117.146,31.4818 117.146,31.2526 L117.146,29.1432 C117.146,28.5912 117.036,28.2578 116.817,28.1432 C116.713,28.0807 116.573,28.0495 116.396,28.0495 C115.948,28.0599 115.583,28.263 115.302,28.6589 L115.302,31.1745 C115.302,31.5495 115.39,31.7839 115.567,31.8776 C115.672,31.9297 115.823,31.9557 116.021,31.9557 L116.021,32.112 L113.786,32.112 L113.786,31.9557 C114.109,31.9349 114.307,31.862 114.38,31.737 C114.442,31.6432 114.474,31.4818 114.474,31.2526 L114.474,29.0964 C114.474,28.3985 114.25,28.0495 113.802,28.0495 C113.437,28.0495 113.114,28.1693 112.833,28.4089 C112.76,28.4818 112.692,28.5599 112.63,28.6432 L112.63,31.4401 C112.63,31.6901 112.718,31.8464 112.896,31.9089 C112.989,31.9401 113.125,31.9557 113.302,31.9557 L113.302,32.112 L111.083,32.112 L111.083,31.9557 C111.437,31.9557 111.651,31.8724 111.724,31.7057 C111.765,31.6016 111.786,31.4557 111.786,31.2682 L111.786,28.7526 C111.786,28.3776 111.708,28.1693 111.552,28.1276 C111.521,28.1172 111.484,28.112 111.442,28.112 C111.338,28.112 111.229,28.1276 111.114,28.1589 M119.614,28.1901 C119.458,28.1901 119.317,28.2005 119.192,28.2214 L119.192,28.0651 C119.661,27.9297 120.177,27.7474 120.739,27.5182 L120.771,27.5495 L120.771,31.0964 C120.771,31.4818 120.828,31.7214 120.942,31.8151 C121.036,31.888 121.229,31.9349 121.521,31.9557 L121.521,32.112 L119.146,32.112 L119.146,31.9557 C119.51,31.9349 119.739,31.8672 119.833,31.7526 C119.906,31.638 119.942,31.4193 119.942,31.0964 L119.942,28.7682 C119.942,28.4141 119.859,28.2214 119.692,28.1901 C119.661,28.1901 119.635,28.1901 119.614,28.1901 M120.271,25.2839 C120.489,25.2839 120.646,25.3828 120.739,25.5807 C120.771,25.6537 120.786,25.7266 120.786,25.7995 C120.786,26.0182 120.682,26.1745 120.474,26.2682 C120.401,26.2891 120.333,26.2995 120.271,26.2995 C120.052,26.2995 119.896,26.2005 119.802,26.0026 C119.781,25.9297 119.771,25.862 119.771,25.7995 C119.771,25.5807 119.864,25.4245 120.052,25.3307 C120.125,25.2995 120.198,25.2839 120.271,25.2839 M122.083,28.1276 L122.083,27.9557 C122.583,27.8099 123.047,27.6641 123.474,27.5182 L123.536,27.5339 L123.536,28.3151 C124.015,27.8776 124.39,27.6224 124.661,27.5495 C124.765,27.5287 124.875,27.5182 124.989,27.5182 C125.531,27.5182 125.89,27.7891 126.067,28.3307 C126.13,28.5287 126.161,28.7526 126.161,29.0026 L126.161,31.2995 C126.161,31.612 126.234,31.8047 126.38,31.8776 C126.474,31.9089 126.604,31.9349 126.771,31.9557 L126.771,32.112 L124.692,32.112 L124.692,31.9557 C124.995,31.9349 125.182,31.836 125.255,31.6589 C125.307,31.5443 125.333,31.3672 125.333,31.1276 L125.333,29.0339 C125.312,28.388 125.067,28.0599 124.599,28.0495 C124.349,28.0495 124.088,28.1641 123.817,28.3932 C123.745,28.4662 123.661,28.5443 123.567,28.6276 L123.567,31.4401 C123.567,31.6797 123.666,31.836 123.864,31.9089 C123.958,31.9297 124.078,31.9453 124.224,31.9557 L124.224,32.112 L122.114,32.112 L122.114,31.9557 C122.406,31.9349 122.588,31.8516 122.661,31.7057 C122.703,31.5912 122.724,31.4245 122.724,31.2057 L122.724,28.7214 C122.724,28.3568 122.651,28.1537 122.505,28.112 C122.463,28.0912 122.416,28.0807 122.364,28.0807 C122.239,28.0807 122.146,28.0964 122.083,28.1276 M129.442,27.5182 C130.182,27.5182 130.765,27.7891 131.192,28.3307 C131.495,28.737 131.646,29.2162 131.646,29.7682 C131.646,30.5495 131.39,31.1745 130.88,31.6432 C130.463,32.0182 129.979,32.2057 129.427,32.2057 C128.718,32.2057 128.156,31.9349 127.739,31.3932 C127.406,30.9557 127.239,30.4401 127.239,29.8464 C127.239,29.0339 127.515,28.4089 128.067,27.9714 C128.453,27.6693 128.911,27.5182 129.442,27.5182 M128.146,29.362 C128.146,30.2682 128.333,30.961 128.708,31.4401 C128.948,31.7526 129.229,31.9089 129.552,31.9089 C130.073,31.9089 130.432,31.612 130.63,31.0182 C130.713,30.7578 130.755,30.461 130.755,30.1276 C130.755,29.2422 130.541,28.586 130.114,28.1589 C129.885,27.9297 129.62,27.8151 129.317,27.8151 C128.849,27.8151 128.51,28.0547 128.302,28.5339 C128.198,28.7735 128.146,29.0495 128.146,29.362 M135.005,28.487 C134.901,28.487 134.75,28.4037 134.552,28.237 C134.458,28.1537 134.385,28.112 134.333,28.112 C134.166,28.112 133.995,28.2422 133.817,28.5026 C133.703,28.6693 133.646,28.8151 133.646,28.9401 L133.646,31.2057 C133.646,31.5495 133.734,31.763 133.911,31.8464 C134.036,31.9089 134.229,31.9453 134.489,31.9557 L134.489,32.112 L132.083,32.112 L132.083,31.9557 C132.437,31.8932 132.651,31.8099 132.724,31.7057 C132.776,31.6224 132.802,31.4766 132.802,31.2682 L132.802,28.7526 C132.802,28.388 132.718,28.1901 132.552,28.1589 C132.521,28.1485 132.489,28.1432 132.458,28.1432 C132.343,28.1432 132.229,28.1589 132.114,28.1901 L132.114,28.0339 C132.646,27.8672 133.135,27.6953 133.583,27.5182 L133.646,27.5339 L133.646,28.4245 C133.989,27.9453 134.281,27.6589 134.521,27.5651 C134.625,27.5339 134.729,27.5182 134.833,27.5182 C135.146,27.5182 135.328,27.6485 135.38,27.9089 C135.38,27.9505 135.38,27.9974 135.38,28.0495 C135.349,28.3203 135.224,28.4662 135.005,28.487 M138.13,28.1901 L138.13,28.0182 C138.557,27.8932 139.036,27.7266 139.567,27.5182 L139.63,27.5339 L139.63,28.2995 C140.057,27.7787 140.536,27.5182 141.067,27.5182 C141.63,27.5182 142.073,27.7787 142.396,28.2995 C142.625,28.6849 142.739,29.1328 142.739,29.6432 C142.739,30.4557 142.489,31.1172 141.989,31.6276 C141.604,32.013 141.156,32.2057 140.646,32.2057 C140.312,32.2057 140.021,32.1068 139.771,31.9089 C139.718,31.8776 139.672,31.8412 139.63,31.7995 L139.63,33.362 C139.63,33.7057 139.698,33.9141 139.833,33.987 C139.958,34.0599 140.182,34.0964 140.505,34.0964 L140.505,34.2839 L138.083,34.2839 L138.083,34.112 C138.437,34.0807 138.651,33.9974 138.724,33.862 C138.765,33.7682 138.786,33.6224 138.786,33.4245 L138.786,28.737 C138.786,28.4453 138.734,28.2735 138.63,28.2214 C138.567,28.1901 138.484,28.1745 138.38,28.1745 C138.265,28.1745 138.182,28.1797 138.13,28.1901 M139.63,28.7839 L139.63,31.2526 C139.63,31.4297 139.776,31.5964 140.067,31.7526 C140.276,31.8568 140.474,31.9089 140.661,31.9089 C141.12,31.9089 141.458,31.6537 141.677,31.1432 C141.812,30.8203 141.88,30.4557 141.88,30.0495 C141.88,29.2266 141.672,28.6537 141.255,28.3307 C141.078,28.1849 140.875,28.112 140.646,28.112 C140.343,28.112 140.073,28.2214 139.833,28.4401 C139.708,28.5547 139.64,28.6693 139.63,28.7839 M143.958,29.3464 C144,30.5235 144.385,31.2162 145.114,31.4245 C145.239,31.4662 145.375,31.487 145.521,31.487 C146.01,31.487 146.427,31.2787 146.771,30.862 C146.864,30.7474 146.963,30.612 147.067,30.4557 L147.224,30.5182 C146.859,31.4766 146.286,32.0287 145.505,32.1745 C145.37,32.1953 145.239,32.2057 145.114,32.2057 C144.375,32.2057 143.843,31.8932 143.521,31.2682 C143.333,30.8932 143.239,30.461 143.239,29.9714 C143.239,29.086 143.515,28.4141 144.067,27.9557 C144.432,27.6641 144.854,27.5182 145.333,27.5182 C146.25,27.5182 146.802,28.0391 146.989,29.0807 C147.01,29.1745 147.026,29.263 147.036,29.3464 L143.958,29.3464 M143.974,29.0495 L146.021,29.0495 C145.927,28.4766 145.76,28.1224 145.521,27.987 C145.396,27.9245 145.234,27.8932 145.036,27.8932 C144.442,27.8932 144.088,28.2682 143.974,29.0182 C143.974,29.0287 143.974,29.0391 143.974,29.0495 M147.083,28.1276 L147.083,27.9557 C147.583,27.8099 148.047,27.6641 148.474,27.5182 L148.536,27.5339 L148.536,28.3151 C149.015,27.8776 149.39,27.6224 149.661,27.5495 C149.765,27.5287 149.875,27.5182 149.989,27.5182 C150.531,27.5182 150.89,27.7891 151.067,28.3307 C151.13,28.5287 151.161,28.7526 151.161,29.0026 L151.161,31.2995 C151.161,31.612 151.234,31.8047 151.38,31.8776 C151.474,31.9089 151.604,31.9349 151.771,31.9557 L151.771,32.112 L149.692,32.112 L149.692,31.9557 C149.995,31.9349 150.182,31.836 150.255,31.6589 C150.307,31.5443 150.333,31.3672 150.333,31.1276 L150.333,29.0339 C150.312,28.388 150.067,28.0599 149.599,28.0495 C149.349,28.0495 149.088,28.1641 148.817,28.3932 C148.745,28.4662 148.661,28.5443 148.567,28.6276 L148.567,31.4401 C148.567,31.6797 148.666,31.836 148.864,31.9089 C148.958,31.9297 149.078,31.9453 149.224,31.9557 L149.224,32.112 L147.114,32.112 L147.114,31.9557 C147.406,31.9349 147.588,31.8516 147.661,31.7057 C147.703,31.5912 147.724,31.4245 147.724,31.2057 L147.724,28.7214 C147.724,28.3568 147.651,28.1537 147.505,28.112 C147.463,28.0912 147.416,28.0807 147.364,28.0807 C147.239,28.0807 147.146,28.0964 147.083,28.1276 M154.583,27.612 L154.583,27.9089 L153.567,27.9089 L153.567,30.7682 C153.567,31.3099 153.703,31.6068 153.974,31.6589 C154.005,31.6693 154.041,31.6745 154.083,31.6745 C154.291,31.6641 154.495,31.5443 154.692,31.3151 L154.817,31.4401 C154.495,31.9505 154.093,32.2057 153.614,32.2057 C153.031,32.1953 152.734,31.7735 152.724,30.9401 L152.724,27.9089 L152.192,27.9089 C152.172,27.888 152.161,27.8672 152.161,27.8464 C152.161,27.8047 152.203,27.763 152.286,27.7214 C152.567,27.5339 152.901,27.1693 153.286,26.6276 C153.297,26.6172 153.302,26.612 153.302,26.612 C153.406,26.4557 153.474,26.362 153.505,26.3307 C153.547,26.3412 153.567,26.3828 153.567,26.4557 L153.567,27.612 L154.583,27.612 M155.239,31.1432 C155.239,30.6328 155.557,30.2005 156.192,29.8464 C156.38,29.7526 156.88,29.5391 157.692,29.2057 C157.713,29.2057 157.729,29.2005 157.739,29.1901 L157.739,28.5807 C157.687,28.0599 157.432,27.7839 156.974,27.7526 C156.661,27.7526 156.442,27.8516 156.317,28.0495 C156.276,28.1224 156.255,28.1849 156.255,28.237 C156.255,28.2995 156.265,28.3828 156.286,28.487 C156.297,28.5599 156.302,28.612 156.302,28.6432 C156.302,28.8203 156.213,28.9453 156.036,29.0182 C155.974,29.0495 155.916,29.0651 155.864,29.0651 C155.677,29.0651 155.547,28.9766 155.474,28.7995 C155.442,28.7474 155.427,28.6901 155.427,28.6276 C155.427,28.263 155.646,27.9662 156.083,27.737 C156.385,27.5912 156.729,27.5182 157.114,27.5182 C157.833,27.5182 158.276,27.7735 158.442,28.2839 C158.515,28.5026 158.552,28.7787 158.552,29.112 L158.552,31.0495 C158.552,31.3828 158.614,31.5703 158.739,31.612 C158.781,31.6224 158.817,31.6276 158.849,31.6276 C158.995,31.6172 159.14,31.5547 159.286,31.4401 L159.286,31.6901 C159.015,32.0026 158.765,32.1745 158.536,32.2057 C158.484,32.2057 158.432,32.2057 158.38,32.2057 C158.067,32.2057 157.87,32.0495 157.786,31.737 C157.765,31.6537 157.755,31.5599 157.755,31.4557 C157.161,31.9349 156.672,32.1849 156.286,32.2057 C155.859,32.2057 155.552,32.0339 155.364,31.6901 C155.281,31.5235 155.239,31.3412 155.239,31.1432 M157.739,30.862 L157.739,29.4245 C156.916,29.7266 156.411,30.0339 156.224,30.3464 C156.151,30.4922 156.114,30.6485 156.114,30.8151 C156.114,31.211 156.26,31.461 156.552,31.5651 C156.625,31.5964 156.692,31.612 156.755,31.612 C156.974,31.6016 157.213,31.5235 157.474,31.3776 C157.62,31.2943 157.703,31.1901 157.724,31.0651 C157.734,31.0026 157.739,30.9349 157.739,30.862 M161.583,27.612 L161.583,27.9089 L160.567,27.9089 L160.567,30.7682 C160.567,31.3099 160.703,31.6068 160.974,31.6589 C161.005,31.6693 161.041,31.6745 161.083,31.6745 C161.291,31.6641 161.495,31.5443 161.692,31.3151 L161.817,31.4401 C161.495,31.9505 161.093,32.2057 160.614,32.2057 C160.031,32.1953 159.734,31.7735 159.724,30.9401 L159.724,27.9089 L159.192,27.9089 C159.172,27.888 159.161,27.8672 159.161,27.8464 C159.161,27.8047 159.203,27.763 159.286,27.7214 C159.567,27.5339 159.901,27.1693 160.286,26.6276 C160.297,26.6172 160.302,26.612 160.302,26.612 C160.406,26.4557 160.474,26.362 160.505,26.3307 C160.547,26.3412 160.567,26.3828 160.567,26.4557 L160.567,27.612 L161.583,27.612 M164.442,27.5182 C165.182,27.5182 165.765,27.7891 166.192,28.3307 C166.495,28.737 166.646,29.2162 166.646,29.7682 C166.646,30.5495 166.39,31.1745 165.88,31.6432 C165.463,32.0182 164.979,32.2057 164.427,32.2057 C163.718,32.2057 163.156,31.9349 162.739,31.3932 C162.406,30.9557 162.239,30.4401 162.239,29.8464 C162.239,29.0339 162.515,28.4089 163.067,27.9714 C163.453,27.6693 163.911,27.5182 164.442,27.5182 M163.146,29.362 C163.146,30.2682 163.333,30.961 163.708,31.4401 C163.948,31.7526 164.229,31.9089 164.552,31.9089 C165.073,31.9089 165.432,31.612 165.63,31.0182 C165.713,30.7578 165.755,30.461 165.755,30.1276 C165.755,29.2422 165.541,28.586 165.114,28.1589 C164.885,27.9297 164.62,27.8151 164.317,27.8151 C163.849,27.8151 163.51,28.0547 163.302,28.5339 C163.198,28.7735 163.146,29.0495 163.146,29.362 M167.083,28.1276 L167.083,27.9557 C167.583,27.8099 168.047,27.6641 168.474,27.5182 L168.536,27.5339 L168.536,28.3151 C169.015,27.8776 169.39,27.6224 169.661,27.5495 C169.765,27.5287 169.875,27.5182 169.989,27.5182 C170.531,27.5182 170.89,27.7891 171.067,28.3307 C171.13,28.5287 171.161,28.7526 171.161,29.0026 L171.161,31.2995 C171.161,31.612 171.234,31.8047 171.38,31.8776 C171.474,31.9089 171.604,31.9349 171.771,31.9557 L171.771,32.112 L169.692,32.112 L169.692,31.9557 C169.995,31.9349 170.182,31.836 170.255,31.6589 C170.307,31.5443 170.333,31.3672 170.333,31.1276 L170.333,29.0339 C170.312,28.388 170.067,28.0599 169.599,28.0495 C169.349,28.0495 169.088,28.1641 168.817,28.3932 C168.745,28.4662 168.661,28.5443 168.567,28.6276 L168.567,31.4401 C168.567,31.6797 168.666,31.836 168.864,31.9089 C168.958,31.9297 169.078,31.9453 169.224,31.9557 L169.224,32.112 L167.114,32.112 L167.114,31.9557 C167.406,31.9349 167.588,31.8516 167.661,31.7057 C167.703,31.5912 167.724,31.4245 167.724,31.2057 L167.724,28.7214 C167.724,28.3568 167.651,28.1537 167.505,28.112 C167.463,28.0912 167.416,28.0807 167.364,28.0807 C167.239,28.0807 167.146,28.0964 167.083,28.1276 M172.614,28.1901 C172.458,28.1901 172.317,28.2005 172.192,28.2214 L172.192,28.0651 C172.661,27.9297 173.177,27.7474 173.739,27.5182 L173.771,27.5495 L173.771,31.0964 C173.771,31.4818 173.828,31.7214 173.942,31.8151 C174.036,31.888 174.229,31.9349 174.521,31.9557 L174.521,32.112 L172.146,32.112 L172.146,31.9557 C172.51,31.9349 172.739,31.8672 172.833,31.7526 C172.906,31.638 172.942,31.4193 172.942,31.0964 L172.942,28.7682 C172.942,28.4141 172.859,28.2214 172.692,28.1901 C172.661,28.1901 172.635,28.1901 172.614,28.1901 M173.271,25.2839 C173.489,25.2839 173.646,25.3828 173.739,25.5807 C173.771,25.6537 173.786,25.7266 173.786,25.7995 C173.786,26.0182 173.682,26.1745 173.474,26.2682 C173.401,26.2891 173.333,26.2995 173.271,26.2995 C173.052,26.2995 172.896,26.2005 172.802,26.0026 C172.781,25.9297 172.771,25.862 172.771,25.7995 C172.771,25.5807 172.864,25.4245 173.052,25.3307 C173.125,25.2995 173.198,25.2839 173.271,25.2839 M175.239,29.987 C175.239,29.1432 175.526,28.4818 176.099,28.0026 C176.495,27.6797 176.937,27.5182 177.427,27.5182 C177.979,27.5182 178.406,27.6693 178.708,27.9714 C178.885,28.1485 178.974,28.3412 178.974,28.5495 C178.974,28.7266 178.88,28.8516 178.692,28.9245 C178.62,28.9557 178.552,28.9714 178.489,28.9714 C178.281,28.9714 178.13,28.836 178.036,28.5651 C178.026,28.5443 178.021,28.5235 178.021,28.5026 L177.958,28.2839 C177.896,28.0339 177.781,27.888 177.614,27.8464 C177.541,27.8255 177.458,27.8151 177.364,27.8151 C176.864,27.8151 176.484,28.0547 176.224,28.5339 C176.078,28.8255 176.005,29.1641 176.005,29.5495 C176.005,30.2787 176.229,30.8255 176.677,31.1901 C176.937,31.388 177.229,31.487 177.552,31.487 C177.968,31.487 178.328,31.3203 178.63,30.987 C178.734,30.862 178.849,30.7162 178.974,30.5495 L179.114,30.6432 C178.739,31.362 178.323,31.8307 177.864,32.0495 C177.625,32.1537 177.385,32.2057 177.146,32.2057 C176.5,32.2057 175.995,31.9401 175.63,31.4089 C175.37,31.0026 175.239,30.5287 175.239,29.987 M184.661,27.7214 C184.682,27.711 184.739,27.6745 184.833,27.612 L184.942,27.612 L184.974,28.9714 L184.833,28.9714 C184.666,28.3255 184.427,27.9401 184.114,27.8151 C184,27.763 183.87,27.737 183.724,27.737 C183.37,27.737 183.13,27.8776 183.005,28.1589 C182.974,28.2422 182.958,28.3307 182.958,28.4245 C182.968,28.7057 183.114,28.9297 183.396,29.0964 L184.474,29.737 C184.953,30.0287 185.224,30.3464 185.286,30.6901 C185.297,30.763 185.302,30.8464 185.302,30.9401 C185.302,31.3568 185.12,31.6953 184.755,31.9557 C184.495,32.1224 184.208,32.2057 183.896,32.2057 C183.76,32.2057 183.453,32.1589 182.974,32.0651 C182.859,32.0443 182.771,32.0339 182.708,32.0339 C182.604,32.0443 182.526,32.086 182.474,32.1589 L182.349,32.1589 L182.349,30.5964 L182.505,30.5964 C182.609,31.0651 182.739,31.3932 182.896,31.5807 C183.114,31.8516 183.406,31.987 183.771,31.987 C184.198,31.987 184.463,31.8307 184.567,31.5182 C184.599,31.4453 184.614,31.362 184.614,31.2682 C184.604,30.9662 184.427,30.7162 184.083,30.5182 L183.505,30.1901 C182.88,29.836 182.51,29.4818 182.396,29.1276 C182.354,29.0026 182.333,28.8776 182.333,28.7526 C182.333,28.2839 182.536,27.9349 182.942,27.7057 C183.172,27.5807 183.422,27.5182 183.692,27.5182 C183.911,27.5182 184.172,27.5703 184.474,27.6745 C184.557,27.7057 184.62,27.7214 184.661,27.7214 M186.239,29.987 C186.239,29.1432 186.526,28.4818 187.099,28.0026 C187.495,27.6797 187.937,27.5182 188.427,27.5182 C188.979,27.5182 189.406,27.6693 189.708,27.9714 C189.885,28.1485 189.974,28.3412 189.974,28.5495 C189.974,28.7266 189.88,28.8516 189.692,28.9245 C189.62,28.9557 189.552,28.9714 189.489,28.9714 C189.281,28.9714 189.13,28.836 189.036,28.5651 C189.026,28.5443 189.021,28.5235 189.021,28.5026 L188.958,28.2839 C188.896,28.0339 188.781,27.888 188.614,27.8464 C188.541,27.8255 188.458,27.8151 188.364,27.8151 C187.864,27.8151 187.484,28.0547 187.224,28.5339 C187.078,28.8255 187.005,29.1641 187.005,29.5495 C187.005,30.2787 187.229,30.8255 187.677,31.1901 C187.937,31.388 188.229,31.487 188.552,31.487 C188.968,31.487 189.328,31.3203 189.63,30.987 C189.734,30.862 189.849,30.7162 189.974,30.5495 L190.114,30.6432 C189.739,31.362 189.323,31.8307 188.864,32.0495 C188.625,32.1537 188.385,32.2057 188.146,32.2057 C187.5,32.2057 186.995,31.9401 186.63,31.4089 C186.37,31.0026 186.239,30.5287 186.239,29.987 M190.239,31.1432 C190.239,30.6328 190.557,30.2005 191.192,29.8464 C191.38,29.7526 191.88,29.5391 192.692,29.2057 C192.713,29.2057 192.729,29.2005 192.739,29.1901 L192.739,28.5807 C192.687,28.0599 192.432,27.7839 191.974,27.7526 C191.661,27.7526 191.442,27.8516 191.317,28.0495 C191.276,28.1224 191.255,28.1849 191.255,28.237 C191.255,28.2995 191.265,28.3828 191.286,28.487 C191.297,28.5599 191.302,28.612 191.302,28.6432 C191.302,28.8203 191.213,28.9453 191.036,29.0182 C190.974,29.0495 190.916,29.0651 190.864,29.0651 C190.677,29.0651 190.547,28.9766 190.474,28.7995 C190.442,28.7474 190.427,28.6901 190.427,28.6276 C190.427,28.263 190.646,27.9662 191.083,27.737 C191.385,27.5912 191.729,27.5182 192.114,27.5182 C192.833,27.5182 193.276,27.7735 193.442,28.2839 C193.515,28.5026 193.552,28.7787 193.552,29.112 L193.552,31.0495 C193.552,31.3828 193.614,31.5703 193.739,31.612 C193.781,31.6224 193.817,31.6276 193.849,31.6276 C193.995,31.6172 194.14,31.5547 194.286,31.4401 L194.286,31.6901 C194.015,32.0026 193.765,32.1745 193.536,32.2057 C193.484,32.2057 193.432,32.2057 193.38,32.2057 C193.067,32.2057 192.87,32.0495 192.786,31.737 C192.765,31.6537 192.755,31.5599 192.755,31.4557 C192.161,31.9349 191.672,32.1849 191.286,32.2057 C190.859,32.2057 190.552,32.0339 190.364,31.6901 C190.281,31.5235 190.239,31.3412 190.239,31.1432 M192.739,30.862 L192.739,29.4245 C191.916,29.7266 191.411,30.0339 191.224,30.3464 C191.151,30.4922 191.114,30.6485 191.114,30.8151 C191.114,31.211 191.26,31.461 191.552,31.5651 C191.625,31.5964 191.692,31.612 191.755,31.612 C191.974,31.6016 192.213,31.5235 192.474,31.3776 C192.62,31.2943 192.703,31.1901 192.724,31.0651 C192.734,31.0026 192.739,30.9349 192.739,30.862 M194.083,25.8776 L194.083,25.7214 C194.75,25.5547 195.281,25.4089 195.677,25.2839 L195.724,25.2995 L195.724,31.2682 C195.724,31.5807 195.786,31.7735 195.911,31.8464 C196.026,31.8985 196.213,31.9349 196.474,31.9557 L196.474,32.112 L194.114,32.112 L194.114,31.9557 C194.489,31.9245 194.718,31.836 194.802,31.6901 C194.854,31.5964 194.88,31.4453 194.88,31.237 L194.88,26.4714 C194.88,26.138 194.807,25.9453 194.661,25.8932 C194.599,25.8724 194.531,25.862 194.458,25.862 C194.323,25.862 194.198,25.8672 194.083,25.8776 M197.958,29.3464 C198,30.5235 198.385,31.2162 199.114,31.4245 C199.239,31.4662 199.375,31.487 199.521,31.487 C200.01,31.487 200.427,31.2787 200.771,30.862 C200.864,30.7474 200.963,30.612 201.067,30.4557 L201.224,30.5182 C200.859,31.4766 200.286,32.0287 199.505,32.1745 C199.37,32.1953 199.239,32.2057 199.114,32.2057 C198.375,32.2057 197.843,31.8932 197.521,31.2682 C197.333,30.8932 197.239,30.461 197.239,29.9714 C197.239,29.086 197.515,28.4141 198.067,27.9557 C198.432,27.6641 198.854,27.5182 199.333,27.5182 C200.25,27.5182 200.802,28.0391 200.989,29.0807 C201.01,29.1745 201.026,29.263 201.036,29.3464 L197.958,29.3464 M197.974,29.0495 L200.021,29.0495 C199.927,28.4766 199.76,28.1224 199.521,27.987 C199.396,27.9245 199.234,27.8932 199.036,27.8932 C198.442,27.8932 198.088,28.2682 197.974,29.0182 C197.974,29.0287 197.974,29.0391 197.974,29.0495 M206.442,27.5182 C207.182,27.5182 207.765,27.7891 208.192,28.3307 C208.495,28.737 208.646,29.2162 208.646,29.7682 C208.646,30.5495 208.39,31.1745 207.88,31.6432 C207.463,32.0182 206.979,32.2057 206.427,32.2057 C205.718,32.2057 205.156,31.9349 204.739,31.3932 C204.406,30.9557 204.239,30.4401 204.239,29.8464 C204.239,29.0339 204.515,28.4089 205.067,27.9714 C205.453,27.6693 205.911,27.5182 206.442,27.5182 M205.146,29.362 C205.146,30.2682 205.333,30.961 205.708,31.4401 C205.948,31.7526 206.229,31.9089 206.552,31.9089 C207.073,31.9089 207.432,31.612 207.63,31.0182 C207.713,30.7578 207.755,30.461 207.755,30.1276 C207.755,29.2422 207.541,28.586 207.114,28.1589 C206.885,27.9297 206.62,27.8151 206.317,27.8151 C205.849,27.8151 205.51,28.0547 205.302,28.5339 C205.198,28.7735 205.146,29.0495 205.146,29.362 M209.083,28.1276 L209.083,27.9557 C209.583,27.8099 210.047,27.6641 210.474,27.5182 L210.536,27.5339 L210.536,28.3151 C211.015,27.8776 211.39,27.6224 211.661,27.5495 C211.765,27.5287 211.875,27.5182 211.989,27.5182 C212.531,27.5182 212.89,27.7891 213.067,28.3307 C213.13,28.5287 213.161,28.7526 213.161,29.0026 L213.161,31.2995 C213.161,31.612 213.234,31.8047 213.38,31.8776 C213.474,31.9089 213.604,31.9349 213.771,31.9557 L213.771,32.112 L211.692,32.112 L211.692,31.9557 C211.995,31.9349 212.182,31.836 212.255,31.6589 C212.307,31.5443 212.333,31.3672 212.333,31.1276 L212.333,29.0339 C212.312,28.388 212.067,28.0599 211.599,28.0495 C211.349,28.0495 211.088,28.1641 210.817,28.3932 C210.745,28.4662 210.661,28.5443 210.567,28.6276 L210.567,31.4401 C210.567,31.6797 210.666,31.836 210.864,31.9089 C210.958,31.9297 211.078,31.9453 211.224,31.9557 L211.224,32.112 L209.114,32.112 L209.114,31.9557 C209.406,31.9349 209.588,31.8516 209.661,31.7057 C209.703,31.5912 209.724,31.4245 209.724,31.2057 L209.724,28.7214 C209.724,28.3568 209.651,28.1537 209.505,28.112 C209.463,28.0912 209.416,28.0807 209.364,28.0807 C209.239,28.0807 209.146,28.0964 209.083,28.1276 M214.958,29.3464 C215,30.5235 215.385,31.2162 216.114,31.4245 C216.239,31.4662 216.375,31.487 216.521,31.487 C217.01,31.487 217.427,31.2787 217.771,30.862 C217.864,30.7474 217.963,30.612 218.067,30.4557 L218.224,30.5182 C217.859,31.4766 217.286,32.0287 216.505,32.1745 C216.37,32.1953 216.239,32.2057 216.114,32.2057 C215.375,32.2057 214.843,31.8932 214.521,31.2682 C214.333,30.8932 214.239,30.461 214.239,29.9714 C214.239,29.086 214.515,28.4141 215.067,27.9557 C215.432,27.6641 215.854,27.5182 216.333,27.5182 C217.25,27.5182 217.802,28.0391 217.989,29.0807 C218.01,29.1745 218.026,29.263 218.036,29.3464 L214.958,29.3464 M214.974,29.0495 L217.021,29.0495 C216.927,28.4766 216.76,28.1224 216.521,27.987 C216.396,27.9245 216.234,27.8932 216.036,27.8932 C215.442,27.8932 215.088,28.2682 214.974,29.0182 C214.974,29.0287 214.974,29.0391 214.974,29.0495 M223.442,27.5182 C224.182,27.5182 224.765,27.7891 225.192,28.3307 C225.495,28.737 225.646,29.2162 225.646,29.7682 C225.646,30.5495 225.39,31.1745 224.88,31.6432 C224.463,32.0182 223.979,32.2057 223.427,32.2057 C222.718,32.2057 222.156,31.9349 221.739,31.3932 C221.406,30.9557 221.239,30.4401 221.239,29.8464 C221.239,29.0339 221.515,28.4089 222.067,27.9714 C222.453,27.6693 222.911,27.5182 223.442,27.5182 M222.146,29.362 C222.146,30.2682 222.333,30.961 222.708,31.4401 C222.948,31.7526 223.229,31.9089 223.552,31.9089 C224.073,31.9089 224.432,31.612 224.63,31.0182 C224.713,30.7578 224.755,30.461 224.755,30.1276 C224.755,29.2422 224.541,28.586 224.114,28.1589 C223.885,27.9297 223.62,27.8151 223.317,27.8151 C222.849,27.8151 222.51,28.0547 222.302,28.5339 C222.198,28.7735 222.146,29.0495 222.146,29.362 M226.239,29.987 C226.239,29.1432 226.526,28.4818 227.099,28.0026 C227.495,27.6797 227.937,27.5182 228.427,27.5182 C228.979,27.5182 229.406,27.6693 229.708,27.9714 C229.885,28.1485 229.974,28.3412 229.974,28.5495 C229.974,28.7266 229.88,28.8516 229.692,28.9245 C229.62,28.9557 229.552,28.9714 229.489,28.9714 C229.281,28.9714 229.13,28.836 229.036,28.5651 C229.026,28.5443 229.021,28.5235 229.021,28.5026 L228.958,28.2839 C228.896,28.0339 228.781,27.888 228.614,27.8464 C228.541,27.8255 228.458,27.8151 228.364,27.8151 C227.864,27.8151 227.484,28.0547 227.224,28.5339 C227.078,28.8255 227.005,29.1641 227.005,29.5495 C227.005,30.2787 227.229,30.8255 227.677,31.1901 C227.937,31.388 228.229,31.487 228.552,31.487 C228.968,31.487 229.328,31.3203 229.63,30.987 C229.734,30.862 229.849,30.7162 229.974,30.5495 L230.114,30.6432 C229.739,31.362 229.323,31.8307 228.864,32.0495 C228.625,32.1537 228.385,32.2057 228.146,32.2057 C227.5,32.2057 226.995,31.9401 226.63,31.4089 C226.37,31.0026 226.239,30.5287 226.239,29.987 M232.583,27.612 L232.583,27.9089 L231.567,27.9089 L231.567,30.7682 C231.567,31.3099 231.703,31.6068 231.974,31.6589 C232.005,31.6693 232.041,31.6745 232.083,31.6745 C232.291,31.6641 232.495,31.5443 232.692,31.3151 L232.817,31.4401 C232.495,31.9505 232.093,32.2057 231.614,32.2057 C231.031,32.1953 230.734,31.7735 230.724,30.9401 L230.724,27.9089 L230.192,27.9089 C230.172,27.888 230.161,27.8672 230.161,27.8464 C230.161,27.8047 230.203,27.763 230.286,27.7214 C230.567,27.5339 230.901,27.1693 231.286,26.6276 C231.297,26.6172 231.302,26.612 231.302,26.612 C231.406,26.4557 231.474,26.362 231.505,26.3307 C231.547,26.3412 231.567,26.3828 231.567,26.4557 L231.567,27.612 L232.583,27.612 M233.239,31.1432 C233.239,30.6328 233.557,30.2005 234.192,29.8464 C234.38,29.7526 234.88,29.5391 235.692,29.2057 C235.713,29.2057 235.729,29.2005 235.739,29.1901 L235.739,28.5807 C235.687,28.0599 235.432,27.7839 234.974,27.7526 C234.661,27.7526 234.442,27.8516 234.317,28.0495 C234.276,28.1224 234.255,28.1849 234.255,28.237 C234.255,28.2995 234.265,28.3828 234.286,28.487 C234.297,28.5599 234.302,28.612 234.302,28.6432 C234.302,28.8203 234.213,28.9453 234.036,29.0182 C233.974,29.0495 233.916,29.0651 233.864,29.0651 C233.677,29.0651 233.547,28.9766 233.474,28.7995 C233.442,28.7474 233.427,28.6901 233.427,28.6276 C233.427,28.263 233.646,27.9662 234.083,27.737 C234.385,27.5912 234.729,27.5182 235.114,27.5182 C235.833,27.5182 236.276,27.7735 236.442,28.2839 C236.515,28.5026 236.552,28.7787 236.552,29.112 L236.552,31.0495 C236.552,31.3828 236.614,31.5703 236.739,31.612 C236.781,31.6224 236.817,31.6276 236.849,31.6276 C236.995,31.6172 237.14,31.5547 237.286,31.4401 L237.286,31.6901 C237.015,32.0026 236.765,32.1745 236.536,32.2057 C236.484,32.2057 236.432,32.2057 236.38,32.2057 C236.067,32.2057 235.87,32.0495 235.786,31.737 C235.765,31.6537 235.755,31.5599 235.755,31.4557 C235.161,31.9349 234.672,32.1849 234.286,32.2057 C233.859,32.2057 233.552,32.0339 233.364,31.6901 C233.281,31.5235 233.239,31.3412 233.239,31.1432 M235.739,30.862 L235.739,29.4245 C234.916,29.7266 234.411,30.0339 234.224,30.3464 C234.151,30.4922 234.114,30.6485 234.114,30.8151 C234.114,31.211 234.26,31.461 234.552,31.5651 C234.625,31.5964 234.692,31.612 234.755,31.612 C234.974,31.6016 235.213,31.5235 235.474,31.3776 C235.62,31.2943 235.703,31.1901 235.724,31.0651 C235.734,31.0026 235.739,30.9349 235.739,30.862 M241.614,27.612 L241.614,27.7682 C241.448,27.7891 241.323,27.8568 241.239,27.9714 C241.166,28.0755 241.078,28.2682 240.974,28.5495 L239.692,31.7526 C239.557,32.0755 239.463,32.2422 239.411,32.2526 C239.338,32.2526 239.255,32.1068 239.161,31.8151 C239.151,31.8047 239.146,31.7943 239.146,31.7839 L237.942,28.9089 C237.692,28.3151 237.505,27.9662 237.38,27.862 C237.297,27.7995 237.182,27.7682 237.036,27.7682 L237.036,27.612 L239.005,27.612 L239.005,27.7682 C238.724,27.7891 238.573,27.862 238.552,27.987 C238.541,28.0078 238.536,28.0287 238.536,28.0495 C238.536,28.1641 238.567,28.2839 238.63,28.4089 L239.646,30.9714 L240.63,28.3776 C240.672,28.2839 240.692,28.1849 240.692,28.0807 C240.692,27.9037 240.547,27.7995 240.255,27.7682 C240.245,27.7682 240.234,27.7682 240.224,27.7682 L240.224,27.612 L241.614,27.612 M242.958,29.3464 C243,30.5235 243.385,31.2162 244.114,31.4245 C244.239,31.4662 244.375,31.487 244.521,31.487 C245.01,31.487 245.427,31.2787 245.771,30.862 C245.864,30.7474 245.963,30.612 246.067,30.4557 L246.224,30.5182 C245.859,31.4766 245.286,32.0287 244.505,32.1745 C244.37,32.1953 244.239,32.2057 244.114,32.2057 C243.375,32.2057 242.843,31.8932 242.521,31.2682 C242.333,30.8932 242.239,30.461 242.239,29.9714 C242.239,29.086 242.515,28.4141 243.067,27.9557 C243.432,27.6641 243.854,27.5182 244.333,27.5182 C245.25,27.5182 245.802,28.0391 245.989,29.0807 C246.01,29.1745 246.026,29.263 246.036,29.3464 L242.958,29.3464 M242.974,29.0495 L245.021,29.0495 C244.927,28.4766 244.76,28.1224 244.521,27.987 C244.396,27.9245 244.234,27.8932 244.036,27.8932 C243.442,27.8932 243.088,28.2682 242.974,29.0182 C242.974,29.0287 242.974,29.0391 242.974,29.0495"/>
</svg>
