<?xml version="1.0" encoding="UTF-8" standalone="no"?>
<svg width="595.44px" height="841.68px" viewBox="0 0 595.44 841.68"
 xmlns="http://www.w3.org/2000/svg" xmlns:xlink="http://www.w3.org/1999/xlink" version="1.2" baseProfile="tiny">
<title>Guitar Scales and Arpeggios</title>
<desc>Generated by MuseScore 2.1.0</desc>
<polyline class="StaffLines" fill="none" stroke="#000000" stroke-width="0.40" stroke-linejoin="bevel" points="28.08,62.856 567.36,62.856"/>
<polyline class="StaffLines" fill="none" stroke="#000000" stroke-width="0.40" stroke-linejoin="bevel" points="28.08,67.824 567.36,67.824"/>
<polyline class="StaffLines" fill="none" stroke="#000000" stroke-width="0.40" stroke-linejoin="bevel" points="28.08,72.792 567.36,72.792"/>
<polyline class="StaffLines" fill="none" stroke="#000000" stroke-width="0.40" stroke-linejoin="bevel" points="28.08,77.76 567.36,77.76"/>
<polyline class="StaffLines" fill="none" stroke="#000000" stroke-width="0.40" stroke-linejoin="bevel" points="28.08,82.728 567.36,82.728"/>
<polyline class="StaffLines" fill="none" stroke="#000000" stroke-width="0.40" stroke-linejoin="bevel" points="28.08,115.02 567.36,115.02"/>
<polyline class="StaffLines" fill="none" stroke="#000000" stroke-width="0.40" stroke-linejoin="bevel" points="28.08,122.472 567.36,122.472"/>
<polyline class="StaffLines" fill="none" stroke="#000000" stroke-width="0.40" stroke-linejoin="bevel" points="28.08,129.924 567.36,129.924"/>
<polyline class="StaffLines" fill="none" stroke="#000000" stroke-width="0.40" stroke-linejoin="bevel" points="28.08,137.376 567.36,137.376"/>
<polyline class="StaffLines" fill="none" stroke="#000000" stroke-width="0.40" stroke-linejoin="bevel" points="28.08,144.828 567.36,144.828"/>
<polyline class="StaffLines" fill="none" stroke="#000000" stroke-width="0.40" stroke-linejoin="bevel" points="28.08,152.28 567.36,152.28"/>
<polyline class="BarLine" fill="none" stroke="#000000" stroke-width="0.79" stroke-linejoin="bevel" points="28.4774,62.856 28.4774,152.28"/>
<polyline class="BarLine" fill="none" stroke="#000000" stroke-width="0.79" stroke-linejoin="bevel" points="562.491,115.02 562.491,152.28"/>
<polyline class="BarLine" fill="none" stroke="#000000" stroke-width="2.48" stroke-linejoin="bevel" points="566.118,115.02 566.118,152.28"/>
<polyline class="BarLine" fill="none" stroke="#000000" stroke-width="0.79" stroke-linejoin="bevel" points="562.491,62.856 562.491,82.728"/>
<polyline class="BarLine" fill="none" stroke="#000000" stroke-width="2.48" stroke-linejoin="bevel" points="566.118,62.856 566.118,82.728"/>
<polyline class="LedgerLine" fill="none" stroke="#000000" stroke-width="0.79" stroke-linecap="square" stroke-linejoin="bevel" points="509.028,87.696 518.908,87.696"/>
<polyline class="LedgerLine" fill="none" stroke="#000000" stroke-width="0.79" stroke-linecap="square" stroke-linejoin="bevel" points="509.028,92.664 518.908,92.664"/>
<polyline class="LedgerLine" fill="none" stroke="#000000" stroke-width="0.79" stroke-linecap="square" stroke-linejoin="bevel" points="477.085,87.696 486.607,87.696"/>
<polyline class="LedgerLine" fill="none" stroke="#000000" stroke-width="0.79" stroke-linecap="square" stroke-linejoin="bevel" points="444.963,87.696 454.484,87.696"/>
<polyline class="LedgerLine" fill="none" stroke="#000000" stroke-width="0.79" stroke-linecap="square" stroke-linejoin="bevel" points="123.738,87.696 133.259,87.696"/>
<polyline class="LedgerLine" fill="none" stroke="#000000" stroke-width="0.79" stroke-linecap="square" stroke-linejoin="bevel" points="91.615,87.696 101.136,87.696"/>
<polyline class="LedgerLine" fill="none" stroke="#000000" stroke-width="0.79" stroke-linecap="square" stroke-linejoin="bevel" points="59.4925,87.696 69.014,87.696"/>
<polyline class="LedgerLine" fill="none" stroke="#000000" stroke-width="0.79" stroke-linecap="square" stroke-linejoin="bevel" points="59.4925,92.664 69.014,92.664"/>
<polyline class="Stem" fill="none" stroke="#000000" stroke-width="0.65" stroke-linecap="round" stroke-linejoin="bevel" points="517.095,91.9009 517.095,72.792"/>
<polyline class="Stem" fill="none" stroke="#000000" stroke-width="0.65" stroke-linecap="round" stroke-linejoin="bevel" points="484.793,89.2469 484.793,72.792"/>
<polyline class="Stem" fill="none" stroke="#000000" stroke-width="0.65" stroke-linecap="round" stroke-linejoin="bevel" points="452.671,86.7629 452.671,70.308"/>
<polyline class="Stem" fill="none" stroke="#000000" stroke-width="0.65" stroke-linecap="round" stroke-linejoin="bevel" points="420.548,84.2789 420.548,67.824"/>
<polyline class="Stem" fill="none" stroke="#000000" stroke-width="0.65" stroke-linecap="round" stroke-linejoin="bevel" points="388.426,81.7949 388.426,65.34"/>
<polyline class="Stem" fill="none" stroke="#000000" stroke-width="0.65" stroke-linecap="round" stroke-linejoin="bevel" points="356.303,79.3109 356.303,62.856"/>
<polyline class="Stem" fill="none" stroke="#000000" stroke-width="0.65" stroke-linecap="round" stroke-linejoin="bevel" points="324.181,76.8269 324.181,60.993"/>
<polyline class="Stem" fill="none" stroke="#000000" stroke-width="0.65" stroke-linecap="round" stroke-linejoin="bevel" points="292.058,74.3429 292.058,59.13"/>
<polyline class="Stem" fill="none" stroke="#000000" stroke-width="0.65" stroke-linecap="round" stroke-linejoin="bevel" points="259.936,76.8269 259.936,60.993"/>
<polyline class="Stem" fill="none" stroke="#000000" stroke-width="0.65" stroke-linecap="round" stroke-linejoin="bevel" points="227.813,79.3109 227.813,62.856"/>
<polyline class="Stem" fill="none" stroke="#000000" stroke-width="0.65" stroke-linecap="round" stroke-linejoin="bevel" points="195.691,81.7949 195.691,65.34"/>
<polyline class="Stem" fill="none" stroke="#000000" stroke-width="0.65" stroke-linecap="round" stroke-linejoin="bevel" points="163.568,84.2789 163.568,67.824"/>
<polyline class="Stem" fill="none" stroke="#000000" stroke-width="0.65" stroke-linecap="round" stroke-linejoin="bevel" points="131.446,86.7629 131.446,70.308"/>
<polyline class="Stem" fill="none" stroke="#000000" stroke-width="0.65" stroke-linecap="round" stroke-linejoin="bevel" points="99.3232,89.2469 99.3232,72.792"/>
<polyline class="Stem" fill="none" stroke="#000000" stroke-width="0.65" stroke-linecap="round" stroke-linejoin="bevel" points="67.2007,91.7309 67.2007,72.792"/>
<path class="Note" fill="#ffffff" fill-rule="evenodd" d="M511.443,141.102 L517.405,141.102 L517.405,148.554 L511.443,148.554 L511.443,141.102 "/>
<path class="Note" transform="matrix(0.9936,0,0,0.9936,511.94,148.306)" d="M0.390625,-3.09375 C0.390625,-5 0.927083,-6.07813 2,-6.32813 C2.14583,-6.36979 2.30208,-6.39063 2.46875,-6.39063 C3.78125,-6.39063 4.47917,-5.40104 4.5625,-3.42188 C4.5625,-3.28646 4.5625,-3.15625 4.5625,-3.03125 C4.5625,-1.40625 4.15104,-0.385417 3.32813,0.03125 C3.06771,0.145833 2.78125,0.203125 2.46875,0.203125 C1.41667,0.203125 0.760417,-0.442708 0.5,-1.73438 C0.427083,-2.14063 0.390625,-2.59375 0.390625,-3.09375 M2.46875,-5.64063 C1.625,-5.63021 1.20313,-4.77083 1.20313,-3.0625 C1.20313,-1.32292 1.61979,-0.453125 2.45313,-0.453125 C3.16146,-0.453125 3.57813,-1.02604 3.70313,-2.17188 C3.73438,-2.44271 3.75,-2.75 3.75,-3.09375 C3.75,-4.79167 3.32292,-5.64063 2.46875,-5.64063"/>
<path class="Note" fill="#cc00ff" transform="matrix(0.9936,0,0,0.9936,510.519,92.664)" d="M6.3125,-1.3125 C6.3125,-1.53125 6.22917,-1.71875 6.0625,-1.875 C5.88542,-2.04167 5.6875,-2.125 5.46875,-2.125 C5.08333,-2.125 4.29688,-1.73438 3.10938,-0.953125 C1.88021,-0.161458 1.13021,0.40625 0.859375,0.75 C0.713542,0.927083 0.640625,1.11458 0.640625,1.3125 C0.640625,1.53125 0.729167,1.71875 0.90625,1.875 C1.0625,2.04167 1.25521,2.125 1.48438,2.125 C1.85938,2.125 2.65625,1.73438 3.875,0.953125 C5.07292,0.171875 5.8125,-0.395833 6.09375,-0.75 C6.23958,-0.916667 6.3125,-1.10417 6.3125,-1.3125 M5.28125,-2.75 C6.39583,-2.75 6.95313,-2.27083 6.95313,-1.3125 C6.95313,-0.84375 6.81771,-0.296875 6.54688,0.328125 C6.27604,0.942708 5.91146,1.41146 5.45313,1.73438 C4.45313,2.41146 3.19792,2.75 1.6875,2.75 C0.5625,2.75 0,2.27083 0,1.3125 C0,0.885417 0.135417,0.34375 0.40625,-0.3125 C0.666667,-0.9375 1.03125,-1.41146 1.5,-1.73438 C2.51042,-2.41146 3.77083,-2.75 5.28125,-2.75"/>
<path class="Note" fill="#ffffff" fill-rule="evenodd" d="M479.321,141.102 L485.282,141.102 L485.282,148.554 L479.321,148.554 L479.321,141.102 "/>
<path class="Note" transform="matrix(0.9936,0,0,0.9936,479.817,148.306)" d="M0.453125,-4.17188 C0.494792,-5.64063 1.19792,-6.38021 2.5625,-6.39063 C3.28125,-6.39063 3.83333,-6.14583 4.21875,-5.65625 C4.46875,-5.32292 4.59375,-4.93229 4.59375,-4.48438 C4.59375,-3.68229 4.14583,-3.03125 3.25,-2.53125 L2.34375,-2.04688 C1.79167,-1.75521 1.44271,-1.4375 1.29688,-1.09375 C1.24479,-0.989583 1.21354,-0.869792 1.20313,-0.734375 L4.5625,-0.734375 L4.5625,0 L0.3125,0 C0.354167,-0.760417 0.520833,-1.33854 0.8125,-1.73438 C1.07292,-2.05729 1.5,-2.38542 2.09375,-2.71875 L2.92188,-3.1875 C3.49479,-3.52083 3.78646,-3.94271 3.79688,-4.45313 C3.79688,-4.88021 3.61458,-5.21354 3.25,-5.45313 C3.04167,-5.57813 2.80208,-5.64063 2.53125,-5.64063 C1.73958,-5.64063 1.3125,-5.16667 1.25,-4.21875 C1.25,-4.19792 1.25,-4.18229 1.25,-4.17188 L0.453125,-4.17188 "/>
<path class="Note" fill="#ff9ee6" transform="matrix(0.9936,0,0,0.9936,478.575,90.18)" d="M4.39063,-2.75 C5.01563,-2.75 5.54688,-2.58854 5.98438,-2.26563 C6.38021,-1.91146 6.57813,-1.46875 6.57813,-0.9375 C6.57813,-0.0416667 6.11979,0.796875 5.20313,1.57813 C4.26563,2.35938 3.26042,2.75 2.1875,2.75 C1.5625,2.75 1.03646,2.58854 0.609375,2.26563 C0.203125,1.91146 0,1.46875 0,0.9375 C0,0.0416667 0.46875,-0.796875 1.40625,-1.57813 C2.32292,-2.35938 3.31771,-2.75 4.39063,-2.75"/>
<path class="Note" fill="#ffffff" fill-rule="evenodd" d="M447.198,141.102 L453.16,141.102 L453.16,148.554 L447.198,148.554 L447.198,141.102 "/>
<path class="Note" transform="matrix(0.9936,0,0,0.9936,447.695,148.306)" d="M2.4375,-5.64063 C1.75,-5.64063 1.35417,-5.32813 1.25,-4.70313 C1.22917,-4.59896 1.21875,-4.47917 1.21875,-4.34375 L0.421875,-4.34375 C0.442708,-5.59375 1.01563,-6.27083 2.14063,-6.375 C2.23438,-6.38542 2.32813,-6.39063 2.42188,-6.39063 C3.26563,-6.39063 3.84375,-6.10938 4.15625,-5.54688 C4.29167,-5.28646 4.35938,-4.98438 4.35938,-4.64063 C4.35938,-4.00521 4.0625,-3.57292 3.46875,-3.34375 C4.03125,-3.14583 4.375,-2.81771 4.5,-2.35938 C4.54167,-2.19271 4.5625,-2.00521 4.5625,-1.79688 C4.5625,-1.05729 4.27604,-0.505208 3.70313,-0.140625 C3.33854,0.0885417 2.90104,0.203125 2.39063,0.203125 C1.21354,0.203125 0.526042,-0.348958 0.328125,-1.45313 C0.317708,-1.57813 0.302083,-1.71354 0.28125,-1.85938 L1.07813,-1.85938 C1.13021,-1.08854 1.46875,-0.65625 2.09375,-0.5625 C2.19792,-0.541667 2.30729,-0.53125 2.42188,-0.53125 C3.04688,-0.53125 3.45313,-0.765625 3.64063,-1.23438 C3.71354,-1.40104 3.75,-1.58854 3.75,-1.79688 C3.73958,-2.54688 3.29688,-2.92708 2.42188,-2.9375 L2.09375,-2.92188 L1.98438,-2.92188 L1.98438,-3.67188 C2.66146,-3.68229 3.10417,-3.77604 3.3125,-3.95313 C3.47917,-4.09896 3.5625,-4.31771 3.5625,-4.60938 C3.5625,-5.09896 3.34896,-5.41667 2.92188,-5.5625 C2.77604,-5.61458 2.61458,-5.64063 2.4375,-5.64063"/>
<path class="Note" fill="#ed2929" transform="matrix(0.9936,0,0,0.9936,446.453,87.696)" d="M4.39063,-2.75 C5.01563,-2.75 5.54688,-2.58854 5.98438,-2.26563 C6.38021,-1.91146 6.57813,-1.46875 6.57813,-0.9375 C6.57813,-0.0416667 6.11979,0.796875 5.20313,1.57813 C4.26563,2.35938 3.26042,2.75 2.1875,2.75 C1.5625,2.75 1.03646,2.58854 0.609375,2.26563 C0.203125,1.91146 0,1.46875 0,0.9375 C0,0.0416667 0.46875,-0.796875 1.40625,-1.57813 C2.32292,-2.35938 3.31771,-2.75 4.39063,-2.75"/>
<path class="Note" fill="#ffffff" fill-rule="evenodd" d="M415.076,133.65 L421.037,133.65 L421.037,141.102 L415.076,141.102 L415.076,133.65 "/>
<path class="Note" transform="matrix(0.9936,0,0,0.9936,415.572,140.854)" d="M0.390625,-3.09375 C0.390625,-5 0.927083,-6.07813 2,-6.32813 C2.14583,-6.36979 2.30208,-6.39063 2.46875,-6.39063 C3.78125,-6.39063 4.47917,-5.40104 4.5625,-3.42188 C4.5625,-3.28646 4.5625,-3.15625 4.5625,-3.03125 C4.5625,-1.40625 4.15104,-0.385417 3.32813,0.03125 C3.06771,0.145833 2.78125,0.203125 2.46875,0.203125 C1.41667,0.203125 0.760417,-0.442708 0.5,-1.73438 C0.427083,-2.14063 0.390625,-2.59375 0.390625,-3.09375 M2.46875,-5.64063 C1.625,-5.63021 1.20313,-4.77083 1.20313,-3.0625 C1.20313,-1.32292 1.61979,-0.453125 2.45313,-0.453125 C3.16146,-0.453125 3.57813,-1.02604 3.70313,-2.17188 C3.73438,-2.44271 3.75,-2.75 3.75,-3.09375 C3.75,-4.79167 3.32292,-5.64063 2.46875,-5.64063"/>
<path class="Note" fill="#78c7c7" transform="matrix(0.9936,0,0,0.9936,414.33,85.212)" d="M4.39063,-2.75 C5.01563,-2.75 5.54688,-2.58854 5.98438,-2.26563 C6.38021,-1.91146 6.57813,-1.46875 6.57813,-0.9375 C6.57813,-0.0416667 6.11979,0.796875 5.20313,1.57813 C4.26563,2.35938 3.26042,2.75 2.1875,2.75 C1.5625,2.75 1.03646,2.58854 0.609375,2.26563 C0.203125,1.91146 0,1.46875 0,0.9375 C0,0.0416667 0.46875,-0.796875 1.40625,-1.57813 C2.32292,-2.35938 3.31771,-2.75 4.39063,-2.75"/>
<path class="Note" fill="#ffffff" fill-rule="evenodd" d="M382.953,133.65 L388.915,133.65 L388.915,141.102 L382.953,141.102 L382.953,133.65 "/>
<path class="Note" transform="matrix(0.9936,0,0,0.9936,383.45,140.854)" d="M0.453125,-4.17188 C0.494792,-5.64063 1.19792,-6.38021 2.5625,-6.39063 C3.28125,-6.39063 3.83333,-6.14583 4.21875,-5.65625 C4.46875,-5.32292 4.59375,-4.93229 4.59375,-4.48438 C4.59375,-3.68229 4.14583,-3.03125 3.25,-2.53125 L2.34375,-2.04688 C1.79167,-1.75521 1.44271,-1.4375 1.29688,-1.09375 C1.24479,-0.989583 1.21354,-0.869792 1.20313,-0.734375 L4.5625,-0.734375 L4.5625,0 L0.3125,0 C0.354167,-0.760417 0.520833,-1.33854 0.8125,-1.73438 C1.07292,-2.05729 1.5,-2.38542 2.09375,-2.71875 L2.92188,-3.1875 C3.49479,-3.52083 3.78646,-3.94271 3.79688,-4.45313 C3.79688,-4.88021 3.61458,-5.21354 3.25,-5.45313 C3.04167,-5.57813 2.80208,-5.64063 2.53125,-5.64063 C1.73958,-5.64063 1.3125,-5.16667 1.25,-4.21875 C1.25,-4.19792 1.25,-4.18229 1.25,-4.17188 L0.453125,-4.17188 "/>
<path class="Note" fill="#ff9933" transform="matrix(0.9936,0,0,0.9936,382.208,82.728)" d="M4.39063,-2.75 C5.01563,-2.75 5.54688,-2.58854 5.98438,-2.26563 C6.38021,-1.91146 6.57813,-1.46875 6.57813,-0.9375 C6.57813,-0.0416667 6.11979,0.796875 5.20313,1.57813 C4.26563,2.35938 3.26042,2.75 2.1875,2.75 C1.5625,2.75 1.03646,2.58854 0.609375,2.26563 C0.203125,1.91146 0,1.46875 0,0.9375 C0,0.0416667 0.46875,-0.796875 1.40625,-1.57813 C2.32292,-2.35938 3.31771,-2.75 4.39063,-2.75"/>
<path class="Note" fill="#ffffff" fill-rule="evenodd" d="M350.831,133.65 L356.792,133.65 L356.792,141.102 L350.831,141.102 L350.831,133.65 "/>
<path class="Note" transform="matrix(0.9936,0,0,0.9936,351.327,140.854)" d="M2.4375,-5.64063 C1.75,-5.64063 1.35417,-5.32813 1.25,-4.70313 C1.22917,-4.59896 1.21875,-4.47917 1.21875,-4.34375 L0.421875,-4.34375 C0.442708,-5.59375 1.01563,-6.27083 2.14063,-6.375 C2.23438,-6.38542 2.32813,-6.39063 2.42188,-6.39063 C3.26563,-6.39063 3.84375,-6.10938 4.15625,-5.54688 C4.29167,-5.28646 4.35938,-4.98438 4.35938,-4.64063 C4.35938,-4.00521 4.0625,-3.57292 3.46875,-3.34375 C4.03125,-3.14583 4.375,-2.81771 4.5,-2.35938 C4.54167,-2.19271 4.5625,-2.00521 4.5625,-1.79688 C4.5625,-1.05729 4.27604,-0.505208 3.70313,-0.140625 C3.33854,0.0885417 2.90104,0.203125 2.39063,0.203125 C1.21354,0.203125 0.526042,-0.348958 0.328125,-1.45313 C0.317708,-1.57813 0.302083,-1.71354 0.28125,-1.85938 L1.07813,-1.85938 C1.13021,-1.08854 1.46875,-0.65625 2.09375,-0.5625 C2.19792,-0.541667 2.30729,-0.53125 2.42188,-0.53125 C3.04688,-0.53125 3.45313,-0.765625 3.64063,-1.23438 C3.71354,-1.40104 3.75,-1.58854 3.75,-1.79688 C3.73958,-2.54688 3.29688,-2.92708 2.42188,-2.9375 L2.09375,-2.92188 L1.98438,-2.92188 L1.98438,-3.67188 C2.66146,-3.68229 3.10417,-3.77604 3.3125,-3.95313 C3.47917,-4.09896 3.5625,-4.31771 3.5625,-4.60938 C3.5625,-5.09896 3.34896,-5.41667 2.92188,-5.5625 C2.77604,-5.61458 2.61458,-5.64063 2.4375,-5.64063"/>
<path class="Note" fill="#ebeb19" transform="matrix(0.9936,0,0,0.9936,350.085,80.244)" d="M4.39063,-2.75 C5.01563,-2.75 5.54688,-2.58854 5.98438,-2.26563 C6.38021,-1.91146 6.57813,-1.46875 6.57813,-0.9375 C6.57813,-0.0416667 6.11979,0.796875 5.20313,1.57813 C4.26563,2.35938 3.26042,2.75 2.1875,2.75 C1.5625,2.75 1.03646,2.58854 0.609375,2.26563 C0.203125,1.91146 0,1.46875 0,0.9375 C0,0.0416667 0.46875,-0.796875 1.40625,-1.57813 C2.32292,-2.35938 3.31771,-2.75 4.39063,-2.75"/>
<path class="Note" fill="#ffffff" fill-rule="evenodd" d="M318.708,126.198 L324.67,126.198 L324.67,133.65 L318.708,133.65 L318.708,126.198 "/>
<path class="Note" transform="matrix(0.9936,0,0,0.9936,319.205,133.402)" d="M0.390625,-3.09375 C0.390625,-5 0.927083,-6.07813 2,-6.32813 C2.14583,-6.36979 2.30208,-6.39063 2.46875,-6.39063 C3.78125,-6.39063 4.47917,-5.40104 4.5625,-3.42188 C4.5625,-3.28646 4.5625,-3.15625 4.5625,-3.03125 C4.5625,-1.40625 4.15104,-0.385417 3.32813,0.03125 C3.06771,0.145833 2.78125,0.203125 2.46875,0.203125 C1.41667,0.203125 0.760417,-0.442708 0.5,-1.73438 C0.427083,-2.14063 0.390625,-2.59375 0.390625,-3.09375 M2.46875,-5.64063 C1.625,-5.63021 1.20313,-4.77083 1.20313,-3.0625 C1.20313,-1.32292 1.61979,-0.453125 2.45313,-0.453125 C3.16146,-0.453125 3.57813,-1.02604 3.70313,-2.17188 C3.73438,-2.44271 3.75,-2.75 3.75,-3.09375 C3.75,-4.79167 3.32292,-5.64063 2.46875,-5.64063"/>
<path class="Note" fill="#99cc33" transform="matrix(0.9936,0,0,0.9936,317.963,77.76)" d="M4.39063,-2.75 C5.01563,-2.75 5.54688,-2.58854 5.98438,-2.26563 C6.38021,-1.91146 6.57813,-1.46875 6.57813,-0.9375 C6.57813,-0.0416667 6.11979,0.796875 5.20313,1.57813 C4.26563,2.35938 3.26042,2.75 2.1875,2.75 C1.5625,2.75 1.03646,2.58854 0.609375,2.26563 C0.203125,1.91146 0,1.46875 0,0.9375 C0,0.0416667 0.46875,-0.796875 1.40625,-1.57813 C2.32292,-2.35938 3.31771,-2.75 4.39063,-2.75"/>
<path class="Note" fill="#ffffff" fill-rule="evenodd" d="M286.586,126.198 L292.547,126.198 L292.547,133.65 L286.586,133.65 L286.586,126.198 "/>
<path class="Note" transform="matrix(0.9936,0,0,0.9936,287.082,133.402)" d="M0.453125,-4.17188 C0.494792,-5.64063 1.19792,-6.38021 2.5625,-6.39063 C3.28125,-6.39063 3.83333,-6.14583 4.21875,-5.65625 C4.46875,-5.32292 4.59375,-4.93229 4.59375,-4.48438 C4.59375,-3.68229 4.14583,-3.03125 3.25,-2.53125 L2.34375,-2.04688 C1.79167,-1.75521 1.44271,-1.4375 1.29688,-1.09375 C1.24479,-0.989583 1.21354,-0.869792 1.20313,-0.734375 L4.5625,-0.734375 L4.5625,0 L0.3125,0 C0.354167,-0.760417 0.520833,-1.33854 0.8125,-1.73438 C1.07292,-2.05729 1.5,-2.38542 2.09375,-2.71875 L2.92188,-3.1875 C3.49479,-3.52083 3.78646,-3.94271 3.79688,-4.45313 C3.79688,-4.88021 3.61458,-5.21354 3.25,-5.45313 C3.04167,-5.57813 2.80208,-5.64063 2.53125,-5.64063 C1.73958,-5.64063 1.3125,-5.16667 1.25,-4.21875 C1.25,-4.19792 1.25,-4.18229 1.25,-4.17188 L0.453125,-4.17188 "/>
<path class="Note" fill="#cc00ff" transform="matrix(0.9936,0,0,0.9936,285.84,75.276)" d="M4.39063,-2.75 C5.01563,-2.75 5.54688,-2.58854 5.98438,-2.26563 C6.38021,-1.91146 6.57813,-1.46875 6.57813,-0.9375 C6.57813,-0.0416667 6.11979,0.796875 5.20313,1.57813 C4.26563,2.35938 3.26042,2.75 2.1875,2.75 C1.5625,2.75 1.03646,2.58854 0.609375,2.26563 C0.203125,1.91146 0,1.46875 0,0.9375 C0,0.0416667 0.46875,-0.796875 1.40625,-1.57813 C2.32292,-2.35938 3.31771,-2.75 4.39063,-2.75"/>
<path class="Note" fill="#ffffff" fill-rule="evenodd" d="M254.463,126.198 L260.425,126.198 L260.425,133.65 L254.463,133.65 L254.463,126.198 "/>
<path class="Note" transform="matrix(0.9936,0,0,0.9936,254.96,133.402)" d="M0.390625,-3.09375 C0.390625,-5 0.927083,-6.07813 2,-6.32813 C2.14583,-6.36979 2.30208,-6.39063 2.46875,-6.39063 C3.78125,-6.39063 4.47917,-5.40104 4.5625,-3.42188 C4.5625,-3.28646 4.5625,-3.15625 4.5625,-3.03125 C4.5625,-1.40625 4.15104,-0.385417 3.32813,0.03125 C3.06771,0.145833 2.78125,0.203125 2.46875,0.203125 C1.41667,0.203125 0.760417,-0.442708 0.5,-1.73438 C0.427083,-2.14063 0.390625,-2.59375 0.390625,-3.09375 M2.46875,-5.64063 C1.625,-5.63021 1.20313,-4.77083 1.20313,-3.0625 C1.20313,-1.32292 1.61979,-0.453125 2.45313,-0.453125 C3.16146,-0.453125 3.57813,-1.02604 3.70313,-2.17188 C3.73438,-2.44271 3.75,-2.75 3.75,-3.09375 C3.75,-4.79167 3.32292,-5.64063 2.46875,-5.64063"/>
<path class="Note" fill="#99cc33" transform="matrix(0.9936,0,0,0.9936,253.718,77.76)" d="M4.39063,-2.75 C5.01563,-2.75 5.54688,-2.58854 5.98438,-2.26563 C6.38021,-1.91146 6.57813,-1.46875 6.57813,-0.9375 C6.57813,-0.0416667 6.11979,0.796875 5.20313,1.57813 C4.26563,2.35938 3.26042,2.75 2.1875,2.75 C1.5625,2.75 1.03646,2.58854 0.609375,2.26563 C0.203125,1.91146 0,1.46875 0,0.9375 C0,0.0416667 0.46875,-0.796875 1.40625,-1.57813 C2.32292,-2.35938 3.31771,-2.75 4.39063,-2.75"/>
<path class="Note" fill="#ffffff" fill-rule="evenodd" d="M222.341,133.65 L228.302,133.65 L228.302,141.102 L222.341,141.102 L222.341,133.65 "/>
<path class="Note" transform="matrix(0.9936,0,0,0.9936,222.837,140.854)" d="M2.4375,-5.64063 C1.75,-5.64063 1.35417,-5.32813 1.25,-4.70313 C1.22917,-4.59896 1.21875,-4.47917 1.21875,-4.34375 L0.421875,-4.34375 C0.442708,-5.59375 1.01563,-6.27083 2.14063,-6.375 C2.23438,-6.38542 2.32813,-6.39063 2.42188,-6.39063 C3.26563,-6.39063 3.84375,-6.10938 4.15625,-5.54688 C4.29167,-5.28646 4.35938,-4.98438 4.35938,-4.64063 C4.35938,-4.00521 4.0625,-3.57292 3.46875,-3.34375 C4.03125,-3.14583 4.375,-2.81771 4.5,-2.35938 C4.54167,-2.19271 4.5625,-2.00521 4.5625,-1.79688 C4.5625,-1.05729 4.27604,-0.505208 3.70313,-0.140625 C3.33854,0.0885417 2.90104,0.203125 2.39063,0.203125 C1.21354,0.203125 0.526042,-0.348958 0.328125,-1.45313 C0.317708,-1.57813 0.302083,-1.71354 0.28125,-1.85938 L1.07813,-1.85938 C1.13021,-1.08854 1.46875,-0.65625 2.09375,-0.5625 C2.19792,-0.541667 2.30729,-0.53125 2.42188,-0.53125 C3.04688,-0.53125 3.45313,-0.765625 3.64063,-1.23438 C3.71354,-1.40104 3.75,-1.58854 3.75,-1.79688 C3.73958,-2.54688 3.29688,-2.92708 2.42188,-2.9375 L2.09375,-2.92188 L1.98438,-2.92188 L1.98438,-3.67188 C2.66146,-3.68229 3.10417,-3.77604 3.3125,-3.95313 C3.47917,-4.09896 3.5625,-4.31771 3.5625,-4.60938 C3.5625,-5.09896 3.34896,-5.41667 2.92188,-5.5625 C2.77604,-5.61458 2.61458,-5.64063 2.4375,-5.64063"/>
<path class="Note" fill="#ebeb19" transform="matrix(0.9936,0,0,0.9936,221.595,80.244)" d="M4.39063,-2.75 C5.01563,-2.75 5.54688,-2.58854 5.98438,-2.26563 C6.38021,-1.91146 6.57813,-1.46875 6.57813,-0.9375 C6.57813,-0.0416667 6.11979,0.796875 5.20313,1.57813 C4.26563,2.35938 3.26042,2.75 2.1875,2.75 C1.5625,2.75 1.03646,2.58854 0.609375,2.26563 C0.203125,1.91146 0,1.46875 0,0.9375 C0,0.0416667 0.46875,-0.796875 1.40625,-1.57813 C2.32292,-2.35938 3.31771,-2.75 4.39063,-2.75"/>
<path class="Note" fill="#ffffff" fill-rule="evenodd" d="M190.218,133.65 L196.18,133.65 L196.18,141.102 L190.218,141.102 L190.218,133.65 "/>
<path class="Note" transform="matrix(0.9936,0,0,0.9936,190.715,140.854)" d="M0.453125,-4.17188 C0.494792,-5.64063 1.19792,-6.38021 2.5625,-6.39063 C3.28125,-6.39063 3.83333,-6.14583 4.21875,-5.65625 C4.46875,-5.32292 4.59375,-4.93229 4.59375,-4.48438 C4.59375,-3.68229 4.14583,-3.03125 3.25,-2.53125 L2.34375,-2.04688 C1.79167,-1.75521 1.44271,-1.4375 1.29688,-1.09375 C1.24479,-0.989583 1.21354,-0.869792 1.20313,-0.734375 L4.5625,-0.734375 L4.5625,0 L0.3125,0 C0.354167,-0.760417 0.520833,-1.33854 0.8125,-1.73438 C1.07292,-2.05729 1.5,-2.38542 2.09375,-2.71875 L2.92188,-3.1875 C3.49479,-3.52083 3.78646,-3.94271 3.79688,-4.45313 C3.79688,-4.88021 3.61458,-5.21354 3.25,-5.45313 C3.04167,-5.57813 2.80208,-5.64063 2.53125,-5.64063 C1.73958,-5.64063 1.3125,-5.16667 1.25,-4.21875 C1.25,-4.19792 1.25,-4.18229 1.25,-4.17188 L0.453125,-4.17188 "/>
<path class="Note" fill="#ff9933" transform="matrix(0.9936,0,0,0.9936,189.473,82.728)" d="M4.39063,-2.75 C5.01563,-2.75 5.54688,-2.58854 5.98438,-2.26563 C6.38021,-1.91146 6.57813,-1.46875 6.57813,-0.9375 C6.57813,-0.0416667 6.11979,0.796875 5.20313,1.57813 C4.26563,2.35938 3.26042,2.75 2.1875,2.75 C1.5625,2.75 1.03646,2.58854 0.609375,2.26563 C0.203125,1.91146 0,1.46875 0,0.9375 C0,0.0416667 0.46875,-0.796875 1.40625,-1.57813 C2.32292,-2.35938 3.31771,-2.75 4.39063,-2.75"/>
<path class="Note" fill="#ffffff" fill-rule="evenodd" d="M158.096,133.65 L164.057,133.65 L164.057,141.102 L158.096,141.102 L158.096,133.65 "/>
<path class="Note" transform="matrix(0.9936,0,0,0.9936,158.592,140.854)" d="M0.390625,-3.09375 C0.390625,-5 0.927083,-6.07813 2,-6.32813 C2.14583,-6.36979 2.30208,-6.39063 2.46875,-6.39063 C3.78125,-6.39063 4.47917,-5.40104 4.5625,-3.42188 C4.5625,-3.28646 4.5625,-3.15625 4.5625,-3.03125 C4.5625,-1.40625 4.15104,-0.385417 3.32813,0.03125 C3.06771,0.145833 2.78125,0.203125 2.46875,0.203125 C1.41667,0.203125 0.760417,-0.442708 0.5,-1.73438 C0.427083,-2.14063 0.390625,-2.59375 0.390625,-3.09375 M2.46875,-5.64063 C1.625,-5.63021 1.20313,-4.77083 1.20313,-3.0625 C1.20313,-1.32292 1.61979,-0.453125 2.45313,-0.453125 C3.16146,-0.453125 3.57813,-1.02604 3.70313,-2.17188 C3.73438,-2.44271 3.75,-2.75 3.75,-3.09375 C3.75,-4.79167 3.32292,-5.64063 2.46875,-5.64063"/>
<path class="Note" fill="#78c7c7" transform="matrix(0.9936,0,0,0.9936,157.35,85.212)" d="M4.39063,-2.75 C5.01563,-2.75 5.54688,-2.58854 5.98438,-2.26563 C6.38021,-1.91146 6.57813,-1.46875 6.57813,-0.9375 C6.57813,-0.0416667 6.11979,0.796875 5.20313,1.57813 C4.26563,2.35938 3.26042,2.75 2.1875,2.75 C1.5625,2.75 1.03646,2.58854 0.609375,2.26563 C0.203125,1.91146 0,1.46875 0,0.9375 C0,0.0416667 0.46875,-0.796875 1.40625,-1.57813 C2.32292,-2.35938 3.31771,-2.75 4.39063,-2.75"/>
<path class="Note" fill="#ffffff" fill-rule="evenodd" d="M125.973,141.102 L131.935,141.102 L131.935,148.554 L125.973,148.554 L125.973,141.102 "/>
<path class="Note" transform="matrix(0.9936,0,0,0.9936,126.47,148.306)" d="M2.4375,-5.64063 C1.75,-5.64063 1.35417,-5.32813 1.25,-4.70313 C1.22917,-4.59896 1.21875,-4.47917 1.21875,-4.34375 L0.421875,-4.34375 C0.442708,-5.59375 1.01563,-6.27083 2.14063,-6.375 C2.23438,-6.38542 2.32813,-6.39063 2.42188,-6.39063 C3.26563,-6.39063 3.84375,-6.10938 4.15625,-5.54688 C4.29167,-5.28646 4.35938,-4.98438 4.35938,-4.64063 C4.35938,-4.00521 4.0625,-3.57292 3.46875,-3.34375 C4.03125,-3.14583 4.375,-2.81771 4.5,-2.35938 C4.54167,-2.19271 4.5625,-2.00521 4.5625,-1.79688 C4.5625,-1.05729 4.27604,-0.505208 3.70313,-0.140625 C3.33854,0.0885417 2.90104,0.203125 2.39063,0.203125 C1.21354,0.203125 0.526042,-0.348958 0.328125,-1.45313 C0.317708,-1.57813 0.302083,-1.71354 0.28125,-1.85938 L1.07813,-1.85938 C1.13021,-1.08854 1.46875,-0.65625 2.09375,-0.5625 C2.19792,-0.541667 2.30729,-0.53125 2.42188,-0.53125 C3.04688,-0.53125 3.45313,-0.765625 3.64063,-1.23438 C3.71354,-1.40104 3.75,-1.58854 3.75,-1.79688 C3.73958,-2.54688 3.29688,-2.92708 2.42188,-2.9375 L2.09375,-2.92188 L1.98438,-2.92188 L1.98438,-3.67188 C2.66146,-3.68229 3.10417,-3.77604 3.3125,-3.95313 C3.47917,-4.09896 3.5625,-4.31771 3.5625,-4.60938 C3.5625,-5.09896 3.34896,-5.41667 2.92188,-5.5625 C2.77604,-5.61458 2.61458,-5.64063 2.4375,-5.64063"/>
<path class="Note" fill="#ed2929" transform="matrix(0.9936,0,0,0.9936,125.228,87.696)" d="M4.39063,-2.75 C5.01563,-2.75 5.54688,-2.58854 5.98438,-2.26563 C6.38021,-1.91146 6.57813,-1.46875 6.57813,-0.9375 C6.57813,-0.0416667 6.11979,0.796875 5.20313,1.57813 C4.26563,2.35938 3.26042,2.75 2.1875,2.75 C1.5625,2.75 1.03646,2.58854 0.609375,2.26563 C0.203125,1.91146 0,1.46875 0,0.9375 C0,0.0416667 0.46875,-0.796875 1.40625,-1.57813 C2.32292,-2.35938 3.31771,-2.75 4.39063,-2.75"/>
<path class="Note" fill="#ffffff" fill-rule="evenodd" d="M93.8506,141.102 L99.8122,141.102 L99.8122,148.554 L93.8506,148.554 L93.8506,141.102 "/>
<path class="Note" transform="matrix(0.9936,0,0,0.9936,94.3474,148.306)" d="M0.453125,-4.17188 C0.494792,-5.64063 1.19792,-6.38021 2.5625,-6.39063 C3.28125,-6.39063 3.83333,-6.14583 4.21875,-5.65625 C4.46875,-5.32292 4.59375,-4.93229 4.59375,-4.48438 C4.59375,-3.68229 4.14583,-3.03125 3.25,-2.53125 L2.34375,-2.04688 C1.79167,-1.75521 1.44271,-1.4375 1.29688,-1.09375 C1.24479,-0.989583 1.21354,-0.869792 1.20313,-0.734375 L4.5625,-0.734375 L4.5625,0 L0.3125,0 C0.354167,-0.760417 0.520833,-1.33854 0.8125,-1.73438 C1.07292,-2.05729 1.5,-2.38542 2.09375,-2.71875 L2.92188,-3.1875 C3.49479,-3.52083 3.78646,-3.94271 3.79688,-4.45313 C3.79688,-4.88021 3.61458,-5.21354 3.25,-5.45313 C3.04167,-5.57813 2.80208,-5.64063 2.53125,-5.64063 C1.73958,-5.64063 1.3125,-5.16667 1.25,-4.21875 C1.25,-4.19792 1.25,-4.18229 1.25,-4.17188 L0.453125,-4.17188 "/>
<path class="Note" fill="#ff9ee6" transform="matrix(0.9936,0,0,0.9936,93.1054,90.18)" d="M4.39063,-2.75 C5.01563,-2.75 5.54688,-2.58854 5.98438,-2.26563 C6.38021,-1.91146 6.57813,-1.46875 6.57813,-0.9375 C6.57813,-0.0416667 6.11979,0.796875 5.20313,1.57813 C4.26563,2.35938 3.26042,2.75 2.1875,2.75 C1.5625,2.75 1.03646,2.58854 0.609375,2.26563 C0.203125,1.91146 0,1.46875 0,0.9375 C0,0.0416667 0.46875,-0.796875 1.40625,-1.57813 C2.32292,-2.35938 3.31771,-2.75 4.39063,-2.75"/>
<path class="Note" fill="#ffffff" fill-rule="evenodd" d="M61.7281,141.102 L67.6897,141.102 L67.6897,148.554 L61.7281,148.554 L61.7281,141.102 "/>
<path class="Note" transform="matrix(0.9936,0,0,0.9936,62.2249,148.306)" d="M0.390625,-3.09375 C0.390625,-5 0.927083,-6.07813 2,-6.32813 C2.14583,-6.36979 2.30208,-6.39063 2.46875,-6.39063 C3.78125,-6.39063 4.47917,-5.40104 4.5625,-3.42188 C4.5625,-3.28646 4.5625,-3.15625 4.5625,-3.03125 C4.5625,-1.40625 4.15104,-0.385417 3.32813,0.03125 C3.06771,0.145833 2.78125,0.203125 2.46875,0.203125 C1.41667,0.203125 0.760417,-0.442708 0.5,-1.73438 C0.427083,-2.14063 0.390625,-2.59375 0.390625,-3.09375 M2.46875,-5.64063 C1.625,-5.63021 1.20313,-4.77083 1.20313,-3.0625 C1.20313,-1.32292 1.61979,-0.453125 2.45313,-0.453125 C3.16146,-0.453125 3.57813,-1.02604 3.70313,-2.17188 C3.73438,-2.44271 3.75,-2.75 3.75,-3.09375 C3.75,-4.79167 3.32292,-5.64063 2.46875,-5.64063"/>
<path class="Note" fill="#cc00ff" transform="matrix(0.9936,0,0,0.9936,60.9829,92.664)" d="M4.39063,-2.75 C5.01563,-2.75 5.54688,-2.58854 5.98438,-2.26563 C6.38021,-1.91146 6.57813,-1.46875 6.57813,-0.9375 C6.57813,-0.0416667 6.11979,0.796875 5.20313,1.57813 C4.26563,2.35938 3.26042,2.75 2.1875,2.75 C1.5625,2.75 1.03646,2.58854 0.609375,2.26563 C0.203125,1.91146 0,1.46875 0,0.9375 C0,0.0416667 0.46875,-0.796875 1.40625,-1.57813 C2.32292,-2.35938 3.31771,-2.75 4.39063,-2.75"/>
<path class="Clef" transform="matrix(0.9936,0,0,0.9936,32.0544,133.65)" d="M5.32813,8.5 C5.32813,8.86458 5.04167,9.04688 4.46875,9.04688 C4.02083,9.04688 3.625,8.91146 3.28125,8.64063 C2.95833,8.34896 2.79688,7.98438 2.79688,7.54688 C2.79688,6.76563 3.27083,6.14063 4.21875,5.67188 C5.14583,5.18229 6.23438,4.9375 7.48438,4.9375 C7.96354,4.9375 8.47917,4.97396 9.03125,5.04688 C9.42708,5.09896 9.875,5.20313 10.375,5.35938 C10.8125,5.49479 11.1563,5.70573 11.4063,5.99219 C11.6563,6.27865 11.7813,6.61458 11.7813,7 C11.7813,7.89583 11.3177,8.63021 10.3906,9.20313 C11.7448,9.45313 12.4271,10.0573 12.4375,11.0156 C12.4375,11.8281 12.0729,12.5599 11.3438,13.2109 C10.6146,13.862 9.79167,14.1875 8.875,14.1875 C8.47917,14.1875 8.07813,14.0938 7.67188,13.9063 C7.29688,13.7292 7.03125,13.5625 6.875,13.4063 C6.71875,13.2188 6.64063,13.0781 6.64063,12.9844 C6.64063,12.8594 6.70833,12.75 6.84375,12.6563 C6.95833,12.5417 7.07813,12.4844 7.20313,12.4844 C7.25521,12.4844 7.36719,12.5677 7.53906,12.7344 C7.71094,12.901 7.95833,12.9844 8.28125,12.9844 C8.72917,12.9844 9.16146,12.7969 9.57813,12.4219 C9.97396,12.0573 10.1719,11.6198 10.1719,11.1094 C10.1719,10.6719 9.98438,10.3542 9.60938,10.1563 C9.24479,9.95833 8.76563,9.85938 8.17188,9.85938 C8.06771,9.85938 8.01563,9.75 8.01563,9.53125 C8.01563,9.21875 8.13021,9.0625 8.35938,9.0625 C8.72396,9.0625 9.05208,8.90625 9.34375,8.59375 C9.61458,8.26042 9.75,7.90104 9.75,7.51563 C9.75,7.40104 9.71875,7.22917 9.65625,7 C9.60417,6.84375 9.44792,6.65104 9.1875,6.42188 C8.9375,6.21354 8.58854,6.07292 8.14063,6 C8.02604,6.63542 7.88021,7.44792 7.70313,8.4375 C7.52604,9.42708 7.40625,10.0781 7.34375,10.3906 C7.125,11.5156 6.72396,12.4583 6.14063,13.2188 C5.52604,14.0313 4.86458,14.4375 4.15625,14.4375 C3.9375,14.4375 3.71354,14.3854 3.48438,14.2813 C3.29688,14.1979 3.0625,14.0365 2.78125,13.7969 C2.52083,13.5885 2.34375,13.4479 2.25,13.375 C2.19792,13.3438 2.17188,13.2865 2.17188,13.2031 C2.17188,13.0781 2.21875,12.9635 2.3125,12.8594 C2.41667,12.7344 2.52604,12.6719 2.64063,12.6719 C2.71354,12.6719 2.89323,12.7969 3.17969,13.0469 C3.46615,13.2969 3.76563,13.4219 4.07813,13.4219 C4.68229,13.4219 5.13542,13.0365 5.4375,12.2656 C5.71875,11.526 5.85938,10.6094 5.85938,9.51563 L5.85938,9.35938 C5.85938,8.63021 5.97917,7.54167 6.21875,6.09375 C5.80208,6.22917 5.46875,6.42708 5.21875,6.6875 C4.95833,6.94792 4.82813,7.21875 4.82813,7.5 C4.82813,7.71875 4.91146,7.90625 5.07813,8.0625 C5.24479,8.21875 5.32813,8.36458 5.32813,8.5 M1.40625,2.39063 C1.46875,2.39063 1.625,2.45313 1.875,2.57813 C2.13542,2.71354 2.35938,2.78125 2.54688,2.78125 C3.03646,2.78125 3.64063,2.42188 4.35938,1.70313 C6.43229,-0.411458 7.85938,-2.65104 8.64063,-5.01563 C8.79688,-5.51563 9.17708,-5.76563 9.78125,-5.76563 C10.0938,-5.76563 10.3646,-5.69792 10.5938,-5.5625 C10.8125,-5.42708 10.9219,-5.28646 10.9219,-5.14063 L10.5625,2.17188 C10.5625,2.55729 10.7031,2.75 10.9844,2.75 C11.1198,2.75 11.3281,2.6875 11.6094,2.5625 C11.8698,2.42708 12.026,2.35938 12.0781,2.35938 C12.1823,2.35938 12.2448,2.47396 12.2656,2.70313 C12.2656,2.91146 12.1823,3.04167 12.0156,3.09375 C11.8802,3.125 11.6198,3.24479 11.2344,3.45313 C10.8281,3.66146 10.5104,3.76563 10.2813,3.76563 C9.78125,3.76563 9.42708,3.375 9.21875,2.59375 C8.89583,1.375 8.6875,0.104167 8.59375,-1.21875 C8.07292,-0.552083 7.49479,0.119792 6.85938,0.796875 C7.08854,1.24479 7.51563,1.46875 8.14063,1.46875 C8.23438,1.46875 8.30729,1.46354 8.35938,1.45313 L8.375,1.45313 C8.47917,1.45313 8.53125,1.54688 8.53125,1.73438 C8.53125,1.98438 8.44792,2.13542 8.28125,2.1875 C8.01042,2.28125 7.72396,2.32813 7.42188,2.32813 C6.77604,2.32813 6.30729,2.10417 6.01563,1.65625 L5.23438,2.35938 C4.14063,3.29688 3.25,3.76563 2.5625,3.76563 C2.375,3.76563 2.1875,3.73438 2,3.67188 C1.84375,3.60938 1.66146,3.51042 1.45313,3.375 C1.36979,3.34375 1.27865,3.29688 1.17969,3.23438 C1.08073,3.17188 1.02083,3.13542 1,3.125 C0.9375,3.10417 0.90625,3.04688 0.90625,2.95313 C0.90625,2.84896 0.958333,2.72396 1.0625,2.57813 C1.14583,2.45313 1.26042,2.39063 1.40625,2.39063 M5.76563,-10.7969 C5.76563,-10.474 5.48438,-10.3125 4.92188,-10.3125 C4.43229,-10.3125 4.00521,-10.474 3.64063,-10.7969 C3.28646,-11.1302 3.10938,-11.5313 3.10938,-12 C3.10938,-12.4479 3.25,-12.8385 3.53125,-13.1719 C3.83333,-13.5052 4.21875,-13.7552 4.6875,-13.9219 C5.11458,-14.0781 5.59896,-14.2031 6.14063,-14.2969 C6.69271,-14.3594 7.22396,-14.3906 7.73438,-14.3906 C8.03646,-14.3906 8.59896,-14.2552 9.42188,-13.9844 C10.2552,-13.7135 10.8333,-13.5781 11.1563,-13.5781 C11.5625,-13.5781 11.9479,-13.651 12.3125,-13.7969 C12.6042,-13.9219 12.8906,-14.0677 13.1719,-14.2344 C13.3906,-14.3802 13.5104,-14.4531 13.5313,-14.4531 C13.6563,-14.4531 13.7604,-14.4167 13.8438,-14.3438 C13.9479,-14.2396 14,-14.151 14,-14.0781 C14,-13.9948 13.8802,-13.849 13.6406,-13.6406 C13.3802,-13.401 13.0078,-13.1641 12.5234,-12.9297 C12.0391,-12.6953 11.5313,-12.5781 11,-12.5781 C10.7604,-12.5781 10.4688,-12.6198 10.125,-12.7031 C9.89583,-11.2552 9.66146,-9.96875 9.42188,-8.84375 C9.21354,-7.85417 8.79688,-6.98958 8.17188,-6.25 C7.56771,-5.51042 6.89583,-5.14063 6.15625,-5.14063 C5.85417,-5.14063 5.58854,-5.19792 5.35938,-5.3125 C5.09896,-5.44792 4.82292,-5.64583 4.53125,-5.90625 C4.30208,-6.09375 4.08333,-6.26563 3.875,-6.42188 C3.82292,-6.46354 3.79688,-6.52604 3.79688,-6.60938 C3.79688,-6.69271 3.84896,-6.80729 3.95313,-6.95313 C4.05729,-7.06771 4.15104,-7.125 4.23438,-7.125 C4.31771,-7.125 4.54167,-6.96354 4.90625,-6.64063 C5.27083,-6.31771 5.59375,-6.15625 5.875,-6.15625 C6.39583,-6.15625 6.80208,-6.45313 7.09375,-7.04688 C7.375,-7.64063 7.53646,-8.34375 7.57813,-9.15625 C7.64063,-10.5 7.79167,-11.8906 8.03125,-13.3281 C7.73958,-13.3906 7.52604,-13.4219 7.39063,-13.4219 C6.76563,-13.4219 6.22917,-13.2917 5.78125,-13.0313 C5.34375,-12.7813 5.125,-12.4427 5.125,-12.0156 C5.125,-11.7031 5.22917,-11.4635 5.4375,-11.2969 C5.65625,-11.1094 5.76563,-10.9427 5.76563,-10.7969"/>
<path class="Clef" transform="matrix(0.9936,0,0,0.9936,32.0544,77.76)" d="M7.34375,-5.125 C7.34375,-5.125 7.38542,-5.125 7.46875,-5.125 C7.52083,-5.13542 7.5625,-5.14063 7.59375,-5.14063 C9.05208,-5.14063 10.25,-4.625 11.1875,-3.59375 C12.125,-2.58333 12.5938,-1.40104 12.5938,-0.046875 C12.5938,1.64063 11.901,3.01042 10.5156,4.0625 C10.151,4.35417 9.67188,4.58854 9.07813,4.76563 C9.15104,5.60938 9.1875,6.29167 9.1875,6.8125 C9.1875,6.91667 9.17188,7.29688 9.14063,7.95313 C9.08854,9.16146 8.67188,10.2083 7.89063,11.0938 C7.14063,11.9688 6.20313,12.4063 5.07813,12.4063 C4.02604,12.4063 3.13021,12.0365 2.39063,11.2969 C1.64063,10.5365 1.26563,9.625 1.26563,8.5625 C1.26563,8 1.48438,7.52083 1.92188,7.125 C2.35938,6.73958 2.86979,6.54688 3.45313,6.54688 C3.97396,6.54688 4.41146,6.75 4.76563,7.15625 C5.13021,7.53125 5.3125,8 5.3125,8.5625 C5.3125,9.0625 5.13021,9.49479 4.76563,9.85938 C4.40104,10.224 3.96354,10.4063 3.45313,10.4063 C3.24479,10.4063 3.04688,10.3698 2.85938,10.2969 C3.43229,11.1406 4.19271,11.5625 5.14063,11.5625 C6.03646,11.5625 6.77083,11.1979 7.34375,10.4688 C7.94792,9.71875 8.27604,8.83854 8.32813,7.82813 C8.34896,7.20313 8.35938,6.84896 8.35938,6.76563 C8.35938,6.03646 8.33333,5.4375 8.28125,4.96875 C7.63542,5.07292 7.05729,5.125 6.54688,5.125 C4.73438,5.125 3.19271,4.40625 1.92188,2.96875 C0.671875,1.52083 0.046875,-0.197917 0.046875,-2.1875 C0.046875,-2.60417 0.0833333,-3.02604 0.15625,-3.45313 C0.239583,-3.80729 0.338542,-4.19271 0.453125,-4.60938 C0.515625,-4.84896 0.692708,-5.22917 0.984375,-5.75 C1.08854,-5.90625 1.20573,-6.10156 1.33594,-6.33594 C1.46615,-6.57031 1.55729,-6.72396 1.60938,-6.79688 C1.73438,-7.05729 1.98438,-7.41146 2.35938,-7.85938 C2.46354,-7.97396 2.57292,-8.10156 2.6875,-8.24219 C2.80208,-8.38281 2.89844,-8.5 2.97656,-8.59375 C3.05469,-8.6875 3.11198,-8.76042 3.14844,-8.8125 C3.1849,-8.86458 3.47917,-9.20833 4.03125,-9.84375 C4.15625,-9.97917 4.28125,-10.1198 4.40625,-10.2656 C4.53125,-10.4115 4.63281,-10.5286 4.71094,-10.6172 C4.78906,-10.7057 4.84896,-10.7656 4.89063,-10.7969 C4.42188,-12.349 4.125,-13.5885 4,-14.5156 C3.91667,-15.2552 3.875,-16.2708 3.875,-17.5625 C3.875,-18.6979 4.13542,-19.7604 4.65625,-20.75 C5.15625,-21.7708 5.86458,-22.6094 6.78125,-23.2656 C6.84375,-23.3073 6.90625,-23.3281 6.96875,-23.3281 C7.0625,-23.3281 7.13021,-23.3073 7.17188,-23.2656 C7.86979,-22.4219 8.47396,-21.3229 8.98438,-19.9688 C9.50521,-18.6146 9.76563,-17.3802 9.76563,-16.2656 C9.76563,-15.0156 9.46875,-13.8438 8.875,-12.75 C8.19792,-11.5938 7.32292,-10.3958 6.25,-9.15625 C6.52083,-8.30208 6.88542,-6.95833 7.34375,-5.125 M9,3.96875 C9.67708,3.71875 10.2083,3.29688 10.5938,2.70313 C11.0104,2.13021 11.2188,1.48438 11.2188,0.765625 C11.2188,-0.161458 10.9063,-0.984375 10.2813,-1.70313 C9.63542,-2.44271 8.81771,-2.85938 7.82813,-2.95313 C8.39063,-0.203125 8.78125,2.10417 9,3.96875 M1.45313,-0.546875 C1.45313,0.744792 1.97396,1.88021 3.01563,2.85938 C4.07813,3.80729 5.27604,4.28125 6.60938,4.28125 C7.15104,4.28125 7.68229,4.23958 8.20313,4.15625 C7.99479,2.17708 7.58333,-0.192708 6.96875,-2.95313 C6.22917,-2.86979 5.64063,-2.60938 5.20313,-2.17188 C4.76563,-1.71354 4.54688,-1.19792 4.54688,-0.625 C4.54688,0.364583 5.07813,1.16667 6.14063,1.78125 C6.22396,1.875 6.26563,1.97396 6.26563,2.07813 C6.26563,2.18229 6.22396,2.27604 6.14063,2.35938 C6.05729,2.45313 5.95833,2.5 5.84375,2.5 C5.83333,2.5 5.77604,2.48958 5.67188,2.46875 C4.92188,2.0625 4.34896,1.54167 3.95313,0.90625 C3.56771,0.21875 3.375,-0.46875 3.375,-1.15625 C3.375,-2.05208 3.65625,-2.86458 4.21875,-3.59375 C4.80208,-4.32292 5.5625,-4.79167 6.5,-5 C6.13542,-6.45833 5.83854,-7.59896 5.60938,-8.42188 C5.40104,-8.18229 5.15104,-7.89844 4.85938,-7.57031 C4.56771,-7.24219 4.39583,-7.04167 4.34375,-6.96875 C3.875,-6.36458 3.51563,-5.89063 3.26563,-5.54688 C2.81771,-4.93229 2.48958,-4.40625 2.28125,-3.96875 C2.0625,-3.46875 1.86979,-2.92708 1.70313,-2.34375 C1.53646,-1.78125 1.45313,-1.18229 1.45313,-0.546875 M7.96875,-20.4063 C6.98958,-19.9271 6.22396,-19.2396 5.67188,-18.3438 C5.09896,-17.4167 4.8125,-16.4219 4.8125,-15.3594 C4.8125,-14.4219 5.04688,-13.1563 5.51563,-11.5625 C6.45313,-12.6979 7.15625,-13.7448 7.625,-14.7031 C8.11458,-15.724 8.35938,-16.7865 8.35938,-17.8906 C8.35938,-18.724 8.22917,-19.5625 7.96875,-20.4063 M5.82813,15.2344 C6.16146,14.901 6.32813,14.5625 6.32813,14.2188 C6.30729,13.9479 6.19271,13.7396 5.98438,13.5938 C5.74479,13.4375 5.46875,13.3594 5.15625,13.3594 C4.9375,13.3594 4.75521,13.4323 4.60938,13.5781 C4.48438,13.7031 4.42188,13.8646 4.42188,14.0625 C4.42188,14.3021 4.51563,14.4792 4.70313,14.5938 L5.82813,15.2344 M6.14063,15.4063 C6.68229,15.7083 6.95313,16.1146 6.95313,16.625 L6.95313,16.6875 C6.95313,17.0833 6.79167,17.4219 6.46875,17.7031 C6.14583,17.9844 5.68229,18.125 5.07813,18.125 C4.58854,18.125 4.16146,17.9948 3.79688,17.7344 C3.43229,17.4844 3.25,17.1458 3.25,16.7188 C3.25,16.5521 3.29167,16.3958 3.375,16.25 C3.47917,16.0833 3.56771,15.9688 3.64063,15.9063 L4,15.5313 C3.60417,15.2604 3.40625,14.901 3.40625,14.4531 C3.40625,14.099 3.5625,13.7865 3.875,13.5156 C4.19792,13.2552 4.625,13.125 5.15625,13.125 C5.60417,13.125 5.98438,13.224 6.29688,13.4219 C6.60938,13.6198 6.76563,13.8854 6.76563,14.2188 C6.76563,14.5729 6.55729,14.9688 6.14063,15.4063 M4.29688,15.7031 C3.91146,16.0469 3.70313,16.3854 3.67188,16.7188 C3.70313,17.0729 3.84896,17.3542 4.10938,17.5625 C4.39063,17.7813 4.71354,17.8906 5.07813,17.8906 C5.33854,17.8906 5.54688,17.8073 5.70313,17.6406 C5.85938,17.4844 5.9375,17.2969 5.9375,17.0781 C5.92708,16.7865 5.8125,16.5781 5.59375,16.4531 L4.29688,15.7031 "/>
<path class="Fingering" d="M506.035,95.2734 C505.441,95.2734 504.977,94.9661 504.644,94.3515 C504.363,93.8515 504.222,93.2265 504.222,92.4765 C504.222,91.5807 504.43,90.8775 504.847,90.3671 C505.18,89.9713 505.587,89.7682 506.066,89.7577 C506.628,89.7577 507.071,90.0442 507.394,90.6171 C507.696,91.1275 507.847,91.763 507.847,92.5234 C507.847,93.4921 507.623,94.2317 507.175,94.7421 C506.852,95.0963 506.472,95.2734 506.035,95.2734 M506.035,89.9609 C505.389,89.9609 505.04,90.7317 504.988,92.2734 C504.988,92.3671 504.988,92.4609 504.988,92.5546 C504.998,94.2213 505.347,95.0598 506.035,95.0702 C506.722,95.0598 507.066,94.2161 507.066,92.539 C507.066,91.0182 506.795,90.1692 506.253,89.9921 C506.18,89.9713 506.108,89.9609 506.035,89.9609"/>
<path class="Fingering" d="M472.341,88.8675 C472.581,87.8467 473.107,87.3206 473.92,87.2894 C473.951,87.2894 473.977,87.2894 473.998,87.2894 C474.487,87.2894 474.878,87.4665 475.17,87.8206 C475.378,88.081 475.482,88.3727 475.482,88.6956 C475.482,89.2894 475.164,89.93 474.529,90.6175 C474.508,90.6383 474.482,90.6592 474.451,90.68 L473.123,92.1019 L475.029,92.1019 C475.237,92.1019 475.399,92.0446 475.513,91.93 C475.586,91.8571 475.675,91.7373 475.779,91.5706 L475.888,91.6019 L475.451,92.68 L472.326,92.68 L472.326,92.5862 L473.748,91.0706 C474.425,90.331 474.774,89.6383 474.795,88.9925 C474.795,88.5446 474.623,88.2217 474.279,88.0237 C474.102,87.9196 473.899,87.8675 473.67,87.8675 C473.315,87.8675 473.039,88.0029 472.841,88.2737 C472.727,88.43 472.617,88.6435 472.513,88.9144 L472.341,88.8675 "/>
<path class="Fingering" d="M440.61,89.571 C440.735,89.571 440.917,89.6387 441.156,89.7741 C441.406,89.9304 441.62,90.0085 441.797,90.0085 C442.162,90.0085 442.448,89.847 442.656,89.5241 C442.781,89.3158 442.844,89.0814 442.844,88.821 C442.844,88.0606 442.391,87.6439 441.485,87.571 C441.391,87.5606 441.292,87.5554 441.188,87.5554 L441.188,87.446 C441.792,87.2481 442.188,86.9929 442.375,86.6804 C442.469,86.5137 442.516,86.3314 442.516,86.1335 C442.516,85.7793 442.37,85.5241 442.078,85.3679 C441.943,85.3054 441.797,85.2741 441.641,85.2741 C441.193,85.2741 440.823,85.5085 440.531,85.9772 C440.5,86.0189 440.474,86.0658 440.453,86.1179 L440.328,86.0866 C440.578,85.4095 440.943,84.9981 441.422,84.8522 C441.568,84.8106 441.729,84.7897 441.906,84.7897 C442.386,84.7897 442.74,84.9564 442.969,85.2897 C443.094,85.4668 443.156,85.6647 443.156,85.8835 C443.156,86.2064 443.005,86.4981 442.703,86.7585 C442.61,86.8314 442.511,86.9095 442.406,86.9929 C442.886,87.2012 443.193,87.4877 443.328,87.8522 C443.391,88.0293 443.422,88.2272 443.422,88.446 C443.422,89.0814 443.156,89.5762 442.625,89.9304 C442.229,90.1804 441.761,90.3054 441.219,90.3054 C440.729,90.3054 440.438,90.196 440.344,89.9772 C440.323,89.9356 440.313,89.8939 440.313,89.8522 C440.313,89.696 440.391,89.6075 440.547,89.5866 C440.568,89.5762 440.589,89.571 440.61,89.571"/>
<path class="Fingering" d="M409.846,87.8214 C409.253,87.8214 408.789,87.5141 408.456,86.8995 C408.175,86.3995 408.034,85.7745 408.034,85.0245 C408.034,84.1287 408.242,83.4255 408.659,82.9151 C408.992,82.5193 409.399,82.3162 409.878,82.3057 C410.44,82.3057 410.883,82.5922 411.206,83.1651 C411.508,83.6755 411.659,84.311 411.659,85.0714 C411.659,86.0401 411.435,86.7797 410.987,87.2901 C410.664,87.6443 410.284,87.8214 409.846,87.8214 M409.846,82.5089 C409.201,82.5089 408.852,83.2797 408.8,84.8214 C408.8,84.9151 408.8,85.0089 408.8,85.1026 C408.81,86.7693 409.159,87.6078 409.846,87.6182 C410.534,87.6078 410.878,86.7641 410.878,85.087 C410.878,83.5662 410.607,82.7172 410.065,82.5401 C409.992,82.5193 409.919,82.5089 409.846,82.5089"/>
<path class="Fingering" d="M375.974,81.4155 C376.213,80.3947 376.74,79.8686 377.552,79.8374 C377.583,79.8374 377.609,79.8374 377.63,79.8374 C378.12,79.8374 378.51,80.0145 378.802,80.3686 C379.01,80.629 379.115,80.9207 379.115,81.2436 C379.115,81.8374 378.797,82.478 378.161,83.1655 C378.141,83.1863 378.115,83.2072 378.083,83.228 L376.755,84.6499 L378.661,84.6499 C378.87,84.6499 379.031,84.5926 379.146,84.478 C379.219,84.4051 379.307,84.2853 379.411,84.1186 L379.521,84.1499 L379.083,85.228 L375.958,85.228 L375.958,85.1342 L377.38,83.6186 C378.057,82.879 378.406,82.1863 378.427,81.5405 C378.427,81.0926 378.255,80.7697 377.911,80.5717 C377.734,80.4676 377.531,80.4155 377.302,80.4155 C376.948,80.4155 376.672,80.5509 376.474,80.8217 C376.359,80.978 376.25,81.1915 376.146,81.4624 L375.974,81.4155 "/>
<path class="Fingering" d="M344.242,82.119 C344.367,82.119 344.549,82.1867 344.789,82.3221 C345.039,82.4784 345.252,82.5565 345.43,82.5565 C345.794,82.5565 346.081,82.395 346.289,82.0721 C346.414,81.8638 346.476,81.6294 346.476,81.369 C346.476,80.6086 346.023,80.1919 345.117,80.119 C345.023,80.1086 344.924,80.1034 344.82,80.1034 L344.82,79.994 C345.424,79.7961 345.82,79.5409 346.008,79.2284 C346.101,79.0617 346.148,78.8794 346.148,78.6815 C346.148,78.3273 346.002,78.0721 345.711,77.9159 C345.575,77.8534 345.43,77.8221 345.273,77.8221 C344.825,77.8221 344.456,78.0565 344.164,78.5252 C344.133,78.5669 344.107,78.6138 344.086,78.6659 L343.961,78.6346 C344.211,77.9575 344.575,77.5461 345.055,77.4002 C345.2,77.3586 345.362,77.3377 345.539,77.3377 C346.018,77.3377 346.372,77.5044 346.601,77.8377 C346.726,78.0148 346.789,78.2127 346.789,78.4315 C346.789,78.7544 346.638,79.0461 346.336,79.3065 C346.242,79.3794 346.143,79.4575 346.039,79.5409 C346.518,79.7492 346.825,80.0357 346.961,80.4002 C347.023,80.5773 347.055,80.7752 347.055,80.994 C347.055,81.6294 346.789,82.1242 346.258,82.4784 C345.862,82.7284 345.393,82.8534 344.851,82.8534 C344.362,82.8534 344.07,82.744 343.976,82.5252 C343.956,82.4836 343.945,82.4419 343.945,82.4002 C343.945,82.244 344.023,82.1555 344.18,82.1346 C344.2,82.1242 344.221,82.119 344.242,82.119"/>
<path class="Fingering" d="M313.479,80.3694 C312.885,80.3694 312.422,80.0621 312.088,79.4475 C311.807,78.9475 311.666,78.3225 311.666,77.5725 C311.666,76.6767 311.875,75.9735 312.291,75.4631 C312.625,75.0673 313.031,74.8642 313.51,74.8537 C314.073,74.8537 314.515,75.1402 314.838,75.7131 C315.14,76.2235 315.291,76.859 315.291,77.6194 C315.291,78.5881 315.067,79.3277 314.62,79.8381 C314.297,80.1923 313.916,80.3694 313.479,80.3694 M313.479,75.0569 C312.833,75.0569 312.484,75.8277 312.432,77.3694 C312.432,77.4631 312.432,77.5569 312.432,77.6506 C312.442,79.3173 312.791,80.1558 313.479,80.1662 C314.166,80.1558 314.51,79.3121 314.51,77.635 C314.51,76.1142 314.239,75.2652 313.698,75.0881 C313.625,75.0673 313.552,75.0569 313.479,75.0569"/>
<path class="Fingering" d="M279.606,73.9635 C279.846,72.9427 280.372,72.4166 281.185,72.3854 C281.216,72.3854 281.242,72.3854 281.263,72.3854 C281.752,72.3854 282.143,72.5625 282.435,72.9166 C282.643,73.177 282.747,73.4687 282.747,73.7916 C282.747,74.3854 282.429,75.026 281.794,75.7135 C281.773,75.7343 281.747,75.7552 281.716,75.776 L280.388,77.1979 L282.294,77.1979 C282.502,77.1979 282.664,77.1406 282.778,77.026 C282.851,76.9531 282.94,76.8333 283.044,76.6666 L283.153,76.6979 L282.716,77.776 L279.591,77.776 L279.591,77.6822 L281.013,76.1666 C281.69,75.427 282.039,74.7343 282.06,74.0885 C282.06,73.6406 281.888,73.3177 281.544,73.1197 C281.367,73.0156 281.164,72.9635 280.935,72.9635 C280.58,72.9635 280.304,73.0989 280.106,73.3697 C279.992,73.526 279.882,73.7395 279.778,74.0104 L279.606,73.9635 "/>
<path class="Fingering" d="M249.234,80.3694 C248.64,80.3694 248.177,80.0621 247.843,79.4475 C247.562,78.9475 247.421,78.3225 247.421,77.5725 C247.421,76.6767 247.63,75.9735 248.046,75.4631 C248.38,75.0673 248.786,74.8642 249.265,74.8537 C249.828,74.8537 250.27,75.1402 250.593,75.7131 C250.895,76.2235 251.046,76.859 251.046,77.6194 C251.046,78.5881 250.822,79.3277 250.375,79.8381 C250.052,80.1923 249.671,80.3694 249.234,80.3694 M249.234,75.0569 C248.588,75.0569 248.239,75.8277 248.187,77.3694 C248.187,77.4631 248.187,77.5569 248.187,77.6506 C248.197,79.3173 248.546,80.1558 249.234,80.1662 C249.921,80.1558 250.265,79.3121 250.265,77.635 C250.265,76.1142 249.994,75.2652 249.453,75.0881 C249.38,75.0673 249.307,75.0569 249.234,75.0569"/>
<path class="Fingering" d="M215.752,82.119 C215.877,82.119 216.059,82.1867 216.299,82.3221 C216.549,82.4784 216.762,82.5565 216.94,82.5565 C217.304,82.5565 217.591,82.395 217.799,82.0721 C217.924,81.8638 217.986,81.6294 217.986,81.369 C217.986,80.6086 217.533,80.1919 216.627,80.119 C216.533,80.1086 216.434,80.1034 216.33,80.1034 L216.33,79.994 C216.934,79.7961 217.33,79.5409 217.518,79.2284 C217.611,79.0617 217.658,78.8794 217.658,78.6815 C217.658,78.3273 217.512,78.0721 217.221,77.9159 C217.085,77.8534 216.94,77.8221 216.783,77.8221 C216.335,77.8221 215.966,78.0565 215.674,78.5252 C215.643,78.5669 215.617,78.6138 215.596,78.6659 L215.471,78.6346 C215.721,77.9575 216.085,77.5461 216.565,77.4002 C216.71,77.3586 216.872,77.3377 217.049,77.3377 C217.528,77.3377 217.882,77.5044 218.111,77.8377 C218.236,78.0148 218.299,78.2127 218.299,78.4315 C218.299,78.7544 218.148,79.0461 217.846,79.3065 C217.752,79.3794 217.653,79.4575 217.549,79.5409 C218.028,79.7492 218.335,80.0357 218.471,80.4002 C218.533,80.5773 218.565,80.7752 218.565,80.994 C218.565,81.6294 218.299,82.1242 217.768,82.4784 C217.372,82.7284 216.903,82.8534 216.361,82.8534 C215.872,82.8534 215.58,82.744 215.486,82.5252 C215.466,82.4836 215.455,82.4419 215.455,82.4002 C215.455,82.244 215.533,82.1555 215.69,82.1346 C215.71,82.1242 215.731,82.119 215.752,82.119"/>
<path class="Fingering" d="M183.239,81.4155 C183.478,80.3947 184.005,79.8686 184.817,79.8374 C184.848,79.8374 184.874,79.8374 184.895,79.8374 C185.385,79.8374 185.775,80.0145 186.067,80.3686 C186.275,80.629 186.38,80.9207 186.38,81.2436 C186.38,81.8374 186.062,82.478 185.426,83.1655 C185.406,83.1863 185.38,83.2072 185.348,83.228 L184.02,84.6499 L185.926,84.6499 C186.135,84.6499 186.296,84.5926 186.411,84.478 C186.484,84.4051 186.572,84.2853 186.676,84.1186 L186.786,84.1499 L186.348,85.228 L183.223,85.228 L183.223,85.1342 L184.645,83.6186 C185.322,82.879 185.671,82.1863 185.692,81.5405 C185.692,81.0926 185.52,80.7697 185.176,80.5717 C184.999,80.4676 184.796,80.4155 184.567,80.4155 C184.213,80.4155 183.937,80.5509 183.739,80.8217 C183.624,80.978 183.515,81.1915 183.411,81.4624 L183.239,81.4155 "/>
<path class="Fingering" d="M152.866,87.8214 C152.273,87.8214 151.809,87.5141 151.476,86.8995 C151.195,86.3995 151.054,85.7745 151.054,85.0245 C151.054,84.1287 151.262,83.4255 151.679,82.9151 C152.012,82.5193 152.418,82.3162 152.898,82.3057 C153.46,82.3057 153.903,82.5922 154.226,83.1651 C154.528,83.6755 154.679,84.311 154.679,85.0714 C154.679,86.0401 154.455,86.7797 154.007,87.2901 C153.684,87.6443 153.304,87.8214 152.866,87.8214 M152.866,82.5089 C152.221,82.5089 151.872,83.2797 151.82,84.8214 C151.82,84.9151 151.82,85.0089 151.82,85.1026 C151.83,86.7693 152.179,87.6078 152.866,87.6182 C153.554,87.6078 153.898,86.7641 153.898,85.087 C153.898,83.5662 153.627,82.7172 153.085,82.5401 C153.012,82.5193 152.939,82.5089 152.866,82.5089"/>
<path class="Fingering" d="M119.385,89.571 C119.51,89.571 119.692,89.6387 119.931,89.7741 C120.181,89.9304 120.395,90.0085 120.572,90.0085 C120.937,90.0085 121.223,89.847 121.431,89.5241 C121.556,89.3158 121.619,89.0814 121.619,88.821 C121.619,88.0606 121.166,87.6439 120.26,87.571 C120.166,87.5606 120.067,87.5554 119.963,87.5554 L119.963,87.446 C120.567,87.2481 120.963,86.9929 121.15,86.6804 C121.244,86.5137 121.291,86.3314 121.291,86.1335 C121.291,85.7793 121.145,85.5241 120.853,85.3679 C120.718,85.3054 120.572,85.2741 120.416,85.2741 C119.968,85.2741 119.598,85.5085 119.306,85.9772 C119.275,86.0189 119.249,86.0658 119.228,86.1179 L119.103,86.0866 C119.353,85.4095 119.718,84.9981 120.197,84.8522 C120.343,84.8106 120.504,84.7897 120.681,84.7897 C121.161,84.7897 121.515,84.9564 121.744,85.2897 C121.869,85.4668 121.931,85.6647 121.931,85.8835 C121.931,86.2064 121.78,86.4981 121.478,86.7585 C121.385,86.8314 121.286,86.9095 121.181,86.9929 C121.661,87.2012 121.968,87.4877 122.103,87.8522 C122.166,88.0293 122.197,88.2272 122.197,88.446 C122.197,89.0814 121.931,89.5762 121.4,89.9304 C121.004,90.1804 120.536,90.3054 119.994,90.3054 C119.504,90.3054 119.213,90.196 119.119,89.9772 C119.098,89.9356 119.088,89.8939 119.088,89.8522 C119.088,89.696 119.166,89.6075 119.322,89.5866 C119.343,89.5762 119.364,89.571 119.385,89.571"/>
<path class="Fingering" d="M86.8714,88.8675 C87.111,87.8467 87.637,87.3206 88.4495,87.2894 C88.4808,87.2894 88.5068,87.2894 88.5277,87.2894 C89.0172,87.2894 89.4079,87.4665 89.6995,87.8206 C89.9079,88.081 90.012,88.3727 90.012,88.6956 C90.012,89.2894 89.6943,89.93 89.0589,90.6175 C89.0381,90.6383 89.012,90.6592 88.9808,90.68 L87.6527,92.1019 L89.5589,92.1019 C89.7672,92.1019 89.9287,92.0446 90.0433,91.93 C90.1162,91.8571 90.2047,91.7373 90.3089,91.5706 L90.4183,91.6019 L89.9808,92.68 L86.8558,92.68 L86.8558,92.5862 L88.2777,91.0706 C88.9547,90.331 89.3037,89.6383 89.3245,88.9925 C89.3245,88.5446 89.1527,88.2217 88.8089,88.0237 C88.6318,87.9196 88.4287,87.8675 88.1995,87.8675 C87.8454,87.8675 87.5693,88.0029 87.3714,88.2737 C87.2568,88.43 87.1475,88.6435 87.0433,88.9144 L86.8714,88.8675 "/>
<path class="Fingering" d="M56.4989,95.2734 C55.9052,95.2734 55.4416,94.9661 55.1083,94.3515 C54.827,93.8515 54.6864,93.2265 54.6864,92.4765 C54.6864,91.5807 54.8947,90.8775 55.3114,90.3671 C55.6447,89.9713 56.051,89.7682 56.5302,89.7577 C57.0927,89.7577 57.5354,90.0442 57.8583,90.6171 C58.1604,91.1275 58.3114,91.763 58.3114,92.5234 C58.3114,93.4921 58.0875,94.2317 57.6395,94.7421 C57.3166,95.0963 56.9364,95.2734 56.4989,95.2734 M56.4989,89.9609 C55.8531,89.9609 55.5041,90.7317 55.452,92.2734 C55.452,92.3671 55.452,92.4609 55.452,92.5546 C55.4625,94.2213 55.8114,95.0598 56.4989,95.0702 C57.1864,95.0598 57.5302,94.2161 57.5302,92.539 C57.5302,91.0182 57.2593,90.1692 56.7177,89.9921 C56.6447,89.9713 56.5718,89.9609 56.4989,89.9609"/>
<path class="Tempo" d="M54.7395,40.4371 C54.5364,40.2809 54.2864,40.1871 53.9739,40.1871 C52.7864,40.1871 51.8332,41.0621 51.8332,41.9996 C51.8332,42.5621 52.2864,42.9059 52.8801,42.9059 C53.8332,42.9059 55.0207,41.9996 55.0207,41.0934 L55.0207,34.9527 L54.7395,34.9527 L54.7395,40.4371 "/>
<path class="Tempo" d="M65.3801,39.0152 L58.7707,39.0152 L58.7707,37.859 L65.3801,37.859 L65.3801,39.0152 M65.3801,41.9371 L58.7707,41.9371 L58.7707,40.7965 L65.3801,40.7965 L65.3801,41.9371 M70.8176,36.0465 C70.6926,36.0465 70.3749,36.1402 69.8645,36.3277 C69.8332,36.3382 69.8124,36.3486 69.802,36.359 L69.802,36.0465 L72.8176,34.734 L73.0207,34.734 L73.0207,41.5621 C73.0207,42.0517 73.1197,42.3642 73.3176,42.4996 C73.4947,42.6246 73.828,42.6923 74.3176,42.7027 L74.3176,42.984 L69.8176,42.984 L69.8176,42.7027 C70.4739,42.6923 70.8853,42.5882 71.052,42.3902 C71.1874,42.2236 71.2551,41.9267 71.2551,41.4996 L71.2551,36.8746 C71.2447,36.333 71.0989,36.0569 70.8176,36.0465 M75.302,38.9059 C75.302,37.5934 75.6145,36.5309 76.2395,35.7184 C76.7499,35.0725 77.3437,34.7444 78.0207,34.734 C78.802,34.734 79.4478,35.1402 79.9582,35.9527 C80.4687,36.7652 80.7239,37.76 80.7239,38.9371 C80.7239,40.3121 80.4062,41.4059 79.7707,42.2184 C79.2707,42.8225 78.6926,43.1298 78.0364,43.1402 C77.203,43.1402 76.5312,42.7132 76.0207,41.859 C75.5416,41.0673 75.302,40.083 75.302,38.9059 M78.0364,42.7965 C78.3905,42.7965 78.6249,42.4736 78.7395,41.8277 C78.802,41.4423 78.8332,40.9423 78.8332,40.3277 L78.8332,37.5777 C78.8332,36.1402 78.6405,35.3225 78.2551,35.1246 C78.1822,35.083 78.0989,35.0621 78.0051,35.0621 C77.6405,35.0621 77.401,35.3955 77.2864,36.0621 C77.2343,36.4371 77.2082,36.9423 77.2082,37.5777 L77.2082,40.3277 C77.2082,41.6819 77.3749,42.4736 77.7082,42.7027 C77.802,42.7652 77.9114,42.7965 78.0364,42.7965 M81.302,38.9059 C81.302,37.5934 81.6145,36.5309 82.2395,35.7184 C82.7499,35.0725 83.3437,34.7444 84.0207,34.734 C84.802,34.734 85.4478,35.1402 85.9582,35.9527 C86.4687,36.7652 86.7239,37.76 86.7239,38.9371 C86.7239,40.3121 86.4062,41.4059 85.7707,42.2184 C85.2707,42.8225 84.6926,43.1298 84.0364,43.1402 C83.203,43.1402 82.5312,42.7132 82.0207,41.859 C81.5416,41.0673 81.302,40.083 81.302,38.9059 M84.0364,42.7965 C84.3905,42.7965 84.6249,42.4736 84.7395,41.8277 C84.802,41.4423 84.8332,40.9423 84.8332,40.3277 L84.8332,37.5777 C84.8332,36.1402 84.6405,35.3225 84.2551,35.1246 C84.1822,35.083 84.0989,35.0621 84.0051,35.0621 C83.6405,35.0621 83.401,35.3955 83.2864,36.0621 C83.2343,36.4371 83.2082,36.9423 83.2082,37.5777 L83.2082,40.3277 C83.2082,41.6819 83.3749,42.4736 83.7082,42.7027 C83.802,42.7652 83.9114,42.7965 84.0364,42.7965"/>
<path class="StaffText" d="M64.811,25.2057 C65.259,25.2057 65.759,25.3203 66.311,25.5495 C66.5506,25.6432 66.7225,25.6901 66.8267,25.6901 C66.9725,25.6901 67.1027,25.5807 67.2173,25.362 C67.2277,25.3203 67.2433,25.2787 67.2642,25.237 L67.5298,25.237 L67.5298,27.5807 L67.2798,27.5807 C67.009,26.9766 66.7277,26.5339 66.436,26.2526 C66.3735,26.1901 66.3162,26.138 66.2642,26.0964 C65.8371,25.7214 65.3944,25.5339 64.936,25.5339 C63.936,25.5339 63.3423,26.2526 63.1548,27.6901 C63.1235,28.013 63.1079,28.362 63.1079,28.737 C63.1079,29.9245 63.3215,30.7943 63.7485,31.3464 C64.0819,31.763 64.5402,31.9714 65.1235,31.9714 C65.686,31.9714 66.0037,31.7943 66.0767,31.4401 C66.0871,31.3776 66.0923,31.3099 66.0923,31.237 L66.0923,30.1901 C66.0923,29.8985 66.0194,29.711 65.8735,29.6276 C65.7277,29.5547 65.4621,29.5078 65.0767,29.487 L65.0767,29.237 L68.5142,29.237 L68.5142,29.487 C68.1079,29.5287 67.8579,29.6172 67.7642,29.7526 C67.6912,29.8672 67.6548,30.086 67.6548,30.4089 L67.6548,31.6745 C67.061,32.0287 66.2746,32.237 65.2954,32.2995 C65.16,32.2995 65.0246,32.2995 64.8892,32.2995 C63.7746,32.2995 62.884,31.9401 62.2173,31.2214 C61.6235,30.5755 61.3267,29.7682 61.3267,28.7995 C61.3267,27.7578 61.6704,26.8932 62.3579,26.2057 C63.0246,25.5391 63.8423,25.2057 64.811,25.2057 M72.5767,28.8307 C72.3579,28.8307 72.1444,28.711 71.936,28.4714 C71.8215,28.3255 71.7381,28.2474 71.686,28.237 C71.4673,28.237 71.3006,28.388 71.186,28.6901 C71.1131,28.8464 71.0767,29.013 71.0767,29.1901 L71.0767,31.0807 C71.0767,31.4453 71.1496,31.6693 71.2954,31.7526 C71.3892,31.8151 71.561,31.8568 71.811,31.8776 L71.811,32.112 L69.1704,32.112 L69.1704,31.8776 C69.4412,31.8255 69.6027,31.7318 69.6548,31.5964 C69.6756,31.5235 69.686,31.4141 69.686,31.2682 L69.686,28.3307 C69.686,28.0703 69.6131,27.9037 69.4673,27.8307 C69.3944,27.7891 69.2954,27.7578 69.1704,27.737 L69.1704,27.5026 L71.0454,27.5026 L71.0454,28.3307 C71.4204,27.7787 71.7902,27.4714 72.1548,27.4089 C72.2381,27.388 72.3162,27.3776 72.3892,27.3776 C72.7329,27.3776 72.9777,27.5182 73.1235,27.7995 C73.1756,27.9141 73.2017,28.0339 73.2017,28.1589 C73.2017,28.4714 73.0767,28.6797 72.8267,28.7839 C72.7433,28.8151 72.66,28.8307 72.5767,28.8307 M74.4517,28.0807 C74.4517,28.112 74.5037,28.2057 74.6079,28.362 C74.7017,28.5078 74.7485,28.6328 74.7485,28.737 C74.7485,28.9974 74.6183,29.1745 74.3579,29.2682 C74.2642,29.2995 74.1704,29.3151 74.0767,29.3151 C73.7121,29.3151 73.4985,29.1537 73.436,28.8307 C73.4256,28.7682 73.4204,28.711 73.4204,28.6589 C73.4204,28.1901 73.6756,27.8412 74.186,27.612 C74.509,27.4557 74.884,27.3776 75.311,27.3776 C76.186,27.3776 76.785,27.6172 77.1079,28.0964 C77.2329,28.2943 77.2954,28.5182 77.2954,28.7682 L77.2954,31.3464 C77.3058,31.5026 77.3735,31.586 77.4985,31.5964 C77.5506,31.586 77.5871,31.5703 77.6079,31.5495 L77.7173,31.4557 L77.8579,31.6589 C77.4621,32.0339 77.0923,32.2318 76.7485,32.2526 C76.3735,32.2526 76.1287,32.112 76.0142,31.8307 C75.9829,31.737 75.9517,31.638 75.9204,31.5339 C75.3787,32.0026 74.8527,32.2422 74.3423,32.2526 C73.9048,32.2526 73.5871,32.086 73.3892,31.7526 C73.285,31.586 73.2329,31.4037 73.2329,31.2057 C73.2329,30.6224 73.6808,30.1485 74.5767,29.7839 C74.8162,29.6797 75.2642,29.5287 75.9204,29.3307 L75.9204,28.5964 C75.9204,28.0651 75.7017,27.7735 75.2642,27.7214 C75.2017,27.7214 75.1392,27.7214 75.0767,27.7214 C74.785,27.7214 74.5871,27.8047 74.4829,27.9714 C74.4621,28.0026 74.4517,28.0391 74.4517,28.0807 M75.9048,31.0964 L75.9048,29.6589 C75.1027,29.8776 74.6965,30.2787 74.686,30.862 C74.686,31.1953 74.7954,31.4037 75.0142,31.487 C75.0767,31.5078 75.1392,31.5182 75.2017,31.5182 C75.4308,31.5182 75.6652,31.3776 75.9048,31.0964 M81.3735,32.237 L81.3735,31.5964 C81.0194,31.9714 80.6756,32.1849 80.3423,32.237 C80.2485,32.2474 80.1496,32.2526 80.0454,32.2526 C79.4517,32.2526 78.9829,31.9766 78.6392,31.4245 C78.3683,30.9974 78.2329,30.4922 78.2329,29.9089 C78.2329,29.0547 78.4777,28.3828 78.9673,27.8932 C79.3006,27.5495 79.6965,27.3776 80.1548,27.3776 C80.509,27.3776 80.8319,27.513 81.1235,27.7839 C81.2069,27.8568 81.2798,27.9245 81.3423,27.987 L81.3423,26.1745 C81.3423,25.9245 81.285,25.7682 81.1704,25.7057 C81.0662,25.6537 80.8683,25.6172 80.5767,25.5964 L80.5767,25.362 L82.7329,25.362 L82.7329,31.112 C82.7329,31.3932 82.8162,31.5651 82.9829,31.6276 C83.0662,31.6589 83.1808,31.6797 83.3267,31.6901 L83.3267,31.9245 L82.7017,32.0026 C82.1496,32.0755 81.7069,32.1537 81.3735,32.237 M80.4985,31.7057 C80.7902,31.7057 81.0402,31.5391 81.2485,31.2057 C81.3006,31.112 81.3319,31.0443 81.3423,31.0026 L81.3423,28.5495 C81.2173,28.2162 81.009,28.0182 80.7173,27.9557 C80.6652,27.9453 80.6131,27.9401 80.561,27.9401 C80.0506,27.9401 79.7694,28.4453 79.7173,29.4557 C79.7173,29.5703 79.7173,29.6953 79.7173,29.8307 C79.7173,31.0703 79.9777,31.6953 80.4985,31.7057 M85.6704,29.6589 C85.7225,30.6797 85.9881,31.2787 86.4673,31.4557 C86.5923,31.4974 86.7225,31.5182 86.8579,31.5182 C87.2225,31.5182 87.5558,31.3516 87.8579,31.0182 C87.91,30.9662 87.9569,30.9141 87.9985,30.862 L88.2329,31.0026 C87.8162,31.6068 87.4048,31.987 86.9985,32.1432 C86.7902,32.2162 86.5558,32.2526 86.2954,32.2526 C85.5454,32.2526 84.9829,31.9453 84.6079,31.3307 C84.3579,30.9141 84.2329,30.4141 84.2329,29.8307 C84.2329,28.9349 84.5037,28.263 85.0454,27.8151 C85.41,27.5235 85.8371,27.3776 86.3267,27.3776 C87.4308,27.3776 88.0506,28.0964 88.186,29.5339 C88.186,29.5755 88.186,29.6172 88.186,29.6589 L85.6704,29.6589 M86.9673,29.1432 C86.9465,28.5182 86.8787,28.1224 86.7642,27.9557 C86.6704,27.7995 86.5246,27.7214 86.3267,27.7214 C86.035,27.7214 85.8371,27.8932 85.7329,28.237 C85.6704,28.4766 85.634,28.8307 85.6235,29.2995 L86.9673,29.2995 L86.9673,29.1432 M92.4829,26.3307 C92.3787,26.3307 92.1131,26.4089 91.686,26.5651 C91.6652,26.5755 91.6496,26.5807 91.6392,26.5807 L91.6392,26.3307 L94.1548,25.237 L94.3267,25.237 L94.3267,30.9401 C94.3267,31.3464 94.4048,31.6016 94.561,31.7057 C94.7069,31.8099 94.9881,31.8672 95.4048,31.8776 L95.4048,32.112 L91.6548,32.112 L91.6548,31.8776 C92.1965,31.8672 92.535,31.7839 92.6704,31.6276 C92.785,31.4818 92.8423,31.2318 92.8423,30.8776 L92.8423,27.0182 C92.8319,26.5703 92.7121,26.3412 92.4829,26.3307 M97.6392,30.5495 C97.9621,30.5495 98.2069,30.6901 98.3735,30.9714 C98.4569,31.1172 98.4985,31.263 98.4985,31.4089 C98.4985,31.7214 98.3579,31.961 98.0767,32.1276 C97.9308,32.2005 97.785,32.237 97.6392,32.237 C97.3058,32.237 97.061,32.0964 96.9048,31.8151 C96.8319,31.6797 96.7954,31.5391 96.7954,31.3932 C96.7954,31.0912 96.9308,30.8568 97.2017,30.6901 C97.3371,30.5964 97.4829,30.5495 97.6392,30.5495 M97.6392,27.3932 C97.9621,27.3932 98.2069,27.5287 98.3735,27.7995 C98.4569,27.9453 98.4985,28.0912 98.4985,28.237 C98.4985,28.5599 98.3579,28.8047 98.0767,28.9714 C97.9412,29.0443 97.7954,29.0807 97.6392,29.0807 C97.3058,29.0807 97.061,28.9349 96.9048,28.6432 C96.8319,28.5078 96.7954,28.3672 96.7954,28.2214 C96.7954,27.9193 96.9308,27.6849 97.2017,27.5182 C97.3371,27.4349 97.4829,27.3932 97.6392,27.3932"/>
<path class="StaffText" d="M109.045,31.9245 L109.045,32.112 L106.483,32.112 L106.483,31.9245 C106.9,31.9141 107.129,31.8412 107.17,31.7057 C107.181,31.6641 107.186,31.6224 107.186,31.5807 C107.186,31.4245 107.124,31.2057 106.999,30.9245 L106.592,29.987 L103.967,29.987 L103.514,31.1276 C103.462,31.2735 103.436,31.4037 103.436,31.5182 C103.446,31.7787 103.67,31.9141 104.108,31.9245 L104.108,32.112 L102.139,32.112 L102.139,31.9245 C102.379,31.9141 102.561,31.8307 102.686,31.6745 C102.832,31.4766 103.061,31.013 103.374,30.2839 L105.452,25.3776 L105.655,25.3776 L108.139,31.0495 C108.337,31.487 108.504,31.7474 108.639,31.8307 C108.733,31.8828 108.868,31.9141 109.045,31.9245 M104.139,29.5495 L106.452,29.5495 L105.295,26.7995 L104.139,29.5495 M112.077,28.1276 L112.077,27.9557 C112.577,27.8099 113.04,27.6641 113.467,27.5182 L113.53,27.5339 L113.53,28.3151 C114.009,27.8776 114.384,27.6224 114.655,27.5495 C114.759,27.5287 114.868,27.5182 114.983,27.5182 C115.525,27.5182 115.884,27.7891 116.061,28.3307 C116.124,28.5287 116.155,28.7526 116.155,29.0026 L116.155,31.2995 C116.155,31.612 116.228,31.8047 116.374,31.8776 C116.467,31.9089 116.597,31.9349 116.764,31.9557 L116.764,32.112 L114.686,32.112 L114.686,31.9557 C114.988,31.9349 115.176,31.836 115.249,31.6589 C115.301,31.5443 115.327,31.3672 115.327,31.1276 L115.327,29.0339 C115.306,28.388 115.061,28.0599 114.592,28.0495 C114.342,28.0495 114.082,28.1641 113.811,28.3932 C113.738,28.4662 113.655,28.5443 113.561,28.6276 L113.561,31.4401 C113.561,31.6797 113.66,31.836 113.858,31.9089 C113.952,31.9297 114.071,31.9453 114.217,31.9557 L114.217,32.112 L112.108,32.112 L112.108,31.9557 C112.4,31.9349 112.582,31.8516 112.655,31.7057 C112.696,31.5912 112.717,31.4245 112.717,31.2057 L112.717,28.7214 C112.717,28.3568 112.644,28.1537 112.499,28.112 C112.457,28.0912 112.41,28.0807 112.358,28.0807 C112.233,28.0807 112.139,28.0964 112.077,28.1276 M117.233,31.1432 C117.233,30.6328 117.551,30.2005 118.186,29.8464 C118.374,29.7526 118.874,29.5391 119.686,29.2057 C119.707,29.2057 119.722,29.2005 119.733,29.1901 L119.733,28.5807 C119.681,28.0599 119.426,27.7839 118.967,27.7526 C118.655,27.7526 118.436,27.8516 118.311,28.0495 C118.269,28.1224 118.249,28.1849 118.249,28.237 C118.249,28.2995 118.259,28.3828 118.28,28.487 C118.29,28.5599 118.295,28.612 118.295,28.6432 C118.295,28.8203 118.207,28.9453 118.03,29.0182 C117.967,29.0495 117.91,29.0651 117.858,29.0651 C117.67,29.0651 117.54,28.9766 117.467,28.7995 C117.436,28.7474 117.42,28.6901 117.42,28.6276 C117.42,28.263 117.639,27.9662 118.077,27.737 C118.379,27.5912 118.722,27.5182 119.108,27.5182 C119.827,27.5182 120.269,27.7735 120.436,28.2839 C120.509,28.5026 120.545,28.7787 120.545,29.112 L120.545,31.0495 C120.545,31.3828 120.608,31.5703 120.733,31.612 C120.775,31.6224 120.811,31.6276 120.842,31.6276 C120.988,31.6172 121.134,31.5547 121.28,31.4401 L121.28,31.6901 C121.009,32.0026 120.759,32.1745 120.53,32.2057 C120.478,32.2057 120.426,32.2057 120.374,32.2057 C120.061,32.2057 119.863,32.0495 119.78,31.737 C119.759,31.6537 119.749,31.5599 119.749,31.4557 C119.155,31.9349 118.665,32.1849 118.28,32.2057 C117.853,32.2057 117.545,32.0339 117.358,31.6901 C117.275,31.5235 117.233,31.3412 117.233,31.1432 M119.733,30.862 L119.733,29.4245 C118.91,29.7266 118.405,30.0339 118.217,30.3464 C118.144,30.4922 118.108,30.6485 118.108,30.8151 C118.108,31.211 118.254,31.461 118.545,31.5651 C118.618,31.5964 118.686,31.612 118.749,31.612 C118.967,31.6016 119.207,31.5235 119.467,31.3776 C119.613,31.2943 119.696,31.1901 119.717,31.0651 C119.728,31.0026 119.733,30.9349 119.733,30.862 M123.577,27.612 L123.577,27.9089 L122.561,27.9089 L122.561,30.7682 C122.561,31.3099 122.696,31.6068 122.967,31.6589 C122.999,31.6693 123.035,31.6745 123.077,31.6745 C123.285,31.6641 123.488,31.5443 123.686,31.3151 L123.811,31.4401 C123.488,31.9505 123.087,32.2057 122.608,32.2057 C122.025,32.1953 121.728,31.7735 121.717,30.9401 L121.717,27.9089 L121.186,27.9089 C121.165,27.888 121.155,27.8672 121.155,27.8464 C121.155,27.8047 121.196,27.763 121.28,27.7214 C121.561,27.5339 121.894,27.1693 122.28,26.6276 C122.29,26.6172 122.295,26.612 122.295,26.612 C122.4,26.4557 122.467,26.362 122.499,26.3307 C122.54,26.3412 122.561,26.3828 122.561,26.4557 L122.561,27.612 L123.577,27.612 M128.78,31.5964 L128.78,31.737 C128.249,31.8828 127.79,32.0391 127.405,32.2057 L127.374,32.1745 L127.374,31.3307 C127.071,31.6432 126.9,31.8203 126.858,31.862 C126.556,32.0912 126.238,32.2057 125.905,32.2057 C125.394,32.2057 125.04,31.9922 124.842,31.5651 C124.749,31.3672 124.702,31.1432 124.702,30.8932 L124.702,28.3932 C124.702,28.0807 124.608,27.888 124.42,27.8151 C124.337,27.7839 124.222,27.763 124.077,27.7526 L124.077,27.612 L125.545,27.612 L125.545,30.862 C125.545,31.1537 125.665,31.3724 125.905,31.5182 C126.019,31.5807 126.134,31.612 126.249,31.612 C126.561,31.612 126.827,31.5235 127.045,31.3464 C127.222,31.1901 127.316,30.9922 127.327,30.7526 L127.327,28.4089 C127.327,28.1276 127.254,27.9505 127.108,27.8776 C127.004,27.8255 126.827,27.7943 126.577,27.7839 L126.577,27.612 L128.155,27.612 L128.155,31.0182 C128.155,31.3099 128.222,31.487 128.358,31.5495 C128.441,31.5807 128.566,31.5964 128.733,31.5964 L128.78,31.5964 M131.999,28.487 C131.894,28.487 131.743,28.4037 131.545,28.237 C131.452,28.1537 131.379,28.112 131.327,28.112 C131.16,28.112 130.988,28.2422 130.811,28.5026 C130.696,28.6693 130.639,28.8151 130.639,28.9401 L130.639,31.2057 C130.639,31.5495 130.728,31.763 130.905,31.8464 C131.03,31.9089 131.222,31.9453 131.483,31.9557 L131.483,32.112 L129.077,32.112 L129.077,31.9557 C129.431,31.8932 129.644,31.8099 129.717,31.7057 C129.769,31.6224 129.795,31.4766 129.795,31.2682 L129.795,28.7526 C129.795,28.388 129.712,28.1901 129.545,28.1589 C129.514,28.1485 129.483,28.1432 129.452,28.1432 C129.337,28.1432 129.222,28.1589 129.108,28.1901 L129.108,28.0339 C129.639,27.8672 130.129,27.6953 130.577,27.5182 L130.639,27.5339 L130.639,28.4245 C130.983,27.9453 131.275,27.6589 131.514,27.5651 C131.618,27.5339 131.722,27.5182 131.827,27.5182 C132.139,27.5182 132.321,27.6485 132.374,27.9089 C132.374,27.9505 132.374,27.9974 132.374,28.0495 C132.342,28.3203 132.217,28.4662 131.999,28.487 M132.233,31.1432 C132.233,30.6328 132.551,30.2005 133.186,29.8464 C133.374,29.7526 133.874,29.5391 134.686,29.2057 C134.707,29.2057 134.722,29.2005 134.733,29.1901 L134.733,28.5807 C134.681,28.0599 134.426,27.7839 133.967,27.7526 C133.655,27.7526 133.436,27.8516 133.311,28.0495 C133.269,28.1224 133.249,28.1849 133.249,28.237 C133.249,28.2995 133.259,28.3828 133.28,28.487 C133.29,28.5599 133.295,28.612 133.295,28.6432 C133.295,28.8203 133.207,28.9453 133.03,29.0182 C132.967,29.0495 132.91,29.0651 132.858,29.0651 C132.67,29.0651 132.54,28.9766 132.467,28.7995 C132.436,28.7474 132.42,28.6901 132.42,28.6276 C132.42,28.263 132.639,27.9662 133.077,27.737 C133.379,27.5912 133.722,27.5182 134.108,27.5182 C134.827,27.5182 135.269,27.7735 135.436,28.2839 C135.509,28.5026 135.545,28.7787 135.545,29.112 L135.545,31.0495 C135.545,31.3828 135.608,31.5703 135.733,31.612 C135.775,31.6224 135.811,31.6276 135.842,31.6276 C135.988,31.6172 136.134,31.5547 136.28,31.4401 L136.28,31.6901 C136.009,32.0026 135.759,32.1745 135.53,32.2057 C135.478,32.2057 135.426,32.2057 135.374,32.2057 C135.061,32.2057 134.863,32.0495 134.78,31.737 C134.759,31.6537 134.749,31.5599 134.749,31.4557 C134.155,31.9349 133.665,32.1849 133.28,32.2057 C132.853,32.2057 132.545,32.0339 132.358,31.6901 C132.275,31.5235 132.233,31.3412 132.233,31.1432 M134.733,30.862 L134.733,29.4245 C133.91,29.7266 133.405,30.0339 133.217,30.3464 C133.144,30.4922 133.108,30.6485 133.108,30.8151 C133.108,31.211 133.254,31.461 133.545,31.5651 C133.618,31.5964 133.686,31.612 133.749,31.612 C133.967,31.6016 134.207,31.5235 134.467,31.3776 C134.613,31.2943 134.696,31.1901 134.717,31.0651 C134.728,31.0026 134.733,30.9349 134.733,30.862 M136.077,25.8776 L136.077,25.7214 C136.743,25.5547 137.275,25.4089 137.67,25.2839 L137.717,25.2995 L137.717,31.2682 C137.717,31.5807 137.78,31.7735 137.905,31.8464 C138.019,31.8985 138.207,31.9349 138.467,31.9557 L138.467,32.112 L136.108,32.112 L136.108,31.9557 C136.483,31.9245 136.712,31.836 136.795,31.6901 C136.847,31.5964 136.874,31.4453 136.874,31.237 L136.874,26.4714 C136.874,26.138 136.801,25.9453 136.655,25.8932 C136.592,25.8724 136.525,25.862 136.452,25.862 C136.316,25.862 136.191,25.8672 136.077,25.8776 M142.108,28.1589 L142.108,27.987 C142.587,27.8412 143.056,27.6849 143.514,27.5182 L143.577,27.5339 L143.577,28.2995 C144.15,27.862 144.561,27.612 144.811,27.5495 C144.915,27.5287 145.019,27.5182 145.124,27.5182 C145.655,27.5287 146.009,27.8151 146.186,28.3776 C146.717,27.8047 147.264,27.5182 147.827,27.5182 C148.587,27.5287 148.972,28.1276 148.983,29.3151 L148.983,31.362 C148.993,31.7266 149.134,31.9193 149.405,31.9401 L149.67,31.9557 L149.67,32.112 L147.483,32.112 L147.483,31.9557 C147.806,31.9245 147.999,31.8516 148.061,31.737 C148.113,31.6432 148.139,31.4818 148.139,31.2526 L148.139,29.1432 C148.139,28.5912 148.03,28.2578 147.811,28.1432 C147.707,28.0807 147.566,28.0495 147.389,28.0495 C146.941,28.0599 146.577,28.263 146.295,28.6589 L146.295,31.1745 C146.295,31.5495 146.384,31.7839 146.561,31.8776 C146.665,31.9297 146.816,31.9557 147.014,31.9557 L147.014,32.112 L144.78,32.112 L144.78,31.9557 C145.103,31.9349 145.301,31.862 145.374,31.737 C145.436,31.6432 145.467,31.4818 145.467,31.2526 L145.467,29.0964 C145.467,28.3985 145.243,28.0495 144.795,28.0495 C144.431,28.0495 144.108,28.1693 143.827,28.4089 C143.754,28.4818 143.686,28.5599 143.624,28.6432 L143.624,31.4401 C143.624,31.6901 143.712,31.8464 143.889,31.9089 C143.983,31.9401 144.118,31.9557 144.295,31.9557 L144.295,32.112 L142.077,32.112 L142.077,31.9557 C142.431,31.9557 142.644,31.8724 142.717,31.7057 C142.759,31.6016 142.78,31.4557 142.78,31.2682 L142.78,28.7526 C142.78,28.3776 142.702,28.1693 142.545,28.1276 C142.514,28.1172 142.478,28.112 142.436,28.112 C142.332,28.112 142.222,28.1276 142.108,28.1589 M150.608,28.1901 C150.452,28.1901 150.311,28.2005 150.186,28.2214 L150.186,28.0651 C150.655,27.9297 151.17,27.7474 151.733,27.5182 L151.764,27.5495 L151.764,31.0964 C151.764,31.4818 151.821,31.7214 151.936,31.8151 C152.03,31.888 152.222,31.9349 152.514,31.9557 L152.514,32.112 L150.139,32.112 L150.139,31.9557 C150.504,31.9349 150.733,31.8672 150.827,31.7526 C150.9,31.638 150.936,31.4193 150.936,31.0964 L150.936,28.7682 C150.936,28.4141 150.853,28.2214 150.686,28.1901 C150.655,28.1901 150.629,28.1901 150.608,28.1901 M151.264,25.2839 C151.483,25.2839 151.639,25.3828 151.733,25.5807 C151.764,25.6537 151.78,25.7266 151.78,25.7995 C151.78,26.0182 151.676,26.1745 151.467,26.2682 C151.394,26.2891 151.327,26.2995 151.264,26.2995 C151.045,26.2995 150.889,26.2005 150.795,26.0026 C150.775,25.9297 150.764,25.862 150.764,25.7995 C150.764,25.5807 150.858,25.4245 151.045,25.3307 C151.118,25.2995 151.191,25.2839 151.264,25.2839 M153.077,28.1276 L153.077,27.9557 C153.577,27.8099 154.04,27.6641 154.467,27.5182 L154.53,27.5339 L154.53,28.3151 C155.009,27.8776 155.384,27.6224 155.655,27.5495 C155.759,27.5287 155.868,27.5182 155.983,27.5182 C156.525,27.5182 156.884,27.7891 157.061,28.3307 C157.124,28.5287 157.155,28.7526 157.155,29.0026 L157.155,31.2995 C157.155,31.612 157.228,31.8047 157.374,31.8776 C157.467,31.9089 157.597,31.9349 157.764,31.9557 L157.764,32.112 L155.686,32.112 L155.686,31.9557 C155.988,31.9349 156.176,31.836 156.249,31.6589 C156.301,31.5443 156.327,31.3672 156.327,31.1276 L156.327,29.0339 C156.306,28.388 156.061,28.0599 155.592,28.0495 C155.342,28.0495 155.082,28.1641 154.811,28.3932 C154.738,28.4662 154.655,28.5443 154.561,28.6276 L154.561,31.4401 C154.561,31.6797 154.66,31.836 154.858,31.9089 C154.952,31.9297 155.071,31.9453 155.217,31.9557 L155.217,32.112 L153.108,32.112 L153.108,31.9557 C153.4,31.9349 153.582,31.8516 153.655,31.7057 C153.696,31.5912 153.717,31.4245 153.717,31.2057 L153.717,28.7214 C153.717,28.3568 153.644,28.1537 153.499,28.112 C153.457,28.0912 153.41,28.0807 153.358,28.0807 C153.233,28.0807 153.139,28.0964 153.077,28.1276 M160.436,27.5182 C161.176,27.5182 161.759,27.7891 162.186,28.3307 C162.488,28.737 162.639,29.2162 162.639,29.7682 C162.639,30.5495 162.384,31.1745 161.874,31.6432 C161.457,32.0182 160.972,32.2057 160.42,32.2057 C159.712,32.2057 159.15,31.9349 158.733,31.3932 C158.4,30.9557 158.233,30.4401 158.233,29.8464 C158.233,29.0339 158.509,28.4089 159.061,27.9714 C159.446,27.6693 159.905,27.5182 160.436,27.5182 M159.139,29.362 C159.139,30.2682 159.327,30.961 159.702,31.4401 C159.941,31.7526 160.222,31.9089 160.545,31.9089 C161.066,31.9089 161.426,31.612 161.624,31.0182 C161.707,30.7578 161.749,30.461 161.749,30.1276 C161.749,29.2422 161.535,28.586 161.108,28.1589 C160.879,27.9297 160.613,27.8151 160.311,27.8151 C159.842,27.8151 159.504,28.0547 159.295,28.5339 C159.191,28.7735 159.139,29.0495 159.139,29.362 M165.999,28.487 C165.894,28.487 165.743,28.4037 165.545,28.237 C165.452,28.1537 165.379,28.112 165.327,28.112 C165.16,28.112 164.988,28.2422 164.811,28.5026 C164.696,28.6693 164.639,28.8151 164.639,28.9401 L164.639,31.2057 C164.639,31.5495 164.728,31.763 164.905,31.8464 C165.03,31.9089 165.222,31.9453 165.483,31.9557 L165.483,32.112 L163.077,32.112 L163.077,31.9557 C163.431,31.8932 163.644,31.8099 163.717,31.7057 C163.769,31.6224 163.795,31.4766 163.795,31.2682 L163.795,28.7526 C163.795,28.388 163.712,28.1901 163.545,28.1589 C163.514,28.1485 163.483,28.1432 163.452,28.1432 C163.337,28.1432 163.222,28.1589 163.108,28.1901 L163.108,28.0339 C163.639,27.8672 164.129,27.6953 164.577,27.5182 L164.639,27.5339 L164.639,28.4245 C164.983,27.9453 165.275,27.6589 165.514,27.5651 C165.618,27.5339 165.722,27.5182 165.827,27.5182 C166.139,27.5182 166.321,27.6485 166.374,27.9089 C166.374,27.9505 166.374,27.9974 166.374,28.0495 C166.342,28.3203 166.217,28.4662 165.999,28.487 M171.655,27.7214 C171.676,27.711 171.733,27.6745 171.827,27.612 L171.936,27.612 L171.967,28.9714 L171.827,28.9714 C171.66,28.3255 171.42,27.9401 171.108,27.8151 C170.993,27.763 170.863,27.737 170.717,27.737 C170.363,27.737 170.124,27.8776 169.999,28.1589 C169.967,28.2422 169.952,28.3307 169.952,28.4245 C169.962,28.7057 170.108,28.9297 170.389,29.0964 L171.467,29.737 C171.946,30.0287 172.217,30.3464 172.28,30.6901 C172.29,30.763 172.295,30.8464 172.295,30.9401 C172.295,31.3568 172.113,31.6953 171.749,31.9557 C171.488,32.1224 171.202,32.2057 170.889,32.2057 C170.754,32.2057 170.446,32.1589 169.967,32.0651 C169.853,32.0443 169.764,32.0339 169.702,32.0339 C169.597,32.0443 169.519,32.086 169.467,32.1589 L169.342,32.1589 L169.342,30.5964 L169.499,30.5964 C169.603,31.0651 169.733,31.3932 169.889,31.5807 C170.108,31.8516 170.4,31.987 170.764,31.987 C171.191,31.987 171.457,31.8307 171.561,31.5182 C171.592,31.4453 171.608,31.362 171.608,31.2682 C171.597,30.9662 171.42,30.7162 171.077,30.5182 L170.499,30.1901 C169.874,29.836 169.504,29.4818 169.389,29.1276 C169.347,29.0026 169.327,28.8776 169.327,28.7526 C169.327,28.2839 169.53,27.9349 169.936,27.7057 C170.165,27.5807 170.415,27.5182 170.686,27.5182 C170.905,27.5182 171.165,27.5703 171.467,27.6745 C171.551,27.7057 171.613,27.7214 171.655,27.7214 M173.233,29.987 C173.233,29.1432 173.519,28.4818 174.092,28.0026 C174.488,27.6797 174.931,27.5182 175.42,27.5182 C175.972,27.5182 176.4,27.6693 176.702,27.9714 C176.879,28.1485 176.967,28.3412 176.967,28.5495 C176.967,28.7266 176.874,28.8516 176.686,28.9245 C176.613,28.9557 176.545,28.9714 176.483,28.9714 C176.275,28.9714 176.124,28.836 176.03,28.5651 C176.019,28.5443 176.014,28.5235 176.014,28.5026 L175.952,28.2839 C175.889,28.0339 175.775,27.888 175.608,27.8464 C175.535,27.8255 175.452,27.8151 175.358,27.8151 C174.858,27.8151 174.478,28.0547 174.217,28.5339 C174.071,28.8255 173.999,29.1641 173.999,29.5495 C173.999,30.2787 174.222,30.8255 174.67,31.1901 C174.931,31.388 175.222,31.487 175.545,31.487 C175.962,31.487 176.321,31.3203 176.624,30.987 C176.728,30.862 176.842,30.7162 176.967,30.5495 L177.108,30.6432 C176.733,31.362 176.316,31.8307 175.858,32.0495 C175.618,32.1537 175.379,32.2057 175.139,32.2057 C174.493,32.2057 173.988,31.9401 173.624,31.4089 C173.363,31.0026 173.233,30.5287 173.233,29.987 M177.233,31.1432 C177.233,30.6328 177.551,30.2005 178.186,29.8464 C178.374,29.7526 178.874,29.5391 179.686,29.2057 C179.707,29.2057 179.722,29.2005 179.733,29.1901 L179.733,28.5807 C179.681,28.0599 179.426,27.7839 178.967,27.7526 C178.655,27.7526 178.436,27.8516 178.311,28.0495 C178.269,28.1224 178.249,28.1849 178.249,28.237 C178.249,28.2995 178.259,28.3828 178.28,28.487 C178.29,28.5599 178.295,28.612 178.295,28.6432 C178.295,28.8203 178.207,28.9453 178.03,29.0182 C177.967,29.0495 177.91,29.0651 177.858,29.0651 C177.67,29.0651 177.54,28.9766 177.467,28.7995 C177.436,28.7474 177.42,28.6901 177.42,28.6276 C177.42,28.263 177.639,27.9662 178.077,27.737 C178.379,27.5912 178.722,27.5182 179.108,27.5182 C179.827,27.5182 180.269,27.7735 180.436,28.2839 C180.509,28.5026 180.545,28.7787 180.545,29.112 L180.545,31.0495 C180.545,31.3828 180.608,31.5703 180.733,31.612 C180.775,31.6224 180.811,31.6276 180.842,31.6276 C180.988,31.6172 181.134,31.5547 181.28,31.4401 L181.28,31.6901 C181.009,32.0026 180.759,32.1745 180.53,32.2057 C180.478,32.2057 180.426,32.2057 180.374,32.2057 C180.061,32.2057 179.863,32.0495 179.78,31.737 C179.759,31.6537 179.749,31.5599 179.749,31.4557 C179.155,31.9349 178.665,32.1849 178.28,32.2057 C177.853,32.2057 177.545,32.0339 177.358,31.6901 C177.275,31.5235 177.233,31.3412 177.233,31.1432 M179.733,30.862 L179.733,29.4245 C178.91,29.7266 178.405,30.0339 178.217,30.3464 C178.144,30.4922 178.108,30.6485 178.108,30.8151 C178.108,31.211 178.254,31.461 178.545,31.5651 C178.618,31.5964 178.686,31.612 178.749,31.612 C178.967,31.6016 179.207,31.5235 179.467,31.3776 C179.613,31.2943 179.696,31.1901 179.717,31.0651 C179.728,31.0026 179.733,30.9349 179.733,30.862 M181.077,25.8776 L181.077,25.7214 C181.743,25.5547 182.275,25.4089 182.67,25.2839 L182.717,25.2995 L182.717,31.2682 C182.717,31.5807 182.78,31.7735 182.905,31.8464 C183.019,31.8985 183.207,31.9349 183.467,31.9557 L183.467,32.112 L181.108,32.112 L181.108,31.9557 C181.483,31.9245 181.712,31.836 181.795,31.6901 C181.847,31.5964 181.874,31.4453 181.874,31.237 L181.874,26.4714 C181.874,26.138 181.801,25.9453 181.655,25.8932 C181.592,25.8724 181.525,25.862 181.452,25.862 C181.316,25.862 181.191,25.8672 181.077,25.8776 M184.952,29.3464 C184.993,30.5235 185.379,31.2162 186.108,31.4245 C186.233,31.4662 186.368,31.487 186.514,31.487 C187.004,31.487 187.42,31.2787 187.764,30.862 C187.858,30.7474 187.957,30.612 188.061,30.4557 L188.217,30.5182 C187.853,31.4766 187.28,32.0287 186.499,32.1745 C186.363,32.1953 186.233,32.2057 186.108,32.2057 C185.368,32.2057 184.837,31.8932 184.514,31.2682 C184.327,30.8932 184.233,30.461 184.233,29.9714 C184.233,29.086 184.509,28.4141 185.061,27.9557 C185.426,27.6641 185.847,27.5182 186.327,27.5182 C187.243,27.5182 187.795,28.0391 187.983,29.0807 C188.004,29.1745 188.019,29.263 188.03,29.3464 L184.952,29.3464 M184.967,29.0495 L187.014,29.0495 C186.92,28.4766 186.754,28.1224 186.514,27.987 C186.389,27.9245 186.228,27.8932 186.03,27.8932 C185.436,27.8932 185.082,28.2682 184.967,29.0182 C184.967,29.0287 184.967,29.0391 184.967,29.0495 M193.436,27.5182 C194.176,27.5182 194.759,27.7891 195.186,28.3307 C195.488,28.737 195.639,29.2162 195.639,29.7682 C195.639,30.5495 195.384,31.1745 194.874,31.6432 C194.457,32.0182 193.972,32.2057 193.42,32.2057 C192.712,32.2057 192.15,31.9349 191.733,31.3932 C191.4,30.9557 191.233,30.4401 191.233,29.8464 C191.233,29.0339 191.509,28.4089 192.061,27.9714 C192.446,27.6693 192.905,27.5182 193.436,27.5182 M192.139,29.362 C192.139,30.2682 192.327,30.961 192.702,31.4401 C192.941,31.7526 193.222,31.9089 193.545,31.9089 C194.066,31.9089 194.426,31.612 194.624,31.0182 C194.707,30.7578 194.749,30.461 194.749,30.1276 C194.749,29.2422 194.535,28.586 194.108,28.1589 C193.879,27.9297 193.613,27.8151 193.311,27.8151 C192.842,27.8151 192.504,28.0547 192.295,28.5339 C192.191,28.7735 192.139,29.0495 192.139,29.362 M196.077,28.1276 L196.077,27.9557 C196.577,27.8099 197.04,27.6641 197.467,27.5182 L197.53,27.5339 L197.53,28.3151 C198.009,27.8776 198.384,27.6224 198.655,27.5495 C198.759,27.5287 198.868,27.5182 198.983,27.5182 C199.525,27.5182 199.884,27.7891 200.061,28.3307 C200.124,28.5287 200.155,28.7526 200.155,29.0026 L200.155,31.2995 C200.155,31.612 200.228,31.8047 200.374,31.8776 C200.467,31.9089 200.597,31.9349 200.764,31.9557 L200.764,32.112 L198.686,32.112 L198.686,31.9557 C198.988,31.9349 199.176,31.836 199.249,31.6589 C199.301,31.5443 199.327,31.3672 199.327,31.1276 L199.327,29.0339 C199.306,28.388 199.061,28.0599 198.592,28.0495 C198.342,28.0495 198.082,28.1641 197.811,28.3932 C197.738,28.4662 197.655,28.5443 197.561,28.6276 L197.561,31.4401 C197.561,31.6797 197.66,31.836 197.858,31.9089 C197.952,31.9297 198.071,31.9453 198.217,31.9557 L198.217,32.112 L196.108,32.112 L196.108,31.9557 C196.4,31.9349 196.582,31.8516 196.655,31.7057 C196.696,31.5912 196.717,31.4245 196.717,31.2057 L196.717,28.7214 C196.717,28.3568 196.644,28.1537 196.499,28.112 C196.457,28.0912 196.41,28.0807 196.358,28.0807 C196.233,28.0807 196.139,28.0964 196.077,28.1276 M201.952,29.3464 C201.993,30.5235 202.379,31.2162 203.108,31.4245 C203.233,31.4662 203.368,31.487 203.514,31.487 C204.004,31.487 204.42,31.2787 204.764,30.862 C204.858,30.7474 204.957,30.612 205.061,30.4557 L205.217,30.5182 C204.853,31.4766 204.28,32.0287 203.499,32.1745 C203.363,32.1953 203.233,32.2057 203.108,32.2057 C202.368,32.2057 201.837,31.8932 201.514,31.2682 C201.327,30.8932 201.233,30.461 201.233,29.9714 C201.233,29.086 201.509,28.4141 202.061,27.9557 C202.426,27.6641 202.847,27.5182 203.327,27.5182 C204.243,27.5182 204.795,28.0391 204.983,29.0807 C205.004,29.1745 205.019,29.263 205.03,29.3464 L201.952,29.3464 M201.967,29.0495 L204.014,29.0495 C203.92,28.4766 203.754,28.1224 203.514,27.987 C203.389,27.9245 203.228,27.8932 203.03,27.8932 C202.436,27.8932 202.082,28.2682 201.967,29.0182 C201.967,29.0287 201.967,29.0391 201.967,29.0495 M210.436,27.5182 C211.176,27.5182 211.759,27.7891 212.186,28.3307 C212.488,28.737 212.639,29.2162 212.639,29.7682 C212.639,30.5495 212.384,31.1745 211.874,31.6432 C211.457,32.0182 210.972,32.2057 210.42,32.2057 C209.712,32.2057 209.15,31.9349 208.733,31.3932 C208.4,30.9557 208.233,30.4401 208.233,29.8464 C208.233,29.0339 208.509,28.4089 209.061,27.9714 C209.446,27.6693 209.905,27.5182 210.436,27.5182 M209.139,29.362 C209.139,30.2682 209.327,30.961 209.702,31.4401 C209.941,31.7526 210.222,31.9089 210.545,31.9089 C211.066,31.9089 211.426,31.612 211.624,31.0182 C211.707,30.7578 211.749,30.461 211.749,30.1276 C211.749,29.2422 211.535,28.586 211.108,28.1589 C210.879,27.9297 210.613,27.8151 210.311,27.8151 C209.842,27.8151 209.504,28.0547 209.295,28.5339 C209.191,28.7735 209.139,29.0495 209.139,29.362 M213.233,29.987 C213.233,29.1432 213.519,28.4818 214.092,28.0026 C214.488,27.6797 214.931,27.5182 215.42,27.5182 C215.972,27.5182 216.4,27.6693 216.702,27.9714 C216.879,28.1485 216.967,28.3412 216.967,28.5495 C216.967,28.7266 216.874,28.8516 216.686,28.9245 C216.613,28.9557 216.545,28.9714 216.483,28.9714 C216.275,28.9714 216.124,28.836 216.03,28.5651 C216.019,28.5443 216.014,28.5235 216.014,28.5026 L215.952,28.2839 C215.889,28.0339 215.775,27.888 215.608,27.8464 C215.535,27.8255 215.452,27.8151 215.358,27.8151 C214.858,27.8151 214.478,28.0547 214.217,28.5339 C214.071,28.8255 213.999,29.1641 213.999,29.5495 C213.999,30.2787 214.222,30.8255 214.67,31.1901 C214.931,31.388 215.222,31.487 215.545,31.487 C215.962,31.487 216.321,31.3203 216.624,30.987 C216.728,30.862 216.842,30.7162 216.967,30.5495 L217.108,30.6432 C216.733,31.362 216.316,31.8307 215.858,32.0495 C215.618,32.1537 215.379,32.2057 215.139,32.2057 C214.493,32.2057 213.988,31.9401 213.624,31.4089 C213.363,31.0026 213.233,30.5287 213.233,29.987 M219.577,27.612 L219.577,27.9089 L218.561,27.9089 L218.561,30.7682 C218.561,31.3099 218.696,31.6068 218.967,31.6589 C218.999,31.6693 219.035,31.6745 219.077,31.6745 C219.285,31.6641 219.488,31.5443 219.686,31.3151 L219.811,31.4401 C219.488,31.9505 219.087,32.2057 218.608,32.2057 C218.025,32.1953 217.728,31.7735 217.717,30.9401 L217.717,27.9089 L217.186,27.9089 C217.165,27.888 217.155,27.8672 217.155,27.8464 C217.155,27.8047 217.196,27.763 217.28,27.7214 C217.561,27.5339 217.894,27.1693 218.28,26.6276 C218.29,26.6172 218.295,26.612 218.295,26.612 C218.4,26.4557 218.467,26.362 218.499,26.3307 C218.54,26.3412 218.561,26.3828 218.561,26.4557 L218.561,27.612 L219.577,27.612 M220.233,31.1432 C220.233,30.6328 220.551,30.2005 221.186,29.8464 C221.374,29.7526 221.874,29.5391 222.686,29.2057 C222.707,29.2057 222.722,29.2005 222.733,29.1901 L222.733,28.5807 C222.681,28.0599 222.426,27.7839 221.967,27.7526 C221.655,27.7526 221.436,27.8516 221.311,28.0495 C221.269,28.1224 221.249,28.1849 221.249,28.237 C221.249,28.2995 221.259,28.3828 221.28,28.487 C221.29,28.5599 221.295,28.612 221.295,28.6432 C221.295,28.8203 221.207,28.9453 221.03,29.0182 C220.967,29.0495 220.91,29.0651 220.858,29.0651 C220.67,29.0651 220.54,28.9766 220.467,28.7995 C220.436,28.7474 220.42,28.6901 220.42,28.6276 C220.42,28.263 220.639,27.9662 221.077,27.737 C221.379,27.5912 221.722,27.5182 222.108,27.5182 C222.827,27.5182 223.269,27.7735 223.436,28.2839 C223.509,28.5026 223.545,28.7787 223.545,29.112 L223.545,31.0495 C223.545,31.3828 223.608,31.5703 223.733,31.612 C223.775,31.6224 223.811,31.6276 223.842,31.6276 C223.988,31.6172 224.134,31.5547 224.28,31.4401 L224.28,31.6901 C224.009,32.0026 223.759,32.1745 223.53,32.2057 C223.478,32.2057 223.426,32.2057 223.374,32.2057 C223.061,32.2057 222.863,32.0495 222.78,31.737 C222.759,31.6537 222.749,31.5599 222.749,31.4557 C222.155,31.9349 221.665,32.1849 221.28,32.2057 C220.853,32.2057 220.545,32.0339 220.358,31.6901 C220.275,31.5235 220.233,31.3412 220.233,31.1432 M222.733,30.862 L222.733,29.4245 C221.91,29.7266 221.405,30.0339 221.217,30.3464 C221.144,30.4922 221.108,30.6485 221.108,30.8151 C221.108,31.211 221.254,31.461 221.545,31.5651 C221.618,31.5964 221.686,31.612 221.749,31.612 C221.967,31.6016 222.207,31.5235 222.467,31.3776 C222.613,31.2943 222.696,31.1901 222.717,31.0651 C222.728,31.0026 222.733,30.9349 222.733,30.862 M228.608,27.612 L228.608,27.7682 C228.441,27.7891 228.316,27.8568 228.233,27.9714 C228.16,28.0755 228.071,28.2682 227.967,28.5495 L226.686,31.7526 C226.551,32.0755 226.457,32.2422 226.405,32.2526 C226.332,32.2526 226.249,32.1068 226.155,31.8151 C226.144,31.8047 226.139,31.7943 226.139,31.7839 L224.936,28.9089 C224.686,28.3151 224.499,27.9662 224.374,27.862 C224.29,27.7995 224.176,27.7682 224.03,27.7682 L224.03,27.612 L225.999,27.612 L225.999,27.7682 C225.717,27.7891 225.566,27.862 225.545,27.987 C225.535,28.0078 225.53,28.0287 225.53,28.0495 C225.53,28.1641 225.561,28.2839 225.624,28.4089 L226.639,30.9714 L227.624,28.3776 C227.665,28.2839 227.686,28.1849 227.686,28.0807 C227.686,27.9037 227.54,27.7995 227.249,27.7682 C227.238,27.7682 227.228,27.7682 227.217,27.7682 L227.217,27.612 L228.608,27.612 M229.952,29.3464 C229.993,30.5235 230.379,31.2162 231.108,31.4245 C231.233,31.4662 231.368,31.487 231.514,31.487 C232.004,31.487 232.42,31.2787 232.764,30.862 C232.858,30.7474 232.957,30.612 233.061,30.4557 L233.217,30.5182 C232.853,31.4766 232.28,32.0287 231.499,32.1745 C231.363,32.1953 231.233,32.2057 231.108,32.2057 C230.368,32.2057 229.837,31.8932 229.514,31.2682 C229.327,30.8932 229.233,30.461 229.233,29.9714 C229.233,29.086 229.509,28.4141 230.061,27.9557 C230.426,27.6641 230.847,27.5182 231.327,27.5182 C232.243,27.5182 232.795,28.0391 232.983,29.0807 C233.004,29.1745 233.019,29.263 233.03,29.3464 L229.952,29.3464 M229.967,29.0495 L232.014,29.0495 C231.92,28.4766 231.754,28.1224 231.514,27.987 C231.389,27.9245 231.228,27.8932 231.03,27.8932 C230.436,27.8932 230.082,28.2682 229.967,29.0182 C229.967,29.0287 229.967,29.0391 229.967,29.0495"/>
</svg>
