<?xml version="1.0" encoding="UTF-8" standalone="no"?>
<svg width="595.44px" height="841.68px" viewBox="0 0 595.44 841.68"
 xmlns="http://www.w3.org/2000/svg" xmlns:xlink="http://www.w3.org/1999/xlink" version="1.2" baseProfile="tiny">
<title>Guitar Scales and Arpeggios</title>
<desc>Generated by MuseScore 2.1.0</desc>
<polyline class="StaffLines" fill="none" stroke="#000000" stroke-width="0.40" stroke-linejoin="bevel" points="28.08,62.856 567.36,62.856"/>
<polyline class="StaffLines" fill="none" stroke="#000000" stroke-width="0.40" stroke-linejoin="bevel" points="28.08,67.824 567.36,67.824"/>
<polyline class="StaffLines" fill="none" stroke="#000000" stroke-width="0.40" stroke-linejoin="bevel" points="28.08,72.792 567.36,72.792"/>
<polyline class="StaffLines" fill="none" stroke="#000000" stroke-width="0.40" stroke-linejoin="bevel" points="28.08,77.76 567.36,77.76"/>
<polyline class="StaffLines" fill="none" stroke="#000000" stroke-width="0.40" stroke-linejoin="bevel" points="28.08,82.728 567.36,82.728"/>
<polyline class="StaffLines" fill="none" stroke="#000000" stroke-width="0.40" stroke-linejoin="bevel" points="28.08,115.02 567.36,115.02"/>
<polyline class="StaffLines" fill="none" stroke="#000000" stroke-width="0.40" stroke-linejoin="bevel" points="28.08,122.472 567.36,122.472"/>
<polyline class="StaffLines" fill="none" stroke="#000000" stroke-width="0.40" stroke-linejoin="bevel" points="28.08,129.924 567.36,129.924"/>
<polyline class="StaffLines" fill="none" stroke="#000000" stroke-width="0.40" stroke-linejoin="bevel" points="28.08,137.376 567.36,137.376"/>
<polyline class="StaffLines" fill="none" stroke="#000000" stroke-width="0.40" stroke-linejoin="bevel" points="28.08,144.828 567.36,144.828"/>
<polyline class="StaffLines" fill="none" stroke="#000000" stroke-width="0.40" stroke-linejoin="bevel" points="28.08,152.28 567.36,152.28"/>
<polyline class="BarLine" fill="none" stroke="#000000" stroke-width="0.79" stroke-linejoin="bevel" points="28.4774,62.856 28.4774,152.28"/>
<polyline class="BarLine" fill="none" stroke="#000000" stroke-width="0.79" stroke-linejoin="bevel" points="562.491,115.02 562.491,152.28"/>
<polyline class="BarLine" fill="none" stroke="#000000" stroke-width="2.48" stroke-linejoin="bevel" points="566.118,115.02 566.118,152.28"/>
<polyline class="BarLine" fill="none" stroke="#000000" stroke-width="0.79" stroke-linejoin="bevel" points="562.491,62.856 562.491,82.728"/>
<polyline class="BarLine" fill="none" stroke="#000000" stroke-width="2.48" stroke-linejoin="bevel" points="566.118,62.856 566.118,82.728"/>
<polyline class="Stem" fill="none" stroke="#000000" stroke-width="0.65" stroke-linecap="round" stroke-linejoin="bevel" points="517.095,84.4489 517.095,67.824"/>
<polyline class="Stem" fill="none" stroke="#000000" stroke-width="0.65" stroke-linecap="round" stroke-linejoin="bevel" points="484.793,81.7949 484.793,65.34"/>
<polyline class="Stem" fill="none" stroke="#000000" stroke-width="0.65" stroke-linecap="round" stroke-linejoin="bevel" points="452.671,79.3109 452.671,62.856"/>
<polyline class="Stem" fill="none" stroke="#000000" stroke-width="0.65" stroke-linecap="round" stroke-linejoin="bevel" points="420.548,76.8269 420.548,60.993"/>
<polyline class="Stem" fill="none" stroke="#000000" stroke-width="0.65" stroke-linecap="round" stroke-linejoin="bevel" points="388.426,74.3429 388.426,59.13"/>
<polyline class="Stem" fill="none" stroke="#000000" stroke-width="0.65" stroke-linecap="round" stroke-linejoin="bevel" points="350.408,73.7251 350.408,88.317"/>
<polyline class="Stem" fill="none" stroke="#000000" stroke-width="0.65" stroke-linecap="round" stroke-linejoin="bevel" points="318.286,71.2411 318.286,86.454"/>
<polyline class="Stem" fill="none" stroke="#000000" stroke-width="0.65" stroke-linecap="round" stroke-linejoin="bevel" points="286.163,68.7571 286.163,84.591"/>
<polyline class="Stem" fill="none" stroke="#000000" stroke-width="0.65" stroke-linecap="round" stroke-linejoin="bevel" points="254.041,71.2411 254.041,86.454"/>
<polyline class="Stem" fill="none" stroke="#000000" stroke-width="0.65" stroke-linecap="round" stroke-linejoin="bevel" points="221.918,73.7251 221.918,88.317"/>
<polyline class="Stem" fill="none" stroke="#000000" stroke-width="0.65" stroke-linecap="round" stroke-linejoin="bevel" points="195.691,74.3429 195.691,59.13"/>
<polyline class="Stem" fill="none" stroke="#000000" stroke-width="0.65" stroke-linecap="round" stroke-linejoin="bevel" points="163.568,76.8269 163.568,60.993"/>
<polyline class="Stem" fill="none" stroke="#000000" stroke-width="0.65" stroke-linecap="round" stroke-linejoin="bevel" points="131.446,79.3109 131.446,62.856"/>
<polyline class="Stem" fill="none" stroke="#000000" stroke-width="0.65" stroke-linecap="round" stroke-linejoin="bevel" points="99.3232,81.7949 99.3232,65.34"/>
<polyline class="Stem" fill="none" stroke="#000000" stroke-width="0.65" stroke-linecap="round" stroke-linejoin="bevel" points="67.2007,84.2789 67.2007,67.824"/>
<path class="Note" fill="#ffffff" fill-rule="evenodd" d="M511.443,133.65 L517.405,133.65 L517.405,141.102 L511.443,141.102 L511.443,133.65 "/>
<path class="Note" transform="matrix(0.9936,0,0,0.9936,511.94,140.854)" d="M0.390625,-3.09375 C0.390625,-5 0.927083,-6.07813 2,-6.32813 C2.14583,-6.36979 2.30208,-6.39063 2.46875,-6.39063 C3.78125,-6.39063 4.47917,-5.40104 4.5625,-3.42188 C4.5625,-3.28646 4.5625,-3.15625 4.5625,-3.03125 C4.5625,-1.40625 4.15104,-0.385417 3.32813,0.03125 C3.06771,0.145833 2.78125,0.203125 2.46875,0.203125 C1.41667,0.203125 0.760417,-0.442708 0.5,-1.73438 C0.427083,-2.14063 0.390625,-2.59375 0.390625,-3.09375 M2.46875,-5.64063 C1.625,-5.63021 1.20313,-4.77083 1.20313,-3.0625 C1.20313,-1.32292 1.61979,-0.453125 2.45313,-0.453125 C3.16146,-0.453125 3.57813,-1.02604 3.70313,-2.17188 C3.73438,-2.44271 3.75,-2.75 3.75,-3.09375 C3.75,-4.79167 3.32292,-5.64063 2.46875,-5.64063"/>
<path class="Note" fill="#78c7c7" transform="matrix(0.9936,0,0,0.9936,510.519,85.212)" d="M6.3125,-1.3125 C6.3125,-1.53125 6.22917,-1.71875 6.0625,-1.875 C5.88542,-2.04167 5.6875,-2.125 5.46875,-2.125 C5.08333,-2.125 4.29688,-1.73438 3.10938,-0.953125 C1.88021,-0.161458 1.13021,0.40625 0.859375,0.75 C0.713542,0.927083 0.640625,1.11458 0.640625,1.3125 C0.640625,1.53125 0.729167,1.71875 0.90625,1.875 C1.0625,2.04167 1.25521,2.125 1.48438,2.125 C1.85938,2.125 2.65625,1.73438 3.875,0.953125 C5.07292,0.171875 5.8125,-0.395833 6.09375,-0.75 C6.23958,-0.916667 6.3125,-1.10417 6.3125,-1.3125 M5.28125,-2.75 C6.39583,-2.75 6.95313,-2.27083 6.95313,-1.3125 C6.95313,-0.84375 6.81771,-0.296875 6.54688,0.328125 C6.27604,0.942708 5.91146,1.41146 5.45313,1.73438 C4.45313,2.41146 3.19792,2.75 1.6875,2.75 C0.5625,2.75 0,2.27083 0,1.3125 C0,0.885417 0.135417,0.34375 0.40625,-0.3125 C0.666667,-0.9375 1.03125,-1.41146 1.5,-1.73438 C2.51042,-2.41146 3.77083,-2.75 5.28125,-2.75"/>
<path class="Note" fill="#ffffff" fill-rule="evenodd" d="M479.321,133.65 L485.282,133.65 L485.282,141.102 L479.321,141.102 L479.321,133.65 "/>
<path class="Note" transform="matrix(0.9936,0,0,0.9936,479.817,140.854)" d="M0.453125,-4.17188 C0.494792,-5.64063 1.19792,-6.38021 2.5625,-6.39063 C3.28125,-6.39063 3.83333,-6.14583 4.21875,-5.65625 C4.46875,-5.32292 4.59375,-4.93229 4.59375,-4.48438 C4.59375,-3.68229 4.14583,-3.03125 3.25,-2.53125 L2.34375,-2.04688 C1.79167,-1.75521 1.44271,-1.4375 1.29688,-1.09375 C1.24479,-0.989583 1.21354,-0.869792 1.20313,-0.734375 L4.5625,-0.734375 L4.5625,0 L0.3125,0 C0.354167,-0.760417 0.520833,-1.33854 0.8125,-1.73438 C1.07292,-2.05729 1.5,-2.38542 2.09375,-2.71875 L2.92188,-3.1875 C3.49479,-3.52083 3.78646,-3.94271 3.79688,-4.45313 C3.79688,-4.88021 3.61458,-5.21354 3.25,-5.45313 C3.04167,-5.57813 2.80208,-5.64063 2.53125,-5.64063 C1.73958,-5.64063 1.3125,-5.16667 1.25,-4.21875 C1.25,-4.19792 1.25,-4.18229 1.25,-4.17188 L0.453125,-4.17188 "/>
<path class="Note" fill="#ff9933" transform="matrix(0.9936,0,0,0.9936,478.575,82.728)" d="M4.39063,-2.75 C5.01563,-2.75 5.54688,-2.58854 5.98438,-2.26563 C6.38021,-1.91146 6.57813,-1.46875 6.57813,-0.9375 C6.57813,-0.0416667 6.11979,0.796875 5.20313,1.57813 C4.26563,2.35938 3.26042,2.75 2.1875,2.75 C1.5625,2.75 1.03646,2.58854 0.609375,2.26563 C0.203125,1.91146 0,1.46875 0,0.9375 C0,0.0416667 0.46875,-0.796875 1.40625,-1.57813 C2.32292,-2.35938 3.31771,-2.75 4.39063,-2.75"/>
<path class="Note" fill="#ffffff" fill-rule="evenodd" d="M447.198,133.65 L453.16,133.65 L453.16,141.102 L447.198,141.102 L447.198,133.65 "/>
<path class="Note" transform="matrix(0.9936,0,0,0.9936,447.695,140.854)" d="M2.4375,-5.64063 C1.75,-5.64063 1.35417,-5.32813 1.25,-4.70313 C1.22917,-4.59896 1.21875,-4.47917 1.21875,-4.34375 L0.421875,-4.34375 C0.442708,-5.59375 1.01563,-6.27083 2.14063,-6.375 C2.23438,-6.38542 2.32813,-6.39063 2.42188,-6.39063 C3.26563,-6.39063 3.84375,-6.10938 4.15625,-5.54688 C4.29167,-5.28646 4.35938,-4.98438 4.35938,-4.64063 C4.35938,-4.00521 4.0625,-3.57292 3.46875,-3.34375 C4.03125,-3.14583 4.375,-2.81771 4.5,-2.35938 C4.54167,-2.19271 4.5625,-2.00521 4.5625,-1.79688 C4.5625,-1.05729 4.27604,-0.505208 3.70313,-0.140625 C3.33854,0.0885417 2.90104,0.203125 2.39063,0.203125 C1.21354,0.203125 0.526042,-0.348958 0.328125,-1.45313 C0.317708,-1.57813 0.302083,-1.71354 0.28125,-1.85938 L1.07813,-1.85938 C1.13021,-1.08854 1.46875,-0.65625 2.09375,-0.5625 C2.19792,-0.541667 2.30729,-0.53125 2.42188,-0.53125 C3.04688,-0.53125 3.45313,-0.765625 3.64063,-1.23438 C3.71354,-1.40104 3.75,-1.58854 3.75,-1.79688 C3.73958,-2.54688 3.29688,-2.92708 2.42188,-2.9375 L2.09375,-2.92188 L1.98438,-2.92188 L1.98438,-3.67188 C2.66146,-3.68229 3.10417,-3.77604 3.3125,-3.95313 C3.47917,-4.09896 3.5625,-4.31771 3.5625,-4.60938 C3.5625,-5.09896 3.34896,-5.41667 2.92188,-5.5625 C2.77604,-5.61458 2.61458,-5.64063 2.4375,-5.64063"/>
<path class="Note" fill="#ebeb19" transform="matrix(0.9936,0,0,0.9936,446.453,80.244)" d="M4.39063,-2.75 C5.01563,-2.75 5.54688,-2.58854 5.98438,-2.26563 C6.38021,-1.91146 6.57813,-1.46875 6.57813,-0.9375 C6.57813,-0.0416667 6.11979,0.796875 5.20313,1.57813 C4.26563,2.35938 3.26042,2.75 2.1875,2.75 C1.5625,2.75 1.03646,2.58854 0.609375,2.26563 C0.203125,1.91146 0,1.46875 0,0.9375 C0,0.0416667 0.46875,-0.796875 1.40625,-1.57813 C2.32292,-2.35938 3.31771,-2.75 4.39063,-2.75"/>
<path class="Note" fill="#ffffff" fill-rule="evenodd" d="M415.076,126.198 L421.037,126.198 L421.037,133.65 L415.076,133.65 L415.076,126.198 "/>
<path class="Note" transform="matrix(0.9936,0,0,0.9936,415.572,133.402)" d="M0.390625,-3.09375 C0.390625,-5 0.927083,-6.07813 2,-6.32813 C2.14583,-6.36979 2.30208,-6.39063 2.46875,-6.39063 C3.78125,-6.39063 4.47917,-5.40104 4.5625,-3.42188 C4.5625,-3.28646 4.5625,-3.15625 4.5625,-3.03125 C4.5625,-1.40625 4.15104,-0.385417 3.32813,0.03125 C3.06771,0.145833 2.78125,0.203125 2.46875,0.203125 C1.41667,0.203125 0.760417,-0.442708 0.5,-1.73438 C0.427083,-2.14063 0.390625,-2.59375 0.390625,-3.09375 M2.46875,-5.64063 C1.625,-5.63021 1.20313,-4.77083 1.20313,-3.0625 C1.20313,-1.32292 1.61979,-0.453125 2.45313,-0.453125 C3.16146,-0.453125 3.57813,-1.02604 3.70313,-2.17188 C3.73438,-2.44271 3.75,-2.75 3.75,-3.09375 C3.75,-4.79167 3.32292,-5.64063 2.46875,-5.64063"/>
<path class="Note" fill="#99cc33" transform="matrix(0.9936,0,0,0.9936,414.33,77.76)" d="M4.39063,-2.75 C5.01563,-2.75 5.54688,-2.58854 5.98438,-2.26563 C6.38021,-1.91146 6.57813,-1.46875 6.57813,-0.9375 C6.57813,-0.0416667 6.11979,0.796875 5.20313,1.57813 C4.26563,2.35938 3.26042,2.75 2.1875,2.75 C1.5625,2.75 1.03646,2.58854 0.609375,2.26563 C0.203125,1.91146 0,1.46875 0,0.9375 C0,0.0416667 0.46875,-0.796875 1.40625,-1.57813 C2.32292,-2.35938 3.31771,-2.75 4.39063,-2.75"/>
<path class="Note" fill="#ffffff" fill-rule="evenodd" d="M382.953,126.198 L388.915,126.198 L388.915,133.65 L382.953,133.65 L382.953,126.198 "/>
<path class="Note" transform="matrix(0.9936,0,0,0.9936,383.45,133.402)" d="M0.453125,-4.17188 C0.494792,-5.64063 1.19792,-6.38021 2.5625,-6.39063 C3.28125,-6.39063 3.83333,-6.14583 4.21875,-5.65625 C4.46875,-5.32292 4.59375,-4.93229 4.59375,-4.48438 C4.59375,-3.68229 4.14583,-3.03125 3.25,-2.53125 L2.34375,-2.04688 C1.79167,-1.75521 1.44271,-1.4375 1.29688,-1.09375 C1.24479,-0.989583 1.21354,-0.869792 1.20313,-0.734375 L4.5625,-0.734375 L4.5625,0 L0.3125,0 C0.354167,-0.760417 0.520833,-1.33854 0.8125,-1.73438 C1.07292,-2.05729 1.5,-2.38542 2.09375,-2.71875 L2.92188,-3.1875 C3.49479,-3.52083 3.78646,-3.94271 3.79688,-4.45313 C3.79688,-4.88021 3.61458,-5.21354 3.25,-5.45313 C3.04167,-5.57813 2.80208,-5.64063 2.53125,-5.64063 C1.73958,-5.64063 1.3125,-5.16667 1.25,-4.21875 C1.25,-4.19792 1.25,-4.18229 1.25,-4.17188 L0.453125,-4.17188 "/>
<path class="Note" fill="#cc00ff" transform="matrix(0.9936,0,0,0.9936,382.208,75.276)" d="M4.39063,-2.75 C5.01563,-2.75 5.54688,-2.58854 5.98438,-2.26563 C6.38021,-1.91146 6.57813,-1.46875 6.57813,-0.9375 C6.57813,-0.0416667 6.11979,0.796875 5.20313,1.57813 C4.26563,2.35938 3.26042,2.75 2.1875,2.75 C1.5625,2.75 1.03646,2.58854 0.609375,2.26563 C0.203125,1.91146 0,1.46875 0,0.9375 C0,0.0416667 0.46875,-0.796875 1.40625,-1.57813 C2.32292,-2.35938 3.31771,-2.75 4.39063,-2.75"/>
<path class="Note" fill="#ffffff" fill-rule="evenodd" d="M350.831,118.746 L356.792,118.746 L356.792,126.198 L350.831,126.198 L350.831,118.746 "/>
<path class="Note" transform="matrix(0.9936,0,0,0.9936,351.327,125.95)" d="M0.390625,-3.09375 C0.390625,-5 0.927083,-6.07813 2,-6.32813 C2.14583,-6.36979 2.30208,-6.39063 2.46875,-6.39063 C3.78125,-6.39063 4.47917,-5.40104 4.5625,-3.42188 C4.5625,-3.28646 4.5625,-3.15625 4.5625,-3.03125 C4.5625,-1.40625 4.15104,-0.385417 3.32813,0.03125 C3.06771,0.145833 2.78125,0.203125 2.46875,0.203125 C1.41667,0.203125 0.760417,-0.442708 0.5,-1.73438 C0.427083,-2.14063 0.390625,-2.59375 0.390625,-3.09375 M2.46875,-5.64063 C1.625,-5.63021 1.20313,-4.77083 1.20313,-3.0625 C1.20313,-1.32292 1.61979,-0.453125 2.45313,-0.453125 C3.16146,-0.453125 3.57813,-1.02604 3.70313,-2.17188 C3.73438,-2.44271 3.75,-2.75 3.75,-3.09375 C3.75,-4.79167 3.32292,-5.64063 2.46875,-5.64063"/>
<path class="Note" fill="#ff9ee6" transform="matrix(0.9936,0,0,0.9936,350.085,72.792)" d="M4.39063,-2.75 C5.01563,-2.75 5.54688,-2.58854 5.98438,-2.26563 C6.38021,-1.91146 6.57813,-1.46875 6.57813,-0.9375 C6.57813,-0.0416667 6.11979,0.796875 5.20313,1.57813 C4.26563,2.35938 3.26042,2.75 2.1875,2.75 C1.5625,2.75 1.03646,2.58854 0.609375,2.26563 C0.203125,1.91146 0,1.46875 0,0.9375 C0,0.0416667 0.46875,-0.796875 1.40625,-1.57813 C2.32292,-2.35938 3.31771,-2.75 4.39063,-2.75"/>
<path class="Note" fill="#ffffff" fill-rule="evenodd" d="M318.708,118.746 L324.67,118.746 L324.67,126.198 L318.708,126.198 L318.708,118.746 "/>
<path class="Note" transform="matrix(0.9936,0,0,0.9936,319.205,125.95)" d="M2.32813,-4.54688 L0.921875,-4.54688 L0.921875,-5.10938 C1.53646,-5.19271 1.93229,-5.30208 2.10938,-5.4375 C2.28646,-5.57292 2.4375,-5.85417 2.5625,-6.28125 C2.57292,-6.3125 2.58854,-6.34896 2.60938,-6.39063 L3.125,-6.39063 L3.125,0 L2.32813,0 L2.32813,-4.54688 "/>
<path class="Note" fill="#ed2929" transform="matrix(0.9936,0,0,0.9936,317.963,70.308)" d="M4.39063,-2.75 C5.01563,-2.75 5.54688,-2.58854 5.98438,-2.26563 C6.38021,-1.91146 6.57813,-1.46875 6.57813,-0.9375 C6.57813,-0.0416667 6.11979,0.796875 5.20313,1.57813 C4.26563,2.35938 3.26042,2.75 2.1875,2.75 C1.5625,2.75 1.03646,2.58854 0.609375,2.26563 C0.203125,1.91146 0,1.46875 0,0.9375 C0,0.0416667 0.46875,-0.796875 1.40625,-1.57813 C2.32292,-2.35938 3.31771,-2.75 4.39063,-2.75"/>
<path class="Note" fill="#ffffff" fill-rule="evenodd" d="M286.586,118.746 L292.547,118.746 L292.547,126.198 L286.586,126.198 L286.586,118.746 "/>
<path class="Note" transform="matrix(0.9936,0,0,0.9936,287.082,125.95)" d="M2.4375,-5.64063 C1.75,-5.64063 1.35417,-5.32813 1.25,-4.70313 C1.22917,-4.59896 1.21875,-4.47917 1.21875,-4.34375 L0.421875,-4.34375 C0.442708,-5.59375 1.01563,-6.27083 2.14063,-6.375 C2.23438,-6.38542 2.32813,-6.39063 2.42188,-6.39063 C3.26563,-6.39063 3.84375,-6.10938 4.15625,-5.54688 C4.29167,-5.28646 4.35938,-4.98438 4.35938,-4.64063 C4.35938,-4.00521 4.0625,-3.57292 3.46875,-3.34375 C4.03125,-3.14583 4.375,-2.81771 4.5,-2.35938 C4.54167,-2.19271 4.5625,-2.00521 4.5625,-1.79688 C4.5625,-1.05729 4.27604,-0.505208 3.70313,-0.140625 C3.33854,0.0885417 2.90104,0.203125 2.39063,0.203125 C1.21354,0.203125 0.526042,-0.348958 0.328125,-1.45313 C0.317708,-1.57813 0.302083,-1.71354 0.28125,-1.85938 L1.07813,-1.85938 C1.13021,-1.08854 1.46875,-0.65625 2.09375,-0.5625 C2.19792,-0.541667 2.30729,-0.53125 2.42188,-0.53125 C3.04688,-0.53125 3.45313,-0.765625 3.64063,-1.23438 C3.71354,-1.40104 3.75,-1.58854 3.75,-1.79688 C3.73958,-2.54688 3.29688,-2.92708 2.42188,-2.9375 L2.09375,-2.92188 L1.98438,-2.92188 L1.98438,-3.67188 C2.66146,-3.68229 3.10417,-3.77604 3.3125,-3.95313 C3.47917,-4.09896 3.5625,-4.31771 3.5625,-4.60938 C3.5625,-5.09896 3.34896,-5.41667 2.92188,-5.5625 C2.77604,-5.61458 2.61458,-5.64063 2.4375,-5.64063"/>
<path class="Note" fill="#78c7c7" transform="matrix(0.9936,0,0,0.9936,285.84,67.824)" d="M4.39063,-2.75 C5.01563,-2.75 5.54688,-2.58854 5.98438,-2.26563 C6.38021,-1.91146 6.57813,-1.46875 6.57813,-0.9375 C6.57813,-0.0416667 6.11979,0.796875 5.20313,1.57813 C4.26563,2.35938 3.26042,2.75 2.1875,2.75 C1.5625,2.75 1.03646,2.58854 0.609375,2.26563 C0.203125,1.91146 0,1.46875 0,0.9375 C0,0.0416667 0.46875,-0.796875 1.40625,-1.57813 C2.32292,-2.35938 3.31771,-2.75 4.39063,-2.75"/>
<path class="Note" fill="#ffffff" fill-rule="evenodd" d="M254.463,118.746 L260.425,118.746 L260.425,126.198 L254.463,126.198 L254.463,118.746 "/>
<path class="Note" transform="matrix(0.9936,0,0,0.9936,254.96,125.95)" d="M2.32813,-4.54688 L0.921875,-4.54688 L0.921875,-5.10938 C1.53646,-5.19271 1.93229,-5.30208 2.10938,-5.4375 C2.28646,-5.57292 2.4375,-5.85417 2.5625,-6.28125 C2.57292,-6.3125 2.58854,-6.34896 2.60938,-6.39063 L3.125,-6.39063 L3.125,0 L2.32813,0 L2.32813,-4.54688 "/>
<path class="Note" fill="#ed2929" transform="matrix(0.9936,0,0,0.9936,253.718,70.308)" d="M4.39063,-2.75 C5.01563,-2.75 5.54688,-2.58854 5.98438,-2.26563 C6.38021,-1.91146 6.57813,-1.46875 6.57813,-0.9375 C6.57813,-0.0416667 6.11979,0.796875 5.20313,1.57813 C4.26563,2.35938 3.26042,2.75 2.1875,2.75 C1.5625,2.75 1.03646,2.58854 0.609375,2.26563 C0.203125,1.91146 0,1.46875 0,0.9375 C0,0.0416667 0.46875,-0.796875 1.40625,-1.57813 C2.32292,-2.35938 3.31771,-2.75 4.39063,-2.75"/>
<path class="Note" fill="#ffffff" fill-rule="evenodd" d="M222.341,118.746 L228.302,118.746 L228.302,126.198 L222.341,126.198 L222.341,118.746 "/>
<path class="Note" transform="matrix(0.9936,0,0,0.9936,222.837,125.95)" d="M0.390625,-3.09375 C0.390625,-5 0.927083,-6.07813 2,-6.32813 C2.14583,-6.36979 2.30208,-6.39063 2.46875,-6.39063 C3.78125,-6.39063 4.47917,-5.40104 4.5625,-3.42188 C4.5625,-3.28646 4.5625,-3.15625 4.5625,-3.03125 C4.5625,-1.40625 4.15104,-0.385417 3.32813,0.03125 C3.06771,0.145833 2.78125,0.203125 2.46875,0.203125 C1.41667,0.203125 0.760417,-0.442708 0.5,-1.73438 C0.427083,-2.14063 0.390625,-2.59375 0.390625,-3.09375 M2.46875,-5.64063 C1.625,-5.63021 1.20313,-4.77083 1.20313,-3.0625 C1.20313,-1.32292 1.61979,-0.453125 2.45313,-0.453125 C3.16146,-0.453125 3.57813,-1.02604 3.70313,-2.17188 C3.73438,-2.44271 3.75,-2.75 3.75,-3.09375 C3.75,-4.79167 3.32292,-5.64063 2.46875,-5.64063"/>
<path class="Note" fill="#ff9ee6" transform="matrix(0.9936,0,0,0.9936,221.595,72.792)" d="M4.39063,-2.75 C5.01563,-2.75 5.54688,-2.58854 5.98438,-2.26563 C6.38021,-1.91146 6.57813,-1.46875 6.57813,-0.9375 C6.57813,-0.0416667 6.11979,0.796875 5.20313,1.57813 C4.26563,2.35938 3.26042,2.75 2.1875,2.75 C1.5625,2.75 1.03646,2.58854 0.609375,2.26563 C0.203125,1.91146 0,1.46875 0,0.9375 C0,0.0416667 0.46875,-0.796875 1.40625,-1.57813 C2.32292,-2.35938 3.31771,-2.75 4.39063,-2.75"/>
<path class="Note" fill="#ffffff" fill-rule="evenodd" d="M190.218,126.198 L196.18,126.198 L196.18,133.65 L190.218,133.65 L190.218,126.198 "/>
<path class="Note" transform="matrix(0.9936,0,0,0.9936,190.715,133.402)" d="M0.453125,-4.17188 C0.494792,-5.64063 1.19792,-6.38021 2.5625,-6.39063 C3.28125,-6.39063 3.83333,-6.14583 4.21875,-5.65625 C4.46875,-5.32292 4.59375,-4.93229 4.59375,-4.48438 C4.59375,-3.68229 4.14583,-3.03125 3.25,-2.53125 L2.34375,-2.04688 C1.79167,-1.75521 1.44271,-1.4375 1.29688,-1.09375 C1.24479,-0.989583 1.21354,-0.869792 1.20313,-0.734375 L4.5625,-0.734375 L4.5625,0 L0.3125,0 C0.354167,-0.760417 0.520833,-1.33854 0.8125,-1.73438 C1.07292,-2.05729 1.5,-2.38542 2.09375,-2.71875 L2.92188,-3.1875 C3.49479,-3.52083 3.78646,-3.94271 3.79688,-4.45313 C3.79688,-4.88021 3.61458,-5.21354 3.25,-5.45313 C3.04167,-5.57813 2.80208,-5.64063 2.53125,-5.64063 C1.73958,-5.64063 1.3125,-5.16667 1.25,-4.21875 C1.25,-4.19792 1.25,-4.18229 1.25,-4.17188 L0.453125,-4.17188 "/>
<path class="Note" fill="#cc00ff" transform="matrix(0.9936,0,0,0.9936,189.473,75.276)" d="M4.39063,-2.75 C5.01563,-2.75 5.54688,-2.58854 5.98438,-2.26563 C6.38021,-1.91146 6.57813,-1.46875 6.57813,-0.9375 C6.57813,-0.0416667 6.11979,0.796875 5.20313,1.57813 C4.26563,2.35938 3.26042,2.75 2.1875,2.75 C1.5625,2.75 1.03646,2.58854 0.609375,2.26563 C0.203125,1.91146 0,1.46875 0,0.9375 C0,0.0416667 0.46875,-0.796875 1.40625,-1.57813 C2.32292,-2.35938 3.31771,-2.75 4.39063,-2.75"/>
<path class="Note" fill="#ffffff" fill-rule="evenodd" d="M158.096,126.198 L164.057,126.198 L164.057,133.65 L158.096,133.65 L158.096,126.198 "/>
<path class="Note" transform="matrix(0.9936,0,0,0.9936,158.592,133.402)" d="M0.390625,-3.09375 C0.390625,-5 0.927083,-6.07813 2,-6.32813 C2.14583,-6.36979 2.30208,-6.39063 2.46875,-6.39063 C3.78125,-6.39063 4.47917,-5.40104 4.5625,-3.42188 C4.5625,-3.28646 4.5625,-3.15625 4.5625,-3.03125 C4.5625,-1.40625 4.15104,-0.385417 3.32813,0.03125 C3.06771,0.145833 2.78125,0.203125 2.46875,0.203125 C1.41667,0.203125 0.760417,-0.442708 0.5,-1.73438 C0.427083,-2.14063 0.390625,-2.59375 0.390625,-3.09375 M2.46875,-5.64063 C1.625,-5.63021 1.20313,-4.77083 1.20313,-3.0625 C1.20313,-1.32292 1.61979,-0.453125 2.45313,-0.453125 C3.16146,-0.453125 3.57813,-1.02604 3.70313,-2.17188 C3.73438,-2.44271 3.75,-2.75 3.75,-3.09375 C3.75,-4.79167 3.32292,-5.64063 2.46875,-5.64063"/>
<path class="Note" fill="#99cc33" transform="matrix(0.9936,0,0,0.9936,157.35,77.76)" d="M4.39063,-2.75 C5.01563,-2.75 5.54688,-2.58854 5.98438,-2.26563 C6.38021,-1.91146 6.57813,-1.46875 6.57813,-0.9375 C6.57813,-0.0416667 6.11979,0.796875 5.20313,1.57813 C4.26563,2.35938 3.26042,2.75 2.1875,2.75 C1.5625,2.75 1.03646,2.58854 0.609375,2.26563 C0.203125,1.91146 0,1.46875 0,0.9375 C0,0.0416667 0.46875,-0.796875 1.40625,-1.57813 C2.32292,-2.35938 3.31771,-2.75 4.39063,-2.75"/>
<path class="Note" fill="#ffffff" fill-rule="evenodd" d="M125.973,133.65 L131.935,133.65 L131.935,141.102 L125.973,141.102 L125.973,133.65 "/>
<path class="Note" transform="matrix(0.9936,0,0,0.9936,126.47,140.854)" d="M2.4375,-5.64063 C1.75,-5.64063 1.35417,-5.32813 1.25,-4.70313 C1.22917,-4.59896 1.21875,-4.47917 1.21875,-4.34375 L0.421875,-4.34375 C0.442708,-5.59375 1.01563,-6.27083 2.14063,-6.375 C2.23438,-6.38542 2.32813,-6.39063 2.42188,-6.39063 C3.26563,-6.39063 3.84375,-6.10938 4.15625,-5.54688 C4.29167,-5.28646 4.35938,-4.98438 4.35938,-4.64063 C4.35938,-4.00521 4.0625,-3.57292 3.46875,-3.34375 C4.03125,-3.14583 4.375,-2.81771 4.5,-2.35938 C4.54167,-2.19271 4.5625,-2.00521 4.5625,-1.79688 C4.5625,-1.05729 4.27604,-0.505208 3.70313,-0.140625 C3.33854,0.0885417 2.90104,0.203125 2.39063,0.203125 C1.21354,0.203125 0.526042,-0.348958 0.328125,-1.45313 C0.317708,-1.57813 0.302083,-1.71354 0.28125,-1.85938 L1.07813,-1.85938 C1.13021,-1.08854 1.46875,-0.65625 2.09375,-0.5625 C2.19792,-0.541667 2.30729,-0.53125 2.42188,-0.53125 C3.04688,-0.53125 3.45313,-0.765625 3.64063,-1.23438 C3.71354,-1.40104 3.75,-1.58854 3.75,-1.79688 C3.73958,-2.54688 3.29688,-2.92708 2.42188,-2.9375 L2.09375,-2.92188 L1.98438,-2.92188 L1.98438,-3.67188 C2.66146,-3.68229 3.10417,-3.77604 3.3125,-3.95313 C3.47917,-4.09896 3.5625,-4.31771 3.5625,-4.60938 C3.5625,-5.09896 3.34896,-5.41667 2.92188,-5.5625 C2.77604,-5.61458 2.61458,-5.64063 2.4375,-5.64063"/>
<path class="Note" fill="#ebeb19" transform="matrix(0.9936,0,0,0.9936,125.228,80.244)" d="M4.39063,-2.75 C5.01563,-2.75 5.54688,-2.58854 5.98438,-2.26563 C6.38021,-1.91146 6.57813,-1.46875 6.57813,-0.9375 C6.57813,-0.0416667 6.11979,0.796875 5.20313,1.57813 C4.26563,2.35938 3.26042,2.75 2.1875,2.75 C1.5625,2.75 1.03646,2.58854 0.609375,2.26563 C0.203125,1.91146 0,1.46875 0,0.9375 C0,0.0416667 0.46875,-0.796875 1.40625,-1.57813 C2.32292,-2.35938 3.31771,-2.75 4.39063,-2.75"/>
<path class="Note" fill="#ffffff" fill-rule="evenodd" d="M93.8506,133.65 L99.8122,133.65 L99.8122,141.102 L93.8506,141.102 L93.8506,133.65 "/>
<path class="Note" transform="matrix(0.9936,0,0,0.9936,94.3474,140.854)" d="M0.453125,-4.17188 C0.494792,-5.64063 1.19792,-6.38021 2.5625,-6.39063 C3.28125,-6.39063 3.83333,-6.14583 4.21875,-5.65625 C4.46875,-5.32292 4.59375,-4.93229 4.59375,-4.48438 C4.59375,-3.68229 4.14583,-3.03125 3.25,-2.53125 L2.34375,-2.04688 C1.79167,-1.75521 1.44271,-1.4375 1.29688,-1.09375 C1.24479,-0.989583 1.21354,-0.869792 1.20313,-0.734375 L4.5625,-0.734375 L4.5625,0 L0.3125,0 C0.354167,-0.760417 0.520833,-1.33854 0.8125,-1.73438 C1.07292,-2.05729 1.5,-2.38542 2.09375,-2.71875 L2.92188,-3.1875 C3.49479,-3.52083 3.78646,-3.94271 3.79688,-4.45313 C3.79688,-4.88021 3.61458,-5.21354 3.25,-5.45313 C3.04167,-5.57813 2.80208,-5.64063 2.53125,-5.64063 C1.73958,-5.64063 1.3125,-5.16667 1.25,-4.21875 C1.25,-4.19792 1.25,-4.18229 1.25,-4.17188 L0.453125,-4.17188 "/>
<path class="Note" fill="#ff9933" transform="matrix(0.9936,0,0,0.9936,93.1054,82.728)" d="M4.39063,-2.75 C5.01563,-2.75 5.54688,-2.58854 5.98438,-2.26563 C6.38021,-1.91146 6.57813,-1.46875 6.57813,-0.9375 C6.57813,-0.0416667 6.11979,0.796875 5.20313,1.57813 C4.26563,2.35938 3.26042,2.75 2.1875,2.75 C1.5625,2.75 1.03646,2.58854 0.609375,2.26563 C0.203125,1.91146 0,1.46875 0,0.9375 C0,0.0416667 0.46875,-0.796875 1.40625,-1.57813 C2.32292,-2.35938 3.31771,-2.75 4.39063,-2.75"/>
<path class="Note" fill="#ffffff" fill-rule="evenodd" d="M61.7281,133.65 L67.6897,133.65 L67.6897,141.102 L61.7281,141.102 L61.7281,133.65 "/>
<path class="Note" transform="matrix(0.9936,0,0,0.9936,62.2249,140.854)" d="M0.390625,-3.09375 C0.390625,-5 0.927083,-6.07813 2,-6.32813 C2.14583,-6.36979 2.30208,-6.39063 2.46875,-6.39063 C3.78125,-6.39063 4.47917,-5.40104 4.5625,-3.42188 C4.5625,-3.28646 4.5625,-3.15625 4.5625,-3.03125 C4.5625,-1.40625 4.15104,-0.385417 3.32813,0.03125 C3.06771,0.145833 2.78125,0.203125 2.46875,0.203125 C1.41667,0.203125 0.760417,-0.442708 0.5,-1.73438 C0.427083,-2.14063 0.390625,-2.59375 0.390625,-3.09375 M2.46875,-5.64063 C1.625,-5.63021 1.20313,-4.77083 1.20313,-3.0625 C1.20313,-1.32292 1.61979,-0.453125 2.45313,-0.453125 C3.16146,-0.453125 3.57813,-1.02604 3.70313,-2.17188 C3.73438,-2.44271 3.75,-2.75 3.75,-3.09375 C3.75,-4.79167 3.32292,-5.64063 2.46875,-5.64063"/>
<path class="Note" fill="#78c7c7" transform="matrix(0.9936,0,0,0.9936,60.9829,85.212)" d="M4.39063,-2.75 C5.01563,-2.75 5.54688,-2.58854 5.98438,-2.26563 C6.38021,-1.91146 6.57813,-1.46875 6.57813,-0.9375 C6.57813,-0.0416667 6.11979,0.796875 5.20313,1.57813 C4.26563,2.35938 3.26042,2.75 2.1875,2.75 C1.5625,2.75 1.03646,2.58854 0.609375,2.26563 C0.203125,1.91146 0,1.46875 0,0.9375 C0,0.0416667 0.46875,-0.796875 1.40625,-1.57813 C2.32292,-2.35938 3.31771,-2.75 4.39063,-2.75"/>
<path class="Clef" transform="matrix(0.9936,0,0,0.9936,32.0544,133.65)" d="M5.32813,8.5 C5.32813,8.86458 5.04167,9.04688 4.46875,9.04688 C4.02083,9.04688 3.625,8.91146 3.28125,8.64063 C2.95833,8.34896 2.79688,7.98438 2.79688,7.54688 C2.79688,6.76563 3.27083,6.14063 4.21875,5.67188 C5.14583,5.18229 6.23438,4.9375 7.48438,4.9375 C7.96354,4.9375 8.47917,4.97396 9.03125,5.04688 C9.42708,5.09896 9.875,5.20313 10.375,5.35938 C10.8125,5.49479 11.1563,5.70573 11.4063,5.99219 C11.6563,6.27865 11.7813,6.61458 11.7813,7 C11.7813,7.89583 11.3177,8.63021 10.3906,9.20313 C11.7448,9.45313 12.4271,10.0573 12.4375,11.0156 C12.4375,11.8281 12.0729,12.5599 11.3438,13.2109 C10.6146,13.862 9.79167,14.1875 8.875,14.1875 C8.47917,14.1875 8.07813,14.0938 7.67188,13.9063 C7.29688,13.7292 7.03125,13.5625 6.875,13.4063 C6.71875,13.2188 6.64063,13.0781 6.64063,12.9844 C6.64063,12.8594 6.70833,12.75 6.84375,12.6563 C6.95833,12.5417 7.07813,12.4844 7.20313,12.4844 C7.25521,12.4844 7.36719,12.5677 7.53906,12.7344 C7.71094,12.901 7.95833,12.9844 8.28125,12.9844 C8.72917,12.9844 9.16146,12.7969 9.57813,12.4219 C9.97396,12.0573 10.1719,11.6198 10.1719,11.1094 C10.1719,10.6719 9.98438,10.3542 9.60938,10.1563 C9.24479,9.95833 8.76563,9.85938 8.17188,9.85938 C8.06771,9.85938 8.01563,9.75 8.01563,9.53125 C8.01563,9.21875 8.13021,9.0625 8.35938,9.0625 C8.72396,9.0625 9.05208,8.90625 9.34375,8.59375 C9.61458,8.26042 9.75,7.90104 9.75,7.51563 C9.75,7.40104 9.71875,7.22917 9.65625,7 C9.60417,6.84375 9.44792,6.65104 9.1875,6.42188 C8.9375,6.21354 8.58854,6.07292 8.14063,6 C8.02604,6.63542 7.88021,7.44792 7.70313,8.4375 C7.52604,9.42708 7.40625,10.0781 7.34375,10.3906 C7.125,11.5156 6.72396,12.4583 6.14063,13.2188 C5.52604,14.0313 4.86458,14.4375 4.15625,14.4375 C3.9375,14.4375 3.71354,14.3854 3.48438,14.2813 C3.29688,14.1979 3.0625,14.0365 2.78125,13.7969 C2.52083,13.5885 2.34375,13.4479 2.25,13.375 C2.19792,13.3438 2.17188,13.2865 2.17188,13.2031 C2.17188,13.0781 2.21875,12.9635 2.3125,12.8594 C2.41667,12.7344 2.52604,12.6719 2.64063,12.6719 C2.71354,12.6719 2.89323,12.7969 3.17969,13.0469 C3.46615,13.2969 3.76563,13.4219 4.07813,13.4219 C4.68229,13.4219 5.13542,13.0365 5.4375,12.2656 C5.71875,11.526 5.85938,10.6094 5.85938,9.51563 L5.85938,9.35938 C5.85938,8.63021 5.97917,7.54167 6.21875,6.09375 C5.80208,6.22917 5.46875,6.42708 5.21875,6.6875 C4.95833,6.94792 4.82813,7.21875 4.82813,7.5 C4.82813,7.71875 4.91146,7.90625 5.07813,8.0625 C5.24479,8.21875 5.32813,8.36458 5.32813,8.5 M1.40625,2.39063 C1.46875,2.39063 1.625,2.45313 1.875,2.57813 C2.13542,2.71354 2.35938,2.78125 2.54688,2.78125 C3.03646,2.78125 3.64063,2.42188 4.35938,1.70313 C6.43229,-0.411458 7.85938,-2.65104 8.64063,-5.01563 C8.79688,-5.51563 9.17708,-5.76563 9.78125,-5.76563 C10.0938,-5.76563 10.3646,-5.69792 10.5938,-5.5625 C10.8125,-5.42708 10.9219,-5.28646 10.9219,-5.14063 L10.5625,2.17188 C10.5625,2.55729 10.7031,2.75 10.9844,2.75 C11.1198,2.75 11.3281,2.6875 11.6094,2.5625 C11.8698,2.42708 12.026,2.35938 12.0781,2.35938 C12.1823,2.35938 12.2448,2.47396 12.2656,2.70313 C12.2656,2.91146 12.1823,3.04167 12.0156,3.09375 C11.8802,3.125 11.6198,3.24479 11.2344,3.45313 C10.8281,3.66146 10.5104,3.76563 10.2813,3.76563 C9.78125,3.76563 9.42708,3.375 9.21875,2.59375 C8.89583,1.375 8.6875,0.104167 8.59375,-1.21875 C8.07292,-0.552083 7.49479,0.119792 6.85938,0.796875 C7.08854,1.24479 7.51563,1.46875 8.14063,1.46875 C8.23438,1.46875 8.30729,1.46354 8.35938,1.45313 L8.375,1.45313 C8.47917,1.45313 8.53125,1.54688 8.53125,1.73438 C8.53125,1.98438 8.44792,2.13542 8.28125,2.1875 C8.01042,2.28125 7.72396,2.32813 7.42188,2.32813 C6.77604,2.32813 6.30729,2.10417 6.01563,1.65625 L5.23438,2.35938 C4.14063,3.29688 3.25,3.76563 2.5625,3.76563 C2.375,3.76563 2.1875,3.73438 2,3.67188 C1.84375,3.60938 1.66146,3.51042 1.45313,3.375 C1.36979,3.34375 1.27865,3.29688 1.17969,3.23438 C1.08073,3.17188 1.02083,3.13542 1,3.125 C0.9375,3.10417 0.90625,3.04688 0.90625,2.95313 C0.90625,2.84896 0.958333,2.72396 1.0625,2.57813 C1.14583,2.45313 1.26042,2.39063 1.40625,2.39063 M5.76563,-10.7969 C5.76563,-10.474 5.48438,-10.3125 4.92188,-10.3125 C4.43229,-10.3125 4.00521,-10.474 3.64063,-10.7969 C3.28646,-11.1302 3.10938,-11.5313 3.10938,-12 C3.10938,-12.4479 3.25,-12.8385 3.53125,-13.1719 C3.83333,-13.5052 4.21875,-13.7552 4.6875,-13.9219 C5.11458,-14.0781 5.59896,-14.2031 6.14063,-14.2969 C6.69271,-14.3594 7.22396,-14.3906 7.73438,-14.3906 C8.03646,-14.3906 8.59896,-14.2552 9.42188,-13.9844 C10.2552,-13.7135 10.8333,-13.5781 11.1563,-13.5781 C11.5625,-13.5781 11.9479,-13.651 12.3125,-13.7969 C12.6042,-13.9219 12.8906,-14.0677 13.1719,-14.2344 C13.3906,-14.3802 13.5104,-14.4531 13.5313,-14.4531 C13.6563,-14.4531 13.7604,-14.4167 13.8438,-14.3438 C13.9479,-14.2396 14,-14.151 14,-14.0781 C14,-13.9948 13.8802,-13.849 13.6406,-13.6406 C13.3802,-13.401 13.0078,-13.1641 12.5234,-12.9297 C12.0391,-12.6953 11.5313,-12.5781 11,-12.5781 C10.7604,-12.5781 10.4688,-12.6198 10.125,-12.7031 C9.89583,-11.2552 9.66146,-9.96875 9.42188,-8.84375 C9.21354,-7.85417 8.79688,-6.98958 8.17188,-6.25 C7.56771,-5.51042 6.89583,-5.14063 6.15625,-5.14063 C5.85417,-5.14063 5.58854,-5.19792 5.35938,-5.3125 C5.09896,-5.44792 4.82292,-5.64583 4.53125,-5.90625 C4.30208,-6.09375 4.08333,-6.26563 3.875,-6.42188 C3.82292,-6.46354 3.79688,-6.52604 3.79688,-6.60938 C3.79688,-6.69271 3.84896,-6.80729 3.95313,-6.95313 C4.05729,-7.06771 4.15104,-7.125 4.23438,-7.125 C4.31771,-7.125 4.54167,-6.96354 4.90625,-6.64063 C5.27083,-6.31771 5.59375,-6.15625 5.875,-6.15625 C6.39583,-6.15625 6.80208,-6.45313 7.09375,-7.04688 C7.375,-7.64063 7.53646,-8.34375 7.57813,-9.15625 C7.64063,-10.5 7.79167,-11.8906 8.03125,-13.3281 C7.73958,-13.3906 7.52604,-13.4219 7.39063,-13.4219 C6.76563,-13.4219 6.22917,-13.2917 5.78125,-13.0313 C5.34375,-12.7813 5.125,-12.4427 5.125,-12.0156 C5.125,-11.7031 5.22917,-11.4635 5.4375,-11.2969 C5.65625,-11.1094 5.76563,-10.9427 5.76563,-10.7969"/>
<path class="Clef" transform="matrix(0.9936,0,0,0.9936,32.0544,77.76)" d="M7.34375,-5.125 C7.34375,-5.125 7.38542,-5.125 7.46875,-5.125 C7.52083,-5.13542 7.5625,-5.14063 7.59375,-5.14063 C9.05208,-5.14063 10.25,-4.625 11.1875,-3.59375 C12.125,-2.58333 12.5938,-1.40104 12.5938,-0.046875 C12.5938,1.64063 11.901,3.01042 10.5156,4.0625 C10.151,4.35417 9.67188,4.58854 9.07813,4.76563 C9.15104,5.60938 9.1875,6.29167 9.1875,6.8125 C9.1875,6.91667 9.17188,7.29688 9.14063,7.95313 C9.08854,9.16146 8.67188,10.2083 7.89063,11.0938 C7.14063,11.9688 6.20313,12.4063 5.07813,12.4063 C4.02604,12.4063 3.13021,12.0365 2.39063,11.2969 C1.64063,10.5365 1.26563,9.625 1.26563,8.5625 C1.26563,8 1.48438,7.52083 1.92188,7.125 C2.35938,6.73958 2.86979,6.54688 3.45313,6.54688 C3.97396,6.54688 4.41146,6.75 4.76563,7.15625 C5.13021,7.53125 5.3125,8 5.3125,8.5625 C5.3125,9.0625 5.13021,9.49479 4.76563,9.85938 C4.40104,10.224 3.96354,10.4063 3.45313,10.4063 C3.24479,10.4063 3.04688,10.3698 2.85938,10.2969 C3.43229,11.1406 4.19271,11.5625 5.14063,11.5625 C6.03646,11.5625 6.77083,11.1979 7.34375,10.4688 C7.94792,9.71875 8.27604,8.83854 8.32813,7.82813 C8.34896,7.20313 8.35938,6.84896 8.35938,6.76563 C8.35938,6.03646 8.33333,5.4375 8.28125,4.96875 C7.63542,5.07292 7.05729,5.125 6.54688,5.125 C4.73438,5.125 3.19271,4.40625 1.92188,2.96875 C0.671875,1.52083 0.046875,-0.197917 0.046875,-2.1875 C0.046875,-2.60417 0.0833333,-3.02604 0.15625,-3.45313 C0.239583,-3.80729 0.338542,-4.19271 0.453125,-4.60938 C0.515625,-4.84896 0.692708,-5.22917 0.984375,-5.75 C1.08854,-5.90625 1.20573,-6.10156 1.33594,-6.33594 C1.46615,-6.57031 1.55729,-6.72396 1.60938,-6.79688 C1.73438,-7.05729 1.98438,-7.41146 2.35938,-7.85938 C2.46354,-7.97396 2.57292,-8.10156 2.6875,-8.24219 C2.80208,-8.38281 2.89844,-8.5 2.97656,-8.59375 C3.05469,-8.6875 3.11198,-8.76042 3.14844,-8.8125 C3.1849,-8.86458 3.47917,-9.20833 4.03125,-9.84375 C4.15625,-9.97917 4.28125,-10.1198 4.40625,-10.2656 C4.53125,-10.4115 4.63281,-10.5286 4.71094,-10.6172 C4.78906,-10.7057 4.84896,-10.7656 4.89063,-10.7969 C4.42188,-12.349 4.125,-13.5885 4,-14.5156 C3.91667,-15.2552 3.875,-16.2708 3.875,-17.5625 C3.875,-18.6979 4.13542,-19.7604 4.65625,-20.75 C5.15625,-21.7708 5.86458,-22.6094 6.78125,-23.2656 C6.84375,-23.3073 6.90625,-23.3281 6.96875,-23.3281 C7.0625,-23.3281 7.13021,-23.3073 7.17188,-23.2656 C7.86979,-22.4219 8.47396,-21.3229 8.98438,-19.9688 C9.50521,-18.6146 9.76563,-17.3802 9.76563,-16.2656 C9.76563,-15.0156 9.46875,-13.8438 8.875,-12.75 C8.19792,-11.5938 7.32292,-10.3958 6.25,-9.15625 C6.52083,-8.30208 6.88542,-6.95833 7.34375,-5.125 M9,3.96875 C9.67708,3.71875 10.2083,3.29688 10.5938,2.70313 C11.0104,2.13021 11.2188,1.48438 11.2188,0.765625 C11.2188,-0.161458 10.9063,-0.984375 10.2813,-1.70313 C9.63542,-2.44271 8.81771,-2.85938 7.82813,-2.95313 C8.39063,-0.203125 8.78125,2.10417 9,3.96875 M1.45313,-0.546875 C1.45313,0.744792 1.97396,1.88021 3.01563,2.85938 C4.07813,3.80729 5.27604,4.28125 6.60938,4.28125 C7.15104,4.28125 7.68229,4.23958 8.20313,4.15625 C7.99479,2.17708 7.58333,-0.192708 6.96875,-2.95313 C6.22917,-2.86979 5.64063,-2.60938 5.20313,-2.17188 C4.76563,-1.71354 4.54688,-1.19792 4.54688,-0.625 C4.54688,0.364583 5.07813,1.16667 6.14063,1.78125 C6.22396,1.875 6.26563,1.97396 6.26563,2.07813 C6.26563,2.18229 6.22396,2.27604 6.14063,2.35938 C6.05729,2.45313 5.95833,2.5 5.84375,2.5 C5.83333,2.5 5.77604,2.48958 5.67188,2.46875 C4.92188,2.0625 4.34896,1.54167 3.95313,0.90625 C3.56771,0.21875 3.375,-0.46875 3.375,-1.15625 C3.375,-2.05208 3.65625,-2.86458 4.21875,-3.59375 C4.80208,-4.32292 5.5625,-4.79167 6.5,-5 C6.13542,-6.45833 5.83854,-7.59896 5.60938,-8.42188 C5.40104,-8.18229 5.15104,-7.89844 4.85938,-7.57031 C4.56771,-7.24219 4.39583,-7.04167 4.34375,-6.96875 C3.875,-6.36458 3.51563,-5.89063 3.26563,-5.54688 C2.81771,-4.93229 2.48958,-4.40625 2.28125,-3.96875 C2.0625,-3.46875 1.86979,-2.92708 1.70313,-2.34375 C1.53646,-1.78125 1.45313,-1.18229 1.45313,-0.546875 M7.96875,-20.4063 C6.98958,-19.9271 6.22396,-19.2396 5.67188,-18.3438 C5.09896,-17.4167 4.8125,-16.4219 4.8125,-15.3594 C4.8125,-14.4219 5.04688,-13.1563 5.51563,-11.5625 C6.45313,-12.6979 7.15625,-13.7448 7.625,-14.7031 C8.11458,-15.724 8.35938,-16.7865 8.35938,-17.8906 C8.35938,-18.724 8.22917,-19.5625 7.96875,-20.4063 M5.82813,15.2344 C6.16146,14.901 6.32813,14.5625 6.32813,14.2188 C6.30729,13.9479 6.19271,13.7396 5.98438,13.5938 C5.74479,13.4375 5.46875,13.3594 5.15625,13.3594 C4.9375,13.3594 4.75521,13.4323 4.60938,13.5781 C4.48438,13.7031 4.42188,13.8646 4.42188,14.0625 C4.42188,14.3021 4.51563,14.4792 4.70313,14.5938 L5.82813,15.2344 M6.14063,15.4063 C6.68229,15.7083 6.95313,16.1146 6.95313,16.625 L6.95313,16.6875 C6.95313,17.0833 6.79167,17.4219 6.46875,17.7031 C6.14583,17.9844 5.68229,18.125 5.07813,18.125 C4.58854,18.125 4.16146,17.9948 3.79688,17.7344 C3.43229,17.4844 3.25,17.1458 3.25,16.7188 C3.25,16.5521 3.29167,16.3958 3.375,16.25 C3.47917,16.0833 3.56771,15.9688 3.64063,15.9063 L4,15.5313 C3.60417,15.2604 3.40625,14.901 3.40625,14.4531 C3.40625,14.099 3.5625,13.7865 3.875,13.5156 C4.19792,13.2552 4.625,13.125 5.15625,13.125 C5.60417,13.125 5.98438,13.224 6.29688,13.4219 C6.60938,13.6198 6.76563,13.8854 6.76563,14.2188 C6.76563,14.5729 6.55729,14.9688 6.14063,15.4063 M4.29688,15.7031 C3.91146,16.0469 3.70313,16.3854 3.67188,16.7188 C3.70313,17.0729 3.84896,17.3542 4.10938,17.5625 C4.39063,17.7813 4.71354,17.8906 5.07813,17.8906 C5.33854,17.8906 5.54688,17.8073 5.70313,17.6406 C5.85938,17.4844 5.9375,17.2969 5.9375,17.0781 C5.92708,16.7865 5.8125,16.5781 5.59375,16.4531 L4.29688,15.7031 "/>
<path class="Fingering" d="M506.035,87.8214 C505.441,87.8214 504.977,87.5141 504.644,86.8995 C504.363,86.3995 504.222,85.7745 504.222,85.0245 C504.222,84.1287 504.43,83.4255 504.847,82.9151 C505.18,82.5193 505.587,82.3162 506.066,82.3057 C506.628,82.3057 507.071,82.5922 507.394,83.1651 C507.696,83.6755 507.847,84.311 507.847,85.0714 C507.847,86.0401 507.623,86.7797 507.175,87.2901 C506.852,87.6443 506.472,87.8214 506.035,87.8214 M506.035,82.5089 C505.389,82.5089 505.04,83.2797 504.988,84.8214 C504.988,84.9151 504.988,85.0089 504.988,85.1026 C504.998,86.7693 505.347,87.6078 506.035,87.6182 C506.722,87.6078 507.066,86.7641 507.066,85.087 C507.066,83.5662 506.795,82.7172 506.253,82.5401 C506.18,82.5193 506.108,82.5089 506.035,82.5089"/>
<path class="Fingering" d="M472.341,81.4155 C472.581,80.3947 473.107,79.8686 473.92,79.8374 C473.951,79.8374 473.977,79.8374 473.998,79.8374 C474.487,79.8374 474.878,80.0145 475.17,80.3686 C475.378,80.629 475.482,80.9207 475.482,81.2436 C475.482,81.8374 475.164,82.478 474.529,83.1655 C474.508,83.1863 474.482,83.2072 474.451,83.228 L473.123,84.6499 L475.029,84.6499 C475.237,84.6499 475.399,84.5926 475.513,84.478 C475.586,84.4051 475.675,84.2853 475.779,84.1186 L475.888,84.1499 L475.451,85.228 L472.326,85.228 L472.326,85.1342 L473.748,83.6186 C474.425,82.879 474.774,82.1863 474.795,81.5405 C474.795,81.0926 474.623,80.7697 474.279,80.5717 C474.102,80.4676 473.899,80.4155 473.67,80.4155 C473.315,80.4155 473.039,80.5509 472.841,80.8217 C472.727,80.978 472.617,81.1915 472.513,81.4624 L472.341,81.4155 "/>
<path class="Fingering" d="M440.61,82.119 C440.735,82.119 440.917,82.1867 441.156,82.3221 C441.406,82.4784 441.62,82.5565 441.797,82.5565 C442.162,82.5565 442.448,82.395 442.656,82.0721 C442.781,81.8638 442.844,81.6294 442.844,81.369 C442.844,80.6086 442.391,80.1919 441.485,80.119 C441.391,80.1086 441.292,80.1034 441.188,80.1034 L441.188,79.994 C441.792,79.7961 442.188,79.5409 442.375,79.2284 C442.469,79.0617 442.516,78.8794 442.516,78.6815 C442.516,78.3273 442.37,78.0721 442.078,77.9159 C441.943,77.8534 441.797,77.8221 441.641,77.8221 C441.193,77.8221 440.823,78.0565 440.531,78.5252 C440.5,78.5669 440.474,78.6138 440.453,78.6659 L440.328,78.6346 C440.578,77.9575 440.943,77.5461 441.422,77.4002 C441.568,77.3586 441.729,77.3377 441.906,77.3377 C442.386,77.3377 442.74,77.5044 442.969,77.8377 C443.094,78.0148 443.156,78.2127 443.156,78.4315 C443.156,78.7544 443.005,79.0461 442.703,79.3065 C442.61,79.3794 442.511,79.4575 442.406,79.5409 C442.886,79.7492 443.193,80.0357 443.328,80.4002 C443.391,80.5773 443.422,80.7752 443.422,80.994 C443.422,81.6294 443.156,82.1242 442.625,82.4784 C442.229,82.7284 441.761,82.8534 441.219,82.8534 C440.729,82.8534 440.438,82.744 440.344,82.5252 C440.323,82.4836 440.313,82.4419 440.313,82.4002 C440.313,82.244 440.391,82.1555 440.547,82.1346 C440.568,82.1242 440.589,82.119 440.61,82.119"/>
<path class="Fingering" d="M409.846,80.3694 C409.253,80.3694 408.789,80.0621 408.456,79.4475 C408.175,78.9475 408.034,78.3225 408.034,77.5725 C408.034,76.6767 408.242,75.9735 408.659,75.4631 C408.992,75.0673 409.399,74.8642 409.878,74.8537 C410.44,74.8537 410.883,75.1402 411.206,75.7131 C411.508,76.2235 411.659,76.859 411.659,77.6194 C411.659,78.5881 411.435,79.3277 410.987,79.8381 C410.664,80.1923 410.284,80.3694 409.846,80.3694 M409.846,75.0569 C409.201,75.0569 408.852,75.8277 408.8,77.3694 C408.8,77.4631 408.8,77.5569 408.8,77.6506 C408.81,79.3173 409.159,80.1558 409.846,80.1662 C410.534,80.1558 410.878,79.3121 410.878,77.635 C410.878,76.1142 410.607,75.2652 410.065,75.0881 C409.992,75.0673 409.919,75.0569 409.846,75.0569"/>
<path class="Fingering" d="M375.974,73.9635 C376.213,72.9427 376.74,72.4166 377.552,72.3854 C377.583,72.3854 377.609,72.3854 377.63,72.3854 C378.12,72.3854 378.51,72.5625 378.802,72.9166 C379.01,73.177 379.115,73.4687 379.115,73.7916 C379.115,74.3854 378.797,75.026 378.161,75.7135 C378.141,75.7343 378.115,75.7552 378.083,75.776 L376.755,77.1979 L378.661,77.1979 C378.87,77.1979 379.031,77.1406 379.146,77.026 C379.219,76.9531 379.307,76.8333 379.411,76.6666 L379.521,76.6979 L379.083,77.776 L375.958,77.776 L375.958,77.6822 L377.38,76.1666 C378.057,75.427 378.406,74.7343 378.427,74.0885 C378.427,73.6406 378.255,73.3177 377.911,73.1197 C377.734,73.0156 377.531,72.9635 377.302,72.9635 C376.948,72.9635 376.672,73.0989 376.474,73.3697 C376.359,73.526 376.25,73.7395 376.146,74.0104 L375.974,73.9635 "/>
<path class="Fingering" d="M345.601,75.4014 C345.008,75.4014 344.544,75.0941 344.211,74.4795 C343.93,73.9795 343.789,73.3545 343.789,72.6045 C343.789,71.7087 343.997,71.0055 344.414,70.4951 C344.747,70.0993 345.153,69.8962 345.633,69.8858 C346.195,69.8858 346.638,70.1722 346.961,70.7451 C347.263,71.2555 347.414,71.891 347.414,72.6514 C347.414,73.6201 347.19,74.3597 346.742,74.8701 C346.419,75.2243 346.039,75.4014 345.601,75.4014 M345.601,70.0889 C344.956,70.0889 344.607,70.8597 344.555,72.4014 C344.555,72.4951 344.555,72.5889 344.555,72.6826 C344.565,74.3493 344.914,75.1878 345.601,75.1983 C346.289,75.1878 346.633,74.3441 346.633,72.667 C346.633,71.1462 346.362,70.2972 345.82,70.1201 C345.747,70.0993 345.674,70.0889 345.601,70.0889"/>
<path class="Fingering" d="M312.948,68.0736 C312.833,68.0736 312.64,68.1309 312.37,68.2455 L312.37,68.1361 L313.807,67.4017 L313.87,67.4174 L313.87,72.2142 C313.87,72.4226 313.932,72.558 314.057,72.6205 C314.161,72.6622 314.354,72.683 314.635,72.683 L314.635,72.808 L312.416,72.808 L312.416,72.683 C312.771,72.6726 312.995,72.6101 313.088,72.4955 C313.151,72.4017 313.182,72.2559 313.182,72.058 L313.182,68.4486 C313.172,68.1986 313.093,68.0736 312.948,68.0736"/>
<path class="Fingering" d="M279.997,69.699 C280.122,69.699 280.304,69.7667 280.544,69.9021 C280.794,70.0584 281.007,70.1365 281.185,70.1365 C281.549,70.1365 281.836,69.975 282.044,69.6521 C282.169,69.4438 282.231,69.2094 282.231,68.949 C282.231,68.1886 281.778,67.7719 280.872,67.699 C280.778,67.6886 280.679,67.6834 280.575,67.6834 L280.575,67.574 C281.179,67.3761 281.575,67.1209 281.763,66.8084 C281.856,66.6417 281.903,66.4594 281.903,66.2615 C281.903,65.9073 281.757,65.6521 281.466,65.4959 C281.33,65.4334 281.185,65.4021 281.028,65.4021 C280.58,65.4021 280.211,65.6365 279.919,66.1052 C279.888,66.1469 279.862,66.1938 279.841,66.2459 L279.716,66.2146 C279.966,65.5375 280.33,65.1261 280.81,64.9802 C280.955,64.9386 281.117,64.9177 281.294,64.9177 C281.773,64.9177 282.127,65.0844 282.356,65.4177 C282.481,65.5948 282.544,65.7927 282.544,66.0115 C282.544,66.3344 282.393,66.6261 282.091,66.8865 C281.997,66.9594 281.898,67.0375 281.794,67.1209 C282.273,67.3292 282.58,67.6157 282.716,67.9802 C282.778,68.1573 282.81,68.3552 282.81,68.574 C282.81,69.2094 282.544,69.7042 282.013,70.0584 C281.617,70.3084 281.148,70.4334 280.606,70.4334 C280.117,70.4334 279.825,70.324 279.731,70.1052 C279.711,70.0636 279.7,70.0219 279.7,69.9802 C279.7,69.824 279.778,69.7355 279.935,69.7146 C279.955,69.7042 279.976,69.699 279.997,69.699"/>
<path class="Fingering" d="M248.703,68.0736 C248.588,68.0736 248.395,68.1309 248.125,68.2455 L248.125,68.1361 L249.562,67.4017 L249.625,67.4174 L249.625,72.2142 C249.625,72.4226 249.687,72.558 249.812,72.6205 C249.916,72.6622 250.109,72.683 250.39,72.683 L250.39,72.808 L248.171,72.808 L248.171,72.683 C248.526,72.6726 248.75,72.6101 248.843,72.4955 C248.906,72.4017 248.937,72.2559 248.937,72.058 L248.937,68.4486 C248.927,68.1986 248.848,68.0736 248.703,68.0736"/>
<path class="Fingering" d="M217.111,75.4014 C216.518,75.4014 216.054,75.0941 215.721,74.4795 C215.44,73.9795 215.299,73.3545 215.299,72.6045 C215.299,71.7087 215.507,71.0055 215.924,70.4951 C216.257,70.0993 216.663,69.8962 217.143,69.8858 C217.705,69.8858 218.148,70.1722 218.471,70.7451 C218.773,71.2555 218.924,71.891 218.924,72.6514 C218.924,73.6201 218.7,74.3597 218.252,74.8701 C217.929,75.2243 217.549,75.4014 217.111,75.4014 M217.111,70.0889 C216.466,70.0889 216.117,70.8597 216.065,72.4014 C216.065,72.4951 216.065,72.5889 216.065,72.6826 C216.075,74.3493 216.424,75.1878 217.111,75.1983 C217.799,75.1878 218.143,74.3441 218.143,72.667 C218.143,71.1462 217.872,70.2972 217.33,70.1201 C217.257,70.0993 217.184,70.0889 217.111,70.0889"/>
<path class="Fingering" d="M183.239,73.9635 C183.478,72.9427 184.005,72.4166 184.817,72.3854 C184.848,72.3854 184.874,72.3854 184.895,72.3854 C185.385,72.3854 185.775,72.5625 186.067,72.9166 C186.275,73.177 186.38,73.4687 186.38,73.7916 C186.38,74.3854 186.062,75.026 185.426,75.7135 C185.406,75.7343 185.38,75.7552 185.348,75.776 L184.02,77.1979 L185.926,77.1979 C186.135,77.1979 186.296,77.1406 186.411,77.026 C186.484,76.9531 186.572,76.8333 186.676,76.6666 L186.786,76.6979 L186.348,77.776 L183.223,77.776 L183.223,77.6822 L184.645,76.1666 C185.322,75.427 185.671,74.7343 185.692,74.0885 C185.692,73.6406 185.52,73.3177 185.176,73.1197 C184.999,73.0156 184.796,72.9635 184.567,72.9635 C184.213,72.9635 183.937,73.0989 183.739,73.3697 C183.624,73.526 183.515,73.7395 183.411,74.0104 L183.239,73.9635 "/>
<path class="Fingering" d="M152.866,80.3694 C152.273,80.3694 151.809,80.0621 151.476,79.4475 C151.195,78.9475 151.054,78.3225 151.054,77.5725 C151.054,76.6767 151.262,75.9735 151.679,75.4631 C152.012,75.0673 152.418,74.8642 152.898,74.8537 C153.46,74.8537 153.903,75.1402 154.226,75.7131 C154.528,76.2235 154.679,76.859 154.679,77.6194 C154.679,78.5881 154.455,79.3277 154.007,79.8381 C153.684,80.1923 153.304,80.3694 152.866,80.3694 M152.866,75.0569 C152.221,75.0569 151.872,75.8277 151.82,77.3694 C151.82,77.4631 151.82,77.5569 151.82,77.6506 C151.83,79.3173 152.179,80.1558 152.866,80.1662 C153.554,80.1558 153.898,79.3121 153.898,77.635 C153.898,76.1142 153.627,75.2652 153.085,75.0881 C153.012,75.0673 152.939,75.0569 152.866,75.0569"/>
<path class="Fingering" d="M119.385,82.119 C119.51,82.119 119.692,82.1867 119.931,82.3221 C120.181,82.4784 120.395,82.5565 120.572,82.5565 C120.937,82.5565 121.223,82.395 121.431,82.0721 C121.556,81.8638 121.619,81.6294 121.619,81.369 C121.619,80.6086 121.166,80.1919 120.26,80.119 C120.166,80.1086 120.067,80.1034 119.963,80.1034 L119.963,79.994 C120.567,79.7961 120.963,79.5409 121.15,79.2284 C121.244,79.0617 121.291,78.8794 121.291,78.6815 C121.291,78.3273 121.145,78.0721 120.853,77.9159 C120.718,77.8534 120.572,77.8221 120.416,77.8221 C119.968,77.8221 119.598,78.0565 119.306,78.5252 C119.275,78.5669 119.249,78.6138 119.228,78.6659 L119.103,78.6346 C119.353,77.9575 119.718,77.5461 120.197,77.4002 C120.343,77.3586 120.504,77.3377 120.681,77.3377 C121.161,77.3377 121.515,77.5044 121.744,77.8377 C121.869,78.0148 121.931,78.2127 121.931,78.4315 C121.931,78.7544 121.78,79.0461 121.478,79.3065 C121.385,79.3794 121.286,79.4575 121.181,79.5409 C121.661,79.7492 121.968,80.0357 122.103,80.4002 C122.166,80.5773 122.197,80.7752 122.197,80.994 C122.197,81.6294 121.931,82.1242 121.4,82.4784 C121.004,82.7284 120.536,82.8534 119.994,82.8534 C119.504,82.8534 119.213,82.744 119.119,82.5252 C119.098,82.4836 119.088,82.4419 119.088,82.4002 C119.088,82.244 119.166,82.1555 119.322,82.1346 C119.343,82.1242 119.364,82.119 119.385,82.119"/>
<path class="Fingering" d="M86.8714,81.4155 C87.111,80.3947 87.637,79.8686 88.4495,79.8374 C88.4808,79.8374 88.5068,79.8374 88.5277,79.8374 C89.0172,79.8374 89.4079,80.0145 89.6995,80.3686 C89.9079,80.629 90.012,80.9207 90.012,81.2436 C90.012,81.8374 89.6943,82.478 89.0589,83.1655 C89.0381,83.1863 89.012,83.2072 88.9808,83.228 L87.6527,84.6499 L89.5589,84.6499 C89.7672,84.6499 89.9287,84.5926 90.0433,84.478 C90.1162,84.4051 90.2047,84.2853 90.3089,84.1186 L90.4183,84.1499 L89.9808,85.228 L86.8558,85.228 L86.8558,85.1342 L88.2777,83.6186 C88.9547,82.879 89.3037,82.1863 89.3245,81.5405 C89.3245,81.0926 89.1527,80.7697 88.8089,80.5717 C88.6318,80.4676 88.4287,80.4155 88.1995,80.4155 C87.8454,80.4155 87.5693,80.5509 87.3714,80.8217 C87.2568,80.978 87.1475,81.1915 87.0433,81.4624 L86.8714,81.4155 "/>
<path class="Fingering" d="M56.4989,87.8214 C55.9052,87.8214 55.4416,87.5141 55.1083,86.8995 C54.827,86.3995 54.6864,85.7745 54.6864,85.0245 C54.6864,84.1287 54.8947,83.4255 55.3114,82.9151 C55.6447,82.5193 56.051,82.3162 56.5302,82.3057 C57.0927,82.3057 57.5354,82.5922 57.8583,83.1651 C58.1604,83.6755 58.3114,84.311 58.3114,85.0714 C58.3114,86.0401 58.0875,86.7797 57.6395,87.2901 C57.3166,87.6443 56.9364,87.8214 56.4989,87.8214 M56.4989,82.5089 C55.8531,82.5089 55.5041,83.2797 55.452,84.8214 C55.452,84.9151 55.452,85.0089 55.452,85.1026 C55.4625,86.7693 55.8114,87.6078 56.4989,87.6182 C57.1864,87.6078 57.5302,86.7641 57.5302,85.087 C57.5302,83.5662 57.2593,82.7172 56.7177,82.5401 C56.6447,82.5193 56.5718,82.5089 56.4989,82.5089"/>
<path class="Tempo" d="M54.7395,40.4371 C54.5364,40.2809 54.2864,40.1871 53.9739,40.1871 C52.7864,40.1871 51.8332,41.0621 51.8332,41.9996 C51.8332,42.5621 52.2864,42.9059 52.8801,42.9059 C53.8332,42.9059 55.0207,41.9996 55.0207,41.0934 L55.0207,34.9527 L54.7395,34.9527 L54.7395,40.4371 "/>
<path class="Tempo" d="M65.3801,39.0152 L58.7707,39.0152 L58.7707,37.859 L65.3801,37.859 L65.3801,39.0152 M65.3801,41.9371 L58.7707,41.9371 L58.7707,40.7965 L65.3801,40.7965 L65.3801,41.9371 M70.8176,36.0465 C70.6926,36.0465 70.3749,36.1402 69.8645,36.3277 C69.8332,36.3382 69.8124,36.3486 69.802,36.359 L69.802,36.0465 L72.8176,34.734 L73.0207,34.734 L73.0207,41.5621 C73.0207,42.0517 73.1197,42.3642 73.3176,42.4996 C73.4947,42.6246 73.828,42.6923 74.3176,42.7027 L74.3176,42.984 L69.8176,42.984 L69.8176,42.7027 C70.4739,42.6923 70.8853,42.5882 71.052,42.3902 C71.1874,42.2236 71.2551,41.9267 71.2551,41.4996 L71.2551,36.8746 C71.2447,36.333 71.0989,36.0569 70.8176,36.0465 M75.302,38.9059 C75.302,37.5934 75.6145,36.5309 76.2395,35.7184 C76.7499,35.0725 77.3437,34.7444 78.0207,34.734 C78.802,34.734 79.4478,35.1402 79.9582,35.9527 C80.4687,36.7652 80.7239,37.76 80.7239,38.9371 C80.7239,40.3121 80.4062,41.4059 79.7707,42.2184 C79.2707,42.8225 78.6926,43.1298 78.0364,43.1402 C77.203,43.1402 76.5312,42.7132 76.0207,41.859 C75.5416,41.0673 75.302,40.083 75.302,38.9059 M78.0364,42.7965 C78.3905,42.7965 78.6249,42.4736 78.7395,41.8277 C78.802,41.4423 78.8332,40.9423 78.8332,40.3277 L78.8332,37.5777 C78.8332,36.1402 78.6405,35.3225 78.2551,35.1246 C78.1822,35.083 78.0989,35.0621 78.0051,35.0621 C77.6405,35.0621 77.401,35.3955 77.2864,36.0621 C77.2343,36.4371 77.2082,36.9423 77.2082,37.5777 L77.2082,40.3277 C77.2082,41.6819 77.3749,42.4736 77.7082,42.7027 C77.802,42.7652 77.9114,42.7965 78.0364,42.7965 M81.302,38.9059 C81.302,37.5934 81.6145,36.5309 82.2395,35.7184 C82.7499,35.0725 83.3437,34.7444 84.0207,34.734 C84.802,34.734 85.4478,35.1402 85.9582,35.9527 C86.4687,36.7652 86.7239,37.76 86.7239,38.9371 C86.7239,40.3121 86.4062,41.4059 85.7707,42.2184 C85.2707,42.8225 84.6926,43.1298 84.0364,43.1402 C83.203,43.1402 82.5312,42.7132 82.0207,41.859 C81.5416,41.0673 81.302,40.083 81.302,38.9059 M84.0364,42.7965 C84.3905,42.7965 84.6249,42.4736 84.7395,41.8277 C84.802,41.4423 84.8332,40.9423 84.8332,40.3277 L84.8332,37.5777 C84.8332,36.1402 84.6405,35.3225 84.2551,35.1246 C84.1822,35.083 84.0989,35.0621 84.0051,35.0621 C83.6405,35.0621 83.401,35.3955 83.2864,36.0621 C83.2343,36.4371 83.2082,36.9423 83.2082,37.5777 L83.2082,40.3277 C83.2082,41.6819 83.3749,42.4736 83.7082,42.7027 C83.802,42.7652 83.9114,42.7965 84.0364,42.7965"/>
<path class="StaffText" d="M64.3142,25.1911 C64.7622,25.1911 65.2622,25.3057 65.8142,25.5348 C66.0538,25.6286 66.2257,25.6755 66.3299,25.6755 C66.4757,25.6755 66.6059,25.5661 66.7205,25.3473 C66.7309,25.3057 66.7465,25.264 66.7674,25.2223 L67.033,25.2223 L67.033,27.5661 L66.783,27.5661 C66.5122,26.9619 66.2309,26.5192 65.9392,26.238 C65.8767,26.1755 65.8194,26.1234 65.7674,26.0817 C65.3403,25.7067 64.8976,25.5192 64.4392,25.5192 C63.4392,25.5192 62.8455,26.238 62.658,27.6755 C62.6267,27.9984 62.6111,28.3473 62.6111,28.7223 C62.6111,29.9098 62.8247,30.7796 63.2517,31.3317 C63.5851,31.7484 64.0434,31.9567 64.6267,31.9567 C65.1892,31.9567 65.5069,31.7796 65.5799,31.4255 C65.5903,31.363 65.5955,31.2953 65.5955,31.2223 L65.5955,30.1755 C65.5955,29.8838 65.5226,29.6963 65.3767,29.613 C65.2309,29.5401 64.9653,29.4932 64.5799,29.4723 L64.5799,29.2223 L68.0174,29.2223 L68.0174,29.4723 C67.6111,29.514 67.3611,29.6026 67.2674,29.738 C67.1944,29.8526 67.158,30.0713 67.158,30.3942 L67.158,31.6598 C66.5642,32.014 65.7778,32.2223 64.7986,32.2848 C64.6632,32.2848 64.5278,32.2848 64.3924,32.2848 C63.2778,32.2848 62.3872,31.9255 61.7205,31.2067 C61.1267,30.5609 60.8299,29.7536 60.8299,28.7848 C60.8299,27.7432 61.1736,26.8786 61.8611,26.1911 C62.5278,25.5244 63.3455,25.1911 64.3142,25.1911 M72.0799,28.8161 C71.8611,28.8161 71.6476,28.6963 71.4392,28.4567 C71.3247,28.3109 71.2413,28.2328 71.1892,28.2223 C70.9705,28.2223 70.8038,28.3734 70.6892,28.6755 C70.6163,28.8317 70.5799,28.9984 70.5799,29.1755 L70.5799,31.0661 C70.5799,31.4307 70.6528,31.6546 70.7986,31.738 C70.8924,31.8005 71.0642,31.8421 71.3142,31.863 L71.3142,32.0973 L68.6736,32.0973 L68.6736,31.863 C68.9444,31.8109 69.1059,31.7171 69.158,31.5817 C69.1788,31.5088 69.1892,31.3994 69.1892,31.2536 L69.1892,28.3161 C69.1892,28.0557 69.1163,27.889 68.9705,27.8161 C68.8976,27.7744 68.7986,27.7432 68.6736,27.7223 L68.6736,27.488 L70.5486,27.488 L70.5486,28.3161 C70.9236,27.764 71.2934,27.4567 71.658,27.3942 C71.7413,27.3734 71.8194,27.363 71.8924,27.363 C72.2361,27.363 72.4809,27.5036 72.6267,27.7848 C72.6788,27.8994 72.7049,28.0192 72.7049,28.1442 C72.7049,28.4567 72.5799,28.6651 72.3299,28.7692 C72.2465,28.8005 72.1632,28.8161 72.0799,28.8161 M73.9549,28.0661 C73.9549,28.0973 74.0069,28.1911 74.1111,28.3473 C74.2049,28.4932 74.2517,28.6182 74.2517,28.7223 C74.2517,28.9828 74.1215,29.1598 73.8611,29.2536 C73.7674,29.2848 73.6736,29.3005 73.5799,29.3005 C73.2153,29.3005 73.0017,29.139 72.9392,28.8161 C72.9288,28.7536 72.9236,28.6963 72.9236,28.6442 C72.9236,28.1755 73.1788,27.8265 73.6892,27.5973 C74.0122,27.4411 74.3872,27.363 74.8142,27.363 C75.6892,27.363 76.2882,27.6026 76.6111,28.0817 C76.7361,28.2796 76.7986,28.5036 76.7986,28.7536 L76.7986,31.3317 C76.809,31.488 76.8767,31.5713 77.0017,31.5817 C77.0538,31.5713 77.0903,31.5557 77.1111,31.5348 L77.2205,31.4411 L77.3611,31.6442 C76.9653,32.0192 76.5955,32.2171 76.2517,32.238 C75.8767,32.238 75.6319,32.0973 75.5174,31.8161 C75.4861,31.7223 75.4549,31.6234 75.4236,31.5192 C74.8819,31.988 74.3559,32.2276 73.8455,32.238 C73.408,32.238 73.0903,32.0713 72.8924,31.738 C72.7882,31.5713 72.7361,31.389 72.7361,31.1911 C72.7361,30.6078 73.184,30.1338 74.0799,29.7692 C74.3194,29.6651 74.7674,29.514 75.4236,29.3161 L75.4236,28.5817 C75.4236,28.0505 75.2049,27.7588 74.7674,27.7067 C74.7049,27.7067 74.6424,27.7067 74.5799,27.7067 C74.2882,27.7067 74.0903,27.7901 73.9861,27.9567 C73.9653,27.988 73.9549,28.0244 73.9549,28.0661 M75.408,31.0817 L75.408,29.6442 C74.6059,29.863 74.1997,30.264 74.1892,30.8473 C74.1892,31.1807 74.2986,31.389 74.5174,31.4723 C74.5799,31.4932 74.6424,31.5036 74.7049,31.5036 C74.934,31.5036 75.1684,31.363 75.408,31.0817 M80.8767,32.2223 L80.8767,31.5817 C80.5226,31.9567 80.1788,32.1703 79.8455,32.2223 C79.7517,32.2328 79.6528,32.238 79.5486,32.238 C78.9549,32.238 78.4861,31.9619 78.1424,31.4098 C77.8715,30.9828 77.7361,30.4776 77.7361,29.8942 C77.7361,29.0401 77.9809,28.3682 78.4705,27.8786 C78.8038,27.5348 79.1997,27.363 79.658,27.363 C80.0122,27.363 80.3351,27.4984 80.6267,27.7692 C80.7101,27.8421 80.783,27.9098 80.8455,27.9723 L80.8455,26.1598 C80.8455,25.9098 80.7882,25.7536 80.6736,25.6911 C80.5694,25.639 80.3715,25.6026 80.0799,25.5817 L80.0799,25.3473 L82.2361,25.3473 L82.2361,31.0973 C82.2361,31.3786 82.3194,31.5505 82.4861,31.613 C82.5694,31.6442 82.684,31.6651 82.8299,31.6755 L82.8299,31.9098 L82.2049,31.988 C81.6528,32.0609 81.2101,32.139 80.8767,32.2223 M80.0017,31.6911 C80.2934,31.6911 80.5434,31.5244 80.7517,31.1911 C80.8038,31.0973 80.8351,31.0296 80.8455,30.988 L80.8455,28.5348 C80.7205,28.2015 80.5122,28.0036 80.2205,27.9411 C80.1684,27.9307 80.1163,27.9255 80.0642,27.9255 C79.5538,27.9255 79.2726,28.4307 79.2205,29.4411 C79.2205,29.5557 79.2205,29.6807 79.2205,29.8161 C79.2205,31.0557 79.4809,31.6807 80.0017,31.6911 M85.1736,29.6442 C85.2257,30.6651 85.4913,31.264 85.9705,31.4411 C86.0955,31.4828 86.2257,31.5036 86.3611,31.5036 C86.7257,31.5036 87.059,31.3369 87.3611,31.0036 C87.4132,30.9515 87.4601,30.8994 87.5017,30.8473 L87.7361,30.988 C87.3194,31.5921 86.908,31.9723 86.5017,32.1286 C86.2934,32.2015 86.059,32.238 85.7986,32.238 C85.0486,32.238 84.4861,31.9307 84.1111,31.3161 C83.8611,30.8994 83.7361,30.3994 83.7361,29.8161 C83.7361,28.9203 84.0069,28.2484 84.5486,27.8005 C84.9132,27.5088 85.3403,27.363 85.8299,27.363 C86.934,27.363 87.5538,28.0817 87.6892,29.5192 C87.6892,29.5609 87.6892,29.6026 87.6892,29.6442 L85.1736,29.6442 M86.4705,29.1286 C86.4497,28.5036 86.3819,28.1078 86.2674,27.9411 C86.1736,27.7848 86.0278,27.7067 85.8299,27.7067 C85.5382,27.7067 85.3403,27.8786 85.2361,28.2223 C85.1736,28.4619 85.1372,28.8161 85.1267,29.2848 L86.4705,29.2848 L86.4705,29.1286 M91.9861,26.3161 C91.8819,26.3161 91.6163,26.3942 91.1892,26.5505 C91.1684,26.5609 91.1528,26.5661 91.1424,26.5661 L91.1424,26.3161 L93.658,25.2223 L93.8299,25.2223 L93.8299,30.9255 C93.8299,31.3317 93.908,31.5869 94.0642,31.6911 C94.2101,31.7953 94.4913,31.8526 94.908,31.863 L94.908,32.0973 L91.158,32.0973 L91.158,31.863 C91.6997,31.8526 92.0382,31.7692 92.1736,31.613 C92.2882,31.4671 92.3455,31.2171 92.3455,30.863 L92.3455,27.0036 C92.3351,26.5557 92.2153,26.3265 91.9861,26.3161 M97.1424,30.5348 C97.4653,30.5348 97.7101,30.6755 97.8767,30.9567 C97.9601,31.1026 98.0017,31.2484 98.0017,31.3942 C98.0017,31.7067 97.8611,31.9463 97.5799,32.113 C97.434,32.1859 97.2882,32.2223 97.1424,32.2223 C96.809,32.2223 96.5642,32.0817 96.408,31.8005 C96.3351,31.6651 96.2986,31.5244 96.2986,31.3786 C96.2986,31.0765 96.434,30.8421 96.7049,30.6755 C96.8403,30.5817 96.9861,30.5348 97.1424,30.5348 M97.1424,27.3786 C97.4653,27.3786 97.7101,27.514 97.8767,27.7848 C97.9601,27.9307 98.0017,28.0765 98.0017,28.2223 C98.0017,28.5453 97.8611,28.7901 97.5799,28.9567 C97.4444,29.0296 97.2986,29.0661 97.1424,29.0661 C96.809,29.0661 96.5642,28.9203 96.408,28.6286 C96.3351,28.4932 96.2986,28.3526 96.2986,28.2067 C96.2986,27.9046 96.434,27.6703 96.7049,27.5036 C96.8403,27.4203 96.9861,27.3786 97.1424,27.3786"/>
<path class="StaffText" d="M108.33,28.7536 C108.33,29.7015 108.033,30.4723 107.439,31.0661 C106.752,31.7536 105.762,32.0973 104.47,32.0973 L101.642,32.0973 L101.642,31.9098 C102.049,31.8786 102.299,31.7953 102.392,31.6598 C102.476,31.5453 102.517,31.3265 102.517,31.0036 L102.517,26.5661 C102.517,26.1911 102.465,25.9515 102.361,25.8473 C102.247,25.764 102.007,25.7067 101.642,25.6755 L101.642,25.488 L104.33,25.488 C106.142,25.488 107.351,26.0557 107.955,27.1911 C108.205,27.6598 108.33,28.1807 108.33,28.7536 M107.236,28.8317 C107.236,27.7692 106.887,26.9776 106.189,26.4567 C105.648,26.0609 104.934,25.863 104.049,25.863 C103.778,25.863 103.616,25.9255 103.564,26.0505 C103.543,26.1026 103.533,26.1703 103.533,26.2536 L103.533,31.3161 C103.533,31.5244 103.611,31.6494 103.767,31.6911 C103.851,31.7119 103.944,31.7223 104.049,31.7223 C106.059,31.7223 107.116,30.863 107.22,29.1442 C107.231,29.0401 107.236,28.9359 107.236,28.8317 M114.908,32.1911 L114.861,32.1598 L114.861,31.5036 C114.507,31.9515 114.08,32.1807 113.58,32.1911 C112.924,32.1911 112.424,31.9151 112.08,31.363 C111.851,30.988 111.736,30.5505 111.736,30.0505 C111.736,29.2588 111.981,28.6078 112.47,28.0973 C112.856,27.7015 113.304,27.5036 113.814,27.5036 C114.158,27.5036 114.486,27.6286 114.799,27.8786 C114.819,27.8994 114.84,27.9203 114.861,27.9411 L114.861,26.363 C114.861,26.1026 114.799,25.9463 114.674,25.8942 C114.611,25.8734 114.523,25.863 114.408,25.863 C114.304,25.863 114.231,25.863 114.189,25.863 L114.189,25.7067 C114.804,25.5505 115.293,25.4046 115.658,25.2692 L115.705,25.2848 L115.705,30.9411 C115.705,31.2432 115.762,31.4203 115.877,31.4723 C115.939,31.4932 116.028,31.5036 116.142,31.5036 C116.174,31.5036 116.247,31.5036 116.361,31.5036 L116.377,31.5036 L116.377,31.6598 L114.908,32.1911 M113.97,31.6598 C114.325,31.6598 114.59,31.5296 114.767,31.2692 C114.83,31.1859 114.861,31.1182 114.861,31.0661 L114.861,28.7848 C114.861,28.4619 114.71,28.1911 114.408,27.9723 C114.231,27.8578 114.043,27.8005 113.845,27.8005 C113.356,27.8005 113.002,28.0661 112.783,28.5973 C112.658,28.8994 112.595,29.2484 112.595,29.6442 C112.595,30.488 112.819,31.0817 113.267,31.4255 C113.476,31.5817 113.71,31.6598 113.97,31.6598 M118.939,27.5036 C119.679,27.5036 120.262,27.7744 120.689,28.3161 C120.991,28.7223 121.142,29.2015 121.142,29.7536 C121.142,30.5348 120.887,31.1598 120.377,31.6286 C119.96,32.0036 119.476,32.1911 118.924,32.1911 C118.215,32.1911 117.653,31.9203 117.236,31.3786 C116.903,30.9411 116.736,30.4255 116.736,29.8317 C116.736,29.0192 117.012,28.3942 117.564,27.9567 C117.95,27.6546 118.408,27.5036 118.939,27.5036 M117.642,29.3473 C117.642,30.2536 117.83,30.9463 118.205,31.4255 C118.444,31.738 118.726,31.8942 119.049,31.8942 C119.569,31.8942 119.929,31.5973 120.127,31.0036 C120.21,30.7432 120.252,30.4463 120.252,30.113 C120.252,29.2276 120.038,28.5713 119.611,28.1442 C119.382,27.9151 119.116,27.8005 118.814,27.8005 C118.345,27.8005 118.007,28.0401 117.799,28.5192 C117.694,28.7588 117.642,29.0348 117.642,29.3473 M124.502,28.4723 C124.398,28.4723 124.247,28.389 124.049,28.2223 C123.955,28.139 123.882,28.0973 123.83,28.0973 C123.663,28.0973 123.491,28.2276 123.314,28.488 C123.2,28.6546 123.142,28.8005 123.142,28.9255 L123.142,31.1911 C123.142,31.5348 123.231,31.7484 123.408,31.8317 C123.533,31.8942 123.726,31.9307 123.986,31.9411 L123.986,32.0973 L121.58,32.0973 L121.58,31.9411 C121.934,31.8786 122.148,31.7953 122.22,31.6911 C122.273,31.6078 122.299,31.4619 122.299,31.2536 L122.299,28.738 C122.299,28.3734 122.215,28.1755 122.049,28.1442 C122.017,28.1338 121.986,28.1286 121.955,28.1286 C121.84,28.1286 121.726,28.1442 121.611,28.1755 L121.611,28.0192 C122.142,27.8526 122.632,27.6807 123.08,27.5036 L123.142,27.5192 L123.142,28.4098 C123.486,27.9307 123.778,27.6442 124.017,27.5505 C124.122,27.5192 124.226,27.5036 124.33,27.5036 C124.642,27.5036 124.825,27.6338 124.877,27.8942 C124.877,27.9359 124.877,27.9828 124.877,28.0348 C124.845,28.3057 124.72,28.4515 124.502,28.4723 M125.111,28.1755 C124.955,28.1755 124.814,28.1859 124.689,28.2067 L124.689,28.0505 C125.158,27.9151 125.674,27.7328 126.236,27.5036 L126.267,27.5348 L126.267,31.0817 C126.267,31.4671 126.325,31.7067 126.439,31.8005 C126.533,31.8734 126.726,31.9203 127.017,31.9411 L127.017,32.0973 L124.642,32.0973 L124.642,31.9411 C125.007,31.9203 125.236,31.8526 125.33,31.738 C125.403,31.6234 125.439,31.4046 125.439,31.0817 L125.439,28.7536 C125.439,28.3994 125.356,28.2067 125.189,28.1755 C125.158,28.1755 125.132,28.1755 125.111,28.1755 M125.767,25.2692 C125.986,25.2692 126.142,25.3682 126.236,25.5661 C126.267,25.639 126.283,25.7119 126.283,25.7848 C126.283,26.0036 126.179,26.1598 125.97,26.2536 C125.898,26.2744 125.83,26.2848 125.767,26.2848 C125.549,26.2848 125.392,26.1859 125.299,25.988 C125.278,25.9151 125.267,25.8473 125.267,25.7848 C125.267,25.5661 125.361,25.4098 125.549,25.3161 C125.622,25.2848 125.694,25.2692 125.767,25.2692 M127.736,31.1286 C127.736,30.6182 128.054,30.1859 128.689,29.8317 C128.877,29.738 129.377,29.5244 130.189,29.1911 C130.21,29.1911 130.226,29.1859 130.236,29.1755 L130.236,28.5661 C130.184,28.0453 129.929,27.7692 129.47,27.738 C129.158,27.738 128.939,27.8369 128.814,28.0348 C128.773,28.1078 128.752,28.1703 128.752,28.2223 C128.752,28.2848 128.762,28.3682 128.783,28.4723 C128.793,28.5453 128.799,28.5973 128.799,28.6286 C128.799,28.8057 128.71,28.9307 128.533,29.0036 C128.47,29.0348 128.413,29.0505 128.361,29.0505 C128.174,29.0505 128.043,28.9619 127.97,28.7848 C127.939,28.7328 127.924,28.6755 127.924,28.613 C127.924,28.2484 128.142,27.9515 128.58,27.7223 C128.882,27.5765 129.226,27.5036 129.611,27.5036 C130.33,27.5036 130.773,27.7588 130.939,28.2692 C131.012,28.488 131.049,28.764 131.049,29.0973 L131.049,31.0348 C131.049,31.3682 131.111,31.5557 131.236,31.5973 C131.278,31.6078 131.314,31.613 131.345,31.613 C131.491,31.6026 131.637,31.5401 131.783,31.4255 L131.783,31.6755 C131.512,31.988 131.262,32.1598 131.033,32.1911 C130.981,32.1911 130.929,32.1911 130.877,32.1911 C130.564,32.1911 130.366,32.0348 130.283,31.7223 C130.262,31.639 130.252,31.5453 130.252,31.4411 C129.658,31.9203 129.168,32.1703 128.783,32.1911 C128.356,32.1911 128.049,32.0192 127.861,31.6755 C127.778,31.5088 127.736,31.3265 127.736,31.1286 M130.236,30.8473 L130.236,29.4098 C129.413,29.7119 128.908,30.0192 128.72,30.3317 C128.648,30.4776 128.611,30.6338 128.611,30.8005 C128.611,31.1963 128.757,31.4463 129.049,31.5505 C129.122,31.5817 129.189,31.5973 129.252,31.5973 C129.47,31.5869 129.71,31.5088 129.97,31.363 C130.116,31.2796 130.2,31.1755 130.22,31.0505 C130.231,30.988 130.236,30.9203 130.236,30.8473 M131.58,28.113 L131.58,27.9411 C132.08,27.7953 132.543,27.6494 132.97,27.5036 L133.033,27.5192 L133.033,28.3005 C133.512,27.863 133.887,27.6078 134.158,27.5348 C134.262,27.514 134.372,27.5036 134.486,27.5036 C135.028,27.5036 135.387,27.7744 135.564,28.3161 C135.627,28.514 135.658,28.738 135.658,28.988 L135.658,31.2848 C135.658,31.5973 135.731,31.7901 135.877,31.863 C135.97,31.8942 136.101,31.9203 136.267,31.9411 L136.267,32.0973 L134.189,32.0973 L134.189,31.9411 C134.491,31.9203 134.679,31.8213 134.752,31.6442 C134.804,31.5296 134.83,31.3526 134.83,31.113 L134.83,29.0192 C134.809,28.3734 134.564,28.0453 134.095,28.0348 C133.845,28.0348 133.585,28.1494 133.314,28.3786 C133.241,28.4515 133.158,28.5296 133.064,28.613 L133.064,31.4255 C133.064,31.6651 133.163,31.8213 133.361,31.8942 C133.455,31.9151 133.575,31.9307 133.72,31.9411 L133.72,32.0973 L131.611,32.0973 L131.611,31.9411 C131.903,31.9203 132.085,31.8369 132.158,31.6911 C132.2,31.5765 132.22,31.4098 132.22,31.1911 L132.22,28.7067 C132.22,28.3421 132.148,28.139 132.002,28.0973 C131.96,28.0765 131.913,28.0661 131.861,28.0661 C131.736,28.0661 131.642,28.0817 131.58,28.113 M142.158,27.7067 C142.179,27.6963 142.236,27.6598 142.33,27.5973 L142.439,27.5973 L142.47,28.9567 L142.33,28.9567 C142.163,28.3109 141.924,27.9255 141.611,27.8005 C141.497,27.7484 141.366,27.7223 141.22,27.7223 C140.866,27.7223 140.627,27.863 140.502,28.1442 C140.47,28.2276 140.455,28.3161 140.455,28.4098 C140.465,28.6911 140.611,28.9151 140.892,29.0817 L141.97,29.7223 C142.45,30.014 142.72,30.3317 142.783,30.6755 C142.793,30.7484 142.799,30.8317 142.799,30.9255 C142.799,31.3421 142.616,31.6807 142.252,31.9411 C141.991,32.1078 141.705,32.1911 141.392,32.1911 C141.257,32.1911 140.95,32.1442 140.47,32.0505 C140.356,32.0296 140.267,32.0192 140.205,32.0192 C140.101,32.0296 140.023,32.0713 139.97,32.1442 L139.845,32.1442 L139.845,30.5817 L140.002,30.5817 C140.106,31.0505 140.236,31.3786 140.392,31.5661 C140.611,31.8369 140.903,31.9723 141.267,31.9723 C141.694,31.9723 141.96,31.8161 142.064,31.5036 C142.095,31.4307 142.111,31.3473 142.111,31.2536 C142.101,30.9515 141.924,30.7015 141.58,30.5036 L141.002,30.1755 C140.377,29.8213 140.007,29.4671 139.892,29.113 C139.851,28.988 139.83,28.863 139.83,28.738 C139.83,28.2692 140.033,27.9203 140.439,27.6911 C140.668,27.5661 140.918,27.5036 141.189,27.5036 C141.408,27.5036 141.668,27.5557 141.97,27.6598 C142.054,27.6911 142.116,27.7067 142.158,27.7067 M143.736,29.9723 C143.736,29.1286 144.023,28.4671 144.595,27.988 C144.991,27.6651 145.434,27.5036 145.924,27.5036 C146.476,27.5036 146.903,27.6546 147.205,27.9567 C147.382,28.1338 147.47,28.3265 147.47,28.5348 C147.47,28.7119 147.377,28.8369 147.189,28.9098 C147.116,28.9411 147.049,28.9567 146.986,28.9567 C146.778,28.9567 146.627,28.8213 146.533,28.5505 C146.523,28.5296 146.517,28.5088 146.517,28.488 L146.455,28.2692 C146.392,28.0192 146.278,27.8734 146.111,27.8317 C146.038,27.8109 145.955,27.8005 145.861,27.8005 C145.361,27.8005 144.981,28.0401 144.72,28.5192 C144.575,28.8109 144.502,29.1494 144.502,29.5348 C144.502,30.264 144.726,30.8109 145.174,31.1755 C145.434,31.3734 145.726,31.4723 146.049,31.4723 C146.465,31.4723 146.825,31.3057 147.127,30.9723 C147.231,30.8473 147.345,30.7015 147.47,30.5348 L147.611,30.6286 C147.236,31.3473 146.819,31.8161 146.361,32.0348 C146.122,32.139 145.882,32.1911 145.642,32.1911 C144.997,32.1911 144.491,31.9255 144.127,31.3942 C143.866,30.988 143.736,30.514 143.736,29.9723 M147.736,31.1286 C147.736,30.6182 148.054,30.1859 148.689,29.8317 C148.877,29.738 149.377,29.5244 150.189,29.1911 C150.21,29.1911 150.226,29.1859 150.236,29.1755 L150.236,28.5661 C150.184,28.0453 149.929,27.7692 149.47,27.738 C149.158,27.738 148.939,27.8369 148.814,28.0348 C148.773,28.1078 148.752,28.1703 148.752,28.2223 C148.752,28.2848 148.762,28.3682 148.783,28.4723 C148.793,28.5453 148.799,28.5973 148.799,28.6286 C148.799,28.8057 148.71,28.9307 148.533,29.0036 C148.47,29.0348 148.413,29.0505 148.361,29.0505 C148.174,29.0505 148.043,28.9619 147.97,28.7848 C147.939,28.7328 147.924,28.6755 147.924,28.613 C147.924,28.2484 148.142,27.9515 148.58,27.7223 C148.882,27.5765 149.226,27.5036 149.611,27.5036 C150.33,27.5036 150.773,27.7588 150.939,28.2692 C151.012,28.488 151.049,28.764 151.049,29.0973 L151.049,31.0348 C151.049,31.3682 151.111,31.5557 151.236,31.5973 C151.278,31.6078 151.314,31.613 151.345,31.613 C151.491,31.6026 151.637,31.5401 151.783,31.4255 L151.783,31.6755 C151.512,31.988 151.262,32.1598 151.033,32.1911 C150.981,32.1911 150.929,32.1911 150.877,32.1911 C150.564,32.1911 150.366,32.0348 150.283,31.7223 C150.262,31.639 150.252,31.5453 150.252,31.4411 C149.658,31.9203 149.168,32.1703 148.783,32.1911 C148.356,32.1911 148.049,32.0192 147.861,31.6755 C147.778,31.5088 147.736,31.3265 147.736,31.1286 M150.236,30.8473 L150.236,29.4098 C149.413,29.7119 148.908,30.0192 148.72,30.3317 C148.648,30.4776 148.611,30.6338 148.611,30.8005 C148.611,31.1963 148.757,31.4463 149.049,31.5505 C149.122,31.5817 149.189,31.5973 149.252,31.5973 C149.47,31.5869 149.71,31.5088 149.97,31.363 C150.116,31.2796 150.2,31.1755 150.22,31.0505 C150.231,30.988 150.236,30.9203 150.236,30.8473 M151.58,25.863 L151.58,25.7067 C152.247,25.5401 152.778,25.3942 153.174,25.2692 L153.22,25.2848 L153.22,31.2536 C153.22,31.5661 153.283,31.7588 153.408,31.8317 C153.523,31.8838 153.71,31.9203 153.97,31.9411 L153.97,32.0973 L151.611,32.0973 L151.611,31.9411 C151.986,31.9098 152.215,31.8213 152.299,31.6755 C152.351,31.5817 152.377,31.4307 152.377,31.2223 L152.377,26.4567 C152.377,26.1234 152.304,25.9307 152.158,25.8786 C152.095,25.8578 152.028,25.8473 151.955,25.8473 C151.819,25.8473 151.694,25.8526 151.58,25.863 M155.455,29.3317 C155.497,30.5088 155.882,31.2015 156.611,31.4098 C156.736,31.4515 156.872,31.4723 157.017,31.4723 C157.507,31.4723 157.924,31.264 158.267,30.8473 C158.361,30.7328 158.46,30.5973 158.564,30.4411 L158.72,30.5036 C158.356,31.4619 157.783,32.014 157.002,32.1598 C156.866,32.1807 156.736,32.1911 156.611,32.1911 C155.872,32.1911 155.34,31.8786 155.017,31.2536 C154.83,30.8786 154.736,30.4463 154.736,29.9567 C154.736,29.0713 155.012,28.3994 155.564,27.9411 C155.929,27.6494 156.351,27.5036 156.83,27.5036 C157.747,27.5036 158.299,28.0244 158.486,29.0661 C158.507,29.1598 158.523,29.2484 158.533,29.3317 L155.455,29.3317 M155.47,29.0348 L157.517,29.0348 C157.424,28.4619 157.257,28.1078 157.017,27.9723 C156.892,27.9098 156.731,27.8786 156.533,27.8786 C155.939,27.8786 155.585,28.2536 155.47,29.0036 C155.47,29.014 155.47,29.0244 155.47,29.0348 M163.939,27.5036 C164.679,27.5036 165.262,27.7744 165.689,28.3161 C165.991,28.7223 166.142,29.2015 166.142,29.7536 C166.142,30.5348 165.887,31.1598 165.377,31.6286 C164.96,32.0036 164.476,32.1911 163.924,32.1911 C163.215,32.1911 162.653,31.9203 162.236,31.3786 C161.903,30.9411 161.736,30.4255 161.736,29.8317 C161.736,29.0192 162.012,28.3942 162.564,27.9567 C162.95,27.6546 163.408,27.5036 163.939,27.5036 M162.642,29.3473 C162.642,30.2536 162.83,30.9463 163.205,31.4255 C163.444,31.738 163.726,31.8942 164.049,31.8942 C164.569,31.8942 164.929,31.5973 165.127,31.0036 C165.21,30.7432 165.252,30.4463 165.252,30.113 C165.252,29.2276 165.038,28.5713 164.611,28.1442 C164.382,27.9151 164.116,27.8005 163.814,27.8005 C163.345,27.8005 163.007,28.0401 162.799,28.5192 C162.694,28.7588 162.642,29.0348 162.642,29.3473 M166.58,28.113 L166.58,27.9411 C167.08,27.7953 167.543,27.6494 167.97,27.5036 L168.033,27.5192 L168.033,28.3005 C168.512,27.863 168.887,27.6078 169.158,27.5348 C169.262,27.514 169.372,27.5036 169.486,27.5036 C170.028,27.5036 170.387,27.7744 170.564,28.3161 C170.627,28.514 170.658,28.738 170.658,28.988 L170.658,31.2848 C170.658,31.5973 170.731,31.7901 170.877,31.863 C170.97,31.8942 171.101,31.9203 171.267,31.9411 L171.267,32.0973 L169.189,32.0973 L169.189,31.9411 C169.491,31.9203 169.679,31.8213 169.752,31.6442 C169.804,31.5296 169.83,31.3526 169.83,31.113 L169.83,29.0192 C169.809,28.3734 169.564,28.0453 169.095,28.0348 C168.845,28.0348 168.585,28.1494 168.314,28.3786 C168.241,28.4515 168.158,28.5296 168.064,28.613 L168.064,31.4255 C168.064,31.6651 168.163,31.8213 168.361,31.8942 C168.455,31.9151 168.575,31.9307 168.72,31.9411 L168.72,32.0973 L166.611,32.0973 L166.611,31.9411 C166.903,31.9203 167.085,31.8369 167.158,31.6911 C167.2,31.5765 167.22,31.4098 167.22,31.1911 L167.22,28.7067 C167.22,28.3421 167.148,28.139 167.002,28.0973 C166.96,28.0765 166.913,28.0661 166.861,28.0661 C166.736,28.0661 166.642,28.0817 166.58,28.113 M172.455,29.3317 C172.497,30.5088 172.882,31.2015 173.611,31.4098 C173.736,31.4515 173.872,31.4723 174.017,31.4723 C174.507,31.4723 174.924,31.264 175.267,30.8473 C175.361,30.7328 175.46,30.5973 175.564,30.4411 L175.72,30.5036 C175.356,31.4619 174.783,32.014 174.002,32.1598 C173.866,32.1807 173.736,32.1911 173.611,32.1911 C172.872,32.1911 172.34,31.8786 172.017,31.2536 C171.83,30.8786 171.736,30.4463 171.736,29.9567 C171.736,29.0713 172.012,28.3994 172.564,27.9411 C172.929,27.6494 173.351,27.5036 173.83,27.5036 C174.747,27.5036 175.299,28.0244 175.486,29.0661 C175.507,29.1598 175.523,29.2484 175.533,29.3317 L172.455,29.3317 M172.47,29.0348 L174.517,29.0348 C174.424,28.4619 174.257,28.1078 174.017,27.9723 C173.892,27.9098 173.731,27.8786 173.533,27.8786 C172.939,27.8786 172.585,28.2536 172.47,29.0036 C172.47,29.014 172.47,29.0244 172.47,29.0348 M180.939,27.5036 C181.679,27.5036 182.262,27.7744 182.689,28.3161 C182.991,28.7223 183.142,29.2015 183.142,29.7536 C183.142,30.5348 182.887,31.1598 182.377,31.6286 C181.96,32.0036 181.476,32.1911 180.924,32.1911 C180.215,32.1911 179.653,31.9203 179.236,31.3786 C178.903,30.9411 178.736,30.4255 178.736,29.8317 C178.736,29.0192 179.012,28.3942 179.564,27.9567 C179.95,27.6546 180.408,27.5036 180.939,27.5036 M179.642,29.3473 C179.642,30.2536 179.83,30.9463 180.205,31.4255 C180.444,31.738 180.726,31.8942 181.049,31.8942 C181.569,31.8942 181.929,31.5973 182.127,31.0036 C182.21,30.7432 182.252,30.4463 182.252,30.113 C182.252,29.2276 182.038,28.5713 181.611,28.1442 C181.382,27.9151 181.116,27.8005 180.814,27.8005 C180.345,27.8005 180.007,28.0401 179.799,28.5192 C179.694,28.7588 179.642,29.0348 179.642,29.3473 M183.736,29.9723 C183.736,29.1286 184.023,28.4671 184.595,27.988 C184.991,27.6651 185.434,27.5036 185.924,27.5036 C186.476,27.5036 186.903,27.6546 187.205,27.9567 C187.382,28.1338 187.47,28.3265 187.47,28.5348 C187.47,28.7119 187.377,28.8369 187.189,28.9098 C187.116,28.9411 187.049,28.9567 186.986,28.9567 C186.778,28.9567 186.627,28.8213 186.533,28.5505 C186.523,28.5296 186.517,28.5088 186.517,28.488 L186.455,28.2692 C186.392,28.0192 186.278,27.8734 186.111,27.8317 C186.038,27.8109 185.955,27.8005 185.861,27.8005 C185.361,27.8005 184.981,28.0401 184.72,28.5192 C184.575,28.8109 184.502,29.1494 184.502,29.5348 C184.502,30.264 184.726,30.8109 185.174,31.1755 C185.434,31.3734 185.726,31.4723 186.049,31.4723 C186.465,31.4723 186.825,31.3057 187.127,30.9723 C187.231,30.8473 187.345,30.7015 187.47,30.5348 L187.611,30.6286 C187.236,31.3473 186.819,31.8161 186.361,32.0348 C186.122,32.139 185.882,32.1911 185.642,32.1911 C184.997,32.1911 184.491,31.9255 184.127,31.3942 C183.866,30.988 183.736,30.514 183.736,29.9723 M190.08,27.5973 L190.08,27.8942 L189.064,27.8942 L189.064,30.7536 C189.064,31.2953 189.2,31.5921 189.47,31.6442 C189.502,31.6546 189.538,31.6598 189.58,31.6598 C189.788,31.6494 189.991,31.5296 190.189,31.3005 L190.314,31.4255 C189.991,31.9359 189.59,32.1911 189.111,32.1911 C188.528,32.1807 188.231,31.7588 188.22,30.9255 L188.22,27.8942 L187.689,27.8942 C187.668,27.8734 187.658,27.8526 187.658,27.8317 C187.658,27.7901 187.7,27.7484 187.783,27.7067 C188.064,27.5192 188.398,27.1546 188.783,26.613 C188.793,26.6026 188.799,26.5973 188.799,26.5973 C188.903,26.4411 188.97,26.3473 189.002,26.3161 C189.043,26.3265 189.064,26.3682 189.064,26.4411 L189.064,27.5973 L190.08,27.5973 M190.736,31.1286 C190.736,30.6182 191.054,30.1859 191.689,29.8317 C191.877,29.738 192.377,29.5244 193.189,29.1911 C193.21,29.1911 193.226,29.1859 193.236,29.1755 L193.236,28.5661 C193.184,28.0453 192.929,27.7692 192.47,27.738 C192.158,27.738 191.939,27.8369 191.814,28.0348 C191.773,28.1078 191.752,28.1703 191.752,28.2223 C191.752,28.2848 191.762,28.3682 191.783,28.4723 C191.793,28.5453 191.799,28.5973 191.799,28.6286 C191.799,28.8057 191.71,28.9307 191.533,29.0036 C191.47,29.0348 191.413,29.0505 191.361,29.0505 C191.174,29.0505 191.043,28.9619 190.97,28.7848 C190.939,28.7328 190.924,28.6755 190.924,28.613 C190.924,28.2484 191.142,27.9515 191.58,27.7223 C191.882,27.5765 192.226,27.5036 192.611,27.5036 C193.33,27.5036 193.773,27.7588 193.939,28.2692 C194.012,28.488 194.049,28.764 194.049,29.0973 L194.049,31.0348 C194.049,31.3682 194.111,31.5557 194.236,31.5973 C194.278,31.6078 194.314,31.613 194.345,31.613 C194.491,31.6026 194.637,31.5401 194.783,31.4255 L194.783,31.6755 C194.512,31.988 194.262,32.1598 194.033,32.1911 C193.981,32.1911 193.929,32.1911 193.877,32.1911 C193.564,32.1911 193.366,32.0348 193.283,31.7223 C193.262,31.639 193.252,31.5453 193.252,31.4411 C192.658,31.9203 192.168,32.1703 191.783,32.1911 C191.356,32.1911 191.049,32.0192 190.861,31.6755 C190.778,31.5088 190.736,31.3265 190.736,31.1286 M193.236,30.8473 L193.236,29.4098 C192.413,29.7119 191.908,30.0192 191.72,30.3317 C191.648,30.4776 191.611,30.6338 191.611,30.8005 C191.611,31.1963 191.757,31.4463 192.049,31.5505 C192.122,31.5817 192.189,31.5973 192.252,31.5973 C192.47,31.5869 192.71,31.5088 192.97,31.363 C193.116,31.2796 193.2,31.1755 193.22,31.0505 C193.231,30.988 193.236,30.9203 193.236,30.8473 M199.111,27.5973 L199.111,27.7536 C198.944,27.7744 198.819,27.8421 198.736,27.9567 C198.663,28.0609 198.575,28.2536 198.47,28.5348 L197.189,31.738 C197.054,32.0609 196.96,32.2276 196.908,32.238 C196.835,32.238 196.752,32.0921 196.658,31.8005 C196.648,31.7901 196.642,31.7796 196.642,31.7692 L195.439,28.8942 C195.189,28.3005 195.002,27.9515 194.877,27.8473 C194.793,27.7848 194.679,27.7536 194.533,27.7536 L194.533,27.5973 L196.502,27.5973 L196.502,27.7536 C196.22,27.7744 196.069,27.8473 196.049,27.9723 C196.038,27.9932 196.033,28.014 196.033,28.0348 C196.033,28.1494 196.064,28.2692 196.127,28.3942 L197.142,30.9567 L198.127,28.363 C198.168,28.2692 198.189,28.1703 198.189,28.0661 C198.189,27.889 198.043,27.7848 197.752,27.7536 C197.741,27.7536 197.731,27.7536 197.72,27.7536 L197.72,27.5973 L199.111,27.5973 M200.455,29.3317 C200.497,30.5088 200.882,31.2015 201.611,31.4098 C201.736,31.4515 201.872,31.4723 202.017,31.4723 C202.507,31.4723 202.924,31.264 203.267,30.8473 C203.361,30.7328 203.46,30.5973 203.564,30.4411 L203.72,30.5036 C203.356,31.4619 202.783,32.014 202.002,32.1598 C201.866,32.1807 201.736,32.1911 201.611,32.1911 C200.872,32.1911 200.34,31.8786 200.017,31.2536 C199.83,30.8786 199.736,30.4463 199.736,29.9567 C199.736,29.0713 200.012,28.3994 200.564,27.9411 C200.929,27.6494 201.351,27.5036 201.83,27.5036 C202.747,27.5036 203.299,28.0244 203.486,29.0661 C203.507,29.1598 203.523,29.2484 203.533,29.3317 L200.455,29.3317 M200.47,29.0348 L202.517,29.0348 C202.424,28.4619 202.257,28.1078 202.017,27.9723 C201.892,27.9098 201.731,27.8786 201.533,27.8786 C200.939,27.8786 200.585,28.2536 200.47,29.0036 C200.47,29.014 200.47,29.0244 200.47,29.0348"/>
</svg>
