<?xml version="1.0" encoding="UTF-8" standalone="no"?>
<svg width="595.44px" height="841.68px" viewBox="0 0 595.44 841.68"
 xmlns="http://www.w3.org/2000/svg" xmlns:xlink="http://www.w3.org/1999/xlink" version="1.2" baseProfile="tiny">
<title>Guitar Scales and Arpeggios</title>
<desc>Generated by MuseScore 2.1.0</desc>
<polyline class="StaffLines" fill="none" stroke="#000000" stroke-width="0.40" stroke-linejoin="bevel" points="28.08,62.856 567.36,62.856"/>
<polyline class="StaffLines" fill="none" stroke="#000000" stroke-width="0.40" stroke-linejoin="bevel" points="28.08,67.824 567.36,67.824"/>
<polyline class="StaffLines" fill="none" stroke="#000000" stroke-width="0.40" stroke-linejoin="bevel" points="28.08,72.792 567.36,72.792"/>
<polyline class="StaffLines" fill="none" stroke="#000000" stroke-width="0.40" stroke-linejoin="bevel" points="28.08,77.76 567.36,77.76"/>
<polyline class="StaffLines" fill="none" stroke="#000000" stroke-width="0.40" stroke-linejoin="bevel" points="28.08,82.728 567.36,82.728"/>
<polyline class="StaffLines" fill="none" stroke="#000000" stroke-width="0.40" stroke-linejoin="bevel" points="28.08,115.02 567.36,115.02"/>
<polyline class="StaffLines" fill="none" stroke="#000000" stroke-width="0.40" stroke-linejoin="bevel" points="28.08,122.472 567.36,122.472"/>
<polyline class="StaffLines" fill="none" stroke="#000000" stroke-width="0.40" stroke-linejoin="bevel" points="28.08,129.924 567.36,129.924"/>
<polyline class="StaffLines" fill="none" stroke="#000000" stroke-width="0.40" stroke-linejoin="bevel" points="28.08,137.376 567.36,137.376"/>
<polyline class="StaffLines" fill="none" stroke="#000000" stroke-width="0.40" stroke-linejoin="bevel" points="28.08,144.828 567.36,144.828"/>
<polyline class="StaffLines" fill="none" stroke="#000000" stroke-width="0.40" stroke-linejoin="bevel" points="28.08,152.28 567.36,152.28"/>
<polyline class="BarLine" fill="none" stroke="#000000" stroke-width="0.79" stroke-linejoin="bevel" points="28.4774,62.856 28.4774,152.28"/>
<polyline class="BarLine" fill="none" stroke="#000000" stroke-width="0.79" stroke-linejoin="bevel" points="562.491,115.02 562.491,152.28"/>
<polyline class="BarLine" fill="none" stroke="#000000" stroke-width="2.48" stroke-linejoin="bevel" points="566.118,115.02 566.118,152.28"/>
<polyline class="BarLine" fill="none" stroke="#000000" stroke-width="0.79" stroke-linejoin="bevel" points="562.491,62.856 562.491,82.728"/>
<polyline class="BarLine" fill="none" stroke="#000000" stroke-width="2.48" stroke-linejoin="bevel" points="566.118,62.856 566.118,82.728"/>
<polyline class="Stem" fill="none" stroke="#000000" stroke-width="0.65" stroke-linecap="round" stroke-linejoin="bevel" points="464.146,81.9649 464.146,65.34"/>
<polyline class="Stem" fill="none" stroke="#000000" stroke-width="0.65" stroke-linecap="round" stroke-linejoin="bevel" points="398.751,76.8269 398.751,60.993"/>
<polyline class="Stem" fill="none" stroke="#000000" stroke-width="0.65" stroke-linecap="round" stroke-linejoin="bevel" points="327.641,73.7251 327.641,88.317"/>
<polyline class="Stem" fill="none" stroke="#000000" stroke-width="0.65" stroke-linecap="round" stroke-linejoin="bevel" points="262.425,66.2731 262.425,82.728"/>
<polyline class="Stem" fill="none" stroke="#000000" stroke-width="0.65" stroke-linecap="round" stroke-linejoin="bevel" points="197.21,73.7251 197.21,88.317"/>
<polyline class="Stem" fill="none" stroke="#000000" stroke-width="0.65" stroke-linecap="round" stroke-linejoin="bevel" points="137.889,76.8269 137.889,60.993"/>
<polyline class="Stem" fill="none" stroke="#000000" stroke-width="0.65" stroke-linecap="round" stroke-linejoin="bevel" points="72.6732,81.7949 72.6732,65.34"/>
<path class="Note" fill="#ffffff" fill-rule="evenodd" d="M458.494,133.65 L464.456,133.65 L464.456,141.102 L458.494,141.102 L458.494,133.65 "/>
<path class="Note" transform="matrix(0.9936,0,0,0.9936,458.991,140.854)" d="M0.453125,-4.17188 C0.494792,-5.64063 1.19792,-6.38021 2.5625,-6.39063 C3.28125,-6.39063 3.83333,-6.14583 4.21875,-5.65625 C4.46875,-5.32292 4.59375,-4.93229 4.59375,-4.48438 C4.59375,-3.68229 4.14583,-3.03125 3.25,-2.53125 L2.34375,-2.04688 C1.79167,-1.75521 1.44271,-1.4375 1.29688,-1.09375 C1.24479,-0.989583 1.21354,-0.869792 1.20313,-0.734375 L4.5625,-0.734375 L4.5625,0 L0.3125,0 C0.354167,-0.760417 0.520833,-1.33854 0.8125,-1.73438 C1.07292,-2.05729 1.5,-2.38542 2.09375,-2.71875 L2.92188,-3.1875 C3.49479,-3.52083 3.78646,-3.94271 3.79688,-4.45313 C3.79688,-4.88021 3.61458,-5.21354 3.25,-5.45313 C3.04167,-5.57813 2.80208,-5.64063 2.53125,-5.64063 C1.73958,-5.64063 1.3125,-5.16667 1.25,-4.21875 C1.25,-4.19792 1.25,-4.18229 1.25,-4.17188 L0.453125,-4.17188 "/>
<path class="Note" fill="#ff9933" transform="matrix(0.9936,0,0,0.9936,457.57,82.728)" d="M6.3125,-1.3125 C6.3125,-1.53125 6.22917,-1.71875 6.0625,-1.875 C5.88542,-2.04167 5.6875,-2.125 5.46875,-2.125 C5.08333,-2.125 4.29688,-1.73438 3.10938,-0.953125 C1.88021,-0.161458 1.13021,0.40625 0.859375,0.75 C0.713542,0.927083 0.640625,1.11458 0.640625,1.3125 C0.640625,1.53125 0.729167,1.71875 0.90625,1.875 C1.0625,2.04167 1.25521,2.125 1.48438,2.125 C1.85938,2.125 2.65625,1.73438 3.875,0.953125 C5.07292,0.171875 5.8125,-0.395833 6.09375,-0.75 C6.23958,-0.916667 6.3125,-1.10417 6.3125,-1.3125 M5.28125,-2.75 C6.39583,-2.75 6.95313,-2.27083 6.95313,-1.3125 C6.95313,-0.84375 6.81771,-0.296875 6.54688,0.328125 C6.27604,0.942708 5.91146,1.41146 5.45313,1.73438 C4.45313,2.41146 3.19792,2.75 1.6875,2.75 C0.5625,2.75 0,2.27083 0,1.3125 C0,0.885417 0.135417,0.34375 0.40625,-0.3125 C0.666667,-0.9375 1.03125,-1.41146 1.5,-1.73438 C2.51042,-2.41146 3.77083,-2.75 5.28125,-2.75"/>
<path class="Note" fill="#ffffff" fill-rule="evenodd" d="M393.279,126.198 L399.24,126.198 L399.24,133.65 L393.279,133.65 L393.279,126.198 "/>
<path class="Note" transform="matrix(0.9936,0,0,0.9936,393.775,133.402)" d="M0.390625,-3.09375 C0.390625,-5 0.927083,-6.07813 2,-6.32813 C2.14583,-6.36979 2.30208,-6.39063 2.46875,-6.39063 C3.78125,-6.39063 4.47917,-5.40104 4.5625,-3.42188 C4.5625,-3.28646 4.5625,-3.15625 4.5625,-3.03125 C4.5625,-1.40625 4.15104,-0.385417 3.32813,0.03125 C3.06771,0.145833 2.78125,0.203125 2.46875,0.203125 C1.41667,0.203125 0.760417,-0.442708 0.5,-1.73438 C0.427083,-2.14063 0.390625,-2.59375 0.390625,-3.09375 M2.46875,-5.64063 C1.625,-5.63021 1.20313,-4.77083 1.20313,-3.0625 C1.20313,-1.32292 1.61979,-0.453125 2.45313,-0.453125 C3.16146,-0.453125 3.57813,-1.02604 3.70313,-2.17188 C3.73438,-2.44271 3.75,-2.75 3.75,-3.09375 C3.75,-4.79167 3.32292,-5.64063 2.46875,-5.64063"/>
<path class="Note" fill="#99cc33" transform="matrix(0.9936,0,0,0.9936,392.533,77.76)" d="M4.39063,-2.75 C5.01563,-2.75 5.54688,-2.58854 5.98438,-2.26563 C6.38021,-1.91146 6.57813,-1.46875 6.57813,-0.9375 C6.57813,-0.0416667 6.11979,0.796875 5.20313,1.57813 C4.26563,2.35938 3.26042,2.75 2.1875,2.75 C1.5625,2.75 1.03646,2.58854 0.609375,2.26563 C0.203125,1.91146 0,1.46875 0,0.9375 C0,0.0416667 0.46875,-0.796875 1.40625,-1.57813 C2.32292,-2.35938 3.31771,-2.75 4.39063,-2.75"/>
<path class="Note" fill="#ffffff" fill-rule="evenodd" d="M328.063,118.746 L334.025,118.746 L334.025,126.198 L328.063,126.198 L328.063,118.746 "/>
<path class="Note" transform="matrix(0.9936,0,0,0.9936,328.56,125.95)" d="M0.390625,-3.09375 C0.390625,-5 0.927083,-6.07813 2,-6.32813 C2.14583,-6.36979 2.30208,-6.39063 2.46875,-6.39063 C3.78125,-6.39063 4.47917,-5.40104 4.5625,-3.42188 C4.5625,-3.28646 4.5625,-3.15625 4.5625,-3.03125 C4.5625,-1.40625 4.15104,-0.385417 3.32813,0.03125 C3.06771,0.145833 2.78125,0.203125 2.46875,0.203125 C1.41667,0.203125 0.760417,-0.442708 0.5,-1.73438 C0.427083,-2.14063 0.390625,-2.59375 0.390625,-3.09375 M2.46875,-5.64063 C1.625,-5.63021 1.20313,-4.77083 1.20313,-3.0625 C1.20313,-1.32292 1.61979,-0.453125 2.45313,-0.453125 C3.16146,-0.453125 3.57813,-1.02604 3.70313,-2.17188 C3.73438,-2.44271 3.75,-2.75 3.75,-3.09375 C3.75,-4.79167 3.32292,-5.64063 2.46875,-5.64063"/>
<path class="Note" fill="#ff9ee6" transform="matrix(0.9936,0,0,0.9936,327.318,72.792)" d="M4.39063,-2.75 C5.01563,-2.75 5.54688,-2.58854 5.98438,-2.26563 C6.38021,-1.91146 6.57813,-1.46875 6.57813,-0.9375 C6.57813,-0.0416667 6.11979,0.796875 5.20313,1.57813 C4.26563,2.35938 3.26042,2.75 2.1875,2.75 C1.5625,2.75 1.03646,2.58854 0.609375,2.26563 C0.203125,1.91146 0,1.46875 0,0.9375 C0,0.0416667 0.46875,-0.796875 1.40625,-1.57813 C2.32292,-2.35938 3.31771,-2.75 4.39063,-2.75"/>
<path class="Note" fill="#ffffff" fill-rule="evenodd" d="M262.847,111.294 L268.809,111.294 L268.809,118.746 L262.847,118.746 L262.847,111.294 "/>
<path class="Note" transform="matrix(0.9936,0,0,0.9936,263.344,118.498)" d="M0.390625,-3.09375 C0.390625,-5 0.927083,-6.07813 2,-6.32813 C2.14583,-6.36979 2.30208,-6.39063 2.46875,-6.39063 C3.78125,-6.39063 4.47917,-5.40104 4.5625,-3.42188 C4.5625,-3.28646 4.5625,-3.15625 4.5625,-3.03125 C4.5625,-1.40625 4.15104,-0.385417 3.32813,0.03125 C3.06771,0.145833 2.78125,0.203125 2.46875,0.203125 C1.41667,0.203125 0.760417,-0.442708 0.5,-1.73438 C0.427083,-2.14063 0.390625,-2.59375 0.390625,-3.09375 M2.46875,-5.64063 C1.625,-5.63021 1.20313,-4.77083 1.20313,-3.0625 C1.20313,-1.32292 1.61979,-0.453125 2.45313,-0.453125 C3.16146,-0.453125 3.57813,-1.02604 3.70313,-2.17188 C3.73438,-2.44271 3.75,-2.75 3.75,-3.09375 C3.75,-4.79167 3.32292,-5.64063 2.46875,-5.64063"/>
<path class="Note" fill="#ff9933" transform="matrix(0.9936,0,0,0.9936,262.102,65.34)" d="M4.39063,-2.75 C5.01563,-2.75 5.54688,-2.58854 5.98438,-2.26563 C6.38021,-1.91146 6.57813,-1.46875 6.57813,-0.9375 C6.57813,-0.0416667 6.11979,0.796875 5.20313,1.57813 C4.26563,2.35938 3.26042,2.75 2.1875,2.75 C1.5625,2.75 1.03646,2.58854 0.609375,2.26563 C0.203125,1.91146 0,1.46875 0,0.9375 C0,0.0416667 0.46875,-0.796875 1.40625,-1.57813 C2.32292,-2.35938 3.31771,-2.75 4.39063,-2.75"/>
<path class="Note" fill="#ffffff" fill-rule="evenodd" d="M197.632,118.746 L203.593,118.746 L203.593,126.198 L197.632,126.198 L197.632,118.746 "/>
<path class="Note" transform="matrix(0.9936,0,0,0.9936,198.129,125.95)" d="M0.390625,-3.09375 C0.390625,-5 0.927083,-6.07813 2,-6.32813 C2.14583,-6.36979 2.30208,-6.39063 2.46875,-6.39063 C3.78125,-6.39063 4.47917,-5.40104 4.5625,-3.42188 C4.5625,-3.28646 4.5625,-3.15625 4.5625,-3.03125 C4.5625,-1.40625 4.15104,-0.385417 3.32813,0.03125 C3.06771,0.145833 2.78125,0.203125 2.46875,0.203125 C1.41667,0.203125 0.760417,-0.442708 0.5,-1.73438 C0.427083,-2.14063 0.390625,-2.59375 0.390625,-3.09375 M2.46875,-5.64063 C1.625,-5.63021 1.20313,-4.77083 1.20313,-3.0625 C1.20313,-1.32292 1.61979,-0.453125 2.45313,-0.453125 C3.16146,-0.453125 3.57813,-1.02604 3.70313,-2.17188 C3.73438,-2.44271 3.75,-2.75 3.75,-3.09375 C3.75,-4.79167 3.32292,-5.64063 2.46875,-5.64063"/>
<path class="Note" fill="#ff9ee6" transform="matrix(0.9936,0,0,0.9936,196.887,72.792)" d="M4.39063,-2.75 C5.01563,-2.75 5.54688,-2.58854 5.98438,-2.26563 C6.38021,-1.91146 6.57813,-1.46875 6.57813,-0.9375 C6.57813,-0.0416667 6.11979,0.796875 5.20313,1.57813 C4.26563,2.35938 3.26042,2.75 2.1875,2.75 C1.5625,2.75 1.03646,2.58854 0.609375,2.26563 C0.203125,1.91146 0,1.46875 0,0.9375 C0,0.0416667 0.46875,-0.796875 1.40625,-1.57813 C2.32292,-2.35938 3.31771,-2.75 4.39063,-2.75"/>
<path class="Note" fill="#ffffff" fill-rule="evenodd" d="M132.416,126.198 L138.378,126.198 L138.378,133.65 L132.416,133.65 L132.416,126.198 "/>
<path class="Note" transform="matrix(0.9936,0,0,0.9936,132.913,133.402)" d="M0.390625,-3.09375 C0.390625,-5 0.927083,-6.07813 2,-6.32813 C2.14583,-6.36979 2.30208,-6.39063 2.46875,-6.39063 C3.78125,-6.39063 4.47917,-5.40104 4.5625,-3.42188 C4.5625,-3.28646 4.5625,-3.15625 4.5625,-3.03125 C4.5625,-1.40625 4.15104,-0.385417 3.32813,0.03125 C3.06771,0.145833 2.78125,0.203125 2.46875,0.203125 C1.41667,0.203125 0.760417,-0.442708 0.5,-1.73438 C0.427083,-2.14063 0.390625,-2.59375 0.390625,-3.09375 M2.46875,-5.64063 C1.625,-5.63021 1.20313,-4.77083 1.20313,-3.0625 C1.20313,-1.32292 1.61979,-0.453125 2.45313,-0.453125 C3.16146,-0.453125 3.57813,-1.02604 3.70313,-2.17188 C3.73438,-2.44271 3.75,-2.75 3.75,-3.09375 C3.75,-4.79167 3.32292,-5.64063 2.46875,-5.64063"/>
<path class="Note" fill="#99cc33" transform="matrix(0.9936,0,0,0.9936,131.671,77.76)" d="M4.39063,-2.75 C5.01563,-2.75 5.54688,-2.58854 5.98438,-2.26563 C6.38021,-1.91146 6.57813,-1.46875 6.57813,-0.9375 C6.57813,-0.0416667 6.11979,0.796875 5.20313,1.57813 C4.26563,2.35938 3.26042,2.75 2.1875,2.75 C1.5625,2.75 1.03646,2.58854 0.609375,2.26563 C0.203125,1.91146 0,1.46875 0,0.9375 C0,0.0416667 0.46875,-0.796875 1.40625,-1.57813 C2.32292,-2.35938 3.31771,-2.75 4.39063,-2.75"/>
<path class="Note" fill="#ffffff" fill-rule="evenodd" d="M67.2007,133.65 L73.1623,133.65 L73.1623,141.102 L67.2007,141.102 L67.2007,133.65 "/>
<path class="Note" transform="matrix(0.9936,0,0,0.9936,67.6975,140.854)" d="M0.453125,-4.17188 C0.494792,-5.64063 1.19792,-6.38021 2.5625,-6.39063 C3.28125,-6.39063 3.83333,-6.14583 4.21875,-5.65625 C4.46875,-5.32292 4.59375,-4.93229 4.59375,-4.48438 C4.59375,-3.68229 4.14583,-3.03125 3.25,-2.53125 L2.34375,-2.04688 C1.79167,-1.75521 1.44271,-1.4375 1.29688,-1.09375 C1.24479,-0.989583 1.21354,-0.869792 1.20313,-0.734375 L4.5625,-0.734375 L4.5625,0 L0.3125,0 C0.354167,-0.760417 0.520833,-1.33854 0.8125,-1.73438 C1.07292,-2.05729 1.5,-2.38542 2.09375,-2.71875 L2.92188,-3.1875 C3.49479,-3.52083 3.78646,-3.94271 3.79688,-4.45313 C3.79688,-4.88021 3.61458,-5.21354 3.25,-5.45313 C3.04167,-5.57813 2.80208,-5.64063 2.53125,-5.64063 C1.73958,-5.64063 1.3125,-5.16667 1.25,-4.21875 C1.25,-4.19792 1.25,-4.18229 1.25,-4.17188 L0.453125,-4.17188 "/>
<path class="Note" fill="#ff9933" transform="matrix(0.9936,0,0,0.9936,66.4555,82.728)" d="M4.39063,-2.75 C5.01563,-2.75 5.54688,-2.58854 5.98438,-2.26563 C6.38021,-1.91146 6.57813,-1.46875 6.57813,-0.9375 C6.57813,-0.0416667 6.11979,0.796875 5.20313,1.57813 C4.26563,2.35938 3.26042,2.75 2.1875,2.75 C1.5625,2.75 1.03646,2.58854 0.609375,2.26563 C0.203125,1.91146 0,1.46875 0,0.9375 C0,0.0416667 0.46875,-0.796875 1.40625,-1.57813 C2.32292,-2.35938 3.31771,-2.75 4.39063,-2.75"/>
<path class="Clef" transform="matrix(0.9936,0,0,0.9936,32.0544,133.65)" d="M5.32813,8.5 C5.32813,8.86458 5.04167,9.04688 4.46875,9.04688 C4.02083,9.04688 3.625,8.91146 3.28125,8.64063 C2.95833,8.34896 2.79688,7.98438 2.79688,7.54688 C2.79688,6.76563 3.27083,6.14063 4.21875,5.67188 C5.14583,5.18229 6.23438,4.9375 7.48438,4.9375 C7.96354,4.9375 8.47917,4.97396 9.03125,5.04688 C9.42708,5.09896 9.875,5.20313 10.375,5.35938 C10.8125,5.49479 11.1563,5.70573 11.4063,5.99219 C11.6563,6.27865 11.7813,6.61458 11.7813,7 C11.7813,7.89583 11.3177,8.63021 10.3906,9.20313 C11.7448,9.45313 12.4271,10.0573 12.4375,11.0156 C12.4375,11.8281 12.0729,12.5599 11.3438,13.2109 C10.6146,13.862 9.79167,14.1875 8.875,14.1875 C8.47917,14.1875 8.07813,14.0938 7.67188,13.9063 C7.29688,13.7292 7.03125,13.5625 6.875,13.4063 C6.71875,13.2188 6.64063,13.0781 6.64063,12.9844 C6.64063,12.8594 6.70833,12.75 6.84375,12.6563 C6.95833,12.5417 7.07813,12.4844 7.20313,12.4844 C7.25521,12.4844 7.36719,12.5677 7.53906,12.7344 C7.71094,12.901 7.95833,12.9844 8.28125,12.9844 C8.72917,12.9844 9.16146,12.7969 9.57813,12.4219 C9.97396,12.0573 10.1719,11.6198 10.1719,11.1094 C10.1719,10.6719 9.98438,10.3542 9.60938,10.1563 C9.24479,9.95833 8.76563,9.85938 8.17188,9.85938 C8.06771,9.85938 8.01563,9.75 8.01563,9.53125 C8.01563,9.21875 8.13021,9.0625 8.35938,9.0625 C8.72396,9.0625 9.05208,8.90625 9.34375,8.59375 C9.61458,8.26042 9.75,7.90104 9.75,7.51563 C9.75,7.40104 9.71875,7.22917 9.65625,7 C9.60417,6.84375 9.44792,6.65104 9.1875,6.42188 C8.9375,6.21354 8.58854,6.07292 8.14063,6 C8.02604,6.63542 7.88021,7.44792 7.70313,8.4375 C7.52604,9.42708 7.40625,10.0781 7.34375,10.3906 C7.125,11.5156 6.72396,12.4583 6.14063,13.2188 C5.52604,14.0313 4.86458,14.4375 4.15625,14.4375 C3.9375,14.4375 3.71354,14.3854 3.48438,14.2813 C3.29688,14.1979 3.0625,14.0365 2.78125,13.7969 C2.52083,13.5885 2.34375,13.4479 2.25,13.375 C2.19792,13.3438 2.17188,13.2865 2.17188,13.2031 C2.17188,13.0781 2.21875,12.9635 2.3125,12.8594 C2.41667,12.7344 2.52604,12.6719 2.64063,12.6719 C2.71354,12.6719 2.89323,12.7969 3.17969,13.0469 C3.46615,13.2969 3.76563,13.4219 4.07813,13.4219 C4.68229,13.4219 5.13542,13.0365 5.4375,12.2656 C5.71875,11.526 5.85938,10.6094 5.85938,9.51563 L5.85938,9.35938 C5.85938,8.63021 5.97917,7.54167 6.21875,6.09375 C5.80208,6.22917 5.46875,6.42708 5.21875,6.6875 C4.95833,6.94792 4.82813,7.21875 4.82813,7.5 C4.82813,7.71875 4.91146,7.90625 5.07813,8.0625 C5.24479,8.21875 5.32813,8.36458 5.32813,8.5 M1.40625,2.39063 C1.46875,2.39063 1.625,2.45313 1.875,2.57813 C2.13542,2.71354 2.35938,2.78125 2.54688,2.78125 C3.03646,2.78125 3.64063,2.42188 4.35938,1.70313 C6.43229,-0.411458 7.85938,-2.65104 8.64063,-5.01563 C8.79688,-5.51563 9.17708,-5.76563 9.78125,-5.76563 C10.0938,-5.76563 10.3646,-5.69792 10.5938,-5.5625 C10.8125,-5.42708 10.9219,-5.28646 10.9219,-5.14063 L10.5625,2.17188 C10.5625,2.55729 10.7031,2.75 10.9844,2.75 C11.1198,2.75 11.3281,2.6875 11.6094,2.5625 C11.8698,2.42708 12.026,2.35938 12.0781,2.35938 C12.1823,2.35938 12.2448,2.47396 12.2656,2.70313 C12.2656,2.91146 12.1823,3.04167 12.0156,3.09375 C11.8802,3.125 11.6198,3.24479 11.2344,3.45313 C10.8281,3.66146 10.5104,3.76563 10.2813,3.76563 C9.78125,3.76563 9.42708,3.375 9.21875,2.59375 C8.89583,1.375 8.6875,0.104167 8.59375,-1.21875 C8.07292,-0.552083 7.49479,0.119792 6.85938,0.796875 C7.08854,1.24479 7.51563,1.46875 8.14063,1.46875 C8.23438,1.46875 8.30729,1.46354 8.35938,1.45313 L8.375,1.45313 C8.47917,1.45313 8.53125,1.54688 8.53125,1.73438 C8.53125,1.98438 8.44792,2.13542 8.28125,2.1875 C8.01042,2.28125 7.72396,2.32813 7.42188,2.32813 C6.77604,2.32813 6.30729,2.10417 6.01563,1.65625 L5.23438,2.35938 C4.14063,3.29688 3.25,3.76563 2.5625,3.76563 C2.375,3.76563 2.1875,3.73438 2,3.67188 C1.84375,3.60938 1.66146,3.51042 1.45313,3.375 C1.36979,3.34375 1.27865,3.29688 1.17969,3.23438 C1.08073,3.17188 1.02083,3.13542 1,3.125 C0.9375,3.10417 0.90625,3.04688 0.90625,2.95313 C0.90625,2.84896 0.958333,2.72396 1.0625,2.57813 C1.14583,2.45313 1.26042,2.39063 1.40625,2.39063 M5.76563,-10.7969 C5.76563,-10.474 5.48438,-10.3125 4.92188,-10.3125 C4.43229,-10.3125 4.00521,-10.474 3.64063,-10.7969 C3.28646,-11.1302 3.10938,-11.5313 3.10938,-12 C3.10938,-12.4479 3.25,-12.8385 3.53125,-13.1719 C3.83333,-13.5052 4.21875,-13.7552 4.6875,-13.9219 C5.11458,-14.0781 5.59896,-14.2031 6.14063,-14.2969 C6.69271,-14.3594 7.22396,-14.3906 7.73438,-14.3906 C8.03646,-14.3906 8.59896,-14.2552 9.42188,-13.9844 C10.2552,-13.7135 10.8333,-13.5781 11.1563,-13.5781 C11.5625,-13.5781 11.9479,-13.651 12.3125,-13.7969 C12.6042,-13.9219 12.8906,-14.0677 13.1719,-14.2344 C13.3906,-14.3802 13.5104,-14.4531 13.5313,-14.4531 C13.6563,-14.4531 13.7604,-14.4167 13.8438,-14.3438 C13.9479,-14.2396 14,-14.151 14,-14.0781 C14,-13.9948 13.8802,-13.849 13.6406,-13.6406 C13.3802,-13.401 13.0078,-13.1641 12.5234,-12.9297 C12.0391,-12.6953 11.5313,-12.5781 11,-12.5781 C10.7604,-12.5781 10.4688,-12.6198 10.125,-12.7031 C9.89583,-11.2552 9.66146,-9.96875 9.42188,-8.84375 C9.21354,-7.85417 8.79688,-6.98958 8.17188,-6.25 C7.56771,-5.51042 6.89583,-5.14063 6.15625,-5.14063 C5.85417,-5.14063 5.58854,-5.19792 5.35938,-5.3125 C5.09896,-5.44792 4.82292,-5.64583 4.53125,-5.90625 C4.30208,-6.09375 4.08333,-6.26563 3.875,-6.42188 C3.82292,-6.46354 3.79688,-6.52604 3.79688,-6.60938 C3.79688,-6.69271 3.84896,-6.80729 3.95313,-6.95313 C4.05729,-7.06771 4.15104,-7.125 4.23438,-7.125 C4.31771,-7.125 4.54167,-6.96354 4.90625,-6.64063 C5.27083,-6.31771 5.59375,-6.15625 5.875,-6.15625 C6.39583,-6.15625 6.80208,-6.45313 7.09375,-7.04688 C7.375,-7.64063 7.53646,-8.34375 7.57813,-9.15625 C7.64063,-10.5 7.79167,-11.8906 8.03125,-13.3281 C7.73958,-13.3906 7.52604,-13.4219 7.39063,-13.4219 C6.76563,-13.4219 6.22917,-13.2917 5.78125,-13.0313 C5.34375,-12.7813 5.125,-12.4427 5.125,-12.0156 C5.125,-11.7031 5.22917,-11.4635 5.4375,-11.2969 C5.65625,-11.1094 5.76563,-10.9427 5.76563,-10.7969"/>
<path class="Clef" transform="matrix(0.9936,0,0,0.9936,32.0544,77.76)" d="M7.34375,-5.125 C7.34375,-5.125 7.38542,-5.125 7.46875,-5.125 C7.52083,-5.13542 7.5625,-5.14063 7.59375,-5.14063 C9.05208,-5.14063 10.25,-4.625 11.1875,-3.59375 C12.125,-2.58333 12.5938,-1.40104 12.5938,-0.046875 C12.5938,1.64063 11.901,3.01042 10.5156,4.0625 C10.151,4.35417 9.67188,4.58854 9.07813,4.76563 C9.15104,5.60938 9.1875,6.29167 9.1875,6.8125 C9.1875,6.91667 9.17188,7.29688 9.14063,7.95313 C9.08854,9.16146 8.67188,10.2083 7.89063,11.0938 C7.14063,11.9688 6.20313,12.4063 5.07813,12.4063 C4.02604,12.4063 3.13021,12.0365 2.39063,11.2969 C1.64063,10.5365 1.26563,9.625 1.26563,8.5625 C1.26563,8 1.48438,7.52083 1.92188,7.125 C2.35938,6.73958 2.86979,6.54688 3.45313,6.54688 C3.97396,6.54688 4.41146,6.75 4.76563,7.15625 C5.13021,7.53125 5.3125,8 5.3125,8.5625 C5.3125,9.0625 5.13021,9.49479 4.76563,9.85938 C4.40104,10.224 3.96354,10.4063 3.45313,10.4063 C3.24479,10.4063 3.04688,10.3698 2.85938,10.2969 C3.43229,11.1406 4.19271,11.5625 5.14063,11.5625 C6.03646,11.5625 6.77083,11.1979 7.34375,10.4688 C7.94792,9.71875 8.27604,8.83854 8.32813,7.82813 C8.34896,7.20313 8.35938,6.84896 8.35938,6.76563 C8.35938,6.03646 8.33333,5.4375 8.28125,4.96875 C7.63542,5.07292 7.05729,5.125 6.54688,5.125 C4.73438,5.125 3.19271,4.40625 1.92188,2.96875 C0.671875,1.52083 0.046875,-0.197917 0.046875,-2.1875 C0.046875,-2.60417 0.0833333,-3.02604 0.15625,-3.45313 C0.239583,-3.80729 0.338542,-4.19271 0.453125,-4.60938 C0.515625,-4.84896 0.692708,-5.22917 0.984375,-5.75 C1.08854,-5.90625 1.20573,-6.10156 1.33594,-6.33594 C1.46615,-6.57031 1.55729,-6.72396 1.60938,-6.79688 C1.73438,-7.05729 1.98438,-7.41146 2.35938,-7.85938 C2.46354,-7.97396 2.57292,-8.10156 2.6875,-8.24219 C2.80208,-8.38281 2.89844,-8.5 2.97656,-8.59375 C3.05469,-8.6875 3.11198,-8.76042 3.14844,-8.8125 C3.1849,-8.86458 3.47917,-9.20833 4.03125,-9.84375 C4.15625,-9.97917 4.28125,-10.1198 4.40625,-10.2656 C4.53125,-10.4115 4.63281,-10.5286 4.71094,-10.6172 C4.78906,-10.7057 4.84896,-10.7656 4.89063,-10.7969 C4.42188,-12.349 4.125,-13.5885 4,-14.5156 C3.91667,-15.2552 3.875,-16.2708 3.875,-17.5625 C3.875,-18.6979 4.13542,-19.7604 4.65625,-20.75 C5.15625,-21.7708 5.86458,-22.6094 6.78125,-23.2656 C6.84375,-23.3073 6.90625,-23.3281 6.96875,-23.3281 C7.0625,-23.3281 7.13021,-23.3073 7.17188,-23.2656 C7.86979,-22.4219 8.47396,-21.3229 8.98438,-19.9688 C9.50521,-18.6146 9.76563,-17.3802 9.76563,-16.2656 C9.76563,-15.0156 9.46875,-13.8438 8.875,-12.75 C8.19792,-11.5938 7.32292,-10.3958 6.25,-9.15625 C6.52083,-8.30208 6.88542,-6.95833 7.34375,-5.125 M9,3.96875 C9.67708,3.71875 10.2083,3.29688 10.5938,2.70313 C11.0104,2.13021 11.2188,1.48438 11.2188,0.765625 C11.2188,-0.161458 10.9063,-0.984375 10.2813,-1.70313 C9.63542,-2.44271 8.81771,-2.85938 7.82813,-2.95313 C8.39063,-0.203125 8.78125,2.10417 9,3.96875 M1.45313,-0.546875 C1.45313,0.744792 1.97396,1.88021 3.01563,2.85938 C4.07813,3.80729 5.27604,4.28125 6.60938,4.28125 C7.15104,4.28125 7.68229,4.23958 8.20313,4.15625 C7.99479,2.17708 7.58333,-0.192708 6.96875,-2.95313 C6.22917,-2.86979 5.64063,-2.60938 5.20313,-2.17188 C4.76563,-1.71354 4.54688,-1.19792 4.54688,-0.625 C4.54688,0.364583 5.07813,1.16667 6.14063,1.78125 C6.22396,1.875 6.26563,1.97396 6.26563,2.07813 C6.26563,2.18229 6.22396,2.27604 6.14063,2.35938 C6.05729,2.45313 5.95833,2.5 5.84375,2.5 C5.83333,2.5 5.77604,2.48958 5.67188,2.46875 C4.92188,2.0625 4.34896,1.54167 3.95313,0.90625 C3.56771,0.21875 3.375,-0.46875 3.375,-1.15625 C3.375,-2.05208 3.65625,-2.86458 4.21875,-3.59375 C4.80208,-4.32292 5.5625,-4.79167 6.5,-5 C6.13542,-6.45833 5.83854,-7.59896 5.60938,-8.42188 C5.40104,-8.18229 5.15104,-7.89844 4.85938,-7.57031 C4.56771,-7.24219 4.39583,-7.04167 4.34375,-6.96875 C3.875,-6.36458 3.51563,-5.89063 3.26563,-5.54688 C2.81771,-4.93229 2.48958,-4.40625 2.28125,-3.96875 C2.0625,-3.46875 1.86979,-2.92708 1.70313,-2.34375 C1.53646,-1.78125 1.45313,-1.18229 1.45313,-0.546875 M7.96875,-20.4063 C6.98958,-19.9271 6.22396,-19.2396 5.67188,-18.3438 C5.09896,-17.4167 4.8125,-16.4219 4.8125,-15.3594 C4.8125,-14.4219 5.04688,-13.1563 5.51563,-11.5625 C6.45313,-12.6979 7.15625,-13.7448 7.625,-14.7031 C8.11458,-15.724 8.35938,-16.7865 8.35938,-17.8906 C8.35938,-18.724 8.22917,-19.5625 7.96875,-20.4063 M5.82813,15.2344 C6.16146,14.901 6.32813,14.5625 6.32813,14.2188 C6.30729,13.9479 6.19271,13.7396 5.98438,13.5938 C5.74479,13.4375 5.46875,13.3594 5.15625,13.3594 C4.9375,13.3594 4.75521,13.4323 4.60938,13.5781 C4.48438,13.7031 4.42188,13.8646 4.42188,14.0625 C4.42188,14.3021 4.51563,14.4792 4.70313,14.5938 L5.82813,15.2344 M6.14063,15.4063 C6.68229,15.7083 6.95313,16.1146 6.95313,16.625 L6.95313,16.6875 C6.95313,17.0833 6.79167,17.4219 6.46875,17.7031 C6.14583,17.9844 5.68229,18.125 5.07813,18.125 C4.58854,18.125 4.16146,17.9948 3.79688,17.7344 C3.43229,17.4844 3.25,17.1458 3.25,16.7188 C3.25,16.5521 3.29167,16.3958 3.375,16.25 C3.47917,16.0833 3.56771,15.9688 3.64063,15.9063 L4,15.5313 C3.60417,15.2604 3.40625,14.901 3.40625,14.4531 C3.40625,14.099 3.5625,13.7865 3.875,13.5156 C4.19792,13.2552 4.625,13.125 5.15625,13.125 C5.60417,13.125 5.98438,13.224 6.29688,13.4219 C6.60938,13.6198 6.76563,13.8854 6.76563,14.2188 C6.76563,14.5729 6.55729,14.9688 6.14063,15.4063 M4.29688,15.7031 C3.91146,16.0469 3.70313,16.3854 3.67188,16.7188 C3.70313,17.0729 3.84896,17.3542 4.10938,17.5625 C4.39063,17.7813 4.71354,17.8906 5.07813,17.8906 C5.33854,17.8906 5.54688,17.8073 5.70313,17.6406 C5.85938,17.4844 5.9375,17.2969 5.9375,17.0781 C5.92708,16.7865 5.8125,16.5781 5.59375,16.4531 L4.29688,15.7031 "/>
<path class="KeySig" transform="matrix(0.9936,0,0,0.9936,49.3492,62.856)" d="M4.3125,6.23438 C4.3125,6.48438 4.1901,6.60938 3.94531,6.60938 C3.70052,6.60938 3.57813,6.48438 3.57813,6.23438 L3.57813,3.34375 L1.92188,3.96875 L1.92188,7.125 C1.92188,7.375 1.79688,7.5 1.54688,7.5 C1.29688,7.5 1.17188,7.375 1.17188,7.125 L1.17188,4.21875 L0.546875,4.45313 C0.536458,4.46354 0.484375,4.46875 0.390625,4.46875 C0.286458,4.46875 0.195313,4.42969 0.117188,4.35156 C0.0390625,4.27344 0,4.18229 0,4.07813 L0,2.875 C0,2.67708 0.0833333,2.55208 0.25,2.5 L1.17188,2.1875 L1.17188,-1.01563 L0.546875,-0.796875 C0.536458,-0.786458 0.484375,-0.78125 0.390625,-0.78125 C0.286458,-0.78125 0.195313,-0.820313 0.117188,-0.898438 C0.0390625,-0.976563 0,-1.06771 0,-1.17188 L0,-2.39063 C0,-2.56771 0.0833333,-2.68229 0.25,-2.73438 L1.17188,-3.09375 L1.17188,-6.23438 C1.17188,-6.48438 1.29688,-6.60938 1.54688,-6.60938 C1.79688,-6.60938 1.92188,-6.48438 1.92188,-6.23438 L1.92188,-3.34375 L3.57813,-3.96875 L3.57813,-7.125 C3.57813,-7.375 3.70052,-7.5 3.94531,-7.5 C4.1901,-7.5 4.3125,-7.375 4.3125,-7.125 L4.3125,-4.21875 L4.96875,-4.45313 C4.97917,-4.46354 5.02083,-4.46875 5.09375,-4.46875 C5.1875,-4.46875 5.28646,-4.43229 5.39063,-4.35938 C5.47396,-4.27604 5.51563,-4.18229 5.51563,-4.07813 L5.51563,-2.875 C5.51563,-2.6875 5.42188,-2.5625 5.23438,-2.5 L4.3125,-2.1875 L4.3125,1.01563 L4.96875,0.796875 C4.97917,0.786458 5.02083,0.78125 5.09375,0.78125 C5.1875,0.78125 5.28646,0.822917 5.39063,0.90625 C5.47396,0.979167 5.51563,1.06771 5.51563,1.17188 L5.51563,2.39063 C5.51563,2.55729 5.42188,2.67188 5.23438,2.73438 L4.3125,3.09375 L4.3125,6.23438 M3.57813,-1.89063 L1.92188,-1.3125 L1.92188,1.89063 L3.57813,1.3125 L3.57813,-1.89063 "/>
<path class="Fingering" d="M451.336,81.4155 C451.575,80.3947 452.101,79.8686 452.914,79.8374 C452.945,79.8374 452.971,79.8374 452.992,79.8374 C453.482,79.8374 453.872,80.0145 454.164,80.3686 C454.372,80.629 454.476,80.9207 454.476,81.2436 C454.476,81.8374 454.159,82.478 453.523,83.1655 C453.502,83.1863 453.476,83.2072 453.445,83.228 L452.117,84.6499 L454.023,84.6499 C454.232,84.6499 454.393,84.5926 454.508,84.478 C454.58,84.4051 454.669,84.2853 454.773,84.1186 L454.883,84.1499 L454.445,85.228 L451.32,85.228 L451.32,85.1342 L452.742,83.6186 C453.419,82.879 453.768,82.1863 453.789,81.5405 C453.789,81.0926 453.617,80.7697 453.273,80.5717 C453.096,80.4676 452.893,80.4155 452.664,80.4155 C452.31,80.4155 452.034,80.5509 451.836,80.8217 C451.721,80.978 451.612,81.1915 451.508,81.4624 L451.336,81.4155 "/>
<path class="Fingering" d="M388.049,80.3694 C387.456,80.3694 386.992,80.0621 386.659,79.4475 C386.378,78.9475 386.237,78.3225 386.237,77.5725 C386.237,76.6767 386.445,75.9735 386.862,75.4631 C387.195,75.0673 387.601,74.8642 388.081,74.8537 C388.643,74.8537 389.086,75.1402 389.409,75.7131 C389.711,76.2235 389.862,76.859 389.862,77.6194 C389.862,78.5881 389.638,79.3277 389.19,79.8381 C388.867,80.1923 388.487,80.3694 388.049,80.3694 M388.049,75.0569 C387.404,75.0569 387.055,75.8277 387.003,77.3694 C387.003,77.4631 387.003,77.5569 387.003,77.6506 C387.013,79.3173 387.362,80.1558 388.049,80.1662 C388.737,80.1558 389.081,79.3121 389.081,77.635 C389.081,76.1142 388.81,75.2652 388.268,75.0881 C388.195,75.0673 388.122,75.0569 388.049,75.0569"/>
<path class="Fingering" d="M322.834,75.4014 C322.24,75.4014 321.777,75.0941 321.443,74.4795 C321.162,73.9795 321.021,73.3545 321.021,72.6045 C321.021,71.7087 321.23,71.0055 321.646,70.4951 C321.98,70.0993 322.386,69.8962 322.865,69.8858 C323.428,69.8858 323.87,70.1722 324.193,70.7451 C324.495,71.2555 324.646,71.891 324.646,72.6514 C324.646,73.6201 324.422,74.3597 323.974,74.8701 C323.652,75.2243 323.271,75.4014 322.834,75.4014 M322.834,70.0889 C322.188,70.0889 321.839,70.8597 321.787,72.4014 C321.787,72.4951 321.787,72.5889 321.787,72.6826 C321.797,74.3493 322.146,75.1878 322.834,75.1983 C323.521,75.1878 323.865,74.3441 323.865,72.667 C323.865,71.1462 323.594,70.2972 323.053,70.1201 C322.98,70.0993 322.907,70.0889 322.834,70.0889"/>
<path class="Fingering" d="M257.618,67.9494 C257.024,67.9494 256.561,67.6421 256.228,67.0275 C255.946,66.5275 255.806,65.9025 255.806,65.1525 C255.806,64.2567 256.014,63.5535 256.431,63.0431 C256.764,62.6473 257.17,62.4442 257.649,62.4337 C258.212,62.4337 258.655,62.7202 258.978,63.2931 C259.28,63.8035 259.431,64.439 259.431,65.1994 C259.431,66.1681 259.207,66.9077 258.759,67.4181 C258.436,67.7723 258.056,67.9494 257.618,67.9494 M257.618,62.6369 C256.972,62.6369 256.623,63.4077 256.571,64.9494 C256.571,65.0431 256.571,65.1369 256.571,65.2306 C256.582,66.8973 256.931,67.7358 257.618,67.7462 C258.306,67.7358 258.649,66.8921 258.649,65.215 C258.649,63.6942 258.379,62.8452 257.837,62.6681 C257.764,62.6473 257.691,62.6369 257.618,62.6369"/>
<path class="Fingering" d="M192.403,75.4014 C191.809,75.4014 191.345,75.0941 191.012,74.4795 C190.731,73.9795 190.59,73.3545 190.59,72.6045 C190.59,71.7087 190.798,71.0055 191.215,70.4951 C191.548,70.0993 191.955,69.8962 192.434,69.8858 C192.996,69.8858 193.439,70.1722 193.762,70.7451 C194.064,71.2555 194.215,71.891 194.215,72.6514 C194.215,73.6201 193.991,74.3597 193.543,74.8701 C193.22,75.2243 192.84,75.4014 192.403,75.4014 M192.403,70.0889 C191.757,70.0889 191.408,70.8597 191.356,72.4014 C191.356,72.4951 191.356,72.5889 191.356,72.6826 C191.366,74.3493 191.715,75.1878 192.403,75.1983 C193.09,75.1878 193.434,74.3441 193.434,72.667 C193.434,71.1462 193.163,70.2972 192.621,70.1201 C192.548,70.0993 192.476,70.0889 192.403,70.0889"/>
<path class="Fingering" d="M127.187,80.3694 C126.593,80.3694 126.13,80.0621 125.796,79.4475 C125.515,78.9475 125.375,78.3225 125.375,77.5725 C125.375,76.6767 125.583,75.9735 126,75.4631 C126.333,75.0673 126.739,74.8642 127.218,74.8537 C127.781,74.8537 128.224,75.1402 128.546,75.7131 C128.849,76.2235 129,76.859 129,77.6194 C129,78.5881 128.776,79.3277 128.328,79.8381 C128.005,80.1923 127.625,80.3694 127.187,80.3694 M127.187,75.0569 C126.541,75.0569 126.192,75.8277 126.14,77.3694 C126.14,77.4631 126.14,77.5569 126.14,77.6506 C126.151,79.3173 126.5,80.1558 127.187,80.1662 C127.875,80.1558 128.218,79.3121 128.218,77.635 C128.218,76.1142 127.947,75.2652 127.406,75.0881 C127.333,75.0673 127.26,75.0569 127.187,75.0569"/>
<path class="Fingering" d="M60.2215,81.4155 C60.4611,80.3947 60.9871,79.8686 61.7996,79.8374 C61.8308,79.8374 61.8569,79.8374 61.8777,79.8374 C62.3673,79.8374 62.7579,80.0145 63.0496,80.3686 C63.2579,80.629 63.3621,80.9207 63.3621,81.2436 C63.3621,81.8374 63.0444,82.478 62.409,83.1655 C62.3881,83.1863 62.3621,83.2072 62.3308,83.228 L61.0027,84.6499 L62.909,84.6499 C63.1173,84.6499 63.2788,84.5926 63.3933,84.478 C63.4663,84.4051 63.5548,84.2853 63.659,84.1186 L63.7683,84.1499 L63.3308,85.228 L60.2058,85.228 L60.2058,85.1342 L61.6277,83.6186 C62.3048,82.879 62.6538,82.1863 62.6746,81.5405 C62.6746,81.0926 62.5027,80.7697 62.159,80.5717 C61.9819,80.4676 61.7788,80.4155 61.5496,80.4155 C61.1954,80.4155 60.9194,80.5509 60.7215,80.8217 C60.6069,80.978 60.4975,81.1915 60.3933,81.4624 L60.2215,81.4155 "/>
<path class="Tempo" d="M60.2121,40.4371 C60.0089,40.2809 59.7589,40.1871 59.4464,40.1871 C58.2589,40.1871 57.3058,41.0621 57.3058,41.9996 C57.3058,42.5621 57.7589,42.9059 58.3527,42.9059 C59.3058,42.9059 60.4933,41.9996 60.4933,41.0934 L60.4933,34.9527 L60.2121,34.9527 L60.2121,40.4371 "/>
<path class="Tempo" d="M70.8527,39.0152 L64.2433,39.0152 L64.2433,37.859 L70.8527,37.859 L70.8527,39.0152 M70.8527,41.9371 L64.2433,41.9371 L64.2433,40.7965 L70.8527,40.7965 L70.8527,41.9371 M74.8214,41.0934 C74.8214,40.2913 75.2329,39.7027 76.0558,39.3277 C76.2225,39.2444 76.4152,39.1663 76.6339,39.0934 C75.7277,38.5621 75.1964,37.9892 75.0402,37.3746 C74.9881,37.1975 74.9621,37.0152 74.9621,36.8277 C74.9621,36.0569 75.311,35.484 76.0089,35.109 C76.4673,34.859 77.0141,34.734 77.6496,34.734 C78.66,34.734 79.3527,35.0205 79.7277,35.5934 C79.9048,35.8538 79.9933,36.1455 79.9933,36.4684 C79.9933,37.0621 79.66,37.5309 78.9933,37.8746 C78.8058,37.958 78.5923,38.0465 78.3527,38.1402 C79.2798,38.7236 79.8423,39.3382 80.0402,39.984 C80.1131,40.2236 80.1496,40.4736 80.1496,40.734 C80.1496,41.5986 79.7954,42.2548 79.0871,42.7027 C78.6079,42.9944 78.035,43.1402 77.3683,43.1402 C76.3891,43.1402 75.6704,42.8434 75.2121,42.2496 C74.9516,41.9163 74.8214,41.5309 74.8214,41.0934 M78.0714,37.9215 C78.3527,37.5361 78.5089,37.1819 78.5402,36.859 C78.5506,36.7548 78.5558,36.6507 78.5558,36.5465 C78.5558,35.734 78.3006,35.2548 77.7902,35.109 C77.6964,35.0882 77.6027,35.0777 77.5089,35.0777 C77.1027,35.0777 76.811,35.2496 76.6339,35.5934 C76.5506,35.7496 76.5089,35.9111 76.5089,36.0777 C76.5089,36.7236 76.9621,37.3017 77.8683,37.8121 C77.9412,37.8538 78.0089,37.8902 78.0714,37.9215 M76.8996,39.3121 C76.5454,39.833 76.3423,40.2861 76.2902,40.6715 C76.2798,40.7965 76.2746,40.9215 76.2746,41.0465 C76.2746,41.9111 76.5298,42.4527 77.0402,42.6715 C77.1652,42.7236 77.3006,42.7496 77.4464,42.7496 C77.936,42.7496 78.2589,42.4944 78.4152,41.984 C78.4673,41.8173 78.4933,41.6402 78.4933,41.4527 C78.4933,40.9527 78.3527,40.5465 78.0714,40.234 C77.8423,39.9944 77.4516,39.6871 76.8996,39.3121 M80.7746,38.9059 C80.7746,37.5934 81.0871,36.5309 81.7121,35.7184 C82.2225,35.0725 82.8162,34.7444 83.4933,34.734 C84.2746,34.734 84.9204,35.1402 85.4308,35.9527 C85.9412,36.7652 86.1964,37.76 86.1964,38.9371 C86.1964,40.3121 85.8787,41.4059 85.2433,42.2184 C84.7433,42.8225 84.1652,43.1298 83.5089,43.1402 C82.6756,43.1402 82.0037,42.7132 81.4933,41.859 C81.0141,41.0673 80.7746,40.083 80.7746,38.9059 M83.5089,42.7965 C83.8631,42.7965 84.0975,42.4736 84.2121,41.8277 C84.2746,41.4423 84.3058,40.9423 84.3058,40.3277 L84.3058,37.5777 C84.3058,36.1402 84.1131,35.3225 83.7277,35.1246 C83.6548,35.083 83.5714,35.0621 83.4777,35.0621 C83.1131,35.0621 82.8735,35.3955 82.7589,36.0621 C82.7069,36.4371 82.6808,36.9423 82.6808,37.5777 L82.6808,40.3277 C82.6808,41.6819 82.8475,42.4736 83.1808,42.7027 C83.2746,42.7652 83.3839,42.7965 83.5089,42.7965"/>
<path class="StaffText" d="M70.2836,25.2057 C70.7315,25.2057 71.2315,25.3203 71.7836,25.5495 C72.0232,25.6432 72.1951,25.6901 72.2992,25.6901 C72.4451,25.6901 72.5753,25.5807 72.6898,25.362 C72.7003,25.3203 72.7159,25.2787 72.7367,25.237 L73.0023,25.237 L73.0023,27.5807 L72.7523,27.5807 C72.4815,26.9766 72.2003,26.5339 71.9086,26.2526 C71.8461,26.1901 71.7888,26.138 71.7367,26.0964 C71.3096,25.7214 70.8669,25.5339 70.4086,25.5339 C69.4086,25.5339 68.8148,26.2526 68.6273,27.6901 C68.5961,28.013 68.5805,28.362 68.5805,28.737 C68.5805,29.9245 68.794,30.7943 69.2211,31.3464 C69.5544,31.763 70.0128,31.9714 70.5961,31.9714 C71.1586,31.9714 71.4763,31.7943 71.5492,31.4401 C71.5596,31.3776 71.5648,31.3099 71.5648,31.237 L71.5648,30.1901 C71.5648,29.8985 71.4919,29.711 71.3461,29.6276 C71.2003,29.5547 70.9346,29.5078 70.5492,29.487 L70.5492,29.237 L73.9867,29.237 L73.9867,29.487 C73.5805,29.5287 73.3305,29.6172 73.2367,29.7526 C73.1638,29.8672 73.1273,30.086 73.1273,30.4089 L73.1273,31.6745 C72.5336,32.0287 71.7471,32.237 70.768,32.2995 C70.6326,32.2995 70.4971,32.2995 70.3617,32.2995 C69.2471,32.2995 68.3565,31.9401 67.6898,31.2214 C67.0961,30.5755 66.7992,29.7682 66.7992,28.7995 C66.7992,27.7578 67.143,26.8932 67.8305,26.2057 C68.4971,25.5391 69.3148,25.2057 70.2836,25.2057 M78.0492,28.8307 C77.8305,28.8307 77.6169,28.711 77.4086,28.4714 C77.294,28.3255 77.2107,28.2474 77.1586,28.237 C76.9398,28.237 76.7732,28.388 76.6586,28.6901 C76.5857,28.8464 76.5492,29.013 76.5492,29.1901 L76.5492,31.0807 C76.5492,31.4453 76.6221,31.6693 76.768,31.7526 C76.8617,31.8151 77.0336,31.8568 77.2836,31.8776 L77.2836,32.112 L74.643,32.112 L74.643,31.8776 C74.9138,31.8255 75.0753,31.7318 75.1273,31.5964 C75.1482,31.5235 75.1586,31.4141 75.1586,31.2682 L75.1586,28.3307 C75.1586,28.0703 75.0857,27.9037 74.9398,27.8307 C74.8669,27.7891 74.768,27.7578 74.643,27.737 L74.643,27.5026 L76.518,27.5026 L76.518,28.3307 C76.893,27.7787 77.2628,27.4714 77.6273,27.4089 C77.7107,27.388 77.7888,27.3776 77.8617,27.3776 C78.2055,27.3776 78.4503,27.5182 78.5961,27.7995 C78.6482,27.9141 78.6742,28.0339 78.6742,28.1589 C78.6742,28.4714 78.5492,28.6797 78.2992,28.7839 C78.2159,28.8151 78.1326,28.8307 78.0492,28.8307 M79.9242,28.0807 C79.9242,28.112 79.9763,28.2057 80.0805,28.362 C80.1742,28.5078 80.2211,28.6328 80.2211,28.737 C80.2211,28.9974 80.0909,29.1745 79.8305,29.2682 C79.7367,29.2995 79.643,29.3151 79.5492,29.3151 C79.1846,29.3151 78.9711,29.1537 78.9086,28.8307 C78.8982,28.7682 78.893,28.711 78.893,28.6589 C78.893,28.1901 79.1482,27.8412 79.6586,27.612 C79.9815,27.4557 80.3565,27.3776 80.7836,27.3776 C81.6586,27.3776 82.2576,27.6172 82.5805,28.0964 C82.7055,28.2943 82.768,28.5182 82.768,28.7682 L82.768,31.3464 C82.7784,31.5026 82.8461,31.586 82.9711,31.5964 C83.0232,31.586 83.0596,31.5703 83.0805,31.5495 L83.1898,31.4557 L83.3305,31.6589 C82.9346,32.0339 82.5648,32.2318 82.2211,32.2526 C81.8461,32.2526 81.6013,32.112 81.4867,31.8307 C81.4555,31.737 81.4242,31.638 81.393,31.5339 C80.8513,32.0026 80.3253,32.2422 79.8148,32.2526 C79.3773,32.2526 79.0596,32.086 78.8617,31.7526 C78.7576,31.586 78.7055,31.4037 78.7055,31.2057 C78.7055,30.6224 79.1534,30.1485 80.0492,29.7839 C80.2888,29.6797 80.7367,29.5287 81.393,29.3307 L81.393,28.5964 C81.393,28.0651 81.1742,27.7735 80.7367,27.7214 C80.6742,27.7214 80.6117,27.7214 80.5492,27.7214 C80.2576,27.7214 80.0596,27.8047 79.9555,27.9714 C79.9346,28.0026 79.9242,28.0391 79.9242,28.0807 M81.3773,31.0964 L81.3773,29.6589 C80.5753,29.8776 80.169,30.2787 80.1586,30.862 C80.1586,31.1953 80.268,31.4037 80.4867,31.487 C80.5492,31.5078 80.6117,31.5182 80.6742,31.5182 C80.9034,31.5182 81.1378,31.3776 81.3773,31.0964 M86.8461,32.237 L86.8461,31.5964 C86.4919,31.9714 86.1482,32.1849 85.8148,32.237 C85.7211,32.2474 85.6221,32.2526 85.518,32.2526 C84.9242,32.2526 84.4555,31.9766 84.1117,31.4245 C83.8409,30.9974 83.7055,30.4922 83.7055,29.9089 C83.7055,29.0547 83.9503,28.3828 84.4398,27.8932 C84.7732,27.5495 85.169,27.3776 85.6273,27.3776 C85.9815,27.3776 86.3044,27.513 86.5961,27.7839 C86.6794,27.8568 86.7523,27.9245 86.8148,27.987 L86.8148,26.1745 C86.8148,25.9245 86.7576,25.7682 86.643,25.7057 C86.5388,25.6537 86.3409,25.6172 86.0492,25.5964 L86.0492,25.362 L88.2055,25.362 L88.2055,31.112 C88.2055,31.3932 88.2888,31.5651 88.4555,31.6276 C88.5388,31.6589 88.6534,31.6797 88.7992,31.6901 L88.7992,31.9245 L88.1742,32.0026 C87.6221,32.0755 87.1794,32.1537 86.8461,32.237 M85.9711,31.7057 C86.2628,31.7057 86.5128,31.5391 86.7211,31.2057 C86.7732,31.112 86.8044,31.0443 86.8148,31.0026 L86.8148,28.5495 C86.6898,28.2162 86.4815,28.0182 86.1898,27.9557 C86.1378,27.9453 86.0857,27.9401 86.0336,27.9401 C85.5232,27.9401 85.2419,28.4453 85.1898,29.4557 C85.1898,29.5703 85.1898,29.6953 85.1898,29.8307 C85.1898,31.0703 85.4503,31.6953 85.9711,31.7057 M91.143,29.6589 C91.1951,30.6797 91.4607,31.2787 91.9398,31.4557 C92.0648,31.4974 92.1951,31.5182 92.3305,31.5182 C92.6951,31.5182 93.0284,31.3516 93.3305,31.0182 C93.3826,30.9662 93.4294,30.9141 93.4711,30.862 L93.7055,31.0026 C93.2888,31.6068 92.8773,31.987 92.4711,32.1432 C92.2628,32.2162 92.0284,32.2526 91.768,32.2526 C91.018,32.2526 90.4555,31.9453 90.0805,31.3307 C89.8305,30.9141 89.7055,30.4141 89.7055,29.8307 C89.7055,28.9349 89.9763,28.263 90.518,27.8151 C90.8826,27.5235 91.3096,27.3776 91.7992,27.3776 C92.9034,27.3776 93.5232,28.0964 93.6586,29.5339 C93.6586,29.5755 93.6586,29.6172 93.6586,29.6589 L91.143,29.6589 M92.4398,29.1432 C92.419,28.5182 92.3513,28.1224 92.2367,27.9557 C92.143,27.7995 91.9971,27.7214 91.7992,27.7214 C91.5076,27.7214 91.3096,27.8932 91.2055,28.237 C91.143,28.4766 91.1065,28.8307 91.0961,29.2995 L92.4398,29.2995 L92.4398,29.1432 M97.9555,26.3307 C97.8513,26.3307 97.5857,26.4089 97.1586,26.5651 C97.1378,26.5755 97.1221,26.5807 97.1117,26.5807 L97.1117,26.3307 L99.6273,25.237 L99.7992,25.237 L99.7992,30.9401 C99.7992,31.3464 99.8773,31.6016 100.034,31.7057 C100.179,31.8099 100.461,31.8672 100.877,31.8776 L100.877,32.112 L97.1273,32.112 L97.1273,31.8776 C97.669,31.8672 98.0076,31.7839 98.143,31.6276 C98.2576,31.4818 98.3148,31.2318 98.3148,30.8776 L98.3148,27.0182 C98.3044,26.5703 98.1846,26.3412 97.9555,26.3307 M103.112,30.5495 C103.435,30.5495 103.679,30.6901 103.846,30.9714 C103.929,31.1172 103.971,31.263 103.971,31.4089 C103.971,31.7214 103.83,31.961 103.549,32.1276 C103.403,32.2005 103.258,32.237 103.112,32.237 C102.778,32.237 102.534,32.0964 102.377,31.8151 C102.304,31.6797 102.268,31.5391 102.268,31.3932 C102.268,31.0912 102.403,30.8568 102.674,30.6901 C102.81,30.5964 102.955,30.5495 103.112,30.5495 M103.112,27.3932 C103.435,27.3932 103.679,27.5287 103.846,27.7995 C103.929,27.9453 103.971,28.0912 103.971,28.237 C103.971,28.5599 103.83,28.8047 103.549,28.9714 C103.414,29.0443 103.268,29.0807 103.112,29.0807 C102.778,29.0807 102.534,28.9349 102.377,28.6432 C102.304,28.5078 102.268,28.3672 102.268,28.2214 C102.268,27.9193 102.403,27.6849 102.674,27.5182 C102.81,27.4349 102.955,27.3932 103.112,27.3932"/>
<path class="StaffText" d="M109.487,31.2995 C109.487,31.487 109.539,31.6068 109.643,31.6589 C109.768,31.711 110.07,31.737 110.549,31.737 L110.815,31.737 C111.586,31.737 112.127,31.6328 112.44,31.4245 C112.7,31.237 112.945,30.9037 113.174,30.4245 L113.455,30.4245 L113.002,32.112 L107.612,32.112 L107.612,31.9245 C108.018,31.8932 108.268,31.7995 108.362,31.6432 C108.435,31.5182 108.471,31.3099 108.471,31.0182 L108.471,26.5807 C108.471,26.1953 108.403,25.9505 108.268,25.8464 C108.143,25.763 107.924,25.711 107.612,25.6901 L107.612,25.5026 L112.909,25.5026 L112.94,26.9245 L112.69,26.9245 C112.607,26.4766 112.476,26.1901 112.299,26.0651 C112.101,25.9401 111.726,25.8776 111.174,25.8776 L109.83,25.8776 C109.643,25.8776 109.539,25.9245 109.518,26.0182 C109.497,26.0703 109.487,26.1328 109.487,26.2057 L109.487,28.4089 L111.034,28.4089 C111.523,28.4089 111.83,28.3047 111.955,28.0964 C112.018,27.9922 112.075,27.7891 112.127,27.487 L112.362,27.487 L112.362,29.7682 L112.127,29.7682 C112.065,29.3412 111.955,29.0807 111.799,28.987 C111.664,28.8932 111.409,28.8464 111.034,28.8464 L109.487,28.8464 L109.487,31.2995 M116.58,28.1589 L116.58,27.987 C117.06,27.8412 117.528,27.6849 117.987,27.5182 L118.049,27.5339 L118.049,28.2995 C118.622,27.862 119.034,27.612 119.284,27.5495 C119.388,27.5287 119.492,27.5182 119.596,27.5182 C120.127,27.5287 120.482,27.8151 120.659,28.3776 C121.19,27.8047 121.737,27.5182 122.299,27.5182 C123.06,27.5287 123.445,28.1276 123.455,29.3151 L123.455,31.362 C123.466,31.7266 123.607,31.9193 123.877,31.9401 L124.143,31.9557 L124.143,32.112 L121.955,32.112 L121.955,31.9557 C122.278,31.9245 122.471,31.8516 122.534,31.737 C122.586,31.6432 122.612,31.4818 122.612,31.2526 L122.612,29.1432 C122.612,28.5912 122.502,28.2578 122.284,28.1432 C122.179,28.0807 122.039,28.0495 121.862,28.0495 C121.414,28.0599 121.049,28.263 120.768,28.6589 L120.768,31.1745 C120.768,31.5495 120.857,31.7839 121.034,31.8776 C121.138,31.9297 121.289,31.9557 121.487,31.9557 L121.487,32.112 L119.252,32.112 L119.252,31.9557 C119.575,31.9349 119.773,31.862 119.846,31.737 C119.909,31.6432 119.94,31.4818 119.94,31.2526 L119.94,29.0964 C119.94,28.3985 119.716,28.0495 119.268,28.0495 C118.903,28.0495 118.58,28.1693 118.299,28.4089 C118.226,28.4818 118.159,28.5599 118.096,28.6432 L118.096,31.4401 C118.096,31.6901 118.185,31.8464 118.362,31.9089 C118.455,31.9401 118.591,31.9557 118.768,31.9557 L118.768,32.112 L116.549,32.112 L116.549,31.9557 C116.903,31.9557 117.117,31.8724 117.19,31.7057 C117.232,31.6016 117.252,31.4557 117.252,31.2682 L117.252,28.7526 C117.252,28.3776 117.174,28.1693 117.018,28.1276 C116.987,28.1172 116.95,28.112 116.909,28.112 C116.804,28.112 116.695,28.1276 116.58,28.1589 M125.08,28.1901 C124.924,28.1901 124.784,28.2005 124.659,28.2214 L124.659,28.0651 C125.127,27.9297 125.643,27.7474 126.205,27.5182 L126.237,27.5495 L126.237,31.0964 C126.237,31.4818 126.294,31.7214 126.409,31.8151 C126.502,31.888 126.695,31.9349 126.987,31.9557 L126.987,32.112 L124.612,32.112 L124.612,31.9557 C124.976,31.9349 125.205,31.8672 125.299,31.7526 C125.372,31.638 125.409,31.4193 125.409,31.0964 L125.409,28.7682 C125.409,28.4141 125.325,28.2214 125.159,28.1901 C125.127,28.1901 125.101,28.1901 125.08,28.1901 M125.737,25.2839 C125.955,25.2839 126.112,25.3828 126.205,25.5807 C126.237,25.6537 126.252,25.7266 126.252,25.7995 C126.252,26.0182 126.148,26.1745 125.94,26.2682 C125.867,26.2891 125.799,26.2995 125.737,26.2995 C125.518,26.2995 125.362,26.2005 125.268,26.0026 C125.247,25.9297 125.237,25.862 125.237,25.7995 C125.237,25.5807 125.33,25.4245 125.518,25.3307 C125.591,25.2995 125.664,25.2839 125.737,25.2839 M127.549,28.1276 L127.549,27.9557 C128.049,27.8099 128.513,27.6641 128.94,27.5182 L129.002,27.5339 L129.002,28.3151 C129.482,27.8776 129.857,27.6224 130.127,27.5495 C130.232,27.5287 130.341,27.5182 130.455,27.5182 C130.997,27.5182 131.357,27.7891 131.534,28.3307 C131.596,28.5287 131.627,28.7526 131.627,29.0026 L131.627,31.2995 C131.627,31.612 131.7,31.8047 131.846,31.8776 C131.94,31.9089 132.07,31.9349 132.237,31.9557 L132.237,32.112 L130.159,32.112 L130.159,31.9557 C130.461,31.9349 130.648,31.836 130.721,31.6589 C130.773,31.5443 130.799,31.3672 130.799,31.1276 L130.799,29.0339 C130.778,28.388 130.534,28.0599 130.065,28.0495 C129.815,28.0495 129.554,28.1641 129.284,28.3932 C129.211,28.4662 129.127,28.5443 129.034,28.6276 L129.034,31.4401 C129.034,31.6797 129.133,31.836 129.33,31.9089 C129.424,31.9297 129.544,31.9453 129.69,31.9557 L129.69,32.112 L127.58,32.112 L127.58,31.9557 C127.872,31.9349 128.054,31.8516 128.127,31.7057 C128.169,31.5912 128.19,31.4245 128.19,31.2057 L128.19,28.7214 C128.19,28.3568 128.117,28.1537 127.971,28.112 C127.929,28.0912 127.883,28.0807 127.83,28.0807 C127.705,28.0807 127.612,28.0964 127.549,28.1276 M134.909,27.5182 C135.648,27.5182 136.232,27.7891 136.659,28.3307 C136.961,28.737 137.112,29.2162 137.112,29.7682 C137.112,30.5495 136.857,31.1745 136.346,31.6432 C135.929,32.0182 135.445,32.2057 134.893,32.2057 C134.185,32.2057 133.622,31.9349 133.205,31.3932 C132.872,30.9557 132.705,30.4401 132.705,29.8464 C132.705,29.0339 132.982,28.4089 133.534,27.9714 C133.919,27.6693 134.377,27.5182 134.909,27.5182 M133.612,29.362 C133.612,30.2682 133.799,30.961 134.174,31.4401 C134.414,31.7526 134.695,31.9089 135.018,31.9089 C135.539,31.9089 135.898,31.612 136.096,31.0182 C136.179,30.7578 136.221,30.461 136.221,30.1276 C136.221,29.2422 136.008,28.586 135.58,28.1589 C135.351,27.9297 135.086,27.8151 134.784,27.8151 C134.315,27.8151 133.976,28.0547 133.768,28.5339 C133.664,28.7735 133.612,29.0495 133.612,29.362 M140.471,28.487 C140.367,28.487 140.216,28.4037 140.018,28.237 C139.924,28.1537 139.851,28.112 139.799,28.112 C139.633,28.112 139.461,28.2422 139.284,28.5026 C139.169,28.6693 139.112,28.8151 139.112,28.9401 L139.112,31.2057 C139.112,31.5495 139.2,31.763 139.377,31.8464 C139.502,31.9089 139.695,31.9453 139.955,31.9557 L139.955,32.112 L137.549,32.112 L137.549,31.9557 C137.903,31.8932 138.117,31.8099 138.19,31.7057 C138.242,31.6224 138.268,31.4766 138.268,31.2682 L138.268,28.7526 C138.268,28.388 138.185,28.1901 138.018,28.1589 C137.987,28.1485 137.955,28.1432 137.924,28.1432 C137.81,28.1432 137.695,28.1589 137.58,28.1901 L137.58,28.0339 C138.112,27.8672 138.601,27.6953 139.049,27.5182 L139.112,27.5339 L139.112,28.4245 C139.455,27.9453 139.747,27.6589 139.987,27.5651 C140.091,27.5339 140.195,27.5182 140.299,27.5182 C140.612,27.5182 140.794,27.6485 140.846,27.9089 C140.846,27.9505 140.846,27.9974 140.846,28.0495 C140.815,28.3203 140.69,28.4662 140.471,28.487 M143.705,31.1432 C143.705,30.6328 144.023,30.2005 144.659,29.8464 C144.846,29.7526 145.346,29.5391 146.159,29.2057 C146.179,29.2057 146.195,29.2005 146.205,29.1901 L146.205,28.5807 C146.153,28.0599 145.898,27.7839 145.44,27.7526 C145.127,27.7526 144.909,27.8516 144.784,28.0495 C144.742,28.1224 144.721,28.1849 144.721,28.237 C144.721,28.2995 144.732,28.3828 144.752,28.487 C144.763,28.5599 144.768,28.612 144.768,28.6432 C144.768,28.8203 144.679,28.9453 144.502,29.0182 C144.44,29.0495 144.383,29.0651 144.33,29.0651 C144.143,29.0651 144.013,28.9766 143.94,28.7995 C143.909,28.7474 143.893,28.6901 143.893,28.6276 C143.893,28.263 144.112,27.9662 144.549,27.737 C144.851,27.5912 145.195,27.5182 145.58,27.5182 C146.299,27.5182 146.742,27.7735 146.909,28.2839 C146.982,28.5026 147.018,28.7787 147.018,29.112 L147.018,31.0495 C147.018,31.3828 147.08,31.5703 147.205,31.612 C147.247,31.6224 147.284,31.6276 147.315,31.6276 C147.461,31.6172 147.607,31.5547 147.752,31.4401 L147.752,31.6901 C147.482,32.0026 147.232,32.1745 147.002,32.2057 C146.95,32.2057 146.898,32.2057 146.846,32.2057 C146.534,32.2057 146.336,32.0495 146.252,31.737 C146.232,31.6537 146.221,31.5599 146.221,31.4557 C145.627,31.9349 145.138,32.1849 144.752,32.2057 C144.325,32.2057 144.018,32.0339 143.83,31.6901 C143.747,31.5235 143.705,31.3412 143.705,31.1432 M146.205,30.862 L146.205,29.4245 C145.383,29.7266 144.877,30.0339 144.69,30.3464 C144.617,30.4922 144.58,30.6485 144.58,30.8151 C144.58,31.211 144.726,31.461 145.018,31.5651 C145.091,31.5964 145.159,31.612 145.221,31.612 C145.44,31.6016 145.679,31.5235 145.94,31.3776 C146.086,31.2943 146.169,31.1901 146.19,31.0651 C146.2,31.0026 146.205,30.9349 146.205,30.862 M150.471,28.487 C150.367,28.487 150.216,28.4037 150.018,28.237 C149.924,28.1537 149.851,28.112 149.799,28.112 C149.633,28.112 149.461,28.2422 149.284,28.5026 C149.169,28.6693 149.112,28.8151 149.112,28.9401 L149.112,31.2057 C149.112,31.5495 149.2,31.763 149.377,31.8464 C149.502,31.9089 149.695,31.9453 149.955,31.9557 L149.955,32.112 L147.549,32.112 L147.549,31.9557 C147.903,31.8932 148.117,31.8099 148.19,31.7057 C148.242,31.6224 148.268,31.4766 148.268,31.2682 L148.268,28.7526 C148.268,28.388 148.185,28.1901 148.018,28.1589 C147.987,28.1485 147.955,28.1432 147.924,28.1432 C147.81,28.1432 147.695,28.1589 147.58,28.1901 L147.58,28.0339 C148.112,27.8672 148.601,27.6953 149.049,27.5182 L149.112,27.5339 L149.112,28.4245 C149.455,27.9453 149.747,27.6589 149.987,27.5651 C150.091,27.5339 150.195,27.5182 150.299,27.5182 C150.612,27.5182 150.794,27.6485 150.846,27.9089 C150.846,27.9505 150.846,27.9974 150.846,28.0495 C150.815,28.3203 150.69,28.4662 150.471,28.487 M150.596,28.1901 L150.596,28.0182 C151.023,27.8932 151.502,27.7266 152.034,27.5182 L152.096,27.5339 L152.096,28.2995 C152.523,27.7787 153.002,27.5182 153.534,27.5182 C154.096,27.5182 154.539,27.7787 154.862,28.2995 C155.091,28.6849 155.205,29.1328 155.205,29.6432 C155.205,30.4557 154.955,31.1172 154.455,31.6276 C154.07,32.013 153.622,32.2057 153.112,32.2057 C152.778,32.2057 152.487,32.1068 152.237,31.9089 C152.185,31.8776 152.138,31.8412 152.096,31.7995 L152.096,33.362 C152.096,33.7057 152.164,33.9141 152.299,33.987 C152.424,34.0599 152.648,34.0964 152.971,34.0964 L152.971,34.2839 L150.549,34.2839 L150.549,34.112 C150.903,34.0807 151.117,33.9974 151.19,33.862 C151.232,33.7682 151.252,33.6224 151.252,33.4245 L151.252,28.737 C151.252,28.4453 151.2,28.2735 151.096,28.2214 C151.034,28.1901 150.95,28.1745 150.846,28.1745 C150.732,28.1745 150.648,28.1797 150.596,28.1901 M152.096,28.7839 L152.096,31.2526 C152.096,31.4297 152.242,31.5964 152.534,31.7526 C152.742,31.8568 152.94,31.9089 153.127,31.9089 C153.586,31.9089 153.924,31.6537 154.143,31.1432 C154.278,30.8203 154.346,30.4557 154.346,30.0495 C154.346,29.2266 154.138,28.6537 153.721,28.3307 C153.544,28.1849 153.341,28.112 153.112,28.112 C152.81,28.112 152.539,28.2214 152.299,28.4401 C152.174,28.5547 152.107,28.6693 152.096,28.7839 M156.424,29.3464 C156.466,30.5235 156.851,31.2162 157.58,31.4245 C157.705,31.4662 157.841,31.487 157.987,31.487 C158.476,31.487 158.893,31.2787 159.237,30.862 C159.33,30.7474 159.429,30.612 159.534,30.4557 L159.69,30.5182 C159.325,31.4766 158.752,32.0287 157.971,32.1745 C157.836,32.1953 157.705,32.2057 157.58,32.2057 C156.841,32.2057 156.31,31.8932 155.987,31.2682 C155.799,30.8932 155.705,30.461 155.705,29.9714 C155.705,29.086 155.982,28.4141 156.534,27.9557 C156.898,27.6641 157.32,27.5182 157.799,27.5182 C158.716,27.5182 159.268,28.0391 159.455,29.0807 C159.476,29.1745 159.492,29.263 159.502,29.3464 L156.424,29.3464 M156.44,29.0495 L158.487,29.0495 C158.393,28.4766 158.226,28.1224 157.987,27.987 C157.862,27.9245 157.7,27.8932 157.502,27.8932 C156.909,27.8932 156.554,28.2682 156.44,29.0182 C156.44,29.0287 156.44,29.0391 156.44,29.0495 M160.049,31.5339 C160.049,31.3985 160.127,31.2526 160.284,31.0964 C160.377,31.0026 160.596,30.7995 160.94,30.487 C160.44,30.2266 160.143,29.8985 160.049,29.5026 C160.028,29.388 160.018,29.2682 160.018,29.1432 C160.018,28.612 160.232,28.1849 160.659,27.862 C160.961,27.6328 161.304,27.5182 161.69,27.5182 C161.94,27.5182 162.247,27.586 162.612,27.7214 C162.851,27.8047 163.065,27.8464 163.252,27.8464 L164.018,27.8464 L164.018,28.2214 L163.19,28.2214 C163.315,28.513 163.377,28.7943 163.377,29.0651 C163.377,29.638 163.153,30.0703 162.705,30.362 C162.435,30.5391 162.143,30.6276 161.83,30.6276 C161.737,30.6276 161.544,30.6068 161.252,30.5651 C161.054,30.6276 160.888,30.7682 160.752,30.987 C160.69,31.0703 160.659,31.1432 160.659,31.2057 C160.659,31.362 160.909,31.4505 161.409,31.4714 C161.419,31.4714 161.429,31.4714 161.44,31.4714 L162.721,31.5339 C163.273,31.5443 163.643,31.7474 163.83,32.1432 C163.903,32.2787 163.94,32.4297 163.94,32.5964 C163.94,33.0964 163.627,33.5235 163.002,33.8776 C162.492,34.1485 161.935,34.2839 161.33,34.2839 C160.705,34.2839 160.221,34.1328 159.877,33.8307 C159.7,33.6641 159.612,33.487 159.612,33.2995 C159.612,33.0078 159.825,32.6797 160.252,32.3151 C160.357,32.2318 160.466,32.1432 160.58,32.0495 C160.278,31.9141 160.107,31.7787 160.065,31.6432 C160.054,31.612 160.049,31.5755 160.049,31.5339 M160.799,32.0807 C160.497,32.4557 160.336,32.7162 160.315,32.862 C160.304,32.9037 160.299,32.9453 160.299,32.987 C160.299,33.2891 160.523,33.5078 160.971,33.6432 C161.2,33.7162 161.466,33.7526 161.768,33.7526 C162.601,33.7526 163.169,33.5703 163.471,33.2057 C163.596,33.0495 163.659,32.888 163.659,32.7214 C163.659,32.4714 163.492,32.3151 163.159,32.2526 C162.971,32.2214 162.721,32.2057 162.409,32.2057 C161.742,32.2057 161.205,32.1641 160.799,32.0807 M162.612,29.4714 C162.612,29.0443 162.523,28.6641 162.346,28.3307 C162.148,27.9974 161.893,27.8255 161.58,27.8151 C161.205,27.8151 160.971,28.013 160.877,28.4089 C160.857,28.513 160.846,28.6276 160.846,28.7526 C160.846,29.5547 161.07,30.0651 161.518,30.2839 C161.633,30.3464 161.747,30.3776 161.862,30.3776 C162.226,30.3776 162.461,30.1953 162.565,29.8307 C162.596,29.7162 162.612,29.5964 162.612,29.4714 M165.049,31.5339 C165.049,31.3985 165.127,31.2526 165.284,31.0964 C165.377,31.0026 165.596,30.7995 165.94,30.487 C165.44,30.2266 165.143,29.8985 165.049,29.5026 C165.028,29.388 165.018,29.2682 165.018,29.1432 C165.018,28.612 165.232,28.1849 165.659,27.862 C165.961,27.6328 166.304,27.5182 166.69,27.5182 C166.94,27.5182 167.247,27.586 167.612,27.7214 C167.851,27.8047 168.065,27.8464 168.252,27.8464 L169.018,27.8464 L169.018,28.2214 L168.19,28.2214 C168.315,28.513 168.377,28.7943 168.377,29.0651 C168.377,29.638 168.153,30.0703 167.705,30.362 C167.435,30.5391 167.143,30.6276 166.83,30.6276 C166.737,30.6276 166.544,30.6068 166.252,30.5651 C166.054,30.6276 165.888,30.7682 165.752,30.987 C165.69,31.0703 165.659,31.1432 165.659,31.2057 C165.659,31.362 165.909,31.4505 166.409,31.4714 C166.419,31.4714 166.429,31.4714 166.44,31.4714 L167.721,31.5339 C168.273,31.5443 168.643,31.7474 168.83,32.1432 C168.903,32.2787 168.94,32.4297 168.94,32.5964 C168.94,33.0964 168.627,33.5235 168.002,33.8776 C167.492,34.1485 166.935,34.2839 166.33,34.2839 C165.705,34.2839 165.221,34.1328 164.877,33.8307 C164.7,33.6641 164.612,33.487 164.612,33.2995 C164.612,33.0078 164.825,32.6797 165.252,32.3151 C165.357,32.2318 165.466,32.1432 165.58,32.0495 C165.278,31.9141 165.107,31.7787 165.065,31.6432 C165.054,31.612 165.049,31.5755 165.049,31.5339 M165.799,32.0807 C165.497,32.4557 165.336,32.7162 165.315,32.862 C165.304,32.9037 165.299,32.9453 165.299,32.987 C165.299,33.2891 165.523,33.5078 165.971,33.6432 C166.2,33.7162 166.466,33.7526 166.768,33.7526 C167.601,33.7526 168.169,33.5703 168.471,33.2057 C168.596,33.0495 168.659,32.888 168.659,32.7214 C168.659,32.4714 168.492,32.3151 168.159,32.2526 C167.971,32.2214 167.721,32.2057 167.409,32.2057 C166.742,32.2057 166.205,32.1641 165.799,32.0807 M167.612,29.4714 C167.612,29.0443 167.523,28.6641 167.346,28.3307 C167.148,27.9974 166.893,27.8255 166.58,27.8151 C166.205,27.8151 165.971,28.013 165.877,28.4089 C165.857,28.513 165.846,28.6276 165.846,28.7526 C165.846,29.5547 166.07,30.0651 166.518,30.2839 C166.633,30.3464 166.747,30.3776 166.862,30.3776 C167.226,30.3776 167.461,30.1953 167.565,29.8307 C167.596,29.7162 167.612,29.5964 167.612,29.4714 M170.08,28.1901 C169.924,28.1901 169.784,28.2005 169.659,28.2214 L169.659,28.0651 C170.127,27.9297 170.643,27.7474 171.205,27.5182 L171.237,27.5495 L171.237,31.0964 C171.237,31.4818 171.294,31.7214 171.409,31.8151 C171.502,31.888 171.695,31.9349 171.987,31.9557 L171.987,32.112 L169.612,32.112 L169.612,31.9557 C169.976,31.9349 170.205,31.8672 170.299,31.7526 C170.372,31.638 170.409,31.4193 170.409,31.0964 L170.409,28.7682 C170.409,28.4141 170.325,28.2214 170.159,28.1901 C170.127,28.1901 170.101,28.1901 170.08,28.1901 M170.737,25.2839 C170.955,25.2839 171.112,25.3828 171.205,25.5807 C171.237,25.6537 171.252,25.7266 171.252,25.7995 C171.252,26.0182 171.148,26.1745 170.94,26.2682 C170.867,26.2891 170.799,26.2995 170.737,26.2995 C170.518,26.2995 170.362,26.2005 170.268,26.0026 C170.247,25.9297 170.237,25.862 170.237,25.7995 C170.237,25.5807 170.33,25.4245 170.518,25.3307 C170.591,25.2995 170.664,25.2839 170.737,25.2839 M174.909,27.5182 C175.648,27.5182 176.232,27.7891 176.659,28.3307 C176.961,28.737 177.112,29.2162 177.112,29.7682 C177.112,30.5495 176.857,31.1745 176.346,31.6432 C175.929,32.0182 175.445,32.2057 174.893,32.2057 C174.185,32.2057 173.622,31.9349 173.205,31.3932 C172.872,30.9557 172.705,30.4401 172.705,29.8464 C172.705,29.0339 172.982,28.4089 173.534,27.9714 C173.919,27.6693 174.377,27.5182 174.909,27.5182 M173.612,29.362 C173.612,30.2682 173.799,30.961 174.174,31.4401 C174.414,31.7526 174.695,31.9089 175.018,31.9089 C175.539,31.9089 175.898,31.612 176.096,31.0182 C176.179,30.7578 176.221,30.461 176.221,30.1276 C176.221,29.2422 176.008,28.586 175.58,28.1589 C175.351,27.9297 175.086,27.8151 174.784,27.8151 C174.315,27.8151 173.976,28.0547 173.768,28.5339 C173.664,28.7735 173.612,29.0495 173.612,29.362 M182.909,27.5182 C183.648,27.5182 184.232,27.7891 184.659,28.3307 C184.961,28.737 185.112,29.2162 185.112,29.7682 C185.112,30.5495 184.857,31.1745 184.346,31.6432 C183.929,32.0182 183.445,32.2057 182.893,32.2057 C182.185,32.2057 181.622,31.9349 181.205,31.3932 C180.872,30.9557 180.705,30.4401 180.705,29.8464 C180.705,29.0339 180.982,28.4089 181.534,27.9714 C181.919,27.6693 182.377,27.5182 182.909,27.5182 M181.612,29.362 C181.612,30.2682 181.799,30.961 182.174,31.4401 C182.414,31.7526 182.695,31.9089 183.018,31.9089 C183.539,31.9089 183.898,31.612 184.096,31.0182 C184.179,30.7578 184.221,30.461 184.221,30.1276 C184.221,29.2422 184.008,28.586 183.58,28.1589 C183.351,27.9297 183.086,27.8151 182.784,27.8151 C182.315,27.8151 181.976,28.0547 181.768,28.5339 C181.664,28.7735 181.612,29.0495 181.612,29.362 M185.549,28.1276 L185.549,27.9557 C186.049,27.8099 186.513,27.6641 186.94,27.5182 L187.002,27.5339 L187.002,28.3151 C187.482,27.8776 187.857,27.6224 188.127,27.5495 C188.232,27.5287 188.341,27.5182 188.455,27.5182 C188.997,27.5182 189.357,27.7891 189.534,28.3307 C189.596,28.5287 189.627,28.7526 189.627,29.0026 L189.627,31.2995 C189.627,31.612 189.7,31.8047 189.846,31.8776 C189.94,31.9089 190.07,31.9349 190.237,31.9557 L190.237,32.112 L188.159,32.112 L188.159,31.9557 C188.461,31.9349 188.648,31.836 188.721,31.6589 C188.773,31.5443 188.799,31.3672 188.799,31.1276 L188.799,29.0339 C188.778,28.388 188.534,28.0599 188.065,28.0495 C187.815,28.0495 187.554,28.1641 187.284,28.3932 C187.211,28.4662 187.127,28.5443 187.034,28.6276 L187.034,31.4401 C187.034,31.6797 187.133,31.836 187.33,31.9089 C187.424,31.9297 187.544,31.9453 187.69,31.9557 L187.69,32.112 L185.58,32.112 L185.58,31.9557 C185.872,31.9349 186.054,31.8516 186.127,31.7057 C186.169,31.5912 186.19,31.4245 186.19,31.2057 L186.19,28.7214 C186.19,28.3568 186.117,28.1537 185.971,28.112 C185.929,28.0912 185.883,28.0807 185.83,28.0807 C185.705,28.0807 185.612,28.0964 185.549,28.1276 M191.424,29.3464 C191.466,30.5235 191.851,31.2162 192.58,31.4245 C192.705,31.4662 192.841,31.487 192.987,31.487 C193.476,31.487 193.893,31.2787 194.237,30.862 C194.33,30.7474 194.429,30.612 194.534,30.4557 L194.69,30.5182 C194.325,31.4766 193.752,32.0287 192.971,32.1745 C192.836,32.1953 192.705,32.2057 192.58,32.2057 C191.841,32.2057 191.31,31.8932 190.987,31.2682 C190.799,30.8932 190.705,30.461 190.705,29.9714 C190.705,29.086 190.982,28.4141 191.534,27.9557 C191.898,27.6641 192.32,27.5182 192.799,27.5182 C193.716,27.5182 194.268,28.0391 194.455,29.0807 C194.476,29.1745 194.492,29.263 194.502,29.3464 L191.424,29.3464 M191.44,29.0495 L193.487,29.0495 C193.393,28.4766 193.226,28.1224 192.987,27.987 C192.862,27.9245 192.7,27.8932 192.502,27.8932 C191.909,27.8932 191.554,28.2682 191.44,29.0182 C191.44,29.0287 191.44,29.0391 191.44,29.0495 M199.909,27.5182 C200.648,27.5182 201.232,27.7891 201.659,28.3307 C201.961,28.737 202.112,29.2162 202.112,29.7682 C202.112,30.5495 201.857,31.1745 201.346,31.6432 C200.929,32.0182 200.445,32.2057 199.893,32.2057 C199.185,32.2057 198.622,31.9349 198.205,31.3932 C197.872,30.9557 197.705,30.4401 197.705,29.8464 C197.705,29.0339 197.982,28.4089 198.534,27.9714 C198.919,27.6693 199.377,27.5182 199.909,27.5182 M198.612,29.362 C198.612,30.2682 198.799,30.961 199.174,31.4401 C199.414,31.7526 199.695,31.9089 200.018,31.9089 C200.539,31.9089 200.898,31.612 201.096,31.0182 C201.179,30.7578 201.221,30.461 201.221,30.1276 C201.221,29.2422 201.008,28.586 200.58,28.1589 C200.351,27.9297 200.086,27.8151 199.784,27.8151 C199.315,27.8151 198.976,28.0547 198.768,28.5339 C198.664,28.7735 198.612,29.0495 198.612,29.362 M202.705,29.987 C202.705,29.1432 202.992,28.4818 203.565,28.0026 C203.961,27.6797 204.403,27.5182 204.893,27.5182 C205.445,27.5182 205.872,27.6693 206.174,27.9714 C206.351,28.1485 206.44,28.3412 206.44,28.5495 C206.44,28.7266 206.346,28.8516 206.159,28.9245 C206.086,28.9557 206.018,28.9714 205.955,28.9714 C205.747,28.9714 205.596,28.836 205.502,28.5651 C205.492,28.5443 205.487,28.5235 205.487,28.5026 L205.424,28.2839 C205.362,28.0339 205.247,27.888 205.08,27.8464 C205.008,27.8255 204.924,27.8151 204.83,27.8151 C204.33,27.8151 203.95,28.0547 203.69,28.5339 C203.544,28.8255 203.471,29.1641 203.471,29.5495 C203.471,30.2787 203.695,30.8255 204.143,31.1901 C204.403,31.388 204.695,31.487 205.018,31.487 C205.435,31.487 205.794,31.3203 206.096,30.987 C206.2,30.862 206.315,30.7162 206.44,30.5495 L206.58,30.6432 C206.205,31.362 205.789,31.8307 205.33,32.0495 C205.091,32.1537 204.851,32.2057 204.612,32.2057 C203.966,32.2057 203.461,31.9401 203.096,31.4089 C202.836,31.0026 202.705,30.5287 202.705,29.987 M209.049,27.612 L209.049,27.9089 L208.034,27.9089 L208.034,30.7682 C208.034,31.3099 208.169,31.6068 208.44,31.6589 C208.471,31.6693 208.508,31.6745 208.549,31.6745 C208.758,31.6641 208.961,31.5443 209.159,31.3151 L209.284,31.4401 C208.961,31.9505 208.56,32.2057 208.08,32.2057 C207.497,32.1953 207.2,31.7735 207.19,30.9401 L207.19,27.9089 L206.659,27.9089 C206.638,27.888 206.627,27.8672 206.627,27.8464 C206.627,27.8047 206.669,27.763 206.752,27.7214 C207.034,27.5339 207.367,27.1693 207.752,26.6276 C207.763,26.6172 207.768,26.612 207.768,26.612 C207.872,26.4557 207.94,26.362 207.971,26.3307 C208.013,26.3412 208.034,26.3828 208.034,26.4557 L208.034,27.612 L209.049,27.612 M209.705,31.1432 C209.705,30.6328 210.023,30.2005 210.659,29.8464 C210.846,29.7526 211.346,29.5391 212.159,29.2057 C212.179,29.2057 212.195,29.2005 212.205,29.1901 L212.205,28.5807 C212.153,28.0599 211.898,27.7839 211.44,27.7526 C211.127,27.7526 210.909,27.8516 210.784,28.0495 C210.742,28.1224 210.721,28.1849 210.721,28.237 C210.721,28.2995 210.732,28.3828 210.752,28.487 C210.763,28.5599 210.768,28.612 210.768,28.6432 C210.768,28.8203 210.679,28.9453 210.502,29.0182 C210.44,29.0495 210.383,29.0651 210.33,29.0651 C210.143,29.0651 210.013,28.9766 209.94,28.7995 C209.909,28.7474 209.893,28.6901 209.893,28.6276 C209.893,28.263 210.112,27.9662 210.549,27.737 C210.851,27.5912 211.195,27.5182 211.58,27.5182 C212.299,27.5182 212.742,27.7735 212.909,28.2839 C212.982,28.5026 213.018,28.7787 213.018,29.112 L213.018,31.0495 C213.018,31.3828 213.08,31.5703 213.205,31.612 C213.247,31.6224 213.284,31.6276 213.315,31.6276 C213.461,31.6172 213.607,31.5547 213.752,31.4401 L213.752,31.6901 C213.482,32.0026 213.232,32.1745 213.002,32.2057 C212.95,32.2057 212.898,32.2057 212.846,32.2057 C212.534,32.2057 212.336,32.0495 212.252,31.737 C212.232,31.6537 212.221,31.5599 212.221,31.4557 C211.627,31.9349 211.138,32.1849 210.752,32.2057 C210.325,32.2057 210.018,32.0339 209.83,31.6901 C209.747,31.5235 209.705,31.3412 209.705,31.1432 M212.205,30.862 L212.205,29.4245 C211.383,29.7266 210.877,30.0339 210.69,30.3464 C210.617,30.4922 210.58,30.6485 210.58,30.8151 C210.58,31.211 210.726,31.461 211.018,31.5651 C211.091,31.5964 211.159,31.612 211.221,31.612 C211.44,31.6016 211.679,31.5235 211.94,31.3776 C212.086,31.2943 212.169,31.1901 212.19,31.0651 C212.2,31.0026 212.205,30.9349 212.205,30.862 M218.08,27.612 L218.08,27.7682 C217.914,27.7891 217.789,27.8568 217.705,27.9714 C217.633,28.0755 217.544,28.2682 217.44,28.5495 L216.159,31.7526 C216.023,32.0755 215.929,32.2422 215.877,32.2526 C215.804,32.2526 215.721,32.1068 215.627,31.8151 C215.617,31.8047 215.612,31.7943 215.612,31.7839 L214.409,28.9089 C214.159,28.3151 213.971,27.9662 213.846,27.862 C213.763,27.7995 213.648,27.7682 213.502,27.7682 L213.502,27.612 L215.471,27.612 L215.471,27.7682 C215.19,27.7891 215.039,27.862 215.018,27.987 C215.008,28.0078 215.002,28.0287 215.002,28.0495 C215.002,28.1641 215.034,28.2839 215.096,28.4089 L216.112,30.9714 L217.096,28.3776 C217.138,28.2839 217.159,28.1849 217.159,28.0807 C217.159,27.9037 217.013,27.7995 216.721,27.7682 C216.711,27.7682 216.7,27.7682 216.69,27.7682 L216.69,27.612 L218.08,27.612 M219.424,29.3464 C219.466,30.5235 219.851,31.2162 220.58,31.4245 C220.705,31.4662 220.841,31.487 220.987,31.487 C221.476,31.487 221.893,31.2787 222.237,30.862 C222.33,30.7474 222.429,30.612 222.534,30.4557 L222.69,30.5182 C222.325,31.4766 221.752,32.0287 220.971,32.1745 C220.836,32.1953 220.705,32.2057 220.58,32.2057 C219.841,32.2057 219.31,31.8932 218.987,31.2682 C218.799,30.8932 218.705,30.461 218.705,29.9714 C218.705,29.086 218.982,28.4141 219.534,27.9557 C219.898,27.6641 220.32,27.5182 220.799,27.5182 C221.716,27.5182 222.268,28.0391 222.455,29.0807 C222.476,29.1745 222.492,29.263 222.502,29.3464 L219.424,29.3464 M219.44,29.0495 L221.487,29.0495 C221.393,28.4766 221.226,28.1224 220.987,27.987 C220.862,27.9245 220.7,27.8932 220.502,27.8932 C219.909,27.8932 219.554,28.2682 219.44,29.0182 C219.44,29.0287 219.44,29.0391 219.44,29.0495"/>
</svg>
