<?xml version="1.0" encoding="UTF-8" standalone="no"?>
<svg width="595.44px" height="841.68px" viewBox="0 0 595.44 841.68"
 xmlns="http://www.w3.org/2000/svg" xmlns:xlink="http://www.w3.org/1999/xlink" version="1.2" baseProfile="tiny">
<title>Guitar Scales and Arpeggios</title>
<desc>Generated by MuseScore 2.1.0</desc>
<polyline class="StaffLines" fill="none" stroke="#000000" stroke-width="0.40" stroke-linejoin="bevel" points="28.08,62.856 567.36,62.856"/>
<polyline class="StaffLines" fill="none" stroke="#000000" stroke-width="0.40" stroke-linejoin="bevel" points="28.08,67.824 567.36,67.824"/>
<polyline class="StaffLines" fill="none" stroke="#000000" stroke-width="0.40" stroke-linejoin="bevel" points="28.08,72.792 567.36,72.792"/>
<polyline class="StaffLines" fill="none" stroke="#000000" stroke-width="0.40" stroke-linejoin="bevel" points="28.08,77.76 567.36,77.76"/>
<polyline class="StaffLines" fill="none" stroke="#000000" stroke-width="0.40" stroke-linejoin="bevel" points="28.08,82.728 567.36,82.728"/>
<polyline class="StaffLines" fill="none" stroke="#000000" stroke-width="0.40" stroke-linejoin="bevel" points="28.08,115.02 567.36,115.02"/>
<polyline class="StaffLines" fill="none" stroke="#000000" stroke-width="0.40" stroke-linejoin="bevel" points="28.08,122.472 567.36,122.472"/>
<polyline class="StaffLines" fill="none" stroke="#000000" stroke-width="0.40" stroke-linejoin="bevel" points="28.08,129.924 567.36,129.924"/>
<polyline class="StaffLines" fill="none" stroke="#000000" stroke-width="0.40" stroke-linejoin="bevel" points="28.08,137.376 567.36,137.376"/>
<polyline class="StaffLines" fill="none" stroke="#000000" stroke-width="0.40" stroke-linejoin="bevel" points="28.08,144.828 567.36,144.828"/>
<polyline class="StaffLines" fill="none" stroke="#000000" stroke-width="0.40" stroke-linejoin="bevel" points="28.08,152.28 567.36,152.28"/>
<polyline class="BarLine" fill="none" stroke="#000000" stroke-width="0.79" stroke-linejoin="bevel" points="28.4774,62.856 28.4774,152.28"/>
<polyline class="BarLine" fill="none" stroke="#000000" stroke-width="0.79" stroke-linejoin="bevel" points="562.491,115.02 562.491,152.28"/>
<polyline class="BarLine" fill="none" stroke="#000000" stroke-width="2.48" stroke-linejoin="bevel" points="566.118,115.02 566.118,152.28"/>
<polyline class="BarLine" fill="none" stroke="#000000" stroke-width="0.79" stroke-linejoin="bevel" points="562.491,62.856 562.491,82.728"/>
<polyline class="BarLine" fill="none" stroke="#000000" stroke-width="2.48" stroke-linejoin="bevel" points="566.118,62.856 566.118,82.728"/>
<polyline class="Stem" fill="none" stroke="#000000" stroke-width="0.65" stroke-linecap="round" stroke-linejoin="bevel" points="517.559,79.4809 517.559,62.856"/>
<polyline class="Stem" fill="none" stroke="#000000" stroke-width="0.65" stroke-linecap="round" stroke-linejoin="bevel" points="485.547,76.8269 485.547,60.993"/>
<polyline class="Stem" fill="none" stroke="#000000" stroke-width="0.65" stroke-linecap="round" stroke-linejoin="bevel" points="453.714,74.3429 453.714,59.13"/>
<polyline class="Stem" fill="none" stroke="#000000" stroke-width="0.65" stroke-linecap="round" stroke-linejoin="bevel" points="415.987,73.7251 415.987,88.317"/>
<polyline class="Stem" fill="none" stroke="#000000" stroke-width="0.65" stroke-linecap="round" stroke-linejoin="bevel" points="384.154,71.2411 384.154,86.454"/>
<polyline class="Stem" fill="none" stroke="#000000" stroke-width="0.65" stroke-linecap="round" stroke-linejoin="bevel" points="352.322,68.7571 352.322,84.591"/>
<polyline class="Stem" fill="none" stroke="#000000" stroke-width="0.65" stroke-linecap="round" stroke-linejoin="bevel" points="320.489,66.2731 320.489,82.728"/>
<polyline class="Stem" fill="none" stroke="#000000" stroke-width="0.65" stroke-linecap="round" stroke-linejoin="bevel" points="288.656,63.7891 288.656,80.244"/>
<polyline class="Stem" fill="none" stroke="#000000" stroke-width="0.65" stroke-linecap="round" stroke-linejoin="bevel" points="256.824,66.2731 256.824,82.728"/>
<polyline class="Stem" fill="none" stroke="#000000" stroke-width="0.65" stroke-linecap="round" stroke-linejoin="bevel" points="224.991,68.7571 224.991,84.591"/>
<polyline class="Stem" fill="none" stroke="#000000" stroke-width="0.65" stroke-linecap="round" stroke-linejoin="bevel" points="193.159,71.2411 193.159,86.454"/>
<polyline class="Stem" fill="none" stroke="#000000" stroke-width="0.65" stroke-linecap="round" stroke-linejoin="bevel" points="161.326,73.7251 161.326,88.317"/>
<polyline class="Stem" fill="none" stroke="#000000" stroke-width="0.65" stroke-linecap="round" stroke-linejoin="bevel" points="135.388,74.3429 135.388,59.13"/>
<polyline class="Stem" fill="none" stroke="#000000" stroke-width="0.65" stroke-linecap="round" stroke-linejoin="bevel" points="103.556,76.8269 103.556,60.993"/>
<polyline class="Stem" fill="none" stroke="#000000" stroke-width="0.65" stroke-linecap="round" stroke-linejoin="bevel" points="71.7231,79.3109 71.7231,62.856"/>
<path class="Note" fill="#ffffff" fill-rule="evenodd" d="M511.907,133.65 L517.869,133.65 L517.869,141.102 L511.907,141.102 L511.907,133.65 "/>
<path class="Note" transform="matrix(0.9936,0,0,0.9936,512.404,140.854)" d="M2.4375,-5.64063 C1.75,-5.64063 1.35417,-5.32813 1.25,-4.70313 C1.22917,-4.59896 1.21875,-4.47917 1.21875,-4.34375 L0.421875,-4.34375 C0.442708,-5.59375 1.01563,-6.27083 2.14063,-6.375 C2.23438,-6.38542 2.32813,-6.39063 2.42188,-6.39063 C3.26563,-6.39063 3.84375,-6.10938 4.15625,-5.54688 C4.29167,-5.28646 4.35938,-4.98438 4.35938,-4.64063 C4.35938,-4.00521 4.0625,-3.57292 3.46875,-3.34375 C4.03125,-3.14583 4.375,-2.81771 4.5,-2.35938 C4.54167,-2.19271 4.5625,-2.00521 4.5625,-1.79688 C4.5625,-1.05729 4.27604,-0.505208 3.70313,-0.140625 C3.33854,0.0885417 2.90104,0.203125 2.39063,0.203125 C1.21354,0.203125 0.526042,-0.348958 0.328125,-1.45313 C0.317708,-1.57813 0.302083,-1.71354 0.28125,-1.85938 L1.07813,-1.85938 C1.13021,-1.08854 1.46875,-0.65625 2.09375,-0.5625 C2.19792,-0.541667 2.30729,-0.53125 2.42188,-0.53125 C3.04688,-0.53125 3.45313,-0.765625 3.64063,-1.23438 C3.71354,-1.40104 3.75,-1.58854 3.75,-1.79688 C3.73958,-2.54688 3.29688,-2.92708 2.42188,-2.9375 L2.09375,-2.92188 L1.98438,-2.92188 L1.98438,-3.67188 C2.66146,-3.68229 3.10417,-3.77604 3.3125,-3.95313 C3.47917,-4.09896 3.5625,-4.31771 3.5625,-4.60938 C3.5625,-5.09896 3.34896,-5.41667 2.92188,-5.5625 C2.77604,-5.61458 2.61458,-5.64063 2.4375,-5.64063"/>
<path class="Note" fill="#ebeb19" transform="matrix(0.9936,0,0,0.9936,510.982,80.244)" d="M6.3125,-1.3125 C6.3125,-1.53125 6.22917,-1.71875 6.0625,-1.875 C5.88542,-2.04167 5.6875,-2.125 5.46875,-2.125 C5.08333,-2.125 4.29688,-1.73438 3.10938,-0.953125 C1.88021,-0.161458 1.13021,0.40625 0.859375,0.75 C0.713542,0.927083 0.640625,1.11458 0.640625,1.3125 C0.640625,1.53125 0.729167,1.71875 0.90625,1.875 C1.0625,2.04167 1.25521,2.125 1.48438,2.125 C1.85938,2.125 2.65625,1.73438 3.875,0.953125 C5.07292,0.171875 5.8125,-0.395833 6.09375,-0.75 C6.23958,-0.916667 6.3125,-1.10417 6.3125,-1.3125 M5.28125,-2.75 C6.39583,-2.75 6.95313,-2.27083 6.95313,-1.3125 C6.95313,-0.84375 6.81771,-0.296875 6.54688,0.328125 C6.27604,0.942708 5.91146,1.41146 5.45313,1.73438 C4.45313,2.41146 3.19792,2.75 1.6875,2.75 C0.5625,2.75 0,2.27083 0,1.3125 C0,0.885417 0.135417,0.34375 0.40625,-0.3125 C0.666667,-0.9375 1.03125,-1.41146 1.5,-1.73438 C2.51042,-2.41146 3.77083,-2.75 5.28125,-2.75"/>
<path class="Note" fill="#ffffff" fill-rule="evenodd" d="M480.074,126.198 L486.036,126.198 L486.036,133.65 L480.074,133.65 L480.074,126.198 "/>
<path class="Note" transform="matrix(0.9936,0,0,0.9936,480.571,133.402)" d="M0.390625,-3.09375 C0.390625,-5 0.927083,-6.07813 2,-6.32813 C2.14583,-6.36979 2.30208,-6.39063 2.46875,-6.39063 C3.78125,-6.39063 4.47917,-5.40104 4.5625,-3.42188 C4.5625,-3.28646 4.5625,-3.15625 4.5625,-3.03125 C4.5625,-1.40625 4.15104,-0.385417 3.32813,0.03125 C3.06771,0.145833 2.78125,0.203125 2.46875,0.203125 C1.41667,0.203125 0.760417,-0.442708 0.5,-1.73438 C0.427083,-2.14063 0.390625,-2.59375 0.390625,-3.09375 M2.46875,-5.64063 C1.625,-5.63021 1.20313,-4.77083 1.20313,-3.0625 C1.20313,-1.32292 1.61979,-0.453125 2.45313,-0.453125 C3.16146,-0.453125 3.57813,-1.02604 3.70313,-2.17188 C3.73438,-2.44271 3.75,-2.75 3.75,-3.09375 C3.75,-4.79167 3.32292,-5.64063 2.46875,-5.64063"/>
<path class="Note" fill="#99cc33" transform="matrix(0.9936,0,0,0.9936,479.329,77.76)" d="M4.39063,-2.75 C5.01563,-2.75 5.54688,-2.58854 5.98438,-2.26563 C6.38021,-1.91146 6.57813,-1.46875 6.57813,-0.9375 C6.57813,-0.0416667 6.11979,0.796875 5.20313,1.57813 C4.26563,2.35938 3.26042,2.75 2.1875,2.75 C1.5625,2.75 1.03646,2.58854 0.609375,2.26563 C0.203125,1.91146 0,1.46875 0,0.9375 C0,0.0416667 0.46875,-0.796875 1.40625,-1.57813 C2.32292,-2.35938 3.31771,-2.75 4.39063,-2.75"/>
<path class="Note" fill="#ffffff" fill-rule="evenodd" d="M448.242,126.198 L454.203,126.198 L454.203,133.65 L448.242,133.65 L448.242,126.198 "/>
<path class="Note" transform="matrix(0.9936,0,0,0.9936,448.739,133.402)" d="M0.453125,-4.17188 C0.494792,-5.64063 1.19792,-6.38021 2.5625,-6.39063 C3.28125,-6.39063 3.83333,-6.14583 4.21875,-5.65625 C4.46875,-5.32292 4.59375,-4.93229 4.59375,-4.48438 C4.59375,-3.68229 4.14583,-3.03125 3.25,-2.53125 L2.34375,-2.04688 C1.79167,-1.75521 1.44271,-1.4375 1.29688,-1.09375 C1.24479,-0.989583 1.21354,-0.869792 1.20313,-0.734375 L4.5625,-0.734375 L4.5625,0 L0.3125,0 C0.354167,-0.760417 0.520833,-1.33854 0.8125,-1.73438 C1.07292,-2.05729 1.5,-2.38542 2.09375,-2.71875 L2.92188,-3.1875 C3.49479,-3.52083 3.78646,-3.94271 3.79688,-4.45313 C3.79688,-4.88021 3.61458,-5.21354 3.25,-5.45313 C3.04167,-5.57813 2.80208,-5.64063 2.53125,-5.64063 C1.73958,-5.64063 1.3125,-5.16667 1.25,-4.21875 C1.25,-4.19792 1.25,-4.18229 1.25,-4.17188 L0.453125,-4.17188 "/>
<path class="Note" fill="#cc00ff" transform="matrix(0.9936,0,0,0.9936,447.497,75.276)" d="M4.39063,-2.75 C5.01563,-2.75 5.54688,-2.58854 5.98438,-2.26563 C6.38021,-1.91146 6.57813,-1.46875 6.57813,-0.9375 C6.57813,-0.0416667 6.11979,0.796875 5.20313,1.57813 C4.26563,2.35938 3.26042,2.75 2.1875,2.75 C1.5625,2.75 1.03646,2.58854 0.609375,2.26563 C0.203125,1.91146 0,1.46875 0,0.9375 C0,0.0416667 0.46875,-0.796875 1.40625,-1.57813 C2.32292,-2.35938 3.31771,-2.75 4.39063,-2.75"/>
<path class="Note" fill="#ffffff" fill-rule="evenodd" d="M416.409,126.198 L422.371,126.198 L422.371,133.65 L416.409,133.65 L416.409,126.198 "/>
<path class="Note" transform="matrix(0.9936,0,0,0.9936,416.906,133.402)" d="M2.4375,-5.64063 C1.75,-5.64063 1.35417,-5.32813 1.25,-4.70313 C1.22917,-4.59896 1.21875,-4.47917 1.21875,-4.34375 L0.421875,-4.34375 C0.442708,-5.59375 1.01563,-6.27083 2.14063,-6.375 C2.23438,-6.38542 2.32813,-6.39063 2.42188,-6.39063 C3.26563,-6.39063 3.84375,-6.10938 4.15625,-5.54688 C4.29167,-5.28646 4.35938,-4.98438 4.35938,-4.64063 C4.35938,-4.00521 4.0625,-3.57292 3.46875,-3.34375 C4.03125,-3.14583 4.375,-2.81771 4.5,-2.35938 C4.54167,-2.19271 4.5625,-2.00521 4.5625,-1.79688 C4.5625,-1.05729 4.27604,-0.505208 3.70313,-0.140625 C3.33854,0.0885417 2.90104,0.203125 2.39063,0.203125 C1.21354,0.203125 0.526042,-0.348958 0.328125,-1.45313 C0.317708,-1.57813 0.302083,-1.71354 0.28125,-1.85938 L1.07813,-1.85938 C1.13021,-1.08854 1.46875,-0.65625 2.09375,-0.5625 C2.19792,-0.541667 2.30729,-0.53125 2.42188,-0.53125 C3.04688,-0.53125 3.45313,-0.765625 3.64063,-1.23438 C3.71354,-1.40104 3.75,-1.58854 3.75,-1.79688 C3.73958,-2.54688 3.29688,-2.92708 2.42188,-2.9375 L2.09375,-2.92188 L1.98438,-2.92188 L1.98438,-3.67188 C2.66146,-3.68229 3.10417,-3.77604 3.3125,-3.95313 C3.47917,-4.09896 3.5625,-4.31771 3.5625,-4.60938 C3.5625,-5.09896 3.34896,-5.41667 2.92188,-5.5625 C2.77604,-5.61458 2.61458,-5.64063 2.4375,-5.64063"/>
<path class="Note" fill="#bf6a1f" transform="matrix(0.9936,0,0,0.9936,415.664,72.792)" d="M4.39063,-2.75 C5.01563,-2.75 5.54688,-2.58854 5.98438,-2.26563 C6.38021,-1.91146 6.57813,-1.46875 6.57813,-0.9375 C6.57813,-0.0416667 6.11979,0.796875 5.20313,1.57813 C4.26563,2.35938 3.26042,2.75 2.1875,2.75 C1.5625,2.75 1.03646,2.58854 0.609375,2.26563 C0.203125,1.91146 0,1.46875 0,0.9375 C0,0.0416667 0.46875,-0.796875 1.40625,-1.57813 C2.32292,-2.35938 3.31771,-2.75 4.39063,-2.75"/>
<path class="Note" fill="#ffffff" fill-rule="evenodd" d="M384.577,118.746 L390.538,118.746 L390.538,126.198 L384.577,126.198 L384.577,118.746 "/>
<path class="Note" transform="matrix(0.9936,0,0,0.9936,385.073,125.95)" d="M2.32813,-4.54688 L0.921875,-4.54688 L0.921875,-5.10938 C1.53646,-5.19271 1.93229,-5.30208 2.10938,-5.4375 C2.28646,-5.57292 2.4375,-5.85417 2.5625,-6.28125 C2.57292,-6.3125 2.58854,-6.34896 2.60938,-6.39063 L3.125,-6.39063 L3.125,0 L2.32813,0 L2.32813,-4.54688 "/>
<path class="Note" fill="#ed2929" transform="matrix(0.9936,0,0,0.9936,383.831,70.308)" d="M4.39063,-2.75 C5.01563,-2.75 5.54688,-2.58854 5.98438,-2.26563 C6.38021,-1.91146 6.57813,-1.46875 6.57813,-0.9375 C6.57813,-0.0416667 6.11979,0.796875 5.20313,1.57813 C4.26563,2.35938 3.26042,2.75 2.1875,2.75 C1.5625,2.75 1.03646,2.58854 0.609375,2.26563 C0.203125,1.91146 0,1.46875 0,0.9375 C0,0.0416667 0.46875,-0.796875 1.40625,-1.57813 C2.32292,-2.35938 3.31771,-2.75 4.39063,-2.75"/>
<path class="Note" fill="#ffffff" fill-rule="evenodd" d="M352.744,118.746 L358.706,118.746 L358.706,126.198 L352.744,126.198 L352.744,118.746 "/>
<path class="Note" transform="matrix(0.9936,0,0,0.9936,353.241,125.95)" d="M2.4375,-5.64063 C1.75,-5.64063 1.35417,-5.32813 1.25,-4.70313 C1.22917,-4.59896 1.21875,-4.47917 1.21875,-4.34375 L0.421875,-4.34375 C0.442708,-5.59375 1.01563,-6.27083 2.14063,-6.375 C2.23438,-6.38542 2.32813,-6.39063 2.42188,-6.39063 C3.26563,-6.39063 3.84375,-6.10938 4.15625,-5.54688 C4.29167,-5.28646 4.35938,-4.98438 4.35938,-4.64063 C4.35938,-4.00521 4.0625,-3.57292 3.46875,-3.34375 C4.03125,-3.14583 4.375,-2.81771 4.5,-2.35938 C4.54167,-2.19271 4.5625,-2.00521 4.5625,-1.79688 C4.5625,-1.05729 4.27604,-0.505208 3.70313,-0.140625 C3.33854,0.0885417 2.90104,0.203125 2.39063,0.203125 C1.21354,0.203125 0.526042,-0.348958 0.328125,-1.45313 C0.317708,-1.57813 0.302083,-1.71354 0.28125,-1.85938 L1.07813,-1.85938 C1.13021,-1.08854 1.46875,-0.65625 2.09375,-0.5625 C2.19792,-0.541667 2.30729,-0.53125 2.42188,-0.53125 C3.04688,-0.53125 3.45313,-0.765625 3.64063,-1.23438 C3.71354,-1.40104 3.75,-1.58854 3.75,-1.79688 C3.73958,-2.54688 3.29688,-2.92708 2.42188,-2.9375 L2.09375,-2.92188 L1.98438,-2.92188 L1.98438,-3.67188 C2.66146,-3.68229 3.10417,-3.77604 3.3125,-3.95313 C3.47917,-4.09896 3.5625,-4.31771 3.5625,-4.60938 C3.5625,-5.09896 3.34896,-5.41667 2.92188,-5.5625 C2.77604,-5.61458 2.61458,-5.64063 2.4375,-5.64063"/>
<path class="Note" fill="#78c7c7" transform="matrix(0.9936,0,0,0.9936,351.999,67.824)" d="M4.39063,-2.75 C5.01563,-2.75 5.54688,-2.58854 5.98438,-2.26563 C6.38021,-1.91146 6.57813,-1.46875 6.57813,-0.9375 C6.57813,-0.0416667 6.11979,0.796875 5.20313,1.57813 C4.26563,2.35938 3.26042,2.75 2.1875,2.75 C1.5625,2.75 1.03646,2.58854 0.609375,2.26563 C0.203125,1.91146 0,1.46875 0,0.9375 C0,0.0416667 0.46875,-0.796875 1.40625,-1.57813 C2.32292,-2.35938 3.31771,-2.75 4.39063,-2.75"/>
<path class="Note" fill="#ffffff" fill-rule="evenodd" d="M320.911,111.294 L326.873,111.294 L326.873,118.746 L320.911,118.746 L320.911,111.294 "/>
<path class="Note" transform="matrix(0.9936,0,0,0.9936,321.408,118.498)" d="M0.390625,-3.09375 C0.390625,-5 0.927083,-6.07813 2,-6.32813 C2.14583,-6.36979 2.30208,-6.39063 2.46875,-6.39063 C3.78125,-6.39063 4.47917,-5.40104 4.5625,-3.42188 C4.5625,-3.28646 4.5625,-3.15625 4.5625,-3.03125 C4.5625,-1.40625 4.15104,-0.385417 3.32813,0.03125 C3.06771,0.145833 2.78125,0.203125 2.46875,0.203125 C1.41667,0.203125 0.760417,-0.442708 0.5,-1.73438 C0.427083,-2.14063 0.390625,-2.59375 0.390625,-3.09375 M2.46875,-5.64063 C1.625,-5.63021 1.20313,-4.77083 1.20313,-3.0625 C1.20313,-1.32292 1.61979,-0.453125 2.45313,-0.453125 C3.16146,-0.453125 3.57813,-1.02604 3.70313,-2.17188 C3.73438,-2.44271 3.75,-2.75 3.75,-3.09375 C3.75,-4.79167 3.32292,-5.64063 2.46875,-5.64063"/>
<path class="Note" fill="#ff9933" transform="matrix(0.9936,0,0,0.9936,320.166,65.34)" d="M4.39063,-2.75 C5.01563,-2.75 5.54688,-2.58854 5.98438,-2.26563 C6.38021,-1.91146 6.57813,-1.46875 6.57813,-0.9375 C6.57813,-0.0416667 6.11979,0.796875 5.20313,1.57813 C4.26563,2.35938 3.26042,2.75 2.1875,2.75 C1.5625,2.75 1.03646,2.58854 0.609375,2.26563 C0.203125,1.91146 0,1.46875 0,0.9375 C0,0.0416667 0.46875,-0.796875 1.40625,-1.57813 C2.32292,-2.35938 3.31771,-2.75 4.39063,-2.75"/>
<path class="Note" fill="#ffffff" fill-rule="evenodd" d="M289.079,111.294 L295.04,111.294 L295.04,118.746 L289.079,118.746 L289.079,111.294 "/>
<path class="Note" transform="matrix(0.9936,0,0,0.9936,289.576,118.498)" d="M2.32813,-4.54688 L0.921875,-4.54688 L0.921875,-5.10938 C1.53646,-5.19271 1.93229,-5.30208 2.10938,-5.4375 C2.28646,-5.57292 2.4375,-5.85417 2.5625,-6.28125 C2.57292,-6.3125 2.58854,-6.34896 2.60938,-6.39063 L3.125,-6.39063 L3.125,0 L2.32813,0 L2.32813,-4.54688 "/>
<path class="Note" fill="#ebeb19" transform="matrix(0.9936,0,0,0.9936,288.334,62.856)" d="M4.39063,-2.75 C5.01563,-2.75 5.54688,-2.58854 5.98438,-2.26563 C6.38021,-1.91146 6.57813,-1.46875 6.57813,-0.9375 C6.57813,-0.0416667 6.11979,0.796875 5.20313,1.57813 C4.26563,2.35938 3.26042,2.75 2.1875,2.75 C1.5625,2.75 1.03646,2.58854 0.609375,2.26563 C0.203125,1.91146 0,1.46875 0,0.9375 C0,0.0416667 0.46875,-0.796875 1.40625,-1.57813 C2.32292,-2.35938 3.31771,-2.75 4.39063,-2.75"/>
<path class="Note" fill="#ffffff" fill-rule="evenodd" d="M257.246,111.294 L263.208,111.294 L263.208,118.746 L257.246,118.746 L257.246,111.294 "/>
<path class="Note" transform="matrix(0.9936,0,0,0.9936,257.743,118.498)" d="M0.390625,-3.09375 C0.390625,-5 0.927083,-6.07813 2,-6.32813 C2.14583,-6.36979 2.30208,-6.39063 2.46875,-6.39063 C3.78125,-6.39063 4.47917,-5.40104 4.5625,-3.42188 C4.5625,-3.28646 4.5625,-3.15625 4.5625,-3.03125 C4.5625,-1.40625 4.15104,-0.385417 3.32813,0.03125 C3.06771,0.145833 2.78125,0.203125 2.46875,0.203125 C1.41667,0.203125 0.760417,-0.442708 0.5,-1.73438 C0.427083,-2.14063 0.390625,-2.59375 0.390625,-3.09375 M2.46875,-5.64063 C1.625,-5.63021 1.20313,-4.77083 1.20313,-3.0625 C1.20313,-1.32292 1.61979,-0.453125 2.45313,-0.453125 C3.16146,-0.453125 3.57813,-1.02604 3.70313,-2.17188 C3.73438,-2.44271 3.75,-2.75 3.75,-3.09375 C3.75,-4.79167 3.32292,-5.64063 2.46875,-5.64063"/>
<path class="Note" fill="#ff9933" transform="matrix(0.9936,0,0,0.9936,256.501,65.34)" d="M4.39063,-2.75 C5.01563,-2.75 5.54688,-2.58854 5.98438,-2.26563 C6.38021,-1.91146 6.57813,-1.46875 6.57813,-0.9375 C6.57813,-0.0416667 6.11979,0.796875 5.20313,1.57813 C4.26563,2.35938 3.26042,2.75 2.1875,2.75 C1.5625,2.75 1.03646,2.58854 0.609375,2.26563 C0.203125,1.91146 0,1.46875 0,0.9375 C0,0.0416667 0.46875,-0.796875 1.40625,-1.57813 C2.32292,-2.35938 3.31771,-2.75 4.39063,-2.75"/>
<path class="Note" fill="#ffffff" fill-rule="evenodd" d="M225.414,118.746 L231.375,118.746 L231.375,126.198 L225.414,126.198 L225.414,118.746 "/>
<path class="Note" transform="matrix(0.9936,0,0,0.9936,225.91,125.95)" d="M2.4375,-5.64063 C1.75,-5.64063 1.35417,-5.32813 1.25,-4.70313 C1.22917,-4.59896 1.21875,-4.47917 1.21875,-4.34375 L0.421875,-4.34375 C0.442708,-5.59375 1.01563,-6.27083 2.14063,-6.375 C2.23438,-6.38542 2.32813,-6.39063 2.42188,-6.39063 C3.26563,-6.39063 3.84375,-6.10938 4.15625,-5.54688 C4.29167,-5.28646 4.35938,-4.98438 4.35938,-4.64063 C4.35938,-4.00521 4.0625,-3.57292 3.46875,-3.34375 C4.03125,-3.14583 4.375,-2.81771 4.5,-2.35938 C4.54167,-2.19271 4.5625,-2.00521 4.5625,-1.79688 C4.5625,-1.05729 4.27604,-0.505208 3.70313,-0.140625 C3.33854,0.0885417 2.90104,0.203125 2.39063,0.203125 C1.21354,0.203125 0.526042,-0.348958 0.328125,-1.45313 C0.317708,-1.57813 0.302083,-1.71354 0.28125,-1.85938 L1.07813,-1.85938 C1.13021,-1.08854 1.46875,-0.65625 2.09375,-0.5625 C2.19792,-0.541667 2.30729,-0.53125 2.42188,-0.53125 C3.04688,-0.53125 3.45313,-0.765625 3.64063,-1.23438 C3.71354,-1.40104 3.75,-1.58854 3.75,-1.79688 C3.73958,-2.54688 3.29688,-2.92708 2.42188,-2.9375 L2.09375,-2.92188 L1.98438,-2.92188 L1.98438,-3.67188 C2.66146,-3.68229 3.10417,-3.77604 3.3125,-3.95313 C3.47917,-4.09896 3.5625,-4.31771 3.5625,-4.60938 C3.5625,-5.09896 3.34896,-5.41667 2.92188,-5.5625 C2.77604,-5.61458 2.61458,-5.64063 2.4375,-5.64063"/>
<path class="Note" fill="#78c7c7" transform="matrix(0.9936,0,0,0.9936,224.668,67.824)" d="M4.39063,-2.75 C5.01563,-2.75 5.54688,-2.58854 5.98438,-2.26563 C6.38021,-1.91146 6.57813,-1.46875 6.57813,-0.9375 C6.57813,-0.0416667 6.11979,0.796875 5.20313,1.57813 C4.26563,2.35938 3.26042,2.75 2.1875,2.75 C1.5625,2.75 1.03646,2.58854 0.609375,2.26563 C0.203125,1.91146 0,1.46875 0,0.9375 C0,0.0416667 0.46875,-0.796875 1.40625,-1.57813 C2.32292,-2.35938 3.31771,-2.75 4.39063,-2.75"/>
<path class="Note" fill="#ffffff" fill-rule="evenodd" d="M193.581,118.746 L199.543,118.746 L199.543,126.198 L193.581,126.198 L193.581,118.746 "/>
<path class="Note" transform="matrix(0.9936,0,0,0.9936,194.078,125.95)" d="M2.32813,-4.54688 L0.921875,-4.54688 L0.921875,-5.10938 C1.53646,-5.19271 1.93229,-5.30208 2.10938,-5.4375 C2.28646,-5.57292 2.4375,-5.85417 2.5625,-6.28125 C2.57292,-6.3125 2.58854,-6.34896 2.60938,-6.39063 L3.125,-6.39063 L3.125,0 L2.32813,0 L2.32813,-4.54688 "/>
<path class="Note" fill="#ed2929" transform="matrix(0.9936,0,0,0.9936,192.836,70.308)" d="M4.39063,-2.75 C5.01563,-2.75 5.54688,-2.58854 5.98438,-2.26563 C6.38021,-1.91146 6.57813,-1.46875 6.57813,-0.9375 C6.57813,-0.0416667 6.11979,0.796875 5.20313,1.57813 C4.26563,2.35938 3.26042,2.75 2.1875,2.75 C1.5625,2.75 1.03646,2.58854 0.609375,2.26563 C0.203125,1.91146 0,1.46875 0,0.9375 C0,0.0416667 0.46875,-0.796875 1.40625,-1.57813 C2.32292,-2.35938 3.31771,-2.75 4.39063,-2.75"/>
<path class="Note" fill="#ffffff" fill-rule="evenodd" d="M161.748,126.198 L167.71,126.198 L167.71,133.65 L161.748,133.65 L161.748,126.198 "/>
<path class="Note" transform="matrix(0.9936,0,0,0.9936,162.245,133.402)" d="M2.4375,-5.64063 C1.75,-5.64063 1.35417,-5.32813 1.25,-4.70313 C1.22917,-4.59896 1.21875,-4.47917 1.21875,-4.34375 L0.421875,-4.34375 C0.442708,-5.59375 1.01563,-6.27083 2.14063,-6.375 C2.23438,-6.38542 2.32813,-6.39063 2.42188,-6.39063 C3.26563,-6.39063 3.84375,-6.10938 4.15625,-5.54688 C4.29167,-5.28646 4.35938,-4.98438 4.35938,-4.64063 C4.35938,-4.00521 4.0625,-3.57292 3.46875,-3.34375 C4.03125,-3.14583 4.375,-2.81771 4.5,-2.35938 C4.54167,-2.19271 4.5625,-2.00521 4.5625,-1.79688 C4.5625,-1.05729 4.27604,-0.505208 3.70313,-0.140625 C3.33854,0.0885417 2.90104,0.203125 2.39063,0.203125 C1.21354,0.203125 0.526042,-0.348958 0.328125,-1.45313 C0.317708,-1.57813 0.302083,-1.71354 0.28125,-1.85938 L1.07813,-1.85938 C1.13021,-1.08854 1.46875,-0.65625 2.09375,-0.5625 C2.19792,-0.541667 2.30729,-0.53125 2.42188,-0.53125 C3.04688,-0.53125 3.45313,-0.765625 3.64063,-1.23438 C3.71354,-1.40104 3.75,-1.58854 3.75,-1.79688 C3.73958,-2.54688 3.29688,-2.92708 2.42188,-2.9375 L2.09375,-2.92188 L1.98438,-2.92188 L1.98438,-3.67188 C2.66146,-3.68229 3.10417,-3.77604 3.3125,-3.95313 C3.47917,-4.09896 3.5625,-4.31771 3.5625,-4.60938 C3.5625,-5.09896 3.34896,-5.41667 2.92188,-5.5625 C2.77604,-5.61458 2.61458,-5.64063 2.4375,-5.64063"/>
<path class="Note" fill="#bf6a1f" transform="matrix(0.9936,0,0,0.9936,161.003,72.792)" d="M4.39063,-2.75 C5.01563,-2.75 5.54688,-2.58854 5.98438,-2.26563 C6.38021,-1.91146 6.57813,-1.46875 6.57813,-0.9375 C6.57813,-0.0416667 6.11979,0.796875 5.20313,1.57813 C4.26563,2.35938 3.26042,2.75 2.1875,2.75 C1.5625,2.75 1.03646,2.58854 0.609375,2.26563 C0.203125,1.91146 0,1.46875 0,0.9375 C0,0.0416667 0.46875,-0.796875 1.40625,-1.57813 C2.32292,-2.35938 3.31771,-2.75 4.39063,-2.75"/>
<path class="Note" fill="#ffffff" fill-rule="evenodd" d="M129.916,126.198 L135.877,126.198 L135.877,133.65 L129.916,133.65 L129.916,126.198 "/>
<path class="Note" transform="matrix(0.9936,0,0,0.9936,130.413,133.402)" d="M0.453125,-4.17188 C0.494792,-5.64063 1.19792,-6.38021 2.5625,-6.39063 C3.28125,-6.39063 3.83333,-6.14583 4.21875,-5.65625 C4.46875,-5.32292 4.59375,-4.93229 4.59375,-4.48438 C4.59375,-3.68229 4.14583,-3.03125 3.25,-2.53125 L2.34375,-2.04688 C1.79167,-1.75521 1.44271,-1.4375 1.29688,-1.09375 C1.24479,-0.989583 1.21354,-0.869792 1.20313,-0.734375 L4.5625,-0.734375 L4.5625,0 L0.3125,0 C0.354167,-0.760417 0.520833,-1.33854 0.8125,-1.73438 C1.07292,-2.05729 1.5,-2.38542 2.09375,-2.71875 L2.92188,-3.1875 C3.49479,-3.52083 3.78646,-3.94271 3.79688,-4.45313 C3.79688,-4.88021 3.61458,-5.21354 3.25,-5.45313 C3.04167,-5.57813 2.80208,-5.64063 2.53125,-5.64063 C1.73958,-5.64063 1.3125,-5.16667 1.25,-4.21875 C1.25,-4.19792 1.25,-4.18229 1.25,-4.17188 L0.453125,-4.17188 "/>
<path class="Note" fill="#cc00ff" transform="matrix(0.9936,0,0,0.9936,129.171,75.276)" d="M4.39063,-2.75 C5.01563,-2.75 5.54688,-2.58854 5.98438,-2.26563 C6.38021,-1.91146 6.57813,-1.46875 6.57813,-0.9375 C6.57813,-0.0416667 6.11979,0.796875 5.20313,1.57813 C4.26563,2.35938 3.26042,2.75 2.1875,2.75 C1.5625,2.75 1.03646,2.58854 0.609375,2.26563 C0.203125,1.91146 0,1.46875 0,0.9375 C0,0.0416667 0.46875,-0.796875 1.40625,-1.57813 C2.32292,-2.35938 3.31771,-2.75 4.39063,-2.75"/>
<path class="Note" fill="#ffffff" fill-rule="evenodd" d="M98.0831,126.198 L104.045,126.198 L104.045,133.65 L98.0831,133.65 L98.0831,126.198 "/>
<path class="Note" transform="matrix(0.9936,0,0,0.9936,98.5799,133.402)" d="M0.390625,-3.09375 C0.390625,-5 0.927083,-6.07813 2,-6.32813 C2.14583,-6.36979 2.30208,-6.39063 2.46875,-6.39063 C3.78125,-6.39063 4.47917,-5.40104 4.5625,-3.42188 C4.5625,-3.28646 4.5625,-3.15625 4.5625,-3.03125 C4.5625,-1.40625 4.15104,-0.385417 3.32813,0.03125 C3.06771,0.145833 2.78125,0.203125 2.46875,0.203125 C1.41667,0.203125 0.760417,-0.442708 0.5,-1.73438 C0.427083,-2.14063 0.390625,-2.59375 0.390625,-3.09375 M2.46875,-5.64063 C1.625,-5.63021 1.20313,-4.77083 1.20313,-3.0625 C1.20313,-1.32292 1.61979,-0.453125 2.45313,-0.453125 C3.16146,-0.453125 3.57813,-1.02604 3.70313,-2.17188 C3.73438,-2.44271 3.75,-2.75 3.75,-3.09375 C3.75,-4.79167 3.32292,-5.64063 2.46875,-5.64063"/>
<path class="Note" fill="#99cc33" transform="matrix(0.9936,0,0,0.9936,97.3379,77.76)" d="M4.39063,-2.75 C5.01563,-2.75 5.54688,-2.58854 5.98438,-2.26563 C6.38021,-1.91146 6.57813,-1.46875 6.57813,-0.9375 C6.57813,-0.0416667 6.11979,0.796875 5.20313,1.57813 C4.26563,2.35938 3.26042,2.75 2.1875,2.75 C1.5625,2.75 1.03646,2.58854 0.609375,2.26563 C0.203125,1.91146 0,1.46875 0,0.9375 C0,0.0416667 0.46875,-0.796875 1.40625,-1.57813 C2.32292,-2.35938 3.31771,-2.75 4.39063,-2.75"/>
<path class="Note" fill="#ffffff" fill-rule="evenodd" d="M66.2505,133.65 L72.2121,133.65 L72.2121,141.102 L66.2505,141.102 L66.2505,133.65 "/>
<path class="Note" transform="matrix(0.9936,0,0,0.9936,66.7473,140.854)" d="M2.4375,-5.64063 C1.75,-5.64063 1.35417,-5.32813 1.25,-4.70313 C1.22917,-4.59896 1.21875,-4.47917 1.21875,-4.34375 L0.421875,-4.34375 C0.442708,-5.59375 1.01563,-6.27083 2.14063,-6.375 C2.23438,-6.38542 2.32813,-6.39063 2.42188,-6.39063 C3.26563,-6.39063 3.84375,-6.10938 4.15625,-5.54688 C4.29167,-5.28646 4.35938,-4.98438 4.35938,-4.64063 C4.35938,-4.00521 4.0625,-3.57292 3.46875,-3.34375 C4.03125,-3.14583 4.375,-2.81771 4.5,-2.35938 C4.54167,-2.19271 4.5625,-2.00521 4.5625,-1.79688 C4.5625,-1.05729 4.27604,-0.505208 3.70313,-0.140625 C3.33854,0.0885417 2.90104,0.203125 2.39063,0.203125 C1.21354,0.203125 0.526042,-0.348958 0.328125,-1.45313 C0.317708,-1.57813 0.302083,-1.71354 0.28125,-1.85938 L1.07813,-1.85938 C1.13021,-1.08854 1.46875,-0.65625 2.09375,-0.5625 C2.19792,-0.541667 2.30729,-0.53125 2.42188,-0.53125 C3.04688,-0.53125 3.45313,-0.765625 3.64063,-1.23438 C3.71354,-1.40104 3.75,-1.58854 3.75,-1.79688 C3.73958,-2.54688 3.29688,-2.92708 2.42188,-2.9375 L2.09375,-2.92188 L1.98438,-2.92188 L1.98438,-3.67188 C2.66146,-3.68229 3.10417,-3.77604 3.3125,-3.95313 C3.47917,-4.09896 3.5625,-4.31771 3.5625,-4.60938 C3.5625,-5.09896 3.34896,-5.41667 2.92188,-5.5625 C2.77604,-5.61458 2.61458,-5.64063 2.4375,-5.64063"/>
<path class="Note" fill="#ebeb19" transform="matrix(0.9936,0,0,0.9936,65.5053,80.244)" d="M4.39063,-2.75 C5.01563,-2.75 5.54688,-2.58854 5.98438,-2.26563 C6.38021,-1.91146 6.57813,-1.46875 6.57813,-0.9375 C6.57813,-0.0416667 6.11979,0.796875 5.20313,1.57813 C4.26563,2.35938 3.26042,2.75 2.1875,2.75 C1.5625,2.75 1.03646,2.58854 0.609375,2.26563 C0.203125,1.91146 0,1.46875 0,0.9375 C0,0.0416667 0.46875,-0.796875 1.40625,-1.57813 C2.32292,-2.35938 3.31771,-2.75 4.39063,-2.75"/>
<path class="Clef" transform="matrix(0.9936,0,0,0.9936,32.0544,133.65)" d="M5.32813,8.5 C5.32813,8.86458 5.04167,9.04688 4.46875,9.04688 C4.02083,9.04688 3.625,8.91146 3.28125,8.64063 C2.95833,8.34896 2.79688,7.98438 2.79688,7.54688 C2.79688,6.76563 3.27083,6.14063 4.21875,5.67188 C5.14583,5.18229 6.23438,4.9375 7.48438,4.9375 C7.96354,4.9375 8.47917,4.97396 9.03125,5.04688 C9.42708,5.09896 9.875,5.20313 10.375,5.35938 C10.8125,5.49479 11.1563,5.70573 11.4063,5.99219 C11.6563,6.27865 11.7813,6.61458 11.7813,7 C11.7813,7.89583 11.3177,8.63021 10.3906,9.20313 C11.7448,9.45313 12.4271,10.0573 12.4375,11.0156 C12.4375,11.8281 12.0729,12.5599 11.3438,13.2109 C10.6146,13.862 9.79167,14.1875 8.875,14.1875 C8.47917,14.1875 8.07813,14.0938 7.67188,13.9063 C7.29688,13.7292 7.03125,13.5625 6.875,13.4063 C6.71875,13.2188 6.64063,13.0781 6.64063,12.9844 C6.64063,12.8594 6.70833,12.75 6.84375,12.6563 C6.95833,12.5417 7.07813,12.4844 7.20313,12.4844 C7.25521,12.4844 7.36719,12.5677 7.53906,12.7344 C7.71094,12.901 7.95833,12.9844 8.28125,12.9844 C8.72917,12.9844 9.16146,12.7969 9.57813,12.4219 C9.97396,12.0573 10.1719,11.6198 10.1719,11.1094 C10.1719,10.6719 9.98438,10.3542 9.60938,10.1563 C9.24479,9.95833 8.76563,9.85938 8.17188,9.85938 C8.06771,9.85938 8.01563,9.75 8.01563,9.53125 C8.01563,9.21875 8.13021,9.0625 8.35938,9.0625 C8.72396,9.0625 9.05208,8.90625 9.34375,8.59375 C9.61458,8.26042 9.75,7.90104 9.75,7.51563 C9.75,7.40104 9.71875,7.22917 9.65625,7 C9.60417,6.84375 9.44792,6.65104 9.1875,6.42188 C8.9375,6.21354 8.58854,6.07292 8.14063,6 C8.02604,6.63542 7.88021,7.44792 7.70313,8.4375 C7.52604,9.42708 7.40625,10.0781 7.34375,10.3906 C7.125,11.5156 6.72396,12.4583 6.14063,13.2188 C5.52604,14.0313 4.86458,14.4375 4.15625,14.4375 C3.9375,14.4375 3.71354,14.3854 3.48438,14.2813 C3.29688,14.1979 3.0625,14.0365 2.78125,13.7969 C2.52083,13.5885 2.34375,13.4479 2.25,13.375 C2.19792,13.3438 2.17188,13.2865 2.17188,13.2031 C2.17188,13.0781 2.21875,12.9635 2.3125,12.8594 C2.41667,12.7344 2.52604,12.6719 2.64063,12.6719 C2.71354,12.6719 2.89323,12.7969 3.17969,13.0469 C3.46615,13.2969 3.76563,13.4219 4.07813,13.4219 C4.68229,13.4219 5.13542,13.0365 5.4375,12.2656 C5.71875,11.526 5.85938,10.6094 5.85938,9.51563 L5.85938,9.35938 C5.85938,8.63021 5.97917,7.54167 6.21875,6.09375 C5.80208,6.22917 5.46875,6.42708 5.21875,6.6875 C4.95833,6.94792 4.82813,7.21875 4.82813,7.5 C4.82813,7.71875 4.91146,7.90625 5.07813,8.0625 C5.24479,8.21875 5.32813,8.36458 5.32813,8.5 M1.40625,2.39063 C1.46875,2.39063 1.625,2.45313 1.875,2.57813 C2.13542,2.71354 2.35938,2.78125 2.54688,2.78125 C3.03646,2.78125 3.64063,2.42188 4.35938,1.70313 C6.43229,-0.411458 7.85938,-2.65104 8.64063,-5.01563 C8.79688,-5.51563 9.17708,-5.76563 9.78125,-5.76563 C10.0938,-5.76563 10.3646,-5.69792 10.5938,-5.5625 C10.8125,-5.42708 10.9219,-5.28646 10.9219,-5.14063 L10.5625,2.17188 C10.5625,2.55729 10.7031,2.75 10.9844,2.75 C11.1198,2.75 11.3281,2.6875 11.6094,2.5625 C11.8698,2.42708 12.026,2.35938 12.0781,2.35938 C12.1823,2.35938 12.2448,2.47396 12.2656,2.70313 C12.2656,2.91146 12.1823,3.04167 12.0156,3.09375 C11.8802,3.125 11.6198,3.24479 11.2344,3.45313 C10.8281,3.66146 10.5104,3.76563 10.2813,3.76563 C9.78125,3.76563 9.42708,3.375 9.21875,2.59375 C8.89583,1.375 8.6875,0.104167 8.59375,-1.21875 C8.07292,-0.552083 7.49479,0.119792 6.85938,0.796875 C7.08854,1.24479 7.51563,1.46875 8.14063,1.46875 C8.23438,1.46875 8.30729,1.46354 8.35938,1.45313 L8.375,1.45313 C8.47917,1.45313 8.53125,1.54688 8.53125,1.73438 C8.53125,1.98438 8.44792,2.13542 8.28125,2.1875 C8.01042,2.28125 7.72396,2.32813 7.42188,2.32813 C6.77604,2.32813 6.30729,2.10417 6.01563,1.65625 L5.23438,2.35938 C4.14063,3.29688 3.25,3.76563 2.5625,3.76563 C2.375,3.76563 2.1875,3.73438 2,3.67188 C1.84375,3.60938 1.66146,3.51042 1.45313,3.375 C1.36979,3.34375 1.27865,3.29688 1.17969,3.23438 C1.08073,3.17188 1.02083,3.13542 1,3.125 C0.9375,3.10417 0.90625,3.04688 0.90625,2.95313 C0.90625,2.84896 0.958333,2.72396 1.0625,2.57813 C1.14583,2.45313 1.26042,2.39063 1.40625,2.39063 M5.76563,-10.7969 C5.76563,-10.474 5.48438,-10.3125 4.92188,-10.3125 C4.43229,-10.3125 4.00521,-10.474 3.64063,-10.7969 C3.28646,-11.1302 3.10938,-11.5313 3.10938,-12 C3.10938,-12.4479 3.25,-12.8385 3.53125,-13.1719 C3.83333,-13.5052 4.21875,-13.7552 4.6875,-13.9219 C5.11458,-14.0781 5.59896,-14.2031 6.14063,-14.2969 C6.69271,-14.3594 7.22396,-14.3906 7.73438,-14.3906 C8.03646,-14.3906 8.59896,-14.2552 9.42188,-13.9844 C10.2552,-13.7135 10.8333,-13.5781 11.1563,-13.5781 C11.5625,-13.5781 11.9479,-13.651 12.3125,-13.7969 C12.6042,-13.9219 12.8906,-14.0677 13.1719,-14.2344 C13.3906,-14.3802 13.5104,-14.4531 13.5313,-14.4531 C13.6563,-14.4531 13.7604,-14.4167 13.8438,-14.3438 C13.9479,-14.2396 14,-14.151 14,-14.0781 C14,-13.9948 13.8802,-13.849 13.6406,-13.6406 C13.3802,-13.401 13.0078,-13.1641 12.5234,-12.9297 C12.0391,-12.6953 11.5313,-12.5781 11,-12.5781 C10.7604,-12.5781 10.4688,-12.6198 10.125,-12.7031 C9.89583,-11.2552 9.66146,-9.96875 9.42188,-8.84375 C9.21354,-7.85417 8.79688,-6.98958 8.17188,-6.25 C7.56771,-5.51042 6.89583,-5.14063 6.15625,-5.14063 C5.85417,-5.14063 5.58854,-5.19792 5.35938,-5.3125 C5.09896,-5.44792 4.82292,-5.64583 4.53125,-5.90625 C4.30208,-6.09375 4.08333,-6.26563 3.875,-6.42188 C3.82292,-6.46354 3.79688,-6.52604 3.79688,-6.60938 C3.79688,-6.69271 3.84896,-6.80729 3.95313,-6.95313 C4.05729,-7.06771 4.15104,-7.125 4.23438,-7.125 C4.31771,-7.125 4.54167,-6.96354 4.90625,-6.64063 C5.27083,-6.31771 5.59375,-6.15625 5.875,-6.15625 C6.39583,-6.15625 6.80208,-6.45313 7.09375,-7.04688 C7.375,-7.64063 7.53646,-8.34375 7.57813,-9.15625 C7.64063,-10.5 7.79167,-11.8906 8.03125,-13.3281 C7.73958,-13.3906 7.52604,-13.4219 7.39063,-13.4219 C6.76563,-13.4219 6.22917,-13.2917 5.78125,-13.0313 C5.34375,-12.7813 5.125,-12.4427 5.125,-12.0156 C5.125,-11.7031 5.22917,-11.4635 5.4375,-11.2969 C5.65625,-11.1094 5.76563,-10.9427 5.76563,-10.7969"/>
<path class="Clef" transform="matrix(0.9936,0,0,0.9936,32.0544,77.76)" d="M7.34375,-5.125 C7.34375,-5.125 7.38542,-5.125 7.46875,-5.125 C7.52083,-5.13542 7.5625,-5.14063 7.59375,-5.14063 C9.05208,-5.14063 10.25,-4.625 11.1875,-3.59375 C12.125,-2.58333 12.5938,-1.40104 12.5938,-0.046875 C12.5938,1.64063 11.901,3.01042 10.5156,4.0625 C10.151,4.35417 9.67188,4.58854 9.07813,4.76563 C9.15104,5.60938 9.1875,6.29167 9.1875,6.8125 C9.1875,6.91667 9.17188,7.29688 9.14063,7.95313 C9.08854,9.16146 8.67188,10.2083 7.89063,11.0938 C7.14063,11.9688 6.20313,12.4063 5.07813,12.4063 C4.02604,12.4063 3.13021,12.0365 2.39063,11.2969 C1.64063,10.5365 1.26563,9.625 1.26563,8.5625 C1.26563,8 1.48438,7.52083 1.92188,7.125 C2.35938,6.73958 2.86979,6.54688 3.45313,6.54688 C3.97396,6.54688 4.41146,6.75 4.76563,7.15625 C5.13021,7.53125 5.3125,8 5.3125,8.5625 C5.3125,9.0625 5.13021,9.49479 4.76563,9.85938 C4.40104,10.224 3.96354,10.4063 3.45313,10.4063 C3.24479,10.4063 3.04688,10.3698 2.85938,10.2969 C3.43229,11.1406 4.19271,11.5625 5.14063,11.5625 C6.03646,11.5625 6.77083,11.1979 7.34375,10.4688 C7.94792,9.71875 8.27604,8.83854 8.32813,7.82813 C8.34896,7.20313 8.35938,6.84896 8.35938,6.76563 C8.35938,6.03646 8.33333,5.4375 8.28125,4.96875 C7.63542,5.07292 7.05729,5.125 6.54688,5.125 C4.73438,5.125 3.19271,4.40625 1.92188,2.96875 C0.671875,1.52083 0.046875,-0.197917 0.046875,-2.1875 C0.046875,-2.60417 0.0833333,-3.02604 0.15625,-3.45313 C0.239583,-3.80729 0.338542,-4.19271 0.453125,-4.60938 C0.515625,-4.84896 0.692708,-5.22917 0.984375,-5.75 C1.08854,-5.90625 1.20573,-6.10156 1.33594,-6.33594 C1.46615,-6.57031 1.55729,-6.72396 1.60938,-6.79688 C1.73438,-7.05729 1.98438,-7.41146 2.35938,-7.85938 C2.46354,-7.97396 2.57292,-8.10156 2.6875,-8.24219 C2.80208,-8.38281 2.89844,-8.5 2.97656,-8.59375 C3.05469,-8.6875 3.11198,-8.76042 3.14844,-8.8125 C3.1849,-8.86458 3.47917,-9.20833 4.03125,-9.84375 C4.15625,-9.97917 4.28125,-10.1198 4.40625,-10.2656 C4.53125,-10.4115 4.63281,-10.5286 4.71094,-10.6172 C4.78906,-10.7057 4.84896,-10.7656 4.89063,-10.7969 C4.42188,-12.349 4.125,-13.5885 4,-14.5156 C3.91667,-15.2552 3.875,-16.2708 3.875,-17.5625 C3.875,-18.6979 4.13542,-19.7604 4.65625,-20.75 C5.15625,-21.7708 5.86458,-22.6094 6.78125,-23.2656 C6.84375,-23.3073 6.90625,-23.3281 6.96875,-23.3281 C7.0625,-23.3281 7.13021,-23.3073 7.17188,-23.2656 C7.86979,-22.4219 8.47396,-21.3229 8.98438,-19.9688 C9.50521,-18.6146 9.76563,-17.3802 9.76563,-16.2656 C9.76563,-15.0156 9.46875,-13.8438 8.875,-12.75 C8.19792,-11.5938 7.32292,-10.3958 6.25,-9.15625 C6.52083,-8.30208 6.88542,-6.95833 7.34375,-5.125 M9,3.96875 C9.67708,3.71875 10.2083,3.29688 10.5938,2.70313 C11.0104,2.13021 11.2188,1.48438 11.2188,0.765625 C11.2188,-0.161458 10.9063,-0.984375 10.2813,-1.70313 C9.63542,-2.44271 8.81771,-2.85938 7.82813,-2.95313 C8.39063,-0.203125 8.78125,2.10417 9,3.96875 M1.45313,-0.546875 C1.45313,0.744792 1.97396,1.88021 3.01563,2.85938 C4.07813,3.80729 5.27604,4.28125 6.60938,4.28125 C7.15104,4.28125 7.68229,4.23958 8.20313,4.15625 C7.99479,2.17708 7.58333,-0.192708 6.96875,-2.95313 C6.22917,-2.86979 5.64063,-2.60938 5.20313,-2.17188 C4.76563,-1.71354 4.54688,-1.19792 4.54688,-0.625 C4.54688,0.364583 5.07813,1.16667 6.14063,1.78125 C6.22396,1.875 6.26563,1.97396 6.26563,2.07813 C6.26563,2.18229 6.22396,2.27604 6.14063,2.35938 C6.05729,2.45313 5.95833,2.5 5.84375,2.5 C5.83333,2.5 5.77604,2.48958 5.67188,2.46875 C4.92188,2.0625 4.34896,1.54167 3.95313,0.90625 C3.56771,0.21875 3.375,-0.46875 3.375,-1.15625 C3.375,-2.05208 3.65625,-2.86458 4.21875,-3.59375 C4.80208,-4.32292 5.5625,-4.79167 6.5,-5 C6.13542,-6.45833 5.83854,-7.59896 5.60938,-8.42188 C5.40104,-8.18229 5.15104,-7.89844 4.85938,-7.57031 C4.56771,-7.24219 4.39583,-7.04167 4.34375,-6.96875 C3.875,-6.36458 3.51563,-5.89063 3.26563,-5.54688 C2.81771,-4.93229 2.48958,-4.40625 2.28125,-3.96875 C2.0625,-3.46875 1.86979,-2.92708 1.70313,-2.34375 C1.53646,-1.78125 1.45313,-1.18229 1.45313,-0.546875 M7.96875,-20.4063 C6.98958,-19.9271 6.22396,-19.2396 5.67188,-18.3438 C5.09896,-17.4167 4.8125,-16.4219 4.8125,-15.3594 C4.8125,-14.4219 5.04688,-13.1563 5.51563,-11.5625 C6.45313,-12.6979 7.15625,-13.7448 7.625,-14.7031 C8.11458,-15.724 8.35938,-16.7865 8.35938,-17.8906 C8.35938,-18.724 8.22917,-19.5625 7.96875,-20.4063 M5.82813,15.2344 C6.16146,14.901 6.32813,14.5625 6.32813,14.2188 C6.30729,13.9479 6.19271,13.7396 5.98438,13.5938 C5.74479,13.4375 5.46875,13.3594 5.15625,13.3594 C4.9375,13.3594 4.75521,13.4323 4.60938,13.5781 C4.48438,13.7031 4.42188,13.8646 4.42188,14.0625 C4.42188,14.3021 4.51563,14.4792 4.70313,14.5938 L5.82813,15.2344 M6.14063,15.4063 C6.68229,15.7083 6.95313,16.1146 6.95313,16.625 L6.95313,16.6875 C6.95313,17.0833 6.79167,17.4219 6.46875,17.7031 C6.14583,17.9844 5.68229,18.125 5.07813,18.125 C4.58854,18.125 4.16146,17.9948 3.79688,17.7344 C3.43229,17.4844 3.25,17.1458 3.25,16.7188 C3.25,16.5521 3.29167,16.3958 3.375,16.25 C3.47917,16.0833 3.56771,15.9688 3.64063,15.9063 L4,15.5313 C3.60417,15.2604 3.40625,14.901 3.40625,14.4531 C3.40625,14.099 3.5625,13.7865 3.875,13.5156 C4.19792,13.2552 4.625,13.125 5.15625,13.125 C5.60417,13.125 5.98438,13.224 6.29688,13.4219 C6.60938,13.6198 6.76563,13.8854 6.76563,14.2188 C6.76563,14.5729 6.55729,14.9688 6.14063,15.4063 M4.29688,15.7031 C3.91146,16.0469 3.70313,16.3854 3.67188,16.7188 C3.70313,17.0729 3.84896,17.3542 4.10938,17.5625 C4.39063,17.7813 4.71354,17.8906 5.07813,17.8906 C5.33854,17.8906 5.54688,17.8073 5.70313,17.6406 C5.85938,17.4844 5.9375,17.2969 5.9375,17.0781 C5.92708,16.7865 5.8125,16.5781 5.59375,16.4531 L4.29688,15.7031 "/>
<path class="KeySig" transform="matrix(0.9936,0,0,0.9936,49.4657,72.792)" d="M0.921875,-0.828125 L0.921875,0.71875 C0.921875,1.27083 0.947917,1.70833 1,2.03125 C1.42708,1.66667 1.73438,1.39583 1.92188,1.21875 C2.13021,1.01042 2.33854,0.721354 2.54688,0.351563 C2.75521,-0.0182292 2.85938,-0.385417 2.85938,-0.75 C2.85938,-1.11458 2.78125,-1.42708 2.625,-1.6875 C2.46875,-1.94792 2.26042,-2.07813 2,-2.07813 C1.6875,-2.07813 1.42708,-1.95833 1.21875,-1.71875 C1.02083,-1.45833 0.921875,-1.16146 0.921875,-0.828125 M0.09375,2.75 L-0.15625,-9.14063 C0.03125,-9.24479 0.216146,-9.29688 0.398438,-9.29688 C0.580729,-9.29688 0.760417,-9.24479 0.9375,-9.14063 L0.78125,-2.25 C1.3125,-2.70833 1.92708,-2.9375 2.625,-2.9375 C3.125,-2.9375 3.54427,-2.72917 3.88281,-2.3125 C4.22135,-1.89583 4.39063,-1.41667 4.39063,-0.875 C4.39063,-0.541667 4.28125,-0.182292 4.0625,0.203125 C3.85417,0.546875 3.63542,0.817708 3.40625,1.01563 C3.27083,1.11979 2.9375,1.38021 2.40625,1.79688 C2.25,1.91146 2.0651,2.04688 1.85156,2.20313 C1.63802,2.35938 1.50521,2.45833 1.45313,2.5 C1.35938,2.55208 1.27083,2.65625 1.1875,2.8125 C1.10417,2.94792 1,3.05729 0.875,3.14063 C0.791667,3.22396 0.684896,3.26563 0.554688,3.26563 C0.424479,3.26563 0.317708,3.21875 0.234375,3.125 C0.140625,3.03125 0.09375,2.90625 0.09375,2.75"/>
<path class="Fingering" d="M505.139,82.119 C505.264,82.119 505.446,82.1867 505.686,82.3221 C505.936,82.4784 506.149,82.5565 506.327,82.5565 C506.691,82.5565 506.978,82.395 507.186,82.0721 C507.311,81.8638 507.373,81.6294 507.373,81.369 C507.373,80.6086 506.92,80.1919 506.014,80.119 C505.92,80.1086 505.821,80.1034 505.717,80.1034 L505.717,79.994 C506.321,79.7961 506.717,79.5409 506.905,79.2284 C506.998,79.0617 507.045,78.8794 507.045,78.6815 C507.045,78.3273 506.899,78.0721 506.608,77.9159 C506.472,77.8534 506.327,77.8221 506.17,77.8221 C505.722,77.8221 505.353,78.0565 505.061,78.5252 C505.03,78.5669 505.004,78.6138 504.983,78.6659 L504.858,78.6346 C505.108,77.9575 505.472,77.5461 505.952,77.4002 C506.097,77.3586 506.259,77.3377 506.436,77.3377 C506.915,77.3377 507.269,77.5044 507.498,77.8377 C507.623,78.0148 507.686,78.2127 507.686,78.4315 C507.686,78.7544 507.535,79.0461 507.233,79.3065 C507.139,79.3794 507.04,79.4575 506.936,79.5409 C507.415,79.7492 507.722,80.0357 507.858,80.4002 C507.92,80.5773 507.952,80.7752 507.952,80.994 C507.952,81.6294 507.686,82.1242 507.155,82.4784 C506.759,82.7284 506.29,82.8534 505.748,82.8534 C505.259,82.8534 504.967,82.744 504.873,82.5252 C504.853,82.4836 504.842,82.4419 504.842,82.4002 C504.842,82.244 504.92,82.1555 505.077,82.1346 C505.097,82.1242 505.118,82.119 505.139,82.119"/>
<path class="Fingering" d="M474.845,80.3694 C474.251,80.3694 473.788,80.0621 473.455,79.4475 C473.173,78.9475 473.033,78.3225 473.033,77.5725 C473.033,76.6767 473.241,75.9735 473.658,75.4631 C473.991,75.0673 474.397,74.8642 474.876,74.8537 C475.439,74.8537 475.882,75.1402 476.205,75.7131 C476.507,76.2235 476.658,76.859 476.658,77.6194 C476.658,78.5881 476.434,79.3277 475.986,79.8381 C475.663,80.1923 475.283,80.3694 474.845,80.3694 M474.845,75.0569 C474.199,75.0569 473.85,75.8277 473.798,77.3694 C473.798,77.4631 473.798,77.5569 473.798,77.6506 C473.809,79.3173 474.158,80.1558 474.845,80.1662 C475.533,80.1558 475.876,79.3121 475.876,77.635 C475.876,76.1142 475.606,75.2652 475.064,75.0881 C474.991,75.0673 474.918,75.0569 474.845,75.0569"/>
<path class="Fingering" d="M441.263,73.9635 C441.502,72.9427 442.028,72.4166 442.841,72.3854 C442.872,72.3854 442.898,72.3854 442.919,72.3854 C443.408,72.3854 443.799,72.5625 444.091,72.9166 C444.299,73.177 444.403,73.4687 444.403,73.7916 C444.403,74.3854 444.085,75.026 443.45,75.7135 C443.429,75.7343 443.403,75.7552 443.372,75.776 L442.044,77.1979 L443.95,77.1979 C444.158,77.1979 444.32,77.1406 444.434,77.026 C444.507,76.9531 444.596,76.8333 444.7,76.6666 L444.809,76.6979 L444.372,77.776 L441.247,77.776 L441.247,77.6822 L442.669,76.1666 C443.346,75.427 443.695,74.7343 443.716,74.0885 C443.716,73.6406 443.544,73.3177 443.2,73.1197 C443.023,73.0156 442.82,72.9635 442.591,72.9635 C442.237,72.9635 441.96,73.0989 441.763,73.3697 C441.648,73.526 441.539,73.7395 441.434,74.0104 L441.263,73.9635 "/>
<path class="Fingering" d="M409.821,74.667 C409.946,74.667 410.128,74.7347 410.367,74.8701 C410.617,75.0264 410.831,75.1045 411.008,75.1045 C411.373,75.1045 411.659,74.943 411.867,74.6201 C411.992,74.4118 412.055,74.1774 412.055,73.917 C412.055,73.1566 411.602,72.7399 410.696,72.667 C410.602,72.6566 410.503,72.6514 410.399,72.6514 L410.399,72.542 C411.003,72.3441 411.399,72.0889 411.586,71.7764 C411.68,71.6097 411.727,71.4274 411.727,71.2295 C411.727,70.8753 411.581,70.6201 411.289,70.4639 C411.154,70.4014 411.008,70.3701 410.852,70.3701 C410.404,70.3701 410.034,70.6045 409.742,71.0733 C409.711,71.1149 409.685,71.1618 409.664,71.2139 L409.539,71.1826 C409.789,70.5055 410.154,70.0941 410.633,69.9483 C410.779,69.9066 410.94,69.8858 411.117,69.8858 C411.597,69.8858 411.951,70.0524 412.18,70.3858 C412.305,70.5628 412.367,70.7608 412.367,70.9795 C412.367,71.3024 412.216,71.5941 411.914,71.8545 C411.821,71.9274 411.722,72.0055 411.617,72.0889 C412.097,72.2972 412.404,72.5837 412.539,72.9483 C412.602,73.1253 412.633,73.3233 412.633,73.542 C412.633,74.1774 412.367,74.6722 411.836,75.0264 C411.44,75.2764 410.972,75.4014 410.43,75.4014 C409.94,75.4014 409.649,75.292 409.555,75.0733 C409.534,75.0316 409.524,74.9899 409.524,74.9483 C409.524,74.792 409.602,74.7035 409.758,74.6826 C409.779,74.6722 409.8,74.667 409.821,74.667"/>
<path class="Fingering" d="M378.816,68.0736 C378.702,68.0736 378.509,68.1309 378.238,68.2455 L378.238,68.1361 L379.675,67.4017 L379.738,67.4174 L379.738,72.2142 C379.738,72.4226 379.8,72.558 379.925,72.6205 C380.03,72.6622 380.222,72.683 380.504,72.683 L380.504,72.808 L378.285,72.808 L378.285,72.683 C378.639,72.6726 378.863,72.6101 378.957,72.4955 C379.019,72.4017 379.05,72.2559 379.05,72.058 L379.05,68.4486 C379.04,68.1986 378.962,68.0736 378.816,68.0736"/>
<path class="Fingering" d="M346.155,69.699 C346.28,69.699 346.463,69.7667 346.702,69.9021 C346.952,70.0584 347.166,70.1365 347.343,70.1365 C347.707,70.1365 347.994,69.975 348.202,69.6521 C348.327,69.4438 348.39,69.2094 348.39,68.949 C348.39,68.1886 347.937,67.7719 347.03,67.699 C346.937,67.6886 346.838,67.6834 346.734,67.6834 L346.734,67.574 C347.338,67.3761 347.734,67.1209 347.921,66.8084 C348.015,66.6417 348.062,66.4594 348.062,66.2615 C348.062,65.9073 347.916,65.6521 347.624,65.4959 C347.489,65.4334 347.343,65.4021 347.187,65.4021 C346.739,65.4021 346.369,65.6365 346.077,66.1052 C346.046,66.1469 346.02,66.1938 345.999,66.2459 L345.874,66.2146 C346.124,65.5375 346.489,65.1261 346.968,64.9802 C347.114,64.9386 347.275,64.9177 347.452,64.9177 C347.931,64.9177 348.286,65.0844 348.515,65.4177 C348.64,65.5948 348.702,65.7927 348.702,66.0115 C348.702,66.3344 348.551,66.6261 348.249,66.8865 C348.155,66.9594 348.056,67.0375 347.952,67.1209 C348.431,67.3292 348.739,67.6157 348.874,67.9802 C348.937,68.1573 348.968,68.3552 348.968,68.574 C348.968,69.2094 348.702,69.7042 348.171,70.0584 C347.775,70.3084 347.306,70.4334 346.765,70.4334 C346.275,70.4334 345.984,70.324 345.89,70.1052 C345.869,70.0636 345.859,70.0219 345.859,69.9802 C345.859,69.824 345.937,69.7355 346.093,69.7146 C346.114,69.7042 346.135,69.699 346.155,69.699"/>
<path class="Fingering" d="M315.682,67.9494 C315.088,67.9494 314.625,67.6421 314.292,67.0275 C314.01,66.5275 313.87,65.9025 313.87,65.1525 C313.87,64.2567 314.078,63.5535 314.495,63.0431 C314.828,62.6473 315.234,62.4442 315.713,62.4337 C316.276,62.4337 316.719,62.7202 317.042,63.2931 C317.344,63.8035 317.495,64.439 317.495,65.1994 C317.495,66.1681 317.271,66.9077 316.823,67.4181 C316.5,67.7723 316.12,67.9494 315.682,67.9494 M315.682,62.6369 C315.036,62.6369 314.687,63.4077 314.635,64.9494 C314.635,65.0431 314.635,65.1369 314.635,65.2306 C314.646,66.8973 314.995,67.7358 315.682,67.7462 C316.37,67.7358 316.713,66.8921 316.713,65.215 C316.713,63.6942 316.443,62.8452 315.901,62.6681 C315.828,62.6473 315.755,62.6369 315.682,62.6369"/>
<path class="Fingering" d="M283.318,60.6216 C283.204,60.6216 283.011,60.6789 282.74,60.7935 L282.74,60.6841 L284.178,59.9497 L284.24,59.9654 L284.24,64.7622 C284.24,64.9706 284.303,65.106 284.428,65.1685 C284.532,65.2102 284.725,65.231 285.006,65.231 L285.006,65.356 L282.787,65.356 L282.787,65.231 C283.141,65.2206 283.365,65.1581 283.459,65.0435 C283.521,64.9497 283.553,64.8039 283.553,64.606 L283.553,60.9966 C283.542,60.7466 283.464,60.6216 283.318,60.6216"/>
<path class="Fingering" d="M252.017,67.9494 C251.423,67.9494 250.96,67.6421 250.626,67.0275 C250.345,66.5275 250.204,65.9025 250.204,65.1525 C250.204,64.2567 250.413,63.5535 250.829,63.0431 C251.163,62.6473 251.569,62.4442 252.048,62.4337 C252.611,62.4337 253.053,62.7202 253.376,63.2931 C253.678,63.8035 253.829,64.439 253.829,65.1994 C253.829,66.1681 253.605,66.9077 253.158,67.4181 C252.835,67.7723 252.454,67.9494 252.017,67.9494 M252.017,62.6369 C251.371,62.6369 251.022,63.4077 250.97,64.9494 C250.97,65.0431 250.97,65.1369 250.97,65.2306 C250.98,66.8973 251.329,67.7358 252.017,67.7462 C252.704,67.7358 253.048,66.8921 253.048,65.215 C253.048,63.6942 252.777,62.8452 252.236,62.6681 C252.163,62.6473 252.09,62.6369 252.017,62.6369"/>
<path class="Fingering" d="M218.825,69.699 C218.95,69.699 219.132,69.7667 219.372,69.9021 C219.622,70.0584 219.835,70.1365 220.012,70.1365 C220.377,70.1365 220.664,69.975 220.872,69.6521 C220.997,69.4438 221.059,69.2094 221.059,68.949 C221.059,68.1886 220.606,67.7719 219.7,67.699 C219.606,67.6886 219.507,67.6834 219.403,67.6834 L219.403,67.574 C220.007,67.3761 220.403,67.1209 220.591,66.8084 C220.684,66.6417 220.731,66.4594 220.731,66.2615 C220.731,65.9073 220.585,65.6521 220.294,65.4959 C220.158,65.4334 220.012,65.4021 219.856,65.4021 C219.408,65.4021 219.039,65.6365 218.747,66.1052 C218.716,66.1469 218.69,66.1938 218.669,66.2459 L218.544,66.2146 C218.794,65.5375 219.158,65.1261 219.637,64.9802 C219.783,64.9386 219.945,64.9177 220.122,64.9177 C220.601,64.9177 220.955,65.0844 221.184,65.4177 C221.309,65.5948 221.372,65.7927 221.372,66.0115 C221.372,66.3344 221.221,66.6261 220.919,66.8865 C220.825,66.9594 220.726,67.0375 220.622,67.1209 C221.101,67.3292 221.408,67.6157 221.544,67.9802 C221.606,68.1573 221.637,68.3552 221.637,68.574 C221.637,69.2094 221.372,69.7042 220.841,70.0584 C220.445,70.3084 219.976,70.4334 219.434,70.4334 C218.945,70.4334 218.653,70.324 218.559,70.1052 C218.539,70.0636 218.528,70.0219 218.528,69.9802 C218.528,69.824 218.606,69.7355 218.762,69.7146 C218.783,69.7042 218.804,69.699 218.825,69.699"/>
<path class="Fingering" d="M187.82,68.0736 C187.706,68.0736 187.513,68.1309 187.242,68.2455 L187.242,68.1361 L188.68,67.4017 L188.742,67.4174 L188.742,72.2142 C188.742,72.4226 188.805,72.558 188.93,72.6205 C189.034,72.6622 189.227,72.683 189.508,72.683 L189.508,72.808 L187.289,72.808 L187.289,72.683 C187.643,72.6726 187.867,72.6101 187.961,72.4955 C188.024,72.4017 188.055,72.2559 188.055,72.058 L188.055,68.4486 C188.044,68.1986 187.966,68.0736 187.82,68.0736"/>
<path class="Fingering" d="M155.16,74.667 C155.285,74.667 155.467,74.7347 155.707,74.8701 C155.957,75.0264 156.17,75.1045 156.347,75.1045 C156.712,75.1045 156.998,74.943 157.207,74.6201 C157.332,74.4118 157.394,74.1774 157.394,73.917 C157.394,73.1566 156.941,72.7399 156.035,72.667 C155.941,72.6566 155.842,72.6514 155.738,72.6514 L155.738,72.542 C156.342,72.3441 156.738,72.0889 156.925,71.7764 C157.019,71.6097 157.066,71.4274 157.066,71.2295 C157.066,70.8753 156.92,70.6201 156.629,70.4639 C156.493,70.4014 156.347,70.3701 156.191,70.3701 C155.743,70.3701 155.373,70.6045 155.082,71.0733 C155.05,71.1149 155.024,71.1618 155.004,71.2139 L154.879,71.1826 C155.129,70.5055 155.493,70.0941 155.972,69.9483 C156.118,69.9066 156.28,69.8858 156.457,69.8858 C156.936,69.8858 157.29,70.0524 157.519,70.3858 C157.644,70.5628 157.707,70.7608 157.707,70.9795 C157.707,71.3024 157.556,71.5941 157.254,71.8545 C157.16,71.9274 157.061,72.0055 156.957,72.0889 C157.436,72.2972 157.743,72.5837 157.879,72.9483 C157.941,73.1253 157.972,73.3233 157.972,73.542 C157.972,74.1774 157.707,74.6722 157.175,75.0264 C156.78,75.2764 156.311,75.4014 155.769,75.4014 C155.28,75.4014 154.988,75.292 154.894,75.0733 C154.873,75.0316 154.863,74.9899 154.863,74.9483 C154.863,74.792 154.941,74.7035 155.097,74.6826 C155.118,74.6722 155.139,74.667 155.16,74.667"/>
<path class="Fingering" d="M122.937,73.9635 C123.176,72.9427 123.702,72.4166 124.515,72.3854 C124.546,72.3854 124.572,72.3854 124.593,72.3854 C125.082,72.3854 125.473,72.5625 125.765,72.9166 C125.973,73.177 126.077,73.4687 126.077,73.7916 C126.077,74.3854 125.759,75.026 125.124,75.7135 C125.103,75.7343 125.077,75.7552 125.046,75.776 L123.718,77.1979 L125.624,77.1979 C125.832,77.1979 125.994,77.1406 126.108,77.026 C126.181,76.9531 126.27,76.8333 126.374,76.6666 L126.483,76.6979 L126.046,77.776 L122.921,77.776 L122.921,77.6822 L124.343,76.1666 C125.02,75.427 125.369,74.7343 125.39,74.0885 C125.39,73.6406 125.218,73.3177 124.874,73.1197 C124.697,73.0156 124.494,72.9635 124.265,72.9635 C123.911,72.9635 123.634,73.0989 123.437,73.3697 C123.322,73.526 123.213,73.7395 123.108,74.0104 L122.937,73.9635 "/>
<path class="Fingering" d="M92.8539,80.3694 C92.2602,80.3694 91.7967,80.0621 91.4633,79.4475 C91.1821,78.9475 91.0414,78.3225 91.0414,77.5725 C91.0414,76.6767 91.2498,75.9735 91.6664,75.4631 C91.9998,75.0673 92.406,74.8642 92.8852,74.8537 C93.4477,74.8537 93.8904,75.1402 94.2133,75.7131 C94.5154,76.2235 94.6664,76.859 94.6664,77.6194 C94.6664,78.5881 94.4425,79.3277 93.9946,79.8381 C93.6717,80.1923 93.2914,80.3694 92.8539,80.3694 M92.8539,75.0569 C92.2081,75.0569 91.8592,75.8277 91.8071,77.3694 C91.8071,77.4631 91.8071,77.5569 91.8071,77.6506 C91.8175,79.3173 92.1664,80.1558 92.8539,80.1662 C93.5414,80.1558 93.8852,79.3121 93.8852,77.635 C93.8852,76.1142 93.6144,75.2652 93.0727,75.0881 C92.9998,75.0673 92.9269,75.0569 92.8539,75.0569"/>
<path class="Fingering" d="M59.662,82.119 C59.787,82.119 59.9693,82.1867 60.2088,82.3221 C60.4588,82.4784 60.6724,82.5565 60.8495,82.5565 C61.214,82.5565 61.5005,82.395 61.7088,82.0721 C61.8338,81.8638 61.8963,81.6294 61.8963,81.369 C61.8963,80.6086 61.4432,80.1919 60.537,80.119 C60.4432,80.1086 60.3443,80.1034 60.2401,80.1034 L60.2401,79.994 C60.8443,79.7961 61.2401,79.5409 61.4276,79.2284 C61.5213,79.0617 61.5682,78.8794 61.5682,78.6815 C61.5682,78.3273 61.4224,78.0721 61.1307,77.9159 C60.9953,77.8534 60.8495,77.8221 60.6932,77.8221 C60.2453,77.8221 59.8755,78.0565 59.5838,78.5252 C59.5526,78.5669 59.5265,78.6138 59.5057,78.6659 L59.3807,78.6346 C59.6307,77.9575 59.9953,77.5461 60.4745,77.4002 C60.6203,77.3586 60.7818,77.3377 60.9588,77.3377 C61.438,77.3377 61.7922,77.5044 62.0213,77.8377 C62.1463,78.0148 62.2088,78.2127 62.2088,78.4315 C62.2088,78.7544 62.0578,79.0461 61.7557,79.3065 C61.662,79.3794 61.563,79.4575 61.4588,79.5409 C61.938,79.7492 62.2453,80.0357 62.3807,80.4002 C62.4432,80.5773 62.4745,80.7752 62.4745,80.994 C62.4745,81.6294 62.2088,82.1242 61.6776,82.4784 C61.2818,82.7284 60.813,82.8534 60.2713,82.8534 C59.7818,82.8534 59.4901,82.744 59.3963,82.5252 C59.3755,82.4836 59.3651,82.4419 59.3651,82.4002 C59.3651,82.244 59.4432,82.1555 59.5995,82.1346 C59.6203,82.1242 59.6411,82.119 59.662,82.119"/>
<path class="Tempo" d="M59.2619,40.4371 C59.0588,40.2809 58.8088,40.1871 58.4963,40.1871 C57.3088,40.1871 56.3557,41.0621 56.3557,41.9996 C56.3557,42.5621 56.8088,42.9059 57.4026,42.9059 C58.3557,42.9059 59.5432,41.9996 59.5432,41.0934 L59.5432,34.9527 L59.2619,34.9527 L59.2619,40.4371 "/>
<path class="Tempo" d="M69.9026,39.0152 L63.2932,39.0152 L63.2932,37.859 L69.9026,37.859 L69.9026,39.0152 M69.9026,41.9371 L63.2932,41.9371 L63.2932,40.7965 L69.9026,40.7965 L69.9026,41.9371 M75.3401,36.0465 C75.2151,36.0465 74.8973,36.1402 74.3869,36.3277 C74.3557,36.3382 74.3348,36.3486 74.3244,36.359 L74.3244,36.0465 L77.3401,34.734 L77.5432,34.734 L77.5432,41.5621 C77.5432,42.0517 77.6421,42.3642 77.8401,42.4996 C78.0171,42.6246 78.3505,42.6923 78.8401,42.7027 L78.8401,42.984 L74.3401,42.984 L74.3401,42.7027 C74.9963,42.6923 75.4078,42.5882 75.5744,42.3902 C75.7098,42.2236 75.7776,41.9267 75.7776,41.4996 L75.7776,36.8746 C75.7671,36.333 75.6213,36.0569 75.3401,36.0465 M79.8244,38.9059 C79.8244,37.5934 80.1369,36.5309 80.7619,35.7184 C81.2723,35.0725 81.8661,34.7444 82.5432,34.734 C83.3244,34.734 83.9703,35.1402 84.4807,35.9527 C84.9911,36.7652 85.2463,37.76 85.2463,38.9371 C85.2463,40.3121 84.9286,41.4059 84.2932,42.2184 C83.7932,42.8225 83.2151,43.1298 82.5588,43.1402 C81.7255,43.1402 81.0536,42.7132 80.5432,41.859 C80.064,41.0673 79.8244,40.083 79.8244,38.9059 M82.5588,42.7965 C82.913,42.7965 83.1473,42.4736 83.2619,41.8277 C83.3244,41.4423 83.3557,40.9423 83.3557,40.3277 L83.3557,37.5777 C83.3557,36.1402 83.163,35.3225 82.7776,35.1246 C82.7046,35.083 82.6213,35.0621 82.5276,35.0621 C82.163,35.0621 81.9234,35.3955 81.8088,36.0621 C81.7567,36.4371 81.7307,36.9423 81.7307,37.5777 L81.7307,40.3277 C81.7307,41.6819 81.8973,42.4736 82.2307,42.7027 C82.3244,42.7652 82.4338,42.7965 82.5588,42.7965 M85.8244,38.9059 C85.8244,37.5934 86.1369,36.5309 86.7619,35.7184 C87.2723,35.0725 87.8661,34.7444 88.5432,34.734 C89.3244,34.734 89.9703,35.1402 90.4807,35.9527 C90.9911,36.7652 91.2463,37.76 91.2463,38.9371 C91.2463,40.3121 90.9286,41.4059 90.2932,42.2184 C89.7932,42.8225 89.2151,43.1298 88.5588,43.1402 C87.7255,43.1402 87.0536,42.7132 86.5432,41.859 C86.064,41.0673 85.8244,40.083 85.8244,38.9059 M88.5588,42.7965 C88.913,42.7965 89.1473,42.4736 89.2619,41.8277 C89.3244,41.4423 89.3557,40.9423 89.3557,40.3277 L89.3557,37.5777 C89.3557,36.1402 89.163,35.3225 88.7776,35.1246 C88.7046,35.083 88.6213,35.0621 88.5276,35.0621 C88.163,35.0621 87.9234,35.3955 87.8088,36.0621 C87.7567,36.4371 87.7307,36.9423 87.7307,37.5777 L87.7307,40.3277 C87.7307,41.6819 87.8973,42.4736 88.2307,42.7027 C88.3244,42.7652 88.4338,42.7965 88.5588,42.7965"/>
<path class="StaffText" d="M69.3335,25.2057 C69.7814,25.2057 70.2814,25.3203 70.8335,25.5495 C71.073,25.6432 71.2449,25.6901 71.3491,25.6901 C71.4949,25.6901 71.6251,25.5807 71.7397,25.362 C71.7501,25.3203 71.7658,25.2787 71.7866,25.237 L72.0522,25.237 L72.0522,27.5807 L71.8022,27.5807 C71.5314,26.9766 71.2501,26.5339 70.9585,26.2526 C70.896,26.1901 70.8387,26.138 70.7866,26.0964 C70.3595,25.7214 69.9168,25.5339 69.4585,25.5339 C68.4585,25.5339 67.8647,26.2526 67.6772,27.6901 C67.646,28.013 67.6303,28.362 67.6303,28.737 C67.6303,29.9245 67.8439,30.7943 68.271,31.3464 C68.6043,31.763 69.0626,31.9714 69.646,31.9714 C70.2085,31.9714 70.5262,31.7943 70.5991,31.4401 C70.6095,31.3776 70.6147,31.3099 70.6147,31.237 L70.6147,30.1901 C70.6147,29.8985 70.5418,29.711 70.396,29.6276 C70.2501,29.5547 69.9845,29.5078 69.5991,29.487 L69.5991,29.237 L73.0366,29.237 L73.0366,29.487 C72.6303,29.5287 72.3803,29.6172 72.2866,29.7526 C72.2137,29.8672 72.1772,30.086 72.1772,30.4089 L72.1772,31.6745 C71.5835,32.0287 70.797,32.237 69.8178,32.2995 C69.6824,32.2995 69.547,32.2995 69.4116,32.2995 C68.297,32.2995 67.4064,31.9401 66.7397,31.2214 C66.146,30.5755 65.8491,29.7682 65.8491,28.7995 C65.8491,27.7578 66.1928,26.8932 66.8803,26.2057 C67.547,25.5391 68.3647,25.2057 69.3335,25.2057 M77.0991,28.8307 C76.8803,28.8307 76.6668,28.711 76.4585,28.4714 C76.3439,28.3255 76.2605,28.2474 76.2085,28.237 C75.9897,28.237 75.823,28.388 75.7085,28.6901 C75.6355,28.8464 75.5991,29.013 75.5991,29.1901 L75.5991,31.0807 C75.5991,31.4453 75.672,31.6693 75.8178,31.7526 C75.9116,31.8151 76.0835,31.8568 76.3335,31.8776 L76.3335,32.112 L73.6928,32.112 L73.6928,31.8776 C73.9637,31.8255 74.1251,31.7318 74.1772,31.5964 C74.198,31.5235 74.2085,31.4141 74.2085,31.2682 L74.2085,28.3307 C74.2085,28.0703 74.1355,27.9037 73.9897,27.8307 C73.9168,27.7891 73.8178,27.7578 73.6928,27.737 L73.6928,27.5026 L75.5678,27.5026 L75.5678,28.3307 C75.9428,27.7787 76.3126,27.4714 76.6772,27.4089 C76.7605,27.388 76.8387,27.3776 76.9116,27.3776 C77.2553,27.3776 77.5001,27.5182 77.646,27.7995 C77.698,27.9141 77.7241,28.0339 77.7241,28.1589 C77.7241,28.4714 77.5991,28.6797 77.3491,28.7839 C77.2658,28.8151 77.1824,28.8307 77.0991,28.8307 M78.9741,28.0807 C78.9741,28.112 79.0262,28.2057 79.1303,28.362 C79.2241,28.5078 79.271,28.6328 79.271,28.737 C79.271,28.9974 79.1408,29.1745 78.8803,29.2682 C78.7866,29.2995 78.6928,29.3151 78.5991,29.3151 C78.2345,29.3151 78.021,29.1537 77.9585,28.8307 C77.948,28.7682 77.9428,28.711 77.9428,28.6589 C77.9428,28.1901 78.198,27.8412 78.7085,27.612 C79.0314,27.4557 79.4064,27.3776 79.8335,27.3776 C80.7085,27.3776 81.3074,27.6172 81.6303,28.0964 C81.7553,28.2943 81.8178,28.5182 81.8178,28.7682 L81.8178,31.3464 C81.8283,31.5026 81.896,31.586 82.021,31.5964 C82.073,31.586 82.1095,31.5703 82.1303,31.5495 L82.2397,31.4557 L82.3803,31.6589 C81.9845,32.0339 81.6147,32.2318 81.271,32.2526 C80.896,32.2526 80.6512,32.112 80.5366,31.8307 C80.5053,31.737 80.4741,31.638 80.4428,31.5339 C79.9012,32.0026 79.3751,32.2422 78.8647,32.2526 C78.4272,32.2526 78.1095,32.086 77.9116,31.7526 C77.8074,31.586 77.7553,31.4037 77.7553,31.2057 C77.7553,30.6224 78.2033,30.1485 79.0991,29.7839 C79.3387,29.6797 79.7866,29.5287 80.4428,29.3307 L80.4428,28.5964 C80.4428,28.0651 80.2241,27.7735 79.7866,27.7214 C79.7241,27.7214 79.6616,27.7214 79.5991,27.7214 C79.3074,27.7214 79.1095,27.8047 79.0053,27.9714 C78.9845,28.0026 78.9741,28.0391 78.9741,28.0807 M80.4272,31.0964 L80.4272,29.6589 C79.6251,29.8776 79.2189,30.2787 79.2085,30.862 C79.2085,31.1953 79.3178,31.4037 79.5366,31.487 C79.5991,31.5078 79.6616,31.5182 79.7241,31.5182 C79.9533,31.5182 80.1876,31.3776 80.4272,31.0964 M85.896,32.237 L85.896,31.5964 C85.5418,31.9714 85.198,32.1849 84.8647,32.237 C84.771,32.2474 84.672,32.2526 84.5678,32.2526 C83.9741,32.2526 83.5053,31.9766 83.1616,31.4245 C82.8908,30.9974 82.7553,30.4922 82.7553,29.9089 C82.7553,29.0547 83.0001,28.3828 83.4897,27.8932 C83.823,27.5495 84.2189,27.3776 84.6772,27.3776 C85.0314,27.3776 85.3543,27.513 85.646,27.7839 C85.7293,27.8568 85.8022,27.9245 85.8647,27.987 L85.8647,26.1745 C85.8647,25.9245 85.8074,25.7682 85.6928,25.7057 C85.5887,25.6537 85.3908,25.6172 85.0991,25.5964 L85.0991,25.362 L87.2553,25.362 L87.2553,31.112 C87.2553,31.3932 87.3387,31.5651 87.5053,31.6276 C87.5887,31.6589 87.7033,31.6797 87.8491,31.6901 L87.8491,31.9245 L87.2241,32.0026 C86.672,32.0755 86.2293,32.1537 85.896,32.237 M85.021,31.7057 C85.3126,31.7057 85.5626,31.5391 85.771,31.2057 C85.823,31.112 85.8543,31.0443 85.8647,31.0026 L85.8647,28.5495 C85.7397,28.2162 85.5314,28.0182 85.2397,27.9557 C85.1876,27.9453 85.1355,27.9401 85.0835,27.9401 C84.573,27.9401 84.2918,28.4453 84.2397,29.4557 C84.2397,29.5703 84.2397,29.6953 84.2397,29.8307 C84.2397,31.0703 84.5001,31.6953 85.021,31.7057 M90.1928,29.6589 C90.2449,30.6797 90.5105,31.2787 90.9897,31.4557 C91.1147,31.4974 91.2449,31.5182 91.3803,31.5182 C91.7449,31.5182 92.0783,31.3516 92.3803,31.0182 C92.4324,30.9662 92.4793,30.9141 92.521,30.862 L92.7553,31.0026 C92.3387,31.6068 91.9272,31.987 91.521,32.1432 C91.3126,32.2162 91.0783,32.2526 90.8178,32.2526 C90.0678,32.2526 89.5053,31.9453 89.1303,31.3307 C88.8803,30.9141 88.7553,30.4141 88.7553,29.8307 C88.7553,28.9349 89.0262,28.263 89.5678,27.8151 C89.9324,27.5235 90.3595,27.3776 90.8491,27.3776 C91.9533,27.3776 92.573,28.0964 92.7085,29.5339 C92.7085,29.5755 92.7085,29.6172 92.7085,29.6589 L90.1928,29.6589 M91.4897,29.1432 C91.4689,28.5182 91.4012,28.1224 91.2866,27.9557 C91.1928,27.7995 91.047,27.7214 90.8491,27.7214 C90.5574,27.7214 90.3595,27.8932 90.2553,28.237 C90.1928,28.4766 90.1564,28.8307 90.146,29.2995 L91.4897,29.2995 L91.4897,29.1432 M97.0053,26.3307 C96.9012,26.3307 96.6355,26.4089 96.2085,26.5651 C96.1876,26.5755 96.172,26.5807 96.1616,26.5807 L96.1616,26.3307 L98.6772,25.237 L98.8491,25.237 L98.8491,30.9401 C98.8491,31.3464 98.9272,31.6016 99.0835,31.7057 C99.2293,31.8099 99.5105,31.8672 99.9272,31.8776 L99.9272,32.112 L96.1772,32.112 L96.1772,31.8776 C96.7189,31.8672 97.0574,31.7839 97.1928,31.6276 C97.3074,31.4818 97.3647,31.2318 97.3647,30.8776 L97.3647,27.0182 C97.3543,26.5703 97.2345,26.3412 97.0053,26.3307 M102.162,30.5495 C102.485,30.5495 102.729,30.6901 102.896,30.9714 C102.979,31.1172 103.021,31.263 103.021,31.4089 C103.021,31.7214 102.88,31.961 102.599,32.1276 C102.453,32.2005 102.307,32.237 102.162,32.237 C101.828,32.237 101.583,32.0964 101.427,31.8151 C101.354,31.6797 101.318,31.5391 101.318,31.3932 C101.318,31.0912 101.453,30.8568 101.724,30.6901 C101.86,30.5964 102.005,30.5495 102.162,30.5495 M102.162,27.3932 C102.485,27.3932 102.729,27.5287 102.896,27.7995 C102.979,27.9453 103.021,28.0912 103.021,28.237 C103.021,28.5599 102.88,28.8047 102.599,28.9714 C102.464,29.0443 102.318,29.0807 102.162,29.0807 C101.828,29.0807 101.583,28.9349 101.427,28.6432 C101.354,28.5078 101.318,28.3672 101.318,28.2214 C101.318,27.9193 101.453,27.6849 101.724,27.5182 C101.86,27.4349 102.005,27.3932 102.162,27.3932"/>
<path class="StaffText" d="M111.318,29.7682 L111.099,29.7682 C111.026,29.3516 110.912,29.0912 110.755,28.987 C110.61,28.8932 110.354,28.8464 109.99,28.8464 L108.537,28.8464 L108.537,30.9245 C108.537,31.362 108.61,31.638 108.755,31.7526 C108.87,31.8464 109.104,31.9037 109.458,31.9245 L109.458,32.112 L106.662,32.112 L106.662,31.9245 C107.047,31.8932 107.292,31.8151 107.396,31.6901 C107.479,31.5547 107.521,31.2943 107.521,30.9089 L107.521,26.5807 C107.521,26.1953 107.453,25.9505 107.318,25.8464 C107.193,25.763 106.974,25.711 106.662,25.6901 L106.662,25.5026 L111.958,25.5026 L111.99,26.9245 L111.74,26.9245 C111.656,26.4766 111.526,26.1901 111.349,26.0651 C111.151,25.9401 110.776,25.8776 110.224,25.8776 L108.865,25.8776 C108.688,25.8776 108.589,25.9245 108.568,26.0182 C108.547,26.0703 108.537,26.1328 108.537,26.2057 L108.537,28.4089 L109.99,28.4089 C110.427,28.4089 110.714,28.3307 110.849,28.1745 C110.953,28.0495 111.037,27.8203 111.099,27.487 L111.318,27.487 L111.318,29.7682 M115.63,28.1589 L115.63,27.987 C116.11,27.8412 116.578,27.6849 117.037,27.5182 L117.099,27.5339 L117.099,28.2995 C117.672,27.862 118.083,27.612 118.333,27.5495 C118.438,27.5287 118.542,27.5182 118.646,27.5182 C119.177,27.5287 119.531,27.8151 119.708,28.3776 C120.24,27.8047 120.787,27.5182 121.349,27.5182 C122.11,27.5287 122.495,28.1276 122.505,29.3151 L122.505,31.362 C122.516,31.7266 122.656,31.9193 122.927,31.9401 L123.193,31.9557 L123.193,32.112 L121.005,32.112 L121.005,31.9557 C121.328,31.9245 121.521,31.8516 121.583,31.737 C121.636,31.6432 121.662,31.4818 121.662,31.2526 L121.662,29.1432 C121.662,28.5912 121.552,28.2578 121.333,28.1432 C121.229,28.0807 121.089,28.0495 120.912,28.0495 C120.464,28.0599 120.099,28.263 119.818,28.6589 L119.818,31.1745 C119.818,31.5495 119.906,31.7839 120.083,31.8776 C120.188,31.9297 120.339,31.9557 120.537,31.9557 L120.537,32.112 L118.302,32.112 L118.302,31.9557 C118.625,31.9349 118.823,31.862 118.896,31.737 C118.958,31.6432 118.99,31.4818 118.99,31.2526 L118.99,29.0964 C118.99,28.3985 118.766,28.0495 118.318,28.0495 C117.953,28.0495 117.63,28.1693 117.349,28.4089 C117.276,28.4818 117.208,28.5599 117.146,28.6432 L117.146,31.4401 C117.146,31.6901 117.235,31.8464 117.412,31.9089 C117.505,31.9401 117.641,31.9557 117.818,31.9557 L117.818,32.112 L115.599,32.112 L115.599,31.9557 C115.953,31.9557 116.167,31.8724 116.24,31.7057 C116.281,31.6016 116.302,31.4557 116.302,31.2682 L116.302,28.7526 C116.302,28.3776 116.224,28.1693 116.068,28.1276 C116.037,28.1172 116,28.112 115.958,28.112 C115.854,28.112 115.745,28.1276 115.63,28.1589 M123.755,31.1432 C123.755,30.6328 124.073,30.2005 124.708,29.8464 C124.896,29.7526 125.396,29.5391 126.208,29.2057 C126.229,29.2057 126.245,29.2005 126.255,29.1901 L126.255,28.5807 C126.203,28.0599 125.948,27.7839 125.49,27.7526 C125.177,27.7526 124.958,27.8516 124.833,28.0495 C124.792,28.1224 124.771,28.1849 124.771,28.237 C124.771,28.2995 124.781,28.3828 124.802,28.487 C124.813,28.5599 124.818,28.612 124.818,28.6432 C124.818,28.8203 124.729,28.9453 124.552,29.0182 C124.49,29.0495 124.432,29.0651 124.38,29.0651 C124.193,29.0651 124.063,28.9766 123.99,28.7995 C123.958,28.7474 123.943,28.6901 123.943,28.6276 C123.943,28.263 124.162,27.9662 124.599,27.737 C124.901,27.5912 125.245,27.5182 125.63,27.5182 C126.349,27.5182 126.792,27.7735 126.958,28.2839 C127.031,28.5026 127.068,28.7787 127.068,29.112 L127.068,31.0495 C127.068,31.3828 127.13,31.5703 127.255,31.612 C127.297,31.6224 127.333,31.6276 127.365,31.6276 C127.511,31.6172 127.656,31.5547 127.802,31.4401 L127.802,31.6901 C127.531,32.0026 127.281,32.1745 127.052,32.2057 C127,32.2057 126.948,32.2057 126.896,32.2057 C126.583,32.2057 126.386,32.0495 126.302,31.737 C126.281,31.6537 126.271,31.5599 126.271,31.4557 C125.677,31.9349 125.188,32.1849 124.802,32.2057 C124.375,32.2057 124.068,32.0339 123.88,31.6901 C123.797,31.5235 123.755,31.3412 123.755,31.1432 M126.255,30.862 L126.255,29.4245 C125.432,29.7266 124.927,30.0339 124.74,30.3464 C124.667,30.4922 124.63,30.6485 124.63,30.8151 C124.63,31.211 124.776,31.461 125.068,31.5651 C125.141,31.5964 125.208,31.612 125.271,31.612 C125.49,31.6016 125.729,31.5235 125.99,31.3776 C126.136,31.2943 126.219,31.1901 126.24,31.0651 C126.25,31.0026 126.255,30.9349 126.255,30.862 M128.974,28.1901 C128.974,28.1901 128.823,28.2005 128.521,28.2214 L128.521,28.0495 C129.063,27.8828 129.583,27.7057 130.083,27.5182 L130.13,27.5495 L130.13,32.112 C130.13,33.3412 129.719,34.0495 128.896,34.237 C128.75,34.2682 128.599,34.2839 128.443,34.2839 C128.005,34.2839 127.714,34.1745 127.568,33.9557 C127.526,33.8828 127.505,33.8099 127.505,33.737 C127.505,33.5495 127.594,33.4297 127.771,33.3776 C127.823,33.3568 127.87,33.3464 127.912,33.3464 C128.057,33.3464 128.214,33.4505 128.38,33.6589 C128.557,33.8464 128.703,33.9453 128.818,33.9557 C129.047,33.9557 129.188,33.7943 129.24,33.4714 C129.271,33.2735 129.287,32.9714 129.287,32.5651 L129.287,28.7682 C129.287,28.4141 129.208,28.2214 129.052,28.1901 C129.021,28.1901 128.995,28.1901 128.974,28.1901 M129.63,25.2839 C129.849,25.2839 130.005,25.3828 130.099,25.5807 C130.13,25.6537 130.146,25.7266 130.146,25.7995 C130.146,26.0182 130.037,26.1745 129.818,26.2682 C129.755,26.2891 129.693,26.2995 129.63,26.2995 C129.401,26.2995 129.245,26.2005 129.162,26.0026 C129.141,25.9297 129.13,25.862 129.13,25.7995 C129.13,25.5807 129.224,25.4245 129.412,25.3307 C129.485,25.2995 129.557,25.2839 129.63,25.2839 M132.958,27.5182 C133.698,27.5182 134.281,27.7891 134.708,28.3307 C135.011,28.737 135.162,29.2162 135.162,29.7682 C135.162,30.5495 134.906,31.1745 134.396,31.6432 C133.979,32.0182 133.495,32.2057 132.943,32.2057 C132.235,32.2057 131.672,31.9349 131.255,31.3932 C130.922,30.9557 130.755,30.4401 130.755,29.8464 C130.755,29.0339 131.031,28.4089 131.583,27.9714 C131.969,27.6693 132.427,27.5182 132.958,27.5182 M131.662,29.362 C131.662,30.2682 131.849,30.961 132.224,31.4401 C132.464,31.7526 132.745,31.9089 133.068,31.9089 C133.589,31.9089 133.948,31.612 134.146,31.0182 C134.229,30.7578 134.271,30.461 134.271,30.1276 C134.271,29.2422 134.057,28.586 133.63,28.1589 C133.401,27.9297 133.136,27.8151 132.833,27.8151 C132.365,27.8151 132.026,28.0547 131.818,28.5339 C131.714,28.7735 131.662,29.0495 131.662,29.362 M138.521,28.487 C138.417,28.487 138.266,28.4037 138.068,28.237 C137.974,28.1537 137.901,28.112 137.849,28.112 C137.682,28.112 137.511,28.2422 137.333,28.5026 C137.219,28.6693 137.162,28.8151 137.162,28.9401 L137.162,31.2057 C137.162,31.5495 137.25,31.763 137.427,31.8464 C137.552,31.9089 137.745,31.9453 138.005,31.9557 L138.005,32.112 L135.599,32.112 L135.599,31.9557 C135.953,31.8932 136.167,31.8099 136.24,31.7057 C136.292,31.6224 136.318,31.4766 136.318,31.2682 L136.318,28.7526 C136.318,28.388 136.235,28.1901 136.068,28.1589 C136.037,28.1485 136.005,28.1432 135.974,28.1432 C135.86,28.1432 135.745,28.1589 135.63,28.1901 L135.63,28.0339 C136.162,27.8672 136.651,27.6953 137.099,27.5182 L137.162,27.5339 L137.162,28.4245 C137.505,27.9453 137.797,27.6589 138.037,27.5651 C138.141,27.5339 138.245,27.5182 138.349,27.5182 C138.662,27.5182 138.844,27.6485 138.896,27.9089 C138.896,27.9505 138.896,27.9974 138.896,28.0495 C138.865,28.3203 138.74,28.4662 138.521,28.487 M144.177,27.7214 C144.198,27.711 144.255,27.6745 144.349,27.612 L144.458,27.612 L144.49,28.9714 L144.349,28.9714 C144.182,28.3255 143.943,27.9401 143.63,27.8151 C143.516,27.763 143.386,27.737 143.24,27.737 C142.886,27.737 142.646,27.8776 142.521,28.1589 C142.49,28.2422 142.474,28.3307 142.474,28.4245 C142.485,28.7057 142.63,28.9297 142.912,29.0964 L143.99,29.737 C144.469,30.0287 144.74,30.3464 144.802,30.6901 C144.813,30.763 144.818,30.8464 144.818,30.9401 C144.818,31.3568 144.636,31.6953 144.271,31.9557 C144.011,32.1224 143.724,32.2057 143.412,32.2057 C143.276,32.2057 142.969,32.1589 142.49,32.0651 C142.375,32.0443 142.287,32.0339 142.224,32.0339 C142.12,32.0443 142.042,32.086 141.99,32.1589 L141.865,32.1589 L141.865,30.5964 L142.021,30.5964 C142.125,31.0651 142.255,31.3932 142.412,31.5807 C142.63,31.8516 142.922,31.987 143.287,31.987 C143.714,31.987 143.979,31.8307 144.083,31.5182 C144.115,31.4453 144.13,31.362 144.13,31.2682 C144.12,30.9662 143.943,30.7162 143.599,30.5182 L143.021,30.1901 C142.396,29.836 142.026,29.4818 141.912,29.1276 C141.87,29.0026 141.849,28.8776 141.849,28.7526 C141.849,28.2839 142.052,27.9349 142.458,27.7057 C142.688,27.5807 142.938,27.5182 143.208,27.5182 C143.427,27.5182 143.688,27.5703 143.99,27.6745 C144.073,27.7057 144.136,27.7214 144.177,27.7214 M145.755,29.987 C145.755,29.1432 146.042,28.4818 146.615,28.0026 C147.011,27.6797 147.453,27.5182 147.943,27.5182 C148.495,27.5182 148.922,27.6693 149.224,27.9714 C149.401,28.1485 149.49,28.3412 149.49,28.5495 C149.49,28.7266 149.396,28.8516 149.208,28.9245 C149.136,28.9557 149.068,28.9714 149.005,28.9714 C148.797,28.9714 148.646,28.836 148.552,28.5651 C148.542,28.5443 148.537,28.5235 148.537,28.5026 L148.474,28.2839 C148.412,28.0339 148.297,27.888 148.13,27.8464 C148.057,27.8255 147.974,27.8151 147.88,27.8151 C147.38,27.8151 147,28.0547 146.74,28.5339 C146.594,28.8255 146.521,29.1641 146.521,29.5495 C146.521,30.2787 146.745,30.8255 147.193,31.1901 C147.453,31.388 147.745,31.487 148.068,31.487 C148.485,31.487 148.844,31.3203 149.146,30.987 C149.25,30.862 149.365,30.7162 149.49,30.5495 L149.63,30.6432 C149.255,31.362 148.839,31.8307 148.38,32.0495 C148.141,32.1537 147.901,32.2057 147.662,32.2057 C147.016,32.2057 146.511,31.9401 146.146,31.4089 C145.886,31.0026 145.755,30.5287 145.755,29.987 M149.755,31.1432 C149.755,30.6328 150.073,30.2005 150.708,29.8464 C150.896,29.7526 151.396,29.5391 152.208,29.2057 C152.229,29.2057 152.245,29.2005 152.255,29.1901 L152.255,28.5807 C152.203,28.0599 151.948,27.7839 151.49,27.7526 C151.177,27.7526 150.958,27.8516 150.833,28.0495 C150.792,28.1224 150.771,28.1849 150.771,28.237 C150.771,28.2995 150.781,28.3828 150.802,28.487 C150.813,28.5599 150.818,28.612 150.818,28.6432 C150.818,28.8203 150.729,28.9453 150.552,29.0182 C150.49,29.0495 150.432,29.0651 150.38,29.0651 C150.193,29.0651 150.063,28.9766 149.99,28.7995 C149.958,28.7474 149.943,28.6901 149.943,28.6276 C149.943,28.263 150.162,27.9662 150.599,27.737 C150.901,27.5912 151.245,27.5182 151.63,27.5182 C152.349,27.5182 152.792,27.7735 152.958,28.2839 C153.031,28.5026 153.068,28.7787 153.068,29.112 L153.068,31.0495 C153.068,31.3828 153.13,31.5703 153.255,31.612 C153.297,31.6224 153.333,31.6276 153.365,31.6276 C153.511,31.6172 153.656,31.5547 153.802,31.4401 L153.802,31.6901 C153.531,32.0026 153.281,32.1745 153.052,32.2057 C153,32.2057 152.948,32.2057 152.896,32.2057 C152.583,32.2057 152.386,32.0495 152.302,31.737 C152.281,31.6537 152.271,31.5599 152.271,31.4557 C151.677,31.9349 151.188,32.1849 150.802,32.2057 C150.375,32.2057 150.068,32.0339 149.88,31.6901 C149.797,31.5235 149.755,31.3412 149.755,31.1432 M152.255,30.862 L152.255,29.4245 C151.432,29.7266 150.927,30.0339 150.74,30.3464 C150.667,30.4922 150.63,30.6485 150.63,30.8151 C150.63,31.211 150.776,31.461 151.068,31.5651 C151.141,31.5964 151.208,31.612 151.271,31.612 C151.49,31.6016 151.729,31.5235 151.99,31.3776 C152.136,31.2943 152.219,31.1901 152.24,31.0651 C152.25,31.0026 152.255,30.9349 152.255,30.862 M153.599,25.8776 L153.599,25.7214 C154.266,25.5547 154.797,25.4089 155.193,25.2839 L155.24,25.2995 L155.24,31.2682 C155.24,31.5807 155.302,31.7735 155.427,31.8464 C155.542,31.8985 155.729,31.9349 155.99,31.9557 L155.99,32.112 L153.63,32.112 L153.63,31.9557 C154.005,31.9245 154.235,31.836 154.318,31.6901 C154.37,31.5964 154.396,31.4453 154.396,31.237 L154.396,26.4714 C154.396,26.138 154.323,25.9453 154.177,25.8932 C154.115,25.8724 154.047,25.862 153.974,25.862 C153.839,25.862 153.714,25.8672 153.599,25.8776 M157.474,29.3464 C157.516,30.5235 157.901,31.2162 158.63,31.4245 C158.755,31.4662 158.891,31.487 159.037,31.487 C159.526,31.487 159.943,31.2787 160.287,30.862 C160.38,30.7474 160.479,30.612 160.583,30.4557 L160.74,30.5182 C160.375,31.4766 159.802,32.0287 159.021,32.1745 C158.886,32.1953 158.755,32.2057 158.63,32.2057 C157.891,32.2057 157.36,31.8932 157.037,31.2682 C156.849,30.8932 156.755,30.461 156.755,29.9714 C156.755,29.086 157.031,28.4141 157.583,27.9557 C157.948,27.6641 158.37,27.5182 158.849,27.5182 C159.766,27.5182 160.318,28.0391 160.505,29.0807 C160.526,29.1745 160.542,29.263 160.552,29.3464 L157.474,29.3464 M157.49,29.0495 L159.537,29.0495 C159.443,28.4766 159.276,28.1224 159.037,27.987 C158.912,27.9245 158.75,27.8932 158.552,27.8932 C157.958,27.8932 157.604,28.2682 157.49,29.0182 C157.49,29.0287 157.49,29.0391 157.49,29.0495 M165.958,27.5182 C166.698,27.5182 167.281,27.7891 167.708,28.3307 C168.011,28.737 168.162,29.2162 168.162,29.7682 C168.162,30.5495 167.906,31.1745 167.396,31.6432 C166.979,32.0182 166.495,32.2057 165.943,32.2057 C165.235,32.2057 164.672,31.9349 164.255,31.3932 C163.922,30.9557 163.755,30.4401 163.755,29.8464 C163.755,29.0339 164.031,28.4089 164.583,27.9714 C164.969,27.6693 165.427,27.5182 165.958,27.5182 M164.662,29.362 C164.662,30.2682 164.849,30.961 165.224,31.4401 C165.464,31.7526 165.745,31.9089 166.068,31.9089 C166.589,31.9089 166.948,31.612 167.146,31.0182 C167.229,30.7578 167.271,30.461 167.271,30.1276 C167.271,29.2422 167.057,28.586 166.63,28.1589 C166.401,27.9297 166.136,27.8151 165.833,27.8151 C165.365,27.8151 165.026,28.0547 164.818,28.5339 C164.714,28.7735 164.662,29.0495 164.662,29.362 M168.599,28.1276 L168.599,27.9557 C169.099,27.8099 169.563,27.6641 169.99,27.5182 L170.052,27.5339 L170.052,28.3151 C170.531,27.8776 170.906,27.6224 171.177,27.5495 C171.281,27.5287 171.391,27.5182 171.505,27.5182 C172.047,27.5182 172.406,27.7891 172.583,28.3307 C172.646,28.5287 172.677,28.7526 172.677,29.0026 L172.677,31.2995 C172.677,31.612 172.75,31.8047 172.896,31.8776 C172.99,31.9089 173.12,31.9349 173.287,31.9557 L173.287,32.112 L171.208,32.112 L171.208,31.9557 C171.511,31.9349 171.698,31.836 171.771,31.6589 C171.823,31.5443 171.849,31.3672 171.849,31.1276 L171.849,29.0339 C171.828,28.388 171.583,28.0599 171.115,28.0495 C170.865,28.0495 170.604,28.1641 170.333,28.3932 C170.261,28.4662 170.177,28.5443 170.083,28.6276 L170.083,31.4401 C170.083,31.6797 170.182,31.836 170.38,31.9089 C170.474,31.9297 170.594,31.9453 170.74,31.9557 L170.74,32.112 L168.63,32.112 L168.63,31.9557 C168.922,31.9349 169.104,31.8516 169.177,31.7057 C169.219,31.5912 169.24,31.4245 169.24,31.2057 L169.24,28.7214 C169.24,28.3568 169.167,28.1537 169.021,28.112 C168.979,28.0912 168.932,28.0807 168.88,28.0807 C168.755,28.0807 168.662,28.0964 168.599,28.1276 M174.474,29.3464 C174.516,30.5235 174.901,31.2162 175.63,31.4245 C175.755,31.4662 175.891,31.487 176.037,31.487 C176.526,31.487 176.943,31.2787 177.287,30.862 C177.38,30.7474 177.479,30.612 177.583,30.4557 L177.74,30.5182 C177.375,31.4766 176.802,32.0287 176.021,32.1745 C175.886,32.1953 175.755,32.2057 175.63,32.2057 C174.891,32.2057 174.36,31.8932 174.037,31.2682 C173.849,30.8932 173.755,30.461 173.755,29.9714 C173.755,29.086 174.031,28.4141 174.583,27.9557 C174.948,27.6641 175.37,27.5182 175.849,27.5182 C176.766,27.5182 177.318,28.0391 177.505,29.0807 C177.526,29.1745 177.542,29.263 177.552,29.3464 L174.474,29.3464 M174.49,29.0495 L176.537,29.0495 C176.443,28.4766 176.276,28.1224 176.037,27.987 C175.912,27.9245 175.75,27.8932 175.552,27.8932 C174.958,27.8932 174.604,28.2682 174.49,29.0182 C174.49,29.0287 174.49,29.0391 174.49,29.0495 M182.958,27.5182 C183.698,27.5182 184.281,27.7891 184.708,28.3307 C185.011,28.737 185.162,29.2162 185.162,29.7682 C185.162,30.5495 184.906,31.1745 184.396,31.6432 C183.979,32.0182 183.495,32.2057 182.943,32.2057 C182.235,32.2057 181.672,31.9349 181.255,31.3932 C180.922,30.9557 180.755,30.4401 180.755,29.8464 C180.755,29.0339 181.031,28.4089 181.583,27.9714 C181.969,27.6693 182.427,27.5182 182.958,27.5182 M181.662,29.362 C181.662,30.2682 181.849,30.961 182.224,31.4401 C182.464,31.7526 182.745,31.9089 183.068,31.9089 C183.589,31.9089 183.948,31.612 184.146,31.0182 C184.229,30.7578 184.271,30.461 184.271,30.1276 C184.271,29.2422 184.057,28.586 183.63,28.1589 C183.401,27.9297 183.136,27.8151 182.833,27.8151 C182.365,27.8151 182.026,28.0547 181.818,28.5339 C181.714,28.7735 181.662,29.0495 181.662,29.362 M185.755,29.987 C185.755,29.1432 186.042,28.4818 186.615,28.0026 C187.011,27.6797 187.453,27.5182 187.943,27.5182 C188.495,27.5182 188.922,27.6693 189.224,27.9714 C189.401,28.1485 189.49,28.3412 189.49,28.5495 C189.49,28.7266 189.396,28.8516 189.208,28.9245 C189.136,28.9557 189.068,28.9714 189.005,28.9714 C188.797,28.9714 188.646,28.836 188.552,28.5651 C188.542,28.5443 188.537,28.5235 188.537,28.5026 L188.474,28.2839 C188.412,28.0339 188.297,27.888 188.13,27.8464 C188.057,27.8255 187.974,27.8151 187.88,27.8151 C187.38,27.8151 187,28.0547 186.74,28.5339 C186.594,28.8255 186.521,29.1641 186.521,29.5495 C186.521,30.2787 186.745,30.8255 187.193,31.1901 C187.453,31.388 187.745,31.487 188.068,31.487 C188.485,31.487 188.844,31.3203 189.146,30.987 C189.25,30.862 189.365,30.7162 189.49,30.5495 L189.63,30.6432 C189.255,31.362 188.839,31.8307 188.38,32.0495 C188.141,32.1537 187.901,32.2057 187.662,32.2057 C187.016,32.2057 186.511,31.9401 186.146,31.4089 C185.886,31.0026 185.755,30.5287 185.755,29.987 M192.099,27.612 L192.099,27.9089 L191.083,27.9089 L191.083,30.7682 C191.083,31.3099 191.219,31.6068 191.49,31.6589 C191.521,31.6693 191.557,31.6745 191.599,31.6745 C191.807,31.6641 192.011,31.5443 192.208,31.3151 L192.333,31.4401 C192.011,31.9505 191.61,32.2057 191.13,32.2057 C190.547,32.1953 190.25,31.7735 190.24,30.9401 L190.24,27.9089 L189.708,27.9089 C189.688,27.888 189.677,27.8672 189.677,27.8464 C189.677,27.8047 189.719,27.763 189.802,27.7214 C190.083,27.5339 190.417,27.1693 190.802,26.6276 C190.813,26.6172 190.818,26.612 190.818,26.612 C190.922,26.4557 190.99,26.362 191.021,26.3307 C191.063,26.3412 191.083,26.3828 191.083,26.4557 L191.083,27.612 L192.099,27.612 M192.755,31.1432 C192.755,30.6328 193.073,30.2005 193.708,29.8464 C193.896,29.7526 194.396,29.5391 195.208,29.2057 C195.229,29.2057 195.245,29.2005 195.255,29.1901 L195.255,28.5807 C195.203,28.0599 194.948,27.7839 194.49,27.7526 C194.177,27.7526 193.958,27.8516 193.833,28.0495 C193.792,28.1224 193.771,28.1849 193.771,28.237 C193.771,28.2995 193.781,28.3828 193.802,28.487 C193.813,28.5599 193.818,28.612 193.818,28.6432 C193.818,28.8203 193.729,28.9453 193.552,29.0182 C193.49,29.0495 193.432,29.0651 193.38,29.0651 C193.193,29.0651 193.063,28.9766 192.99,28.7995 C192.958,28.7474 192.943,28.6901 192.943,28.6276 C192.943,28.263 193.162,27.9662 193.599,27.737 C193.901,27.5912 194.245,27.5182 194.63,27.5182 C195.349,27.5182 195.792,27.7735 195.958,28.2839 C196.031,28.5026 196.068,28.7787 196.068,29.112 L196.068,31.0495 C196.068,31.3828 196.13,31.5703 196.255,31.612 C196.297,31.6224 196.333,31.6276 196.365,31.6276 C196.511,31.6172 196.656,31.5547 196.802,31.4401 L196.802,31.6901 C196.531,32.0026 196.281,32.1745 196.052,32.2057 C196,32.2057 195.948,32.2057 195.896,32.2057 C195.583,32.2057 195.386,32.0495 195.302,31.737 C195.281,31.6537 195.271,31.5599 195.271,31.4557 C194.677,31.9349 194.188,32.1849 193.802,32.2057 C193.375,32.2057 193.068,32.0339 192.88,31.6901 C192.797,31.5235 192.755,31.3412 192.755,31.1432 M195.255,30.862 L195.255,29.4245 C194.432,29.7266 193.927,30.0339 193.74,30.3464 C193.667,30.4922 193.63,30.6485 193.63,30.8151 C193.63,31.211 193.776,31.461 194.068,31.5651 C194.141,31.5964 194.208,31.612 194.271,31.612 C194.49,31.6016 194.729,31.5235 194.99,31.3776 C195.136,31.2943 195.219,31.1901 195.24,31.0651 C195.25,31.0026 195.255,30.9349 195.255,30.862 M201.13,27.612 L201.13,27.7682 C200.964,27.7891 200.839,27.8568 200.755,27.9714 C200.682,28.0755 200.594,28.2682 200.49,28.5495 L199.208,31.7526 C199.073,32.0755 198.979,32.2422 198.927,32.2526 C198.854,32.2526 198.771,32.1068 198.677,31.8151 C198.667,31.8047 198.662,31.7943 198.662,31.7839 L197.458,28.9089 C197.208,28.3151 197.021,27.9662 196.896,27.862 C196.813,27.7995 196.698,27.7682 196.552,27.7682 L196.552,27.612 L198.521,27.612 L198.521,27.7682 C198.24,27.7891 198.089,27.862 198.068,27.987 C198.057,28.0078 198.052,28.0287 198.052,28.0495 C198.052,28.1641 198.083,28.2839 198.146,28.4089 L199.162,30.9714 L200.146,28.3776 C200.188,28.2839 200.208,28.1849 200.208,28.0807 C200.208,27.9037 200.063,27.7995 199.771,27.7682 C199.761,27.7682 199.75,27.7682 199.74,27.7682 L199.74,27.612 L201.13,27.612 M202.474,29.3464 C202.516,30.5235 202.901,31.2162 203.63,31.4245 C203.755,31.4662 203.891,31.487 204.037,31.487 C204.526,31.487 204.943,31.2787 205.287,30.862 C205.38,30.7474 205.479,30.612 205.583,30.4557 L205.74,30.5182 C205.375,31.4766 204.802,32.0287 204.021,32.1745 C203.886,32.1953 203.755,32.2057 203.63,32.2057 C202.891,32.2057 202.36,31.8932 202.037,31.2682 C201.849,30.8932 201.755,30.461 201.755,29.9714 C201.755,29.086 202.031,28.4141 202.583,27.9557 C202.948,27.6641 203.37,27.5182 203.849,27.5182 C204.766,27.5182 205.318,28.0391 205.505,29.0807 C205.526,29.1745 205.542,29.263 205.552,29.3464 L202.474,29.3464 M202.49,29.0495 L204.537,29.0495 C204.443,28.4766 204.276,28.1224 204.037,27.987 C203.912,27.9245 203.75,27.8932 203.552,27.8932 C202.958,27.8932 202.604,28.2682 202.49,29.0182 C202.49,29.0287 202.49,29.0391 202.49,29.0495"/>
</svg>
