<?xml version="1.0" encoding="UTF-8" standalone="no"?>
<svg width="595.44px" height="841.68px" viewBox="0 0 595.44 841.68"
 xmlns="http://www.w3.org/2000/svg" xmlns:xlink="http://www.w3.org/1999/xlink" version="1.2" baseProfile="tiny">
<title>Guitar Scales and Arpeggios</title>
<desc>Generated by MuseScore 2.1.0</desc>
<polyline class="StaffLines" fill="none" stroke="#000000" stroke-width="0.40" stroke-linejoin="bevel" points="28.08,62.856 567.36,62.856"/>
<polyline class="StaffLines" fill="none" stroke="#000000" stroke-width="0.40" stroke-linejoin="bevel" points="28.08,67.824 567.36,67.824"/>
<polyline class="StaffLines" fill="none" stroke="#000000" stroke-width="0.40" stroke-linejoin="bevel" points="28.08,72.792 567.36,72.792"/>
<polyline class="StaffLines" fill="none" stroke="#000000" stroke-width="0.40" stroke-linejoin="bevel" points="28.08,77.76 567.36,77.76"/>
<polyline class="StaffLines" fill="none" stroke="#000000" stroke-width="0.40" stroke-linejoin="bevel" points="28.08,82.728 567.36,82.728"/>
<polyline class="StaffLines" fill="none" stroke="#000000" stroke-width="0.40" stroke-linejoin="bevel" points="28.08,115.02 567.36,115.02"/>
<polyline class="StaffLines" fill="none" stroke="#000000" stroke-width="0.40" stroke-linejoin="bevel" points="28.08,122.472 567.36,122.472"/>
<polyline class="StaffLines" fill="none" stroke="#000000" stroke-width="0.40" stroke-linejoin="bevel" points="28.08,129.924 567.36,129.924"/>
<polyline class="StaffLines" fill="none" stroke="#000000" stroke-width="0.40" stroke-linejoin="bevel" points="28.08,137.376 567.36,137.376"/>
<polyline class="StaffLines" fill="none" stroke="#000000" stroke-width="0.40" stroke-linejoin="bevel" points="28.08,144.828 567.36,144.828"/>
<polyline class="StaffLines" fill="none" stroke="#000000" stroke-width="0.40" stroke-linejoin="bevel" points="28.08,152.28 567.36,152.28"/>
<polyline class="BarLine" fill="none" stroke="#000000" stroke-width="0.79" stroke-linejoin="bevel" points="28.4774,62.856 28.4774,152.28"/>
<polyline class="BarLine" fill="none" stroke="#000000" stroke-width="0.79" stroke-linejoin="bevel" points="562.491,115.02 562.491,152.28"/>
<polyline class="BarLine" fill="none" stroke="#000000" stroke-width="2.48" stroke-linejoin="bevel" points="566.118,115.02 566.118,152.28"/>
<polyline class="BarLine" fill="none" stroke="#000000" stroke-width="0.79" stroke-linejoin="bevel" points="562.491,62.856 562.491,82.728"/>
<polyline class="BarLine" fill="none" stroke="#000000" stroke-width="2.48" stroke-linejoin="bevel" points="566.118,62.856 566.118,82.728"/>
<polyline class="Stem" fill="none" stroke="#000000" stroke-width="0.65" stroke-linecap="round" stroke-linejoin="bevel" points="463.946,79.4809 463.946,62.856"/>
<polyline class="Stem" fill="none" stroke="#000000" stroke-width="0.65" stroke-linecap="round" stroke-linejoin="bevel" points="398.426,74.3429 398.426,59.13"/>
<polyline class="Stem" fill="none" stroke="#000000" stroke-width="0.65" stroke-linecap="round" stroke-linejoin="bevel" points="327.191,71.2411 327.191,86.454"/>
<polyline class="Stem" fill="none" stroke="#000000" stroke-width="0.65" stroke-linecap="round" stroke-linejoin="bevel" points="261.85,63.7891 261.85,80.244"/>
<polyline class="Stem" fill="none" stroke="#000000" stroke-width="0.65" stroke-linecap="round" stroke-linejoin="bevel" points="196.509,71.2411 196.509,86.454"/>
<polyline class="Stem" fill="none" stroke="#000000" stroke-width="0.65" stroke-linecap="round" stroke-linejoin="bevel" points="137.064,74.3429 137.064,59.13"/>
<polyline class="Stem" fill="none" stroke="#000000" stroke-width="0.65" stroke-linecap="round" stroke-linejoin="bevel" points="71.7231,79.3109 71.7231,62.856"/>
<path class="Note" fill="#ffffff" fill-rule="evenodd" d="M458.294,133.65 L464.256,133.65 L464.256,141.102 L458.294,141.102 L458.294,133.65 "/>
<path class="Note" transform="matrix(0.9936,0,0,0.9936,458.791,140.854)" d="M2.4375,-5.64063 C1.75,-5.64063 1.35417,-5.32813 1.25,-4.70313 C1.22917,-4.59896 1.21875,-4.47917 1.21875,-4.34375 L0.421875,-4.34375 C0.442708,-5.59375 1.01563,-6.27083 2.14063,-6.375 C2.23438,-6.38542 2.32813,-6.39063 2.42188,-6.39063 C3.26563,-6.39063 3.84375,-6.10938 4.15625,-5.54688 C4.29167,-5.28646 4.35938,-4.98438 4.35938,-4.64063 C4.35938,-4.00521 4.0625,-3.57292 3.46875,-3.34375 C4.03125,-3.14583 4.375,-2.81771 4.5,-2.35938 C4.54167,-2.19271 4.5625,-2.00521 4.5625,-1.79688 C4.5625,-1.05729 4.27604,-0.505208 3.70313,-0.140625 C3.33854,0.0885417 2.90104,0.203125 2.39063,0.203125 C1.21354,0.203125 0.526042,-0.348958 0.328125,-1.45313 C0.317708,-1.57813 0.302083,-1.71354 0.28125,-1.85938 L1.07813,-1.85938 C1.13021,-1.08854 1.46875,-0.65625 2.09375,-0.5625 C2.19792,-0.541667 2.30729,-0.53125 2.42188,-0.53125 C3.04688,-0.53125 3.45313,-0.765625 3.64063,-1.23438 C3.71354,-1.40104 3.75,-1.58854 3.75,-1.79688 C3.73958,-2.54688 3.29688,-2.92708 2.42188,-2.9375 L2.09375,-2.92188 L1.98438,-2.92188 L1.98438,-3.67188 C2.66146,-3.68229 3.10417,-3.77604 3.3125,-3.95313 C3.47917,-4.09896 3.5625,-4.31771 3.5625,-4.60938 C3.5625,-5.09896 3.34896,-5.41667 2.92188,-5.5625 C2.77604,-5.61458 2.61458,-5.64063 2.4375,-5.64063"/>
<path class="Note" fill="#ebeb19" transform="matrix(0.9936,0,0,0.9936,457.37,80.244)" d="M6.3125,-1.3125 C6.3125,-1.53125 6.22917,-1.71875 6.0625,-1.875 C5.88542,-2.04167 5.6875,-2.125 5.46875,-2.125 C5.08333,-2.125 4.29688,-1.73438 3.10938,-0.953125 C1.88021,-0.161458 1.13021,0.40625 0.859375,0.75 C0.713542,0.927083 0.640625,1.11458 0.640625,1.3125 C0.640625,1.53125 0.729167,1.71875 0.90625,1.875 C1.0625,2.04167 1.25521,2.125 1.48438,2.125 C1.85938,2.125 2.65625,1.73438 3.875,0.953125 C5.07292,0.171875 5.8125,-0.395833 6.09375,-0.75 C6.23958,-0.916667 6.3125,-1.10417 6.3125,-1.3125 M5.28125,-2.75 C6.39583,-2.75 6.95313,-2.27083 6.95313,-1.3125 C6.95313,-0.84375 6.81771,-0.296875 6.54688,0.328125 C6.27604,0.942708 5.91146,1.41146 5.45313,1.73438 C4.45313,2.41146 3.19792,2.75 1.6875,2.75 C0.5625,2.75 0,2.27083 0,1.3125 C0,0.885417 0.135417,0.34375 0.40625,-0.3125 C0.666667,-0.9375 1.03125,-1.41146 1.5,-1.73438 C2.51042,-2.41146 3.77083,-2.75 5.28125,-2.75"/>
<path class="Note" fill="#ffffff" fill-rule="evenodd" d="M392.954,126.198 L398.915,126.198 L398.915,133.65 L392.954,133.65 L392.954,126.198 "/>
<path class="Note" transform="matrix(0.9936,0,0,0.9936,393.45,133.402)" d="M0.453125,-4.17188 C0.494792,-5.64063 1.19792,-6.38021 2.5625,-6.39063 C3.28125,-6.39063 3.83333,-6.14583 4.21875,-5.65625 C4.46875,-5.32292 4.59375,-4.93229 4.59375,-4.48438 C4.59375,-3.68229 4.14583,-3.03125 3.25,-2.53125 L2.34375,-2.04688 C1.79167,-1.75521 1.44271,-1.4375 1.29688,-1.09375 C1.24479,-0.989583 1.21354,-0.869792 1.20313,-0.734375 L4.5625,-0.734375 L4.5625,0 L0.3125,0 C0.354167,-0.760417 0.520833,-1.33854 0.8125,-1.73438 C1.07292,-2.05729 1.5,-2.38542 2.09375,-2.71875 L2.92188,-3.1875 C3.49479,-3.52083 3.78646,-3.94271 3.79688,-4.45313 C3.79688,-4.88021 3.61458,-5.21354 3.25,-5.45313 C3.04167,-5.57813 2.80208,-5.64063 2.53125,-5.64063 C1.73958,-5.64063 1.3125,-5.16667 1.25,-4.21875 C1.25,-4.19792 1.25,-4.18229 1.25,-4.17188 L0.453125,-4.17188 "/>
<path class="Note" fill="#cc00ff" transform="matrix(0.9936,0,0,0.9936,392.208,75.276)" d="M4.39063,-2.75 C5.01563,-2.75 5.54688,-2.58854 5.98438,-2.26563 C6.38021,-1.91146 6.57813,-1.46875 6.57813,-0.9375 C6.57813,-0.0416667 6.11979,0.796875 5.20313,1.57813 C4.26563,2.35938 3.26042,2.75 2.1875,2.75 C1.5625,2.75 1.03646,2.58854 0.609375,2.26563 C0.203125,1.91146 0,1.46875 0,0.9375 C0,0.0416667 0.46875,-0.796875 1.40625,-1.57813 C2.32292,-2.35938 3.31771,-2.75 4.39063,-2.75"/>
<path class="Note" fill="#ffffff" fill-rule="evenodd" d="M327.613,118.746 L333.575,118.746 L333.575,126.198 L327.613,126.198 L327.613,118.746 "/>
<path class="Note" transform="matrix(0.9936,0,0,0.9936,328.11,125.95)" d="M2.32813,-4.54688 L0.921875,-4.54688 L0.921875,-5.10938 C1.53646,-5.19271 1.93229,-5.30208 2.10938,-5.4375 C2.28646,-5.57292 2.4375,-5.85417 2.5625,-6.28125 C2.57292,-6.3125 2.58854,-6.34896 2.60938,-6.39063 L3.125,-6.39063 L3.125,0 L2.32813,0 L2.32813,-4.54688 "/>
<path class="Note" fill="#ed2929" transform="matrix(0.9936,0,0,0.9936,326.868,70.308)" d="M4.39063,-2.75 C5.01563,-2.75 5.54688,-2.58854 5.98438,-2.26563 C6.38021,-1.91146 6.57813,-1.46875 6.57813,-0.9375 C6.57813,-0.0416667 6.11979,0.796875 5.20313,1.57813 C4.26563,2.35938 3.26042,2.75 2.1875,2.75 C1.5625,2.75 1.03646,2.58854 0.609375,2.26563 C0.203125,1.91146 0,1.46875 0,0.9375 C0,0.0416667 0.46875,-0.796875 1.40625,-1.57813 C2.32292,-2.35938 3.31771,-2.75 4.39063,-2.75"/>
<path class="Note" fill="#ffffff" fill-rule="evenodd" d="M262.272,111.294 L268.234,111.294 L268.234,118.746 L262.272,118.746 L262.272,111.294 "/>
<path class="Note" transform="matrix(0.9936,0,0,0.9936,262.769,118.498)" d="M2.32813,-4.54688 L0.921875,-4.54688 L0.921875,-5.10938 C1.53646,-5.19271 1.93229,-5.30208 2.10938,-5.4375 C2.28646,-5.57292 2.4375,-5.85417 2.5625,-6.28125 C2.57292,-6.3125 2.58854,-6.34896 2.60938,-6.39063 L3.125,-6.39063 L3.125,0 L2.32813,0 L2.32813,-4.54688 "/>
<path class="Note" fill="#ebeb19" transform="matrix(0.9936,0,0,0.9936,261.527,62.856)" d="M4.39063,-2.75 C5.01563,-2.75 5.54688,-2.58854 5.98438,-2.26563 C6.38021,-1.91146 6.57813,-1.46875 6.57813,-0.9375 C6.57813,-0.0416667 6.11979,0.796875 5.20313,1.57813 C4.26563,2.35938 3.26042,2.75 2.1875,2.75 C1.5625,2.75 1.03646,2.58854 0.609375,2.26563 C0.203125,1.91146 0,1.46875 0,0.9375 C0,0.0416667 0.46875,-0.796875 1.40625,-1.57813 C2.32292,-2.35938 3.31771,-2.75 4.39063,-2.75"/>
<path class="Note" fill="#ffffff" fill-rule="evenodd" d="M196.932,118.746 L202.893,118.746 L202.893,126.198 L196.932,126.198 L196.932,118.746 "/>
<path class="Note" transform="matrix(0.9936,0,0,0.9936,197.429,125.95)" d="M2.32813,-4.54688 L0.921875,-4.54688 L0.921875,-5.10938 C1.53646,-5.19271 1.93229,-5.30208 2.10938,-5.4375 C2.28646,-5.57292 2.4375,-5.85417 2.5625,-6.28125 C2.57292,-6.3125 2.58854,-6.34896 2.60938,-6.39063 L3.125,-6.39063 L3.125,0 L2.32813,0 L2.32813,-4.54688 "/>
<path class="Note" fill="#ed2929" transform="matrix(0.9936,0,0,0.9936,196.187,70.308)" d="M4.39063,-2.75 C5.01563,-2.75 5.54688,-2.58854 5.98438,-2.26563 C6.38021,-1.91146 6.57813,-1.46875 6.57813,-0.9375 C6.57813,-0.0416667 6.11979,0.796875 5.20313,1.57813 C4.26563,2.35938 3.26042,2.75 2.1875,2.75 C1.5625,2.75 1.03646,2.58854 0.609375,2.26563 C0.203125,1.91146 0,1.46875 0,0.9375 C0,0.0416667 0.46875,-0.796875 1.40625,-1.57813 C2.32292,-2.35938 3.31771,-2.75 4.39063,-2.75"/>
<path class="Note" fill="#ffffff" fill-rule="evenodd" d="M131.591,126.198 L137.553,126.198 L137.553,133.65 L131.591,133.65 L131.591,126.198 "/>
<path class="Note" transform="matrix(0.9936,0,0,0.9936,132.088,133.402)" d="M0.453125,-4.17188 C0.494792,-5.64063 1.19792,-6.38021 2.5625,-6.39063 C3.28125,-6.39063 3.83333,-6.14583 4.21875,-5.65625 C4.46875,-5.32292 4.59375,-4.93229 4.59375,-4.48438 C4.59375,-3.68229 4.14583,-3.03125 3.25,-2.53125 L2.34375,-2.04688 C1.79167,-1.75521 1.44271,-1.4375 1.29688,-1.09375 C1.24479,-0.989583 1.21354,-0.869792 1.20313,-0.734375 L4.5625,-0.734375 L4.5625,0 L0.3125,0 C0.354167,-0.760417 0.520833,-1.33854 0.8125,-1.73438 C1.07292,-2.05729 1.5,-2.38542 2.09375,-2.71875 L2.92188,-3.1875 C3.49479,-3.52083 3.78646,-3.94271 3.79688,-4.45313 C3.79688,-4.88021 3.61458,-5.21354 3.25,-5.45313 C3.04167,-5.57813 2.80208,-5.64063 2.53125,-5.64063 C1.73958,-5.64063 1.3125,-5.16667 1.25,-4.21875 C1.25,-4.19792 1.25,-4.18229 1.25,-4.17188 L0.453125,-4.17188 "/>
<path class="Note" fill="#cc00ff" transform="matrix(0.9936,0,0,0.9936,130.846,75.276)" d="M4.39063,-2.75 C5.01563,-2.75 5.54688,-2.58854 5.98438,-2.26563 C6.38021,-1.91146 6.57813,-1.46875 6.57813,-0.9375 C6.57813,-0.0416667 6.11979,0.796875 5.20313,1.57813 C4.26563,2.35938 3.26042,2.75 2.1875,2.75 C1.5625,2.75 1.03646,2.58854 0.609375,2.26563 C0.203125,1.91146 0,1.46875 0,0.9375 C0,0.0416667 0.46875,-0.796875 1.40625,-1.57813 C2.32292,-2.35938 3.31771,-2.75 4.39063,-2.75"/>
<path class="Note" fill="#ffffff" fill-rule="evenodd" d="M66.2505,133.65 L72.2121,133.65 L72.2121,141.102 L66.2505,141.102 L66.2505,133.65 "/>
<path class="Note" transform="matrix(0.9936,0,0,0.9936,66.7473,140.854)" d="M2.4375,-5.64063 C1.75,-5.64063 1.35417,-5.32813 1.25,-4.70313 C1.22917,-4.59896 1.21875,-4.47917 1.21875,-4.34375 L0.421875,-4.34375 C0.442708,-5.59375 1.01563,-6.27083 2.14063,-6.375 C2.23438,-6.38542 2.32813,-6.39063 2.42188,-6.39063 C3.26563,-6.39063 3.84375,-6.10938 4.15625,-5.54688 C4.29167,-5.28646 4.35938,-4.98438 4.35938,-4.64063 C4.35938,-4.00521 4.0625,-3.57292 3.46875,-3.34375 C4.03125,-3.14583 4.375,-2.81771 4.5,-2.35938 C4.54167,-2.19271 4.5625,-2.00521 4.5625,-1.79688 C4.5625,-1.05729 4.27604,-0.505208 3.70313,-0.140625 C3.33854,0.0885417 2.90104,0.203125 2.39063,0.203125 C1.21354,0.203125 0.526042,-0.348958 0.328125,-1.45313 C0.317708,-1.57813 0.302083,-1.71354 0.28125,-1.85938 L1.07813,-1.85938 C1.13021,-1.08854 1.46875,-0.65625 2.09375,-0.5625 C2.19792,-0.541667 2.30729,-0.53125 2.42188,-0.53125 C3.04688,-0.53125 3.45313,-0.765625 3.64063,-1.23438 C3.71354,-1.40104 3.75,-1.58854 3.75,-1.79688 C3.73958,-2.54688 3.29688,-2.92708 2.42188,-2.9375 L2.09375,-2.92188 L1.98438,-2.92188 L1.98438,-3.67188 C2.66146,-3.68229 3.10417,-3.77604 3.3125,-3.95313 C3.47917,-4.09896 3.5625,-4.31771 3.5625,-4.60938 C3.5625,-5.09896 3.34896,-5.41667 2.92188,-5.5625 C2.77604,-5.61458 2.61458,-5.64063 2.4375,-5.64063"/>
<path class="Note" fill="#ebeb19" transform="matrix(0.9936,0,0,0.9936,65.5053,80.244)" d="M4.39063,-2.75 C5.01563,-2.75 5.54688,-2.58854 5.98438,-2.26563 C6.38021,-1.91146 6.57813,-1.46875 6.57813,-0.9375 C6.57813,-0.0416667 6.11979,0.796875 5.20313,1.57813 C4.26563,2.35938 3.26042,2.75 2.1875,2.75 C1.5625,2.75 1.03646,2.58854 0.609375,2.26563 C0.203125,1.91146 0,1.46875 0,0.9375 C0,0.0416667 0.46875,-0.796875 1.40625,-1.57813 C2.32292,-2.35938 3.31771,-2.75 4.39063,-2.75"/>
<path class="Clef" transform="matrix(0.9936,0,0,0.9936,32.0544,133.65)" d="M5.32813,8.5 C5.32813,8.86458 5.04167,9.04688 4.46875,9.04688 C4.02083,9.04688 3.625,8.91146 3.28125,8.64063 C2.95833,8.34896 2.79688,7.98438 2.79688,7.54688 C2.79688,6.76563 3.27083,6.14063 4.21875,5.67188 C5.14583,5.18229 6.23438,4.9375 7.48438,4.9375 C7.96354,4.9375 8.47917,4.97396 9.03125,5.04688 C9.42708,5.09896 9.875,5.20313 10.375,5.35938 C10.8125,5.49479 11.1563,5.70573 11.4063,5.99219 C11.6563,6.27865 11.7813,6.61458 11.7813,7 C11.7813,7.89583 11.3177,8.63021 10.3906,9.20313 C11.7448,9.45313 12.4271,10.0573 12.4375,11.0156 C12.4375,11.8281 12.0729,12.5599 11.3438,13.2109 C10.6146,13.862 9.79167,14.1875 8.875,14.1875 C8.47917,14.1875 8.07813,14.0938 7.67188,13.9063 C7.29688,13.7292 7.03125,13.5625 6.875,13.4063 C6.71875,13.2188 6.64063,13.0781 6.64063,12.9844 C6.64063,12.8594 6.70833,12.75 6.84375,12.6563 C6.95833,12.5417 7.07813,12.4844 7.20313,12.4844 C7.25521,12.4844 7.36719,12.5677 7.53906,12.7344 C7.71094,12.901 7.95833,12.9844 8.28125,12.9844 C8.72917,12.9844 9.16146,12.7969 9.57813,12.4219 C9.97396,12.0573 10.1719,11.6198 10.1719,11.1094 C10.1719,10.6719 9.98438,10.3542 9.60938,10.1563 C9.24479,9.95833 8.76563,9.85938 8.17188,9.85938 C8.06771,9.85938 8.01563,9.75 8.01563,9.53125 C8.01563,9.21875 8.13021,9.0625 8.35938,9.0625 C8.72396,9.0625 9.05208,8.90625 9.34375,8.59375 C9.61458,8.26042 9.75,7.90104 9.75,7.51563 C9.75,7.40104 9.71875,7.22917 9.65625,7 C9.60417,6.84375 9.44792,6.65104 9.1875,6.42188 C8.9375,6.21354 8.58854,6.07292 8.14063,6 C8.02604,6.63542 7.88021,7.44792 7.70313,8.4375 C7.52604,9.42708 7.40625,10.0781 7.34375,10.3906 C7.125,11.5156 6.72396,12.4583 6.14063,13.2188 C5.52604,14.0313 4.86458,14.4375 4.15625,14.4375 C3.9375,14.4375 3.71354,14.3854 3.48438,14.2813 C3.29688,14.1979 3.0625,14.0365 2.78125,13.7969 C2.52083,13.5885 2.34375,13.4479 2.25,13.375 C2.19792,13.3438 2.17188,13.2865 2.17188,13.2031 C2.17188,13.0781 2.21875,12.9635 2.3125,12.8594 C2.41667,12.7344 2.52604,12.6719 2.64063,12.6719 C2.71354,12.6719 2.89323,12.7969 3.17969,13.0469 C3.46615,13.2969 3.76563,13.4219 4.07813,13.4219 C4.68229,13.4219 5.13542,13.0365 5.4375,12.2656 C5.71875,11.526 5.85938,10.6094 5.85938,9.51563 L5.85938,9.35938 C5.85938,8.63021 5.97917,7.54167 6.21875,6.09375 C5.80208,6.22917 5.46875,6.42708 5.21875,6.6875 C4.95833,6.94792 4.82813,7.21875 4.82813,7.5 C4.82813,7.71875 4.91146,7.90625 5.07813,8.0625 C5.24479,8.21875 5.32813,8.36458 5.32813,8.5 M1.40625,2.39063 C1.46875,2.39063 1.625,2.45313 1.875,2.57813 C2.13542,2.71354 2.35938,2.78125 2.54688,2.78125 C3.03646,2.78125 3.64063,2.42188 4.35938,1.70313 C6.43229,-0.411458 7.85938,-2.65104 8.64063,-5.01563 C8.79688,-5.51563 9.17708,-5.76563 9.78125,-5.76563 C10.0938,-5.76563 10.3646,-5.69792 10.5938,-5.5625 C10.8125,-5.42708 10.9219,-5.28646 10.9219,-5.14063 L10.5625,2.17188 C10.5625,2.55729 10.7031,2.75 10.9844,2.75 C11.1198,2.75 11.3281,2.6875 11.6094,2.5625 C11.8698,2.42708 12.026,2.35938 12.0781,2.35938 C12.1823,2.35938 12.2448,2.47396 12.2656,2.70313 C12.2656,2.91146 12.1823,3.04167 12.0156,3.09375 C11.8802,3.125 11.6198,3.24479 11.2344,3.45313 C10.8281,3.66146 10.5104,3.76563 10.2813,3.76563 C9.78125,3.76563 9.42708,3.375 9.21875,2.59375 C8.89583,1.375 8.6875,0.104167 8.59375,-1.21875 C8.07292,-0.552083 7.49479,0.119792 6.85938,0.796875 C7.08854,1.24479 7.51563,1.46875 8.14063,1.46875 C8.23438,1.46875 8.30729,1.46354 8.35938,1.45313 L8.375,1.45313 C8.47917,1.45313 8.53125,1.54688 8.53125,1.73438 C8.53125,1.98438 8.44792,2.13542 8.28125,2.1875 C8.01042,2.28125 7.72396,2.32813 7.42188,2.32813 C6.77604,2.32813 6.30729,2.10417 6.01563,1.65625 L5.23438,2.35938 C4.14063,3.29688 3.25,3.76563 2.5625,3.76563 C2.375,3.76563 2.1875,3.73438 2,3.67188 C1.84375,3.60938 1.66146,3.51042 1.45313,3.375 C1.36979,3.34375 1.27865,3.29688 1.17969,3.23438 C1.08073,3.17188 1.02083,3.13542 1,3.125 C0.9375,3.10417 0.90625,3.04688 0.90625,2.95313 C0.90625,2.84896 0.958333,2.72396 1.0625,2.57813 C1.14583,2.45313 1.26042,2.39063 1.40625,2.39063 M5.76563,-10.7969 C5.76563,-10.474 5.48438,-10.3125 4.92188,-10.3125 C4.43229,-10.3125 4.00521,-10.474 3.64063,-10.7969 C3.28646,-11.1302 3.10938,-11.5313 3.10938,-12 C3.10938,-12.4479 3.25,-12.8385 3.53125,-13.1719 C3.83333,-13.5052 4.21875,-13.7552 4.6875,-13.9219 C5.11458,-14.0781 5.59896,-14.2031 6.14063,-14.2969 C6.69271,-14.3594 7.22396,-14.3906 7.73438,-14.3906 C8.03646,-14.3906 8.59896,-14.2552 9.42188,-13.9844 C10.2552,-13.7135 10.8333,-13.5781 11.1563,-13.5781 C11.5625,-13.5781 11.9479,-13.651 12.3125,-13.7969 C12.6042,-13.9219 12.8906,-14.0677 13.1719,-14.2344 C13.3906,-14.3802 13.5104,-14.4531 13.5313,-14.4531 C13.6563,-14.4531 13.7604,-14.4167 13.8438,-14.3438 C13.9479,-14.2396 14,-14.151 14,-14.0781 C14,-13.9948 13.8802,-13.849 13.6406,-13.6406 C13.3802,-13.401 13.0078,-13.1641 12.5234,-12.9297 C12.0391,-12.6953 11.5313,-12.5781 11,-12.5781 C10.7604,-12.5781 10.4688,-12.6198 10.125,-12.7031 C9.89583,-11.2552 9.66146,-9.96875 9.42188,-8.84375 C9.21354,-7.85417 8.79688,-6.98958 8.17188,-6.25 C7.56771,-5.51042 6.89583,-5.14063 6.15625,-5.14063 C5.85417,-5.14063 5.58854,-5.19792 5.35938,-5.3125 C5.09896,-5.44792 4.82292,-5.64583 4.53125,-5.90625 C4.30208,-6.09375 4.08333,-6.26563 3.875,-6.42188 C3.82292,-6.46354 3.79688,-6.52604 3.79688,-6.60938 C3.79688,-6.69271 3.84896,-6.80729 3.95313,-6.95313 C4.05729,-7.06771 4.15104,-7.125 4.23438,-7.125 C4.31771,-7.125 4.54167,-6.96354 4.90625,-6.64063 C5.27083,-6.31771 5.59375,-6.15625 5.875,-6.15625 C6.39583,-6.15625 6.80208,-6.45313 7.09375,-7.04688 C7.375,-7.64063 7.53646,-8.34375 7.57813,-9.15625 C7.64063,-10.5 7.79167,-11.8906 8.03125,-13.3281 C7.73958,-13.3906 7.52604,-13.4219 7.39063,-13.4219 C6.76563,-13.4219 6.22917,-13.2917 5.78125,-13.0313 C5.34375,-12.7813 5.125,-12.4427 5.125,-12.0156 C5.125,-11.7031 5.22917,-11.4635 5.4375,-11.2969 C5.65625,-11.1094 5.76563,-10.9427 5.76563,-10.7969"/>
<path class="Clef" transform="matrix(0.9936,0,0,0.9936,32.0544,77.76)" d="M7.34375,-5.125 C7.34375,-5.125 7.38542,-5.125 7.46875,-5.125 C7.52083,-5.13542 7.5625,-5.14063 7.59375,-5.14063 C9.05208,-5.14063 10.25,-4.625 11.1875,-3.59375 C12.125,-2.58333 12.5938,-1.40104 12.5938,-0.046875 C12.5938,1.64063 11.901,3.01042 10.5156,4.0625 C10.151,4.35417 9.67188,4.58854 9.07813,4.76563 C9.15104,5.60938 9.1875,6.29167 9.1875,6.8125 C9.1875,6.91667 9.17188,7.29688 9.14063,7.95313 C9.08854,9.16146 8.67188,10.2083 7.89063,11.0938 C7.14063,11.9688 6.20313,12.4063 5.07813,12.4063 C4.02604,12.4063 3.13021,12.0365 2.39063,11.2969 C1.64063,10.5365 1.26563,9.625 1.26563,8.5625 C1.26563,8 1.48438,7.52083 1.92188,7.125 C2.35938,6.73958 2.86979,6.54688 3.45313,6.54688 C3.97396,6.54688 4.41146,6.75 4.76563,7.15625 C5.13021,7.53125 5.3125,8 5.3125,8.5625 C5.3125,9.0625 5.13021,9.49479 4.76563,9.85938 C4.40104,10.224 3.96354,10.4063 3.45313,10.4063 C3.24479,10.4063 3.04688,10.3698 2.85938,10.2969 C3.43229,11.1406 4.19271,11.5625 5.14063,11.5625 C6.03646,11.5625 6.77083,11.1979 7.34375,10.4688 C7.94792,9.71875 8.27604,8.83854 8.32813,7.82813 C8.34896,7.20313 8.35938,6.84896 8.35938,6.76563 C8.35938,6.03646 8.33333,5.4375 8.28125,4.96875 C7.63542,5.07292 7.05729,5.125 6.54688,5.125 C4.73438,5.125 3.19271,4.40625 1.92188,2.96875 C0.671875,1.52083 0.046875,-0.197917 0.046875,-2.1875 C0.046875,-2.60417 0.0833333,-3.02604 0.15625,-3.45313 C0.239583,-3.80729 0.338542,-4.19271 0.453125,-4.60938 C0.515625,-4.84896 0.692708,-5.22917 0.984375,-5.75 C1.08854,-5.90625 1.20573,-6.10156 1.33594,-6.33594 C1.46615,-6.57031 1.55729,-6.72396 1.60938,-6.79688 C1.73438,-7.05729 1.98438,-7.41146 2.35938,-7.85938 C2.46354,-7.97396 2.57292,-8.10156 2.6875,-8.24219 C2.80208,-8.38281 2.89844,-8.5 2.97656,-8.59375 C3.05469,-8.6875 3.11198,-8.76042 3.14844,-8.8125 C3.1849,-8.86458 3.47917,-9.20833 4.03125,-9.84375 C4.15625,-9.97917 4.28125,-10.1198 4.40625,-10.2656 C4.53125,-10.4115 4.63281,-10.5286 4.71094,-10.6172 C4.78906,-10.7057 4.84896,-10.7656 4.89063,-10.7969 C4.42188,-12.349 4.125,-13.5885 4,-14.5156 C3.91667,-15.2552 3.875,-16.2708 3.875,-17.5625 C3.875,-18.6979 4.13542,-19.7604 4.65625,-20.75 C5.15625,-21.7708 5.86458,-22.6094 6.78125,-23.2656 C6.84375,-23.3073 6.90625,-23.3281 6.96875,-23.3281 C7.0625,-23.3281 7.13021,-23.3073 7.17188,-23.2656 C7.86979,-22.4219 8.47396,-21.3229 8.98438,-19.9688 C9.50521,-18.6146 9.76563,-17.3802 9.76563,-16.2656 C9.76563,-15.0156 9.46875,-13.8438 8.875,-12.75 C8.19792,-11.5938 7.32292,-10.3958 6.25,-9.15625 C6.52083,-8.30208 6.88542,-6.95833 7.34375,-5.125 M9,3.96875 C9.67708,3.71875 10.2083,3.29688 10.5938,2.70313 C11.0104,2.13021 11.2188,1.48438 11.2188,0.765625 C11.2188,-0.161458 10.9063,-0.984375 10.2813,-1.70313 C9.63542,-2.44271 8.81771,-2.85938 7.82813,-2.95313 C8.39063,-0.203125 8.78125,2.10417 9,3.96875 M1.45313,-0.546875 C1.45313,0.744792 1.97396,1.88021 3.01563,2.85938 C4.07813,3.80729 5.27604,4.28125 6.60938,4.28125 C7.15104,4.28125 7.68229,4.23958 8.20313,4.15625 C7.99479,2.17708 7.58333,-0.192708 6.96875,-2.95313 C6.22917,-2.86979 5.64063,-2.60938 5.20313,-2.17188 C4.76563,-1.71354 4.54688,-1.19792 4.54688,-0.625 C4.54688,0.364583 5.07813,1.16667 6.14063,1.78125 C6.22396,1.875 6.26563,1.97396 6.26563,2.07813 C6.26563,2.18229 6.22396,2.27604 6.14063,2.35938 C6.05729,2.45313 5.95833,2.5 5.84375,2.5 C5.83333,2.5 5.77604,2.48958 5.67188,2.46875 C4.92188,2.0625 4.34896,1.54167 3.95313,0.90625 C3.56771,0.21875 3.375,-0.46875 3.375,-1.15625 C3.375,-2.05208 3.65625,-2.86458 4.21875,-3.59375 C4.80208,-4.32292 5.5625,-4.79167 6.5,-5 C6.13542,-6.45833 5.83854,-7.59896 5.60938,-8.42188 C5.40104,-8.18229 5.15104,-7.89844 4.85938,-7.57031 C4.56771,-7.24219 4.39583,-7.04167 4.34375,-6.96875 C3.875,-6.36458 3.51563,-5.89063 3.26563,-5.54688 C2.81771,-4.93229 2.48958,-4.40625 2.28125,-3.96875 C2.0625,-3.46875 1.86979,-2.92708 1.70313,-2.34375 C1.53646,-1.78125 1.45313,-1.18229 1.45313,-0.546875 M7.96875,-20.4063 C6.98958,-19.9271 6.22396,-19.2396 5.67188,-18.3438 C5.09896,-17.4167 4.8125,-16.4219 4.8125,-15.3594 C4.8125,-14.4219 5.04688,-13.1563 5.51563,-11.5625 C6.45313,-12.6979 7.15625,-13.7448 7.625,-14.7031 C8.11458,-15.724 8.35938,-16.7865 8.35938,-17.8906 C8.35938,-18.724 8.22917,-19.5625 7.96875,-20.4063 M5.82813,15.2344 C6.16146,14.901 6.32813,14.5625 6.32813,14.2188 C6.30729,13.9479 6.19271,13.7396 5.98438,13.5938 C5.74479,13.4375 5.46875,13.3594 5.15625,13.3594 C4.9375,13.3594 4.75521,13.4323 4.60938,13.5781 C4.48438,13.7031 4.42188,13.8646 4.42188,14.0625 C4.42188,14.3021 4.51563,14.4792 4.70313,14.5938 L5.82813,15.2344 M6.14063,15.4063 C6.68229,15.7083 6.95313,16.1146 6.95313,16.625 L6.95313,16.6875 C6.95313,17.0833 6.79167,17.4219 6.46875,17.7031 C6.14583,17.9844 5.68229,18.125 5.07813,18.125 C4.58854,18.125 4.16146,17.9948 3.79688,17.7344 C3.43229,17.4844 3.25,17.1458 3.25,16.7188 C3.25,16.5521 3.29167,16.3958 3.375,16.25 C3.47917,16.0833 3.56771,15.9688 3.64063,15.9063 L4,15.5313 C3.60417,15.2604 3.40625,14.901 3.40625,14.4531 C3.40625,14.099 3.5625,13.7865 3.875,13.5156 C4.19792,13.2552 4.625,13.125 5.15625,13.125 C5.60417,13.125 5.98438,13.224 6.29688,13.4219 C6.60938,13.6198 6.76563,13.8854 6.76563,14.2188 C6.76563,14.5729 6.55729,14.9688 6.14063,15.4063 M4.29688,15.7031 C3.91146,16.0469 3.70313,16.3854 3.67188,16.7188 C3.70313,17.0729 3.84896,17.3542 4.10938,17.5625 C4.39063,17.7813 4.71354,17.8906 5.07813,17.8906 C5.33854,17.8906 5.54688,17.8073 5.70313,17.6406 C5.85938,17.4844 5.9375,17.2969 5.9375,17.0781 C5.92708,16.7865 5.8125,16.5781 5.59375,16.4531 L4.29688,15.7031 "/>
<path class="KeySig" transform="matrix(0.9936,0,0,0.9936,49.4657,72.792)" d="M0.921875,-0.828125 L0.921875,0.71875 C0.921875,1.27083 0.947917,1.70833 1,2.03125 C1.42708,1.66667 1.73438,1.39583 1.92188,1.21875 C2.13021,1.01042 2.33854,0.721354 2.54688,0.351563 C2.75521,-0.0182292 2.85938,-0.385417 2.85938,-0.75 C2.85938,-1.11458 2.78125,-1.42708 2.625,-1.6875 C2.46875,-1.94792 2.26042,-2.07813 2,-2.07813 C1.6875,-2.07813 1.42708,-1.95833 1.21875,-1.71875 C1.02083,-1.45833 0.921875,-1.16146 0.921875,-0.828125 M0.09375,2.75 L-0.15625,-9.14063 C0.03125,-9.24479 0.216146,-9.29688 0.398438,-9.29688 C0.580729,-9.29688 0.760417,-9.24479 0.9375,-9.14063 L0.78125,-2.25 C1.3125,-2.70833 1.92708,-2.9375 2.625,-2.9375 C3.125,-2.9375 3.54427,-2.72917 3.88281,-2.3125 C4.22135,-1.89583 4.39063,-1.41667 4.39063,-0.875 C4.39063,-0.541667 4.28125,-0.182292 4.0625,0.203125 C3.85417,0.546875 3.63542,0.817708 3.40625,1.01563 C3.27083,1.11979 2.9375,1.38021 2.40625,1.79688 C2.25,1.91146 2.0651,2.04688 1.85156,2.20313 C1.63802,2.35938 1.50521,2.45833 1.45313,2.5 C1.35938,2.55208 1.27083,2.65625 1.1875,2.8125 C1.10417,2.94792 1,3.05729 0.875,3.14063 C0.791667,3.22396 0.684896,3.26563 0.554688,3.26563 C0.424479,3.26563 0.317708,3.21875 0.234375,3.125 C0.140625,3.03125 0.09375,2.90625 0.09375,2.75"/>
<path class="Fingering" d="M451.526,82.119 C451.651,82.119 451.834,82.1867 452.073,82.3221 C452.323,82.4784 452.537,82.5565 452.714,82.5565 C453.078,82.5565 453.365,82.395 453.573,82.0721 C453.698,81.8638 453.761,81.6294 453.761,81.369 C453.761,80.6086 453.308,80.1919 452.401,80.119 C452.308,80.1086 452.209,80.1034 452.104,80.1034 L452.104,79.994 C452.709,79.7961 453.104,79.5409 453.292,79.2284 C453.386,79.0617 453.433,78.8794 453.433,78.6815 C453.433,78.3273 453.287,78.0721 452.995,77.9159 C452.86,77.8534 452.714,77.8221 452.558,77.8221 C452.11,77.8221 451.74,78.0565 451.448,78.5252 C451.417,78.5669 451.391,78.6138 451.37,78.6659 L451.245,78.6346 C451.495,77.9575 451.86,77.5461 452.339,77.4002 C452.485,77.3586 452.646,77.3377 452.823,77.3377 C453.302,77.3377 453.656,77.5044 453.886,77.8377 C454.011,78.0148 454.073,78.2127 454.073,78.4315 C454.073,78.7544 453.922,79.0461 453.62,79.3065 C453.526,79.3794 453.427,79.4575 453.323,79.5409 C453.802,79.7492 454.11,80.0357 454.245,80.4002 C454.308,80.5773 454.339,80.7752 454.339,80.994 C454.339,81.6294 454.073,82.1242 453.542,82.4784 C453.146,82.7284 452.677,82.8534 452.136,82.8534 C451.646,82.8534 451.354,82.744 451.261,82.5252 C451.24,82.4836 451.229,82.4419 451.229,82.4002 C451.229,82.244 451.308,82.1555 451.464,82.1346 C451.485,82.1242 451.505,82.119 451.526,82.119"/>
<path class="Fingering" d="M385.974,73.9635 C386.214,72.9427 386.74,72.4166 387.552,72.3854 C387.584,72.3854 387.61,72.3854 387.631,72.3854 C388.12,72.3854 388.511,72.5625 388.802,72.9166 C389.011,73.177 389.115,73.4687 389.115,73.7916 C389.115,74.3854 388.797,75.026 388.162,75.7135 C388.141,75.7343 388.115,75.7552 388.084,75.776 L386.756,77.1979 L388.662,77.1979 C388.87,77.1979 389.032,77.1406 389.146,77.026 C389.219,76.9531 389.308,76.8333 389.412,76.6666 L389.521,76.6979 L389.084,77.776 L385.959,77.776 L385.959,77.6822 L387.381,76.1666 C388.058,75.427 388.407,74.7343 388.427,74.0885 C388.427,73.6406 388.256,73.3177 387.912,73.1197 C387.735,73.0156 387.532,72.9635 387.302,72.9635 C386.948,72.9635 386.672,73.0989 386.474,73.3697 C386.36,73.526 386.25,73.7395 386.146,74.0104 L385.974,73.9635 "/>
<path class="Fingering" d="M321.853,68.0736 C321.738,68.0736 321.545,68.1309 321.274,68.2455 L321.274,68.1361 L322.712,67.4017 L322.774,67.4174 L322.774,72.2142 C322.774,72.4226 322.837,72.558 322.962,72.6205 C323.066,72.6622 323.259,72.683 323.54,72.683 L323.54,72.808 L321.321,72.808 L321.321,72.683 C321.675,72.6726 321.899,72.6101 321.993,72.4955 C322.056,72.4017 322.087,72.2559 322.087,72.058 L322.087,68.4486 C322.076,68.1986 321.998,68.0736 321.853,68.0736"/>
<path class="Fingering" d="M255.293,61.5435 C255.533,60.5227 256.059,59.9966 256.871,59.9654 C256.903,59.9654 256.929,59.9654 256.949,59.9654 C257.439,59.9654 257.83,60.1425 258.121,60.4966 C258.33,60.757 258.434,61.0487 258.434,61.3716 C258.434,61.9654 258.116,62.606 257.481,63.2935 C257.46,63.3143 257.434,63.3352 257.403,63.356 L256.074,64.7779 L257.981,64.7779 C258.189,64.7779 258.35,64.7206 258.465,64.606 C258.538,64.5331 258.626,64.4133 258.731,64.2466 L258.84,64.2779 L258.403,65.356 L255.278,65.356 L255.278,65.2622 L256.699,63.7466 C257.376,63.007 257.725,62.3143 257.746,61.6685 C257.746,61.2206 257.574,60.8977 257.231,60.6997 C257.054,60.5956 256.85,60.5435 256.621,60.5435 C256.267,60.5435 255.991,60.6789 255.793,60.9497 C255.679,61.106 255.569,61.3195 255.465,61.5904 L255.293,61.5435 "/>
<path class="Fingering" d="M191.171,68.0736 C191.057,68.0736 190.864,68.1309 190.593,68.2455 L190.593,68.1361 L192.031,67.4017 L192.093,67.4174 L192.093,72.2142 C192.093,72.4226 192.156,72.558 192.281,72.6205 C192.385,72.6622 192.578,72.683 192.859,72.683 L192.859,72.808 L190.64,72.808 L190.64,72.683 C190.994,72.6726 191.218,72.6101 191.312,72.4955 C191.374,72.4017 191.406,72.2559 191.406,72.058 L191.406,68.4486 C191.395,68.1986 191.317,68.0736 191.171,68.0736"/>
<path class="Fingering" d="M124.612,73.9635 C124.852,72.9427 125.378,72.4166 126.19,72.3854 C126.221,72.3854 126.247,72.3854 126.268,72.3854 C126.758,72.3854 127.148,72.5625 127.44,72.9166 C127.648,73.177 127.753,73.4687 127.753,73.7916 C127.753,74.3854 127.435,75.026 126.799,75.7135 C126.779,75.7343 126.753,75.7552 126.721,75.776 L125.393,77.1979 L127.299,77.1979 C127.508,77.1979 127.669,77.1406 127.784,77.026 C127.857,76.9531 127.945,76.8333 128.049,76.6666 L128.159,76.6979 L127.721,77.776 L124.596,77.776 L124.596,77.6822 L126.018,76.1666 C126.695,75.427 127.044,74.7343 127.065,74.0885 C127.065,73.6406 126.893,73.3177 126.549,73.1197 C126.372,73.0156 126.169,72.9635 125.94,72.9635 C125.586,72.9635 125.31,73.0989 125.112,73.3697 C124.997,73.526 124.888,73.7395 124.784,74.0104 L124.612,73.9635 "/>
<path class="Fingering" d="M59.662,82.119 C59.787,82.119 59.9693,82.1867 60.2088,82.3221 C60.4588,82.4784 60.6724,82.5565 60.8495,82.5565 C61.214,82.5565 61.5005,82.395 61.7088,82.0721 C61.8338,81.8638 61.8963,81.6294 61.8963,81.369 C61.8963,80.6086 61.4432,80.1919 60.537,80.119 C60.4432,80.1086 60.3443,80.1034 60.2401,80.1034 L60.2401,79.994 C60.8443,79.7961 61.2401,79.5409 61.4276,79.2284 C61.5213,79.0617 61.5682,78.8794 61.5682,78.6815 C61.5682,78.3273 61.4224,78.0721 61.1307,77.9159 C60.9953,77.8534 60.8495,77.8221 60.6932,77.8221 C60.2453,77.8221 59.8755,78.0565 59.5838,78.5252 C59.5526,78.5669 59.5265,78.6138 59.5057,78.6659 L59.3807,78.6346 C59.6307,77.9575 59.9953,77.5461 60.4745,77.4002 C60.6203,77.3586 60.7818,77.3377 60.9588,77.3377 C61.438,77.3377 61.7922,77.5044 62.0213,77.8377 C62.1463,78.0148 62.2088,78.2127 62.2088,78.4315 C62.2088,78.7544 62.0578,79.0461 61.7557,79.3065 C61.662,79.3794 61.563,79.4575 61.4588,79.5409 C61.938,79.7492 62.2453,80.0357 62.3807,80.4002 C62.4432,80.5773 62.4745,80.7752 62.4745,80.994 C62.4745,81.6294 62.2088,82.1242 61.6776,82.4784 C61.2818,82.7284 60.813,82.8534 60.2713,82.8534 C59.7818,82.8534 59.4901,82.744 59.3963,82.5252 C59.3755,82.4836 59.3651,82.4419 59.3651,82.4002 C59.3651,82.244 59.4432,82.1555 59.5995,82.1346 C59.6203,82.1242 59.6411,82.119 59.662,82.119"/>
<path class="Tempo" d="M59.2619,40.4371 C59.0588,40.2809 58.8088,40.1871 58.4963,40.1871 C57.3088,40.1871 56.3557,41.0621 56.3557,41.9996 C56.3557,42.5621 56.8088,42.9059 57.4026,42.9059 C58.3557,42.9059 59.5432,41.9996 59.5432,41.0934 L59.5432,34.9527 L59.2619,34.9527 L59.2619,40.4371 "/>
<path class="Tempo" d="M69.9026,39.0152 L63.2932,39.0152 L63.2932,37.859 L69.9026,37.859 L69.9026,39.0152 M69.9026,41.9371 L63.2932,41.9371 L63.2932,40.7965 L69.9026,40.7965 L69.9026,41.9371 M73.8713,41.0934 C73.8713,40.2913 74.2828,39.7027 75.1057,39.3277 C75.2723,39.2444 75.4651,39.1663 75.6838,39.0934 C74.7776,38.5621 74.2463,37.9892 74.0901,37.3746 C74.038,37.1975 74.0119,37.0152 74.0119,36.8277 C74.0119,36.0569 74.3609,35.484 75.0588,35.109 C75.5171,34.859 76.064,34.734 76.6994,34.734 C77.7098,34.734 78.4026,35.0205 78.7776,35.5934 C78.9546,35.8538 79.0432,36.1455 79.0432,36.4684 C79.0432,37.0621 78.7098,37.5309 78.0432,37.8746 C77.8557,37.958 77.6421,38.0465 77.4026,38.1402 C78.3296,38.7236 78.8921,39.3382 79.0901,39.984 C79.163,40.2236 79.1994,40.4736 79.1994,40.734 C79.1994,41.5986 78.8453,42.2548 78.1369,42.7027 C77.6578,42.9944 77.0848,43.1402 76.4182,43.1402 C75.439,43.1402 74.7203,42.8434 74.2619,42.2496 C74.0015,41.9163 73.8713,41.5309 73.8713,41.0934 M77.1213,37.9215 C77.4026,37.5361 77.5588,37.1819 77.5901,36.859 C77.6005,36.7548 77.6057,36.6507 77.6057,36.5465 C77.6057,35.734 77.3505,35.2548 76.8401,35.109 C76.7463,35.0882 76.6526,35.0777 76.5588,35.0777 C76.1526,35.0777 75.8609,35.2496 75.6838,35.5934 C75.6005,35.7496 75.5588,35.9111 75.5588,36.0777 C75.5588,36.7236 76.0119,37.3017 76.9182,37.8121 C76.9911,37.8538 77.0588,37.8902 77.1213,37.9215 M75.9494,39.3121 C75.5953,39.833 75.3921,40.2861 75.3401,40.6715 C75.3296,40.7965 75.3244,40.9215 75.3244,41.0465 C75.3244,41.9111 75.5796,42.4527 76.0901,42.6715 C76.2151,42.7236 76.3505,42.7496 76.4963,42.7496 C76.9859,42.7496 77.3088,42.4944 77.4651,41.984 C77.5171,41.8173 77.5432,41.6402 77.5432,41.4527 C77.5432,40.9527 77.4026,40.5465 77.1213,40.234 C76.8921,39.9944 76.5015,39.6871 75.9494,39.3121 M79.8244,38.9059 C79.8244,37.5934 80.1369,36.5309 80.7619,35.7184 C81.2723,35.0725 81.8661,34.7444 82.5432,34.734 C83.3244,34.734 83.9703,35.1402 84.4807,35.9527 C84.9911,36.7652 85.2463,37.76 85.2463,38.9371 C85.2463,40.3121 84.9286,41.4059 84.2932,42.2184 C83.7932,42.8225 83.2151,43.1298 82.5588,43.1402 C81.7255,43.1402 81.0536,42.7132 80.5432,41.859 C80.064,41.0673 79.8244,40.083 79.8244,38.9059 M82.5588,42.7965 C82.913,42.7965 83.1473,42.4736 83.2619,41.8277 C83.3244,41.4423 83.3557,40.9423 83.3557,40.3277 L83.3557,37.5777 C83.3557,36.1402 83.163,35.3225 82.7776,35.1246 C82.7046,35.083 82.6213,35.0621 82.5276,35.0621 C82.163,35.0621 81.9234,35.3955 81.8088,36.0621 C81.7567,36.4371 81.7307,36.9423 81.7307,37.5777 L81.7307,40.3277 C81.7307,41.6819 81.8973,42.4736 82.2307,42.7027 C82.3244,42.7652 82.4338,42.7965 82.5588,42.7965"/>
<path class="StaffText" d="M69.3335,25.2057 C69.7814,25.2057 70.2814,25.3203 70.8335,25.5495 C71.073,25.6432 71.2449,25.6901 71.3491,25.6901 C71.4949,25.6901 71.6251,25.5807 71.7397,25.362 C71.7501,25.3203 71.7658,25.2787 71.7866,25.237 L72.0522,25.237 L72.0522,27.5807 L71.8022,27.5807 C71.5314,26.9766 71.2501,26.5339 70.9585,26.2526 C70.896,26.1901 70.8387,26.138 70.7866,26.0964 C70.3595,25.7214 69.9168,25.5339 69.4585,25.5339 C68.4585,25.5339 67.8647,26.2526 67.6772,27.6901 C67.646,28.013 67.6303,28.362 67.6303,28.737 C67.6303,29.9245 67.8439,30.7943 68.271,31.3464 C68.6043,31.763 69.0626,31.9714 69.646,31.9714 C70.2085,31.9714 70.5262,31.7943 70.5991,31.4401 C70.6095,31.3776 70.6147,31.3099 70.6147,31.237 L70.6147,30.1901 C70.6147,29.8985 70.5418,29.711 70.396,29.6276 C70.2501,29.5547 69.9845,29.5078 69.5991,29.487 L69.5991,29.237 L73.0366,29.237 L73.0366,29.487 C72.6303,29.5287 72.3803,29.6172 72.2866,29.7526 C72.2137,29.8672 72.1772,30.086 72.1772,30.4089 L72.1772,31.6745 C71.5835,32.0287 70.797,32.237 69.8178,32.2995 C69.6824,32.2995 69.547,32.2995 69.4116,32.2995 C68.297,32.2995 67.4064,31.9401 66.7397,31.2214 C66.146,30.5755 65.8491,29.7682 65.8491,28.7995 C65.8491,27.7578 66.1928,26.8932 66.8803,26.2057 C67.547,25.5391 68.3647,25.2057 69.3335,25.2057 M77.0991,28.8307 C76.8803,28.8307 76.6668,28.711 76.4585,28.4714 C76.3439,28.3255 76.2605,28.2474 76.2085,28.237 C75.9897,28.237 75.823,28.388 75.7085,28.6901 C75.6355,28.8464 75.5991,29.013 75.5991,29.1901 L75.5991,31.0807 C75.5991,31.4453 75.672,31.6693 75.8178,31.7526 C75.9116,31.8151 76.0835,31.8568 76.3335,31.8776 L76.3335,32.112 L73.6928,32.112 L73.6928,31.8776 C73.9637,31.8255 74.1251,31.7318 74.1772,31.5964 C74.198,31.5235 74.2085,31.4141 74.2085,31.2682 L74.2085,28.3307 C74.2085,28.0703 74.1355,27.9037 73.9897,27.8307 C73.9168,27.7891 73.8178,27.7578 73.6928,27.737 L73.6928,27.5026 L75.5678,27.5026 L75.5678,28.3307 C75.9428,27.7787 76.3126,27.4714 76.6772,27.4089 C76.7605,27.388 76.8387,27.3776 76.9116,27.3776 C77.2553,27.3776 77.5001,27.5182 77.646,27.7995 C77.698,27.9141 77.7241,28.0339 77.7241,28.1589 C77.7241,28.4714 77.5991,28.6797 77.3491,28.7839 C77.2658,28.8151 77.1824,28.8307 77.0991,28.8307 M78.9741,28.0807 C78.9741,28.112 79.0262,28.2057 79.1303,28.362 C79.2241,28.5078 79.271,28.6328 79.271,28.737 C79.271,28.9974 79.1408,29.1745 78.8803,29.2682 C78.7866,29.2995 78.6928,29.3151 78.5991,29.3151 C78.2345,29.3151 78.021,29.1537 77.9585,28.8307 C77.948,28.7682 77.9428,28.711 77.9428,28.6589 C77.9428,28.1901 78.198,27.8412 78.7085,27.612 C79.0314,27.4557 79.4064,27.3776 79.8335,27.3776 C80.7085,27.3776 81.3074,27.6172 81.6303,28.0964 C81.7553,28.2943 81.8178,28.5182 81.8178,28.7682 L81.8178,31.3464 C81.8283,31.5026 81.896,31.586 82.021,31.5964 C82.073,31.586 82.1095,31.5703 82.1303,31.5495 L82.2397,31.4557 L82.3803,31.6589 C81.9845,32.0339 81.6147,32.2318 81.271,32.2526 C80.896,32.2526 80.6512,32.112 80.5366,31.8307 C80.5053,31.737 80.4741,31.638 80.4428,31.5339 C79.9012,32.0026 79.3751,32.2422 78.8647,32.2526 C78.4272,32.2526 78.1095,32.086 77.9116,31.7526 C77.8074,31.586 77.7553,31.4037 77.7553,31.2057 C77.7553,30.6224 78.2033,30.1485 79.0991,29.7839 C79.3387,29.6797 79.7866,29.5287 80.4428,29.3307 L80.4428,28.5964 C80.4428,28.0651 80.2241,27.7735 79.7866,27.7214 C79.7241,27.7214 79.6616,27.7214 79.5991,27.7214 C79.3074,27.7214 79.1095,27.8047 79.0053,27.9714 C78.9845,28.0026 78.9741,28.0391 78.9741,28.0807 M80.4272,31.0964 L80.4272,29.6589 C79.6251,29.8776 79.2189,30.2787 79.2085,30.862 C79.2085,31.1953 79.3178,31.4037 79.5366,31.487 C79.5991,31.5078 79.6616,31.5182 79.7241,31.5182 C79.9533,31.5182 80.1876,31.3776 80.4272,31.0964 M85.896,32.237 L85.896,31.5964 C85.5418,31.9714 85.198,32.1849 84.8647,32.237 C84.771,32.2474 84.672,32.2526 84.5678,32.2526 C83.9741,32.2526 83.5053,31.9766 83.1616,31.4245 C82.8908,30.9974 82.7553,30.4922 82.7553,29.9089 C82.7553,29.0547 83.0001,28.3828 83.4897,27.8932 C83.823,27.5495 84.2189,27.3776 84.6772,27.3776 C85.0314,27.3776 85.3543,27.513 85.646,27.7839 C85.7293,27.8568 85.8022,27.9245 85.8647,27.987 L85.8647,26.1745 C85.8647,25.9245 85.8074,25.7682 85.6928,25.7057 C85.5887,25.6537 85.3908,25.6172 85.0991,25.5964 L85.0991,25.362 L87.2553,25.362 L87.2553,31.112 C87.2553,31.3932 87.3387,31.5651 87.5053,31.6276 C87.5887,31.6589 87.7033,31.6797 87.8491,31.6901 L87.8491,31.9245 L87.2241,32.0026 C86.672,32.0755 86.2293,32.1537 85.896,32.237 M85.021,31.7057 C85.3126,31.7057 85.5626,31.5391 85.771,31.2057 C85.823,31.112 85.8543,31.0443 85.8647,31.0026 L85.8647,28.5495 C85.7397,28.2162 85.5314,28.0182 85.2397,27.9557 C85.1876,27.9453 85.1355,27.9401 85.0835,27.9401 C84.573,27.9401 84.2918,28.4453 84.2397,29.4557 C84.2397,29.5703 84.2397,29.6953 84.2397,29.8307 C84.2397,31.0703 84.5001,31.6953 85.021,31.7057 M90.1928,29.6589 C90.2449,30.6797 90.5105,31.2787 90.9897,31.4557 C91.1147,31.4974 91.2449,31.5182 91.3803,31.5182 C91.7449,31.5182 92.0783,31.3516 92.3803,31.0182 C92.4324,30.9662 92.4793,30.9141 92.521,30.862 L92.7553,31.0026 C92.3387,31.6068 91.9272,31.987 91.521,32.1432 C91.3126,32.2162 91.0783,32.2526 90.8178,32.2526 C90.0678,32.2526 89.5053,31.9453 89.1303,31.3307 C88.8803,30.9141 88.7553,30.4141 88.7553,29.8307 C88.7553,28.9349 89.0262,28.263 89.5678,27.8151 C89.9324,27.5235 90.3595,27.3776 90.8491,27.3776 C91.9533,27.3776 92.573,28.0964 92.7085,29.5339 C92.7085,29.5755 92.7085,29.6172 92.7085,29.6589 L90.1928,29.6589 M91.4897,29.1432 C91.4689,28.5182 91.4012,28.1224 91.2866,27.9557 C91.1928,27.7995 91.047,27.7214 90.8491,27.7214 C90.5574,27.7214 90.3595,27.8932 90.2553,28.237 C90.1928,28.4766 90.1564,28.8307 90.146,29.2995 L91.4897,29.2995 L91.4897,29.1432 M97.0053,26.3307 C96.9012,26.3307 96.6355,26.4089 96.2085,26.5651 C96.1876,26.5755 96.172,26.5807 96.1616,26.5807 L96.1616,26.3307 L98.6772,25.237 L98.8491,25.237 L98.8491,30.9401 C98.8491,31.3464 98.9272,31.6016 99.0835,31.7057 C99.2293,31.8099 99.5105,31.8672 99.9272,31.8776 L99.9272,32.112 L96.1772,32.112 L96.1772,31.8776 C96.7189,31.8672 97.0574,31.7839 97.1928,31.6276 C97.3074,31.4818 97.3647,31.2318 97.3647,30.8776 L97.3647,27.0182 C97.3543,26.5703 97.2345,26.3412 97.0053,26.3307 M102.162,30.5495 C102.485,30.5495 102.729,30.6901 102.896,30.9714 C102.979,31.1172 103.021,31.263 103.021,31.4089 C103.021,31.7214 102.88,31.961 102.599,32.1276 C102.453,32.2005 102.307,32.237 102.162,32.237 C101.828,32.237 101.583,32.0964 101.427,31.8151 C101.354,31.6797 101.318,31.5391 101.318,31.3932 C101.318,31.0912 101.453,30.8568 101.724,30.6901 C101.86,30.5964 102.005,30.5495 102.162,30.5495 M102.162,27.3932 C102.485,27.3932 102.729,27.5287 102.896,27.7995 C102.979,27.9453 103.021,28.0912 103.021,28.237 C103.021,28.5599 102.88,28.8047 102.599,28.9714 C102.464,29.0443 102.318,29.0807 102.162,29.0807 C101.828,29.0807 101.583,28.9349 101.427,28.6432 C101.354,28.5078 101.318,28.3672 101.318,28.2214 C101.318,27.9193 101.453,27.6849 101.724,27.5182 C101.86,27.4349 102.005,27.3932 102.162,27.3932"/>
<path class="StaffText" d="M111.318,29.7682 L111.099,29.7682 C111.026,29.3516 110.912,29.0912 110.755,28.987 C110.61,28.8932 110.354,28.8464 109.99,28.8464 L108.537,28.8464 L108.537,30.9245 C108.537,31.362 108.61,31.638 108.755,31.7526 C108.87,31.8464 109.104,31.9037 109.458,31.9245 L109.458,32.112 L106.662,32.112 L106.662,31.9245 C107.047,31.8932 107.292,31.8151 107.396,31.6901 C107.479,31.5547 107.521,31.2943 107.521,30.9089 L107.521,26.5807 C107.521,26.1953 107.453,25.9505 107.318,25.8464 C107.193,25.763 106.974,25.711 106.662,25.6901 L106.662,25.5026 L111.958,25.5026 L111.99,26.9245 L111.74,26.9245 C111.656,26.4766 111.526,26.1901 111.349,26.0651 C111.151,25.9401 110.776,25.8776 110.224,25.8776 L108.865,25.8776 C108.688,25.8776 108.589,25.9245 108.568,26.0182 C108.547,26.0703 108.537,26.1328 108.537,26.2057 L108.537,28.4089 L109.99,28.4089 C110.427,28.4089 110.714,28.3307 110.849,28.1745 C110.953,28.0495 111.037,27.8203 111.099,27.487 L111.318,27.487 L111.318,29.7682 M115.63,28.1589 L115.63,27.987 C116.11,27.8412 116.578,27.6849 117.037,27.5182 L117.099,27.5339 L117.099,28.2995 C117.672,27.862 118.083,27.612 118.333,27.5495 C118.438,27.5287 118.542,27.5182 118.646,27.5182 C119.177,27.5287 119.531,27.8151 119.708,28.3776 C120.24,27.8047 120.787,27.5182 121.349,27.5182 C122.11,27.5287 122.495,28.1276 122.505,29.3151 L122.505,31.362 C122.516,31.7266 122.656,31.9193 122.927,31.9401 L123.193,31.9557 L123.193,32.112 L121.005,32.112 L121.005,31.9557 C121.328,31.9245 121.521,31.8516 121.583,31.737 C121.636,31.6432 121.662,31.4818 121.662,31.2526 L121.662,29.1432 C121.662,28.5912 121.552,28.2578 121.333,28.1432 C121.229,28.0807 121.089,28.0495 120.912,28.0495 C120.464,28.0599 120.099,28.263 119.818,28.6589 L119.818,31.1745 C119.818,31.5495 119.906,31.7839 120.083,31.8776 C120.188,31.9297 120.339,31.9557 120.537,31.9557 L120.537,32.112 L118.302,32.112 L118.302,31.9557 C118.625,31.9349 118.823,31.862 118.896,31.737 C118.958,31.6432 118.99,31.4818 118.99,31.2526 L118.99,29.0964 C118.99,28.3985 118.766,28.0495 118.318,28.0495 C117.953,28.0495 117.63,28.1693 117.349,28.4089 C117.276,28.4818 117.208,28.5599 117.146,28.6432 L117.146,31.4401 C117.146,31.6901 117.235,31.8464 117.412,31.9089 C117.505,31.9401 117.641,31.9557 117.818,31.9557 L117.818,32.112 L115.599,32.112 L115.599,31.9557 C115.953,31.9557 116.167,31.8724 116.24,31.7057 C116.281,31.6016 116.302,31.4557 116.302,31.2682 L116.302,28.7526 C116.302,28.3776 116.224,28.1693 116.068,28.1276 C116.037,28.1172 116,28.112 115.958,28.112 C115.854,28.112 115.745,28.1276 115.63,28.1589 M123.755,31.1432 C123.755,30.6328 124.073,30.2005 124.708,29.8464 C124.896,29.7526 125.396,29.5391 126.208,29.2057 C126.229,29.2057 126.245,29.2005 126.255,29.1901 L126.255,28.5807 C126.203,28.0599 125.948,27.7839 125.49,27.7526 C125.177,27.7526 124.958,27.8516 124.833,28.0495 C124.792,28.1224 124.771,28.1849 124.771,28.237 C124.771,28.2995 124.781,28.3828 124.802,28.487 C124.813,28.5599 124.818,28.612 124.818,28.6432 C124.818,28.8203 124.729,28.9453 124.552,29.0182 C124.49,29.0495 124.432,29.0651 124.38,29.0651 C124.193,29.0651 124.063,28.9766 123.99,28.7995 C123.958,28.7474 123.943,28.6901 123.943,28.6276 C123.943,28.263 124.162,27.9662 124.599,27.737 C124.901,27.5912 125.245,27.5182 125.63,27.5182 C126.349,27.5182 126.792,27.7735 126.958,28.2839 C127.031,28.5026 127.068,28.7787 127.068,29.112 L127.068,31.0495 C127.068,31.3828 127.13,31.5703 127.255,31.612 C127.297,31.6224 127.333,31.6276 127.365,31.6276 C127.511,31.6172 127.656,31.5547 127.802,31.4401 L127.802,31.6901 C127.531,32.0026 127.281,32.1745 127.052,32.2057 C127,32.2057 126.948,32.2057 126.896,32.2057 C126.583,32.2057 126.386,32.0495 126.302,31.737 C126.281,31.6537 126.271,31.5599 126.271,31.4557 C125.677,31.9349 125.188,32.1849 124.802,32.2057 C124.375,32.2057 124.068,32.0339 123.88,31.6901 C123.797,31.5235 123.755,31.3412 123.755,31.1432 M126.255,30.862 L126.255,29.4245 C125.432,29.7266 124.927,30.0339 124.74,30.3464 C124.667,30.4922 124.63,30.6485 124.63,30.8151 C124.63,31.211 124.776,31.461 125.068,31.5651 C125.141,31.5964 125.208,31.612 125.271,31.612 C125.49,31.6016 125.729,31.5235 125.99,31.3776 C126.136,31.2943 126.219,31.1901 126.24,31.0651 C126.25,31.0026 126.255,30.9349 126.255,30.862 M128.974,28.1901 C128.974,28.1901 128.823,28.2005 128.521,28.2214 L128.521,28.0495 C129.063,27.8828 129.583,27.7057 130.083,27.5182 L130.13,27.5495 L130.13,32.112 C130.13,33.3412 129.719,34.0495 128.896,34.237 C128.75,34.2682 128.599,34.2839 128.443,34.2839 C128.005,34.2839 127.714,34.1745 127.568,33.9557 C127.526,33.8828 127.505,33.8099 127.505,33.737 C127.505,33.5495 127.594,33.4297 127.771,33.3776 C127.823,33.3568 127.87,33.3464 127.912,33.3464 C128.057,33.3464 128.214,33.4505 128.38,33.6589 C128.557,33.8464 128.703,33.9453 128.818,33.9557 C129.047,33.9557 129.188,33.7943 129.24,33.4714 C129.271,33.2735 129.287,32.9714 129.287,32.5651 L129.287,28.7682 C129.287,28.4141 129.208,28.2214 129.052,28.1901 C129.021,28.1901 128.995,28.1901 128.974,28.1901 M129.63,25.2839 C129.849,25.2839 130.005,25.3828 130.099,25.5807 C130.13,25.6537 130.146,25.7266 130.146,25.7995 C130.146,26.0182 130.037,26.1745 129.818,26.2682 C129.755,26.2891 129.693,26.2995 129.63,26.2995 C129.401,26.2995 129.245,26.2005 129.162,26.0026 C129.141,25.9297 129.13,25.862 129.13,25.7995 C129.13,25.5807 129.224,25.4245 129.412,25.3307 C129.485,25.2995 129.557,25.2839 129.63,25.2839 M132.958,27.5182 C133.698,27.5182 134.281,27.7891 134.708,28.3307 C135.011,28.737 135.162,29.2162 135.162,29.7682 C135.162,30.5495 134.906,31.1745 134.396,31.6432 C133.979,32.0182 133.495,32.2057 132.943,32.2057 C132.235,32.2057 131.672,31.9349 131.255,31.3932 C130.922,30.9557 130.755,30.4401 130.755,29.8464 C130.755,29.0339 131.031,28.4089 131.583,27.9714 C131.969,27.6693 132.427,27.5182 132.958,27.5182 M131.662,29.362 C131.662,30.2682 131.849,30.961 132.224,31.4401 C132.464,31.7526 132.745,31.9089 133.068,31.9089 C133.589,31.9089 133.948,31.612 134.146,31.0182 C134.229,30.7578 134.271,30.461 134.271,30.1276 C134.271,29.2422 134.057,28.586 133.63,28.1589 C133.401,27.9297 133.136,27.8151 132.833,27.8151 C132.365,27.8151 132.026,28.0547 131.818,28.5339 C131.714,28.7735 131.662,29.0495 131.662,29.362 M138.521,28.487 C138.417,28.487 138.266,28.4037 138.068,28.237 C137.974,28.1537 137.901,28.112 137.849,28.112 C137.682,28.112 137.511,28.2422 137.333,28.5026 C137.219,28.6693 137.162,28.8151 137.162,28.9401 L137.162,31.2057 C137.162,31.5495 137.25,31.763 137.427,31.8464 C137.552,31.9089 137.745,31.9453 138.005,31.9557 L138.005,32.112 L135.599,32.112 L135.599,31.9557 C135.953,31.8932 136.167,31.8099 136.24,31.7057 C136.292,31.6224 136.318,31.4766 136.318,31.2682 L136.318,28.7526 C136.318,28.388 136.235,28.1901 136.068,28.1589 C136.037,28.1485 136.005,28.1432 135.974,28.1432 C135.86,28.1432 135.745,28.1589 135.63,28.1901 L135.63,28.0339 C136.162,27.8672 136.651,27.6953 137.099,27.5182 L137.162,27.5339 L137.162,28.4245 C137.505,27.9453 137.797,27.6589 138.037,27.5651 C138.141,27.5339 138.245,27.5182 138.349,27.5182 C138.662,27.5182 138.844,27.6485 138.896,27.9089 C138.896,27.9505 138.896,27.9974 138.896,28.0495 C138.865,28.3203 138.74,28.4662 138.521,28.487 M141.755,31.1432 C141.755,30.6328 142.073,30.2005 142.708,29.8464 C142.896,29.7526 143.396,29.5391 144.208,29.2057 C144.229,29.2057 144.245,29.2005 144.255,29.1901 L144.255,28.5807 C144.203,28.0599 143.948,27.7839 143.49,27.7526 C143.177,27.7526 142.958,27.8516 142.833,28.0495 C142.792,28.1224 142.771,28.1849 142.771,28.237 C142.771,28.2995 142.781,28.3828 142.802,28.487 C142.813,28.5599 142.818,28.612 142.818,28.6432 C142.818,28.8203 142.729,28.9453 142.552,29.0182 C142.49,29.0495 142.432,29.0651 142.38,29.0651 C142.193,29.0651 142.063,28.9766 141.99,28.7995 C141.958,28.7474 141.943,28.6901 141.943,28.6276 C141.943,28.263 142.162,27.9662 142.599,27.737 C142.901,27.5912 143.245,27.5182 143.63,27.5182 C144.349,27.5182 144.792,27.7735 144.958,28.2839 C145.031,28.5026 145.068,28.7787 145.068,29.112 L145.068,31.0495 C145.068,31.3828 145.13,31.5703 145.255,31.612 C145.297,31.6224 145.333,31.6276 145.365,31.6276 C145.511,31.6172 145.656,31.5547 145.802,31.4401 L145.802,31.6901 C145.531,32.0026 145.281,32.1745 145.052,32.2057 C145,32.2057 144.948,32.2057 144.896,32.2057 C144.583,32.2057 144.386,32.0495 144.302,31.737 C144.281,31.6537 144.271,31.5599 144.271,31.4557 C143.677,31.9349 143.188,32.1849 142.802,32.2057 C142.375,32.2057 142.068,32.0339 141.88,31.6901 C141.797,31.5235 141.755,31.3412 141.755,31.1432 M144.255,30.862 L144.255,29.4245 C143.432,29.7266 142.927,30.0339 142.74,30.3464 C142.667,30.4922 142.63,30.6485 142.63,30.8151 C142.63,31.211 142.776,31.461 143.068,31.5651 C143.141,31.5964 143.208,31.612 143.271,31.612 C143.49,31.6016 143.729,31.5235 143.99,31.3776 C144.136,31.2943 144.219,31.1901 144.24,31.0651 C144.25,31.0026 144.255,30.9349 144.255,30.862 M148.521,28.487 C148.417,28.487 148.266,28.4037 148.068,28.237 C147.974,28.1537 147.901,28.112 147.849,28.112 C147.682,28.112 147.511,28.2422 147.333,28.5026 C147.219,28.6693 147.162,28.8151 147.162,28.9401 L147.162,31.2057 C147.162,31.5495 147.25,31.763 147.427,31.8464 C147.552,31.9089 147.745,31.9453 148.005,31.9557 L148.005,32.112 L145.599,32.112 L145.599,31.9557 C145.953,31.8932 146.167,31.8099 146.24,31.7057 C146.292,31.6224 146.318,31.4766 146.318,31.2682 L146.318,28.7526 C146.318,28.388 146.235,28.1901 146.068,28.1589 C146.037,28.1485 146.005,28.1432 145.974,28.1432 C145.86,28.1432 145.745,28.1589 145.63,28.1901 L145.63,28.0339 C146.162,27.8672 146.651,27.6953 147.099,27.5182 L147.162,27.5339 L147.162,28.4245 C147.505,27.9453 147.797,27.6589 148.037,27.5651 C148.141,27.5339 148.245,27.5182 148.349,27.5182 C148.662,27.5182 148.844,27.6485 148.896,27.9089 C148.896,27.9505 148.896,27.9974 148.896,28.0495 C148.865,28.3203 148.74,28.4662 148.521,28.487 M148.646,28.1901 L148.646,28.0182 C149.073,27.8932 149.552,27.7266 150.083,27.5182 L150.146,27.5339 L150.146,28.2995 C150.573,27.7787 151.052,27.5182 151.583,27.5182 C152.146,27.5182 152.589,27.7787 152.912,28.2995 C153.141,28.6849 153.255,29.1328 153.255,29.6432 C153.255,30.4557 153.005,31.1172 152.505,31.6276 C152.12,32.013 151.672,32.2057 151.162,32.2057 C150.828,32.2057 150.537,32.1068 150.287,31.9089 C150.235,31.8776 150.188,31.8412 150.146,31.7995 L150.146,33.362 C150.146,33.7057 150.214,33.9141 150.349,33.987 C150.474,34.0599 150.698,34.0964 151.021,34.0964 L151.021,34.2839 L148.599,34.2839 L148.599,34.112 C148.953,34.0807 149.167,33.9974 149.24,33.862 C149.281,33.7682 149.302,33.6224 149.302,33.4245 L149.302,28.737 C149.302,28.4453 149.25,28.2735 149.146,28.2214 C149.083,28.1901 149,28.1745 148.896,28.1745 C148.781,28.1745 148.698,28.1797 148.646,28.1901 M150.146,28.7839 L150.146,31.2526 C150.146,31.4297 150.292,31.5964 150.583,31.7526 C150.792,31.8568 150.99,31.9089 151.177,31.9089 C151.636,31.9089 151.974,31.6537 152.193,31.1432 C152.328,30.8203 152.396,30.4557 152.396,30.0495 C152.396,29.2266 152.188,28.6537 151.771,28.3307 C151.594,28.1849 151.391,28.112 151.162,28.112 C150.86,28.112 150.589,28.2214 150.349,28.4401 C150.224,28.5547 150.156,28.6693 150.146,28.7839 M154.474,29.3464 C154.516,30.5235 154.901,31.2162 155.63,31.4245 C155.755,31.4662 155.891,31.487 156.037,31.487 C156.526,31.487 156.943,31.2787 157.287,30.862 C157.38,30.7474 157.479,30.612 157.583,30.4557 L157.74,30.5182 C157.375,31.4766 156.802,32.0287 156.021,32.1745 C155.886,32.1953 155.755,32.2057 155.63,32.2057 C154.891,32.2057 154.36,31.8932 154.037,31.2682 C153.849,30.8932 153.755,30.461 153.755,29.9714 C153.755,29.086 154.031,28.4141 154.583,27.9557 C154.948,27.6641 155.37,27.5182 155.849,27.5182 C156.766,27.5182 157.318,28.0391 157.505,29.0807 C157.526,29.1745 157.542,29.263 157.552,29.3464 L154.474,29.3464 M154.49,29.0495 L156.537,29.0495 C156.443,28.4766 156.276,28.1224 156.037,27.987 C155.912,27.9245 155.75,27.8932 155.552,27.8932 C154.958,27.8932 154.604,28.2682 154.49,29.0182 C154.49,29.0287 154.49,29.0391 154.49,29.0495 M158.099,31.5339 C158.099,31.3985 158.177,31.2526 158.333,31.0964 C158.427,31.0026 158.646,30.7995 158.99,30.487 C158.49,30.2266 158.193,29.8985 158.099,29.5026 C158.078,29.388 158.068,29.2682 158.068,29.1432 C158.068,28.612 158.281,28.1849 158.708,27.862 C159.011,27.6328 159.354,27.5182 159.74,27.5182 C159.99,27.5182 160.297,27.586 160.662,27.7214 C160.901,27.8047 161.115,27.8464 161.302,27.8464 L162.068,27.8464 L162.068,28.2214 L161.24,28.2214 C161.365,28.513 161.427,28.7943 161.427,29.0651 C161.427,29.638 161.203,30.0703 160.755,30.362 C160.485,30.5391 160.193,30.6276 159.88,30.6276 C159.787,30.6276 159.594,30.6068 159.302,30.5651 C159.104,30.6276 158.938,30.7682 158.802,30.987 C158.74,31.0703 158.708,31.1432 158.708,31.2057 C158.708,31.362 158.958,31.4505 159.458,31.4714 C159.469,31.4714 159.479,31.4714 159.49,31.4714 L160.771,31.5339 C161.323,31.5443 161.693,31.7474 161.88,32.1432 C161.953,32.2787 161.99,32.4297 161.99,32.5964 C161.99,33.0964 161.677,33.5235 161.052,33.8776 C160.542,34.1485 159.985,34.2839 159.38,34.2839 C158.755,34.2839 158.271,34.1328 157.927,33.8307 C157.75,33.6641 157.662,33.487 157.662,33.2995 C157.662,33.0078 157.875,32.6797 158.302,32.3151 C158.406,32.2318 158.516,32.1432 158.63,32.0495 C158.328,31.9141 158.156,31.7787 158.115,31.6432 C158.104,31.612 158.099,31.5755 158.099,31.5339 M158.849,32.0807 C158.547,32.4557 158.386,32.7162 158.365,32.862 C158.354,32.9037 158.349,32.9453 158.349,32.987 C158.349,33.2891 158.573,33.5078 159.021,33.6432 C159.25,33.7162 159.516,33.7526 159.818,33.7526 C160.651,33.7526 161.219,33.5703 161.521,33.2057 C161.646,33.0495 161.708,32.888 161.708,32.7214 C161.708,32.4714 161.542,32.3151 161.208,32.2526 C161.021,32.2214 160.771,32.2057 160.458,32.2057 C159.792,32.2057 159.255,32.1641 158.849,32.0807 M160.662,29.4714 C160.662,29.0443 160.573,28.6641 160.396,28.3307 C160.198,27.9974 159.943,27.8255 159.63,27.8151 C159.255,27.8151 159.021,28.013 158.927,28.4089 C158.906,28.513 158.896,28.6276 158.896,28.7526 C158.896,29.5547 159.12,30.0651 159.568,30.2839 C159.682,30.3464 159.797,30.3776 159.912,30.3776 C160.276,30.3776 160.511,30.1953 160.615,29.8307 C160.646,29.7162 160.662,29.5964 160.662,29.4714 M163.099,31.5339 C163.099,31.3985 163.177,31.2526 163.333,31.0964 C163.427,31.0026 163.646,30.7995 163.99,30.487 C163.49,30.2266 163.193,29.8985 163.099,29.5026 C163.078,29.388 163.068,29.2682 163.068,29.1432 C163.068,28.612 163.281,28.1849 163.708,27.862 C164.011,27.6328 164.354,27.5182 164.74,27.5182 C164.99,27.5182 165.297,27.586 165.662,27.7214 C165.901,27.8047 166.115,27.8464 166.302,27.8464 L167.068,27.8464 L167.068,28.2214 L166.24,28.2214 C166.365,28.513 166.427,28.7943 166.427,29.0651 C166.427,29.638 166.203,30.0703 165.755,30.362 C165.485,30.5391 165.193,30.6276 164.88,30.6276 C164.787,30.6276 164.594,30.6068 164.302,30.5651 C164.104,30.6276 163.938,30.7682 163.802,30.987 C163.74,31.0703 163.708,31.1432 163.708,31.2057 C163.708,31.362 163.958,31.4505 164.458,31.4714 C164.469,31.4714 164.479,31.4714 164.49,31.4714 L165.771,31.5339 C166.323,31.5443 166.693,31.7474 166.88,32.1432 C166.953,32.2787 166.99,32.4297 166.99,32.5964 C166.99,33.0964 166.677,33.5235 166.052,33.8776 C165.542,34.1485 164.985,34.2839 164.38,34.2839 C163.755,34.2839 163.271,34.1328 162.927,33.8307 C162.75,33.6641 162.662,33.487 162.662,33.2995 C162.662,33.0078 162.875,32.6797 163.302,32.3151 C163.406,32.2318 163.516,32.1432 163.63,32.0495 C163.328,31.9141 163.156,31.7787 163.115,31.6432 C163.104,31.612 163.099,31.5755 163.099,31.5339 M163.849,32.0807 C163.547,32.4557 163.386,32.7162 163.365,32.862 C163.354,32.9037 163.349,32.9453 163.349,32.987 C163.349,33.2891 163.573,33.5078 164.021,33.6432 C164.25,33.7162 164.516,33.7526 164.818,33.7526 C165.651,33.7526 166.219,33.5703 166.521,33.2057 C166.646,33.0495 166.708,32.888 166.708,32.7214 C166.708,32.4714 166.542,32.3151 166.208,32.2526 C166.021,32.2214 165.771,32.2057 165.458,32.2057 C164.792,32.2057 164.255,32.1641 163.849,32.0807 M165.662,29.4714 C165.662,29.0443 165.573,28.6641 165.396,28.3307 C165.198,27.9974 164.943,27.8255 164.63,27.8151 C164.255,27.8151 164.021,28.013 163.927,28.4089 C163.906,28.513 163.896,28.6276 163.896,28.7526 C163.896,29.5547 164.12,30.0651 164.568,30.2839 C164.682,30.3464 164.797,30.3776 164.912,30.3776 C165.276,30.3776 165.511,30.1953 165.615,29.8307 C165.646,29.7162 165.662,29.5964 165.662,29.4714 M168.13,28.1901 C167.974,28.1901 167.833,28.2005 167.708,28.2214 L167.708,28.0651 C168.177,27.9297 168.693,27.7474 169.255,27.5182 L169.287,27.5495 L169.287,31.0964 C169.287,31.4818 169.344,31.7214 169.458,31.8151 C169.552,31.888 169.745,31.9349 170.037,31.9557 L170.037,32.112 L167.662,32.112 L167.662,31.9557 C168.026,31.9349 168.255,31.8672 168.349,31.7526 C168.422,31.638 168.458,31.4193 168.458,31.0964 L168.458,28.7682 C168.458,28.4141 168.375,28.2214 168.208,28.1901 C168.177,28.1901 168.151,28.1901 168.13,28.1901 M168.787,25.2839 C169.005,25.2839 169.162,25.3828 169.255,25.5807 C169.287,25.6537 169.302,25.7266 169.302,25.7995 C169.302,26.0182 169.198,26.1745 168.99,26.2682 C168.917,26.2891 168.849,26.2995 168.787,26.2995 C168.568,26.2995 168.412,26.2005 168.318,26.0026 C168.297,25.9297 168.287,25.862 168.287,25.7995 C168.287,25.5807 168.38,25.4245 168.568,25.3307 C168.641,25.2995 168.714,25.2839 168.787,25.2839 M172.958,27.5182 C173.698,27.5182 174.281,27.7891 174.708,28.3307 C175.011,28.737 175.162,29.2162 175.162,29.7682 C175.162,30.5495 174.906,31.1745 174.396,31.6432 C173.979,32.0182 173.495,32.2057 172.943,32.2057 C172.235,32.2057 171.672,31.9349 171.255,31.3932 C170.922,30.9557 170.755,30.4401 170.755,29.8464 C170.755,29.0339 171.031,28.4089 171.583,27.9714 C171.969,27.6693 172.427,27.5182 172.958,27.5182 M171.662,29.362 C171.662,30.2682 171.849,30.961 172.224,31.4401 C172.464,31.7526 172.745,31.9089 173.068,31.9089 C173.589,31.9089 173.948,31.612 174.146,31.0182 C174.229,30.7578 174.271,30.461 174.271,30.1276 C174.271,29.2422 174.057,28.586 173.63,28.1589 C173.401,27.9297 173.136,27.8151 172.833,27.8151 C172.365,27.8151 172.026,28.0547 171.818,28.5339 C171.714,28.7735 171.662,29.0495 171.662,29.362 M180.958,27.5182 C181.698,27.5182 182.281,27.7891 182.708,28.3307 C183.011,28.737 183.162,29.2162 183.162,29.7682 C183.162,30.5495 182.906,31.1745 182.396,31.6432 C181.979,32.0182 181.495,32.2057 180.943,32.2057 C180.235,32.2057 179.672,31.9349 179.255,31.3932 C178.922,30.9557 178.755,30.4401 178.755,29.8464 C178.755,29.0339 179.031,28.4089 179.583,27.9714 C179.969,27.6693 180.427,27.5182 180.958,27.5182 M179.662,29.362 C179.662,30.2682 179.849,30.961 180.224,31.4401 C180.464,31.7526 180.745,31.9089 181.068,31.9089 C181.589,31.9089 181.948,31.612 182.146,31.0182 C182.229,30.7578 182.271,30.461 182.271,30.1276 C182.271,29.2422 182.057,28.586 181.63,28.1589 C181.401,27.9297 181.136,27.8151 180.833,27.8151 C180.365,27.8151 180.026,28.0547 179.818,28.5339 C179.714,28.7735 179.662,29.0495 179.662,29.362 M183.599,28.1276 L183.599,27.9557 C184.099,27.8099 184.563,27.6641 184.99,27.5182 L185.052,27.5339 L185.052,28.3151 C185.531,27.8776 185.906,27.6224 186.177,27.5495 C186.281,27.5287 186.391,27.5182 186.505,27.5182 C187.047,27.5182 187.406,27.7891 187.583,28.3307 C187.646,28.5287 187.677,28.7526 187.677,29.0026 L187.677,31.2995 C187.677,31.612 187.75,31.8047 187.896,31.8776 C187.99,31.9089 188.12,31.9349 188.287,31.9557 L188.287,32.112 L186.208,32.112 L186.208,31.9557 C186.511,31.9349 186.698,31.836 186.771,31.6589 C186.823,31.5443 186.849,31.3672 186.849,31.1276 L186.849,29.0339 C186.828,28.388 186.583,28.0599 186.115,28.0495 C185.865,28.0495 185.604,28.1641 185.333,28.3932 C185.261,28.4662 185.177,28.5443 185.083,28.6276 L185.083,31.4401 C185.083,31.6797 185.182,31.836 185.38,31.9089 C185.474,31.9297 185.594,31.9453 185.74,31.9557 L185.74,32.112 L183.63,32.112 L183.63,31.9557 C183.922,31.9349 184.104,31.8516 184.177,31.7057 C184.219,31.5912 184.24,31.4245 184.24,31.2057 L184.24,28.7214 C184.24,28.3568 184.167,28.1537 184.021,28.112 C183.979,28.0912 183.932,28.0807 183.88,28.0807 C183.755,28.0807 183.662,28.0964 183.599,28.1276 M189.474,29.3464 C189.516,30.5235 189.901,31.2162 190.63,31.4245 C190.755,31.4662 190.891,31.487 191.037,31.487 C191.526,31.487 191.943,31.2787 192.287,30.862 C192.38,30.7474 192.479,30.612 192.583,30.4557 L192.74,30.5182 C192.375,31.4766 191.802,32.0287 191.021,32.1745 C190.886,32.1953 190.755,32.2057 190.63,32.2057 C189.891,32.2057 189.36,31.8932 189.037,31.2682 C188.849,30.8932 188.755,30.461 188.755,29.9714 C188.755,29.086 189.031,28.4141 189.583,27.9557 C189.948,27.6641 190.37,27.5182 190.849,27.5182 C191.766,27.5182 192.318,28.0391 192.505,29.0807 C192.526,29.1745 192.542,29.263 192.552,29.3464 L189.474,29.3464 M189.49,29.0495 L191.537,29.0495 C191.443,28.4766 191.276,28.1224 191.037,27.987 C190.912,27.9245 190.75,27.8932 190.552,27.8932 C189.958,27.8932 189.604,28.2682 189.49,29.0182 C189.49,29.0287 189.49,29.0391 189.49,29.0495 M197.958,27.5182 C198.698,27.5182 199.281,27.7891 199.708,28.3307 C200.011,28.737 200.162,29.2162 200.162,29.7682 C200.162,30.5495 199.906,31.1745 199.396,31.6432 C198.979,32.0182 198.495,32.2057 197.943,32.2057 C197.235,32.2057 196.672,31.9349 196.255,31.3932 C195.922,30.9557 195.755,30.4401 195.755,29.8464 C195.755,29.0339 196.031,28.4089 196.583,27.9714 C196.969,27.6693 197.427,27.5182 197.958,27.5182 M196.662,29.362 C196.662,30.2682 196.849,30.961 197.224,31.4401 C197.464,31.7526 197.745,31.9089 198.068,31.9089 C198.589,31.9089 198.948,31.612 199.146,31.0182 C199.229,30.7578 199.271,30.461 199.271,30.1276 C199.271,29.2422 199.057,28.586 198.63,28.1589 C198.401,27.9297 198.136,27.8151 197.833,27.8151 C197.365,27.8151 197.026,28.0547 196.818,28.5339 C196.714,28.7735 196.662,29.0495 196.662,29.362 M200.755,29.987 C200.755,29.1432 201.042,28.4818 201.615,28.0026 C202.011,27.6797 202.453,27.5182 202.943,27.5182 C203.495,27.5182 203.922,27.6693 204.224,27.9714 C204.401,28.1485 204.49,28.3412 204.49,28.5495 C204.49,28.7266 204.396,28.8516 204.208,28.9245 C204.136,28.9557 204.068,28.9714 204.005,28.9714 C203.797,28.9714 203.646,28.836 203.552,28.5651 C203.542,28.5443 203.537,28.5235 203.537,28.5026 L203.474,28.2839 C203.412,28.0339 203.297,27.888 203.13,27.8464 C203.057,27.8255 202.974,27.8151 202.88,27.8151 C202.38,27.8151 202,28.0547 201.74,28.5339 C201.594,28.8255 201.521,29.1641 201.521,29.5495 C201.521,30.2787 201.745,30.8255 202.193,31.1901 C202.453,31.388 202.745,31.487 203.068,31.487 C203.485,31.487 203.844,31.3203 204.146,30.987 C204.25,30.862 204.365,30.7162 204.49,30.5495 L204.63,30.6432 C204.255,31.362 203.839,31.8307 203.38,32.0495 C203.141,32.1537 202.901,32.2057 202.662,32.2057 C202.016,32.2057 201.511,31.9401 201.146,31.4089 C200.886,31.0026 200.755,30.5287 200.755,29.987 M207.099,27.612 L207.099,27.9089 L206.083,27.9089 L206.083,30.7682 C206.083,31.3099 206.219,31.6068 206.49,31.6589 C206.521,31.6693 206.557,31.6745 206.599,31.6745 C206.807,31.6641 207.011,31.5443 207.208,31.3151 L207.333,31.4401 C207.011,31.9505 206.61,32.2057 206.13,32.2057 C205.547,32.1953 205.25,31.7735 205.24,30.9401 L205.24,27.9089 L204.708,27.9089 C204.688,27.888 204.677,27.8672 204.677,27.8464 C204.677,27.8047 204.719,27.763 204.802,27.7214 C205.083,27.5339 205.417,27.1693 205.802,26.6276 C205.813,26.6172 205.818,26.612 205.818,26.612 C205.922,26.4557 205.99,26.362 206.021,26.3307 C206.063,26.3412 206.083,26.3828 206.083,26.4557 L206.083,27.612 L207.099,27.612 M207.755,31.1432 C207.755,30.6328 208.073,30.2005 208.708,29.8464 C208.896,29.7526 209.396,29.5391 210.208,29.2057 C210.229,29.2057 210.245,29.2005 210.255,29.1901 L210.255,28.5807 C210.203,28.0599 209.948,27.7839 209.49,27.7526 C209.177,27.7526 208.958,27.8516 208.833,28.0495 C208.792,28.1224 208.771,28.1849 208.771,28.237 C208.771,28.2995 208.781,28.3828 208.802,28.487 C208.813,28.5599 208.818,28.612 208.818,28.6432 C208.818,28.8203 208.729,28.9453 208.552,29.0182 C208.49,29.0495 208.432,29.0651 208.38,29.0651 C208.193,29.0651 208.063,28.9766 207.99,28.7995 C207.958,28.7474 207.943,28.6901 207.943,28.6276 C207.943,28.263 208.162,27.9662 208.599,27.737 C208.901,27.5912 209.245,27.5182 209.63,27.5182 C210.349,27.5182 210.792,27.7735 210.958,28.2839 C211.031,28.5026 211.068,28.7787 211.068,29.112 L211.068,31.0495 C211.068,31.3828 211.13,31.5703 211.255,31.612 C211.297,31.6224 211.333,31.6276 211.365,31.6276 C211.511,31.6172 211.656,31.5547 211.802,31.4401 L211.802,31.6901 C211.531,32.0026 211.281,32.1745 211.052,32.2057 C211,32.2057 210.948,32.2057 210.896,32.2057 C210.583,32.2057 210.386,32.0495 210.302,31.737 C210.281,31.6537 210.271,31.5599 210.271,31.4557 C209.677,31.9349 209.188,32.1849 208.802,32.2057 C208.375,32.2057 208.068,32.0339 207.88,31.6901 C207.797,31.5235 207.755,31.3412 207.755,31.1432 M210.255,30.862 L210.255,29.4245 C209.432,29.7266 208.927,30.0339 208.74,30.3464 C208.667,30.4922 208.63,30.6485 208.63,30.8151 C208.63,31.211 208.776,31.461 209.068,31.5651 C209.141,31.5964 209.208,31.612 209.271,31.612 C209.49,31.6016 209.729,31.5235 209.99,31.3776 C210.136,31.2943 210.219,31.1901 210.24,31.0651 C210.25,31.0026 210.255,30.9349 210.255,30.862 M216.13,27.612 L216.13,27.7682 C215.964,27.7891 215.839,27.8568 215.755,27.9714 C215.682,28.0755 215.594,28.2682 215.49,28.5495 L214.208,31.7526 C214.073,32.0755 213.979,32.2422 213.927,32.2526 C213.854,32.2526 213.771,32.1068 213.677,31.8151 C213.667,31.8047 213.662,31.7943 213.662,31.7839 L212.458,28.9089 C212.208,28.3151 212.021,27.9662 211.896,27.862 C211.813,27.7995 211.698,27.7682 211.552,27.7682 L211.552,27.612 L213.521,27.612 L213.521,27.7682 C213.24,27.7891 213.089,27.862 213.068,27.987 C213.057,28.0078 213.052,28.0287 213.052,28.0495 C213.052,28.1641 213.083,28.2839 213.146,28.4089 L214.162,30.9714 L215.146,28.3776 C215.188,28.2839 215.208,28.1849 215.208,28.0807 C215.208,27.9037 215.063,27.7995 214.771,27.7682 C214.761,27.7682 214.75,27.7682 214.74,27.7682 L214.74,27.612 L216.13,27.612 M217.474,29.3464 C217.516,30.5235 217.901,31.2162 218.63,31.4245 C218.755,31.4662 218.891,31.487 219.037,31.487 C219.526,31.487 219.943,31.2787 220.287,30.862 C220.38,30.7474 220.479,30.612 220.583,30.4557 L220.74,30.5182 C220.375,31.4766 219.802,32.0287 219.021,32.1745 C218.886,32.1953 218.755,32.2057 218.63,32.2057 C217.891,32.2057 217.36,31.8932 217.037,31.2682 C216.849,30.8932 216.755,30.461 216.755,29.9714 C216.755,29.086 217.031,28.4141 217.583,27.9557 C217.948,27.6641 218.37,27.5182 218.849,27.5182 C219.766,27.5182 220.318,28.0391 220.505,29.0807 C220.526,29.1745 220.542,29.263 220.552,29.3464 L217.474,29.3464 M217.49,29.0495 L219.537,29.0495 C219.443,28.4766 219.276,28.1224 219.037,27.987 C218.912,27.9245 218.75,27.8932 218.552,27.8932 C217.958,27.8932 217.604,28.2682 217.49,29.0182 C217.49,29.0287 217.49,29.0391 217.49,29.0495"/>
</svg>
