<?xml version="1.0" encoding="UTF-8" standalone="no"?>
<svg width="595.44px" height="841.68px" viewBox="0 0 595.44 841.68"
 xmlns="http://www.w3.org/2000/svg" xmlns:xlink="http://www.w3.org/1999/xlink" version="1.2" baseProfile="tiny">
<title>Guitar Scales and Arpeggios</title>
<desc>Generated by MuseScore 2.1.0</desc>
<polyline class="StaffLines" fill="none" stroke="#000000" stroke-width="0.40" stroke-linejoin="bevel" points="28.08,62.856 567.36,62.856"/>
<polyline class="StaffLines" fill="none" stroke="#000000" stroke-width="0.40" stroke-linejoin="bevel" points="28.08,67.824 567.36,67.824"/>
<polyline class="StaffLines" fill="none" stroke="#000000" stroke-width="0.40" stroke-linejoin="bevel" points="28.08,72.792 567.36,72.792"/>
<polyline class="StaffLines" fill="none" stroke="#000000" stroke-width="0.40" stroke-linejoin="bevel" points="28.08,77.76 567.36,77.76"/>
<polyline class="StaffLines" fill="none" stroke="#000000" stroke-width="0.40" stroke-linejoin="bevel" points="28.08,82.728 567.36,82.728"/>
<polyline class="StaffLines" fill="none" stroke="#000000" stroke-width="0.40" stroke-linejoin="bevel" points="28.08,115.02 567.36,115.02"/>
<polyline class="StaffLines" fill="none" stroke="#000000" stroke-width="0.40" stroke-linejoin="bevel" points="28.08,122.472 567.36,122.472"/>
<polyline class="StaffLines" fill="none" stroke="#000000" stroke-width="0.40" stroke-linejoin="bevel" points="28.08,129.924 567.36,129.924"/>
<polyline class="StaffLines" fill="none" stroke="#000000" stroke-width="0.40" stroke-linejoin="bevel" points="28.08,137.376 567.36,137.376"/>
<polyline class="StaffLines" fill="none" stroke="#000000" stroke-width="0.40" stroke-linejoin="bevel" points="28.08,144.828 567.36,144.828"/>
<polyline class="StaffLines" fill="none" stroke="#000000" stroke-width="0.40" stroke-linejoin="bevel" points="28.08,152.28 567.36,152.28"/>
<polyline class="BarLine" fill="none" stroke="#000000" stroke-width="0.79" stroke-linejoin="bevel" points="28.4774,62.856 28.4774,152.28"/>
<polyline class="BarLine" fill="none" stroke="#000000" stroke-width="0.79" stroke-linejoin="bevel" points="562.491,115.02 562.491,152.28"/>
<polyline class="BarLine" fill="none" stroke="#000000" stroke-width="2.48" stroke-linejoin="bevel" points="566.118,115.02 566.118,152.28"/>
<polyline class="BarLine" fill="none" stroke="#000000" stroke-width="0.79" stroke-linejoin="bevel" points="562.491,62.856 562.491,82.728"/>
<polyline class="BarLine" fill="none" stroke="#000000" stroke-width="2.48" stroke-linejoin="bevel" points="566.118,62.856 566.118,82.728"/>
<polyline class="Stem" fill="none" stroke="#000000" stroke-width="0.65" stroke-linecap="round" stroke-linejoin="bevel" points="464.146,76.9969 464.146,60.993"/>
<polyline class="Stem" fill="none" stroke="#000000" stroke-width="0.65" stroke-linecap="round" stroke-linejoin="bevel" points="392.856,73.7251 392.856,88.317"/>
<polyline class="Stem" fill="none" stroke="#000000" stroke-width="0.65" stroke-linecap="round" stroke-linejoin="bevel" points="327.641,68.7571 327.641,84.591"/>
<polyline class="Stem" fill="none" stroke="#000000" stroke-width="0.65" stroke-linecap="round" stroke-linejoin="bevel" points="262.425,61.3051 262.425,77.76"/>
<polyline class="Stem" fill="none" stroke="#000000" stroke-width="0.65" stroke-linecap="round" stroke-linejoin="bevel" points="197.21,68.7571 197.21,84.591"/>
<polyline class="Stem" fill="none" stroke="#000000" stroke-width="0.65" stroke-linecap="round" stroke-linejoin="bevel" points="131.994,73.7251 131.994,88.317"/>
<polyline class="Stem" fill="none" stroke="#000000" stroke-width="0.65" stroke-linecap="round" stroke-linejoin="bevel" points="72.6732,76.8269 72.6732,60.993"/>
<path class="Note" fill="#ffffff" fill-rule="evenodd" d="M458.494,126.198 L464.456,126.198 L464.456,133.65 L458.494,133.65 L458.494,126.198 "/>
<path class="Note" transform="matrix(0.9936,0,0,0.9936,458.991,133.402)" d="M0.390625,-3.09375 C0.390625,-5 0.927083,-6.07813 2,-6.32813 C2.14583,-6.36979 2.30208,-6.39063 2.46875,-6.39063 C3.78125,-6.39063 4.47917,-5.40104 4.5625,-3.42188 C4.5625,-3.28646 4.5625,-3.15625 4.5625,-3.03125 C4.5625,-1.40625 4.15104,-0.385417 3.32813,0.03125 C3.06771,0.145833 2.78125,0.203125 2.46875,0.203125 C1.41667,0.203125 0.760417,-0.442708 0.5,-1.73438 C0.427083,-2.14063 0.390625,-2.59375 0.390625,-3.09375 M2.46875,-5.64063 C1.625,-5.63021 1.20313,-4.77083 1.20313,-3.0625 C1.20313,-1.32292 1.61979,-0.453125 2.45313,-0.453125 C3.16146,-0.453125 3.57813,-1.02604 3.70313,-2.17188 C3.73438,-2.44271 3.75,-2.75 3.75,-3.09375 C3.75,-4.79167 3.32292,-5.64063 2.46875,-5.64063"/>
<path class="Note" fill="#99cc33" transform="matrix(0.9936,0,0,0.9936,457.57,77.76)" d="M6.3125,-1.3125 C6.3125,-1.53125 6.22917,-1.71875 6.0625,-1.875 C5.88542,-2.04167 5.6875,-2.125 5.46875,-2.125 C5.08333,-2.125 4.29688,-1.73438 3.10938,-0.953125 C1.88021,-0.161458 1.13021,0.40625 0.859375,0.75 C0.713542,0.927083 0.640625,1.11458 0.640625,1.3125 C0.640625,1.53125 0.729167,1.71875 0.90625,1.875 C1.0625,2.04167 1.25521,2.125 1.48438,2.125 C1.85938,2.125 2.65625,1.73438 3.875,0.953125 C5.07292,0.171875 5.8125,-0.395833 6.09375,-0.75 C6.23958,-0.916667 6.3125,-1.10417 6.3125,-1.3125 M5.28125,-2.75 C6.39583,-2.75 6.95313,-2.27083 6.95313,-1.3125 C6.95313,-0.84375 6.81771,-0.296875 6.54688,0.328125 C6.27604,0.942708 5.91146,1.41146 5.45313,1.73438 C4.45313,2.41146 3.19792,2.75 1.6875,2.75 C0.5625,2.75 0,2.27083 0,1.3125 C0,0.885417 0.135417,0.34375 0.40625,-0.3125 C0.666667,-0.9375 1.03125,-1.41146 1.5,-1.73438 C2.51042,-2.41146 3.77083,-2.75 5.28125,-2.75"/>
<path class="Note" fill="#ffffff" fill-rule="evenodd" d="M393.279,118.746 L399.24,118.746 L399.24,126.198 L393.279,126.198 L393.279,118.746 "/>
<path class="Note" transform="matrix(0.9936,0,0,0.9936,393.775,125.95)" d="M0.390625,-3.09375 C0.390625,-5 0.927083,-6.07813 2,-6.32813 C2.14583,-6.36979 2.30208,-6.39063 2.46875,-6.39063 C3.78125,-6.39063 4.47917,-5.40104 4.5625,-3.42188 C4.5625,-3.28646 4.5625,-3.15625 4.5625,-3.03125 C4.5625,-1.40625 4.15104,-0.385417 3.32813,0.03125 C3.06771,0.145833 2.78125,0.203125 2.46875,0.203125 C1.41667,0.203125 0.760417,-0.442708 0.5,-1.73438 C0.427083,-2.14063 0.390625,-2.59375 0.390625,-3.09375 M2.46875,-5.64063 C1.625,-5.63021 1.20313,-4.77083 1.20313,-3.0625 C1.20313,-1.32292 1.61979,-0.453125 2.45313,-0.453125 C3.16146,-0.453125 3.57813,-1.02604 3.70313,-2.17188 C3.73438,-2.44271 3.75,-2.75 3.75,-3.09375 C3.75,-4.79167 3.32292,-5.64063 2.46875,-5.64063"/>
<path class="Note" fill="#ff9ee6" transform="matrix(0.9936,0,0,0.9936,392.533,72.792)" d="M4.39063,-2.75 C5.01563,-2.75 5.54688,-2.58854 5.98438,-2.26563 C6.38021,-1.91146 6.57813,-1.46875 6.57813,-0.9375 C6.57813,-0.0416667 6.11979,0.796875 5.20313,1.57813 C4.26563,2.35938 3.26042,2.75 2.1875,2.75 C1.5625,2.75 1.03646,2.58854 0.609375,2.26563 C0.203125,1.91146 0,1.46875 0,0.9375 C0,0.0416667 0.46875,-0.796875 1.40625,-1.57813 C2.32292,-2.35938 3.31771,-2.75 4.39063,-2.75"/>
<path class="Note" fill="#ffffff" fill-rule="evenodd" d="M328.063,118.746 L334.025,118.746 L334.025,126.198 L328.063,126.198 L328.063,118.746 "/>
<path class="Note" transform="matrix(0.9936,0,0,0.9936,328.56,125.95)" d="M2.4375,-5.64063 C1.75,-5.64063 1.35417,-5.32813 1.25,-4.70313 C1.22917,-4.59896 1.21875,-4.47917 1.21875,-4.34375 L0.421875,-4.34375 C0.442708,-5.59375 1.01563,-6.27083 2.14063,-6.375 C2.23438,-6.38542 2.32813,-6.39063 2.42188,-6.39063 C3.26563,-6.39063 3.84375,-6.10938 4.15625,-5.54688 C4.29167,-5.28646 4.35938,-4.98438 4.35938,-4.64063 C4.35938,-4.00521 4.0625,-3.57292 3.46875,-3.34375 C4.03125,-3.14583 4.375,-2.81771 4.5,-2.35938 C4.54167,-2.19271 4.5625,-2.00521 4.5625,-1.79688 C4.5625,-1.05729 4.27604,-0.505208 3.70313,-0.140625 C3.33854,0.0885417 2.90104,0.203125 2.39063,0.203125 C1.21354,0.203125 0.526042,-0.348958 0.328125,-1.45313 C0.317708,-1.57813 0.302083,-1.71354 0.28125,-1.85938 L1.07813,-1.85938 C1.13021,-1.08854 1.46875,-0.65625 2.09375,-0.5625 C2.19792,-0.541667 2.30729,-0.53125 2.42188,-0.53125 C3.04688,-0.53125 3.45313,-0.765625 3.64063,-1.23438 C3.71354,-1.40104 3.75,-1.58854 3.75,-1.79688 C3.73958,-2.54688 3.29688,-2.92708 2.42188,-2.9375 L2.09375,-2.92188 L1.98438,-2.92188 L1.98438,-3.67188 C2.66146,-3.68229 3.10417,-3.77604 3.3125,-3.95313 C3.47917,-4.09896 3.5625,-4.31771 3.5625,-4.60938 C3.5625,-5.09896 3.34896,-5.41667 2.92188,-5.5625 C2.77604,-5.61458 2.61458,-5.64063 2.4375,-5.64063"/>
<path class="Note" fill="#78c7c7" transform="matrix(0.9936,0,0,0.9936,327.318,67.824)" d="M4.39063,-2.75 C5.01563,-2.75 5.54688,-2.58854 5.98438,-2.26563 C6.38021,-1.91146 6.57813,-1.46875 6.57813,-0.9375 C6.57813,-0.0416667 6.11979,0.796875 5.20313,1.57813 C4.26563,2.35938 3.26042,2.75 2.1875,2.75 C1.5625,2.75 1.03646,2.58854 0.609375,2.26563 C0.203125,1.91146 0,1.46875 0,0.9375 C0,0.0416667 0.46875,-0.796875 1.40625,-1.57813 C2.32292,-2.35938 3.31771,-2.75 4.39063,-2.75"/>
<path class="Note" fill="#ffffff" fill-rule="evenodd" d="M262.847,111.294 L268.809,111.294 L268.809,118.746 L262.847,118.746 L262.847,111.294 "/>
<path class="Note" transform="matrix(0.9936,0,0,0.9936,263.344,118.498)" d="M2.4375,-5.64063 C1.75,-5.64063 1.35417,-5.32813 1.25,-4.70313 C1.22917,-4.59896 1.21875,-4.47917 1.21875,-4.34375 L0.421875,-4.34375 C0.442708,-5.59375 1.01563,-6.27083 2.14063,-6.375 C2.23438,-6.38542 2.32813,-6.39063 2.42188,-6.39063 C3.26563,-6.39063 3.84375,-6.10938 4.15625,-5.54688 C4.29167,-5.28646 4.35938,-4.98438 4.35938,-4.64063 C4.35938,-4.00521 4.0625,-3.57292 3.46875,-3.34375 C4.03125,-3.14583 4.375,-2.81771 4.5,-2.35938 C4.54167,-2.19271 4.5625,-2.00521 4.5625,-1.79688 C4.5625,-1.05729 4.27604,-0.505208 3.70313,-0.140625 C3.33854,0.0885417 2.90104,0.203125 2.39063,0.203125 C1.21354,0.203125 0.526042,-0.348958 0.328125,-1.45313 C0.317708,-1.57813 0.302083,-1.71354 0.28125,-1.85938 L1.07813,-1.85938 C1.13021,-1.08854 1.46875,-0.65625 2.09375,-0.5625 C2.19792,-0.541667 2.30729,-0.53125 2.42188,-0.53125 C3.04688,-0.53125 3.45313,-0.765625 3.64063,-1.23438 C3.71354,-1.40104 3.75,-1.58854 3.75,-1.79688 C3.73958,-2.54688 3.29688,-2.92708 2.42188,-2.9375 L2.09375,-2.92188 L1.98438,-2.92188 L1.98438,-3.67188 C2.66146,-3.68229 3.10417,-3.77604 3.3125,-3.95313 C3.47917,-4.09896 3.5625,-4.31771 3.5625,-4.60938 C3.5625,-5.09896 3.34896,-5.41667 2.92188,-5.5625 C2.77604,-5.61458 2.61458,-5.64063 2.4375,-5.64063"/>
<path class="Note" fill="#99cc33" transform="matrix(0.9936,0,0,0.9936,262.102,60.372)" d="M4.39063,-2.75 C5.01563,-2.75 5.54688,-2.58854 5.98438,-2.26563 C6.38021,-1.91146 6.57813,-1.46875 6.57813,-0.9375 C6.57813,-0.0416667 6.11979,0.796875 5.20313,1.57813 C4.26563,2.35938 3.26042,2.75 2.1875,2.75 C1.5625,2.75 1.03646,2.58854 0.609375,2.26563 C0.203125,1.91146 0,1.46875 0,0.9375 C0,0.0416667 0.46875,-0.796875 1.40625,-1.57813 C2.32292,-2.35938 3.31771,-2.75 4.39063,-2.75"/>
<path class="Note" fill="#ffffff" fill-rule="evenodd" d="M197.632,118.746 L203.593,118.746 L203.593,126.198 L197.632,126.198 L197.632,118.746 "/>
<path class="Note" transform="matrix(0.9936,0,0,0.9936,198.129,125.95)" d="M2.4375,-5.64063 C1.75,-5.64063 1.35417,-5.32813 1.25,-4.70313 C1.22917,-4.59896 1.21875,-4.47917 1.21875,-4.34375 L0.421875,-4.34375 C0.442708,-5.59375 1.01563,-6.27083 2.14063,-6.375 C2.23438,-6.38542 2.32813,-6.39063 2.42188,-6.39063 C3.26563,-6.39063 3.84375,-6.10938 4.15625,-5.54688 C4.29167,-5.28646 4.35938,-4.98438 4.35938,-4.64063 C4.35938,-4.00521 4.0625,-3.57292 3.46875,-3.34375 C4.03125,-3.14583 4.375,-2.81771 4.5,-2.35938 C4.54167,-2.19271 4.5625,-2.00521 4.5625,-1.79688 C4.5625,-1.05729 4.27604,-0.505208 3.70313,-0.140625 C3.33854,0.0885417 2.90104,0.203125 2.39063,0.203125 C1.21354,0.203125 0.526042,-0.348958 0.328125,-1.45313 C0.317708,-1.57813 0.302083,-1.71354 0.28125,-1.85938 L1.07813,-1.85938 C1.13021,-1.08854 1.46875,-0.65625 2.09375,-0.5625 C2.19792,-0.541667 2.30729,-0.53125 2.42188,-0.53125 C3.04688,-0.53125 3.45313,-0.765625 3.64063,-1.23438 C3.71354,-1.40104 3.75,-1.58854 3.75,-1.79688 C3.73958,-2.54688 3.29688,-2.92708 2.42188,-2.9375 L2.09375,-2.92188 L1.98438,-2.92188 L1.98438,-3.67188 C2.66146,-3.68229 3.10417,-3.77604 3.3125,-3.95313 C3.47917,-4.09896 3.5625,-4.31771 3.5625,-4.60938 C3.5625,-5.09896 3.34896,-5.41667 2.92188,-5.5625 C2.77604,-5.61458 2.61458,-5.64063 2.4375,-5.64063"/>
<path class="Note" fill="#78c7c7" transform="matrix(0.9936,0,0,0.9936,196.887,67.824)" d="M4.39063,-2.75 C5.01563,-2.75 5.54688,-2.58854 5.98438,-2.26563 C6.38021,-1.91146 6.57813,-1.46875 6.57813,-0.9375 C6.57813,-0.0416667 6.11979,0.796875 5.20313,1.57813 C4.26563,2.35938 3.26042,2.75 2.1875,2.75 C1.5625,2.75 1.03646,2.58854 0.609375,2.26563 C0.203125,1.91146 0,1.46875 0,0.9375 C0,0.0416667 0.46875,-0.796875 1.40625,-1.57813 C2.32292,-2.35938 3.31771,-2.75 4.39063,-2.75"/>
<path class="Note" fill="#ffffff" fill-rule="evenodd" d="M132.416,118.746 L138.378,118.746 L138.378,126.198 L132.416,126.198 L132.416,118.746 "/>
<path class="Note" transform="matrix(0.9936,0,0,0.9936,132.913,125.95)" d="M0.390625,-3.09375 C0.390625,-5 0.927083,-6.07813 2,-6.32813 C2.14583,-6.36979 2.30208,-6.39063 2.46875,-6.39063 C3.78125,-6.39063 4.47917,-5.40104 4.5625,-3.42188 C4.5625,-3.28646 4.5625,-3.15625 4.5625,-3.03125 C4.5625,-1.40625 4.15104,-0.385417 3.32813,0.03125 C3.06771,0.145833 2.78125,0.203125 2.46875,0.203125 C1.41667,0.203125 0.760417,-0.442708 0.5,-1.73438 C0.427083,-2.14063 0.390625,-2.59375 0.390625,-3.09375 M2.46875,-5.64063 C1.625,-5.63021 1.20313,-4.77083 1.20313,-3.0625 C1.20313,-1.32292 1.61979,-0.453125 2.45313,-0.453125 C3.16146,-0.453125 3.57813,-1.02604 3.70313,-2.17188 C3.73438,-2.44271 3.75,-2.75 3.75,-3.09375 C3.75,-4.79167 3.32292,-5.64063 2.46875,-5.64063"/>
<path class="Note" fill="#ff9ee6" transform="matrix(0.9936,0,0,0.9936,131.671,72.792)" d="M4.39063,-2.75 C5.01563,-2.75 5.54688,-2.58854 5.98438,-2.26563 C6.38021,-1.91146 6.57813,-1.46875 6.57813,-0.9375 C6.57813,-0.0416667 6.11979,0.796875 5.20313,1.57813 C4.26563,2.35938 3.26042,2.75 2.1875,2.75 C1.5625,2.75 1.03646,2.58854 0.609375,2.26563 C0.203125,1.91146 0,1.46875 0,0.9375 C0,0.0416667 0.46875,-0.796875 1.40625,-1.57813 C2.32292,-2.35938 3.31771,-2.75 4.39063,-2.75"/>
<path class="Note" fill="#ffffff" fill-rule="evenodd" d="M67.2007,126.198 L73.1623,126.198 L73.1623,133.65 L67.2007,133.65 L67.2007,126.198 "/>
<path class="Note" transform="matrix(0.9936,0,0,0.9936,67.6975,133.402)" d="M0.390625,-3.09375 C0.390625,-5 0.927083,-6.07813 2,-6.32813 C2.14583,-6.36979 2.30208,-6.39063 2.46875,-6.39063 C3.78125,-6.39063 4.47917,-5.40104 4.5625,-3.42188 C4.5625,-3.28646 4.5625,-3.15625 4.5625,-3.03125 C4.5625,-1.40625 4.15104,-0.385417 3.32813,0.03125 C3.06771,0.145833 2.78125,0.203125 2.46875,0.203125 C1.41667,0.203125 0.760417,-0.442708 0.5,-1.73438 C0.427083,-2.14063 0.390625,-2.59375 0.390625,-3.09375 M2.46875,-5.64063 C1.625,-5.63021 1.20313,-4.77083 1.20313,-3.0625 C1.20313,-1.32292 1.61979,-0.453125 2.45313,-0.453125 C3.16146,-0.453125 3.57813,-1.02604 3.70313,-2.17188 C3.73438,-2.44271 3.75,-2.75 3.75,-3.09375 C3.75,-4.79167 3.32292,-5.64063 2.46875,-5.64063"/>
<path class="Note" fill="#99cc33" transform="matrix(0.9936,0,0,0.9936,66.4555,77.76)" d="M4.39063,-2.75 C5.01563,-2.75 5.54688,-2.58854 5.98438,-2.26563 C6.38021,-1.91146 6.57813,-1.46875 6.57813,-0.9375 C6.57813,-0.0416667 6.11979,0.796875 5.20313,1.57813 C4.26563,2.35938 3.26042,2.75 2.1875,2.75 C1.5625,2.75 1.03646,2.58854 0.609375,2.26563 C0.203125,1.91146 0,1.46875 0,0.9375 C0,0.0416667 0.46875,-0.796875 1.40625,-1.57813 C2.32292,-2.35938 3.31771,-2.75 4.39063,-2.75"/>
<path class="Clef" transform="matrix(0.9936,0,0,0.9936,32.0544,133.65)" d="M5.32813,8.5 C5.32813,8.86458 5.04167,9.04688 4.46875,9.04688 C4.02083,9.04688 3.625,8.91146 3.28125,8.64063 C2.95833,8.34896 2.79688,7.98438 2.79688,7.54688 C2.79688,6.76563 3.27083,6.14063 4.21875,5.67188 C5.14583,5.18229 6.23438,4.9375 7.48438,4.9375 C7.96354,4.9375 8.47917,4.97396 9.03125,5.04688 C9.42708,5.09896 9.875,5.20313 10.375,5.35938 C10.8125,5.49479 11.1563,5.70573 11.4063,5.99219 C11.6563,6.27865 11.7813,6.61458 11.7813,7 C11.7813,7.89583 11.3177,8.63021 10.3906,9.20313 C11.7448,9.45313 12.4271,10.0573 12.4375,11.0156 C12.4375,11.8281 12.0729,12.5599 11.3438,13.2109 C10.6146,13.862 9.79167,14.1875 8.875,14.1875 C8.47917,14.1875 8.07813,14.0938 7.67188,13.9063 C7.29688,13.7292 7.03125,13.5625 6.875,13.4063 C6.71875,13.2188 6.64063,13.0781 6.64063,12.9844 C6.64063,12.8594 6.70833,12.75 6.84375,12.6563 C6.95833,12.5417 7.07813,12.4844 7.20313,12.4844 C7.25521,12.4844 7.36719,12.5677 7.53906,12.7344 C7.71094,12.901 7.95833,12.9844 8.28125,12.9844 C8.72917,12.9844 9.16146,12.7969 9.57813,12.4219 C9.97396,12.0573 10.1719,11.6198 10.1719,11.1094 C10.1719,10.6719 9.98438,10.3542 9.60938,10.1563 C9.24479,9.95833 8.76563,9.85938 8.17188,9.85938 C8.06771,9.85938 8.01563,9.75 8.01563,9.53125 C8.01563,9.21875 8.13021,9.0625 8.35938,9.0625 C8.72396,9.0625 9.05208,8.90625 9.34375,8.59375 C9.61458,8.26042 9.75,7.90104 9.75,7.51563 C9.75,7.40104 9.71875,7.22917 9.65625,7 C9.60417,6.84375 9.44792,6.65104 9.1875,6.42188 C8.9375,6.21354 8.58854,6.07292 8.14063,6 C8.02604,6.63542 7.88021,7.44792 7.70313,8.4375 C7.52604,9.42708 7.40625,10.0781 7.34375,10.3906 C7.125,11.5156 6.72396,12.4583 6.14063,13.2188 C5.52604,14.0313 4.86458,14.4375 4.15625,14.4375 C3.9375,14.4375 3.71354,14.3854 3.48438,14.2813 C3.29688,14.1979 3.0625,14.0365 2.78125,13.7969 C2.52083,13.5885 2.34375,13.4479 2.25,13.375 C2.19792,13.3438 2.17188,13.2865 2.17188,13.2031 C2.17188,13.0781 2.21875,12.9635 2.3125,12.8594 C2.41667,12.7344 2.52604,12.6719 2.64063,12.6719 C2.71354,12.6719 2.89323,12.7969 3.17969,13.0469 C3.46615,13.2969 3.76563,13.4219 4.07813,13.4219 C4.68229,13.4219 5.13542,13.0365 5.4375,12.2656 C5.71875,11.526 5.85938,10.6094 5.85938,9.51563 L5.85938,9.35938 C5.85938,8.63021 5.97917,7.54167 6.21875,6.09375 C5.80208,6.22917 5.46875,6.42708 5.21875,6.6875 C4.95833,6.94792 4.82813,7.21875 4.82813,7.5 C4.82813,7.71875 4.91146,7.90625 5.07813,8.0625 C5.24479,8.21875 5.32813,8.36458 5.32813,8.5 M1.40625,2.39063 C1.46875,2.39063 1.625,2.45313 1.875,2.57813 C2.13542,2.71354 2.35938,2.78125 2.54688,2.78125 C3.03646,2.78125 3.64063,2.42188 4.35938,1.70313 C6.43229,-0.411458 7.85938,-2.65104 8.64063,-5.01563 C8.79688,-5.51563 9.17708,-5.76563 9.78125,-5.76563 C10.0938,-5.76563 10.3646,-5.69792 10.5938,-5.5625 C10.8125,-5.42708 10.9219,-5.28646 10.9219,-5.14063 L10.5625,2.17188 C10.5625,2.55729 10.7031,2.75 10.9844,2.75 C11.1198,2.75 11.3281,2.6875 11.6094,2.5625 C11.8698,2.42708 12.026,2.35938 12.0781,2.35938 C12.1823,2.35938 12.2448,2.47396 12.2656,2.70313 C12.2656,2.91146 12.1823,3.04167 12.0156,3.09375 C11.8802,3.125 11.6198,3.24479 11.2344,3.45313 C10.8281,3.66146 10.5104,3.76563 10.2813,3.76563 C9.78125,3.76563 9.42708,3.375 9.21875,2.59375 C8.89583,1.375 8.6875,0.104167 8.59375,-1.21875 C8.07292,-0.552083 7.49479,0.119792 6.85938,0.796875 C7.08854,1.24479 7.51563,1.46875 8.14063,1.46875 C8.23438,1.46875 8.30729,1.46354 8.35938,1.45313 L8.375,1.45313 C8.47917,1.45313 8.53125,1.54688 8.53125,1.73438 C8.53125,1.98438 8.44792,2.13542 8.28125,2.1875 C8.01042,2.28125 7.72396,2.32813 7.42188,2.32813 C6.77604,2.32813 6.30729,2.10417 6.01563,1.65625 L5.23438,2.35938 C4.14063,3.29688 3.25,3.76563 2.5625,3.76563 C2.375,3.76563 2.1875,3.73438 2,3.67188 C1.84375,3.60938 1.66146,3.51042 1.45313,3.375 C1.36979,3.34375 1.27865,3.29688 1.17969,3.23438 C1.08073,3.17188 1.02083,3.13542 1,3.125 C0.9375,3.10417 0.90625,3.04688 0.90625,2.95313 C0.90625,2.84896 0.958333,2.72396 1.0625,2.57813 C1.14583,2.45313 1.26042,2.39063 1.40625,2.39063 M5.76563,-10.7969 C5.76563,-10.474 5.48438,-10.3125 4.92188,-10.3125 C4.43229,-10.3125 4.00521,-10.474 3.64063,-10.7969 C3.28646,-11.1302 3.10938,-11.5313 3.10938,-12 C3.10938,-12.4479 3.25,-12.8385 3.53125,-13.1719 C3.83333,-13.5052 4.21875,-13.7552 4.6875,-13.9219 C5.11458,-14.0781 5.59896,-14.2031 6.14063,-14.2969 C6.69271,-14.3594 7.22396,-14.3906 7.73438,-14.3906 C8.03646,-14.3906 8.59896,-14.2552 9.42188,-13.9844 C10.2552,-13.7135 10.8333,-13.5781 11.1563,-13.5781 C11.5625,-13.5781 11.9479,-13.651 12.3125,-13.7969 C12.6042,-13.9219 12.8906,-14.0677 13.1719,-14.2344 C13.3906,-14.3802 13.5104,-14.4531 13.5313,-14.4531 C13.6563,-14.4531 13.7604,-14.4167 13.8438,-14.3438 C13.9479,-14.2396 14,-14.151 14,-14.0781 C14,-13.9948 13.8802,-13.849 13.6406,-13.6406 C13.3802,-13.401 13.0078,-13.1641 12.5234,-12.9297 C12.0391,-12.6953 11.5313,-12.5781 11,-12.5781 C10.7604,-12.5781 10.4688,-12.6198 10.125,-12.7031 C9.89583,-11.2552 9.66146,-9.96875 9.42188,-8.84375 C9.21354,-7.85417 8.79688,-6.98958 8.17188,-6.25 C7.56771,-5.51042 6.89583,-5.14063 6.15625,-5.14063 C5.85417,-5.14063 5.58854,-5.19792 5.35938,-5.3125 C5.09896,-5.44792 4.82292,-5.64583 4.53125,-5.90625 C4.30208,-6.09375 4.08333,-6.26563 3.875,-6.42188 C3.82292,-6.46354 3.79688,-6.52604 3.79688,-6.60938 C3.79688,-6.69271 3.84896,-6.80729 3.95313,-6.95313 C4.05729,-7.06771 4.15104,-7.125 4.23438,-7.125 C4.31771,-7.125 4.54167,-6.96354 4.90625,-6.64063 C5.27083,-6.31771 5.59375,-6.15625 5.875,-6.15625 C6.39583,-6.15625 6.80208,-6.45313 7.09375,-7.04688 C7.375,-7.64063 7.53646,-8.34375 7.57813,-9.15625 C7.64063,-10.5 7.79167,-11.8906 8.03125,-13.3281 C7.73958,-13.3906 7.52604,-13.4219 7.39063,-13.4219 C6.76563,-13.4219 6.22917,-13.2917 5.78125,-13.0313 C5.34375,-12.7813 5.125,-12.4427 5.125,-12.0156 C5.125,-11.7031 5.22917,-11.4635 5.4375,-11.2969 C5.65625,-11.1094 5.76563,-10.9427 5.76563,-10.7969"/>
<path class="Clef" transform="matrix(0.9936,0,0,0.9936,32.0544,77.76)" d="M7.34375,-5.125 C7.34375,-5.125 7.38542,-5.125 7.46875,-5.125 C7.52083,-5.13542 7.5625,-5.14063 7.59375,-5.14063 C9.05208,-5.14063 10.25,-4.625 11.1875,-3.59375 C12.125,-2.58333 12.5938,-1.40104 12.5938,-0.046875 C12.5938,1.64063 11.901,3.01042 10.5156,4.0625 C10.151,4.35417 9.67188,4.58854 9.07813,4.76563 C9.15104,5.60938 9.1875,6.29167 9.1875,6.8125 C9.1875,6.91667 9.17188,7.29688 9.14063,7.95313 C9.08854,9.16146 8.67188,10.2083 7.89063,11.0938 C7.14063,11.9688 6.20313,12.4063 5.07813,12.4063 C4.02604,12.4063 3.13021,12.0365 2.39063,11.2969 C1.64063,10.5365 1.26563,9.625 1.26563,8.5625 C1.26563,8 1.48438,7.52083 1.92188,7.125 C2.35938,6.73958 2.86979,6.54688 3.45313,6.54688 C3.97396,6.54688 4.41146,6.75 4.76563,7.15625 C5.13021,7.53125 5.3125,8 5.3125,8.5625 C5.3125,9.0625 5.13021,9.49479 4.76563,9.85938 C4.40104,10.224 3.96354,10.4063 3.45313,10.4063 C3.24479,10.4063 3.04688,10.3698 2.85938,10.2969 C3.43229,11.1406 4.19271,11.5625 5.14063,11.5625 C6.03646,11.5625 6.77083,11.1979 7.34375,10.4688 C7.94792,9.71875 8.27604,8.83854 8.32813,7.82813 C8.34896,7.20313 8.35938,6.84896 8.35938,6.76563 C8.35938,6.03646 8.33333,5.4375 8.28125,4.96875 C7.63542,5.07292 7.05729,5.125 6.54688,5.125 C4.73438,5.125 3.19271,4.40625 1.92188,2.96875 C0.671875,1.52083 0.046875,-0.197917 0.046875,-2.1875 C0.046875,-2.60417 0.0833333,-3.02604 0.15625,-3.45313 C0.239583,-3.80729 0.338542,-4.19271 0.453125,-4.60938 C0.515625,-4.84896 0.692708,-5.22917 0.984375,-5.75 C1.08854,-5.90625 1.20573,-6.10156 1.33594,-6.33594 C1.46615,-6.57031 1.55729,-6.72396 1.60938,-6.79688 C1.73438,-7.05729 1.98438,-7.41146 2.35938,-7.85938 C2.46354,-7.97396 2.57292,-8.10156 2.6875,-8.24219 C2.80208,-8.38281 2.89844,-8.5 2.97656,-8.59375 C3.05469,-8.6875 3.11198,-8.76042 3.14844,-8.8125 C3.1849,-8.86458 3.47917,-9.20833 4.03125,-9.84375 C4.15625,-9.97917 4.28125,-10.1198 4.40625,-10.2656 C4.53125,-10.4115 4.63281,-10.5286 4.71094,-10.6172 C4.78906,-10.7057 4.84896,-10.7656 4.89063,-10.7969 C4.42188,-12.349 4.125,-13.5885 4,-14.5156 C3.91667,-15.2552 3.875,-16.2708 3.875,-17.5625 C3.875,-18.6979 4.13542,-19.7604 4.65625,-20.75 C5.15625,-21.7708 5.86458,-22.6094 6.78125,-23.2656 C6.84375,-23.3073 6.90625,-23.3281 6.96875,-23.3281 C7.0625,-23.3281 7.13021,-23.3073 7.17188,-23.2656 C7.86979,-22.4219 8.47396,-21.3229 8.98438,-19.9688 C9.50521,-18.6146 9.76563,-17.3802 9.76563,-16.2656 C9.76563,-15.0156 9.46875,-13.8438 8.875,-12.75 C8.19792,-11.5938 7.32292,-10.3958 6.25,-9.15625 C6.52083,-8.30208 6.88542,-6.95833 7.34375,-5.125 M9,3.96875 C9.67708,3.71875 10.2083,3.29688 10.5938,2.70313 C11.0104,2.13021 11.2188,1.48438 11.2188,0.765625 C11.2188,-0.161458 10.9063,-0.984375 10.2813,-1.70313 C9.63542,-2.44271 8.81771,-2.85938 7.82813,-2.95313 C8.39063,-0.203125 8.78125,2.10417 9,3.96875 M1.45313,-0.546875 C1.45313,0.744792 1.97396,1.88021 3.01563,2.85938 C4.07813,3.80729 5.27604,4.28125 6.60938,4.28125 C7.15104,4.28125 7.68229,4.23958 8.20313,4.15625 C7.99479,2.17708 7.58333,-0.192708 6.96875,-2.95313 C6.22917,-2.86979 5.64063,-2.60938 5.20313,-2.17188 C4.76563,-1.71354 4.54688,-1.19792 4.54688,-0.625 C4.54688,0.364583 5.07813,1.16667 6.14063,1.78125 C6.22396,1.875 6.26563,1.97396 6.26563,2.07813 C6.26563,2.18229 6.22396,2.27604 6.14063,2.35938 C6.05729,2.45313 5.95833,2.5 5.84375,2.5 C5.83333,2.5 5.77604,2.48958 5.67188,2.46875 C4.92188,2.0625 4.34896,1.54167 3.95313,0.90625 C3.56771,0.21875 3.375,-0.46875 3.375,-1.15625 C3.375,-2.05208 3.65625,-2.86458 4.21875,-3.59375 C4.80208,-4.32292 5.5625,-4.79167 6.5,-5 C6.13542,-6.45833 5.83854,-7.59896 5.60938,-8.42188 C5.40104,-8.18229 5.15104,-7.89844 4.85938,-7.57031 C4.56771,-7.24219 4.39583,-7.04167 4.34375,-6.96875 C3.875,-6.36458 3.51563,-5.89063 3.26563,-5.54688 C2.81771,-4.93229 2.48958,-4.40625 2.28125,-3.96875 C2.0625,-3.46875 1.86979,-2.92708 1.70313,-2.34375 C1.53646,-1.78125 1.45313,-1.18229 1.45313,-0.546875 M7.96875,-20.4063 C6.98958,-19.9271 6.22396,-19.2396 5.67188,-18.3438 C5.09896,-17.4167 4.8125,-16.4219 4.8125,-15.3594 C4.8125,-14.4219 5.04688,-13.1563 5.51563,-11.5625 C6.45313,-12.6979 7.15625,-13.7448 7.625,-14.7031 C8.11458,-15.724 8.35938,-16.7865 8.35938,-17.8906 C8.35938,-18.724 8.22917,-19.5625 7.96875,-20.4063 M5.82813,15.2344 C6.16146,14.901 6.32813,14.5625 6.32813,14.2188 C6.30729,13.9479 6.19271,13.7396 5.98438,13.5938 C5.74479,13.4375 5.46875,13.3594 5.15625,13.3594 C4.9375,13.3594 4.75521,13.4323 4.60938,13.5781 C4.48438,13.7031 4.42188,13.8646 4.42188,14.0625 C4.42188,14.3021 4.51563,14.4792 4.70313,14.5938 L5.82813,15.2344 M6.14063,15.4063 C6.68229,15.7083 6.95313,16.1146 6.95313,16.625 L6.95313,16.6875 C6.95313,17.0833 6.79167,17.4219 6.46875,17.7031 C6.14583,17.9844 5.68229,18.125 5.07813,18.125 C4.58854,18.125 4.16146,17.9948 3.79688,17.7344 C3.43229,17.4844 3.25,17.1458 3.25,16.7188 C3.25,16.5521 3.29167,16.3958 3.375,16.25 C3.47917,16.0833 3.56771,15.9688 3.64063,15.9063 L4,15.5313 C3.60417,15.2604 3.40625,14.901 3.40625,14.4531 C3.40625,14.099 3.5625,13.7865 3.875,13.5156 C4.19792,13.2552 4.625,13.125 5.15625,13.125 C5.60417,13.125 5.98438,13.224 6.29688,13.4219 C6.60938,13.6198 6.76563,13.8854 6.76563,14.2188 C6.76563,14.5729 6.55729,14.9688 6.14063,15.4063 M4.29688,15.7031 C3.91146,16.0469 3.70313,16.3854 3.67188,16.7188 C3.70313,17.0729 3.84896,17.3542 4.10938,17.5625 C4.39063,17.7813 4.71354,17.8906 5.07813,17.8906 C5.33854,17.8906 5.54688,17.8073 5.70313,17.6406 C5.85938,17.4844 5.9375,17.2969 5.9375,17.0781 C5.92708,16.7865 5.8125,16.5781 5.59375,16.4531 L4.29688,15.7031 "/>
<path class="KeySig" transform="matrix(0.9936,0,0,0.9936,49.3492,62.856)" d="M4.3125,6.23438 C4.3125,6.48438 4.1901,6.60938 3.94531,6.60938 C3.70052,6.60938 3.57813,6.48438 3.57813,6.23438 L3.57813,3.34375 L1.92188,3.96875 L1.92188,7.125 C1.92188,7.375 1.79688,7.5 1.54688,7.5 C1.29688,7.5 1.17188,7.375 1.17188,7.125 L1.17188,4.21875 L0.546875,4.45313 C0.536458,4.46354 0.484375,4.46875 0.390625,4.46875 C0.286458,4.46875 0.195313,4.42969 0.117188,4.35156 C0.0390625,4.27344 0,4.18229 0,4.07813 L0,2.875 C0,2.67708 0.0833333,2.55208 0.25,2.5 L1.17188,2.1875 L1.17188,-1.01563 L0.546875,-0.796875 C0.536458,-0.786458 0.484375,-0.78125 0.390625,-0.78125 C0.286458,-0.78125 0.195313,-0.820313 0.117188,-0.898438 C0.0390625,-0.976563 0,-1.06771 0,-1.17188 L0,-2.39063 C0,-2.56771 0.0833333,-2.68229 0.25,-2.73438 L1.17188,-3.09375 L1.17188,-6.23438 C1.17188,-6.48438 1.29688,-6.60938 1.54688,-6.60938 C1.79688,-6.60938 1.92188,-6.48438 1.92188,-6.23438 L1.92188,-3.34375 L3.57813,-3.96875 L3.57813,-7.125 C3.57813,-7.375 3.70052,-7.5 3.94531,-7.5 C4.1901,-7.5 4.3125,-7.375 4.3125,-7.125 L4.3125,-4.21875 L4.96875,-4.45313 C4.97917,-4.46354 5.02083,-4.46875 5.09375,-4.46875 C5.1875,-4.46875 5.28646,-4.43229 5.39063,-4.35938 C5.47396,-4.27604 5.51563,-4.18229 5.51563,-4.07813 L5.51563,-2.875 C5.51563,-2.6875 5.42188,-2.5625 5.23438,-2.5 L4.3125,-2.1875 L4.3125,1.01563 L4.96875,0.796875 C4.97917,0.786458 5.02083,0.78125 5.09375,0.78125 C5.1875,0.78125 5.28646,0.822917 5.39063,0.90625 C5.47396,0.979167 5.51563,1.06771 5.51563,1.17188 L5.51563,2.39063 C5.51563,2.55729 5.42188,2.67188 5.23438,2.73438 L4.3125,3.09375 L4.3125,6.23438 M3.57813,-1.89063 L1.92188,-1.3125 L1.92188,1.89063 L3.57813,1.3125 L3.57813,-1.89063 "/>
<path class="Fingering" d="M453.086,80.3694 C452.492,80.3694 452.028,80.0621 451.695,79.4475 C451.414,78.9475 451.273,78.3225 451.273,77.5725 C451.273,76.6767 451.482,75.9735 451.898,75.4631 C452.232,75.0673 452.638,74.8642 453.117,74.8537 C453.679,74.8537 454.122,75.1402 454.445,75.7131 C454.747,76.2235 454.898,76.859 454.898,77.6194 C454.898,78.5881 454.674,79.3277 454.226,79.8381 C453.903,80.1923 453.523,80.3694 453.086,80.3694 M453.086,75.0569 C452.44,75.0569 452.091,75.8277 452.039,77.3694 C452.039,77.4631 452.039,77.5569 452.039,77.6506 C452.049,79.3173 452.398,80.1558 453.086,80.1662 C453.773,80.1558 454.117,79.3121 454.117,77.635 C454.117,76.1142 453.846,75.2652 453.304,75.0881 C453.232,75.0673 453.159,75.0569 453.086,75.0569"/>
<path class="Fingering" d="M388.049,75.4014 C387.456,75.4014 386.992,75.0941 386.659,74.4795 C386.378,73.9795 386.237,73.3545 386.237,72.6045 C386.237,71.7087 386.445,71.0055 386.862,70.4951 C387.195,70.0993 387.601,69.8962 388.081,69.8858 C388.643,69.8858 389.086,70.1722 389.409,70.7451 C389.711,71.2555 389.862,71.891 389.862,72.6514 C389.862,73.6201 389.638,74.3597 389.19,74.8701 C388.867,75.2243 388.487,75.4014 388.049,75.4014 M388.049,70.0889 C387.404,70.0889 387.055,70.8597 387.003,72.4014 C387.003,72.4951 387.003,72.5889 387.003,72.6826 C387.013,74.3493 387.362,75.1878 388.049,75.1983 C388.737,75.1878 389.081,74.3441 389.081,72.667 C389.081,71.1462 388.81,70.2972 388.268,70.1201 C388.195,70.0993 388.122,70.0889 388.049,70.0889"/>
<path class="Fingering" d="M321.084,66.5115 C321.323,65.4907 321.849,64.9646 322.662,64.9334 C322.693,64.9334 322.719,64.9334 322.74,64.9334 C323.23,64.9334 323.62,65.1105 323.912,65.4646 C324.12,65.725 324.224,66.0167 324.224,66.3396 C324.224,66.9334 323.907,67.574 323.271,68.2615 C323.25,68.2823 323.224,68.3032 323.193,68.324 L321.865,69.7459 L323.771,69.7459 C323.98,69.7459 324.141,69.6886 324.256,69.574 C324.329,69.5011 324.417,69.3813 324.521,69.2146 L324.631,69.2459 L324.193,70.324 L321.068,70.324 L321.068,70.2302 L322.49,68.7146 C323.167,67.975 323.516,67.2823 323.537,66.6365 C323.537,66.1886 323.365,65.8657 323.021,65.6677 C322.844,65.5636 322.641,65.5115 322.412,65.5115 C322.058,65.5115 321.782,65.6469 321.584,65.9177 C321.469,66.074 321.36,66.2875 321.256,66.5584 L321.084,66.5115 "/>
<path class="Fingering" d="M256.259,62.247 C256.384,62.247 256.566,62.3147 256.806,62.4501 C257.056,62.6064 257.269,62.6845 257.446,62.6845 C257.811,62.6845 258.097,62.523 258.306,62.2001 C258.431,61.9918 258.493,61.7574 258.493,61.497 C258.493,60.7366 258.04,60.3199 257.134,60.247 C257.04,60.2366 256.941,60.2314 256.837,60.2314 L256.837,60.122 C257.441,59.9241 257.837,59.6689 258.024,59.3564 C258.118,59.1897 258.165,59.0074 258.165,58.8095 C258.165,58.4553 258.019,58.2001 257.728,58.0439 C257.592,57.9814 257.446,57.9501 257.29,57.9501 C256.842,57.9501 256.472,58.1845 256.181,58.6532 C256.149,58.6949 256.123,58.7418 256.103,58.7939 L255.978,58.7626 C256.228,58.0855 256.592,57.6741 257.071,57.5282 C257.217,57.4866 257.379,57.4657 257.556,57.4657 C258.035,57.4657 258.389,57.6324 258.618,57.9657 C258.743,58.1428 258.806,58.3407 258.806,58.5595 C258.806,58.8824 258.655,59.1741 258.353,59.4345 C258.259,59.5074 258.16,59.5855 258.056,59.6689 C258.535,59.8772 258.842,60.1637 258.978,60.5282 C259.04,60.7053 259.071,60.9032 259.071,61.122 C259.071,61.7574 258.806,62.2522 258.274,62.6064 C257.879,62.8564 257.41,62.9814 256.868,62.9814 C256.379,62.9814 256.087,62.872 255.993,62.6532 C255.972,62.6116 255.962,62.5699 255.962,62.5282 C255.962,62.372 256.04,62.2835 256.196,62.2626 C256.217,62.2522 256.238,62.247 256.259,62.247"/>
<path class="Fingering" d="M190.653,66.5115 C190.892,65.4907 191.418,64.9646 192.231,64.9334 C192.262,64.9334 192.288,64.9334 192.309,64.9334 C192.798,64.9334 193.189,65.1105 193.481,65.4646 C193.689,65.725 193.793,66.0167 193.793,66.3396 C193.793,66.9334 193.476,67.574 192.84,68.2615 C192.819,68.2823 192.793,68.3032 192.762,68.324 L191.434,69.7459 L193.34,69.7459 C193.548,69.7459 193.71,69.6886 193.825,69.574 C193.897,69.5011 193.986,69.3813 194.09,69.2146 L194.2,69.2459 L193.762,70.324 L190.637,70.324 L190.637,70.2302 L192.059,68.7146 C192.736,67.975 193.085,67.2823 193.106,66.6365 C193.106,66.1886 192.934,65.8657 192.59,65.6677 C192.413,65.5636 192.21,65.5115 191.981,65.5115 C191.627,65.5115 191.351,65.6469 191.153,65.9177 C191.038,66.074 190.929,66.2875 190.825,66.5584 L190.653,66.5115 "/>
<path class="Fingering" d="M127.187,75.4014 C126.593,75.4014 126.13,75.0941 125.796,74.4795 C125.515,73.9795 125.375,73.3545 125.375,72.6045 C125.375,71.7087 125.583,71.0055 126,70.4951 C126.333,70.0993 126.739,69.8962 127.218,69.8858 C127.781,69.8858 128.224,70.1722 128.546,70.7451 C128.849,71.2555 129,71.891 129,72.6514 C129,73.6201 128.776,74.3597 128.328,74.8701 C128.005,75.2243 127.625,75.4014 127.187,75.4014 M127.187,70.0889 C126.541,70.0889 126.192,70.8597 126.14,72.4014 C126.14,72.4951 126.14,72.5889 126.14,72.6826 C126.151,74.3493 126.5,75.1878 127.187,75.1983 C127.875,75.1878 128.218,74.3441 128.218,72.667 C128.218,71.1462 127.947,70.2972 127.406,70.1201 C127.333,70.0993 127.26,70.0889 127.187,70.0889"/>
<path class="Fingering" d="M61.9715,80.3694 C61.3777,80.3694 60.9142,80.0621 60.5808,79.4475 C60.2996,78.9475 60.159,78.3225 60.159,77.5725 C60.159,76.6767 60.3673,75.9735 60.784,75.4631 C61.1173,75.0673 61.5236,74.8642 62.0027,74.8537 C62.5652,74.8537 63.0079,75.1402 63.3308,75.7131 C63.6329,76.2235 63.784,76.859 63.784,77.6194 C63.784,78.5881 63.56,79.3277 63.1121,79.8381 C62.7892,80.1923 62.409,80.3694 61.9715,80.3694 M61.9715,75.0569 C61.3256,75.0569 60.9767,75.8277 60.9246,77.3694 C60.9246,77.4631 60.9246,77.5569 60.9246,77.6506 C60.935,79.3173 61.284,80.1558 61.9715,80.1662 C62.659,80.1558 63.0027,79.3121 63.0027,77.635 C63.0027,76.1142 62.7319,75.2652 62.1902,75.0881 C62.1173,75.0673 62.0444,75.0569 61.9715,75.0569"/>
<path class="Tempo" d="M60.2121,40.4371 C60.0089,40.2809 59.7589,40.1871 59.4464,40.1871 C58.2589,40.1871 57.3058,41.0621 57.3058,41.9996 C57.3058,42.5621 57.7589,42.9059 58.3527,42.9059 C59.3058,42.9059 60.4933,41.9996 60.4933,41.0934 L60.4933,34.9527 L60.2121,34.9527 L60.2121,40.4371 "/>
<path class="Tempo" d="M70.8527,39.0152 L64.2433,39.0152 L64.2433,37.859 L70.8527,37.859 L70.8527,39.0152 M70.8527,41.9371 L64.2433,41.9371 L64.2433,40.7965 L70.8527,40.7965 L70.8527,41.9371 M74.8214,41.0934 C74.8214,40.2913 75.2329,39.7027 76.0558,39.3277 C76.2225,39.2444 76.4152,39.1663 76.6339,39.0934 C75.7277,38.5621 75.1964,37.9892 75.0402,37.3746 C74.9881,37.1975 74.9621,37.0152 74.9621,36.8277 C74.9621,36.0569 75.311,35.484 76.0089,35.109 C76.4673,34.859 77.0141,34.734 77.6496,34.734 C78.66,34.734 79.3527,35.0205 79.7277,35.5934 C79.9048,35.8538 79.9933,36.1455 79.9933,36.4684 C79.9933,37.0621 79.66,37.5309 78.9933,37.8746 C78.8058,37.958 78.5923,38.0465 78.3527,38.1402 C79.2798,38.7236 79.8423,39.3382 80.0402,39.984 C80.1131,40.2236 80.1496,40.4736 80.1496,40.734 C80.1496,41.5986 79.7954,42.2548 79.0871,42.7027 C78.6079,42.9944 78.035,43.1402 77.3683,43.1402 C76.3891,43.1402 75.6704,42.8434 75.2121,42.2496 C74.9516,41.9163 74.8214,41.5309 74.8214,41.0934 M78.0714,37.9215 C78.3527,37.5361 78.5089,37.1819 78.5402,36.859 C78.5506,36.7548 78.5558,36.6507 78.5558,36.5465 C78.5558,35.734 78.3006,35.2548 77.7902,35.109 C77.6964,35.0882 77.6027,35.0777 77.5089,35.0777 C77.1027,35.0777 76.811,35.2496 76.6339,35.5934 C76.5506,35.7496 76.5089,35.9111 76.5089,36.0777 C76.5089,36.7236 76.9621,37.3017 77.8683,37.8121 C77.9412,37.8538 78.0089,37.8902 78.0714,37.9215 M76.8996,39.3121 C76.5454,39.833 76.3423,40.2861 76.2902,40.6715 C76.2798,40.7965 76.2746,40.9215 76.2746,41.0465 C76.2746,41.9111 76.5298,42.4527 77.0402,42.6715 C77.1652,42.7236 77.3006,42.7496 77.4464,42.7496 C77.936,42.7496 78.2589,42.4944 78.4152,41.984 C78.4673,41.8173 78.4933,41.6402 78.4933,41.4527 C78.4933,40.9527 78.3527,40.5465 78.0714,40.234 C77.8423,39.9944 77.4516,39.6871 76.8996,39.3121 M80.7746,38.9059 C80.7746,37.5934 81.0871,36.5309 81.7121,35.7184 C82.2225,35.0725 82.8162,34.7444 83.4933,34.734 C84.2746,34.734 84.9204,35.1402 85.4308,35.9527 C85.9412,36.7652 86.1964,37.76 86.1964,38.9371 C86.1964,40.3121 85.8787,41.4059 85.2433,42.2184 C84.7433,42.8225 84.1652,43.1298 83.5089,43.1402 C82.6756,43.1402 82.0037,42.7132 81.4933,41.859 C81.0141,41.0673 80.7746,40.083 80.7746,38.9059 M83.5089,42.7965 C83.8631,42.7965 84.0975,42.4736 84.2121,41.8277 C84.2746,41.4423 84.3058,40.9423 84.3058,40.3277 L84.3058,37.5777 C84.3058,36.1402 84.1131,35.3225 83.7277,35.1246 C83.6548,35.083 83.5714,35.0621 83.4777,35.0621 C83.1131,35.0621 82.8735,35.3955 82.7589,36.0621 C82.7069,36.4371 82.6808,36.9423 82.6808,37.5777 L82.6808,40.3277 C82.6808,41.6819 82.8475,42.4736 83.1808,42.7027 C83.2746,42.7652 83.3839,42.7965 83.5089,42.7965"/>
<path class="StaffText" d="M69.29,25.2057 C69.7379,25.2057 70.2379,25.3203 70.79,25.5495 C71.0296,25.6432 71.2015,25.6901 71.3056,25.6901 C71.4515,25.6901 71.5817,25.5807 71.6962,25.362 C71.7067,25.3203 71.7223,25.2787 71.7431,25.237 L72.0087,25.237 L72.0087,27.5807 L71.7587,27.5807 C71.4879,26.9766 71.2067,26.5339 70.915,26.2526 C70.8525,26.1901 70.7952,26.138 70.7431,26.0964 C70.316,25.7214 69.8733,25.5339 69.415,25.5339 C68.415,25.5339 67.8212,26.2526 67.6337,27.6901 C67.6025,28.013 67.5869,28.362 67.5869,28.737 C67.5869,29.9245 67.8004,30.7943 68.2275,31.3464 C68.5608,31.763 69.0192,31.9714 69.6025,31.9714 C70.165,31.9714 70.4827,31.7943 70.5556,31.4401 C70.566,31.3776 70.5712,31.3099 70.5712,31.237 L70.5712,30.1901 C70.5712,29.8985 70.4983,29.711 70.3525,29.6276 C70.2067,29.5547 69.941,29.5078 69.5556,29.487 L69.5556,29.237 L72.9931,29.237 L72.9931,29.487 C72.5869,29.5287 72.3369,29.6172 72.2431,29.7526 C72.1702,29.8672 72.1337,30.086 72.1337,30.4089 L72.1337,31.6745 C71.54,32.0287 70.7535,32.237 69.7744,32.2995 C69.639,32.2995 69.5035,32.2995 69.3681,32.2995 C68.2535,32.2995 67.3629,31.9401 66.6962,31.2214 C66.1025,30.5755 65.8056,29.7682 65.8056,28.7995 C65.8056,27.7578 66.1494,26.8932 66.8369,26.2057 C67.5035,25.5391 68.3212,25.2057 69.29,25.2057 M77.0556,28.8307 C76.8369,28.8307 76.6233,28.711 76.415,28.4714 C76.3004,28.3255 76.2171,28.2474 76.165,28.237 C75.9462,28.237 75.7796,28.388 75.665,28.6901 C75.5921,28.8464 75.5556,29.013 75.5556,29.1901 L75.5556,31.0807 C75.5556,31.4453 75.6285,31.6693 75.7744,31.7526 C75.8681,31.8151 76.04,31.8568 76.29,31.8776 L76.29,32.112 L73.6494,32.112 L73.6494,31.8776 C73.9202,31.8255 74.0817,31.7318 74.1337,31.5964 C74.1546,31.5235 74.165,31.4141 74.165,31.2682 L74.165,28.3307 C74.165,28.0703 74.0921,27.9037 73.9462,27.8307 C73.8733,27.7891 73.7744,27.7578 73.6494,27.737 L73.6494,27.5026 L75.5244,27.5026 L75.5244,28.3307 C75.8994,27.7787 76.2692,27.4714 76.6337,27.4089 C76.7171,27.388 76.7952,27.3776 76.8681,27.3776 C77.2119,27.3776 77.4567,27.5182 77.6025,27.7995 C77.6546,27.9141 77.6806,28.0339 77.6806,28.1589 C77.6806,28.4714 77.5556,28.6797 77.3056,28.7839 C77.2223,28.8151 77.139,28.8307 77.0556,28.8307 M78.9306,28.0807 C78.9306,28.112 78.9827,28.2057 79.0869,28.362 C79.1806,28.5078 79.2275,28.6328 79.2275,28.737 C79.2275,28.9974 79.0973,29.1745 78.8369,29.2682 C78.7431,29.2995 78.6494,29.3151 78.5556,29.3151 C78.191,29.3151 77.9775,29.1537 77.915,28.8307 C77.9046,28.7682 77.8994,28.711 77.8994,28.6589 C77.8994,28.1901 78.1546,27.8412 78.665,27.612 C78.9879,27.4557 79.3629,27.3776 79.79,27.3776 C80.665,27.3776 81.264,27.6172 81.5869,28.0964 C81.7119,28.2943 81.7744,28.5182 81.7744,28.7682 L81.7744,31.3464 C81.7848,31.5026 81.8525,31.586 81.9775,31.5964 C82.0296,31.586 82.066,31.5703 82.0869,31.5495 L82.1962,31.4557 L82.3369,31.6589 C81.941,32.0339 81.5712,32.2318 81.2275,32.2526 C80.8525,32.2526 80.6077,32.112 80.4931,31.8307 C80.4619,31.737 80.4306,31.638 80.3994,31.5339 C79.8577,32.0026 79.3317,32.2422 78.8212,32.2526 C78.3837,32.2526 78.066,32.086 77.8681,31.7526 C77.764,31.586 77.7119,31.4037 77.7119,31.2057 C77.7119,30.6224 78.1598,30.1485 79.0556,29.7839 C79.2952,29.6797 79.7431,29.5287 80.3994,29.3307 L80.3994,28.5964 C80.3994,28.0651 80.1806,27.7735 79.7431,27.7214 C79.6806,27.7214 79.6181,27.7214 79.5556,27.7214 C79.264,27.7214 79.066,27.8047 78.9619,27.9714 C78.941,28.0026 78.9306,28.0391 78.9306,28.0807 M80.3837,31.0964 L80.3837,29.6589 C79.5817,29.8776 79.1754,30.2787 79.165,30.862 C79.165,31.1953 79.2744,31.4037 79.4931,31.487 C79.5556,31.5078 79.6181,31.5182 79.6806,31.5182 C79.9098,31.5182 80.1442,31.3776 80.3837,31.0964 M85.8525,32.237 L85.8525,31.5964 C85.4983,31.9714 85.1546,32.1849 84.8212,32.237 C84.7275,32.2474 84.6285,32.2526 84.5244,32.2526 C83.9306,32.2526 83.4619,31.9766 83.1181,31.4245 C82.8473,30.9974 82.7119,30.4922 82.7119,29.9089 C82.7119,29.0547 82.9567,28.3828 83.4462,27.8932 C83.7796,27.5495 84.1754,27.3776 84.6337,27.3776 C84.9879,27.3776 85.3108,27.513 85.6025,27.7839 C85.6858,27.8568 85.7587,27.9245 85.8212,27.987 L85.8212,26.1745 C85.8212,25.9245 85.764,25.7682 85.6494,25.7057 C85.5452,25.6537 85.3473,25.6172 85.0556,25.5964 L85.0556,25.362 L87.2119,25.362 L87.2119,31.112 C87.2119,31.3932 87.2952,31.5651 87.4619,31.6276 C87.5452,31.6589 87.6598,31.6797 87.8056,31.6901 L87.8056,31.9245 L87.1806,32.0026 C86.6285,32.0755 86.1858,32.1537 85.8525,32.237 M84.9775,31.7057 C85.2692,31.7057 85.5192,31.5391 85.7275,31.2057 C85.7796,31.112 85.8108,31.0443 85.8212,31.0026 L85.8212,28.5495 C85.6962,28.2162 85.4879,28.0182 85.1962,27.9557 C85.1442,27.9453 85.0921,27.9401 85.04,27.9401 C84.5296,27.9401 84.2483,28.4453 84.1962,29.4557 C84.1962,29.5703 84.1962,29.6953 84.1962,29.8307 C84.1962,31.0703 84.4567,31.6953 84.9775,31.7057 M90.1494,29.6589 C90.2015,30.6797 90.4671,31.2787 90.9462,31.4557 C91.0712,31.4974 91.2015,31.5182 91.3369,31.5182 C91.7015,31.5182 92.0348,31.3516 92.3369,31.0182 C92.389,30.9662 92.4358,30.9141 92.4775,30.862 L92.7119,31.0026 C92.2952,31.6068 91.8837,31.987 91.4775,32.1432 C91.2692,32.2162 91.0348,32.2526 90.7744,32.2526 C90.0244,32.2526 89.4619,31.9453 89.0869,31.3307 C88.8369,30.9141 88.7119,30.4141 88.7119,29.8307 C88.7119,28.9349 88.9827,28.263 89.5244,27.8151 C89.889,27.5235 90.316,27.3776 90.8056,27.3776 C91.9098,27.3776 92.5296,28.0964 92.665,29.5339 C92.665,29.5755 92.665,29.6172 92.665,29.6589 L90.1494,29.6589 M91.4462,29.1432 C91.4254,28.5182 91.3577,28.1224 91.2431,27.9557 C91.1494,27.7995 91.0035,27.7214 90.8056,27.7214 C90.514,27.7214 90.316,27.8932 90.2119,28.237 C90.1494,28.4766 90.1129,28.8307 90.1025,29.2995 L91.4462,29.2995 L91.4462,29.1432 M96.9619,26.3307 C96.8577,26.3307 96.5921,26.4089 96.165,26.5651 C96.1442,26.5755 96.1285,26.5807 96.1181,26.5807 L96.1181,26.3307 L98.6337,25.237 L98.8056,25.237 L98.8056,30.9401 C98.8056,31.3464 98.8837,31.6016 99.04,31.7057 C99.1858,31.8099 99.4671,31.8672 99.8837,31.8776 L99.8837,32.112 L96.1337,32.112 L96.1337,31.8776 C96.6754,31.8672 97.014,31.7839 97.1494,31.6276 C97.264,31.4818 97.3212,31.2318 97.3212,30.8776 L97.3212,27.0182 C97.3108,26.5703 97.191,26.3412 96.9619,26.3307 M102.118,30.5495 C102.441,30.5495 102.686,30.6901 102.852,30.9714 C102.936,31.1172 102.977,31.263 102.977,31.4089 C102.977,31.7214 102.837,31.961 102.556,32.1276 C102.41,32.2005 102.264,32.237 102.118,32.237 C101.785,32.237 101.54,32.0964 101.384,31.8151 C101.311,31.6797 101.274,31.5391 101.274,31.3932 C101.274,31.0912 101.41,30.8568 101.681,30.6901 C101.816,30.5964 101.962,30.5495 102.118,30.5495 M102.118,27.3932 C102.441,27.3932 102.686,27.5287 102.852,27.7995 C102.936,27.9453 102.977,28.0912 102.977,28.237 C102.977,28.5599 102.837,28.8047 102.556,28.9714 C102.42,29.0443 102.274,29.0807 102.118,29.0807 C101.785,29.0807 101.54,28.9349 101.384,28.6432 C101.311,28.5078 101.274,28.3672 101.274,28.2214 C101.274,27.9193 101.41,27.6849 101.681,27.5182 C101.816,27.4349 101.962,27.3932 102.118,27.3932"/>
<path class="StaffText" d="M110.415,25.7526 C109.342,25.7526 108.613,26.2735 108.227,27.3151 C108.04,27.7839 107.946,28.2995 107.946,28.862 C107.946,30.0391 108.306,30.888 109.024,31.4089 C109.451,31.7214 109.972,31.8776 110.587,31.8776 C111.118,31.8776 111.514,31.763 111.774,31.5339 C111.858,31.4505 111.905,31.3672 111.915,31.2839 L111.915,29.6432 C111.915,29.2474 111.842,28.9974 111.696,28.8932 C111.592,28.8307 111.368,28.7839 111.024,28.7526 L111.024,28.5807 L113.571,28.5807 L113.571,28.7526 C113.238,28.7839 113.035,28.8724 112.962,29.0182 C112.91,29.1224 112.884,29.2943 112.884,29.5339 L112.884,31.5651 C112.602,31.8047 112.087,31.9974 111.337,32.1432 C110.972,32.2162 110.649,32.2526 110.368,32.2526 C109.451,32.2526 108.67,32.0182 108.024,31.5495 C107.222,30.9453 106.816,30.0547 106.806,28.8776 C106.806,27.8151 107.155,26.9505 107.852,26.2839 C108.498,25.6797 109.295,25.3776 110.243,25.3776 C110.649,25.3776 111.123,25.4557 111.665,25.612 C111.832,25.6641 111.957,25.6901 112.04,25.6901 C112.248,25.6901 112.389,25.6016 112.462,25.4245 C112.472,25.4037 112.483,25.388 112.493,25.3776 L112.712,25.3776 L112.79,27.487 L112.556,27.487 C112.254,26.7474 111.884,26.2526 111.446,26.0026 C111.144,25.836 110.8,25.7526 110.415,25.7526 M116.587,28.1589 L116.587,27.987 C117.066,27.8412 117.535,27.6849 117.993,27.5182 L118.056,27.5339 L118.056,28.2995 C118.629,27.862 119.04,27.612 119.29,27.5495 C119.394,27.5287 119.498,27.5182 119.602,27.5182 C120.134,27.5287 120.488,27.8151 120.665,28.3776 C121.196,27.8047 121.743,27.5182 122.306,27.5182 C123.066,27.5287 123.451,28.1276 123.462,29.3151 L123.462,31.362 C123.472,31.7266 123.613,31.9193 123.884,31.9401 L124.149,31.9557 L124.149,32.112 L121.962,32.112 L121.962,31.9557 C122.285,31.9245 122.477,31.8516 122.54,31.737 C122.592,31.6432 122.618,31.4818 122.618,31.2526 L122.618,29.1432 C122.618,28.5912 122.509,28.2578 122.29,28.1432 C122.186,28.0807 122.045,28.0495 121.868,28.0495 C121.42,28.0599 121.056,28.263 120.774,28.6589 L120.774,31.1745 C120.774,31.5495 120.863,31.7839 121.04,31.8776 C121.144,31.9297 121.295,31.9557 121.493,31.9557 L121.493,32.112 L119.259,32.112 L119.259,31.9557 C119.582,31.9349 119.78,31.862 119.852,31.737 C119.915,31.6432 119.946,31.4818 119.946,31.2526 L119.946,29.0964 C119.946,28.3985 119.722,28.0495 119.274,28.0495 C118.91,28.0495 118.587,28.1693 118.306,28.4089 C118.233,28.4818 118.165,28.5599 118.102,28.6432 L118.102,31.4401 C118.102,31.6901 118.191,31.8464 118.368,31.9089 C118.462,31.9401 118.597,31.9557 118.774,31.9557 L118.774,32.112 L116.556,32.112 L116.556,31.9557 C116.91,31.9557 117.123,31.8724 117.196,31.7057 C117.238,31.6016 117.259,31.4557 117.259,31.2682 L117.259,28.7526 C117.259,28.3776 117.181,28.1693 117.024,28.1276 C116.993,28.1172 116.957,28.112 116.915,28.112 C116.811,28.112 116.701,28.1276 116.587,28.1589 M124.712,31.1432 C124.712,30.6328 125.03,30.2005 125.665,29.8464 C125.852,29.7526 126.352,29.5391 127.165,29.2057 C127.186,29.2057 127.201,29.2005 127.212,29.1901 L127.212,28.5807 C127.16,28.0599 126.905,27.7839 126.446,27.7526 C126.134,27.7526 125.915,27.8516 125.79,28.0495 C125.748,28.1224 125.727,28.1849 125.727,28.237 C125.727,28.2995 125.738,28.3828 125.759,28.487 C125.769,28.5599 125.774,28.612 125.774,28.6432 C125.774,28.8203 125.686,28.9453 125.509,29.0182 C125.446,29.0495 125.389,29.0651 125.337,29.0651 C125.149,29.0651 125.019,28.9766 124.946,28.7995 C124.915,28.7474 124.899,28.6901 124.899,28.6276 C124.899,28.263 125.118,27.9662 125.556,27.737 C125.858,27.5912 126.201,27.5182 126.587,27.5182 C127.306,27.5182 127.748,27.7735 127.915,28.2839 C127.988,28.5026 128.024,28.7787 128.024,29.112 L128.024,31.0495 C128.024,31.3828 128.087,31.5703 128.212,31.612 C128.254,31.6224 128.29,31.6276 128.321,31.6276 C128.467,31.6172 128.613,31.5547 128.759,31.4401 L128.759,31.6901 C128.488,32.0026 128.238,32.1745 128.009,32.2057 C127.957,32.2057 127.905,32.2057 127.852,32.2057 C127.54,32.2057 127.342,32.0495 127.259,31.737 C127.238,31.6537 127.227,31.5599 127.227,31.4557 C126.634,31.9349 126.144,32.1849 125.759,32.2057 C125.332,32.2057 125.024,32.0339 124.837,31.6901 C124.754,31.5235 124.712,31.3412 124.712,31.1432 M127.212,30.862 L127.212,29.4245 C126.389,29.7266 125.884,30.0339 125.696,30.3464 C125.623,30.4922 125.587,30.6485 125.587,30.8151 C125.587,31.211 125.733,31.461 126.024,31.5651 C126.097,31.5964 126.165,31.612 126.227,31.612 C126.446,31.6016 126.686,31.5235 126.946,31.3776 C127.092,31.2943 127.175,31.1901 127.196,31.0651 C127.207,31.0026 127.212,30.9349 127.212,30.862 M129.931,28.1901 C129.931,28.1901 129.78,28.2005 129.477,28.2214 L129.477,28.0495 C130.019,27.8828 130.54,27.7057 131.04,27.5182 L131.087,27.5495 L131.087,32.112 C131.087,33.3412 130.675,34.0495 129.852,34.237 C129.707,34.2682 129.556,34.2839 129.399,34.2839 C128.962,34.2839 128.67,34.1745 128.524,33.9557 C128.483,33.8828 128.462,33.8099 128.462,33.737 C128.462,33.5495 128.55,33.4297 128.727,33.3776 C128.78,33.3568 128.826,33.3464 128.868,33.3464 C129.014,33.3464 129.17,33.4505 129.337,33.6589 C129.514,33.8464 129.66,33.9453 129.774,33.9557 C130.004,33.9557 130.144,33.7943 130.196,33.4714 C130.227,33.2735 130.243,32.9714 130.243,32.5651 L130.243,28.7682 C130.243,28.4141 130.165,28.2214 130.009,28.1901 C129.977,28.1901 129.951,28.1901 129.931,28.1901 M130.587,25.2839 C130.806,25.2839 130.962,25.3828 131.056,25.5807 C131.087,25.6537 131.102,25.7266 131.102,25.7995 C131.102,26.0182 130.993,26.1745 130.774,26.2682 C130.712,26.2891 130.649,26.2995 130.587,26.2995 C130.358,26.2995 130.201,26.2005 130.118,26.0026 C130.097,25.9297 130.087,25.862 130.087,25.7995 C130.087,25.5807 130.181,25.4245 130.368,25.3307 C130.441,25.2995 130.514,25.2839 130.587,25.2839 M133.915,27.5182 C134.655,27.5182 135.238,27.7891 135.665,28.3307 C135.967,28.737 136.118,29.2162 136.118,29.7682 C136.118,30.5495 135.863,31.1745 135.352,31.6432 C134.936,32.0182 134.451,32.2057 133.899,32.2057 C133.191,32.2057 132.629,31.9349 132.212,31.3932 C131.879,30.9557 131.712,30.4401 131.712,29.8464 C131.712,29.0339 131.988,28.4089 132.54,27.9714 C132.925,27.6693 133.384,27.5182 133.915,27.5182 M132.618,29.362 C132.618,30.2682 132.806,30.961 133.181,31.4401 C133.42,31.7526 133.701,31.9089 134.024,31.9089 C134.545,31.9089 134.905,31.612 135.102,31.0182 C135.186,30.7578 135.227,30.461 135.227,30.1276 C135.227,29.2422 135.014,28.586 134.587,28.1589 C134.358,27.9297 134.092,27.8151 133.79,27.8151 C133.321,27.8151 132.983,28.0547 132.774,28.5339 C132.67,28.7735 132.618,29.0495 132.618,29.362 M139.477,28.487 C139.373,28.487 139.222,28.4037 139.024,28.237 C138.931,28.1537 138.858,28.112 138.806,28.112 C138.639,28.112 138.467,28.2422 138.29,28.5026 C138.175,28.6693 138.118,28.8151 138.118,28.9401 L138.118,31.2057 C138.118,31.5495 138.207,31.763 138.384,31.8464 C138.509,31.9089 138.701,31.9453 138.962,31.9557 L138.962,32.112 L136.556,32.112 L136.556,31.9557 C136.91,31.8932 137.123,31.8099 137.196,31.7057 C137.248,31.6224 137.274,31.4766 137.274,31.2682 L137.274,28.7526 C137.274,28.388 137.191,28.1901 137.024,28.1589 C136.993,28.1485 136.962,28.1432 136.931,28.1432 C136.816,28.1432 136.701,28.1589 136.587,28.1901 L136.587,28.0339 C137.118,27.8672 137.608,27.6953 138.056,27.5182 L138.118,27.5339 L138.118,28.4245 C138.462,27.9453 138.754,27.6589 138.993,27.5651 C139.097,27.5339 139.201,27.5182 139.306,27.5182 C139.618,27.5182 139.8,27.6485 139.852,27.9089 C139.852,27.9505 139.852,27.9974 139.852,28.0495 C139.821,28.3203 139.696,28.4662 139.477,28.487 M142.712,31.1432 C142.712,30.6328 143.03,30.2005 143.665,29.8464 C143.852,29.7526 144.352,29.5391 145.165,29.2057 C145.186,29.2057 145.201,29.2005 145.212,29.1901 L145.212,28.5807 C145.16,28.0599 144.905,27.7839 144.446,27.7526 C144.134,27.7526 143.915,27.8516 143.79,28.0495 C143.748,28.1224 143.727,28.1849 143.727,28.237 C143.727,28.2995 143.738,28.3828 143.759,28.487 C143.769,28.5599 143.774,28.612 143.774,28.6432 C143.774,28.8203 143.686,28.9453 143.509,29.0182 C143.446,29.0495 143.389,29.0651 143.337,29.0651 C143.149,29.0651 143.019,28.9766 142.946,28.7995 C142.915,28.7474 142.899,28.6901 142.899,28.6276 C142.899,28.263 143.118,27.9662 143.556,27.737 C143.858,27.5912 144.201,27.5182 144.587,27.5182 C145.306,27.5182 145.748,27.7735 145.915,28.2839 C145.988,28.5026 146.024,28.7787 146.024,29.112 L146.024,31.0495 C146.024,31.3828 146.087,31.5703 146.212,31.612 C146.254,31.6224 146.29,31.6276 146.321,31.6276 C146.467,31.6172 146.613,31.5547 146.759,31.4401 L146.759,31.6901 C146.488,32.0026 146.238,32.1745 146.009,32.2057 C145.957,32.2057 145.905,32.2057 145.852,32.2057 C145.54,32.2057 145.342,32.0495 145.259,31.737 C145.238,31.6537 145.227,31.5599 145.227,31.4557 C144.634,31.9349 144.144,32.1849 143.759,32.2057 C143.332,32.2057 143.024,32.0339 142.837,31.6901 C142.754,31.5235 142.712,31.3412 142.712,31.1432 M145.212,30.862 L145.212,29.4245 C144.389,29.7266 143.884,30.0339 143.696,30.3464 C143.623,30.4922 143.587,30.6485 143.587,30.8151 C143.587,31.211 143.733,31.461 144.024,31.5651 C144.097,31.5964 144.165,31.612 144.227,31.612 C144.446,31.6016 144.686,31.5235 144.946,31.3776 C145.092,31.2943 145.175,31.1901 145.196,31.0651 C145.207,31.0026 145.212,30.9349 145.212,30.862 M149.477,28.487 C149.373,28.487 149.222,28.4037 149.024,28.237 C148.931,28.1537 148.858,28.112 148.806,28.112 C148.639,28.112 148.467,28.2422 148.29,28.5026 C148.175,28.6693 148.118,28.8151 148.118,28.9401 L148.118,31.2057 C148.118,31.5495 148.207,31.763 148.384,31.8464 C148.509,31.9089 148.701,31.9453 148.962,31.9557 L148.962,32.112 L146.556,32.112 L146.556,31.9557 C146.91,31.8932 147.123,31.8099 147.196,31.7057 C147.248,31.6224 147.274,31.4766 147.274,31.2682 L147.274,28.7526 C147.274,28.388 147.191,28.1901 147.024,28.1589 C146.993,28.1485 146.962,28.1432 146.931,28.1432 C146.816,28.1432 146.701,28.1589 146.587,28.1901 L146.587,28.0339 C147.118,27.8672 147.608,27.6953 148.056,27.5182 L148.118,27.5339 L148.118,28.4245 C148.462,27.9453 148.754,27.6589 148.993,27.5651 C149.097,27.5339 149.201,27.5182 149.306,27.5182 C149.618,27.5182 149.8,27.6485 149.852,27.9089 C149.852,27.9505 149.852,27.9974 149.852,28.0495 C149.821,28.3203 149.696,28.4662 149.477,28.487 M149.602,28.1901 L149.602,28.0182 C150.03,27.8932 150.509,27.7266 151.04,27.5182 L151.102,27.5339 L151.102,28.2995 C151.53,27.7787 152.009,27.5182 152.54,27.5182 C153.102,27.5182 153.545,27.7787 153.868,28.2995 C154.097,28.6849 154.212,29.1328 154.212,29.6432 C154.212,30.4557 153.962,31.1172 153.462,31.6276 C153.076,32.013 152.629,32.2057 152.118,32.2057 C151.785,32.2057 151.493,32.1068 151.243,31.9089 C151.191,31.8776 151.144,31.8412 151.102,31.7995 L151.102,33.362 C151.102,33.7057 151.17,33.9141 151.306,33.987 C151.431,34.0599 151.655,34.0964 151.977,34.0964 L151.977,34.2839 L149.556,34.2839 L149.556,34.112 C149.91,34.0807 150.123,33.9974 150.196,33.862 C150.238,33.7682 150.259,33.6224 150.259,33.4245 L150.259,28.737 C150.259,28.4453 150.207,28.2735 150.102,28.2214 C150.04,28.1901 149.957,28.1745 149.852,28.1745 C149.738,28.1745 149.655,28.1797 149.602,28.1901 M151.102,28.7839 L151.102,31.2526 C151.102,31.4297 151.248,31.5964 151.54,31.7526 C151.748,31.8568 151.946,31.9089 152.134,31.9089 C152.592,31.9089 152.931,31.6537 153.149,31.1432 C153.285,30.8203 153.352,30.4557 153.352,30.0495 C153.352,29.2266 153.144,28.6537 152.727,28.3307 C152.55,28.1849 152.347,28.112 152.118,28.112 C151.816,28.112 151.545,28.2214 151.306,28.4401 C151.181,28.5547 151.113,28.6693 151.102,28.7839 M155.431,29.3464 C155.472,30.5235 155.858,31.2162 156.587,31.4245 C156.712,31.4662 156.847,31.487 156.993,31.487 C157.483,31.487 157.899,31.2787 158.243,30.862 C158.337,30.7474 158.436,30.612 158.54,30.4557 L158.696,30.5182 C158.332,31.4766 157.759,32.0287 156.977,32.1745 C156.842,32.1953 156.712,32.2057 156.587,32.2057 C155.847,32.2057 155.316,31.8932 154.993,31.2682 C154.806,30.8932 154.712,30.461 154.712,29.9714 C154.712,29.086 154.988,28.4141 155.54,27.9557 C155.905,27.6641 156.326,27.5182 156.806,27.5182 C157.722,27.5182 158.274,28.0391 158.462,29.0807 C158.483,29.1745 158.498,29.263 158.509,29.3464 L155.431,29.3464 M155.446,29.0495 L157.493,29.0495 C157.399,28.4766 157.233,28.1224 156.993,27.987 C156.868,27.9245 156.707,27.8932 156.509,27.8932 C155.915,27.8932 155.561,28.2682 155.446,29.0182 C155.446,29.0287 155.446,29.0391 155.446,29.0495 M159.056,31.5339 C159.056,31.3985 159.134,31.2526 159.29,31.0964 C159.384,31.0026 159.602,30.7995 159.946,30.487 C159.446,30.2266 159.149,29.8985 159.056,29.5026 C159.035,29.388 159.024,29.2682 159.024,29.1432 C159.024,28.612 159.238,28.1849 159.665,27.862 C159.967,27.6328 160.311,27.5182 160.696,27.5182 C160.946,27.5182 161.254,27.586 161.618,27.7214 C161.858,27.8047 162.071,27.8464 162.259,27.8464 L163.024,27.8464 L163.024,28.2214 L162.196,28.2214 C162.321,28.513 162.384,28.7943 162.384,29.0651 C162.384,29.638 162.16,30.0703 161.712,30.362 C161.441,30.5391 161.149,30.6276 160.837,30.6276 C160.743,30.6276 160.55,30.6068 160.259,30.5651 C160.061,30.6276 159.894,30.7682 159.759,30.987 C159.696,31.0703 159.665,31.1432 159.665,31.2057 C159.665,31.362 159.915,31.4505 160.415,31.4714 C160.425,31.4714 160.436,31.4714 160.446,31.4714 L161.727,31.5339 C162.28,31.5443 162.649,31.7474 162.837,32.1432 C162.91,32.2787 162.946,32.4297 162.946,32.5964 C162.946,33.0964 162.634,33.5235 162.009,33.8776 C161.498,34.1485 160.941,34.2839 160.337,34.2839 C159.712,34.2839 159.227,34.1328 158.884,33.8307 C158.707,33.6641 158.618,33.487 158.618,33.2995 C158.618,33.0078 158.832,32.6797 159.259,32.3151 C159.363,32.2318 159.472,32.1432 159.587,32.0495 C159.285,31.9141 159.113,31.7787 159.071,31.6432 C159.061,31.612 159.056,31.5755 159.056,31.5339 M159.806,32.0807 C159.504,32.4557 159.342,32.7162 159.321,32.862 C159.311,32.9037 159.306,32.9453 159.306,32.987 C159.306,33.2891 159.53,33.5078 159.977,33.6432 C160.207,33.7162 160.472,33.7526 160.774,33.7526 C161.608,33.7526 162.175,33.5703 162.477,33.2057 C162.602,33.0495 162.665,32.888 162.665,32.7214 C162.665,32.4714 162.498,32.3151 162.165,32.2526 C161.977,32.2214 161.727,32.2057 161.415,32.2057 C160.748,32.2057 160.212,32.1641 159.806,32.0807 M161.618,29.4714 C161.618,29.0443 161.53,28.6641 161.352,28.3307 C161.155,27.9974 160.899,27.8255 160.587,27.8151 C160.212,27.8151 159.977,28.013 159.884,28.4089 C159.863,28.513 159.852,28.6276 159.852,28.7526 C159.852,29.5547 160.076,30.0651 160.524,30.2839 C160.639,30.3464 160.754,30.3776 160.868,30.3776 C161.233,30.3776 161.467,30.1953 161.571,29.8307 C161.602,29.7162 161.618,29.5964 161.618,29.4714 M164.056,31.5339 C164.056,31.3985 164.134,31.2526 164.29,31.0964 C164.384,31.0026 164.602,30.7995 164.946,30.487 C164.446,30.2266 164.149,29.8985 164.056,29.5026 C164.035,29.388 164.024,29.2682 164.024,29.1432 C164.024,28.612 164.238,28.1849 164.665,27.862 C164.967,27.6328 165.311,27.5182 165.696,27.5182 C165.946,27.5182 166.254,27.586 166.618,27.7214 C166.858,27.8047 167.071,27.8464 167.259,27.8464 L168.024,27.8464 L168.024,28.2214 L167.196,28.2214 C167.321,28.513 167.384,28.7943 167.384,29.0651 C167.384,29.638 167.16,30.0703 166.712,30.362 C166.441,30.5391 166.149,30.6276 165.837,30.6276 C165.743,30.6276 165.55,30.6068 165.259,30.5651 C165.061,30.6276 164.894,30.7682 164.759,30.987 C164.696,31.0703 164.665,31.1432 164.665,31.2057 C164.665,31.362 164.915,31.4505 165.415,31.4714 C165.425,31.4714 165.436,31.4714 165.446,31.4714 L166.727,31.5339 C167.28,31.5443 167.649,31.7474 167.837,32.1432 C167.91,32.2787 167.946,32.4297 167.946,32.5964 C167.946,33.0964 167.634,33.5235 167.009,33.8776 C166.498,34.1485 165.941,34.2839 165.337,34.2839 C164.712,34.2839 164.227,34.1328 163.884,33.8307 C163.707,33.6641 163.618,33.487 163.618,33.2995 C163.618,33.0078 163.832,32.6797 164.259,32.3151 C164.363,32.2318 164.472,32.1432 164.587,32.0495 C164.285,31.9141 164.113,31.7787 164.071,31.6432 C164.061,31.612 164.056,31.5755 164.056,31.5339 M164.806,32.0807 C164.504,32.4557 164.342,32.7162 164.321,32.862 C164.311,32.9037 164.306,32.9453 164.306,32.987 C164.306,33.2891 164.53,33.5078 164.977,33.6432 C165.207,33.7162 165.472,33.7526 165.774,33.7526 C166.608,33.7526 167.175,33.5703 167.477,33.2057 C167.602,33.0495 167.665,32.888 167.665,32.7214 C167.665,32.4714 167.498,32.3151 167.165,32.2526 C166.977,32.2214 166.727,32.2057 166.415,32.2057 C165.748,32.2057 165.212,32.1641 164.806,32.0807 M166.618,29.4714 C166.618,29.0443 166.53,28.6641 166.352,28.3307 C166.155,27.9974 165.899,27.8255 165.587,27.8151 C165.212,27.8151 164.977,28.013 164.884,28.4089 C164.863,28.513 164.852,28.6276 164.852,28.7526 C164.852,29.5547 165.076,30.0651 165.524,30.2839 C165.639,30.3464 165.754,30.3776 165.868,30.3776 C166.233,30.3776 166.467,30.1953 166.571,29.8307 C166.602,29.7162 166.618,29.5964 166.618,29.4714 M169.087,28.1901 C168.931,28.1901 168.79,28.2005 168.665,28.2214 L168.665,28.0651 C169.134,27.9297 169.649,27.7474 170.212,27.5182 L170.243,27.5495 L170.243,31.0964 C170.243,31.4818 170.3,31.7214 170.415,31.8151 C170.509,31.888 170.701,31.9349 170.993,31.9557 L170.993,32.112 L168.618,32.112 L168.618,31.9557 C168.983,31.9349 169.212,31.8672 169.306,31.7526 C169.379,31.638 169.415,31.4193 169.415,31.0964 L169.415,28.7682 C169.415,28.4141 169.332,28.2214 169.165,28.1901 C169.134,28.1901 169.108,28.1901 169.087,28.1901 M169.743,25.2839 C169.962,25.2839 170.118,25.3828 170.212,25.5807 C170.243,25.6537 170.259,25.7266 170.259,25.7995 C170.259,26.0182 170.155,26.1745 169.946,26.2682 C169.873,26.2891 169.806,26.2995 169.743,26.2995 C169.524,26.2995 169.368,26.2005 169.274,26.0026 C169.254,25.9297 169.243,25.862 169.243,25.7995 C169.243,25.5807 169.337,25.4245 169.524,25.3307 C169.597,25.2995 169.67,25.2839 169.743,25.2839 M173.915,27.5182 C174.655,27.5182 175.238,27.7891 175.665,28.3307 C175.967,28.737 176.118,29.2162 176.118,29.7682 C176.118,30.5495 175.863,31.1745 175.352,31.6432 C174.936,32.0182 174.451,32.2057 173.899,32.2057 C173.191,32.2057 172.629,31.9349 172.212,31.3932 C171.879,30.9557 171.712,30.4401 171.712,29.8464 C171.712,29.0339 171.988,28.4089 172.54,27.9714 C172.925,27.6693 173.384,27.5182 173.915,27.5182 M172.618,29.362 C172.618,30.2682 172.806,30.961 173.181,31.4401 C173.42,31.7526 173.701,31.9089 174.024,31.9089 C174.545,31.9089 174.905,31.612 175.102,31.0182 C175.186,30.7578 175.227,30.461 175.227,30.1276 C175.227,29.2422 175.014,28.586 174.587,28.1589 C174.358,27.9297 174.092,27.8151 173.79,27.8151 C173.321,27.8151 172.983,28.0547 172.774,28.5339 C172.67,28.7735 172.618,29.0495 172.618,29.362 M181.915,27.5182 C182.655,27.5182 183.238,27.7891 183.665,28.3307 C183.967,28.737 184.118,29.2162 184.118,29.7682 C184.118,30.5495 183.863,31.1745 183.352,31.6432 C182.936,32.0182 182.451,32.2057 181.899,32.2057 C181.191,32.2057 180.629,31.9349 180.212,31.3932 C179.879,30.9557 179.712,30.4401 179.712,29.8464 C179.712,29.0339 179.988,28.4089 180.54,27.9714 C180.925,27.6693 181.384,27.5182 181.915,27.5182 M180.618,29.362 C180.618,30.2682 180.806,30.961 181.181,31.4401 C181.42,31.7526 181.701,31.9089 182.024,31.9089 C182.545,31.9089 182.905,31.612 183.102,31.0182 C183.186,30.7578 183.227,30.461 183.227,30.1276 C183.227,29.2422 183.014,28.586 182.587,28.1589 C182.358,27.9297 182.092,27.8151 181.79,27.8151 C181.321,27.8151 180.983,28.0547 180.774,28.5339 C180.67,28.7735 180.618,29.0495 180.618,29.362 M184.556,28.1276 L184.556,27.9557 C185.056,27.8099 185.519,27.6641 185.946,27.5182 L186.009,27.5339 L186.009,28.3151 C186.488,27.8776 186.863,27.6224 187.134,27.5495 C187.238,27.5287 187.347,27.5182 187.462,27.5182 C188.004,27.5182 188.363,27.7891 188.54,28.3307 C188.602,28.5287 188.634,28.7526 188.634,29.0026 L188.634,31.2995 C188.634,31.612 188.707,31.8047 188.852,31.8776 C188.946,31.9089 189.076,31.9349 189.243,31.9557 L189.243,32.112 L187.165,32.112 L187.165,31.9557 C187.467,31.9349 187.655,31.836 187.727,31.6589 C187.78,31.5443 187.806,31.3672 187.806,31.1276 L187.806,29.0339 C187.785,28.388 187.54,28.0599 187.071,28.0495 C186.821,28.0495 186.561,28.1641 186.29,28.3932 C186.217,28.4662 186.134,28.5443 186.04,28.6276 L186.04,31.4401 C186.04,31.6797 186.139,31.836 186.337,31.9089 C186.431,31.9297 186.55,31.9453 186.696,31.9557 L186.696,32.112 L184.587,32.112 L184.587,31.9557 C184.879,31.9349 185.061,31.8516 185.134,31.7057 C185.175,31.5912 185.196,31.4245 185.196,31.2057 L185.196,28.7214 C185.196,28.3568 185.123,28.1537 184.977,28.112 C184.936,28.0912 184.889,28.0807 184.837,28.0807 C184.712,28.0807 184.618,28.0964 184.556,28.1276 M190.431,29.3464 C190.472,30.5235 190.858,31.2162 191.587,31.4245 C191.712,31.4662 191.847,31.487 191.993,31.487 C192.483,31.487 192.899,31.2787 193.243,30.862 C193.337,30.7474 193.436,30.612 193.54,30.4557 L193.696,30.5182 C193.332,31.4766 192.759,32.0287 191.977,32.1745 C191.842,32.1953 191.712,32.2057 191.587,32.2057 C190.847,32.2057 190.316,31.8932 189.993,31.2682 C189.806,30.8932 189.712,30.461 189.712,29.9714 C189.712,29.086 189.988,28.4141 190.54,27.9557 C190.905,27.6641 191.326,27.5182 191.806,27.5182 C192.722,27.5182 193.274,28.0391 193.462,29.0807 C193.483,29.1745 193.498,29.263 193.509,29.3464 L190.431,29.3464 M190.446,29.0495 L192.493,29.0495 C192.399,28.4766 192.233,28.1224 191.993,27.987 C191.868,27.9245 191.707,27.8932 191.509,27.8932 C190.915,27.8932 190.561,28.2682 190.446,29.0182 C190.446,29.0287 190.446,29.0391 190.446,29.0495 M198.915,27.5182 C199.655,27.5182 200.238,27.7891 200.665,28.3307 C200.967,28.737 201.118,29.2162 201.118,29.7682 C201.118,30.5495 200.863,31.1745 200.352,31.6432 C199.936,32.0182 199.451,32.2057 198.899,32.2057 C198.191,32.2057 197.629,31.9349 197.212,31.3932 C196.879,30.9557 196.712,30.4401 196.712,29.8464 C196.712,29.0339 196.988,28.4089 197.54,27.9714 C197.925,27.6693 198.384,27.5182 198.915,27.5182 M197.618,29.362 C197.618,30.2682 197.806,30.961 198.181,31.4401 C198.42,31.7526 198.701,31.9089 199.024,31.9089 C199.545,31.9089 199.905,31.612 200.102,31.0182 C200.186,30.7578 200.227,30.461 200.227,30.1276 C200.227,29.2422 200.014,28.586 199.587,28.1589 C199.358,27.9297 199.092,27.8151 198.79,27.8151 C198.321,27.8151 197.983,28.0547 197.774,28.5339 C197.67,28.7735 197.618,29.0495 197.618,29.362 M201.712,29.987 C201.712,29.1432 201.998,28.4818 202.571,28.0026 C202.967,27.6797 203.41,27.5182 203.899,27.5182 C204.451,27.5182 204.879,27.6693 205.181,27.9714 C205.358,28.1485 205.446,28.3412 205.446,28.5495 C205.446,28.7266 205.352,28.8516 205.165,28.9245 C205.092,28.9557 205.024,28.9714 204.962,28.9714 C204.754,28.9714 204.602,28.836 204.509,28.5651 C204.498,28.5443 204.493,28.5235 204.493,28.5026 L204.431,28.2839 C204.368,28.0339 204.254,27.888 204.087,27.8464 C204.014,27.8255 203.931,27.8151 203.837,27.8151 C203.337,27.8151 202.957,28.0547 202.696,28.5339 C202.55,28.8255 202.477,29.1641 202.477,29.5495 C202.477,30.2787 202.701,30.8255 203.149,31.1901 C203.41,31.388 203.701,31.487 204.024,31.487 C204.441,31.487 204.8,31.3203 205.102,30.987 C205.207,30.862 205.321,30.7162 205.446,30.5495 L205.587,30.6432 C205.212,31.362 204.795,31.8307 204.337,32.0495 C204.097,32.1537 203.858,32.2057 203.618,32.2057 C202.972,32.2057 202.467,31.9401 202.102,31.4089 C201.842,31.0026 201.712,30.5287 201.712,29.987 M208.056,27.612 L208.056,27.9089 L207.04,27.9089 L207.04,30.7682 C207.04,31.3099 207.175,31.6068 207.446,31.6589 C207.477,31.6693 207.514,31.6745 207.556,31.6745 C207.764,31.6641 207.967,31.5443 208.165,31.3151 L208.29,31.4401 C207.967,31.9505 207.566,32.2057 207.087,32.2057 C206.504,32.1953 206.207,31.7735 206.196,30.9401 L206.196,27.9089 L205.665,27.9089 C205.644,27.888 205.634,27.8672 205.634,27.8464 C205.634,27.8047 205.675,27.763 205.759,27.7214 C206.04,27.5339 206.373,27.1693 206.759,26.6276 C206.769,26.6172 206.774,26.612 206.774,26.612 C206.879,26.4557 206.946,26.362 206.977,26.3307 C207.019,26.3412 207.04,26.3828 207.04,26.4557 L207.04,27.612 L208.056,27.612 M208.712,31.1432 C208.712,30.6328 209.03,30.2005 209.665,29.8464 C209.852,29.7526 210.352,29.5391 211.165,29.2057 C211.186,29.2057 211.201,29.2005 211.212,29.1901 L211.212,28.5807 C211.16,28.0599 210.905,27.7839 210.446,27.7526 C210.134,27.7526 209.915,27.8516 209.79,28.0495 C209.748,28.1224 209.727,28.1849 209.727,28.237 C209.727,28.2995 209.738,28.3828 209.759,28.487 C209.769,28.5599 209.774,28.612 209.774,28.6432 C209.774,28.8203 209.686,28.9453 209.509,29.0182 C209.446,29.0495 209.389,29.0651 209.337,29.0651 C209.149,29.0651 209.019,28.9766 208.946,28.7995 C208.915,28.7474 208.899,28.6901 208.899,28.6276 C208.899,28.263 209.118,27.9662 209.556,27.737 C209.858,27.5912 210.201,27.5182 210.587,27.5182 C211.306,27.5182 211.748,27.7735 211.915,28.2839 C211.988,28.5026 212.024,28.7787 212.024,29.112 L212.024,31.0495 C212.024,31.3828 212.087,31.5703 212.212,31.612 C212.254,31.6224 212.29,31.6276 212.321,31.6276 C212.467,31.6172 212.613,31.5547 212.759,31.4401 L212.759,31.6901 C212.488,32.0026 212.238,32.1745 212.009,32.2057 C211.957,32.2057 211.905,32.2057 211.852,32.2057 C211.54,32.2057 211.342,32.0495 211.259,31.737 C211.238,31.6537 211.227,31.5599 211.227,31.4557 C210.634,31.9349 210.144,32.1849 209.759,32.2057 C209.332,32.2057 209.024,32.0339 208.837,31.6901 C208.754,31.5235 208.712,31.3412 208.712,31.1432 M211.212,30.862 L211.212,29.4245 C210.389,29.7266 209.884,30.0339 209.696,30.3464 C209.623,30.4922 209.587,30.6485 209.587,30.8151 C209.587,31.211 209.733,31.461 210.024,31.5651 C210.097,31.5964 210.165,31.612 210.227,31.612 C210.446,31.6016 210.686,31.5235 210.946,31.3776 C211.092,31.2943 211.175,31.1901 211.196,31.0651 C211.207,31.0026 211.212,30.9349 211.212,30.862 M217.087,27.612 L217.087,27.7682 C216.92,27.7891 216.795,27.8568 216.712,27.9714 C216.639,28.0755 216.55,28.2682 216.446,28.5495 L215.165,31.7526 C215.03,32.0755 214.936,32.2422 214.884,32.2526 C214.811,32.2526 214.727,32.1068 214.634,31.8151 C214.623,31.8047 214.618,31.7943 214.618,31.7839 L213.415,28.9089 C213.165,28.3151 212.977,27.9662 212.852,27.862 C212.769,27.7995 212.655,27.7682 212.509,27.7682 L212.509,27.612 L214.477,27.612 L214.477,27.7682 C214.196,27.7891 214.045,27.862 214.024,27.987 C214.014,28.0078 214.009,28.0287 214.009,28.0495 C214.009,28.1641 214.04,28.2839 214.102,28.4089 L215.118,30.9714 L216.102,28.3776 C216.144,28.2839 216.165,28.1849 216.165,28.0807 C216.165,27.9037 216.019,27.7995 215.727,27.7682 C215.717,27.7682 215.707,27.7682 215.696,27.7682 L215.696,27.612 L217.087,27.612 M218.431,29.3464 C218.472,30.5235 218.858,31.2162 219.587,31.4245 C219.712,31.4662 219.847,31.487 219.993,31.487 C220.483,31.487 220.899,31.2787 221.243,30.862 C221.337,30.7474 221.436,30.612 221.54,30.4557 L221.696,30.5182 C221.332,31.4766 220.759,32.0287 219.977,32.1745 C219.842,32.1953 219.712,32.2057 219.587,32.2057 C218.847,32.2057 218.316,31.8932 217.993,31.2682 C217.806,30.8932 217.712,30.461 217.712,29.9714 C217.712,29.086 217.988,28.4141 218.54,27.9557 C218.905,27.6641 219.326,27.5182 219.806,27.5182 C220.722,27.5182 221.274,28.0391 221.462,29.0807 C221.483,29.1745 221.498,29.263 221.509,29.3464 L218.431,29.3464 M218.446,29.0495 L220.493,29.0495 C220.399,28.4766 220.233,28.1224 219.993,27.987 C219.868,27.9245 219.707,27.8932 219.509,27.8932 C218.915,27.8932 218.561,28.2682 218.446,29.0182 C218.446,29.0287 218.446,29.0391 218.446,29.0495"/>
</svg>
