<?xml version="1.0" encoding="UTF-8" standalone="no"?>
<svg width="595.44px" height="841.68px" viewBox="0 0 595.44 841.68"
 xmlns="http://www.w3.org/2000/svg" xmlns:xlink="http://www.w3.org/1999/xlink" version="1.2" baseProfile="tiny">
<title>Guitar Scales and Arpeggios</title>
<desc>Generated by MuseScore 2.1.0</desc>
<polyline class="StaffLines" fill="none" stroke="#000000" stroke-width="0.40" stroke-linejoin="bevel" points="28.08,62.856 567.36,62.856"/>
<polyline class="StaffLines" fill="none" stroke="#000000" stroke-width="0.40" stroke-linejoin="bevel" points="28.08,67.824 567.36,67.824"/>
<polyline class="StaffLines" fill="none" stroke="#000000" stroke-width="0.40" stroke-linejoin="bevel" points="28.08,72.792 567.36,72.792"/>
<polyline class="StaffLines" fill="none" stroke="#000000" stroke-width="0.40" stroke-linejoin="bevel" points="28.08,77.76 567.36,77.76"/>
<polyline class="StaffLines" fill="none" stroke="#000000" stroke-width="0.40" stroke-linejoin="bevel" points="28.08,82.728 567.36,82.728"/>
<polyline class="StaffLines" fill="none" stroke="#000000" stroke-width="0.40" stroke-linejoin="bevel" points="28.08,115.02 567.36,115.02"/>
<polyline class="StaffLines" fill="none" stroke="#000000" stroke-width="0.40" stroke-linejoin="bevel" points="28.08,122.472 567.36,122.472"/>
<polyline class="StaffLines" fill="none" stroke="#000000" stroke-width="0.40" stroke-linejoin="bevel" points="28.08,129.924 567.36,129.924"/>
<polyline class="StaffLines" fill="none" stroke="#000000" stroke-width="0.40" stroke-linejoin="bevel" points="28.08,137.376 567.36,137.376"/>
<polyline class="StaffLines" fill="none" stroke="#000000" stroke-width="0.40" stroke-linejoin="bevel" points="28.08,144.828 567.36,144.828"/>
<polyline class="StaffLines" fill="none" stroke="#000000" stroke-width="0.40" stroke-linejoin="bevel" points="28.08,152.28 567.36,152.28"/>
<polyline class="BarLine" fill="none" stroke="#000000" stroke-width="0.79" stroke-linejoin="bevel" points="28.4774,62.856 28.4774,152.28"/>
<polyline class="BarLine" fill="none" stroke="#000000" stroke-width="0.79" stroke-linejoin="bevel" points="562.491,115.02 562.491,152.28"/>
<polyline class="BarLine" fill="none" stroke="#000000" stroke-width="2.48" stroke-linejoin="bevel" points="566.118,115.02 566.118,152.28"/>
<polyline class="BarLine" fill="none" stroke="#000000" stroke-width="0.79" stroke-linejoin="bevel" points="562.491,62.856 562.491,82.728"/>
<polyline class="BarLine" fill="none" stroke="#000000" stroke-width="2.48" stroke-linejoin="bevel" points="566.118,62.856 566.118,82.728"/>
<polyline class="Stem" fill="none" stroke="#000000" stroke-width="0.65" stroke-linecap="round" stroke-linejoin="bevel" points="517.656,76.9969 517.656,60.993"/>
<polyline class="Stem" fill="none" stroke="#000000" stroke-width="0.65" stroke-linecap="round" stroke-linejoin="bevel" points="485.705,74.3429 485.705,59.13"/>
<polyline class="Stem" fill="none" stroke="#000000" stroke-width="0.65" stroke-linecap="round" stroke-linejoin="bevel" points="448.039,73.7251 448.039,88.317"/>
<polyline class="Stem" fill="none" stroke="#000000" stroke-width="0.65" stroke-linecap="round" stroke-linejoin="bevel" points="416.267,71.2411 416.267,86.454"/>
<polyline class="Stem" fill="none" stroke="#000000" stroke-width="0.65" stroke-linecap="round" stroke-linejoin="bevel" points="384.495,68.7571 384.495,84.591"/>
<polyline class="Stem" fill="none" stroke="#000000" stroke-width="0.65" stroke-linecap="round" stroke-linejoin="bevel" points="352.724,66.2731 352.724,82.728"/>
<polyline class="Stem" fill="none" stroke="#000000" stroke-width="0.65" stroke-linecap="round" stroke-linejoin="bevel" points="320.952,63.7891 320.952,80.244"/>
<polyline class="Stem" fill="none" stroke="#000000" stroke-width="0.65" stroke-linecap="round" stroke-linejoin="bevel" points="289.18,61.3051 289.18,77.76"/>
<polyline class="Stem" fill="none" stroke="#000000" stroke-width="0.65" stroke-linecap="round" stroke-linejoin="bevel" points="257.409,63.7891 257.409,80.244"/>
<polyline class="Stem" fill="none" stroke="#000000" stroke-width="0.65" stroke-linecap="round" stroke-linejoin="bevel" points="225.637,66.2731 225.637,82.728"/>
<polyline class="Stem" fill="none" stroke="#000000" stroke-width="0.65" stroke-linecap="round" stroke-linejoin="bevel" points="193.865,68.7571 193.865,84.591"/>
<polyline class="Stem" fill="none" stroke="#000000" stroke-width="0.65" stroke-linecap="round" stroke-linejoin="bevel" points="162.093,71.2411 162.093,86.454"/>
<polyline class="Stem" fill="none" stroke="#000000" stroke-width="0.65" stroke-linecap="round" stroke-linejoin="bevel" points="130.322,73.7251 130.322,88.317"/>
<polyline class="Stem" fill="none" stroke="#000000" stroke-width="0.65" stroke-linecap="round" stroke-linejoin="bevel" points="104.445,74.3429 104.445,59.13"/>
<polyline class="Stem" fill="none" stroke="#000000" stroke-width="0.65" stroke-linecap="round" stroke-linejoin="bevel" points="72.6732,76.8269 72.6732,60.993"/>
<path class="Note" fill="#ffffff" fill-rule="evenodd" d="M512.004,126.198 L517.966,126.198 L517.966,133.65 L512.004,133.65 L512.004,126.198 "/>
<path class="Note" transform="matrix(0.9936,0,0,0.9936,512.501,133.402)" d="M0.390625,-3.09375 C0.390625,-5 0.927083,-6.07813 2,-6.32813 C2.14583,-6.36979 2.30208,-6.39063 2.46875,-6.39063 C3.78125,-6.39063 4.47917,-5.40104 4.5625,-3.42188 C4.5625,-3.28646 4.5625,-3.15625 4.5625,-3.03125 C4.5625,-1.40625 4.15104,-0.385417 3.32813,0.03125 C3.06771,0.145833 2.78125,0.203125 2.46875,0.203125 C1.41667,0.203125 0.760417,-0.442708 0.5,-1.73438 C0.427083,-2.14063 0.390625,-2.59375 0.390625,-3.09375 M2.46875,-5.64063 C1.625,-5.63021 1.20313,-4.77083 1.20313,-3.0625 C1.20313,-1.32292 1.61979,-0.453125 2.45313,-0.453125 C3.16146,-0.453125 3.57813,-1.02604 3.70313,-2.17188 C3.73438,-2.44271 3.75,-2.75 3.75,-3.09375 C3.75,-4.79167 3.32292,-5.64063 2.46875,-5.64063"/>
<path class="Note" fill="#99cc33" transform="matrix(0.9936,0,0,0.9936,511.08,77.76)" d="M6.3125,-1.3125 C6.3125,-1.53125 6.22917,-1.71875 6.0625,-1.875 C5.88542,-2.04167 5.6875,-2.125 5.46875,-2.125 C5.08333,-2.125 4.29688,-1.73438 3.10938,-0.953125 C1.88021,-0.161458 1.13021,0.40625 0.859375,0.75 C0.713542,0.927083 0.640625,1.11458 0.640625,1.3125 C0.640625,1.53125 0.729167,1.71875 0.90625,1.875 C1.0625,2.04167 1.25521,2.125 1.48438,2.125 C1.85938,2.125 2.65625,1.73438 3.875,0.953125 C5.07292,0.171875 5.8125,-0.395833 6.09375,-0.75 C6.23958,-0.916667 6.3125,-1.10417 6.3125,-1.3125 M5.28125,-2.75 C6.39583,-2.75 6.95313,-2.27083 6.95313,-1.3125 C6.95313,-0.84375 6.81771,-0.296875 6.54688,0.328125 C6.27604,0.942708 5.91146,1.41146 5.45313,1.73438 C4.45313,2.41146 3.19792,2.75 1.6875,2.75 C0.5625,2.75 0,2.27083 0,1.3125 C0,0.885417 0.135417,0.34375 0.40625,-0.3125 C0.666667,-0.9375 1.03125,-1.41146 1.5,-1.73438 C2.51042,-2.41146 3.77083,-2.75 5.28125,-2.75"/>
<path class="Note" fill="#ffffff" fill-rule="evenodd" d="M480.233,126.198 L486.194,126.198 L486.194,133.65 L480.233,133.65 L480.233,126.198 "/>
<path class="Note" transform="matrix(0.9936,0,0,0.9936,480.73,133.402)" d="M0.453125,-4.17188 C0.494792,-5.64063 1.19792,-6.38021 2.5625,-6.39063 C3.28125,-6.39063 3.83333,-6.14583 4.21875,-5.65625 C4.46875,-5.32292 4.59375,-4.93229 4.59375,-4.48438 C4.59375,-3.68229 4.14583,-3.03125 3.25,-2.53125 L2.34375,-2.04688 C1.79167,-1.75521 1.44271,-1.4375 1.29688,-1.09375 C1.24479,-0.989583 1.21354,-0.869792 1.20313,-0.734375 L4.5625,-0.734375 L4.5625,0 L0.3125,0 C0.354167,-0.760417 0.520833,-1.33854 0.8125,-1.73438 C1.07292,-2.05729 1.5,-2.38542 2.09375,-2.71875 L2.92188,-3.1875 C3.49479,-3.52083 3.78646,-3.94271 3.79688,-4.45313 C3.79688,-4.88021 3.61458,-5.21354 3.25,-5.45313 C3.04167,-5.57813 2.80208,-5.64063 2.53125,-5.64063 C1.73958,-5.64063 1.3125,-5.16667 1.25,-4.21875 C1.25,-4.19792 1.25,-4.18229 1.25,-4.17188 L0.453125,-4.17188 "/>
<path class="Note" fill="#cc00ff" transform="matrix(0.9936,0,0,0.9936,479.488,75.276)" d="M4.39063,-2.75 C5.01563,-2.75 5.54688,-2.58854 5.98438,-2.26563 C6.38021,-1.91146 6.57813,-1.46875 6.57813,-0.9375 C6.57813,-0.0416667 6.11979,0.796875 5.20313,1.57813 C4.26563,2.35938 3.26042,2.75 2.1875,2.75 C1.5625,2.75 1.03646,2.58854 0.609375,2.26563 C0.203125,1.91146 0,1.46875 0,0.9375 C0,0.0416667 0.46875,-0.796875 1.40625,-1.57813 C2.32292,-2.35938 3.31771,-2.75 4.39063,-2.75"/>
<path class="Note" fill="#ffffff" fill-rule="evenodd" d="M448.461,118.746 L454.423,118.746 L454.423,126.198 L448.461,126.198 L448.461,118.746 "/>
<path class="Note" transform="matrix(0.9936,0,0,0.9936,448.958,125.95)" d="M0.390625,-3.09375 C0.390625,-5 0.927083,-6.07813 2,-6.32813 C2.14583,-6.36979 2.30208,-6.39063 2.46875,-6.39063 C3.78125,-6.39063 4.47917,-5.40104 4.5625,-3.42188 C4.5625,-3.28646 4.5625,-3.15625 4.5625,-3.03125 C4.5625,-1.40625 4.15104,-0.385417 3.32813,0.03125 C3.06771,0.145833 2.78125,0.203125 2.46875,0.203125 C1.41667,0.203125 0.760417,-0.442708 0.5,-1.73438 C0.427083,-2.14063 0.390625,-2.59375 0.390625,-3.09375 M2.46875,-5.64063 C1.625,-5.63021 1.20313,-4.77083 1.20313,-3.0625 C1.20313,-1.32292 1.61979,-0.453125 2.45313,-0.453125 C3.16146,-0.453125 3.57813,-1.02604 3.70313,-2.17188 C3.73438,-2.44271 3.75,-2.75 3.75,-3.09375 C3.75,-4.79167 3.32292,-5.64063 2.46875,-5.64063"/>
<path class="Note" fill="#ff9ee6" transform="matrix(0.9936,0,0,0.9936,447.716,72.792)" d="M4.39063,-2.75 C5.01563,-2.75 5.54688,-2.58854 5.98438,-2.26563 C6.38021,-1.91146 6.57813,-1.46875 6.57813,-0.9375 C6.57813,-0.0416667 6.11979,0.796875 5.20313,1.57813 C4.26563,2.35938 3.26042,2.75 2.1875,2.75 C1.5625,2.75 1.03646,2.58854 0.609375,2.26563 C0.203125,1.91146 0,1.46875 0,0.9375 C0,0.0416667 0.46875,-0.796875 1.40625,-1.57813 C2.32292,-2.35938 3.31771,-2.75 4.39063,-2.75"/>
<path class="Note" fill="#ffffff" fill-rule="evenodd" d="M416.689,118.746 L422.651,118.746 L422.651,126.198 L416.689,126.198 L416.689,118.746 "/>
<path class="Note" transform="matrix(0.9936,0,0,0.9936,417.186,125.95)" d="M2.32813,-4.54688 L0.921875,-4.54688 L0.921875,-5.10938 C1.53646,-5.19271 1.93229,-5.30208 2.10938,-5.4375 C2.28646,-5.57292 2.4375,-5.85417 2.5625,-6.28125 C2.57292,-6.3125 2.58854,-6.34896 2.60938,-6.39063 L3.125,-6.39063 L3.125,0 L2.32813,0 L2.32813,-4.54688 "/>
<path class="Note" fill="#ed2929" transform="matrix(0.9936,0,0,0.9936,415.944,70.308)" d="M4.39063,-2.75 C5.01563,-2.75 5.54688,-2.58854 5.98438,-2.26563 C6.38021,-1.91146 6.57813,-1.46875 6.57813,-0.9375 C6.57813,-0.0416667 6.11979,0.796875 5.20313,1.57813 C4.26563,2.35938 3.26042,2.75 2.1875,2.75 C1.5625,2.75 1.03646,2.58854 0.609375,2.26563 C0.203125,1.91146 0,1.46875 0,0.9375 C0,0.0416667 0.46875,-0.796875 1.40625,-1.57813 C2.32292,-2.35938 3.31771,-2.75 4.39063,-2.75"/>
<path class="Note" fill="#ffffff" fill-rule="evenodd" d="M384.918,118.746 L390.879,118.746 L390.879,126.198 L384.918,126.198 L384.918,118.746 "/>
<path class="Note" transform="matrix(0.9936,0,0,0.9936,385.414,125.95)" d="M2.4375,-5.64063 C1.75,-5.64063 1.35417,-5.32813 1.25,-4.70313 C1.22917,-4.59896 1.21875,-4.47917 1.21875,-4.34375 L0.421875,-4.34375 C0.442708,-5.59375 1.01563,-6.27083 2.14063,-6.375 C2.23438,-6.38542 2.32813,-6.39063 2.42188,-6.39063 C3.26563,-6.39063 3.84375,-6.10938 4.15625,-5.54688 C4.29167,-5.28646 4.35938,-4.98438 4.35938,-4.64063 C4.35938,-4.00521 4.0625,-3.57292 3.46875,-3.34375 C4.03125,-3.14583 4.375,-2.81771 4.5,-2.35938 C4.54167,-2.19271 4.5625,-2.00521 4.5625,-1.79688 C4.5625,-1.05729 4.27604,-0.505208 3.70313,-0.140625 C3.33854,0.0885417 2.90104,0.203125 2.39063,0.203125 C1.21354,0.203125 0.526042,-0.348958 0.328125,-1.45313 C0.317708,-1.57813 0.302083,-1.71354 0.28125,-1.85938 L1.07813,-1.85938 C1.13021,-1.08854 1.46875,-0.65625 2.09375,-0.5625 C2.19792,-0.541667 2.30729,-0.53125 2.42188,-0.53125 C3.04688,-0.53125 3.45313,-0.765625 3.64063,-1.23438 C3.71354,-1.40104 3.75,-1.58854 3.75,-1.79688 C3.73958,-2.54688 3.29688,-2.92708 2.42188,-2.9375 L2.09375,-2.92188 L1.98438,-2.92188 L1.98438,-3.67188 C2.66146,-3.68229 3.10417,-3.77604 3.3125,-3.95313 C3.47917,-4.09896 3.5625,-4.31771 3.5625,-4.60938 C3.5625,-5.09896 3.34896,-5.41667 2.92188,-5.5625 C2.77604,-5.61458 2.61458,-5.64063 2.4375,-5.64063"/>
<path class="Note" fill="#78c7c7" transform="matrix(0.9936,0,0,0.9936,384.172,67.824)" d="M4.39063,-2.75 C5.01563,-2.75 5.54688,-2.58854 5.98438,-2.26563 C6.38021,-1.91146 6.57813,-1.46875 6.57813,-0.9375 C6.57813,-0.0416667 6.11979,0.796875 5.20313,1.57813 C4.26563,2.35938 3.26042,2.75 2.1875,2.75 C1.5625,2.75 1.03646,2.58854 0.609375,2.26563 C0.203125,1.91146 0,1.46875 0,0.9375 C0,0.0416667 0.46875,-0.796875 1.40625,-1.57813 C2.32292,-2.35938 3.31771,-2.75 4.39063,-2.75"/>
<path class="Note" fill="#ffffff" fill-rule="evenodd" d="M353.146,111.294 L359.108,111.294 L359.108,118.746 L353.146,118.746 L353.146,111.294 "/>
<path class="Note" transform="matrix(0.9936,0,0,0.9936,353.643,118.498)" d="M0.390625,-3.09375 C0.390625,-5 0.927083,-6.07813 2,-6.32813 C2.14583,-6.36979 2.30208,-6.39063 2.46875,-6.39063 C3.78125,-6.39063 4.47917,-5.40104 4.5625,-3.42188 C4.5625,-3.28646 4.5625,-3.15625 4.5625,-3.03125 C4.5625,-1.40625 4.15104,-0.385417 3.32813,0.03125 C3.06771,0.145833 2.78125,0.203125 2.46875,0.203125 C1.41667,0.203125 0.760417,-0.442708 0.5,-1.73438 C0.427083,-2.14063 0.390625,-2.59375 0.390625,-3.09375 M2.46875,-5.64063 C1.625,-5.63021 1.20313,-4.77083 1.20313,-3.0625 C1.20313,-1.32292 1.61979,-0.453125 2.45313,-0.453125 C3.16146,-0.453125 3.57813,-1.02604 3.70313,-2.17188 C3.73438,-2.44271 3.75,-2.75 3.75,-3.09375 C3.75,-4.79167 3.32292,-5.64063 2.46875,-5.64063"/>
<path class="Note" fill="#ff9933" transform="matrix(0.9936,0,0,0.9936,352.401,65.34)" d="M4.39063,-2.75 C5.01563,-2.75 5.54688,-2.58854 5.98438,-2.26563 C6.38021,-1.91146 6.57813,-1.46875 6.57813,-0.9375 C6.57813,-0.0416667 6.11979,0.796875 5.20313,1.57813 C4.26563,2.35938 3.26042,2.75 2.1875,2.75 C1.5625,2.75 1.03646,2.58854 0.609375,2.26563 C0.203125,1.91146 0,1.46875 0,0.9375 C0,0.0416667 0.46875,-0.796875 1.40625,-1.57813 C2.32292,-2.35938 3.31771,-2.75 4.39063,-2.75"/>
<path class="Note" fill="#ffffff" fill-rule="evenodd" d="M321.374,111.294 L327.336,111.294 L327.336,118.746 L321.374,118.746 L321.374,111.294 "/>
<path class="Note" transform="matrix(0.9936,0,0,0.9936,321.871,118.498)" d="M0.453125,-4.17188 C0.494792,-5.64063 1.19792,-6.38021 2.5625,-6.39063 C3.28125,-6.39063 3.83333,-6.14583 4.21875,-5.65625 C4.46875,-5.32292 4.59375,-4.93229 4.59375,-4.48438 C4.59375,-3.68229 4.14583,-3.03125 3.25,-2.53125 L2.34375,-2.04688 C1.79167,-1.75521 1.44271,-1.4375 1.29688,-1.09375 C1.24479,-0.989583 1.21354,-0.869792 1.20313,-0.734375 L4.5625,-0.734375 L4.5625,0 L0.3125,0 C0.354167,-0.760417 0.520833,-1.33854 0.8125,-1.73438 C1.07292,-2.05729 1.5,-2.38542 2.09375,-2.71875 L2.92188,-3.1875 C3.49479,-3.52083 3.78646,-3.94271 3.79688,-4.45313 C3.79688,-4.88021 3.61458,-5.21354 3.25,-5.45313 C3.04167,-5.57813 2.80208,-5.64063 2.53125,-5.64063 C1.73958,-5.64063 1.3125,-5.16667 1.25,-4.21875 C1.25,-4.19792 1.25,-4.18229 1.25,-4.17188 L0.453125,-4.17188 "/>
<path class="Note" fill="#286704" transform="matrix(0.9936,0,0,0.9936,320.629,62.856)" d="M4.39063,-2.75 C5.01563,-2.75 5.54688,-2.58854 5.98438,-2.26563 C6.38021,-1.91146 6.57813,-1.46875 6.57813,-0.9375 C6.57813,-0.0416667 6.11979,0.796875 5.20313,1.57813 C4.26563,2.35938 3.26042,2.75 2.1875,2.75 C1.5625,2.75 1.03646,2.58854 0.609375,2.26563 C0.203125,1.91146 0,1.46875 0,0.9375 C0,0.0416667 0.46875,-0.796875 1.40625,-1.57813 C2.32292,-2.35938 3.31771,-2.75 4.39063,-2.75"/>
<path class="Note" fill="#ffffff" fill-rule="evenodd" d="M289.603,111.294 L295.564,111.294 L295.564,118.746 L289.603,118.746 L289.603,111.294 "/>
<path class="Note" transform="matrix(0.9936,0,0,0.9936,290.099,118.498)" d="M2.4375,-5.64063 C1.75,-5.64063 1.35417,-5.32813 1.25,-4.70313 C1.22917,-4.59896 1.21875,-4.47917 1.21875,-4.34375 L0.421875,-4.34375 C0.442708,-5.59375 1.01563,-6.27083 2.14063,-6.375 C2.23438,-6.38542 2.32813,-6.39063 2.42188,-6.39063 C3.26563,-6.39063 3.84375,-6.10938 4.15625,-5.54688 C4.29167,-5.28646 4.35938,-4.98438 4.35938,-4.64063 C4.35938,-4.00521 4.0625,-3.57292 3.46875,-3.34375 C4.03125,-3.14583 4.375,-2.81771 4.5,-2.35938 C4.54167,-2.19271 4.5625,-2.00521 4.5625,-1.79688 C4.5625,-1.05729 4.27604,-0.505208 3.70313,-0.140625 C3.33854,0.0885417 2.90104,0.203125 2.39063,0.203125 C1.21354,0.203125 0.526042,-0.348958 0.328125,-1.45313 C0.317708,-1.57813 0.302083,-1.71354 0.28125,-1.85938 L1.07813,-1.85938 C1.13021,-1.08854 1.46875,-0.65625 2.09375,-0.5625 C2.19792,-0.541667 2.30729,-0.53125 2.42188,-0.53125 C3.04688,-0.53125 3.45313,-0.765625 3.64063,-1.23438 C3.71354,-1.40104 3.75,-1.58854 3.75,-1.79688 C3.73958,-2.54688 3.29688,-2.92708 2.42188,-2.9375 L2.09375,-2.92188 L1.98438,-2.92188 L1.98438,-3.67188 C2.66146,-3.68229 3.10417,-3.77604 3.3125,-3.95313 C3.47917,-4.09896 3.5625,-4.31771 3.5625,-4.60938 C3.5625,-5.09896 3.34896,-5.41667 2.92188,-5.5625 C2.77604,-5.61458 2.61458,-5.64063 2.4375,-5.64063"/>
<path class="Note" fill="#99cc33" transform="matrix(0.9936,0,0,0.9936,288.857,60.372)" d="M4.39063,-2.75 C5.01563,-2.75 5.54688,-2.58854 5.98438,-2.26563 C6.38021,-1.91146 6.57813,-1.46875 6.57813,-0.9375 C6.57813,-0.0416667 6.11979,0.796875 5.20313,1.57813 C4.26563,2.35938 3.26042,2.75 2.1875,2.75 C1.5625,2.75 1.03646,2.58854 0.609375,2.26563 C0.203125,1.91146 0,1.46875 0,0.9375 C0,0.0416667 0.46875,-0.796875 1.40625,-1.57813 C2.32292,-2.35938 3.31771,-2.75 4.39063,-2.75"/>
<path class="Note" fill="#ffffff" fill-rule="evenodd" d="M257.831,111.294 L263.792,111.294 L263.792,118.746 L257.831,118.746 L257.831,111.294 "/>
<path class="Note" transform="matrix(0.9936,0,0,0.9936,258.328,118.498)" d="M0.453125,-4.17188 C0.494792,-5.64063 1.19792,-6.38021 2.5625,-6.39063 C3.28125,-6.39063 3.83333,-6.14583 4.21875,-5.65625 C4.46875,-5.32292 4.59375,-4.93229 4.59375,-4.48438 C4.59375,-3.68229 4.14583,-3.03125 3.25,-2.53125 L2.34375,-2.04688 C1.79167,-1.75521 1.44271,-1.4375 1.29688,-1.09375 C1.24479,-0.989583 1.21354,-0.869792 1.20313,-0.734375 L4.5625,-0.734375 L4.5625,0 L0.3125,0 C0.354167,-0.760417 0.520833,-1.33854 0.8125,-1.73438 C1.07292,-2.05729 1.5,-2.38542 2.09375,-2.71875 L2.92188,-3.1875 C3.49479,-3.52083 3.78646,-3.94271 3.79688,-4.45313 C3.79688,-4.88021 3.61458,-5.21354 3.25,-5.45313 C3.04167,-5.57813 2.80208,-5.64063 2.53125,-5.64063 C1.73958,-5.64063 1.3125,-5.16667 1.25,-4.21875 C1.25,-4.19792 1.25,-4.18229 1.25,-4.17188 L0.453125,-4.17188 "/>
<path class="Note" fill="#286704" transform="matrix(0.9936,0,0,0.9936,257.086,62.856)" d="M4.39063,-2.75 C5.01563,-2.75 5.54688,-2.58854 5.98438,-2.26563 C6.38021,-1.91146 6.57813,-1.46875 6.57813,-0.9375 C6.57813,-0.0416667 6.11979,0.796875 5.20313,1.57813 C4.26563,2.35938 3.26042,2.75 2.1875,2.75 C1.5625,2.75 1.03646,2.58854 0.609375,2.26563 C0.203125,1.91146 0,1.46875 0,0.9375 C0,0.0416667 0.46875,-0.796875 1.40625,-1.57813 C2.32292,-2.35938 3.31771,-2.75 4.39063,-2.75"/>
<path class="Note" fill="#ffffff" fill-rule="evenodd" d="M226.059,111.294 L232.021,111.294 L232.021,118.746 L226.059,118.746 L226.059,111.294 "/>
<path class="Note" transform="matrix(0.9936,0,0,0.9936,226.556,118.498)" d="M0.390625,-3.09375 C0.390625,-5 0.927083,-6.07813 2,-6.32813 C2.14583,-6.36979 2.30208,-6.39063 2.46875,-6.39063 C3.78125,-6.39063 4.47917,-5.40104 4.5625,-3.42188 C4.5625,-3.28646 4.5625,-3.15625 4.5625,-3.03125 C4.5625,-1.40625 4.15104,-0.385417 3.32813,0.03125 C3.06771,0.145833 2.78125,0.203125 2.46875,0.203125 C1.41667,0.203125 0.760417,-0.442708 0.5,-1.73438 C0.427083,-2.14063 0.390625,-2.59375 0.390625,-3.09375 M2.46875,-5.64063 C1.625,-5.63021 1.20313,-4.77083 1.20313,-3.0625 C1.20313,-1.32292 1.61979,-0.453125 2.45313,-0.453125 C3.16146,-0.453125 3.57813,-1.02604 3.70313,-2.17188 C3.73438,-2.44271 3.75,-2.75 3.75,-3.09375 C3.75,-4.79167 3.32292,-5.64063 2.46875,-5.64063"/>
<path class="Note" fill="#ff9933" transform="matrix(0.9936,0,0,0.9936,225.314,65.34)" d="M4.39063,-2.75 C5.01563,-2.75 5.54688,-2.58854 5.98438,-2.26563 C6.38021,-1.91146 6.57813,-1.46875 6.57813,-0.9375 C6.57813,-0.0416667 6.11979,0.796875 5.20313,1.57813 C4.26563,2.35938 3.26042,2.75 2.1875,2.75 C1.5625,2.75 1.03646,2.58854 0.609375,2.26563 C0.203125,1.91146 0,1.46875 0,0.9375 C0,0.0416667 0.46875,-0.796875 1.40625,-1.57813 C2.32292,-2.35938 3.31771,-2.75 4.39063,-2.75"/>
<path class="Note" fill="#ffffff" fill-rule="evenodd" d="M194.287,118.746 L200.249,118.746 L200.249,126.198 L194.287,126.198 L194.287,118.746 "/>
<path class="Note" transform="matrix(0.9936,0,0,0.9936,194.784,125.95)" d="M2.4375,-5.64063 C1.75,-5.64063 1.35417,-5.32813 1.25,-4.70313 C1.22917,-4.59896 1.21875,-4.47917 1.21875,-4.34375 L0.421875,-4.34375 C0.442708,-5.59375 1.01563,-6.27083 2.14063,-6.375 C2.23438,-6.38542 2.32813,-6.39063 2.42188,-6.39063 C3.26563,-6.39063 3.84375,-6.10938 4.15625,-5.54688 C4.29167,-5.28646 4.35938,-4.98438 4.35938,-4.64063 C4.35938,-4.00521 4.0625,-3.57292 3.46875,-3.34375 C4.03125,-3.14583 4.375,-2.81771 4.5,-2.35938 C4.54167,-2.19271 4.5625,-2.00521 4.5625,-1.79688 C4.5625,-1.05729 4.27604,-0.505208 3.70313,-0.140625 C3.33854,0.0885417 2.90104,0.203125 2.39063,0.203125 C1.21354,0.203125 0.526042,-0.348958 0.328125,-1.45313 C0.317708,-1.57813 0.302083,-1.71354 0.28125,-1.85938 L1.07813,-1.85938 C1.13021,-1.08854 1.46875,-0.65625 2.09375,-0.5625 C2.19792,-0.541667 2.30729,-0.53125 2.42188,-0.53125 C3.04688,-0.53125 3.45313,-0.765625 3.64063,-1.23438 C3.71354,-1.40104 3.75,-1.58854 3.75,-1.79688 C3.73958,-2.54688 3.29688,-2.92708 2.42188,-2.9375 L2.09375,-2.92188 L1.98438,-2.92188 L1.98438,-3.67188 C2.66146,-3.68229 3.10417,-3.77604 3.3125,-3.95313 C3.47917,-4.09896 3.5625,-4.31771 3.5625,-4.60938 C3.5625,-5.09896 3.34896,-5.41667 2.92188,-5.5625 C2.77604,-5.61458 2.61458,-5.64063 2.4375,-5.64063"/>
<path class="Note" fill="#78c7c7" transform="matrix(0.9936,0,0,0.9936,193.542,67.824)" d="M4.39063,-2.75 C5.01563,-2.75 5.54688,-2.58854 5.98438,-2.26563 C6.38021,-1.91146 6.57813,-1.46875 6.57813,-0.9375 C6.57813,-0.0416667 6.11979,0.796875 5.20313,1.57813 C4.26563,2.35938 3.26042,2.75 2.1875,2.75 C1.5625,2.75 1.03646,2.58854 0.609375,2.26563 C0.203125,1.91146 0,1.46875 0,0.9375 C0,0.0416667 0.46875,-0.796875 1.40625,-1.57813 C2.32292,-2.35938 3.31771,-2.75 4.39063,-2.75"/>
<path class="Note" fill="#ffffff" fill-rule="evenodd" d="M162.516,118.746 L168.477,118.746 L168.477,126.198 L162.516,126.198 L162.516,118.746 "/>
<path class="Note" transform="matrix(0.9936,0,0,0.9936,163.013,125.95)" d="M2.32813,-4.54688 L0.921875,-4.54688 L0.921875,-5.10938 C1.53646,-5.19271 1.93229,-5.30208 2.10938,-5.4375 C2.28646,-5.57292 2.4375,-5.85417 2.5625,-6.28125 C2.57292,-6.3125 2.58854,-6.34896 2.60938,-6.39063 L3.125,-6.39063 L3.125,0 L2.32813,0 L2.32813,-4.54688 "/>
<path class="Note" fill="#ed2929" transform="matrix(0.9936,0,0,0.9936,161.771,70.308)" d="M4.39063,-2.75 C5.01563,-2.75 5.54688,-2.58854 5.98438,-2.26563 C6.38021,-1.91146 6.57813,-1.46875 6.57813,-0.9375 C6.57813,-0.0416667 6.11979,0.796875 5.20313,1.57813 C4.26563,2.35938 3.26042,2.75 2.1875,2.75 C1.5625,2.75 1.03646,2.58854 0.609375,2.26563 C0.203125,1.91146 0,1.46875 0,0.9375 C0,0.0416667 0.46875,-0.796875 1.40625,-1.57813 C2.32292,-2.35938 3.31771,-2.75 4.39063,-2.75"/>
<path class="Note" fill="#ffffff" fill-rule="evenodd" d="M130.744,118.746 L136.706,118.746 L136.706,126.198 L130.744,126.198 L130.744,118.746 "/>
<path class="Note" transform="matrix(0.9936,0,0,0.9936,131.241,125.95)" d="M0.390625,-3.09375 C0.390625,-5 0.927083,-6.07813 2,-6.32813 C2.14583,-6.36979 2.30208,-6.39063 2.46875,-6.39063 C3.78125,-6.39063 4.47917,-5.40104 4.5625,-3.42188 C4.5625,-3.28646 4.5625,-3.15625 4.5625,-3.03125 C4.5625,-1.40625 4.15104,-0.385417 3.32813,0.03125 C3.06771,0.145833 2.78125,0.203125 2.46875,0.203125 C1.41667,0.203125 0.760417,-0.442708 0.5,-1.73438 C0.427083,-2.14063 0.390625,-2.59375 0.390625,-3.09375 M2.46875,-5.64063 C1.625,-5.63021 1.20313,-4.77083 1.20313,-3.0625 C1.20313,-1.32292 1.61979,-0.453125 2.45313,-0.453125 C3.16146,-0.453125 3.57813,-1.02604 3.70313,-2.17188 C3.73438,-2.44271 3.75,-2.75 3.75,-3.09375 C3.75,-4.79167 3.32292,-5.64063 2.46875,-5.64063"/>
<path class="Note" fill="#ff9ee6" transform="matrix(0.9936,0,0,0.9936,129.999,72.792)" d="M4.39063,-2.75 C5.01563,-2.75 5.54688,-2.58854 5.98438,-2.26563 C6.38021,-1.91146 6.57813,-1.46875 6.57813,-0.9375 C6.57813,-0.0416667 6.11979,0.796875 5.20313,1.57813 C4.26563,2.35938 3.26042,2.75 2.1875,2.75 C1.5625,2.75 1.03646,2.58854 0.609375,2.26563 C0.203125,1.91146 0,1.46875 0,0.9375 C0,0.0416667 0.46875,-0.796875 1.40625,-1.57813 C2.32292,-2.35938 3.31771,-2.75 4.39063,-2.75"/>
<path class="Note" fill="#ffffff" fill-rule="evenodd" d="M98.9724,126.198 L104.934,126.198 L104.934,133.65 L98.9724,133.65 L98.9724,126.198 "/>
<path class="Note" transform="matrix(0.9936,0,0,0.9936,99.4692,133.402)" d="M0.453125,-4.17188 C0.494792,-5.64063 1.19792,-6.38021 2.5625,-6.39063 C3.28125,-6.39063 3.83333,-6.14583 4.21875,-5.65625 C4.46875,-5.32292 4.59375,-4.93229 4.59375,-4.48438 C4.59375,-3.68229 4.14583,-3.03125 3.25,-2.53125 L2.34375,-2.04688 C1.79167,-1.75521 1.44271,-1.4375 1.29688,-1.09375 C1.24479,-0.989583 1.21354,-0.869792 1.20313,-0.734375 L4.5625,-0.734375 L4.5625,0 L0.3125,0 C0.354167,-0.760417 0.520833,-1.33854 0.8125,-1.73438 C1.07292,-2.05729 1.5,-2.38542 2.09375,-2.71875 L2.92188,-3.1875 C3.49479,-3.52083 3.78646,-3.94271 3.79688,-4.45313 C3.79688,-4.88021 3.61458,-5.21354 3.25,-5.45313 C3.04167,-5.57813 2.80208,-5.64063 2.53125,-5.64063 C1.73958,-5.64063 1.3125,-5.16667 1.25,-4.21875 C1.25,-4.19792 1.25,-4.18229 1.25,-4.17188 L0.453125,-4.17188 "/>
<path class="Note" fill="#cc00ff" transform="matrix(0.9936,0,0,0.9936,98.2272,75.276)" d="M4.39063,-2.75 C5.01563,-2.75 5.54688,-2.58854 5.98438,-2.26563 C6.38021,-1.91146 6.57813,-1.46875 6.57813,-0.9375 C6.57813,-0.0416667 6.11979,0.796875 5.20313,1.57813 C4.26563,2.35938 3.26042,2.75 2.1875,2.75 C1.5625,2.75 1.03646,2.58854 0.609375,2.26563 C0.203125,1.91146 0,1.46875 0,0.9375 C0,0.0416667 0.46875,-0.796875 1.40625,-1.57813 C2.32292,-2.35938 3.31771,-2.75 4.39063,-2.75"/>
<path class="Note" fill="#ffffff" fill-rule="evenodd" d="M67.2007,126.198 L73.1623,126.198 L73.1623,133.65 L67.2007,133.65 L67.2007,126.198 "/>
<path class="Note" transform="matrix(0.9936,0,0,0.9936,67.6975,133.402)" d="M0.390625,-3.09375 C0.390625,-5 0.927083,-6.07813 2,-6.32813 C2.14583,-6.36979 2.30208,-6.39063 2.46875,-6.39063 C3.78125,-6.39063 4.47917,-5.40104 4.5625,-3.42188 C4.5625,-3.28646 4.5625,-3.15625 4.5625,-3.03125 C4.5625,-1.40625 4.15104,-0.385417 3.32813,0.03125 C3.06771,0.145833 2.78125,0.203125 2.46875,0.203125 C1.41667,0.203125 0.760417,-0.442708 0.5,-1.73438 C0.427083,-2.14063 0.390625,-2.59375 0.390625,-3.09375 M2.46875,-5.64063 C1.625,-5.63021 1.20313,-4.77083 1.20313,-3.0625 C1.20313,-1.32292 1.61979,-0.453125 2.45313,-0.453125 C3.16146,-0.453125 3.57813,-1.02604 3.70313,-2.17188 C3.73438,-2.44271 3.75,-2.75 3.75,-3.09375 C3.75,-4.79167 3.32292,-5.64063 2.46875,-5.64063"/>
<path class="Note" fill="#99cc33" transform="matrix(0.9936,0,0,0.9936,66.4555,77.76)" d="M4.39063,-2.75 C5.01563,-2.75 5.54688,-2.58854 5.98438,-2.26563 C6.38021,-1.91146 6.57813,-1.46875 6.57813,-0.9375 C6.57813,-0.0416667 6.11979,0.796875 5.20313,1.57813 C4.26563,2.35938 3.26042,2.75 2.1875,2.75 C1.5625,2.75 1.03646,2.58854 0.609375,2.26563 C0.203125,1.91146 0,1.46875 0,0.9375 C0,0.0416667 0.46875,-0.796875 1.40625,-1.57813 C2.32292,-2.35938 3.31771,-2.75 4.39063,-2.75"/>
<path class="Clef" transform="matrix(0.9936,0,0,0.9936,32.0544,133.65)" d="M5.32813,8.5 C5.32813,8.86458 5.04167,9.04688 4.46875,9.04688 C4.02083,9.04688 3.625,8.91146 3.28125,8.64063 C2.95833,8.34896 2.79688,7.98438 2.79688,7.54688 C2.79688,6.76563 3.27083,6.14063 4.21875,5.67188 C5.14583,5.18229 6.23438,4.9375 7.48438,4.9375 C7.96354,4.9375 8.47917,4.97396 9.03125,5.04688 C9.42708,5.09896 9.875,5.20313 10.375,5.35938 C10.8125,5.49479 11.1563,5.70573 11.4063,5.99219 C11.6563,6.27865 11.7813,6.61458 11.7813,7 C11.7813,7.89583 11.3177,8.63021 10.3906,9.20313 C11.7448,9.45313 12.4271,10.0573 12.4375,11.0156 C12.4375,11.8281 12.0729,12.5599 11.3438,13.2109 C10.6146,13.862 9.79167,14.1875 8.875,14.1875 C8.47917,14.1875 8.07813,14.0938 7.67188,13.9063 C7.29688,13.7292 7.03125,13.5625 6.875,13.4063 C6.71875,13.2188 6.64063,13.0781 6.64063,12.9844 C6.64063,12.8594 6.70833,12.75 6.84375,12.6563 C6.95833,12.5417 7.07813,12.4844 7.20313,12.4844 C7.25521,12.4844 7.36719,12.5677 7.53906,12.7344 C7.71094,12.901 7.95833,12.9844 8.28125,12.9844 C8.72917,12.9844 9.16146,12.7969 9.57813,12.4219 C9.97396,12.0573 10.1719,11.6198 10.1719,11.1094 C10.1719,10.6719 9.98438,10.3542 9.60938,10.1563 C9.24479,9.95833 8.76563,9.85938 8.17188,9.85938 C8.06771,9.85938 8.01563,9.75 8.01563,9.53125 C8.01563,9.21875 8.13021,9.0625 8.35938,9.0625 C8.72396,9.0625 9.05208,8.90625 9.34375,8.59375 C9.61458,8.26042 9.75,7.90104 9.75,7.51563 C9.75,7.40104 9.71875,7.22917 9.65625,7 C9.60417,6.84375 9.44792,6.65104 9.1875,6.42188 C8.9375,6.21354 8.58854,6.07292 8.14063,6 C8.02604,6.63542 7.88021,7.44792 7.70313,8.4375 C7.52604,9.42708 7.40625,10.0781 7.34375,10.3906 C7.125,11.5156 6.72396,12.4583 6.14063,13.2188 C5.52604,14.0313 4.86458,14.4375 4.15625,14.4375 C3.9375,14.4375 3.71354,14.3854 3.48438,14.2813 C3.29688,14.1979 3.0625,14.0365 2.78125,13.7969 C2.52083,13.5885 2.34375,13.4479 2.25,13.375 C2.19792,13.3438 2.17188,13.2865 2.17188,13.2031 C2.17188,13.0781 2.21875,12.9635 2.3125,12.8594 C2.41667,12.7344 2.52604,12.6719 2.64063,12.6719 C2.71354,12.6719 2.89323,12.7969 3.17969,13.0469 C3.46615,13.2969 3.76563,13.4219 4.07813,13.4219 C4.68229,13.4219 5.13542,13.0365 5.4375,12.2656 C5.71875,11.526 5.85938,10.6094 5.85938,9.51563 L5.85938,9.35938 C5.85938,8.63021 5.97917,7.54167 6.21875,6.09375 C5.80208,6.22917 5.46875,6.42708 5.21875,6.6875 C4.95833,6.94792 4.82813,7.21875 4.82813,7.5 C4.82813,7.71875 4.91146,7.90625 5.07813,8.0625 C5.24479,8.21875 5.32813,8.36458 5.32813,8.5 M1.40625,2.39063 C1.46875,2.39063 1.625,2.45313 1.875,2.57813 C2.13542,2.71354 2.35938,2.78125 2.54688,2.78125 C3.03646,2.78125 3.64063,2.42188 4.35938,1.70313 C6.43229,-0.411458 7.85938,-2.65104 8.64063,-5.01563 C8.79688,-5.51563 9.17708,-5.76563 9.78125,-5.76563 C10.0938,-5.76563 10.3646,-5.69792 10.5938,-5.5625 C10.8125,-5.42708 10.9219,-5.28646 10.9219,-5.14063 L10.5625,2.17188 C10.5625,2.55729 10.7031,2.75 10.9844,2.75 C11.1198,2.75 11.3281,2.6875 11.6094,2.5625 C11.8698,2.42708 12.026,2.35938 12.0781,2.35938 C12.1823,2.35938 12.2448,2.47396 12.2656,2.70313 C12.2656,2.91146 12.1823,3.04167 12.0156,3.09375 C11.8802,3.125 11.6198,3.24479 11.2344,3.45313 C10.8281,3.66146 10.5104,3.76563 10.2813,3.76563 C9.78125,3.76563 9.42708,3.375 9.21875,2.59375 C8.89583,1.375 8.6875,0.104167 8.59375,-1.21875 C8.07292,-0.552083 7.49479,0.119792 6.85938,0.796875 C7.08854,1.24479 7.51563,1.46875 8.14063,1.46875 C8.23438,1.46875 8.30729,1.46354 8.35938,1.45313 L8.375,1.45313 C8.47917,1.45313 8.53125,1.54688 8.53125,1.73438 C8.53125,1.98438 8.44792,2.13542 8.28125,2.1875 C8.01042,2.28125 7.72396,2.32813 7.42188,2.32813 C6.77604,2.32813 6.30729,2.10417 6.01563,1.65625 L5.23438,2.35938 C4.14063,3.29688 3.25,3.76563 2.5625,3.76563 C2.375,3.76563 2.1875,3.73438 2,3.67188 C1.84375,3.60938 1.66146,3.51042 1.45313,3.375 C1.36979,3.34375 1.27865,3.29688 1.17969,3.23438 C1.08073,3.17188 1.02083,3.13542 1,3.125 C0.9375,3.10417 0.90625,3.04688 0.90625,2.95313 C0.90625,2.84896 0.958333,2.72396 1.0625,2.57813 C1.14583,2.45313 1.26042,2.39063 1.40625,2.39063 M5.76563,-10.7969 C5.76563,-10.474 5.48438,-10.3125 4.92188,-10.3125 C4.43229,-10.3125 4.00521,-10.474 3.64063,-10.7969 C3.28646,-11.1302 3.10938,-11.5313 3.10938,-12 C3.10938,-12.4479 3.25,-12.8385 3.53125,-13.1719 C3.83333,-13.5052 4.21875,-13.7552 4.6875,-13.9219 C5.11458,-14.0781 5.59896,-14.2031 6.14063,-14.2969 C6.69271,-14.3594 7.22396,-14.3906 7.73438,-14.3906 C8.03646,-14.3906 8.59896,-14.2552 9.42188,-13.9844 C10.2552,-13.7135 10.8333,-13.5781 11.1563,-13.5781 C11.5625,-13.5781 11.9479,-13.651 12.3125,-13.7969 C12.6042,-13.9219 12.8906,-14.0677 13.1719,-14.2344 C13.3906,-14.3802 13.5104,-14.4531 13.5313,-14.4531 C13.6563,-14.4531 13.7604,-14.4167 13.8438,-14.3438 C13.9479,-14.2396 14,-14.151 14,-14.0781 C14,-13.9948 13.8802,-13.849 13.6406,-13.6406 C13.3802,-13.401 13.0078,-13.1641 12.5234,-12.9297 C12.0391,-12.6953 11.5313,-12.5781 11,-12.5781 C10.7604,-12.5781 10.4688,-12.6198 10.125,-12.7031 C9.89583,-11.2552 9.66146,-9.96875 9.42188,-8.84375 C9.21354,-7.85417 8.79688,-6.98958 8.17188,-6.25 C7.56771,-5.51042 6.89583,-5.14063 6.15625,-5.14063 C5.85417,-5.14063 5.58854,-5.19792 5.35938,-5.3125 C5.09896,-5.44792 4.82292,-5.64583 4.53125,-5.90625 C4.30208,-6.09375 4.08333,-6.26563 3.875,-6.42188 C3.82292,-6.46354 3.79688,-6.52604 3.79688,-6.60938 C3.79688,-6.69271 3.84896,-6.80729 3.95313,-6.95313 C4.05729,-7.06771 4.15104,-7.125 4.23438,-7.125 C4.31771,-7.125 4.54167,-6.96354 4.90625,-6.64063 C5.27083,-6.31771 5.59375,-6.15625 5.875,-6.15625 C6.39583,-6.15625 6.80208,-6.45313 7.09375,-7.04688 C7.375,-7.64063 7.53646,-8.34375 7.57813,-9.15625 C7.64063,-10.5 7.79167,-11.8906 8.03125,-13.3281 C7.73958,-13.3906 7.52604,-13.4219 7.39063,-13.4219 C6.76563,-13.4219 6.22917,-13.2917 5.78125,-13.0313 C5.34375,-12.7813 5.125,-12.4427 5.125,-12.0156 C5.125,-11.7031 5.22917,-11.4635 5.4375,-11.2969 C5.65625,-11.1094 5.76563,-10.9427 5.76563,-10.7969"/>
<path class="Clef" transform="matrix(0.9936,0,0,0.9936,32.0544,77.76)" d="M7.34375,-5.125 C7.34375,-5.125 7.38542,-5.125 7.46875,-5.125 C7.52083,-5.13542 7.5625,-5.14063 7.59375,-5.14063 C9.05208,-5.14063 10.25,-4.625 11.1875,-3.59375 C12.125,-2.58333 12.5938,-1.40104 12.5938,-0.046875 C12.5938,1.64063 11.901,3.01042 10.5156,4.0625 C10.151,4.35417 9.67188,4.58854 9.07813,4.76563 C9.15104,5.60938 9.1875,6.29167 9.1875,6.8125 C9.1875,6.91667 9.17188,7.29688 9.14063,7.95313 C9.08854,9.16146 8.67188,10.2083 7.89063,11.0938 C7.14063,11.9688 6.20313,12.4063 5.07813,12.4063 C4.02604,12.4063 3.13021,12.0365 2.39063,11.2969 C1.64063,10.5365 1.26563,9.625 1.26563,8.5625 C1.26563,8 1.48438,7.52083 1.92188,7.125 C2.35938,6.73958 2.86979,6.54688 3.45313,6.54688 C3.97396,6.54688 4.41146,6.75 4.76563,7.15625 C5.13021,7.53125 5.3125,8 5.3125,8.5625 C5.3125,9.0625 5.13021,9.49479 4.76563,9.85938 C4.40104,10.224 3.96354,10.4063 3.45313,10.4063 C3.24479,10.4063 3.04688,10.3698 2.85938,10.2969 C3.43229,11.1406 4.19271,11.5625 5.14063,11.5625 C6.03646,11.5625 6.77083,11.1979 7.34375,10.4688 C7.94792,9.71875 8.27604,8.83854 8.32813,7.82813 C8.34896,7.20313 8.35938,6.84896 8.35938,6.76563 C8.35938,6.03646 8.33333,5.4375 8.28125,4.96875 C7.63542,5.07292 7.05729,5.125 6.54688,5.125 C4.73438,5.125 3.19271,4.40625 1.92188,2.96875 C0.671875,1.52083 0.046875,-0.197917 0.046875,-2.1875 C0.046875,-2.60417 0.0833333,-3.02604 0.15625,-3.45313 C0.239583,-3.80729 0.338542,-4.19271 0.453125,-4.60938 C0.515625,-4.84896 0.692708,-5.22917 0.984375,-5.75 C1.08854,-5.90625 1.20573,-6.10156 1.33594,-6.33594 C1.46615,-6.57031 1.55729,-6.72396 1.60938,-6.79688 C1.73438,-7.05729 1.98438,-7.41146 2.35938,-7.85938 C2.46354,-7.97396 2.57292,-8.10156 2.6875,-8.24219 C2.80208,-8.38281 2.89844,-8.5 2.97656,-8.59375 C3.05469,-8.6875 3.11198,-8.76042 3.14844,-8.8125 C3.1849,-8.86458 3.47917,-9.20833 4.03125,-9.84375 C4.15625,-9.97917 4.28125,-10.1198 4.40625,-10.2656 C4.53125,-10.4115 4.63281,-10.5286 4.71094,-10.6172 C4.78906,-10.7057 4.84896,-10.7656 4.89063,-10.7969 C4.42188,-12.349 4.125,-13.5885 4,-14.5156 C3.91667,-15.2552 3.875,-16.2708 3.875,-17.5625 C3.875,-18.6979 4.13542,-19.7604 4.65625,-20.75 C5.15625,-21.7708 5.86458,-22.6094 6.78125,-23.2656 C6.84375,-23.3073 6.90625,-23.3281 6.96875,-23.3281 C7.0625,-23.3281 7.13021,-23.3073 7.17188,-23.2656 C7.86979,-22.4219 8.47396,-21.3229 8.98438,-19.9688 C9.50521,-18.6146 9.76563,-17.3802 9.76563,-16.2656 C9.76563,-15.0156 9.46875,-13.8438 8.875,-12.75 C8.19792,-11.5938 7.32292,-10.3958 6.25,-9.15625 C6.52083,-8.30208 6.88542,-6.95833 7.34375,-5.125 M9,3.96875 C9.67708,3.71875 10.2083,3.29688 10.5938,2.70313 C11.0104,2.13021 11.2188,1.48438 11.2188,0.765625 C11.2188,-0.161458 10.9063,-0.984375 10.2813,-1.70313 C9.63542,-2.44271 8.81771,-2.85938 7.82813,-2.95313 C8.39063,-0.203125 8.78125,2.10417 9,3.96875 M1.45313,-0.546875 C1.45313,0.744792 1.97396,1.88021 3.01563,2.85938 C4.07813,3.80729 5.27604,4.28125 6.60938,4.28125 C7.15104,4.28125 7.68229,4.23958 8.20313,4.15625 C7.99479,2.17708 7.58333,-0.192708 6.96875,-2.95313 C6.22917,-2.86979 5.64063,-2.60938 5.20313,-2.17188 C4.76563,-1.71354 4.54688,-1.19792 4.54688,-0.625 C4.54688,0.364583 5.07813,1.16667 6.14063,1.78125 C6.22396,1.875 6.26563,1.97396 6.26563,2.07813 C6.26563,2.18229 6.22396,2.27604 6.14063,2.35938 C6.05729,2.45313 5.95833,2.5 5.84375,2.5 C5.83333,2.5 5.77604,2.48958 5.67188,2.46875 C4.92188,2.0625 4.34896,1.54167 3.95313,0.90625 C3.56771,0.21875 3.375,-0.46875 3.375,-1.15625 C3.375,-2.05208 3.65625,-2.86458 4.21875,-3.59375 C4.80208,-4.32292 5.5625,-4.79167 6.5,-5 C6.13542,-6.45833 5.83854,-7.59896 5.60938,-8.42188 C5.40104,-8.18229 5.15104,-7.89844 4.85938,-7.57031 C4.56771,-7.24219 4.39583,-7.04167 4.34375,-6.96875 C3.875,-6.36458 3.51563,-5.89063 3.26563,-5.54688 C2.81771,-4.93229 2.48958,-4.40625 2.28125,-3.96875 C2.0625,-3.46875 1.86979,-2.92708 1.70313,-2.34375 C1.53646,-1.78125 1.45313,-1.18229 1.45313,-0.546875 M7.96875,-20.4063 C6.98958,-19.9271 6.22396,-19.2396 5.67188,-18.3438 C5.09896,-17.4167 4.8125,-16.4219 4.8125,-15.3594 C4.8125,-14.4219 5.04688,-13.1563 5.51563,-11.5625 C6.45313,-12.6979 7.15625,-13.7448 7.625,-14.7031 C8.11458,-15.724 8.35938,-16.7865 8.35938,-17.8906 C8.35938,-18.724 8.22917,-19.5625 7.96875,-20.4063 M5.82813,15.2344 C6.16146,14.901 6.32813,14.5625 6.32813,14.2188 C6.30729,13.9479 6.19271,13.7396 5.98438,13.5938 C5.74479,13.4375 5.46875,13.3594 5.15625,13.3594 C4.9375,13.3594 4.75521,13.4323 4.60938,13.5781 C4.48438,13.7031 4.42188,13.8646 4.42188,14.0625 C4.42188,14.3021 4.51563,14.4792 4.70313,14.5938 L5.82813,15.2344 M6.14063,15.4063 C6.68229,15.7083 6.95313,16.1146 6.95313,16.625 L6.95313,16.6875 C6.95313,17.0833 6.79167,17.4219 6.46875,17.7031 C6.14583,17.9844 5.68229,18.125 5.07813,18.125 C4.58854,18.125 4.16146,17.9948 3.79688,17.7344 C3.43229,17.4844 3.25,17.1458 3.25,16.7188 C3.25,16.5521 3.29167,16.3958 3.375,16.25 C3.47917,16.0833 3.56771,15.9688 3.64063,15.9063 L4,15.5313 C3.60417,15.2604 3.40625,14.901 3.40625,14.4531 C3.40625,14.099 3.5625,13.7865 3.875,13.5156 C4.19792,13.2552 4.625,13.125 5.15625,13.125 C5.60417,13.125 5.98438,13.224 6.29688,13.4219 C6.60938,13.6198 6.76563,13.8854 6.76563,14.2188 C6.76563,14.5729 6.55729,14.9688 6.14063,15.4063 M4.29688,15.7031 C3.91146,16.0469 3.70313,16.3854 3.67188,16.7188 C3.70313,17.0729 3.84896,17.3542 4.10938,17.5625 C4.39063,17.7813 4.71354,17.8906 5.07813,17.8906 C5.33854,17.8906 5.54688,17.8073 5.70313,17.6406 C5.85938,17.4844 5.9375,17.2969 5.9375,17.0781 C5.92708,16.7865 5.8125,16.5781 5.59375,16.4531 L4.29688,15.7031 "/>
<path class="KeySig" transform="matrix(0.9936,0,0,0.9936,49.3492,62.856)" d="M4.3125,6.23438 C4.3125,6.48438 4.1901,6.60938 3.94531,6.60938 C3.70052,6.60938 3.57813,6.48438 3.57813,6.23438 L3.57813,3.34375 L1.92188,3.96875 L1.92188,7.125 C1.92188,7.375 1.79688,7.5 1.54688,7.5 C1.29688,7.5 1.17188,7.375 1.17188,7.125 L1.17188,4.21875 L0.546875,4.45313 C0.536458,4.46354 0.484375,4.46875 0.390625,4.46875 C0.286458,4.46875 0.195313,4.42969 0.117188,4.35156 C0.0390625,4.27344 0,4.18229 0,4.07813 L0,2.875 C0,2.67708 0.0833333,2.55208 0.25,2.5 L1.17188,2.1875 L1.17188,-1.01563 L0.546875,-0.796875 C0.536458,-0.786458 0.484375,-0.78125 0.390625,-0.78125 C0.286458,-0.78125 0.195313,-0.820313 0.117188,-0.898438 C0.0390625,-0.976563 0,-1.06771 0,-1.17188 L0,-2.39063 C0,-2.56771 0.0833333,-2.68229 0.25,-2.73438 L1.17188,-3.09375 L1.17188,-6.23438 C1.17188,-6.48438 1.29688,-6.60938 1.54688,-6.60938 C1.79688,-6.60938 1.92188,-6.48438 1.92188,-6.23438 L1.92188,-3.34375 L3.57813,-3.96875 L3.57813,-7.125 C3.57813,-7.375 3.70052,-7.5 3.94531,-7.5 C4.1901,-7.5 4.3125,-7.375 4.3125,-7.125 L4.3125,-4.21875 L4.96875,-4.45313 C4.97917,-4.46354 5.02083,-4.46875 5.09375,-4.46875 C5.1875,-4.46875 5.28646,-4.43229 5.39063,-4.35938 C5.47396,-4.27604 5.51563,-4.18229 5.51563,-4.07813 L5.51563,-2.875 C5.51563,-2.6875 5.42188,-2.5625 5.23438,-2.5 L4.3125,-2.1875 L4.3125,1.01563 L4.96875,0.796875 C4.97917,0.786458 5.02083,0.78125 5.09375,0.78125 C5.1875,0.78125 5.28646,0.822917 5.39063,0.90625 C5.47396,0.979167 5.51563,1.06771 5.51563,1.17188 L5.51563,2.39063 C5.51563,2.55729 5.42188,2.67188 5.23438,2.73438 L4.3125,3.09375 L4.3125,6.23438 M3.57813,-1.89063 L1.92188,-1.3125 L1.92188,1.89063 L3.57813,1.3125 L3.57813,-1.89063 "/>
<path class="Fingering" d="M506.596,80.3694 C506.002,80.3694 505.539,80.0621 505.205,79.4475 C504.924,78.9475 504.783,78.3225 504.783,77.5725 C504.783,76.6767 504.992,75.9735 505.408,75.4631 C505.742,75.0673 506.148,74.8642 506.627,74.8537 C507.19,74.8537 507.632,75.1402 507.955,75.7131 C508.257,76.2235 508.408,76.859 508.408,77.6194 C508.408,78.5881 508.184,79.3277 507.737,79.8381 C507.414,80.1923 507.033,80.3694 506.596,80.3694 M506.596,75.0569 C505.95,75.0569 505.601,75.8277 505.549,77.3694 C505.549,77.4631 505.549,77.5569 505.549,77.6506 C505.559,79.3173 505.908,80.1558 506.596,80.1662 C507.283,80.1558 507.627,79.3121 507.627,77.635 C507.627,76.1142 507.356,75.2652 506.815,75.0881 C506.742,75.0673 506.669,75.0569 506.596,75.0569"/>
<path class="Fingering" d="M473.254,73.9635 C473.493,72.9427 474.019,72.4166 474.832,72.3854 C474.863,72.3854 474.889,72.3854 474.91,72.3854 C475.399,72.3854 475.79,72.5625 476.082,72.9166 C476.29,73.177 476.394,73.4687 476.394,73.7916 C476.394,74.3854 476.076,75.026 475.441,75.7135 C475.42,75.7343 475.394,75.7552 475.363,75.776 L474.035,77.1979 L475.941,77.1979 C476.149,77.1979 476.311,77.1406 476.425,77.026 C476.498,76.9531 476.587,76.8333 476.691,76.6666 L476.8,76.6979 L476.363,77.776 L473.238,77.776 L473.238,77.6822 L474.66,76.1666 C475.337,75.427 475.686,74.7343 475.707,74.0885 C475.707,73.6406 475.535,73.3177 475.191,73.1197 C475.014,73.0156 474.811,72.9635 474.582,72.9635 C474.227,72.9635 473.951,73.0989 473.754,73.3697 C473.639,73.526 473.53,73.7395 473.425,74.0104 L473.254,73.9635 "/>
<path class="Fingering" d="M443.232,75.4014 C442.638,75.4014 442.175,75.0941 441.841,74.4795 C441.56,73.9795 441.419,73.3545 441.419,72.6045 C441.419,71.7087 441.628,71.0055 442.044,70.4951 C442.378,70.0993 442.784,69.8962 443.263,69.8858 C443.826,69.8858 444.268,70.1722 444.591,70.7451 C444.893,71.2555 445.044,71.891 445.044,72.6514 C445.044,73.6201 444.82,74.3597 444.372,74.8701 C444.05,75.2243 443.669,75.4014 443.232,75.4014 M443.232,70.0889 C442.586,70.0889 442.237,70.8597 442.185,72.4014 C442.185,72.4951 442.185,72.5889 442.185,72.6826 C442.195,74.3493 442.544,75.1878 443.232,75.1983 C443.919,75.1878 444.263,74.3441 444.263,72.667 C444.263,71.1462 443.992,70.2972 443.451,70.1201 C443.378,70.0993 443.305,70.0889 443.232,70.0889"/>
<path class="Fingering" d="M410.929,68.0736 C410.814,68.0736 410.622,68.1309 410.351,68.2455 L410.351,68.1361 L411.788,67.4017 L411.851,67.4174 L411.851,72.2142 C411.851,72.4226 411.913,72.558 412.038,72.6205 C412.142,72.6622 412.335,72.683 412.616,72.683 L412.616,72.808 L410.398,72.808 L410.398,72.683 C410.752,72.6726 410.976,72.6101 411.069,72.4955 C411.132,72.4017 411.163,72.2559 411.163,72.058 L411.163,68.4486 C411.153,68.1986 411.075,68.0736 410.929,68.0736"/>
<path class="Fingering" d="M378.329,69.699 C378.454,69.699 378.636,69.7667 378.876,69.9021 C379.126,70.0584 379.339,70.1365 379.517,70.1365 C379.881,70.1365 380.168,69.975 380.376,69.6521 C380.501,69.4438 380.563,69.2094 380.563,68.949 C380.563,68.1886 380.11,67.7719 379.204,67.699 C379.11,67.6886 379.011,67.6834 378.907,67.6834 L378.907,67.574 C379.511,67.3761 379.907,67.1209 380.095,66.8084 C380.188,66.6417 380.235,66.4594 380.235,66.2615 C380.235,65.9073 380.089,65.6521 379.798,65.4959 C379.662,65.4334 379.517,65.4021 379.36,65.4021 C378.912,65.4021 378.543,65.6365 378.251,66.1052 C378.22,66.1469 378.194,66.1938 378.173,66.2459 L378.048,66.2146 C378.298,65.5375 378.662,65.1261 379.142,64.9802 C379.287,64.9386 379.449,64.9177 379.626,64.9177 C380.105,64.9177 380.459,65.0844 380.688,65.4177 C380.813,65.5948 380.876,65.7927 380.876,66.0115 C380.876,66.3344 380.725,66.6261 380.423,66.8865 C380.329,66.9594 380.23,67.0375 380.126,67.1209 C380.605,67.3292 380.912,67.6157 381.048,67.9802 C381.11,68.1573 381.142,68.3552 381.142,68.574 C381.142,69.2094 380.876,69.7042 380.345,70.0584 C379.949,70.3084 379.48,70.4334 378.938,70.4334 C378.449,70.4334 378.157,70.324 378.063,70.1052 C378.043,70.0636 378.032,70.0219 378.032,69.9802 C378.032,69.824 378.11,69.7355 378.267,69.7146 C378.287,69.7042 378.308,69.699 378.329,69.699"/>
<path class="Fingering" d="M347.917,67.9494 C347.323,67.9494 346.859,67.6421 346.526,67.0275 C346.245,66.5275 346.104,65.9025 346.104,65.1525 C346.104,64.2567 346.313,63.5535 346.729,63.0431 C347.063,62.6473 347.469,62.4442 347.948,62.4337 C348.51,62.4337 348.953,62.7202 349.276,63.2931 C349.578,63.8035 349.729,64.439 349.729,65.1994 C349.729,66.1681 349.505,66.9077 349.057,67.4181 C348.734,67.7723 348.354,67.9494 347.917,67.9494 M347.917,62.6369 C347.271,62.6369 346.922,63.4077 346.87,64.9494 C346.87,65.0431 346.87,65.1369 346.87,65.2306 C346.88,66.8973 347.229,67.7358 347.917,67.7462 C348.604,67.7358 348.948,66.8921 348.948,65.215 C348.948,63.6942 348.677,62.8452 348.135,62.6681 C348.063,62.6473 347.99,62.6369 347.917,62.6369"/>
<path class="Fingering" d="M314.395,61.5435 C314.635,60.5227 315.161,59.9966 315.973,59.9654 C316.004,59.9654 316.03,59.9654 316.051,59.9654 C316.541,59.9654 316.931,60.1425 317.223,60.4966 C317.431,60.757 317.536,61.0487 317.536,61.3716 C317.536,61.9654 317.218,62.606 316.583,63.2935 C316.562,63.3143 316.536,63.3352 316.504,63.356 L315.176,64.7779 L317.083,64.7779 C317.291,64.7779 317.452,64.7206 317.567,64.606 C317.64,64.5331 317.728,64.4133 317.833,64.2466 L317.942,64.2779 L317.504,65.356 L314.379,65.356 L314.379,65.2622 L315.801,63.7466 C316.478,63.007 316.827,62.3143 316.848,61.6685 C316.848,61.2206 316.676,60.8977 316.333,60.6997 C316.155,60.5956 315.952,60.5435 315.723,60.5435 C315.369,60.5435 315.093,60.6789 314.895,60.9497 C314.78,61.106 314.671,61.3195 314.567,61.5904 L314.395,61.5435 "/>
<path class="Fingering" d="M283.014,62.247 C283.139,62.247 283.321,62.3147 283.561,62.4501 C283.811,62.6064 284.024,62.6845 284.201,62.6845 C284.566,62.6845 284.853,62.523 285.061,62.2001 C285.186,61.9918 285.248,61.7574 285.248,61.497 C285.248,60.7366 284.795,60.3199 283.889,60.247 C283.795,60.2366 283.696,60.2314 283.592,60.2314 L283.592,60.122 C284.196,59.9241 284.592,59.6689 284.78,59.3564 C284.873,59.1897 284.92,59.0074 284.92,58.8095 C284.92,58.4553 284.774,58.2001 284.483,58.0439 C284.347,57.9814 284.201,57.9501 284.045,57.9501 C283.597,57.9501 283.228,58.1845 282.936,58.6532 C282.905,58.6949 282.879,58.7418 282.858,58.7939 L282.733,58.7626 C282.983,58.0855 283.347,57.6741 283.826,57.5282 C283.972,57.4866 284.134,57.4657 284.311,57.4657 C284.79,57.4657 285.144,57.6324 285.373,57.9657 C285.498,58.1428 285.561,58.3407 285.561,58.5595 C285.561,58.8824 285.41,59.1741 285.108,59.4345 C285.014,59.5074 284.915,59.5855 284.811,59.6689 C285.29,59.8772 285.597,60.1637 285.733,60.5282 C285.795,60.7053 285.826,60.9032 285.826,61.122 C285.826,61.7574 285.561,62.2522 285.03,62.6064 C284.634,62.8564 284.165,62.9814 283.623,62.9814 C283.134,62.9814 282.842,62.872 282.748,62.6532 C282.728,62.6116 282.717,62.5699 282.717,62.5282 C282.717,62.372 282.795,62.2835 282.951,62.2626 C282.972,62.2522 282.993,62.247 283.014,62.247"/>
<path class="Fingering" d="M250.852,61.5435 C251.091,60.5227 251.617,59.9966 252.43,59.9654 C252.461,59.9654 252.487,59.9654 252.508,59.9654 C252.997,59.9654 253.388,60.1425 253.68,60.4966 C253.888,60.757 253.992,61.0487 253.992,61.3716 C253.992,61.9654 253.675,62.606 253.039,63.2935 C253.018,63.3143 252.992,63.3352 252.961,63.356 L251.633,64.7779 L253.539,64.7779 C253.747,64.7779 253.909,64.7206 254.024,64.606 C254.096,64.5331 254.185,64.4133 254.289,64.2466 L254.399,64.2779 L253.961,65.356 L250.836,65.356 L250.836,65.2622 L252.258,63.7466 C252.935,63.007 253.284,62.3143 253.305,61.6685 C253.305,61.2206 253.133,60.8977 252.789,60.6997 C252.612,60.5956 252.409,60.5435 252.18,60.5435 C251.826,60.5435 251.55,60.6789 251.352,60.9497 C251.237,61.106 251.128,61.3195 251.024,61.5904 L250.852,61.5435 "/>
<path class="Fingering" d="M220.83,67.9494 C220.236,67.9494 219.773,67.6421 219.439,67.0275 C219.158,66.5275 219.017,65.9025 219.017,65.1525 C219.017,64.2567 219.226,63.5535 219.642,63.0431 C219.976,62.6473 220.382,62.4442 220.861,62.4337 C221.424,62.4337 221.866,62.7202 222.189,63.2931 C222.491,63.8035 222.642,64.439 222.642,65.1994 C222.642,66.1681 222.418,66.9077 221.971,67.4181 C221.648,67.7723 221.267,67.9494 220.83,67.9494 M220.83,62.6369 C220.184,62.6369 219.835,63.4077 219.783,64.9494 C219.783,65.0431 219.783,65.1369 219.783,65.2306 C219.793,66.8973 220.142,67.7358 220.83,67.7462 C221.517,67.7358 221.861,66.8921 221.861,65.215 C221.861,63.6942 221.59,62.8452 221.049,62.6681 C220.976,62.6473 220.903,62.6369 220.83,62.6369"/>
<path class="Fingering" d="M187.699,69.699 C187.824,69.699 188.006,69.7667 188.246,69.9021 C188.496,70.0584 188.709,70.1365 188.886,70.1365 C189.251,70.1365 189.537,69.975 189.746,69.6521 C189.871,69.4438 189.933,69.2094 189.933,68.949 C189.933,68.1886 189.48,67.7719 188.574,67.699 C188.48,67.6886 188.381,67.6834 188.277,67.6834 L188.277,67.574 C188.881,67.3761 189.277,67.1209 189.465,66.8084 C189.558,66.6417 189.605,66.4594 189.605,66.2615 C189.605,65.9073 189.459,65.6521 189.168,65.4959 C189.032,65.4334 188.886,65.4021 188.73,65.4021 C188.282,65.4021 187.912,65.6365 187.621,66.1052 C187.59,66.1469 187.563,66.1938 187.543,66.2459 L187.418,66.2146 C187.668,65.5375 188.032,65.1261 188.511,64.9802 C188.657,64.9386 188.819,64.9177 188.996,64.9177 C189.475,64.9177 189.829,65.0844 190.058,65.4177 C190.183,65.5948 190.246,65.7927 190.246,66.0115 C190.246,66.3344 190.095,66.6261 189.793,66.8865 C189.699,66.9594 189.6,67.0375 189.496,67.1209 C189.975,67.3292 190.282,67.6157 190.418,67.9802 C190.48,68.1573 190.511,68.3552 190.511,68.574 C190.511,69.2094 190.246,69.7042 189.715,70.0584 C189.319,70.3084 188.85,70.4334 188.308,70.4334 C187.819,70.4334 187.527,70.324 187.433,70.1052 C187.412,70.0636 187.402,70.0219 187.402,69.9802 C187.402,69.824 187.48,69.7355 187.636,69.7146 C187.657,69.7042 187.678,69.699 187.699,69.699"/>
<path class="Fingering" d="M156.755,68.0736 C156.641,68.0736 156.448,68.1309 156.177,68.2455 L156.177,68.1361 L157.615,67.4017 L157.677,67.4174 L157.677,72.2142 C157.677,72.4226 157.74,72.558 157.865,72.6205 C157.969,72.6622 158.162,72.683 158.443,72.683 L158.443,72.808 L156.224,72.808 L156.224,72.683 C156.578,72.6726 156.802,72.6101 156.896,72.4955 C156.958,72.4017 156.99,72.2559 156.99,72.058 L156.99,68.4486 C156.979,68.1986 156.901,68.0736 156.755,68.0736"/>
<path class="Fingering" d="M125.515,75.4014 C124.921,75.4014 124.458,75.0941 124.124,74.4795 C123.843,73.9795 123.702,73.3545 123.702,72.6045 C123.702,71.7087 123.911,71.0055 124.327,70.4951 C124.661,70.0993 125.067,69.8962 125.546,69.8858 C126.109,69.8858 126.551,70.1722 126.874,70.7451 C127.176,71.2555 127.327,71.891 127.327,72.6514 C127.327,73.6201 127.103,74.3597 126.655,74.8701 C126.333,75.2243 125.952,75.4014 125.515,75.4014 M125.515,70.0889 C124.869,70.0889 124.52,70.8597 124.468,72.4014 C124.468,72.4951 124.468,72.5889 124.468,72.6826 C124.478,74.3493 124.827,75.1878 125.515,75.1983 C126.202,75.1878 126.546,74.3441 126.546,72.667 C126.546,71.1462 126.275,70.2972 125.734,70.1201 C125.661,70.0993 125.588,70.0889 125.515,70.0889"/>
<path class="Fingering" d="M91.9932,73.9635 C92.2328,72.9427 92.7588,72.4166 93.5713,72.3854 C93.6025,72.3854 93.6286,72.3854 93.6494,72.3854 C94.139,72.3854 94.5296,72.5625 94.8213,72.9166 C95.0296,73.177 95.1338,73.4687 95.1338,73.7916 C95.1338,74.3854 94.8161,75.026 94.1807,75.7135 C94.1598,75.7343 94.1338,75.7552 94.1025,75.776 L92.7744,77.1979 L94.6807,77.1979 C94.889,77.1979 95.0505,77.1406 95.165,77.026 C95.238,76.9531 95.3265,76.8333 95.4307,76.6666 L95.54,76.6979 L95.1025,77.776 L91.9775,77.776 L91.9775,77.6822 L93.3994,76.1666 C94.0765,75.427 94.4255,74.7343 94.4463,74.0885 C94.4463,73.6406 94.2744,73.3177 93.9307,73.1197 C93.7536,73.0156 93.5505,72.9635 93.3213,72.9635 C92.9671,72.9635 92.6911,73.0989 92.4932,73.3697 C92.3786,73.526 92.2692,73.7395 92.165,74.0104 L91.9932,73.9635 "/>
<path class="Fingering" d="M61.9715,80.3694 C61.3777,80.3694 60.9142,80.0621 60.5808,79.4475 C60.2996,78.9475 60.159,78.3225 60.159,77.5725 C60.159,76.6767 60.3673,75.9735 60.784,75.4631 C61.1173,75.0673 61.5236,74.8642 62.0027,74.8537 C62.5652,74.8537 63.0079,75.1402 63.3308,75.7131 C63.6329,76.2235 63.784,76.859 63.784,77.6194 C63.784,78.5881 63.56,79.3277 63.1121,79.8381 C62.7892,80.1923 62.409,80.3694 61.9715,80.3694 M61.9715,75.0569 C61.3256,75.0569 60.9767,75.8277 60.9246,77.3694 C60.9246,77.4631 60.9246,77.5569 60.9246,77.6506 C60.935,79.3173 61.284,80.1558 61.9715,80.1662 C62.659,80.1558 63.0027,79.3121 63.0027,77.635 C63.0027,76.1142 62.7319,75.2652 62.1902,75.0881 C62.1173,75.0673 62.0444,75.0569 61.9715,75.0569"/>
<path class="Tempo" d="M60.2121,40.4371 C60.0089,40.2809 59.7589,40.1871 59.4464,40.1871 C58.2589,40.1871 57.3058,41.0621 57.3058,41.9996 C57.3058,42.5621 57.7589,42.9059 58.3527,42.9059 C59.3058,42.9059 60.4933,41.9996 60.4933,41.0934 L60.4933,34.9527 L60.2121,34.9527 L60.2121,40.4371 "/>
<path class="Tempo" d="M70.8527,39.0152 L64.2433,39.0152 L64.2433,37.859 L70.8527,37.859 L70.8527,39.0152 M70.8527,41.9371 L64.2433,41.9371 L64.2433,40.7965 L70.8527,40.7965 L70.8527,41.9371 M76.2902,36.0465 C76.1652,36.0465 75.8475,36.1402 75.3371,36.3277 C75.3058,36.3382 75.285,36.3486 75.2746,36.359 L75.2746,36.0465 L78.2902,34.734 L78.4933,34.734 L78.4933,41.5621 C78.4933,42.0517 78.5923,42.3642 78.7902,42.4996 C78.9673,42.6246 79.3006,42.6923 79.7902,42.7027 L79.7902,42.984 L75.2902,42.984 L75.2902,42.7027 C75.9464,42.6923 76.3579,42.5882 76.5246,42.3902 C76.66,42.2236 76.7277,41.9267 76.7277,41.4996 L76.7277,36.8746 C76.7173,36.333 76.5714,36.0569 76.2902,36.0465 M80.7746,38.9059 C80.7746,37.5934 81.0871,36.5309 81.7121,35.7184 C82.2225,35.0725 82.8162,34.7444 83.4933,34.734 C84.2746,34.734 84.9204,35.1402 85.4308,35.9527 C85.9412,36.7652 86.1964,37.76 86.1964,38.9371 C86.1964,40.3121 85.8787,41.4059 85.2433,42.2184 C84.7433,42.8225 84.1652,43.1298 83.5089,43.1402 C82.6756,43.1402 82.0037,42.7132 81.4933,41.859 C81.0141,41.0673 80.7746,40.083 80.7746,38.9059 M83.5089,42.7965 C83.8631,42.7965 84.0975,42.4736 84.2121,41.8277 C84.2746,41.4423 84.3058,40.9423 84.3058,40.3277 L84.3058,37.5777 C84.3058,36.1402 84.1131,35.3225 83.7277,35.1246 C83.6548,35.083 83.5714,35.0621 83.4777,35.0621 C83.1131,35.0621 82.8735,35.3955 82.7589,36.0621 C82.7069,36.4371 82.6808,36.9423 82.6808,37.5777 L82.6808,40.3277 C82.6808,41.6819 82.8475,42.4736 83.1808,42.7027 C83.2746,42.7652 83.3839,42.7965 83.5089,42.7965 M86.7746,38.9059 C86.7746,37.5934 87.0871,36.5309 87.7121,35.7184 C88.2225,35.0725 88.8162,34.7444 89.4933,34.734 C90.2746,34.734 90.9204,35.1402 91.4308,35.9527 C91.9412,36.7652 92.1964,37.76 92.1964,38.9371 C92.1964,40.3121 91.8787,41.4059 91.2433,42.2184 C90.7433,42.8225 90.1652,43.1298 89.5089,43.1402 C88.6756,43.1402 88.0037,42.7132 87.4933,41.859 C87.0141,41.0673 86.7746,40.083 86.7746,38.9059 M89.5089,42.7965 C89.8631,42.7965 90.0975,42.4736 90.2121,41.8277 C90.2746,41.4423 90.3058,40.9423 90.3058,40.3277 L90.3058,37.5777 C90.3058,36.1402 90.1131,35.3225 89.7277,35.1246 C89.6548,35.083 89.5714,35.0621 89.4777,35.0621 C89.1131,35.0621 88.8735,35.3955 88.7589,36.0621 C88.7069,36.4371 88.6808,36.9423 88.6808,37.5777 L88.6808,40.3277 C88.6808,41.6819 88.8475,42.4736 89.1808,42.7027 C89.2746,42.7652 89.3839,42.7965 89.5089,42.7965"/>
<path class="StaffText" d="M69.29,25.1911 C69.7379,25.1911 70.2379,25.3057 70.79,25.5348 C71.0296,25.6286 71.2015,25.6755 71.3056,25.6755 C71.4515,25.6755 71.5817,25.5661 71.6962,25.3473 C71.7067,25.3057 71.7223,25.264 71.7431,25.2223 L72.0087,25.2223 L72.0087,27.5661 L71.7587,27.5661 C71.4879,26.9619 71.2067,26.5192 70.915,26.238 C70.8525,26.1755 70.7952,26.1234 70.7431,26.0817 C70.316,25.7067 69.8733,25.5192 69.415,25.5192 C68.415,25.5192 67.8212,26.238 67.6337,27.6755 C67.6025,27.9984 67.5869,28.3473 67.5869,28.7223 C67.5869,29.9098 67.8004,30.7796 68.2275,31.3317 C68.5608,31.7484 69.0192,31.9567 69.6025,31.9567 C70.165,31.9567 70.4827,31.7796 70.5556,31.4255 C70.566,31.363 70.5712,31.2953 70.5712,31.2223 L70.5712,30.1755 C70.5712,29.8838 70.4983,29.6963 70.3525,29.613 C70.2067,29.5401 69.941,29.4932 69.5556,29.4723 L69.5556,29.2223 L72.9931,29.2223 L72.9931,29.4723 C72.5869,29.514 72.3369,29.6026 72.2431,29.738 C72.1702,29.8526 72.1337,30.0713 72.1337,30.3942 L72.1337,31.6598 C71.54,32.014 70.7535,32.2223 69.7744,32.2848 C69.639,32.2848 69.5035,32.2848 69.3681,32.2848 C68.2535,32.2848 67.3629,31.9255 66.6962,31.2067 C66.1025,30.5609 65.8056,29.7536 65.8056,28.7848 C65.8056,27.7432 66.1494,26.8786 66.8369,26.1911 C67.5035,25.5244 68.3212,25.1911 69.29,25.1911 M77.0556,28.8161 C76.8369,28.8161 76.6233,28.6963 76.415,28.4567 C76.3004,28.3109 76.2171,28.2328 76.165,28.2223 C75.9462,28.2223 75.7796,28.3734 75.665,28.6755 C75.5921,28.8317 75.5556,28.9984 75.5556,29.1755 L75.5556,31.0661 C75.5556,31.4307 75.6285,31.6546 75.7744,31.738 C75.8681,31.8005 76.04,31.8421 76.29,31.863 L76.29,32.0973 L73.6494,32.0973 L73.6494,31.863 C73.9202,31.8109 74.0817,31.7171 74.1337,31.5817 C74.1546,31.5088 74.165,31.3994 74.165,31.2536 L74.165,28.3161 C74.165,28.0557 74.0921,27.889 73.9462,27.8161 C73.8733,27.7744 73.7744,27.7432 73.6494,27.7223 L73.6494,27.488 L75.5244,27.488 L75.5244,28.3161 C75.8994,27.764 76.2692,27.4567 76.6337,27.3942 C76.7171,27.3734 76.7952,27.363 76.8681,27.363 C77.2119,27.363 77.4567,27.5036 77.6025,27.7848 C77.6546,27.8994 77.6806,28.0192 77.6806,28.1442 C77.6806,28.4567 77.5556,28.6651 77.3056,28.7692 C77.2223,28.8005 77.139,28.8161 77.0556,28.8161 M78.9306,28.0661 C78.9306,28.0973 78.9827,28.1911 79.0869,28.3473 C79.1806,28.4932 79.2275,28.6182 79.2275,28.7223 C79.2275,28.9828 79.0973,29.1598 78.8369,29.2536 C78.7431,29.2848 78.6494,29.3005 78.5556,29.3005 C78.191,29.3005 77.9775,29.139 77.915,28.8161 C77.9046,28.7536 77.8994,28.6963 77.8994,28.6442 C77.8994,28.1755 78.1546,27.8265 78.665,27.5973 C78.9879,27.4411 79.3629,27.363 79.79,27.363 C80.665,27.363 81.264,27.6026 81.5869,28.0817 C81.7119,28.2796 81.7744,28.5036 81.7744,28.7536 L81.7744,31.3317 C81.7848,31.488 81.8525,31.5713 81.9775,31.5817 C82.0296,31.5713 82.066,31.5557 82.0869,31.5348 L82.1962,31.4411 L82.3369,31.6442 C81.941,32.0192 81.5712,32.2171 81.2275,32.238 C80.8525,32.238 80.6077,32.0973 80.4931,31.8161 C80.4619,31.7223 80.4306,31.6234 80.3994,31.5192 C79.8577,31.988 79.3317,32.2276 78.8212,32.238 C78.3837,32.238 78.066,32.0713 77.8681,31.738 C77.764,31.5713 77.7119,31.389 77.7119,31.1911 C77.7119,30.6078 78.1598,30.1338 79.0556,29.7692 C79.2952,29.6651 79.7431,29.514 80.3994,29.3161 L80.3994,28.5817 C80.3994,28.0505 80.1806,27.7588 79.7431,27.7067 C79.6806,27.7067 79.6181,27.7067 79.5556,27.7067 C79.264,27.7067 79.066,27.7901 78.9619,27.9567 C78.941,27.988 78.9306,28.0244 78.9306,28.0661 M80.3837,31.0817 L80.3837,29.6442 C79.5817,29.863 79.1754,30.264 79.165,30.8473 C79.165,31.1807 79.2744,31.389 79.4931,31.4723 C79.5556,31.4932 79.6181,31.5036 79.6806,31.5036 C79.9098,31.5036 80.1442,31.363 80.3837,31.0817 M85.8525,32.2223 L85.8525,31.5817 C85.4983,31.9567 85.1546,32.1703 84.8212,32.2223 C84.7275,32.2328 84.6285,32.238 84.5244,32.238 C83.9306,32.238 83.4619,31.9619 83.1181,31.4098 C82.8473,30.9828 82.7119,30.4776 82.7119,29.8942 C82.7119,29.0401 82.9567,28.3682 83.4462,27.8786 C83.7796,27.5348 84.1754,27.363 84.6337,27.363 C84.9879,27.363 85.3108,27.4984 85.6025,27.7692 C85.6858,27.8421 85.7587,27.9098 85.8212,27.9723 L85.8212,26.1598 C85.8212,25.9098 85.764,25.7536 85.6494,25.6911 C85.5452,25.639 85.3473,25.6026 85.0556,25.5817 L85.0556,25.3473 L87.2119,25.3473 L87.2119,31.0973 C87.2119,31.3786 87.2952,31.5505 87.4619,31.613 C87.5452,31.6442 87.6598,31.6651 87.8056,31.6755 L87.8056,31.9098 L87.1806,31.988 C86.6285,32.0609 86.1858,32.139 85.8525,32.2223 M84.9775,31.6911 C85.2692,31.6911 85.5192,31.5244 85.7275,31.1911 C85.7796,31.0973 85.8108,31.0296 85.8212,30.988 L85.8212,28.5348 C85.6962,28.2015 85.4879,28.0036 85.1962,27.9411 C85.1442,27.9307 85.0921,27.9255 85.04,27.9255 C84.5296,27.9255 84.2483,28.4307 84.1962,29.4411 C84.1962,29.5557 84.1962,29.6807 84.1962,29.8161 C84.1962,31.0557 84.4567,31.6807 84.9775,31.6911 M90.1494,29.6442 C90.2015,30.6651 90.4671,31.264 90.9462,31.4411 C91.0712,31.4828 91.2015,31.5036 91.3369,31.5036 C91.7015,31.5036 92.0348,31.3369 92.3369,31.0036 C92.389,30.9515 92.4358,30.8994 92.4775,30.8473 L92.7119,30.988 C92.2952,31.5921 91.8837,31.9723 91.4775,32.1286 C91.2692,32.2015 91.0348,32.238 90.7744,32.238 C90.0244,32.238 89.4619,31.9307 89.0869,31.3161 C88.8369,30.8994 88.7119,30.3994 88.7119,29.8161 C88.7119,28.9203 88.9827,28.2484 89.5244,27.8005 C89.889,27.5088 90.316,27.363 90.8056,27.363 C91.9098,27.363 92.5296,28.0817 92.665,29.5192 C92.665,29.5609 92.665,29.6026 92.665,29.6442 L90.1494,29.6442 M91.4462,29.1286 C91.4254,28.5036 91.3577,28.1078 91.2431,27.9411 C91.1494,27.7848 91.0035,27.7067 90.8056,27.7067 C90.514,27.7067 90.316,27.8786 90.2119,28.2223 C90.1494,28.4619 90.1129,28.8161 90.1025,29.2848 L91.4462,29.2848 L91.4462,29.1286 M96.9619,26.3161 C96.8577,26.3161 96.5921,26.3942 96.165,26.5505 C96.1442,26.5609 96.1285,26.5661 96.1181,26.5661 L96.1181,26.3161 L98.6337,25.2223 L98.8056,25.2223 L98.8056,30.9255 C98.8056,31.3317 98.8837,31.5869 99.04,31.6911 C99.1858,31.7953 99.4671,31.8526 99.8837,31.863 L99.8837,32.0973 L96.1337,32.0973 L96.1337,31.863 C96.6754,31.8526 97.014,31.7692 97.1494,31.613 C97.264,31.4671 97.3212,31.2171 97.3212,30.863 L97.3212,27.0036 C97.3108,26.5557 97.191,26.3265 96.9619,26.3161 M102.118,30.5348 C102.441,30.5348 102.686,30.6755 102.852,30.9567 C102.936,31.1026 102.977,31.2484 102.977,31.3942 C102.977,31.7067 102.837,31.9463 102.556,32.113 C102.41,32.1859 102.264,32.2223 102.118,32.2223 C101.785,32.2223 101.54,32.0817 101.384,31.8005 C101.311,31.6651 101.274,31.5244 101.274,31.3786 C101.274,31.0765 101.41,30.8421 101.681,30.6755 C101.816,30.5817 101.962,30.5348 102.118,30.5348 M102.118,27.3786 C102.441,27.3786 102.686,27.514 102.852,27.7848 C102.936,27.9307 102.977,28.0765 102.977,28.2223 C102.977,28.5453 102.837,28.7901 102.556,28.9567 C102.42,29.0296 102.274,29.0661 102.118,29.0661 C101.785,29.0661 101.54,28.9203 101.384,28.6286 C101.311,28.4932 101.274,28.3526 101.274,28.2067 C101.274,27.9046 101.41,27.6703 101.681,27.5036 C101.816,27.4203 101.962,27.3786 102.118,27.3786"/>
<path class="StaffText" d="M110.415,25.738 C109.342,25.738 108.613,26.2588 108.227,27.3005 C108.04,27.7692 107.946,28.2848 107.946,28.8473 C107.946,30.0244 108.306,30.8734 109.024,31.3942 C109.451,31.7067 109.972,31.863 110.587,31.863 C111.118,31.863 111.514,31.7484 111.774,31.5192 C111.858,31.4359 111.905,31.3526 111.915,31.2692 L111.915,29.6286 C111.915,29.2328 111.842,28.9828 111.696,28.8786 C111.592,28.8161 111.368,28.7692 111.024,28.738 L111.024,28.5661 L113.571,28.5661 L113.571,28.738 C113.238,28.7692 113.035,28.8578 112.962,29.0036 C112.91,29.1078 112.884,29.2796 112.884,29.5192 L112.884,31.5505 C112.602,31.7901 112.087,31.9828 111.337,32.1286 C110.972,32.2015 110.649,32.238 110.368,32.238 C109.451,32.238 108.67,32.0036 108.024,31.5348 C107.222,30.9307 106.816,30.0401 106.806,28.863 C106.806,27.8005 107.155,26.9359 107.852,26.2692 C108.498,25.6651 109.295,25.363 110.243,25.363 C110.649,25.363 111.123,25.4411 111.665,25.5973 C111.832,25.6494 111.957,25.6755 112.04,25.6755 C112.248,25.6755 112.389,25.5869 112.462,25.4098 C112.472,25.389 112.483,25.3734 112.493,25.363 L112.712,25.363 L112.79,27.4723 L112.556,27.4723 C112.254,26.7328 111.884,26.238 111.446,25.988 C111.144,25.8213 110.8,25.738 110.415,25.738 M116.587,28.1442 L116.587,27.9723 C117.066,27.8265 117.535,27.6703 117.993,27.5036 L118.056,27.5192 L118.056,28.2848 C118.629,27.8473 119.04,27.5973 119.29,27.5348 C119.394,27.514 119.498,27.5036 119.602,27.5036 C120.134,27.514 120.488,27.8005 120.665,28.363 C121.196,27.7901 121.743,27.5036 122.306,27.5036 C123.066,27.514 123.451,28.113 123.462,29.3005 L123.462,31.3473 C123.472,31.7119 123.613,31.9046 123.884,31.9255 L124.149,31.9411 L124.149,32.0973 L121.962,32.0973 L121.962,31.9411 C122.285,31.9098 122.477,31.8369 122.54,31.7223 C122.592,31.6286 122.618,31.4671 122.618,31.238 L122.618,29.1286 C122.618,28.5765 122.509,28.2432 122.29,28.1286 C122.186,28.0661 122.045,28.0348 121.868,28.0348 C121.42,28.0453 121.056,28.2484 120.774,28.6442 L120.774,31.1598 C120.774,31.5348 120.863,31.7692 121.04,31.863 C121.144,31.9151 121.295,31.9411 121.493,31.9411 L121.493,32.0973 L119.259,32.0973 L119.259,31.9411 C119.582,31.9203 119.78,31.8473 119.852,31.7223 C119.915,31.6286 119.946,31.4671 119.946,31.238 L119.946,29.0817 C119.946,28.3838 119.722,28.0348 119.274,28.0348 C118.91,28.0348 118.587,28.1546 118.306,28.3942 C118.233,28.4671 118.165,28.5453 118.102,28.6286 L118.102,31.4255 C118.102,31.6755 118.191,31.8317 118.368,31.8942 C118.462,31.9255 118.597,31.9411 118.774,31.9411 L118.774,32.0973 L116.556,32.0973 L116.556,31.9411 C116.91,31.9411 117.123,31.8578 117.196,31.6911 C117.238,31.5869 117.259,31.4411 117.259,31.2536 L117.259,28.738 C117.259,28.363 117.181,28.1546 117.024,28.113 C116.993,28.1026 116.957,28.0973 116.915,28.0973 C116.811,28.0973 116.701,28.113 116.587,28.1442 M124.712,31.1286 C124.712,30.6182 125.03,30.1859 125.665,29.8317 C125.852,29.738 126.352,29.5244 127.165,29.1911 C127.186,29.1911 127.201,29.1859 127.212,29.1755 L127.212,28.5661 C127.16,28.0453 126.905,27.7692 126.446,27.738 C126.134,27.738 125.915,27.8369 125.79,28.0348 C125.748,28.1078 125.727,28.1703 125.727,28.2223 C125.727,28.2848 125.738,28.3682 125.759,28.4723 C125.769,28.5453 125.774,28.5973 125.774,28.6286 C125.774,28.8057 125.686,28.9307 125.509,29.0036 C125.446,29.0348 125.389,29.0505 125.337,29.0505 C125.149,29.0505 125.019,28.9619 124.946,28.7848 C124.915,28.7328 124.899,28.6755 124.899,28.613 C124.899,28.2484 125.118,27.9515 125.556,27.7223 C125.858,27.5765 126.201,27.5036 126.587,27.5036 C127.306,27.5036 127.748,27.7588 127.915,28.2692 C127.988,28.488 128.024,28.764 128.024,29.0973 L128.024,31.0348 C128.024,31.3682 128.087,31.5557 128.212,31.5973 C128.254,31.6078 128.29,31.613 128.321,31.613 C128.467,31.6026 128.613,31.5401 128.759,31.4255 L128.759,31.6755 C128.488,31.988 128.238,32.1598 128.009,32.1911 C127.957,32.1911 127.905,32.1911 127.852,32.1911 C127.54,32.1911 127.342,32.0348 127.259,31.7223 C127.238,31.639 127.227,31.5453 127.227,31.4411 C126.634,31.9203 126.144,32.1703 125.759,32.1911 C125.332,32.1911 125.024,32.0192 124.837,31.6755 C124.754,31.5088 124.712,31.3265 124.712,31.1286 M127.212,30.8473 L127.212,29.4098 C126.389,29.7119 125.884,30.0192 125.696,30.3317 C125.623,30.4776 125.587,30.6338 125.587,30.8005 C125.587,31.1963 125.733,31.4463 126.024,31.5505 C126.097,31.5817 126.165,31.5973 126.227,31.5973 C126.446,31.5869 126.686,31.5088 126.946,31.363 C127.092,31.2796 127.175,31.1755 127.196,31.0505 C127.207,30.988 127.212,30.9203 127.212,30.8473 M129.931,28.1755 C129.931,28.1755 129.78,28.1859 129.477,28.2067 L129.477,28.0348 C130.019,27.8682 130.54,27.6911 131.04,27.5036 L131.087,27.5348 L131.087,32.0973 C131.087,33.3265 130.675,34.0348 129.852,34.2223 C129.707,34.2536 129.556,34.2692 129.399,34.2692 C128.962,34.2692 128.67,34.1598 128.524,33.9411 C128.483,33.8682 128.462,33.7953 128.462,33.7223 C128.462,33.5348 128.55,33.4151 128.727,33.363 C128.78,33.3421 128.826,33.3317 128.868,33.3317 C129.014,33.3317 129.17,33.4359 129.337,33.6442 C129.514,33.8317 129.66,33.9307 129.774,33.9411 C130.004,33.9411 130.144,33.7796 130.196,33.4567 C130.227,33.2588 130.243,32.9567 130.243,32.5505 L130.243,28.7536 C130.243,28.3994 130.165,28.2067 130.009,28.1755 C129.977,28.1755 129.951,28.1755 129.931,28.1755 M130.587,25.2692 C130.806,25.2692 130.962,25.3682 131.056,25.5661 C131.087,25.639 131.102,25.7119 131.102,25.7848 C131.102,26.0036 130.993,26.1598 130.774,26.2536 C130.712,26.2744 130.649,26.2848 130.587,26.2848 C130.358,26.2848 130.201,26.1859 130.118,25.988 C130.097,25.9151 130.087,25.8473 130.087,25.7848 C130.087,25.5661 130.181,25.4098 130.368,25.3161 C130.441,25.2848 130.514,25.2692 130.587,25.2692 M133.915,27.5036 C134.655,27.5036 135.238,27.7744 135.665,28.3161 C135.967,28.7223 136.118,29.2015 136.118,29.7536 C136.118,30.5348 135.863,31.1598 135.352,31.6286 C134.936,32.0036 134.451,32.1911 133.899,32.1911 C133.191,32.1911 132.629,31.9203 132.212,31.3786 C131.879,30.9411 131.712,30.4255 131.712,29.8317 C131.712,29.0192 131.988,28.3942 132.54,27.9567 C132.925,27.6546 133.384,27.5036 133.915,27.5036 M132.618,29.3473 C132.618,30.2536 132.806,30.9463 133.181,31.4255 C133.42,31.738 133.701,31.8942 134.024,31.8942 C134.545,31.8942 134.905,31.5973 135.102,31.0036 C135.186,30.7432 135.227,30.4463 135.227,30.113 C135.227,29.2276 135.014,28.5713 134.587,28.1442 C134.358,27.9151 134.092,27.8005 133.79,27.8005 C133.321,27.8005 132.983,28.0401 132.774,28.5192 C132.67,28.7588 132.618,29.0348 132.618,29.3473 M139.477,28.4723 C139.373,28.4723 139.222,28.389 139.024,28.2223 C138.931,28.139 138.858,28.0973 138.806,28.0973 C138.639,28.0973 138.467,28.2276 138.29,28.488 C138.175,28.6546 138.118,28.8005 138.118,28.9255 L138.118,31.1911 C138.118,31.5348 138.207,31.7484 138.384,31.8317 C138.509,31.8942 138.701,31.9307 138.962,31.9411 L138.962,32.0973 L136.556,32.0973 L136.556,31.9411 C136.91,31.8786 137.123,31.7953 137.196,31.6911 C137.248,31.6078 137.274,31.4619 137.274,31.2536 L137.274,28.738 C137.274,28.3734 137.191,28.1755 137.024,28.1442 C136.993,28.1338 136.962,28.1286 136.931,28.1286 C136.816,28.1286 136.701,28.1442 136.587,28.1755 L136.587,28.0192 C137.118,27.8526 137.608,27.6807 138.056,27.5036 L138.118,27.5192 L138.118,28.4098 C138.462,27.9307 138.754,27.6442 138.993,27.5505 C139.097,27.5192 139.201,27.5036 139.306,27.5036 C139.618,27.5036 139.8,27.6338 139.852,27.8942 C139.852,27.9359 139.852,27.9828 139.852,28.0348 C139.821,28.3057 139.696,28.4515 139.477,28.4723 M145.134,27.7067 C145.155,27.6963 145.212,27.6598 145.306,27.5973 L145.415,27.5973 L145.446,28.9567 L145.306,28.9567 C145.139,28.3109 144.899,27.9255 144.587,27.8005 C144.472,27.7484 144.342,27.7223 144.196,27.7223 C143.842,27.7223 143.602,27.863 143.477,28.1442 C143.446,28.2276 143.431,28.3161 143.431,28.4098 C143.441,28.6911 143.587,28.9151 143.868,29.0817 L144.946,29.7223 C145.425,30.014 145.696,30.3317 145.759,30.6755 C145.769,30.7484 145.774,30.8317 145.774,30.9255 C145.774,31.3421 145.592,31.6807 145.227,31.9411 C144.967,32.1078 144.681,32.1911 144.368,32.1911 C144.233,32.1911 143.925,32.1442 143.446,32.0505 C143.332,32.0296 143.243,32.0192 143.181,32.0192 C143.076,32.0296 142.998,32.0713 142.946,32.1442 L142.821,32.1442 L142.821,30.5817 L142.977,30.5817 C143.082,31.0505 143.212,31.3786 143.368,31.5661 C143.587,31.8369 143.879,31.9723 144.243,31.9723 C144.67,31.9723 144.936,31.8161 145.04,31.5036 C145.071,31.4307 145.087,31.3473 145.087,31.2536 C145.076,30.9515 144.899,30.7015 144.556,30.5036 L143.977,30.1755 C143.352,29.8213 142.983,29.4671 142.868,29.113 C142.826,28.988 142.806,28.863 142.806,28.738 C142.806,28.2692 143.009,27.9203 143.415,27.6911 C143.644,27.5661 143.894,27.5036 144.165,27.5036 C144.384,27.5036 144.644,27.5557 144.946,27.6598 C145.03,27.6911 145.092,27.7067 145.134,27.7067 M146.712,29.9723 C146.712,29.1286 146.998,28.4671 147.571,27.988 C147.967,27.6651 148.41,27.5036 148.899,27.5036 C149.451,27.5036 149.879,27.6546 150.181,27.9567 C150.358,28.1338 150.446,28.3265 150.446,28.5348 C150.446,28.7119 150.352,28.8369 150.165,28.9098 C150.092,28.9411 150.024,28.9567 149.962,28.9567 C149.754,28.9567 149.602,28.8213 149.509,28.5505 C149.498,28.5296 149.493,28.5088 149.493,28.488 L149.431,28.2692 C149.368,28.0192 149.254,27.8734 149.087,27.8317 C149.014,27.8109 148.931,27.8005 148.837,27.8005 C148.337,27.8005 147.957,28.0401 147.696,28.5192 C147.55,28.8109 147.477,29.1494 147.477,29.5348 C147.477,30.264 147.701,30.8109 148.149,31.1755 C148.41,31.3734 148.701,31.4723 149.024,31.4723 C149.441,31.4723 149.8,31.3057 150.102,30.9723 C150.207,30.8473 150.321,30.7015 150.446,30.5348 L150.587,30.6286 C150.212,31.3473 149.795,31.8161 149.337,32.0348 C149.097,32.139 148.858,32.1911 148.618,32.1911 C147.972,32.1911 147.467,31.9255 147.102,31.3942 C146.842,30.988 146.712,30.514 146.712,29.9723 M150.712,31.1286 C150.712,30.6182 151.03,30.1859 151.665,29.8317 C151.852,29.738 152.352,29.5244 153.165,29.1911 C153.186,29.1911 153.201,29.1859 153.212,29.1755 L153.212,28.5661 C153.16,28.0453 152.905,27.7692 152.446,27.738 C152.134,27.738 151.915,27.8369 151.79,28.0348 C151.748,28.1078 151.727,28.1703 151.727,28.2223 C151.727,28.2848 151.738,28.3682 151.759,28.4723 C151.769,28.5453 151.774,28.5973 151.774,28.6286 C151.774,28.8057 151.686,28.9307 151.509,29.0036 C151.446,29.0348 151.389,29.0505 151.337,29.0505 C151.149,29.0505 151.019,28.9619 150.946,28.7848 C150.915,28.7328 150.899,28.6755 150.899,28.613 C150.899,28.2484 151.118,27.9515 151.556,27.7223 C151.858,27.5765 152.201,27.5036 152.587,27.5036 C153.306,27.5036 153.748,27.7588 153.915,28.2692 C153.988,28.488 154.024,28.764 154.024,29.0973 L154.024,31.0348 C154.024,31.3682 154.087,31.5557 154.212,31.5973 C154.254,31.6078 154.29,31.613 154.321,31.613 C154.467,31.6026 154.613,31.5401 154.759,31.4255 L154.759,31.6755 C154.488,31.988 154.238,32.1598 154.009,32.1911 C153.957,32.1911 153.905,32.1911 153.852,32.1911 C153.54,32.1911 153.342,32.0348 153.259,31.7223 C153.238,31.639 153.227,31.5453 153.227,31.4411 C152.634,31.9203 152.144,32.1703 151.759,32.1911 C151.332,32.1911 151.024,32.0192 150.837,31.6755 C150.754,31.5088 150.712,31.3265 150.712,31.1286 M153.212,30.8473 L153.212,29.4098 C152.389,29.7119 151.884,30.0192 151.696,30.3317 C151.623,30.4776 151.587,30.6338 151.587,30.8005 C151.587,31.1963 151.733,31.4463 152.024,31.5505 C152.097,31.5817 152.165,31.5973 152.227,31.5973 C152.446,31.5869 152.686,31.5088 152.946,31.363 C153.092,31.2796 153.175,31.1755 153.196,31.0505 C153.207,30.988 153.212,30.9203 153.212,30.8473 M154.556,25.863 L154.556,25.7067 C155.222,25.5401 155.754,25.3942 156.149,25.2692 L156.196,25.2848 L156.196,31.2536 C156.196,31.5661 156.259,31.7588 156.384,31.8317 C156.498,31.8838 156.686,31.9203 156.946,31.9411 L156.946,32.0973 L154.587,32.0973 L154.587,31.9411 C154.962,31.9098 155.191,31.8213 155.274,31.6755 C155.326,31.5817 155.352,31.4307 155.352,31.2223 L155.352,26.4567 C155.352,26.1234 155.28,25.9307 155.134,25.8786 C155.071,25.8578 155.004,25.8473 154.931,25.8473 C154.795,25.8473 154.67,25.8526 154.556,25.863 M158.431,29.3317 C158.472,30.5088 158.858,31.2015 159.587,31.4098 C159.712,31.4515 159.847,31.4723 159.993,31.4723 C160.483,31.4723 160.899,31.264 161.243,30.8473 C161.337,30.7328 161.436,30.5973 161.54,30.4411 L161.696,30.5036 C161.332,31.4619 160.759,32.014 159.977,32.1598 C159.842,32.1807 159.712,32.1911 159.587,32.1911 C158.847,32.1911 158.316,31.8786 157.993,31.2536 C157.806,30.8786 157.712,30.4463 157.712,29.9567 C157.712,29.0713 157.988,28.3994 158.54,27.9411 C158.905,27.6494 159.326,27.5036 159.806,27.5036 C160.722,27.5036 161.274,28.0244 161.462,29.0661 C161.483,29.1598 161.498,29.2484 161.509,29.3317 L158.431,29.3317 M158.446,29.0348 L160.493,29.0348 C160.399,28.4619 160.233,28.1078 159.993,27.9723 C159.868,27.9098 159.707,27.8786 159.509,27.8786 C158.915,27.8786 158.561,28.2536 158.446,29.0036 C158.446,29.014 158.446,29.0244 158.446,29.0348 M166.915,27.5036 C167.655,27.5036 168.238,27.7744 168.665,28.3161 C168.967,28.7223 169.118,29.2015 169.118,29.7536 C169.118,30.5348 168.863,31.1598 168.352,31.6286 C167.936,32.0036 167.451,32.1911 166.899,32.1911 C166.191,32.1911 165.629,31.9203 165.212,31.3786 C164.879,30.9411 164.712,30.4255 164.712,29.8317 C164.712,29.0192 164.988,28.3942 165.54,27.9567 C165.925,27.6546 166.384,27.5036 166.915,27.5036 M165.618,29.3473 C165.618,30.2536 165.806,30.9463 166.181,31.4255 C166.42,31.738 166.701,31.8942 167.024,31.8942 C167.545,31.8942 167.905,31.5973 168.102,31.0036 C168.186,30.7432 168.227,30.4463 168.227,30.113 C168.227,29.2276 168.014,28.5713 167.587,28.1442 C167.358,27.9151 167.092,27.8005 166.79,27.8005 C166.321,27.8005 165.983,28.0401 165.774,28.5192 C165.67,28.7588 165.618,29.0348 165.618,29.3473 M169.556,28.113 L169.556,27.9411 C170.056,27.7953 170.519,27.6494 170.946,27.5036 L171.009,27.5192 L171.009,28.3005 C171.488,27.863 171.863,27.6078 172.134,27.5348 C172.238,27.514 172.347,27.5036 172.462,27.5036 C173.004,27.5036 173.363,27.7744 173.54,28.3161 C173.602,28.514 173.634,28.738 173.634,28.988 L173.634,31.2848 C173.634,31.5973 173.707,31.7901 173.852,31.863 C173.946,31.8942 174.076,31.9203 174.243,31.9411 L174.243,32.0973 L172.165,32.0973 L172.165,31.9411 C172.467,31.9203 172.655,31.8213 172.727,31.6442 C172.78,31.5296 172.806,31.3526 172.806,31.113 L172.806,29.0192 C172.785,28.3734 172.54,28.0453 172.071,28.0348 C171.821,28.0348 171.561,28.1494 171.29,28.3786 C171.217,28.4515 171.134,28.5296 171.04,28.613 L171.04,31.4255 C171.04,31.6651 171.139,31.8213 171.337,31.8942 C171.431,31.9151 171.55,31.9307 171.696,31.9411 L171.696,32.0973 L169.587,32.0973 L169.587,31.9411 C169.879,31.9203 170.061,31.8369 170.134,31.6911 C170.175,31.5765 170.196,31.4098 170.196,31.1911 L170.196,28.7067 C170.196,28.3421 170.123,28.139 169.977,28.0973 C169.936,28.0765 169.889,28.0661 169.837,28.0661 C169.712,28.0661 169.618,28.0817 169.556,28.113 M175.431,29.3317 C175.472,30.5088 175.858,31.2015 176.587,31.4098 C176.712,31.4515 176.847,31.4723 176.993,31.4723 C177.483,31.4723 177.899,31.264 178.243,30.8473 C178.337,30.7328 178.436,30.5973 178.54,30.4411 L178.696,30.5036 C178.332,31.4619 177.759,32.014 176.977,32.1598 C176.842,32.1807 176.712,32.1911 176.587,32.1911 C175.847,32.1911 175.316,31.8786 174.993,31.2536 C174.806,30.8786 174.712,30.4463 174.712,29.9567 C174.712,29.0713 174.988,28.3994 175.54,27.9411 C175.905,27.6494 176.326,27.5036 176.806,27.5036 C177.722,27.5036 178.274,28.0244 178.462,29.0661 C178.483,29.1598 178.498,29.2484 178.509,29.3317 L175.431,29.3317 M175.446,29.0348 L177.493,29.0348 C177.399,28.4619 177.233,28.1078 176.993,27.9723 C176.868,27.9098 176.707,27.8786 176.509,27.8786 C175.915,27.8786 175.561,28.2536 175.446,29.0036 C175.446,29.014 175.446,29.0244 175.446,29.0348 M183.915,27.5036 C184.655,27.5036 185.238,27.7744 185.665,28.3161 C185.967,28.7223 186.118,29.2015 186.118,29.7536 C186.118,30.5348 185.863,31.1598 185.352,31.6286 C184.936,32.0036 184.451,32.1911 183.899,32.1911 C183.191,32.1911 182.629,31.9203 182.212,31.3786 C181.879,30.9411 181.712,30.4255 181.712,29.8317 C181.712,29.0192 181.988,28.3942 182.54,27.9567 C182.925,27.6546 183.384,27.5036 183.915,27.5036 M182.618,29.3473 C182.618,30.2536 182.806,30.9463 183.181,31.4255 C183.42,31.738 183.701,31.8942 184.024,31.8942 C184.545,31.8942 184.905,31.5973 185.102,31.0036 C185.186,30.7432 185.227,30.4463 185.227,30.113 C185.227,29.2276 185.014,28.5713 184.587,28.1442 C184.358,27.9151 184.092,27.8005 183.79,27.8005 C183.321,27.8005 182.983,28.0401 182.774,28.5192 C182.67,28.7588 182.618,29.0348 182.618,29.3473 M186.712,29.9723 C186.712,29.1286 186.998,28.4671 187.571,27.988 C187.967,27.6651 188.41,27.5036 188.899,27.5036 C189.451,27.5036 189.879,27.6546 190.181,27.9567 C190.358,28.1338 190.446,28.3265 190.446,28.5348 C190.446,28.7119 190.352,28.8369 190.165,28.9098 C190.092,28.9411 190.024,28.9567 189.962,28.9567 C189.754,28.9567 189.602,28.8213 189.509,28.5505 C189.498,28.5296 189.493,28.5088 189.493,28.488 L189.431,28.2692 C189.368,28.0192 189.254,27.8734 189.087,27.8317 C189.014,27.8109 188.931,27.8005 188.837,27.8005 C188.337,27.8005 187.957,28.0401 187.696,28.5192 C187.55,28.8109 187.477,29.1494 187.477,29.5348 C187.477,30.264 187.701,30.8109 188.149,31.1755 C188.41,31.3734 188.701,31.4723 189.024,31.4723 C189.441,31.4723 189.8,31.3057 190.102,30.9723 C190.207,30.8473 190.321,30.7015 190.446,30.5348 L190.587,30.6286 C190.212,31.3473 189.795,31.8161 189.337,32.0348 C189.097,32.139 188.858,32.1911 188.618,32.1911 C187.972,32.1911 187.467,31.9255 187.102,31.3942 C186.842,30.988 186.712,30.514 186.712,29.9723 M193.056,27.5973 L193.056,27.8942 L192.04,27.8942 L192.04,30.7536 C192.04,31.2953 192.175,31.5921 192.446,31.6442 C192.477,31.6546 192.514,31.6598 192.556,31.6598 C192.764,31.6494 192.967,31.5296 193.165,31.3005 L193.29,31.4255 C192.967,31.9359 192.566,32.1911 192.087,32.1911 C191.504,32.1807 191.207,31.7588 191.196,30.9255 L191.196,27.8942 L190.665,27.8942 C190.644,27.8734 190.634,27.8526 190.634,27.8317 C190.634,27.7901 190.675,27.7484 190.759,27.7067 C191.04,27.5192 191.373,27.1546 191.759,26.613 C191.769,26.6026 191.774,26.5973 191.774,26.5973 C191.879,26.4411 191.946,26.3473 191.977,26.3161 C192.019,26.3265 192.04,26.3682 192.04,26.4411 L192.04,27.5973 L193.056,27.5973 M193.712,31.1286 C193.712,30.6182 194.03,30.1859 194.665,29.8317 C194.852,29.738 195.352,29.5244 196.165,29.1911 C196.186,29.1911 196.201,29.1859 196.212,29.1755 L196.212,28.5661 C196.16,28.0453 195.905,27.7692 195.446,27.738 C195.134,27.738 194.915,27.8369 194.79,28.0348 C194.748,28.1078 194.727,28.1703 194.727,28.2223 C194.727,28.2848 194.738,28.3682 194.759,28.4723 C194.769,28.5453 194.774,28.5973 194.774,28.6286 C194.774,28.8057 194.686,28.9307 194.509,29.0036 C194.446,29.0348 194.389,29.0505 194.337,29.0505 C194.149,29.0505 194.019,28.9619 193.946,28.7848 C193.915,28.7328 193.899,28.6755 193.899,28.613 C193.899,28.2484 194.118,27.9515 194.556,27.7223 C194.858,27.5765 195.201,27.5036 195.587,27.5036 C196.306,27.5036 196.748,27.7588 196.915,28.2692 C196.988,28.488 197.024,28.764 197.024,29.0973 L197.024,31.0348 C197.024,31.3682 197.087,31.5557 197.212,31.5973 C197.254,31.6078 197.29,31.613 197.321,31.613 C197.467,31.6026 197.613,31.5401 197.759,31.4255 L197.759,31.6755 C197.488,31.988 197.238,32.1598 197.009,32.1911 C196.957,32.1911 196.905,32.1911 196.852,32.1911 C196.54,32.1911 196.342,32.0348 196.259,31.7223 C196.238,31.639 196.227,31.5453 196.227,31.4411 C195.634,31.9203 195.144,32.1703 194.759,32.1911 C194.332,32.1911 194.024,32.0192 193.837,31.6755 C193.754,31.5088 193.712,31.3265 193.712,31.1286 M196.212,30.8473 L196.212,29.4098 C195.389,29.7119 194.884,30.0192 194.696,30.3317 C194.623,30.4776 194.587,30.6338 194.587,30.8005 C194.587,31.1963 194.733,31.4463 195.024,31.5505 C195.097,31.5817 195.165,31.5973 195.227,31.5973 C195.446,31.5869 195.686,31.5088 195.946,31.363 C196.092,31.2796 196.175,31.1755 196.196,31.0505 C196.207,30.988 196.212,30.9203 196.212,30.8473 M202.087,27.5973 L202.087,27.7536 C201.92,27.7744 201.795,27.8421 201.712,27.9567 C201.639,28.0609 201.55,28.2536 201.446,28.5348 L200.165,31.738 C200.03,32.0609 199.936,32.2276 199.884,32.238 C199.811,32.238 199.727,32.0921 199.634,31.8005 C199.623,31.7901 199.618,31.7796 199.618,31.7692 L198.415,28.8942 C198.165,28.3005 197.977,27.9515 197.852,27.8473 C197.769,27.7848 197.655,27.7536 197.509,27.7536 L197.509,27.5973 L199.477,27.5973 L199.477,27.7536 C199.196,27.7744 199.045,27.8473 199.024,27.9723 C199.014,27.9932 199.009,28.014 199.009,28.0348 C199.009,28.1494 199.04,28.2692 199.102,28.3942 L200.118,30.9567 L201.102,28.363 C201.144,28.2692 201.165,28.1703 201.165,28.0661 C201.165,27.889 201.019,27.7848 200.727,27.7536 C200.717,27.7536 200.707,27.7536 200.696,27.7536 L200.696,27.5973 L202.087,27.5973 M203.431,29.3317 C203.472,30.5088 203.858,31.2015 204.587,31.4098 C204.712,31.4515 204.847,31.4723 204.993,31.4723 C205.483,31.4723 205.899,31.264 206.243,30.8473 C206.337,30.7328 206.436,30.5973 206.54,30.4411 L206.696,30.5036 C206.332,31.4619 205.759,32.014 204.977,32.1598 C204.842,32.1807 204.712,32.1911 204.587,32.1911 C203.847,32.1911 203.316,31.8786 202.993,31.2536 C202.806,30.8786 202.712,30.4463 202.712,29.9567 C202.712,29.0713 202.988,28.3994 203.54,27.9411 C203.905,27.6494 204.326,27.5036 204.806,27.5036 C205.722,27.5036 206.274,28.0244 206.462,29.0661 C206.483,29.1598 206.498,29.2484 206.509,29.3317 L203.431,29.3317 M203.446,29.0348 L205.493,29.0348 C205.399,28.4619 205.233,28.1078 204.993,27.9723 C204.868,27.9098 204.707,27.8786 204.509,27.8786 C203.915,27.8786 203.561,28.2536 203.446,29.0036 C203.446,29.014 203.446,29.0244 203.446,29.0348"/>
</svg>
