<?xml version="1.0" encoding="UTF-8" standalone="no"?>
<svg width="595.44px" height="841.68px" viewBox="0 0 595.44 841.68"
 xmlns="http://www.w3.org/2000/svg" xmlns:xlink="http://www.w3.org/1999/xlink" version="1.2" baseProfile="tiny">
<title>Guitar Scales and Arpeggios</title>
<desc>Generated by MuseScore 2.1.0</desc>
<polyline class="StaffLines" fill="none" stroke="#000000" stroke-width="0.40" stroke-linejoin="bevel" points="28.08,62.856 567.36,62.856"/>
<polyline class="StaffLines" fill="none" stroke="#000000" stroke-width="0.40" stroke-linejoin="bevel" points="28.08,67.824 567.36,67.824"/>
<polyline class="StaffLines" fill="none" stroke="#000000" stroke-width="0.40" stroke-linejoin="bevel" points="28.08,72.792 567.36,72.792"/>
<polyline class="StaffLines" fill="none" stroke="#000000" stroke-width="0.40" stroke-linejoin="bevel" points="28.08,77.76 567.36,77.76"/>
<polyline class="StaffLines" fill="none" stroke="#000000" stroke-width="0.40" stroke-linejoin="bevel" points="28.08,82.728 567.36,82.728"/>
<polyline class="StaffLines" fill="none" stroke="#000000" stroke-width="0.40" stroke-linejoin="bevel" points="28.08,115.02 567.36,115.02"/>
<polyline class="StaffLines" fill="none" stroke="#000000" stroke-width="0.40" stroke-linejoin="bevel" points="28.08,122.472 567.36,122.472"/>
<polyline class="StaffLines" fill="none" stroke="#000000" stroke-width="0.40" stroke-linejoin="bevel" points="28.08,129.924 567.36,129.924"/>
<polyline class="StaffLines" fill="none" stroke="#000000" stroke-width="0.40" stroke-linejoin="bevel" points="28.08,137.376 567.36,137.376"/>
<polyline class="StaffLines" fill="none" stroke="#000000" stroke-width="0.40" stroke-linejoin="bevel" points="28.08,144.828 567.36,144.828"/>
<polyline class="StaffLines" fill="none" stroke="#000000" stroke-width="0.40" stroke-linejoin="bevel" points="28.08,152.28 567.36,152.28"/>
<polyline class="BarLine" fill="none" stroke="#000000" stroke-width="0.79" stroke-linejoin="bevel" points="28.4774,62.856 28.4774,152.28"/>
<polyline class="BarLine" fill="none" stroke="#000000" stroke-width="0.79" stroke-linejoin="bevel" points="562.491,115.02 562.491,152.28"/>
<polyline class="BarLine" fill="none" stroke="#000000" stroke-width="2.48" stroke-linejoin="bevel" points="566.118,115.02 566.118,152.28"/>
<polyline class="BarLine" fill="none" stroke="#000000" stroke-width="0.79" stroke-linejoin="bevel" points="562.491,62.856 562.491,82.728"/>
<polyline class="BarLine" fill="none" stroke="#000000" stroke-width="2.48" stroke-linejoin="bevel" points="566.118,62.856 566.118,82.728"/>
<polyline class="Stem" fill="none" stroke="#000000" stroke-width="0.65" stroke-linecap="round" stroke-linejoin="bevel" points="500.127,76.9969 500.127,60.993"/>
<polyline class="Stem" fill="none" stroke="#000000" stroke-width="0.65" stroke-linecap="round" stroke-linejoin="bevel" points="457.22,74.3429 457.22,59.13"/>
<polyline class="Stem" fill="none" stroke="#000000" stroke-width="0.65" stroke-linecap="round" stroke-linejoin="bevel" points="408.598,73.7251 408.598,88.317"/>
<polyline class="Stem" fill="none" stroke="#000000" stroke-width="0.65" stroke-linecap="round" stroke-linejoin="bevel" points="365.871,68.7571 365.871,84.591"/>
<polyline class="Stem" fill="none" stroke="#000000" stroke-width="0.65" stroke-linecap="round" stroke-linejoin="bevel" points="323.143,66.2731 323.143,82.728"/>
<polyline class="Stem" fill="none" stroke="#000000" stroke-width="0.65" stroke-linecap="round" stroke-linejoin="bevel" points="280.416,61.3051 280.416,77.76"/>
<polyline class="Stem" fill="none" stroke="#000000" stroke-width="0.65" stroke-linecap="round" stroke-linejoin="bevel" points="237.688,66.2731 237.688,82.728"/>
<polyline class="Stem" fill="none" stroke="#000000" stroke-width="0.65" stroke-linecap="round" stroke-linejoin="bevel" points="194.961,68.7571 194.961,84.591"/>
<polyline class="Stem" fill="none" stroke="#000000" stroke-width="0.65" stroke-linecap="round" stroke-linejoin="bevel" points="152.233,73.7251 152.233,88.317"/>
<polyline class="Stem" fill="none" stroke="#000000" stroke-width="0.65" stroke-linecap="round" stroke-linejoin="bevel" points="115.401,74.3429 115.401,59.13"/>
<polyline class="Stem" fill="none" stroke="#000000" stroke-width="0.65" stroke-linecap="round" stroke-linejoin="bevel" points="72.6732,76.8269 72.6732,60.993"/>
<path class="Note" fill="#ffffff" fill-rule="evenodd" d="M494.475,126.198 L500.437,126.198 L500.437,133.65 L494.475,133.65 L494.475,126.198 "/>
<path class="Note" transform="matrix(0.9936,0,0,0.9936,494.972,133.402)" d="M0.390625,-3.09375 C0.390625,-5 0.927083,-6.07813 2,-6.32813 C2.14583,-6.36979 2.30208,-6.39063 2.46875,-6.39063 C3.78125,-6.39063 4.47917,-5.40104 4.5625,-3.42188 C4.5625,-3.28646 4.5625,-3.15625 4.5625,-3.03125 C4.5625,-1.40625 4.15104,-0.385417 3.32813,0.03125 C3.06771,0.145833 2.78125,0.203125 2.46875,0.203125 C1.41667,0.203125 0.760417,-0.442708 0.5,-1.73438 C0.427083,-2.14063 0.390625,-2.59375 0.390625,-3.09375 M2.46875,-5.64063 C1.625,-5.63021 1.20313,-4.77083 1.20313,-3.0625 C1.20313,-1.32292 1.61979,-0.453125 2.45313,-0.453125 C3.16146,-0.453125 3.57813,-1.02604 3.70313,-2.17188 C3.73438,-2.44271 3.75,-2.75 3.75,-3.09375 C3.75,-4.79167 3.32292,-5.64063 2.46875,-5.64063"/>
<path class="Note" fill="#99cc33" transform="matrix(0.9936,0,0,0.9936,493.551,77.76)" d="M6.3125,-1.3125 C6.3125,-1.53125 6.22917,-1.71875 6.0625,-1.875 C5.88542,-2.04167 5.6875,-2.125 5.46875,-2.125 C5.08333,-2.125 4.29688,-1.73438 3.10938,-0.953125 C1.88021,-0.161458 1.13021,0.40625 0.859375,0.75 C0.713542,0.927083 0.640625,1.11458 0.640625,1.3125 C0.640625,1.53125 0.729167,1.71875 0.90625,1.875 C1.0625,2.04167 1.25521,2.125 1.48438,2.125 C1.85938,2.125 2.65625,1.73438 3.875,0.953125 C5.07292,0.171875 5.8125,-0.395833 6.09375,-0.75 C6.23958,-0.916667 6.3125,-1.10417 6.3125,-1.3125 M5.28125,-2.75 C6.39583,-2.75 6.95313,-2.27083 6.95313,-1.3125 C6.95313,-0.84375 6.81771,-0.296875 6.54688,0.328125 C6.27604,0.942708 5.91146,1.41146 5.45313,1.73438 C4.45313,2.41146 3.19792,2.75 1.6875,2.75 C0.5625,2.75 0,2.27083 0,1.3125 C0,0.885417 0.135417,0.34375 0.40625,-0.3125 C0.666667,-0.9375 1.03125,-1.41146 1.5,-1.73438 C2.51042,-2.41146 3.77083,-2.75 5.28125,-2.75"/>
<path class="Note" fill="#ffffff" fill-rule="evenodd" d="M451.748,126.198 L457.709,126.198 L457.709,133.65 L451.748,133.65 L451.748,126.198 "/>
<path class="Note" transform="matrix(0.9936,0,0,0.9936,452.245,133.402)" d="M0.453125,-4.17188 C0.494792,-5.64063 1.19792,-6.38021 2.5625,-6.39063 C3.28125,-6.39063 3.83333,-6.14583 4.21875,-5.65625 C4.46875,-5.32292 4.59375,-4.93229 4.59375,-4.48438 C4.59375,-3.68229 4.14583,-3.03125 3.25,-2.53125 L2.34375,-2.04688 C1.79167,-1.75521 1.44271,-1.4375 1.29688,-1.09375 C1.24479,-0.989583 1.21354,-0.869792 1.20313,-0.734375 L4.5625,-0.734375 L4.5625,0 L0.3125,0 C0.354167,-0.760417 0.520833,-1.33854 0.8125,-1.73438 C1.07292,-2.05729 1.5,-2.38542 2.09375,-2.71875 L2.92188,-3.1875 C3.49479,-3.52083 3.78646,-3.94271 3.79688,-4.45313 C3.79688,-4.88021 3.61458,-5.21354 3.25,-5.45313 C3.04167,-5.57813 2.80208,-5.64063 2.53125,-5.64063 C1.73958,-5.64063 1.3125,-5.16667 1.25,-4.21875 C1.25,-4.19792 1.25,-4.18229 1.25,-4.17188 L0.453125,-4.17188 "/>
<path class="Note" fill="#cc00ff" transform="matrix(0.9936,0,0,0.9936,451.003,75.276)" d="M4.39063,-2.75 C5.01563,-2.75 5.54688,-2.58854 5.98438,-2.26563 C6.38021,-1.91146 6.57813,-1.46875 6.57813,-0.9375 C6.57813,-0.0416667 6.11979,0.796875 5.20313,1.57813 C4.26563,2.35938 3.26042,2.75 2.1875,2.75 C1.5625,2.75 1.03646,2.58854 0.609375,2.26563 C0.203125,1.91146 0,1.46875 0,0.9375 C0,0.0416667 0.46875,-0.796875 1.40625,-1.57813 C2.32292,-2.35938 3.31771,-2.75 4.39063,-2.75"/>
<path class="Note" fill="#ffffff" fill-rule="evenodd" d="M409.02,118.746 L414.982,118.746 L414.982,126.198 L409.02,126.198 L409.02,118.746 "/>
<path class="Note" transform="matrix(0.9936,0,0,0.9936,409.517,125.95)" d="M0.390625,-3.09375 C0.390625,-5 0.927083,-6.07813 2,-6.32813 C2.14583,-6.36979 2.30208,-6.39063 2.46875,-6.39063 C3.78125,-6.39063 4.47917,-5.40104 4.5625,-3.42188 C4.5625,-3.28646 4.5625,-3.15625 4.5625,-3.03125 C4.5625,-1.40625 4.15104,-0.385417 3.32813,0.03125 C3.06771,0.145833 2.78125,0.203125 2.46875,0.203125 C1.41667,0.203125 0.760417,-0.442708 0.5,-1.73438 C0.427083,-2.14063 0.390625,-2.59375 0.390625,-3.09375 M2.46875,-5.64063 C1.625,-5.63021 1.20313,-4.77083 1.20313,-3.0625 C1.20313,-1.32292 1.61979,-0.453125 2.45313,-0.453125 C3.16146,-0.453125 3.57813,-1.02604 3.70313,-2.17188 C3.73438,-2.44271 3.75,-2.75 3.75,-3.09375 C3.75,-4.79167 3.32292,-5.64063 2.46875,-5.64063"/>
<path class="Note" fill="#ff9ee6" transform="matrix(0.9936,0,0,0.9936,408.275,72.792)" d="M4.39063,-2.75 C5.01563,-2.75 5.54688,-2.58854 5.98438,-2.26563 C6.38021,-1.91146 6.57813,-1.46875 6.57813,-0.9375 C6.57813,-0.0416667 6.11979,0.796875 5.20313,1.57813 C4.26563,2.35938 3.26042,2.75 2.1875,2.75 C1.5625,2.75 1.03646,2.58854 0.609375,2.26563 C0.203125,1.91146 0,1.46875 0,0.9375 C0,0.0416667 0.46875,-0.796875 1.40625,-1.57813 C2.32292,-2.35938 3.31771,-2.75 4.39063,-2.75"/>
<path class="Note" fill="#ffffff" fill-rule="evenodd" d="M366.293,118.746 L372.254,118.746 L372.254,126.198 L366.293,126.198 L366.293,118.746 "/>
<path class="Note" transform="matrix(0.9936,0,0,0.9936,366.79,125.95)" d="M2.4375,-5.64063 C1.75,-5.64063 1.35417,-5.32813 1.25,-4.70313 C1.22917,-4.59896 1.21875,-4.47917 1.21875,-4.34375 L0.421875,-4.34375 C0.442708,-5.59375 1.01563,-6.27083 2.14063,-6.375 C2.23438,-6.38542 2.32813,-6.39063 2.42188,-6.39063 C3.26563,-6.39063 3.84375,-6.10938 4.15625,-5.54688 C4.29167,-5.28646 4.35938,-4.98438 4.35938,-4.64063 C4.35938,-4.00521 4.0625,-3.57292 3.46875,-3.34375 C4.03125,-3.14583 4.375,-2.81771 4.5,-2.35938 C4.54167,-2.19271 4.5625,-2.00521 4.5625,-1.79688 C4.5625,-1.05729 4.27604,-0.505208 3.70313,-0.140625 C3.33854,0.0885417 2.90104,0.203125 2.39063,0.203125 C1.21354,0.203125 0.526042,-0.348958 0.328125,-1.45313 C0.317708,-1.57813 0.302083,-1.71354 0.28125,-1.85938 L1.07813,-1.85938 C1.13021,-1.08854 1.46875,-0.65625 2.09375,-0.5625 C2.19792,-0.541667 2.30729,-0.53125 2.42188,-0.53125 C3.04688,-0.53125 3.45313,-0.765625 3.64063,-1.23438 C3.71354,-1.40104 3.75,-1.58854 3.75,-1.79688 C3.73958,-2.54688 3.29688,-2.92708 2.42188,-2.9375 L2.09375,-2.92188 L1.98438,-2.92188 L1.98438,-3.67188 C2.66146,-3.68229 3.10417,-3.77604 3.3125,-3.95313 C3.47917,-4.09896 3.5625,-4.31771 3.5625,-4.60938 C3.5625,-5.09896 3.34896,-5.41667 2.92188,-5.5625 C2.77604,-5.61458 2.61458,-5.64063 2.4375,-5.64063"/>
<path class="Note" fill="#78c7c7" transform="matrix(0.9936,0,0,0.9936,365.548,67.824)" d="M4.39063,-2.75 C5.01563,-2.75 5.54688,-2.58854 5.98438,-2.26563 C6.38021,-1.91146 6.57813,-1.46875 6.57813,-0.9375 C6.57813,-0.0416667 6.11979,0.796875 5.20313,1.57813 C4.26563,2.35938 3.26042,2.75 2.1875,2.75 C1.5625,2.75 1.03646,2.58854 0.609375,2.26563 C0.203125,1.91146 0,1.46875 0,0.9375 C0,0.0416667 0.46875,-0.796875 1.40625,-1.57813 C2.32292,-2.35938 3.31771,-2.75 4.39063,-2.75"/>
<path class="Note" fill="#ffffff" fill-rule="evenodd" d="M323.565,111.294 L329.527,111.294 L329.527,118.746 L323.565,118.746 L323.565,111.294 "/>
<path class="Note" transform="matrix(0.9936,0,0,0.9936,324.062,118.498)" d="M0.390625,-3.09375 C0.390625,-5 0.927083,-6.07813 2,-6.32813 C2.14583,-6.36979 2.30208,-6.39063 2.46875,-6.39063 C3.78125,-6.39063 4.47917,-5.40104 4.5625,-3.42188 C4.5625,-3.28646 4.5625,-3.15625 4.5625,-3.03125 C4.5625,-1.40625 4.15104,-0.385417 3.32813,0.03125 C3.06771,0.145833 2.78125,0.203125 2.46875,0.203125 C1.41667,0.203125 0.760417,-0.442708 0.5,-1.73438 C0.427083,-2.14063 0.390625,-2.59375 0.390625,-3.09375 M2.46875,-5.64063 C1.625,-5.63021 1.20313,-4.77083 1.20313,-3.0625 C1.20313,-1.32292 1.61979,-0.453125 2.45313,-0.453125 C3.16146,-0.453125 3.57813,-1.02604 3.70313,-2.17188 C3.73438,-2.44271 3.75,-2.75 3.75,-3.09375 C3.75,-4.79167 3.32292,-5.64063 2.46875,-5.64063"/>
<path class="Note" fill="#ff9933" transform="matrix(0.9936,0,0,0.9936,322.82,65.34)" d="M4.39063,-2.75 C5.01563,-2.75 5.54688,-2.58854 5.98438,-2.26563 C6.38021,-1.91146 6.57813,-1.46875 6.57813,-0.9375 C6.57813,-0.0416667 6.11979,0.796875 5.20313,1.57813 C4.26563,2.35938 3.26042,2.75 2.1875,2.75 C1.5625,2.75 1.03646,2.58854 0.609375,2.26563 C0.203125,1.91146 0,1.46875 0,0.9375 C0,0.0416667 0.46875,-0.796875 1.40625,-1.57813 C2.32292,-2.35938 3.31771,-2.75 4.39063,-2.75"/>
<path class="Note" fill="#ffffff" fill-rule="evenodd" d="M280.838,111.294 L286.8,111.294 L286.8,118.746 L280.838,118.746 L280.838,111.294 "/>
<path class="Note" transform="matrix(0.9936,0,0,0.9936,281.335,118.498)" d="M2.4375,-5.64063 C1.75,-5.64063 1.35417,-5.32813 1.25,-4.70313 C1.22917,-4.59896 1.21875,-4.47917 1.21875,-4.34375 L0.421875,-4.34375 C0.442708,-5.59375 1.01563,-6.27083 2.14063,-6.375 C2.23438,-6.38542 2.32813,-6.39063 2.42188,-6.39063 C3.26563,-6.39063 3.84375,-6.10938 4.15625,-5.54688 C4.29167,-5.28646 4.35938,-4.98438 4.35938,-4.64063 C4.35938,-4.00521 4.0625,-3.57292 3.46875,-3.34375 C4.03125,-3.14583 4.375,-2.81771 4.5,-2.35938 C4.54167,-2.19271 4.5625,-2.00521 4.5625,-1.79688 C4.5625,-1.05729 4.27604,-0.505208 3.70313,-0.140625 C3.33854,0.0885417 2.90104,0.203125 2.39063,0.203125 C1.21354,0.203125 0.526042,-0.348958 0.328125,-1.45313 C0.317708,-1.57813 0.302083,-1.71354 0.28125,-1.85938 L1.07813,-1.85938 C1.13021,-1.08854 1.46875,-0.65625 2.09375,-0.5625 C2.19792,-0.541667 2.30729,-0.53125 2.42188,-0.53125 C3.04688,-0.53125 3.45313,-0.765625 3.64063,-1.23438 C3.71354,-1.40104 3.75,-1.58854 3.75,-1.79688 C3.73958,-2.54688 3.29688,-2.92708 2.42188,-2.9375 L2.09375,-2.92188 L1.98438,-2.92188 L1.98438,-3.67188 C2.66146,-3.68229 3.10417,-3.77604 3.3125,-3.95313 C3.47917,-4.09896 3.5625,-4.31771 3.5625,-4.60938 C3.5625,-5.09896 3.34896,-5.41667 2.92188,-5.5625 C2.77604,-5.61458 2.61458,-5.64063 2.4375,-5.64063"/>
<path class="Note" fill="#99cc33" transform="matrix(0.9936,0,0,0.9936,280.093,60.372)" d="M4.39063,-2.75 C5.01563,-2.75 5.54688,-2.58854 5.98438,-2.26563 C6.38021,-1.91146 6.57813,-1.46875 6.57813,-0.9375 C6.57813,-0.0416667 6.11979,0.796875 5.20313,1.57813 C4.26563,2.35938 3.26042,2.75 2.1875,2.75 C1.5625,2.75 1.03646,2.58854 0.609375,2.26563 C0.203125,1.91146 0,1.46875 0,0.9375 C0,0.0416667 0.46875,-0.796875 1.40625,-1.57813 C2.32292,-2.35938 3.31771,-2.75 4.39063,-2.75"/>
<path class="Note" fill="#ffffff" fill-rule="evenodd" d="M238.11,111.294 L244.072,111.294 L244.072,118.746 L238.11,118.746 L238.11,111.294 "/>
<path class="Note" transform="matrix(0.9936,0,0,0.9936,238.607,118.498)" d="M0.390625,-3.09375 C0.390625,-5 0.927083,-6.07813 2,-6.32813 C2.14583,-6.36979 2.30208,-6.39063 2.46875,-6.39063 C3.78125,-6.39063 4.47917,-5.40104 4.5625,-3.42188 C4.5625,-3.28646 4.5625,-3.15625 4.5625,-3.03125 C4.5625,-1.40625 4.15104,-0.385417 3.32813,0.03125 C3.06771,0.145833 2.78125,0.203125 2.46875,0.203125 C1.41667,0.203125 0.760417,-0.442708 0.5,-1.73438 C0.427083,-2.14063 0.390625,-2.59375 0.390625,-3.09375 M2.46875,-5.64063 C1.625,-5.63021 1.20313,-4.77083 1.20313,-3.0625 C1.20313,-1.32292 1.61979,-0.453125 2.45313,-0.453125 C3.16146,-0.453125 3.57813,-1.02604 3.70313,-2.17188 C3.73438,-2.44271 3.75,-2.75 3.75,-3.09375 C3.75,-4.79167 3.32292,-5.64063 2.46875,-5.64063"/>
<path class="Note" fill="#ff9933" transform="matrix(0.9936,0,0,0.9936,237.365,65.34)" d="M4.39063,-2.75 C5.01563,-2.75 5.54688,-2.58854 5.98438,-2.26563 C6.38021,-1.91146 6.57813,-1.46875 6.57813,-0.9375 C6.57813,-0.0416667 6.11979,0.796875 5.20313,1.57813 C4.26563,2.35938 3.26042,2.75 2.1875,2.75 C1.5625,2.75 1.03646,2.58854 0.609375,2.26563 C0.203125,1.91146 0,1.46875 0,0.9375 C0,0.0416667 0.46875,-0.796875 1.40625,-1.57813 C2.32292,-2.35938 3.31771,-2.75 4.39063,-2.75"/>
<path class="Note" fill="#ffffff" fill-rule="evenodd" d="M195.383,118.746 L201.345,118.746 L201.345,126.198 L195.383,126.198 L195.383,118.746 "/>
<path class="Note" transform="matrix(0.9936,0,0,0.9936,195.88,125.95)" d="M2.4375,-5.64063 C1.75,-5.64063 1.35417,-5.32813 1.25,-4.70313 C1.22917,-4.59896 1.21875,-4.47917 1.21875,-4.34375 L0.421875,-4.34375 C0.442708,-5.59375 1.01563,-6.27083 2.14063,-6.375 C2.23438,-6.38542 2.32813,-6.39063 2.42188,-6.39063 C3.26563,-6.39063 3.84375,-6.10938 4.15625,-5.54688 C4.29167,-5.28646 4.35938,-4.98438 4.35938,-4.64063 C4.35938,-4.00521 4.0625,-3.57292 3.46875,-3.34375 C4.03125,-3.14583 4.375,-2.81771 4.5,-2.35938 C4.54167,-2.19271 4.5625,-2.00521 4.5625,-1.79688 C4.5625,-1.05729 4.27604,-0.505208 3.70313,-0.140625 C3.33854,0.0885417 2.90104,0.203125 2.39063,0.203125 C1.21354,0.203125 0.526042,-0.348958 0.328125,-1.45313 C0.317708,-1.57813 0.302083,-1.71354 0.28125,-1.85938 L1.07813,-1.85938 C1.13021,-1.08854 1.46875,-0.65625 2.09375,-0.5625 C2.19792,-0.541667 2.30729,-0.53125 2.42188,-0.53125 C3.04688,-0.53125 3.45313,-0.765625 3.64063,-1.23438 C3.71354,-1.40104 3.75,-1.58854 3.75,-1.79688 C3.73958,-2.54688 3.29688,-2.92708 2.42188,-2.9375 L2.09375,-2.92188 L1.98438,-2.92188 L1.98438,-3.67188 C2.66146,-3.68229 3.10417,-3.77604 3.3125,-3.95313 C3.47917,-4.09896 3.5625,-4.31771 3.5625,-4.60938 C3.5625,-5.09896 3.34896,-5.41667 2.92188,-5.5625 C2.77604,-5.61458 2.61458,-5.64063 2.4375,-5.64063"/>
<path class="Note" fill="#78c7c7" transform="matrix(0.9936,0,0,0.9936,194.638,67.824)" d="M4.39063,-2.75 C5.01563,-2.75 5.54688,-2.58854 5.98438,-2.26563 C6.38021,-1.91146 6.57813,-1.46875 6.57813,-0.9375 C6.57813,-0.0416667 6.11979,0.796875 5.20313,1.57813 C4.26563,2.35938 3.26042,2.75 2.1875,2.75 C1.5625,2.75 1.03646,2.58854 0.609375,2.26563 C0.203125,1.91146 0,1.46875 0,0.9375 C0,0.0416667 0.46875,-0.796875 1.40625,-1.57813 C2.32292,-2.35938 3.31771,-2.75 4.39063,-2.75"/>
<path class="Note" fill="#ffffff" fill-rule="evenodd" d="M152.656,118.746 L158.617,118.746 L158.617,126.198 L152.656,126.198 L152.656,118.746 "/>
<path class="Note" transform="matrix(0.9936,0,0,0.9936,153.152,125.95)" d="M0.390625,-3.09375 C0.390625,-5 0.927083,-6.07813 2,-6.32813 C2.14583,-6.36979 2.30208,-6.39063 2.46875,-6.39063 C3.78125,-6.39063 4.47917,-5.40104 4.5625,-3.42188 C4.5625,-3.28646 4.5625,-3.15625 4.5625,-3.03125 C4.5625,-1.40625 4.15104,-0.385417 3.32813,0.03125 C3.06771,0.145833 2.78125,0.203125 2.46875,0.203125 C1.41667,0.203125 0.760417,-0.442708 0.5,-1.73438 C0.427083,-2.14063 0.390625,-2.59375 0.390625,-3.09375 M2.46875,-5.64063 C1.625,-5.63021 1.20313,-4.77083 1.20313,-3.0625 C1.20313,-1.32292 1.61979,-0.453125 2.45313,-0.453125 C3.16146,-0.453125 3.57813,-1.02604 3.70313,-2.17188 C3.73438,-2.44271 3.75,-2.75 3.75,-3.09375 C3.75,-4.79167 3.32292,-5.64063 2.46875,-5.64063"/>
<path class="Note" fill="#ff9ee6" transform="matrix(0.9936,0,0,0.9936,151.91,72.792)" d="M4.39063,-2.75 C5.01563,-2.75 5.54688,-2.58854 5.98438,-2.26563 C6.38021,-1.91146 6.57813,-1.46875 6.57813,-0.9375 C6.57813,-0.0416667 6.11979,0.796875 5.20313,1.57813 C4.26563,2.35938 3.26042,2.75 2.1875,2.75 C1.5625,2.75 1.03646,2.58854 0.609375,2.26563 C0.203125,1.91146 0,1.46875 0,0.9375 C0,0.0416667 0.46875,-0.796875 1.40625,-1.57813 C2.32292,-2.35938 3.31771,-2.75 4.39063,-2.75"/>
<path class="Note" fill="#ffffff" fill-rule="evenodd" d="M109.928,126.198 L115.89,126.198 L115.89,133.65 L109.928,133.65 L109.928,126.198 "/>
<path class="Note" transform="matrix(0.9936,0,0,0.9936,110.425,133.402)" d="M0.453125,-4.17188 C0.494792,-5.64063 1.19792,-6.38021 2.5625,-6.39063 C3.28125,-6.39063 3.83333,-6.14583 4.21875,-5.65625 C4.46875,-5.32292 4.59375,-4.93229 4.59375,-4.48438 C4.59375,-3.68229 4.14583,-3.03125 3.25,-2.53125 L2.34375,-2.04688 C1.79167,-1.75521 1.44271,-1.4375 1.29688,-1.09375 C1.24479,-0.989583 1.21354,-0.869792 1.20313,-0.734375 L4.5625,-0.734375 L4.5625,0 L0.3125,0 C0.354167,-0.760417 0.520833,-1.33854 0.8125,-1.73438 C1.07292,-2.05729 1.5,-2.38542 2.09375,-2.71875 L2.92188,-3.1875 C3.49479,-3.52083 3.78646,-3.94271 3.79688,-4.45313 C3.79688,-4.88021 3.61458,-5.21354 3.25,-5.45313 C3.04167,-5.57813 2.80208,-5.64063 2.53125,-5.64063 C1.73958,-5.64063 1.3125,-5.16667 1.25,-4.21875 C1.25,-4.19792 1.25,-4.18229 1.25,-4.17188 L0.453125,-4.17188 "/>
<path class="Note" fill="#cc00ff" transform="matrix(0.9936,0,0,0.9936,109.183,75.276)" d="M4.39063,-2.75 C5.01563,-2.75 5.54688,-2.58854 5.98438,-2.26563 C6.38021,-1.91146 6.57813,-1.46875 6.57813,-0.9375 C6.57813,-0.0416667 6.11979,0.796875 5.20313,1.57813 C4.26563,2.35938 3.26042,2.75 2.1875,2.75 C1.5625,2.75 1.03646,2.58854 0.609375,2.26563 C0.203125,1.91146 0,1.46875 0,0.9375 C0,0.0416667 0.46875,-0.796875 1.40625,-1.57813 C2.32292,-2.35938 3.31771,-2.75 4.39063,-2.75"/>
<path class="Note" fill="#ffffff" fill-rule="evenodd" d="M67.2007,126.198 L73.1623,126.198 L73.1623,133.65 L67.2007,133.65 L67.2007,126.198 "/>
<path class="Note" transform="matrix(0.9936,0,0,0.9936,67.6975,133.402)" d="M0.390625,-3.09375 C0.390625,-5 0.927083,-6.07813 2,-6.32813 C2.14583,-6.36979 2.30208,-6.39063 2.46875,-6.39063 C3.78125,-6.39063 4.47917,-5.40104 4.5625,-3.42188 C4.5625,-3.28646 4.5625,-3.15625 4.5625,-3.03125 C4.5625,-1.40625 4.15104,-0.385417 3.32813,0.03125 C3.06771,0.145833 2.78125,0.203125 2.46875,0.203125 C1.41667,0.203125 0.760417,-0.442708 0.5,-1.73438 C0.427083,-2.14063 0.390625,-2.59375 0.390625,-3.09375 M2.46875,-5.64063 C1.625,-5.63021 1.20313,-4.77083 1.20313,-3.0625 C1.20313,-1.32292 1.61979,-0.453125 2.45313,-0.453125 C3.16146,-0.453125 3.57813,-1.02604 3.70313,-2.17188 C3.73438,-2.44271 3.75,-2.75 3.75,-3.09375 C3.75,-4.79167 3.32292,-5.64063 2.46875,-5.64063"/>
<path class="Note" fill="#99cc33" transform="matrix(0.9936,0,0,0.9936,66.4555,77.76)" d="M4.39063,-2.75 C5.01563,-2.75 5.54688,-2.58854 5.98438,-2.26563 C6.38021,-1.91146 6.57813,-1.46875 6.57813,-0.9375 C6.57813,-0.0416667 6.11979,0.796875 5.20313,1.57813 C4.26563,2.35938 3.26042,2.75 2.1875,2.75 C1.5625,2.75 1.03646,2.58854 0.609375,2.26563 C0.203125,1.91146 0,1.46875 0,0.9375 C0,0.0416667 0.46875,-0.796875 1.40625,-1.57813 C2.32292,-2.35938 3.31771,-2.75 4.39063,-2.75"/>
<path class="Clef" transform="matrix(0.9936,0,0,0.9936,32.0544,133.65)" d="M5.32813,8.5 C5.32813,8.86458 5.04167,9.04688 4.46875,9.04688 C4.02083,9.04688 3.625,8.91146 3.28125,8.64063 C2.95833,8.34896 2.79688,7.98438 2.79688,7.54688 C2.79688,6.76563 3.27083,6.14063 4.21875,5.67188 C5.14583,5.18229 6.23438,4.9375 7.48438,4.9375 C7.96354,4.9375 8.47917,4.97396 9.03125,5.04688 C9.42708,5.09896 9.875,5.20313 10.375,5.35938 C10.8125,5.49479 11.1563,5.70573 11.4063,5.99219 C11.6563,6.27865 11.7813,6.61458 11.7813,7 C11.7813,7.89583 11.3177,8.63021 10.3906,9.20313 C11.7448,9.45313 12.4271,10.0573 12.4375,11.0156 C12.4375,11.8281 12.0729,12.5599 11.3438,13.2109 C10.6146,13.862 9.79167,14.1875 8.875,14.1875 C8.47917,14.1875 8.07813,14.0938 7.67188,13.9063 C7.29688,13.7292 7.03125,13.5625 6.875,13.4063 C6.71875,13.2188 6.64063,13.0781 6.64063,12.9844 C6.64063,12.8594 6.70833,12.75 6.84375,12.6563 C6.95833,12.5417 7.07813,12.4844 7.20313,12.4844 C7.25521,12.4844 7.36719,12.5677 7.53906,12.7344 C7.71094,12.901 7.95833,12.9844 8.28125,12.9844 C8.72917,12.9844 9.16146,12.7969 9.57813,12.4219 C9.97396,12.0573 10.1719,11.6198 10.1719,11.1094 C10.1719,10.6719 9.98438,10.3542 9.60938,10.1563 C9.24479,9.95833 8.76563,9.85938 8.17188,9.85938 C8.06771,9.85938 8.01563,9.75 8.01563,9.53125 C8.01563,9.21875 8.13021,9.0625 8.35938,9.0625 C8.72396,9.0625 9.05208,8.90625 9.34375,8.59375 C9.61458,8.26042 9.75,7.90104 9.75,7.51563 C9.75,7.40104 9.71875,7.22917 9.65625,7 C9.60417,6.84375 9.44792,6.65104 9.1875,6.42188 C8.9375,6.21354 8.58854,6.07292 8.14063,6 C8.02604,6.63542 7.88021,7.44792 7.70313,8.4375 C7.52604,9.42708 7.40625,10.0781 7.34375,10.3906 C7.125,11.5156 6.72396,12.4583 6.14063,13.2188 C5.52604,14.0313 4.86458,14.4375 4.15625,14.4375 C3.9375,14.4375 3.71354,14.3854 3.48438,14.2813 C3.29688,14.1979 3.0625,14.0365 2.78125,13.7969 C2.52083,13.5885 2.34375,13.4479 2.25,13.375 C2.19792,13.3438 2.17188,13.2865 2.17188,13.2031 C2.17188,13.0781 2.21875,12.9635 2.3125,12.8594 C2.41667,12.7344 2.52604,12.6719 2.64063,12.6719 C2.71354,12.6719 2.89323,12.7969 3.17969,13.0469 C3.46615,13.2969 3.76563,13.4219 4.07813,13.4219 C4.68229,13.4219 5.13542,13.0365 5.4375,12.2656 C5.71875,11.526 5.85938,10.6094 5.85938,9.51563 L5.85938,9.35938 C5.85938,8.63021 5.97917,7.54167 6.21875,6.09375 C5.80208,6.22917 5.46875,6.42708 5.21875,6.6875 C4.95833,6.94792 4.82813,7.21875 4.82813,7.5 C4.82813,7.71875 4.91146,7.90625 5.07813,8.0625 C5.24479,8.21875 5.32813,8.36458 5.32813,8.5 M1.40625,2.39063 C1.46875,2.39063 1.625,2.45313 1.875,2.57813 C2.13542,2.71354 2.35938,2.78125 2.54688,2.78125 C3.03646,2.78125 3.64063,2.42188 4.35938,1.70313 C6.43229,-0.411458 7.85938,-2.65104 8.64063,-5.01563 C8.79688,-5.51563 9.17708,-5.76563 9.78125,-5.76563 C10.0938,-5.76563 10.3646,-5.69792 10.5938,-5.5625 C10.8125,-5.42708 10.9219,-5.28646 10.9219,-5.14063 L10.5625,2.17188 C10.5625,2.55729 10.7031,2.75 10.9844,2.75 C11.1198,2.75 11.3281,2.6875 11.6094,2.5625 C11.8698,2.42708 12.026,2.35938 12.0781,2.35938 C12.1823,2.35938 12.2448,2.47396 12.2656,2.70313 C12.2656,2.91146 12.1823,3.04167 12.0156,3.09375 C11.8802,3.125 11.6198,3.24479 11.2344,3.45313 C10.8281,3.66146 10.5104,3.76563 10.2813,3.76563 C9.78125,3.76563 9.42708,3.375 9.21875,2.59375 C8.89583,1.375 8.6875,0.104167 8.59375,-1.21875 C8.07292,-0.552083 7.49479,0.119792 6.85938,0.796875 C7.08854,1.24479 7.51563,1.46875 8.14063,1.46875 C8.23438,1.46875 8.30729,1.46354 8.35938,1.45313 L8.375,1.45313 C8.47917,1.45313 8.53125,1.54688 8.53125,1.73438 C8.53125,1.98438 8.44792,2.13542 8.28125,2.1875 C8.01042,2.28125 7.72396,2.32813 7.42188,2.32813 C6.77604,2.32813 6.30729,2.10417 6.01563,1.65625 L5.23438,2.35938 C4.14063,3.29688 3.25,3.76563 2.5625,3.76563 C2.375,3.76563 2.1875,3.73438 2,3.67188 C1.84375,3.60938 1.66146,3.51042 1.45313,3.375 C1.36979,3.34375 1.27865,3.29688 1.17969,3.23438 C1.08073,3.17188 1.02083,3.13542 1,3.125 C0.9375,3.10417 0.90625,3.04688 0.90625,2.95313 C0.90625,2.84896 0.958333,2.72396 1.0625,2.57813 C1.14583,2.45313 1.26042,2.39063 1.40625,2.39063 M5.76563,-10.7969 C5.76563,-10.474 5.48438,-10.3125 4.92188,-10.3125 C4.43229,-10.3125 4.00521,-10.474 3.64063,-10.7969 C3.28646,-11.1302 3.10938,-11.5313 3.10938,-12 C3.10938,-12.4479 3.25,-12.8385 3.53125,-13.1719 C3.83333,-13.5052 4.21875,-13.7552 4.6875,-13.9219 C5.11458,-14.0781 5.59896,-14.2031 6.14063,-14.2969 C6.69271,-14.3594 7.22396,-14.3906 7.73438,-14.3906 C8.03646,-14.3906 8.59896,-14.2552 9.42188,-13.9844 C10.2552,-13.7135 10.8333,-13.5781 11.1563,-13.5781 C11.5625,-13.5781 11.9479,-13.651 12.3125,-13.7969 C12.6042,-13.9219 12.8906,-14.0677 13.1719,-14.2344 C13.3906,-14.3802 13.5104,-14.4531 13.5313,-14.4531 C13.6563,-14.4531 13.7604,-14.4167 13.8438,-14.3438 C13.9479,-14.2396 14,-14.151 14,-14.0781 C14,-13.9948 13.8802,-13.849 13.6406,-13.6406 C13.3802,-13.401 13.0078,-13.1641 12.5234,-12.9297 C12.0391,-12.6953 11.5313,-12.5781 11,-12.5781 C10.7604,-12.5781 10.4688,-12.6198 10.125,-12.7031 C9.89583,-11.2552 9.66146,-9.96875 9.42188,-8.84375 C9.21354,-7.85417 8.79688,-6.98958 8.17188,-6.25 C7.56771,-5.51042 6.89583,-5.14063 6.15625,-5.14063 C5.85417,-5.14063 5.58854,-5.19792 5.35938,-5.3125 C5.09896,-5.44792 4.82292,-5.64583 4.53125,-5.90625 C4.30208,-6.09375 4.08333,-6.26563 3.875,-6.42188 C3.82292,-6.46354 3.79688,-6.52604 3.79688,-6.60938 C3.79688,-6.69271 3.84896,-6.80729 3.95313,-6.95313 C4.05729,-7.06771 4.15104,-7.125 4.23438,-7.125 C4.31771,-7.125 4.54167,-6.96354 4.90625,-6.64063 C5.27083,-6.31771 5.59375,-6.15625 5.875,-6.15625 C6.39583,-6.15625 6.80208,-6.45313 7.09375,-7.04688 C7.375,-7.64063 7.53646,-8.34375 7.57813,-9.15625 C7.64063,-10.5 7.79167,-11.8906 8.03125,-13.3281 C7.73958,-13.3906 7.52604,-13.4219 7.39063,-13.4219 C6.76563,-13.4219 6.22917,-13.2917 5.78125,-13.0313 C5.34375,-12.7813 5.125,-12.4427 5.125,-12.0156 C5.125,-11.7031 5.22917,-11.4635 5.4375,-11.2969 C5.65625,-11.1094 5.76563,-10.9427 5.76563,-10.7969"/>
<path class="Clef" transform="matrix(0.9936,0,0,0.9936,32.0544,77.76)" d="M7.34375,-5.125 C7.34375,-5.125 7.38542,-5.125 7.46875,-5.125 C7.52083,-5.13542 7.5625,-5.14063 7.59375,-5.14063 C9.05208,-5.14063 10.25,-4.625 11.1875,-3.59375 C12.125,-2.58333 12.5938,-1.40104 12.5938,-0.046875 C12.5938,1.64063 11.901,3.01042 10.5156,4.0625 C10.151,4.35417 9.67188,4.58854 9.07813,4.76563 C9.15104,5.60938 9.1875,6.29167 9.1875,6.8125 C9.1875,6.91667 9.17188,7.29688 9.14063,7.95313 C9.08854,9.16146 8.67188,10.2083 7.89063,11.0938 C7.14063,11.9688 6.20313,12.4063 5.07813,12.4063 C4.02604,12.4063 3.13021,12.0365 2.39063,11.2969 C1.64063,10.5365 1.26563,9.625 1.26563,8.5625 C1.26563,8 1.48438,7.52083 1.92188,7.125 C2.35938,6.73958 2.86979,6.54688 3.45313,6.54688 C3.97396,6.54688 4.41146,6.75 4.76563,7.15625 C5.13021,7.53125 5.3125,8 5.3125,8.5625 C5.3125,9.0625 5.13021,9.49479 4.76563,9.85938 C4.40104,10.224 3.96354,10.4063 3.45313,10.4063 C3.24479,10.4063 3.04688,10.3698 2.85938,10.2969 C3.43229,11.1406 4.19271,11.5625 5.14063,11.5625 C6.03646,11.5625 6.77083,11.1979 7.34375,10.4688 C7.94792,9.71875 8.27604,8.83854 8.32813,7.82813 C8.34896,7.20313 8.35938,6.84896 8.35938,6.76563 C8.35938,6.03646 8.33333,5.4375 8.28125,4.96875 C7.63542,5.07292 7.05729,5.125 6.54688,5.125 C4.73438,5.125 3.19271,4.40625 1.92188,2.96875 C0.671875,1.52083 0.046875,-0.197917 0.046875,-2.1875 C0.046875,-2.60417 0.0833333,-3.02604 0.15625,-3.45313 C0.239583,-3.80729 0.338542,-4.19271 0.453125,-4.60938 C0.515625,-4.84896 0.692708,-5.22917 0.984375,-5.75 C1.08854,-5.90625 1.20573,-6.10156 1.33594,-6.33594 C1.46615,-6.57031 1.55729,-6.72396 1.60938,-6.79688 C1.73438,-7.05729 1.98438,-7.41146 2.35938,-7.85938 C2.46354,-7.97396 2.57292,-8.10156 2.6875,-8.24219 C2.80208,-8.38281 2.89844,-8.5 2.97656,-8.59375 C3.05469,-8.6875 3.11198,-8.76042 3.14844,-8.8125 C3.1849,-8.86458 3.47917,-9.20833 4.03125,-9.84375 C4.15625,-9.97917 4.28125,-10.1198 4.40625,-10.2656 C4.53125,-10.4115 4.63281,-10.5286 4.71094,-10.6172 C4.78906,-10.7057 4.84896,-10.7656 4.89063,-10.7969 C4.42188,-12.349 4.125,-13.5885 4,-14.5156 C3.91667,-15.2552 3.875,-16.2708 3.875,-17.5625 C3.875,-18.6979 4.13542,-19.7604 4.65625,-20.75 C5.15625,-21.7708 5.86458,-22.6094 6.78125,-23.2656 C6.84375,-23.3073 6.90625,-23.3281 6.96875,-23.3281 C7.0625,-23.3281 7.13021,-23.3073 7.17188,-23.2656 C7.86979,-22.4219 8.47396,-21.3229 8.98438,-19.9688 C9.50521,-18.6146 9.76563,-17.3802 9.76563,-16.2656 C9.76563,-15.0156 9.46875,-13.8438 8.875,-12.75 C8.19792,-11.5938 7.32292,-10.3958 6.25,-9.15625 C6.52083,-8.30208 6.88542,-6.95833 7.34375,-5.125 M9,3.96875 C9.67708,3.71875 10.2083,3.29688 10.5938,2.70313 C11.0104,2.13021 11.2188,1.48438 11.2188,0.765625 C11.2188,-0.161458 10.9063,-0.984375 10.2813,-1.70313 C9.63542,-2.44271 8.81771,-2.85938 7.82813,-2.95313 C8.39063,-0.203125 8.78125,2.10417 9,3.96875 M1.45313,-0.546875 C1.45313,0.744792 1.97396,1.88021 3.01563,2.85938 C4.07813,3.80729 5.27604,4.28125 6.60938,4.28125 C7.15104,4.28125 7.68229,4.23958 8.20313,4.15625 C7.99479,2.17708 7.58333,-0.192708 6.96875,-2.95313 C6.22917,-2.86979 5.64063,-2.60938 5.20313,-2.17188 C4.76563,-1.71354 4.54688,-1.19792 4.54688,-0.625 C4.54688,0.364583 5.07813,1.16667 6.14063,1.78125 C6.22396,1.875 6.26563,1.97396 6.26563,2.07813 C6.26563,2.18229 6.22396,2.27604 6.14063,2.35938 C6.05729,2.45313 5.95833,2.5 5.84375,2.5 C5.83333,2.5 5.77604,2.48958 5.67188,2.46875 C4.92188,2.0625 4.34896,1.54167 3.95313,0.90625 C3.56771,0.21875 3.375,-0.46875 3.375,-1.15625 C3.375,-2.05208 3.65625,-2.86458 4.21875,-3.59375 C4.80208,-4.32292 5.5625,-4.79167 6.5,-5 C6.13542,-6.45833 5.83854,-7.59896 5.60938,-8.42188 C5.40104,-8.18229 5.15104,-7.89844 4.85938,-7.57031 C4.56771,-7.24219 4.39583,-7.04167 4.34375,-6.96875 C3.875,-6.36458 3.51563,-5.89063 3.26563,-5.54688 C2.81771,-4.93229 2.48958,-4.40625 2.28125,-3.96875 C2.0625,-3.46875 1.86979,-2.92708 1.70313,-2.34375 C1.53646,-1.78125 1.45313,-1.18229 1.45313,-0.546875 M7.96875,-20.4063 C6.98958,-19.9271 6.22396,-19.2396 5.67188,-18.3438 C5.09896,-17.4167 4.8125,-16.4219 4.8125,-15.3594 C4.8125,-14.4219 5.04688,-13.1563 5.51563,-11.5625 C6.45313,-12.6979 7.15625,-13.7448 7.625,-14.7031 C8.11458,-15.724 8.35938,-16.7865 8.35938,-17.8906 C8.35938,-18.724 8.22917,-19.5625 7.96875,-20.4063 M5.82813,15.2344 C6.16146,14.901 6.32813,14.5625 6.32813,14.2188 C6.30729,13.9479 6.19271,13.7396 5.98438,13.5938 C5.74479,13.4375 5.46875,13.3594 5.15625,13.3594 C4.9375,13.3594 4.75521,13.4323 4.60938,13.5781 C4.48438,13.7031 4.42188,13.8646 4.42188,14.0625 C4.42188,14.3021 4.51563,14.4792 4.70313,14.5938 L5.82813,15.2344 M6.14063,15.4063 C6.68229,15.7083 6.95313,16.1146 6.95313,16.625 L6.95313,16.6875 C6.95313,17.0833 6.79167,17.4219 6.46875,17.7031 C6.14583,17.9844 5.68229,18.125 5.07813,18.125 C4.58854,18.125 4.16146,17.9948 3.79688,17.7344 C3.43229,17.4844 3.25,17.1458 3.25,16.7188 C3.25,16.5521 3.29167,16.3958 3.375,16.25 C3.47917,16.0833 3.56771,15.9688 3.64063,15.9063 L4,15.5313 C3.60417,15.2604 3.40625,14.901 3.40625,14.4531 C3.40625,14.099 3.5625,13.7865 3.875,13.5156 C4.19792,13.2552 4.625,13.125 5.15625,13.125 C5.60417,13.125 5.98438,13.224 6.29688,13.4219 C6.60938,13.6198 6.76563,13.8854 6.76563,14.2188 C6.76563,14.5729 6.55729,14.9688 6.14063,15.4063 M4.29688,15.7031 C3.91146,16.0469 3.70313,16.3854 3.67188,16.7188 C3.70313,17.0729 3.84896,17.3542 4.10938,17.5625 C4.39063,17.7813 4.71354,17.8906 5.07813,17.8906 C5.33854,17.8906 5.54688,17.8073 5.70313,17.6406 C5.85938,17.4844 5.9375,17.2969 5.9375,17.0781 C5.92708,16.7865 5.8125,16.5781 5.59375,16.4531 L4.29688,15.7031 "/>
<path class="KeySig" transform="matrix(0.9936,0,0,0.9936,49.3492,62.856)" d="M4.3125,6.23438 C4.3125,6.48438 4.1901,6.60938 3.94531,6.60938 C3.70052,6.60938 3.57813,6.48438 3.57813,6.23438 L3.57813,3.34375 L1.92188,3.96875 L1.92188,7.125 C1.92188,7.375 1.79688,7.5 1.54688,7.5 C1.29688,7.5 1.17188,7.375 1.17188,7.125 L1.17188,4.21875 L0.546875,4.45313 C0.536458,4.46354 0.484375,4.46875 0.390625,4.46875 C0.286458,4.46875 0.195313,4.42969 0.117188,4.35156 C0.0390625,4.27344 0,4.18229 0,4.07813 L0,2.875 C0,2.67708 0.0833333,2.55208 0.25,2.5 L1.17188,2.1875 L1.17188,-1.01563 L0.546875,-0.796875 C0.536458,-0.786458 0.484375,-0.78125 0.390625,-0.78125 C0.286458,-0.78125 0.195313,-0.820313 0.117188,-0.898438 C0.0390625,-0.976563 0,-1.06771 0,-1.17188 L0,-2.39063 C0,-2.56771 0.0833333,-2.68229 0.25,-2.73438 L1.17188,-3.09375 L1.17188,-6.23438 C1.17188,-6.48438 1.29688,-6.60938 1.54688,-6.60938 C1.79688,-6.60938 1.92188,-6.48438 1.92188,-6.23438 L1.92188,-3.34375 L3.57813,-3.96875 L3.57813,-7.125 C3.57813,-7.375 3.70052,-7.5 3.94531,-7.5 C4.1901,-7.5 4.3125,-7.375 4.3125,-7.125 L4.3125,-4.21875 L4.96875,-4.45313 C4.97917,-4.46354 5.02083,-4.46875 5.09375,-4.46875 C5.1875,-4.46875 5.28646,-4.43229 5.39063,-4.35938 C5.47396,-4.27604 5.51563,-4.18229 5.51563,-4.07813 L5.51563,-2.875 C5.51563,-2.6875 5.42188,-2.5625 5.23438,-2.5 L4.3125,-2.1875 L4.3125,1.01563 L4.96875,0.796875 C4.97917,0.786458 5.02083,0.78125 5.09375,0.78125 C5.1875,0.78125 5.28646,0.822917 5.39063,0.90625 C5.47396,0.979167 5.51563,1.06771 5.51563,1.17188 L5.51563,2.39063 C5.51563,2.55729 5.42188,2.67188 5.23438,2.73438 L4.3125,3.09375 L4.3125,6.23438 M3.57813,-1.89063 L1.92188,-1.3125 L1.92188,1.89063 L3.57813,1.3125 L3.57813,-1.89063 "/>
<path class="Fingering" d="M489.067,80.3694 C488.473,80.3694 488.009,80.0621 487.676,79.4475 C487.395,78.9475 487.254,78.3225 487.254,77.5725 C487.254,76.6767 487.463,75.9735 487.879,75.4631 C488.213,75.0673 488.619,74.8642 489.098,74.8537 C489.66,74.8537 490.103,75.1402 490.426,75.7131 C490.728,76.2235 490.879,76.859 490.879,77.6194 C490.879,78.5881 490.655,79.3277 490.207,79.8381 C489.884,80.1923 489.504,80.3694 489.067,80.3694 M489.067,75.0569 C488.421,75.0569 488.072,75.8277 488.02,77.3694 C488.02,77.4631 488.02,77.5569 488.02,77.6506 C488.03,79.3173 488.379,80.1558 489.067,80.1662 C489.754,80.1558 490.098,79.3121 490.098,77.635 C490.098,76.1142 489.827,75.2652 489.285,75.0881 C489.213,75.0673 489.14,75.0569 489.067,75.0569"/>
<path class="Fingering" d="M444.769,73.9635 C445.008,72.9427 445.534,72.4166 446.347,72.3854 C446.378,72.3854 446.404,72.3854 446.425,72.3854 C446.914,72.3854 447.305,72.5625 447.597,72.9166 C447.805,73.177 447.909,73.4687 447.909,73.7916 C447.909,74.3854 447.591,75.026 446.956,75.7135 C446.935,75.7343 446.909,75.7552 446.878,75.776 L445.55,77.1979 L447.456,77.1979 C447.664,77.1979 447.826,77.1406 447.94,77.026 C448.013,76.9531 448.102,76.8333 448.206,76.6666 L448.315,76.6979 L447.878,77.776 L444.753,77.776 L444.753,77.6822 L446.175,76.1666 C446.852,75.427 447.201,74.7343 447.222,74.0885 C447.222,73.6406 447.05,73.3177 446.706,73.1197 C446.529,73.0156 446.326,72.9635 446.097,72.9635 C445.743,72.9635 445.466,73.0989 445.269,73.3697 C445.154,73.526 445.045,73.7395 444.94,74.0104 L444.769,73.9635 "/>
<path class="Fingering" d="M403.791,75.4014 C403.197,75.4014 402.734,75.0941 402.4,74.4795 C402.119,73.9795 401.979,73.3545 401.979,72.6045 C401.979,71.7087 402.187,71.0055 402.604,70.4951 C402.937,70.0993 403.343,69.8962 403.822,69.8858 C404.385,69.8858 404.828,70.1722 405.15,70.7451 C405.453,71.2555 405.604,71.891 405.604,72.6514 C405.604,73.6201 405.38,74.3597 404.932,74.8701 C404.609,75.2243 404.229,75.4014 403.791,75.4014 M403.791,70.0889 C403.145,70.0889 402.796,70.8597 402.744,72.4014 C402.744,72.4951 402.744,72.5889 402.744,72.6826 C402.755,74.3493 403.104,75.1878 403.791,75.1983 C404.479,75.1878 404.822,74.3441 404.822,72.667 C404.822,71.1462 404.552,70.2972 404.01,70.1201 C403.937,70.0993 403.864,70.0889 403.791,70.0889"/>
<path class="Fingering" d="M359.704,69.699 C359.829,69.699 360.012,69.7667 360.251,69.9021 C360.501,70.0584 360.715,70.1365 360.892,70.1365 C361.256,70.1365 361.543,69.975 361.751,69.6521 C361.876,69.4438 361.939,69.2094 361.939,68.949 C361.939,68.1886 361.486,67.7719 360.579,67.699 C360.486,67.6886 360.387,67.6834 360.282,67.6834 L360.282,67.574 C360.887,67.3761 361.282,67.1209 361.47,66.8084 C361.564,66.6417 361.611,66.4594 361.611,66.2615 C361.611,65.9073 361.465,65.6521 361.173,65.4959 C361.038,65.4334 360.892,65.4021 360.736,65.4021 C360.288,65.4021 359.918,65.6365 359.626,66.1052 C359.595,66.1469 359.569,66.1938 359.548,66.2459 L359.423,66.2146 C359.673,65.5375 360.038,65.1261 360.517,64.9802 C360.663,64.9386 360.824,64.9177 361.001,64.9177 C361.48,64.9177 361.834,65.0844 362.064,65.4177 C362.189,65.5948 362.251,65.7927 362.251,66.0115 C362.251,66.3344 362.1,66.6261 361.798,66.8865 C361.704,66.9594 361.605,67.0375 361.501,67.1209 C361.98,67.3292 362.288,67.6157 362.423,67.9802 C362.486,68.1573 362.517,68.3552 362.517,68.574 C362.517,69.2094 362.251,69.7042 361.72,70.0584 C361.324,70.3084 360.855,70.4334 360.314,70.4334 C359.824,70.4334 359.532,70.324 359.439,70.1052 C359.418,70.0636 359.407,70.0219 359.407,69.9802 C359.407,69.824 359.486,69.7355 359.642,69.7146 C359.663,69.7042 359.683,69.699 359.704,69.699"/>
<path class="Fingering" d="M318.336,67.9494 C317.742,67.9494 317.279,67.6421 316.946,67.0275 C316.664,66.5275 316.524,65.9025 316.524,65.1525 C316.524,64.2567 316.732,63.5535 317.149,63.0431 C317.482,62.6473 317.888,62.4442 318.367,62.4337 C318.93,62.4337 319.373,62.7202 319.696,63.2931 C319.998,63.8035 320.149,64.439 320.149,65.1994 C320.149,66.1681 319.925,66.9077 319.477,67.4181 C319.154,67.7723 318.774,67.9494 318.336,67.9494 M318.336,62.6369 C317.69,62.6369 317.341,63.4077 317.289,64.9494 C317.289,65.0431 317.289,65.1369 317.289,65.2306 C317.3,66.8973 317.649,67.7358 318.336,67.7462 C319.024,67.7358 319.367,66.8921 319.367,65.215 C319.367,63.6942 319.097,62.8452 318.555,62.6681 C318.482,62.6473 318.409,62.6369 318.336,62.6369"/>
<path class="Fingering" d="M274.249,62.247 C274.374,62.247 274.557,62.3147 274.796,62.4501 C275.046,62.6064 275.26,62.6845 275.437,62.6845 C275.801,62.6845 276.088,62.523 276.296,62.2001 C276.421,61.9918 276.484,61.7574 276.484,61.497 C276.484,60.7366 276.031,60.3199 275.124,60.247 C275.031,60.2366 274.932,60.2314 274.827,60.2314 L274.827,60.122 C275.432,59.9241 275.827,59.6689 276.015,59.3564 C276.109,59.1897 276.156,59.0074 276.156,58.8095 C276.156,58.4553 276.01,58.2001 275.718,58.0439 C275.583,57.9814 275.437,57.9501 275.281,57.9501 C274.833,57.9501 274.463,58.1845 274.171,58.6532 C274.14,58.6949 274.114,58.7418 274.093,58.7939 L273.968,58.7626 C274.218,58.0855 274.583,57.6741 275.062,57.5282 C275.208,57.4866 275.369,57.4657 275.546,57.4657 C276.025,57.4657 276.38,57.6324 276.609,57.9657 C276.734,58.1428 276.796,58.3407 276.796,58.5595 C276.796,58.8824 276.645,59.1741 276.343,59.4345 C276.249,59.5074 276.15,59.5855 276.046,59.6689 C276.525,59.8772 276.833,60.1637 276.968,60.5282 C277.031,60.7053 277.062,60.9032 277.062,61.122 C277.062,61.7574 276.796,62.2522 276.265,62.6064 C275.869,62.8564 275.4,62.9814 274.859,62.9814 C274.369,62.9814 274.077,62.872 273.984,62.6532 C273.963,62.6116 273.952,62.5699 273.952,62.5282 C273.952,62.372 274.031,62.2835 274.187,62.2626 C274.208,62.2522 274.229,62.247 274.249,62.247"/>
<path class="Fingering" d="M232.881,67.9494 C232.288,67.9494 231.824,67.6421 231.491,67.0275 C231.209,66.5275 231.069,65.9025 231.069,65.1525 C231.069,64.2567 231.277,63.5535 231.694,63.0431 C232.027,62.6473 232.433,62.4442 232.913,62.4337 C233.475,62.4337 233.918,62.7202 234.241,63.2931 C234.543,63.8035 234.694,64.439 234.694,65.1994 C234.694,66.1681 234.47,66.9077 234.022,67.4181 C233.699,67.7723 233.319,67.9494 232.881,67.9494 M232.881,62.6369 C232.235,62.6369 231.886,63.4077 231.834,64.9494 C231.834,65.0431 231.834,65.1369 231.834,65.2306 C231.845,66.8973 232.194,67.7358 232.881,67.7462 C233.569,67.7358 233.913,66.8921 233.913,65.215 C233.913,63.6942 233.642,62.8452 233.1,62.6681 C233.027,62.6473 232.954,62.6369 232.881,62.6369"/>
<path class="Fingering" d="M188.794,69.699 C188.919,69.699 189.102,69.7667 189.341,69.9021 C189.591,70.0584 189.805,70.1365 189.982,70.1365 C190.347,70.1365 190.633,69.975 190.841,69.6521 C190.966,69.4438 191.029,69.2094 191.029,68.949 C191.029,68.1886 190.576,67.7719 189.669,67.699 C189.576,67.6886 189.477,67.6834 189.373,67.6834 L189.373,67.574 C189.977,67.3761 190.373,67.1209 190.56,66.8084 C190.654,66.6417 190.701,66.4594 190.701,66.2615 C190.701,65.9073 190.555,65.6521 190.263,65.4959 C190.128,65.4334 189.982,65.4021 189.826,65.4021 C189.378,65.4021 189.008,65.6365 188.716,66.1052 C188.685,66.1469 188.659,66.1938 188.638,66.2459 L188.513,66.2146 C188.763,65.5375 189.128,65.1261 189.607,64.9802 C189.753,64.9386 189.914,64.9177 190.091,64.9177 C190.57,64.9177 190.925,65.0844 191.154,65.4177 C191.279,65.5948 191.341,65.7927 191.341,66.0115 C191.341,66.3344 191.19,66.6261 190.888,66.8865 C190.794,66.9594 190.695,67.0375 190.591,67.1209 C191.07,67.3292 191.378,67.6157 191.513,67.9802 C191.576,68.1573 191.607,68.3552 191.607,68.574 C191.607,69.2094 191.341,69.7042 190.81,70.0584 C190.414,70.3084 189.945,70.4334 189.404,70.4334 C188.914,70.4334 188.623,70.324 188.529,70.1052 C188.508,70.0636 188.498,70.0219 188.498,69.9802 C188.498,69.824 188.576,69.7355 188.732,69.7146 C188.753,69.7042 188.774,69.699 188.794,69.699"/>
<path class="Fingering" d="M147.426,75.4014 C146.833,75.4014 146.369,75.0941 146.036,74.4795 C145.755,73.9795 145.614,73.3545 145.614,72.6045 C145.614,71.7087 145.822,71.0055 146.239,70.4951 C146.572,70.0993 146.978,69.8962 147.458,69.8858 C148.02,69.8858 148.463,70.1722 148.786,70.7451 C149.088,71.2555 149.239,71.891 149.239,72.6514 C149.239,73.6201 149.015,74.3597 148.567,74.8701 C148.244,75.2243 147.864,75.4014 147.426,75.4014 M147.426,70.0889 C146.781,70.0889 146.432,70.8597 146.38,72.4014 C146.38,72.4951 146.38,72.5889 146.38,72.6826 C146.39,74.3493 146.739,75.1878 147.426,75.1983 C148.114,75.1878 148.458,74.3441 148.458,72.667 C148.458,71.1462 148.187,70.2972 147.645,70.1201 C147.572,70.0993 147.499,70.0889 147.426,70.0889"/>
<path class="Fingering" d="M102.949,73.9635 C103.189,72.9427 103.715,72.4166 104.527,72.3854 C104.558,72.3854 104.584,72.3854 104.605,72.3854 C105.095,72.3854 105.485,72.5625 105.777,72.9166 C105.985,73.177 106.09,73.4687 106.09,73.7916 C106.09,74.3854 105.772,75.026 105.136,75.7135 C105.116,75.7343 105.09,75.7552 105.058,75.776 L103.73,77.1979 L105.636,77.1979 C105.845,77.1979 106.006,77.1406 106.121,77.026 C106.194,76.9531 106.282,76.8333 106.386,76.6666 L106.496,76.6979 L106.058,77.776 L102.933,77.776 L102.933,77.6822 L104.355,76.1666 C105.032,75.427 105.381,74.7343 105.402,74.0885 C105.402,73.6406 105.23,73.3177 104.886,73.1197 C104.709,73.0156 104.506,72.9635 104.277,72.9635 C103.923,72.9635 103.647,73.0989 103.449,73.3697 C103.334,73.526 103.225,73.7395 103.121,74.0104 L102.949,73.9635 "/>
<path class="Fingering" d="M61.9715,80.3694 C61.3777,80.3694 60.9142,80.0621 60.5808,79.4475 C60.2996,78.9475 60.159,78.3225 60.159,77.5725 C60.159,76.6767 60.3673,75.9735 60.784,75.4631 C61.1173,75.0673 61.5236,74.8642 62.0027,74.8537 C62.5652,74.8537 63.0079,75.1402 63.3308,75.7131 C63.6329,76.2235 63.784,76.859 63.784,77.6194 C63.784,78.5881 63.56,79.3277 63.1121,79.8381 C62.7892,80.1923 62.409,80.3694 61.9715,80.3694 M61.9715,75.0569 C61.3256,75.0569 60.9767,75.8277 60.9246,77.3694 C60.9246,77.4631 60.9246,77.5569 60.9246,77.6506 C60.935,79.3173 61.284,80.1558 61.9715,80.1662 C62.659,80.1558 63.0027,79.3121 63.0027,77.635 C63.0027,76.1142 62.7319,75.2652 62.1902,75.0881 C62.1173,75.0673 62.0444,75.0569 61.9715,75.0569"/>
<path class="Tempo" d="M60.2121,40.4371 C60.0089,40.2809 59.7589,40.1871 59.4464,40.1871 C58.2589,40.1871 57.3058,41.0621 57.3058,41.9996 C57.3058,42.5621 57.7589,42.9059 58.3527,42.9059 C59.3058,42.9059 60.4933,41.9996 60.4933,41.0934 L60.4933,34.9527 L60.2121,34.9527 L60.2121,40.4371 "/>
<path class="Tempo" d="M70.8527,39.0152 L64.2433,39.0152 L64.2433,37.859 L70.8527,37.859 L70.8527,39.0152 M70.8527,41.9371 L64.2433,41.9371 L64.2433,40.7965 L70.8527,40.7965 L70.8527,41.9371 M76.2902,36.0465 C76.1652,36.0465 75.8475,36.1402 75.3371,36.3277 C75.3058,36.3382 75.285,36.3486 75.2746,36.359 L75.2746,36.0465 L78.2902,34.734 L78.4933,34.734 L78.4933,41.5621 C78.4933,42.0517 78.5923,42.3642 78.7902,42.4996 C78.9673,42.6246 79.3006,42.6923 79.7902,42.7027 L79.7902,42.984 L75.2902,42.984 L75.2902,42.7027 C75.9464,42.6923 76.3579,42.5882 76.5246,42.3902 C76.66,42.2236 76.7277,41.9267 76.7277,41.4996 L76.7277,36.8746 C76.7173,36.333 76.5714,36.0569 76.2902,36.0465 M80.7746,38.9059 C80.7746,37.5934 81.0871,36.5309 81.7121,35.7184 C82.2225,35.0725 82.8162,34.7444 83.4933,34.734 C84.2746,34.734 84.9204,35.1402 85.4308,35.9527 C85.9412,36.7652 86.1964,37.76 86.1964,38.9371 C86.1964,40.3121 85.8787,41.4059 85.2433,42.2184 C84.7433,42.8225 84.1652,43.1298 83.5089,43.1402 C82.6756,43.1402 82.0037,42.7132 81.4933,41.859 C81.0141,41.0673 80.7746,40.083 80.7746,38.9059 M83.5089,42.7965 C83.8631,42.7965 84.0975,42.4736 84.2121,41.8277 C84.2746,41.4423 84.3058,40.9423 84.3058,40.3277 L84.3058,37.5777 C84.3058,36.1402 84.1131,35.3225 83.7277,35.1246 C83.6548,35.083 83.5714,35.0621 83.4777,35.0621 C83.1131,35.0621 82.8735,35.3955 82.7589,36.0621 C82.7069,36.4371 82.6808,36.9423 82.6808,37.5777 L82.6808,40.3277 C82.6808,41.6819 82.8475,42.4736 83.1808,42.7027 C83.2746,42.7652 83.3839,42.7965 83.5089,42.7965 M86.7746,38.9059 C86.7746,37.5934 87.0871,36.5309 87.7121,35.7184 C88.2225,35.0725 88.8162,34.7444 89.4933,34.734 C90.2746,34.734 90.9204,35.1402 91.4308,35.9527 C91.9412,36.7652 92.1964,37.76 92.1964,38.9371 C92.1964,40.3121 91.8787,41.4059 91.2433,42.2184 C90.7433,42.8225 90.1652,43.1298 89.5089,43.1402 C88.6756,43.1402 88.0037,42.7132 87.4933,41.859 C87.0141,41.0673 86.7746,40.083 86.7746,38.9059 M89.5089,42.7965 C89.8631,42.7965 90.0975,42.4736 90.2121,41.8277 C90.2746,41.4423 90.3058,40.9423 90.3058,40.3277 L90.3058,37.5777 C90.3058,36.1402 90.1131,35.3225 89.7277,35.1246 C89.6548,35.083 89.5714,35.0621 89.4777,35.0621 C89.1131,35.0621 88.8735,35.3955 88.7589,36.0621 C88.7069,36.4371 88.6808,36.9423 88.6808,37.5777 L88.6808,40.3277 C88.6808,41.6819 88.8475,42.4736 89.1808,42.7027 C89.2746,42.7652 89.3839,42.7965 89.5089,42.7965"/>
<path class="StaffText" d="M69.29,25.2057 C69.7379,25.2057 70.2379,25.3203 70.79,25.5495 C71.0296,25.6432 71.2015,25.6901 71.3056,25.6901 C71.4515,25.6901 71.5817,25.5807 71.6962,25.362 C71.7067,25.3203 71.7223,25.2787 71.7431,25.237 L72.0087,25.237 L72.0087,27.5807 L71.7587,27.5807 C71.4879,26.9766 71.2067,26.5339 70.915,26.2526 C70.8525,26.1901 70.7952,26.138 70.7431,26.0964 C70.316,25.7214 69.8733,25.5339 69.415,25.5339 C68.415,25.5339 67.8212,26.2526 67.6337,27.6901 C67.6025,28.013 67.5869,28.362 67.5869,28.737 C67.5869,29.9245 67.8004,30.7943 68.2275,31.3464 C68.5608,31.763 69.0192,31.9714 69.6025,31.9714 C70.165,31.9714 70.4827,31.7943 70.5556,31.4401 C70.566,31.3776 70.5712,31.3099 70.5712,31.237 L70.5712,30.1901 C70.5712,29.8985 70.4983,29.711 70.3525,29.6276 C70.2067,29.5547 69.941,29.5078 69.5556,29.487 L69.5556,29.237 L72.9931,29.237 L72.9931,29.487 C72.5869,29.5287 72.3369,29.6172 72.2431,29.7526 C72.1702,29.8672 72.1337,30.086 72.1337,30.4089 L72.1337,31.6745 C71.54,32.0287 70.7535,32.237 69.7744,32.2995 C69.639,32.2995 69.5035,32.2995 69.3681,32.2995 C68.2535,32.2995 67.3629,31.9401 66.6962,31.2214 C66.1025,30.5755 65.8056,29.7682 65.8056,28.7995 C65.8056,27.7578 66.1494,26.8932 66.8369,26.2057 C67.5035,25.5391 68.3212,25.2057 69.29,25.2057 M77.0556,28.8307 C76.8369,28.8307 76.6233,28.711 76.415,28.4714 C76.3004,28.3255 76.2171,28.2474 76.165,28.237 C75.9462,28.237 75.7796,28.388 75.665,28.6901 C75.5921,28.8464 75.5556,29.013 75.5556,29.1901 L75.5556,31.0807 C75.5556,31.4453 75.6285,31.6693 75.7744,31.7526 C75.8681,31.8151 76.04,31.8568 76.29,31.8776 L76.29,32.112 L73.6494,32.112 L73.6494,31.8776 C73.9202,31.8255 74.0817,31.7318 74.1337,31.5964 C74.1546,31.5235 74.165,31.4141 74.165,31.2682 L74.165,28.3307 C74.165,28.0703 74.0921,27.9037 73.9462,27.8307 C73.8733,27.7891 73.7744,27.7578 73.6494,27.737 L73.6494,27.5026 L75.5244,27.5026 L75.5244,28.3307 C75.8994,27.7787 76.2692,27.4714 76.6337,27.4089 C76.7171,27.388 76.7952,27.3776 76.8681,27.3776 C77.2119,27.3776 77.4567,27.5182 77.6025,27.7995 C77.6546,27.9141 77.6806,28.0339 77.6806,28.1589 C77.6806,28.4714 77.5556,28.6797 77.3056,28.7839 C77.2223,28.8151 77.139,28.8307 77.0556,28.8307 M78.9306,28.0807 C78.9306,28.112 78.9827,28.2057 79.0869,28.362 C79.1806,28.5078 79.2275,28.6328 79.2275,28.737 C79.2275,28.9974 79.0973,29.1745 78.8369,29.2682 C78.7431,29.2995 78.6494,29.3151 78.5556,29.3151 C78.191,29.3151 77.9775,29.1537 77.915,28.8307 C77.9046,28.7682 77.8994,28.711 77.8994,28.6589 C77.8994,28.1901 78.1546,27.8412 78.665,27.612 C78.9879,27.4557 79.3629,27.3776 79.79,27.3776 C80.665,27.3776 81.264,27.6172 81.5869,28.0964 C81.7119,28.2943 81.7744,28.5182 81.7744,28.7682 L81.7744,31.3464 C81.7848,31.5026 81.8525,31.586 81.9775,31.5964 C82.0296,31.586 82.066,31.5703 82.0869,31.5495 L82.1962,31.4557 L82.3369,31.6589 C81.941,32.0339 81.5712,32.2318 81.2275,32.2526 C80.8525,32.2526 80.6077,32.112 80.4931,31.8307 C80.4619,31.737 80.4306,31.638 80.3994,31.5339 C79.8577,32.0026 79.3317,32.2422 78.8212,32.2526 C78.3837,32.2526 78.066,32.086 77.8681,31.7526 C77.764,31.586 77.7119,31.4037 77.7119,31.2057 C77.7119,30.6224 78.1598,30.1485 79.0556,29.7839 C79.2952,29.6797 79.7431,29.5287 80.3994,29.3307 L80.3994,28.5964 C80.3994,28.0651 80.1806,27.7735 79.7431,27.7214 C79.6806,27.7214 79.6181,27.7214 79.5556,27.7214 C79.264,27.7214 79.066,27.8047 78.9619,27.9714 C78.941,28.0026 78.9306,28.0391 78.9306,28.0807 M80.3837,31.0964 L80.3837,29.6589 C79.5817,29.8776 79.1754,30.2787 79.165,30.862 C79.165,31.1953 79.2744,31.4037 79.4931,31.487 C79.5556,31.5078 79.6181,31.5182 79.6806,31.5182 C79.9098,31.5182 80.1442,31.3776 80.3837,31.0964 M85.8525,32.237 L85.8525,31.5964 C85.4983,31.9714 85.1546,32.1849 84.8212,32.237 C84.7275,32.2474 84.6285,32.2526 84.5244,32.2526 C83.9306,32.2526 83.4619,31.9766 83.1181,31.4245 C82.8473,30.9974 82.7119,30.4922 82.7119,29.9089 C82.7119,29.0547 82.9567,28.3828 83.4462,27.8932 C83.7796,27.5495 84.1754,27.3776 84.6337,27.3776 C84.9879,27.3776 85.3108,27.513 85.6025,27.7839 C85.6858,27.8568 85.7587,27.9245 85.8212,27.987 L85.8212,26.1745 C85.8212,25.9245 85.764,25.7682 85.6494,25.7057 C85.5452,25.6537 85.3473,25.6172 85.0556,25.5964 L85.0556,25.362 L87.2119,25.362 L87.2119,31.112 C87.2119,31.3932 87.2952,31.5651 87.4619,31.6276 C87.5452,31.6589 87.6598,31.6797 87.8056,31.6901 L87.8056,31.9245 L87.1806,32.0026 C86.6285,32.0755 86.1858,32.1537 85.8525,32.237 M84.9775,31.7057 C85.2692,31.7057 85.5192,31.5391 85.7275,31.2057 C85.7796,31.112 85.8108,31.0443 85.8212,31.0026 L85.8212,28.5495 C85.6962,28.2162 85.4879,28.0182 85.1962,27.9557 C85.1442,27.9453 85.0921,27.9401 85.04,27.9401 C84.5296,27.9401 84.2483,28.4453 84.1962,29.4557 C84.1962,29.5703 84.1962,29.6953 84.1962,29.8307 C84.1962,31.0703 84.4567,31.6953 84.9775,31.7057 M90.1494,29.6589 C90.2015,30.6797 90.4671,31.2787 90.9462,31.4557 C91.0712,31.4974 91.2015,31.5182 91.3369,31.5182 C91.7015,31.5182 92.0348,31.3516 92.3369,31.0182 C92.389,30.9662 92.4358,30.9141 92.4775,30.862 L92.7119,31.0026 C92.2952,31.6068 91.8837,31.987 91.4775,32.1432 C91.2692,32.2162 91.0348,32.2526 90.7744,32.2526 C90.0244,32.2526 89.4619,31.9453 89.0869,31.3307 C88.8369,30.9141 88.7119,30.4141 88.7119,29.8307 C88.7119,28.9349 88.9827,28.263 89.5244,27.8151 C89.889,27.5235 90.316,27.3776 90.8056,27.3776 C91.9098,27.3776 92.5296,28.0964 92.665,29.5339 C92.665,29.5755 92.665,29.6172 92.665,29.6589 L90.1494,29.6589 M91.4462,29.1432 C91.4254,28.5182 91.3577,28.1224 91.2431,27.9557 C91.1494,27.7995 91.0035,27.7214 90.8056,27.7214 C90.514,27.7214 90.316,27.8932 90.2119,28.237 C90.1494,28.4766 90.1129,28.8307 90.1025,29.2995 L91.4462,29.2995 L91.4462,29.1432 M96.9619,26.3307 C96.8577,26.3307 96.5921,26.4089 96.165,26.5651 C96.1442,26.5755 96.1285,26.5807 96.1181,26.5807 L96.1181,26.3307 L98.6337,25.237 L98.8056,25.237 L98.8056,30.9401 C98.8056,31.3464 98.8837,31.6016 99.04,31.7057 C99.1858,31.8099 99.4671,31.8672 99.8837,31.8776 L99.8837,32.112 L96.1337,32.112 L96.1337,31.8776 C96.6754,31.8672 97.014,31.7839 97.1494,31.6276 C97.264,31.4818 97.3212,31.2318 97.3212,30.8776 L97.3212,27.0182 C97.3108,26.5703 97.191,26.3412 96.9619,26.3307 M102.118,30.5495 C102.441,30.5495 102.686,30.6901 102.852,30.9714 C102.936,31.1172 102.977,31.263 102.977,31.4089 C102.977,31.7214 102.837,31.961 102.556,32.1276 C102.41,32.2005 102.264,32.237 102.118,32.237 C101.785,32.237 101.54,32.0964 101.384,31.8151 C101.311,31.6797 101.274,31.5391 101.274,31.3932 C101.274,31.0912 101.41,30.8568 101.681,30.6901 C101.816,30.5964 101.962,30.5495 102.118,30.5495 M102.118,27.3932 C102.441,27.3932 102.686,27.5287 102.852,27.7995 C102.936,27.9453 102.977,28.0912 102.977,28.237 C102.977,28.5599 102.837,28.8047 102.556,28.9714 C102.42,29.0443 102.274,29.0807 102.118,29.0807 C101.785,29.0807 101.54,28.9349 101.384,28.6432 C101.311,28.5078 101.274,28.3672 101.274,28.2214 C101.274,27.9193 101.41,27.6849 101.681,27.5182 C101.816,27.4349 101.962,27.3932 102.118,27.3932"/>
<path class="StaffText" d="M110.415,25.7526 C109.342,25.7526 108.613,26.2735 108.227,27.3151 C108.04,27.7839 107.946,28.2995 107.946,28.862 C107.946,30.0391 108.306,30.888 109.024,31.4089 C109.451,31.7214 109.972,31.8776 110.587,31.8776 C111.118,31.8776 111.514,31.763 111.774,31.5339 C111.858,31.4505 111.905,31.3672 111.915,31.2839 L111.915,29.6432 C111.915,29.2474 111.842,28.9974 111.696,28.8932 C111.592,28.8307 111.368,28.7839 111.024,28.7526 L111.024,28.5807 L113.571,28.5807 L113.571,28.7526 C113.238,28.7839 113.035,28.8724 112.962,29.0182 C112.91,29.1224 112.884,29.2943 112.884,29.5339 L112.884,31.5651 C112.602,31.8047 112.087,31.9974 111.337,32.1432 C110.972,32.2162 110.649,32.2526 110.368,32.2526 C109.451,32.2526 108.67,32.0182 108.024,31.5495 C107.222,30.9453 106.816,30.0547 106.806,28.8776 C106.806,27.8151 107.155,26.9505 107.852,26.2839 C108.498,25.6797 109.295,25.3776 110.243,25.3776 C110.649,25.3776 111.123,25.4557 111.665,25.612 C111.832,25.6641 111.957,25.6901 112.04,25.6901 C112.248,25.6901 112.389,25.6016 112.462,25.4245 C112.472,25.4037 112.483,25.388 112.493,25.3776 L112.712,25.3776 L112.79,27.487 L112.556,27.487 C112.254,26.7474 111.884,26.2526 111.446,26.0026 C111.144,25.836 110.8,25.7526 110.415,25.7526 M116.587,28.1589 L116.587,27.987 C117.066,27.8412 117.535,27.6849 117.993,27.5182 L118.056,27.5339 L118.056,28.2995 C118.629,27.862 119.04,27.612 119.29,27.5495 C119.394,27.5287 119.498,27.5182 119.602,27.5182 C120.134,27.5287 120.488,27.8151 120.665,28.3776 C121.196,27.8047 121.743,27.5182 122.306,27.5182 C123.066,27.5287 123.451,28.1276 123.462,29.3151 L123.462,31.362 C123.472,31.7266 123.613,31.9193 123.884,31.9401 L124.149,31.9557 L124.149,32.112 L121.962,32.112 L121.962,31.9557 C122.285,31.9245 122.477,31.8516 122.54,31.737 C122.592,31.6432 122.618,31.4818 122.618,31.2526 L122.618,29.1432 C122.618,28.5912 122.509,28.2578 122.29,28.1432 C122.186,28.0807 122.045,28.0495 121.868,28.0495 C121.42,28.0599 121.056,28.263 120.774,28.6589 L120.774,31.1745 C120.774,31.5495 120.863,31.7839 121.04,31.8776 C121.144,31.9297 121.295,31.9557 121.493,31.9557 L121.493,32.112 L119.259,32.112 L119.259,31.9557 C119.582,31.9349 119.78,31.862 119.852,31.737 C119.915,31.6432 119.946,31.4818 119.946,31.2526 L119.946,29.0964 C119.946,28.3985 119.722,28.0495 119.274,28.0495 C118.91,28.0495 118.587,28.1693 118.306,28.4089 C118.233,28.4818 118.165,28.5599 118.102,28.6432 L118.102,31.4401 C118.102,31.6901 118.191,31.8464 118.368,31.9089 C118.462,31.9401 118.597,31.9557 118.774,31.9557 L118.774,32.112 L116.556,32.112 L116.556,31.9557 C116.91,31.9557 117.123,31.8724 117.196,31.7057 C117.238,31.6016 117.259,31.4557 117.259,31.2682 L117.259,28.7526 C117.259,28.3776 117.181,28.1693 117.024,28.1276 C116.993,28.1172 116.957,28.112 116.915,28.112 C116.811,28.112 116.701,28.1276 116.587,28.1589 M124.712,31.1432 C124.712,30.6328 125.03,30.2005 125.665,29.8464 C125.852,29.7526 126.352,29.5391 127.165,29.2057 C127.186,29.2057 127.201,29.2005 127.212,29.1901 L127.212,28.5807 C127.16,28.0599 126.905,27.7839 126.446,27.7526 C126.134,27.7526 125.915,27.8516 125.79,28.0495 C125.748,28.1224 125.727,28.1849 125.727,28.237 C125.727,28.2995 125.738,28.3828 125.759,28.487 C125.769,28.5599 125.774,28.612 125.774,28.6432 C125.774,28.8203 125.686,28.9453 125.509,29.0182 C125.446,29.0495 125.389,29.0651 125.337,29.0651 C125.149,29.0651 125.019,28.9766 124.946,28.7995 C124.915,28.7474 124.899,28.6901 124.899,28.6276 C124.899,28.263 125.118,27.9662 125.556,27.737 C125.858,27.5912 126.201,27.5182 126.587,27.5182 C127.306,27.5182 127.748,27.7735 127.915,28.2839 C127.988,28.5026 128.024,28.7787 128.024,29.112 L128.024,31.0495 C128.024,31.3828 128.087,31.5703 128.212,31.612 C128.254,31.6224 128.29,31.6276 128.321,31.6276 C128.467,31.6172 128.613,31.5547 128.759,31.4401 L128.759,31.6901 C128.488,32.0026 128.238,32.1745 128.009,32.2057 C127.957,32.2057 127.905,32.2057 127.852,32.2057 C127.54,32.2057 127.342,32.0495 127.259,31.737 C127.238,31.6537 127.227,31.5599 127.227,31.4557 C126.634,31.9349 126.144,32.1849 125.759,32.2057 C125.332,32.2057 125.024,32.0339 124.837,31.6901 C124.754,31.5235 124.712,31.3412 124.712,31.1432 M127.212,30.862 L127.212,29.4245 C126.389,29.7266 125.884,30.0339 125.696,30.3464 C125.623,30.4922 125.587,30.6485 125.587,30.8151 C125.587,31.211 125.733,31.461 126.024,31.5651 C126.097,31.5964 126.165,31.612 126.227,31.612 C126.446,31.6016 126.686,31.5235 126.946,31.3776 C127.092,31.2943 127.175,31.1901 127.196,31.0651 C127.207,31.0026 127.212,30.9349 127.212,30.862 M129.931,28.1901 C129.931,28.1901 129.78,28.2005 129.477,28.2214 L129.477,28.0495 C130.019,27.8828 130.54,27.7057 131.04,27.5182 L131.087,27.5495 L131.087,32.112 C131.087,33.3412 130.675,34.0495 129.852,34.237 C129.707,34.2682 129.556,34.2839 129.399,34.2839 C128.962,34.2839 128.67,34.1745 128.524,33.9557 C128.483,33.8828 128.462,33.8099 128.462,33.737 C128.462,33.5495 128.55,33.4297 128.727,33.3776 C128.78,33.3568 128.826,33.3464 128.868,33.3464 C129.014,33.3464 129.17,33.4505 129.337,33.6589 C129.514,33.8464 129.66,33.9453 129.774,33.9557 C130.004,33.9557 130.144,33.7943 130.196,33.4714 C130.227,33.2735 130.243,32.9714 130.243,32.5651 L130.243,28.7682 C130.243,28.4141 130.165,28.2214 130.009,28.1901 C129.977,28.1901 129.951,28.1901 129.931,28.1901 M130.587,25.2839 C130.806,25.2839 130.962,25.3828 131.056,25.5807 C131.087,25.6537 131.102,25.7266 131.102,25.7995 C131.102,26.0182 130.993,26.1745 130.774,26.2682 C130.712,26.2891 130.649,26.2995 130.587,26.2995 C130.358,26.2995 130.201,26.2005 130.118,26.0026 C130.097,25.9297 130.087,25.862 130.087,25.7995 C130.087,25.5807 130.181,25.4245 130.368,25.3307 C130.441,25.2995 130.514,25.2839 130.587,25.2839 M133.915,27.5182 C134.655,27.5182 135.238,27.7891 135.665,28.3307 C135.967,28.737 136.118,29.2162 136.118,29.7682 C136.118,30.5495 135.863,31.1745 135.352,31.6432 C134.936,32.0182 134.451,32.2057 133.899,32.2057 C133.191,32.2057 132.629,31.9349 132.212,31.3932 C131.879,30.9557 131.712,30.4401 131.712,29.8464 C131.712,29.0339 131.988,28.4089 132.54,27.9714 C132.925,27.6693 133.384,27.5182 133.915,27.5182 M132.618,29.362 C132.618,30.2682 132.806,30.961 133.181,31.4401 C133.42,31.7526 133.701,31.9089 134.024,31.9089 C134.545,31.9089 134.905,31.612 135.102,31.0182 C135.186,30.7578 135.227,30.461 135.227,30.1276 C135.227,29.2422 135.014,28.586 134.587,28.1589 C134.358,27.9297 134.092,27.8151 133.79,27.8151 C133.321,27.8151 132.983,28.0547 132.774,28.5339 C132.67,28.7735 132.618,29.0495 132.618,29.362 M139.477,28.487 C139.373,28.487 139.222,28.4037 139.024,28.237 C138.931,28.1537 138.858,28.112 138.806,28.112 C138.639,28.112 138.467,28.2422 138.29,28.5026 C138.175,28.6693 138.118,28.8151 138.118,28.9401 L138.118,31.2057 C138.118,31.5495 138.207,31.763 138.384,31.8464 C138.509,31.9089 138.701,31.9453 138.962,31.9557 L138.962,32.112 L136.556,32.112 L136.556,31.9557 C136.91,31.8932 137.123,31.8099 137.196,31.7057 C137.248,31.6224 137.274,31.4766 137.274,31.2682 L137.274,28.7526 C137.274,28.388 137.191,28.1901 137.024,28.1589 C136.993,28.1485 136.962,28.1432 136.931,28.1432 C136.816,28.1432 136.701,28.1589 136.587,28.1901 L136.587,28.0339 C137.118,27.8672 137.608,27.6953 138.056,27.5182 L138.118,27.5339 L138.118,28.4245 C138.462,27.9453 138.754,27.6589 138.993,27.5651 C139.097,27.5339 139.201,27.5182 139.306,27.5182 C139.618,27.5182 139.8,27.6485 139.852,27.9089 C139.852,27.9505 139.852,27.9974 139.852,28.0495 C139.821,28.3203 139.696,28.4662 139.477,28.487 M142.602,28.1901 L142.602,28.0182 C143.03,27.8932 143.509,27.7266 144.04,27.5182 L144.102,27.5339 L144.102,28.2995 C144.53,27.7787 145.009,27.5182 145.54,27.5182 C146.102,27.5182 146.545,27.7787 146.868,28.2995 C147.097,28.6849 147.212,29.1328 147.212,29.6432 C147.212,30.4557 146.962,31.1172 146.462,31.6276 C146.076,32.013 145.629,32.2057 145.118,32.2057 C144.785,32.2057 144.493,32.1068 144.243,31.9089 C144.191,31.8776 144.144,31.8412 144.102,31.7995 L144.102,33.362 C144.102,33.7057 144.17,33.9141 144.306,33.987 C144.431,34.0599 144.655,34.0964 144.977,34.0964 L144.977,34.2839 L142.556,34.2839 L142.556,34.112 C142.91,34.0807 143.123,33.9974 143.196,33.862 C143.238,33.7682 143.259,33.6224 143.259,33.4245 L143.259,28.737 C143.259,28.4453 143.207,28.2735 143.102,28.2214 C143.04,28.1901 142.957,28.1745 142.852,28.1745 C142.738,28.1745 142.655,28.1797 142.602,28.1901 M144.102,28.7839 L144.102,31.2526 C144.102,31.4297 144.248,31.5964 144.54,31.7526 C144.748,31.8568 144.946,31.9089 145.134,31.9089 C145.592,31.9089 145.931,31.6537 146.149,31.1432 C146.285,30.8203 146.352,30.4557 146.352,30.0495 C146.352,29.2266 146.144,28.6537 145.727,28.3307 C145.55,28.1849 145.347,28.112 145.118,28.112 C144.816,28.112 144.545,28.2214 144.306,28.4401 C144.181,28.5547 144.113,28.6693 144.102,28.7839 M148.431,29.3464 C148.472,30.5235 148.858,31.2162 149.587,31.4245 C149.712,31.4662 149.847,31.487 149.993,31.487 C150.483,31.487 150.899,31.2787 151.243,30.862 C151.337,30.7474 151.436,30.612 151.54,30.4557 L151.696,30.5182 C151.332,31.4766 150.759,32.0287 149.977,32.1745 C149.842,32.1953 149.712,32.2057 149.587,32.2057 C148.847,32.2057 148.316,31.8932 147.993,31.2682 C147.806,30.8932 147.712,30.461 147.712,29.9714 C147.712,29.086 147.988,28.4141 148.54,27.9557 C148.905,27.6641 149.326,27.5182 149.806,27.5182 C150.722,27.5182 151.274,28.0391 151.462,29.0807 C151.483,29.1745 151.498,29.263 151.509,29.3464 L148.431,29.3464 M148.446,29.0495 L150.493,29.0495 C150.399,28.4766 150.233,28.1224 149.993,27.987 C149.868,27.9245 149.707,27.8932 149.509,27.8932 C148.915,27.8932 148.561,28.2682 148.446,29.0182 C148.446,29.0287 148.446,29.0391 148.446,29.0495 M151.556,28.1276 L151.556,27.9557 C152.056,27.8099 152.519,27.6641 152.946,27.5182 L153.009,27.5339 L153.009,28.3151 C153.488,27.8776 153.863,27.6224 154.134,27.5495 C154.238,27.5287 154.347,27.5182 154.462,27.5182 C155.004,27.5182 155.363,27.7891 155.54,28.3307 C155.602,28.5287 155.634,28.7526 155.634,29.0026 L155.634,31.2995 C155.634,31.612 155.707,31.8047 155.852,31.8776 C155.946,31.9089 156.076,31.9349 156.243,31.9557 L156.243,32.112 L154.165,32.112 L154.165,31.9557 C154.467,31.9349 154.655,31.836 154.727,31.6589 C154.78,31.5443 154.806,31.3672 154.806,31.1276 L154.806,29.0339 C154.785,28.388 154.54,28.0599 154.071,28.0495 C153.821,28.0495 153.561,28.1641 153.29,28.3932 C153.217,28.4662 153.134,28.5443 153.04,28.6276 L153.04,31.4401 C153.04,31.6797 153.139,31.836 153.337,31.9089 C153.431,31.9297 153.55,31.9453 153.696,31.9557 L153.696,32.112 L151.587,32.112 L151.587,31.9557 C151.879,31.9349 152.061,31.8516 152.134,31.7057 C152.175,31.5912 152.196,31.4245 152.196,31.2057 L152.196,28.7214 C152.196,28.3568 152.123,28.1537 151.977,28.112 C151.936,28.0912 151.889,28.0807 151.837,28.0807 C151.712,28.0807 151.618,28.0964 151.556,28.1276 M159.056,27.612 L159.056,27.9089 L158.04,27.9089 L158.04,30.7682 C158.04,31.3099 158.175,31.6068 158.446,31.6589 C158.477,31.6693 158.514,31.6745 158.556,31.6745 C158.764,31.6641 158.967,31.5443 159.165,31.3151 L159.29,31.4401 C158.967,31.9505 158.566,32.2057 158.087,32.2057 C157.504,32.1953 157.207,31.7735 157.196,30.9401 L157.196,27.9089 L156.665,27.9089 C156.644,27.888 156.634,27.8672 156.634,27.8464 C156.634,27.8047 156.675,27.763 156.759,27.7214 C157.04,27.5339 157.373,27.1693 157.759,26.6276 C157.769,26.6172 157.774,26.612 157.774,26.612 C157.879,26.4557 157.946,26.362 157.977,26.3307 C158.019,26.3412 158.04,26.3828 158.04,26.4557 L158.04,27.612 L159.056,27.612 M159.712,31.1432 C159.712,30.6328 160.03,30.2005 160.665,29.8464 C160.852,29.7526 161.352,29.5391 162.165,29.2057 C162.186,29.2057 162.201,29.2005 162.212,29.1901 L162.212,28.5807 C162.16,28.0599 161.905,27.7839 161.446,27.7526 C161.134,27.7526 160.915,27.8516 160.79,28.0495 C160.748,28.1224 160.727,28.1849 160.727,28.237 C160.727,28.2995 160.738,28.3828 160.759,28.487 C160.769,28.5599 160.774,28.612 160.774,28.6432 C160.774,28.8203 160.686,28.9453 160.509,29.0182 C160.446,29.0495 160.389,29.0651 160.337,29.0651 C160.149,29.0651 160.019,28.9766 159.946,28.7995 C159.915,28.7474 159.899,28.6901 159.899,28.6276 C159.899,28.263 160.118,27.9662 160.556,27.737 C160.858,27.5912 161.201,27.5182 161.587,27.5182 C162.306,27.5182 162.748,27.7735 162.915,28.2839 C162.988,28.5026 163.024,28.7787 163.024,29.112 L163.024,31.0495 C163.024,31.3828 163.087,31.5703 163.212,31.612 C163.254,31.6224 163.29,31.6276 163.321,31.6276 C163.467,31.6172 163.613,31.5547 163.759,31.4401 L163.759,31.6901 C163.488,32.0026 163.238,32.1745 163.009,32.2057 C162.957,32.2057 162.905,32.2057 162.852,32.2057 C162.54,32.2057 162.342,32.0495 162.259,31.737 C162.238,31.6537 162.227,31.5599 162.227,31.4557 C161.634,31.9349 161.144,32.1849 160.759,32.2057 C160.332,32.2057 160.024,32.0339 159.837,31.6901 C159.754,31.5235 159.712,31.3412 159.712,31.1432 M162.212,30.862 L162.212,29.4245 C161.389,29.7266 160.884,30.0339 160.696,30.3464 C160.623,30.4922 160.587,30.6485 160.587,30.8151 C160.587,31.211 160.733,31.461 161.024,31.5651 C161.097,31.5964 161.165,31.612 161.227,31.612 C161.446,31.6016 161.686,31.5235 161.946,31.3776 C162.092,31.2943 162.175,31.1901 162.196,31.0651 C162.207,31.0026 162.212,30.9349 162.212,30.862 M166.056,27.612 L166.056,27.9089 L165.04,27.9089 L165.04,30.7682 C165.04,31.3099 165.175,31.6068 165.446,31.6589 C165.477,31.6693 165.514,31.6745 165.556,31.6745 C165.764,31.6641 165.967,31.5443 166.165,31.3151 L166.29,31.4401 C165.967,31.9505 165.566,32.2057 165.087,32.2057 C164.504,32.1953 164.207,31.7735 164.196,30.9401 L164.196,27.9089 L163.665,27.9089 C163.644,27.888 163.634,27.8672 163.634,27.8464 C163.634,27.8047 163.675,27.763 163.759,27.7214 C164.04,27.5339 164.373,27.1693 164.759,26.6276 C164.769,26.6172 164.774,26.612 164.774,26.612 C164.879,26.4557 164.946,26.362 164.977,26.3307 C165.019,26.3412 165.04,26.3828 165.04,26.4557 L165.04,27.612 L166.056,27.612 M168.915,27.5182 C169.655,27.5182 170.238,27.7891 170.665,28.3307 C170.967,28.737 171.118,29.2162 171.118,29.7682 C171.118,30.5495 170.863,31.1745 170.352,31.6432 C169.936,32.0182 169.451,32.2057 168.899,32.2057 C168.191,32.2057 167.629,31.9349 167.212,31.3932 C166.879,30.9557 166.712,30.4401 166.712,29.8464 C166.712,29.0339 166.988,28.4089 167.54,27.9714 C167.925,27.6693 168.384,27.5182 168.915,27.5182 M167.618,29.362 C167.618,30.2682 167.806,30.961 168.181,31.4401 C168.42,31.7526 168.701,31.9089 169.024,31.9089 C169.545,31.9089 169.905,31.612 170.102,31.0182 C170.186,30.7578 170.227,30.461 170.227,30.1276 C170.227,29.2422 170.014,28.586 169.587,28.1589 C169.358,27.9297 169.092,27.8151 168.79,27.8151 C168.321,27.8151 167.983,28.0547 167.774,28.5339 C167.67,28.7735 167.618,29.0495 167.618,29.362 M171.556,28.1276 L171.556,27.9557 C172.056,27.8099 172.519,27.6641 172.946,27.5182 L173.009,27.5339 L173.009,28.3151 C173.488,27.8776 173.863,27.6224 174.134,27.5495 C174.238,27.5287 174.347,27.5182 174.462,27.5182 C175.004,27.5182 175.363,27.7891 175.54,28.3307 C175.602,28.5287 175.634,28.7526 175.634,29.0026 L175.634,31.2995 C175.634,31.612 175.707,31.8047 175.852,31.8776 C175.946,31.9089 176.076,31.9349 176.243,31.9557 L176.243,32.112 L174.165,32.112 L174.165,31.9557 C174.467,31.9349 174.655,31.836 174.727,31.6589 C174.78,31.5443 174.806,31.3672 174.806,31.1276 L174.806,29.0339 C174.785,28.388 174.54,28.0599 174.071,28.0495 C173.821,28.0495 173.561,28.1641 173.29,28.3932 C173.217,28.4662 173.134,28.5443 173.04,28.6276 L173.04,31.4401 C173.04,31.6797 173.139,31.836 173.337,31.9089 C173.431,31.9297 173.55,31.9453 173.696,31.9557 L173.696,32.112 L171.587,32.112 L171.587,31.9557 C171.879,31.9349 172.061,31.8516 172.134,31.7057 C172.175,31.5912 172.196,31.4245 172.196,31.2057 L172.196,28.7214 C172.196,28.3568 172.123,28.1537 171.977,28.112 C171.936,28.0912 171.889,28.0807 171.837,28.0807 C171.712,28.0807 171.618,28.0964 171.556,28.1276 M177.087,28.1901 C176.931,28.1901 176.79,28.2005 176.665,28.2214 L176.665,28.0651 C177.134,27.9297 177.649,27.7474 178.212,27.5182 L178.243,27.5495 L178.243,31.0964 C178.243,31.4818 178.3,31.7214 178.415,31.8151 C178.509,31.888 178.701,31.9349 178.993,31.9557 L178.993,32.112 L176.618,32.112 L176.618,31.9557 C176.983,31.9349 177.212,31.8672 177.306,31.7526 C177.379,31.638 177.415,31.4193 177.415,31.0964 L177.415,28.7682 C177.415,28.4141 177.332,28.2214 177.165,28.1901 C177.134,28.1901 177.108,28.1901 177.087,28.1901 M177.743,25.2839 C177.962,25.2839 178.118,25.3828 178.212,25.5807 C178.243,25.6537 178.259,25.7266 178.259,25.7995 C178.259,26.0182 178.155,26.1745 177.946,26.2682 C177.873,26.2891 177.806,26.2995 177.743,26.2995 C177.524,26.2995 177.368,26.2005 177.274,26.0026 C177.254,25.9297 177.243,25.862 177.243,25.7995 C177.243,25.5807 177.337,25.4245 177.524,25.3307 C177.597,25.2995 177.67,25.2839 177.743,25.2839 M179.712,29.987 C179.712,29.1432 179.998,28.4818 180.571,28.0026 C180.967,27.6797 181.41,27.5182 181.899,27.5182 C182.451,27.5182 182.879,27.6693 183.181,27.9714 C183.358,28.1485 183.446,28.3412 183.446,28.5495 C183.446,28.7266 183.352,28.8516 183.165,28.9245 C183.092,28.9557 183.024,28.9714 182.962,28.9714 C182.754,28.9714 182.602,28.836 182.509,28.5651 C182.498,28.5443 182.493,28.5235 182.493,28.5026 L182.431,28.2839 C182.368,28.0339 182.254,27.888 182.087,27.8464 C182.014,27.8255 181.931,27.8151 181.837,27.8151 C181.337,27.8151 180.957,28.0547 180.696,28.5339 C180.55,28.8255 180.477,29.1641 180.477,29.5495 C180.477,30.2787 180.701,30.8255 181.149,31.1901 C181.41,31.388 181.701,31.487 182.024,31.487 C182.441,31.487 182.8,31.3203 183.102,30.987 C183.207,30.862 183.321,30.7162 183.446,30.5495 L183.587,30.6432 C183.212,31.362 182.795,31.8307 182.337,32.0495 C182.097,32.1537 181.858,32.2057 181.618,32.2057 C180.972,32.2057 180.467,31.9401 180.102,31.4089 C179.842,31.0026 179.712,30.5287 179.712,29.987 M189.134,27.7214 C189.155,27.711 189.212,27.6745 189.306,27.612 L189.415,27.612 L189.446,28.9714 L189.306,28.9714 C189.139,28.3255 188.899,27.9401 188.587,27.8151 C188.472,27.763 188.342,27.737 188.196,27.737 C187.842,27.737 187.602,27.8776 187.477,28.1589 C187.446,28.2422 187.431,28.3307 187.431,28.4245 C187.441,28.7057 187.587,28.9297 187.868,29.0964 L188.946,29.737 C189.425,30.0287 189.696,30.3464 189.759,30.6901 C189.769,30.763 189.774,30.8464 189.774,30.9401 C189.774,31.3568 189.592,31.6953 189.227,31.9557 C188.967,32.1224 188.681,32.2057 188.368,32.2057 C188.233,32.2057 187.925,32.1589 187.446,32.0651 C187.332,32.0443 187.243,32.0339 187.181,32.0339 C187.076,32.0443 186.998,32.086 186.946,32.1589 L186.821,32.1589 L186.821,30.5964 L186.977,30.5964 C187.082,31.0651 187.212,31.3932 187.368,31.5807 C187.587,31.8516 187.879,31.987 188.243,31.987 C188.67,31.987 188.936,31.8307 189.04,31.5182 C189.071,31.4453 189.087,31.362 189.087,31.2682 C189.076,30.9662 188.899,30.7162 188.556,30.5182 L187.977,30.1901 C187.352,29.836 186.983,29.4818 186.868,29.1276 C186.826,29.0026 186.806,28.8776 186.806,28.7526 C186.806,28.2839 187.009,27.9349 187.415,27.7057 C187.644,27.5807 187.894,27.5182 188.165,27.5182 C188.384,27.5182 188.644,27.5703 188.946,27.6745 C189.03,27.7057 189.092,27.7214 189.134,27.7214 M190.712,29.987 C190.712,29.1432 190.998,28.4818 191.571,28.0026 C191.967,27.6797 192.41,27.5182 192.899,27.5182 C193.451,27.5182 193.879,27.6693 194.181,27.9714 C194.358,28.1485 194.446,28.3412 194.446,28.5495 C194.446,28.7266 194.352,28.8516 194.165,28.9245 C194.092,28.9557 194.024,28.9714 193.962,28.9714 C193.754,28.9714 193.602,28.836 193.509,28.5651 C193.498,28.5443 193.493,28.5235 193.493,28.5026 L193.431,28.2839 C193.368,28.0339 193.254,27.888 193.087,27.8464 C193.014,27.8255 192.931,27.8151 192.837,27.8151 C192.337,27.8151 191.957,28.0547 191.696,28.5339 C191.55,28.8255 191.477,29.1641 191.477,29.5495 C191.477,30.2787 191.701,30.8255 192.149,31.1901 C192.41,31.388 192.701,31.487 193.024,31.487 C193.441,31.487 193.8,31.3203 194.102,30.987 C194.207,30.862 194.321,30.7162 194.446,30.5495 L194.587,30.6432 C194.212,31.362 193.795,31.8307 193.337,32.0495 C193.097,32.1537 192.858,32.2057 192.618,32.2057 C191.972,32.2057 191.467,31.9401 191.102,31.4089 C190.842,31.0026 190.712,30.5287 190.712,29.987 M194.712,31.1432 C194.712,30.6328 195.03,30.2005 195.665,29.8464 C195.852,29.7526 196.352,29.5391 197.165,29.2057 C197.186,29.2057 197.201,29.2005 197.212,29.1901 L197.212,28.5807 C197.16,28.0599 196.905,27.7839 196.446,27.7526 C196.134,27.7526 195.915,27.8516 195.79,28.0495 C195.748,28.1224 195.727,28.1849 195.727,28.237 C195.727,28.2995 195.738,28.3828 195.759,28.487 C195.769,28.5599 195.774,28.612 195.774,28.6432 C195.774,28.8203 195.686,28.9453 195.509,29.0182 C195.446,29.0495 195.389,29.0651 195.337,29.0651 C195.149,29.0651 195.019,28.9766 194.946,28.7995 C194.915,28.7474 194.899,28.6901 194.899,28.6276 C194.899,28.263 195.118,27.9662 195.556,27.737 C195.858,27.5912 196.201,27.5182 196.587,27.5182 C197.306,27.5182 197.748,27.7735 197.915,28.2839 C197.988,28.5026 198.024,28.7787 198.024,29.112 L198.024,31.0495 C198.024,31.3828 198.087,31.5703 198.212,31.612 C198.254,31.6224 198.29,31.6276 198.321,31.6276 C198.467,31.6172 198.613,31.5547 198.759,31.4401 L198.759,31.6901 C198.488,32.0026 198.238,32.1745 198.009,32.2057 C197.957,32.2057 197.905,32.2057 197.852,32.2057 C197.54,32.2057 197.342,32.0495 197.259,31.737 C197.238,31.6537 197.227,31.5599 197.227,31.4557 C196.634,31.9349 196.144,32.1849 195.759,32.2057 C195.332,32.2057 195.024,32.0339 194.837,31.6901 C194.754,31.5235 194.712,31.3412 194.712,31.1432 M197.212,30.862 L197.212,29.4245 C196.389,29.7266 195.884,30.0339 195.696,30.3464 C195.623,30.4922 195.587,30.6485 195.587,30.8151 C195.587,31.211 195.733,31.461 196.024,31.5651 C196.097,31.5964 196.165,31.612 196.227,31.612 C196.446,31.6016 196.686,31.5235 196.946,31.3776 C197.092,31.2943 197.175,31.1901 197.196,31.0651 C197.207,31.0026 197.212,30.9349 197.212,30.862 M198.556,25.8776 L198.556,25.7214 C199.222,25.5547 199.754,25.4089 200.149,25.2839 L200.196,25.2995 L200.196,31.2682 C200.196,31.5807 200.259,31.7735 200.384,31.8464 C200.498,31.8985 200.686,31.9349 200.946,31.9557 L200.946,32.112 L198.587,32.112 L198.587,31.9557 C198.962,31.9245 199.191,31.836 199.274,31.6901 C199.326,31.5964 199.352,31.4453 199.352,31.237 L199.352,26.4714 C199.352,26.138 199.28,25.9453 199.134,25.8932 C199.071,25.8724 199.004,25.862 198.931,25.862 C198.795,25.862 198.67,25.8672 198.556,25.8776 M202.431,29.3464 C202.472,30.5235 202.858,31.2162 203.587,31.4245 C203.712,31.4662 203.847,31.487 203.993,31.487 C204.483,31.487 204.899,31.2787 205.243,30.862 C205.337,30.7474 205.436,30.612 205.54,30.4557 L205.696,30.5182 C205.332,31.4766 204.759,32.0287 203.977,32.1745 C203.842,32.1953 203.712,32.2057 203.587,32.2057 C202.847,32.2057 202.316,31.8932 201.993,31.2682 C201.806,30.8932 201.712,30.461 201.712,29.9714 C201.712,29.086 201.988,28.4141 202.54,27.9557 C202.905,27.6641 203.326,27.5182 203.806,27.5182 C204.722,27.5182 205.274,28.0391 205.462,29.0807 C205.483,29.1745 205.498,29.263 205.509,29.3464 L202.431,29.3464 M202.446,29.0495 L204.493,29.0495 C204.399,28.4766 204.233,28.1224 203.993,27.987 C203.868,27.9245 203.707,27.8932 203.509,27.8932 C202.915,27.8932 202.561,28.2682 202.446,29.0182 C202.446,29.0287 202.446,29.0391 202.446,29.0495 M210.915,27.5182 C211.655,27.5182 212.238,27.7891 212.665,28.3307 C212.967,28.737 213.118,29.2162 213.118,29.7682 C213.118,30.5495 212.863,31.1745 212.352,31.6432 C211.936,32.0182 211.451,32.2057 210.899,32.2057 C210.191,32.2057 209.629,31.9349 209.212,31.3932 C208.879,30.9557 208.712,30.4401 208.712,29.8464 C208.712,29.0339 208.988,28.4089 209.54,27.9714 C209.925,27.6693 210.384,27.5182 210.915,27.5182 M209.618,29.362 C209.618,30.2682 209.806,30.961 210.181,31.4401 C210.42,31.7526 210.701,31.9089 211.024,31.9089 C211.545,31.9089 211.905,31.612 212.102,31.0182 C212.186,30.7578 212.227,30.461 212.227,30.1276 C212.227,29.2422 212.014,28.586 211.587,28.1589 C211.358,27.9297 211.092,27.8151 210.79,27.8151 C210.321,27.8151 209.983,28.0547 209.774,28.5339 C209.67,28.7735 209.618,29.0495 209.618,29.362 M213.556,28.1276 L213.556,27.9557 C214.056,27.8099 214.519,27.6641 214.946,27.5182 L215.009,27.5339 L215.009,28.3151 C215.488,27.8776 215.863,27.6224 216.134,27.5495 C216.238,27.5287 216.347,27.5182 216.462,27.5182 C217.004,27.5182 217.363,27.7891 217.54,28.3307 C217.602,28.5287 217.634,28.7526 217.634,29.0026 L217.634,31.2995 C217.634,31.612 217.707,31.8047 217.852,31.8776 C217.946,31.9089 218.076,31.9349 218.243,31.9557 L218.243,32.112 L216.165,32.112 L216.165,31.9557 C216.467,31.9349 216.655,31.836 216.727,31.6589 C216.78,31.5443 216.806,31.3672 216.806,31.1276 L216.806,29.0339 C216.785,28.388 216.54,28.0599 216.071,28.0495 C215.821,28.0495 215.561,28.1641 215.29,28.3932 C215.217,28.4662 215.134,28.5443 215.04,28.6276 L215.04,31.4401 C215.04,31.6797 215.139,31.836 215.337,31.9089 C215.431,31.9297 215.55,31.9453 215.696,31.9557 L215.696,32.112 L213.587,32.112 L213.587,31.9557 C213.879,31.9349 214.061,31.8516 214.134,31.7057 C214.175,31.5912 214.196,31.4245 214.196,31.2057 L214.196,28.7214 C214.196,28.3568 214.123,28.1537 213.977,28.112 C213.936,28.0912 213.889,28.0807 213.837,28.0807 C213.712,28.0807 213.618,28.0964 213.556,28.1276 M219.431,29.3464 C219.472,30.5235 219.858,31.2162 220.587,31.4245 C220.712,31.4662 220.847,31.487 220.993,31.487 C221.483,31.487 221.899,31.2787 222.243,30.862 C222.337,30.7474 222.436,30.612 222.54,30.4557 L222.696,30.5182 C222.332,31.4766 221.759,32.0287 220.977,32.1745 C220.842,32.1953 220.712,32.2057 220.587,32.2057 C219.847,32.2057 219.316,31.8932 218.993,31.2682 C218.806,30.8932 218.712,30.461 218.712,29.9714 C218.712,29.086 218.988,28.4141 219.54,27.9557 C219.905,27.6641 220.326,27.5182 220.806,27.5182 C221.722,27.5182 222.274,28.0391 222.462,29.0807 C222.483,29.1745 222.498,29.263 222.509,29.3464 L219.431,29.3464 M219.446,29.0495 L221.493,29.0495 C221.399,28.4766 221.233,28.1224 220.993,27.987 C220.868,27.9245 220.707,27.8932 220.509,27.8932 C219.915,27.8932 219.561,28.2682 219.446,29.0182 C219.446,29.0287 219.446,29.0391 219.446,29.0495 M227.915,27.5182 C228.655,27.5182 229.238,27.7891 229.665,28.3307 C229.967,28.737 230.118,29.2162 230.118,29.7682 C230.118,30.5495 229.863,31.1745 229.352,31.6432 C228.936,32.0182 228.451,32.2057 227.899,32.2057 C227.191,32.2057 226.629,31.9349 226.212,31.3932 C225.879,30.9557 225.712,30.4401 225.712,29.8464 C225.712,29.0339 225.988,28.4089 226.54,27.9714 C226.925,27.6693 227.384,27.5182 227.915,27.5182 M226.618,29.362 C226.618,30.2682 226.806,30.961 227.181,31.4401 C227.42,31.7526 227.701,31.9089 228.024,31.9089 C228.545,31.9089 228.905,31.612 229.102,31.0182 C229.186,30.7578 229.227,30.461 229.227,30.1276 C229.227,29.2422 229.014,28.586 228.587,28.1589 C228.358,27.9297 228.092,27.8151 227.79,27.8151 C227.321,27.8151 226.983,28.0547 226.774,28.5339 C226.67,28.7735 226.618,29.0495 226.618,29.362 M230.712,29.987 C230.712,29.1432 230.998,28.4818 231.571,28.0026 C231.967,27.6797 232.41,27.5182 232.899,27.5182 C233.451,27.5182 233.879,27.6693 234.181,27.9714 C234.358,28.1485 234.446,28.3412 234.446,28.5495 C234.446,28.7266 234.352,28.8516 234.165,28.9245 C234.092,28.9557 234.024,28.9714 233.962,28.9714 C233.754,28.9714 233.602,28.836 233.509,28.5651 C233.498,28.5443 233.493,28.5235 233.493,28.5026 L233.431,28.2839 C233.368,28.0339 233.254,27.888 233.087,27.8464 C233.014,27.8255 232.931,27.8151 232.837,27.8151 C232.337,27.8151 231.957,28.0547 231.696,28.5339 C231.55,28.8255 231.477,29.1641 231.477,29.5495 C231.477,30.2787 231.701,30.8255 232.149,31.1901 C232.41,31.388 232.701,31.487 233.024,31.487 C233.441,31.487 233.8,31.3203 234.102,30.987 C234.207,30.862 234.321,30.7162 234.446,30.5495 L234.587,30.6432 C234.212,31.362 233.795,31.8307 233.337,32.0495 C233.097,32.1537 232.858,32.2057 232.618,32.2057 C231.972,32.2057 231.467,31.9401 231.102,31.4089 C230.842,31.0026 230.712,30.5287 230.712,29.987 M237.056,27.612 L237.056,27.9089 L236.04,27.9089 L236.04,30.7682 C236.04,31.3099 236.175,31.6068 236.446,31.6589 C236.477,31.6693 236.514,31.6745 236.556,31.6745 C236.764,31.6641 236.967,31.5443 237.165,31.3151 L237.29,31.4401 C236.967,31.9505 236.566,32.2057 236.087,32.2057 C235.504,32.1953 235.207,31.7735 235.196,30.9401 L235.196,27.9089 L234.665,27.9089 C234.644,27.888 234.634,27.8672 234.634,27.8464 C234.634,27.8047 234.675,27.763 234.759,27.7214 C235.04,27.5339 235.373,27.1693 235.759,26.6276 C235.769,26.6172 235.774,26.612 235.774,26.612 C235.879,26.4557 235.946,26.362 235.977,26.3307 C236.019,26.3412 236.04,26.3828 236.04,26.4557 L236.04,27.612 L237.056,27.612 M237.712,31.1432 C237.712,30.6328 238.03,30.2005 238.665,29.8464 C238.852,29.7526 239.352,29.5391 240.165,29.2057 C240.186,29.2057 240.201,29.2005 240.212,29.1901 L240.212,28.5807 C240.16,28.0599 239.905,27.7839 239.446,27.7526 C239.134,27.7526 238.915,27.8516 238.79,28.0495 C238.748,28.1224 238.727,28.1849 238.727,28.237 C238.727,28.2995 238.738,28.3828 238.759,28.487 C238.769,28.5599 238.774,28.612 238.774,28.6432 C238.774,28.8203 238.686,28.9453 238.509,29.0182 C238.446,29.0495 238.389,29.0651 238.337,29.0651 C238.149,29.0651 238.019,28.9766 237.946,28.7995 C237.915,28.7474 237.899,28.6901 237.899,28.6276 C237.899,28.263 238.118,27.9662 238.556,27.737 C238.858,27.5912 239.201,27.5182 239.587,27.5182 C240.306,27.5182 240.748,27.7735 240.915,28.2839 C240.988,28.5026 241.024,28.7787 241.024,29.112 L241.024,31.0495 C241.024,31.3828 241.087,31.5703 241.212,31.612 C241.254,31.6224 241.29,31.6276 241.321,31.6276 C241.467,31.6172 241.613,31.5547 241.759,31.4401 L241.759,31.6901 C241.488,32.0026 241.238,32.1745 241.009,32.2057 C240.957,32.2057 240.905,32.2057 240.852,32.2057 C240.54,32.2057 240.342,32.0495 240.259,31.737 C240.238,31.6537 240.227,31.5599 240.227,31.4557 C239.634,31.9349 239.144,32.1849 238.759,32.2057 C238.332,32.2057 238.024,32.0339 237.837,31.6901 C237.754,31.5235 237.712,31.3412 237.712,31.1432 M240.212,30.862 L240.212,29.4245 C239.389,29.7266 238.884,30.0339 238.696,30.3464 C238.623,30.4922 238.587,30.6485 238.587,30.8151 C238.587,31.211 238.733,31.461 239.024,31.5651 C239.097,31.5964 239.165,31.612 239.227,31.612 C239.446,31.6016 239.686,31.5235 239.946,31.3776 C240.092,31.2943 240.175,31.1901 240.196,31.0651 C240.207,31.0026 240.212,30.9349 240.212,30.862 M246.087,27.612 L246.087,27.7682 C245.92,27.7891 245.795,27.8568 245.712,27.9714 C245.639,28.0755 245.55,28.2682 245.446,28.5495 L244.165,31.7526 C244.03,32.0755 243.936,32.2422 243.884,32.2526 C243.811,32.2526 243.727,32.1068 243.634,31.8151 C243.623,31.8047 243.618,31.7943 243.618,31.7839 L242.415,28.9089 C242.165,28.3151 241.977,27.9662 241.852,27.862 C241.769,27.7995 241.655,27.7682 241.509,27.7682 L241.509,27.612 L243.477,27.612 L243.477,27.7682 C243.196,27.7891 243.045,27.862 243.024,27.987 C243.014,28.0078 243.009,28.0287 243.009,28.0495 C243.009,28.1641 243.04,28.2839 243.102,28.4089 L244.118,30.9714 L245.102,28.3776 C245.144,28.2839 245.165,28.1849 245.165,28.0807 C245.165,27.9037 245.019,27.7995 244.727,27.7682 C244.717,27.7682 244.707,27.7682 244.696,27.7682 L244.696,27.612 L246.087,27.612 M247.431,29.3464 C247.472,30.5235 247.858,31.2162 248.587,31.4245 C248.712,31.4662 248.847,31.487 248.993,31.487 C249.483,31.487 249.899,31.2787 250.243,30.862 C250.337,30.7474 250.436,30.612 250.54,30.4557 L250.696,30.5182 C250.332,31.4766 249.759,32.0287 248.977,32.1745 C248.842,32.1953 248.712,32.2057 248.587,32.2057 C247.847,32.2057 247.316,31.8932 246.993,31.2682 C246.806,30.8932 246.712,30.461 246.712,29.9714 C246.712,29.086 246.988,28.4141 247.54,27.9557 C247.905,27.6641 248.326,27.5182 248.806,27.5182 C249.722,27.5182 250.274,28.0391 250.462,29.0807 C250.483,29.1745 250.498,29.263 250.509,29.3464 L247.431,29.3464 M247.446,29.0495 L249.493,29.0495 C249.399,28.4766 249.233,28.1224 248.993,27.987 C248.868,27.9245 248.707,27.8932 248.509,27.8932 C247.915,27.8932 247.561,28.2682 247.446,29.0182 C247.446,29.0287 247.446,29.0391 247.446,29.0495"/>
</svg>
