<?xml version="1.0" encoding="UTF-8" standalone="no"?>
<svg width="595.44px" height="841.68px" viewBox="0 0 595.44 841.68"
 xmlns="http://www.w3.org/2000/svg" xmlns:xlink="http://www.w3.org/1999/xlink" version="1.2" baseProfile="tiny">
<title>Guitar Scales and Arpeggios</title>
<desc>Generated by MuseScore 2.1.0</desc>
<polyline class="StaffLines" fill="none" stroke="#000000" stroke-width="0.40" stroke-linejoin="bevel" points="28.08,62.856 567.36,62.856"/>
<polyline class="StaffLines" fill="none" stroke="#000000" stroke-width="0.40" stroke-linejoin="bevel" points="28.08,67.824 567.36,67.824"/>
<polyline class="StaffLines" fill="none" stroke="#000000" stroke-width="0.40" stroke-linejoin="bevel" points="28.08,72.792 567.36,72.792"/>
<polyline class="StaffLines" fill="none" stroke="#000000" stroke-width="0.40" stroke-linejoin="bevel" points="28.08,77.76 567.36,77.76"/>
<polyline class="StaffLines" fill="none" stroke="#000000" stroke-width="0.40" stroke-linejoin="bevel" points="28.08,82.728 567.36,82.728"/>
<polyline class="StaffLines" fill="none" stroke="#000000" stroke-width="0.40" stroke-linejoin="bevel" points="28.08,115.02 567.36,115.02"/>
<polyline class="StaffLines" fill="none" stroke="#000000" stroke-width="0.40" stroke-linejoin="bevel" points="28.08,122.472 567.36,122.472"/>
<polyline class="StaffLines" fill="none" stroke="#000000" stroke-width="0.40" stroke-linejoin="bevel" points="28.08,129.924 567.36,129.924"/>
<polyline class="StaffLines" fill="none" stroke="#000000" stroke-width="0.40" stroke-linejoin="bevel" points="28.08,137.376 567.36,137.376"/>
<polyline class="StaffLines" fill="none" stroke="#000000" stroke-width="0.40" stroke-linejoin="bevel" points="28.08,144.828 567.36,144.828"/>
<polyline class="StaffLines" fill="none" stroke="#000000" stroke-width="0.40" stroke-linejoin="bevel" points="28.08,152.28 567.36,152.28"/>
<polyline class="BarLine" fill="none" stroke="#000000" stroke-width="0.79" stroke-linejoin="bevel" points="28.4774,62.856 28.4774,152.28"/>
<polyline class="BarLine" fill="none" stroke="#000000" stroke-width="0.79" stroke-linejoin="bevel" points="562.491,115.02 562.491,152.28"/>
<polyline class="BarLine" fill="none" stroke="#000000" stroke-width="2.48" stroke-linejoin="bevel" points="566.118,115.02 566.118,152.28"/>
<polyline class="BarLine" fill="none" stroke="#000000" stroke-width="0.79" stroke-linejoin="bevel" points="562.491,62.856 562.491,82.728"/>
<polyline class="BarLine" fill="none" stroke="#000000" stroke-width="2.48" stroke-linejoin="bevel" points="566.118,62.856 566.118,82.728"/>
<path class="Accidental" fill="#ebeb19" transform="matrix(0.9936,0,0,0.9936,345.537,62.856)" d="M-0.15625,-7.5 C0.0104167,-7.59375 0.179688,-7.64063 0.351563,-7.64063 C0.523438,-7.64063 0.692708,-7.59375 0.859375,-7.5 L0.796875,-3.84375 L2.9375,-4.23438 L3.01563,-4.23438 C3.24479,-4.23438 3.35938,-4.125 3.35938,-3.90625 L3.5,7.5 C3.33333,7.59375 3.16406,7.64063 2.99219,7.64063 C2.82031,7.64063 2.65104,7.59375 2.48438,7.5 L2.54688,3.84375 L0.4375,4.23438 L0.359375,4.23438 C0.119792,4.23438 0,4.125 0,3.90625 L-0.15625,-7.5 M2.5625,1.89063 L2.625,-2.25 L0.78125,-1.89063 L0.71875,2.25 L2.5625,1.89063 "/>
<path class="Accidental" fill="#99cc33" transform="matrix(0.9936,0,0,0.9936,313.414,60.372)" d="M-0.15625,-7.5 C0.0104167,-7.59375 0.179688,-7.64063 0.351563,-7.64063 C0.523438,-7.64063 0.692708,-7.59375 0.859375,-7.5 L0.796875,-3.84375 L2.9375,-4.23438 L3.01563,-4.23438 C3.24479,-4.23438 3.35938,-4.125 3.35938,-3.90625 L3.5,7.5 C3.33333,7.59375 3.16406,7.64063 2.99219,7.64063 C2.82031,7.64063 2.65104,7.59375 2.48438,7.5 L2.54688,3.84375 L0.4375,4.23438 L0.359375,4.23438 C0.119792,4.23438 0,4.125 0,3.90625 L-0.15625,-7.5 M2.5625,1.89063 L2.625,-2.25 L0.78125,-1.89063 L0.71875,2.25 L2.5625,1.89063 "/>
<path class="Accidental" fill="#660099" transform="matrix(0.9936,0,0,0.9936,247.152,60.372)" d="M4.3125,6.23438 C4.3125,6.48438 4.1901,6.60938 3.94531,6.60938 C3.70052,6.60938 3.57813,6.48438 3.57813,6.23438 L3.57813,3.34375 L1.92188,3.96875 L1.92188,7.125 C1.92188,7.375 1.79688,7.5 1.54688,7.5 C1.29688,7.5 1.17188,7.375 1.17188,7.125 L1.17188,4.21875 L0.546875,4.45313 C0.536458,4.46354 0.484375,4.46875 0.390625,4.46875 C0.286458,4.46875 0.195313,4.42969 0.117188,4.35156 C0.0390625,4.27344 0,4.18229 0,4.07813 L0,2.875 C0,2.67708 0.0833333,2.55208 0.25,2.5 L1.17188,2.1875 L1.17188,-1.01563 L0.546875,-0.796875 C0.536458,-0.786458 0.484375,-0.78125 0.390625,-0.78125 C0.286458,-0.78125 0.195313,-0.820313 0.117188,-0.898438 C0.0390625,-0.976563 0,-1.06771 0,-1.17188 L0,-2.39063 C0,-2.56771 0.0833333,-2.68229 0.25,-2.73438 L1.17188,-3.09375 L1.17188,-6.23438 C1.17188,-6.48438 1.29688,-6.60938 1.54688,-6.60938 C1.79688,-6.60938 1.92188,-6.48438 1.92188,-6.23438 L1.92188,-3.34375 L3.57813,-3.96875 L3.57813,-7.125 C3.57813,-7.375 3.70052,-7.5 3.94531,-7.5 C4.1901,-7.5 4.3125,-7.375 4.3125,-7.125 L4.3125,-4.21875 L4.96875,-4.45313 C4.97917,-4.46354 5.02083,-4.46875 5.09375,-4.46875 C5.1875,-4.46875 5.28646,-4.43229 5.39063,-4.35938 C5.47396,-4.27604 5.51563,-4.18229 5.51563,-4.07813 L5.51563,-2.875 C5.51563,-2.6875 5.42188,-2.5625 5.23438,-2.5 L4.3125,-2.1875 L4.3125,1.01563 L4.96875,0.796875 C4.97917,0.786458 5.02083,0.78125 5.09375,0.78125 C5.1875,0.78125 5.28646,0.822917 5.39063,0.90625 C5.47396,0.979167 5.51563,1.06771 5.51563,1.17188 L5.51563,2.39063 C5.51563,2.55729 5.42188,2.67188 5.23438,2.73438 L4.3125,3.09375 L4.3125,6.23438 M3.57813,-1.89063 L1.92188,-1.3125 L1.92188,1.89063 L3.57813,1.3125 L3.57813,-1.89063 "/>
<path class="Accidental" transform="matrix(0.9936,0,0,0.9936,215.03,62.856)" d="M4.3125,6.23438 C4.3125,6.48438 4.1901,6.60938 3.94531,6.60938 C3.70052,6.60938 3.57813,6.48438 3.57813,6.23438 L3.57813,3.34375 L1.92188,3.96875 L1.92188,7.125 C1.92188,7.375 1.79688,7.5 1.54688,7.5 C1.29688,7.5 1.17188,7.375 1.17188,7.125 L1.17188,4.21875 L0.546875,4.45313 C0.536458,4.46354 0.484375,4.46875 0.390625,4.46875 C0.286458,4.46875 0.195313,4.42969 0.117188,4.35156 C0.0390625,4.27344 0,4.18229 0,4.07813 L0,2.875 C0,2.67708 0.0833333,2.55208 0.25,2.5 L1.17188,2.1875 L1.17188,-1.01563 L0.546875,-0.796875 C0.536458,-0.786458 0.484375,-0.78125 0.390625,-0.78125 C0.286458,-0.78125 0.195313,-0.820313 0.117188,-0.898438 C0.0390625,-0.976563 0,-1.06771 0,-1.17188 L0,-2.39063 C0,-2.56771 0.0833333,-2.68229 0.25,-2.73438 L1.17188,-3.09375 L1.17188,-6.23438 C1.17188,-6.48438 1.29688,-6.60938 1.54688,-6.60938 C1.79688,-6.60938 1.92188,-6.48438 1.92188,-6.23438 L1.92188,-3.34375 L3.57813,-3.96875 L3.57813,-7.125 C3.57813,-7.375 3.70052,-7.5 3.94531,-7.5 C4.1901,-7.5 4.3125,-7.375 4.3125,-7.125 L4.3125,-4.21875 L4.96875,-4.45313 C4.97917,-4.46354 5.02083,-4.46875 5.09375,-4.46875 C5.1875,-4.46875 5.28646,-4.43229 5.39063,-4.35938 C5.47396,-4.27604 5.51563,-4.18229 5.51563,-4.07813 L5.51563,-2.875 C5.51563,-2.6875 5.42188,-2.5625 5.23438,-2.5 L4.3125,-2.1875 L4.3125,1.01563 L4.96875,0.796875 C4.97917,0.786458 5.02083,0.78125 5.09375,0.78125 C5.1875,0.78125 5.28646,0.822917 5.39063,0.90625 C5.47396,0.979167 5.51563,1.06771 5.51563,1.17188 L5.51563,2.39063 C5.51563,2.55729 5.42188,2.67188 5.23438,2.73438 L4.3125,3.09375 L4.3125,6.23438 M3.57813,-1.89063 L1.92188,-1.3125 L1.92188,1.89063 L3.57813,1.3125 L3.57813,-1.89063 "/>
<polyline class="LedgerLine" fill="none" stroke="#000000" stroke-width="0.79" stroke-linecap="square" stroke-linejoin="bevel" points="284.35,57.888 293.871,57.888"/>
<polyline class="Stem" fill="none" stroke="#000000" stroke-width="0.65" stroke-linecap="round" stroke-linejoin="bevel" points="517.095,74.5129 517.095,59.13"/>
<polyline class="Stem" fill="none" stroke="#000000" stroke-width="0.65" stroke-linecap="round" stroke-linejoin="bevel" points="478.898,73.7251 478.898,88.317"/>
<polyline class="Stem" fill="none" stroke="#000000" stroke-width="0.65" stroke-linecap="round" stroke-linejoin="bevel" points="446.776,71.2411 446.776,86.454"/>
<polyline class="Stem" fill="none" stroke="#000000" stroke-width="0.65" stroke-linecap="round" stroke-linejoin="bevel" points="414.653,68.7571 414.653,84.591"/>
<polyline class="Stem" fill="none" stroke="#000000" stroke-width="0.65" stroke-linecap="round" stroke-linejoin="bevel" points="382.531,66.2731 382.531,82.728"/>
<polyline class="Stem" fill="none" stroke="#000000" stroke-width="0.65" stroke-linecap="round" stroke-linejoin="bevel" points="350.408,63.7891 350.408,80.244"/>
<polyline class="Stem" fill="none" stroke="#000000" stroke-width="0.65" stroke-linecap="round" stroke-linejoin="bevel" points="318.286,61.3051 318.286,77.76"/>
<polyline class="Stem" fill="none" stroke="#000000" stroke-width="0.65" stroke-linecap="round" stroke-linejoin="bevel" points="286.163,58.8211 286.163,75.276"/>
<polyline class="Stem" fill="none" stroke="#000000" stroke-width="0.65" stroke-linecap="round" stroke-linejoin="bevel" points="254.041,61.3051 254.041,77.76"/>
<polyline class="Stem" fill="none" stroke="#000000" stroke-width="0.65" stroke-linecap="round" stroke-linejoin="bevel" points="221.918,63.7891 221.918,80.244"/>
<polyline class="Stem" fill="none" stroke="#000000" stroke-width="0.65" stroke-linecap="round" stroke-linejoin="bevel" points="189.796,66.2731 189.796,82.728"/>
<polyline class="Stem" fill="none" stroke="#000000" stroke-width="0.65" stroke-linecap="round" stroke-linejoin="bevel" points="157.673,68.7571 157.673,84.591"/>
<polyline class="Stem" fill="none" stroke="#000000" stroke-width="0.65" stroke-linecap="round" stroke-linejoin="bevel" points="125.551,71.2411 125.551,86.454"/>
<polyline class="Stem" fill="none" stroke="#000000" stroke-width="0.65" stroke-linecap="round" stroke-linejoin="bevel" points="93.4283,73.7251 93.4283,88.317"/>
<polyline class="Stem" fill="none" stroke="#000000" stroke-width="0.65" stroke-linecap="round" stroke-linejoin="bevel" points="67.2007,74.3429 67.2007,59.13"/>
<path class="Note" fill="#ffffff" fill-rule="evenodd" d="M511.443,126.198 L517.405,126.198 L517.405,133.65 L511.443,133.65 L511.443,126.198 "/>
<path class="Note" transform="matrix(0.9936,0,0,0.9936,511.94,133.402)" d="M0.453125,-4.17188 C0.494792,-5.64063 1.19792,-6.38021 2.5625,-6.39063 C3.28125,-6.39063 3.83333,-6.14583 4.21875,-5.65625 C4.46875,-5.32292 4.59375,-4.93229 4.59375,-4.48438 C4.59375,-3.68229 4.14583,-3.03125 3.25,-2.53125 L2.34375,-2.04688 C1.79167,-1.75521 1.44271,-1.4375 1.29688,-1.09375 C1.24479,-0.989583 1.21354,-0.869792 1.20313,-0.734375 L4.5625,-0.734375 L4.5625,0 L0.3125,0 C0.354167,-0.760417 0.520833,-1.33854 0.8125,-1.73438 C1.07292,-2.05729 1.5,-2.38542 2.09375,-2.71875 L2.92188,-3.1875 C3.49479,-3.52083 3.78646,-3.94271 3.79688,-4.45313 C3.79688,-4.88021 3.61458,-5.21354 3.25,-5.45313 C3.04167,-5.57813 2.80208,-5.64063 2.53125,-5.64063 C1.73958,-5.64063 1.3125,-5.16667 1.25,-4.21875 C1.25,-4.19792 1.25,-4.18229 1.25,-4.17188 L0.453125,-4.17188 "/>
<path class="Note" fill="#cc00ff" transform="matrix(0.9936,0,0,0.9936,510.519,75.276)" d="M6.3125,-1.3125 C6.3125,-1.53125 6.22917,-1.71875 6.0625,-1.875 C5.88542,-2.04167 5.6875,-2.125 5.46875,-2.125 C5.08333,-2.125 4.29688,-1.73438 3.10938,-0.953125 C1.88021,-0.161458 1.13021,0.40625 0.859375,0.75 C0.713542,0.927083 0.640625,1.11458 0.640625,1.3125 C0.640625,1.53125 0.729167,1.71875 0.90625,1.875 C1.0625,2.04167 1.25521,2.125 1.48438,2.125 C1.85938,2.125 2.65625,1.73438 3.875,0.953125 C5.07292,0.171875 5.8125,-0.395833 6.09375,-0.75 C6.23958,-0.916667 6.3125,-1.10417 6.3125,-1.3125 M5.28125,-2.75 C6.39583,-2.75 6.95313,-2.27083 6.95313,-1.3125 C6.95313,-0.84375 6.81771,-0.296875 6.54688,0.328125 C6.27604,0.942708 5.91146,1.41146 5.45313,1.73438 C4.45313,2.41146 3.19792,2.75 1.6875,2.75 C0.5625,2.75 0,2.27083 0,1.3125 C0,0.885417 0.135417,0.34375 0.40625,-0.3125 C0.666667,-0.9375 1.03125,-1.41146 1.5,-1.73438 C2.51042,-2.41146 3.77083,-2.75 5.28125,-2.75"/>
<path class="Note" fill="#ffffff" fill-rule="evenodd" d="M479.321,118.746 L485.282,118.746 L485.282,126.198 L479.321,126.198 L479.321,118.746 "/>
<path class="Note" transform="matrix(0.9936,0,0,0.9936,479.817,125.95)" d="M0.390625,-3.09375 C0.390625,-5 0.927083,-6.07813 2,-6.32813 C2.14583,-6.36979 2.30208,-6.39063 2.46875,-6.39063 C3.78125,-6.39063 4.47917,-5.40104 4.5625,-3.42188 C4.5625,-3.28646 4.5625,-3.15625 4.5625,-3.03125 C4.5625,-1.40625 4.15104,-0.385417 3.32813,0.03125 C3.06771,0.145833 2.78125,0.203125 2.46875,0.203125 C1.41667,0.203125 0.760417,-0.442708 0.5,-1.73438 C0.427083,-2.14063 0.390625,-2.59375 0.390625,-3.09375 M2.46875,-5.64063 C1.625,-5.63021 1.20313,-4.77083 1.20313,-3.0625 C1.20313,-1.32292 1.61979,-0.453125 2.45313,-0.453125 C3.16146,-0.453125 3.57813,-1.02604 3.70313,-2.17188 C3.73438,-2.44271 3.75,-2.75 3.75,-3.09375 C3.75,-4.79167 3.32292,-5.64063 2.46875,-5.64063"/>
<path class="Note" fill="#ff9ee6" transform="matrix(0.9936,0,0,0.9936,478.575,72.792)" d="M4.39063,-2.75 C5.01563,-2.75 5.54688,-2.58854 5.98438,-2.26563 C6.38021,-1.91146 6.57813,-1.46875 6.57813,-0.9375 C6.57813,-0.0416667 6.11979,0.796875 5.20313,1.57813 C4.26563,2.35938 3.26042,2.75 2.1875,2.75 C1.5625,2.75 1.03646,2.58854 0.609375,2.26563 C0.203125,1.91146 0,1.46875 0,0.9375 C0,0.0416667 0.46875,-0.796875 1.40625,-1.57813 C2.32292,-2.35938 3.31771,-2.75 4.39063,-2.75"/>
<path class="Note" fill="#ffffff" fill-rule="evenodd" d="M447.198,118.746 L453.16,118.746 L453.16,126.198 L447.198,126.198 L447.198,118.746 "/>
<path class="Note" transform="matrix(0.9936,0,0,0.9936,447.695,125.95)" d="M2.32813,-4.54688 L0.921875,-4.54688 L0.921875,-5.10938 C1.53646,-5.19271 1.93229,-5.30208 2.10938,-5.4375 C2.28646,-5.57292 2.4375,-5.85417 2.5625,-6.28125 C2.57292,-6.3125 2.58854,-6.34896 2.60938,-6.39063 L3.125,-6.39063 L3.125,0 L2.32813,0 L2.32813,-4.54688 "/>
<path class="Note" fill="#ed2929" transform="matrix(0.9936,0,0,0.9936,446.453,70.308)" d="M4.39063,-2.75 C5.01563,-2.75 5.54688,-2.58854 5.98438,-2.26563 C6.38021,-1.91146 6.57813,-1.46875 6.57813,-0.9375 C6.57813,-0.0416667 6.11979,0.796875 5.20313,1.57813 C4.26563,2.35938 3.26042,2.75 2.1875,2.75 C1.5625,2.75 1.03646,2.58854 0.609375,2.26563 C0.203125,1.91146 0,1.46875 0,0.9375 C0,0.0416667 0.46875,-0.796875 1.40625,-1.57813 C2.32292,-2.35938 3.31771,-2.75 4.39063,-2.75"/>
<path class="Note" fill="#ffffff" fill-rule="evenodd" d="M415.076,118.746 L421.037,118.746 L421.037,126.198 L415.076,126.198 L415.076,118.746 "/>
<path class="Note" transform="matrix(0.9936,0,0,0.9936,415.572,125.95)" d="M2.4375,-5.64063 C1.75,-5.64063 1.35417,-5.32813 1.25,-4.70313 C1.22917,-4.59896 1.21875,-4.47917 1.21875,-4.34375 L0.421875,-4.34375 C0.442708,-5.59375 1.01563,-6.27083 2.14063,-6.375 C2.23438,-6.38542 2.32813,-6.39063 2.42188,-6.39063 C3.26563,-6.39063 3.84375,-6.10938 4.15625,-5.54688 C4.29167,-5.28646 4.35938,-4.98438 4.35938,-4.64063 C4.35938,-4.00521 4.0625,-3.57292 3.46875,-3.34375 C4.03125,-3.14583 4.375,-2.81771 4.5,-2.35938 C4.54167,-2.19271 4.5625,-2.00521 4.5625,-1.79688 C4.5625,-1.05729 4.27604,-0.505208 3.70313,-0.140625 C3.33854,0.0885417 2.90104,0.203125 2.39063,0.203125 C1.21354,0.203125 0.526042,-0.348958 0.328125,-1.45313 C0.317708,-1.57813 0.302083,-1.71354 0.28125,-1.85938 L1.07813,-1.85938 C1.13021,-1.08854 1.46875,-0.65625 2.09375,-0.5625 C2.19792,-0.541667 2.30729,-0.53125 2.42188,-0.53125 C3.04688,-0.53125 3.45313,-0.765625 3.64063,-1.23438 C3.71354,-1.40104 3.75,-1.58854 3.75,-1.79688 C3.73958,-2.54688 3.29688,-2.92708 2.42188,-2.9375 L2.09375,-2.92188 L1.98438,-2.92188 L1.98438,-3.67188 C2.66146,-3.68229 3.10417,-3.77604 3.3125,-3.95313 C3.47917,-4.09896 3.5625,-4.31771 3.5625,-4.60938 C3.5625,-5.09896 3.34896,-5.41667 2.92188,-5.5625 C2.77604,-5.61458 2.61458,-5.64063 2.4375,-5.64063"/>
<path class="Note" fill="#78c7c7" transform="matrix(0.9936,0,0,0.9936,414.33,67.824)" d="M4.39063,-2.75 C5.01563,-2.75 5.54688,-2.58854 5.98438,-2.26563 C6.38021,-1.91146 6.57813,-1.46875 6.57813,-0.9375 C6.57813,-0.0416667 6.11979,0.796875 5.20313,1.57813 C4.26563,2.35938 3.26042,2.75 2.1875,2.75 C1.5625,2.75 1.03646,2.58854 0.609375,2.26563 C0.203125,1.91146 0,1.46875 0,0.9375 C0,0.0416667 0.46875,-0.796875 1.40625,-1.57813 C2.32292,-2.35938 3.31771,-2.75 4.39063,-2.75"/>
<path class="Note" fill="#ffffff" fill-rule="evenodd" d="M382.953,111.294 L388.915,111.294 L388.915,118.746 L382.953,118.746 L382.953,111.294 "/>
<path class="Note" transform="matrix(0.9936,0,0,0.9936,383.45,118.498)" d="M0.390625,-3.09375 C0.390625,-5 0.927083,-6.07813 2,-6.32813 C2.14583,-6.36979 2.30208,-6.39063 2.46875,-6.39063 C3.78125,-6.39063 4.47917,-5.40104 4.5625,-3.42188 C4.5625,-3.28646 4.5625,-3.15625 4.5625,-3.03125 C4.5625,-1.40625 4.15104,-0.385417 3.32813,0.03125 C3.06771,0.145833 2.78125,0.203125 2.46875,0.203125 C1.41667,0.203125 0.760417,-0.442708 0.5,-1.73438 C0.427083,-2.14063 0.390625,-2.59375 0.390625,-3.09375 M2.46875,-5.64063 C1.625,-5.63021 1.20313,-4.77083 1.20313,-3.0625 C1.20313,-1.32292 1.61979,-0.453125 2.45313,-0.453125 C3.16146,-0.453125 3.57813,-1.02604 3.70313,-2.17188 C3.73438,-2.44271 3.75,-2.75 3.75,-3.09375 C3.75,-4.79167 3.32292,-5.64063 2.46875,-5.64063"/>
<path class="Note" fill="#ff9933" transform="matrix(0.9936,0,0,0.9936,382.208,65.34)" d="M4.39063,-2.75 C5.01563,-2.75 5.54688,-2.58854 5.98438,-2.26563 C6.38021,-1.91146 6.57813,-1.46875 6.57813,-0.9375 C6.57813,-0.0416667 6.11979,0.796875 5.20313,1.57813 C4.26563,2.35938 3.26042,2.75 2.1875,2.75 C1.5625,2.75 1.03646,2.58854 0.609375,2.26563 C0.203125,1.91146 0,1.46875 0,0.9375 C0,0.0416667 0.46875,-0.796875 1.40625,-1.57813 C2.32292,-2.35938 3.31771,-2.75 4.39063,-2.75"/>
<path class="Note" fill="#ffffff" fill-rule="evenodd" d="M350.831,111.294 L356.792,111.294 L356.792,118.746 L350.831,118.746 L350.831,111.294 "/>
<path class="Note" transform="matrix(0.9936,0,0,0.9936,351.327,118.498)" d="M2.32813,-4.54688 L0.921875,-4.54688 L0.921875,-5.10938 C1.53646,-5.19271 1.93229,-5.30208 2.10938,-5.4375 C2.28646,-5.57292 2.4375,-5.85417 2.5625,-6.28125 C2.57292,-6.3125 2.58854,-6.34896 2.60938,-6.39063 L3.125,-6.39063 L3.125,0 L2.32813,0 L2.32813,-4.54688 "/>
<path class="Note" fill="#ebeb19" transform="matrix(0.9936,0,0,0.9936,350.085,62.856)" d="M4.39063,-2.75 C5.01563,-2.75 5.54688,-2.58854 5.98438,-2.26563 C6.38021,-1.91146 6.57813,-1.46875 6.57813,-0.9375 C6.57813,-0.0416667 6.11979,0.796875 5.20313,1.57813 C4.26563,2.35938 3.26042,2.75 2.1875,2.75 C1.5625,2.75 1.03646,2.58854 0.609375,2.26563 C0.203125,1.91146 0,1.46875 0,0.9375 C0,0.0416667 0.46875,-0.796875 1.40625,-1.57813 C2.32292,-2.35938 3.31771,-2.75 4.39063,-2.75"/>
<path class="Note" fill="#ffffff" fill-rule="evenodd" d="M318.708,111.294 L324.67,111.294 L324.67,118.746 L318.708,118.746 L318.708,111.294 "/>
<path class="Note" transform="matrix(0.9936,0,0,0.9936,319.205,118.498)" d="M2.4375,-5.64063 C1.75,-5.64063 1.35417,-5.32813 1.25,-4.70313 C1.22917,-4.59896 1.21875,-4.47917 1.21875,-4.34375 L0.421875,-4.34375 C0.442708,-5.59375 1.01563,-6.27083 2.14063,-6.375 C2.23438,-6.38542 2.32813,-6.39063 2.42188,-6.39063 C3.26563,-6.39063 3.84375,-6.10938 4.15625,-5.54688 C4.29167,-5.28646 4.35938,-4.98438 4.35938,-4.64063 C4.35938,-4.00521 4.0625,-3.57292 3.46875,-3.34375 C4.03125,-3.14583 4.375,-2.81771 4.5,-2.35938 C4.54167,-2.19271 4.5625,-2.00521 4.5625,-1.79688 C4.5625,-1.05729 4.27604,-0.505208 3.70313,-0.140625 C3.33854,0.0885417 2.90104,0.203125 2.39063,0.203125 C1.21354,0.203125 0.526042,-0.348958 0.328125,-1.45313 C0.317708,-1.57813 0.302083,-1.71354 0.28125,-1.85938 L1.07813,-1.85938 C1.13021,-1.08854 1.46875,-0.65625 2.09375,-0.5625 C2.19792,-0.541667 2.30729,-0.53125 2.42188,-0.53125 C3.04688,-0.53125 3.45313,-0.765625 3.64063,-1.23438 C3.71354,-1.40104 3.75,-1.58854 3.75,-1.79688 C3.73958,-2.54688 3.29688,-2.92708 2.42188,-2.9375 L2.09375,-2.92188 L1.98438,-2.92188 L1.98438,-3.67188 C2.66146,-3.68229 3.10417,-3.77604 3.3125,-3.95313 C3.47917,-4.09896 3.5625,-4.31771 3.5625,-4.60938 C3.5625,-5.09896 3.34896,-5.41667 2.92188,-5.5625 C2.77604,-5.61458 2.61458,-5.64063 2.4375,-5.64063"/>
<path class="Note" fill="#99cc33" transform="matrix(0.9936,0,0,0.9936,317.963,60.372)" d="M4.39063,-2.75 C5.01563,-2.75 5.54688,-2.58854 5.98438,-2.26563 C6.38021,-1.91146 6.57813,-1.46875 6.57813,-0.9375 C6.57813,-0.0416667 6.11979,0.796875 5.20313,1.57813 C4.26563,2.35938 3.26042,2.75 2.1875,2.75 C1.5625,2.75 1.03646,2.58854 0.609375,2.26563 C0.203125,1.91146 0,1.46875 0,0.9375 C0,0.0416667 0.46875,-0.796875 1.40625,-1.57813 C2.32292,-2.35938 3.31771,-2.75 4.39063,-2.75"/>
<path class="Note" fill="#ffffff" fill-rule="evenodd" d="M286.586,111.294 L292.547,111.294 L292.547,118.746 L286.586,118.746 L286.586,111.294 "/>
<path class="Note" transform="matrix(0.9936,0,0,0.9936,287.082,118.498)" d="M4.28125,-6.39063 L4.28125,-5.64063 L1.625,-5.64063 L1.375,-3.8125 C1.73958,-4.09375 2.13542,-4.23438 2.5625,-4.23438 C3.28125,-4.23438 3.83333,-3.97396 4.21875,-3.45313 C4.48958,-3.07813 4.625,-2.625 4.625,-2.09375 C4.625,-1.3125 4.35938,-0.708333 3.82813,-0.28125 C3.44271,0.0416667 2.97917,0.203125 2.4375,0.203125 C1.26042,0.203125 0.557292,-0.359375 0.328125,-1.48438 C0.328125,-1.50521 0.322917,-1.53125 0.3125,-1.5625 L1.10938,-1.5625 C1.30729,-0.885417 1.73958,-0.541667 2.40625,-0.53125 C3.02083,-0.53125 3.44271,-0.770833 3.67188,-1.25 C3.76563,-1.46875 3.8125,-1.71354 3.8125,-1.98438 C3.8125,-2.63021 3.58333,-3.07813 3.125,-3.32813 C2.91667,-3.44271 2.67708,-3.5 2.40625,-3.5 C2.03125,-3.5 1.70833,-3.38021 1.4375,-3.14063 C1.375,-3.07813 1.3125,-3.01042 1.25,-2.9375 L0.515625,-2.9375 L0.984375,-6.39063 L4.28125,-6.39063 "/>
<path class="Note" fill="#cc00ff" transform="matrix(0.9936,0,0,0.9936,285.84,57.888)" d="M4.39063,-2.75 C5.01563,-2.75 5.54688,-2.58854 5.98438,-2.26563 C6.38021,-1.91146 6.57813,-1.46875 6.57813,-0.9375 C6.57813,-0.0416667 6.11979,0.796875 5.20313,1.57813 C4.26563,2.35938 3.26042,2.75 2.1875,2.75 C1.5625,2.75 1.03646,2.58854 0.609375,2.26563 C0.203125,1.91146 0,1.46875 0,0.9375 C0,0.0416667 0.46875,-0.796875 1.40625,-1.57813 C2.32292,-2.35938 3.31771,-2.75 4.39063,-2.75"/>
<path class="Note" fill="#ffffff" fill-rule="evenodd" d="M254.463,111.294 L260.425,111.294 L260.425,118.746 L254.463,118.746 L254.463,111.294 "/>
<path class="Note" transform="matrix(0.9936,0,0,0.9936,254.96,118.498)" d="M2.9375,-1.5 L0.25,-1.5 L0.25,-2.375 L3.15625,-6.39063 L3.73438,-6.39063 L3.73438,-2.23438 L4.6875,-2.23438 L4.6875,-1.5 L3.73438,-1.5 L3.73438,0 L2.9375,0 L2.9375,-1.5 M2.9375,-2.23438 L2.9375,-5.03125 L0.9375,-2.23438 L2.9375,-2.23438 "/>
<path class="Note" fill="#660099" transform="matrix(0.9936,0,0,0.9936,253.718,60.372)" d="M4.39063,-2.75 C5.01563,-2.75 5.54688,-2.58854 5.98438,-2.26563 C6.38021,-1.91146 6.57813,-1.46875 6.57813,-0.9375 C6.57813,-0.0416667 6.11979,0.796875 5.20313,1.57813 C4.26563,2.35938 3.26042,2.75 2.1875,2.75 C1.5625,2.75 1.03646,2.58854 0.609375,2.26563 C0.203125,1.91146 0,1.46875 0,0.9375 C0,0.0416667 0.46875,-0.796875 1.40625,-1.57813 C2.32292,-2.35938 3.31771,-2.75 4.39063,-2.75"/>
<path class="Note" fill="#ffffff" fill-rule="evenodd" d="M222.341,111.294 L228.302,111.294 L228.302,118.746 L222.341,118.746 L222.341,111.294 "/>
<path class="Note" transform="matrix(0.9936,0,0,0.9936,222.837,118.498)" d="M0.453125,-4.17188 C0.494792,-5.64063 1.19792,-6.38021 2.5625,-6.39063 C3.28125,-6.39063 3.83333,-6.14583 4.21875,-5.65625 C4.46875,-5.32292 4.59375,-4.93229 4.59375,-4.48438 C4.59375,-3.68229 4.14583,-3.03125 3.25,-2.53125 L2.34375,-2.04688 C1.79167,-1.75521 1.44271,-1.4375 1.29688,-1.09375 C1.24479,-0.989583 1.21354,-0.869792 1.20313,-0.734375 L4.5625,-0.734375 L4.5625,0 L0.3125,0 C0.354167,-0.760417 0.520833,-1.33854 0.8125,-1.73438 C1.07292,-2.05729 1.5,-2.38542 2.09375,-2.71875 L2.92188,-3.1875 C3.49479,-3.52083 3.78646,-3.94271 3.79688,-4.45313 C3.79688,-4.88021 3.61458,-5.21354 3.25,-5.45313 C3.04167,-5.57813 2.80208,-5.64063 2.53125,-5.64063 C1.73958,-5.64063 1.3125,-5.16667 1.25,-4.21875 C1.25,-4.19792 1.25,-4.18229 1.25,-4.17188 L0.453125,-4.17188 "/>
<path class="Note" fill="#286704" transform="matrix(0.9936,0,0,0.9936,221.595,62.856)" d="M4.39063,-2.75 C5.01563,-2.75 5.54688,-2.58854 5.98438,-2.26563 C6.38021,-1.91146 6.57813,-1.46875 6.57813,-0.9375 C6.57813,-0.0416667 6.11979,0.796875 5.20313,1.57813 C4.26563,2.35938 3.26042,2.75 2.1875,2.75 C1.5625,2.75 1.03646,2.58854 0.609375,2.26563 C0.203125,1.91146 0,1.46875 0,0.9375 C0,0.0416667 0.46875,-0.796875 1.40625,-1.57813 C2.32292,-2.35938 3.31771,-2.75 4.39063,-2.75"/>
<path class="Note" fill="#ffffff" fill-rule="evenodd" d="M190.218,111.294 L196.18,111.294 L196.18,118.746 L190.218,118.746 L190.218,111.294 "/>
<path class="Note" transform="matrix(0.9936,0,0,0.9936,190.715,118.498)" d="M0.390625,-3.09375 C0.390625,-5 0.927083,-6.07813 2,-6.32813 C2.14583,-6.36979 2.30208,-6.39063 2.46875,-6.39063 C3.78125,-6.39063 4.47917,-5.40104 4.5625,-3.42188 C4.5625,-3.28646 4.5625,-3.15625 4.5625,-3.03125 C4.5625,-1.40625 4.15104,-0.385417 3.32813,0.03125 C3.06771,0.145833 2.78125,0.203125 2.46875,0.203125 C1.41667,0.203125 0.760417,-0.442708 0.5,-1.73438 C0.427083,-2.14063 0.390625,-2.59375 0.390625,-3.09375 M2.46875,-5.64063 C1.625,-5.63021 1.20313,-4.77083 1.20313,-3.0625 C1.20313,-1.32292 1.61979,-0.453125 2.45313,-0.453125 C3.16146,-0.453125 3.57813,-1.02604 3.70313,-2.17188 C3.73438,-2.44271 3.75,-2.75 3.75,-3.09375 C3.75,-4.79167 3.32292,-5.64063 2.46875,-5.64063"/>
<path class="Note" fill="#ff9933" transform="matrix(0.9936,0,0,0.9936,189.473,65.34)" d="M4.39063,-2.75 C5.01563,-2.75 5.54688,-2.58854 5.98438,-2.26563 C6.38021,-1.91146 6.57813,-1.46875 6.57813,-0.9375 C6.57813,-0.0416667 6.11979,0.796875 5.20313,1.57813 C4.26563,2.35938 3.26042,2.75 2.1875,2.75 C1.5625,2.75 1.03646,2.58854 0.609375,2.26563 C0.203125,1.91146 0,1.46875 0,0.9375 C0,0.0416667 0.46875,-0.796875 1.40625,-1.57813 C2.32292,-2.35938 3.31771,-2.75 4.39063,-2.75"/>
<path class="Note" fill="#ffffff" fill-rule="evenodd" d="M158.096,118.746 L164.057,118.746 L164.057,126.198 L158.096,126.198 L158.096,118.746 "/>
<path class="Note" transform="matrix(0.9936,0,0,0.9936,158.592,125.95)" d="M2.4375,-5.64063 C1.75,-5.64063 1.35417,-5.32813 1.25,-4.70313 C1.22917,-4.59896 1.21875,-4.47917 1.21875,-4.34375 L0.421875,-4.34375 C0.442708,-5.59375 1.01563,-6.27083 2.14063,-6.375 C2.23438,-6.38542 2.32813,-6.39063 2.42188,-6.39063 C3.26563,-6.39063 3.84375,-6.10938 4.15625,-5.54688 C4.29167,-5.28646 4.35938,-4.98438 4.35938,-4.64063 C4.35938,-4.00521 4.0625,-3.57292 3.46875,-3.34375 C4.03125,-3.14583 4.375,-2.81771 4.5,-2.35938 C4.54167,-2.19271 4.5625,-2.00521 4.5625,-1.79688 C4.5625,-1.05729 4.27604,-0.505208 3.70313,-0.140625 C3.33854,0.0885417 2.90104,0.203125 2.39063,0.203125 C1.21354,0.203125 0.526042,-0.348958 0.328125,-1.45313 C0.317708,-1.57813 0.302083,-1.71354 0.28125,-1.85938 L1.07813,-1.85938 C1.13021,-1.08854 1.46875,-0.65625 2.09375,-0.5625 C2.19792,-0.541667 2.30729,-0.53125 2.42188,-0.53125 C3.04688,-0.53125 3.45313,-0.765625 3.64063,-1.23438 C3.71354,-1.40104 3.75,-1.58854 3.75,-1.79688 C3.73958,-2.54688 3.29688,-2.92708 2.42188,-2.9375 L2.09375,-2.92188 L1.98438,-2.92188 L1.98438,-3.67188 C2.66146,-3.68229 3.10417,-3.77604 3.3125,-3.95313 C3.47917,-4.09896 3.5625,-4.31771 3.5625,-4.60938 C3.5625,-5.09896 3.34896,-5.41667 2.92188,-5.5625 C2.77604,-5.61458 2.61458,-5.64063 2.4375,-5.64063"/>
<path class="Note" fill="#78c7c7" transform="matrix(0.9936,0,0,0.9936,157.35,67.824)" d="M4.39063,-2.75 C5.01563,-2.75 5.54688,-2.58854 5.98438,-2.26563 C6.38021,-1.91146 6.57813,-1.46875 6.57813,-0.9375 C6.57813,-0.0416667 6.11979,0.796875 5.20313,1.57813 C4.26563,2.35938 3.26042,2.75 2.1875,2.75 C1.5625,2.75 1.03646,2.58854 0.609375,2.26563 C0.203125,1.91146 0,1.46875 0,0.9375 C0,0.0416667 0.46875,-0.796875 1.40625,-1.57813 C2.32292,-2.35938 3.31771,-2.75 4.39063,-2.75"/>
<path class="Note" fill="#ffffff" fill-rule="evenodd" d="M125.973,118.746 L131.935,118.746 L131.935,126.198 L125.973,126.198 L125.973,118.746 "/>
<path class="Note" transform="matrix(0.9936,0,0,0.9936,126.47,125.95)" d="M2.32813,-4.54688 L0.921875,-4.54688 L0.921875,-5.10938 C1.53646,-5.19271 1.93229,-5.30208 2.10938,-5.4375 C2.28646,-5.57292 2.4375,-5.85417 2.5625,-6.28125 C2.57292,-6.3125 2.58854,-6.34896 2.60938,-6.39063 L3.125,-6.39063 L3.125,0 L2.32813,0 L2.32813,-4.54688 "/>
<path class="Note" fill="#ed2929" transform="matrix(0.9936,0,0,0.9936,125.228,70.308)" d="M4.39063,-2.75 C5.01563,-2.75 5.54688,-2.58854 5.98438,-2.26563 C6.38021,-1.91146 6.57813,-1.46875 6.57813,-0.9375 C6.57813,-0.0416667 6.11979,0.796875 5.20313,1.57813 C4.26563,2.35938 3.26042,2.75 2.1875,2.75 C1.5625,2.75 1.03646,2.58854 0.609375,2.26563 C0.203125,1.91146 0,1.46875 0,0.9375 C0,0.0416667 0.46875,-0.796875 1.40625,-1.57813 C2.32292,-2.35938 3.31771,-2.75 4.39063,-2.75"/>
<path class="Note" fill="#ffffff" fill-rule="evenodd" d="M93.8506,118.746 L99.8122,118.746 L99.8122,126.198 L93.8506,126.198 L93.8506,118.746 "/>
<path class="Note" transform="matrix(0.9936,0,0,0.9936,94.3474,125.95)" d="M0.390625,-3.09375 C0.390625,-5 0.927083,-6.07813 2,-6.32813 C2.14583,-6.36979 2.30208,-6.39063 2.46875,-6.39063 C3.78125,-6.39063 4.47917,-5.40104 4.5625,-3.42188 C4.5625,-3.28646 4.5625,-3.15625 4.5625,-3.03125 C4.5625,-1.40625 4.15104,-0.385417 3.32813,0.03125 C3.06771,0.145833 2.78125,0.203125 2.46875,0.203125 C1.41667,0.203125 0.760417,-0.442708 0.5,-1.73438 C0.427083,-2.14063 0.390625,-2.59375 0.390625,-3.09375 M2.46875,-5.64063 C1.625,-5.63021 1.20313,-4.77083 1.20313,-3.0625 C1.20313,-1.32292 1.61979,-0.453125 2.45313,-0.453125 C3.16146,-0.453125 3.57813,-1.02604 3.70313,-2.17188 C3.73438,-2.44271 3.75,-2.75 3.75,-3.09375 C3.75,-4.79167 3.32292,-5.64063 2.46875,-5.64063"/>
<path class="Note" fill="#ff9ee6" transform="matrix(0.9936,0,0,0.9936,93.1054,72.792)" d="M4.39063,-2.75 C5.01563,-2.75 5.54688,-2.58854 5.98438,-2.26563 C6.38021,-1.91146 6.57813,-1.46875 6.57813,-0.9375 C6.57813,-0.0416667 6.11979,0.796875 5.20313,1.57813 C4.26563,2.35938 3.26042,2.75 2.1875,2.75 C1.5625,2.75 1.03646,2.58854 0.609375,2.26563 C0.203125,1.91146 0,1.46875 0,0.9375 C0,0.0416667 0.46875,-0.796875 1.40625,-1.57813 C2.32292,-2.35938 3.31771,-2.75 4.39063,-2.75"/>
<path class="Note" fill="#ffffff" fill-rule="evenodd" d="M61.7281,126.198 L67.6897,126.198 L67.6897,133.65 L61.7281,133.65 L61.7281,126.198 "/>
<path class="Note" transform="matrix(0.9936,0,0,0.9936,62.2249,133.402)" d="M0.453125,-4.17188 C0.494792,-5.64063 1.19792,-6.38021 2.5625,-6.39063 C3.28125,-6.39063 3.83333,-6.14583 4.21875,-5.65625 C4.46875,-5.32292 4.59375,-4.93229 4.59375,-4.48438 C4.59375,-3.68229 4.14583,-3.03125 3.25,-2.53125 L2.34375,-2.04688 C1.79167,-1.75521 1.44271,-1.4375 1.29688,-1.09375 C1.24479,-0.989583 1.21354,-0.869792 1.20313,-0.734375 L4.5625,-0.734375 L4.5625,0 L0.3125,0 C0.354167,-0.760417 0.520833,-1.33854 0.8125,-1.73438 C1.07292,-2.05729 1.5,-2.38542 2.09375,-2.71875 L2.92188,-3.1875 C3.49479,-3.52083 3.78646,-3.94271 3.79688,-4.45313 C3.79688,-4.88021 3.61458,-5.21354 3.25,-5.45313 C3.04167,-5.57813 2.80208,-5.64063 2.53125,-5.64063 C1.73958,-5.64063 1.3125,-5.16667 1.25,-4.21875 C1.25,-4.19792 1.25,-4.18229 1.25,-4.17188 L0.453125,-4.17188 "/>
<path class="Note" fill="#cc00ff" transform="matrix(0.9936,0,0,0.9936,60.9829,75.276)" d="M4.39063,-2.75 C5.01563,-2.75 5.54688,-2.58854 5.98438,-2.26563 C6.38021,-1.91146 6.57813,-1.46875 6.57813,-0.9375 C6.57813,-0.0416667 6.11979,0.796875 5.20313,1.57813 C4.26563,2.35938 3.26042,2.75 2.1875,2.75 C1.5625,2.75 1.03646,2.58854 0.609375,2.26563 C0.203125,1.91146 0,1.46875 0,0.9375 C0,0.0416667 0.46875,-0.796875 1.40625,-1.57813 C2.32292,-2.35938 3.31771,-2.75 4.39063,-2.75"/>
<path class="Clef" transform="matrix(0.9936,0,0,0.9936,32.0544,133.65)" d="M5.32813,8.5 C5.32813,8.86458 5.04167,9.04688 4.46875,9.04688 C4.02083,9.04688 3.625,8.91146 3.28125,8.64063 C2.95833,8.34896 2.79688,7.98438 2.79688,7.54688 C2.79688,6.76563 3.27083,6.14063 4.21875,5.67188 C5.14583,5.18229 6.23438,4.9375 7.48438,4.9375 C7.96354,4.9375 8.47917,4.97396 9.03125,5.04688 C9.42708,5.09896 9.875,5.20313 10.375,5.35938 C10.8125,5.49479 11.1563,5.70573 11.4063,5.99219 C11.6563,6.27865 11.7813,6.61458 11.7813,7 C11.7813,7.89583 11.3177,8.63021 10.3906,9.20313 C11.7448,9.45313 12.4271,10.0573 12.4375,11.0156 C12.4375,11.8281 12.0729,12.5599 11.3438,13.2109 C10.6146,13.862 9.79167,14.1875 8.875,14.1875 C8.47917,14.1875 8.07813,14.0938 7.67188,13.9063 C7.29688,13.7292 7.03125,13.5625 6.875,13.4063 C6.71875,13.2188 6.64063,13.0781 6.64063,12.9844 C6.64063,12.8594 6.70833,12.75 6.84375,12.6563 C6.95833,12.5417 7.07813,12.4844 7.20313,12.4844 C7.25521,12.4844 7.36719,12.5677 7.53906,12.7344 C7.71094,12.901 7.95833,12.9844 8.28125,12.9844 C8.72917,12.9844 9.16146,12.7969 9.57813,12.4219 C9.97396,12.0573 10.1719,11.6198 10.1719,11.1094 C10.1719,10.6719 9.98438,10.3542 9.60938,10.1563 C9.24479,9.95833 8.76563,9.85938 8.17188,9.85938 C8.06771,9.85938 8.01563,9.75 8.01563,9.53125 C8.01563,9.21875 8.13021,9.0625 8.35938,9.0625 C8.72396,9.0625 9.05208,8.90625 9.34375,8.59375 C9.61458,8.26042 9.75,7.90104 9.75,7.51563 C9.75,7.40104 9.71875,7.22917 9.65625,7 C9.60417,6.84375 9.44792,6.65104 9.1875,6.42188 C8.9375,6.21354 8.58854,6.07292 8.14063,6 C8.02604,6.63542 7.88021,7.44792 7.70313,8.4375 C7.52604,9.42708 7.40625,10.0781 7.34375,10.3906 C7.125,11.5156 6.72396,12.4583 6.14063,13.2188 C5.52604,14.0313 4.86458,14.4375 4.15625,14.4375 C3.9375,14.4375 3.71354,14.3854 3.48438,14.2813 C3.29688,14.1979 3.0625,14.0365 2.78125,13.7969 C2.52083,13.5885 2.34375,13.4479 2.25,13.375 C2.19792,13.3438 2.17188,13.2865 2.17188,13.2031 C2.17188,13.0781 2.21875,12.9635 2.3125,12.8594 C2.41667,12.7344 2.52604,12.6719 2.64063,12.6719 C2.71354,12.6719 2.89323,12.7969 3.17969,13.0469 C3.46615,13.2969 3.76563,13.4219 4.07813,13.4219 C4.68229,13.4219 5.13542,13.0365 5.4375,12.2656 C5.71875,11.526 5.85938,10.6094 5.85938,9.51563 L5.85938,9.35938 C5.85938,8.63021 5.97917,7.54167 6.21875,6.09375 C5.80208,6.22917 5.46875,6.42708 5.21875,6.6875 C4.95833,6.94792 4.82813,7.21875 4.82813,7.5 C4.82813,7.71875 4.91146,7.90625 5.07813,8.0625 C5.24479,8.21875 5.32813,8.36458 5.32813,8.5 M1.40625,2.39063 C1.46875,2.39063 1.625,2.45313 1.875,2.57813 C2.13542,2.71354 2.35938,2.78125 2.54688,2.78125 C3.03646,2.78125 3.64063,2.42188 4.35938,1.70313 C6.43229,-0.411458 7.85938,-2.65104 8.64063,-5.01563 C8.79688,-5.51563 9.17708,-5.76563 9.78125,-5.76563 C10.0938,-5.76563 10.3646,-5.69792 10.5938,-5.5625 C10.8125,-5.42708 10.9219,-5.28646 10.9219,-5.14063 L10.5625,2.17188 C10.5625,2.55729 10.7031,2.75 10.9844,2.75 C11.1198,2.75 11.3281,2.6875 11.6094,2.5625 C11.8698,2.42708 12.026,2.35938 12.0781,2.35938 C12.1823,2.35938 12.2448,2.47396 12.2656,2.70313 C12.2656,2.91146 12.1823,3.04167 12.0156,3.09375 C11.8802,3.125 11.6198,3.24479 11.2344,3.45313 C10.8281,3.66146 10.5104,3.76563 10.2813,3.76563 C9.78125,3.76563 9.42708,3.375 9.21875,2.59375 C8.89583,1.375 8.6875,0.104167 8.59375,-1.21875 C8.07292,-0.552083 7.49479,0.119792 6.85938,0.796875 C7.08854,1.24479 7.51563,1.46875 8.14063,1.46875 C8.23438,1.46875 8.30729,1.46354 8.35938,1.45313 L8.375,1.45313 C8.47917,1.45313 8.53125,1.54688 8.53125,1.73438 C8.53125,1.98438 8.44792,2.13542 8.28125,2.1875 C8.01042,2.28125 7.72396,2.32813 7.42188,2.32813 C6.77604,2.32813 6.30729,2.10417 6.01563,1.65625 L5.23438,2.35938 C4.14063,3.29688 3.25,3.76563 2.5625,3.76563 C2.375,3.76563 2.1875,3.73438 2,3.67188 C1.84375,3.60938 1.66146,3.51042 1.45313,3.375 C1.36979,3.34375 1.27865,3.29688 1.17969,3.23438 C1.08073,3.17188 1.02083,3.13542 1,3.125 C0.9375,3.10417 0.90625,3.04688 0.90625,2.95313 C0.90625,2.84896 0.958333,2.72396 1.0625,2.57813 C1.14583,2.45313 1.26042,2.39063 1.40625,2.39063 M5.76563,-10.7969 C5.76563,-10.474 5.48438,-10.3125 4.92188,-10.3125 C4.43229,-10.3125 4.00521,-10.474 3.64063,-10.7969 C3.28646,-11.1302 3.10938,-11.5313 3.10938,-12 C3.10938,-12.4479 3.25,-12.8385 3.53125,-13.1719 C3.83333,-13.5052 4.21875,-13.7552 4.6875,-13.9219 C5.11458,-14.0781 5.59896,-14.2031 6.14063,-14.2969 C6.69271,-14.3594 7.22396,-14.3906 7.73438,-14.3906 C8.03646,-14.3906 8.59896,-14.2552 9.42188,-13.9844 C10.2552,-13.7135 10.8333,-13.5781 11.1563,-13.5781 C11.5625,-13.5781 11.9479,-13.651 12.3125,-13.7969 C12.6042,-13.9219 12.8906,-14.0677 13.1719,-14.2344 C13.3906,-14.3802 13.5104,-14.4531 13.5313,-14.4531 C13.6563,-14.4531 13.7604,-14.4167 13.8438,-14.3438 C13.9479,-14.2396 14,-14.151 14,-14.0781 C14,-13.9948 13.8802,-13.849 13.6406,-13.6406 C13.3802,-13.401 13.0078,-13.1641 12.5234,-12.9297 C12.0391,-12.6953 11.5313,-12.5781 11,-12.5781 C10.7604,-12.5781 10.4688,-12.6198 10.125,-12.7031 C9.89583,-11.2552 9.66146,-9.96875 9.42188,-8.84375 C9.21354,-7.85417 8.79688,-6.98958 8.17188,-6.25 C7.56771,-5.51042 6.89583,-5.14063 6.15625,-5.14063 C5.85417,-5.14063 5.58854,-5.19792 5.35938,-5.3125 C5.09896,-5.44792 4.82292,-5.64583 4.53125,-5.90625 C4.30208,-6.09375 4.08333,-6.26563 3.875,-6.42188 C3.82292,-6.46354 3.79688,-6.52604 3.79688,-6.60938 C3.79688,-6.69271 3.84896,-6.80729 3.95313,-6.95313 C4.05729,-7.06771 4.15104,-7.125 4.23438,-7.125 C4.31771,-7.125 4.54167,-6.96354 4.90625,-6.64063 C5.27083,-6.31771 5.59375,-6.15625 5.875,-6.15625 C6.39583,-6.15625 6.80208,-6.45313 7.09375,-7.04688 C7.375,-7.64063 7.53646,-8.34375 7.57813,-9.15625 C7.64063,-10.5 7.79167,-11.8906 8.03125,-13.3281 C7.73958,-13.3906 7.52604,-13.4219 7.39063,-13.4219 C6.76563,-13.4219 6.22917,-13.2917 5.78125,-13.0313 C5.34375,-12.7813 5.125,-12.4427 5.125,-12.0156 C5.125,-11.7031 5.22917,-11.4635 5.4375,-11.2969 C5.65625,-11.1094 5.76563,-10.9427 5.76563,-10.7969"/>
<path class="Clef" transform="matrix(0.9936,0,0,0.9936,32.0544,77.76)" d="M7.34375,-5.125 C7.34375,-5.125 7.38542,-5.125 7.46875,-5.125 C7.52083,-5.13542 7.5625,-5.14063 7.59375,-5.14063 C9.05208,-5.14063 10.25,-4.625 11.1875,-3.59375 C12.125,-2.58333 12.5938,-1.40104 12.5938,-0.046875 C12.5938,1.64063 11.901,3.01042 10.5156,4.0625 C10.151,4.35417 9.67188,4.58854 9.07813,4.76563 C9.15104,5.60938 9.1875,6.29167 9.1875,6.8125 C9.1875,6.91667 9.17188,7.29688 9.14063,7.95313 C9.08854,9.16146 8.67188,10.2083 7.89063,11.0938 C7.14063,11.9688 6.20313,12.4063 5.07813,12.4063 C4.02604,12.4063 3.13021,12.0365 2.39063,11.2969 C1.64063,10.5365 1.26563,9.625 1.26563,8.5625 C1.26563,8 1.48438,7.52083 1.92188,7.125 C2.35938,6.73958 2.86979,6.54688 3.45313,6.54688 C3.97396,6.54688 4.41146,6.75 4.76563,7.15625 C5.13021,7.53125 5.3125,8 5.3125,8.5625 C5.3125,9.0625 5.13021,9.49479 4.76563,9.85938 C4.40104,10.224 3.96354,10.4063 3.45313,10.4063 C3.24479,10.4063 3.04688,10.3698 2.85938,10.2969 C3.43229,11.1406 4.19271,11.5625 5.14063,11.5625 C6.03646,11.5625 6.77083,11.1979 7.34375,10.4688 C7.94792,9.71875 8.27604,8.83854 8.32813,7.82813 C8.34896,7.20313 8.35938,6.84896 8.35938,6.76563 C8.35938,6.03646 8.33333,5.4375 8.28125,4.96875 C7.63542,5.07292 7.05729,5.125 6.54688,5.125 C4.73438,5.125 3.19271,4.40625 1.92188,2.96875 C0.671875,1.52083 0.046875,-0.197917 0.046875,-2.1875 C0.046875,-2.60417 0.0833333,-3.02604 0.15625,-3.45313 C0.239583,-3.80729 0.338542,-4.19271 0.453125,-4.60938 C0.515625,-4.84896 0.692708,-5.22917 0.984375,-5.75 C1.08854,-5.90625 1.20573,-6.10156 1.33594,-6.33594 C1.46615,-6.57031 1.55729,-6.72396 1.60938,-6.79688 C1.73438,-7.05729 1.98438,-7.41146 2.35938,-7.85938 C2.46354,-7.97396 2.57292,-8.10156 2.6875,-8.24219 C2.80208,-8.38281 2.89844,-8.5 2.97656,-8.59375 C3.05469,-8.6875 3.11198,-8.76042 3.14844,-8.8125 C3.1849,-8.86458 3.47917,-9.20833 4.03125,-9.84375 C4.15625,-9.97917 4.28125,-10.1198 4.40625,-10.2656 C4.53125,-10.4115 4.63281,-10.5286 4.71094,-10.6172 C4.78906,-10.7057 4.84896,-10.7656 4.89063,-10.7969 C4.42188,-12.349 4.125,-13.5885 4,-14.5156 C3.91667,-15.2552 3.875,-16.2708 3.875,-17.5625 C3.875,-18.6979 4.13542,-19.7604 4.65625,-20.75 C5.15625,-21.7708 5.86458,-22.6094 6.78125,-23.2656 C6.84375,-23.3073 6.90625,-23.3281 6.96875,-23.3281 C7.0625,-23.3281 7.13021,-23.3073 7.17188,-23.2656 C7.86979,-22.4219 8.47396,-21.3229 8.98438,-19.9688 C9.50521,-18.6146 9.76563,-17.3802 9.76563,-16.2656 C9.76563,-15.0156 9.46875,-13.8438 8.875,-12.75 C8.19792,-11.5938 7.32292,-10.3958 6.25,-9.15625 C6.52083,-8.30208 6.88542,-6.95833 7.34375,-5.125 M9,3.96875 C9.67708,3.71875 10.2083,3.29688 10.5938,2.70313 C11.0104,2.13021 11.2188,1.48438 11.2188,0.765625 C11.2188,-0.161458 10.9063,-0.984375 10.2813,-1.70313 C9.63542,-2.44271 8.81771,-2.85938 7.82813,-2.95313 C8.39063,-0.203125 8.78125,2.10417 9,3.96875 M1.45313,-0.546875 C1.45313,0.744792 1.97396,1.88021 3.01563,2.85938 C4.07813,3.80729 5.27604,4.28125 6.60938,4.28125 C7.15104,4.28125 7.68229,4.23958 8.20313,4.15625 C7.99479,2.17708 7.58333,-0.192708 6.96875,-2.95313 C6.22917,-2.86979 5.64063,-2.60938 5.20313,-2.17188 C4.76563,-1.71354 4.54688,-1.19792 4.54688,-0.625 C4.54688,0.364583 5.07813,1.16667 6.14063,1.78125 C6.22396,1.875 6.26563,1.97396 6.26563,2.07813 C6.26563,2.18229 6.22396,2.27604 6.14063,2.35938 C6.05729,2.45313 5.95833,2.5 5.84375,2.5 C5.83333,2.5 5.77604,2.48958 5.67188,2.46875 C4.92188,2.0625 4.34896,1.54167 3.95313,0.90625 C3.56771,0.21875 3.375,-0.46875 3.375,-1.15625 C3.375,-2.05208 3.65625,-2.86458 4.21875,-3.59375 C4.80208,-4.32292 5.5625,-4.79167 6.5,-5 C6.13542,-6.45833 5.83854,-7.59896 5.60938,-8.42188 C5.40104,-8.18229 5.15104,-7.89844 4.85938,-7.57031 C4.56771,-7.24219 4.39583,-7.04167 4.34375,-6.96875 C3.875,-6.36458 3.51563,-5.89063 3.26563,-5.54688 C2.81771,-4.93229 2.48958,-4.40625 2.28125,-3.96875 C2.0625,-3.46875 1.86979,-2.92708 1.70313,-2.34375 C1.53646,-1.78125 1.45313,-1.18229 1.45313,-0.546875 M7.96875,-20.4063 C6.98958,-19.9271 6.22396,-19.2396 5.67188,-18.3438 C5.09896,-17.4167 4.8125,-16.4219 4.8125,-15.3594 C4.8125,-14.4219 5.04688,-13.1563 5.51563,-11.5625 C6.45313,-12.6979 7.15625,-13.7448 7.625,-14.7031 C8.11458,-15.724 8.35938,-16.7865 8.35938,-17.8906 C8.35938,-18.724 8.22917,-19.5625 7.96875,-20.4063 M5.82813,15.2344 C6.16146,14.901 6.32813,14.5625 6.32813,14.2188 C6.30729,13.9479 6.19271,13.7396 5.98438,13.5938 C5.74479,13.4375 5.46875,13.3594 5.15625,13.3594 C4.9375,13.3594 4.75521,13.4323 4.60938,13.5781 C4.48438,13.7031 4.42188,13.8646 4.42188,14.0625 C4.42188,14.3021 4.51563,14.4792 4.70313,14.5938 L5.82813,15.2344 M6.14063,15.4063 C6.68229,15.7083 6.95313,16.1146 6.95313,16.625 L6.95313,16.6875 C6.95313,17.0833 6.79167,17.4219 6.46875,17.7031 C6.14583,17.9844 5.68229,18.125 5.07813,18.125 C4.58854,18.125 4.16146,17.9948 3.79688,17.7344 C3.43229,17.4844 3.25,17.1458 3.25,16.7188 C3.25,16.5521 3.29167,16.3958 3.375,16.25 C3.47917,16.0833 3.56771,15.9688 3.64063,15.9063 L4,15.5313 C3.60417,15.2604 3.40625,14.901 3.40625,14.4531 C3.40625,14.099 3.5625,13.7865 3.875,13.5156 C4.19792,13.2552 4.625,13.125 5.15625,13.125 C5.60417,13.125 5.98438,13.224 6.29688,13.4219 C6.60938,13.6198 6.76563,13.8854 6.76563,14.2188 C6.76563,14.5729 6.55729,14.9688 6.14063,15.4063 M4.29688,15.7031 C3.91146,16.0469 3.70313,16.3854 3.67188,16.7188 C3.70313,17.0729 3.84896,17.3542 4.10938,17.5625 C4.39063,17.7813 4.71354,17.8906 5.07813,17.8906 C5.33854,17.8906 5.54688,17.8073 5.70313,17.6406 C5.85938,17.4844 5.9375,17.2969 5.9375,17.0781 C5.92708,16.7865 5.8125,16.5781 5.59375,16.4531 L4.29688,15.7031 "/>
<path class="Fingering" d="M504.285,73.9635 C504.524,72.9427 505.05,72.4166 505.863,72.3854 C505.894,72.3854 505.92,72.3854 505.941,72.3854 C506.43,72.3854 506.821,72.5625 507.113,72.9166 C507.321,73.177 507.425,73.4687 507.425,73.7916 C507.425,74.3854 507.108,75.026 506.472,75.7135 C506.451,75.7343 506.425,75.7552 506.394,75.776 L505.066,77.1979 L506.972,77.1979 C507.18,77.1979 507.342,77.1406 507.456,77.026 C507.529,76.9531 507.618,76.8333 507.722,76.6666 L507.831,76.6979 L507.394,77.776 L504.269,77.776 L504.269,77.6822 L505.691,76.1666 C506.368,75.427 506.717,74.7343 506.738,74.0885 C506.738,73.6406 506.566,73.3177 506.222,73.1197 C506.045,73.0156 505.842,72.9635 505.613,72.9635 C505.259,72.9635 504.983,73.0989 504.785,73.3697 C504.67,73.526 504.561,73.7395 504.456,74.0104 L504.285,73.9635 "/>
<path class="Fingering" d="M474.091,75.4014 C473.498,75.4014 473.034,75.0941 472.701,74.4795 C472.42,73.9795 472.279,73.3545 472.279,72.6045 C472.279,71.7087 472.487,71.0055 472.904,70.4951 C473.237,70.0993 473.644,69.8962 474.123,69.8858 C474.685,69.8858 475.128,70.1722 475.451,70.7451 C475.753,71.2555 475.904,71.891 475.904,72.6514 C475.904,73.6201 475.68,74.3597 475.232,74.8701 C474.909,75.2243 474.529,75.4014 474.091,75.4014 M474.091,70.0889 C473.446,70.0889 473.097,70.8597 473.045,72.4014 C473.045,72.4951 473.045,72.5889 473.045,72.6826 C473.055,74.3493 473.404,75.1878 474.091,75.1983 C474.779,75.1878 475.123,74.3441 475.123,72.667 C475.123,71.1462 474.852,70.2972 474.31,70.1201 C474.237,70.0993 474.164,70.0889 474.091,70.0889"/>
<path class="Fingering" d="M441.438,68.0736 C441.323,68.0736 441.13,68.1309 440.86,68.2455 L440.86,68.1361 L442.297,67.4017 L442.36,67.4174 L442.36,72.2142 C442.36,72.4226 442.422,72.558 442.547,72.6205 C442.651,72.6622 442.844,72.683 443.125,72.683 L443.125,72.808 L440.906,72.808 L440.906,72.683 C441.261,72.6726 441.485,72.6101 441.578,72.4955 C441.641,72.4017 441.672,72.2559 441.672,72.058 L441.672,68.4486 C441.662,68.1986 441.584,68.0736 441.438,68.0736"/>
<path class="Fingering" d="M408.487,69.699 C408.612,69.699 408.794,69.7667 409.034,69.9021 C409.284,70.0584 409.497,70.1365 409.675,70.1365 C410.039,70.1365 410.326,69.975 410.534,69.6521 C410.659,69.4438 410.721,69.2094 410.721,68.949 C410.721,68.1886 410.268,67.7719 409.362,67.699 C409.268,67.6886 409.169,67.6834 409.065,67.6834 L409.065,67.574 C409.669,67.3761 410.065,67.1209 410.253,66.8084 C410.346,66.6417 410.393,66.4594 410.393,66.2615 C410.393,65.9073 410.247,65.6521 409.956,65.4959 C409.82,65.4334 409.675,65.4021 409.518,65.4021 C409.07,65.4021 408.701,65.6365 408.409,66.1052 C408.378,66.1469 408.352,66.1938 408.331,66.2459 L408.206,66.2146 C408.456,65.5375 408.82,65.1261 409.3,64.9802 C409.445,64.9386 409.607,64.9177 409.784,64.9177 C410.263,64.9177 410.617,65.0844 410.846,65.4177 C410.971,65.5948 411.034,65.7927 411.034,66.0115 C411.034,66.3344 410.883,66.6261 410.581,66.8865 C410.487,66.9594 410.388,67.0375 410.284,67.1209 C410.763,67.3292 411.07,67.6157 411.206,67.9802 C411.268,68.1573 411.3,68.3552 411.3,68.574 C411.3,69.2094 411.034,69.7042 410.503,70.0584 C410.107,70.3084 409.638,70.4334 409.096,70.4334 C408.607,70.4334 408.315,70.324 408.221,70.1052 C408.201,70.0636 408.19,70.0219 408.19,69.9802 C408.19,69.824 408.268,69.7355 408.425,69.7146 C408.445,69.7042 408.466,69.699 408.487,69.699"/>
<path class="Fingering" d="M377.724,67.9494 C377.13,67.9494 376.667,67.6421 376.333,67.0275 C376.052,66.5275 375.911,65.9025 375.911,65.1525 C375.911,64.2567 376.12,63.5535 376.536,63.0431 C376.87,62.6473 377.276,62.4442 377.755,62.4337 C378.318,62.4337 378.76,62.7202 379.083,63.2931 C379.385,63.8035 379.536,64.439 379.536,65.1994 C379.536,66.1681 379.312,66.9077 378.865,67.4181 C378.542,67.7723 378.161,67.9494 377.724,67.9494 M377.724,62.6369 C377.078,62.6369 376.729,63.4077 376.677,64.9494 C376.677,65.0431 376.677,65.1369 376.677,65.2306 C376.687,66.8973 377.036,67.7358 377.724,67.7462 C378.411,67.7358 378.755,66.8921 378.755,65.215 C378.755,63.6942 378.484,62.8452 377.943,62.6681 C377.87,62.6473 377.797,62.6369 377.724,62.6369"/>
<path class="Fingering" d="M343.063,60.4672 C342.948,60.4672 342.756,60.5245 342.485,60.6391 L342.485,60.5297 L343.922,59.7953 L343.985,59.811 L343.985,64.6078 C343.985,64.8162 344.047,64.9516 344.172,65.0141 C344.276,65.0558 344.469,65.0766 344.75,65.0766 L344.75,65.2016 L342.532,65.2016 L342.532,65.0766 C342.886,65.0662 343.11,65.0037 343.203,64.8891 C343.266,64.7953 343.297,64.6495 343.297,64.4516 L343.297,60.8422 C343.287,60.5922 343.209,60.4672 343.063,60.4672"/>
<path class="Fingering" d="M312.635,60.7507 L312.635,61.2351 L311.807,61.2351 L311.807,62.5632 L311.198,62.5632 L311.198,61.2351 L308.948,61.2351 L308.948,60.7507 L311.463,57.1569 L311.807,57.1569 L311.807,60.7507 L312.635,60.7507 M311.182,60.7507 L311.182,58.0007 L309.276,60.7507 L311.182,60.7507 "/>
<path class="Fingering" d="M283.138,58.5755 L283.138,59.0599 L282.31,59.0599 L282.31,60.388 L281.7,60.388 L281.7,59.0599 L279.45,59.0599 L279.45,58.5755 L281.966,54.9817 L282.31,54.9817 L282.31,58.5755 L283.138,58.5755 M281.685,58.5755 L281.685,55.8255 L279.778,58.5755 L281.685,58.5755 "/>
<path class="Fingering" d="M243.118,61.667 C243.243,61.667 243.425,61.7347 243.665,61.8701 C243.915,62.0263 244.129,62.1045 244.306,62.1045 C244.67,62.1045 244.957,61.943 245.165,61.6201 C245.29,61.4117 245.353,61.1774 245.353,60.917 C245.353,60.1565 244.899,59.7399 243.993,59.667 C243.899,59.6565 243.8,59.6513 243.696,59.6513 L243.696,59.542 C244.3,59.344 244.696,59.0888 244.884,58.7763 C244.978,58.6097 245.024,58.4274 245.024,58.2295 C245.024,57.8753 244.879,57.6201 244.587,57.4638 C244.452,57.4013 244.306,57.3701 244.149,57.3701 C243.702,57.3701 243.332,57.6045 243.04,58.0732 C243.009,58.1149 242.983,58.1617 242.962,58.2138 L242.837,58.1826 C243.087,57.5055 243.452,57.094 243.931,56.9482 C244.077,56.9065 244.238,56.8857 244.415,56.8857 C244.894,56.8857 245.248,57.0524 245.478,57.3857 C245.603,57.5628 245.665,57.7607 245.665,57.9795 C245.665,58.3024 245.514,58.594 245.212,58.8545 C245.118,58.9274 245.019,59.0055 244.915,59.0888 C245.394,59.2972 245.702,59.5836 245.837,59.9482 C245.899,60.1253 245.931,60.3232 245.931,60.542 C245.931,61.1774 245.665,61.6722 245.134,62.0263 C244.738,62.2763 244.269,62.4013 243.728,62.4013 C243.238,62.4013 242.946,62.292 242.853,62.0732 C242.832,62.0315 242.821,61.9899 242.821,61.9482 C242.821,61.792 242.899,61.7034 243.056,61.6826 C243.077,61.6722 243.097,61.667 243.118,61.667"/>
<path class="Fingering" d="M212.752,60.5056 C212.637,60.5056 212.445,60.5629 212.174,60.6775 L212.174,60.5681 L213.611,59.8337 L213.674,59.8494 L213.674,64.6462 C213.674,64.8546 213.736,64.99 213.861,65.0525 C213.965,65.0942 214.158,65.115 214.439,65.115 L214.439,65.24 L212.221,65.24 L212.221,65.115 C212.575,65.1046 212.799,65.0421 212.892,64.9275 C212.955,64.8337 212.986,64.6879 212.986,64.49 L212.986,60.8806 C212.976,60.6306 212.898,60.5056 212.752,60.5056"/>
<path class="Fingering" d="M184.989,67.9494 C184.395,67.9494 183.932,67.6421 183.598,67.0275 C183.317,66.5275 183.176,65.9025 183.176,65.1525 C183.176,64.2567 183.385,63.5535 183.801,63.0431 C184.135,62.6473 184.541,62.4442 185.02,62.4337 C185.583,62.4337 186.025,62.7202 186.348,63.2931 C186.65,63.8035 186.801,64.439 186.801,65.1994 C186.801,66.1681 186.577,66.9077 186.13,67.4181 C185.807,67.7723 185.426,67.9494 184.989,67.9494 M184.989,62.6369 C184.343,62.6369 183.994,63.4077 183.942,64.9494 C183.942,65.0431 183.942,65.1369 183.942,65.2306 C183.952,66.8973 184.301,67.7358 184.989,67.7462 C185.676,67.7358 186.02,66.8921 186.02,65.215 C186.02,63.6942 185.749,62.8452 185.208,62.6681 C185.135,62.6473 185.062,62.6369 184.989,62.6369"/>
<path class="Fingering" d="M151.507,69.699 C151.632,69.699 151.814,69.7667 152.054,69.9021 C152.304,70.0584 152.517,70.1365 152.695,70.1365 C153.059,70.1365 153.346,69.975 153.554,69.6521 C153.679,69.4438 153.741,69.2094 153.741,68.949 C153.741,68.1886 153.288,67.7719 152.382,67.699 C152.288,67.6886 152.189,67.6834 152.085,67.6834 L152.085,67.574 C152.689,67.3761 153.085,67.1209 153.273,66.8084 C153.366,66.6417 153.413,66.4594 153.413,66.2615 C153.413,65.9073 153.267,65.6521 152.976,65.4959 C152.84,65.4334 152.695,65.4021 152.538,65.4021 C152.09,65.4021 151.721,65.6365 151.429,66.1052 C151.398,66.1469 151.372,66.1938 151.351,66.2459 L151.226,66.2146 C151.476,65.5375 151.84,65.1261 152.32,64.9802 C152.465,64.9386 152.627,64.9177 152.804,64.9177 C153.283,64.9177 153.637,65.0844 153.866,65.4177 C153.991,65.5948 154.054,65.7927 154.054,66.0115 C154.054,66.3344 153.903,66.6261 153.601,66.8865 C153.507,66.9594 153.408,67.0375 153.304,67.1209 C153.783,67.3292 154.09,67.6157 154.226,67.9802 C154.288,68.1573 154.32,68.3552 154.32,68.574 C154.32,69.2094 154.054,69.7042 153.523,70.0584 C153.127,70.3084 152.658,70.4334 152.116,70.4334 C151.627,70.4334 151.335,70.324 151.241,70.1052 C151.221,70.0636 151.21,70.0219 151.21,69.9802 C151.21,69.824 151.288,69.7355 151.445,69.7146 C151.465,69.7042 151.486,69.699 151.507,69.699"/>
<path class="Fingering" d="M120.213,68.0736 C120.098,68.0736 119.905,68.1309 119.635,68.2455 L119.635,68.1361 L121.072,67.4017 L121.135,67.4174 L121.135,72.2142 C121.135,72.4226 121.197,72.558 121.322,72.6205 C121.426,72.6622 121.619,72.683 121.9,72.683 L121.9,72.808 L119.681,72.808 L119.681,72.683 C120.036,72.6726 120.26,72.6101 120.353,72.4955 C120.416,72.4017 120.447,72.2559 120.447,72.058 L120.447,68.4486 C120.437,68.1986 120.358,68.0736 120.213,68.0736"/>
<path class="Fingering" d="M88.6214,75.4014 C88.0277,75.4014 87.5641,75.0941 87.2308,74.4795 C86.9495,73.9795 86.8089,73.3545 86.8089,72.6045 C86.8089,71.7087 87.0172,71.0055 87.4339,70.4951 C87.7672,70.0993 88.1735,69.8962 88.6527,69.8858 C89.2152,69.8858 89.6579,70.1722 89.9808,70.7451 C90.2829,71.2555 90.4339,71.891 90.4339,72.6514 C90.4339,73.6201 90.21,74.3597 89.762,74.8701 C89.4391,75.2243 89.0589,75.4014 88.6214,75.4014 M88.6214,70.0889 C87.9756,70.0889 87.6266,70.8597 87.5745,72.4014 C87.5745,72.4951 87.5745,72.5889 87.5745,72.6826 C87.585,74.3493 87.9339,75.1878 88.6214,75.1983 C89.3089,75.1878 89.6527,74.3441 89.6527,72.667 C89.6527,71.1462 89.3818,70.2972 88.8402,70.1201 C88.7672,70.0993 88.6943,70.0889 88.6214,70.0889"/>
<path class="Fingering" d="M54.7489,73.9635 C54.9885,72.9427 55.5145,72.4166 56.327,72.3854 C56.3583,72.3854 56.3843,72.3854 56.4052,72.3854 C56.8947,72.3854 57.2854,72.5625 57.577,72.9166 C57.7854,73.177 57.8895,73.4687 57.8895,73.7916 C57.8895,74.3854 57.5718,75.026 56.9364,75.7135 C56.9156,75.7343 56.8895,75.7552 56.8583,75.776 L55.5302,77.1979 L57.4364,77.1979 C57.6447,77.1979 57.8062,77.1406 57.9208,77.026 C57.9937,76.9531 58.0822,76.8333 58.1864,76.6666 L58.2958,76.6979 L57.8583,77.776 L54.7333,77.776 L54.7333,77.6822 L56.1552,76.1666 C56.8322,75.427 57.1812,74.7343 57.202,74.0885 C57.202,73.6406 57.0302,73.3177 56.6864,73.1197 C56.5093,73.0156 56.3062,72.9635 56.077,72.9635 C55.7229,72.9635 55.4468,73.0989 55.2489,73.3697 C55.1343,73.526 55.025,73.7395 54.9208,74.0104 L54.7489,73.9635 "/>
<path class="Tempo" d="M54.7395,40.4371 C54.5364,40.2809 54.2864,40.1871 53.9739,40.1871 C52.7864,40.1871 51.8332,41.0621 51.8332,41.9996 C51.8332,42.5621 52.2864,42.9059 52.8801,42.9059 C53.8332,42.9059 55.0207,41.9996 55.0207,41.0934 L55.0207,34.9527 L54.7395,34.9527 L54.7395,40.4371 "/>
<path class="Tempo" d="M65.3801,39.0152 L58.7707,39.0152 L58.7707,37.859 L65.3801,37.859 L65.3801,39.0152 M65.3801,41.9371 L58.7707,41.9371 L58.7707,40.7965 L65.3801,40.7965 L65.3801,41.9371 M70.8176,36.0465 C70.6926,36.0465 70.3749,36.1402 69.8645,36.3277 C69.8332,36.3382 69.8124,36.3486 69.802,36.359 L69.802,36.0465 L72.8176,34.734 L73.0207,34.734 L73.0207,41.5621 C73.0207,42.0517 73.1197,42.3642 73.3176,42.4996 C73.4947,42.6246 73.828,42.6923 74.3176,42.7027 L74.3176,42.984 L69.8176,42.984 L69.8176,42.7027 C70.4739,42.6923 70.8853,42.5882 71.052,42.3902 C71.1874,42.2236 71.2551,41.9267 71.2551,41.4996 L71.2551,36.8746 C71.2447,36.333 71.0989,36.0569 70.8176,36.0465 M75.3957,37.1715 C75.9478,35.6819 76.7239,34.8746 77.7239,34.7496 C77.828,34.7392 77.9322,34.734 78.0364,34.734 C78.828,34.734 79.4322,35.0205 79.8489,35.5934 C80.1197,35.9788 80.2551,36.4215 80.2551,36.9215 C80.2551,37.7861 79.828,38.6298 78.9739,39.4527 C78.9322,39.484 78.901,39.5152 78.8801,39.5465 L76.9426,41.3902 L78.7551,41.3902 C79.3905,41.3902 79.7968,41.333 79.9739,41.2184 C80.1405,41.1038 80.302,40.8486 80.4582,40.4527 L80.7551,40.4527 L80.2082,42.984 L75.2239,42.984 L75.2239,42.7027 C76.8905,40.9215 77.9166,39.6455 78.302,38.8746 C78.5103,38.4475 78.6145,38.0309 78.6145,37.6246 C78.6145,37.0934 78.4218,36.6767 78.0364,36.3746 C77.7968,36.1871 77.5155,36.0934 77.1926,36.0934 C76.5989,36.0934 76.1301,36.4215 75.7864,37.0777 C75.7655,37.109 75.7447,37.1402 75.7239,37.1715 L75.3957,37.1715 M81.302,38.9059 C81.302,37.5934 81.6145,36.5309 82.2395,35.7184 C82.7499,35.0725 83.3437,34.7444 84.0207,34.734 C84.802,34.734 85.4478,35.1402 85.9582,35.9527 C86.4687,36.7652 86.7239,37.76 86.7239,38.9371 C86.7239,40.3121 86.4062,41.4059 85.7707,42.2184 C85.2707,42.8225 84.6926,43.1298 84.0364,43.1402 C83.203,43.1402 82.5312,42.7132 82.0207,41.859 C81.5416,41.0673 81.302,40.083 81.302,38.9059 M84.0364,42.7965 C84.3905,42.7965 84.6249,42.4736 84.7395,41.8277 C84.802,41.4423 84.8332,40.9423 84.8332,40.3277 L84.8332,37.5777 C84.8332,36.1402 84.6405,35.3225 84.2551,35.1246 C84.1822,35.083 84.0989,35.0621 84.0051,35.0621 C83.6405,35.0621 83.401,35.3955 83.2864,36.0621 C83.2343,36.4371 83.2082,36.9423 83.2082,37.5777 L83.2082,40.3277 C83.2082,41.6819 83.3749,42.4736 83.7082,42.7027 C83.802,42.7652 83.9114,42.7965 84.0364,42.7965"/>
<path class="StaffText" d="M321.206,51.6689 L321.206,47.2314 C321.206,46.846 321.138,46.6064 321.003,46.5126 C320.888,46.4189 320.633,46.3616 320.237,46.3408 L320.237,46.1533 L323.206,46.1533 L323.206,46.3408 C322.747,46.3616 322.466,46.4345 322.362,46.5595 C322.268,46.6845 322.221,46.9085 322.221,47.2314 L322.221,51.6689 C322.221,52.0647 322.3,52.3147 322.456,52.4189 C322.581,52.5126 322.831,52.5647 323.206,52.5751 L323.206,52.7626 L320.237,52.7626 L320.237,52.5751 C320.685,52.5647 320.961,52.4918 321.065,52.3564 C321.159,52.2314 321.206,52.0022 321.206,51.6689"/>
<path class="StaffText" d="M223.257,54.8667 L223.257,50.4292 C223.257,50.0438 223.19,49.8042 223.054,49.7104 C222.94,49.6167 222.685,49.5594 222.289,49.5386 L222.289,49.3511 L225.257,49.3511 L225.257,49.5386 C224.799,49.5594 224.518,49.6323 224.414,49.7573 C224.32,49.8823 224.273,50.1063 224.273,50.4292 L224.273,54.8667 C224.273,55.2625 224.351,55.5125 224.507,55.6167 C224.632,55.7104 224.882,55.7625 225.257,55.7729 L225.257,55.9604 L222.289,55.9604 L222.289,55.7729 C222.737,55.7625 223.013,55.6896 223.117,55.5542 C223.211,55.4292 223.257,55.2 223.257,54.8667 M226.257,54.8667 L226.257,50.4292 C226.257,50.0438 226.19,49.8042 226.054,49.7104 C225.94,49.6167 225.685,49.5594 225.289,49.5386 L225.289,49.3511 L228.257,49.3511 L228.257,49.5386 C227.799,49.5594 227.518,49.6323 227.414,49.7573 C227.32,49.8823 227.273,50.1063 227.273,50.4292 L227.273,54.8667 C227.273,55.2625 227.351,55.5125 227.507,55.6167 C227.632,55.7104 227.882,55.7625 228.257,55.7729 L228.257,55.9604 L225.289,55.9604 L225.289,55.7729 C225.737,55.7625 226.013,55.6896 226.117,55.5542 C226.211,55.4292 226.257,55.2 226.257,54.8667"/>
<path class="StaffText" d="M64.3142,25.2057 C64.7622,25.2057 65.2622,25.3203 65.8142,25.5495 C66.0538,25.6432 66.2257,25.6901 66.3299,25.6901 C66.4757,25.6901 66.6059,25.5807 66.7205,25.362 C66.7309,25.3203 66.7465,25.2787 66.7674,25.237 L67.033,25.237 L67.033,27.5807 L66.783,27.5807 C66.5122,26.9766 66.2309,26.5339 65.9392,26.2526 C65.8767,26.1901 65.8194,26.138 65.7674,26.0964 C65.3403,25.7214 64.8976,25.5339 64.4392,25.5339 C63.4392,25.5339 62.8455,26.2526 62.658,27.6901 C62.6267,28.013 62.6111,28.362 62.6111,28.737 C62.6111,29.9245 62.8247,30.7943 63.2517,31.3464 C63.5851,31.763 64.0434,31.9714 64.6267,31.9714 C65.1892,31.9714 65.5069,31.7943 65.5799,31.4401 C65.5903,31.3776 65.5955,31.3099 65.5955,31.237 L65.5955,30.1901 C65.5955,29.8985 65.5226,29.711 65.3767,29.6276 C65.2309,29.5547 64.9653,29.5078 64.5799,29.487 L64.5799,29.237 L68.0174,29.237 L68.0174,29.487 C67.6111,29.5287 67.3611,29.6172 67.2674,29.7526 C67.1944,29.8672 67.158,30.086 67.158,30.4089 L67.158,31.6745 C66.5642,32.0287 65.7778,32.237 64.7986,32.2995 C64.6632,32.2995 64.5278,32.2995 64.3924,32.2995 C63.2778,32.2995 62.3872,31.9401 61.7205,31.2214 C61.1267,30.5755 60.8299,29.7682 60.8299,28.7995 C60.8299,27.7578 61.1736,26.8932 61.8611,26.2057 C62.5278,25.5391 63.3455,25.2057 64.3142,25.2057 M72.0799,28.8307 C71.8611,28.8307 71.6476,28.711 71.4392,28.4714 C71.3247,28.3255 71.2413,28.2474 71.1892,28.237 C70.9705,28.237 70.8038,28.388 70.6892,28.6901 C70.6163,28.8464 70.5799,29.013 70.5799,29.1901 L70.5799,31.0807 C70.5799,31.4453 70.6528,31.6693 70.7986,31.7526 C70.8924,31.8151 71.0642,31.8568 71.3142,31.8776 L71.3142,32.112 L68.6736,32.112 L68.6736,31.8776 C68.9444,31.8255 69.1059,31.7318 69.158,31.5964 C69.1788,31.5235 69.1892,31.4141 69.1892,31.2682 L69.1892,28.3307 C69.1892,28.0703 69.1163,27.9037 68.9705,27.8307 C68.8976,27.7891 68.7986,27.7578 68.6736,27.737 L68.6736,27.5026 L70.5486,27.5026 L70.5486,28.3307 C70.9236,27.7787 71.2934,27.4714 71.658,27.4089 C71.7413,27.388 71.8194,27.3776 71.8924,27.3776 C72.2361,27.3776 72.4809,27.5182 72.6267,27.7995 C72.6788,27.9141 72.7049,28.0339 72.7049,28.1589 C72.7049,28.4714 72.5799,28.6797 72.3299,28.7839 C72.2465,28.8151 72.1632,28.8307 72.0799,28.8307 M73.9549,28.0807 C73.9549,28.112 74.0069,28.2057 74.1111,28.362 C74.2049,28.5078 74.2517,28.6328 74.2517,28.737 C74.2517,28.9974 74.1215,29.1745 73.8611,29.2682 C73.7674,29.2995 73.6736,29.3151 73.5799,29.3151 C73.2153,29.3151 73.0017,29.1537 72.9392,28.8307 C72.9288,28.7682 72.9236,28.711 72.9236,28.6589 C72.9236,28.1901 73.1788,27.8412 73.6892,27.612 C74.0122,27.4557 74.3872,27.3776 74.8142,27.3776 C75.6892,27.3776 76.2882,27.6172 76.6111,28.0964 C76.7361,28.2943 76.7986,28.5182 76.7986,28.7682 L76.7986,31.3464 C76.809,31.5026 76.8767,31.586 77.0017,31.5964 C77.0538,31.586 77.0903,31.5703 77.1111,31.5495 L77.2205,31.4557 L77.3611,31.6589 C76.9653,32.0339 76.5955,32.2318 76.2517,32.2526 C75.8767,32.2526 75.6319,32.112 75.5174,31.8307 C75.4861,31.737 75.4549,31.638 75.4236,31.5339 C74.8819,32.0026 74.3559,32.2422 73.8455,32.2526 C73.408,32.2526 73.0903,32.086 72.8924,31.7526 C72.7882,31.586 72.7361,31.4037 72.7361,31.2057 C72.7361,30.6224 73.184,30.1485 74.0799,29.7839 C74.3194,29.6797 74.7674,29.5287 75.4236,29.3307 L75.4236,28.5964 C75.4236,28.0651 75.2049,27.7735 74.7674,27.7214 C74.7049,27.7214 74.6424,27.7214 74.5799,27.7214 C74.2882,27.7214 74.0903,27.8047 73.9861,27.9714 C73.9653,28.0026 73.9549,28.0391 73.9549,28.0807 M75.408,31.0964 L75.408,29.6589 C74.6059,29.8776 74.1997,30.2787 74.1892,30.862 C74.1892,31.1953 74.2986,31.4037 74.5174,31.487 C74.5799,31.5078 74.6424,31.5182 74.7049,31.5182 C74.934,31.5182 75.1684,31.3776 75.408,31.0964 M80.8767,32.237 L80.8767,31.5964 C80.5226,31.9714 80.1788,32.1849 79.8455,32.237 C79.7517,32.2474 79.6528,32.2526 79.5486,32.2526 C78.9549,32.2526 78.4861,31.9766 78.1424,31.4245 C77.8715,30.9974 77.7361,30.4922 77.7361,29.9089 C77.7361,29.0547 77.9809,28.3828 78.4705,27.8932 C78.8038,27.5495 79.1997,27.3776 79.658,27.3776 C80.0122,27.3776 80.3351,27.513 80.6267,27.7839 C80.7101,27.8568 80.783,27.9245 80.8455,27.987 L80.8455,26.1745 C80.8455,25.9245 80.7882,25.7682 80.6736,25.7057 C80.5694,25.6537 80.3715,25.6172 80.0799,25.5964 L80.0799,25.362 L82.2361,25.362 L82.2361,31.112 C82.2361,31.3932 82.3194,31.5651 82.4861,31.6276 C82.5694,31.6589 82.684,31.6797 82.8299,31.6901 L82.8299,31.9245 L82.2049,32.0026 C81.6528,32.0755 81.2101,32.1537 80.8767,32.237 M80.0017,31.7057 C80.2934,31.7057 80.5434,31.5391 80.7517,31.2057 C80.8038,31.112 80.8351,31.0443 80.8455,31.0026 L80.8455,28.5495 C80.7205,28.2162 80.5122,28.0182 80.2205,27.9557 C80.1684,27.9453 80.1163,27.9401 80.0642,27.9401 C79.5538,27.9401 79.2726,28.4453 79.2205,29.4557 C79.2205,29.5703 79.2205,29.6953 79.2205,29.8307 C79.2205,31.0703 79.4809,31.6953 80.0017,31.7057 M85.1736,29.6589 C85.2257,30.6797 85.4913,31.2787 85.9705,31.4557 C86.0955,31.4974 86.2257,31.5182 86.3611,31.5182 C86.7257,31.5182 87.059,31.3516 87.3611,31.0182 C87.4132,30.9662 87.4601,30.9141 87.5017,30.862 L87.7361,31.0026 C87.3194,31.6068 86.908,31.987 86.5017,32.1432 C86.2934,32.2162 86.059,32.2526 85.7986,32.2526 C85.0486,32.2526 84.4861,31.9453 84.1111,31.3307 C83.8611,30.9141 83.7361,30.4141 83.7361,29.8307 C83.7361,28.9349 84.0069,28.263 84.5486,27.8151 C84.9132,27.5235 85.3403,27.3776 85.8299,27.3776 C86.934,27.3776 87.5538,28.0964 87.6892,29.5339 C87.6892,29.5755 87.6892,29.6172 87.6892,29.6589 L85.1736,29.6589 M86.4705,29.1432 C86.4497,28.5182 86.3819,28.1224 86.2674,27.9557 C86.1736,27.7995 86.0278,27.7214 85.8299,27.7214 C85.5382,27.7214 85.3403,27.8932 85.2361,28.237 C85.1736,28.4766 85.1372,28.8307 85.1267,29.2995 L86.4705,29.2995 L86.4705,29.1432 M90.7986,27.2682 C91.2569,26.0287 91.908,25.3568 92.7517,25.2526 C92.8247,25.2422 92.908,25.237 93.0017,25.237 C93.658,25.237 94.158,25.4766 94.5017,25.9557 C94.7309,26.2787 94.8455,26.6485 94.8455,27.0651 C94.8455,27.7735 94.4861,28.4766 93.7674,29.1745 C93.7465,29.2057 93.7257,29.2266 93.7049,29.237 L92.0799,30.7839 L93.5955,30.7839 C94.1267,30.7839 94.4653,30.737 94.6111,30.6432 C94.7569,30.5495 94.8924,30.336 95.0174,30.0026 L95.2674,30.0026 L94.8142,32.112 L90.658,32.112 L90.658,31.8776 C92.0538,30.3985 92.908,29.336 93.2205,28.6901 C93.3976,28.336 93.4861,27.987 93.4861,27.6432 C93.4861,27.2057 93.3247,26.862 93.0017,26.612 C92.7934,26.4557 92.559,26.3776 92.2986,26.3776 C91.7986,26.3776 91.408,26.6485 91.1267,27.1901 C91.1059,27.2214 91.0903,27.2474 91.0799,27.2682 L90.7986,27.2682 M97.1424,30.5495 C97.4653,30.5495 97.7101,30.6901 97.8767,30.9714 C97.9601,31.1172 98.0017,31.263 98.0017,31.4089 C98.0017,31.7214 97.8611,31.961 97.5799,32.1276 C97.434,32.2005 97.2882,32.237 97.1424,32.237 C96.809,32.237 96.5642,32.0964 96.408,31.8151 C96.3351,31.6797 96.2986,31.5391 96.2986,31.3932 C96.2986,31.0912 96.434,30.8568 96.7049,30.6901 C96.8403,30.5964 96.9861,30.5495 97.1424,30.5495 M97.1424,27.3932 C97.4653,27.3932 97.7101,27.5287 97.8767,27.7995 C97.9601,27.9453 98.0017,28.0912 98.0017,28.237 C98.0017,28.5599 97.8611,28.8047 97.5799,28.9714 C97.4444,29.0443 97.2986,29.0807 97.1424,29.0807 C96.809,29.0807 96.5642,28.9349 96.408,28.6432 C96.3351,28.5078 96.2986,28.3672 96.2986,28.2214 C96.2986,27.9193 96.434,27.6849 96.7049,27.5182 C96.8403,27.4349 96.9861,27.3932 97.1424,27.3932"/>
<path class="StaffText" d="M108.549,31.9245 L108.549,32.112 L105.986,32.112 L105.986,31.9245 C106.403,31.9141 106.632,31.8412 106.674,31.7057 C106.684,31.6641 106.689,31.6224 106.689,31.5807 C106.689,31.4245 106.627,31.2057 106.502,30.9245 L106.095,29.987 L103.47,29.987 L103.017,31.1276 C102.965,31.2735 102.939,31.4037 102.939,31.5182 C102.95,31.7787 103.174,31.9141 103.611,31.9245 L103.611,32.112 L101.642,32.112 L101.642,31.9245 C101.882,31.9141 102.064,31.8307 102.189,31.6745 C102.335,31.4766 102.564,31.013 102.877,30.2839 L104.955,25.3776 L105.158,25.3776 L107.642,31.0495 C107.84,31.487 108.007,31.7474 108.142,31.8307 C108.236,31.8828 108.372,31.9141 108.549,31.9245 M103.642,29.5495 L105.955,29.5495 L104.799,26.7995 L103.642,29.5495 M111.611,28.1589 L111.611,27.987 C112.09,27.8412 112.559,27.6849 113.017,27.5182 L113.08,27.5339 L113.08,28.2995 C113.653,27.862 114.064,27.612 114.314,27.5495 C114.418,27.5287 114.523,27.5182 114.627,27.5182 C115.158,27.5287 115.512,27.8151 115.689,28.3776 C116.22,27.8047 116.767,27.5182 117.33,27.5182 C118.09,27.5287 118.476,28.1276 118.486,29.3151 L118.486,31.362 C118.497,31.7266 118.637,31.9193 118.908,31.9401 L119.174,31.9557 L119.174,32.112 L116.986,32.112 L116.986,31.9557 C117.309,31.9245 117.502,31.8516 117.564,31.737 C117.616,31.6432 117.642,31.4818 117.642,31.2526 L117.642,29.1432 C117.642,28.5912 117.533,28.2578 117.314,28.1432 C117.21,28.0807 117.069,28.0495 116.892,28.0495 C116.444,28.0599 116.08,28.263 115.799,28.6589 L115.799,31.1745 C115.799,31.5495 115.887,31.7839 116.064,31.8776 C116.168,31.9297 116.319,31.9557 116.517,31.9557 L116.517,32.112 L114.283,32.112 L114.283,31.9557 C114.606,31.9349 114.804,31.862 114.877,31.737 C114.939,31.6432 114.97,31.4818 114.97,31.2526 L114.97,29.0964 C114.97,28.3985 114.747,28.0495 114.299,28.0495 C113.934,28.0495 113.611,28.1693 113.33,28.4089 C113.257,28.4818 113.189,28.5599 113.127,28.6432 L113.127,31.4401 C113.127,31.6901 113.215,31.8464 113.392,31.9089 C113.486,31.9401 113.622,31.9557 113.799,31.9557 L113.799,32.112 L111.58,32.112 L111.58,31.9557 C111.934,31.9557 112.148,31.8724 112.22,31.7057 C112.262,31.6016 112.283,31.4557 112.283,31.2682 L112.283,28.7526 C112.283,28.3776 112.205,28.1693 112.049,28.1276 C112.017,28.1172 111.981,28.112 111.939,28.112 C111.835,28.112 111.726,28.1276 111.611,28.1589 M120.455,29.3464 C120.497,30.5235 120.882,31.2162 121.611,31.4245 C121.736,31.4662 121.872,31.487 122.017,31.487 C122.507,31.487 122.924,31.2787 123.267,30.862 C123.361,30.7474 123.46,30.612 123.564,30.4557 L123.72,30.5182 C123.356,31.4766 122.783,32.0287 122.002,32.1745 C121.866,32.1953 121.736,32.2057 121.611,32.2057 C120.872,32.2057 120.34,31.8932 120.017,31.2682 C119.83,30.8932 119.736,30.461 119.736,29.9714 C119.736,29.086 120.012,28.4141 120.564,27.9557 C120.929,27.6641 121.351,27.5182 121.83,27.5182 C122.747,27.5182 123.299,28.0391 123.486,29.0807 C123.507,29.1745 123.523,29.263 123.533,29.3464 L120.455,29.3464 M120.47,29.0495 L122.517,29.0495 C122.424,28.4766 122.257,28.1224 122.017,27.987 C121.892,27.9245 121.731,27.8932 121.533,27.8932 C120.939,27.8932 120.585,28.2682 120.47,29.0182 C120.47,29.0287 120.47,29.0391 120.47,29.0495 M123.58,25.8776 L123.58,25.7214 C124.247,25.5547 124.778,25.4089 125.174,25.2839 L125.22,25.2995 L125.22,31.2682 C125.22,31.5807 125.283,31.7735 125.408,31.8464 C125.523,31.8985 125.71,31.9349 125.97,31.9557 L125.97,32.112 L123.611,32.112 L123.611,31.9557 C123.986,31.9245 124.215,31.836 124.299,31.6901 C124.351,31.5964 124.377,31.4453 124.377,31.237 L124.377,26.4714 C124.377,26.138 124.304,25.9453 124.158,25.8932 C124.095,25.8724 124.028,25.862 123.955,25.862 C123.819,25.862 123.694,25.8672 123.58,25.8776 M128.939,27.5182 C129.679,27.5182 130.262,27.7891 130.689,28.3307 C130.991,28.737 131.142,29.2162 131.142,29.7682 C131.142,30.5495 130.887,31.1745 130.377,31.6432 C129.96,32.0182 129.476,32.2057 128.924,32.2057 C128.215,32.2057 127.653,31.9349 127.236,31.3932 C126.903,30.9557 126.736,30.4401 126.736,29.8464 C126.736,29.0339 127.012,28.4089 127.564,27.9714 C127.95,27.6693 128.408,27.5182 128.939,27.5182 M127.642,29.362 C127.642,30.2682 127.83,30.961 128.205,31.4401 C128.444,31.7526 128.726,31.9089 129.049,31.9089 C129.569,31.9089 129.929,31.612 130.127,31.0182 C130.21,30.7578 130.252,30.461 130.252,30.1276 C130.252,29.2422 130.038,28.586 129.611,28.1589 C129.382,27.9297 129.116,27.8151 128.814,27.8151 C128.345,27.8151 128.007,28.0547 127.799,28.5339 C127.694,28.7735 127.642,29.0495 127.642,29.362 M134.908,32.2057 L134.861,32.1745 L134.861,31.5182 C134.507,31.9662 134.08,32.1953 133.58,32.2057 C132.924,32.2057 132.424,31.9297 132.08,31.3776 C131.851,31.0026 131.736,30.5651 131.736,30.0651 C131.736,29.2735 131.981,28.6224 132.47,28.112 C132.856,27.7162 133.304,27.5182 133.814,27.5182 C134.158,27.5182 134.486,27.6432 134.799,27.8932 C134.819,27.9141 134.84,27.9349 134.861,27.9557 L134.861,26.3776 C134.861,26.1172 134.799,25.961 134.674,25.9089 C134.611,25.888 134.523,25.8776 134.408,25.8776 C134.304,25.8776 134.231,25.8776 134.189,25.8776 L134.189,25.7214 C134.804,25.5651 135.293,25.4193 135.658,25.2839 L135.705,25.2995 L135.705,30.9557 C135.705,31.2578 135.762,31.4349 135.877,31.487 C135.939,31.5078 136.028,31.5182 136.142,31.5182 C136.174,31.5182 136.247,31.5182 136.361,31.5182 L136.377,31.5182 L136.377,31.6745 L134.908,32.2057 M133.97,31.6745 C134.325,31.6745 134.59,31.5443 134.767,31.2839 C134.83,31.2005 134.861,31.1328 134.861,31.0807 L134.861,28.7995 C134.861,28.4766 134.71,28.2057 134.408,27.987 C134.231,27.8724 134.043,27.8151 133.845,27.8151 C133.356,27.8151 133.002,28.0807 132.783,28.612 C132.658,28.9141 132.595,29.263 132.595,29.6589 C132.595,30.5026 132.819,31.0964 133.267,31.4401 C133.476,31.5964 133.71,31.6745 133.97,31.6745 M137.111,28.1901 C136.955,28.1901 136.814,28.2005 136.689,28.2214 L136.689,28.0651 C137.158,27.9297 137.674,27.7474 138.236,27.5182 L138.267,27.5495 L138.267,31.0964 C138.267,31.4818 138.325,31.7214 138.439,31.8151 C138.533,31.888 138.726,31.9349 139.017,31.9557 L139.017,32.112 L136.642,32.112 L136.642,31.9557 C137.007,31.9349 137.236,31.8672 137.33,31.7526 C137.403,31.638 137.439,31.4193 137.439,31.0964 L137.439,28.7682 C137.439,28.4141 137.356,28.2214 137.189,28.1901 C137.158,28.1901 137.132,28.1901 137.111,28.1901 M137.767,25.2839 C137.986,25.2839 138.142,25.3828 138.236,25.5807 C138.267,25.6537 138.283,25.7266 138.283,25.7995 C138.283,26.0182 138.179,26.1745 137.97,26.2682 C137.898,26.2891 137.83,26.2995 137.767,26.2995 C137.549,26.2995 137.392,26.2005 137.299,26.0026 C137.278,25.9297 137.267,25.862 137.267,25.7995 C137.267,25.5807 137.361,25.4245 137.549,25.3307 C137.622,25.2995 137.694,25.2839 137.767,25.2839 M139.736,29.987 C139.736,29.1432 140.023,28.4818 140.595,28.0026 C140.991,27.6797 141.434,27.5182 141.924,27.5182 C142.476,27.5182 142.903,27.6693 143.205,27.9714 C143.382,28.1485 143.47,28.3412 143.47,28.5495 C143.47,28.7266 143.377,28.8516 143.189,28.9245 C143.116,28.9557 143.049,28.9714 142.986,28.9714 C142.778,28.9714 142.627,28.836 142.533,28.5651 C142.523,28.5443 142.517,28.5235 142.517,28.5026 L142.455,28.2839 C142.392,28.0339 142.278,27.888 142.111,27.8464 C142.038,27.8255 141.955,27.8151 141.861,27.8151 C141.361,27.8151 140.981,28.0547 140.72,28.5339 C140.575,28.8255 140.502,29.1641 140.502,29.5495 C140.502,30.2787 140.726,30.8255 141.174,31.1901 C141.434,31.388 141.726,31.487 142.049,31.487 C142.465,31.487 142.825,31.3203 143.127,30.987 C143.231,30.862 143.345,30.7162 143.47,30.5495 L143.611,30.6432 C143.236,31.362 142.819,31.8307 142.361,32.0495 C142.122,32.1537 141.882,32.2057 141.642,32.2057 C140.997,32.2057 140.491,31.9401 140.127,31.4089 C139.866,31.0026 139.736,30.5287 139.736,29.987 M146.611,28.1589 L146.611,27.987 C147.09,27.8412 147.559,27.6849 148.017,27.5182 L148.08,27.5339 L148.08,28.2995 C148.653,27.862 149.064,27.612 149.314,27.5495 C149.418,27.5287 149.523,27.5182 149.627,27.5182 C150.158,27.5287 150.512,27.8151 150.689,28.3776 C151.22,27.8047 151.767,27.5182 152.33,27.5182 C153.09,27.5287 153.476,28.1276 153.486,29.3151 L153.486,31.362 C153.497,31.7266 153.637,31.9193 153.908,31.9401 L154.174,31.9557 L154.174,32.112 L151.986,32.112 L151.986,31.9557 C152.309,31.9245 152.502,31.8516 152.564,31.737 C152.616,31.6432 152.642,31.4818 152.642,31.2526 L152.642,29.1432 C152.642,28.5912 152.533,28.2578 152.314,28.1432 C152.21,28.0807 152.069,28.0495 151.892,28.0495 C151.444,28.0599 151.08,28.263 150.799,28.6589 L150.799,31.1745 C150.799,31.5495 150.887,31.7839 151.064,31.8776 C151.168,31.9297 151.319,31.9557 151.517,31.9557 L151.517,32.112 L149.283,32.112 L149.283,31.9557 C149.606,31.9349 149.804,31.862 149.877,31.737 C149.939,31.6432 149.97,31.4818 149.97,31.2526 L149.97,29.0964 C149.97,28.3985 149.747,28.0495 149.299,28.0495 C148.934,28.0495 148.611,28.1693 148.33,28.4089 C148.257,28.4818 148.189,28.5599 148.127,28.6432 L148.127,31.4401 C148.127,31.6901 148.215,31.8464 148.392,31.9089 C148.486,31.9401 148.622,31.9557 148.799,31.9557 L148.799,32.112 L146.58,32.112 L146.58,31.9557 C146.934,31.9557 147.148,31.8724 147.22,31.7057 C147.262,31.6016 147.283,31.4557 147.283,31.2682 L147.283,28.7526 C147.283,28.3776 147.205,28.1693 147.049,28.1276 C147.017,28.1172 146.981,28.112 146.939,28.112 C146.835,28.112 146.726,28.1276 146.611,28.1589 M155.111,28.1901 C154.955,28.1901 154.814,28.2005 154.689,28.2214 L154.689,28.0651 C155.158,27.9297 155.674,27.7474 156.236,27.5182 L156.267,27.5495 L156.267,31.0964 C156.267,31.4818 156.325,31.7214 156.439,31.8151 C156.533,31.888 156.726,31.9349 157.017,31.9557 L157.017,32.112 L154.642,32.112 L154.642,31.9557 C155.007,31.9349 155.236,31.8672 155.33,31.7526 C155.403,31.638 155.439,31.4193 155.439,31.0964 L155.439,28.7682 C155.439,28.4141 155.356,28.2214 155.189,28.1901 C155.158,28.1901 155.132,28.1901 155.111,28.1901 M155.767,25.2839 C155.986,25.2839 156.142,25.3828 156.236,25.5807 C156.267,25.6537 156.283,25.7266 156.283,25.7995 C156.283,26.0182 156.179,26.1745 155.97,26.2682 C155.898,26.2891 155.83,26.2995 155.767,26.2995 C155.549,26.2995 155.392,26.2005 155.299,26.0026 C155.278,25.9297 155.267,25.862 155.267,25.7995 C155.267,25.5807 155.361,25.4245 155.549,25.3307 C155.622,25.2995 155.694,25.2839 155.767,25.2839 M157.58,28.1276 L157.58,27.9557 C158.08,27.8099 158.543,27.6641 158.97,27.5182 L159.033,27.5339 L159.033,28.3151 C159.512,27.8776 159.887,27.6224 160.158,27.5495 C160.262,27.5287 160.372,27.5182 160.486,27.5182 C161.028,27.5182 161.387,27.7891 161.564,28.3307 C161.627,28.5287 161.658,28.7526 161.658,29.0026 L161.658,31.2995 C161.658,31.612 161.731,31.8047 161.877,31.8776 C161.97,31.9089 162.101,31.9349 162.267,31.9557 L162.267,32.112 L160.189,32.112 L160.189,31.9557 C160.491,31.9349 160.679,31.836 160.752,31.6589 C160.804,31.5443 160.83,31.3672 160.83,31.1276 L160.83,29.0339 C160.809,28.388 160.564,28.0599 160.095,28.0495 C159.845,28.0495 159.585,28.1641 159.314,28.3932 C159.241,28.4662 159.158,28.5443 159.064,28.6276 L159.064,31.4401 C159.064,31.6797 159.163,31.836 159.361,31.9089 C159.455,31.9297 159.575,31.9453 159.72,31.9557 L159.72,32.112 L157.611,32.112 L157.611,31.9557 C157.903,31.9349 158.085,31.8516 158.158,31.7057 C158.2,31.5912 158.22,31.4245 158.22,31.2057 L158.22,28.7214 C158.22,28.3568 158.148,28.1537 158.002,28.112 C157.96,28.0912 157.913,28.0807 157.861,28.0807 C157.736,28.0807 157.642,28.0964 157.58,28.1276 M164.939,27.5182 C165.679,27.5182 166.262,27.7891 166.689,28.3307 C166.991,28.737 167.142,29.2162 167.142,29.7682 C167.142,30.5495 166.887,31.1745 166.377,31.6432 C165.96,32.0182 165.476,32.2057 164.924,32.2057 C164.215,32.2057 163.653,31.9349 163.236,31.3932 C162.903,30.9557 162.736,30.4401 162.736,29.8464 C162.736,29.0339 163.012,28.4089 163.564,27.9714 C163.95,27.6693 164.408,27.5182 164.939,27.5182 M163.642,29.362 C163.642,30.2682 163.83,30.961 164.205,31.4401 C164.444,31.7526 164.726,31.9089 165.049,31.9089 C165.569,31.9089 165.929,31.612 166.127,31.0182 C166.21,30.7578 166.252,30.461 166.252,30.1276 C166.252,29.2422 166.038,28.586 165.611,28.1589 C165.382,27.9297 165.116,27.8151 164.814,27.8151 C164.345,27.8151 164.007,28.0547 163.799,28.5339 C163.694,28.7735 163.642,29.0495 163.642,29.362 M170.502,28.487 C170.398,28.487 170.247,28.4037 170.049,28.237 C169.955,28.1537 169.882,28.112 169.83,28.112 C169.663,28.112 169.491,28.2422 169.314,28.5026 C169.2,28.6693 169.142,28.8151 169.142,28.9401 L169.142,31.2057 C169.142,31.5495 169.231,31.763 169.408,31.8464 C169.533,31.9089 169.726,31.9453 169.986,31.9557 L169.986,32.112 L167.58,32.112 L167.58,31.9557 C167.934,31.8932 168.148,31.8099 168.22,31.7057 C168.273,31.6224 168.299,31.4766 168.299,31.2682 L168.299,28.7526 C168.299,28.388 168.215,28.1901 168.049,28.1589 C168.017,28.1485 167.986,28.1432 167.955,28.1432 C167.84,28.1432 167.726,28.1589 167.611,28.1901 L167.611,28.0339 C168.142,27.8672 168.632,27.6953 169.08,27.5182 L169.142,27.5339 L169.142,28.4245 C169.486,27.9453 169.778,27.6589 170.017,27.5651 C170.122,27.5339 170.226,27.5182 170.33,27.5182 C170.642,27.5182 170.825,27.6485 170.877,27.9089 C170.877,27.9505 170.877,27.9974 170.877,28.0495 C170.845,28.3203 170.72,28.4662 170.502,28.487 M176.158,27.7214 C176.179,27.711 176.236,27.6745 176.33,27.612 L176.439,27.612 L176.47,28.9714 L176.33,28.9714 C176.163,28.3255 175.924,27.9401 175.611,27.8151 C175.497,27.763 175.366,27.737 175.22,27.737 C174.866,27.737 174.627,27.8776 174.502,28.1589 C174.47,28.2422 174.455,28.3307 174.455,28.4245 C174.465,28.7057 174.611,28.9297 174.892,29.0964 L175.97,29.737 C176.45,30.0287 176.72,30.3464 176.783,30.6901 C176.793,30.763 176.799,30.8464 176.799,30.9401 C176.799,31.3568 176.616,31.6953 176.252,31.9557 C175.991,32.1224 175.705,32.2057 175.392,32.2057 C175.257,32.2057 174.95,32.1589 174.47,32.0651 C174.356,32.0443 174.267,32.0339 174.205,32.0339 C174.101,32.0443 174.023,32.086 173.97,32.1589 L173.845,32.1589 L173.845,30.5964 L174.002,30.5964 C174.106,31.0651 174.236,31.3932 174.392,31.5807 C174.611,31.8516 174.903,31.987 175.267,31.987 C175.694,31.987 175.96,31.8307 176.064,31.5182 C176.095,31.4453 176.111,31.362 176.111,31.2682 C176.101,30.9662 175.924,30.7162 175.58,30.5182 L175.002,30.1901 C174.377,29.836 174.007,29.4818 173.892,29.1276 C173.851,29.0026 173.83,28.8776 173.83,28.7526 C173.83,28.2839 174.033,27.9349 174.439,27.7057 C174.668,27.5807 174.918,27.5182 175.189,27.5182 C175.408,27.5182 175.668,27.5703 175.97,27.6745 C176.054,27.7057 176.116,27.7214 176.158,27.7214 M177.736,29.987 C177.736,29.1432 178.023,28.4818 178.595,28.0026 C178.991,27.6797 179.434,27.5182 179.924,27.5182 C180.476,27.5182 180.903,27.6693 181.205,27.9714 C181.382,28.1485 181.47,28.3412 181.47,28.5495 C181.47,28.7266 181.377,28.8516 181.189,28.9245 C181.116,28.9557 181.049,28.9714 180.986,28.9714 C180.778,28.9714 180.627,28.836 180.533,28.5651 C180.523,28.5443 180.517,28.5235 180.517,28.5026 L180.455,28.2839 C180.392,28.0339 180.278,27.888 180.111,27.8464 C180.038,27.8255 179.955,27.8151 179.861,27.8151 C179.361,27.8151 178.981,28.0547 178.72,28.5339 C178.575,28.8255 178.502,29.1641 178.502,29.5495 C178.502,30.2787 178.726,30.8255 179.174,31.1901 C179.434,31.388 179.726,31.487 180.049,31.487 C180.465,31.487 180.825,31.3203 181.127,30.987 C181.231,30.862 181.345,30.7162 181.47,30.5495 L181.611,30.6432 C181.236,31.362 180.819,31.8307 180.361,32.0495 C180.122,32.1537 179.882,32.2057 179.642,32.2057 C178.997,32.2057 178.491,31.9401 178.127,31.4089 C177.866,31.0026 177.736,30.5287 177.736,29.987 M181.736,31.1432 C181.736,30.6328 182.054,30.2005 182.689,29.8464 C182.877,29.7526 183.377,29.5391 184.189,29.2057 C184.21,29.2057 184.226,29.2005 184.236,29.1901 L184.236,28.5807 C184.184,28.0599 183.929,27.7839 183.47,27.7526 C183.158,27.7526 182.939,27.8516 182.814,28.0495 C182.773,28.1224 182.752,28.1849 182.752,28.237 C182.752,28.2995 182.762,28.3828 182.783,28.487 C182.793,28.5599 182.799,28.612 182.799,28.6432 C182.799,28.8203 182.71,28.9453 182.533,29.0182 C182.47,29.0495 182.413,29.0651 182.361,29.0651 C182.174,29.0651 182.043,28.9766 181.97,28.7995 C181.939,28.7474 181.924,28.6901 181.924,28.6276 C181.924,28.263 182.142,27.9662 182.58,27.737 C182.882,27.5912 183.226,27.5182 183.611,27.5182 C184.33,27.5182 184.773,27.7735 184.939,28.2839 C185.012,28.5026 185.049,28.7787 185.049,29.112 L185.049,31.0495 C185.049,31.3828 185.111,31.5703 185.236,31.612 C185.278,31.6224 185.314,31.6276 185.345,31.6276 C185.491,31.6172 185.637,31.5547 185.783,31.4401 L185.783,31.6901 C185.512,32.0026 185.262,32.1745 185.033,32.2057 C184.981,32.2057 184.929,32.2057 184.877,32.2057 C184.564,32.2057 184.366,32.0495 184.283,31.737 C184.262,31.6537 184.252,31.5599 184.252,31.4557 C183.658,31.9349 183.168,32.1849 182.783,32.2057 C182.356,32.2057 182.049,32.0339 181.861,31.6901 C181.778,31.5235 181.736,31.3412 181.736,31.1432 M184.236,30.862 L184.236,29.4245 C183.413,29.7266 182.908,30.0339 182.72,30.3464 C182.648,30.4922 182.611,30.6485 182.611,30.8151 C182.611,31.211 182.757,31.461 183.049,31.5651 C183.122,31.5964 183.189,31.612 183.252,31.612 C183.47,31.6016 183.71,31.5235 183.97,31.3776 C184.116,31.2943 184.2,31.1901 184.22,31.0651 C184.231,31.0026 184.236,30.9349 184.236,30.862 M185.58,25.8776 L185.58,25.7214 C186.247,25.5547 186.778,25.4089 187.174,25.2839 L187.22,25.2995 L187.22,31.2682 C187.22,31.5807 187.283,31.7735 187.408,31.8464 C187.523,31.8985 187.71,31.9349 187.97,31.9557 L187.97,32.112 L185.611,32.112 L185.611,31.9557 C185.986,31.9245 186.215,31.836 186.299,31.6901 C186.351,31.5964 186.377,31.4453 186.377,31.237 L186.377,26.4714 C186.377,26.138 186.304,25.9453 186.158,25.8932 C186.095,25.8724 186.028,25.862 185.955,25.862 C185.819,25.862 185.694,25.8672 185.58,25.8776 M189.455,29.3464 C189.497,30.5235 189.882,31.2162 190.611,31.4245 C190.736,31.4662 190.872,31.487 191.017,31.487 C191.507,31.487 191.924,31.2787 192.267,30.862 C192.361,30.7474 192.46,30.612 192.564,30.4557 L192.72,30.5182 C192.356,31.4766 191.783,32.0287 191.002,32.1745 C190.866,32.1953 190.736,32.2057 190.611,32.2057 C189.872,32.2057 189.34,31.8932 189.017,31.2682 C188.83,30.8932 188.736,30.461 188.736,29.9714 C188.736,29.086 189.012,28.4141 189.564,27.9557 C189.929,27.6641 190.351,27.5182 190.83,27.5182 C191.747,27.5182 192.299,28.0391 192.486,29.0807 C192.507,29.1745 192.523,29.263 192.533,29.3464 L189.455,29.3464 M189.47,29.0495 L191.517,29.0495 C191.424,28.4766 191.257,28.1224 191.017,27.987 C190.892,27.9245 190.731,27.8932 190.533,27.8932 C189.939,27.8932 189.585,28.2682 189.47,29.0182 C189.47,29.0287 189.47,29.0391 189.47,29.0495 M197.939,27.5182 C198.679,27.5182 199.262,27.7891 199.689,28.3307 C199.991,28.737 200.142,29.2162 200.142,29.7682 C200.142,30.5495 199.887,31.1745 199.377,31.6432 C198.96,32.0182 198.476,32.2057 197.924,32.2057 C197.215,32.2057 196.653,31.9349 196.236,31.3932 C195.903,30.9557 195.736,30.4401 195.736,29.8464 C195.736,29.0339 196.012,28.4089 196.564,27.9714 C196.95,27.6693 197.408,27.5182 197.939,27.5182 M196.642,29.362 C196.642,30.2682 196.83,30.961 197.205,31.4401 C197.444,31.7526 197.726,31.9089 198.049,31.9089 C198.569,31.9089 198.929,31.612 199.127,31.0182 C199.21,30.7578 199.252,30.461 199.252,30.1276 C199.252,29.2422 199.038,28.586 198.611,28.1589 C198.382,27.9297 198.116,27.8151 197.814,27.8151 C197.345,27.8151 197.007,28.0547 196.799,28.5339 C196.694,28.7735 196.642,29.0495 196.642,29.362 M200.58,28.1276 L200.58,27.9557 C201.08,27.8099 201.543,27.6641 201.97,27.5182 L202.033,27.5339 L202.033,28.3151 C202.512,27.8776 202.887,27.6224 203.158,27.5495 C203.262,27.5287 203.372,27.5182 203.486,27.5182 C204.028,27.5182 204.387,27.7891 204.564,28.3307 C204.627,28.5287 204.658,28.7526 204.658,29.0026 L204.658,31.2995 C204.658,31.612 204.731,31.8047 204.877,31.8776 C204.97,31.9089 205.101,31.9349 205.267,31.9557 L205.267,32.112 L203.189,32.112 L203.189,31.9557 C203.491,31.9349 203.679,31.836 203.752,31.6589 C203.804,31.5443 203.83,31.3672 203.83,31.1276 L203.83,29.0339 C203.809,28.388 203.564,28.0599 203.095,28.0495 C202.845,28.0495 202.585,28.1641 202.314,28.3932 C202.241,28.4662 202.158,28.5443 202.064,28.6276 L202.064,31.4401 C202.064,31.6797 202.163,31.836 202.361,31.9089 C202.455,31.9297 202.575,31.9453 202.72,31.9557 L202.72,32.112 L200.611,32.112 L200.611,31.9557 C200.903,31.9349 201.085,31.8516 201.158,31.7057 C201.2,31.5912 201.22,31.4245 201.22,31.2057 L201.22,28.7214 C201.22,28.3568 201.148,28.1537 201.002,28.112 C200.96,28.0912 200.913,28.0807 200.861,28.0807 C200.736,28.0807 200.642,28.0964 200.58,28.1276 M206.455,29.3464 C206.497,30.5235 206.882,31.2162 207.611,31.4245 C207.736,31.4662 207.872,31.487 208.017,31.487 C208.507,31.487 208.924,31.2787 209.267,30.862 C209.361,30.7474 209.46,30.612 209.564,30.4557 L209.72,30.5182 C209.356,31.4766 208.783,32.0287 208.002,32.1745 C207.866,32.1953 207.736,32.2057 207.611,32.2057 C206.872,32.2057 206.34,31.8932 206.017,31.2682 C205.83,30.8932 205.736,30.461 205.736,29.9714 C205.736,29.086 206.012,28.4141 206.564,27.9557 C206.929,27.6641 207.351,27.5182 207.83,27.5182 C208.747,27.5182 209.299,28.0391 209.486,29.0807 C209.507,29.1745 209.523,29.263 209.533,29.3464 L206.455,29.3464 M206.47,29.0495 L208.517,29.0495 C208.424,28.4766 208.257,28.1224 208.017,27.987 C207.892,27.9245 207.731,27.8932 207.533,27.8932 C206.939,27.8932 206.585,28.2682 206.47,29.0182 C206.47,29.0287 206.47,29.0391 206.47,29.0495 M214.939,27.5182 C215.679,27.5182 216.262,27.7891 216.689,28.3307 C216.991,28.737 217.142,29.2162 217.142,29.7682 C217.142,30.5495 216.887,31.1745 216.377,31.6432 C215.96,32.0182 215.476,32.2057 214.924,32.2057 C214.215,32.2057 213.653,31.9349 213.236,31.3932 C212.903,30.9557 212.736,30.4401 212.736,29.8464 C212.736,29.0339 213.012,28.4089 213.564,27.9714 C213.95,27.6693 214.408,27.5182 214.939,27.5182 M213.642,29.362 C213.642,30.2682 213.83,30.961 214.205,31.4401 C214.444,31.7526 214.726,31.9089 215.049,31.9089 C215.569,31.9089 215.929,31.612 216.127,31.0182 C216.21,30.7578 216.252,30.461 216.252,30.1276 C216.252,29.2422 216.038,28.586 215.611,28.1589 C215.382,27.9297 215.116,27.8151 214.814,27.8151 C214.345,27.8151 214.007,28.0547 213.799,28.5339 C213.694,28.7735 213.642,29.0495 213.642,29.362 M217.736,29.987 C217.736,29.1432 218.023,28.4818 218.595,28.0026 C218.991,27.6797 219.434,27.5182 219.924,27.5182 C220.476,27.5182 220.903,27.6693 221.205,27.9714 C221.382,28.1485 221.47,28.3412 221.47,28.5495 C221.47,28.7266 221.377,28.8516 221.189,28.9245 C221.116,28.9557 221.049,28.9714 220.986,28.9714 C220.778,28.9714 220.627,28.836 220.533,28.5651 C220.523,28.5443 220.517,28.5235 220.517,28.5026 L220.455,28.2839 C220.392,28.0339 220.278,27.888 220.111,27.8464 C220.038,27.8255 219.955,27.8151 219.861,27.8151 C219.361,27.8151 218.981,28.0547 218.72,28.5339 C218.575,28.8255 218.502,29.1641 218.502,29.5495 C218.502,30.2787 218.726,30.8255 219.174,31.1901 C219.434,31.388 219.726,31.487 220.049,31.487 C220.465,31.487 220.825,31.3203 221.127,30.987 C221.231,30.862 221.345,30.7162 221.47,30.5495 L221.611,30.6432 C221.236,31.362 220.819,31.8307 220.361,32.0495 C220.122,32.1537 219.882,32.2057 219.642,32.2057 C218.997,32.2057 218.491,31.9401 218.127,31.4089 C217.866,31.0026 217.736,30.5287 217.736,29.987 M224.08,27.612 L224.08,27.9089 L223.064,27.9089 L223.064,30.7682 C223.064,31.3099 223.2,31.6068 223.47,31.6589 C223.502,31.6693 223.538,31.6745 223.58,31.6745 C223.788,31.6641 223.991,31.5443 224.189,31.3151 L224.314,31.4401 C223.991,31.9505 223.59,32.2057 223.111,32.2057 C222.528,32.1953 222.231,31.7735 222.22,30.9401 L222.22,27.9089 L221.689,27.9089 C221.668,27.888 221.658,27.8672 221.658,27.8464 C221.658,27.8047 221.7,27.763 221.783,27.7214 C222.064,27.5339 222.398,27.1693 222.783,26.6276 C222.793,26.6172 222.799,26.612 222.799,26.612 C222.903,26.4557 222.97,26.362 223.002,26.3307 C223.043,26.3412 223.064,26.3828 223.064,26.4557 L223.064,27.612 L224.08,27.612 M224.736,31.1432 C224.736,30.6328 225.054,30.2005 225.689,29.8464 C225.877,29.7526 226.377,29.5391 227.189,29.2057 C227.21,29.2057 227.226,29.2005 227.236,29.1901 L227.236,28.5807 C227.184,28.0599 226.929,27.7839 226.47,27.7526 C226.158,27.7526 225.939,27.8516 225.814,28.0495 C225.773,28.1224 225.752,28.1849 225.752,28.237 C225.752,28.2995 225.762,28.3828 225.783,28.487 C225.793,28.5599 225.799,28.612 225.799,28.6432 C225.799,28.8203 225.71,28.9453 225.533,29.0182 C225.47,29.0495 225.413,29.0651 225.361,29.0651 C225.174,29.0651 225.043,28.9766 224.97,28.7995 C224.939,28.7474 224.924,28.6901 224.924,28.6276 C224.924,28.263 225.142,27.9662 225.58,27.737 C225.882,27.5912 226.226,27.5182 226.611,27.5182 C227.33,27.5182 227.773,27.7735 227.939,28.2839 C228.012,28.5026 228.049,28.7787 228.049,29.112 L228.049,31.0495 C228.049,31.3828 228.111,31.5703 228.236,31.612 C228.278,31.6224 228.314,31.6276 228.345,31.6276 C228.491,31.6172 228.637,31.5547 228.783,31.4401 L228.783,31.6901 C228.512,32.0026 228.262,32.1745 228.033,32.2057 C227.981,32.2057 227.929,32.2057 227.877,32.2057 C227.564,32.2057 227.366,32.0495 227.283,31.737 C227.262,31.6537 227.252,31.5599 227.252,31.4557 C226.658,31.9349 226.168,32.1849 225.783,32.2057 C225.356,32.2057 225.049,32.0339 224.861,31.6901 C224.778,31.5235 224.736,31.3412 224.736,31.1432 M227.236,30.862 L227.236,29.4245 C226.413,29.7266 225.908,30.0339 225.72,30.3464 C225.648,30.4922 225.611,30.6485 225.611,30.8151 C225.611,31.211 225.757,31.461 226.049,31.5651 C226.122,31.5964 226.189,31.612 226.252,31.612 C226.47,31.6016 226.71,31.5235 226.97,31.3776 C227.116,31.2943 227.2,31.1901 227.22,31.0651 C227.231,31.0026 227.236,30.9349 227.236,30.862 M233.111,27.612 L233.111,27.7682 C232.944,27.7891 232.819,27.8568 232.736,27.9714 C232.663,28.0755 232.575,28.2682 232.47,28.5495 L231.189,31.7526 C231.054,32.0755 230.96,32.2422 230.908,32.2526 C230.835,32.2526 230.752,32.1068 230.658,31.8151 C230.648,31.8047 230.642,31.7943 230.642,31.7839 L229.439,28.9089 C229.189,28.3151 229.002,27.9662 228.877,27.862 C228.793,27.7995 228.679,27.7682 228.533,27.7682 L228.533,27.612 L230.502,27.612 L230.502,27.7682 C230.22,27.7891 230.069,27.862 230.049,27.987 C230.038,28.0078 230.033,28.0287 230.033,28.0495 C230.033,28.1641 230.064,28.2839 230.127,28.4089 L231.142,30.9714 L232.127,28.3776 C232.168,28.2839 232.189,28.1849 232.189,28.0807 C232.189,27.9037 232.043,27.7995 231.752,27.7682 C231.741,27.7682 231.731,27.7682 231.72,27.7682 L231.72,27.612 L233.111,27.612 M234.455,29.3464 C234.497,30.5235 234.882,31.2162 235.611,31.4245 C235.736,31.4662 235.872,31.487 236.017,31.487 C236.507,31.487 236.924,31.2787 237.267,30.862 C237.361,30.7474 237.46,30.612 237.564,30.4557 L237.72,30.5182 C237.356,31.4766 236.783,32.0287 236.002,32.1745 C235.866,32.1953 235.736,32.2057 235.611,32.2057 C234.872,32.2057 234.34,31.8932 234.017,31.2682 C233.83,30.8932 233.736,30.461 233.736,29.9714 C233.736,29.086 234.012,28.4141 234.564,27.9557 C234.929,27.6641 235.351,27.5182 235.83,27.5182 C236.747,27.5182 237.299,28.0391 237.486,29.0807 C237.507,29.1745 237.523,29.263 237.533,29.3464 L234.455,29.3464 M234.47,29.0495 L236.517,29.0495 C236.424,28.4766 236.257,28.1224 236.017,27.987 C235.892,27.9245 235.731,27.8932 235.533,27.8932 C234.939,27.8932 234.585,28.2682 234.47,29.0182 C234.47,29.0287 234.47,29.0391 234.47,29.0495"/>
</svg>
