<?xml version="1.0" encoding="UTF-8" standalone="no"?>
<svg width="595.44px" height="841.68px" viewBox="0 0 595.44 841.68"
 xmlns="http://www.w3.org/2000/svg" xmlns:xlink="http://www.w3.org/1999/xlink" version="1.2" baseProfile="tiny">
<title>Guitar Scales and Arpeggios</title>
<desc>Generated by MuseScore 2.1.0</desc>
<polyline class="StaffLines" fill="none" stroke="#000000" stroke-width="0.40" stroke-linejoin="bevel" points="28.08,62.856 567.36,62.856"/>
<polyline class="StaffLines" fill="none" stroke="#000000" stroke-width="0.40" stroke-linejoin="bevel" points="28.08,67.824 567.36,67.824"/>
<polyline class="StaffLines" fill="none" stroke="#000000" stroke-width="0.40" stroke-linejoin="bevel" points="28.08,72.792 567.36,72.792"/>
<polyline class="StaffLines" fill="none" stroke="#000000" stroke-width="0.40" stroke-linejoin="bevel" points="28.08,77.76 567.36,77.76"/>
<polyline class="StaffLines" fill="none" stroke="#000000" stroke-width="0.40" stroke-linejoin="bevel" points="28.08,82.728 567.36,82.728"/>
<polyline class="StaffLines" fill="none" stroke="#000000" stroke-width="0.40" stroke-linejoin="bevel" points="28.08,115.02 567.36,115.02"/>
<polyline class="StaffLines" fill="none" stroke="#000000" stroke-width="0.40" stroke-linejoin="bevel" points="28.08,122.472 567.36,122.472"/>
<polyline class="StaffLines" fill="none" stroke="#000000" stroke-width="0.40" stroke-linejoin="bevel" points="28.08,129.924 567.36,129.924"/>
<polyline class="StaffLines" fill="none" stroke="#000000" stroke-width="0.40" stroke-linejoin="bevel" points="28.08,137.376 567.36,137.376"/>
<polyline class="StaffLines" fill="none" stroke="#000000" stroke-width="0.40" stroke-linejoin="bevel" points="28.08,144.828 567.36,144.828"/>
<polyline class="StaffLines" fill="none" stroke="#000000" stroke-width="0.40" stroke-linejoin="bevel" points="28.08,152.28 567.36,152.28"/>
<polyline class="BarLine" fill="none" stroke="#000000" stroke-width="0.79" stroke-linejoin="bevel" points="28.4774,62.856 28.4774,152.28"/>
<polyline class="BarLine" fill="none" stroke="#000000" stroke-width="0.79" stroke-linejoin="bevel" points="562.491,115.02 562.491,152.28"/>
<polyline class="BarLine" fill="none" stroke="#000000" stroke-width="2.48" stroke-linejoin="bevel" points="566.118,115.02 566.118,152.28"/>
<polyline class="BarLine" fill="none" stroke="#000000" stroke-width="0.79" stroke-linejoin="bevel" points="562.491,62.856 562.491,82.728"/>
<polyline class="BarLine" fill="none" stroke="#000000" stroke-width="2.48" stroke-linejoin="bevel" points="566.118,62.856 566.118,82.728"/>
<polyline class="LedgerLine" fill="none" stroke="#000000" stroke-width="0.79" stroke-linecap="square" stroke-linejoin="bevel" points="510.002,87.696 519.882,87.696"/>
<polyline class="LedgerLine" fill="none" stroke="#000000" stroke-width="0.79" stroke-linecap="square" stroke-linejoin="bevel" points="478.667,87.696 488.188,87.696"/>
<polyline class="LedgerLine" fill="none" stroke="#000000" stroke-width="0.79" stroke-linecap="square" stroke-linejoin="bevel" points="100.497,87.696 110.019,87.696"/>
<polyline class="LedgerLine" fill="none" stroke="#000000" stroke-width="0.79" stroke-linecap="square" stroke-linejoin="bevel" points="68.9829,87.696 78.5044,87.696"/>
<polyline class="Stem" fill="none" stroke="#000000" stroke-width="0.65" stroke-linecap="round" stroke-linejoin="bevel" points="518.068,89.4169 518.068,72.792"/>
<polyline class="Stem" fill="none" stroke="#000000" stroke-width="0.65" stroke-linecap="round" stroke-linejoin="bevel" points="486.375,86.7629 486.375,70.308"/>
<polyline class="Stem" fill="none" stroke="#000000" stroke-width="0.65" stroke-linecap="round" stroke-linejoin="bevel" points="454.861,84.2789 454.861,67.824"/>
<polyline class="Stem" fill="none" stroke="#000000" stroke-width="0.65" stroke-linecap="round" stroke-linejoin="bevel" points="423.347,81.7949 423.347,65.34"/>
<polyline class="Stem" fill="none" stroke="#000000" stroke-width="0.65" stroke-linecap="round" stroke-linejoin="bevel" points="391.833,79.3109 391.833,62.856"/>
<polyline class="Stem" fill="none" stroke="#000000" stroke-width="0.65" stroke-linecap="round" stroke-linejoin="bevel" points="360.318,76.8269 360.318,60.993"/>
<polyline class="Stem" fill="none" stroke="#000000" stroke-width="0.65" stroke-linecap="round" stroke-linejoin="bevel" points="328.804,74.3429 328.804,59.13"/>
<polyline class="Stem" fill="none" stroke="#000000" stroke-width="0.65" stroke-linecap="round" stroke-linejoin="bevel" points="291.395,73.7251 291.395,88.317"/>
<polyline class="Stem" fill="none" stroke="#000000" stroke-width="0.65" stroke-linecap="round" stroke-linejoin="bevel" points="265.776,74.3429 265.776,59.13"/>
<polyline class="Stem" fill="none" stroke="#000000" stroke-width="0.65" stroke-linecap="round" stroke-linejoin="bevel" points="234.262,76.8269 234.262,60.993"/>
<polyline class="Stem" fill="none" stroke="#000000" stroke-width="0.65" stroke-linecap="round" stroke-linejoin="bevel" points="202.748,79.3109 202.748,62.856"/>
<polyline class="Stem" fill="none" stroke="#000000" stroke-width="0.65" stroke-linecap="round" stroke-linejoin="bevel" points="171.234,81.7949 171.234,65.34"/>
<polyline class="Stem" fill="none" stroke="#000000" stroke-width="0.65" stroke-linecap="round" stroke-linejoin="bevel" points="139.719,84.2789 139.719,67.824"/>
<polyline class="Stem" fill="none" stroke="#000000" stroke-width="0.65" stroke-linecap="round" stroke-linejoin="bevel" points="108.205,86.7629 108.205,70.308"/>
<polyline class="Stem" fill="none" stroke="#000000" stroke-width="0.65" stroke-linecap="round" stroke-linejoin="bevel" points="76.6911,89.2469 76.6911,72.792"/>
<path class="Note" fill="#ffffff" fill-rule="evenodd" d="M512.416,141.102 L518.378,141.102 L518.378,148.554 L512.416,148.554 L512.416,141.102 "/>
<path class="Note" transform="matrix(0.9936,0,0,0.9936,512.913,148.306)" d="M2.32813,-4.54688 L0.921875,-4.54688 L0.921875,-5.10938 C1.53646,-5.19271 1.93229,-5.30208 2.10938,-5.4375 C2.28646,-5.57292 2.4375,-5.85417 2.5625,-6.28125 C2.57292,-6.3125 2.58854,-6.34896 2.60938,-6.39063 L3.125,-6.39063 L3.125,0 L2.32813,0 L2.32813,-4.54688 "/>
<path class="Note" fill="#bf6a1f" transform="matrix(0.9936,0,0,0.9936,511.492,90.18)" d="M6.3125,-1.3125 C6.3125,-1.53125 6.22917,-1.71875 6.0625,-1.875 C5.88542,-2.04167 5.6875,-2.125 5.46875,-2.125 C5.08333,-2.125 4.29688,-1.73438 3.10938,-0.953125 C1.88021,-0.161458 1.13021,0.40625 0.859375,0.75 C0.713542,0.927083 0.640625,1.11458 0.640625,1.3125 C0.640625,1.53125 0.729167,1.71875 0.90625,1.875 C1.0625,2.04167 1.25521,2.125 1.48438,2.125 C1.85938,2.125 2.65625,1.73438 3.875,0.953125 C5.07292,0.171875 5.8125,-0.395833 6.09375,-0.75 C6.23958,-0.916667 6.3125,-1.10417 6.3125,-1.3125 M5.28125,-2.75 C6.39583,-2.75 6.95313,-2.27083 6.95313,-1.3125 C6.95313,-0.84375 6.81771,-0.296875 6.54688,0.328125 C6.27604,0.942708 5.91146,1.41146 5.45313,1.73438 C4.45313,2.41146 3.19792,2.75 1.6875,2.75 C0.5625,2.75 0,2.27083 0,1.3125 C0,0.885417 0.135417,0.34375 0.40625,-0.3125 C0.666667,-0.9375 1.03125,-1.41146 1.5,-1.73438 C2.51042,-2.41146 3.77083,-2.75 5.28125,-2.75"/>
<path class="Note" fill="#ffffff" fill-rule="evenodd" d="M480.902,141.102 L486.864,141.102 L486.864,148.554 L480.902,148.554 L480.902,141.102 "/>
<path class="Note" transform="matrix(0.9936,0,0,0.9936,481.399,148.306)" d="M2.4375,-5.64063 C1.75,-5.64063 1.35417,-5.32813 1.25,-4.70313 C1.22917,-4.59896 1.21875,-4.47917 1.21875,-4.34375 L0.421875,-4.34375 C0.442708,-5.59375 1.01563,-6.27083 2.14063,-6.375 C2.23438,-6.38542 2.32813,-6.39063 2.42188,-6.39063 C3.26563,-6.39063 3.84375,-6.10938 4.15625,-5.54688 C4.29167,-5.28646 4.35938,-4.98438 4.35938,-4.64063 C4.35938,-4.00521 4.0625,-3.57292 3.46875,-3.34375 C4.03125,-3.14583 4.375,-2.81771 4.5,-2.35938 C4.54167,-2.19271 4.5625,-2.00521 4.5625,-1.79688 C4.5625,-1.05729 4.27604,-0.505208 3.70313,-0.140625 C3.33854,0.0885417 2.90104,0.203125 2.39063,0.203125 C1.21354,0.203125 0.526042,-0.348958 0.328125,-1.45313 C0.317708,-1.57813 0.302083,-1.71354 0.28125,-1.85938 L1.07813,-1.85938 C1.13021,-1.08854 1.46875,-0.65625 2.09375,-0.5625 C2.19792,-0.541667 2.30729,-0.53125 2.42188,-0.53125 C3.04688,-0.53125 3.45313,-0.765625 3.64063,-1.23438 C3.71354,-1.40104 3.75,-1.58854 3.75,-1.79688 C3.73958,-2.54688 3.29688,-2.92708 2.42188,-2.9375 L2.09375,-2.92188 L1.98438,-2.92188 L1.98438,-3.67188 C2.66146,-3.68229 3.10417,-3.77604 3.3125,-3.95313 C3.47917,-4.09896 3.5625,-4.31771 3.5625,-4.60938 C3.5625,-5.09896 3.34896,-5.41667 2.92188,-5.5625 C2.77604,-5.61458 2.61458,-5.64063 2.4375,-5.64063"/>
<path class="Note" fill="#ed2929" transform="matrix(0.9936,0,0,0.9936,480.157,87.696)" d="M4.39063,-2.75 C5.01563,-2.75 5.54688,-2.58854 5.98438,-2.26563 C6.38021,-1.91146 6.57813,-1.46875 6.57813,-0.9375 C6.57813,-0.0416667 6.11979,0.796875 5.20313,1.57813 C4.26563,2.35938 3.26042,2.75 2.1875,2.75 C1.5625,2.75 1.03646,2.58854 0.609375,2.26563 C0.203125,1.91146 0,1.46875 0,0.9375 C0,0.0416667 0.46875,-0.796875 1.40625,-1.57813 C2.32292,-2.35938 3.31771,-2.75 4.39063,-2.75"/>
<path class="Note" fill="#ffffff" fill-rule="evenodd" d="M449.388,133.65 L455.35,133.65 L455.35,141.102 L449.388,141.102 L449.388,133.65 "/>
<path class="Note" transform="matrix(0.9936,0,0,0.9936,449.885,140.854)" d="M0.390625,-3.09375 C0.390625,-5 0.927083,-6.07813 2,-6.32813 C2.14583,-6.36979 2.30208,-6.39063 2.46875,-6.39063 C3.78125,-6.39063 4.47917,-5.40104 4.5625,-3.42188 C4.5625,-3.28646 4.5625,-3.15625 4.5625,-3.03125 C4.5625,-1.40625 4.15104,-0.385417 3.32813,0.03125 C3.06771,0.145833 2.78125,0.203125 2.46875,0.203125 C1.41667,0.203125 0.760417,-0.442708 0.5,-1.73438 C0.427083,-2.14063 0.390625,-2.59375 0.390625,-3.09375 M2.46875,-5.64063 C1.625,-5.63021 1.20313,-4.77083 1.20313,-3.0625 C1.20313,-1.32292 1.61979,-0.453125 2.45313,-0.453125 C3.16146,-0.453125 3.57813,-1.02604 3.70313,-2.17188 C3.73438,-2.44271 3.75,-2.75 3.75,-3.09375 C3.75,-4.79167 3.32292,-5.64063 2.46875,-5.64063"/>
<path class="Note" fill="#78c7c7" transform="matrix(0.9936,0,0,0.9936,448.643,85.212)" d="M4.39063,-2.75 C5.01563,-2.75 5.54688,-2.58854 5.98438,-2.26563 C6.38021,-1.91146 6.57813,-1.46875 6.57813,-0.9375 C6.57813,-0.0416667 6.11979,0.796875 5.20313,1.57813 C4.26563,2.35938 3.26042,2.75 2.1875,2.75 C1.5625,2.75 1.03646,2.58854 0.609375,2.26563 C0.203125,1.91146 0,1.46875 0,0.9375 C0,0.0416667 0.46875,-0.796875 1.40625,-1.57813 C2.32292,-2.35938 3.31771,-2.75 4.39063,-2.75"/>
<path class="Note" fill="#ffffff" fill-rule="evenodd" d="M417.874,133.65 L423.836,133.65 L423.836,141.102 L417.874,141.102 L417.874,133.65 "/>
<path class="Note" transform="matrix(0.9936,0,0,0.9936,418.371,140.854)" d="M2.32813,-4.54688 L0.921875,-4.54688 L0.921875,-5.10938 C1.53646,-5.19271 1.93229,-5.30208 2.10938,-5.4375 C2.28646,-5.57292 2.4375,-5.85417 2.5625,-6.28125 C2.57292,-6.3125 2.58854,-6.34896 2.60938,-6.39063 L3.125,-6.39063 L3.125,0 L2.32813,0 L2.32813,-4.54688 "/>
<path class="Note" fill="#00008b" transform="matrix(0.9936,0,0,0.9936,417.129,82.728)" d="M4.39063,-2.75 C5.01563,-2.75 5.54688,-2.58854 5.98438,-2.26563 C6.38021,-1.91146 6.57813,-1.46875 6.57813,-0.9375 C6.57813,-0.0416667 6.11979,0.796875 5.20313,1.57813 C4.26563,2.35938 3.26042,2.75 2.1875,2.75 C1.5625,2.75 1.03646,2.58854 0.609375,2.26563 C0.203125,1.91146 0,1.46875 0,0.9375 C0,0.0416667 0.46875,-0.796875 1.40625,-1.57813 C2.32292,-2.35938 3.31771,-2.75 4.39063,-2.75"/>
<path class="Note" fill="#ffffff" fill-rule="evenodd" d="M386.36,133.65 L392.322,133.65 L392.322,141.102 L386.36,141.102 L386.36,133.65 "/>
<path class="Note" transform="matrix(0.9936,0,0,0.9936,386.857,140.854)" d="M2.4375,-5.64063 C1.75,-5.64063 1.35417,-5.32813 1.25,-4.70313 C1.22917,-4.59896 1.21875,-4.47917 1.21875,-4.34375 L0.421875,-4.34375 C0.442708,-5.59375 1.01563,-6.27083 2.14063,-6.375 C2.23438,-6.38542 2.32813,-6.39063 2.42188,-6.39063 C3.26563,-6.39063 3.84375,-6.10938 4.15625,-5.54688 C4.29167,-5.28646 4.35938,-4.98438 4.35938,-4.64063 C4.35938,-4.00521 4.0625,-3.57292 3.46875,-3.34375 C4.03125,-3.14583 4.375,-2.81771 4.5,-2.35938 C4.54167,-2.19271 4.5625,-2.00521 4.5625,-1.79688 C4.5625,-1.05729 4.27604,-0.505208 3.70313,-0.140625 C3.33854,0.0885417 2.90104,0.203125 2.39063,0.203125 C1.21354,0.203125 0.526042,-0.348958 0.328125,-1.45313 C0.317708,-1.57813 0.302083,-1.71354 0.28125,-1.85938 L1.07813,-1.85938 C1.13021,-1.08854 1.46875,-0.65625 2.09375,-0.5625 C2.19792,-0.541667 2.30729,-0.53125 2.42188,-0.53125 C3.04688,-0.53125 3.45313,-0.765625 3.64063,-1.23438 C3.71354,-1.40104 3.75,-1.58854 3.75,-1.79688 C3.73958,-2.54688 3.29688,-2.92708 2.42188,-2.9375 L2.09375,-2.92188 L1.98438,-2.92188 L1.98438,-3.67188 C2.66146,-3.68229 3.10417,-3.77604 3.3125,-3.95313 C3.47917,-4.09896 3.5625,-4.31771 3.5625,-4.60938 C3.5625,-5.09896 3.34896,-5.41667 2.92188,-5.5625 C2.77604,-5.61458 2.61458,-5.64063 2.4375,-5.64063"/>
<path class="Note" fill="#ebeb19" transform="matrix(0.9936,0,0,0.9936,385.615,80.244)" d="M4.39063,-2.75 C5.01563,-2.75 5.54688,-2.58854 5.98438,-2.26563 C6.38021,-1.91146 6.57813,-1.46875 6.57813,-0.9375 C6.57813,-0.0416667 6.11979,0.796875 5.20313,1.57813 C4.26563,2.35938 3.26042,2.75 2.1875,2.75 C1.5625,2.75 1.03646,2.58854 0.609375,2.26563 C0.203125,1.91146 0,1.46875 0,0.9375 C0,0.0416667 0.46875,-0.796875 1.40625,-1.57813 C2.32292,-2.35938 3.31771,-2.75 4.39063,-2.75"/>
<path class="Note" fill="#ffffff" fill-rule="evenodd" d="M354.846,126.198 L360.807,126.198 L360.807,133.65 L354.846,133.65 L354.846,126.198 "/>
<path class="Note" transform="matrix(0.9936,0,0,0.9936,355.343,133.402)" d="M0.390625,-3.09375 C0.390625,-5 0.927083,-6.07813 2,-6.32813 C2.14583,-6.36979 2.30208,-6.39063 2.46875,-6.39063 C3.78125,-6.39063 4.47917,-5.40104 4.5625,-3.42188 C4.5625,-3.28646 4.5625,-3.15625 4.5625,-3.03125 C4.5625,-1.40625 4.15104,-0.385417 3.32813,0.03125 C3.06771,0.145833 2.78125,0.203125 2.46875,0.203125 C1.41667,0.203125 0.760417,-0.442708 0.5,-1.73438 C0.427083,-2.14063 0.390625,-2.59375 0.390625,-3.09375 M2.46875,-5.64063 C1.625,-5.63021 1.20313,-4.77083 1.20313,-3.0625 C1.20313,-1.32292 1.61979,-0.453125 2.45313,-0.453125 C3.16146,-0.453125 3.57813,-1.02604 3.70313,-2.17188 C3.73438,-2.44271 3.75,-2.75 3.75,-3.09375 C3.75,-4.79167 3.32292,-5.64063 2.46875,-5.64063"/>
<path class="Note" fill="#99cc33" transform="matrix(0.9936,0,0,0.9936,354.101,77.76)" d="M4.39063,-2.75 C5.01563,-2.75 5.54688,-2.58854 5.98438,-2.26563 C6.38021,-1.91146 6.57813,-1.46875 6.57813,-0.9375 C6.57813,-0.0416667 6.11979,0.796875 5.20313,1.57813 C4.26563,2.35938 3.26042,2.75 2.1875,2.75 C1.5625,2.75 1.03646,2.58854 0.609375,2.26563 C0.203125,1.91146 0,1.46875 0,0.9375 C0,0.0416667 0.46875,-0.796875 1.40625,-1.57813 C2.32292,-2.35938 3.31771,-2.75 4.39063,-2.75"/>
<path class="Note" fill="#ffffff" fill-rule="evenodd" d="M323.332,126.198 L329.293,126.198 L329.293,133.65 L323.332,133.65 L323.332,126.198 "/>
<path class="Note" transform="matrix(0.9936,0,0,0.9936,323.828,133.402)" d="M0.453125,-4.17188 C0.494792,-5.64063 1.19792,-6.38021 2.5625,-6.39063 C3.28125,-6.39063 3.83333,-6.14583 4.21875,-5.65625 C4.46875,-5.32292 4.59375,-4.93229 4.59375,-4.48438 C4.59375,-3.68229 4.14583,-3.03125 3.25,-2.53125 L2.34375,-2.04688 C1.79167,-1.75521 1.44271,-1.4375 1.29688,-1.09375 C1.24479,-0.989583 1.21354,-0.869792 1.20313,-0.734375 L4.5625,-0.734375 L4.5625,0 L0.3125,0 C0.354167,-0.760417 0.520833,-1.33854 0.8125,-1.73438 C1.07292,-2.05729 1.5,-2.38542 2.09375,-2.71875 L2.92188,-3.1875 C3.49479,-3.52083 3.78646,-3.94271 3.79688,-4.45313 C3.79688,-4.88021 3.61458,-5.21354 3.25,-5.45313 C3.04167,-5.57813 2.80208,-5.64063 2.53125,-5.64063 C1.73958,-5.64063 1.3125,-5.16667 1.25,-4.21875 C1.25,-4.19792 1.25,-4.18229 1.25,-4.17188 L0.453125,-4.17188 "/>
<path class="Note" fill="#cc00ff" transform="matrix(0.9936,0,0,0.9936,322.586,75.276)" d="M4.39063,-2.75 C5.01563,-2.75 5.54688,-2.58854 5.98438,-2.26563 C6.38021,-1.91146 6.57813,-1.46875 6.57813,-0.9375 C6.57813,-0.0416667 6.11979,0.796875 5.20313,1.57813 C4.26563,2.35938 3.26042,2.75 2.1875,2.75 C1.5625,2.75 1.03646,2.58854 0.609375,2.26563 C0.203125,1.91146 0,1.46875 0,0.9375 C0,0.0416667 0.46875,-0.796875 1.40625,-1.57813 C2.32292,-2.35938 3.31771,-2.75 4.39063,-2.75"/>
<path class="Note" fill="#ffffff" fill-rule="evenodd" d="M291.818,126.198 L297.779,126.198 L297.779,133.65 L291.818,133.65 L291.818,126.198 "/>
<path class="Note" transform="matrix(0.9936,0,0,0.9936,292.314,133.402)" d="M2.4375,-5.64063 C1.75,-5.64063 1.35417,-5.32813 1.25,-4.70313 C1.22917,-4.59896 1.21875,-4.47917 1.21875,-4.34375 L0.421875,-4.34375 C0.442708,-5.59375 1.01563,-6.27083 2.14063,-6.375 C2.23438,-6.38542 2.32813,-6.39063 2.42188,-6.39063 C3.26563,-6.39063 3.84375,-6.10938 4.15625,-5.54688 C4.29167,-5.28646 4.35938,-4.98438 4.35938,-4.64063 C4.35938,-4.00521 4.0625,-3.57292 3.46875,-3.34375 C4.03125,-3.14583 4.375,-2.81771 4.5,-2.35938 C4.54167,-2.19271 4.5625,-2.00521 4.5625,-1.79688 C4.5625,-1.05729 4.27604,-0.505208 3.70313,-0.140625 C3.33854,0.0885417 2.90104,0.203125 2.39063,0.203125 C1.21354,0.203125 0.526042,-0.348958 0.328125,-1.45313 C0.317708,-1.57813 0.302083,-1.71354 0.28125,-1.85938 L1.07813,-1.85938 C1.13021,-1.08854 1.46875,-0.65625 2.09375,-0.5625 C2.19792,-0.541667 2.30729,-0.53125 2.42188,-0.53125 C3.04688,-0.53125 3.45313,-0.765625 3.64063,-1.23438 C3.71354,-1.40104 3.75,-1.58854 3.75,-1.79688 C3.73958,-2.54688 3.29688,-2.92708 2.42188,-2.9375 L2.09375,-2.92188 L1.98438,-2.92188 L1.98438,-3.67188 C2.66146,-3.68229 3.10417,-3.77604 3.3125,-3.95313 C3.47917,-4.09896 3.5625,-4.31771 3.5625,-4.60938 C3.5625,-5.09896 3.34896,-5.41667 2.92188,-5.5625 C2.77604,-5.61458 2.61458,-5.64063 2.4375,-5.64063"/>
<path class="Note" fill="#bf6a1f" transform="matrix(0.9936,0,0,0.9936,291.072,72.792)" d="M4.39063,-2.75 C5.01563,-2.75 5.54688,-2.58854 5.98438,-2.26563 C6.38021,-1.91146 6.57813,-1.46875 6.57813,-0.9375 C6.57813,-0.0416667 6.11979,0.796875 5.20313,1.57813 C4.26563,2.35938 3.26042,2.75 2.1875,2.75 C1.5625,2.75 1.03646,2.58854 0.609375,2.26563 C0.203125,1.91146 0,1.46875 0,0.9375 C0,0.0416667 0.46875,-0.796875 1.40625,-1.57813 C2.32292,-2.35938 3.31771,-2.75 4.39063,-2.75"/>
<path class="Note" fill="#ffffff" fill-rule="evenodd" d="M260.303,126.198 L266.265,126.198 L266.265,133.65 L260.303,133.65 L260.303,126.198 "/>
<path class="Note" transform="matrix(0.9936,0,0,0.9936,260.8,133.402)" d="M0.453125,-4.17188 C0.494792,-5.64063 1.19792,-6.38021 2.5625,-6.39063 C3.28125,-6.39063 3.83333,-6.14583 4.21875,-5.65625 C4.46875,-5.32292 4.59375,-4.93229 4.59375,-4.48438 C4.59375,-3.68229 4.14583,-3.03125 3.25,-2.53125 L2.34375,-2.04688 C1.79167,-1.75521 1.44271,-1.4375 1.29688,-1.09375 C1.24479,-0.989583 1.21354,-0.869792 1.20313,-0.734375 L4.5625,-0.734375 L4.5625,0 L0.3125,0 C0.354167,-0.760417 0.520833,-1.33854 0.8125,-1.73438 C1.07292,-2.05729 1.5,-2.38542 2.09375,-2.71875 L2.92188,-3.1875 C3.49479,-3.52083 3.78646,-3.94271 3.79688,-4.45313 C3.79688,-4.88021 3.61458,-5.21354 3.25,-5.45313 C3.04167,-5.57813 2.80208,-5.64063 2.53125,-5.64063 C1.73958,-5.64063 1.3125,-5.16667 1.25,-4.21875 C1.25,-4.19792 1.25,-4.18229 1.25,-4.17188 L0.453125,-4.17188 "/>
<path class="Note" fill="#cc00ff" transform="matrix(0.9936,0,0,0.9936,259.558,75.276)" d="M4.39063,-2.75 C5.01563,-2.75 5.54688,-2.58854 5.98438,-2.26563 C6.38021,-1.91146 6.57813,-1.46875 6.57813,-0.9375 C6.57813,-0.0416667 6.11979,0.796875 5.20313,1.57813 C4.26563,2.35938 3.26042,2.75 2.1875,2.75 C1.5625,2.75 1.03646,2.58854 0.609375,2.26563 C0.203125,1.91146 0,1.46875 0,0.9375 C0,0.0416667 0.46875,-0.796875 1.40625,-1.57813 C2.32292,-2.35938 3.31771,-2.75 4.39063,-2.75"/>
<path class="Note" fill="#ffffff" fill-rule="evenodd" d="M228.789,126.198 L234.751,126.198 L234.751,133.65 L228.789,133.65 L228.789,126.198 "/>
<path class="Note" transform="matrix(0.9936,0,0,0.9936,229.286,133.402)" d="M0.390625,-3.09375 C0.390625,-5 0.927083,-6.07813 2,-6.32813 C2.14583,-6.36979 2.30208,-6.39063 2.46875,-6.39063 C3.78125,-6.39063 4.47917,-5.40104 4.5625,-3.42188 C4.5625,-3.28646 4.5625,-3.15625 4.5625,-3.03125 C4.5625,-1.40625 4.15104,-0.385417 3.32813,0.03125 C3.06771,0.145833 2.78125,0.203125 2.46875,0.203125 C1.41667,0.203125 0.760417,-0.442708 0.5,-1.73438 C0.427083,-2.14063 0.390625,-2.59375 0.390625,-3.09375 M2.46875,-5.64063 C1.625,-5.63021 1.20313,-4.77083 1.20313,-3.0625 C1.20313,-1.32292 1.61979,-0.453125 2.45313,-0.453125 C3.16146,-0.453125 3.57813,-1.02604 3.70313,-2.17188 C3.73438,-2.44271 3.75,-2.75 3.75,-3.09375 C3.75,-4.79167 3.32292,-5.64063 2.46875,-5.64063"/>
<path class="Note" fill="#99cc33" transform="matrix(0.9936,0,0,0.9936,228.044,77.76)" d="M4.39063,-2.75 C5.01563,-2.75 5.54688,-2.58854 5.98438,-2.26563 C6.38021,-1.91146 6.57813,-1.46875 6.57813,-0.9375 C6.57813,-0.0416667 6.11979,0.796875 5.20313,1.57813 C4.26563,2.35938 3.26042,2.75 2.1875,2.75 C1.5625,2.75 1.03646,2.58854 0.609375,2.26563 C0.203125,1.91146 0,1.46875 0,0.9375 C0,0.0416667 0.46875,-0.796875 1.40625,-1.57813 C2.32292,-2.35938 3.31771,-2.75 4.39063,-2.75"/>
<path class="Note" fill="#ffffff" fill-rule="evenodd" d="M197.275,133.65 L203.237,133.65 L203.237,141.102 L197.275,141.102 L197.275,133.65 "/>
<path class="Note" transform="matrix(0.9936,0,0,0.9936,197.772,140.854)" d="M2.4375,-5.64063 C1.75,-5.64063 1.35417,-5.32813 1.25,-4.70313 C1.22917,-4.59896 1.21875,-4.47917 1.21875,-4.34375 L0.421875,-4.34375 C0.442708,-5.59375 1.01563,-6.27083 2.14063,-6.375 C2.23438,-6.38542 2.32813,-6.39063 2.42188,-6.39063 C3.26563,-6.39063 3.84375,-6.10938 4.15625,-5.54688 C4.29167,-5.28646 4.35938,-4.98438 4.35938,-4.64063 C4.35938,-4.00521 4.0625,-3.57292 3.46875,-3.34375 C4.03125,-3.14583 4.375,-2.81771 4.5,-2.35938 C4.54167,-2.19271 4.5625,-2.00521 4.5625,-1.79688 C4.5625,-1.05729 4.27604,-0.505208 3.70313,-0.140625 C3.33854,0.0885417 2.90104,0.203125 2.39063,0.203125 C1.21354,0.203125 0.526042,-0.348958 0.328125,-1.45313 C0.317708,-1.57813 0.302083,-1.71354 0.28125,-1.85938 L1.07813,-1.85938 C1.13021,-1.08854 1.46875,-0.65625 2.09375,-0.5625 C2.19792,-0.541667 2.30729,-0.53125 2.42188,-0.53125 C3.04688,-0.53125 3.45313,-0.765625 3.64063,-1.23438 C3.71354,-1.40104 3.75,-1.58854 3.75,-1.79688 C3.73958,-2.54688 3.29688,-2.92708 2.42188,-2.9375 L2.09375,-2.92188 L1.98438,-2.92188 L1.98438,-3.67188 C2.66146,-3.68229 3.10417,-3.77604 3.3125,-3.95313 C3.47917,-4.09896 3.5625,-4.31771 3.5625,-4.60938 C3.5625,-5.09896 3.34896,-5.41667 2.92188,-5.5625 C2.77604,-5.61458 2.61458,-5.64063 2.4375,-5.64063"/>
<path class="Note" fill="#ebeb19" transform="matrix(0.9936,0,0,0.9936,196.53,80.244)" d="M4.39063,-2.75 C5.01563,-2.75 5.54688,-2.58854 5.98438,-2.26563 C6.38021,-1.91146 6.57813,-1.46875 6.57813,-0.9375 C6.57813,-0.0416667 6.11979,0.796875 5.20313,1.57813 C4.26563,2.35938 3.26042,2.75 2.1875,2.75 C1.5625,2.75 1.03646,2.58854 0.609375,2.26563 C0.203125,1.91146 0,1.46875 0,0.9375 C0,0.0416667 0.46875,-0.796875 1.40625,-1.57813 C2.32292,-2.35938 3.31771,-2.75 4.39063,-2.75"/>
<path class="Note" fill="#ffffff" fill-rule="evenodd" d="M165.761,133.65 L171.723,133.65 L171.723,141.102 L165.761,141.102 L165.761,133.65 "/>
<path class="Note" transform="matrix(0.9936,0,0,0.9936,166.258,140.854)" d="M2.32813,-4.54688 L0.921875,-4.54688 L0.921875,-5.10938 C1.53646,-5.19271 1.93229,-5.30208 2.10938,-5.4375 C2.28646,-5.57292 2.4375,-5.85417 2.5625,-6.28125 C2.57292,-6.3125 2.58854,-6.34896 2.60938,-6.39063 L3.125,-6.39063 L3.125,0 L2.32813,0 L2.32813,-4.54688 "/>
<path class="Note" fill="#00008b" transform="matrix(0.9936,0,0,0.9936,165.016,82.728)" d="M4.39063,-2.75 C5.01563,-2.75 5.54688,-2.58854 5.98438,-2.26563 C6.38021,-1.91146 6.57813,-1.46875 6.57813,-0.9375 C6.57813,-0.0416667 6.11979,0.796875 5.20313,1.57813 C4.26563,2.35938 3.26042,2.75 2.1875,2.75 C1.5625,2.75 1.03646,2.58854 0.609375,2.26563 C0.203125,1.91146 0,1.46875 0,0.9375 C0,0.0416667 0.46875,-0.796875 1.40625,-1.57813 C2.32292,-2.35938 3.31771,-2.75 4.39063,-2.75"/>
<path class="Note" fill="#ffffff" fill-rule="evenodd" d="M134.247,133.65 L140.208,133.65 L140.208,141.102 L134.247,141.102 L134.247,133.65 "/>
<path class="Note" transform="matrix(0.9936,0,0,0.9936,134.744,140.854)" d="M0.390625,-3.09375 C0.390625,-5 0.927083,-6.07813 2,-6.32813 C2.14583,-6.36979 2.30208,-6.39063 2.46875,-6.39063 C3.78125,-6.39063 4.47917,-5.40104 4.5625,-3.42188 C4.5625,-3.28646 4.5625,-3.15625 4.5625,-3.03125 C4.5625,-1.40625 4.15104,-0.385417 3.32813,0.03125 C3.06771,0.145833 2.78125,0.203125 2.46875,0.203125 C1.41667,0.203125 0.760417,-0.442708 0.5,-1.73438 C0.427083,-2.14063 0.390625,-2.59375 0.390625,-3.09375 M2.46875,-5.64063 C1.625,-5.63021 1.20313,-4.77083 1.20313,-3.0625 C1.20313,-1.32292 1.61979,-0.453125 2.45313,-0.453125 C3.16146,-0.453125 3.57813,-1.02604 3.70313,-2.17188 C3.73438,-2.44271 3.75,-2.75 3.75,-3.09375 C3.75,-4.79167 3.32292,-5.64063 2.46875,-5.64063"/>
<path class="Note" fill="#78c7c7" transform="matrix(0.9936,0,0,0.9936,133.502,85.212)" d="M4.39063,-2.75 C5.01563,-2.75 5.54688,-2.58854 5.98438,-2.26563 C6.38021,-1.91146 6.57813,-1.46875 6.57813,-0.9375 C6.57813,-0.0416667 6.11979,0.796875 5.20313,1.57813 C4.26563,2.35938 3.26042,2.75 2.1875,2.75 C1.5625,2.75 1.03646,2.58854 0.609375,2.26563 C0.203125,1.91146 0,1.46875 0,0.9375 C0,0.0416667 0.46875,-0.796875 1.40625,-1.57813 C2.32292,-2.35938 3.31771,-2.75 4.39063,-2.75"/>
<path class="Note" fill="#ffffff" fill-rule="evenodd" d="M102.733,141.102 L108.694,141.102 L108.694,148.554 L102.733,148.554 L102.733,141.102 "/>
<path class="Note" transform="matrix(0.9936,0,0,0.9936,103.229,148.306)" d="M2.4375,-5.64063 C1.75,-5.64063 1.35417,-5.32813 1.25,-4.70313 C1.22917,-4.59896 1.21875,-4.47917 1.21875,-4.34375 L0.421875,-4.34375 C0.442708,-5.59375 1.01563,-6.27083 2.14063,-6.375 C2.23438,-6.38542 2.32813,-6.39063 2.42188,-6.39063 C3.26563,-6.39063 3.84375,-6.10938 4.15625,-5.54688 C4.29167,-5.28646 4.35938,-4.98438 4.35938,-4.64063 C4.35938,-4.00521 4.0625,-3.57292 3.46875,-3.34375 C4.03125,-3.14583 4.375,-2.81771 4.5,-2.35938 C4.54167,-2.19271 4.5625,-2.00521 4.5625,-1.79688 C4.5625,-1.05729 4.27604,-0.505208 3.70313,-0.140625 C3.33854,0.0885417 2.90104,0.203125 2.39063,0.203125 C1.21354,0.203125 0.526042,-0.348958 0.328125,-1.45313 C0.317708,-1.57813 0.302083,-1.71354 0.28125,-1.85938 L1.07813,-1.85938 C1.13021,-1.08854 1.46875,-0.65625 2.09375,-0.5625 C2.19792,-0.541667 2.30729,-0.53125 2.42188,-0.53125 C3.04688,-0.53125 3.45313,-0.765625 3.64063,-1.23438 C3.71354,-1.40104 3.75,-1.58854 3.75,-1.79688 C3.73958,-2.54688 3.29688,-2.92708 2.42188,-2.9375 L2.09375,-2.92188 L1.98438,-2.92188 L1.98438,-3.67188 C2.66146,-3.68229 3.10417,-3.77604 3.3125,-3.95313 C3.47917,-4.09896 3.5625,-4.31771 3.5625,-4.60938 C3.5625,-5.09896 3.34896,-5.41667 2.92188,-5.5625 C2.77604,-5.61458 2.61458,-5.64063 2.4375,-5.64063"/>
<path class="Note" fill="#ed2929" transform="matrix(0.9936,0,0,0.9936,101.987,87.696)" d="M4.39063,-2.75 C5.01563,-2.75 5.54688,-2.58854 5.98438,-2.26563 C6.38021,-1.91146 6.57813,-1.46875 6.57813,-0.9375 C6.57813,-0.0416667 6.11979,0.796875 5.20313,1.57813 C4.26563,2.35938 3.26042,2.75 2.1875,2.75 C1.5625,2.75 1.03646,2.58854 0.609375,2.26563 C0.203125,1.91146 0,1.46875 0,0.9375 C0,0.0416667 0.46875,-0.796875 1.40625,-1.57813 C2.32292,-2.35938 3.31771,-2.75 4.39063,-2.75"/>
<path class="Note" fill="#ffffff" fill-rule="evenodd" d="M71.2185,141.102 L77.1801,141.102 L77.1801,148.554 L71.2185,148.554 L71.2185,141.102 "/>
<path class="Note" transform="matrix(0.9936,0,0,0.9936,71.7153,148.306)" d="M2.32813,-4.54688 L0.921875,-4.54688 L0.921875,-5.10938 C1.53646,-5.19271 1.93229,-5.30208 2.10938,-5.4375 C2.28646,-5.57292 2.4375,-5.85417 2.5625,-6.28125 C2.57292,-6.3125 2.58854,-6.34896 2.60938,-6.39063 L3.125,-6.39063 L3.125,0 L2.32813,0 L2.32813,-4.54688 "/>
<path class="Note" fill="#bf6a1f" transform="matrix(0.9936,0,0,0.9936,70.4733,90.18)" d="M4.39063,-2.75 C5.01563,-2.75 5.54688,-2.58854 5.98438,-2.26563 C6.38021,-1.91146 6.57813,-1.46875 6.57813,-0.9375 C6.57813,-0.0416667 6.11979,0.796875 5.20313,1.57813 C4.26563,2.35938 3.26042,2.75 2.1875,2.75 C1.5625,2.75 1.03646,2.58854 0.609375,2.26563 C0.203125,1.91146 0,1.46875 0,0.9375 C0,0.0416667 0.46875,-0.796875 1.40625,-1.57813 C2.32292,-2.35938 3.31771,-2.75 4.39063,-2.75"/>
<path class="Clef" transform="matrix(0.9936,0,0,0.9936,32.0544,133.65)" d="M5.32813,8.5 C5.32813,8.86458 5.04167,9.04688 4.46875,9.04688 C4.02083,9.04688 3.625,8.91146 3.28125,8.64063 C2.95833,8.34896 2.79688,7.98438 2.79688,7.54688 C2.79688,6.76563 3.27083,6.14063 4.21875,5.67188 C5.14583,5.18229 6.23438,4.9375 7.48438,4.9375 C7.96354,4.9375 8.47917,4.97396 9.03125,5.04688 C9.42708,5.09896 9.875,5.20313 10.375,5.35938 C10.8125,5.49479 11.1563,5.70573 11.4063,5.99219 C11.6563,6.27865 11.7813,6.61458 11.7813,7 C11.7813,7.89583 11.3177,8.63021 10.3906,9.20313 C11.7448,9.45313 12.4271,10.0573 12.4375,11.0156 C12.4375,11.8281 12.0729,12.5599 11.3438,13.2109 C10.6146,13.862 9.79167,14.1875 8.875,14.1875 C8.47917,14.1875 8.07813,14.0938 7.67188,13.9063 C7.29688,13.7292 7.03125,13.5625 6.875,13.4063 C6.71875,13.2188 6.64063,13.0781 6.64063,12.9844 C6.64063,12.8594 6.70833,12.75 6.84375,12.6563 C6.95833,12.5417 7.07813,12.4844 7.20313,12.4844 C7.25521,12.4844 7.36719,12.5677 7.53906,12.7344 C7.71094,12.901 7.95833,12.9844 8.28125,12.9844 C8.72917,12.9844 9.16146,12.7969 9.57813,12.4219 C9.97396,12.0573 10.1719,11.6198 10.1719,11.1094 C10.1719,10.6719 9.98438,10.3542 9.60938,10.1563 C9.24479,9.95833 8.76563,9.85938 8.17188,9.85938 C8.06771,9.85938 8.01563,9.75 8.01563,9.53125 C8.01563,9.21875 8.13021,9.0625 8.35938,9.0625 C8.72396,9.0625 9.05208,8.90625 9.34375,8.59375 C9.61458,8.26042 9.75,7.90104 9.75,7.51563 C9.75,7.40104 9.71875,7.22917 9.65625,7 C9.60417,6.84375 9.44792,6.65104 9.1875,6.42188 C8.9375,6.21354 8.58854,6.07292 8.14063,6 C8.02604,6.63542 7.88021,7.44792 7.70313,8.4375 C7.52604,9.42708 7.40625,10.0781 7.34375,10.3906 C7.125,11.5156 6.72396,12.4583 6.14063,13.2188 C5.52604,14.0313 4.86458,14.4375 4.15625,14.4375 C3.9375,14.4375 3.71354,14.3854 3.48438,14.2813 C3.29688,14.1979 3.0625,14.0365 2.78125,13.7969 C2.52083,13.5885 2.34375,13.4479 2.25,13.375 C2.19792,13.3438 2.17188,13.2865 2.17188,13.2031 C2.17188,13.0781 2.21875,12.9635 2.3125,12.8594 C2.41667,12.7344 2.52604,12.6719 2.64063,12.6719 C2.71354,12.6719 2.89323,12.7969 3.17969,13.0469 C3.46615,13.2969 3.76563,13.4219 4.07813,13.4219 C4.68229,13.4219 5.13542,13.0365 5.4375,12.2656 C5.71875,11.526 5.85938,10.6094 5.85938,9.51563 L5.85938,9.35938 C5.85938,8.63021 5.97917,7.54167 6.21875,6.09375 C5.80208,6.22917 5.46875,6.42708 5.21875,6.6875 C4.95833,6.94792 4.82813,7.21875 4.82813,7.5 C4.82813,7.71875 4.91146,7.90625 5.07813,8.0625 C5.24479,8.21875 5.32813,8.36458 5.32813,8.5 M1.40625,2.39063 C1.46875,2.39063 1.625,2.45313 1.875,2.57813 C2.13542,2.71354 2.35938,2.78125 2.54688,2.78125 C3.03646,2.78125 3.64063,2.42188 4.35938,1.70313 C6.43229,-0.411458 7.85938,-2.65104 8.64063,-5.01563 C8.79688,-5.51563 9.17708,-5.76563 9.78125,-5.76563 C10.0938,-5.76563 10.3646,-5.69792 10.5938,-5.5625 C10.8125,-5.42708 10.9219,-5.28646 10.9219,-5.14063 L10.5625,2.17188 C10.5625,2.55729 10.7031,2.75 10.9844,2.75 C11.1198,2.75 11.3281,2.6875 11.6094,2.5625 C11.8698,2.42708 12.026,2.35938 12.0781,2.35938 C12.1823,2.35938 12.2448,2.47396 12.2656,2.70313 C12.2656,2.91146 12.1823,3.04167 12.0156,3.09375 C11.8802,3.125 11.6198,3.24479 11.2344,3.45313 C10.8281,3.66146 10.5104,3.76563 10.2813,3.76563 C9.78125,3.76563 9.42708,3.375 9.21875,2.59375 C8.89583,1.375 8.6875,0.104167 8.59375,-1.21875 C8.07292,-0.552083 7.49479,0.119792 6.85938,0.796875 C7.08854,1.24479 7.51563,1.46875 8.14063,1.46875 C8.23438,1.46875 8.30729,1.46354 8.35938,1.45313 L8.375,1.45313 C8.47917,1.45313 8.53125,1.54688 8.53125,1.73438 C8.53125,1.98438 8.44792,2.13542 8.28125,2.1875 C8.01042,2.28125 7.72396,2.32813 7.42188,2.32813 C6.77604,2.32813 6.30729,2.10417 6.01563,1.65625 L5.23438,2.35938 C4.14063,3.29688 3.25,3.76563 2.5625,3.76563 C2.375,3.76563 2.1875,3.73438 2,3.67188 C1.84375,3.60938 1.66146,3.51042 1.45313,3.375 C1.36979,3.34375 1.27865,3.29688 1.17969,3.23438 C1.08073,3.17188 1.02083,3.13542 1,3.125 C0.9375,3.10417 0.90625,3.04688 0.90625,2.95313 C0.90625,2.84896 0.958333,2.72396 1.0625,2.57813 C1.14583,2.45313 1.26042,2.39063 1.40625,2.39063 M5.76563,-10.7969 C5.76563,-10.474 5.48438,-10.3125 4.92188,-10.3125 C4.43229,-10.3125 4.00521,-10.474 3.64063,-10.7969 C3.28646,-11.1302 3.10938,-11.5313 3.10938,-12 C3.10938,-12.4479 3.25,-12.8385 3.53125,-13.1719 C3.83333,-13.5052 4.21875,-13.7552 4.6875,-13.9219 C5.11458,-14.0781 5.59896,-14.2031 6.14063,-14.2969 C6.69271,-14.3594 7.22396,-14.3906 7.73438,-14.3906 C8.03646,-14.3906 8.59896,-14.2552 9.42188,-13.9844 C10.2552,-13.7135 10.8333,-13.5781 11.1563,-13.5781 C11.5625,-13.5781 11.9479,-13.651 12.3125,-13.7969 C12.6042,-13.9219 12.8906,-14.0677 13.1719,-14.2344 C13.3906,-14.3802 13.5104,-14.4531 13.5313,-14.4531 C13.6563,-14.4531 13.7604,-14.4167 13.8438,-14.3438 C13.9479,-14.2396 14,-14.151 14,-14.0781 C14,-13.9948 13.8802,-13.849 13.6406,-13.6406 C13.3802,-13.401 13.0078,-13.1641 12.5234,-12.9297 C12.0391,-12.6953 11.5313,-12.5781 11,-12.5781 C10.7604,-12.5781 10.4688,-12.6198 10.125,-12.7031 C9.89583,-11.2552 9.66146,-9.96875 9.42188,-8.84375 C9.21354,-7.85417 8.79688,-6.98958 8.17188,-6.25 C7.56771,-5.51042 6.89583,-5.14063 6.15625,-5.14063 C5.85417,-5.14063 5.58854,-5.19792 5.35938,-5.3125 C5.09896,-5.44792 4.82292,-5.64583 4.53125,-5.90625 C4.30208,-6.09375 4.08333,-6.26563 3.875,-6.42188 C3.82292,-6.46354 3.79688,-6.52604 3.79688,-6.60938 C3.79688,-6.69271 3.84896,-6.80729 3.95313,-6.95313 C4.05729,-7.06771 4.15104,-7.125 4.23438,-7.125 C4.31771,-7.125 4.54167,-6.96354 4.90625,-6.64063 C5.27083,-6.31771 5.59375,-6.15625 5.875,-6.15625 C6.39583,-6.15625 6.80208,-6.45313 7.09375,-7.04688 C7.375,-7.64063 7.53646,-8.34375 7.57813,-9.15625 C7.64063,-10.5 7.79167,-11.8906 8.03125,-13.3281 C7.73958,-13.3906 7.52604,-13.4219 7.39063,-13.4219 C6.76563,-13.4219 6.22917,-13.2917 5.78125,-13.0313 C5.34375,-12.7813 5.125,-12.4427 5.125,-12.0156 C5.125,-11.7031 5.22917,-11.4635 5.4375,-11.2969 C5.65625,-11.1094 5.76563,-10.9427 5.76563,-10.7969"/>
<path class="Clef" transform="matrix(0.9936,0,0,0.9936,32.0544,77.76)" d="M7.34375,-5.125 C7.34375,-5.125 7.38542,-5.125 7.46875,-5.125 C7.52083,-5.13542 7.5625,-5.14063 7.59375,-5.14063 C9.05208,-5.14063 10.25,-4.625 11.1875,-3.59375 C12.125,-2.58333 12.5938,-1.40104 12.5938,-0.046875 C12.5938,1.64063 11.901,3.01042 10.5156,4.0625 C10.151,4.35417 9.67188,4.58854 9.07813,4.76563 C9.15104,5.60938 9.1875,6.29167 9.1875,6.8125 C9.1875,6.91667 9.17188,7.29688 9.14063,7.95313 C9.08854,9.16146 8.67188,10.2083 7.89063,11.0938 C7.14063,11.9688 6.20313,12.4063 5.07813,12.4063 C4.02604,12.4063 3.13021,12.0365 2.39063,11.2969 C1.64063,10.5365 1.26563,9.625 1.26563,8.5625 C1.26563,8 1.48438,7.52083 1.92188,7.125 C2.35938,6.73958 2.86979,6.54688 3.45313,6.54688 C3.97396,6.54688 4.41146,6.75 4.76563,7.15625 C5.13021,7.53125 5.3125,8 5.3125,8.5625 C5.3125,9.0625 5.13021,9.49479 4.76563,9.85938 C4.40104,10.224 3.96354,10.4063 3.45313,10.4063 C3.24479,10.4063 3.04688,10.3698 2.85938,10.2969 C3.43229,11.1406 4.19271,11.5625 5.14063,11.5625 C6.03646,11.5625 6.77083,11.1979 7.34375,10.4688 C7.94792,9.71875 8.27604,8.83854 8.32813,7.82813 C8.34896,7.20313 8.35938,6.84896 8.35938,6.76563 C8.35938,6.03646 8.33333,5.4375 8.28125,4.96875 C7.63542,5.07292 7.05729,5.125 6.54688,5.125 C4.73438,5.125 3.19271,4.40625 1.92188,2.96875 C0.671875,1.52083 0.046875,-0.197917 0.046875,-2.1875 C0.046875,-2.60417 0.0833333,-3.02604 0.15625,-3.45313 C0.239583,-3.80729 0.338542,-4.19271 0.453125,-4.60938 C0.515625,-4.84896 0.692708,-5.22917 0.984375,-5.75 C1.08854,-5.90625 1.20573,-6.10156 1.33594,-6.33594 C1.46615,-6.57031 1.55729,-6.72396 1.60938,-6.79688 C1.73438,-7.05729 1.98438,-7.41146 2.35938,-7.85938 C2.46354,-7.97396 2.57292,-8.10156 2.6875,-8.24219 C2.80208,-8.38281 2.89844,-8.5 2.97656,-8.59375 C3.05469,-8.6875 3.11198,-8.76042 3.14844,-8.8125 C3.1849,-8.86458 3.47917,-9.20833 4.03125,-9.84375 C4.15625,-9.97917 4.28125,-10.1198 4.40625,-10.2656 C4.53125,-10.4115 4.63281,-10.5286 4.71094,-10.6172 C4.78906,-10.7057 4.84896,-10.7656 4.89063,-10.7969 C4.42188,-12.349 4.125,-13.5885 4,-14.5156 C3.91667,-15.2552 3.875,-16.2708 3.875,-17.5625 C3.875,-18.6979 4.13542,-19.7604 4.65625,-20.75 C5.15625,-21.7708 5.86458,-22.6094 6.78125,-23.2656 C6.84375,-23.3073 6.90625,-23.3281 6.96875,-23.3281 C7.0625,-23.3281 7.13021,-23.3073 7.17188,-23.2656 C7.86979,-22.4219 8.47396,-21.3229 8.98438,-19.9688 C9.50521,-18.6146 9.76563,-17.3802 9.76563,-16.2656 C9.76563,-15.0156 9.46875,-13.8438 8.875,-12.75 C8.19792,-11.5938 7.32292,-10.3958 6.25,-9.15625 C6.52083,-8.30208 6.88542,-6.95833 7.34375,-5.125 M9,3.96875 C9.67708,3.71875 10.2083,3.29688 10.5938,2.70313 C11.0104,2.13021 11.2188,1.48438 11.2188,0.765625 C11.2188,-0.161458 10.9063,-0.984375 10.2813,-1.70313 C9.63542,-2.44271 8.81771,-2.85938 7.82813,-2.95313 C8.39063,-0.203125 8.78125,2.10417 9,3.96875 M1.45313,-0.546875 C1.45313,0.744792 1.97396,1.88021 3.01563,2.85938 C4.07813,3.80729 5.27604,4.28125 6.60938,4.28125 C7.15104,4.28125 7.68229,4.23958 8.20313,4.15625 C7.99479,2.17708 7.58333,-0.192708 6.96875,-2.95313 C6.22917,-2.86979 5.64063,-2.60938 5.20313,-2.17188 C4.76563,-1.71354 4.54688,-1.19792 4.54688,-0.625 C4.54688,0.364583 5.07813,1.16667 6.14063,1.78125 C6.22396,1.875 6.26563,1.97396 6.26563,2.07813 C6.26563,2.18229 6.22396,2.27604 6.14063,2.35938 C6.05729,2.45313 5.95833,2.5 5.84375,2.5 C5.83333,2.5 5.77604,2.48958 5.67188,2.46875 C4.92188,2.0625 4.34896,1.54167 3.95313,0.90625 C3.56771,0.21875 3.375,-0.46875 3.375,-1.15625 C3.375,-2.05208 3.65625,-2.86458 4.21875,-3.59375 C4.80208,-4.32292 5.5625,-4.79167 6.5,-5 C6.13542,-6.45833 5.83854,-7.59896 5.60938,-8.42188 C5.40104,-8.18229 5.15104,-7.89844 4.85938,-7.57031 C4.56771,-7.24219 4.39583,-7.04167 4.34375,-6.96875 C3.875,-6.36458 3.51563,-5.89063 3.26563,-5.54688 C2.81771,-4.93229 2.48958,-4.40625 2.28125,-3.96875 C2.0625,-3.46875 1.86979,-2.92708 1.70313,-2.34375 C1.53646,-1.78125 1.45313,-1.18229 1.45313,-0.546875 M7.96875,-20.4063 C6.98958,-19.9271 6.22396,-19.2396 5.67188,-18.3438 C5.09896,-17.4167 4.8125,-16.4219 4.8125,-15.3594 C4.8125,-14.4219 5.04688,-13.1563 5.51563,-11.5625 C6.45313,-12.6979 7.15625,-13.7448 7.625,-14.7031 C8.11458,-15.724 8.35938,-16.7865 8.35938,-17.8906 C8.35938,-18.724 8.22917,-19.5625 7.96875,-20.4063 M5.82813,15.2344 C6.16146,14.901 6.32813,14.5625 6.32813,14.2188 C6.30729,13.9479 6.19271,13.7396 5.98438,13.5938 C5.74479,13.4375 5.46875,13.3594 5.15625,13.3594 C4.9375,13.3594 4.75521,13.4323 4.60938,13.5781 C4.48438,13.7031 4.42188,13.8646 4.42188,14.0625 C4.42188,14.3021 4.51563,14.4792 4.70313,14.5938 L5.82813,15.2344 M6.14063,15.4063 C6.68229,15.7083 6.95313,16.1146 6.95313,16.625 L6.95313,16.6875 C6.95313,17.0833 6.79167,17.4219 6.46875,17.7031 C6.14583,17.9844 5.68229,18.125 5.07813,18.125 C4.58854,18.125 4.16146,17.9948 3.79688,17.7344 C3.43229,17.4844 3.25,17.1458 3.25,16.7188 C3.25,16.5521 3.29167,16.3958 3.375,16.25 C3.47917,16.0833 3.56771,15.9688 3.64063,15.9063 L4,15.5313 C3.60417,15.2604 3.40625,14.901 3.40625,14.4531 C3.40625,14.099 3.5625,13.7865 3.875,13.5156 C4.19792,13.2552 4.625,13.125 5.15625,13.125 C5.60417,13.125 5.98438,13.224 6.29688,13.4219 C6.60938,13.6198 6.76563,13.8854 6.76563,14.2188 C6.76563,14.5729 6.55729,14.9688 6.14063,15.4063 M4.29688,15.7031 C3.91146,16.0469 3.70313,16.3854 3.67188,16.7188 C3.70313,17.0729 3.84896,17.3542 4.10938,17.5625 C4.39063,17.7813 4.71354,17.8906 5.07813,17.8906 C5.33854,17.8906 5.54688,17.8073 5.70313,17.6406 C5.85938,17.4844 5.9375,17.2969 5.9375,17.0781 C5.92708,16.7865 5.8125,16.5781 5.59375,16.4531 L4.29688,15.7031 "/>
<path class="KeySig" transform="matrix(0.9936,0,0,0.9936,54.4337,65.34)" d="M0.921875,-0.828125 L0.921875,0.71875 C0.921875,1.27083 0.947917,1.70833 1,2.03125 C1.42708,1.66667 1.73438,1.39583 1.92188,1.21875 C2.13021,1.01042 2.33854,0.721354 2.54688,0.351563 C2.75521,-0.0182292 2.85938,-0.385417 2.85938,-0.75 C2.85938,-1.11458 2.78125,-1.42708 2.625,-1.6875 C2.46875,-1.94792 2.26042,-2.07813 2,-2.07813 C1.6875,-2.07813 1.42708,-1.95833 1.21875,-1.71875 C1.02083,-1.45833 0.921875,-1.16146 0.921875,-0.828125 M0.09375,2.75 L-0.15625,-9.14063 C0.03125,-9.24479 0.216146,-9.29688 0.398438,-9.29688 C0.580729,-9.29688 0.760417,-9.24479 0.9375,-9.14063 L0.78125,-2.25 C1.3125,-2.70833 1.92708,-2.9375 2.625,-2.9375 C3.125,-2.9375 3.54427,-2.72917 3.88281,-2.3125 C4.22135,-1.89583 4.39063,-1.41667 4.39063,-0.875 C4.39063,-0.541667 4.28125,-0.182292 4.0625,0.203125 C3.85417,0.546875 3.63542,0.817708 3.40625,1.01563 C3.27083,1.11979 2.9375,1.38021 2.40625,1.79688 C2.25,1.91146 2.0651,2.04688 1.85156,2.20313 C1.63802,2.35938 1.50521,2.45833 1.45313,2.5 C1.35938,2.55208 1.27083,2.65625 1.1875,2.8125 C1.10417,2.94792 1,3.05729 0.875,3.14063 C0.791667,3.22396 0.684896,3.26563 0.554688,3.26563 C0.424479,3.26563 0.317708,3.21875 0.234375,3.125 C0.140625,3.03125 0.09375,2.90625 0.09375,2.75"/>
<path class="KeySig" transform="matrix(0.9936,0,0,0.9936,49.4657,72.792)" d="M0.921875,-0.828125 L0.921875,0.71875 C0.921875,1.27083 0.947917,1.70833 1,2.03125 C1.42708,1.66667 1.73438,1.39583 1.92188,1.21875 C2.13021,1.01042 2.33854,0.721354 2.54688,0.351563 C2.75521,-0.0182292 2.85938,-0.385417 2.85938,-0.75 C2.85938,-1.11458 2.78125,-1.42708 2.625,-1.6875 C2.46875,-1.94792 2.26042,-2.07813 2,-2.07813 C1.6875,-2.07813 1.42708,-1.95833 1.21875,-1.71875 C1.02083,-1.45833 0.921875,-1.16146 0.921875,-0.828125 M0.09375,2.75 L-0.15625,-9.14063 C0.03125,-9.24479 0.216146,-9.29688 0.398438,-9.29688 C0.580729,-9.29688 0.760417,-9.24479 0.9375,-9.14063 L0.78125,-2.25 C1.3125,-2.70833 1.92708,-2.9375 2.625,-2.9375 C3.125,-2.9375 3.54427,-2.72917 3.88281,-2.3125 C4.22135,-1.89583 4.39063,-1.41667 4.39063,-0.875 C4.39063,-0.541667 4.28125,-0.182292 4.0625,0.203125 C3.85417,0.546875 3.63542,0.817708 3.40625,1.01563 C3.27083,1.11979 2.9375,1.38021 2.40625,1.79688 C2.25,1.91146 2.0651,2.04688 1.85156,2.20313 C1.63802,2.35938 1.50521,2.45833 1.45313,2.5 C1.35938,2.55208 1.27083,2.65625 1.1875,2.8125 C1.10417,2.94792 1,3.05729 0.875,3.14063 C0.791667,3.22396 0.684896,3.26563 0.554688,3.26563 C0.424479,3.26563 0.317708,3.21875 0.234375,3.125 C0.140625,3.03125 0.09375,2.90625 0.09375,2.75"/>
<path class="Fingering" d="M506.477,87.9456 C506.362,87.9456 506.169,88.0029 505.899,88.1175 L505.899,88.0081 L507.336,87.2737 L507.399,87.2894 L507.399,92.0862 C507.399,92.2946 507.461,92.43 507.586,92.4925 C507.69,92.5342 507.883,92.555 508.164,92.555 L508.164,92.68 L505.945,92.68 L505.945,92.555 C506.3,92.5446 506.524,92.4821 506.617,92.3675 C506.68,92.2737 506.711,92.1279 506.711,91.93 L506.711,88.3206 C506.701,88.0706 506.623,87.9456 506.477,87.9456"/>
<path class="Fingering" d="M474.314,89.571 C474.439,89.571 474.621,89.6387 474.861,89.7741 C475.111,89.9304 475.324,90.0085 475.501,90.0085 C475.866,90.0085 476.152,89.847 476.361,89.5241 C476.486,89.3158 476.548,89.0814 476.548,88.821 C476.548,88.0606 476.095,87.6439 475.189,87.571 C475.095,87.5606 474.996,87.5554 474.892,87.5554 L474.892,87.446 C475.496,87.2481 475.892,86.9929 476.079,86.6804 C476.173,86.5137 476.22,86.3314 476.22,86.1335 C476.22,85.7793 476.074,85.5241 475.783,85.3679 C475.647,85.3054 475.501,85.2741 475.345,85.2741 C474.897,85.2741 474.527,85.5085 474.236,85.9772 C474.204,86.0189 474.178,86.0658 474.158,86.1179 L474.033,86.0866 C474.283,85.4095 474.647,84.9981 475.126,84.8522 C475.272,84.8106 475.434,84.7897 475.611,84.7897 C476.09,84.7897 476.444,84.9564 476.673,85.2897 C476.798,85.4668 476.861,85.6647 476.861,85.8835 C476.861,86.2064 476.71,86.4981 476.408,86.7585 C476.314,86.8314 476.215,86.9095 476.111,86.9929 C476.59,87.2012 476.897,87.4877 477.033,87.8522 C477.095,88.0293 477.126,88.2272 477.126,88.446 C477.126,89.0814 476.861,89.5762 476.329,89.9304 C475.934,90.1804 475.465,90.3054 474.923,90.3054 C474.434,90.3054 474.142,90.196 474.048,89.9772 C474.027,89.9356 474.017,89.8939 474.017,89.8522 C474.017,89.696 474.095,89.6075 474.251,89.5866 C474.272,89.5762 474.293,89.571 474.314,89.571"/>
<path class="Fingering" d="M444.159,87.8214 C443.565,87.8214 443.102,87.5141 442.768,86.8995 C442.487,86.3995 442.347,85.7745 442.347,85.0245 C442.347,84.1287 442.555,83.4255 442.972,82.9151 C443.305,82.5193 443.711,82.3162 444.19,82.3057 C444.753,82.3057 445.195,82.5922 445.518,83.1651 C445.82,83.6755 445.972,84.311 445.972,85.0714 C445.972,86.0401 445.748,86.7797 445.3,87.2901 C444.977,87.6443 444.597,87.8214 444.159,87.8214 M444.159,82.5089 C443.513,82.5089 443.164,83.2797 443.112,84.8214 C443.112,84.9151 443.112,85.0089 443.112,85.1026 C443.123,86.7693 443.472,87.6078 444.159,87.6182 C444.847,87.6078 445.19,86.7641 445.19,85.087 C445.19,83.5662 444.919,82.7172 444.378,82.5401 C444.305,82.5193 444.232,82.5089 444.159,82.5089"/>
<path class="Fingering" d="M412.114,80.4936 C411.999,80.4936 411.806,80.5509 411.536,80.6655 L411.536,80.5561 L412.973,79.8217 L413.036,79.8374 L413.036,84.6342 C413.036,84.8426 413.098,84.978 413.223,85.0405 C413.327,85.0822 413.52,85.103 413.801,85.103 L413.801,85.228 L411.582,85.228 L411.582,85.103 C411.937,85.0926 412.161,85.0301 412.254,84.9155 C412.317,84.8217 412.348,84.6759 412.348,84.478 L412.348,80.8686 C412.338,80.6186 412.259,80.4936 412.114,80.4936"/>
<path class="Fingering" d="M379.771,82.119 C379.896,82.119 380.079,82.1867 380.318,82.3221 C380.568,82.4784 380.782,82.5565 380.959,82.5565 C381.323,82.5565 381.61,82.395 381.818,82.0721 C381.943,81.8638 382.006,81.6294 382.006,81.369 C382.006,80.6086 381.553,80.1919 380.646,80.119 C380.553,80.1086 380.454,80.1034 380.349,80.1034 L380.349,79.994 C380.954,79.7961 381.349,79.5409 381.537,79.2284 C381.631,79.0617 381.678,78.8794 381.678,78.6815 C381.678,78.3273 381.532,78.0721 381.24,77.9159 C381.105,77.8534 380.959,77.8221 380.803,77.8221 C380.355,77.8221 379.985,78.0565 379.693,78.5252 C379.662,78.5669 379.636,78.6138 379.615,78.6659 L379.49,78.6346 C379.74,77.9575 380.105,77.5461 380.584,77.4002 C380.73,77.3586 380.891,77.3377 381.068,77.3377 C381.547,77.3377 381.902,77.5044 382.131,77.8377 C382.256,78.0148 382.318,78.2127 382.318,78.4315 C382.318,78.7544 382.167,79.0461 381.865,79.3065 C381.771,79.3794 381.672,79.4575 381.568,79.5409 C382.047,79.7492 382.355,80.0357 382.49,80.4002 C382.553,80.5773 382.584,80.7752 382.584,80.994 C382.584,81.6294 382.318,82.1242 381.787,82.4784 C381.391,82.7284 380.922,82.8534 380.381,82.8534 C379.891,82.8534 379.599,82.744 379.506,82.5252 C379.485,82.4836 379.474,82.4419 379.474,82.4002 C379.474,82.244 379.553,82.1555 379.709,82.1346 C379.73,82.1242 379.751,82.119 379.771,82.119"/>
<path class="Fingering" d="M349.617,80.3694 C349.023,80.3694 348.559,80.0621 348.226,79.4475 C347.945,78.9475 347.804,78.3225 347.804,77.5725 C347.804,76.6767 348.012,75.9735 348.429,75.4631 C348.762,75.0673 349.169,74.8642 349.648,74.8537 C350.21,74.8537 350.653,75.1402 350.976,75.7131 C351.278,76.2235 351.429,76.859 351.429,77.6194 C351.429,78.5881 351.205,79.3277 350.757,79.8381 C350.434,80.1923 350.054,80.3694 349.617,80.3694 M349.617,75.0569 C348.971,75.0569 348.622,75.8277 348.57,77.3694 C348.57,77.4631 348.57,77.5569 348.57,77.6506 C348.58,79.3173 348.929,80.1558 349.617,80.1662 C350.304,80.1558 350.648,79.3121 350.648,77.635 C350.648,76.1142 350.377,75.2652 349.835,75.0881 C349.762,75.0673 349.69,75.0569 349.617,75.0569"/>
<path class="Fingering" d="M316.352,73.9635 C316.592,72.9427 317.118,72.4166 317.931,72.3854 C317.962,72.3854 317.988,72.3854 318.009,72.3854 C318.498,72.3854 318.889,72.5625 319.181,72.9166 C319.389,73.177 319.493,73.4687 319.493,73.7916 C319.493,74.3854 319.175,75.026 318.54,75.7135 C318.519,75.7343 318.493,75.7552 318.462,75.776 L317.134,77.1979 L319.04,77.1979 C319.248,77.1979 319.41,77.1406 319.524,77.026 C319.597,76.9531 319.686,76.8333 319.79,76.6666 L319.899,76.6979 L319.462,77.776 L316.337,77.776 L316.337,77.6822 L317.759,76.1666 C318.436,75.427 318.785,74.7343 318.806,74.0885 C318.806,73.6406 318.634,73.3177 318.29,73.1197 C318.113,73.0156 317.91,72.9635 317.681,72.9635 C317.326,72.9635 317.05,73.0989 316.852,73.3697 C316.738,73.526 316.629,73.7395 316.524,74.0104 L316.352,73.9635 "/>
<path class="Fingering" d="M285.229,74.667 C285.354,74.667 285.536,74.7347 285.776,74.8701 C286.026,75.0264 286.239,75.1045 286.416,75.1045 C286.781,75.1045 287.067,74.943 287.276,74.6201 C287.401,74.4118 287.463,74.1774 287.463,73.917 C287.463,73.1566 287.01,72.7399 286.104,72.667 C286.01,72.6566 285.911,72.6514 285.807,72.6514 L285.807,72.542 C286.411,72.3441 286.807,72.0889 286.995,71.7764 C287.088,71.6097 287.135,71.4274 287.135,71.2295 C287.135,70.8753 286.989,70.6201 286.698,70.4639 C286.562,70.4014 286.416,70.3701 286.26,70.3701 C285.812,70.3701 285.442,70.6045 285.151,71.0733 C285.12,71.1149 285.094,71.1618 285.073,71.2139 L284.948,71.1826 C285.198,70.5055 285.562,70.0941 286.041,69.9483 C286.187,69.9066 286.349,69.8858 286.526,69.8858 C287.005,69.8858 287.359,70.0524 287.588,70.3858 C287.713,70.5628 287.776,70.7608 287.776,70.9795 C287.776,71.3024 287.625,71.5941 287.323,71.8545 C287.229,71.9274 287.13,72.0055 287.026,72.0889 C287.505,72.2972 287.812,72.5837 287.948,72.9483 C288.01,73.1253 288.041,73.3233 288.041,73.542 C288.041,74.1774 287.776,74.6722 287.245,75.0264 C286.849,75.2764 286.38,75.4014 285.838,75.4014 C285.349,75.4014 285.057,75.292 284.963,75.0733 C284.942,75.0316 284.932,74.9899 284.932,74.9483 C284.932,74.792 285.01,74.7035 285.166,74.6826 C285.187,74.6722 285.208,74.667 285.229,74.667"/>
<path class="Fingering" d="M253.324,73.9635 C253.564,72.9427 254.09,72.4166 254.902,72.3854 C254.934,72.3854 254.96,72.3854 254.98,72.3854 C255.47,72.3854 255.861,72.5625 256.152,72.9166 C256.361,73.177 256.465,73.4687 256.465,73.7916 C256.465,74.3854 256.147,75.026 255.512,75.7135 C255.491,75.7343 255.465,75.7552 255.434,75.776 L254.105,77.1979 L256.012,77.1979 C256.22,77.1979 256.381,77.1406 256.496,77.026 C256.569,76.9531 256.658,76.8333 256.762,76.6666 L256.871,76.6979 L256.434,77.776 L253.309,77.776 L253.309,77.6822 L254.73,76.1666 C255.408,75.427 255.756,74.7343 255.777,74.0885 C255.777,73.6406 255.605,73.3177 255.262,73.1197 C255.085,73.0156 254.881,72.9635 254.652,72.9635 C254.298,72.9635 254.022,73.0989 253.824,73.3697 C253.71,73.526 253.6,73.7395 253.496,74.0104 L253.324,73.9635 "/>
<path class="Fingering" d="M223.56,80.3694 C222.966,80.3694 222.503,80.0621 222.169,79.4475 C221.888,78.9475 221.748,78.3225 221.748,77.5725 C221.748,76.6767 221.956,75.9735 222.373,75.4631 C222.706,75.0673 223.112,74.8642 223.591,74.8537 C224.154,74.8537 224.596,75.1402 224.919,75.7131 C225.221,76.2235 225.373,76.859 225.373,77.6194 C225.373,78.5881 225.149,79.3277 224.701,79.8381 C224.378,80.1923 223.998,80.3694 223.56,80.3694 M223.56,75.0569 C222.914,75.0569 222.565,75.8277 222.513,77.3694 C222.513,77.4631 222.513,77.5569 222.513,77.6506 C222.524,79.3173 222.873,80.1558 223.56,80.1662 C224.248,80.1558 224.591,79.3121 224.591,77.635 C224.591,76.1142 224.32,75.2652 223.779,75.0881 C223.706,75.0673 223.633,75.0569 223.56,75.0569"/>
<path class="Fingering" d="M190.687,82.119 C190.812,82.119 190.994,82.1867 191.233,82.3221 C191.483,82.4784 191.697,82.5565 191.874,82.5565 C192.239,82.5565 192.525,82.395 192.733,82.0721 C192.858,81.8638 192.921,81.6294 192.921,81.369 C192.921,80.6086 192.468,80.1919 191.562,80.119 C191.468,80.1086 191.369,80.1034 191.265,80.1034 L191.265,79.994 C191.869,79.7961 192.265,79.5409 192.452,79.2284 C192.546,79.0617 192.593,78.8794 192.593,78.6815 C192.593,78.3273 192.447,78.0721 192.155,77.9159 C192.02,77.8534 191.874,77.8221 191.718,77.8221 C191.27,77.8221 190.9,78.0565 190.608,78.5252 C190.577,78.5669 190.551,78.6138 190.53,78.6659 L190.405,78.6346 C190.655,77.9575 191.02,77.5461 191.499,77.4002 C191.645,77.3586 191.806,77.3377 191.983,77.3377 C192.463,77.3377 192.817,77.5044 193.046,77.8377 C193.171,78.0148 193.233,78.2127 193.233,78.4315 C193.233,78.7544 193.082,79.0461 192.78,79.3065 C192.687,79.3794 192.588,79.4575 192.483,79.5409 C192.963,79.7492 193.27,80.0357 193.405,80.4002 C193.468,80.5773 193.499,80.7752 193.499,80.994 C193.499,81.6294 193.233,82.1242 192.702,82.4784 C192.306,82.7284 191.838,82.8534 191.296,82.8534 C190.806,82.8534 190.515,82.744 190.421,82.5252 C190.4,82.4836 190.39,82.4419 190.39,82.4002 C190.39,82.244 190.468,82.1555 190.624,82.1346 C190.645,82.1242 190.666,82.119 190.687,82.119"/>
<path class="Fingering" d="M160.001,80.4936 C159.886,80.4936 159.693,80.5509 159.422,80.6655 L159.422,80.5561 L160.86,79.8217 L160.922,79.8374 L160.922,84.6342 C160.922,84.8426 160.985,84.978 161.11,85.0405 C161.214,85.0822 161.407,85.103 161.688,85.103 L161.688,85.228 L159.469,85.228 L159.469,85.103 C159.823,85.0926 160.047,85.0301 160.141,84.9155 C160.204,84.8217 160.235,84.6759 160.235,84.478 L160.235,80.8686 C160.224,80.6186 160.146,80.4936 160.001,80.4936"/>
<path class="Fingering" d="M129.018,87.8214 C128.424,87.8214 127.96,87.5141 127.627,86.8995 C127.346,86.3995 127.205,85.7745 127.205,85.0245 C127.205,84.1287 127.413,83.4255 127.83,82.9151 C128.163,82.5193 128.57,82.3162 129.049,82.3057 C129.611,82.3057 130.054,82.5922 130.377,83.1651 C130.679,83.6755 130.83,84.311 130.83,85.0714 C130.83,86.0401 130.606,86.7797 130.158,87.2901 C129.835,87.6443 129.455,87.8214 129.018,87.8214 M129.018,82.5089 C128.372,82.5089 128.023,83.2797 127.971,84.8214 C127.971,84.9151 127.971,85.0089 127.971,85.1026 C127.981,86.7693 128.33,87.6078 129.018,87.6182 C129.705,87.6078 130.049,86.7641 130.049,85.087 C130.049,83.5662 129.778,82.7172 129.236,82.5401 C129.163,82.5193 129.091,82.5089 129.018,82.5089"/>
<path class="Fingering" d="M96.1441,89.571 C96.2691,89.571 96.4514,89.6387 96.691,89.7741 C96.941,89.9304 97.1545,90.0085 97.3316,90.0085 C97.6962,90.0085 97.9826,89.847 98.191,89.5241 C98.316,89.3158 98.3785,89.0814 98.3785,88.821 C98.3785,88.0606 97.9254,87.6439 97.0191,87.571 C96.9254,87.5606 96.8264,87.5554 96.7222,87.5554 L96.7222,87.446 C97.3264,87.2481 97.7222,86.9929 97.9097,86.6804 C98.0035,86.5137 98.0504,86.3314 98.0504,86.1335 C98.0504,85.7793 97.9045,85.5241 97.6129,85.3679 C97.4774,85.3054 97.3316,85.2741 97.1754,85.2741 C96.7274,85.2741 96.3576,85.5085 96.066,85.9772 C96.0347,86.0189 96.0087,86.0658 95.9879,86.1179 L95.8629,86.0866 C96.1129,85.4095 96.4774,84.9981 96.9566,84.8522 C97.1024,84.8106 97.2639,84.7897 97.441,84.7897 C97.9201,84.7897 98.2743,84.9564 98.5035,85.2897 C98.6285,85.4668 98.691,85.6647 98.691,85.8835 C98.691,86.2064 98.5399,86.4981 98.2379,86.7585 C98.1441,86.8314 98.0451,86.9095 97.941,86.9929 C98.4201,87.2012 98.7274,87.4877 98.8629,87.8522 C98.9254,88.0293 98.9566,88.2272 98.9566,88.446 C98.9566,89.0814 98.691,89.5762 98.1597,89.9304 C97.7639,90.1804 97.2951,90.3054 96.7535,90.3054 C96.2639,90.3054 95.9722,90.196 95.8785,89.9772 C95.8576,89.9356 95.8472,89.8939 95.8472,89.8522 C95.8472,89.696 95.9254,89.6075 96.0816,89.5866 C96.1024,89.5762 96.1233,89.571 96.1441,89.571"/>
<path class="Fingering" d="M65.4581,87.9456 C65.3435,87.9456 65.1508,88.0029 64.88,88.1175 L64.88,88.0081 L66.3175,87.2737 L66.38,87.2894 L66.38,92.0862 C66.38,92.2946 66.4425,92.43 66.5675,92.4925 C66.6716,92.5342 66.8643,92.555 67.1456,92.555 L67.1456,92.68 L64.9268,92.68 L64.9268,92.555 C65.281,92.5446 65.505,92.4821 65.5987,92.3675 C65.6612,92.2737 65.6925,92.1279 65.6925,91.93 L65.6925,88.3206 C65.682,88.0706 65.6039,87.9456 65.4581,87.9456"/>
<path class="Tempo" d="M64.2299,40.4371 C64.0268,40.2809 63.7768,40.1871 63.4643,40.1871 C62.2768,40.1871 61.3237,41.0621 61.3237,41.9996 C61.3237,42.5621 61.7768,42.9059 62.3706,42.9059 C63.3237,42.9059 64.5112,41.9996 64.5112,41.0934 L64.5112,34.9527 L64.2299,34.9527 L64.2299,40.4371 "/>
<path class="Tempo" d="M74.8706,39.0152 L68.2612,39.0152 L68.2612,37.859 L74.8706,37.859 L74.8706,39.0152 M74.8706,41.9371 L68.2612,41.9371 L68.2612,40.7965 L74.8706,40.7965 L74.8706,41.9371 M80.3081,36.0465 C80.1831,36.0465 79.8653,36.1402 79.3549,36.3277 C79.3237,36.3382 79.3028,36.3486 79.2924,36.359 L79.2924,36.0465 L82.3081,34.734 L82.5112,34.734 L82.5112,41.5621 C82.5112,42.0517 82.6101,42.3642 82.8081,42.4996 C82.9851,42.6246 83.3185,42.6923 83.8081,42.7027 L83.8081,42.984 L79.3081,42.984 L79.3081,42.7027 C79.9643,42.6923 80.3758,42.5882 80.5424,42.3902 C80.6778,42.2236 80.7456,41.9267 80.7456,41.4996 L80.7456,36.8746 C80.7351,36.333 80.5893,36.0569 80.3081,36.0465 M84.8862,37.1715 C85.4383,35.6819 86.2143,34.8746 87.2143,34.7496 C87.3185,34.7392 87.4226,34.734 87.5268,34.734 C88.3185,34.734 88.9226,35.0205 89.3393,35.5934 C89.6101,35.9788 89.7456,36.4215 89.7456,36.9215 C89.7456,37.7861 89.3185,38.6298 88.4643,39.4527 C88.4226,39.484 88.3914,39.5152 88.3706,39.5465 L86.4331,41.3902 L88.2456,41.3902 C88.881,41.3902 89.2872,41.333 89.4643,41.2184 C89.631,41.1038 89.7924,40.8486 89.9487,40.4527 L90.2456,40.4527 L89.6987,42.984 L84.7143,42.984 L84.7143,42.7027 C86.381,40.9215 87.407,39.6455 87.7924,38.8746 C88.0008,38.4475 88.1049,38.0309 88.1049,37.6246 C88.1049,37.0934 87.9122,36.6767 87.5268,36.3746 C87.2872,36.1871 87.006,36.0934 86.6831,36.0934 C86.0893,36.0934 85.6206,36.4215 85.2768,37.0777 C85.256,37.109 85.2351,37.1402 85.2143,37.1715 L84.8862,37.1715 M90.7924,38.9059 C90.7924,37.5934 91.1049,36.5309 91.7299,35.7184 C92.2403,35.0725 92.8341,34.7444 93.5112,34.734 C94.2924,34.734 94.9383,35.1402 95.4487,35.9527 C95.9591,36.7652 96.2143,37.76 96.2143,38.9371 C96.2143,40.3121 95.8966,41.4059 95.2612,42.2184 C94.7612,42.8225 94.1831,43.1298 93.5268,43.1402 C92.6935,43.1402 92.0216,42.7132 91.5112,41.859 C91.032,41.0673 90.7924,40.083 90.7924,38.9059 M93.5268,42.7965 C93.881,42.7965 94.1153,42.4736 94.2299,41.8277 C94.2924,41.4423 94.3237,40.9423 94.3237,40.3277 L94.3237,37.5777 C94.3237,36.1402 94.131,35.3225 93.7456,35.1246 C93.6726,35.083 93.5893,35.0621 93.4956,35.0621 C93.131,35.0621 92.8914,35.3955 92.7768,36.0621 C92.7247,36.4371 92.6987,36.9423 92.6987,37.5777 L92.6987,40.3277 C92.6987,41.6819 92.8653,42.4736 93.1987,42.7027 C93.2924,42.7652 93.4018,42.7965 93.5268,42.7965"/>
<path class="StaffText" d="M74.3015,25.2057 C74.7494,25.2057 75.2494,25.3203 75.8015,25.5495 C76.041,25.6432 76.2129,25.6901 76.3171,25.6901 C76.4629,25.6901 76.5931,25.5807 76.7077,25.362 C76.7181,25.3203 76.7338,25.2787 76.7546,25.237 L77.0202,25.237 L77.0202,27.5807 L76.7702,27.5807 C76.4994,26.9766 76.2181,26.5339 75.9265,26.2526 C75.864,26.1901 75.8067,26.138 75.7546,26.0964 C75.3275,25.7214 74.8848,25.5339 74.4265,25.5339 C73.4265,25.5339 72.8327,26.2526 72.6452,27.6901 C72.614,28.013 72.5983,28.362 72.5983,28.737 C72.5983,29.9245 72.8119,30.7943 73.239,31.3464 C73.5723,31.763 74.0306,31.9714 74.614,31.9714 C75.1765,31.9714 75.4942,31.7943 75.5671,31.4401 C75.5775,31.3776 75.5827,31.3099 75.5827,31.237 L75.5827,30.1901 C75.5827,29.8985 75.5098,29.711 75.364,29.6276 C75.2181,29.5547 74.9525,29.5078 74.5671,29.487 L74.5671,29.237 L78.0046,29.237 L78.0046,29.487 C77.5983,29.5287 77.3483,29.6172 77.2546,29.7526 C77.1817,29.8672 77.1452,30.086 77.1452,30.4089 L77.1452,31.6745 C76.5515,32.0287 75.765,32.237 74.7858,32.2995 C74.6504,32.2995 74.515,32.2995 74.3796,32.2995 C73.265,32.2995 72.3744,31.9401 71.7077,31.2214 C71.114,30.5755 70.8171,29.7682 70.8171,28.7995 C70.8171,27.7578 71.1608,26.8932 71.8483,26.2057 C72.515,25.5391 73.3327,25.2057 74.3015,25.2057 M82.0671,28.8307 C81.8483,28.8307 81.6348,28.711 81.4265,28.4714 C81.3119,28.3255 81.2285,28.2474 81.1765,28.237 C80.9577,28.237 80.791,28.388 80.6765,28.6901 C80.6035,28.8464 80.5671,29.013 80.5671,29.1901 L80.5671,31.0807 C80.5671,31.4453 80.64,31.6693 80.7858,31.7526 C80.8796,31.8151 81.0515,31.8568 81.3015,31.8776 L81.3015,32.112 L78.6608,32.112 L78.6608,31.8776 C78.9317,31.8255 79.0931,31.7318 79.1452,31.5964 C79.166,31.5235 79.1765,31.4141 79.1765,31.2682 L79.1765,28.3307 C79.1765,28.0703 79.1035,27.9037 78.9577,27.8307 C78.8848,27.7891 78.7858,27.7578 78.6608,27.737 L78.6608,27.5026 L80.5358,27.5026 L80.5358,28.3307 C80.9108,27.7787 81.2806,27.4714 81.6452,27.4089 C81.7285,27.388 81.8067,27.3776 81.8796,27.3776 C82.2233,27.3776 82.4681,27.5182 82.614,27.7995 C82.666,27.9141 82.6921,28.0339 82.6921,28.1589 C82.6921,28.4714 82.5671,28.6797 82.3171,28.7839 C82.2338,28.8151 82.1504,28.8307 82.0671,28.8307 M83.9421,28.0807 C83.9421,28.112 83.9942,28.2057 84.0983,28.362 C84.1921,28.5078 84.239,28.6328 84.239,28.737 C84.239,28.9974 84.1088,29.1745 83.8483,29.2682 C83.7546,29.2995 83.6608,29.3151 83.5671,29.3151 C83.2025,29.3151 82.989,29.1537 82.9265,28.8307 C82.916,28.7682 82.9108,28.711 82.9108,28.6589 C82.9108,28.1901 83.166,27.8412 83.6765,27.612 C83.9994,27.4557 84.3744,27.3776 84.8015,27.3776 C85.6765,27.3776 86.2754,27.6172 86.5983,28.0964 C86.7233,28.2943 86.7858,28.5182 86.7858,28.7682 L86.7858,31.3464 C86.7963,31.5026 86.864,31.586 86.989,31.5964 C87.041,31.586 87.0775,31.5703 87.0983,31.5495 L87.2077,31.4557 L87.3483,31.6589 C86.9525,32.0339 86.5827,32.2318 86.239,32.2526 C85.864,32.2526 85.6192,32.112 85.5046,31.8307 C85.4733,31.737 85.4421,31.638 85.4108,31.5339 C84.8692,32.0026 84.3431,32.2422 83.8327,32.2526 C83.3952,32.2526 83.0775,32.086 82.8796,31.7526 C82.7754,31.586 82.7233,31.4037 82.7233,31.2057 C82.7233,30.6224 83.1713,30.1485 84.0671,29.7839 C84.3067,29.6797 84.7546,29.5287 85.4108,29.3307 L85.4108,28.5964 C85.4108,28.0651 85.1921,27.7735 84.7546,27.7214 C84.6921,27.7214 84.6296,27.7214 84.5671,27.7214 C84.2754,27.7214 84.0775,27.8047 83.9733,27.9714 C83.9525,28.0026 83.9421,28.0391 83.9421,28.0807 M85.3952,31.0964 L85.3952,29.6589 C84.5931,29.8776 84.1869,30.2787 84.1765,30.862 C84.1765,31.1953 84.2858,31.4037 84.5046,31.487 C84.5671,31.5078 84.6296,31.5182 84.6921,31.5182 C84.9213,31.5182 85.1556,31.3776 85.3952,31.0964 M90.864,32.237 L90.864,31.5964 C90.5098,31.9714 90.166,32.1849 89.8327,32.237 C89.739,32.2474 89.64,32.2526 89.5358,32.2526 C88.9421,32.2526 88.4733,31.9766 88.1296,31.4245 C87.8588,30.9974 87.7233,30.4922 87.7233,29.9089 C87.7233,29.0547 87.9681,28.3828 88.4577,27.8932 C88.791,27.5495 89.1869,27.3776 89.6452,27.3776 C89.9994,27.3776 90.3223,27.513 90.614,27.7839 C90.6973,27.8568 90.7702,27.9245 90.8327,27.987 L90.8327,26.1745 C90.8327,25.9245 90.7754,25.7682 90.6608,25.7057 C90.5567,25.6537 90.3588,25.6172 90.0671,25.5964 L90.0671,25.362 L92.2233,25.362 L92.2233,31.112 C92.2233,31.3932 92.3067,31.5651 92.4733,31.6276 C92.5567,31.6589 92.6713,31.6797 92.8171,31.6901 L92.8171,31.9245 L92.1921,32.0026 C91.64,32.0755 91.1973,32.1537 90.864,32.237 M89.989,31.7057 C90.2806,31.7057 90.5306,31.5391 90.739,31.2057 C90.791,31.112 90.8223,31.0443 90.8327,31.0026 L90.8327,28.5495 C90.7077,28.2162 90.4994,28.0182 90.2077,27.9557 C90.1556,27.9453 90.1035,27.9401 90.0515,27.9401 C89.541,27.9401 89.2598,28.4453 89.2077,29.4557 C89.2077,29.5703 89.2077,29.6953 89.2077,29.8307 C89.2077,31.0703 89.4681,31.6953 89.989,31.7057 M95.1608,29.6589 C95.2129,30.6797 95.4785,31.2787 95.9577,31.4557 C96.0827,31.4974 96.2129,31.5182 96.3483,31.5182 C96.7129,31.5182 97.0463,31.3516 97.3483,31.0182 C97.4004,30.9662 97.4473,30.9141 97.489,30.862 L97.7233,31.0026 C97.3067,31.6068 96.8952,31.987 96.489,32.1432 C96.2806,32.2162 96.0463,32.2526 95.7858,32.2526 C95.0358,32.2526 94.4733,31.9453 94.0983,31.3307 C93.8483,30.9141 93.7233,30.4141 93.7233,29.8307 C93.7233,28.9349 93.9942,28.263 94.5358,27.8151 C94.9004,27.5235 95.3275,27.3776 95.8171,27.3776 C96.9213,27.3776 97.541,28.0964 97.6765,29.5339 C97.6765,29.5755 97.6765,29.6172 97.6765,29.6589 L95.1608,29.6589 M96.4577,29.1432 C96.4369,28.5182 96.3692,28.1224 96.2546,27.9557 C96.1608,27.7995 96.015,27.7214 95.8171,27.7214 C95.5254,27.7214 95.3275,27.8932 95.2233,28.237 C95.1608,28.4766 95.1244,28.8307 95.114,29.2995 L96.4577,29.2995 L96.4577,29.1432 M100.786,27.2682 C101.244,26.0287 101.895,25.3568 102.739,25.2526 C102.812,25.2422 102.895,25.237 102.989,25.237 C103.645,25.237 104.145,25.4766 104.489,25.9557 C104.718,26.2787 104.833,26.6485 104.833,27.0651 C104.833,27.7735 104.473,28.4766 103.755,29.1745 C103.734,29.2057 103.713,29.2266 103.692,29.237 L102.067,30.7839 L103.583,30.7839 C104.114,30.7839 104.453,30.737 104.598,30.6432 C104.744,30.5495 104.88,30.336 105.005,30.0026 L105.255,30.0026 L104.801,32.112 L100.645,32.112 L100.645,31.8776 C102.041,30.3985 102.895,29.336 103.208,28.6901 C103.385,28.336 103.473,27.987 103.473,27.6432 C103.473,27.2057 103.312,26.862 102.989,26.612 C102.781,26.4557 102.546,26.3776 102.286,26.3776 C101.786,26.3776 101.395,26.6485 101.114,27.1901 C101.093,27.2214 101.078,27.2474 101.067,27.2682 L100.786,27.2682 M107.13,30.5495 C107.453,30.5495 107.697,30.6901 107.864,30.9714 C107.947,31.1172 107.989,31.263 107.989,31.4089 C107.989,31.7214 107.848,31.961 107.567,32.1276 C107.421,32.2005 107.275,32.237 107.13,32.237 C106.796,32.237 106.551,32.0964 106.395,31.8151 C106.322,31.6797 106.286,31.5391 106.286,31.3932 C106.286,31.0912 106.421,30.8568 106.692,30.6901 C106.828,30.5964 106.973,30.5495 107.13,30.5495 M107.13,27.3932 C107.453,27.3932 107.697,27.5287 107.864,27.7995 C107.947,27.9453 107.989,28.0912 107.989,28.237 C107.989,28.5599 107.848,28.8047 107.567,28.9714 C107.432,29.0443 107.286,29.0807 107.13,29.0807 C106.796,29.0807 106.551,28.9349 106.395,28.6432 C106.322,28.5078 106.286,28.3672 106.286,28.2214 C106.286,27.9193 106.421,27.6849 106.692,27.5182 C106.828,27.4349 106.973,27.3932 107.13,27.3932"/>
<path class="StaffText" d="M117.38,30.3151 C117.38,30.8776 117.156,31.3255 116.708,31.6589 C116.281,31.961 115.697,32.112 114.958,32.112 L111.63,32.112 L111.63,31.9245 C112.067,31.9141 112.343,31.836 112.458,31.6901 C112.541,31.5755 112.583,31.3516 112.583,31.0182 L112.583,26.5807 C112.583,26.1953 112.52,25.9557 112.395,25.862 C112.27,25.7682 112.015,25.711 111.63,25.6901 L111.63,25.5026 L114.426,25.5026 C116.145,25.5235 117.015,26.0912 117.036,27.2057 C117.036,27.9245 116.63,28.3932 115.817,28.612 C115.796,28.612 115.765,28.6224 115.723,28.6432 C115.692,28.6432 115.676,28.6432 115.676,28.6432 C116.301,28.7995 116.744,29.0235 117.005,29.3151 C117.255,29.5964 117.38,29.9297 117.38,30.3151 M114.239,31.737 C115.218,31.737 115.833,31.4974 116.083,31.0182 C116.176,30.8203 116.223,30.586 116.223,30.3151 C116.223,29.5964 115.869,29.1485 115.161,28.9714 C114.838,28.888 114.317,28.8464 113.598,28.8464 L113.598,31.3307 C113.598,31.5287 113.687,31.6537 113.864,31.7057 C113.958,31.7266 114.083,31.737 114.239,31.737 M113.598,28.4714 L114.551,28.4714 C115.333,28.4714 115.807,28.1953 115.973,27.6432 C116.005,27.5182 116.02,27.388 116.02,27.2526 C116.02,26.4714 115.593,26.0235 114.739,25.9089 C114.583,25.888 114.421,25.8776 114.255,25.8776 L113.817,25.8776 C113.682,25.888 113.609,25.987 113.598,26.1745 L113.598,28.4714 M119.067,25.2995 L119.067,28.3307 C119.213,27.9974 119.489,27.7578 119.895,27.612 C120.083,27.5495 120.27,27.5182 120.458,27.5182 C121.02,27.5182 121.473,27.7682 121.817,28.2682 C122.088,28.6745 122.223,29.1485 122.223,29.6901 C122.223,30.4714 121.958,31.1068 121.426,31.5964 C120.989,32.0026 120.473,32.2057 119.88,32.2057 C119.328,32.2057 118.869,32.1016 118.505,31.8932 C118.328,31.7891 118.239,31.6849 118.239,31.5807 L118.239,26.3776 C118.239,26.1172 118.171,25.961 118.036,25.9089 C117.973,25.888 117.874,25.8776 117.739,25.8776 C117.666,25.8776 117.609,25.8776 117.567,25.8776 L117.567,25.7214 C118.088,25.5964 118.572,25.4505 119.02,25.2839 L119.067,25.2995 M119.067,28.8776 L119.067,31.4245 C119.067,31.5912 119.213,31.7214 119.505,31.8151 C119.671,31.8776 119.848,31.9089 120.036,31.9089 C120.65,31.9089 121.051,31.5912 121.239,30.9557 C121.312,30.7162 121.348,30.4453 121.348,30.1432 C121.348,29.2578 121.124,28.6485 120.676,28.3151 C120.489,28.1797 120.286,28.112 120.067,28.112 C119.713,28.112 119.432,28.237 119.223,28.487 C119.119,28.612 119.067,28.7422 119.067,28.8776 M125.598,28.1589 L125.598,27.987 C126.078,27.8412 126.546,27.6849 127.005,27.5182 L127.067,27.5339 L127.067,28.2995 C127.64,27.862 128.051,27.612 128.301,27.5495 C128.406,27.5287 128.51,27.5182 128.614,27.5182 C129.145,27.5287 129.499,27.8151 129.676,28.3776 C130.208,27.8047 130.755,27.5182 131.317,27.5182 C132.078,27.5287 132.463,28.1276 132.473,29.3151 L132.473,31.362 C132.484,31.7266 132.624,31.9193 132.895,31.9401 L133.161,31.9557 L133.161,32.112 L130.973,32.112 L130.973,31.9557 C131.296,31.9245 131.489,31.8516 131.551,31.737 C131.604,31.6432 131.63,31.4818 131.63,31.2526 L131.63,29.1432 C131.63,28.5912 131.52,28.2578 131.301,28.1432 C131.197,28.0807 131.057,28.0495 130.88,28.0495 C130.432,28.0599 130.067,28.263 129.786,28.6589 L129.786,31.1745 C129.786,31.5495 129.874,31.7839 130.051,31.8776 C130.156,31.9297 130.307,31.9557 130.505,31.9557 L130.505,32.112 L128.27,32.112 L128.27,31.9557 C128.593,31.9349 128.791,31.862 128.864,31.737 C128.926,31.6432 128.958,31.4818 128.958,31.2526 L128.958,29.0964 C128.958,28.3985 128.734,28.0495 128.286,28.0495 C127.921,28.0495 127.598,28.1693 127.317,28.4089 C127.244,28.4818 127.176,28.5599 127.114,28.6432 L127.114,31.4401 C127.114,31.6901 127.203,31.8464 127.38,31.9089 C127.473,31.9401 127.609,31.9557 127.786,31.9557 L127.786,32.112 L125.567,32.112 L125.567,31.9557 C125.921,31.9557 126.135,31.8724 126.208,31.7057 C126.249,31.6016 126.27,31.4557 126.27,31.2682 L126.27,28.7526 C126.27,28.3776 126.192,28.1693 126.036,28.1276 C126.005,28.1172 125.968,28.112 125.926,28.112 C125.822,28.112 125.713,28.1276 125.598,28.1589 M133.723,31.1432 C133.723,30.6328 134.041,30.2005 134.676,29.8464 C134.864,29.7526 135.364,29.5391 136.176,29.2057 C136.197,29.2057 136.213,29.2005 136.223,29.1901 L136.223,28.5807 C136.171,28.0599 135.916,27.7839 135.458,27.7526 C135.145,27.7526 134.926,27.8516 134.801,28.0495 C134.76,28.1224 134.739,28.1849 134.739,28.237 C134.739,28.2995 134.749,28.3828 134.77,28.487 C134.781,28.5599 134.786,28.612 134.786,28.6432 C134.786,28.8203 134.697,28.9453 134.52,29.0182 C134.458,29.0495 134.4,29.0651 134.348,29.0651 C134.161,29.0651 134.031,28.9766 133.958,28.7995 C133.926,28.7474 133.911,28.6901 133.911,28.6276 C133.911,28.263 134.13,27.9662 134.567,27.737 C134.869,27.5912 135.213,27.5182 135.598,27.5182 C136.317,27.5182 136.76,27.7735 136.926,28.2839 C136.999,28.5026 137.036,28.7787 137.036,29.112 L137.036,31.0495 C137.036,31.3828 137.098,31.5703 137.223,31.612 C137.265,31.6224 137.301,31.6276 137.333,31.6276 C137.479,31.6172 137.624,31.5547 137.77,31.4401 L137.77,31.6901 C137.499,32.0026 137.249,32.1745 137.02,32.2057 C136.968,32.2057 136.916,32.2057 136.864,32.2057 C136.551,32.2057 136.354,32.0495 136.27,31.737 C136.249,31.6537 136.239,31.5599 136.239,31.4557 C135.645,31.9349 135.156,32.1849 134.77,32.2057 C134.343,32.2057 134.036,32.0339 133.848,31.6901 C133.765,31.5235 133.723,31.3412 133.723,31.1432 M136.223,30.862 L136.223,29.4245 C135.4,29.7266 134.895,30.0339 134.708,30.3464 C134.635,30.4922 134.598,30.6485 134.598,30.8151 C134.598,31.211 134.744,31.461 135.036,31.5651 C135.109,31.5964 135.176,31.612 135.239,31.612 C135.458,31.6016 135.697,31.5235 135.958,31.3776 C136.104,31.2943 136.187,31.1901 136.208,31.0651 C136.218,31.0026 136.223,30.9349 136.223,30.862 M138.942,28.1901 C138.942,28.1901 138.791,28.2005 138.489,28.2214 L138.489,28.0495 C139.031,27.8828 139.551,27.7057 140.051,27.5182 L140.098,27.5495 L140.098,32.112 C140.098,33.3412 139.687,34.0495 138.864,34.237 C138.718,34.2682 138.567,34.2839 138.411,34.2839 C137.973,34.2839 137.682,34.1745 137.536,33.9557 C137.494,33.8828 137.473,33.8099 137.473,33.737 C137.473,33.5495 137.562,33.4297 137.739,33.3776 C137.791,33.3568 137.838,33.3464 137.88,33.3464 C138.025,33.3464 138.182,33.4505 138.348,33.6589 C138.525,33.8464 138.671,33.9453 138.786,33.9557 C139.015,33.9557 139.156,33.7943 139.208,33.4714 C139.239,33.2735 139.255,32.9714 139.255,32.5651 L139.255,28.7682 C139.255,28.4141 139.176,28.2214 139.02,28.1901 C138.989,28.1901 138.963,28.1901 138.942,28.1901 M139.598,25.2839 C139.817,25.2839 139.973,25.3828 140.067,25.5807 C140.098,25.6537 140.114,25.7266 140.114,25.7995 C140.114,26.0182 140.005,26.1745 139.786,26.2682 C139.723,26.2891 139.661,26.2995 139.598,26.2995 C139.369,26.2995 139.213,26.2005 139.13,26.0026 C139.109,25.9297 139.098,25.862 139.098,25.7995 C139.098,25.5807 139.192,25.4245 139.38,25.3307 C139.453,25.2995 139.525,25.2839 139.598,25.2839 M142.926,27.5182 C143.666,27.5182 144.249,27.7891 144.676,28.3307 C144.979,28.737 145.13,29.2162 145.13,29.7682 C145.13,30.5495 144.874,31.1745 144.364,31.6432 C143.947,32.0182 143.463,32.2057 142.911,32.2057 C142.203,32.2057 141.64,31.9349 141.223,31.3932 C140.89,30.9557 140.723,30.4401 140.723,29.8464 C140.723,29.0339 140.999,28.4089 141.551,27.9714 C141.937,27.6693 142.395,27.5182 142.926,27.5182 M141.63,29.362 C141.63,30.2682 141.817,30.961 142.192,31.4401 C142.432,31.7526 142.713,31.9089 143.036,31.9089 C143.557,31.9089 143.916,31.612 144.114,31.0182 C144.197,30.7578 144.239,30.461 144.239,30.1276 C144.239,29.2422 144.025,28.586 143.598,28.1589 C143.369,27.9297 143.104,27.8151 142.801,27.8151 C142.333,27.8151 141.994,28.0547 141.786,28.5339 C141.682,28.7735 141.63,29.0495 141.63,29.362 M148.489,28.487 C148.385,28.487 148.234,28.4037 148.036,28.237 C147.942,28.1537 147.869,28.112 147.817,28.112 C147.65,28.112 147.479,28.2422 147.301,28.5026 C147.187,28.6693 147.13,28.8151 147.13,28.9401 L147.13,31.2057 C147.13,31.5495 147.218,31.763 147.395,31.8464 C147.52,31.9089 147.713,31.9453 147.973,31.9557 L147.973,32.112 L145.567,32.112 L145.567,31.9557 C145.921,31.8932 146.135,31.8099 146.208,31.7057 C146.26,31.6224 146.286,31.4766 146.286,31.2682 L146.286,28.7526 C146.286,28.388 146.203,28.1901 146.036,28.1589 C146.005,28.1485 145.973,28.1432 145.942,28.1432 C145.828,28.1432 145.713,28.1589 145.598,28.1901 L145.598,28.0339 C146.13,27.8672 146.619,27.6953 147.067,27.5182 L147.13,27.5339 L147.13,28.4245 C147.473,27.9453 147.765,27.6589 148.005,27.5651 C148.109,27.5339 148.213,27.5182 148.317,27.5182 C148.63,27.5182 148.812,27.6485 148.864,27.9089 C148.864,27.9505 148.864,27.9974 148.864,28.0495 C148.833,28.3203 148.708,28.4662 148.489,28.487 M154.145,27.7214 C154.166,27.711 154.223,27.6745 154.317,27.612 L154.426,27.612 L154.458,28.9714 L154.317,28.9714 C154.15,28.3255 153.911,27.9401 153.598,27.8151 C153.484,27.763 153.354,27.737 153.208,27.737 C152.854,27.737 152.614,27.8776 152.489,28.1589 C152.458,28.2422 152.442,28.3307 152.442,28.4245 C152.453,28.7057 152.598,28.9297 152.88,29.0964 L153.958,29.737 C154.437,30.0287 154.708,30.3464 154.77,30.6901 C154.781,30.763 154.786,30.8464 154.786,30.9401 C154.786,31.3568 154.604,31.6953 154.239,31.9557 C153.979,32.1224 153.692,32.2057 153.38,32.2057 C153.244,32.2057 152.937,32.1589 152.458,32.0651 C152.343,32.0443 152.255,32.0339 152.192,32.0339 C152.088,32.0443 152.01,32.086 151.958,32.1589 L151.833,32.1589 L151.833,30.5964 L151.989,30.5964 C152.093,31.0651 152.223,31.3932 152.38,31.5807 C152.598,31.8516 152.89,31.987 153.255,31.987 C153.682,31.987 153.947,31.8307 154.051,31.5182 C154.083,31.4453 154.098,31.362 154.098,31.2682 C154.088,30.9662 153.911,30.7162 153.567,30.5182 L152.989,30.1901 C152.364,29.836 151.994,29.4818 151.88,29.1276 C151.838,29.0026 151.817,28.8776 151.817,28.7526 C151.817,28.2839 152.02,27.9349 152.426,27.7057 C152.656,27.5807 152.906,27.5182 153.176,27.5182 C153.395,27.5182 153.656,27.5703 153.958,27.6745 C154.041,27.7057 154.104,27.7214 154.145,27.7214 M155.723,29.987 C155.723,29.1432 156.01,28.4818 156.583,28.0026 C156.979,27.6797 157.421,27.5182 157.911,27.5182 C158.463,27.5182 158.89,27.6693 159.192,27.9714 C159.369,28.1485 159.458,28.3412 159.458,28.5495 C159.458,28.7266 159.364,28.8516 159.176,28.9245 C159.104,28.9557 159.036,28.9714 158.973,28.9714 C158.765,28.9714 158.614,28.836 158.52,28.5651 C158.51,28.5443 158.505,28.5235 158.505,28.5026 L158.442,28.2839 C158.38,28.0339 158.265,27.888 158.098,27.8464 C158.025,27.8255 157.942,27.8151 157.848,27.8151 C157.348,27.8151 156.968,28.0547 156.708,28.5339 C156.562,28.8255 156.489,29.1641 156.489,29.5495 C156.489,30.2787 156.713,30.8255 157.161,31.1901 C157.421,31.388 157.713,31.487 158.036,31.487 C158.453,31.487 158.812,31.3203 159.114,30.987 C159.218,30.862 159.333,30.7162 159.458,30.5495 L159.598,30.6432 C159.223,31.362 158.807,31.8307 158.348,32.0495 C158.109,32.1537 157.869,32.2057 157.63,32.2057 C156.984,32.2057 156.479,31.9401 156.114,31.4089 C155.854,31.0026 155.723,30.5287 155.723,29.987 M159.723,31.1432 C159.723,30.6328 160.041,30.2005 160.676,29.8464 C160.864,29.7526 161.364,29.5391 162.176,29.2057 C162.197,29.2057 162.213,29.2005 162.223,29.1901 L162.223,28.5807 C162.171,28.0599 161.916,27.7839 161.458,27.7526 C161.145,27.7526 160.926,27.8516 160.801,28.0495 C160.76,28.1224 160.739,28.1849 160.739,28.237 C160.739,28.2995 160.749,28.3828 160.77,28.487 C160.781,28.5599 160.786,28.612 160.786,28.6432 C160.786,28.8203 160.697,28.9453 160.52,29.0182 C160.458,29.0495 160.4,29.0651 160.348,29.0651 C160.161,29.0651 160.031,28.9766 159.958,28.7995 C159.926,28.7474 159.911,28.6901 159.911,28.6276 C159.911,28.263 160.13,27.9662 160.567,27.737 C160.869,27.5912 161.213,27.5182 161.598,27.5182 C162.317,27.5182 162.76,27.7735 162.926,28.2839 C162.999,28.5026 163.036,28.7787 163.036,29.112 L163.036,31.0495 C163.036,31.3828 163.098,31.5703 163.223,31.612 C163.265,31.6224 163.301,31.6276 163.333,31.6276 C163.479,31.6172 163.624,31.5547 163.77,31.4401 L163.77,31.6901 C163.499,32.0026 163.249,32.1745 163.02,32.2057 C162.968,32.2057 162.916,32.2057 162.864,32.2057 C162.551,32.2057 162.354,32.0495 162.27,31.737 C162.249,31.6537 162.239,31.5599 162.239,31.4557 C161.645,31.9349 161.156,32.1849 160.77,32.2057 C160.343,32.2057 160.036,32.0339 159.848,31.6901 C159.765,31.5235 159.723,31.3412 159.723,31.1432 M162.223,30.862 L162.223,29.4245 C161.4,29.7266 160.895,30.0339 160.708,30.3464 C160.635,30.4922 160.598,30.6485 160.598,30.8151 C160.598,31.211 160.744,31.461 161.036,31.5651 C161.109,31.5964 161.176,31.612 161.239,31.612 C161.458,31.6016 161.697,31.5235 161.958,31.3776 C162.104,31.2943 162.187,31.1901 162.208,31.0651 C162.218,31.0026 162.223,30.9349 162.223,30.862 M163.567,25.8776 L163.567,25.7214 C164.234,25.5547 164.765,25.4089 165.161,25.2839 L165.208,25.2995 L165.208,31.2682 C165.208,31.5807 165.27,31.7735 165.395,31.8464 C165.51,31.8985 165.697,31.9349 165.958,31.9557 L165.958,32.112 L163.598,32.112 L163.598,31.9557 C163.973,31.9245 164.203,31.836 164.286,31.6901 C164.338,31.5964 164.364,31.4453 164.364,31.237 L164.364,26.4714 C164.364,26.138 164.291,25.9453 164.145,25.8932 C164.083,25.8724 164.015,25.862 163.942,25.862 C163.807,25.862 163.682,25.8672 163.567,25.8776 M167.442,29.3464 C167.484,30.5235 167.869,31.2162 168.598,31.4245 C168.723,31.4662 168.859,31.487 169.005,31.487 C169.494,31.487 169.911,31.2787 170.255,30.862 C170.348,30.7474 170.447,30.612 170.551,30.4557 L170.708,30.5182 C170.343,31.4766 169.77,32.0287 168.989,32.1745 C168.854,32.1953 168.723,32.2057 168.598,32.2057 C167.859,32.2057 167.328,31.8932 167.005,31.2682 C166.817,30.8932 166.723,30.461 166.723,29.9714 C166.723,29.086 166.999,28.4141 167.551,27.9557 C167.916,27.6641 168.338,27.5182 168.817,27.5182 C169.734,27.5182 170.286,28.0391 170.473,29.0807 C170.494,29.1745 170.51,29.263 170.52,29.3464 L167.442,29.3464 M167.458,29.0495 L169.505,29.0495 C169.411,28.4766 169.244,28.1224 169.005,27.987 C168.88,27.9245 168.718,27.8932 168.52,27.8932 C167.926,27.8932 167.572,28.2682 167.458,29.0182 C167.458,29.0287 167.458,29.0391 167.458,29.0495 M175.926,27.5182 C176.666,27.5182 177.249,27.7891 177.676,28.3307 C177.979,28.737 178.13,29.2162 178.13,29.7682 C178.13,30.5495 177.874,31.1745 177.364,31.6432 C176.947,32.0182 176.463,32.2057 175.911,32.2057 C175.203,32.2057 174.64,31.9349 174.223,31.3932 C173.89,30.9557 173.723,30.4401 173.723,29.8464 C173.723,29.0339 173.999,28.4089 174.551,27.9714 C174.937,27.6693 175.395,27.5182 175.926,27.5182 M174.63,29.362 C174.63,30.2682 174.817,30.961 175.192,31.4401 C175.432,31.7526 175.713,31.9089 176.036,31.9089 C176.557,31.9089 176.916,31.612 177.114,31.0182 C177.197,30.7578 177.239,30.461 177.239,30.1276 C177.239,29.2422 177.025,28.586 176.598,28.1589 C176.369,27.9297 176.104,27.8151 175.801,27.8151 C175.333,27.8151 174.994,28.0547 174.786,28.5339 C174.682,28.7735 174.63,29.0495 174.63,29.362 M178.567,28.1276 L178.567,27.9557 C179.067,27.8099 179.531,27.6641 179.958,27.5182 L180.02,27.5339 L180.02,28.3151 C180.499,27.8776 180.874,27.6224 181.145,27.5495 C181.249,27.5287 181.359,27.5182 181.473,27.5182 C182.015,27.5182 182.374,27.7891 182.551,28.3307 C182.614,28.5287 182.645,28.7526 182.645,29.0026 L182.645,31.2995 C182.645,31.612 182.718,31.8047 182.864,31.8776 C182.958,31.9089 183.088,31.9349 183.255,31.9557 L183.255,32.112 L181.176,32.112 L181.176,31.9557 C181.479,31.9349 181.666,31.836 181.739,31.6589 C181.791,31.5443 181.817,31.3672 181.817,31.1276 L181.817,29.0339 C181.796,28.388 181.551,28.0599 181.083,28.0495 C180.833,28.0495 180.572,28.1641 180.301,28.3932 C180.229,28.4662 180.145,28.5443 180.051,28.6276 L180.051,31.4401 C180.051,31.6797 180.15,31.836 180.348,31.9089 C180.442,31.9297 180.562,31.9453 180.708,31.9557 L180.708,32.112 L178.598,32.112 L178.598,31.9557 C178.89,31.9349 179.072,31.8516 179.145,31.7057 C179.187,31.5912 179.208,31.4245 179.208,31.2057 L179.208,28.7214 C179.208,28.3568 179.135,28.1537 178.989,28.112 C178.947,28.0912 178.9,28.0807 178.848,28.0807 C178.723,28.0807 178.63,28.0964 178.567,28.1276 M184.442,29.3464 C184.484,30.5235 184.869,31.2162 185.598,31.4245 C185.723,31.4662 185.859,31.487 186.005,31.487 C186.494,31.487 186.911,31.2787 187.255,30.862 C187.348,30.7474 187.447,30.612 187.551,30.4557 L187.708,30.5182 C187.343,31.4766 186.77,32.0287 185.989,32.1745 C185.854,32.1953 185.723,32.2057 185.598,32.2057 C184.859,32.2057 184.328,31.8932 184.005,31.2682 C183.817,30.8932 183.723,30.461 183.723,29.9714 C183.723,29.086 183.999,28.4141 184.551,27.9557 C184.916,27.6641 185.338,27.5182 185.817,27.5182 C186.734,27.5182 187.286,28.0391 187.473,29.0807 C187.494,29.1745 187.51,29.263 187.52,29.3464 L184.442,29.3464 M184.458,29.0495 L186.505,29.0495 C186.411,28.4766 186.244,28.1224 186.005,27.987 C185.88,27.9245 185.718,27.8932 185.52,27.8932 C184.926,27.8932 184.572,28.2682 184.458,29.0182 C184.458,29.0287 184.458,29.0391 184.458,29.0495 M192.926,27.5182 C193.666,27.5182 194.249,27.7891 194.676,28.3307 C194.979,28.737 195.13,29.2162 195.13,29.7682 C195.13,30.5495 194.874,31.1745 194.364,31.6432 C193.947,32.0182 193.463,32.2057 192.911,32.2057 C192.203,32.2057 191.64,31.9349 191.223,31.3932 C190.89,30.9557 190.723,30.4401 190.723,29.8464 C190.723,29.0339 190.999,28.4089 191.551,27.9714 C191.937,27.6693 192.395,27.5182 192.926,27.5182 M191.63,29.362 C191.63,30.2682 191.817,30.961 192.192,31.4401 C192.432,31.7526 192.713,31.9089 193.036,31.9089 C193.557,31.9089 193.916,31.612 194.114,31.0182 C194.197,30.7578 194.239,30.461 194.239,30.1276 C194.239,29.2422 194.025,28.586 193.598,28.1589 C193.369,27.9297 193.104,27.8151 192.801,27.8151 C192.333,27.8151 191.994,28.0547 191.786,28.5339 C191.682,28.7735 191.63,29.0495 191.63,29.362 M195.723,29.987 C195.723,29.1432 196.01,28.4818 196.583,28.0026 C196.979,27.6797 197.421,27.5182 197.911,27.5182 C198.463,27.5182 198.89,27.6693 199.192,27.9714 C199.369,28.1485 199.458,28.3412 199.458,28.5495 C199.458,28.7266 199.364,28.8516 199.176,28.9245 C199.104,28.9557 199.036,28.9714 198.973,28.9714 C198.765,28.9714 198.614,28.836 198.52,28.5651 C198.51,28.5443 198.505,28.5235 198.505,28.5026 L198.442,28.2839 C198.38,28.0339 198.265,27.888 198.098,27.8464 C198.025,27.8255 197.942,27.8151 197.848,27.8151 C197.348,27.8151 196.968,28.0547 196.708,28.5339 C196.562,28.8255 196.489,29.1641 196.489,29.5495 C196.489,30.2787 196.713,30.8255 197.161,31.1901 C197.421,31.388 197.713,31.487 198.036,31.487 C198.453,31.487 198.812,31.3203 199.114,30.987 C199.218,30.862 199.333,30.7162 199.458,30.5495 L199.598,30.6432 C199.223,31.362 198.807,31.8307 198.348,32.0495 C198.109,32.1537 197.869,32.2057 197.63,32.2057 C196.984,32.2057 196.479,31.9401 196.114,31.4089 C195.854,31.0026 195.723,30.5287 195.723,29.987 M202.067,27.612 L202.067,27.9089 L201.051,27.9089 L201.051,30.7682 C201.051,31.3099 201.187,31.6068 201.458,31.6589 C201.489,31.6693 201.525,31.6745 201.567,31.6745 C201.775,31.6641 201.979,31.5443 202.176,31.3151 L202.301,31.4401 C201.979,31.9505 201.578,32.2057 201.098,32.2057 C200.515,32.1953 200.218,31.7735 200.208,30.9401 L200.208,27.9089 L199.676,27.9089 C199.656,27.888 199.645,27.8672 199.645,27.8464 C199.645,27.8047 199.687,27.763 199.77,27.7214 C200.051,27.5339 200.385,27.1693 200.77,26.6276 C200.781,26.6172 200.786,26.612 200.786,26.612 C200.89,26.4557 200.958,26.362 200.989,26.3307 C201.031,26.3412 201.051,26.3828 201.051,26.4557 L201.051,27.612 L202.067,27.612 M202.723,31.1432 C202.723,30.6328 203.041,30.2005 203.676,29.8464 C203.864,29.7526 204.364,29.5391 205.176,29.2057 C205.197,29.2057 205.213,29.2005 205.223,29.1901 L205.223,28.5807 C205.171,28.0599 204.916,27.7839 204.458,27.7526 C204.145,27.7526 203.926,27.8516 203.801,28.0495 C203.76,28.1224 203.739,28.1849 203.739,28.237 C203.739,28.2995 203.749,28.3828 203.77,28.487 C203.781,28.5599 203.786,28.612 203.786,28.6432 C203.786,28.8203 203.697,28.9453 203.52,29.0182 C203.458,29.0495 203.4,29.0651 203.348,29.0651 C203.161,29.0651 203.031,28.9766 202.958,28.7995 C202.926,28.7474 202.911,28.6901 202.911,28.6276 C202.911,28.263 203.13,27.9662 203.567,27.737 C203.869,27.5912 204.213,27.5182 204.598,27.5182 C205.317,27.5182 205.76,27.7735 205.926,28.2839 C205.999,28.5026 206.036,28.7787 206.036,29.112 L206.036,31.0495 C206.036,31.3828 206.098,31.5703 206.223,31.612 C206.265,31.6224 206.301,31.6276 206.333,31.6276 C206.479,31.6172 206.624,31.5547 206.77,31.4401 L206.77,31.6901 C206.499,32.0026 206.249,32.1745 206.02,32.2057 C205.968,32.2057 205.916,32.2057 205.864,32.2057 C205.551,32.2057 205.354,32.0495 205.27,31.737 C205.249,31.6537 205.239,31.5599 205.239,31.4557 C204.645,31.9349 204.156,32.1849 203.77,32.2057 C203.343,32.2057 203.036,32.0339 202.848,31.6901 C202.765,31.5235 202.723,31.3412 202.723,31.1432 M205.223,30.862 L205.223,29.4245 C204.4,29.7266 203.895,30.0339 203.708,30.3464 C203.635,30.4922 203.598,30.6485 203.598,30.8151 C203.598,31.211 203.744,31.461 204.036,31.5651 C204.109,31.5964 204.176,31.612 204.239,31.612 C204.458,31.6016 204.697,31.5235 204.958,31.3776 C205.104,31.2943 205.187,31.1901 205.208,31.0651 C205.218,31.0026 205.223,30.9349 205.223,30.862 M211.098,27.612 L211.098,27.7682 C210.932,27.7891 210.807,27.8568 210.723,27.9714 C210.65,28.0755 210.562,28.2682 210.458,28.5495 L209.176,31.7526 C209.041,32.0755 208.947,32.2422 208.895,32.2526 C208.822,32.2526 208.739,32.1068 208.645,31.8151 C208.635,31.8047 208.63,31.7943 208.63,31.7839 L207.426,28.9089 C207.176,28.3151 206.989,27.9662 206.864,27.862 C206.781,27.7995 206.666,27.7682 206.52,27.7682 L206.52,27.612 L208.489,27.612 L208.489,27.7682 C208.208,27.7891 208.057,27.862 208.036,27.987 C208.025,28.0078 208.02,28.0287 208.02,28.0495 C208.02,28.1641 208.051,28.2839 208.114,28.4089 L209.13,30.9714 L210.114,28.3776 C210.156,28.2839 210.176,28.1849 210.176,28.0807 C210.176,27.9037 210.031,27.7995 209.739,27.7682 C209.729,27.7682 209.718,27.7682 209.708,27.7682 L209.708,27.612 L211.098,27.612 M212.442,29.3464 C212.484,30.5235 212.869,31.2162 213.598,31.4245 C213.723,31.4662 213.859,31.487 214.005,31.487 C214.494,31.487 214.911,31.2787 215.255,30.862 C215.348,30.7474 215.447,30.612 215.551,30.4557 L215.708,30.5182 C215.343,31.4766 214.77,32.0287 213.989,32.1745 C213.854,32.1953 213.723,32.2057 213.598,32.2057 C212.859,32.2057 212.328,31.8932 212.005,31.2682 C211.817,30.8932 211.723,30.461 211.723,29.9714 C211.723,29.086 211.999,28.4141 212.551,27.9557 C212.916,27.6641 213.338,27.5182 213.817,27.5182 C214.734,27.5182 215.286,28.0391 215.473,29.0807 C215.494,29.1745 215.51,29.263 215.52,29.3464 L212.442,29.3464 M212.458,29.0495 L214.505,29.0495 C214.411,28.4766 214.244,28.1224 214.005,27.987 C213.88,27.9245 213.718,27.8932 213.52,27.8932 C212.926,27.8932 212.572,28.2682 212.458,29.0182 C212.458,29.0287 212.458,29.0391 212.458,29.0495"/>
</svg>
