<?xml version="1.0" encoding="UTF-8" standalone="no"?>
<svg width="595.44px" height="841.68px" viewBox="0 0 595.44 841.68"
 xmlns="http://www.w3.org/2000/svg" xmlns:xlink="http://www.w3.org/1999/xlink" version="1.2" baseProfile="tiny">
<title>Guitar Scales and Arpeggios</title>
<desc>Generated by MuseScore 2.1.0</desc>
<polyline class="StaffLines" fill="none" stroke="#000000" stroke-width="0.40" stroke-linejoin="bevel" points="28.08,62.856 567.36,62.856"/>
<polyline class="StaffLines" fill="none" stroke="#000000" stroke-width="0.40" stroke-linejoin="bevel" points="28.08,67.824 567.36,67.824"/>
<polyline class="StaffLines" fill="none" stroke="#000000" stroke-width="0.40" stroke-linejoin="bevel" points="28.08,72.792 567.36,72.792"/>
<polyline class="StaffLines" fill="none" stroke="#000000" stroke-width="0.40" stroke-linejoin="bevel" points="28.08,77.76 567.36,77.76"/>
<polyline class="StaffLines" fill="none" stroke="#000000" stroke-width="0.40" stroke-linejoin="bevel" points="28.08,82.728 567.36,82.728"/>
<polyline class="StaffLines" fill="none" stroke="#000000" stroke-width="0.40" stroke-linejoin="bevel" points="28.08,115.02 567.36,115.02"/>
<polyline class="StaffLines" fill="none" stroke="#000000" stroke-width="0.40" stroke-linejoin="bevel" points="28.08,122.472 567.36,122.472"/>
<polyline class="StaffLines" fill="none" stroke="#000000" stroke-width="0.40" stroke-linejoin="bevel" points="28.08,129.924 567.36,129.924"/>
<polyline class="StaffLines" fill="none" stroke="#000000" stroke-width="0.40" stroke-linejoin="bevel" points="28.08,137.376 567.36,137.376"/>
<polyline class="StaffLines" fill="none" stroke="#000000" stroke-width="0.40" stroke-linejoin="bevel" points="28.08,144.828 567.36,144.828"/>
<polyline class="StaffLines" fill="none" stroke="#000000" stroke-width="0.40" stroke-linejoin="bevel" points="28.08,152.28 567.36,152.28"/>
<polyline class="BarLine" fill="none" stroke="#000000" stroke-width="0.79" stroke-linejoin="bevel" points="28.4774,62.856 28.4774,152.28"/>
<polyline class="BarLine" fill="none" stroke="#000000" stroke-width="0.79" stroke-linejoin="bevel" points="562.491,115.02 562.491,152.28"/>
<polyline class="BarLine" fill="none" stroke="#000000" stroke-width="2.48" stroke-linejoin="bevel" points="566.118,115.02 566.118,152.28"/>
<polyline class="BarLine" fill="none" stroke="#000000" stroke-width="0.79" stroke-linejoin="bevel" points="562.491,62.856 562.491,82.728"/>
<polyline class="BarLine" fill="none" stroke="#000000" stroke-width="2.48" stroke-linejoin="bevel" points="566.118,62.856 566.118,82.728"/>
<polyline class="LedgerLine" fill="none" stroke="#000000" stroke-width="0.79" stroke-linecap="square" stroke-linejoin="bevel" points="348.595,57.888 358.116,57.888"/>
<polyline class="LedgerLine" fill="none" stroke="#000000" stroke-width="0.79" stroke-linecap="square" stroke-linejoin="bevel" points="316.473,57.888 325.994,57.888"/>
<polyline class="LedgerLine" fill="none" stroke="#000000" stroke-width="0.79" stroke-linecap="square" stroke-linejoin="bevel" points="284.35,52.92 293.871,52.92"/>
<polyline class="LedgerLine" fill="none" stroke="#000000" stroke-width="0.79" stroke-linecap="square" stroke-linejoin="bevel" points="284.35,57.888 293.871,57.888"/>
<polyline class="LedgerLine" fill="none" stroke="#000000" stroke-width="0.79" stroke-linecap="square" stroke-linejoin="bevel" points="252.228,57.888 261.749,57.888"/>
<polyline class="LedgerLine" fill="none" stroke="#000000" stroke-width="0.79" stroke-linecap="square" stroke-linejoin="bevel" points="220.105,57.888 229.626,57.888"/>
<polyline class="Stem" fill="none" stroke="#000000" stroke-width="0.65" stroke-linecap="round" stroke-linejoin="bevel" points="510.842,71.087 510.842,86.454"/>
<polyline class="Stem" fill="none" stroke="#000000" stroke-width="0.65" stroke-linecap="round" stroke-linejoin="bevel" points="478.898,68.7571 478.898,84.591"/>
<polyline class="Stem" fill="none" stroke="#000000" stroke-width="0.65" stroke-linecap="round" stroke-linejoin="bevel" points="446.776,66.2731 446.776,82.728"/>
<polyline class="Stem" fill="none" stroke="#000000" stroke-width="0.65" stroke-linecap="round" stroke-linejoin="bevel" points="414.653,63.7891 414.653,80.244"/>
<polyline class="Stem" fill="none" stroke="#000000" stroke-width="0.65" stroke-linecap="round" stroke-linejoin="bevel" points="382.531,61.3051 382.531,77.76"/>
<polyline class="Stem" fill="none" stroke="#000000" stroke-width="0.65" stroke-linecap="round" stroke-linejoin="bevel" points="350.408,58.8211 350.408,75.276"/>
<polyline class="Stem" fill="none" stroke="#000000" stroke-width="0.65" stroke-linecap="round" stroke-linejoin="bevel" points="318.286,56.3371 318.286,72.792"/>
<polyline class="Stem" fill="none" stroke="#000000" stroke-width="0.65" stroke-linecap="round" stroke-linejoin="bevel" points="286.163,53.8531 286.163,72.792"/>
<polyline class="Stem" fill="none" stroke="#000000" stroke-width="0.65" stroke-linecap="round" stroke-linejoin="bevel" points="254.041,56.3371 254.041,72.792"/>
<polyline class="Stem" fill="none" stroke="#000000" stroke-width="0.65" stroke-linecap="round" stroke-linejoin="bevel" points="221.918,58.8211 221.918,75.276"/>
<polyline class="Stem" fill="none" stroke="#000000" stroke-width="0.65" stroke-linecap="round" stroke-linejoin="bevel" points="189.796,61.3051 189.796,77.76"/>
<polyline class="Stem" fill="none" stroke="#000000" stroke-width="0.65" stroke-linecap="round" stroke-linejoin="bevel" points="157.673,63.7891 157.673,80.244"/>
<polyline class="Stem" fill="none" stroke="#000000" stroke-width="0.65" stroke-linecap="round" stroke-linejoin="bevel" points="125.551,66.2731 125.551,82.728"/>
<polyline class="Stem" fill="none" stroke="#000000" stroke-width="0.65" stroke-linecap="round" stroke-linejoin="bevel" points="93.4283,68.7571 93.4283,84.591"/>
<polyline class="Stem" fill="none" stroke="#000000" stroke-width="0.65" stroke-linecap="round" stroke-linejoin="bevel" points="61.3058,71.2411 61.3058,86.454"/>
<path class="Note" fill="#ffffff" fill-rule="evenodd" d="M511.443,126.198 L517.405,126.198 L517.405,133.65 L511.443,133.65 L511.443,126.198 "/>
<path class="Note" transform="matrix(0.9936,0,0,0.9936,511.94,133.402)" d="M4.28125,-6.39063 L4.28125,-5.64063 L1.625,-5.64063 L1.375,-3.8125 C1.73958,-4.09375 2.13542,-4.23438 2.5625,-4.23438 C3.28125,-4.23438 3.83333,-3.97396 4.21875,-3.45313 C4.48958,-3.07813 4.625,-2.625 4.625,-2.09375 C4.625,-1.3125 4.35938,-0.708333 3.82813,-0.28125 C3.44271,0.0416667 2.97917,0.203125 2.4375,0.203125 C1.26042,0.203125 0.557292,-0.359375 0.328125,-1.48438 C0.328125,-1.50521 0.322917,-1.53125 0.3125,-1.5625 L1.10938,-1.5625 C1.30729,-0.885417 1.73958,-0.541667 2.40625,-0.53125 C3.02083,-0.53125 3.44271,-0.770833 3.67188,-1.25 C3.76563,-1.46875 3.8125,-1.71354 3.8125,-1.98438 C3.8125,-2.63021 3.58333,-3.07813 3.125,-3.32813 C2.91667,-3.44271 2.67708,-3.5 2.40625,-3.5 C2.03125,-3.5 1.70833,-3.38021 1.4375,-3.14063 C1.375,-3.07813 1.3125,-3.01042 1.25,-2.9375 L0.515625,-2.9375 L0.984375,-6.39063 L4.28125,-6.39063 "/>
<path class="Note" fill="#ed2929" transform="matrix(0.9936,0,0,0.9936,510.519,70.308)" d="M6.3125,-1.3125 C6.3125,-1.53125 6.22917,-1.71875 6.0625,-1.875 C5.88542,-2.04167 5.6875,-2.125 5.46875,-2.125 C5.08333,-2.125 4.29688,-1.73438 3.10938,-0.953125 C1.88021,-0.161458 1.13021,0.40625 0.859375,0.75 C0.713542,0.927083 0.640625,1.11458 0.640625,1.3125 C0.640625,1.53125 0.729167,1.71875 0.90625,1.875 C1.0625,2.04167 1.25521,2.125 1.48438,2.125 C1.85938,2.125 2.65625,1.73438 3.875,0.953125 C5.07292,0.171875 5.8125,-0.395833 6.09375,-0.75 C6.23958,-0.916667 6.3125,-1.10417 6.3125,-1.3125 M5.28125,-2.75 C6.39583,-2.75 6.95313,-2.27083 6.95313,-1.3125 C6.95313,-0.84375 6.81771,-0.296875 6.54688,0.328125 C6.27604,0.942708 5.91146,1.41146 5.45313,1.73438 C4.45313,2.41146 3.19792,2.75 1.6875,2.75 C0.5625,2.75 0,2.27083 0,1.3125 C0,0.885417 0.135417,0.34375 0.40625,-0.3125 C0.666667,-0.9375 1.03125,-1.41146 1.5,-1.73438 C2.51042,-2.41146 3.77083,-2.75 5.28125,-2.75"/>
<path class="Note" fill="#ffffff" fill-rule="evenodd" d="M479.321,126.198 L485.282,126.198 L485.282,133.65 L479.321,133.65 L479.321,126.198 "/>
<path class="Note" transform="matrix(0.9936,0,0,0.9936,479.817,133.402)" d="M4.6875,-6.39063 L4.6875,-5.75 C3.46875,-4.125 2.66146,-2.49479 2.26563,-0.859375 C2.19271,-0.578125 2.13542,-0.291667 2.09375,0 L1.25,0 C1.54167,-1.32292 1.96875,-2.5 2.53125,-3.53125 C2.86458,-4.14583 3.30729,-4.84896 3.85938,-5.64063 L0.421875,-5.64063 L0.421875,-6.39063 L4.6875,-6.39063 "/>
<path class="Note" fill="#78c7c7" transform="matrix(0.9936,0,0,0.9936,478.575,67.824)" d="M4.39063,-2.75 C5.01563,-2.75 5.54688,-2.58854 5.98438,-2.26563 C6.38021,-1.91146 6.57813,-1.46875 6.57813,-0.9375 C6.57813,-0.0416667 6.11979,0.796875 5.20313,1.57813 C4.26563,2.35938 3.26042,2.75 2.1875,2.75 C1.5625,2.75 1.03646,2.58854 0.609375,2.26563 C0.203125,1.91146 0,1.46875 0,0.9375 C0,0.0416667 0.46875,-0.796875 1.40625,-1.57813 C2.32292,-2.35938 3.31771,-2.75 4.39063,-2.75"/>
<path class="Note" fill="#ffffff" fill-rule="evenodd" d="M447.198,118.746 L453.16,118.746 L453.16,126.198 L447.198,126.198 L447.198,118.746 "/>
<path class="Note" transform="matrix(0.9936,0,0,0.9936,447.695,125.95)" d="M4.28125,-6.39063 L4.28125,-5.64063 L1.625,-5.64063 L1.375,-3.8125 C1.73958,-4.09375 2.13542,-4.23438 2.5625,-4.23438 C3.28125,-4.23438 3.83333,-3.97396 4.21875,-3.45313 C4.48958,-3.07813 4.625,-2.625 4.625,-2.09375 C4.625,-1.3125 4.35938,-0.708333 3.82813,-0.28125 C3.44271,0.0416667 2.97917,0.203125 2.4375,0.203125 C1.26042,0.203125 0.557292,-0.359375 0.328125,-1.48438 C0.328125,-1.50521 0.322917,-1.53125 0.3125,-1.5625 L1.10938,-1.5625 C1.30729,-0.885417 1.73958,-0.541667 2.40625,-0.53125 C3.02083,-0.53125 3.44271,-0.770833 3.67188,-1.25 C3.76563,-1.46875 3.8125,-1.71354 3.8125,-1.98438 C3.8125,-2.63021 3.58333,-3.07813 3.125,-3.32813 C2.91667,-3.44271 2.67708,-3.5 2.40625,-3.5 C2.03125,-3.5 1.70833,-3.38021 1.4375,-3.14063 C1.375,-3.07813 1.3125,-3.01042 1.25,-2.9375 L0.515625,-2.9375 L0.984375,-6.39063 L4.28125,-6.39063 "/>
<path class="Note" fill="#ff9933" transform="matrix(0.9936,0,0,0.9936,446.453,65.34)" d="M4.39063,-2.75 C5.01563,-2.75 5.54688,-2.58854 5.98438,-2.26563 C6.38021,-1.91146 6.57813,-1.46875 6.57813,-0.9375 C6.57813,-0.0416667 6.11979,0.796875 5.20313,1.57813 C4.26563,2.35938 3.26042,2.75 2.1875,2.75 C1.5625,2.75 1.03646,2.58854 0.609375,2.26563 C0.203125,1.91146 0,1.46875 0,0.9375 C0,0.0416667 0.46875,-0.796875 1.40625,-1.57813 C2.32292,-2.35938 3.31771,-2.75 4.39063,-2.75"/>
<path class="Note" fill="#ffffff" fill-rule="evenodd" d="M415.076,118.746 L421.037,118.746 L421.037,126.198 L415.076,126.198 L415.076,118.746 "/>
<path class="Note" transform="matrix(0.9936,0,0,0.9936,415.572,125.95)" d="M0.390625,-2.90625 C0.390625,-4.76042 0.901042,-5.875 1.92188,-6.25 C2.16146,-6.34375 2.41146,-6.39063 2.67188,-6.39063 C3.35938,-6.39063 3.86979,-6.10938 4.20313,-5.54688 C4.33854,-5.30729 4.43229,-5.03125 4.48438,-4.71875 L3.6875,-4.71875 C3.58333,-5.22917 3.3125,-5.53125 2.875,-5.625 C2.79167,-5.63542 2.70833,-5.64063 2.625,-5.64063 C1.95833,-5.64063 1.52083,-5.21875 1.3125,-4.375 C1.23958,-4.04167 1.20313,-3.67188 1.20313,-3.26563 C1.55729,-3.75521 2.04688,-4 2.67188,-4 C3.33854,-4 3.85417,-3.75 4.21875,-3.25 C4.48958,-2.88542 4.625,-2.45833 4.625,-1.96875 C4.625,-1.23958 4.375,-0.671875 3.875,-0.265625 C3.5,0.046875 3.05208,0.203125 2.53125,0.203125 C1.10417,0.192708 0.390625,-0.84375 0.390625,-2.90625 M2.5625,-3.26563 C2.05208,-3.26563 1.67708,-3.07292 1.4375,-2.6875 C1.3125,-2.46875 1.25,-2.21875 1.25,-1.9375 C1.25,-1.4375 1.43229,-1.04688 1.79688,-0.765625 C2.00521,-0.609375 2.25,-0.53125 2.53125,-0.53125 C2.98958,-0.53125 3.33854,-0.71875 3.57813,-1.09375 C3.73438,-1.33333 3.8125,-1.60417 3.8125,-1.90625 C3.8125,-2.51042 3.59896,-2.92188 3.17188,-3.14063 C2.99479,-3.22396 2.79167,-3.26563 2.5625,-3.26563"/>
<path class="Note" fill="#ebeb19" transform="matrix(0.9936,0,0,0.9936,414.33,62.856)" d="M4.39063,-2.75 C5.01563,-2.75 5.54688,-2.58854 5.98438,-2.26563 C6.38021,-1.91146 6.57813,-1.46875 6.57813,-0.9375 C6.57813,-0.0416667 6.11979,0.796875 5.20313,1.57813 C4.26563,2.35938 3.26042,2.75 2.1875,2.75 C1.5625,2.75 1.03646,2.58854 0.609375,2.26563 C0.203125,1.91146 0,1.46875 0,0.9375 C0,0.0416667 0.46875,-0.796875 1.40625,-1.57813 C2.32292,-2.35938 3.31771,-2.75 4.39063,-2.75"/>
<path class="Note" fill="#ffffff" fill-rule="evenodd" d="M382.953,118.746 L388.915,118.746 L388.915,126.198 L382.953,126.198 L382.953,118.746 "/>
<path class="Note" transform="matrix(0.9936,0,0,0.9936,383.45,125.95)" d="M3.51563,-3.39063 C4.24479,-3.03646 4.61458,-2.5 4.625,-1.78125 C4.625,-1.10417 4.36458,-0.583333 3.84375,-0.21875 C3.46875,0.0625 3.01042,0.203125 2.46875,0.203125 C1.72917,0.203125 1.15625,-0.0416667 0.75,-0.53125 C0.46875,-0.885417 0.328125,-1.30729 0.328125,-1.79688 C0.338542,-2.51563 0.703125,-3.04688 1.42188,-3.39063 C0.994792,-3.66146 0.729167,-3.9375 0.625,-4.21875 C0.583333,-4.35417 0.5625,-4.51563 0.5625,-4.70313 C0.5625,-5.28646 0.802083,-5.73438 1.28125,-6.04688 C1.625,-6.27604 2.02083,-6.39063 2.46875,-6.39063 C3.16667,-6.39063 3.69271,-6.16146 4.04688,-5.70313 C4.27604,-5.41146 4.39063,-5.07813 4.39063,-4.70313 C4.39063,-4.29688 4.25521,-3.97396 3.98438,-3.73438 C3.86979,-3.61979 3.71354,-3.50521 3.51563,-3.39063 M2.46875,-5.64063 C1.98958,-5.64063 1.65625,-5.47396 1.46875,-5.14063 C1.40625,-5.00521 1.375,-4.85417 1.375,-4.6875 C1.375,-4.29167 1.55729,-4.01563 1.92188,-3.85938 C2.08854,-3.78646 2.27083,-3.75 2.46875,-3.75 C2.95833,-3.75 3.29167,-3.91146 3.46875,-4.23438 C3.54167,-4.36979 3.57813,-4.52083 3.57813,-4.6875 C3.57813,-5.11458 3.38542,-5.40104 3,-5.54688 C2.84375,-5.60938 2.66667,-5.64063 2.46875,-5.64063 M2.46875,-3 C1.9375,-3 1.55729,-2.8125 1.32813,-2.4375 C1.20313,-2.23958 1.14063,-2.02083 1.14063,-1.78125 C1.14063,-1.29167 1.33854,-0.932292 1.73438,-0.703125 C1.94271,-0.588542 2.18229,-0.53125 2.45313,-0.53125 C3.00521,-0.53125 3.39583,-0.723958 3.625,-1.10938 C3.75,-1.30729 3.8125,-1.53125 3.8125,-1.78125 C3.8125,-2.26042 3.60938,-2.61458 3.20313,-2.84375 C2.98438,-2.94792 2.73958,-3 2.46875,-3"/>
<path class="Note" fill="#99cc33" transform="matrix(0.9936,0,0,0.9936,382.208,60.372)" d="M4.39063,-2.75 C5.01563,-2.75 5.54688,-2.58854 5.98438,-2.26563 C6.38021,-1.91146 6.57813,-1.46875 6.57813,-0.9375 C6.57813,-0.0416667 6.11979,0.796875 5.20313,1.57813 C4.26563,2.35938 3.26042,2.75 2.1875,2.75 C1.5625,2.75 1.03646,2.58854 0.609375,2.26563 C0.203125,1.91146 0,1.46875 0,0.9375 C0,0.0416667 0.46875,-0.796875 1.40625,-1.57813 C2.32292,-2.35938 3.31771,-2.75 4.39063,-2.75"/>
<path class="Note" fill="#ffffff" fill-rule="evenodd" d="M350.831,111.294 L356.792,111.294 L356.792,118.746 L350.831,118.746 L350.831,111.294 "/>
<path class="Note" transform="matrix(0.9936,0,0,0.9936,351.327,118.498)" d="M4.28125,-6.39063 L4.28125,-5.64063 L1.625,-5.64063 L1.375,-3.8125 C1.73958,-4.09375 2.13542,-4.23438 2.5625,-4.23438 C3.28125,-4.23438 3.83333,-3.97396 4.21875,-3.45313 C4.48958,-3.07813 4.625,-2.625 4.625,-2.09375 C4.625,-1.3125 4.35938,-0.708333 3.82813,-0.28125 C3.44271,0.0416667 2.97917,0.203125 2.4375,0.203125 C1.26042,0.203125 0.557292,-0.359375 0.328125,-1.48438 C0.328125,-1.50521 0.322917,-1.53125 0.3125,-1.5625 L1.10938,-1.5625 C1.30729,-0.885417 1.73958,-0.541667 2.40625,-0.53125 C3.02083,-0.53125 3.44271,-0.770833 3.67188,-1.25 C3.76563,-1.46875 3.8125,-1.71354 3.8125,-1.98438 C3.8125,-2.63021 3.58333,-3.07813 3.125,-3.32813 C2.91667,-3.44271 2.67708,-3.5 2.40625,-3.5 C2.03125,-3.5 1.70833,-3.38021 1.4375,-3.14063 C1.375,-3.07813 1.3125,-3.01042 1.25,-2.9375 L0.515625,-2.9375 L0.984375,-6.39063 L4.28125,-6.39063 "/>
<path class="Note" fill="#cc00ff" transform="matrix(0.9936,0,0,0.9936,350.085,57.888)" d="M4.39063,-2.75 C5.01563,-2.75 5.54688,-2.58854 5.98438,-2.26563 C6.38021,-1.91146 6.57813,-1.46875 6.57813,-0.9375 C6.57813,-0.0416667 6.11979,0.796875 5.20313,1.57813 C4.26563,2.35938 3.26042,2.75 2.1875,2.75 C1.5625,2.75 1.03646,2.58854 0.609375,2.26563 C0.203125,1.91146 0,1.46875 0,0.9375 C0,0.0416667 0.46875,-0.796875 1.40625,-1.57813 C2.32292,-2.35938 3.31771,-2.75 4.39063,-2.75"/>
<path class="Note" fill="#ffffff" fill-rule="evenodd" d="M318.708,111.294 L324.67,111.294 L324.67,118.746 L318.708,118.746 L318.708,111.294 "/>
<path class="Note" transform="matrix(0.9936,0,0,0.9936,319.205,118.498)" d="M4.6875,-6.39063 L4.6875,-5.75 C3.46875,-4.125 2.66146,-2.49479 2.26563,-0.859375 C2.19271,-0.578125 2.13542,-0.291667 2.09375,0 L1.25,0 C1.54167,-1.32292 1.96875,-2.5 2.53125,-3.53125 C2.86458,-4.14583 3.30729,-4.84896 3.85938,-5.64063 L0.421875,-5.64063 L0.421875,-6.39063 L4.6875,-6.39063 "/>
<path class="Note" fill="#ff9ee6" transform="matrix(0.9936,0,0,0.9936,317.963,55.404)" d="M4.39063,-2.75 C5.01563,-2.75 5.54688,-2.58854 5.98438,-2.26563 C6.38021,-1.91146 6.57813,-1.46875 6.57813,-0.9375 C6.57813,-0.0416667 6.11979,0.796875 5.20313,1.57813 C4.26563,2.35938 3.26042,2.75 2.1875,2.75 C1.5625,2.75 1.03646,2.58854 0.609375,2.26563 C0.203125,1.91146 0,1.46875 0,0.9375 C0,0.0416667 0.46875,-0.796875 1.40625,-1.57813 C2.32292,-2.35938 3.31771,-2.75 4.39063,-2.75"/>
<path class="Note" fill="#ffffff" fill-rule="evenodd" d="M286.586,111.294 L292.547,111.294 L292.547,118.746 L286.586,118.746 L286.586,111.294 "/>
<path class="Note" transform="matrix(0.9936,0,0,0.9936,287.082,118.498)" d="M3.51563,-3.39063 C4.24479,-3.03646 4.61458,-2.5 4.625,-1.78125 C4.625,-1.10417 4.36458,-0.583333 3.84375,-0.21875 C3.46875,0.0625 3.01042,0.203125 2.46875,0.203125 C1.72917,0.203125 1.15625,-0.0416667 0.75,-0.53125 C0.46875,-0.885417 0.328125,-1.30729 0.328125,-1.79688 C0.338542,-2.51563 0.703125,-3.04688 1.42188,-3.39063 C0.994792,-3.66146 0.729167,-3.9375 0.625,-4.21875 C0.583333,-4.35417 0.5625,-4.51563 0.5625,-4.70313 C0.5625,-5.28646 0.802083,-5.73438 1.28125,-6.04688 C1.625,-6.27604 2.02083,-6.39063 2.46875,-6.39063 C3.16667,-6.39063 3.69271,-6.16146 4.04688,-5.70313 C4.27604,-5.41146 4.39063,-5.07813 4.39063,-4.70313 C4.39063,-4.29688 4.25521,-3.97396 3.98438,-3.73438 C3.86979,-3.61979 3.71354,-3.50521 3.51563,-3.39063 M2.46875,-5.64063 C1.98958,-5.64063 1.65625,-5.47396 1.46875,-5.14063 C1.40625,-5.00521 1.375,-4.85417 1.375,-4.6875 C1.375,-4.29167 1.55729,-4.01563 1.92188,-3.85938 C2.08854,-3.78646 2.27083,-3.75 2.46875,-3.75 C2.95833,-3.75 3.29167,-3.91146 3.46875,-4.23438 C3.54167,-4.36979 3.57813,-4.52083 3.57813,-4.6875 C3.57813,-5.11458 3.38542,-5.40104 3,-5.54688 C2.84375,-5.60938 2.66667,-5.64063 2.46875,-5.64063 M2.46875,-3 C1.9375,-3 1.55729,-2.8125 1.32813,-2.4375 C1.20313,-2.23958 1.14063,-2.02083 1.14063,-1.78125 C1.14063,-1.29167 1.33854,-0.932292 1.73438,-0.703125 C1.94271,-0.588542 2.18229,-0.53125 2.45313,-0.53125 C3.00521,-0.53125 3.39583,-0.723958 3.625,-1.10938 C3.75,-1.30729 3.8125,-1.53125 3.8125,-1.78125 C3.8125,-2.26042 3.60938,-2.61458 3.20313,-2.84375 C2.98438,-2.94792 2.73958,-3 2.46875,-3"/>
<path class="Note" fill="#ed2929" transform="matrix(0.9936,0,0,0.9936,285.84,52.92)" d="M4.39063,-2.75 C5.01563,-2.75 5.54688,-2.58854 5.98438,-2.26563 C6.38021,-1.91146 6.57813,-1.46875 6.57813,-0.9375 C6.57813,-0.0416667 6.11979,0.796875 5.20313,1.57813 C4.26563,2.35938 3.26042,2.75 2.1875,2.75 C1.5625,2.75 1.03646,2.58854 0.609375,2.26563 C0.203125,1.91146 0,1.46875 0,0.9375 C0,0.0416667 0.46875,-0.796875 1.40625,-1.57813 C2.32292,-2.35938 3.31771,-2.75 4.39063,-2.75"/>
<path class="Note" fill="#ffffff" fill-rule="evenodd" d="M254.463,111.294 L260.425,111.294 L260.425,118.746 L254.463,118.746 L254.463,111.294 "/>
<path class="Note" transform="matrix(0.9936,0,0,0.9936,254.96,118.498)" d="M4.6875,-6.39063 L4.6875,-5.75 C3.46875,-4.125 2.66146,-2.49479 2.26563,-0.859375 C2.19271,-0.578125 2.13542,-0.291667 2.09375,0 L1.25,0 C1.54167,-1.32292 1.96875,-2.5 2.53125,-3.53125 C2.86458,-4.14583 3.30729,-4.84896 3.85938,-5.64063 L0.421875,-5.64063 L0.421875,-6.39063 L4.6875,-6.39063 "/>
<path class="Note" fill="#ff9ee6" transform="matrix(0.9936,0,0,0.9936,253.718,55.404)" d="M4.39063,-2.75 C5.01563,-2.75 5.54688,-2.58854 5.98438,-2.26563 C6.38021,-1.91146 6.57813,-1.46875 6.57813,-0.9375 C6.57813,-0.0416667 6.11979,0.796875 5.20313,1.57813 C4.26563,2.35938 3.26042,2.75 2.1875,2.75 C1.5625,2.75 1.03646,2.58854 0.609375,2.26563 C0.203125,1.91146 0,1.46875 0,0.9375 C0,0.0416667 0.46875,-0.796875 1.40625,-1.57813 C2.32292,-2.35938 3.31771,-2.75 4.39063,-2.75"/>
<path class="Note" fill="#ffffff" fill-rule="evenodd" d="M222.341,111.294 L228.302,111.294 L228.302,118.746 L222.341,118.746 L222.341,111.294 "/>
<path class="Note" transform="matrix(0.9936,0,0,0.9936,222.837,118.498)" d="M4.28125,-6.39063 L4.28125,-5.64063 L1.625,-5.64063 L1.375,-3.8125 C1.73958,-4.09375 2.13542,-4.23438 2.5625,-4.23438 C3.28125,-4.23438 3.83333,-3.97396 4.21875,-3.45313 C4.48958,-3.07813 4.625,-2.625 4.625,-2.09375 C4.625,-1.3125 4.35938,-0.708333 3.82813,-0.28125 C3.44271,0.0416667 2.97917,0.203125 2.4375,0.203125 C1.26042,0.203125 0.557292,-0.359375 0.328125,-1.48438 C0.328125,-1.50521 0.322917,-1.53125 0.3125,-1.5625 L1.10938,-1.5625 C1.30729,-0.885417 1.73958,-0.541667 2.40625,-0.53125 C3.02083,-0.53125 3.44271,-0.770833 3.67188,-1.25 C3.76563,-1.46875 3.8125,-1.71354 3.8125,-1.98438 C3.8125,-2.63021 3.58333,-3.07813 3.125,-3.32813 C2.91667,-3.44271 2.67708,-3.5 2.40625,-3.5 C2.03125,-3.5 1.70833,-3.38021 1.4375,-3.14063 C1.375,-3.07813 1.3125,-3.01042 1.25,-2.9375 L0.515625,-2.9375 L0.984375,-6.39063 L4.28125,-6.39063 "/>
<path class="Note" fill="#cc00ff" transform="matrix(0.9936,0,0,0.9936,221.595,57.888)" d="M4.39063,-2.75 C5.01563,-2.75 5.54688,-2.58854 5.98438,-2.26563 C6.38021,-1.91146 6.57813,-1.46875 6.57813,-0.9375 C6.57813,-0.0416667 6.11979,0.796875 5.20313,1.57813 C4.26563,2.35938 3.26042,2.75 2.1875,2.75 C1.5625,2.75 1.03646,2.58854 0.609375,2.26563 C0.203125,1.91146 0,1.46875 0,0.9375 C0,0.0416667 0.46875,-0.796875 1.40625,-1.57813 C2.32292,-2.35938 3.31771,-2.75 4.39063,-2.75"/>
<path class="Note" fill="#ffffff" fill-rule="evenodd" d="M190.218,118.746 L196.18,118.746 L196.18,126.198 L190.218,126.198 L190.218,118.746 "/>
<path class="Note" transform="matrix(0.9936,0,0,0.9936,190.715,125.95)" d="M3.51563,-3.39063 C4.24479,-3.03646 4.61458,-2.5 4.625,-1.78125 C4.625,-1.10417 4.36458,-0.583333 3.84375,-0.21875 C3.46875,0.0625 3.01042,0.203125 2.46875,0.203125 C1.72917,0.203125 1.15625,-0.0416667 0.75,-0.53125 C0.46875,-0.885417 0.328125,-1.30729 0.328125,-1.79688 C0.338542,-2.51563 0.703125,-3.04688 1.42188,-3.39063 C0.994792,-3.66146 0.729167,-3.9375 0.625,-4.21875 C0.583333,-4.35417 0.5625,-4.51563 0.5625,-4.70313 C0.5625,-5.28646 0.802083,-5.73438 1.28125,-6.04688 C1.625,-6.27604 2.02083,-6.39063 2.46875,-6.39063 C3.16667,-6.39063 3.69271,-6.16146 4.04688,-5.70313 C4.27604,-5.41146 4.39063,-5.07813 4.39063,-4.70313 C4.39063,-4.29688 4.25521,-3.97396 3.98438,-3.73438 C3.86979,-3.61979 3.71354,-3.50521 3.51563,-3.39063 M2.46875,-5.64063 C1.98958,-5.64063 1.65625,-5.47396 1.46875,-5.14063 C1.40625,-5.00521 1.375,-4.85417 1.375,-4.6875 C1.375,-4.29167 1.55729,-4.01563 1.92188,-3.85938 C2.08854,-3.78646 2.27083,-3.75 2.46875,-3.75 C2.95833,-3.75 3.29167,-3.91146 3.46875,-4.23438 C3.54167,-4.36979 3.57813,-4.52083 3.57813,-4.6875 C3.57813,-5.11458 3.38542,-5.40104 3,-5.54688 C2.84375,-5.60938 2.66667,-5.64063 2.46875,-5.64063 M2.46875,-3 C1.9375,-3 1.55729,-2.8125 1.32813,-2.4375 C1.20313,-2.23958 1.14063,-2.02083 1.14063,-1.78125 C1.14063,-1.29167 1.33854,-0.932292 1.73438,-0.703125 C1.94271,-0.588542 2.18229,-0.53125 2.45313,-0.53125 C3.00521,-0.53125 3.39583,-0.723958 3.625,-1.10938 C3.75,-1.30729 3.8125,-1.53125 3.8125,-1.78125 C3.8125,-2.26042 3.60938,-2.61458 3.20313,-2.84375 C2.98438,-2.94792 2.73958,-3 2.46875,-3"/>
<path class="Note" fill="#99cc33" transform="matrix(0.9936,0,0,0.9936,189.473,60.372)" d="M4.39063,-2.75 C5.01563,-2.75 5.54688,-2.58854 5.98438,-2.26563 C6.38021,-1.91146 6.57813,-1.46875 6.57813,-0.9375 C6.57813,-0.0416667 6.11979,0.796875 5.20313,1.57813 C4.26563,2.35938 3.26042,2.75 2.1875,2.75 C1.5625,2.75 1.03646,2.58854 0.609375,2.26563 C0.203125,1.91146 0,1.46875 0,0.9375 C0,0.0416667 0.46875,-0.796875 1.40625,-1.57813 C2.32292,-2.35938 3.31771,-2.75 4.39063,-2.75"/>
<path class="Note" fill="#ffffff" fill-rule="evenodd" d="M158.096,118.746 L164.057,118.746 L164.057,126.198 L158.096,126.198 L158.096,118.746 "/>
<path class="Note" transform="matrix(0.9936,0,0,0.9936,158.592,125.95)" d="M0.390625,-2.90625 C0.390625,-4.76042 0.901042,-5.875 1.92188,-6.25 C2.16146,-6.34375 2.41146,-6.39063 2.67188,-6.39063 C3.35938,-6.39063 3.86979,-6.10938 4.20313,-5.54688 C4.33854,-5.30729 4.43229,-5.03125 4.48438,-4.71875 L3.6875,-4.71875 C3.58333,-5.22917 3.3125,-5.53125 2.875,-5.625 C2.79167,-5.63542 2.70833,-5.64063 2.625,-5.64063 C1.95833,-5.64063 1.52083,-5.21875 1.3125,-4.375 C1.23958,-4.04167 1.20313,-3.67188 1.20313,-3.26563 C1.55729,-3.75521 2.04688,-4 2.67188,-4 C3.33854,-4 3.85417,-3.75 4.21875,-3.25 C4.48958,-2.88542 4.625,-2.45833 4.625,-1.96875 C4.625,-1.23958 4.375,-0.671875 3.875,-0.265625 C3.5,0.046875 3.05208,0.203125 2.53125,0.203125 C1.10417,0.192708 0.390625,-0.84375 0.390625,-2.90625 M2.5625,-3.26563 C2.05208,-3.26563 1.67708,-3.07292 1.4375,-2.6875 C1.3125,-2.46875 1.25,-2.21875 1.25,-1.9375 C1.25,-1.4375 1.43229,-1.04688 1.79688,-0.765625 C2.00521,-0.609375 2.25,-0.53125 2.53125,-0.53125 C2.98958,-0.53125 3.33854,-0.71875 3.57813,-1.09375 C3.73438,-1.33333 3.8125,-1.60417 3.8125,-1.90625 C3.8125,-2.51042 3.59896,-2.92188 3.17188,-3.14063 C2.99479,-3.22396 2.79167,-3.26563 2.5625,-3.26563"/>
<path class="Note" fill="#ebeb19" transform="matrix(0.9936,0,0,0.9936,157.35,62.856)" d="M4.39063,-2.75 C5.01563,-2.75 5.54688,-2.58854 5.98438,-2.26563 C6.38021,-1.91146 6.57813,-1.46875 6.57813,-0.9375 C6.57813,-0.0416667 6.11979,0.796875 5.20313,1.57813 C4.26563,2.35938 3.26042,2.75 2.1875,2.75 C1.5625,2.75 1.03646,2.58854 0.609375,2.26563 C0.203125,1.91146 0,1.46875 0,0.9375 C0,0.0416667 0.46875,-0.796875 1.40625,-1.57813 C2.32292,-2.35938 3.31771,-2.75 4.39063,-2.75"/>
<path class="Note" fill="#ffffff" fill-rule="evenodd" d="M125.973,118.746 L131.935,118.746 L131.935,126.198 L125.973,126.198 L125.973,118.746 "/>
<path class="Note" transform="matrix(0.9936,0,0,0.9936,126.47,125.95)" d="M4.28125,-6.39063 L4.28125,-5.64063 L1.625,-5.64063 L1.375,-3.8125 C1.73958,-4.09375 2.13542,-4.23438 2.5625,-4.23438 C3.28125,-4.23438 3.83333,-3.97396 4.21875,-3.45313 C4.48958,-3.07813 4.625,-2.625 4.625,-2.09375 C4.625,-1.3125 4.35938,-0.708333 3.82813,-0.28125 C3.44271,0.0416667 2.97917,0.203125 2.4375,0.203125 C1.26042,0.203125 0.557292,-0.359375 0.328125,-1.48438 C0.328125,-1.50521 0.322917,-1.53125 0.3125,-1.5625 L1.10938,-1.5625 C1.30729,-0.885417 1.73958,-0.541667 2.40625,-0.53125 C3.02083,-0.53125 3.44271,-0.770833 3.67188,-1.25 C3.76563,-1.46875 3.8125,-1.71354 3.8125,-1.98438 C3.8125,-2.63021 3.58333,-3.07813 3.125,-3.32813 C2.91667,-3.44271 2.67708,-3.5 2.40625,-3.5 C2.03125,-3.5 1.70833,-3.38021 1.4375,-3.14063 C1.375,-3.07813 1.3125,-3.01042 1.25,-2.9375 L0.515625,-2.9375 L0.984375,-6.39063 L4.28125,-6.39063 "/>
<path class="Note" fill="#ff9933" transform="matrix(0.9936,0,0,0.9936,125.228,65.34)" d="M4.39063,-2.75 C5.01563,-2.75 5.54688,-2.58854 5.98438,-2.26563 C6.38021,-1.91146 6.57813,-1.46875 6.57813,-0.9375 C6.57813,-0.0416667 6.11979,0.796875 5.20313,1.57813 C4.26563,2.35938 3.26042,2.75 2.1875,2.75 C1.5625,2.75 1.03646,2.58854 0.609375,2.26563 C0.203125,1.91146 0,1.46875 0,0.9375 C0,0.0416667 0.46875,-0.796875 1.40625,-1.57813 C2.32292,-2.35938 3.31771,-2.75 4.39063,-2.75"/>
<path class="Note" fill="#ffffff" fill-rule="evenodd" d="M93.8506,126.198 L99.8122,126.198 L99.8122,133.65 L93.8506,133.65 L93.8506,126.198 "/>
<path class="Note" transform="matrix(0.9936,0,0,0.9936,94.3474,133.402)" d="M4.6875,-6.39063 L4.6875,-5.75 C3.46875,-4.125 2.66146,-2.49479 2.26563,-0.859375 C2.19271,-0.578125 2.13542,-0.291667 2.09375,0 L1.25,0 C1.54167,-1.32292 1.96875,-2.5 2.53125,-3.53125 C2.86458,-4.14583 3.30729,-4.84896 3.85938,-5.64063 L0.421875,-5.64063 L0.421875,-6.39063 L4.6875,-6.39063 "/>
<path class="Note" fill="#78c7c7" transform="matrix(0.9936,0,0,0.9936,93.1054,67.824)" d="M4.39063,-2.75 C5.01563,-2.75 5.54688,-2.58854 5.98438,-2.26563 C6.38021,-1.91146 6.57813,-1.46875 6.57813,-0.9375 C6.57813,-0.0416667 6.11979,0.796875 5.20313,1.57813 C4.26563,2.35938 3.26042,2.75 2.1875,2.75 C1.5625,2.75 1.03646,2.58854 0.609375,2.26563 C0.203125,1.91146 0,1.46875 0,0.9375 C0,0.0416667 0.46875,-0.796875 1.40625,-1.57813 C2.32292,-2.35938 3.31771,-2.75 4.39063,-2.75"/>
<path class="Note" fill="#ffffff" fill-rule="evenodd" d="M61.7281,126.198 L67.6897,126.198 L67.6897,133.65 L61.7281,133.65 L61.7281,126.198 "/>
<path class="Note" transform="matrix(0.9936,0,0,0.9936,62.2249,133.402)" d="M4.28125,-6.39063 L4.28125,-5.64063 L1.625,-5.64063 L1.375,-3.8125 C1.73958,-4.09375 2.13542,-4.23438 2.5625,-4.23438 C3.28125,-4.23438 3.83333,-3.97396 4.21875,-3.45313 C4.48958,-3.07813 4.625,-2.625 4.625,-2.09375 C4.625,-1.3125 4.35938,-0.708333 3.82813,-0.28125 C3.44271,0.0416667 2.97917,0.203125 2.4375,0.203125 C1.26042,0.203125 0.557292,-0.359375 0.328125,-1.48438 C0.328125,-1.50521 0.322917,-1.53125 0.3125,-1.5625 L1.10938,-1.5625 C1.30729,-0.885417 1.73958,-0.541667 2.40625,-0.53125 C3.02083,-0.53125 3.44271,-0.770833 3.67188,-1.25 C3.76563,-1.46875 3.8125,-1.71354 3.8125,-1.98438 C3.8125,-2.63021 3.58333,-3.07813 3.125,-3.32813 C2.91667,-3.44271 2.67708,-3.5 2.40625,-3.5 C2.03125,-3.5 1.70833,-3.38021 1.4375,-3.14063 C1.375,-3.07813 1.3125,-3.01042 1.25,-2.9375 L0.515625,-2.9375 L0.984375,-6.39063 L4.28125,-6.39063 "/>
<path class="Note" fill="#ed2929" transform="matrix(0.9936,0,0,0.9936,60.9829,70.308)" d="M4.39063,-2.75 C5.01563,-2.75 5.54688,-2.58854 5.98438,-2.26563 C6.38021,-1.91146 6.57813,-1.46875 6.57813,-0.9375 C6.57813,-0.0416667 6.11979,0.796875 5.20313,1.57813 C4.26563,2.35938 3.26042,2.75 2.1875,2.75 C1.5625,2.75 1.03646,2.58854 0.609375,2.26563 C0.203125,1.91146 0,1.46875 0,0.9375 C0,0.0416667 0.46875,-0.796875 1.40625,-1.57813 C2.32292,-2.35938 3.31771,-2.75 4.39063,-2.75"/>
<path class="Clef" transform="matrix(0.9936,0,0,0.9936,32.0544,133.65)" d="M5.32813,8.5 C5.32813,8.86458 5.04167,9.04688 4.46875,9.04688 C4.02083,9.04688 3.625,8.91146 3.28125,8.64063 C2.95833,8.34896 2.79688,7.98438 2.79688,7.54688 C2.79688,6.76563 3.27083,6.14063 4.21875,5.67188 C5.14583,5.18229 6.23438,4.9375 7.48438,4.9375 C7.96354,4.9375 8.47917,4.97396 9.03125,5.04688 C9.42708,5.09896 9.875,5.20313 10.375,5.35938 C10.8125,5.49479 11.1563,5.70573 11.4063,5.99219 C11.6563,6.27865 11.7813,6.61458 11.7813,7 C11.7813,7.89583 11.3177,8.63021 10.3906,9.20313 C11.7448,9.45313 12.4271,10.0573 12.4375,11.0156 C12.4375,11.8281 12.0729,12.5599 11.3438,13.2109 C10.6146,13.862 9.79167,14.1875 8.875,14.1875 C8.47917,14.1875 8.07813,14.0938 7.67188,13.9063 C7.29688,13.7292 7.03125,13.5625 6.875,13.4063 C6.71875,13.2188 6.64063,13.0781 6.64063,12.9844 C6.64063,12.8594 6.70833,12.75 6.84375,12.6563 C6.95833,12.5417 7.07813,12.4844 7.20313,12.4844 C7.25521,12.4844 7.36719,12.5677 7.53906,12.7344 C7.71094,12.901 7.95833,12.9844 8.28125,12.9844 C8.72917,12.9844 9.16146,12.7969 9.57813,12.4219 C9.97396,12.0573 10.1719,11.6198 10.1719,11.1094 C10.1719,10.6719 9.98438,10.3542 9.60938,10.1563 C9.24479,9.95833 8.76563,9.85938 8.17188,9.85938 C8.06771,9.85938 8.01563,9.75 8.01563,9.53125 C8.01563,9.21875 8.13021,9.0625 8.35938,9.0625 C8.72396,9.0625 9.05208,8.90625 9.34375,8.59375 C9.61458,8.26042 9.75,7.90104 9.75,7.51563 C9.75,7.40104 9.71875,7.22917 9.65625,7 C9.60417,6.84375 9.44792,6.65104 9.1875,6.42188 C8.9375,6.21354 8.58854,6.07292 8.14063,6 C8.02604,6.63542 7.88021,7.44792 7.70313,8.4375 C7.52604,9.42708 7.40625,10.0781 7.34375,10.3906 C7.125,11.5156 6.72396,12.4583 6.14063,13.2188 C5.52604,14.0313 4.86458,14.4375 4.15625,14.4375 C3.9375,14.4375 3.71354,14.3854 3.48438,14.2813 C3.29688,14.1979 3.0625,14.0365 2.78125,13.7969 C2.52083,13.5885 2.34375,13.4479 2.25,13.375 C2.19792,13.3438 2.17188,13.2865 2.17188,13.2031 C2.17188,13.0781 2.21875,12.9635 2.3125,12.8594 C2.41667,12.7344 2.52604,12.6719 2.64063,12.6719 C2.71354,12.6719 2.89323,12.7969 3.17969,13.0469 C3.46615,13.2969 3.76563,13.4219 4.07813,13.4219 C4.68229,13.4219 5.13542,13.0365 5.4375,12.2656 C5.71875,11.526 5.85938,10.6094 5.85938,9.51563 L5.85938,9.35938 C5.85938,8.63021 5.97917,7.54167 6.21875,6.09375 C5.80208,6.22917 5.46875,6.42708 5.21875,6.6875 C4.95833,6.94792 4.82813,7.21875 4.82813,7.5 C4.82813,7.71875 4.91146,7.90625 5.07813,8.0625 C5.24479,8.21875 5.32813,8.36458 5.32813,8.5 M1.40625,2.39063 C1.46875,2.39063 1.625,2.45313 1.875,2.57813 C2.13542,2.71354 2.35938,2.78125 2.54688,2.78125 C3.03646,2.78125 3.64063,2.42188 4.35938,1.70313 C6.43229,-0.411458 7.85938,-2.65104 8.64063,-5.01563 C8.79688,-5.51563 9.17708,-5.76563 9.78125,-5.76563 C10.0938,-5.76563 10.3646,-5.69792 10.5938,-5.5625 C10.8125,-5.42708 10.9219,-5.28646 10.9219,-5.14063 L10.5625,2.17188 C10.5625,2.55729 10.7031,2.75 10.9844,2.75 C11.1198,2.75 11.3281,2.6875 11.6094,2.5625 C11.8698,2.42708 12.026,2.35938 12.0781,2.35938 C12.1823,2.35938 12.2448,2.47396 12.2656,2.70313 C12.2656,2.91146 12.1823,3.04167 12.0156,3.09375 C11.8802,3.125 11.6198,3.24479 11.2344,3.45313 C10.8281,3.66146 10.5104,3.76563 10.2813,3.76563 C9.78125,3.76563 9.42708,3.375 9.21875,2.59375 C8.89583,1.375 8.6875,0.104167 8.59375,-1.21875 C8.07292,-0.552083 7.49479,0.119792 6.85938,0.796875 C7.08854,1.24479 7.51563,1.46875 8.14063,1.46875 C8.23438,1.46875 8.30729,1.46354 8.35938,1.45313 L8.375,1.45313 C8.47917,1.45313 8.53125,1.54688 8.53125,1.73438 C8.53125,1.98438 8.44792,2.13542 8.28125,2.1875 C8.01042,2.28125 7.72396,2.32813 7.42188,2.32813 C6.77604,2.32813 6.30729,2.10417 6.01563,1.65625 L5.23438,2.35938 C4.14063,3.29688 3.25,3.76563 2.5625,3.76563 C2.375,3.76563 2.1875,3.73438 2,3.67188 C1.84375,3.60938 1.66146,3.51042 1.45313,3.375 C1.36979,3.34375 1.27865,3.29688 1.17969,3.23438 C1.08073,3.17188 1.02083,3.13542 1,3.125 C0.9375,3.10417 0.90625,3.04688 0.90625,2.95313 C0.90625,2.84896 0.958333,2.72396 1.0625,2.57813 C1.14583,2.45313 1.26042,2.39063 1.40625,2.39063 M5.76563,-10.7969 C5.76563,-10.474 5.48438,-10.3125 4.92188,-10.3125 C4.43229,-10.3125 4.00521,-10.474 3.64063,-10.7969 C3.28646,-11.1302 3.10938,-11.5313 3.10938,-12 C3.10938,-12.4479 3.25,-12.8385 3.53125,-13.1719 C3.83333,-13.5052 4.21875,-13.7552 4.6875,-13.9219 C5.11458,-14.0781 5.59896,-14.2031 6.14063,-14.2969 C6.69271,-14.3594 7.22396,-14.3906 7.73438,-14.3906 C8.03646,-14.3906 8.59896,-14.2552 9.42188,-13.9844 C10.2552,-13.7135 10.8333,-13.5781 11.1563,-13.5781 C11.5625,-13.5781 11.9479,-13.651 12.3125,-13.7969 C12.6042,-13.9219 12.8906,-14.0677 13.1719,-14.2344 C13.3906,-14.3802 13.5104,-14.4531 13.5313,-14.4531 C13.6563,-14.4531 13.7604,-14.4167 13.8438,-14.3438 C13.9479,-14.2396 14,-14.151 14,-14.0781 C14,-13.9948 13.8802,-13.849 13.6406,-13.6406 C13.3802,-13.401 13.0078,-13.1641 12.5234,-12.9297 C12.0391,-12.6953 11.5313,-12.5781 11,-12.5781 C10.7604,-12.5781 10.4688,-12.6198 10.125,-12.7031 C9.89583,-11.2552 9.66146,-9.96875 9.42188,-8.84375 C9.21354,-7.85417 8.79688,-6.98958 8.17188,-6.25 C7.56771,-5.51042 6.89583,-5.14063 6.15625,-5.14063 C5.85417,-5.14063 5.58854,-5.19792 5.35938,-5.3125 C5.09896,-5.44792 4.82292,-5.64583 4.53125,-5.90625 C4.30208,-6.09375 4.08333,-6.26563 3.875,-6.42188 C3.82292,-6.46354 3.79688,-6.52604 3.79688,-6.60938 C3.79688,-6.69271 3.84896,-6.80729 3.95313,-6.95313 C4.05729,-7.06771 4.15104,-7.125 4.23438,-7.125 C4.31771,-7.125 4.54167,-6.96354 4.90625,-6.64063 C5.27083,-6.31771 5.59375,-6.15625 5.875,-6.15625 C6.39583,-6.15625 6.80208,-6.45313 7.09375,-7.04688 C7.375,-7.64063 7.53646,-8.34375 7.57813,-9.15625 C7.64063,-10.5 7.79167,-11.8906 8.03125,-13.3281 C7.73958,-13.3906 7.52604,-13.4219 7.39063,-13.4219 C6.76563,-13.4219 6.22917,-13.2917 5.78125,-13.0313 C5.34375,-12.7813 5.125,-12.4427 5.125,-12.0156 C5.125,-11.7031 5.22917,-11.4635 5.4375,-11.2969 C5.65625,-11.1094 5.76563,-10.9427 5.76563,-10.7969"/>
<path class="Clef" transform="matrix(0.9936,0,0,0.9936,32.0544,77.76)" d="M7.34375,-5.125 C7.34375,-5.125 7.38542,-5.125 7.46875,-5.125 C7.52083,-5.13542 7.5625,-5.14063 7.59375,-5.14063 C9.05208,-5.14063 10.25,-4.625 11.1875,-3.59375 C12.125,-2.58333 12.5938,-1.40104 12.5938,-0.046875 C12.5938,1.64063 11.901,3.01042 10.5156,4.0625 C10.151,4.35417 9.67188,4.58854 9.07813,4.76563 C9.15104,5.60938 9.1875,6.29167 9.1875,6.8125 C9.1875,6.91667 9.17188,7.29688 9.14063,7.95313 C9.08854,9.16146 8.67188,10.2083 7.89063,11.0938 C7.14063,11.9688 6.20313,12.4063 5.07813,12.4063 C4.02604,12.4063 3.13021,12.0365 2.39063,11.2969 C1.64063,10.5365 1.26563,9.625 1.26563,8.5625 C1.26563,8 1.48438,7.52083 1.92188,7.125 C2.35938,6.73958 2.86979,6.54688 3.45313,6.54688 C3.97396,6.54688 4.41146,6.75 4.76563,7.15625 C5.13021,7.53125 5.3125,8 5.3125,8.5625 C5.3125,9.0625 5.13021,9.49479 4.76563,9.85938 C4.40104,10.224 3.96354,10.4063 3.45313,10.4063 C3.24479,10.4063 3.04688,10.3698 2.85938,10.2969 C3.43229,11.1406 4.19271,11.5625 5.14063,11.5625 C6.03646,11.5625 6.77083,11.1979 7.34375,10.4688 C7.94792,9.71875 8.27604,8.83854 8.32813,7.82813 C8.34896,7.20313 8.35938,6.84896 8.35938,6.76563 C8.35938,6.03646 8.33333,5.4375 8.28125,4.96875 C7.63542,5.07292 7.05729,5.125 6.54688,5.125 C4.73438,5.125 3.19271,4.40625 1.92188,2.96875 C0.671875,1.52083 0.046875,-0.197917 0.046875,-2.1875 C0.046875,-2.60417 0.0833333,-3.02604 0.15625,-3.45313 C0.239583,-3.80729 0.338542,-4.19271 0.453125,-4.60938 C0.515625,-4.84896 0.692708,-5.22917 0.984375,-5.75 C1.08854,-5.90625 1.20573,-6.10156 1.33594,-6.33594 C1.46615,-6.57031 1.55729,-6.72396 1.60938,-6.79688 C1.73438,-7.05729 1.98438,-7.41146 2.35938,-7.85938 C2.46354,-7.97396 2.57292,-8.10156 2.6875,-8.24219 C2.80208,-8.38281 2.89844,-8.5 2.97656,-8.59375 C3.05469,-8.6875 3.11198,-8.76042 3.14844,-8.8125 C3.1849,-8.86458 3.47917,-9.20833 4.03125,-9.84375 C4.15625,-9.97917 4.28125,-10.1198 4.40625,-10.2656 C4.53125,-10.4115 4.63281,-10.5286 4.71094,-10.6172 C4.78906,-10.7057 4.84896,-10.7656 4.89063,-10.7969 C4.42188,-12.349 4.125,-13.5885 4,-14.5156 C3.91667,-15.2552 3.875,-16.2708 3.875,-17.5625 C3.875,-18.6979 4.13542,-19.7604 4.65625,-20.75 C5.15625,-21.7708 5.86458,-22.6094 6.78125,-23.2656 C6.84375,-23.3073 6.90625,-23.3281 6.96875,-23.3281 C7.0625,-23.3281 7.13021,-23.3073 7.17188,-23.2656 C7.86979,-22.4219 8.47396,-21.3229 8.98438,-19.9688 C9.50521,-18.6146 9.76563,-17.3802 9.76563,-16.2656 C9.76563,-15.0156 9.46875,-13.8438 8.875,-12.75 C8.19792,-11.5938 7.32292,-10.3958 6.25,-9.15625 C6.52083,-8.30208 6.88542,-6.95833 7.34375,-5.125 M9,3.96875 C9.67708,3.71875 10.2083,3.29688 10.5938,2.70313 C11.0104,2.13021 11.2188,1.48438 11.2188,0.765625 C11.2188,-0.161458 10.9063,-0.984375 10.2813,-1.70313 C9.63542,-2.44271 8.81771,-2.85938 7.82813,-2.95313 C8.39063,-0.203125 8.78125,2.10417 9,3.96875 M1.45313,-0.546875 C1.45313,0.744792 1.97396,1.88021 3.01563,2.85938 C4.07813,3.80729 5.27604,4.28125 6.60938,4.28125 C7.15104,4.28125 7.68229,4.23958 8.20313,4.15625 C7.99479,2.17708 7.58333,-0.192708 6.96875,-2.95313 C6.22917,-2.86979 5.64063,-2.60938 5.20313,-2.17188 C4.76563,-1.71354 4.54688,-1.19792 4.54688,-0.625 C4.54688,0.364583 5.07813,1.16667 6.14063,1.78125 C6.22396,1.875 6.26563,1.97396 6.26563,2.07813 C6.26563,2.18229 6.22396,2.27604 6.14063,2.35938 C6.05729,2.45313 5.95833,2.5 5.84375,2.5 C5.83333,2.5 5.77604,2.48958 5.67188,2.46875 C4.92188,2.0625 4.34896,1.54167 3.95313,0.90625 C3.56771,0.21875 3.375,-0.46875 3.375,-1.15625 C3.375,-2.05208 3.65625,-2.86458 4.21875,-3.59375 C4.80208,-4.32292 5.5625,-4.79167 6.5,-5 C6.13542,-6.45833 5.83854,-7.59896 5.60938,-8.42188 C5.40104,-8.18229 5.15104,-7.89844 4.85938,-7.57031 C4.56771,-7.24219 4.39583,-7.04167 4.34375,-6.96875 C3.875,-6.36458 3.51563,-5.89063 3.26563,-5.54688 C2.81771,-4.93229 2.48958,-4.40625 2.28125,-3.96875 C2.0625,-3.46875 1.86979,-2.92708 1.70313,-2.34375 C1.53646,-1.78125 1.45313,-1.18229 1.45313,-0.546875 M7.96875,-20.4063 C6.98958,-19.9271 6.22396,-19.2396 5.67188,-18.3438 C5.09896,-17.4167 4.8125,-16.4219 4.8125,-15.3594 C4.8125,-14.4219 5.04688,-13.1563 5.51563,-11.5625 C6.45313,-12.6979 7.15625,-13.7448 7.625,-14.7031 C8.11458,-15.724 8.35938,-16.7865 8.35938,-17.8906 C8.35938,-18.724 8.22917,-19.5625 7.96875,-20.4063 M5.82813,15.2344 C6.16146,14.901 6.32813,14.5625 6.32813,14.2188 C6.30729,13.9479 6.19271,13.7396 5.98438,13.5938 C5.74479,13.4375 5.46875,13.3594 5.15625,13.3594 C4.9375,13.3594 4.75521,13.4323 4.60938,13.5781 C4.48438,13.7031 4.42188,13.8646 4.42188,14.0625 C4.42188,14.3021 4.51563,14.4792 4.70313,14.5938 L5.82813,15.2344 M6.14063,15.4063 C6.68229,15.7083 6.95313,16.1146 6.95313,16.625 L6.95313,16.6875 C6.95313,17.0833 6.79167,17.4219 6.46875,17.7031 C6.14583,17.9844 5.68229,18.125 5.07813,18.125 C4.58854,18.125 4.16146,17.9948 3.79688,17.7344 C3.43229,17.4844 3.25,17.1458 3.25,16.7188 C3.25,16.5521 3.29167,16.3958 3.375,16.25 C3.47917,16.0833 3.56771,15.9688 3.64063,15.9063 L4,15.5313 C3.60417,15.2604 3.40625,14.901 3.40625,14.4531 C3.40625,14.099 3.5625,13.7865 3.875,13.5156 C4.19792,13.2552 4.625,13.125 5.15625,13.125 C5.60417,13.125 5.98438,13.224 6.29688,13.4219 C6.60938,13.6198 6.76563,13.8854 6.76563,14.2188 C6.76563,14.5729 6.55729,14.9688 6.14063,15.4063 M4.29688,15.7031 C3.91146,16.0469 3.70313,16.3854 3.67188,16.7188 C3.70313,17.0729 3.84896,17.3542 4.10938,17.5625 C4.39063,17.7813 4.71354,17.8906 5.07813,17.8906 C5.33854,17.8906 5.54688,17.8073 5.70313,17.6406 C5.85938,17.4844 5.9375,17.2969 5.9375,17.0781 C5.92708,16.7865 5.8125,16.5781 5.59375,16.4531 L4.29688,15.7031 "/>
<path class="Fingering" d="M505.503,68.0736 C505.389,68.0736 505.196,68.1309 504.925,68.2455 L504.925,68.1361 L506.363,67.4017 L506.425,67.4174 L506.425,72.2142 C506.425,72.4226 506.488,72.558 506.613,72.6205 C506.717,72.6622 506.91,72.683 507.191,72.683 L507.191,72.808 L504.972,72.808 L504.972,72.683 C505.326,72.6726 505.55,72.6101 505.644,72.4955 C505.706,72.4017 505.738,72.2559 505.738,72.058 L505.738,68.4486 C505.727,68.1986 505.649,68.0736 505.503,68.0736"/>
<path class="Fingering" d="M472.732,69.699 C472.857,69.699 473.039,69.7667 473.279,69.9021 C473.529,70.0584 473.742,70.1365 473.92,70.1365 C474.284,70.1365 474.571,69.975 474.779,69.6521 C474.904,69.4438 474.966,69.2094 474.966,68.949 C474.966,68.1886 474.513,67.7719 473.607,67.699 C473.513,67.6886 473.414,67.6834 473.31,67.6834 L473.31,67.574 C473.914,67.3761 474.31,67.1209 474.498,66.8084 C474.591,66.6417 474.638,66.4594 474.638,66.2615 C474.638,65.9073 474.492,65.6521 474.201,65.4959 C474.065,65.4334 473.92,65.4021 473.763,65.4021 C473.315,65.4021 472.946,65.6365 472.654,66.1052 C472.623,66.1469 472.597,66.1938 472.576,66.2459 L472.451,66.2146 C472.701,65.5375 473.065,65.1261 473.545,64.9802 C473.69,64.9386 473.852,64.9177 474.029,64.9177 C474.508,64.9177 474.862,65.0844 475.091,65.4177 C475.216,65.5948 475.279,65.7927 475.279,66.0115 C475.279,66.3344 475.128,66.6261 474.826,66.8865 C474.732,66.9594 474.633,67.0375 474.529,67.1209 C475.008,67.3292 475.315,67.6157 475.451,67.9802 C475.513,68.1573 475.545,68.3552 475.545,68.574 C475.545,69.2094 475.279,69.7042 474.748,70.0584 C474.352,70.3084 473.883,70.4334 473.341,70.4334 C472.852,70.4334 472.56,70.324 472.466,70.1052 C472.446,70.0636 472.435,70.0219 472.435,69.9802 C472.435,69.824 472.513,69.7355 472.67,69.7146 C472.69,69.7042 472.711,69.699 472.732,69.699"/>
<path class="Fingering" d="M441.438,63.1056 C441.323,63.1056 441.13,63.1629 440.86,63.2775 L440.86,63.1681 L442.297,62.4337 L442.36,62.4494 L442.36,67.2462 C442.36,67.4546 442.422,67.59 442.547,67.6525 C442.651,67.6942 442.844,67.715 443.125,67.715 L443.125,67.84 L440.906,67.84 L440.906,67.715 C441.261,67.7046 441.485,67.6421 441.578,67.5275 C441.641,67.4337 441.672,67.2879 441.672,67.09 L441.672,63.4806 C441.662,63.2306 441.584,63.1056 441.438,63.1056"/>
<path class="Fingering" d="M408.096,61.5435 C408.336,60.5227 408.862,59.9966 409.675,59.9654 C409.706,59.9654 409.732,59.9654 409.753,59.9654 C410.242,59.9654 410.633,60.1425 410.925,60.4966 C411.133,60.757 411.237,61.0487 411.237,61.3716 C411.237,61.9654 410.919,62.606 410.284,63.2935 C410.263,63.3143 410.237,63.3352 410.206,63.356 L408.878,64.7779 L410.784,64.7779 C410.992,64.7779 411.154,64.7206 411.268,64.606 C411.341,64.5331 411.43,64.4133 411.534,64.2466 L411.643,64.2779 L411.206,65.356 L408.081,65.356 L408.081,65.2622 L409.503,63.7466 C410.18,63.007 410.529,62.3143 410.55,61.6685 C410.55,61.2206 410.378,60.8977 410.034,60.6997 C409.857,60.5956 409.654,60.5435 409.425,60.5435 C409.07,60.5435 408.794,60.6789 408.596,60.9497 C408.482,61.106 408.372,61.3195 408.268,61.5904 L408.096,61.5435 "/>
<path class="Fingering" d="M379.505,61.0595 L379.505,61.5439 L378.677,61.5439 L378.677,62.872 L378.068,62.872 L378.068,61.5439 L375.818,61.5439 L375.818,61.0595 L378.333,57.4657 L378.677,57.4657 L378.677,61.0595 L379.505,61.0595 M378.052,61.0595 L378.052,58.3095 L376.146,61.0595 L378.052,61.0595 "/>
<path class="Fingering" d="M345.07,55.6536 C344.956,55.6536 344.763,55.7109 344.492,55.8255 L344.492,55.7161 L345.93,54.9817 L345.992,54.9974 L345.992,59.7942 C345.992,60.0026 346.055,60.138 346.18,60.2005 C346.284,60.2422 346.476,60.263 346.758,60.263 L346.758,60.388 L344.539,60.388 L344.539,60.263 C344.893,60.2526 345.117,60.1901 345.211,60.0755 C345.273,59.9817 345.305,59.8359 345.305,59.638 L345.305,56.0286 C345.294,55.7786 345.216,55.6536 345.07,55.6536"/>
<path class="Fingering" d="M312.12,57.279 C312.245,57.279 312.427,57.3467 312.666,57.4821 C312.916,57.6384 313.13,57.7165 313.307,57.7165 C313.672,57.7165 313.958,57.555 314.166,57.2321 C314.291,57.0238 314.354,56.7894 314.354,56.529 C314.354,55.7686 313.901,55.3519 312.995,55.279 C312.901,55.2686 312.802,55.2634 312.698,55.2634 L312.698,55.154 C313.302,54.9561 313.698,54.7009 313.885,54.3884 C313.979,54.2217 314.026,54.0394 314.026,53.8415 C314.026,53.4873 313.88,53.2321 313.588,53.0759 C313.453,53.0134 313.307,52.9821 313.151,52.9821 C312.703,52.9821 312.333,53.2165 312.041,53.6852 C312.01,53.7269 311.984,53.7738 311.963,53.8259 L311.838,53.7946 C312.088,53.1175 312.453,52.7061 312.932,52.5602 C313.078,52.5186 313.239,52.4977 313.416,52.4977 C313.896,52.4977 314.25,52.6644 314.479,52.9977 C314.604,53.1748 314.666,53.3727 314.666,53.5915 C314.666,53.9144 314.515,54.2061 314.213,54.4665 C314.12,54.5394 314.021,54.6175 313.916,54.7009 C314.396,54.9092 314.703,55.1957 314.838,55.5602 C314.901,55.7373 314.932,55.9352 314.932,56.154 C314.932,56.7894 314.666,57.2842 314.135,57.6384 C313.739,57.8884 313.271,58.0134 312.729,58.0134 C312.239,58.0134 311.948,57.904 311.854,57.6852 C311.833,57.6436 311.823,57.6019 311.823,57.5602 C311.823,57.404 311.901,57.3155 312.057,57.2946 C312.078,57.2842 312.099,57.279 312.12,57.279"/>
<path class="Fingering" d="M283.138,53.6075 L283.138,54.0919 L282.31,54.0919 L282.31,55.42 L281.7,55.42 L281.7,54.0919 L279.45,54.0919 L279.45,53.6075 L281.966,50.0137 L282.31,50.0137 L282.31,53.6075 L283.138,53.6075 M281.685,53.6075 L281.685,50.8575 L279.778,53.6075 L281.685,53.6075 "/>
<path class="Fingering" d="M247.875,57.279 C248,57.279 248.182,57.3467 248.421,57.4821 C248.671,57.6384 248.885,57.7165 249.062,57.7165 C249.427,57.7165 249.713,57.555 249.921,57.2321 C250.046,57.0238 250.109,56.7894 250.109,56.529 C250.109,55.7686 249.656,55.3519 248.75,55.279 C248.656,55.2686 248.557,55.2634 248.453,55.2634 L248.453,55.154 C249.057,54.9561 249.453,54.7009 249.64,54.3884 C249.734,54.2217 249.781,54.0394 249.781,53.8415 C249.781,53.4873 249.635,53.2321 249.343,53.0759 C249.208,53.0134 249.062,52.9821 248.906,52.9821 C248.458,52.9821 248.088,53.2165 247.796,53.6852 C247.765,53.7269 247.739,53.7738 247.718,53.8259 L247.593,53.7946 C247.843,53.1175 248.208,52.7061 248.687,52.5602 C248.833,52.5186 248.994,52.4977 249.171,52.4977 C249.651,52.4977 250.005,52.6644 250.234,52.9977 C250.359,53.1748 250.421,53.3727 250.421,53.5915 C250.421,53.9144 250.27,54.2061 249.968,54.4665 C249.875,54.5394 249.776,54.6175 249.671,54.7009 C250.151,54.9092 250.458,55.1957 250.593,55.5602 C250.656,55.7373 250.687,55.9352 250.687,56.154 C250.687,56.7894 250.421,57.2842 249.89,57.6384 C249.494,57.8884 249.026,58.0134 248.484,58.0134 C247.994,58.0134 247.703,57.904 247.609,57.6852 C247.588,57.6436 247.578,57.6019 247.578,57.5602 C247.578,57.404 247.656,57.3155 247.812,57.2946 C247.833,57.2842 247.854,57.279 247.875,57.279"/>
<path class="Fingering" d="M216.58,55.6536 C216.466,55.6536 216.273,55.7109 216.002,55.8255 L216.002,55.7161 L217.44,54.9817 L217.502,54.9974 L217.502,59.7942 C217.502,60.0026 217.565,60.138 217.69,60.2005 C217.794,60.2422 217.986,60.263 218.268,60.263 L218.268,60.388 L216.049,60.388 L216.049,60.263 C216.403,60.2526 216.627,60.1901 216.721,60.0755 C216.783,59.9817 216.815,59.8359 216.815,59.638 L216.815,56.0286 C216.804,55.7786 216.726,55.6536 216.58,55.6536"/>
<path class="Fingering" d="M186.77,61.0595 L186.77,61.5439 L185.942,61.5439 L185.942,62.872 L185.333,62.872 L185.333,61.5439 L183.083,61.5439 L183.083,61.0595 L185.598,57.4657 L185.942,57.4657 L185.942,61.0595 L186.77,61.0595 M185.317,61.0595 L185.317,58.3095 L183.411,61.0595 L185.317,61.0595 "/>
<path class="Fingering" d="M151.116,61.5435 C151.356,60.5227 151.882,59.9966 152.695,59.9654 C152.726,59.9654 152.752,59.9654 152.773,59.9654 C153.262,59.9654 153.653,60.1425 153.945,60.4966 C154.153,60.757 154.257,61.0487 154.257,61.3716 C154.257,61.9654 153.939,62.606 153.304,63.2935 C153.283,63.3143 153.257,63.3352 153.226,63.356 L151.898,64.7779 L153.804,64.7779 C154.012,64.7779 154.174,64.7206 154.288,64.606 C154.361,64.5331 154.45,64.4133 154.554,64.2466 L154.663,64.2779 L154.226,65.356 L151.101,65.356 L151.101,65.2622 L152.523,63.7466 C153.2,63.007 153.549,62.3143 153.57,61.6685 C153.57,61.2206 153.398,60.8977 153.054,60.6997 C152.877,60.5956 152.674,60.5435 152.445,60.5435 C152.09,60.5435 151.814,60.6789 151.616,60.9497 C151.502,61.106 151.392,61.3195 151.288,61.5904 L151.116,61.5435 "/>
<path class="Fingering" d="M120.213,63.1056 C120.098,63.1056 119.905,63.1629 119.635,63.2775 L119.635,63.1681 L121.072,62.4337 L121.135,62.4494 L121.135,67.2462 C121.135,67.4546 121.197,67.59 121.322,67.6525 C121.426,67.6942 121.619,67.715 121.9,67.715 L121.9,67.84 L119.681,67.84 L119.681,67.715 C120.036,67.7046 120.26,67.6421 120.353,67.5275 C120.416,67.4337 120.447,67.2879 120.447,67.09 L120.447,63.4806 C120.437,63.2306 120.358,63.1056 120.213,63.1056"/>
<path class="Fingering" d="M87.262,69.699 C87.387,69.699 87.5693,69.7667 87.8089,69.9021 C88.0589,70.0584 88.2725,70.1365 88.4495,70.1365 C88.8141,70.1365 89.1006,69.975 89.3089,69.6521 C89.4339,69.4438 89.4964,69.2094 89.4964,68.949 C89.4964,68.1886 89.0433,67.7719 88.137,67.699 C88.0433,67.6886 87.9443,67.6834 87.8402,67.6834 L87.8402,67.574 C88.4443,67.3761 88.8402,67.1209 89.0277,66.8084 C89.1214,66.6417 89.1683,66.4594 89.1683,66.2615 C89.1683,65.9073 89.0225,65.6521 88.7308,65.4959 C88.5954,65.4334 88.4495,65.4021 88.2933,65.4021 C87.8454,65.4021 87.4756,65.6365 87.1839,66.1052 C87.1527,66.1469 87.1266,66.1938 87.1058,66.2459 L86.9808,66.2146 C87.2308,65.5375 87.5954,65.1261 88.0745,64.9802 C88.2204,64.9386 88.3818,64.9177 88.5589,64.9177 C89.0381,64.9177 89.3922,65.0844 89.6214,65.4177 C89.7464,65.5948 89.8089,65.7927 89.8089,66.0115 C89.8089,66.3344 89.6579,66.6261 89.3558,66.8865 C89.262,66.9594 89.1631,67.0375 89.0589,67.1209 C89.5381,67.3292 89.8454,67.6157 89.9808,67.9802 C90.0433,68.1573 90.0745,68.3552 90.0745,68.574 C90.0745,69.2094 89.8089,69.7042 89.2777,70.0584 C88.8818,70.3084 88.4131,70.4334 87.8714,70.4334 C87.3818,70.4334 87.0902,70.324 86.9964,70.1052 C86.9756,70.0636 86.9652,70.0219 86.9652,69.9802 C86.9652,69.824 87.0433,69.7355 87.1995,69.7146 C87.2204,69.7042 87.2412,69.699 87.262,69.699"/>
<path class="Fingering" d="M55.9677,68.0736 C55.8531,68.0736 55.6604,68.1309 55.3895,68.2455 L55.3895,68.1361 L56.827,67.4017 L56.8895,67.4174 L56.8895,72.2142 C56.8895,72.4226 56.952,72.558 57.077,72.6205 C57.1812,72.6622 57.3739,72.683 57.6552,72.683 L57.6552,72.808 L55.4364,72.808 L55.4364,72.683 C55.7906,72.6726 56.0145,72.6101 56.1083,72.4955 C56.1708,72.4017 56.202,72.2559 56.202,72.058 L56.202,68.4486 C56.1916,68.1986 56.1135,68.0736 55.9677,68.0736"/>
<path class="Tempo" d="M54.7395,40.4371 C54.5364,40.2809 54.2864,40.1871 53.9739,40.1871 C52.7864,40.1871 51.8332,41.0621 51.8332,41.9996 C51.8332,42.5621 52.2864,42.9059 52.8801,42.9059 C53.8332,42.9059 55.0207,41.9996 55.0207,41.0934 L55.0207,34.9527 L54.7395,34.9527 L54.7395,40.4371 "/>
<path class="Tempo" d="M65.3801,39.0152 L58.7707,39.0152 L58.7707,37.859 L65.3801,37.859 L65.3801,39.0152 M65.3801,41.9371 L58.7707,41.9371 L58.7707,40.7965 L65.3801,40.7965 L65.3801,41.9371 M70.8176,36.0465 C70.6926,36.0465 70.3749,36.1402 69.8645,36.3277 C69.8332,36.3382 69.8124,36.3486 69.802,36.359 L69.802,36.0465 L72.8176,34.734 L73.0207,34.734 L73.0207,41.5621 C73.0207,42.0517 73.1197,42.3642 73.3176,42.4996 C73.4947,42.6246 73.828,42.6923 74.3176,42.7027 L74.3176,42.984 L69.8176,42.984 L69.8176,42.7027 C70.4739,42.6923 70.8853,42.5882 71.052,42.3902 C71.1874,42.2236 71.2551,41.9267 71.2551,41.4996 L71.2551,36.8746 C71.2447,36.333 71.0989,36.0569 70.8176,36.0465 M75.3957,37.1715 C75.9478,35.6819 76.7239,34.8746 77.7239,34.7496 C77.828,34.7392 77.9322,34.734 78.0364,34.734 C78.828,34.734 79.4322,35.0205 79.8489,35.5934 C80.1197,35.9788 80.2551,36.4215 80.2551,36.9215 C80.2551,37.7861 79.828,38.6298 78.9739,39.4527 C78.9322,39.484 78.901,39.5152 78.8801,39.5465 L76.9426,41.3902 L78.7551,41.3902 C79.3905,41.3902 79.7968,41.333 79.9739,41.2184 C80.1405,41.1038 80.302,40.8486 80.4582,40.4527 L80.7551,40.4527 L80.2082,42.984 L75.2239,42.984 L75.2239,42.7027 C76.8905,40.9215 77.9166,39.6455 78.302,38.8746 C78.5103,38.4475 78.6145,38.0309 78.6145,37.6246 C78.6145,37.0934 78.4218,36.6767 78.0364,36.3746 C77.7968,36.1871 77.5155,36.0934 77.1926,36.0934 C76.5989,36.0934 76.1301,36.4215 75.7864,37.0777 C75.7655,37.109 75.7447,37.1402 75.7239,37.1715 L75.3957,37.1715 M81.302,38.9059 C81.302,37.5934 81.6145,36.5309 82.2395,35.7184 C82.7499,35.0725 83.3437,34.7444 84.0207,34.734 C84.802,34.734 85.4478,35.1402 85.9582,35.9527 C86.4687,36.7652 86.7239,37.76 86.7239,38.9371 C86.7239,40.3121 86.4062,41.4059 85.7707,42.2184 C85.2707,42.8225 84.6926,43.1298 84.0364,43.1402 C83.203,43.1402 82.5312,42.7132 82.0207,41.859 C81.5416,41.0673 81.302,40.083 81.302,38.9059 M84.0364,42.7965 C84.3905,42.7965 84.6249,42.4736 84.7395,41.8277 C84.802,41.4423 84.8332,40.9423 84.8332,40.3277 L84.8332,37.5777 C84.8332,36.1402 84.6405,35.3225 84.2551,35.1246 C84.1822,35.083 84.0989,35.0621 84.0051,35.0621 C83.6405,35.0621 83.401,35.3955 83.2864,36.0621 C83.2343,36.4371 83.2082,36.9423 83.2082,37.5777 L83.2082,40.3277 C83.2082,41.6819 83.3749,42.4736 83.7082,42.7027 C83.802,42.7652 83.9114,42.7965 84.0364,42.7965"/>
<path class="StaffText" d="M64.3142,25.2057 C64.7622,25.2057 65.2622,25.3203 65.8142,25.5495 C66.0538,25.6432 66.2257,25.6901 66.3299,25.6901 C66.4757,25.6901 66.6059,25.5807 66.7205,25.362 C66.7309,25.3203 66.7465,25.2787 66.7674,25.237 L67.033,25.237 L67.033,27.5807 L66.783,27.5807 C66.5122,26.9766 66.2309,26.5339 65.9392,26.2526 C65.8767,26.1901 65.8194,26.138 65.7674,26.0964 C65.3403,25.7214 64.8976,25.5339 64.4392,25.5339 C63.4392,25.5339 62.8455,26.2526 62.658,27.6901 C62.6267,28.013 62.6111,28.362 62.6111,28.737 C62.6111,29.9245 62.8247,30.7943 63.2517,31.3464 C63.5851,31.763 64.0434,31.9714 64.6267,31.9714 C65.1892,31.9714 65.5069,31.7943 65.5799,31.4401 C65.5903,31.3776 65.5955,31.3099 65.5955,31.237 L65.5955,30.1901 C65.5955,29.8985 65.5226,29.711 65.3767,29.6276 C65.2309,29.5547 64.9653,29.5078 64.5799,29.487 L64.5799,29.237 L68.0174,29.237 L68.0174,29.487 C67.6111,29.5287 67.3611,29.6172 67.2674,29.7526 C67.1944,29.8672 67.158,30.086 67.158,30.4089 L67.158,31.6745 C66.5642,32.0287 65.7778,32.237 64.7986,32.2995 C64.6632,32.2995 64.5278,32.2995 64.3924,32.2995 C63.2778,32.2995 62.3872,31.9401 61.7205,31.2214 C61.1267,30.5755 60.8299,29.7682 60.8299,28.7995 C60.8299,27.7578 61.1736,26.8932 61.8611,26.2057 C62.5278,25.5391 63.3455,25.2057 64.3142,25.2057 M72.0799,28.8307 C71.8611,28.8307 71.6476,28.711 71.4392,28.4714 C71.3247,28.3255 71.2413,28.2474 71.1892,28.237 C70.9705,28.237 70.8038,28.388 70.6892,28.6901 C70.6163,28.8464 70.5799,29.013 70.5799,29.1901 L70.5799,31.0807 C70.5799,31.4453 70.6528,31.6693 70.7986,31.7526 C70.8924,31.8151 71.0642,31.8568 71.3142,31.8776 L71.3142,32.112 L68.6736,32.112 L68.6736,31.8776 C68.9444,31.8255 69.1059,31.7318 69.158,31.5964 C69.1788,31.5235 69.1892,31.4141 69.1892,31.2682 L69.1892,28.3307 C69.1892,28.0703 69.1163,27.9037 68.9705,27.8307 C68.8976,27.7891 68.7986,27.7578 68.6736,27.737 L68.6736,27.5026 L70.5486,27.5026 L70.5486,28.3307 C70.9236,27.7787 71.2934,27.4714 71.658,27.4089 C71.7413,27.388 71.8194,27.3776 71.8924,27.3776 C72.2361,27.3776 72.4809,27.5182 72.6267,27.7995 C72.6788,27.9141 72.7049,28.0339 72.7049,28.1589 C72.7049,28.4714 72.5799,28.6797 72.3299,28.7839 C72.2465,28.8151 72.1632,28.8307 72.0799,28.8307 M73.9549,28.0807 C73.9549,28.112 74.0069,28.2057 74.1111,28.362 C74.2049,28.5078 74.2517,28.6328 74.2517,28.737 C74.2517,28.9974 74.1215,29.1745 73.8611,29.2682 C73.7674,29.2995 73.6736,29.3151 73.5799,29.3151 C73.2153,29.3151 73.0017,29.1537 72.9392,28.8307 C72.9288,28.7682 72.9236,28.711 72.9236,28.6589 C72.9236,28.1901 73.1788,27.8412 73.6892,27.612 C74.0122,27.4557 74.3872,27.3776 74.8142,27.3776 C75.6892,27.3776 76.2882,27.6172 76.6111,28.0964 C76.7361,28.2943 76.7986,28.5182 76.7986,28.7682 L76.7986,31.3464 C76.809,31.5026 76.8767,31.586 77.0017,31.5964 C77.0538,31.586 77.0903,31.5703 77.1111,31.5495 L77.2205,31.4557 L77.3611,31.6589 C76.9653,32.0339 76.5955,32.2318 76.2517,32.2526 C75.8767,32.2526 75.6319,32.112 75.5174,31.8307 C75.4861,31.737 75.4549,31.638 75.4236,31.5339 C74.8819,32.0026 74.3559,32.2422 73.8455,32.2526 C73.408,32.2526 73.0903,32.086 72.8924,31.7526 C72.7882,31.586 72.7361,31.4037 72.7361,31.2057 C72.7361,30.6224 73.184,30.1485 74.0799,29.7839 C74.3194,29.6797 74.7674,29.5287 75.4236,29.3307 L75.4236,28.5964 C75.4236,28.0651 75.2049,27.7735 74.7674,27.7214 C74.7049,27.7214 74.6424,27.7214 74.5799,27.7214 C74.2882,27.7214 74.0903,27.8047 73.9861,27.9714 C73.9653,28.0026 73.9549,28.0391 73.9549,28.0807 M75.408,31.0964 L75.408,29.6589 C74.6059,29.8776 74.1997,30.2787 74.1892,30.862 C74.1892,31.1953 74.2986,31.4037 74.5174,31.487 C74.5799,31.5078 74.6424,31.5182 74.7049,31.5182 C74.934,31.5182 75.1684,31.3776 75.408,31.0964 M80.8767,32.237 L80.8767,31.5964 C80.5226,31.9714 80.1788,32.1849 79.8455,32.237 C79.7517,32.2474 79.6528,32.2526 79.5486,32.2526 C78.9549,32.2526 78.4861,31.9766 78.1424,31.4245 C77.8715,30.9974 77.7361,30.4922 77.7361,29.9089 C77.7361,29.0547 77.9809,28.3828 78.4705,27.8932 C78.8038,27.5495 79.1997,27.3776 79.658,27.3776 C80.0122,27.3776 80.3351,27.513 80.6267,27.7839 C80.7101,27.8568 80.783,27.9245 80.8455,27.987 L80.8455,26.1745 C80.8455,25.9245 80.7882,25.7682 80.6736,25.7057 C80.5694,25.6537 80.3715,25.6172 80.0799,25.5964 L80.0799,25.362 L82.2361,25.362 L82.2361,31.112 C82.2361,31.3932 82.3194,31.5651 82.4861,31.6276 C82.5694,31.6589 82.684,31.6797 82.8299,31.6901 L82.8299,31.9245 L82.2049,32.0026 C81.6528,32.0755 81.2101,32.1537 80.8767,32.237 M80.0017,31.7057 C80.2934,31.7057 80.5434,31.5391 80.7517,31.2057 C80.8038,31.112 80.8351,31.0443 80.8455,31.0026 L80.8455,28.5495 C80.7205,28.2162 80.5122,28.0182 80.2205,27.9557 C80.1684,27.9453 80.1163,27.9401 80.0642,27.9401 C79.5538,27.9401 79.2726,28.4453 79.2205,29.4557 C79.2205,29.5703 79.2205,29.6953 79.2205,29.8307 C79.2205,31.0703 79.4809,31.6953 80.0017,31.7057 M85.1736,29.6589 C85.2257,30.6797 85.4913,31.2787 85.9705,31.4557 C86.0955,31.4974 86.2257,31.5182 86.3611,31.5182 C86.7257,31.5182 87.059,31.3516 87.3611,31.0182 C87.4132,30.9662 87.4601,30.9141 87.5017,30.862 L87.7361,31.0026 C87.3194,31.6068 86.908,31.987 86.5017,32.1432 C86.2934,32.2162 86.059,32.2526 85.7986,32.2526 C85.0486,32.2526 84.4861,31.9453 84.1111,31.3307 C83.8611,30.9141 83.7361,30.4141 83.7361,29.8307 C83.7361,28.9349 84.0069,28.263 84.5486,27.8151 C84.9132,27.5235 85.3403,27.3776 85.8299,27.3776 C86.934,27.3776 87.5538,28.0964 87.6892,29.5339 C87.6892,29.5755 87.6892,29.6172 87.6892,29.6589 L85.1736,29.6589 M86.4705,29.1432 C86.4497,28.5182 86.3819,28.1224 86.2674,27.9557 C86.1736,27.7995 86.0278,27.7214 85.8299,27.7214 C85.5382,27.7214 85.3403,27.8932 85.2361,28.237 C85.1736,28.4766 85.1372,28.8307 85.1267,29.2995 L86.4705,29.2995 L86.4705,29.1432 M90.7986,27.2682 C91.2569,26.0287 91.908,25.3568 92.7517,25.2526 C92.8247,25.2422 92.908,25.237 93.0017,25.237 C93.658,25.237 94.158,25.4766 94.5017,25.9557 C94.7309,26.2787 94.8455,26.6485 94.8455,27.0651 C94.8455,27.7735 94.4861,28.4766 93.7674,29.1745 C93.7465,29.2057 93.7257,29.2266 93.7049,29.237 L92.0799,30.7839 L93.5955,30.7839 C94.1267,30.7839 94.4653,30.737 94.6111,30.6432 C94.7569,30.5495 94.8924,30.336 95.0174,30.0026 L95.2674,30.0026 L94.8142,32.112 L90.658,32.112 L90.658,31.8776 C92.0538,30.3985 92.908,29.336 93.2205,28.6901 C93.3976,28.336 93.4861,27.987 93.4861,27.6432 C93.4861,27.2057 93.3247,26.862 93.0017,26.612 C92.7934,26.4557 92.559,26.3776 92.2986,26.3776 C91.7986,26.3776 91.408,26.6485 91.1267,27.1901 C91.1059,27.2214 91.0903,27.2474 91.0799,27.2682 L90.7986,27.2682 M97.1424,30.5495 C97.4653,30.5495 97.7101,30.6901 97.8767,30.9714 C97.9601,31.1172 98.0017,31.263 98.0017,31.4089 C98.0017,31.7214 97.8611,31.961 97.5799,32.1276 C97.434,32.2005 97.2882,32.237 97.1424,32.237 C96.809,32.237 96.5642,32.0964 96.408,31.8151 C96.3351,31.6797 96.2986,31.5391 96.2986,31.3932 C96.2986,31.0912 96.434,30.8568 96.7049,30.6901 C96.8403,30.5964 96.9861,30.5495 97.1424,30.5495 M97.1424,27.3932 C97.4653,27.3932 97.7101,27.5287 97.8767,27.7995 C97.9601,27.9453 98.0017,28.0912 98.0017,28.237 C98.0017,28.5599 97.8611,28.8047 97.5799,28.9714 C97.4444,29.0443 97.2986,29.0807 97.1424,29.0807 C96.809,29.0807 96.5642,28.9349 96.408,28.6432 C96.3351,28.5078 96.2986,28.3672 96.2986,28.2214 C96.2986,27.9193 96.434,27.6849 96.7049,27.5182 C96.8403,27.4349 96.9861,27.3932 97.1424,27.3932"/>
<path class="StaffText" d="M101.83,28.8776 C101.83,27.7839 102.189,26.9037 102.908,26.237 C103.533,25.6641 104.293,25.3776 105.189,25.3776 C105.637,25.3776 106.122,25.4557 106.642,25.612 C106.819,25.6641 106.95,25.6901 107.033,25.6901 C107.241,25.6797 107.382,25.5755 107.455,25.3776 L107.658,25.3776 L107.752,27.612 L107.517,27.612 C107.153,26.3828 106.439,25.763 105.377,25.7526 C104.533,25.7526 103.892,26.112 103.455,26.8307 C103.153,27.3516 103.002,27.987 103.002,28.737 C103.002,30.2162 103.476,31.1693 104.424,31.5964 C104.747,31.7422 105.095,31.8151 105.47,31.8151 C106.189,31.8151 106.861,31.5443 107.486,31.0026 C107.559,30.9401 107.632,30.8724 107.705,30.7995 L107.877,30.987 C107.345,31.6953 106.601,32.1068 105.642,32.2214 C105.476,32.2422 105.314,32.2526 105.158,32.2526 C104.085,32.2526 103.236,31.8932 102.611,31.1745 C102.09,30.5599 101.83,29.7943 101.83,28.8776 M111.611,28.1589 L111.611,27.987 C112.09,27.8412 112.559,27.6849 113.017,27.5182 L113.08,27.5339 L113.08,28.2995 C113.653,27.862 114.064,27.612 114.314,27.5495 C114.418,27.5287 114.523,27.5182 114.627,27.5182 C115.158,27.5287 115.512,27.8151 115.689,28.3776 C116.22,27.8047 116.767,27.5182 117.33,27.5182 C118.09,27.5287 118.476,28.1276 118.486,29.3151 L118.486,31.362 C118.497,31.7266 118.637,31.9193 118.908,31.9401 L119.174,31.9557 L119.174,32.112 L116.986,32.112 L116.986,31.9557 C117.309,31.9245 117.502,31.8516 117.564,31.737 C117.616,31.6432 117.642,31.4818 117.642,31.2526 L117.642,29.1432 C117.642,28.5912 117.533,28.2578 117.314,28.1432 C117.21,28.0807 117.069,28.0495 116.892,28.0495 C116.444,28.0599 116.08,28.263 115.799,28.6589 L115.799,31.1745 C115.799,31.5495 115.887,31.7839 116.064,31.8776 C116.168,31.9297 116.319,31.9557 116.517,31.9557 L116.517,32.112 L114.283,32.112 L114.283,31.9557 C114.606,31.9349 114.804,31.862 114.877,31.737 C114.939,31.6432 114.97,31.4818 114.97,31.2526 L114.97,29.0964 C114.97,28.3985 114.747,28.0495 114.299,28.0495 C113.934,28.0495 113.611,28.1693 113.33,28.4089 C113.257,28.4818 113.189,28.5599 113.127,28.6432 L113.127,31.4401 C113.127,31.6901 113.215,31.8464 113.392,31.9089 C113.486,31.9401 113.622,31.9557 113.799,31.9557 L113.799,32.112 L111.58,32.112 L111.58,31.9557 C111.934,31.9557 112.148,31.8724 112.22,31.7057 C112.262,31.6016 112.283,31.4557 112.283,31.2682 L112.283,28.7526 C112.283,28.3776 112.205,28.1693 112.049,28.1276 C112.017,28.1172 111.981,28.112 111.939,28.112 C111.835,28.112 111.726,28.1276 111.611,28.1589 M119.736,31.1432 C119.736,30.6328 120.054,30.2005 120.689,29.8464 C120.877,29.7526 121.377,29.5391 122.189,29.2057 C122.21,29.2057 122.226,29.2005 122.236,29.1901 L122.236,28.5807 C122.184,28.0599 121.929,27.7839 121.47,27.7526 C121.158,27.7526 120.939,27.8516 120.814,28.0495 C120.773,28.1224 120.752,28.1849 120.752,28.237 C120.752,28.2995 120.762,28.3828 120.783,28.487 C120.793,28.5599 120.799,28.612 120.799,28.6432 C120.799,28.8203 120.71,28.9453 120.533,29.0182 C120.47,29.0495 120.413,29.0651 120.361,29.0651 C120.174,29.0651 120.043,28.9766 119.97,28.7995 C119.939,28.7474 119.924,28.6901 119.924,28.6276 C119.924,28.263 120.142,27.9662 120.58,27.737 C120.882,27.5912 121.226,27.5182 121.611,27.5182 C122.33,27.5182 122.773,27.7735 122.939,28.2839 C123.012,28.5026 123.049,28.7787 123.049,29.112 L123.049,31.0495 C123.049,31.3828 123.111,31.5703 123.236,31.612 C123.278,31.6224 123.314,31.6276 123.345,31.6276 C123.491,31.6172 123.637,31.5547 123.783,31.4401 L123.783,31.6901 C123.512,32.0026 123.262,32.1745 123.033,32.2057 C122.981,32.2057 122.929,32.2057 122.877,32.2057 C122.564,32.2057 122.366,32.0495 122.283,31.737 C122.262,31.6537 122.252,31.5599 122.252,31.4557 C121.658,31.9349 121.168,32.1849 120.783,32.2057 C120.356,32.2057 120.049,32.0339 119.861,31.6901 C119.778,31.5235 119.736,31.3412 119.736,31.1432 M122.236,30.862 L122.236,29.4245 C121.413,29.7266 120.908,30.0339 120.72,30.3464 C120.648,30.4922 120.611,30.6485 120.611,30.8151 C120.611,31.211 120.757,31.461 121.049,31.5651 C121.122,31.5964 121.189,31.612 121.252,31.612 C121.47,31.6016 121.71,31.5235 121.97,31.3776 C122.116,31.2943 122.2,31.1901 122.22,31.0651 C122.231,31.0026 122.236,30.9349 122.236,30.862 M124.955,28.1901 C124.955,28.1901 124.804,28.2005 124.502,28.2214 L124.502,28.0495 C125.043,27.8828 125.564,27.7057 126.064,27.5182 L126.111,27.5495 L126.111,32.112 C126.111,33.3412 125.7,34.0495 124.877,34.237 C124.731,34.2682 124.58,34.2839 124.424,34.2839 C123.986,34.2839 123.694,34.1745 123.549,33.9557 C123.507,33.8828 123.486,33.8099 123.486,33.737 C123.486,33.5495 123.575,33.4297 123.752,33.3776 C123.804,33.3568 123.851,33.3464 123.892,33.3464 C124.038,33.3464 124.194,33.4505 124.361,33.6589 C124.538,33.8464 124.684,33.9453 124.799,33.9557 C125.028,33.9557 125.168,33.7943 125.22,33.4714 C125.252,33.2735 125.267,32.9714 125.267,32.5651 L125.267,28.7682 C125.267,28.4141 125.189,28.2214 125.033,28.1901 C125.002,28.1901 124.976,28.1901 124.955,28.1901 M125.611,25.2839 C125.83,25.2839 125.986,25.3828 126.08,25.5807 C126.111,25.6537 126.127,25.7266 126.127,25.7995 C126.127,26.0182 126.017,26.1745 125.799,26.2682 C125.736,26.2891 125.674,26.2995 125.611,26.2995 C125.382,26.2995 125.226,26.2005 125.142,26.0026 C125.122,25.9297 125.111,25.862 125.111,25.7995 C125.111,25.5807 125.205,25.4245 125.392,25.3307 C125.465,25.2995 125.538,25.2839 125.611,25.2839 M128.939,27.5182 C129.679,27.5182 130.262,27.7891 130.689,28.3307 C130.991,28.737 131.142,29.2162 131.142,29.7682 C131.142,30.5495 130.887,31.1745 130.377,31.6432 C129.96,32.0182 129.476,32.2057 128.924,32.2057 C128.215,32.2057 127.653,31.9349 127.236,31.3932 C126.903,30.9557 126.736,30.4401 126.736,29.8464 C126.736,29.0339 127.012,28.4089 127.564,27.9714 C127.95,27.6693 128.408,27.5182 128.939,27.5182 M127.642,29.362 C127.642,30.2682 127.83,30.961 128.205,31.4401 C128.444,31.7526 128.726,31.9089 129.049,31.9089 C129.569,31.9089 129.929,31.612 130.127,31.0182 C130.21,30.7578 130.252,30.461 130.252,30.1276 C130.252,29.2422 130.038,28.586 129.611,28.1589 C129.382,27.9297 129.116,27.8151 128.814,27.8151 C128.345,27.8151 128.007,28.0547 127.799,28.5339 C127.694,28.7735 127.642,29.0495 127.642,29.362 M134.502,28.487 C134.398,28.487 134.247,28.4037 134.049,28.237 C133.955,28.1537 133.882,28.112 133.83,28.112 C133.663,28.112 133.491,28.2422 133.314,28.5026 C133.2,28.6693 133.142,28.8151 133.142,28.9401 L133.142,31.2057 C133.142,31.5495 133.231,31.763 133.408,31.8464 C133.533,31.9089 133.726,31.9453 133.986,31.9557 L133.986,32.112 L131.58,32.112 L131.58,31.9557 C131.934,31.8932 132.148,31.8099 132.22,31.7057 C132.273,31.6224 132.299,31.4766 132.299,31.2682 L132.299,28.7526 C132.299,28.388 132.215,28.1901 132.049,28.1589 C132.017,28.1485 131.986,28.1432 131.955,28.1432 C131.84,28.1432 131.726,28.1589 131.611,28.1901 L131.611,28.0339 C132.142,27.8672 132.632,27.6953 133.08,27.5182 L133.142,27.5339 L133.142,28.4245 C133.486,27.9453 133.778,27.6589 134.017,27.5651 C134.122,27.5339 134.226,27.5182 134.33,27.5182 C134.642,27.5182 134.825,27.6485 134.877,27.9089 C134.877,27.9505 134.877,27.9974 134.877,28.0495 C134.845,28.3203 134.72,28.4662 134.502,28.487 M140.158,27.7214 C140.179,27.711 140.236,27.6745 140.33,27.612 L140.439,27.612 L140.47,28.9714 L140.33,28.9714 C140.163,28.3255 139.924,27.9401 139.611,27.8151 C139.497,27.763 139.366,27.737 139.22,27.737 C138.866,27.737 138.627,27.8776 138.502,28.1589 C138.47,28.2422 138.455,28.3307 138.455,28.4245 C138.465,28.7057 138.611,28.9297 138.892,29.0964 L139.97,29.737 C140.45,30.0287 140.72,30.3464 140.783,30.6901 C140.793,30.763 140.799,30.8464 140.799,30.9401 C140.799,31.3568 140.616,31.6953 140.252,31.9557 C139.991,32.1224 139.705,32.2057 139.392,32.2057 C139.257,32.2057 138.95,32.1589 138.47,32.0651 C138.356,32.0443 138.267,32.0339 138.205,32.0339 C138.101,32.0443 138.023,32.086 137.97,32.1589 L137.845,32.1589 L137.845,30.5964 L138.002,30.5964 C138.106,31.0651 138.236,31.3932 138.392,31.5807 C138.611,31.8516 138.903,31.987 139.267,31.987 C139.694,31.987 139.96,31.8307 140.064,31.5182 C140.095,31.4453 140.111,31.362 140.111,31.2682 C140.101,30.9662 139.924,30.7162 139.58,30.5182 L139.002,30.1901 C138.377,29.836 138.007,29.4818 137.892,29.1276 C137.851,29.0026 137.83,28.8776 137.83,28.7526 C137.83,28.2839 138.033,27.9349 138.439,27.7057 C138.668,27.5807 138.918,27.5182 139.189,27.5182 C139.408,27.5182 139.668,27.5703 139.97,27.6745 C140.054,27.7057 140.116,27.7214 140.158,27.7214 M141.736,29.987 C141.736,29.1432 142.023,28.4818 142.595,28.0026 C142.991,27.6797 143.434,27.5182 143.924,27.5182 C144.476,27.5182 144.903,27.6693 145.205,27.9714 C145.382,28.1485 145.47,28.3412 145.47,28.5495 C145.47,28.7266 145.377,28.8516 145.189,28.9245 C145.116,28.9557 145.049,28.9714 144.986,28.9714 C144.778,28.9714 144.627,28.836 144.533,28.5651 C144.523,28.5443 144.517,28.5235 144.517,28.5026 L144.455,28.2839 C144.392,28.0339 144.278,27.888 144.111,27.8464 C144.038,27.8255 143.955,27.8151 143.861,27.8151 C143.361,27.8151 142.981,28.0547 142.72,28.5339 C142.575,28.8255 142.502,29.1641 142.502,29.5495 C142.502,30.2787 142.726,30.8255 143.174,31.1901 C143.434,31.388 143.726,31.487 144.049,31.487 C144.465,31.487 144.825,31.3203 145.127,30.987 C145.231,30.862 145.345,30.7162 145.47,30.5495 L145.611,30.6432 C145.236,31.362 144.819,31.8307 144.361,32.0495 C144.122,32.1537 143.882,32.2057 143.642,32.2057 C142.997,32.2057 142.491,31.9401 142.127,31.4089 C141.866,31.0026 141.736,30.5287 141.736,29.987 M145.736,31.1432 C145.736,30.6328 146.054,30.2005 146.689,29.8464 C146.877,29.7526 147.377,29.5391 148.189,29.2057 C148.21,29.2057 148.226,29.2005 148.236,29.1901 L148.236,28.5807 C148.184,28.0599 147.929,27.7839 147.47,27.7526 C147.158,27.7526 146.939,27.8516 146.814,28.0495 C146.773,28.1224 146.752,28.1849 146.752,28.237 C146.752,28.2995 146.762,28.3828 146.783,28.487 C146.793,28.5599 146.799,28.612 146.799,28.6432 C146.799,28.8203 146.71,28.9453 146.533,29.0182 C146.47,29.0495 146.413,29.0651 146.361,29.0651 C146.174,29.0651 146.043,28.9766 145.97,28.7995 C145.939,28.7474 145.924,28.6901 145.924,28.6276 C145.924,28.263 146.142,27.9662 146.58,27.737 C146.882,27.5912 147.226,27.5182 147.611,27.5182 C148.33,27.5182 148.773,27.7735 148.939,28.2839 C149.012,28.5026 149.049,28.7787 149.049,29.112 L149.049,31.0495 C149.049,31.3828 149.111,31.5703 149.236,31.612 C149.278,31.6224 149.314,31.6276 149.345,31.6276 C149.491,31.6172 149.637,31.5547 149.783,31.4401 L149.783,31.6901 C149.512,32.0026 149.262,32.1745 149.033,32.2057 C148.981,32.2057 148.929,32.2057 148.877,32.2057 C148.564,32.2057 148.366,32.0495 148.283,31.737 C148.262,31.6537 148.252,31.5599 148.252,31.4557 C147.658,31.9349 147.168,32.1849 146.783,32.2057 C146.356,32.2057 146.049,32.0339 145.861,31.6901 C145.778,31.5235 145.736,31.3412 145.736,31.1432 M148.236,30.862 L148.236,29.4245 C147.413,29.7266 146.908,30.0339 146.72,30.3464 C146.648,30.4922 146.611,30.6485 146.611,30.8151 C146.611,31.211 146.757,31.461 147.049,31.5651 C147.122,31.5964 147.189,31.612 147.252,31.612 C147.47,31.6016 147.71,31.5235 147.97,31.3776 C148.116,31.2943 148.2,31.1901 148.22,31.0651 C148.231,31.0026 148.236,30.9349 148.236,30.862 M149.58,25.8776 L149.58,25.7214 C150.247,25.5547 150.778,25.4089 151.174,25.2839 L151.22,25.2995 L151.22,31.2682 C151.22,31.5807 151.283,31.7735 151.408,31.8464 C151.523,31.8985 151.71,31.9349 151.97,31.9557 L151.97,32.112 L149.611,32.112 L149.611,31.9557 C149.986,31.9245 150.215,31.836 150.299,31.6901 C150.351,31.5964 150.377,31.4453 150.377,31.237 L150.377,26.4714 C150.377,26.138 150.304,25.9453 150.158,25.8932 C150.095,25.8724 150.028,25.862 149.955,25.862 C149.819,25.862 149.694,25.8672 149.58,25.8776 M153.455,29.3464 C153.497,30.5235 153.882,31.2162 154.611,31.4245 C154.736,31.4662 154.872,31.487 155.017,31.487 C155.507,31.487 155.924,31.2787 156.267,30.862 C156.361,30.7474 156.46,30.612 156.564,30.4557 L156.72,30.5182 C156.356,31.4766 155.783,32.0287 155.002,32.1745 C154.866,32.1953 154.736,32.2057 154.611,32.2057 C153.872,32.2057 153.34,31.8932 153.017,31.2682 C152.83,30.8932 152.736,30.461 152.736,29.9714 C152.736,29.086 153.012,28.4141 153.564,27.9557 C153.929,27.6641 154.351,27.5182 154.83,27.5182 C155.747,27.5182 156.299,28.0391 156.486,29.0807 C156.507,29.1745 156.523,29.263 156.533,29.3464 L153.455,29.3464 M153.47,29.0495 L155.517,29.0495 C155.424,28.4766 155.257,28.1224 155.017,27.987 C154.892,27.9245 154.731,27.8932 154.533,27.8932 C153.939,27.8932 153.585,28.2682 153.47,29.0182 C153.47,29.0287 153.47,29.0391 153.47,29.0495 M161.939,27.5182 C162.679,27.5182 163.262,27.7891 163.689,28.3307 C163.991,28.737 164.142,29.2162 164.142,29.7682 C164.142,30.5495 163.887,31.1745 163.377,31.6432 C162.96,32.0182 162.476,32.2057 161.924,32.2057 C161.215,32.2057 160.653,31.9349 160.236,31.3932 C159.903,30.9557 159.736,30.4401 159.736,29.8464 C159.736,29.0339 160.012,28.4089 160.564,27.9714 C160.95,27.6693 161.408,27.5182 161.939,27.5182 M160.642,29.362 C160.642,30.2682 160.83,30.961 161.205,31.4401 C161.444,31.7526 161.726,31.9089 162.049,31.9089 C162.569,31.9089 162.929,31.612 163.127,31.0182 C163.21,30.7578 163.252,30.461 163.252,30.1276 C163.252,29.2422 163.038,28.586 162.611,28.1589 C162.382,27.9297 162.116,27.8151 161.814,27.8151 C161.345,27.8151 161.007,28.0547 160.799,28.5339 C160.694,28.7735 160.642,29.0495 160.642,29.362 M164.58,28.1276 L164.58,27.9557 C165.08,27.8099 165.543,27.6641 165.97,27.5182 L166.033,27.5339 L166.033,28.3151 C166.512,27.8776 166.887,27.6224 167.158,27.5495 C167.262,27.5287 167.372,27.5182 167.486,27.5182 C168.028,27.5182 168.387,27.7891 168.564,28.3307 C168.627,28.5287 168.658,28.7526 168.658,29.0026 L168.658,31.2995 C168.658,31.612 168.731,31.8047 168.877,31.8776 C168.97,31.9089 169.101,31.9349 169.267,31.9557 L169.267,32.112 L167.189,32.112 L167.189,31.9557 C167.491,31.9349 167.679,31.836 167.752,31.6589 C167.804,31.5443 167.83,31.3672 167.83,31.1276 L167.83,29.0339 C167.809,28.388 167.564,28.0599 167.095,28.0495 C166.845,28.0495 166.585,28.1641 166.314,28.3932 C166.241,28.4662 166.158,28.5443 166.064,28.6276 L166.064,31.4401 C166.064,31.6797 166.163,31.836 166.361,31.9089 C166.455,31.9297 166.575,31.9453 166.72,31.9557 L166.72,32.112 L164.611,32.112 L164.611,31.9557 C164.903,31.9349 165.085,31.8516 165.158,31.7057 C165.2,31.5912 165.22,31.4245 165.22,31.2057 L165.22,28.7214 C165.22,28.3568 165.148,28.1537 165.002,28.112 C164.96,28.0912 164.913,28.0807 164.861,28.0807 C164.736,28.0807 164.642,28.0964 164.58,28.1276 M170.455,29.3464 C170.497,30.5235 170.882,31.2162 171.611,31.4245 C171.736,31.4662 171.872,31.487 172.017,31.487 C172.507,31.487 172.924,31.2787 173.267,30.862 C173.361,30.7474 173.46,30.612 173.564,30.4557 L173.72,30.5182 C173.356,31.4766 172.783,32.0287 172.002,32.1745 C171.866,32.1953 171.736,32.2057 171.611,32.2057 C170.872,32.2057 170.34,31.8932 170.017,31.2682 C169.83,30.8932 169.736,30.461 169.736,29.9714 C169.736,29.086 170.012,28.4141 170.564,27.9557 C170.929,27.6641 171.351,27.5182 171.83,27.5182 C172.747,27.5182 173.299,28.0391 173.486,29.0807 C173.507,29.1745 173.523,29.263 173.533,29.3464 L170.455,29.3464 M170.47,29.0495 L172.517,29.0495 C172.424,28.4766 172.257,28.1224 172.017,27.987 C171.892,27.9245 171.731,27.8932 171.533,27.8932 C170.939,27.8932 170.585,28.2682 170.47,29.0182 C170.47,29.0287 170.47,29.0391 170.47,29.0495 M178.939,27.5182 C179.679,27.5182 180.262,27.7891 180.689,28.3307 C180.991,28.737 181.142,29.2162 181.142,29.7682 C181.142,30.5495 180.887,31.1745 180.377,31.6432 C179.96,32.0182 179.476,32.2057 178.924,32.2057 C178.215,32.2057 177.653,31.9349 177.236,31.3932 C176.903,30.9557 176.736,30.4401 176.736,29.8464 C176.736,29.0339 177.012,28.4089 177.564,27.9714 C177.95,27.6693 178.408,27.5182 178.939,27.5182 M177.642,29.362 C177.642,30.2682 177.83,30.961 178.205,31.4401 C178.444,31.7526 178.726,31.9089 179.049,31.9089 C179.569,31.9089 179.929,31.612 180.127,31.0182 C180.21,30.7578 180.252,30.461 180.252,30.1276 C180.252,29.2422 180.038,28.586 179.611,28.1589 C179.382,27.9297 179.116,27.8151 178.814,27.8151 C178.345,27.8151 178.007,28.0547 177.799,28.5339 C177.694,28.7735 177.642,29.0495 177.642,29.362 M181.736,29.987 C181.736,29.1432 182.023,28.4818 182.595,28.0026 C182.991,27.6797 183.434,27.5182 183.924,27.5182 C184.476,27.5182 184.903,27.6693 185.205,27.9714 C185.382,28.1485 185.47,28.3412 185.47,28.5495 C185.47,28.7266 185.377,28.8516 185.189,28.9245 C185.116,28.9557 185.049,28.9714 184.986,28.9714 C184.778,28.9714 184.627,28.836 184.533,28.5651 C184.523,28.5443 184.517,28.5235 184.517,28.5026 L184.455,28.2839 C184.392,28.0339 184.278,27.888 184.111,27.8464 C184.038,27.8255 183.955,27.8151 183.861,27.8151 C183.361,27.8151 182.981,28.0547 182.72,28.5339 C182.575,28.8255 182.502,29.1641 182.502,29.5495 C182.502,30.2787 182.726,30.8255 183.174,31.1901 C183.434,31.388 183.726,31.487 184.049,31.487 C184.465,31.487 184.825,31.3203 185.127,30.987 C185.231,30.862 185.345,30.7162 185.47,30.5495 L185.611,30.6432 C185.236,31.362 184.819,31.8307 184.361,32.0495 C184.122,32.1537 183.882,32.2057 183.642,32.2057 C182.997,32.2057 182.491,31.9401 182.127,31.4089 C181.866,31.0026 181.736,30.5287 181.736,29.987 M188.08,27.612 L188.08,27.9089 L187.064,27.9089 L187.064,30.7682 C187.064,31.3099 187.2,31.6068 187.47,31.6589 C187.502,31.6693 187.538,31.6745 187.58,31.6745 C187.788,31.6641 187.991,31.5443 188.189,31.3151 L188.314,31.4401 C187.991,31.9505 187.59,32.2057 187.111,32.2057 C186.528,32.1953 186.231,31.7735 186.22,30.9401 L186.22,27.9089 L185.689,27.9089 C185.668,27.888 185.658,27.8672 185.658,27.8464 C185.658,27.8047 185.7,27.763 185.783,27.7214 C186.064,27.5339 186.398,27.1693 186.783,26.6276 C186.793,26.6172 186.799,26.612 186.799,26.612 C186.903,26.4557 186.97,26.362 187.002,26.3307 C187.043,26.3412 187.064,26.3828 187.064,26.4557 L187.064,27.612 L188.08,27.612 M188.736,31.1432 C188.736,30.6328 189.054,30.2005 189.689,29.8464 C189.877,29.7526 190.377,29.5391 191.189,29.2057 C191.21,29.2057 191.226,29.2005 191.236,29.1901 L191.236,28.5807 C191.184,28.0599 190.929,27.7839 190.47,27.7526 C190.158,27.7526 189.939,27.8516 189.814,28.0495 C189.773,28.1224 189.752,28.1849 189.752,28.237 C189.752,28.2995 189.762,28.3828 189.783,28.487 C189.793,28.5599 189.799,28.612 189.799,28.6432 C189.799,28.8203 189.71,28.9453 189.533,29.0182 C189.47,29.0495 189.413,29.0651 189.361,29.0651 C189.174,29.0651 189.043,28.9766 188.97,28.7995 C188.939,28.7474 188.924,28.6901 188.924,28.6276 C188.924,28.263 189.142,27.9662 189.58,27.737 C189.882,27.5912 190.226,27.5182 190.611,27.5182 C191.33,27.5182 191.773,27.7735 191.939,28.2839 C192.012,28.5026 192.049,28.7787 192.049,29.112 L192.049,31.0495 C192.049,31.3828 192.111,31.5703 192.236,31.612 C192.278,31.6224 192.314,31.6276 192.345,31.6276 C192.491,31.6172 192.637,31.5547 192.783,31.4401 L192.783,31.6901 C192.512,32.0026 192.262,32.1745 192.033,32.2057 C191.981,32.2057 191.929,32.2057 191.877,32.2057 C191.564,32.2057 191.366,32.0495 191.283,31.737 C191.262,31.6537 191.252,31.5599 191.252,31.4557 C190.658,31.9349 190.168,32.1849 189.783,32.2057 C189.356,32.2057 189.049,32.0339 188.861,31.6901 C188.778,31.5235 188.736,31.3412 188.736,31.1432 M191.236,30.862 L191.236,29.4245 C190.413,29.7266 189.908,30.0339 189.72,30.3464 C189.648,30.4922 189.611,30.6485 189.611,30.8151 C189.611,31.211 189.757,31.461 190.049,31.5651 C190.122,31.5964 190.189,31.612 190.252,31.612 C190.47,31.6016 190.71,31.5235 190.97,31.3776 C191.116,31.2943 191.2,31.1901 191.22,31.0651 C191.231,31.0026 191.236,30.9349 191.236,30.862 M197.111,27.612 L197.111,27.7682 C196.944,27.7891 196.819,27.8568 196.736,27.9714 C196.663,28.0755 196.575,28.2682 196.47,28.5495 L195.189,31.7526 C195.054,32.0755 194.96,32.2422 194.908,32.2526 C194.835,32.2526 194.752,32.1068 194.658,31.8151 C194.648,31.8047 194.642,31.7943 194.642,31.7839 L193.439,28.9089 C193.189,28.3151 193.002,27.9662 192.877,27.862 C192.793,27.7995 192.679,27.7682 192.533,27.7682 L192.533,27.612 L194.502,27.612 L194.502,27.7682 C194.22,27.7891 194.069,27.862 194.049,27.987 C194.038,28.0078 194.033,28.0287 194.033,28.0495 C194.033,28.1641 194.064,28.2839 194.127,28.4089 L195.142,30.9714 L196.127,28.3776 C196.168,28.2839 196.189,28.1849 196.189,28.0807 C196.189,27.9037 196.043,27.7995 195.752,27.7682 C195.741,27.7682 195.731,27.7682 195.72,27.7682 L195.72,27.612 L197.111,27.612 M198.455,29.3464 C198.497,30.5235 198.882,31.2162 199.611,31.4245 C199.736,31.4662 199.872,31.487 200.017,31.487 C200.507,31.487 200.924,31.2787 201.267,30.862 C201.361,30.7474 201.46,30.612 201.564,30.4557 L201.72,30.5182 C201.356,31.4766 200.783,32.0287 200.002,32.1745 C199.866,32.1953 199.736,32.2057 199.611,32.2057 C198.872,32.2057 198.34,31.8932 198.017,31.2682 C197.83,30.8932 197.736,30.461 197.736,29.9714 C197.736,29.086 198.012,28.4141 198.564,27.9557 C198.929,27.6641 199.351,27.5182 199.83,27.5182 C200.747,27.5182 201.299,28.0391 201.486,29.0807 C201.507,29.1745 201.523,29.263 201.533,29.3464 L198.455,29.3464 M198.47,29.0495 L200.517,29.0495 C200.424,28.4766 200.257,28.1224 200.017,27.987 C199.892,27.9245 199.731,27.8932 199.533,27.8932 C198.939,27.8932 198.585,28.2682 198.47,29.0182 C198.47,29.0287 198.47,29.0391 198.47,29.0495"/>
<path class="StaffText" d="M67.3538,52.9577 L67.3538,53.1452 C67.0829,53.1556 66.8954,53.2285 66.7913,53.3639 C66.6975,53.4889 66.5777,53.7233 66.4319,54.0671 L64.2131,59.6764 L64.0725,59.6764 L61.6038,54.1921 C61.3746,53.6608 61.1715,53.3483 60.9944,53.2546 C60.8798,53.1816 60.7288,53.1452 60.5413,53.1452 L60.5413,52.9577 L63.2131,52.9577 L63.2131,53.1452 C63.0256,53.1556 62.9267,53.1608 62.9163,53.1608 C62.6142,53.1921 62.4631,53.2962 62.4631,53.4733 C62.4631,53.6191 62.5986,53.9889 62.8694,54.5827 L64.3694,57.9577 L65.8381,54.2858 C65.9736,53.9733 66.0413,53.7337 66.0413,53.5671 C66.0413,53.3587 65.9215,53.2285 65.6819,53.1764 C65.5777,53.1556 65.4527,53.1452 65.3069,53.1452 L65.3069,52.9577 L67.3538,52.9577 "/>
</svg>
