<?xml version="1.0" encoding="UTF-8" standalone="no"?>
<svg width="595.44px" height="841.68px" viewBox="0 0 595.44 841.68"
 xmlns="http://www.w3.org/2000/svg" xmlns:xlink="http://www.w3.org/1999/xlink" version="1.2" baseProfile="tiny">
<title>Guitar Scales and Arpeggios</title>
<desc>Generated by MuseScore 2.1.0</desc>
<polyline class="StaffLines" fill="none" stroke="#000000" stroke-width="0.40" stroke-linejoin="bevel" points="28.08,62.856 567.36,62.856"/>
<polyline class="StaffLines" fill="none" stroke="#000000" stroke-width="0.40" stroke-linejoin="bevel" points="28.08,67.824 567.36,67.824"/>
<polyline class="StaffLines" fill="none" stroke="#000000" stroke-width="0.40" stroke-linejoin="bevel" points="28.08,72.792 567.36,72.792"/>
<polyline class="StaffLines" fill="none" stroke="#000000" stroke-width="0.40" stroke-linejoin="bevel" points="28.08,77.76 567.36,77.76"/>
<polyline class="StaffLines" fill="none" stroke="#000000" stroke-width="0.40" stroke-linejoin="bevel" points="28.08,82.728 567.36,82.728"/>
<polyline class="StaffLines" fill="none" stroke="#000000" stroke-width="0.40" stroke-linejoin="bevel" points="28.08,115.02 567.36,115.02"/>
<polyline class="StaffLines" fill="none" stroke="#000000" stroke-width="0.40" stroke-linejoin="bevel" points="28.08,122.472 567.36,122.472"/>
<polyline class="StaffLines" fill="none" stroke="#000000" stroke-width="0.40" stroke-linejoin="bevel" points="28.08,129.924 567.36,129.924"/>
<polyline class="StaffLines" fill="none" stroke="#000000" stroke-width="0.40" stroke-linejoin="bevel" points="28.08,137.376 567.36,137.376"/>
<polyline class="StaffLines" fill="none" stroke="#000000" stroke-width="0.40" stroke-linejoin="bevel" points="28.08,144.828 567.36,144.828"/>
<polyline class="StaffLines" fill="none" stroke="#000000" stroke-width="0.40" stroke-linejoin="bevel" points="28.08,152.28 567.36,152.28"/>
<polyline class="BarLine" fill="none" stroke="#000000" stroke-width="0.79" stroke-linejoin="bevel" points="28.4774,62.856 28.4774,152.28"/>
<polyline class="BarLine" fill="none" stroke="#000000" stroke-width="0.79" stroke-linejoin="bevel" points="562.491,115.02 562.491,152.28"/>
<polyline class="BarLine" fill="none" stroke="#000000" stroke-width="2.48" stroke-linejoin="bevel" points="566.118,115.02 566.118,152.28"/>
<polyline class="BarLine" fill="none" stroke="#000000" stroke-width="0.79" stroke-linejoin="bevel" points="562.491,62.856 562.491,82.728"/>
<polyline class="BarLine" fill="none" stroke="#000000" stroke-width="2.48" stroke-linejoin="bevel" points="566.118,62.856 566.118,82.728"/>
<path class="Accidental" fill="#9f000f" transform="matrix(0.9936,0,0,0.9936,313.601,70.308)" d="M4.3125,6.23438 C4.3125,6.48438 4.1901,6.60938 3.94531,6.60938 C3.70052,6.60938 3.57813,6.48438 3.57813,6.23438 L3.57813,3.34375 L1.92188,3.96875 L1.92188,7.125 C1.92188,7.375 1.79688,7.5 1.54688,7.5 C1.29688,7.5 1.17188,7.375 1.17188,7.125 L1.17188,4.21875 L0.546875,4.45313 C0.536458,4.46354 0.484375,4.46875 0.390625,4.46875 C0.286458,4.46875 0.195313,4.42969 0.117188,4.35156 C0.0390625,4.27344 0,4.18229 0,4.07813 L0,2.875 C0,2.67708 0.0833333,2.55208 0.25,2.5 L1.17188,2.1875 L1.17188,-1.01563 L0.546875,-0.796875 C0.536458,-0.786458 0.484375,-0.78125 0.390625,-0.78125 C0.286458,-0.78125 0.195313,-0.820313 0.117188,-0.898438 C0.0390625,-0.976563 0,-1.06771 0,-1.17188 L0,-2.39063 C0,-2.56771 0.0833333,-2.68229 0.25,-2.73438 L1.17188,-3.09375 L1.17188,-6.23438 C1.17188,-6.48438 1.29688,-6.60938 1.54688,-6.60938 C1.79688,-6.60938 1.92188,-6.48438 1.92188,-6.23438 L1.92188,-3.34375 L3.57813,-3.96875 L3.57813,-7.125 C3.57813,-7.375 3.70052,-7.5 3.94531,-7.5 C4.1901,-7.5 4.3125,-7.375 4.3125,-7.125 L4.3125,-4.21875 L4.96875,-4.45313 C4.97917,-4.46354 5.02083,-4.46875 5.09375,-4.46875 C5.1875,-4.46875 5.28646,-4.43229 5.39063,-4.35938 C5.47396,-4.27604 5.51563,-4.18229 5.51563,-4.07813 L5.51563,-2.875 C5.51563,-2.6875 5.42188,-2.5625 5.23438,-2.5 L4.3125,-2.1875 L4.3125,1.01563 L4.96875,0.796875 C4.97917,0.786458 5.02083,0.78125 5.09375,0.78125 C5.1875,0.78125 5.28646,0.822917 5.39063,0.90625 C5.47396,0.979167 5.51563,1.06771 5.51563,1.17188 L5.51563,2.39063 C5.51563,2.55729 5.42188,2.67188 5.23438,2.73438 L4.3125,3.09375 L4.3125,6.23438 M3.57813,-1.89063 L1.92188,-1.3125 L1.92188,1.89063 L3.57813,1.3125 L3.57813,-1.89063 "/>
<path class="Accidental" fill="#9f000f" transform="matrix(0.9936,0,0,0.9936,249.935,70.308)" d="M4.3125,6.23438 C4.3125,6.48438 4.1901,6.60938 3.94531,6.60938 C3.70052,6.60938 3.57813,6.48438 3.57813,6.23438 L3.57813,3.34375 L1.92188,3.96875 L1.92188,7.125 C1.92188,7.375 1.79688,7.5 1.54688,7.5 C1.29688,7.5 1.17188,7.375 1.17188,7.125 L1.17188,4.21875 L0.546875,4.45313 C0.536458,4.46354 0.484375,4.46875 0.390625,4.46875 C0.286458,4.46875 0.195313,4.42969 0.117188,4.35156 C0.0390625,4.27344 0,4.18229 0,4.07813 L0,2.875 C0,2.67708 0.0833333,2.55208 0.25,2.5 L1.17188,2.1875 L1.17188,-1.01563 L0.546875,-0.796875 C0.536458,-0.786458 0.484375,-0.78125 0.390625,-0.78125 C0.286458,-0.78125 0.195313,-0.820313 0.117188,-0.898438 C0.0390625,-0.976563 0,-1.06771 0,-1.17188 L0,-2.39063 C0,-2.56771 0.0833333,-2.68229 0.25,-2.73438 L1.17188,-3.09375 L1.17188,-6.23438 C1.17188,-6.48438 1.29688,-6.60938 1.54688,-6.60938 C1.79688,-6.60938 1.92188,-6.48438 1.92188,-6.23438 L1.92188,-3.34375 L3.57813,-3.96875 L3.57813,-7.125 C3.57813,-7.375 3.70052,-7.5 3.94531,-7.5 C4.1901,-7.5 4.3125,-7.375 4.3125,-7.125 L4.3125,-4.21875 L4.96875,-4.45313 C4.97917,-4.46354 5.02083,-4.46875 5.09375,-4.46875 C5.1875,-4.46875 5.28646,-4.43229 5.39063,-4.35938 C5.47396,-4.27604 5.51563,-4.18229 5.51563,-4.07813 L5.51563,-2.875 C5.51563,-2.6875 5.42188,-2.5625 5.23438,-2.5 L4.3125,-2.1875 L4.3125,1.01563 L4.96875,0.796875 C4.97917,0.786458 5.02083,0.78125 5.09375,0.78125 C5.1875,0.78125 5.28646,0.822917 5.39063,0.90625 C5.47396,0.979167 5.51563,1.06771 5.51563,1.17188 L5.51563,2.39063 C5.51563,2.55729 5.42188,2.67188 5.23438,2.73438 L4.3125,3.09375 L4.3125,6.23438 M3.57813,-1.89063 L1.92188,-1.3125 L1.92188,1.89063 L3.57813,1.3125 L3.57813,-1.89063 "/>
<polyline class="Stem" fill="none" stroke="#000000" stroke-width="0.65" stroke-linecap="round" stroke-linejoin="bevel" points="517.559,84.4489 517.559,67.824"/>
<polyline class="Stem" fill="none" stroke="#000000" stroke-width="0.65" stroke-linecap="round" stroke-linejoin="bevel" points="485.547,81.7949 485.547,65.34"/>
<polyline class="Stem" fill="none" stroke="#000000" stroke-width="0.65" stroke-linecap="round" stroke-linejoin="bevel" points="453.714,79.3109 453.714,62.856"/>
<polyline class="Stem" fill="none" stroke="#000000" stroke-width="0.65" stroke-linecap="round" stroke-linejoin="bevel" points="421.882,76.8269 421.882,60.993"/>
<polyline class="Stem" fill="none" stroke="#000000" stroke-width="0.65" stroke-linecap="round" stroke-linejoin="bevel" points="390.049,74.3429 390.049,59.13"/>
<polyline class="Stem" fill="none" stroke="#000000" stroke-width="0.65" stroke-linecap="round" stroke-linejoin="bevel" points="352.322,73.7251 352.322,88.317"/>
<polyline class="Stem" fill="none" stroke="#000000" stroke-width="0.65" stroke-linecap="round" stroke-linejoin="bevel" points="320.489,71.2411 320.489,86.454"/>
<polyline class="Stem" fill="none" stroke="#000000" stroke-width="0.65" stroke-linecap="round" stroke-linejoin="bevel" points="288.656,68.7571 288.656,84.591"/>
<polyline class="Stem" fill="none" stroke="#000000" stroke-width="0.65" stroke-linecap="round" stroke-linejoin="bevel" points="256.824,71.2411 256.824,86.454"/>
<polyline class="Stem" fill="none" stroke="#000000" stroke-width="0.65" stroke-linecap="round" stroke-linejoin="bevel" points="224.991,73.7251 224.991,88.317"/>
<polyline class="Stem" fill="none" stroke="#000000" stroke-width="0.65" stroke-linecap="round" stroke-linejoin="bevel" points="199.054,74.3429 199.054,59.13"/>
<polyline class="Stem" fill="none" stroke="#000000" stroke-width="0.65" stroke-linecap="round" stroke-linejoin="bevel" points="167.221,76.8269 167.221,60.993"/>
<polyline class="Stem" fill="none" stroke="#000000" stroke-width="0.65" stroke-linecap="round" stroke-linejoin="bevel" points="135.388,79.3109 135.388,62.856"/>
<polyline class="Stem" fill="none" stroke="#000000" stroke-width="0.65" stroke-linecap="round" stroke-linejoin="bevel" points="103.556,81.7949 103.556,65.34"/>
<polyline class="Stem" fill="none" stroke="#000000" stroke-width="0.65" stroke-linecap="round" stroke-linejoin="bevel" points="71.7231,84.2789 71.7231,67.824"/>
<path class="Note" fill="#ffffff" fill-rule="evenodd" d="M511.907,133.65 L517.869,133.65 L517.869,141.102 L511.907,141.102 L511.907,133.65 "/>
<path class="Note" transform="matrix(0.9936,0,0,0.9936,512.404,140.854)" d="M0.390625,-3.09375 C0.390625,-5 0.927083,-6.07813 2,-6.32813 C2.14583,-6.36979 2.30208,-6.39063 2.46875,-6.39063 C3.78125,-6.39063 4.47917,-5.40104 4.5625,-3.42188 C4.5625,-3.28646 4.5625,-3.15625 4.5625,-3.03125 C4.5625,-1.40625 4.15104,-0.385417 3.32813,0.03125 C3.06771,0.145833 2.78125,0.203125 2.46875,0.203125 C1.41667,0.203125 0.760417,-0.442708 0.5,-1.73438 C0.427083,-2.14063 0.390625,-2.59375 0.390625,-3.09375 M2.46875,-5.64063 C1.625,-5.63021 1.20313,-4.77083 1.20313,-3.0625 C1.20313,-1.32292 1.61979,-0.453125 2.45313,-0.453125 C3.16146,-0.453125 3.57813,-1.02604 3.70313,-2.17188 C3.73438,-2.44271 3.75,-2.75 3.75,-3.09375 C3.75,-4.79167 3.32292,-5.64063 2.46875,-5.64063"/>
<path class="Note" fill="#78c7c7" transform="matrix(0.9936,0,0,0.9936,510.982,85.212)" d="M6.3125,-1.3125 C6.3125,-1.53125 6.22917,-1.71875 6.0625,-1.875 C5.88542,-2.04167 5.6875,-2.125 5.46875,-2.125 C5.08333,-2.125 4.29688,-1.73438 3.10938,-0.953125 C1.88021,-0.161458 1.13021,0.40625 0.859375,0.75 C0.713542,0.927083 0.640625,1.11458 0.640625,1.3125 C0.640625,1.53125 0.729167,1.71875 0.90625,1.875 C1.0625,2.04167 1.25521,2.125 1.48438,2.125 C1.85938,2.125 2.65625,1.73438 3.875,0.953125 C5.07292,0.171875 5.8125,-0.395833 6.09375,-0.75 C6.23958,-0.916667 6.3125,-1.10417 6.3125,-1.3125 M5.28125,-2.75 C6.39583,-2.75 6.95313,-2.27083 6.95313,-1.3125 C6.95313,-0.84375 6.81771,-0.296875 6.54688,0.328125 C6.27604,0.942708 5.91146,1.41146 5.45313,1.73438 C4.45313,2.41146 3.19792,2.75 1.6875,2.75 C0.5625,2.75 0,2.27083 0,1.3125 C0,0.885417 0.135417,0.34375 0.40625,-0.3125 C0.666667,-0.9375 1.03125,-1.41146 1.5,-1.73438 C2.51042,-2.41146 3.77083,-2.75 5.28125,-2.75"/>
<path class="Note" fill="#ffffff" fill-rule="evenodd" d="M480.074,133.65 L486.036,133.65 L486.036,141.102 L480.074,141.102 L480.074,133.65 "/>
<path class="Note" transform="matrix(0.9936,0,0,0.9936,480.571,140.854)" d="M0.453125,-4.17188 C0.494792,-5.64063 1.19792,-6.38021 2.5625,-6.39063 C3.28125,-6.39063 3.83333,-6.14583 4.21875,-5.65625 C4.46875,-5.32292 4.59375,-4.93229 4.59375,-4.48438 C4.59375,-3.68229 4.14583,-3.03125 3.25,-2.53125 L2.34375,-2.04688 C1.79167,-1.75521 1.44271,-1.4375 1.29688,-1.09375 C1.24479,-0.989583 1.21354,-0.869792 1.20313,-0.734375 L4.5625,-0.734375 L4.5625,0 L0.3125,0 C0.354167,-0.760417 0.520833,-1.33854 0.8125,-1.73438 C1.07292,-2.05729 1.5,-2.38542 2.09375,-2.71875 L2.92188,-3.1875 C3.49479,-3.52083 3.78646,-3.94271 3.79688,-4.45313 C3.79688,-4.88021 3.61458,-5.21354 3.25,-5.45313 C3.04167,-5.57813 2.80208,-5.64063 2.53125,-5.64063 C1.73958,-5.64063 1.3125,-5.16667 1.25,-4.21875 C1.25,-4.19792 1.25,-4.18229 1.25,-4.17188 L0.453125,-4.17188 "/>
<path class="Note" fill="#ff9933" transform="matrix(0.9936,0,0,0.9936,479.329,82.728)" d="M4.39063,-2.75 C5.01563,-2.75 5.54688,-2.58854 5.98438,-2.26563 C6.38021,-1.91146 6.57813,-1.46875 6.57813,-0.9375 C6.57813,-0.0416667 6.11979,0.796875 5.20313,1.57813 C4.26563,2.35938 3.26042,2.75 2.1875,2.75 C1.5625,2.75 1.03646,2.58854 0.609375,2.26563 C0.203125,1.91146 0,1.46875 0,0.9375 C0,0.0416667 0.46875,-0.796875 1.40625,-1.57813 C2.32292,-2.35938 3.31771,-2.75 4.39063,-2.75"/>
<path class="Note" fill="#ffffff" fill-rule="evenodd" d="M448.242,133.65 L454.203,133.65 L454.203,141.102 L448.242,141.102 L448.242,133.65 "/>
<path class="Note" transform="matrix(0.9936,0,0,0.9936,448.739,140.854)" d="M2.4375,-5.64063 C1.75,-5.64063 1.35417,-5.32813 1.25,-4.70313 C1.22917,-4.59896 1.21875,-4.47917 1.21875,-4.34375 L0.421875,-4.34375 C0.442708,-5.59375 1.01563,-6.27083 2.14063,-6.375 C2.23438,-6.38542 2.32813,-6.39063 2.42188,-6.39063 C3.26563,-6.39063 3.84375,-6.10938 4.15625,-5.54688 C4.29167,-5.28646 4.35938,-4.98438 4.35938,-4.64063 C4.35938,-4.00521 4.0625,-3.57292 3.46875,-3.34375 C4.03125,-3.14583 4.375,-2.81771 4.5,-2.35938 C4.54167,-2.19271 4.5625,-2.00521 4.5625,-1.79688 C4.5625,-1.05729 4.27604,-0.505208 3.70313,-0.140625 C3.33854,0.0885417 2.90104,0.203125 2.39063,0.203125 C1.21354,0.203125 0.526042,-0.348958 0.328125,-1.45313 C0.317708,-1.57813 0.302083,-1.71354 0.28125,-1.85938 L1.07813,-1.85938 C1.13021,-1.08854 1.46875,-0.65625 2.09375,-0.5625 C2.19792,-0.541667 2.30729,-0.53125 2.42188,-0.53125 C3.04688,-0.53125 3.45313,-0.765625 3.64063,-1.23438 C3.71354,-1.40104 3.75,-1.58854 3.75,-1.79688 C3.73958,-2.54688 3.29688,-2.92708 2.42188,-2.9375 L2.09375,-2.92188 L1.98438,-2.92188 L1.98438,-3.67188 C2.66146,-3.68229 3.10417,-3.77604 3.3125,-3.95313 C3.47917,-4.09896 3.5625,-4.31771 3.5625,-4.60938 C3.5625,-5.09896 3.34896,-5.41667 2.92188,-5.5625 C2.77604,-5.61458 2.61458,-5.64063 2.4375,-5.64063"/>
<path class="Note" fill="#ebeb19" transform="matrix(0.9936,0,0,0.9936,447.497,80.244)" d="M4.39063,-2.75 C5.01563,-2.75 5.54688,-2.58854 5.98438,-2.26563 C6.38021,-1.91146 6.57813,-1.46875 6.57813,-0.9375 C6.57813,-0.0416667 6.11979,0.796875 5.20313,1.57813 C4.26563,2.35938 3.26042,2.75 2.1875,2.75 C1.5625,2.75 1.03646,2.58854 0.609375,2.26563 C0.203125,1.91146 0,1.46875 0,0.9375 C0,0.0416667 0.46875,-0.796875 1.40625,-1.57813 C2.32292,-2.35938 3.31771,-2.75 4.39063,-2.75"/>
<path class="Note" fill="#ffffff" fill-rule="evenodd" d="M416.409,133.65 L422.371,133.65 L422.371,141.102 L416.409,141.102 L416.409,133.65 "/>
<path class="Note" transform="matrix(0.9936,0,0,0.9936,416.906,140.854)" d="M4.28125,-6.39063 L4.28125,-5.64063 L1.625,-5.64063 L1.375,-3.8125 C1.73958,-4.09375 2.13542,-4.23438 2.5625,-4.23438 C3.28125,-4.23438 3.83333,-3.97396 4.21875,-3.45313 C4.48958,-3.07813 4.625,-2.625 4.625,-2.09375 C4.625,-1.3125 4.35938,-0.708333 3.82813,-0.28125 C3.44271,0.0416667 2.97917,0.203125 2.4375,0.203125 C1.26042,0.203125 0.557292,-0.359375 0.328125,-1.48438 C0.328125,-1.50521 0.322917,-1.53125 0.3125,-1.5625 L1.10938,-1.5625 C1.30729,-0.885417 1.73958,-0.541667 2.40625,-0.53125 C3.02083,-0.53125 3.44271,-0.770833 3.67188,-1.25 C3.76563,-1.46875 3.8125,-1.71354 3.8125,-1.98438 C3.8125,-2.63021 3.58333,-3.07813 3.125,-3.32813 C2.91667,-3.44271 2.67708,-3.5 2.40625,-3.5 C2.03125,-3.5 1.70833,-3.38021 1.4375,-3.14063 C1.375,-3.07813 1.3125,-3.01042 1.25,-2.9375 L0.515625,-2.9375 L0.984375,-6.39063 L4.28125,-6.39063 "/>
<path class="Note" fill="#99cc33" transform="matrix(0.9936,0,0,0.9936,415.664,77.76)" d="M4.39063,-2.75 C5.01563,-2.75 5.54688,-2.58854 5.98438,-2.26563 C6.38021,-1.91146 6.57813,-1.46875 6.57813,-0.9375 C6.57813,-0.0416667 6.11979,0.796875 5.20313,1.57813 C4.26563,2.35938 3.26042,2.75 2.1875,2.75 C1.5625,2.75 1.03646,2.58854 0.609375,2.26563 C0.203125,1.91146 0,1.46875 0,0.9375 C0,0.0416667 0.46875,-0.796875 1.40625,-1.57813 C2.32292,-2.35938 3.31771,-2.75 4.39063,-2.75"/>
<path class="Note" fill="#ffffff" fill-rule="evenodd" d="M384.577,126.198 L390.538,126.198 L390.538,133.65 L384.577,133.65 L384.577,126.198 "/>
<path class="Note" transform="matrix(0.9936,0,0,0.9936,385.073,133.402)" d="M0.453125,-4.17188 C0.494792,-5.64063 1.19792,-6.38021 2.5625,-6.39063 C3.28125,-6.39063 3.83333,-6.14583 4.21875,-5.65625 C4.46875,-5.32292 4.59375,-4.93229 4.59375,-4.48438 C4.59375,-3.68229 4.14583,-3.03125 3.25,-2.53125 L2.34375,-2.04688 C1.79167,-1.75521 1.44271,-1.4375 1.29688,-1.09375 C1.24479,-0.989583 1.21354,-0.869792 1.20313,-0.734375 L4.5625,-0.734375 L4.5625,0 L0.3125,0 C0.354167,-0.760417 0.520833,-1.33854 0.8125,-1.73438 C1.07292,-2.05729 1.5,-2.38542 2.09375,-2.71875 L2.92188,-3.1875 C3.49479,-3.52083 3.78646,-3.94271 3.79688,-4.45313 C3.79688,-4.88021 3.61458,-5.21354 3.25,-5.45313 C3.04167,-5.57813 2.80208,-5.64063 2.53125,-5.64063 C1.73958,-5.64063 1.3125,-5.16667 1.25,-4.21875 C1.25,-4.19792 1.25,-4.18229 1.25,-4.17188 L0.453125,-4.17188 "/>
<path class="Note" fill="#cc00ff" transform="matrix(0.9936,0,0,0.9936,383.831,75.276)" d="M4.39063,-2.75 C5.01563,-2.75 5.54688,-2.58854 5.98438,-2.26563 C6.38021,-1.91146 6.57813,-1.46875 6.57813,-0.9375 C6.57813,-0.0416667 6.11979,0.796875 5.20313,1.57813 C4.26563,2.35938 3.26042,2.75 2.1875,2.75 C1.5625,2.75 1.03646,2.58854 0.609375,2.26563 C0.203125,1.91146 0,1.46875 0,0.9375 C0,0.0416667 0.46875,-0.796875 1.40625,-1.57813 C2.32292,-2.35938 3.31771,-2.75 4.39063,-2.75"/>
<path class="Note" fill="#ffffff" fill-rule="evenodd" d="M352.744,126.198 L358.706,126.198 L358.706,133.65 L352.744,133.65 L352.744,126.198 "/>
<path class="Note" transform="matrix(0.9936,0,0,0.9936,353.241,133.402)" d="M2.4375,-5.64063 C1.75,-5.64063 1.35417,-5.32813 1.25,-4.70313 C1.22917,-4.59896 1.21875,-4.47917 1.21875,-4.34375 L0.421875,-4.34375 C0.442708,-5.59375 1.01563,-6.27083 2.14063,-6.375 C2.23438,-6.38542 2.32813,-6.39063 2.42188,-6.39063 C3.26563,-6.39063 3.84375,-6.10938 4.15625,-5.54688 C4.29167,-5.28646 4.35938,-4.98438 4.35938,-4.64063 C4.35938,-4.00521 4.0625,-3.57292 3.46875,-3.34375 C4.03125,-3.14583 4.375,-2.81771 4.5,-2.35938 C4.54167,-2.19271 4.5625,-2.00521 4.5625,-1.79688 C4.5625,-1.05729 4.27604,-0.505208 3.70313,-0.140625 C3.33854,0.0885417 2.90104,0.203125 2.39063,0.203125 C1.21354,0.203125 0.526042,-0.348958 0.328125,-1.45313 C0.317708,-1.57813 0.302083,-1.71354 0.28125,-1.85938 L1.07813,-1.85938 C1.13021,-1.08854 1.46875,-0.65625 2.09375,-0.5625 C2.19792,-0.541667 2.30729,-0.53125 2.42188,-0.53125 C3.04688,-0.53125 3.45313,-0.765625 3.64063,-1.23438 C3.71354,-1.40104 3.75,-1.58854 3.75,-1.79688 C3.73958,-2.54688 3.29688,-2.92708 2.42188,-2.9375 L2.09375,-2.92188 L1.98438,-2.92188 L1.98438,-3.67188 C2.66146,-3.68229 3.10417,-3.77604 3.3125,-3.95313 C3.47917,-4.09896 3.5625,-4.31771 3.5625,-4.60938 C3.5625,-5.09896 3.34896,-5.41667 2.92188,-5.5625 C2.77604,-5.61458 2.61458,-5.64063 2.4375,-5.64063"/>
<path class="Note" fill="#bf6a1f" transform="matrix(0.9936,0,0,0.9936,351.999,72.792)" d="M4.39063,-2.75 C5.01563,-2.75 5.54688,-2.58854 5.98438,-2.26563 C6.38021,-1.91146 6.57813,-1.46875 6.57813,-0.9375 C6.57813,-0.0416667 6.11979,0.796875 5.20313,1.57813 C4.26563,2.35938 3.26042,2.75 2.1875,2.75 C1.5625,2.75 1.03646,2.58854 0.609375,2.26563 C0.203125,1.91146 0,1.46875 0,0.9375 C0,0.0416667 0.46875,-0.796875 1.40625,-1.57813 C2.32292,-2.35938 3.31771,-2.75 4.39063,-2.75"/>
<path class="Note" fill="#ffffff" fill-rule="evenodd" d="M320.911,118.746 L326.873,118.746 L326.873,126.198 L320.911,126.198 L320.911,118.746 "/>
<path class="Note" transform="matrix(0.9936,0,0,0.9936,321.408,125.95)" d="M0.453125,-4.17188 C0.494792,-5.64063 1.19792,-6.38021 2.5625,-6.39063 C3.28125,-6.39063 3.83333,-6.14583 4.21875,-5.65625 C4.46875,-5.32292 4.59375,-4.93229 4.59375,-4.48438 C4.59375,-3.68229 4.14583,-3.03125 3.25,-2.53125 L2.34375,-2.04688 C1.79167,-1.75521 1.44271,-1.4375 1.29688,-1.09375 C1.24479,-0.989583 1.21354,-0.869792 1.20313,-0.734375 L4.5625,-0.734375 L4.5625,0 L0.3125,0 C0.354167,-0.760417 0.520833,-1.33854 0.8125,-1.73438 C1.07292,-2.05729 1.5,-2.38542 2.09375,-2.71875 L2.92188,-3.1875 C3.49479,-3.52083 3.78646,-3.94271 3.79688,-4.45313 C3.79688,-4.88021 3.61458,-5.21354 3.25,-5.45313 C3.04167,-5.57813 2.80208,-5.64063 2.53125,-5.64063 C1.73958,-5.64063 1.3125,-5.16667 1.25,-4.21875 C1.25,-4.19792 1.25,-4.18229 1.25,-4.17188 L0.453125,-4.17188 "/>
<path class="Note" fill="#9f000f" transform="matrix(0.9936,0,0,0.9936,320.166,70.308)" d="M4.39063,-2.75 C5.01563,-2.75 5.54688,-2.58854 5.98438,-2.26563 C6.38021,-1.91146 6.57813,-1.46875 6.57813,-0.9375 C6.57813,-0.0416667 6.11979,0.796875 5.20313,1.57813 C4.26563,2.35938 3.26042,2.75 2.1875,2.75 C1.5625,2.75 1.03646,2.58854 0.609375,2.26563 C0.203125,1.91146 0,1.46875 0,0.9375 C0,0.0416667 0.46875,-0.796875 1.40625,-1.57813 C2.32292,-2.35938 3.31771,-2.75 4.39063,-2.75"/>
<path class="Note" fill="#ffffff" fill-rule="evenodd" d="M289.079,118.746 L295.04,118.746 L295.04,126.198 L289.079,126.198 L289.079,118.746 "/>
<path class="Note" transform="matrix(0.9936,0,0,0.9936,289.576,125.95)" d="M2.4375,-5.64063 C1.75,-5.64063 1.35417,-5.32813 1.25,-4.70313 C1.22917,-4.59896 1.21875,-4.47917 1.21875,-4.34375 L0.421875,-4.34375 C0.442708,-5.59375 1.01563,-6.27083 2.14063,-6.375 C2.23438,-6.38542 2.32813,-6.39063 2.42188,-6.39063 C3.26563,-6.39063 3.84375,-6.10938 4.15625,-5.54688 C4.29167,-5.28646 4.35938,-4.98438 4.35938,-4.64063 C4.35938,-4.00521 4.0625,-3.57292 3.46875,-3.34375 C4.03125,-3.14583 4.375,-2.81771 4.5,-2.35938 C4.54167,-2.19271 4.5625,-2.00521 4.5625,-1.79688 C4.5625,-1.05729 4.27604,-0.505208 3.70313,-0.140625 C3.33854,0.0885417 2.90104,0.203125 2.39063,0.203125 C1.21354,0.203125 0.526042,-0.348958 0.328125,-1.45313 C0.317708,-1.57813 0.302083,-1.71354 0.28125,-1.85938 L1.07813,-1.85938 C1.13021,-1.08854 1.46875,-0.65625 2.09375,-0.5625 C2.19792,-0.541667 2.30729,-0.53125 2.42188,-0.53125 C3.04688,-0.53125 3.45313,-0.765625 3.64063,-1.23438 C3.71354,-1.40104 3.75,-1.58854 3.75,-1.79688 C3.73958,-2.54688 3.29688,-2.92708 2.42188,-2.9375 L2.09375,-2.92188 L1.98438,-2.92188 L1.98438,-3.67188 C2.66146,-3.68229 3.10417,-3.77604 3.3125,-3.95313 C3.47917,-4.09896 3.5625,-4.31771 3.5625,-4.60938 C3.5625,-5.09896 3.34896,-5.41667 2.92188,-5.5625 C2.77604,-5.61458 2.61458,-5.64063 2.4375,-5.64063"/>
<path class="Note" fill="#78c7c7" transform="matrix(0.9936,0,0,0.9936,288.334,67.824)" d="M4.39063,-2.75 C5.01563,-2.75 5.54688,-2.58854 5.98438,-2.26563 C6.38021,-1.91146 6.57813,-1.46875 6.57813,-0.9375 C6.57813,-0.0416667 6.11979,0.796875 5.20313,1.57813 C4.26563,2.35938 3.26042,2.75 2.1875,2.75 C1.5625,2.75 1.03646,2.58854 0.609375,2.26563 C0.203125,1.91146 0,1.46875 0,0.9375 C0,0.0416667 0.46875,-0.796875 1.40625,-1.57813 C2.32292,-2.35938 3.31771,-2.75 4.39063,-2.75"/>
<path class="Note" fill="#ffffff" fill-rule="evenodd" d="M257.246,118.746 L263.208,118.746 L263.208,126.198 L257.246,126.198 L257.246,118.746 "/>
<path class="Note" transform="matrix(0.9936,0,0,0.9936,257.743,125.95)" d="M0.453125,-4.17188 C0.494792,-5.64063 1.19792,-6.38021 2.5625,-6.39063 C3.28125,-6.39063 3.83333,-6.14583 4.21875,-5.65625 C4.46875,-5.32292 4.59375,-4.93229 4.59375,-4.48438 C4.59375,-3.68229 4.14583,-3.03125 3.25,-2.53125 L2.34375,-2.04688 C1.79167,-1.75521 1.44271,-1.4375 1.29688,-1.09375 C1.24479,-0.989583 1.21354,-0.869792 1.20313,-0.734375 L4.5625,-0.734375 L4.5625,0 L0.3125,0 C0.354167,-0.760417 0.520833,-1.33854 0.8125,-1.73438 C1.07292,-2.05729 1.5,-2.38542 2.09375,-2.71875 L2.92188,-3.1875 C3.49479,-3.52083 3.78646,-3.94271 3.79688,-4.45313 C3.79688,-4.88021 3.61458,-5.21354 3.25,-5.45313 C3.04167,-5.57813 2.80208,-5.64063 2.53125,-5.64063 C1.73958,-5.64063 1.3125,-5.16667 1.25,-4.21875 C1.25,-4.19792 1.25,-4.18229 1.25,-4.17188 L0.453125,-4.17188 "/>
<path class="Note" fill="#9f000f" transform="matrix(0.9936,0,0,0.9936,256.501,70.308)" d="M4.39063,-2.75 C5.01563,-2.75 5.54688,-2.58854 5.98438,-2.26563 C6.38021,-1.91146 6.57813,-1.46875 6.57813,-0.9375 C6.57813,-0.0416667 6.11979,0.796875 5.20313,1.57813 C4.26563,2.35938 3.26042,2.75 2.1875,2.75 C1.5625,2.75 1.03646,2.58854 0.609375,2.26563 C0.203125,1.91146 0,1.46875 0,0.9375 C0,0.0416667 0.46875,-0.796875 1.40625,-1.57813 C2.32292,-2.35938 3.31771,-2.75 4.39063,-2.75"/>
<path class="Note" fill="#ffffff" fill-rule="evenodd" d="M225.414,126.198 L231.375,126.198 L231.375,133.65 L225.414,133.65 L225.414,126.198 "/>
<path class="Note" transform="matrix(0.9936,0,0,0.9936,225.91,133.402)" d="M2.4375,-5.64063 C1.75,-5.64063 1.35417,-5.32813 1.25,-4.70313 C1.22917,-4.59896 1.21875,-4.47917 1.21875,-4.34375 L0.421875,-4.34375 C0.442708,-5.59375 1.01563,-6.27083 2.14063,-6.375 C2.23438,-6.38542 2.32813,-6.39063 2.42188,-6.39063 C3.26563,-6.39063 3.84375,-6.10938 4.15625,-5.54688 C4.29167,-5.28646 4.35938,-4.98438 4.35938,-4.64063 C4.35938,-4.00521 4.0625,-3.57292 3.46875,-3.34375 C4.03125,-3.14583 4.375,-2.81771 4.5,-2.35938 C4.54167,-2.19271 4.5625,-2.00521 4.5625,-1.79688 C4.5625,-1.05729 4.27604,-0.505208 3.70313,-0.140625 C3.33854,0.0885417 2.90104,0.203125 2.39063,0.203125 C1.21354,0.203125 0.526042,-0.348958 0.328125,-1.45313 C0.317708,-1.57813 0.302083,-1.71354 0.28125,-1.85938 L1.07813,-1.85938 C1.13021,-1.08854 1.46875,-0.65625 2.09375,-0.5625 C2.19792,-0.541667 2.30729,-0.53125 2.42188,-0.53125 C3.04688,-0.53125 3.45313,-0.765625 3.64063,-1.23438 C3.71354,-1.40104 3.75,-1.58854 3.75,-1.79688 C3.73958,-2.54688 3.29688,-2.92708 2.42188,-2.9375 L2.09375,-2.92188 L1.98438,-2.92188 L1.98438,-3.67188 C2.66146,-3.68229 3.10417,-3.77604 3.3125,-3.95313 C3.47917,-4.09896 3.5625,-4.31771 3.5625,-4.60938 C3.5625,-5.09896 3.34896,-5.41667 2.92188,-5.5625 C2.77604,-5.61458 2.61458,-5.64063 2.4375,-5.64063"/>
<path class="Note" fill="#bf6a1f" transform="matrix(0.9936,0,0,0.9936,224.668,72.792)" d="M4.39063,-2.75 C5.01563,-2.75 5.54688,-2.58854 5.98438,-2.26563 C6.38021,-1.91146 6.57813,-1.46875 6.57813,-0.9375 C6.57813,-0.0416667 6.11979,0.796875 5.20313,1.57813 C4.26563,2.35938 3.26042,2.75 2.1875,2.75 C1.5625,2.75 1.03646,2.58854 0.609375,2.26563 C0.203125,1.91146 0,1.46875 0,0.9375 C0,0.0416667 0.46875,-0.796875 1.40625,-1.57813 C2.32292,-2.35938 3.31771,-2.75 4.39063,-2.75"/>
<path class="Note" fill="#ffffff" fill-rule="evenodd" d="M193.581,126.198 L199.543,126.198 L199.543,133.65 L193.581,133.65 L193.581,126.198 "/>
<path class="Note" transform="matrix(0.9936,0,0,0.9936,194.078,133.402)" d="M0.453125,-4.17188 C0.494792,-5.64063 1.19792,-6.38021 2.5625,-6.39063 C3.28125,-6.39063 3.83333,-6.14583 4.21875,-5.65625 C4.46875,-5.32292 4.59375,-4.93229 4.59375,-4.48438 C4.59375,-3.68229 4.14583,-3.03125 3.25,-2.53125 L2.34375,-2.04688 C1.79167,-1.75521 1.44271,-1.4375 1.29688,-1.09375 C1.24479,-0.989583 1.21354,-0.869792 1.20313,-0.734375 L4.5625,-0.734375 L4.5625,0 L0.3125,0 C0.354167,-0.760417 0.520833,-1.33854 0.8125,-1.73438 C1.07292,-2.05729 1.5,-2.38542 2.09375,-2.71875 L2.92188,-3.1875 C3.49479,-3.52083 3.78646,-3.94271 3.79688,-4.45313 C3.79688,-4.88021 3.61458,-5.21354 3.25,-5.45313 C3.04167,-5.57813 2.80208,-5.64063 2.53125,-5.64063 C1.73958,-5.64063 1.3125,-5.16667 1.25,-4.21875 C1.25,-4.19792 1.25,-4.18229 1.25,-4.17188 L0.453125,-4.17188 "/>
<path class="Note" fill="#cc00ff" transform="matrix(0.9936,0,0,0.9936,192.836,75.276)" d="M4.39063,-2.75 C5.01563,-2.75 5.54688,-2.58854 5.98438,-2.26563 C6.38021,-1.91146 6.57813,-1.46875 6.57813,-0.9375 C6.57813,-0.0416667 6.11979,0.796875 5.20313,1.57813 C4.26563,2.35938 3.26042,2.75 2.1875,2.75 C1.5625,2.75 1.03646,2.58854 0.609375,2.26563 C0.203125,1.91146 0,1.46875 0,0.9375 C0,0.0416667 0.46875,-0.796875 1.40625,-1.57813 C2.32292,-2.35938 3.31771,-2.75 4.39063,-2.75"/>
<path class="Note" fill="#ffffff" fill-rule="evenodd" d="M161.748,133.65 L167.71,133.65 L167.71,141.102 L161.748,141.102 L161.748,133.65 "/>
<path class="Note" transform="matrix(0.9936,0,0,0.9936,162.245,140.854)" d="M4.28125,-6.39063 L4.28125,-5.64063 L1.625,-5.64063 L1.375,-3.8125 C1.73958,-4.09375 2.13542,-4.23438 2.5625,-4.23438 C3.28125,-4.23438 3.83333,-3.97396 4.21875,-3.45313 C4.48958,-3.07813 4.625,-2.625 4.625,-2.09375 C4.625,-1.3125 4.35938,-0.708333 3.82813,-0.28125 C3.44271,0.0416667 2.97917,0.203125 2.4375,0.203125 C1.26042,0.203125 0.557292,-0.359375 0.328125,-1.48438 C0.328125,-1.50521 0.322917,-1.53125 0.3125,-1.5625 L1.10938,-1.5625 C1.30729,-0.885417 1.73958,-0.541667 2.40625,-0.53125 C3.02083,-0.53125 3.44271,-0.770833 3.67188,-1.25 C3.76563,-1.46875 3.8125,-1.71354 3.8125,-1.98438 C3.8125,-2.63021 3.58333,-3.07813 3.125,-3.32813 C2.91667,-3.44271 2.67708,-3.5 2.40625,-3.5 C2.03125,-3.5 1.70833,-3.38021 1.4375,-3.14063 C1.375,-3.07813 1.3125,-3.01042 1.25,-2.9375 L0.515625,-2.9375 L0.984375,-6.39063 L4.28125,-6.39063 "/>
<path class="Note" fill="#99cc33" transform="matrix(0.9936,0,0,0.9936,161.003,77.76)" d="M4.39063,-2.75 C5.01563,-2.75 5.54688,-2.58854 5.98438,-2.26563 C6.38021,-1.91146 6.57813,-1.46875 6.57813,-0.9375 C6.57813,-0.0416667 6.11979,0.796875 5.20313,1.57813 C4.26563,2.35938 3.26042,2.75 2.1875,2.75 C1.5625,2.75 1.03646,2.58854 0.609375,2.26563 C0.203125,1.91146 0,1.46875 0,0.9375 C0,0.0416667 0.46875,-0.796875 1.40625,-1.57813 C2.32292,-2.35938 3.31771,-2.75 4.39063,-2.75"/>
<path class="Note" fill="#ffffff" fill-rule="evenodd" d="M129.916,133.65 L135.877,133.65 L135.877,141.102 L129.916,141.102 L129.916,133.65 "/>
<path class="Note" transform="matrix(0.9936,0,0,0.9936,130.413,140.854)" d="M2.4375,-5.64063 C1.75,-5.64063 1.35417,-5.32813 1.25,-4.70313 C1.22917,-4.59896 1.21875,-4.47917 1.21875,-4.34375 L0.421875,-4.34375 C0.442708,-5.59375 1.01563,-6.27083 2.14063,-6.375 C2.23438,-6.38542 2.32813,-6.39063 2.42188,-6.39063 C3.26563,-6.39063 3.84375,-6.10938 4.15625,-5.54688 C4.29167,-5.28646 4.35938,-4.98438 4.35938,-4.64063 C4.35938,-4.00521 4.0625,-3.57292 3.46875,-3.34375 C4.03125,-3.14583 4.375,-2.81771 4.5,-2.35938 C4.54167,-2.19271 4.5625,-2.00521 4.5625,-1.79688 C4.5625,-1.05729 4.27604,-0.505208 3.70313,-0.140625 C3.33854,0.0885417 2.90104,0.203125 2.39063,0.203125 C1.21354,0.203125 0.526042,-0.348958 0.328125,-1.45313 C0.317708,-1.57813 0.302083,-1.71354 0.28125,-1.85938 L1.07813,-1.85938 C1.13021,-1.08854 1.46875,-0.65625 2.09375,-0.5625 C2.19792,-0.541667 2.30729,-0.53125 2.42188,-0.53125 C3.04688,-0.53125 3.45313,-0.765625 3.64063,-1.23438 C3.71354,-1.40104 3.75,-1.58854 3.75,-1.79688 C3.73958,-2.54688 3.29688,-2.92708 2.42188,-2.9375 L2.09375,-2.92188 L1.98438,-2.92188 L1.98438,-3.67188 C2.66146,-3.68229 3.10417,-3.77604 3.3125,-3.95313 C3.47917,-4.09896 3.5625,-4.31771 3.5625,-4.60938 C3.5625,-5.09896 3.34896,-5.41667 2.92188,-5.5625 C2.77604,-5.61458 2.61458,-5.64063 2.4375,-5.64063"/>
<path class="Note" fill="#ebeb19" transform="matrix(0.9936,0,0,0.9936,129.171,80.244)" d="M4.39063,-2.75 C5.01563,-2.75 5.54688,-2.58854 5.98438,-2.26563 C6.38021,-1.91146 6.57813,-1.46875 6.57813,-0.9375 C6.57813,-0.0416667 6.11979,0.796875 5.20313,1.57813 C4.26563,2.35938 3.26042,2.75 2.1875,2.75 C1.5625,2.75 1.03646,2.58854 0.609375,2.26563 C0.203125,1.91146 0,1.46875 0,0.9375 C0,0.0416667 0.46875,-0.796875 1.40625,-1.57813 C2.32292,-2.35938 3.31771,-2.75 4.39063,-2.75"/>
<path class="Note" fill="#ffffff" fill-rule="evenodd" d="M98.0831,133.65 L104.045,133.65 L104.045,141.102 L98.0831,141.102 L98.0831,133.65 "/>
<path class="Note" transform="matrix(0.9936,0,0,0.9936,98.5799,140.854)" d="M0.453125,-4.17188 C0.494792,-5.64063 1.19792,-6.38021 2.5625,-6.39063 C3.28125,-6.39063 3.83333,-6.14583 4.21875,-5.65625 C4.46875,-5.32292 4.59375,-4.93229 4.59375,-4.48438 C4.59375,-3.68229 4.14583,-3.03125 3.25,-2.53125 L2.34375,-2.04688 C1.79167,-1.75521 1.44271,-1.4375 1.29688,-1.09375 C1.24479,-0.989583 1.21354,-0.869792 1.20313,-0.734375 L4.5625,-0.734375 L4.5625,0 L0.3125,0 C0.354167,-0.760417 0.520833,-1.33854 0.8125,-1.73438 C1.07292,-2.05729 1.5,-2.38542 2.09375,-2.71875 L2.92188,-3.1875 C3.49479,-3.52083 3.78646,-3.94271 3.79688,-4.45313 C3.79688,-4.88021 3.61458,-5.21354 3.25,-5.45313 C3.04167,-5.57813 2.80208,-5.64063 2.53125,-5.64063 C1.73958,-5.64063 1.3125,-5.16667 1.25,-4.21875 C1.25,-4.19792 1.25,-4.18229 1.25,-4.17188 L0.453125,-4.17188 "/>
<path class="Note" fill="#ff9933" transform="matrix(0.9936,0,0,0.9936,97.3379,82.728)" d="M4.39063,-2.75 C5.01563,-2.75 5.54688,-2.58854 5.98438,-2.26563 C6.38021,-1.91146 6.57813,-1.46875 6.57813,-0.9375 C6.57813,-0.0416667 6.11979,0.796875 5.20313,1.57813 C4.26563,2.35938 3.26042,2.75 2.1875,2.75 C1.5625,2.75 1.03646,2.58854 0.609375,2.26563 C0.203125,1.91146 0,1.46875 0,0.9375 C0,0.0416667 0.46875,-0.796875 1.40625,-1.57813 C2.32292,-2.35938 3.31771,-2.75 4.39063,-2.75"/>
<path class="Note" fill="#ffffff" fill-rule="evenodd" d="M66.2505,133.65 L72.2121,133.65 L72.2121,141.102 L66.2505,141.102 L66.2505,133.65 "/>
<path class="Note" transform="matrix(0.9936,0,0,0.9936,66.7473,140.854)" d="M0.390625,-3.09375 C0.390625,-5 0.927083,-6.07813 2,-6.32813 C2.14583,-6.36979 2.30208,-6.39063 2.46875,-6.39063 C3.78125,-6.39063 4.47917,-5.40104 4.5625,-3.42188 C4.5625,-3.28646 4.5625,-3.15625 4.5625,-3.03125 C4.5625,-1.40625 4.15104,-0.385417 3.32813,0.03125 C3.06771,0.145833 2.78125,0.203125 2.46875,0.203125 C1.41667,0.203125 0.760417,-0.442708 0.5,-1.73438 C0.427083,-2.14063 0.390625,-2.59375 0.390625,-3.09375 M2.46875,-5.64063 C1.625,-5.63021 1.20313,-4.77083 1.20313,-3.0625 C1.20313,-1.32292 1.61979,-0.453125 2.45313,-0.453125 C3.16146,-0.453125 3.57813,-1.02604 3.70313,-2.17188 C3.73438,-2.44271 3.75,-2.75 3.75,-3.09375 C3.75,-4.79167 3.32292,-5.64063 2.46875,-5.64063"/>
<path class="Note" fill="#78c7c7" transform="matrix(0.9936,0,0,0.9936,65.5053,85.212)" d="M4.39063,-2.75 C5.01563,-2.75 5.54688,-2.58854 5.98438,-2.26563 C6.38021,-1.91146 6.57813,-1.46875 6.57813,-0.9375 C6.57813,-0.0416667 6.11979,0.796875 5.20313,1.57813 C4.26563,2.35938 3.26042,2.75 2.1875,2.75 C1.5625,2.75 1.03646,2.58854 0.609375,2.26563 C0.203125,1.91146 0,1.46875 0,0.9375 C0,0.0416667 0.46875,-0.796875 1.40625,-1.57813 C2.32292,-2.35938 3.31771,-2.75 4.39063,-2.75"/>
<path class="Clef" transform="matrix(0.9936,0,0,0.9936,32.0544,133.65)" d="M5.32813,8.5 C5.32813,8.86458 5.04167,9.04688 4.46875,9.04688 C4.02083,9.04688 3.625,8.91146 3.28125,8.64063 C2.95833,8.34896 2.79688,7.98438 2.79688,7.54688 C2.79688,6.76563 3.27083,6.14063 4.21875,5.67188 C5.14583,5.18229 6.23438,4.9375 7.48438,4.9375 C7.96354,4.9375 8.47917,4.97396 9.03125,5.04688 C9.42708,5.09896 9.875,5.20313 10.375,5.35938 C10.8125,5.49479 11.1563,5.70573 11.4063,5.99219 C11.6563,6.27865 11.7813,6.61458 11.7813,7 C11.7813,7.89583 11.3177,8.63021 10.3906,9.20313 C11.7448,9.45313 12.4271,10.0573 12.4375,11.0156 C12.4375,11.8281 12.0729,12.5599 11.3438,13.2109 C10.6146,13.862 9.79167,14.1875 8.875,14.1875 C8.47917,14.1875 8.07813,14.0938 7.67188,13.9063 C7.29688,13.7292 7.03125,13.5625 6.875,13.4063 C6.71875,13.2188 6.64063,13.0781 6.64063,12.9844 C6.64063,12.8594 6.70833,12.75 6.84375,12.6563 C6.95833,12.5417 7.07813,12.4844 7.20313,12.4844 C7.25521,12.4844 7.36719,12.5677 7.53906,12.7344 C7.71094,12.901 7.95833,12.9844 8.28125,12.9844 C8.72917,12.9844 9.16146,12.7969 9.57813,12.4219 C9.97396,12.0573 10.1719,11.6198 10.1719,11.1094 C10.1719,10.6719 9.98438,10.3542 9.60938,10.1563 C9.24479,9.95833 8.76563,9.85938 8.17188,9.85938 C8.06771,9.85938 8.01563,9.75 8.01563,9.53125 C8.01563,9.21875 8.13021,9.0625 8.35938,9.0625 C8.72396,9.0625 9.05208,8.90625 9.34375,8.59375 C9.61458,8.26042 9.75,7.90104 9.75,7.51563 C9.75,7.40104 9.71875,7.22917 9.65625,7 C9.60417,6.84375 9.44792,6.65104 9.1875,6.42188 C8.9375,6.21354 8.58854,6.07292 8.14063,6 C8.02604,6.63542 7.88021,7.44792 7.70313,8.4375 C7.52604,9.42708 7.40625,10.0781 7.34375,10.3906 C7.125,11.5156 6.72396,12.4583 6.14063,13.2188 C5.52604,14.0313 4.86458,14.4375 4.15625,14.4375 C3.9375,14.4375 3.71354,14.3854 3.48438,14.2813 C3.29688,14.1979 3.0625,14.0365 2.78125,13.7969 C2.52083,13.5885 2.34375,13.4479 2.25,13.375 C2.19792,13.3438 2.17188,13.2865 2.17188,13.2031 C2.17188,13.0781 2.21875,12.9635 2.3125,12.8594 C2.41667,12.7344 2.52604,12.6719 2.64063,12.6719 C2.71354,12.6719 2.89323,12.7969 3.17969,13.0469 C3.46615,13.2969 3.76563,13.4219 4.07813,13.4219 C4.68229,13.4219 5.13542,13.0365 5.4375,12.2656 C5.71875,11.526 5.85938,10.6094 5.85938,9.51563 L5.85938,9.35938 C5.85938,8.63021 5.97917,7.54167 6.21875,6.09375 C5.80208,6.22917 5.46875,6.42708 5.21875,6.6875 C4.95833,6.94792 4.82813,7.21875 4.82813,7.5 C4.82813,7.71875 4.91146,7.90625 5.07813,8.0625 C5.24479,8.21875 5.32813,8.36458 5.32813,8.5 M1.40625,2.39063 C1.46875,2.39063 1.625,2.45313 1.875,2.57813 C2.13542,2.71354 2.35938,2.78125 2.54688,2.78125 C3.03646,2.78125 3.64063,2.42188 4.35938,1.70313 C6.43229,-0.411458 7.85938,-2.65104 8.64063,-5.01563 C8.79688,-5.51563 9.17708,-5.76563 9.78125,-5.76563 C10.0938,-5.76563 10.3646,-5.69792 10.5938,-5.5625 C10.8125,-5.42708 10.9219,-5.28646 10.9219,-5.14063 L10.5625,2.17188 C10.5625,2.55729 10.7031,2.75 10.9844,2.75 C11.1198,2.75 11.3281,2.6875 11.6094,2.5625 C11.8698,2.42708 12.026,2.35938 12.0781,2.35938 C12.1823,2.35938 12.2448,2.47396 12.2656,2.70313 C12.2656,2.91146 12.1823,3.04167 12.0156,3.09375 C11.8802,3.125 11.6198,3.24479 11.2344,3.45313 C10.8281,3.66146 10.5104,3.76563 10.2813,3.76563 C9.78125,3.76563 9.42708,3.375 9.21875,2.59375 C8.89583,1.375 8.6875,0.104167 8.59375,-1.21875 C8.07292,-0.552083 7.49479,0.119792 6.85938,0.796875 C7.08854,1.24479 7.51563,1.46875 8.14063,1.46875 C8.23438,1.46875 8.30729,1.46354 8.35938,1.45313 L8.375,1.45313 C8.47917,1.45313 8.53125,1.54688 8.53125,1.73438 C8.53125,1.98438 8.44792,2.13542 8.28125,2.1875 C8.01042,2.28125 7.72396,2.32813 7.42188,2.32813 C6.77604,2.32813 6.30729,2.10417 6.01563,1.65625 L5.23438,2.35938 C4.14063,3.29688 3.25,3.76563 2.5625,3.76563 C2.375,3.76563 2.1875,3.73438 2,3.67188 C1.84375,3.60938 1.66146,3.51042 1.45313,3.375 C1.36979,3.34375 1.27865,3.29688 1.17969,3.23438 C1.08073,3.17188 1.02083,3.13542 1,3.125 C0.9375,3.10417 0.90625,3.04688 0.90625,2.95313 C0.90625,2.84896 0.958333,2.72396 1.0625,2.57813 C1.14583,2.45313 1.26042,2.39063 1.40625,2.39063 M5.76563,-10.7969 C5.76563,-10.474 5.48438,-10.3125 4.92188,-10.3125 C4.43229,-10.3125 4.00521,-10.474 3.64063,-10.7969 C3.28646,-11.1302 3.10938,-11.5313 3.10938,-12 C3.10938,-12.4479 3.25,-12.8385 3.53125,-13.1719 C3.83333,-13.5052 4.21875,-13.7552 4.6875,-13.9219 C5.11458,-14.0781 5.59896,-14.2031 6.14063,-14.2969 C6.69271,-14.3594 7.22396,-14.3906 7.73438,-14.3906 C8.03646,-14.3906 8.59896,-14.2552 9.42188,-13.9844 C10.2552,-13.7135 10.8333,-13.5781 11.1563,-13.5781 C11.5625,-13.5781 11.9479,-13.651 12.3125,-13.7969 C12.6042,-13.9219 12.8906,-14.0677 13.1719,-14.2344 C13.3906,-14.3802 13.5104,-14.4531 13.5313,-14.4531 C13.6563,-14.4531 13.7604,-14.4167 13.8438,-14.3438 C13.9479,-14.2396 14,-14.151 14,-14.0781 C14,-13.9948 13.8802,-13.849 13.6406,-13.6406 C13.3802,-13.401 13.0078,-13.1641 12.5234,-12.9297 C12.0391,-12.6953 11.5313,-12.5781 11,-12.5781 C10.7604,-12.5781 10.4688,-12.6198 10.125,-12.7031 C9.89583,-11.2552 9.66146,-9.96875 9.42188,-8.84375 C9.21354,-7.85417 8.79688,-6.98958 8.17188,-6.25 C7.56771,-5.51042 6.89583,-5.14063 6.15625,-5.14063 C5.85417,-5.14063 5.58854,-5.19792 5.35938,-5.3125 C5.09896,-5.44792 4.82292,-5.64583 4.53125,-5.90625 C4.30208,-6.09375 4.08333,-6.26563 3.875,-6.42188 C3.82292,-6.46354 3.79688,-6.52604 3.79688,-6.60938 C3.79688,-6.69271 3.84896,-6.80729 3.95313,-6.95313 C4.05729,-7.06771 4.15104,-7.125 4.23438,-7.125 C4.31771,-7.125 4.54167,-6.96354 4.90625,-6.64063 C5.27083,-6.31771 5.59375,-6.15625 5.875,-6.15625 C6.39583,-6.15625 6.80208,-6.45313 7.09375,-7.04688 C7.375,-7.64063 7.53646,-8.34375 7.57813,-9.15625 C7.64063,-10.5 7.79167,-11.8906 8.03125,-13.3281 C7.73958,-13.3906 7.52604,-13.4219 7.39063,-13.4219 C6.76563,-13.4219 6.22917,-13.2917 5.78125,-13.0313 C5.34375,-12.7813 5.125,-12.4427 5.125,-12.0156 C5.125,-11.7031 5.22917,-11.4635 5.4375,-11.2969 C5.65625,-11.1094 5.76563,-10.9427 5.76563,-10.7969"/>
<path class="Clef" transform="matrix(0.9936,0,0,0.9936,32.0544,77.76)" d="M7.34375,-5.125 C7.34375,-5.125 7.38542,-5.125 7.46875,-5.125 C7.52083,-5.13542 7.5625,-5.14063 7.59375,-5.14063 C9.05208,-5.14063 10.25,-4.625 11.1875,-3.59375 C12.125,-2.58333 12.5938,-1.40104 12.5938,-0.046875 C12.5938,1.64063 11.901,3.01042 10.5156,4.0625 C10.151,4.35417 9.67188,4.58854 9.07813,4.76563 C9.15104,5.60938 9.1875,6.29167 9.1875,6.8125 C9.1875,6.91667 9.17188,7.29688 9.14063,7.95313 C9.08854,9.16146 8.67188,10.2083 7.89063,11.0938 C7.14063,11.9688 6.20313,12.4063 5.07813,12.4063 C4.02604,12.4063 3.13021,12.0365 2.39063,11.2969 C1.64063,10.5365 1.26563,9.625 1.26563,8.5625 C1.26563,8 1.48438,7.52083 1.92188,7.125 C2.35938,6.73958 2.86979,6.54688 3.45313,6.54688 C3.97396,6.54688 4.41146,6.75 4.76563,7.15625 C5.13021,7.53125 5.3125,8 5.3125,8.5625 C5.3125,9.0625 5.13021,9.49479 4.76563,9.85938 C4.40104,10.224 3.96354,10.4063 3.45313,10.4063 C3.24479,10.4063 3.04688,10.3698 2.85938,10.2969 C3.43229,11.1406 4.19271,11.5625 5.14063,11.5625 C6.03646,11.5625 6.77083,11.1979 7.34375,10.4688 C7.94792,9.71875 8.27604,8.83854 8.32813,7.82813 C8.34896,7.20313 8.35938,6.84896 8.35938,6.76563 C8.35938,6.03646 8.33333,5.4375 8.28125,4.96875 C7.63542,5.07292 7.05729,5.125 6.54688,5.125 C4.73438,5.125 3.19271,4.40625 1.92188,2.96875 C0.671875,1.52083 0.046875,-0.197917 0.046875,-2.1875 C0.046875,-2.60417 0.0833333,-3.02604 0.15625,-3.45313 C0.239583,-3.80729 0.338542,-4.19271 0.453125,-4.60938 C0.515625,-4.84896 0.692708,-5.22917 0.984375,-5.75 C1.08854,-5.90625 1.20573,-6.10156 1.33594,-6.33594 C1.46615,-6.57031 1.55729,-6.72396 1.60938,-6.79688 C1.73438,-7.05729 1.98438,-7.41146 2.35938,-7.85938 C2.46354,-7.97396 2.57292,-8.10156 2.6875,-8.24219 C2.80208,-8.38281 2.89844,-8.5 2.97656,-8.59375 C3.05469,-8.6875 3.11198,-8.76042 3.14844,-8.8125 C3.1849,-8.86458 3.47917,-9.20833 4.03125,-9.84375 C4.15625,-9.97917 4.28125,-10.1198 4.40625,-10.2656 C4.53125,-10.4115 4.63281,-10.5286 4.71094,-10.6172 C4.78906,-10.7057 4.84896,-10.7656 4.89063,-10.7969 C4.42188,-12.349 4.125,-13.5885 4,-14.5156 C3.91667,-15.2552 3.875,-16.2708 3.875,-17.5625 C3.875,-18.6979 4.13542,-19.7604 4.65625,-20.75 C5.15625,-21.7708 5.86458,-22.6094 6.78125,-23.2656 C6.84375,-23.3073 6.90625,-23.3281 6.96875,-23.3281 C7.0625,-23.3281 7.13021,-23.3073 7.17188,-23.2656 C7.86979,-22.4219 8.47396,-21.3229 8.98438,-19.9688 C9.50521,-18.6146 9.76563,-17.3802 9.76563,-16.2656 C9.76563,-15.0156 9.46875,-13.8438 8.875,-12.75 C8.19792,-11.5938 7.32292,-10.3958 6.25,-9.15625 C6.52083,-8.30208 6.88542,-6.95833 7.34375,-5.125 M9,3.96875 C9.67708,3.71875 10.2083,3.29688 10.5938,2.70313 C11.0104,2.13021 11.2188,1.48438 11.2188,0.765625 C11.2188,-0.161458 10.9063,-0.984375 10.2813,-1.70313 C9.63542,-2.44271 8.81771,-2.85938 7.82813,-2.95313 C8.39063,-0.203125 8.78125,2.10417 9,3.96875 M1.45313,-0.546875 C1.45313,0.744792 1.97396,1.88021 3.01563,2.85938 C4.07813,3.80729 5.27604,4.28125 6.60938,4.28125 C7.15104,4.28125 7.68229,4.23958 8.20313,4.15625 C7.99479,2.17708 7.58333,-0.192708 6.96875,-2.95313 C6.22917,-2.86979 5.64063,-2.60938 5.20313,-2.17188 C4.76563,-1.71354 4.54688,-1.19792 4.54688,-0.625 C4.54688,0.364583 5.07813,1.16667 6.14063,1.78125 C6.22396,1.875 6.26563,1.97396 6.26563,2.07813 C6.26563,2.18229 6.22396,2.27604 6.14063,2.35938 C6.05729,2.45313 5.95833,2.5 5.84375,2.5 C5.83333,2.5 5.77604,2.48958 5.67188,2.46875 C4.92188,2.0625 4.34896,1.54167 3.95313,0.90625 C3.56771,0.21875 3.375,-0.46875 3.375,-1.15625 C3.375,-2.05208 3.65625,-2.86458 4.21875,-3.59375 C4.80208,-4.32292 5.5625,-4.79167 6.5,-5 C6.13542,-6.45833 5.83854,-7.59896 5.60938,-8.42188 C5.40104,-8.18229 5.15104,-7.89844 4.85938,-7.57031 C4.56771,-7.24219 4.39583,-7.04167 4.34375,-6.96875 C3.875,-6.36458 3.51563,-5.89063 3.26563,-5.54688 C2.81771,-4.93229 2.48958,-4.40625 2.28125,-3.96875 C2.0625,-3.46875 1.86979,-2.92708 1.70313,-2.34375 C1.53646,-1.78125 1.45313,-1.18229 1.45313,-0.546875 M7.96875,-20.4063 C6.98958,-19.9271 6.22396,-19.2396 5.67188,-18.3438 C5.09896,-17.4167 4.8125,-16.4219 4.8125,-15.3594 C4.8125,-14.4219 5.04688,-13.1563 5.51563,-11.5625 C6.45313,-12.6979 7.15625,-13.7448 7.625,-14.7031 C8.11458,-15.724 8.35938,-16.7865 8.35938,-17.8906 C8.35938,-18.724 8.22917,-19.5625 7.96875,-20.4063 M5.82813,15.2344 C6.16146,14.901 6.32813,14.5625 6.32813,14.2188 C6.30729,13.9479 6.19271,13.7396 5.98438,13.5938 C5.74479,13.4375 5.46875,13.3594 5.15625,13.3594 C4.9375,13.3594 4.75521,13.4323 4.60938,13.5781 C4.48438,13.7031 4.42188,13.8646 4.42188,14.0625 C4.42188,14.3021 4.51563,14.4792 4.70313,14.5938 L5.82813,15.2344 M6.14063,15.4063 C6.68229,15.7083 6.95313,16.1146 6.95313,16.625 L6.95313,16.6875 C6.95313,17.0833 6.79167,17.4219 6.46875,17.7031 C6.14583,17.9844 5.68229,18.125 5.07813,18.125 C4.58854,18.125 4.16146,17.9948 3.79688,17.7344 C3.43229,17.4844 3.25,17.1458 3.25,16.7188 C3.25,16.5521 3.29167,16.3958 3.375,16.25 C3.47917,16.0833 3.56771,15.9688 3.64063,15.9063 L4,15.5313 C3.60417,15.2604 3.40625,14.901 3.40625,14.4531 C3.40625,14.099 3.5625,13.7865 3.875,13.5156 C4.19792,13.2552 4.625,13.125 5.15625,13.125 C5.60417,13.125 5.98438,13.224 6.29688,13.4219 C6.60938,13.6198 6.76563,13.8854 6.76563,14.2188 C6.76563,14.5729 6.55729,14.9688 6.14063,15.4063 M4.29688,15.7031 C3.91146,16.0469 3.70313,16.3854 3.67188,16.7188 C3.70313,17.0729 3.84896,17.3542 4.10938,17.5625 C4.39063,17.7813 4.71354,17.8906 5.07813,17.8906 C5.33854,17.8906 5.54688,17.8073 5.70313,17.6406 C5.85938,17.4844 5.9375,17.2969 5.9375,17.0781 C5.92708,16.7865 5.8125,16.5781 5.59375,16.4531 L4.29688,15.7031 "/>
<path class="KeySig" transform="matrix(0.9936,0,0,0.9936,49.4657,72.792)" d="M0.921875,-0.828125 L0.921875,0.71875 C0.921875,1.27083 0.947917,1.70833 1,2.03125 C1.42708,1.66667 1.73438,1.39583 1.92188,1.21875 C2.13021,1.01042 2.33854,0.721354 2.54688,0.351563 C2.75521,-0.0182292 2.85938,-0.385417 2.85938,-0.75 C2.85938,-1.11458 2.78125,-1.42708 2.625,-1.6875 C2.46875,-1.94792 2.26042,-2.07813 2,-2.07813 C1.6875,-2.07813 1.42708,-1.95833 1.21875,-1.71875 C1.02083,-1.45833 0.921875,-1.16146 0.921875,-0.828125 M0.09375,2.75 L-0.15625,-9.14063 C0.03125,-9.24479 0.216146,-9.29688 0.398438,-9.29688 C0.580729,-9.29688 0.760417,-9.24479 0.9375,-9.14063 L0.78125,-2.25 C1.3125,-2.70833 1.92708,-2.9375 2.625,-2.9375 C3.125,-2.9375 3.54427,-2.72917 3.88281,-2.3125 C4.22135,-1.89583 4.39063,-1.41667 4.39063,-0.875 C4.39063,-0.541667 4.28125,-0.182292 4.0625,0.203125 C3.85417,0.546875 3.63542,0.817708 3.40625,1.01563 C3.27083,1.11979 2.9375,1.38021 2.40625,1.79688 C2.25,1.91146 2.0651,2.04688 1.85156,2.20313 C1.63802,2.35938 1.50521,2.45833 1.45313,2.5 C1.35938,2.55208 1.27083,2.65625 1.1875,2.8125 C1.10417,2.94792 1,3.05729 0.875,3.14063 C0.791667,3.22396 0.684896,3.26563 0.554688,3.26563 C0.424479,3.26563 0.317708,3.21875 0.234375,3.125 C0.140625,3.03125 0.09375,2.90625 0.09375,2.75"/>
<path class="Fingering" d="M506.498,87.8214 C505.905,87.8214 505.441,87.5141 505.108,86.8995 C504.827,86.3995 504.686,85.7745 504.686,85.0245 C504.686,84.1287 504.894,83.4255 505.311,82.9151 C505.644,82.5193 506.051,82.3162 506.53,82.3057 C507.092,82.3057 507.535,82.5922 507.858,83.1651 C508.16,83.6755 508.311,84.311 508.311,85.0714 C508.311,86.0401 508.087,86.7797 507.639,87.2901 C507.316,87.6443 506.936,87.8214 506.498,87.8214 M506.498,82.5089 C505.853,82.5089 505.504,83.2797 505.452,84.8214 C505.452,84.9151 505.452,85.0089 505.452,85.1026 C505.462,86.7693 505.811,87.6078 506.498,87.6182 C507.186,87.6078 507.53,86.7641 507.53,85.087 C507.53,83.5662 507.259,82.7172 506.717,82.5401 C506.644,82.5193 506.571,82.5089 506.498,82.5089"/>
<path class="Fingering" d="M474.314,80.4936 C474.199,80.4936 474.007,80.5509 473.736,80.6655 L473.736,80.5561 L475.173,79.8217 L475.236,79.8374 L475.236,84.6342 C475.236,84.8426 475.298,84.978 475.423,85.0405 C475.527,85.0822 475.72,85.103 476.001,85.103 L476.001,85.228 L473.783,85.228 L473.783,85.103 C474.137,85.0926 474.361,85.0301 474.455,84.9155 C474.517,84.8217 474.548,84.6759 474.548,84.478 L474.548,80.8686 C474.538,80.6186 474.46,80.4936 474.314,80.4936"/>
<path class="Fingering" d="M441.263,78.9315 C441.502,77.9107 442.028,77.3846 442.841,77.3534 C442.872,77.3534 442.898,77.3534 442.919,77.3534 C443.408,77.3534 443.799,77.5305 444.091,77.8846 C444.299,78.145 444.403,78.4367 444.403,78.7596 C444.403,79.3534 444.085,79.994 443.45,80.6815 C443.429,80.7023 443.403,80.7232 443.372,80.744 L442.044,82.1659 L443.95,82.1659 C444.158,82.1659 444.32,82.1086 444.434,81.994 C444.507,81.9211 444.596,81.8013 444.7,81.6346 L444.809,81.6659 L444.372,82.744 L441.247,82.744 L441.247,82.6502 L442.669,81.1346 C443.346,80.395 443.695,79.7023 443.716,79.0565 C443.716,78.6086 443.544,78.2857 443.2,78.0877 C443.023,77.9836 442.82,77.9315 442.591,77.9315 C442.237,77.9315 441.96,78.0669 441.763,78.3377 C441.648,78.494 441.539,78.7075 441.434,78.9784 L441.263,78.9315 "/>
<path class="Fingering" d="M412.961,78.4475 L412.961,78.9319 L412.133,78.9319 L412.133,80.26 L411.524,80.26 L411.524,78.9319 L409.274,78.9319 L409.274,78.4475 L411.789,74.8537 L412.133,74.8537 L412.133,78.4475 L412.961,78.4475 M411.508,78.4475 L411.508,75.6975 L409.602,78.4475 L411.508,78.4475 "/>
<path class="Fingering" d="M378.816,73.0416 C378.702,73.0416 378.509,73.0989 378.238,73.2135 L378.238,73.1041 L379.675,72.3697 L379.738,72.3854 L379.738,77.1822 C379.738,77.3906 379.8,77.526 379.925,77.5885 C380.03,77.6302 380.222,77.651 380.504,77.651 L380.504,77.776 L378.285,77.776 L378.285,77.651 C378.639,77.6406 378.863,77.5781 378.957,77.4635 C379.019,77.3697 379.05,77.2239 379.05,77.026 L379.05,73.4166 C379.04,73.1666 378.962,73.0416 378.816,73.0416"/>
<path class="Fingering" d="M345.765,71.4795 C346.004,70.4587 346.53,69.9326 347.343,69.9014 C347.374,69.9014 347.4,69.9014 347.421,69.9014 C347.911,69.9014 348.301,70.0785 348.593,70.4326 C348.801,70.693 348.905,70.9847 348.905,71.3076 C348.905,71.9014 348.588,72.542 347.952,73.2295 C347.931,73.2503 347.905,73.2712 347.874,73.292 L346.546,74.7139 L348.452,74.7139 C348.661,74.7139 348.822,74.6566 348.937,74.542 C349.01,74.4691 349.098,74.3493 349.202,74.1826 L349.312,74.2139 L348.874,75.292 L345.749,75.292 L345.749,75.1983 L347.171,73.6826 C347.848,72.943 348.197,72.2503 348.218,71.6045 C348.218,71.1566 348.046,70.8337 347.702,70.6358 C347.525,70.5316 347.322,70.4795 347.093,70.4795 C346.739,70.4795 346.463,70.6149 346.265,70.8858 C346.15,71.042 346.041,71.2555 345.937,71.5264 L345.765,71.4795 "/>
<path class="Fingering" d="M309.082,66.5832 C308.968,66.5832 308.775,66.6405 308.504,66.7551 L308.504,66.6457 L309.942,65.9113 L310.004,65.927 L310.004,70.7238 C310.004,70.9322 310.067,71.0676 310.192,71.1301 C310.296,71.1718 310.488,71.1926 310.77,71.1926 L310.77,71.3176 L308.551,71.3176 L308.551,71.1926 C308.905,71.1822 309.129,71.1197 309.223,71.0051 C309.285,70.9113 309.317,70.7655 309.317,70.5676 L309.317,66.9582 C309.306,66.7082 309.228,66.5832 309.082,66.5832"/>
<path class="Fingering" d="M282.1,66.5115 C282.339,65.4907 282.865,64.9646 283.678,64.9334 C283.709,64.9334 283.735,64.9334 283.756,64.9334 C284.245,64.9334 284.636,65.1105 284.928,65.4646 C285.136,65.725 285.24,66.0167 285.24,66.3396 C285.24,66.9334 284.922,67.574 284.287,68.2615 C284.266,68.2823 284.24,68.3032 284.209,68.324 L282.881,69.7459 L284.787,69.7459 C284.995,69.7459 285.157,69.6886 285.271,69.574 C285.344,69.5011 285.433,69.3813 285.537,69.2146 L285.646,69.2459 L285.209,70.324 L282.084,70.324 L282.084,70.2302 L283.506,68.7146 C284.183,67.975 284.532,67.2823 284.553,66.6365 C284.553,66.1886 284.381,65.8657 284.037,65.6677 C283.86,65.5636 283.657,65.5115 283.428,65.5115 C283.074,65.5115 282.797,65.6469 282.6,65.9177 C282.485,66.074 282.376,66.2875 282.271,66.5584 L282.1,66.5115 "/>
<path class="Fingering" d="M245.417,66.5832 C245.302,66.5832 245.11,66.6405 244.839,66.7551 L244.839,66.6457 L246.276,65.9113 L246.339,65.927 L246.339,70.7238 C246.339,70.9322 246.401,71.0676 246.526,71.1301 C246.631,71.1718 246.823,71.1926 247.104,71.1926 L247.104,71.3176 L244.886,71.3176 L244.886,71.1926 C245.24,71.1822 245.464,71.1197 245.558,71.0051 C245.62,70.9113 245.651,70.7655 245.651,70.5676 L245.651,66.9582 C245.641,66.7082 245.563,66.5832 245.417,66.5832"/>
<path class="Fingering" d="M218.434,71.4795 C218.674,70.4587 219.2,69.9326 220.012,69.9014 C220.044,69.9014 220.07,69.9014 220.091,69.9014 C220.58,69.9014 220.971,70.0785 221.262,70.4326 C221.471,70.693 221.575,70.9847 221.575,71.3076 C221.575,71.9014 221.257,72.542 220.622,73.2295 C220.601,73.2503 220.575,73.2712 220.544,73.292 L219.216,74.7139 L221.122,74.7139 C221.33,74.7139 221.492,74.6566 221.606,74.542 C221.679,74.4691 221.768,74.3493 221.872,74.1826 L221.981,74.2139 L221.544,75.292 L218.419,75.292 L218.419,75.1983 L219.841,73.6826 C220.518,72.943 220.867,72.2503 220.887,71.6045 C220.887,71.1566 220.716,70.8337 220.372,70.6358 C220.195,70.5316 219.992,70.4795 219.762,70.4795 C219.408,70.4795 219.132,70.6149 218.934,70.8858 C218.82,71.042 218.71,71.2555 218.606,71.5264 L218.434,71.4795 "/>
<path class="Fingering" d="M188.317,72.048 C188.203,72.048 188.01,72.1053 187.739,72.2199 L187.739,72.1105 L189.177,71.3761 L189.239,71.3918 L189.239,76.1886 C189.239,76.397 189.302,76.5324 189.427,76.5949 C189.531,76.6366 189.724,76.6574 190.005,76.6574 L190.005,76.7824 L187.786,76.7824 L187.786,76.6574 C188.14,76.647 188.364,76.5845 188.458,76.4699 C188.52,76.3761 188.552,76.2303 188.552,76.0324 L188.552,72.423 C188.541,72.173 188.463,72.048 188.317,72.048"/>
<path class="Fingering" d="M158.3,78.4475 L158.3,78.9319 L157.472,78.9319 L157.472,80.26 L156.863,80.26 L156.863,78.9319 L154.613,78.9319 L154.613,78.4475 L157.129,74.8537 L157.472,74.8537 L157.472,78.4475 L158.3,78.4475 M156.847,78.4475 L156.847,75.6975 L154.941,78.4475 L156.847,78.4475 "/>
<path class="Fingering" d="M122.937,78.9315 C123.176,77.9107 123.702,77.3846 124.515,77.3534 C124.546,77.3534 124.572,77.3534 124.593,77.3534 C125.082,77.3534 125.473,77.5305 125.765,77.8846 C125.973,78.145 126.077,78.4367 126.077,78.7596 C126.077,79.3534 125.759,79.994 125.124,80.6815 C125.103,80.7023 125.077,80.7232 125.046,80.744 L123.718,82.1659 L125.624,82.1659 C125.832,82.1659 125.994,82.1086 126.108,81.994 C126.181,81.9211 126.27,81.8013 126.374,81.6346 L126.483,81.6659 L126.046,82.744 L122.921,82.744 L122.921,82.6502 L124.343,81.1346 C125.02,80.395 125.369,79.7023 125.39,79.0565 C125.39,78.6086 125.218,78.2857 124.874,78.0877 C124.697,77.9836 124.494,77.9315 124.265,77.9315 C123.911,77.9315 123.634,78.0669 123.437,78.3377 C123.322,78.494 123.213,78.7075 123.108,78.9784 L122.937,78.9315 "/>
<path class="Fingering" d="M92.3227,80.4936 C92.2081,80.4936 92.0154,80.5509 91.7446,80.6655 L91.7446,80.5561 L93.1821,79.8217 L93.2446,79.8374 L93.2446,84.6342 C93.2446,84.8426 93.3071,84.978 93.4321,85.0405 C93.5362,85.0822 93.7289,85.103 94.0102,85.103 L94.0102,85.228 L91.7914,85.228 L91.7914,85.103 C92.1456,85.0926 92.3696,85.0301 92.4633,84.9155 C92.5258,84.8217 92.5571,84.6759 92.5571,84.478 L92.5571,80.8686 C92.5467,80.6186 92.4685,80.4936 92.3227,80.4936"/>
<path class="Fingering" d="M61.0213,87.8214 C60.4276,87.8214 59.964,87.5141 59.6307,86.8995 C59.3495,86.3995 59.2088,85.7745 59.2088,85.0245 C59.2088,84.1287 59.4172,83.4255 59.8338,82.9151 C60.1672,82.5193 60.5734,82.3162 61.0526,82.3057 C61.6151,82.3057 62.0578,82.5922 62.3807,83.1651 C62.6828,83.6755 62.8338,84.311 62.8338,85.0714 C62.8338,86.0401 62.6099,86.7797 62.162,87.2901 C61.839,87.6443 61.4588,87.8214 61.0213,87.8214 M61.0213,82.5089 C60.3755,82.5089 60.0265,83.2797 59.9745,84.8214 C59.9745,84.9151 59.9745,85.0089 59.9745,85.1026 C59.9849,86.7693 60.3338,87.6078 61.0213,87.6182 C61.7088,87.6078 62.0526,86.7641 62.0526,85.087 C62.0526,83.5662 61.7818,82.7172 61.2401,82.5401 C61.1672,82.5193 61.0943,82.5089 61.0213,82.5089"/>
<path class="Tempo" d="M59.2619,40.4371 C59.0588,40.2809 58.8088,40.1871 58.4963,40.1871 C57.3088,40.1871 56.3557,41.0621 56.3557,41.9996 C56.3557,42.5621 56.8088,42.9059 57.4026,42.9059 C58.3557,42.9059 59.5432,41.9996 59.5432,41.0934 L59.5432,34.9527 L59.2619,34.9527 L59.2619,40.4371 "/>
<path class="Tempo" d="M69.9026,39.0152 L63.2932,39.0152 L63.2932,37.859 L69.9026,37.859 L69.9026,39.0152 M69.9026,41.9371 L63.2932,41.9371 L63.2932,40.7965 L69.9026,40.7965 L69.9026,41.9371 M75.3401,36.0465 C75.2151,36.0465 74.8973,36.1402 74.3869,36.3277 C74.3557,36.3382 74.3348,36.3486 74.3244,36.359 L74.3244,36.0465 L77.3401,34.734 L77.5432,34.734 L77.5432,41.5621 C77.5432,42.0517 77.6421,42.3642 77.8401,42.4996 C78.0171,42.6246 78.3505,42.6923 78.8401,42.7027 L78.8401,42.984 L74.3401,42.984 L74.3401,42.7027 C74.9963,42.6923 75.4078,42.5882 75.5744,42.3902 C75.7098,42.2236 75.7776,41.9267 75.7776,41.4996 L75.7776,36.8746 C75.7671,36.333 75.6213,36.0569 75.3401,36.0465 M79.9182,37.1715 C80.4703,35.6819 81.2463,34.8746 82.2463,34.7496 C82.3505,34.7392 82.4546,34.734 82.5588,34.734 C83.3505,34.734 83.9546,35.0205 84.3713,35.5934 C84.6421,35.9788 84.7776,36.4215 84.7776,36.9215 C84.7776,37.7861 84.3505,38.6298 83.4963,39.4527 C83.4546,39.484 83.4234,39.5152 83.4026,39.5465 L81.4651,41.3902 L83.2776,41.3902 C83.913,41.3902 84.3192,41.333 84.4963,41.2184 C84.663,41.1038 84.8244,40.8486 84.9807,40.4527 L85.2776,40.4527 L84.7307,42.984 L79.7463,42.984 L79.7463,42.7027 C81.413,40.9215 82.439,39.6455 82.8244,38.8746 C83.0328,38.4475 83.1369,38.0309 83.1369,37.6246 C83.1369,37.0934 82.9442,36.6767 82.5588,36.3746 C82.3192,36.1871 82.038,36.0934 81.7151,36.0934 C81.1213,36.0934 80.6526,36.4215 80.3088,37.0777 C80.288,37.109 80.2671,37.1402 80.2463,37.1715 L79.9182,37.1715 M85.8244,38.9059 C85.8244,37.5934 86.1369,36.5309 86.7619,35.7184 C87.2723,35.0725 87.8661,34.7444 88.5432,34.734 C89.3244,34.734 89.9703,35.1402 90.4807,35.9527 C90.9911,36.7652 91.2463,37.76 91.2463,38.9371 C91.2463,40.3121 90.9286,41.4059 90.2932,42.2184 C89.7932,42.8225 89.2151,43.1298 88.5588,43.1402 C87.7255,43.1402 87.0536,42.7132 86.5432,41.859 C86.064,41.0673 85.8244,40.083 85.8244,38.9059 M88.5588,42.7965 C88.913,42.7965 89.1473,42.4736 89.2619,41.8277 C89.3244,41.4423 89.3557,40.9423 89.3557,40.3277 L89.3557,37.5777 C89.3557,36.1402 89.163,35.3225 88.7776,35.1246 C88.7046,35.083 88.6213,35.0621 88.5276,35.0621 C88.163,35.0621 87.9234,35.3955 87.8088,36.0621 C87.7567,36.4371 87.7307,36.9423 87.7307,37.5777 L87.7307,40.3277 C87.7307,41.6819 87.8973,42.4736 88.2307,42.7027 C88.3244,42.7652 88.4338,42.7965 88.5588,42.7965"/>
<path class="StaffText" d="M66.6303,55.3614 L66.6303,50.9239 C66.6303,50.5385 66.5626,50.2989 66.4272,50.2052 C66.3126,50.1114 66.0574,50.0542 65.6616,50.0333 L65.6616,49.8458 L68.6303,49.8458 L68.6303,50.0333 C68.172,50.0542 67.8908,50.1271 67.7866,50.2521 C67.6928,50.3771 67.646,50.601 67.646,50.9239 L67.646,55.3614 C67.646,55.7573 67.7241,56.0073 67.8803,56.1114 C68.0053,56.2052 68.2553,56.2573 68.6303,56.2677 L68.6303,56.4552 L65.6616,56.4552 L65.6616,56.2677 C66.1095,56.2573 66.3855,56.1844 66.4897,56.0489 C66.5835,55.9239 66.6303,55.6948 66.6303,55.3614 M69.6303,55.3614 L69.6303,50.9239 C69.6303,50.5385 69.5626,50.2989 69.4272,50.2052 C69.3126,50.1114 69.0574,50.0542 68.6616,50.0333 L68.6616,49.8458 L71.6303,49.8458 L71.6303,50.0333 C71.172,50.0542 70.8908,50.1271 70.7866,50.2521 C70.6928,50.3771 70.646,50.601 70.646,50.9239 L70.646,55.3614 C70.646,55.7573 70.7241,56.0073 70.8803,56.1114 C71.0053,56.2052 71.2553,56.2573 71.6303,56.2677 L71.6303,56.4552 L68.6616,56.4552 L68.6616,56.2677 C69.1095,56.2573 69.3855,56.1844 69.4897,56.0489 C69.5835,55.9239 69.6303,55.6948 69.6303,55.3614"/>
<path class="StaffText" d="M69.3335,25.2057 C69.7814,25.2057 70.2814,25.3203 70.8335,25.5495 C71.073,25.6432 71.2449,25.6901 71.3491,25.6901 C71.4949,25.6901 71.6251,25.5807 71.7397,25.362 C71.7501,25.3203 71.7658,25.2787 71.7866,25.237 L72.0522,25.237 L72.0522,27.5807 L71.8022,27.5807 C71.5314,26.9766 71.2501,26.5339 70.9585,26.2526 C70.896,26.1901 70.8387,26.138 70.7866,26.0964 C70.3595,25.7214 69.9168,25.5339 69.4585,25.5339 C68.4585,25.5339 67.8647,26.2526 67.6772,27.6901 C67.646,28.013 67.6303,28.362 67.6303,28.737 C67.6303,29.9245 67.8439,30.7943 68.271,31.3464 C68.6043,31.763 69.0626,31.9714 69.646,31.9714 C70.2085,31.9714 70.5262,31.7943 70.5991,31.4401 C70.6095,31.3776 70.6147,31.3099 70.6147,31.237 L70.6147,30.1901 C70.6147,29.8985 70.5418,29.711 70.396,29.6276 C70.2501,29.5547 69.9845,29.5078 69.5991,29.487 L69.5991,29.237 L73.0366,29.237 L73.0366,29.487 C72.6303,29.5287 72.3803,29.6172 72.2866,29.7526 C72.2137,29.8672 72.1772,30.086 72.1772,30.4089 L72.1772,31.6745 C71.5835,32.0287 70.797,32.237 69.8178,32.2995 C69.6824,32.2995 69.547,32.2995 69.4116,32.2995 C68.297,32.2995 67.4064,31.9401 66.7397,31.2214 C66.146,30.5755 65.8491,29.7682 65.8491,28.7995 C65.8491,27.7578 66.1928,26.8932 66.8803,26.2057 C67.547,25.5391 68.3647,25.2057 69.3335,25.2057 M77.0991,28.8307 C76.8803,28.8307 76.6668,28.711 76.4585,28.4714 C76.3439,28.3255 76.2605,28.2474 76.2085,28.237 C75.9897,28.237 75.823,28.388 75.7085,28.6901 C75.6355,28.8464 75.5991,29.013 75.5991,29.1901 L75.5991,31.0807 C75.5991,31.4453 75.672,31.6693 75.8178,31.7526 C75.9116,31.8151 76.0835,31.8568 76.3335,31.8776 L76.3335,32.112 L73.6928,32.112 L73.6928,31.8776 C73.9637,31.8255 74.1251,31.7318 74.1772,31.5964 C74.198,31.5235 74.2085,31.4141 74.2085,31.2682 L74.2085,28.3307 C74.2085,28.0703 74.1355,27.9037 73.9897,27.8307 C73.9168,27.7891 73.8178,27.7578 73.6928,27.737 L73.6928,27.5026 L75.5678,27.5026 L75.5678,28.3307 C75.9428,27.7787 76.3126,27.4714 76.6772,27.4089 C76.7605,27.388 76.8387,27.3776 76.9116,27.3776 C77.2553,27.3776 77.5001,27.5182 77.646,27.7995 C77.698,27.9141 77.7241,28.0339 77.7241,28.1589 C77.7241,28.4714 77.5991,28.6797 77.3491,28.7839 C77.2658,28.8151 77.1824,28.8307 77.0991,28.8307 M78.9741,28.0807 C78.9741,28.112 79.0262,28.2057 79.1303,28.362 C79.2241,28.5078 79.271,28.6328 79.271,28.737 C79.271,28.9974 79.1408,29.1745 78.8803,29.2682 C78.7866,29.2995 78.6928,29.3151 78.5991,29.3151 C78.2345,29.3151 78.021,29.1537 77.9585,28.8307 C77.948,28.7682 77.9428,28.711 77.9428,28.6589 C77.9428,28.1901 78.198,27.8412 78.7085,27.612 C79.0314,27.4557 79.4064,27.3776 79.8335,27.3776 C80.7085,27.3776 81.3074,27.6172 81.6303,28.0964 C81.7553,28.2943 81.8178,28.5182 81.8178,28.7682 L81.8178,31.3464 C81.8283,31.5026 81.896,31.586 82.021,31.5964 C82.073,31.586 82.1095,31.5703 82.1303,31.5495 L82.2397,31.4557 L82.3803,31.6589 C81.9845,32.0339 81.6147,32.2318 81.271,32.2526 C80.896,32.2526 80.6512,32.112 80.5366,31.8307 C80.5053,31.737 80.4741,31.638 80.4428,31.5339 C79.9012,32.0026 79.3751,32.2422 78.8647,32.2526 C78.4272,32.2526 78.1095,32.086 77.9116,31.7526 C77.8074,31.586 77.7553,31.4037 77.7553,31.2057 C77.7553,30.6224 78.2033,30.1485 79.0991,29.7839 C79.3387,29.6797 79.7866,29.5287 80.4428,29.3307 L80.4428,28.5964 C80.4428,28.0651 80.2241,27.7735 79.7866,27.7214 C79.7241,27.7214 79.6616,27.7214 79.5991,27.7214 C79.3074,27.7214 79.1095,27.8047 79.0053,27.9714 C78.9845,28.0026 78.9741,28.0391 78.9741,28.0807 M80.4272,31.0964 L80.4272,29.6589 C79.6251,29.8776 79.2189,30.2787 79.2085,30.862 C79.2085,31.1953 79.3178,31.4037 79.5366,31.487 C79.5991,31.5078 79.6616,31.5182 79.7241,31.5182 C79.9533,31.5182 80.1876,31.3776 80.4272,31.0964 M85.896,32.237 L85.896,31.5964 C85.5418,31.9714 85.198,32.1849 84.8647,32.237 C84.771,32.2474 84.672,32.2526 84.5678,32.2526 C83.9741,32.2526 83.5053,31.9766 83.1616,31.4245 C82.8908,30.9974 82.7553,30.4922 82.7553,29.9089 C82.7553,29.0547 83.0001,28.3828 83.4897,27.8932 C83.823,27.5495 84.2189,27.3776 84.6772,27.3776 C85.0314,27.3776 85.3543,27.513 85.646,27.7839 C85.7293,27.8568 85.8022,27.9245 85.8647,27.987 L85.8647,26.1745 C85.8647,25.9245 85.8074,25.7682 85.6928,25.7057 C85.5887,25.6537 85.3908,25.6172 85.0991,25.5964 L85.0991,25.362 L87.2553,25.362 L87.2553,31.112 C87.2553,31.3932 87.3387,31.5651 87.5053,31.6276 C87.5887,31.6589 87.7033,31.6797 87.8491,31.6901 L87.8491,31.9245 L87.2241,32.0026 C86.672,32.0755 86.2293,32.1537 85.896,32.237 M85.021,31.7057 C85.3126,31.7057 85.5626,31.5391 85.771,31.2057 C85.823,31.112 85.8543,31.0443 85.8647,31.0026 L85.8647,28.5495 C85.7397,28.2162 85.5314,28.0182 85.2397,27.9557 C85.1876,27.9453 85.1355,27.9401 85.0835,27.9401 C84.573,27.9401 84.2918,28.4453 84.2397,29.4557 C84.2397,29.5703 84.2397,29.6953 84.2397,29.8307 C84.2397,31.0703 84.5001,31.6953 85.021,31.7057 M90.1928,29.6589 C90.2449,30.6797 90.5105,31.2787 90.9897,31.4557 C91.1147,31.4974 91.2449,31.5182 91.3803,31.5182 C91.7449,31.5182 92.0783,31.3516 92.3803,31.0182 C92.4324,30.9662 92.4793,30.9141 92.521,30.862 L92.7553,31.0026 C92.3387,31.6068 91.9272,31.987 91.521,32.1432 C91.3126,32.2162 91.0783,32.2526 90.8178,32.2526 C90.0678,32.2526 89.5053,31.9453 89.1303,31.3307 C88.8803,30.9141 88.7553,30.4141 88.7553,29.8307 C88.7553,28.9349 89.0262,28.263 89.5678,27.8151 C89.9324,27.5235 90.3595,27.3776 90.8491,27.3776 C91.9533,27.3776 92.573,28.0964 92.7085,29.5339 C92.7085,29.5755 92.7085,29.6172 92.7085,29.6589 L90.1928,29.6589 M91.4897,29.1432 C91.4689,28.5182 91.4012,28.1224 91.2866,27.9557 C91.1928,27.7995 91.047,27.7214 90.8491,27.7214 C90.5574,27.7214 90.3595,27.8932 90.2553,28.237 C90.1928,28.4766 90.1564,28.8307 90.146,29.2995 L91.4897,29.2995 L91.4897,29.1432 M95.8178,27.2682 C96.2762,26.0287 96.9272,25.3568 97.771,25.2526 C97.8439,25.2422 97.9272,25.237 98.021,25.237 C98.6772,25.237 99.1772,25.4766 99.521,25.9557 C99.7501,26.2787 99.8647,26.6485 99.8647,27.0651 C99.8647,27.7735 99.5053,28.4766 98.7866,29.1745 C98.7658,29.2057 98.7449,29.2266 98.7241,29.237 L97.0991,30.7839 L98.6147,30.7839 C99.146,30.7839 99.4845,30.737 99.6303,30.6432 C99.7762,30.5495 99.9116,30.336 100.037,30.0026 L100.287,30.0026 L99.8335,32.112 L95.6772,32.112 L95.6772,31.8776 C97.073,30.3985 97.9272,29.336 98.2397,28.6901 C98.4168,28.336 98.5053,27.987 98.5053,27.6432 C98.5053,27.2057 98.3439,26.862 98.021,26.612 C97.8126,26.4557 97.5783,26.3776 97.3178,26.3776 C96.8178,26.3776 96.4272,26.6485 96.146,27.1901 C96.1251,27.2214 96.1095,27.2474 96.0991,27.2682 L95.8178,27.2682 M102.162,30.5495 C102.485,30.5495 102.729,30.6901 102.896,30.9714 C102.979,31.1172 103.021,31.263 103.021,31.4089 C103.021,31.7214 102.88,31.961 102.599,32.1276 C102.453,32.2005 102.307,32.237 102.162,32.237 C101.828,32.237 101.583,32.0964 101.427,31.8151 C101.354,31.6797 101.318,31.5391 101.318,31.3932 C101.318,31.0912 101.453,30.8568 101.724,30.6901 C101.86,30.5964 102.005,30.5495 102.162,30.5495 M102.162,27.3932 C102.485,27.3932 102.729,27.5287 102.896,27.7995 C102.979,27.9453 103.021,28.0912 103.021,28.237 C103.021,28.5599 102.88,28.8047 102.599,28.9714 C102.464,29.0443 102.318,29.0807 102.162,29.0807 C101.828,29.0807 101.583,28.9349 101.427,28.6432 C101.354,28.5078 101.318,28.3672 101.318,28.2214 C101.318,27.9193 101.453,27.6849 101.724,27.5182 C101.86,27.4349 102.005,27.3932 102.162,27.3932"/>
<path class="StaffText" d="M113.349,28.7682 C113.349,29.7162 113.052,30.487 112.458,31.0807 C111.771,31.7682 110.781,32.112 109.49,32.112 L106.662,32.112 L106.662,31.9245 C107.068,31.8932 107.318,31.8099 107.412,31.6745 C107.495,31.5599 107.537,31.3412 107.537,31.0182 L107.537,26.5807 C107.537,26.2057 107.485,25.9662 107.38,25.862 C107.266,25.7787 107.026,25.7214 106.662,25.6901 L106.662,25.5026 L109.349,25.5026 C111.162,25.5026 112.37,26.0703 112.974,27.2057 C113.224,27.6745 113.349,28.1953 113.349,28.7682 M112.255,28.8464 C112.255,27.7839 111.906,26.9922 111.208,26.4714 C110.667,26.0755 109.953,25.8776 109.068,25.8776 C108.797,25.8776 108.636,25.9401 108.583,26.0651 C108.563,26.1172 108.552,26.1849 108.552,26.2682 L108.552,31.3307 C108.552,31.5391 108.63,31.6641 108.787,31.7057 C108.87,31.7266 108.964,31.737 109.068,31.737 C111.078,31.737 112.136,30.8776 112.24,29.1589 C112.25,29.0547 112.255,28.9505 112.255,28.8464 M118.083,28.6901 L118.083,31.0964 C118.083,31.4818 118.146,31.7214 118.271,31.8151 C118.365,31.888 118.531,31.9349 118.771,31.9557 L118.771,32.112 L116.599,32.112 L116.599,31.9557 C116.901,31.9245 117.089,31.8516 117.162,31.737 C117.214,31.6328 117.24,31.4193 117.24,31.0964 L117.24,26.3776 C117.24,26.1172 117.188,25.961 117.083,25.9089 C117.021,25.8776 116.922,25.862 116.787,25.862 C116.735,25.862 116.677,25.8672 116.615,25.8776 L116.615,25.7214 C117.094,25.5964 117.568,25.4505 118.037,25.2839 L118.083,25.3151 L118.083,28.3464 C118.469,27.8568 118.88,27.5807 119.318,27.5182 C119.391,27.5182 119.469,27.5182 119.552,27.5182 C120.365,27.5287 120.776,28.0547 120.787,29.0964 L120.787,31.0964 C120.787,31.4714 120.833,31.7057 120.927,31.7995 C121,31.8724 121.151,31.9245 121.38,31.9557 L121.38,32.112 L119.271,32.112 L119.271,31.9557 C119.583,31.9245 119.776,31.8412 119.849,31.7057 C119.912,31.5912 119.943,31.388 119.943,31.0964 L119.943,29.112 C119.932,28.4141 119.682,28.0599 119.193,28.0495 C118.87,28.0495 118.542,28.2162 118.208,28.5495 C118.167,28.6016 118.125,28.6485 118.083,28.6901 M121.755,31.1432 C121.755,30.6328 122.073,30.2005 122.708,29.8464 C122.896,29.7526 123.396,29.5391 124.208,29.2057 C124.229,29.2057 124.245,29.2005 124.255,29.1901 L124.255,28.5807 C124.203,28.0599 123.948,27.7839 123.49,27.7526 C123.177,27.7526 122.958,27.8516 122.833,28.0495 C122.792,28.1224 122.771,28.1849 122.771,28.237 C122.771,28.2995 122.781,28.3828 122.802,28.487 C122.813,28.5599 122.818,28.612 122.818,28.6432 C122.818,28.8203 122.729,28.9453 122.552,29.0182 C122.49,29.0495 122.432,29.0651 122.38,29.0651 C122.193,29.0651 122.063,28.9766 121.99,28.7995 C121.958,28.7474 121.943,28.6901 121.943,28.6276 C121.943,28.263 122.162,27.9662 122.599,27.737 C122.901,27.5912 123.245,27.5182 123.63,27.5182 C124.349,27.5182 124.792,27.7735 124.958,28.2839 C125.031,28.5026 125.068,28.7787 125.068,29.112 L125.068,31.0495 C125.068,31.3828 125.13,31.5703 125.255,31.612 C125.297,31.6224 125.333,31.6276 125.365,31.6276 C125.511,31.6172 125.656,31.5547 125.802,31.4401 L125.802,31.6901 C125.531,32.0026 125.281,32.1745 125.052,32.2057 C125,32.2057 124.948,32.2057 124.896,32.2057 C124.583,32.2057 124.386,32.0495 124.302,31.737 C124.281,31.6537 124.271,31.5599 124.271,31.4557 C123.677,31.9349 123.188,32.1849 122.802,32.2057 C122.375,32.2057 122.068,32.0339 121.88,31.6901 C121.797,31.5235 121.755,31.3412 121.755,31.1432 M124.255,30.862 L124.255,29.4245 C123.432,29.7266 122.927,30.0339 122.74,30.3464 C122.667,30.4922 122.63,30.6485 122.63,30.8151 C122.63,31.211 122.776,31.461 123.068,31.5651 C123.141,31.5964 123.208,31.612 123.271,31.612 C123.49,31.6016 123.729,31.5235 123.99,31.3776 C124.136,31.2943 124.219,31.1901 124.24,31.0651 C124.25,31.0026 124.255,30.9349 124.255,30.862 M128.521,28.487 C128.417,28.487 128.266,28.4037 128.068,28.237 C127.974,28.1537 127.901,28.112 127.849,28.112 C127.682,28.112 127.511,28.2422 127.333,28.5026 C127.219,28.6693 127.162,28.8151 127.162,28.9401 L127.162,31.2057 C127.162,31.5495 127.25,31.763 127.427,31.8464 C127.552,31.9089 127.745,31.9453 128.005,31.9557 L128.005,32.112 L125.599,32.112 L125.599,31.9557 C125.953,31.8932 126.167,31.8099 126.24,31.7057 C126.292,31.6224 126.318,31.4766 126.318,31.2682 L126.318,28.7526 C126.318,28.388 126.235,28.1901 126.068,28.1589 C126.037,28.1485 126.005,28.1432 125.974,28.1432 C125.86,28.1432 125.745,28.1589 125.63,28.1901 L125.63,28.0339 C126.162,27.8672 126.651,27.6953 127.099,27.5182 L127.162,27.5339 L127.162,28.4245 C127.505,27.9453 127.797,27.6589 128.037,27.5651 C128.141,27.5339 128.245,27.5182 128.349,27.5182 C128.662,27.5182 128.844,27.6485 128.896,27.9089 C128.896,27.9505 128.896,27.9974 128.896,28.0495 C128.865,28.3203 128.74,28.4662 128.521,28.487 M128.63,28.1589 L128.63,27.987 C129.11,27.8412 129.578,27.6849 130.037,27.5182 L130.099,27.5339 L130.099,28.2995 C130.672,27.862 131.083,27.612 131.333,27.5495 C131.438,27.5287 131.542,27.5182 131.646,27.5182 C132.177,27.5287 132.531,27.8151 132.708,28.3776 C133.24,27.8047 133.787,27.5182 134.349,27.5182 C135.11,27.5287 135.495,28.1276 135.505,29.3151 L135.505,31.362 C135.516,31.7266 135.656,31.9193 135.927,31.9401 L136.193,31.9557 L136.193,32.112 L134.005,32.112 L134.005,31.9557 C134.328,31.9245 134.521,31.8516 134.583,31.737 C134.636,31.6432 134.662,31.4818 134.662,31.2526 L134.662,29.1432 C134.662,28.5912 134.552,28.2578 134.333,28.1432 C134.229,28.0807 134.089,28.0495 133.912,28.0495 C133.464,28.0599 133.099,28.263 132.818,28.6589 L132.818,31.1745 C132.818,31.5495 132.906,31.7839 133.083,31.8776 C133.188,31.9297 133.339,31.9557 133.537,31.9557 L133.537,32.112 L131.302,32.112 L131.302,31.9557 C131.625,31.9349 131.823,31.862 131.896,31.737 C131.958,31.6432 131.99,31.4818 131.99,31.2526 L131.99,29.0964 C131.99,28.3985 131.766,28.0495 131.318,28.0495 C130.953,28.0495 130.63,28.1693 130.349,28.4089 C130.276,28.4818 130.208,28.5599 130.146,28.6432 L130.146,31.4401 C130.146,31.6901 130.235,31.8464 130.412,31.9089 C130.505,31.9401 130.641,31.9557 130.818,31.9557 L130.818,32.112 L128.599,32.112 L128.599,31.9557 C128.953,31.9557 129.167,31.8724 129.24,31.7057 C129.281,31.6016 129.302,31.4557 129.302,31.2682 L129.302,28.7526 C129.302,28.3776 129.224,28.1693 129.068,28.1276 C129.037,28.1172 129,28.112 128.958,28.112 C128.854,28.112 128.745,28.1276 128.63,28.1589 M138.958,27.5182 C139.698,27.5182 140.281,27.7891 140.708,28.3307 C141.011,28.737 141.162,29.2162 141.162,29.7682 C141.162,30.5495 140.906,31.1745 140.396,31.6432 C139.979,32.0182 139.495,32.2057 138.943,32.2057 C138.235,32.2057 137.672,31.9349 137.255,31.3932 C136.922,30.9557 136.755,30.4401 136.755,29.8464 C136.755,29.0339 137.031,28.4089 137.583,27.9714 C137.969,27.6693 138.427,27.5182 138.958,27.5182 M137.662,29.362 C137.662,30.2682 137.849,30.961 138.224,31.4401 C138.464,31.7526 138.745,31.9089 139.068,31.9089 C139.589,31.9089 139.948,31.612 140.146,31.0182 C140.229,30.7578 140.271,30.461 140.271,30.1276 C140.271,29.2422 140.057,28.586 139.63,28.1589 C139.401,27.9297 139.136,27.8151 138.833,27.8151 C138.365,27.8151 138.026,28.0547 137.818,28.5339 C137.714,28.7735 137.662,29.0495 137.662,29.362 M141.599,28.1276 L141.599,27.9557 C142.099,27.8099 142.563,27.6641 142.99,27.5182 L143.052,27.5339 L143.052,28.3151 C143.531,27.8776 143.906,27.6224 144.177,27.5495 C144.281,27.5287 144.391,27.5182 144.505,27.5182 C145.047,27.5182 145.406,27.7891 145.583,28.3307 C145.646,28.5287 145.677,28.7526 145.677,29.0026 L145.677,31.2995 C145.677,31.612 145.75,31.8047 145.896,31.8776 C145.99,31.9089 146.12,31.9349 146.287,31.9557 L146.287,32.112 L144.208,32.112 L144.208,31.9557 C144.511,31.9349 144.698,31.836 144.771,31.6589 C144.823,31.5443 144.849,31.3672 144.849,31.1276 L144.849,29.0339 C144.828,28.388 144.583,28.0599 144.115,28.0495 C143.865,28.0495 143.604,28.1641 143.333,28.3932 C143.261,28.4662 143.177,28.5443 143.083,28.6276 L143.083,31.4401 C143.083,31.6797 143.182,31.836 143.38,31.9089 C143.474,31.9297 143.594,31.9453 143.74,31.9557 L143.74,32.112 L141.63,32.112 L141.63,31.9557 C141.922,31.9349 142.104,31.8516 142.177,31.7057 C142.219,31.5912 142.24,31.4245 142.24,31.2057 L142.24,28.7214 C142.24,28.3568 142.167,28.1537 142.021,28.112 C141.979,28.0912 141.932,28.0807 141.88,28.0807 C141.755,28.0807 141.662,28.0964 141.599,28.1276 M147.13,28.1901 C146.974,28.1901 146.833,28.2005 146.708,28.2214 L146.708,28.0651 C147.177,27.9297 147.693,27.7474 148.255,27.5182 L148.287,27.5495 L148.287,31.0964 C148.287,31.4818 148.344,31.7214 148.458,31.8151 C148.552,31.888 148.745,31.9349 149.037,31.9557 L149.037,32.112 L146.662,32.112 L146.662,31.9557 C147.026,31.9349 147.255,31.8672 147.349,31.7526 C147.422,31.638 147.458,31.4193 147.458,31.0964 L147.458,28.7682 C147.458,28.4141 147.375,28.2214 147.208,28.1901 C147.177,28.1901 147.151,28.1901 147.13,28.1901 M147.787,25.2839 C148.005,25.2839 148.162,25.3828 148.255,25.5807 C148.287,25.6537 148.302,25.7266 148.302,25.7995 C148.302,26.0182 148.198,26.1745 147.99,26.2682 C147.917,26.2891 147.849,26.2995 147.787,26.2995 C147.568,26.2995 147.412,26.2005 147.318,26.0026 C147.297,25.9297 147.287,25.862 147.287,25.7995 C147.287,25.5807 147.38,25.4245 147.568,25.3307 C147.641,25.2995 147.714,25.2839 147.787,25.2839 M149.755,29.987 C149.755,29.1432 150.042,28.4818 150.615,28.0026 C151.011,27.6797 151.453,27.5182 151.943,27.5182 C152.495,27.5182 152.922,27.6693 153.224,27.9714 C153.401,28.1485 153.49,28.3412 153.49,28.5495 C153.49,28.7266 153.396,28.8516 153.208,28.9245 C153.136,28.9557 153.068,28.9714 153.005,28.9714 C152.797,28.9714 152.646,28.836 152.552,28.5651 C152.542,28.5443 152.537,28.5235 152.537,28.5026 L152.474,28.2839 C152.412,28.0339 152.297,27.888 152.13,27.8464 C152.057,27.8255 151.974,27.8151 151.88,27.8151 C151.38,27.8151 151,28.0547 150.74,28.5339 C150.594,28.8255 150.521,29.1641 150.521,29.5495 C150.521,30.2787 150.745,30.8255 151.193,31.1901 C151.453,31.388 151.745,31.487 152.068,31.487 C152.485,31.487 152.844,31.3203 153.146,30.987 C153.25,30.862 153.365,30.7162 153.49,30.5495 L153.63,30.6432 C153.255,31.362 152.839,31.8307 152.38,32.0495 C152.141,32.1537 151.901,32.2057 151.662,32.2057 C151.016,32.2057 150.511,31.9401 150.146,31.4089 C149.886,31.0026 149.755,30.5287 149.755,29.987 M156.63,28.1589 L156.63,27.987 C157.11,27.8412 157.578,27.6849 158.037,27.5182 L158.099,27.5339 L158.099,28.2995 C158.672,27.862 159.083,27.612 159.333,27.5495 C159.438,27.5287 159.542,27.5182 159.646,27.5182 C160.177,27.5287 160.531,27.8151 160.708,28.3776 C161.24,27.8047 161.787,27.5182 162.349,27.5182 C163.11,27.5287 163.495,28.1276 163.505,29.3151 L163.505,31.362 C163.516,31.7266 163.656,31.9193 163.927,31.9401 L164.193,31.9557 L164.193,32.112 L162.005,32.112 L162.005,31.9557 C162.328,31.9245 162.521,31.8516 162.583,31.737 C162.636,31.6432 162.662,31.4818 162.662,31.2526 L162.662,29.1432 C162.662,28.5912 162.552,28.2578 162.333,28.1432 C162.229,28.0807 162.089,28.0495 161.912,28.0495 C161.464,28.0599 161.099,28.263 160.818,28.6589 L160.818,31.1745 C160.818,31.5495 160.906,31.7839 161.083,31.8776 C161.188,31.9297 161.339,31.9557 161.537,31.9557 L161.537,32.112 L159.302,32.112 L159.302,31.9557 C159.625,31.9349 159.823,31.862 159.896,31.737 C159.958,31.6432 159.99,31.4818 159.99,31.2526 L159.99,29.0964 C159.99,28.3985 159.766,28.0495 159.318,28.0495 C158.953,28.0495 158.63,28.1693 158.349,28.4089 C158.276,28.4818 158.208,28.5599 158.146,28.6432 L158.146,31.4401 C158.146,31.6901 158.235,31.8464 158.412,31.9089 C158.505,31.9401 158.641,31.9557 158.818,31.9557 L158.818,32.112 L156.599,32.112 L156.599,31.9557 C156.953,31.9557 157.167,31.8724 157.24,31.7057 C157.281,31.6016 157.302,31.4557 157.302,31.2682 L157.302,28.7526 C157.302,28.3776 157.224,28.1693 157.068,28.1276 C157.037,28.1172 157,28.112 156.958,28.112 C156.854,28.112 156.745,28.1276 156.63,28.1589 M165.13,28.1901 C164.974,28.1901 164.833,28.2005 164.708,28.2214 L164.708,28.0651 C165.177,27.9297 165.693,27.7474 166.255,27.5182 L166.287,27.5495 L166.287,31.0964 C166.287,31.4818 166.344,31.7214 166.458,31.8151 C166.552,31.888 166.745,31.9349 167.037,31.9557 L167.037,32.112 L164.662,32.112 L164.662,31.9557 C165.026,31.9349 165.255,31.8672 165.349,31.7526 C165.422,31.638 165.458,31.4193 165.458,31.0964 L165.458,28.7682 C165.458,28.4141 165.375,28.2214 165.208,28.1901 C165.177,28.1901 165.151,28.1901 165.13,28.1901 M165.787,25.2839 C166.005,25.2839 166.162,25.3828 166.255,25.5807 C166.287,25.6537 166.302,25.7266 166.302,25.7995 C166.302,26.0182 166.198,26.1745 165.99,26.2682 C165.917,26.2891 165.849,26.2995 165.787,26.2995 C165.568,26.2995 165.412,26.2005 165.318,26.0026 C165.297,25.9297 165.287,25.862 165.287,25.7995 C165.287,25.5807 165.38,25.4245 165.568,25.3307 C165.641,25.2995 165.714,25.2839 165.787,25.2839 M167.599,28.1276 L167.599,27.9557 C168.099,27.8099 168.563,27.6641 168.99,27.5182 L169.052,27.5339 L169.052,28.3151 C169.531,27.8776 169.906,27.6224 170.177,27.5495 C170.281,27.5287 170.391,27.5182 170.505,27.5182 C171.047,27.5182 171.406,27.7891 171.583,28.3307 C171.646,28.5287 171.677,28.7526 171.677,29.0026 L171.677,31.2995 C171.677,31.612 171.75,31.8047 171.896,31.8776 C171.99,31.9089 172.12,31.9349 172.287,31.9557 L172.287,32.112 L170.208,32.112 L170.208,31.9557 C170.511,31.9349 170.698,31.836 170.771,31.6589 C170.823,31.5443 170.849,31.3672 170.849,31.1276 L170.849,29.0339 C170.828,28.388 170.583,28.0599 170.115,28.0495 C169.865,28.0495 169.604,28.1641 169.333,28.3932 C169.261,28.4662 169.177,28.5443 169.083,28.6276 L169.083,31.4401 C169.083,31.6797 169.182,31.836 169.38,31.9089 C169.474,31.9297 169.594,31.9453 169.74,31.9557 L169.74,32.112 L167.63,32.112 L167.63,31.9557 C167.922,31.9349 168.104,31.8516 168.177,31.7057 C168.219,31.5912 168.24,31.4245 168.24,31.2057 L168.24,28.7214 C168.24,28.3568 168.167,28.1537 168.021,28.112 C167.979,28.0912 167.932,28.0807 167.88,28.0807 C167.755,28.0807 167.662,28.0964 167.599,28.1276 M174.958,27.5182 C175.698,27.5182 176.281,27.7891 176.708,28.3307 C177.011,28.737 177.162,29.2162 177.162,29.7682 C177.162,30.5495 176.906,31.1745 176.396,31.6432 C175.979,32.0182 175.495,32.2057 174.943,32.2057 C174.235,32.2057 173.672,31.9349 173.255,31.3932 C172.922,30.9557 172.755,30.4401 172.755,29.8464 C172.755,29.0339 173.031,28.4089 173.583,27.9714 C173.969,27.6693 174.427,27.5182 174.958,27.5182 M173.662,29.362 C173.662,30.2682 173.849,30.961 174.224,31.4401 C174.464,31.7526 174.745,31.9089 175.068,31.9089 C175.589,31.9089 175.948,31.612 176.146,31.0182 C176.229,30.7578 176.271,30.461 176.271,30.1276 C176.271,29.2422 176.057,28.586 175.63,28.1589 C175.401,27.9297 175.136,27.8151 174.833,27.8151 C174.365,27.8151 174.026,28.0547 173.818,28.5339 C173.714,28.7735 173.662,29.0495 173.662,29.362 M180.521,28.487 C180.417,28.487 180.266,28.4037 180.068,28.237 C179.974,28.1537 179.901,28.112 179.849,28.112 C179.682,28.112 179.511,28.2422 179.333,28.5026 C179.219,28.6693 179.162,28.8151 179.162,28.9401 L179.162,31.2057 C179.162,31.5495 179.25,31.763 179.427,31.8464 C179.552,31.9089 179.745,31.9453 180.005,31.9557 L180.005,32.112 L177.599,32.112 L177.599,31.9557 C177.953,31.8932 178.167,31.8099 178.24,31.7057 C178.292,31.6224 178.318,31.4766 178.318,31.2682 L178.318,28.7526 C178.318,28.388 178.235,28.1901 178.068,28.1589 C178.037,28.1485 178.005,28.1432 177.974,28.1432 C177.86,28.1432 177.745,28.1589 177.63,28.1901 L177.63,28.0339 C178.162,27.8672 178.651,27.6953 179.099,27.5182 L179.162,27.5339 L179.162,28.4245 C179.505,27.9453 179.797,27.6589 180.037,27.5651 C180.141,27.5339 180.245,27.5182 180.349,27.5182 C180.662,27.5182 180.844,27.6485 180.896,27.9089 C180.896,27.9505 180.896,27.9974 180.896,28.0495 C180.865,28.3203 180.74,28.4662 180.521,28.487 M186.177,27.7214 C186.198,27.711 186.255,27.6745 186.349,27.612 L186.458,27.612 L186.49,28.9714 L186.349,28.9714 C186.182,28.3255 185.943,27.9401 185.63,27.8151 C185.516,27.763 185.386,27.737 185.24,27.737 C184.886,27.737 184.646,27.8776 184.521,28.1589 C184.49,28.2422 184.474,28.3307 184.474,28.4245 C184.485,28.7057 184.63,28.9297 184.912,29.0964 L185.99,29.737 C186.469,30.0287 186.74,30.3464 186.802,30.6901 C186.813,30.763 186.818,30.8464 186.818,30.9401 C186.818,31.3568 186.636,31.6953 186.271,31.9557 C186.011,32.1224 185.724,32.2057 185.412,32.2057 C185.276,32.2057 184.969,32.1589 184.49,32.0651 C184.375,32.0443 184.287,32.0339 184.224,32.0339 C184.12,32.0443 184.042,32.086 183.99,32.1589 L183.865,32.1589 L183.865,30.5964 L184.021,30.5964 C184.125,31.0651 184.255,31.3932 184.412,31.5807 C184.63,31.8516 184.922,31.987 185.287,31.987 C185.714,31.987 185.979,31.8307 186.083,31.5182 C186.115,31.4453 186.13,31.362 186.13,31.2682 C186.12,30.9662 185.943,30.7162 185.599,30.5182 L185.021,30.1901 C184.396,29.836 184.026,29.4818 183.912,29.1276 C183.87,29.0026 183.849,28.8776 183.849,28.7526 C183.849,28.2839 184.052,27.9349 184.458,27.7057 C184.688,27.5807 184.938,27.5182 185.208,27.5182 C185.427,27.5182 185.688,27.5703 185.99,27.6745 C186.073,27.7057 186.136,27.7214 186.177,27.7214 M187.755,29.987 C187.755,29.1432 188.042,28.4818 188.615,28.0026 C189.011,27.6797 189.453,27.5182 189.943,27.5182 C190.495,27.5182 190.922,27.6693 191.224,27.9714 C191.401,28.1485 191.49,28.3412 191.49,28.5495 C191.49,28.7266 191.396,28.8516 191.208,28.9245 C191.136,28.9557 191.068,28.9714 191.005,28.9714 C190.797,28.9714 190.646,28.836 190.552,28.5651 C190.542,28.5443 190.537,28.5235 190.537,28.5026 L190.474,28.2839 C190.412,28.0339 190.297,27.888 190.13,27.8464 C190.057,27.8255 189.974,27.8151 189.88,27.8151 C189.38,27.8151 189,28.0547 188.74,28.5339 C188.594,28.8255 188.521,29.1641 188.521,29.5495 C188.521,30.2787 188.745,30.8255 189.193,31.1901 C189.453,31.388 189.745,31.487 190.068,31.487 C190.485,31.487 190.844,31.3203 191.146,30.987 C191.25,30.862 191.365,30.7162 191.49,30.5495 L191.63,30.6432 C191.255,31.362 190.839,31.8307 190.38,32.0495 C190.141,32.1537 189.901,32.2057 189.662,32.2057 C189.016,32.2057 188.511,31.9401 188.146,31.4089 C187.886,31.0026 187.755,30.5287 187.755,29.987 M191.755,31.1432 C191.755,30.6328 192.073,30.2005 192.708,29.8464 C192.896,29.7526 193.396,29.5391 194.208,29.2057 C194.229,29.2057 194.245,29.2005 194.255,29.1901 L194.255,28.5807 C194.203,28.0599 193.948,27.7839 193.49,27.7526 C193.177,27.7526 192.958,27.8516 192.833,28.0495 C192.792,28.1224 192.771,28.1849 192.771,28.237 C192.771,28.2995 192.781,28.3828 192.802,28.487 C192.813,28.5599 192.818,28.612 192.818,28.6432 C192.818,28.8203 192.729,28.9453 192.552,29.0182 C192.49,29.0495 192.432,29.0651 192.38,29.0651 C192.193,29.0651 192.063,28.9766 191.99,28.7995 C191.958,28.7474 191.943,28.6901 191.943,28.6276 C191.943,28.263 192.162,27.9662 192.599,27.737 C192.901,27.5912 193.245,27.5182 193.63,27.5182 C194.349,27.5182 194.792,27.7735 194.958,28.2839 C195.031,28.5026 195.068,28.7787 195.068,29.112 L195.068,31.0495 C195.068,31.3828 195.13,31.5703 195.255,31.612 C195.297,31.6224 195.333,31.6276 195.365,31.6276 C195.511,31.6172 195.656,31.5547 195.802,31.4401 L195.802,31.6901 C195.531,32.0026 195.281,32.1745 195.052,32.2057 C195,32.2057 194.948,32.2057 194.896,32.2057 C194.583,32.2057 194.386,32.0495 194.302,31.737 C194.281,31.6537 194.271,31.5599 194.271,31.4557 C193.677,31.9349 193.188,32.1849 192.802,32.2057 C192.375,32.2057 192.068,32.0339 191.88,31.6901 C191.797,31.5235 191.755,31.3412 191.755,31.1432 M194.255,30.862 L194.255,29.4245 C193.432,29.7266 192.927,30.0339 192.74,30.3464 C192.667,30.4922 192.63,30.6485 192.63,30.8151 C192.63,31.211 192.776,31.461 193.068,31.5651 C193.141,31.5964 193.208,31.612 193.271,31.612 C193.49,31.6016 193.729,31.5235 193.99,31.3776 C194.136,31.2943 194.219,31.1901 194.24,31.0651 C194.25,31.0026 194.255,30.9349 194.255,30.862 M195.599,25.8776 L195.599,25.7214 C196.266,25.5547 196.797,25.4089 197.193,25.2839 L197.24,25.2995 L197.24,31.2682 C197.24,31.5807 197.302,31.7735 197.427,31.8464 C197.542,31.8985 197.729,31.9349 197.99,31.9557 L197.99,32.112 L195.63,32.112 L195.63,31.9557 C196.005,31.9245 196.235,31.836 196.318,31.6901 C196.37,31.5964 196.396,31.4453 196.396,31.237 L196.396,26.4714 C196.396,26.138 196.323,25.9453 196.177,25.8932 C196.115,25.8724 196.047,25.862 195.974,25.862 C195.839,25.862 195.714,25.8672 195.599,25.8776 M199.474,29.3464 C199.516,30.5235 199.901,31.2162 200.63,31.4245 C200.755,31.4662 200.891,31.487 201.037,31.487 C201.526,31.487 201.943,31.2787 202.287,30.862 C202.38,30.7474 202.479,30.612 202.583,30.4557 L202.74,30.5182 C202.375,31.4766 201.802,32.0287 201.021,32.1745 C200.886,32.1953 200.755,32.2057 200.63,32.2057 C199.891,32.2057 199.36,31.8932 199.037,31.2682 C198.849,30.8932 198.755,30.461 198.755,29.9714 C198.755,29.086 199.031,28.4141 199.583,27.9557 C199.948,27.6641 200.37,27.5182 200.849,27.5182 C201.766,27.5182 202.318,28.0391 202.505,29.0807 C202.526,29.1745 202.542,29.263 202.552,29.3464 L199.474,29.3464 M199.49,29.0495 L201.537,29.0495 C201.443,28.4766 201.276,28.1224 201.037,27.987 C200.912,27.9245 200.75,27.8932 200.552,27.8932 C199.958,27.8932 199.604,28.2682 199.49,29.0182 C199.49,29.0287 199.49,29.0391 199.49,29.0495 M207.958,27.5182 C208.698,27.5182 209.281,27.7891 209.708,28.3307 C210.011,28.737 210.162,29.2162 210.162,29.7682 C210.162,30.5495 209.906,31.1745 209.396,31.6432 C208.979,32.0182 208.495,32.2057 207.943,32.2057 C207.235,32.2057 206.672,31.9349 206.255,31.3932 C205.922,30.9557 205.755,30.4401 205.755,29.8464 C205.755,29.0339 206.031,28.4089 206.583,27.9714 C206.969,27.6693 207.427,27.5182 207.958,27.5182 M206.662,29.362 C206.662,30.2682 206.849,30.961 207.224,31.4401 C207.464,31.7526 207.745,31.9089 208.068,31.9089 C208.589,31.9089 208.948,31.612 209.146,31.0182 C209.229,30.7578 209.271,30.461 209.271,30.1276 C209.271,29.2422 209.057,28.586 208.63,28.1589 C208.401,27.9297 208.136,27.8151 207.833,27.8151 C207.365,27.8151 207.026,28.0547 206.818,28.5339 C206.714,28.7735 206.662,29.0495 206.662,29.362 M210.599,28.1276 L210.599,27.9557 C211.099,27.8099 211.563,27.6641 211.99,27.5182 L212.052,27.5339 L212.052,28.3151 C212.531,27.8776 212.906,27.6224 213.177,27.5495 C213.281,27.5287 213.391,27.5182 213.505,27.5182 C214.047,27.5182 214.406,27.7891 214.583,28.3307 C214.646,28.5287 214.677,28.7526 214.677,29.0026 L214.677,31.2995 C214.677,31.612 214.75,31.8047 214.896,31.8776 C214.99,31.9089 215.12,31.9349 215.287,31.9557 L215.287,32.112 L213.208,32.112 L213.208,31.9557 C213.511,31.9349 213.698,31.836 213.771,31.6589 C213.823,31.5443 213.849,31.3672 213.849,31.1276 L213.849,29.0339 C213.828,28.388 213.583,28.0599 213.115,28.0495 C212.865,28.0495 212.604,28.1641 212.333,28.3932 C212.261,28.4662 212.177,28.5443 212.083,28.6276 L212.083,31.4401 C212.083,31.6797 212.182,31.836 212.38,31.9089 C212.474,31.9297 212.594,31.9453 212.74,31.9557 L212.74,32.112 L210.63,32.112 L210.63,31.9557 C210.922,31.9349 211.104,31.8516 211.177,31.7057 C211.219,31.5912 211.24,31.4245 211.24,31.2057 L211.24,28.7214 C211.24,28.3568 211.167,28.1537 211.021,28.112 C210.979,28.0912 210.932,28.0807 210.88,28.0807 C210.755,28.0807 210.662,28.0964 210.599,28.1276 M216.474,29.3464 C216.516,30.5235 216.901,31.2162 217.63,31.4245 C217.755,31.4662 217.891,31.487 218.037,31.487 C218.526,31.487 218.943,31.2787 219.287,30.862 C219.38,30.7474 219.479,30.612 219.583,30.4557 L219.74,30.5182 C219.375,31.4766 218.802,32.0287 218.021,32.1745 C217.886,32.1953 217.755,32.2057 217.63,32.2057 C216.891,32.2057 216.36,31.8932 216.037,31.2682 C215.849,30.8932 215.755,30.461 215.755,29.9714 C215.755,29.086 216.031,28.4141 216.583,27.9557 C216.948,27.6641 217.37,27.5182 217.849,27.5182 C218.766,27.5182 219.318,28.0391 219.505,29.0807 C219.526,29.1745 219.542,29.263 219.552,29.3464 L216.474,29.3464 M216.49,29.0495 L218.537,29.0495 C218.443,28.4766 218.276,28.1224 218.037,27.987 C217.912,27.9245 217.75,27.8932 217.552,27.8932 C216.958,27.8932 216.604,28.2682 216.49,29.0182 C216.49,29.0287 216.49,29.0391 216.49,29.0495 M224.958,27.5182 C225.698,27.5182 226.281,27.7891 226.708,28.3307 C227.011,28.737 227.162,29.2162 227.162,29.7682 C227.162,30.5495 226.906,31.1745 226.396,31.6432 C225.979,32.0182 225.495,32.2057 224.943,32.2057 C224.235,32.2057 223.672,31.9349 223.255,31.3932 C222.922,30.9557 222.755,30.4401 222.755,29.8464 C222.755,29.0339 223.031,28.4089 223.583,27.9714 C223.969,27.6693 224.427,27.5182 224.958,27.5182 M223.662,29.362 C223.662,30.2682 223.849,30.961 224.224,31.4401 C224.464,31.7526 224.745,31.9089 225.068,31.9089 C225.589,31.9089 225.948,31.612 226.146,31.0182 C226.229,30.7578 226.271,30.461 226.271,30.1276 C226.271,29.2422 226.057,28.586 225.63,28.1589 C225.401,27.9297 225.136,27.8151 224.833,27.8151 C224.365,27.8151 224.026,28.0547 223.818,28.5339 C223.714,28.7735 223.662,29.0495 223.662,29.362 M227.755,29.987 C227.755,29.1432 228.042,28.4818 228.615,28.0026 C229.011,27.6797 229.453,27.5182 229.943,27.5182 C230.495,27.5182 230.922,27.6693 231.224,27.9714 C231.401,28.1485 231.49,28.3412 231.49,28.5495 C231.49,28.7266 231.396,28.8516 231.208,28.9245 C231.136,28.9557 231.068,28.9714 231.005,28.9714 C230.797,28.9714 230.646,28.836 230.552,28.5651 C230.542,28.5443 230.537,28.5235 230.537,28.5026 L230.474,28.2839 C230.412,28.0339 230.297,27.888 230.13,27.8464 C230.057,27.8255 229.974,27.8151 229.88,27.8151 C229.38,27.8151 229,28.0547 228.74,28.5339 C228.594,28.8255 228.521,29.1641 228.521,29.5495 C228.521,30.2787 228.745,30.8255 229.193,31.1901 C229.453,31.388 229.745,31.487 230.068,31.487 C230.485,31.487 230.844,31.3203 231.146,30.987 C231.25,30.862 231.365,30.7162 231.49,30.5495 L231.63,30.6432 C231.255,31.362 230.839,31.8307 230.38,32.0495 C230.141,32.1537 229.901,32.2057 229.662,32.2057 C229.016,32.2057 228.511,31.9401 228.146,31.4089 C227.886,31.0026 227.755,30.5287 227.755,29.987 M234.099,27.612 L234.099,27.9089 L233.083,27.9089 L233.083,30.7682 C233.083,31.3099 233.219,31.6068 233.49,31.6589 C233.521,31.6693 233.557,31.6745 233.599,31.6745 C233.807,31.6641 234.011,31.5443 234.208,31.3151 L234.333,31.4401 C234.011,31.9505 233.61,32.2057 233.13,32.2057 C232.547,32.1953 232.25,31.7735 232.24,30.9401 L232.24,27.9089 L231.708,27.9089 C231.688,27.888 231.677,27.8672 231.677,27.8464 C231.677,27.8047 231.719,27.763 231.802,27.7214 C232.083,27.5339 232.417,27.1693 232.802,26.6276 C232.813,26.6172 232.818,26.612 232.818,26.612 C232.922,26.4557 232.99,26.362 233.021,26.3307 C233.063,26.3412 233.083,26.3828 233.083,26.4557 L233.083,27.612 L234.099,27.612 M234.755,31.1432 C234.755,30.6328 235.073,30.2005 235.708,29.8464 C235.896,29.7526 236.396,29.5391 237.208,29.2057 C237.229,29.2057 237.245,29.2005 237.255,29.1901 L237.255,28.5807 C237.203,28.0599 236.948,27.7839 236.49,27.7526 C236.177,27.7526 235.958,27.8516 235.833,28.0495 C235.792,28.1224 235.771,28.1849 235.771,28.237 C235.771,28.2995 235.781,28.3828 235.802,28.487 C235.813,28.5599 235.818,28.612 235.818,28.6432 C235.818,28.8203 235.729,28.9453 235.552,29.0182 C235.49,29.0495 235.432,29.0651 235.38,29.0651 C235.193,29.0651 235.063,28.9766 234.99,28.7995 C234.958,28.7474 234.943,28.6901 234.943,28.6276 C234.943,28.263 235.162,27.9662 235.599,27.737 C235.901,27.5912 236.245,27.5182 236.63,27.5182 C237.349,27.5182 237.792,27.7735 237.958,28.2839 C238.031,28.5026 238.068,28.7787 238.068,29.112 L238.068,31.0495 C238.068,31.3828 238.13,31.5703 238.255,31.612 C238.297,31.6224 238.333,31.6276 238.365,31.6276 C238.511,31.6172 238.656,31.5547 238.802,31.4401 L238.802,31.6901 C238.531,32.0026 238.281,32.1745 238.052,32.2057 C238,32.2057 237.948,32.2057 237.896,32.2057 C237.583,32.2057 237.386,32.0495 237.302,31.737 C237.281,31.6537 237.271,31.5599 237.271,31.4557 C236.677,31.9349 236.188,32.1849 235.802,32.2057 C235.375,32.2057 235.068,32.0339 234.88,31.6901 C234.797,31.5235 234.755,31.3412 234.755,31.1432 M237.255,30.862 L237.255,29.4245 C236.432,29.7266 235.927,30.0339 235.74,30.3464 C235.667,30.4922 235.63,30.6485 235.63,30.8151 C235.63,31.211 235.776,31.461 236.068,31.5651 C236.141,31.5964 236.208,31.612 236.271,31.612 C236.49,31.6016 236.729,31.5235 236.99,31.3776 C237.136,31.2943 237.219,31.1901 237.24,31.0651 C237.25,31.0026 237.255,30.9349 237.255,30.862 M243.13,27.612 L243.13,27.7682 C242.964,27.7891 242.839,27.8568 242.755,27.9714 C242.682,28.0755 242.594,28.2682 242.49,28.5495 L241.208,31.7526 C241.073,32.0755 240.979,32.2422 240.927,32.2526 C240.854,32.2526 240.771,32.1068 240.677,31.8151 C240.667,31.8047 240.662,31.7943 240.662,31.7839 L239.458,28.9089 C239.208,28.3151 239.021,27.9662 238.896,27.862 C238.813,27.7995 238.698,27.7682 238.552,27.7682 L238.552,27.612 L240.521,27.612 L240.521,27.7682 C240.24,27.7891 240.089,27.862 240.068,27.987 C240.057,28.0078 240.052,28.0287 240.052,28.0495 C240.052,28.1641 240.083,28.2839 240.146,28.4089 L241.162,30.9714 L242.146,28.3776 C242.188,28.2839 242.208,28.1849 242.208,28.0807 C242.208,27.9037 242.063,27.7995 241.771,27.7682 C241.761,27.7682 241.75,27.7682 241.74,27.7682 L241.74,27.612 L243.13,27.612 M244.474,29.3464 C244.516,30.5235 244.901,31.2162 245.63,31.4245 C245.755,31.4662 245.891,31.487 246.037,31.487 C246.526,31.487 246.943,31.2787 247.287,30.862 C247.38,30.7474 247.479,30.612 247.583,30.4557 L247.74,30.5182 C247.375,31.4766 246.802,32.0287 246.021,32.1745 C245.886,32.1953 245.755,32.2057 245.63,32.2057 C244.891,32.2057 244.36,31.8932 244.037,31.2682 C243.849,30.8932 243.755,30.461 243.755,29.9714 C243.755,29.086 244.031,28.4141 244.583,27.9557 C244.948,27.6641 245.37,27.5182 245.849,27.5182 C246.766,27.5182 247.318,28.0391 247.505,29.0807 C247.526,29.1745 247.542,29.263 247.552,29.3464 L244.474,29.3464 M244.49,29.0495 L246.537,29.0495 C246.443,28.4766 246.276,28.1224 246.037,27.987 C245.912,27.9245 245.75,27.8932 245.552,27.8932 C244.958,27.8932 244.604,28.2682 244.49,29.0182 C244.49,29.0287 244.49,29.0391 244.49,29.0495"/>
</svg>
