<?xml version="1.0" encoding="UTF-8" standalone="no"?>
<svg width="595.44px" height="841.68px" viewBox="0 0 595.44 841.68"
 xmlns="http://www.w3.org/2000/svg" xmlns:xlink="http://www.w3.org/1999/xlink" version="1.2" baseProfile="tiny">
<title>Guitar Scales and Arpeggios</title>
<desc>Generated by MuseScore 2.1.0</desc>
<polyline class="StaffLines" fill="none" stroke="#000000" stroke-width="0.40" stroke-linejoin="bevel" points="28.08,62.856 567.36,62.856"/>
<polyline class="StaffLines" fill="none" stroke="#000000" stroke-width="0.40" stroke-linejoin="bevel" points="28.08,67.824 567.36,67.824"/>
<polyline class="StaffLines" fill="none" stroke="#000000" stroke-width="0.40" stroke-linejoin="bevel" points="28.08,72.792 567.36,72.792"/>
<polyline class="StaffLines" fill="none" stroke="#000000" stroke-width="0.40" stroke-linejoin="bevel" points="28.08,77.76 567.36,77.76"/>
<polyline class="StaffLines" fill="none" stroke="#000000" stroke-width="0.40" stroke-linejoin="bevel" points="28.08,82.728 567.36,82.728"/>
<polyline class="StaffLines" fill="none" stroke="#000000" stroke-width="0.40" stroke-linejoin="bevel" points="28.08,115.02 567.36,115.02"/>
<polyline class="StaffLines" fill="none" stroke="#000000" stroke-width="0.40" stroke-linejoin="bevel" points="28.08,122.472 567.36,122.472"/>
<polyline class="StaffLines" fill="none" stroke="#000000" stroke-width="0.40" stroke-linejoin="bevel" points="28.08,129.924 567.36,129.924"/>
<polyline class="StaffLines" fill="none" stroke="#000000" stroke-width="0.40" stroke-linejoin="bevel" points="28.08,137.376 567.36,137.376"/>
<polyline class="StaffLines" fill="none" stroke="#000000" stroke-width="0.40" stroke-linejoin="bevel" points="28.08,144.828 567.36,144.828"/>
<polyline class="StaffLines" fill="none" stroke="#000000" stroke-width="0.40" stroke-linejoin="bevel" points="28.08,152.28 567.36,152.28"/>
<polyline class="BarLine" fill="none" stroke="#000000" stroke-width="0.79" stroke-linejoin="bevel" points="28.4774,62.856 28.4774,152.28"/>
<polyline class="BarLine" fill="none" stroke="#000000" stroke-width="0.79" stroke-linejoin="bevel" points="562.491,115.02 562.491,152.28"/>
<polyline class="BarLine" fill="none" stroke="#000000" stroke-width="2.48" stroke-linejoin="bevel" points="566.118,115.02 566.118,152.28"/>
<polyline class="BarLine" fill="none" stroke="#000000" stroke-width="0.79" stroke-linejoin="bevel" points="562.491,62.856 562.491,82.728"/>
<polyline class="BarLine" fill="none" stroke="#000000" stroke-width="2.48" stroke-linejoin="bevel" points="566.118,62.856 566.118,82.728"/>
<polyline class="Stem" fill="none" stroke="#000000" stroke-width="0.65" stroke-linecap="round" stroke-linejoin="bevel" points="518.166,84.4489 518.166,67.824"/>
<polyline class="Stem" fill="none" stroke="#000000" stroke-width="0.65" stroke-linecap="round" stroke-linejoin="bevel" points="486.533,81.7949 486.533,65.34"/>
<polyline class="Stem" fill="none" stroke="#000000" stroke-width="0.65" stroke-linecap="round" stroke-linejoin="bevel" points="455.08,79.3109 455.08,62.856"/>
<polyline class="Stem" fill="none" stroke="#000000" stroke-width="0.65" stroke-linecap="round" stroke-linejoin="bevel" points="423.627,76.8269 423.627,60.993"/>
<polyline class="Stem" fill="none" stroke="#000000" stroke-width="0.65" stroke-linecap="round" stroke-linejoin="bevel" points="392.174,74.3429 392.174,59.13"/>
<polyline class="Stem" fill="none" stroke="#000000" stroke-width="0.65" stroke-linecap="round" stroke-linejoin="bevel" points="354.825,73.7251 354.825,88.317"/>
<polyline class="Stem" fill="none" stroke="#000000" stroke-width="0.65" stroke-linecap="round" stroke-linejoin="bevel" points="323.372,71.2411 323.372,86.454"/>
<polyline class="Stem" fill="none" stroke="#000000" stroke-width="0.65" stroke-linecap="round" stroke-linejoin="bevel" points="291.919,68.7571 291.919,84.591"/>
<polyline class="Stem" fill="none" stroke="#000000" stroke-width="0.65" stroke-linecap="round" stroke-linejoin="bevel" points="260.466,71.2411 260.466,86.454"/>
<polyline class="Stem" fill="none" stroke="#000000" stroke-width="0.65" stroke-linecap="round" stroke-linejoin="bevel" points="229.013,73.7251 229.013,88.317"/>
<polyline class="Stem" fill="none" stroke="#000000" stroke-width="0.65" stroke-linecap="round" stroke-linejoin="bevel" points="203.454,74.3429 203.454,59.13"/>
<polyline class="Stem" fill="none" stroke="#000000" stroke-width="0.65" stroke-linecap="round" stroke-linejoin="bevel" points="172.001,76.8269 172.001,60.993"/>
<polyline class="Stem" fill="none" stroke="#000000" stroke-width="0.65" stroke-linecap="round" stroke-linejoin="bevel" points="140.548,79.3109 140.548,62.856"/>
<polyline class="Stem" fill="none" stroke="#000000" stroke-width="0.65" stroke-linecap="round" stroke-linejoin="bevel" points="109.094,81.7949 109.094,65.34"/>
<polyline class="Stem" fill="none" stroke="#000000" stroke-width="0.65" stroke-linecap="round" stroke-linejoin="bevel" points="77.6412,84.2789 77.6412,67.824"/>
<path class="Note" fill="#ffffff" fill-rule="evenodd" d="M512.514,133.65 L518.476,133.65 L518.476,141.102 L512.514,141.102 L512.514,133.65 "/>
<path class="Note" transform="matrix(0.9936,0,0,0.9936,513.011,140.854)" d="M0.390625,-3.09375 C0.390625,-5 0.927083,-6.07813 2,-6.32813 C2.14583,-6.36979 2.30208,-6.39063 2.46875,-6.39063 C3.78125,-6.39063 4.47917,-5.40104 4.5625,-3.42188 C4.5625,-3.28646 4.5625,-3.15625 4.5625,-3.03125 C4.5625,-1.40625 4.15104,-0.385417 3.32813,0.03125 C3.06771,0.145833 2.78125,0.203125 2.46875,0.203125 C1.41667,0.203125 0.760417,-0.442708 0.5,-1.73438 C0.427083,-2.14063 0.390625,-2.59375 0.390625,-3.09375 M2.46875,-5.64063 C1.625,-5.63021 1.20313,-4.77083 1.20313,-3.0625 C1.20313,-1.32292 1.61979,-0.453125 2.45313,-0.453125 C3.16146,-0.453125 3.57813,-1.02604 3.70313,-2.17188 C3.73438,-2.44271 3.75,-2.75 3.75,-3.09375 C3.75,-4.79167 3.32292,-5.64063 2.46875,-5.64063"/>
<path class="Note" fill="#78c7c7" transform="matrix(0.9936,0,0,0.9936,511.589,85.212)" d="M6.3125,-1.3125 C6.3125,-1.53125 6.22917,-1.71875 6.0625,-1.875 C5.88542,-2.04167 5.6875,-2.125 5.46875,-2.125 C5.08333,-2.125 4.29688,-1.73438 3.10938,-0.953125 C1.88021,-0.161458 1.13021,0.40625 0.859375,0.75 C0.713542,0.927083 0.640625,1.11458 0.640625,1.3125 C0.640625,1.53125 0.729167,1.71875 0.90625,1.875 C1.0625,2.04167 1.25521,2.125 1.48438,2.125 C1.85938,2.125 2.65625,1.73438 3.875,0.953125 C5.07292,0.171875 5.8125,-0.395833 6.09375,-0.75 C6.23958,-0.916667 6.3125,-1.10417 6.3125,-1.3125 M5.28125,-2.75 C6.39583,-2.75 6.95313,-2.27083 6.95313,-1.3125 C6.95313,-0.84375 6.81771,-0.296875 6.54688,0.328125 C6.27604,0.942708 5.91146,1.41146 5.45313,1.73438 C4.45313,2.41146 3.19792,2.75 1.6875,2.75 C0.5625,2.75 0,2.27083 0,1.3125 C0,0.885417 0.135417,0.34375 0.40625,-0.3125 C0.666667,-0.9375 1.03125,-1.41146 1.5,-1.73438 C2.51042,-2.41146 3.77083,-2.75 5.28125,-2.75"/>
<path class="Note" fill="#ffffff" fill-rule="evenodd" d="M481.061,133.65 L487.022,133.65 L487.022,141.102 L481.061,141.102 L481.061,133.65 "/>
<path class="Note" transform="matrix(0.9936,0,0,0.9936,481.558,140.854)" d="M0.453125,-4.17188 C0.494792,-5.64063 1.19792,-6.38021 2.5625,-6.39063 C3.28125,-6.39063 3.83333,-6.14583 4.21875,-5.65625 C4.46875,-5.32292 4.59375,-4.93229 4.59375,-4.48438 C4.59375,-3.68229 4.14583,-3.03125 3.25,-2.53125 L2.34375,-2.04688 C1.79167,-1.75521 1.44271,-1.4375 1.29688,-1.09375 C1.24479,-0.989583 1.21354,-0.869792 1.20313,-0.734375 L4.5625,-0.734375 L4.5625,0 L0.3125,0 C0.354167,-0.760417 0.520833,-1.33854 0.8125,-1.73438 C1.07292,-2.05729 1.5,-2.38542 2.09375,-2.71875 L2.92188,-3.1875 C3.49479,-3.52083 3.78646,-3.94271 3.79688,-4.45313 C3.79688,-4.88021 3.61458,-5.21354 3.25,-5.45313 C3.04167,-5.57813 2.80208,-5.64063 2.53125,-5.64063 C1.73958,-5.64063 1.3125,-5.16667 1.25,-4.21875 C1.25,-4.19792 1.25,-4.18229 1.25,-4.17188 L0.453125,-4.17188 "/>
<path class="Note" fill="#ff9933" transform="matrix(0.9936,0,0,0.9936,480.316,82.728)" d="M4.39063,-2.75 C5.01563,-2.75 5.54688,-2.58854 5.98438,-2.26563 C6.38021,-1.91146 6.57813,-1.46875 6.57813,-0.9375 C6.57813,-0.0416667 6.11979,0.796875 5.20313,1.57813 C4.26563,2.35938 3.26042,2.75 2.1875,2.75 C1.5625,2.75 1.03646,2.58854 0.609375,2.26563 C0.203125,1.91146 0,1.46875 0,0.9375 C0,0.0416667 0.46875,-0.796875 1.40625,-1.57813 C2.32292,-2.35938 3.31771,-2.75 4.39063,-2.75"/>
<path class="Note" fill="#ffffff" fill-rule="evenodd" d="M449.607,133.65 L455.569,133.65 L455.569,141.102 L449.607,141.102 L449.607,133.65 "/>
<path class="Note" transform="matrix(0.9936,0,0,0.9936,450.104,140.854)" d="M2.9375,-1.5 L0.25,-1.5 L0.25,-2.375 L3.15625,-6.39063 L3.73438,-6.39063 L3.73438,-2.23438 L4.6875,-2.23438 L4.6875,-1.5 L3.73438,-1.5 L3.73438,0 L2.9375,0 L2.9375,-1.5 M2.9375,-2.23438 L2.9375,-5.03125 L0.9375,-2.23438 L2.9375,-2.23438 "/>
<path class="Note" fill="#286704" transform="matrix(0.9936,0,0,0.9936,448.862,80.244)" d="M4.39063,-2.75 C5.01563,-2.75 5.54688,-2.58854 5.98438,-2.26563 C6.38021,-1.91146 6.57813,-1.46875 6.57813,-0.9375 C6.57813,-0.0416667 6.11979,0.796875 5.20313,1.57813 C4.26563,2.35938 3.26042,2.75 2.1875,2.75 C1.5625,2.75 1.03646,2.58854 0.609375,2.26563 C0.203125,1.91146 0,1.46875 0,0.9375 C0,0.0416667 0.46875,-0.796875 1.40625,-1.57813 C2.32292,-2.35938 3.31771,-2.75 4.39063,-2.75"/>
<path class="Note" fill="#ffffff" fill-rule="evenodd" d="M418.154,133.65 L424.116,133.65 L424.116,141.102 L418.154,141.102 L418.154,133.65 "/>
<path class="Note" transform="matrix(0.9936,0,0,0.9936,418.651,140.854)" d="M4.28125,-6.39063 L4.28125,-5.64063 L1.625,-5.64063 L1.375,-3.8125 C1.73958,-4.09375 2.13542,-4.23438 2.5625,-4.23438 C3.28125,-4.23438 3.83333,-3.97396 4.21875,-3.45313 C4.48958,-3.07813 4.625,-2.625 4.625,-2.09375 C4.625,-1.3125 4.35938,-0.708333 3.82813,-0.28125 C3.44271,0.0416667 2.97917,0.203125 2.4375,0.203125 C1.26042,0.203125 0.557292,-0.359375 0.328125,-1.48438 C0.328125,-1.50521 0.322917,-1.53125 0.3125,-1.5625 L1.10938,-1.5625 C1.30729,-0.885417 1.73958,-0.541667 2.40625,-0.53125 C3.02083,-0.53125 3.44271,-0.770833 3.67188,-1.25 C3.76563,-1.46875 3.8125,-1.71354 3.8125,-1.98438 C3.8125,-2.63021 3.58333,-3.07813 3.125,-3.32813 C2.91667,-3.44271 2.67708,-3.5 2.40625,-3.5 C2.03125,-3.5 1.70833,-3.38021 1.4375,-3.14063 C1.375,-3.07813 1.3125,-3.01042 1.25,-2.9375 L0.515625,-2.9375 L0.984375,-6.39063 L4.28125,-6.39063 "/>
<path class="Note" fill="#99cc33" transform="matrix(0.9936,0,0,0.9936,417.409,77.76)" d="M4.39063,-2.75 C5.01563,-2.75 5.54688,-2.58854 5.98438,-2.26563 C6.38021,-1.91146 6.57813,-1.46875 6.57813,-0.9375 C6.57813,-0.0416667 6.11979,0.796875 5.20313,1.57813 C4.26563,2.35938 3.26042,2.75 2.1875,2.75 C1.5625,2.75 1.03646,2.58854 0.609375,2.26563 C0.203125,1.91146 0,1.46875 0,0.9375 C0,0.0416667 0.46875,-0.796875 1.40625,-1.57813 C2.32292,-2.35938 3.31771,-2.75 4.39063,-2.75"/>
<path class="Note" fill="#ffffff" fill-rule="evenodd" d="M386.701,126.198 L392.663,126.198 L392.663,133.65 L386.701,133.65 L386.701,126.198 "/>
<path class="Note" transform="matrix(0.9936,0,0,0.9936,387.198,133.402)" d="M0.453125,-4.17188 C0.494792,-5.64063 1.19792,-6.38021 2.5625,-6.39063 C3.28125,-6.39063 3.83333,-6.14583 4.21875,-5.65625 C4.46875,-5.32292 4.59375,-4.93229 4.59375,-4.48438 C4.59375,-3.68229 4.14583,-3.03125 3.25,-2.53125 L2.34375,-2.04688 C1.79167,-1.75521 1.44271,-1.4375 1.29688,-1.09375 C1.24479,-0.989583 1.21354,-0.869792 1.20313,-0.734375 L4.5625,-0.734375 L4.5625,0 L0.3125,0 C0.354167,-0.760417 0.520833,-1.33854 0.8125,-1.73438 C1.07292,-2.05729 1.5,-2.38542 2.09375,-2.71875 L2.92188,-3.1875 C3.49479,-3.52083 3.78646,-3.94271 3.79688,-4.45313 C3.79688,-4.88021 3.61458,-5.21354 3.25,-5.45313 C3.04167,-5.57813 2.80208,-5.64063 2.53125,-5.64063 C1.73958,-5.64063 1.3125,-5.16667 1.25,-4.21875 C1.25,-4.19792 1.25,-4.18229 1.25,-4.17188 L0.453125,-4.17188 "/>
<path class="Note" fill="#cc00ff" transform="matrix(0.9936,0,0,0.9936,385.956,75.276)" d="M4.39063,-2.75 C5.01563,-2.75 5.54688,-2.58854 5.98438,-2.26563 C6.38021,-1.91146 6.57813,-1.46875 6.57813,-0.9375 C6.57813,-0.0416667 6.11979,0.796875 5.20313,1.57813 C4.26563,2.35938 3.26042,2.75 2.1875,2.75 C1.5625,2.75 1.03646,2.58854 0.609375,2.26563 C0.203125,1.91146 0,1.46875 0,0.9375 C0,0.0416667 0.46875,-0.796875 1.40625,-1.57813 C2.32292,-2.35938 3.31771,-2.75 4.39063,-2.75"/>
<path class="Note" fill="#ffffff" fill-rule="evenodd" d="M355.248,126.198 L361.209,126.198 L361.209,133.65 L355.248,133.65 L355.248,126.198 "/>
<path class="Note" transform="matrix(0.9936,0,0,0.9936,355.745,133.402)" d="M2.9375,-1.5 L0.25,-1.5 L0.25,-2.375 L3.15625,-6.39063 L3.73438,-6.39063 L3.73438,-2.23438 L4.6875,-2.23438 L4.6875,-1.5 L3.73438,-1.5 L3.73438,0 L2.9375,0 L2.9375,-1.5 M2.9375,-2.23438 L2.9375,-5.03125 L0.9375,-2.23438 L2.9375,-2.23438 "/>
<path class="Note" fill="#ff9ee6" transform="matrix(0.9936,0,0,0.9936,354.503,72.792)" d="M4.39063,-2.75 C5.01563,-2.75 5.54688,-2.58854 5.98438,-2.26563 C6.38021,-1.91146 6.57813,-1.46875 6.57813,-0.9375 C6.57813,-0.0416667 6.11979,0.796875 5.20313,1.57813 C4.26563,2.35938 3.26042,2.75 2.1875,2.75 C1.5625,2.75 1.03646,2.58854 0.609375,2.26563 C0.203125,1.91146 0,1.46875 0,0.9375 C0,0.0416667 0.46875,-0.796875 1.40625,-1.57813 C2.32292,-2.35938 3.31771,-2.75 4.39063,-2.75"/>
<path class="Note" fill="#ffffff" fill-rule="evenodd" d="M323.795,118.746 L329.756,118.746 L329.756,126.198 L323.795,126.198 L323.795,118.746 "/>
<path class="Note" transform="matrix(0.9936,0,0,0.9936,324.291,125.95)" d="M0.453125,-4.17188 C0.494792,-5.64063 1.19792,-6.38021 2.5625,-6.39063 C3.28125,-6.39063 3.83333,-6.14583 4.21875,-5.65625 C4.46875,-5.32292 4.59375,-4.93229 4.59375,-4.48438 C4.59375,-3.68229 4.14583,-3.03125 3.25,-2.53125 L2.34375,-2.04688 C1.79167,-1.75521 1.44271,-1.4375 1.29688,-1.09375 C1.24479,-0.989583 1.21354,-0.869792 1.20313,-0.734375 L4.5625,-0.734375 L4.5625,0 L0.3125,0 C0.354167,-0.760417 0.520833,-1.33854 0.8125,-1.73438 C1.07292,-2.05729 1.5,-2.38542 2.09375,-2.71875 L2.92188,-3.1875 C3.49479,-3.52083 3.78646,-3.94271 3.79688,-4.45313 C3.79688,-4.88021 3.61458,-5.21354 3.25,-5.45313 C3.04167,-5.57813 2.80208,-5.64063 2.53125,-5.64063 C1.73958,-5.64063 1.3125,-5.16667 1.25,-4.21875 C1.25,-4.19792 1.25,-4.18229 1.25,-4.17188 L0.453125,-4.17188 "/>
<path class="Note" fill="#9f000f" transform="matrix(0.9936,0,0,0.9936,323.049,70.308)" d="M4.39063,-2.75 C5.01563,-2.75 5.54688,-2.58854 5.98438,-2.26563 C6.38021,-1.91146 6.57813,-1.46875 6.57813,-0.9375 C6.57813,-0.0416667 6.11979,0.796875 5.20313,1.57813 C4.26563,2.35938 3.26042,2.75 2.1875,2.75 C1.5625,2.75 1.03646,2.58854 0.609375,2.26563 C0.203125,1.91146 0,1.46875 0,0.9375 C0,0.0416667 0.46875,-0.796875 1.40625,-1.57813 C2.32292,-2.35938 3.31771,-2.75 4.39063,-2.75"/>
<path class="Note" fill="#ffffff" fill-rule="evenodd" d="M292.341,118.746 L298.303,118.746 L298.303,126.198 L292.341,126.198 L292.341,118.746 "/>
<path class="Note" transform="matrix(0.9936,0,0,0.9936,292.838,125.95)" d="M2.4375,-5.64063 C1.75,-5.64063 1.35417,-5.32813 1.25,-4.70313 C1.22917,-4.59896 1.21875,-4.47917 1.21875,-4.34375 L0.421875,-4.34375 C0.442708,-5.59375 1.01563,-6.27083 2.14063,-6.375 C2.23438,-6.38542 2.32813,-6.39063 2.42188,-6.39063 C3.26563,-6.39063 3.84375,-6.10938 4.15625,-5.54688 C4.29167,-5.28646 4.35938,-4.98438 4.35938,-4.64063 C4.35938,-4.00521 4.0625,-3.57292 3.46875,-3.34375 C4.03125,-3.14583 4.375,-2.81771 4.5,-2.35938 C4.54167,-2.19271 4.5625,-2.00521 4.5625,-1.79688 C4.5625,-1.05729 4.27604,-0.505208 3.70313,-0.140625 C3.33854,0.0885417 2.90104,0.203125 2.39063,0.203125 C1.21354,0.203125 0.526042,-0.348958 0.328125,-1.45313 C0.317708,-1.57813 0.302083,-1.71354 0.28125,-1.85938 L1.07813,-1.85938 C1.13021,-1.08854 1.46875,-0.65625 2.09375,-0.5625 C2.19792,-0.541667 2.30729,-0.53125 2.42188,-0.53125 C3.04688,-0.53125 3.45313,-0.765625 3.64063,-1.23438 C3.71354,-1.40104 3.75,-1.58854 3.75,-1.79688 C3.73958,-2.54688 3.29688,-2.92708 2.42188,-2.9375 L2.09375,-2.92188 L1.98438,-2.92188 L1.98438,-3.67188 C2.66146,-3.68229 3.10417,-3.77604 3.3125,-3.95313 C3.47917,-4.09896 3.5625,-4.31771 3.5625,-4.60938 C3.5625,-5.09896 3.34896,-5.41667 2.92188,-5.5625 C2.77604,-5.61458 2.61458,-5.64063 2.4375,-5.64063"/>
<path class="Note" fill="#78c7c7" transform="matrix(0.9936,0,0,0.9936,291.596,67.824)" d="M4.39063,-2.75 C5.01563,-2.75 5.54688,-2.58854 5.98438,-2.26563 C6.38021,-1.91146 6.57813,-1.46875 6.57813,-0.9375 C6.57813,-0.0416667 6.11979,0.796875 5.20313,1.57813 C4.26563,2.35938 3.26042,2.75 2.1875,2.75 C1.5625,2.75 1.03646,2.58854 0.609375,2.26563 C0.203125,1.91146 0,1.46875 0,0.9375 C0,0.0416667 0.46875,-0.796875 1.40625,-1.57813 C2.32292,-2.35938 3.31771,-2.75 4.39063,-2.75"/>
<path class="Note" fill="#ffffff" fill-rule="evenodd" d="M260.888,118.746 L266.85,118.746 L266.85,126.198 L260.888,126.198 L260.888,118.746 "/>
<path class="Note" transform="matrix(0.9936,0,0,0.9936,261.385,125.95)" d="M0.453125,-4.17188 C0.494792,-5.64063 1.19792,-6.38021 2.5625,-6.39063 C3.28125,-6.39063 3.83333,-6.14583 4.21875,-5.65625 C4.46875,-5.32292 4.59375,-4.93229 4.59375,-4.48438 C4.59375,-3.68229 4.14583,-3.03125 3.25,-2.53125 L2.34375,-2.04688 C1.79167,-1.75521 1.44271,-1.4375 1.29688,-1.09375 C1.24479,-0.989583 1.21354,-0.869792 1.20313,-0.734375 L4.5625,-0.734375 L4.5625,0 L0.3125,0 C0.354167,-0.760417 0.520833,-1.33854 0.8125,-1.73438 C1.07292,-2.05729 1.5,-2.38542 2.09375,-2.71875 L2.92188,-3.1875 C3.49479,-3.52083 3.78646,-3.94271 3.79688,-4.45313 C3.79688,-4.88021 3.61458,-5.21354 3.25,-5.45313 C3.04167,-5.57813 2.80208,-5.64063 2.53125,-5.64063 C1.73958,-5.64063 1.3125,-5.16667 1.25,-4.21875 C1.25,-4.19792 1.25,-4.18229 1.25,-4.17188 L0.453125,-4.17188 "/>
<path class="Note" fill="#9f000f" transform="matrix(0.9936,0,0,0.9936,260.143,70.308)" d="M4.39063,-2.75 C5.01563,-2.75 5.54688,-2.58854 5.98438,-2.26563 C6.38021,-1.91146 6.57813,-1.46875 6.57813,-0.9375 C6.57813,-0.0416667 6.11979,0.796875 5.20313,1.57813 C4.26563,2.35938 3.26042,2.75 2.1875,2.75 C1.5625,2.75 1.03646,2.58854 0.609375,2.26563 C0.203125,1.91146 0,1.46875 0,0.9375 C0,0.0416667 0.46875,-0.796875 1.40625,-1.57813 C2.32292,-2.35938 3.31771,-2.75 4.39063,-2.75"/>
<path class="Note" fill="#ffffff" fill-rule="evenodd" d="M229.435,126.198 L235.396,126.198 L235.396,133.65 L229.435,133.65 L229.435,126.198 "/>
<path class="Note" transform="matrix(0.9936,0,0,0.9936,229.932,133.402)" d="M2.9375,-1.5 L0.25,-1.5 L0.25,-2.375 L3.15625,-6.39063 L3.73438,-6.39063 L3.73438,-2.23438 L4.6875,-2.23438 L4.6875,-1.5 L3.73438,-1.5 L3.73438,0 L2.9375,0 L2.9375,-1.5 M2.9375,-2.23438 L2.9375,-5.03125 L0.9375,-2.23438 L2.9375,-2.23438 "/>
<path class="Note" fill="#ff9ee6" transform="matrix(0.9936,0,0,0.9936,228.69,72.792)" d="M4.39063,-2.75 C5.01563,-2.75 5.54688,-2.58854 5.98438,-2.26563 C6.38021,-1.91146 6.57813,-1.46875 6.57813,-0.9375 C6.57813,-0.0416667 6.11979,0.796875 5.20313,1.57813 C4.26563,2.35938 3.26042,2.75 2.1875,2.75 C1.5625,2.75 1.03646,2.58854 0.609375,2.26563 C0.203125,1.91146 0,1.46875 0,0.9375 C0,0.0416667 0.46875,-0.796875 1.40625,-1.57813 C2.32292,-2.35938 3.31771,-2.75 4.39063,-2.75"/>
<path class="Note" fill="#ffffff" fill-rule="evenodd" d="M197.982,126.198 L203.943,126.198 L203.943,133.65 L197.982,133.65 L197.982,126.198 "/>
<path class="Note" transform="matrix(0.9936,0,0,0.9936,198.478,133.402)" d="M0.453125,-4.17188 C0.494792,-5.64063 1.19792,-6.38021 2.5625,-6.39063 C3.28125,-6.39063 3.83333,-6.14583 4.21875,-5.65625 C4.46875,-5.32292 4.59375,-4.93229 4.59375,-4.48438 C4.59375,-3.68229 4.14583,-3.03125 3.25,-2.53125 L2.34375,-2.04688 C1.79167,-1.75521 1.44271,-1.4375 1.29688,-1.09375 C1.24479,-0.989583 1.21354,-0.869792 1.20313,-0.734375 L4.5625,-0.734375 L4.5625,0 L0.3125,0 C0.354167,-0.760417 0.520833,-1.33854 0.8125,-1.73438 C1.07292,-2.05729 1.5,-2.38542 2.09375,-2.71875 L2.92188,-3.1875 C3.49479,-3.52083 3.78646,-3.94271 3.79688,-4.45313 C3.79688,-4.88021 3.61458,-5.21354 3.25,-5.45313 C3.04167,-5.57813 2.80208,-5.64063 2.53125,-5.64063 C1.73958,-5.64063 1.3125,-5.16667 1.25,-4.21875 C1.25,-4.19792 1.25,-4.18229 1.25,-4.17188 L0.453125,-4.17188 "/>
<path class="Note" fill="#cc00ff" transform="matrix(0.9936,0,0,0.9936,197.236,75.276)" d="M4.39063,-2.75 C5.01563,-2.75 5.54688,-2.58854 5.98438,-2.26563 C6.38021,-1.91146 6.57813,-1.46875 6.57813,-0.9375 C6.57813,-0.0416667 6.11979,0.796875 5.20313,1.57813 C4.26563,2.35938 3.26042,2.75 2.1875,2.75 C1.5625,2.75 1.03646,2.58854 0.609375,2.26563 C0.203125,1.91146 0,1.46875 0,0.9375 C0,0.0416667 0.46875,-0.796875 1.40625,-1.57813 C2.32292,-2.35938 3.31771,-2.75 4.39063,-2.75"/>
<path class="Note" fill="#ffffff" fill-rule="evenodd" d="M166.528,133.65 L172.49,133.65 L172.49,141.102 L166.528,141.102 L166.528,133.65 "/>
<path class="Note" transform="matrix(0.9936,0,0,0.9936,167.025,140.854)" d="M4.28125,-6.39063 L4.28125,-5.64063 L1.625,-5.64063 L1.375,-3.8125 C1.73958,-4.09375 2.13542,-4.23438 2.5625,-4.23438 C3.28125,-4.23438 3.83333,-3.97396 4.21875,-3.45313 C4.48958,-3.07813 4.625,-2.625 4.625,-2.09375 C4.625,-1.3125 4.35938,-0.708333 3.82813,-0.28125 C3.44271,0.0416667 2.97917,0.203125 2.4375,0.203125 C1.26042,0.203125 0.557292,-0.359375 0.328125,-1.48438 C0.328125,-1.50521 0.322917,-1.53125 0.3125,-1.5625 L1.10938,-1.5625 C1.30729,-0.885417 1.73958,-0.541667 2.40625,-0.53125 C3.02083,-0.53125 3.44271,-0.770833 3.67188,-1.25 C3.76563,-1.46875 3.8125,-1.71354 3.8125,-1.98438 C3.8125,-2.63021 3.58333,-3.07813 3.125,-3.32813 C2.91667,-3.44271 2.67708,-3.5 2.40625,-3.5 C2.03125,-3.5 1.70833,-3.38021 1.4375,-3.14063 C1.375,-3.07813 1.3125,-3.01042 1.25,-2.9375 L0.515625,-2.9375 L0.984375,-6.39063 L4.28125,-6.39063 "/>
<path class="Note" fill="#99cc33" transform="matrix(0.9936,0,0,0.9936,165.783,77.76)" d="M4.39063,-2.75 C5.01563,-2.75 5.54688,-2.58854 5.98438,-2.26563 C6.38021,-1.91146 6.57813,-1.46875 6.57813,-0.9375 C6.57813,-0.0416667 6.11979,0.796875 5.20313,1.57813 C4.26563,2.35938 3.26042,2.75 2.1875,2.75 C1.5625,2.75 1.03646,2.58854 0.609375,2.26563 C0.203125,1.91146 0,1.46875 0,0.9375 C0,0.0416667 0.46875,-0.796875 1.40625,-1.57813 C2.32292,-2.35938 3.31771,-2.75 4.39063,-2.75"/>
<path class="Note" fill="#ffffff" fill-rule="evenodd" d="M135.075,133.65 L141.037,133.65 L141.037,141.102 L135.075,141.102 L135.075,133.65 "/>
<path class="Note" transform="matrix(0.9936,0,0,0.9936,135.572,140.854)" d="M2.9375,-1.5 L0.25,-1.5 L0.25,-2.375 L3.15625,-6.39063 L3.73438,-6.39063 L3.73438,-2.23438 L4.6875,-2.23438 L4.6875,-1.5 L3.73438,-1.5 L3.73438,0 L2.9375,0 L2.9375,-1.5 M2.9375,-2.23438 L2.9375,-5.03125 L0.9375,-2.23438 L2.9375,-2.23438 "/>
<path class="Note" fill="#286704" transform="matrix(0.9936,0,0,0.9936,134.33,80.244)" d="M4.39063,-2.75 C5.01563,-2.75 5.54688,-2.58854 5.98438,-2.26563 C6.38021,-1.91146 6.57813,-1.46875 6.57813,-0.9375 C6.57813,-0.0416667 6.11979,0.796875 5.20313,1.57813 C4.26563,2.35938 3.26042,2.75 2.1875,2.75 C1.5625,2.75 1.03646,2.58854 0.609375,2.26563 C0.203125,1.91146 0,1.46875 0,0.9375 C0,0.0416667 0.46875,-0.796875 1.40625,-1.57813 C2.32292,-2.35938 3.31771,-2.75 4.39063,-2.75"/>
<path class="Note" fill="#ffffff" fill-rule="evenodd" d="M103.622,133.65 L109.584,133.65 L109.584,141.102 L103.622,141.102 L103.622,133.65 "/>
<path class="Note" transform="matrix(0.9936,0,0,0.9936,104.119,140.854)" d="M0.453125,-4.17188 C0.494792,-5.64063 1.19792,-6.38021 2.5625,-6.39063 C3.28125,-6.39063 3.83333,-6.14583 4.21875,-5.65625 C4.46875,-5.32292 4.59375,-4.93229 4.59375,-4.48438 C4.59375,-3.68229 4.14583,-3.03125 3.25,-2.53125 L2.34375,-2.04688 C1.79167,-1.75521 1.44271,-1.4375 1.29688,-1.09375 C1.24479,-0.989583 1.21354,-0.869792 1.20313,-0.734375 L4.5625,-0.734375 L4.5625,0 L0.3125,0 C0.354167,-0.760417 0.520833,-1.33854 0.8125,-1.73438 C1.07292,-2.05729 1.5,-2.38542 2.09375,-2.71875 L2.92188,-3.1875 C3.49479,-3.52083 3.78646,-3.94271 3.79688,-4.45313 C3.79688,-4.88021 3.61458,-5.21354 3.25,-5.45313 C3.04167,-5.57813 2.80208,-5.64063 2.53125,-5.64063 C1.73958,-5.64063 1.3125,-5.16667 1.25,-4.21875 C1.25,-4.19792 1.25,-4.18229 1.25,-4.17188 L0.453125,-4.17188 "/>
<path class="Note" fill="#ff9933" transform="matrix(0.9936,0,0,0.9936,102.877,82.728)" d="M4.39063,-2.75 C5.01563,-2.75 5.54688,-2.58854 5.98438,-2.26563 C6.38021,-1.91146 6.57813,-1.46875 6.57813,-0.9375 C6.57813,-0.0416667 6.11979,0.796875 5.20313,1.57813 C4.26563,2.35938 3.26042,2.75 2.1875,2.75 C1.5625,2.75 1.03646,2.58854 0.609375,2.26563 C0.203125,1.91146 0,1.46875 0,0.9375 C0,0.0416667 0.46875,-0.796875 1.40625,-1.57813 C2.32292,-2.35938 3.31771,-2.75 4.39063,-2.75"/>
<path class="Note" fill="#ffffff" fill-rule="evenodd" d="M72.1687,133.65 L78.1303,133.65 L78.1303,141.102 L72.1687,141.102 L72.1687,133.65 "/>
<path class="Note" transform="matrix(0.9936,0,0,0.9936,72.6655,140.854)" d="M0.390625,-3.09375 C0.390625,-5 0.927083,-6.07813 2,-6.32813 C2.14583,-6.36979 2.30208,-6.39063 2.46875,-6.39063 C3.78125,-6.39063 4.47917,-5.40104 4.5625,-3.42188 C4.5625,-3.28646 4.5625,-3.15625 4.5625,-3.03125 C4.5625,-1.40625 4.15104,-0.385417 3.32813,0.03125 C3.06771,0.145833 2.78125,0.203125 2.46875,0.203125 C1.41667,0.203125 0.760417,-0.442708 0.5,-1.73438 C0.427083,-2.14063 0.390625,-2.59375 0.390625,-3.09375 M2.46875,-5.64063 C1.625,-5.63021 1.20313,-4.77083 1.20313,-3.0625 C1.20313,-1.32292 1.61979,-0.453125 2.45313,-0.453125 C3.16146,-0.453125 3.57813,-1.02604 3.70313,-2.17188 C3.73438,-2.44271 3.75,-2.75 3.75,-3.09375 C3.75,-4.79167 3.32292,-5.64063 2.46875,-5.64063"/>
<path class="Note" fill="#78c7c7" transform="matrix(0.9936,0,0,0.9936,71.4235,85.212)" d="M4.39063,-2.75 C5.01563,-2.75 5.54688,-2.58854 5.98438,-2.26563 C6.38021,-1.91146 6.57813,-1.46875 6.57813,-0.9375 C6.57813,-0.0416667 6.11979,0.796875 5.20313,1.57813 C4.26563,2.35938 3.26042,2.75 2.1875,2.75 C1.5625,2.75 1.03646,2.58854 0.609375,2.26563 C0.203125,1.91146 0,1.46875 0,0.9375 C0,0.0416667 0.46875,-0.796875 1.40625,-1.57813 C2.32292,-2.35938 3.31771,-2.75 4.39063,-2.75"/>
<path class="Clef" transform="matrix(0.9936,0,0,0.9936,32.0544,133.65)" d="M5.32813,8.5 C5.32813,8.86458 5.04167,9.04688 4.46875,9.04688 C4.02083,9.04688 3.625,8.91146 3.28125,8.64063 C2.95833,8.34896 2.79688,7.98438 2.79688,7.54688 C2.79688,6.76563 3.27083,6.14063 4.21875,5.67188 C5.14583,5.18229 6.23438,4.9375 7.48438,4.9375 C7.96354,4.9375 8.47917,4.97396 9.03125,5.04688 C9.42708,5.09896 9.875,5.20313 10.375,5.35938 C10.8125,5.49479 11.1563,5.70573 11.4063,5.99219 C11.6563,6.27865 11.7813,6.61458 11.7813,7 C11.7813,7.89583 11.3177,8.63021 10.3906,9.20313 C11.7448,9.45313 12.4271,10.0573 12.4375,11.0156 C12.4375,11.8281 12.0729,12.5599 11.3438,13.2109 C10.6146,13.862 9.79167,14.1875 8.875,14.1875 C8.47917,14.1875 8.07813,14.0938 7.67188,13.9063 C7.29688,13.7292 7.03125,13.5625 6.875,13.4063 C6.71875,13.2188 6.64063,13.0781 6.64063,12.9844 C6.64063,12.8594 6.70833,12.75 6.84375,12.6563 C6.95833,12.5417 7.07813,12.4844 7.20313,12.4844 C7.25521,12.4844 7.36719,12.5677 7.53906,12.7344 C7.71094,12.901 7.95833,12.9844 8.28125,12.9844 C8.72917,12.9844 9.16146,12.7969 9.57813,12.4219 C9.97396,12.0573 10.1719,11.6198 10.1719,11.1094 C10.1719,10.6719 9.98438,10.3542 9.60938,10.1563 C9.24479,9.95833 8.76563,9.85938 8.17188,9.85938 C8.06771,9.85938 8.01563,9.75 8.01563,9.53125 C8.01563,9.21875 8.13021,9.0625 8.35938,9.0625 C8.72396,9.0625 9.05208,8.90625 9.34375,8.59375 C9.61458,8.26042 9.75,7.90104 9.75,7.51563 C9.75,7.40104 9.71875,7.22917 9.65625,7 C9.60417,6.84375 9.44792,6.65104 9.1875,6.42188 C8.9375,6.21354 8.58854,6.07292 8.14063,6 C8.02604,6.63542 7.88021,7.44792 7.70313,8.4375 C7.52604,9.42708 7.40625,10.0781 7.34375,10.3906 C7.125,11.5156 6.72396,12.4583 6.14063,13.2188 C5.52604,14.0313 4.86458,14.4375 4.15625,14.4375 C3.9375,14.4375 3.71354,14.3854 3.48438,14.2813 C3.29688,14.1979 3.0625,14.0365 2.78125,13.7969 C2.52083,13.5885 2.34375,13.4479 2.25,13.375 C2.19792,13.3438 2.17188,13.2865 2.17188,13.2031 C2.17188,13.0781 2.21875,12.9635 2.3125,12.8594 C2.41667,12.7344 2.52604,12.6719 2.64063,12.6719 C2.71354,12.6719 2.89323,12.7969 3.17969,13.0469 C3.46615,13.2969 3.76563,13.4219 4.07813,13.4219 C4.68229,13.4219 5.13542,13.0365 5.4375,12.2656 C5.71875,11.526 5.85938,10.6094 5.85938,9.51563 L5.85938,9.35938 C5.85938,8.63021 5.97917,7.54167 6.21875,6.09375 C5.80208,6.22917 5.46875,6.42708 5.21875,6.6875 C4.95833,6.94792 4.82813,7.21875 4.82813,7.5 C4.82813,7.71875 4.91146,7.90625 5.07813,8.0625 C5.24479,8.21875 5.32813,8.36458 5.32813,8.5 M1.40625,2.39063 C1.46875,2.39063 1.625,2.45313 1.875,2.57813 C2.13542,2.71354 2.35938,2.78125 2.54688,2.78125 C3.03646,2.78125 3.64063,2.42188 4.35938,1.70313 C6.43229,-0.411458 7.85938,-2.65104 8.64063,-5.01563 C8.79688,-5.51563 9.17708,-5.76563 9.78125,-5.76563 C10.0938,-5.76563 10.3646,-5.69792 10.5938,-5.5625 C10.8125,-5.42708 10.9219,-5.28646 10.9219,-5.14063 L10.5625,2.17188 C10.5625,2.55729 10.7031,2.75 10.9844,2.75 C11.1198,2.75 11.3281,2.6875 11.6094,2.5625 C11.8698,2.42708 12.026,2.35938 12.0781,2.35938 C12.1823,2.35938 12.2448,2.47396 12.2656,2.70313 C12.2656,2.91146 12.1823,3.04167 12.0156,3.09375 C11.8802,3.125 11.6198,3.24479 11.2344,3.45313 C10.8281,3.66146 10.5104,3.76563 10.2813,3.76563 C9.78125,3.76563 9.42708,3.375 9.21875,2.59375 C8.89583,1.375 8.6875,0.104167 8.59375,-1.21875 C8.07292,-0.552083 7.49479,0.119792 6.85938,0.796875 C7.08854,1.24479 7.51563,1.46875 8.14063,1.46875 C8.23438,1.46875 8.30729,1.46354 8.35938,1.45313 L8.375,1.45313 C8.47917,1.45313 8.53125,1.54688 8.53125,1.73438 C8.53125,1.98438 8.44792,2.13542 8.28125,2.1875 C8.01042,2.28125 7.72396,2.32813 7.42188,2.32813 C6.77604,2.32813 6.30729,2.10417 6.01563,1.65625 L5.23438,2.35938 C4.14063,3.29688 3.25,3.76563 2.5625,3.76563 C2.375,3.76563 2.1875,3.73438 2,3.67188 C1.84375,3.60938 1.66146,3.51042 1.45313,3.375 C1.36979,3.34375 1.27865,3.29688 1.17969,3.23438 C1.08073,3.17188 1.02083,3.13542 1,3.125 C0.9375,3.10417 0.90625,3.04688 0.90625,2.95313 C0.90625,2.84896 0.958333,2.72396 1.0625,2.57813 C1.14583,2.45313 1.26042,2.39063 1.40625,2.39063 M5.76563,-10.7969 C5.76563,-10.474 5.48438,-10.3125 4.92188,-10.3125 C4.43229,-10.3125 4.00521,-10.474 3.64063,-10.7969 C3.28646,-11.1302 3.10938,-11.5313 3.10938,-12 C3.10938,-12.4479 3.25,-12.8385 3.53125,-13.1719 C3.83333,-13.5052 4.21875,-13.7552 4.6875,-13.9219 C5.11458,-14.0781 5.59896,-14.2031 6.14063,-14.2969 C6.69271,-14.3594 7.22396,-14.3906 7.73438,-14.3906 C8.03646,-14.3906 8.59896,-14.2552 9.42188,-13.9844 C10.2552,-13.7135 10.8333,-13.5781 11.1563,-13.5781 C11.5625,-13.5781 11.9479,-13.651 12.3125,-13.7969 C12.6042,-13.9219 12.8906,-14.0677 13.1719,-14.2344 C13.3906,-14.3802 13.5104,-14.4531 13.5313,-14.4531 C13.6563,-14.4531 13.7604,-14.4167 13.8438,-14.3438 C13.9479,-14.2396 14,-14.151 14,-14.0781 C14,-13.9948 13.8802,-13.849 13.6406,-13.6406 C13.3802,-13.401 13.0078,-13.1641 12.5234,-12.9297 C12.0391,-12.6953 11.5313,-12.5781 11,-12.5781 C10.7604,-12.5781 10.4688,-12.6198 10.125,-12.7031 C9.89583,-11.2552 9.66146,-9.96875 9.42188,-8.84375 C9.21354,-7.85417 8.79688,-6.98958 8.17188,-6.25 C7.56771,-5.51042 6.89583,-5.14063 6.15625,-5.14063 C5.85417,-5.14063 5.58854,-5.19792 5.35938,-5.3125 C5.09896,-5.44792 4.82292,-5.64583 4.53125,-5.90625 C4.30208,-6.09375 4.08333,-6.26563 3.875,-6.42188 C3.82292,-6.46354 3.79688,-6.52604 3.79688,-6.60938 C3.79688,-6.69271 3.84896,-6.80729 3.95313,-6.95313 C4.05729,-7.06771 4.15104,-7.125 4.23438,-7.125 C4.31771,-7.125 4.54167,-6.96354 4.90625,-6.64063 C5.27083,-6.31771 5.59375,-6.15625 5.875,-6.15625 C6.39583,-6.15625 6.80208,-6.45313 7.09375,-7.04688 C7.375,-7.64063 7.53646,-8.34375 7.57813,-9.15625 C7.64063,-10.5 7.79167,-11.8906 8.03125,-13.3281 C7.73958,-13.3906 7.52604,-13.4219 7.39063,-13.4219 C6.76563,-13.4219 6.22917,-13.2917 5.78125,-13.0313 C5.34375,-12.7813 5.125,-12.4427 5.125,-12.0156 C5.125,-11.7031 5.22917,-11.4635 5.4375,-11.2969 C5.65625,-11.1094 5.76563,-10.9427 5.76563,-10.7969"/>
<path class="Clef" transform="matrix(0.9936,0,0,0.9936,32.0544,77.76)" d="M7.34375,-5.125 C7.34375,-5.125 7.38542,-5.125 7.46875,-5.125 C7.52083,-5.13542 7.5625,-5.14063 7.59375,-5.14063 C9.05208,-5.14063 10.25,-4.625 11.1875,-3.59375 C12.125,-2.58333 12.5938,-1.40104 12.5938,-0.046875 C12.5938,1.64063 11.901,3.01042 10.5156,4.0625 C10.151,4.35417 9.67188,4.58854 9.07813,4.76563 C9.15104,5.60938 9.1875,6.29167 9.1875,6.8125 C9.1875,6.91667 9.17188,7.29688 9.14063,7.95313 C9.08854,9.16146 8.67188,10.2083 7.89063,11.0938 C7.14063,11.9688 6.20313,12.4063 5.07813,12.4063 C4.02604,12.4063 3.13021,12.0365 2.39063,11.2969 C1.64063,10.5365 1.26563,9.625 1.26563,8.5625 C1.26563,8 1.48438,7.52083 1.92188,7.125 C2.35938,6.73958 2.86979,6.54688 3.45313,6.54688 C3.97396,6.54688 4.41146,6.75 4.76563,7.15625 C5.13021,7.53125 5.3125,8 5.3125,8.5625 C5.3125,9.0625 5.13021,9.49479 4.76563,9.85938 C4.40104,10.224 3.96354,10.4063 3.45313,10.4063 C3.24479,10.4063 3.04688,10.3698 2.85938,10.2969 C3.43229,11.1406 4.19271,11.5625 5.14063,11.5625 C6.03646,11.5625 6.77083,11.1979 7.34375,10.4688 C7.94792,9.71875 8.27604,8.83854 8.32813,7.82813 C8.34896,7.20313 8.35938,6.84896 8.35938,6.76563 C8.35938,6.03646 8.33333,5.4375 8.28125,4.96875 C7.63542,5.07292 7.05729,5.125 6.54688,5.125 C4.73438,5.125 3.19271,4.40625 1.92188,2.96875 C0.671875,1.52083 0.046875,-0.197917 0.046875,-2.1875 C0.046875,-2.60417 0.0833333,-3.02604 0.15625,-3.45313 C0.239583,-3.80729 0.338542,-4.19271 0.453125,-4.60938 C0.515625,-4.84896 0.692708,-5.22917 0.984375,-5.75 C1.08854,-5.90625 1.20573,-6.10156 1.33594,-6.33594 C1.46615,-6.57031 1.55729,-6.72396 1.60938,-6.79688 C1.73438,-7.05729 1.98438,-7.41146 2.35938,-7.85938 C2.46354,-7.97396 2.57292,-8.10156 2.6875,-8.24219 C2.80208,-8.38281 2.89844,-8.5 2.97656,-8.59375 C3.05469,-8.6875 3.11198,-8.76042 3.14844,-8.8125 C3.1849,-8.86458 3.47917,-9.20833 4.03125,-9.84375 C4.15625,-9.97917 4.28125,-10.1198 4.40625,-10.2656 C4.53125,-10.4115 4.63281,-10.5286 4.71094,-10.6172 C4.78906,-10.7057 4.84896,-10.7656 4.89063,-10.7969 C4.42188,-12.349 4.125,-13.5885 4,-14.5156 C3.91667,-15.2552 3.875,-16.2708 3.875,-17.5625 C3.875,-18.6979 4.13542,-19.7604 4.65625,-20.75 C5.15625,-21.7708 5.86458,-22.6094 6.78125,-23.2656 C6.84375,-23.3073 6.90625,-23.3281 6.96875,-23.3281 C7.0625,-23.3281 7.13021,-23.3073 7.17188,-23.2656 C7.86979,-22.4219 8.47396,-21.3229 8.98438,-19.9688 C9.50521,-18.6146 9.76563,-17.3802 9.76563,-16.2656 C9.76563,-15.0156 9.46875,-13.8438 8.875,-12.75 C8.19792,-11.5938 7.32292,-10.3958 6.25,-9.15625 C6.52083,-8.30208 6.88542,-6.95833 7.34375,-5.125 M9,3.96875 C9.67708,3.71875 10.2083,3.29688 10.5938,2.70313 C11.0104,2.13021 11.2188,1.48438 11.2188,0.765625 C11.2188,-0.161458 10.9063,-0.984375 10.2813,-1.70313 C9.63542,-2.44271 8.81771,-2.85938 7.82813,-2.95313 C8.39063,-0.203125 8.78125,2.10417 9,3.96875 M1.45313,-0.546875 C1.45313,0.744792 1.97396,1.88021 3.01563,2.85938 C4.07813,3.80729 5.27604,4.28125 6.60938,4.28125 C7.15104,4.28125 7.68229,4.23958 8.20313,4.15625 C7.99479,2.17708 7.58333,-0.192708 6.96875,-2.95313 C6.22917,-2.86979 5.64063,-2.60938 5.20313,-2.17188 C4.76563,-1.71354 4.54688,-1.19792 4.54688,-0.625 C4.54688,0.364583 5.07813,1.16667 6.14063,1.78125 C6.22396,1.875 6.26563,1.97396 6.26563,2.07813 C6.26563,2.18229 6.22396,2.27604 6.14063,2.35938 C6.05729,2.45313 5.95833,2.5 5.84375,2.5 C5.83333,2.5 5.77604,2.48958 5.67188,2.46875 C4.92188,2.0625 4.34896,1.54167 3.95313,0.90625 C3.56771,0.21875 3.375,-0.46875 3.375,-1.15625 C3.375,-2.05208 3.65625,-2.86458 4.21875,-3.59375 C4.80208,-4.32292 5.5625,-4.79167 6.5,-5 C6.13542,-6.45833 5.83854,-7.59896 5.60938,-8.42188 C5.40104,-8.18229 5.15104,-7.89844 4.85938,-7.57031 C4.56771,-7.24219 4.39583,-7.04167 4.34375,-6.96875 C3.875,-6.36458 3.51563,-5.89063 3.26563,-5.54688 C2.81771,-4.93229 2.48958,-4.40625 2.28125,-3.96875 C2.0625,-3.46875 1.86979,-2.92708 1.70313,-2.34375 C1.53646,-1.78125 1.45313,-1.18229 1.45313,-0.546875 M7.96875,-20.4063 C6.98958,-19.9271 6.22396,-19.2396 5.67188,-18.3438 C5.09896,-17.4167 4.8125,-16.4219 4.8125,-15.3594 C4.8125,-14.4219 5.04688,-13.1563 5.51563,-11.5625 C6.45313,-12.6979 7.15625,-13.7448 7.625,-14.7031 C8.11458,-15.724 8.35938,-16.7865 8.35938,-17.8906 C8.35938,-18.724 8.22917,-19.5625 7.96875,-20.4063 M5.82813,15.2344 C6.16146,14.901 6.32813,14.5625 6.32813,14.2188 C6.30729,13.9479 6.19271,13.7396 5.98438,13.5938 C5.74479,13.4375 5.46875,13.3594 5.15625,13.3594 C4.9375,13.3594 4.75521,13.4323 4.60938,13.5781 C4.48438,13.7031 4.42188,13.8646 4.42188,14.0625 C4.42188,14.3021 4.51563,14.4792 4.70313,14.5938 L5.82813,15.2344 M6.14063,15.4063 C6.68229,15.7083 6.95313,16.1146 6.95313,16.625 L6.95313,16.6875 C6.95313,17.0833 6.79167,17.4219 6.46875,17.7031 C6.14583,17.9844 5.68229,18.125 5.07813,18.125 C4.58854,18.125 4.16146,17.9948 3.79688,17.7344 C3.43229,17.4844 3.25,17.1458 3.25,16.7188 C3.25,16.5521 3.29167,16.3958 3.375,16.25 C3.47917,16.0833 3.56771,15.9688 3.64063,15.9063 L4,15.5313 C3.60417,15.2604 3.40625,14.901 3.40625,14.4531 C3.40625,14.099 3.5625,13.7865 3.875,13.5156 C4.19792,13.2552 4.625,13.125 5.15625,13.125 C5.60417,13.125 5.98438,13.224 6.29688,13.4219 C6.60938,13.6198 6.76563,13.8854 6.76563,14.2188 C6.76563,14.5729 6.55729,14.9688 6.14063,15.4063 M4.29688,15.7031 C3.91146,16.0469 3.70313,16.3854 3.67188,16.7188 C3.70313,17.0729 3.84896,17.3542 4.10938,17.5625 C4.39063,17.7813 4.71354,17.8906 5.07813,17.8906 C5.33854,17.8906 5.54688,17.8073 5.70313,17.6406 C5.85938,17.4844 5.9375,17.2969 5.9375,17.0781 C5.92708,16.7865 5.8125,16.5781 5.59375,16.4531 L4.29688,15.7031 "/>
<path class="KeySig" transform="matrix(0.9936,0,0,0.9936,54.3173,70.308)" d="M4.3125,6.23438 C4.3125,6.48438 4.1901,6.60938 3.94531,6.60938 C3.70052,6.60938 3.57813,6.48438 3.57813,6.23438 L3.57813,3.34375 L1.92188,3.96875 L1.92188,7.125 C1.92188,7.375 1.79688,7.5 1.54688,7.5 C1.29688,7.5 1.17188,7.375 1.17188,7.125 L1.17188,4.21875 L0.546875,4.45313 C0.536458,4.46354 0.484375,4.46875 0.390625,4.46875 C0.286458,4.46875 0.195313,4.42969 0.117188,4.35156 C0.0390625,4.27344 0,4.18229 0,4.07813 L0,2.875 C0,2.67708 0.0833333,2.55208 0.25,2.5 L1.17188,2.1875 L1.17188,-1.01563 L0.546875,-0.796875 C0.536458,-0.786458 0.484375,-0.78125 0.390625,-0.78125 C0.286458,-0.78125 0.195313,-0.820313 0.117188,-0.898438 C0.0390625,-0.976563 0,-1.06771 0,-1.17188 L0,-2.39063 C0,-2.56771 0.0833333,-2.68229 0.25,-2.73438 L1.17188,-3.09375 L1.17188,-6.23438 C1.17188,-6.48438 1.29688,-6.60938 1.54688,-6.60938 C1.79688,-6.60938 1.92188,-6.48438 1.92188,-6.23438 L1.92188,-3.34375 L3.57813,-3.96875 L3.57813,-7.125 C3.57813,-7.375 3.70052,-7.5 3.94531,-7.5 C4.1901,-7.5 4.3125,-7.375 4.3125,-7.125 L4.3125,-4.21875 L4.96875,-4.45313 C4.97917,-4.46354 5.02083,-4.46875 5.09375,-4.46875 C5.1875,-4.46875 5.28646,-4.43229 5.39063,-4.35938 C5.47396,-4.27604 5.51563,-4.18229 5.51563,-4.07813 L5.51563,-2.875 C5.51563,-2.6875 5.42188,-2.5625 5.23438,-2.5 L4.3125,-2.1875 L4.3125,1.01563 L4.96875,0.796875 C4.97917,0.786458 5.02083,0.78125 5.09375,0.78125 C5.1875,0.78125 5.28646,0.822917 5.39063,0.90625 C5.47396,0.979167 5.51563,1.06771 5.51563,1.17188 L5.51563,2.39063 C5.51563,2.55729 5.42188,2.67188 5.23438,2.73438 L4.3125,3.09375 L4.3125,6.23438 M3.57813,-1.89063 L1.92188,-1.3125 L1.92188,1.89063 L3.57813,1.3125 L3.57813,-1.89063 "/>
<path class="KeySig" transform="matrix(0.9936,0,0,0.9936,49.3492,62.856)" d="M4.3125,6.23438 C4.3125,6.48438 4.1901,6.60938 3.94531,6.60938 C3.70052,6.60938 3.57813,6.48438 3.57813,6.23438 L3.57813,3.34375 L1.92188,3.96875 L1.92188,7.125 C1.92188,7.375 1.79688,7.5 1.54688,7.5 C1.29688,7.5 1.17188,7.375 1.17188,7.125 L1.17188,4.21875 L0.546875,4.45313 C0.536458,4.46354 0.484375,4.46875 0.390625,4.46875 C0.286458,4.46875 0.195313,4.42969 0.117188,4.35156 C0.0390625,4.27344 0,4.18229 0,4.07813 L0,2.875 C0,2.67708 0.0833333,2.55208 0.25,2.5 L1.17188,2.1875 L1.17188,-1.01563 L0.546875,-0.796875 C0.536458,-0.786458 0.484375,-0.78125 0.390625,-0.78125 C0.286458,-0.78125 0.195313,-0.820313 0.117188,-0.898438 C0.0390625,-0.976563 0,-1.06771 0,-1.17188 L0,-2.39063 C0,-2.56771 0.0833333,-2.68229 0.25,-2.73438 L1.17188,-3.09375 L1.17188,-6.23438 C1.17188,-6.48438 1.29688,-6.60938 1.54688,-6.60938 C1.79688,-6.60938 1.92188,-6.48438 1.92188,-6.23438 L1.92188,-3.34375 L3.57813,-3.96875 L3.57813,-7.125 C3.57813,-7.375 3.70052,-7.5 3.94531,-7.5 C4.1901,-7.5 4.3125,-7.375 4.3125,-7.125 L4.3125,-4.21875 L4.96875,-4.45313 C4.97917,-4.46354 5.02083,-4.46875 5.09375,-4.46875 C5.1875,-4.46875 5.28646,-4.43229 5.39063,-4.35938 C5.47396,-4.27604 5.51563,-4.18229 5.51563,-4.07813 L5.51563,-2.875 C5.51563,-2.6875 5.42188,-2.5625 5.23438,-2.5 L4.3125,-2.1875 L4.3125,1.01563 L4.96875,0.796875 C4.97917,0.786458 5.02083,0.78125 5.09375,0.78125 C5.1875,0.78125 5.28646,0.822917 5.39063,0.90625 C5.47396,0.979167 5.51563,1.06771 5.51563,1.17188 L5.51563,2.39063 C5.51563,2.55729 5.42188,2.67188 5.23438,2.73438 L4.3125,3.09375 L4.3125,6.23438 M3.57813,-1.89063 L1.92188,-1.3125 L1.92188,1.89063 L3.57813,1.3125 L3.57813,-1.89063 "/>
<path class="Fingering" d="M507.105,87.8214 C506.512,87.8214 506.048,87.5141 505.715,86.8995 C505.434,86.3995 505.293,85.7745 505.293,85.0245 C505.293,84.1287 505.501,83.4255 505.918,82.9151 C506.251,82.5193 506.658,82.3162 507.137,82.3057 C507.699,82.3057 508.142,82.5922 508.465,83.1651 C508.767,83.6755 508.918,84.311 508.918,85.0714 C508.918,86.0401 508.694,86.7797 508.246,87.2901 C507.923,87.6443 507.543,87.8214 507.105,87.8214 M507.105,82.5089 C506.46,82.5089 506.111,83.2797 506.059,84.8214 C506.059,84.9151 506.059,85.0089 506.059,85.1026 C506.069,86.7693 506.418,87.6078 507.105,87.6182 C507.793,87.6078 508.137,86.7641 508.137,85.087 C508.137,83.5662 507.866,82.7172 507.324,82.5401 C507.251,82.5193 507.178,82.5089 507.105,82.5089"/>
<path class="Fingering" d="M475.3,80.4936 C475.186,80.4936 474.993,80.5509 474.722,80.6655 L474.722,80.5561 L476.16,79.8217 L476.222,79.8374 L476.222,84.6342 C476.222,84.8426 476.285,84.978 476.41,85.0405 C476.514,85.0822 476.707,85.103 476.988,85.103 L476.988,85.228 L474.769,85.228 L474.769,85.103 C475.123,85.0926 475.347,85.0301 475.441,84.9155 C475.503,84.8217 475.535,84.6759 475.535,84.478 L475.535,80.8686 C475.524,80.6186 475.446,80.4936 475.3,80.4936"/>
<path class="Fingering" d="M443.019,82.119 C443.144,82.119 443.326,82.1867 443.566,82.3221 C443.816,82.4784 444.029,82.5565 444.206,82.5565 C444.571,82.5565 444.857,82.395 445.066,82.0721 C445.191,81.8638 445.253,81.6294 445.253,81.369 C445.253,80.6086 444.8,80.1919 443.894,80.119 C443.8,80.1086 443.701,80.1034 443.597,80.1034 L443.597,79.994 C444.201,79.7961 444.597,79.5409 444.785,79.2284 C444.878,79.0617 444.925,78.8794 444.925,78.6815 C444.925,78.3273 444.779,78.0721 444.488,77.9159 C444.352,77.8534 444.206,77.8221 444.05,77.8221 C443.602,77.8221 443.232,78.0565 442.941,78.5252 C442.91,78.5669 442.883,78.6138 442.863,78.6659 L442.738,78.6346 C442.988,77.9575 443.352,77.5461 443.831,77.4002 C443.977,77.3586 444.139,77.3377 444.316,77.3377 C444.795,77.3377 445.149,77.5044 445.378,77.8377 C445.503,78.0148 445.566,78.2127 445.566,78.4315 C445.566,78.7544 445.415,79.0461 445.113,79.3065 C445.019,79.3794 444.92,79.4575 444.816,79.5409 C445.295,79.7492 445.602,80.0357 445.738,80.4002 C445.8,80.5773 445.831,80.7752 445.831,80.994 C445.831,81.6294 445.566,82.1242 445.035,82.4784 C444.639,82.7284 444.17,82.8534 443.628,82.8534 C443.139,82.8534 442.847,82.744 442.753,82.5252 C442.732,82.4836 442.722,82.4419 442.722,82.4002 C442.722,82.244 442.8,82.1555 442.956,82.1346 C442.977,82.1242 442.998,82.119 443.019,82.119"/>
<path class="Fingering" d="M414.706,78.4475 L414.706,78.9319 L413.878,78.9319 L413.878,80.26 L413.269,80.26 L413.269,78.9319 L411.019,78.9319 L411.019,78.4475 L413.534,74.8537 L413.878,74.8537 L413.878,78.4475 L414.706,78.4475 M413.253,78.4475 L413.253,75.6975 L411.347,78.4475 L413.253,78.4475 "/>
<path class="Fingering" d="M380.941,73.0416 C380.826,73.0416 380.633,73.0989 380.362,73.2135 L380.362,73.1041 L381.8,72.3697 L381.862,72.3854 L381.862,77.1822 C381.862,77.3906 381.925,77.526 382.05,77.5885 C382.154,77.6302 382.347,77.651 382.628,77.651 L382.628,77.776 L380.409,77.776 L380.409,77.651 C380.763,77.6406 380.987,77.5781 381.081,77.4635 C381.144,77.3697 381.175,77.2239 381.175,77.026 L381.175,73.4166 C381.165,73.1666 381.086,73.0416 380.941,73.0416"/>
<path class="Fingering" d="M348.659,74.667 C348.784,74.667 348.966,74.7347 349.206,74.8701 C349.456,75.0264 349.67,75.1045 349.847,75.1045 C350.211,75.1045 350.498,74.943 350.706,74.6201 C350.831,74.4118 350.894,74.1774 350.894,73.917 C350.894,73.1566 350.44,72.7399 349.534,72.667 C349.44,72.6566 349.341,72.6514 349.237,72.6514 L349.237,72.542 C349.841,72.3441 350.237,72.0889 350.425,71.7764 C350.519,71.6097 350.565,71.4274 350.565,71.2295 C350.565,70.8753 350.42,70.6201 350.128,70.4639 C349.993,70.4014 349.847,70.3701 349.69,70.3701 C349.243,70.3701 348.873,70.6045 348.581,71.0733 C348.55,71.1149 348.524,71.1618 348.503,71.2139 L348.378,71.1826 C348.628,70.5055 348.993,70.0941 349.472,69.9483 C349.618,69.9066 349.779,69.8858 349.956,69.8858 C350.435,69.8858 350.789,70.0524 351.019,70.3858 C351.144,70.5628 351.206,70.7608 351.206,70.9795 C351.206,71.3024 351.055,71.5941 350.753,71.8545 C350.659,71.9274 350.56,72.0055 350.456,72.0889 C350.935,72.2972 351.243,72.5837 351.378,72.9483 C351.44,73.1253 351.472,73.3233 351.472,73.542 C351.472,74.1774 351.206,74.6722 350.675,75.0264 C350.279,75.2764 349.81,75.4014 349.269,75.4014 C348.779,75.4014 348.487,75.292 348.394,75.0733 C348.373,75.0316 348.362,74.9899 348.362,74.9483 C348.362,74.792 348.44,74.7035 348.597,74.6826 C348.618,74.6722 348.638,74.667 348.659,74.667"/>
<path class="Fingering" d="M318.034,68.0736 C317.92,68.0736 317.727,68.1309 317.456,68.2455 L317.456,68.1361 L318.893,67.4017 L318.956,67.4174 L318.956,72.2142 C318.956,72.4226 319.018,72.558 319.143,72.6205 C319.248,72.6622 319.44,72.683 319.722,72.683 L319.722,72.808 L317.503,72.808 L317.503,72.683 C317.857,72.6726 318.081,72.6101 318.175,72.4955 C318.237,72.4017 318.268,72.2559 318.268,72.058 L318.268,68.4486 C318.258,68.1986 318.18,68.0736 318.034,68.0736"/>
<path class="Fingering" d="M285.362,66.5115 C285.602,65.4907 286.128,64.9646 286.94,64.9334 C286.971,64.9334 286.998,64.9334 287.018,64.9334 C287.508,64.9334 287.899,65.1105 288.19,65.4646 C288.399,65.725 288.503,66.0167 288.503,66.3396 C288.503,66.9334 288.185,67.574 287.55,68.2615 C287.529,68.2823 287.503,68.3032 287.471,68.324 L286.143,69.7459 L288.05,69.7459 C288.258,69.7459 288.419,69.6886 288.534,69.574 C288.607,69.5011 288.695,69.3813 288.8,69.2146 L288.909,69.2459 L288.471,70.324 L285.346,70.324 L285.346,70.2302 L286.768,68.7146 C287.445,67.975 287.794,67.2823 287.815,66.6365 C287.815,66.1886 287.643,65.8657 287.3,65.6677 C287.123,65.5636 286.919,65.5115 286.69,65.5115 C286.336,65.5115 286.06,65.6469 285.862,65.9177 C285.748,66.074 285.638,66.2875 285.534,66.5584 L285.362,66.5115 "/>
<path class="Fingering" d="M255.128,68.0736 C255.013,68.0736 254.82,68.1309 254.549,68.2455 L254.549,68.1361 L255.987,67.4017 L256.049,67.4174 L256.049,72.2142 C256.049,72.4226 256.112,72.558 256.237,72.6205 C256.341,72.6622 256.534,72.683 256.815,72.683 L256.815,72.808 L254.596,72.808 L254.596,72.683 C254.951,72.6726 255.174,72.6101 255.268,72.4955 C255.331,72.4017 255.362,72.2559 255.362,72.058 L255.362,68.4486 C255.352,68.1986 255.273,68.0736 255.128,68.0736"/>
<path class="Fingering" d="M222.846,74.667 C222.971,74.667 223.154,74.7347 223.393,74.8701 C223.643,75.0264 223.857,75.1045 224.034,75.1045 C224.398,75.1045 224.685,74.943 224.893,74.6201 C225.018,74.4118 225.081,74.1774 225.081,73.917 C225.081,73.1566 224.628,72.7399 223.721,72.667 C223.628,72.6566 223.529,72.6514 223.424,72.6514 L223.424,72.542 C224.029,72.3441 224.424,72.0889 224.612,71.7764 C224.706,71.6097 224.753,71.4274 224.753,71.2295 C224.753,70.8753 224.607,70.6201 224.315,70.4639 C224.18,70.4014 224.034,70.3701 223.878,70.3701 C223.43,70.3701 223.06,70.6045 222.768,71.0733 C222.737,71.1149 222.711,71.1618 222.69,71.2139 L222.565,71.1826 C222.815,70.5055 223.18,70.0941 223.659,69.9483 C223.805,69.9066 223.966,69.8858 224.143,69.8858 C224.622,69.8858 224.976,70.0524 225.206,70.3858 C225.331,70.5628 225.393,70.7608 225.393,70.9795 C225.393,71.3024 225.242,71.5941 224.94,71.8545 C224.846,71.9274 224.747,72.0055 224.643,72.0889 C225.122,72.2972 225.43,72.5837 225.565,72.9483 C225.628,73.1253 225.659,73.3233 225.659,73.542 C225.659,74.1774 225.393,74.6722 224.862,75.0264 C224.466,75.2764 223.997,75.4014 223.456,75.4014 C222.966,75.4014 222.674,75.292 222.581,75.0733 C222.56,75.0316 222.549,74.9899 222.549,74.9483 C222.549,74.792 222.628,74.7035 222.784,74.6826 C222.805,74.6722 222.825,74.667 222.846,74.667"/>
<path class="Fingering" d="M192.221,73.0416 C192.107,73.0416 191.914,73.0989 191.643,73.2135 L191.643,73.1041 L193.081,72.3697 L193.143,72.3854 L193.143,77.1822 C193.143,77.3906 193.206,77.526 193.331,77.5885 C193.435,77.6302 193.627,77.651 193.909,77.651 L193.909,77.776 L191.69,77.776 L191.69,77.651 C192.044,77.6406 192.268,77.5781 192.362,77.4635 C192.424,77.3697 192.456,77.2239 192.456,77.026 L192.456,73.4166 C192.445,73.1666 192.367,73.0416 192.221,73.0416"/>
<path class="Fingering" d="M163.08,78.4475 L163.08,78.9319 L162.252,78.9319 L162.252,80.26 L161.643,80.26 L161.643,78.9319 L159.393,78.9319 L159.393,78.4475 L161.909,74.8537 L162.252,74.8537 L162.252,78.4475 L163.08,78.4475 M161.627,78.4475 L161.627,75.6975 L159.721,78.4475 L161.627,78.4475 "/>
<path class="Fingering" d="M128.487,82.119 C128.612,82.119 128.794,82.1867 129.033,82.3221 C129.283,82.4784 129.497,82.5565 129.674,82.5565 C130.039,82.5565 130.325,82.395 130.533,82.0721 C130.658,81.8638 130.721,81.6294 130.721,81.369 C130.721,80.6086 130.268,80.1919 129.362,80.119 C129.268,80.1086 129.169,80.1034 129.065,80.1034 L129.065,79.994 C129.669,79.7961 130.065,79.5409 130.252,79.2284 C130.346,79.0617 130.393,78.8794 130.393,78.6815 C130.393,78.3273 130.247,78.0721 129.955,77.9159 C129.82,77.8534 129.674,77.8221 129.518,77.8221 C129.07,77.8221 128.7,78.0565 128.408,78.5252 C128.377,78.5669 128.351,78.6138 128.33,78.6659 L128.205,78.6346 C128.455,77.9575 128.82,77.5461 129.299,77.4002 C129.445,77.3586 129.606,77.3377 129.783,77.3377 C130.263,77.3377 130.617,77.5044 130.846,77.8377 C130.971,78.0148 131.033,78.2127 131.033,78.4315 C131.033,78.7544 130.882,79.0461 130.58,79.3065 C130.487,79.3794 130.388,79.4575 130.283,79.5409 C130.763,79.7492 131.07,80.0357 131.205,80.4002 C131.268,80.5773 131.299,80.7752 131.299,80.994 C131.299,81.6294 131.033,82.1242 130.502,82.4784 C130.106,82.7284 129.638,82.8534 129.096,82.8534 C128.606,82.8534 128.315,82.744 128.221,82.5252 C128.2,82.4836 128.19,82.4419 128.19,82.4002 C128.19,82.244 128.268,82.1555 128.424,82.1346 C128.445,82.1242 128.466,82.119 128.487,82.119"/>
<path class="Fingering" d="M97.8615,80.4936 C97.7469,80.4936 97.5542,80.5509 97.2833,80.6655 L97.2833,80.5561 L98.7208,79.8217 L98.7833,79.8374 L98.7833,84.6342 C98.7833,84.8426 98.8458,84.978 98.9708,85.0405 C99.075,85.0822 99.2677,85.103 99.549,85.103 L99.549,85.228 L97.3302,85.228 L97.3302,85.103 C97.6844,85.0926 97.9083,85.0301 98.0021,84.9155 C98.0646,84.8217 98.0958,84.6759 98.0958,84.478 L98.0958,80.8686 C98.0854,80.6186 98.0073,80.4936 97.8615,80.4936"/>
<path class="Fingering" d="M66.9395,87.8214 C66.3457,87.8214 65.8822,87.5141 65.5488,86.8995 C65.2676,86.3995 65.127,85.7745 65.127,85.0245 C65.127,84.1287 65.3353,83.4255 65.752,82.9151 C66.0853,82.5193 66.4916,82.3162 66.9707,82.3057 C67.5332,82.3057 67.9759,82.5922 68.2988,83.1651 C68.6009,83.6755 68.752,84.311 68.752,85.0714 C68.752,86.0401 68.528,86.7797 68.0801,87.2901 C67.7572,87.6443 67.377,87.8214 66.9395,87.8214 M66.9395,82.5089 C66.2936,82.5089 65.9447,83.2797 65.8926,84.8214 C65.8926,84.9151 65.8926,85.0089 65.8926,85.1026 C65.903,86.7693 66.252,87.6078 66.9395,87.6182 C67.627,87.6078 67.9707,86.7641 67.9707,85.087 C67.9707,83.5662 67.6999,82.7172 67.1582,82.5401 C67.0853,82.5193 67.0124,82.5089 66.9395,82.5089"/>
<path class="Tempo" d="M65.1801,40.4371 C64.9769,40.2809 64.7269,40.1871 64.4144,40.1871 C63.2269,40.1871 62.2738,41.0621 62.2738,41.9996 C62.2738,42.5621 62.7269,42.9059 63.3207,42.9059 C64.2738,42.9059 65.4613,41.9996 65.4613,41.0934 L65.4613,34.9527 L65.1801,34.9527 L65.1801,40.4371 "/>
<path class="Tempo" d="M75.8207,39.0152 L69.2113,39.0152 L69.2113,37.859 L75.8207,37.859 L75.8207,39.0152 M75.8207,41.9371 L69.2113,41.9371 L69.2113,40.7965 L75.8207,40.7965 L75.8207,41.9371 M81.2582,36.0465 C81.1332,36.0465 80.8155,36.1402 80.3051,36.3277 C80.2738,36.3382 80.253,36.3486 80.2426,36.359 L80.2426,36.0465 L83.2582,34.734 L83.4613,34.734 L83.4613,41.5621 C83.4613,42.0517 83.5603,42.3642 83.7582,42.4996 C83.9353,42.6246 84.2686,42.6923 84.7582,42.7027 L84.7582,42.984 L80.2582,42.984 L80.2582,42.7027 C80.9144,42.6923 81.3259,42.5882 81.4926,42.3902 C81.628,42.2236 81.6957,41.9267 81.6957,41.4996 L81.6957,36.8746 C81.6853,36.333 81.5394,36.0569 81.2582,36.0465 M85.8363,37.1715 C86.3884,35.6819 87.1644,34.8746 88.1644,34.7496 C88.2686,34.7392 88.3728,34.734 88.4769,34.734 C89.2686,34.734 89.8728,35.0205 90.2894,35.5934 C90.5603,35.9788 90.6957,36.4215 90.6957,36.9215 C90.6957,37.7861 90.2686,38.6298 89.4144,39.4527 C89.3728,39.484 89.3415,39.5152 89.3207,39.5465 L87.3832,41.3902 L89.1957,41.3902 C89.8311,41.3902 90.2374,41.333 90.4144,41.2184 C90.5811,41.1038 90.7426,40.8486 90.8988,40.4527 L91.1957,40.4527 L90.6488,42.984 L85.6644,42.984 L85.6644,42.7027 C87.3311,40.9215 88.3571,39.6455 88.7426,38.8746 C88.9509,38.4475 89.0551,38.0309 89.0551,37.6246 C89.0551,37.0934 88.8624,36.6767 88.4769,36.3746 C88.2374,36.1871 87.9561,36.0934 87.6332,36.0934 C87.0394,36.0934 86.5707,36.4215 86.2269,37.0777 C86.2061,37.109 86.1853,37.1402 86.1644,37.1715 L85.8363,37.1715 M91.7426,38.9059 C91.7426,37.5934 92.0551,36.5309 92.6801,35.7184 C93.1905,35.0725 93.7842,34.7444 94.4613,34.734 C95.2426,34.734 95.8884,35.1402 96.3988,35.9527 C96.9092,36.7652 97.1644,37.76 97.1644,38.9371 C97.1644,40.3121 96.8467,41.4059 96.2113,42.2184 C95.7113,42.8225 95.1332,43.1298 94.4769,43.1402 C93.6436,43.1402 92.9717,42.7132 92.4613,41.859 C91.9821,41.0673 91.7426,40.083 91.7426,38.9059 M94.4769,42.7965 C94.8311,42.7965 95.0655,42.4736 95.1801,41.8277 C95.2426,41.4423 95.2738,40.9423 95.2738,40.3277 L95.2738,37.5777 C95.2738,36.1402 95.0811,35.3225 94.6957,35.1246 C94.6228,35.083 94.5394,35.0621 94.4457,35.0621 C94.0811,35.0621 93.8415,35.3955 93.7269,36.0621 C93.6749,36.4371 93.6488,36.9423 93.6488,37.5777 L93.6488,40.3277 C93.6488,41.6819 93.8155,42.4736 94.1488,42.7027 C94.2426,42.7652 94.3519,42.7965 94.4769,42.7965"/>
<path class="StaffText" d="M72.5485,56.8518 L72.5485,52.4143 C72.5485,52.0289 72.4808,51.7893 72.3453,51.6956 C72.2308,51.6018 71.9756,51.5446 71.5797,51.5237 L71.5797,51.3362 L74.5485,51.3362 L74.5485,51.5237 C74.0901,51.5446 73.8089,51.6175 73.7047,51.7425 C73.611,51.8675 73.5641,52.0914 73.5641,52.4143 L73.5641,56.8518 C73.5641,57.2477 73.6422,57.4977 73.7985,57.6018 C73.9235,57.6956 74.1735,57.7477 74.5485,57.7581 L74.5485,57.9456 L71.5797,57.9456 L71.5797,57.7581 C72.0276,57.7477 72.3037,57.6748 72.4078,57.5393 C72.5016,57.4143 72.5485,57.1852 72.5485,56.8518 M75.5485,56.8518 L75.5485,52.4143 C75.5485,52.0289 75.4808,51.7893 75.3453,51.6956 C75.2308,51.6018 74.9756,51.5446 74.5797,51.5237 L74.5797,51.3362 L77.5485,51.3362 L77.5485,51.5237 C77.0901,51.5446 76.8089,51.6175 76.7047,51.7425 C76.611,51.8675 76.5641,52.0914 76.5641,52.4143 L76.5641,56.8518 C76.5641,57.2477 76.6422,57.4977 76.7985,57.6018 C76.9235,57.6956 77.1735,57.7477 77.5485,57.7581 L77.5485,57.9456 L74.5797,57.9456 L74.5797,57.7581 C75.0276,57.7477 75.3037,57.6748 75.4078,57.5393 C75.5016,57.4143 75.5485,57.1852 75.5485,56.8518"/>
<path class="StaffText" d="M75.2516,25.2106 C75.6995,25.2106 76.1995,25.3252 76.7516,25.5544 C76.9912,25.6481 77.1631,25.695 77.2672,25.695 C77.4131,25.695 77.5433,25.5856 77.6578,25.3669 C77.6683,25.3252 77.6839,25.2835 77.7047,25.2419 L77.9703,25.2419 L77.9703,27.5856 L77.7203,27.5856 C77.4495,26.9815 77.1683,26.5387 76.8766,26.2575 C76.8141,26.195 76.7568,26.1429 76.7047,26.1012 C76.2776,25.7262 75.8349,25.5387 75.3766,25.5387 C74.3766,25.5387 73.7828,26.2575 73.5953,27.695 C73.5641,28.0179 73.5485,28.3669 73.5485,28.7419 C73.5485,29.9294 73.762,30.7992 74.1891,31.3512 C74.5224,31.7679 74.9808,31.9762 75.5641,31.9762 C76.1266,31.9762 76.4443,31.7992 76.5172,31.445 C76.5276,31.3825 76.5328,31.3148 76.5328,31.2419 L76.5328,30.195 C76.5328,29.9033 76.4599,29.7158 76.3141,29.6325 C76.1683,29.5596 75.9026,29.5127 75.5172,29.4919 L75.5172,29.2419 L78.9547,29.2419 L78.9547,29.4919 C78.5485,29.5335 78.2985,29.6221 78.2047,29.7575 C78.1318,29.8721 78.0953,30.0908 78.0953,30.4137 L78.0953,31.6794 C77.5016,32.0335 76.7151,32.2419 75.736,32.3044 C75.6006,32.3044 75.4651,32.3044 75.3297,32.3044 C74.2151,32.3044 73.3245,31.945 72.6578,31.2262 C72.0641,30.5804 71.7672,29.7731 71.7672,28.8044 C71.7672,27.7627 72.111,26.8981 72.7985,26.2106 C73.4651,25.544 74.2828,25.2106 75.2516,25.2106 M83.0172,28.8356 C82.7985,28.8356 82.5849,28.7158 82.3766,28.4762 C82.262,28.3304 82.1787,28.2523 82.1266,28.2419 C81.9078,28.2419 81.7412,28.3929 81.6266,28.695 C81.5537,28.8512 81.5172,29.0179 81.5172,29.195 L81.5172,31.0856 C81.5172,31.4502 81.5901,31.6742 81.736,31.7575 C81.8297,31.82 82.0016,31.8617 82.2516,31.8825 L82.2516,32.1169 L79.611,32.1169 L79.611,31.8825 C79.8818,31.8304 80.0433,31.7367 80.0953,31.6012 C80.1162,31.5283 80.1266,31.419 80.1266,31.2731 L80.1266,28.3356 C80.1266,28.0752 80.0537,27.9085 79.9078,27.8356 C79.8349,27.794 79.736,27.7627 79.611,27.7419 L79.611,27.5075 L81.486,27.5075 L81.486,28.3356 C81.861,27.7835 82.2308,27.4762 82.5953,27.4137 C82.6787,27.3929 82.7568,27.3825 82.8297,27.3825 C83.1735,27.3825 83.4183,27.5231 83.5641,27.8044 C83.6162,27.919 83.6422,28.0387 83.6422,28.1637 C83.6422,28.4762 83.5172,28.6846 83.2672,28.7887 C83.1839,28.82 83.1006,28.8356 83.0172,28.8356 M84.8922,28.0856 C84.8922,28.1169 84.9443,28.2106 85.0485,28.3669 C85.1422,28.5127 85.1891,28.6377 85.1891,28.7419 C85.1891,29.0023 85.0589,29.1794 84.7985,29.2731 C84.7047,29.3044 84.611,29.32 84.5172,29.32 C84.1526,29.32 83.9391,29.1585 83.8766,28.8356 C83.8662,28.7731 83.861,28.7158 83.861,28.6637 C83.861,28.195 84.1162,27.846 84.6266,27.6169 C84.9495,27.4606 85.3245,27.3825 85.7516,27.3825 C86.6266,27.3825 87.2256,27.6221 87.5485,28.1012 C87.6735,28.2992 87.736,28.5231 87.736,28.7731 L87.736,31.3512 C87.7464,31.5075 87.8141,31.5908 87.9391,31.6012 C87.9912,31.5908 88.0276,31.5752 88.0485,31.5544 L88.1578,31.4606 L88.2985,31.6637 C87.9026,32.0387 87.5328,32.2367 87.1891,32.2575 C86.8141,32.2575 86.5693,32.1169 86.4547,31.8356 C86.4235,31.7419 86.3922,31.6429 86.361,31.5387 C85.8193,32.0075 85.2933,32.2471 84.7828,32.2575 C84.3453,32.2575 84.0276,32.0908 83.8297,31.7575 C83.7256,31.5908 83.6735,31.4085 83.6735,31.2106 C83.6735,30.6273 84.1214,30.1533 85.0172,29.7887 C85.2568,29.6846 85.7047,29.5335 86.361,29.3356 L86.361,28.6012 C86.361,28.07 86.1422,27.7783 85.7047,27.7262 C85.6422,27.7262 85.5797,27.7262 85.5172,27.7262 C85.2256,27.7262 85.0276,27.8096 84.9235,27.9762 C84.9026,28.0075 84.8922,28.044 84.8922,28.0856 M86.3453,31.1012 L86.3453,29.6637 C85.5433,29.8825 85.137,30.2835 85.1266,30.8669 C85.1266,31.2002 85.236,31.4085 85.4547,31.4919 C85.5172,31.5127 85.5797,31.5231 85.6422,31.5231 C85.8714,31.5231 86.1058,31.3825 86.3453,31.1012 M91.8141,32.2419 L91.8141,31.6012 C91.4599,31.9762 91.1162,32.1898 90.7828,32.2419 C90.6891,32.2523 90.5901,32.2575 90.486,32.2575 C89.8922,32.2575 89.4235,31.9815 89.0797,31.4294 C88.8089,31.0023 88.6735,30.4971 88.6735,29.9137 C88.6735,29.0596 88.9183,28.3877 89.4078,27.8981 C89.7412,27.5544 90.137,27.3825 90.5953,27.3825 C90.9495,27.3825 91.2724,27.5179 91.5641,27.7887 C91.6474,27.8617 91.7203,27.9294 91.7828,27.9919 L91.7828,26.1794 C91.7828,25.9294 91.7256,25.7731 91.611,25.7106 C91.5068,25.6585 91.3089,25.6221 91.0172,25.6012 L91.0172,25.3669 L93.1735,25.3669 L93.1735,31.1169 C93.1735,31.3981 93.2568,31.57 93.4235,31.6325 C93.5068,31.6637 93.6214,31.6846 93.7672,31.695 L93.7672,31.9294 L93.1422,32.0075 C92.5901,32.0804 92.1474,32.1585 91.8141,32.2419 M90.9391,31.7106 C91.2308,31.7106 91.4808,31.544 91.6891,31.2106 C91.7412,31.1169 91.7724,31.0492 91.7828,31.0075 L91.7828,28.5544 C91.6578,28.221 91.4495,28.0231 91.1578,27.9606 C91.1058,27.9502 91.0537,27.945 91.0016,27.945 C90.4912,27.945 90.2099,28.4502 90.1578,29.4606 C90.1578,29.5752 90.1578,29.7002 90.1578,29.8356 C90.1578,31.0752 90.4183,31.7002 90.9391,31.7106 M96.111,29.6637 C96.1631,30.6846 96.4287,31.2835 96.9078,31.4606 C97.0328,31.5023 97.1631,31.5231 97.2985,31.5231 C97.6631,31.5231 97.9964,31.3565 98.2985,31.0231 C98.3506,30.971 98.3974,30.919 98.4391,30.8669 L98.6735,31.0075 C98.2568,31.6117 97.8453,31.9919 97.4391,32.1481 C97.2308,32.221 96.9964,32.2575 96.736,32.2575 C95.986,32.2575 95.4235,31.9502 95.0485,31.3356 C94.7985,30.919 94.6735,30.419 94.6735,29.8356 C94.6735,28.9398 94.9443,28.2679 95.486,27.82 C95.8506,27.5283 96.2776,27.3825 96.7672,27.3825 C97.8714,27.3825 98.4912,28.1012 98.6266,29.5387 C98.6266,29.5804 98.6266,29.6221 98.6266,29.6637 L96.111,29.6637 M97.4078,29.1481 C97.387,28.5231 97.3193,28.1273 97.2047,27.9606 C97.111,27.8044 96.9651,27.7262 96.7672,27.7262 C96.4756,27.7262 96.2776,27.8981 96.1735,28.2419 C96.111,28.4815 96.0745,28.8356 96.0641,29.3044 L97.4078,29.3044 L97.4078,29.1481 M101.736,27.2731 C102.194,26.0335 102.845,25.3617 103.689,25.2575 C103.762,25.2471 103.845,25.2419 103.939,25.2419 C104.595,25.2419 105.095,25.4815 105.439,25.9606 C105.668,26.2835 105.783,26.6533 105.783,27.07 C105.783,27.7783 105.423,28.4815 104.705,29.1794 C104.684,29.2106 104.663,29.2315 104.642,29.2419 L103.017,30.7887 L104.533,30.7887 C105.064,30.7887 105.403,30.7419 105.548,30.6481 C105.694,30.5544 105.83,30.3408 105.955,30.0075 L106.205,30.0075 L105.752,32.1169 L101.595,32.1169 L101.595,31.8825 C102.991,30.4033 103.845,29.3408 104.158,28.695 C104.335,28.3408 104.423,27.9919 104.423,27.6481 C104.423,27.2106 104.262,26.8669 103.939,26.6169 C103.731,26.4606 103.496,26.3825 103.236,26.3825 C102.736,26.3825 102.345,26.6533 102.064,27.195 C102.043,27.2262 102.028,27.2523 102.017,27.2731 L101.736,27.2731 M108.08,30.5544 C108.403,30.5544 108.647,30.695 108.814,30.9762 C108.897,31.1221 108.939,31.2679 108.939,31.4137 C108.939,31.7262 108.798,31.9658 108.517,32.1325 C108.371,32.2054 108.226,32.2419 108.08,32.2419 C107.746,32.2419 107.502,32.1012 107.345,31.82 C107.272,31.6846 107.236,31.544 107.236,31.3981 C107.236,31.096 107.371,30.8617 107.642,30.695 C107.778,30.6012 107.923,30.5544 108.08,30.5544 M108.08,27.3981 C108.403,27.3981 108.647,27.5335 108.814,27.8044 C108.897,27.9502 108.939,28.096 108.939,28.2419 C108.939,28.5648 108.798,28.8096 108.517,28.9762 C108.382,29.0492 108.236,29.0856 108.08,29.0856 C107.746,29.0856 107.502,28.9398 107.345,28.6481 C107.272,28.5127 107.236,28.3721 107.236,28.2262 C107.236,27.9242 107.371,27.6898 107.642,27.5231 C107.778,27.4398 107.923,27.3981 108.08,27.3981"/>
<path class="StaffText" d="M119.267,28.7731 C119.267,29.721 118.97,30.4919 118.377,31.0856 C117.689,31.7731 116.7,32.1169 115.408,32.1169 L112.58,32.1169 L112.58,31.9294 C112.986,31.8981 113.236,31.8148 113.33,31.6794 C113.413,31.5648 113.455,31.346 113.455,31.0231 L113.455,26.5856 C113.455,26.2106 113.403,25.971 113.298,25.8669 C113.184,25.7835 112.944,25.7262 112.58,25.695 L112.58,25.5075 L115.267,25.5075 C117.08,25.5075 118.288,26.0752 118.892,27.2106 C119.142,27.6794 119.267,28.2002 119.267,28.7731 M118.173,28.8512 C118.173,27.7887 117.825,26.9971 117.127,26.4762 C116.585,26.0804 115.871,25.8825 114.986,25.8825 C114.715,25.8825 114.554,25.945 114.502,26.07 C114.481,26.1221 114.47,26.1898 114.47,26.2731 L114.47,31.3356 C114.47,31.544 114.548,31.669 114.705,31.7106 C114.788,31.7315 114.882,31.7419 114.986,31.7419 C116.996,31.7419 118.054,30.8825 118.158,29.1637 C118.168,29.0596 118.173,28.9554 118.173,28.8512 M122.548,28.1637 L122.548,27.9919 C123.028,27.846 123.496,27.6898 123.955,27.5231 L124.017,27.5387 L124.017,28.3044 C124.59,27.8669 125.002,27.6169 125.252,27.5544 C125.356,27.5335 125.46,27.5231 125.564,27.5231 C126.095,27.5335 126.45,27.82 126.627,28.3825 C127.158,27.8096 127.705,27.5231 128.267,27.5231 C129.028,27.5335 129.413,28.1325 129.423,29.32 L129.423,31.3669 C129.434,31.7315 129.575,31.9242 129.845,31.945 L130.111,31.9606 L130.111,32.1169 L127.923,32.1169 L127.923,31.9606 C128.246,31.9294 128.439,31.8565 128.502,31.7419 C128.554,31.6481 128.58,31.4867 128.58,31.2575 L128.58,29.1481 C128.58,28.596 128.47,28.2627 128.252,28.1481 C128.147,28.0856 128.007,28.0544 127.83,28.0544 C127.382,28.0648 127.017,28.2679 126.736,28.6637 L126.736,31.1794 C126.736,31.5544 126.825,31.7887 127.002,31.8825 C127.106,31.9346 127.257,31.9606 127.455,31.9606 L127.455,32.1169 L125.22,32.1169 L125.22,31.9606 C125.543,31.9398 125.741,31.8669 125.814,31.7419 C125.877,31.6481 125.908,31.4867 125.908,31.2575 L125.908,29.1012 C125.908,28.4033 125.684,28.0544 125.236,28.0544 C124.871,28.0544 124.548,28.1742 124.267,28.4137 C124.194,28.4867 124.127,28.5648 124.064,28.6481 L124.064,31.445 C124.064,31.695 124.153,31.8512 124.33,31.9137 C124.423,31.945 124.559,31.9606 124.736,31.9606 L124.736,32.1169 L122.517,32.1169 L122.517,31.9606 C122.871,31.9606 123.085,31.8773 123.158,31.7106 C123.2,31.6065 123.22,31.4606 123.22,31.2731 L123.22,28.7575 C123.22,28.3825 123.142,28.1742 122.986,28.1325 C122.955,28.1221 122.918,28.1169 122.877,28.1169 C122.772,28.1169 122.663,28.1325 122.548,28.1637 M130.673,31.1481 C130.673,30.6377 130.991,30.2054 131.627,29.8512 C131.814,29.7575 132.314,29.544 133.127,29.2106 C133.147,29.2106 133.163,29.2054 133.173,29.195 L133.173,28.5856 C133.121,28.0648 132.866,27.7887 132.408,27.7575 C132.095,27.7575 131.877,27.8565 131.752,28.0544 C131.71,28.1273 131.689,28.1898 131.689,28.2419 C131.689,28.3044 131.7,28.3877 131.72,28.4919 C131.731,28.5648 131.736,28.6169 131.736,28.6481 C131.736,28.8252 131.647,28.9502 131.47,29.0231 C131.408,29.0544 131.351,29.07 131.298,29.07 C131.111,29.07 130.981,28.9815 130.908,28.8044 C130.877,28.7523 130.861,28.695 130.861,28.6325 C130.861,28.2679 131.08,27.971 131.517,27.7419 C131.819,27.596 132.163,27.5231 132.548,27.5231 C133.267,27.5231 133.71,27.7783 133.877,28.2887 C133.95,28.5075 133.986,28.7835 133.986,29.1169 L133.986,31.0544 C133.986,31.3877 134.048,31.5752 134.173,31.6169 C134.215,31.6273 134.252,31.6325 134.283,31.6325 C134.429,31.6221 134.575,31.5596 134.72,31.445 L134.72,31.695 C134.45,32.0075 134.2,32.1794 133.97,32.2106 C133.918,32.2106 133.866,32.2106 133.814,32.2106 C133.502,32.2106 133.304,32.0544 133.22,31.7419 C133.2,31.6585 133.189,31.5648 133.189,31.4606 C132.595,31.9398 132.106,32.1898 131.72,32.2106 C131.293,32.2106 130.986,32.0387 130.798,31.695 C130.715,31.5283 130.673,31.346 130.673,31.1481 M133.173,30.8669 L133.173,29.4294 C132.351,29.7315 131.845,30.0387 131.658,30.3512 C131.585,30.4971 131.548,30.6533 131.548,30.82 C131.548,31.2158 131.694,31.4658 131.986,31.57 C132.059,31.6012 132.127,31.6169 132.189,31.6169 C132.408,31.6065 132.647,31.5283 132.908,31.3825 C133.054,31.2992 133.137,31.195 133.158,31.07 C133.168,31.0075 133.173,30.9398 133.173,30.8669 M135.892,28.195 C135.892,28.195 135.741,28.2054 135.439,28.2262 L135.439,28.0544 C135.981,27.8877 136.502,27.7106 137.002,27.5231 L137.048,27.5544 L137.048,32.1169 C137.048,33.346 136.637,34.0544 135.814,34.2419 C135.668,34.2731 135.517,34.2887 135.361,34.2887 C134.923,34.2887 134.632,34.1794 134.486,33.9606 C134.444,33.8877 134.423,33.8148 134.423,33.7419 C134.423,33.5544 134.512,33.4346 134.689,33.3825 C134.741,33.3617 134.788,33.3512 134.83,33.3512 C134.976,33.3512 135.132,33.4554 135.298,33.6637 C135.476,33.8512 135.621,33.9502 135.736,33.9606 C135.965,33.9606 136.106,33.7992 136.158,33.4762 C136.189,33.2783 136.205,32.9762 136.205,32.57 L136.205,28.7731 C136.205,28.419 136.127,28.2262 135.97,28.195 C135.939,28.195 135.913,28.195 135.892,28.195 M136.548,25.2887 C136.767,25.2887 136.923,25.3877 137.017,25.5856 C137.048,25.6585 137.064,25.7315 137.064,25.8044 C137.064,26.0231 136.955,26.1794 136.736,26.2731 C136.673,26.294 136.611,26.3044 136.548,26.3044 C136.319,26.3044 136.163,26.2054 136.08,26.0075 C136.059,25.9346 136.048,25.8669 136.048,25.8044 C136.048,25.5856 136.142,25.4294 136.33,25.3356 C136.403,25.3044 136.476,25.2887 136.548,25.2887 M139.877,27.5231 C140.616,27.5231 141.2,27.794 141.627,28.3356 C141.929,28.7419 142.08,29.221 142.08,29.7731 C142.08,30.5544 141.825,31.1794 141.314,31.6481 C140.897,32.0231 140.413,32.2106 139.861,32.2106 C139.153,32.2106 138.59,31.9398 138.173,31.3981 C137.84,30.9606 137.673,30.445 137.673,29.8512 C137.673,29.0387 137.95,28.4137 138.502,27.9762 C138.887,27.6742 139.345,27.5231 139.877,27.5231 M138.58,29.3669 C138.58,30.2731 138.767,30.9658 139.142,31.445 C139.382,31.7575 139.663,31.9137 139.986,31.9137 C140.507,31.9137 140.866,31.6169 141.064,31.0231 C141.147,30.7627 141.189,30.4658 141.189,30.1325 C141.189,29.2471 140.976,28.5908 140.548,28.1637 C140.319,27.9346 140.054,27.82 139.752,27.82 C139.283,27.82 138.944,28.0596 138.736,28.5387 C138.632,28.7783 138.58,29.0544 138.58,29.3669 M145.439,28.4919 C145.335,28.4919 145.184,28.4085 144.986,28.2419 C144.892,28.1585 144.819,28.1169 144.767,28.1169 C144.601,28.1169 144.429,28.2471 144.252,28.5075 C144.137,28.6742 144.08,28.82 144.08,28.945 L144.08,31.2106 C144.08,31.5544 144.168,31.7679 144.345,31.8512 C144.47,31.9137 144.663,31.9502 144.923,31.9606 L144.923,32.1169 L142.517,32.1169 L142.517,31.9606 C142.871,31.8981 143.085,31.8148 143.158,31.7106 C143.21,31.6273 143.236,31.4815 143.236,31.2731 L143.236,28.7575 C143.236,28.3929 143.153,28.195 142.986,28.1637 C142.955,28.1533 142.923,28.1481 142.892,28.1481 C142.778,28.1481 142.663,28.1637 142.548,28.195 L142.548,28.0387 C143.08,27.8721 143.569,27.7002 144.017,27.5231 L144.08,27.5387 L144.08,28.4294 C144.423,27.9502 144.715,27.6637 144.955,27.57 C145.059,27.5387 145.163,27.5231 145.267,27.5231 C145.58,27.5231 145.762,27.6533 145.814,27.9137 C145.814,27.9554 145.814,28.0023 145.814,28.0544 C145.783,28.3252 145.658,28.471 145.439,28.4919 M151.095,27.7262 C151.116,27.7158 151.173,27.6794 151.267,27.6169 L151.377,27.6169 L151.408,28.9762 L151.267,28.9762 C151.101,28.3304 150.861,27.945 150.548,27.82 C150.434,27.7679 150.304,27.7419 150.158,27.7419 C149.804,27.7419 149.564,27.8825 149.439,28.1637 C149.408,28.2471 149.392,28.3356 149.392,28.4294 C149.403,28.7106 149.548,28.9346 149.83,29.1012 L150.908,29.7419 C151.387,30.0335 151.658,30.3512 151.72,30.695 C151.731,30.7679 151.736,30.8512 151.736,30.945 C151.736,31.3617 151.554,31.7002 151.189,31.9606 C150.929,32.1273 150.642,32.2106 150.33,32.2106 C150.194,32.2106 149.887,32.1637 149.408,32.07 C149.293,32.0492 149.205,32.0387 149.142,32.0387 C149.038,32.0492 148.96,32.0908 148.908,32.1637 L148.783,32.1637 L148.783,30.6012 L148.939,30.6012 C149.043,31.07 149.173,31.3981 149.33,31.5856 C149.548,31.8565 149.84,31.9919 150.205,31.9919 C150.632,31.9919 150.897,31.8356 151.002,31.5231 C151.033,31.4502 151.048,31.3669 151.048,31.2731 C151.038,30.971 150.861,30.721 150.517,30.5231 L149.939,30.195 C149.314,29.8408 148.944,29.4867 148.83,29.1325 C148.788,29.0075 148.767,28.8825 148.767,28.7575 C148.767,28.2887 148.97,27.9398 149.377,27.7106 C149.606,27.5856 149.856,27.5231 150.127,27.5231 C150.345,27.5231 150.606,27.5752 150.908,27.6794 C150.991,27.7106 151.054,27.7262 151.095,27.7262 M152.673,29.9919 C152.673,29.1481 152.96,28.4867 153.533,28.0075 C153.929,27.6846 154.371,27.5231 154.861,27.5231 C155.413,27.5231 155.84,27.6742 156.142,27.9762 C156.319,28.1533 156.408,28.346 156.408,28.5544 C156.408,28.7315 156.314,28.8565 156.127,28.9294 C156.054,28.9606 155.986,28.9762 155.923,28.9762 C155.715,28.9762 155.564,28.8408 155.47,28.57 C155.46,28.5492 155.455,28.5283 155.455,28.5075 L155.392,28.2887 C155.33,28.0387 155.215,27.8929 155.048,27.8512 C154.976,27.8304 154.892,27.82 154.798,27.82 C154.298,27.82 153.918,28.0596 153.658,28.5387 C153.512,28.8304 153.439,29.169 153.439,29.5544 C153.439,30.2835 153.663,30.8304 154.111,31.195 C154.371,31.3929 154.663,31.4919 154.986,31.4919 C155.403,31.4919 155.762,31.3252 156.064,30.9919 C156.168,30.8669 156.283,30.721 156.408,30.5544 L156.548,30.6481 C156.173,31.3669 155.757,31.8356 155.298,32.0544 C155.059,32.1585 154.819,32.2106 154.58,32.2106 C153.934,32.2106 153.429,31.945 153.064,31.4137 C152.804,31.0075 152.673,30.5335 152.673,29.9919 M156.673,31.1481 C156.673,30.6377 156.991,30.2054 157.627,29.8512 C157.814,29.7575 158.314,29.544 159.127,29.2106 C159.147,29.2106 159.163,29.2054 159.173,29.195 L159.173,28.5856 C159.121,28.0648 158.866,27.7887 158.408,27.7575 C158.095,27.7575 157.877,27.8565 157.752,28.0544 C157.71,28.1273 157.689,28.1898 157.689,28.2419 C157.689,28.3044 157.7,28.3877 157.72,28.4919 C157.731,28.5648 157.736,28.6169 157.736,28.6481 C157.736,28.8252 157.647,28.9502 157.47,29.0231 C157.408,29.0544 157.351,29.07 157.298,29.07 C157.111,29.07 156.981,28.9815 156.908,28.8044 C156.877,28.7523 156.861,28.695 156.861,28.6325 C156.861,28.2679 157.08,27.971 157.517,27.7419 C157.819,27.596 158.163,27.5231 158.548,27.5231 C159.267,27.5231 159.71,27.7783 159.877,28.2887 C159.95,28.5075 159.986,28.7835 159.986,29.1169 L159.986,31.0544 C159.986,31.3877 160.048,31.5752 160.173,31.6169 C160.215,31.6273 160.252,31.6325 160.283,31.6325 C160.429,31.6221 160.575,31.5596 160.72,31.445 L160.72,31.695 C160.45,32.0075 160.2,32.1794 159.97,32.2106 C159.918,32.2106 159.866,32.2106 159.814,32.2106 C159.502,32.2106 159.304,32.0544 159.22,31.7419 C159.2,31.6585 159.189,31.5648 159.189,31.4606 C158.595,31.9398 158.106,32.1898 157.72,32.2106 C157.293,32.2106 156.986,32.0387 156.798,31.695 C156.715,31.5283 156.673,31.346 156.673,31.1481 M159.173,30.8669 L159.173,29.4294 C158.351,29.7315 157.845,30.0387 157.658,30.3512 C157.585,30.4971 157.548,30.6533 157.548,30.82 C157.548,31.2158 157.694,31.4658 157.986,31.57 C158.059,31.6012 158.127,31.6169 158.189,31.6169 C158.408,31.6065 158.647,31.5283 158.908,31.3825 C159.054,31.2992 159.137,31.195 159.158,31.07 C159.168,31.0075 159.173,30.9398 159.173,30.8669 M160.517,25.8825 L160.517,25.7262 C161.184,25.5596 161.715,25.4137 162.111,25.2887 L162.158,25.3044 L162.158,31.2731 C162.158,31.5856 162.22,31.7783 162.345,31.8512 C162.46,31.9033 162.647,31.9398 162.908,31.9606 L162.908,32.1169 L160.548,32.1169 L160.548,31.9606 C160.923,31.9294 161.153,31.8408 161.236,31.695 C161.288,31.6012 161.314,31.4502 161.314,31.2419 L161.314,26.4762 C161.314,26.1429 161.241,25.9502 161.095,25.8981 C161.033,25.8773 160.965,25.8669 160.892,25.8669 C160.757,25.8669 160.632,25.8721 160.517,25.8825 M164.392,29.3512 C164.434,30.5283 164.819,31.221 165.548,31.4294 C165.673,31.471 165.809,31.4919 165.955,31.4919 C166.444,31.4919 166.861,31.2835 167.205,30.8669 C167.298,30.7523 167.397,30.6169 167.502,30.4606 L167.658,30.5231 C167.293,31.4815 166.72,32.0335 165.939,32.1794 C165.804,32.2002 165.673,32.2106 165.548,32.2106 C164.809,32.2106 164.278,31.8981 163.955,31.2731 C163.767,30.8981 163.673,30.4658 163.673,29.9762 C163.673,29.0908 163.95,28.419 164.502,27.9606 C164.866,27.669 165.288,27.5231 165.767,27.5231 C166.684,27.5231 167.236,28.044 167.423,29.0856 C167.444,29.1794 167.46,29.2679 167.47,29.3512 L164.392,29.3512 M164.408,29.0544 L166.455,29.0544 C166.361,28.4815 166.194,28.1273 165.955,27.9919 C165.83,27.9294 165.668,27.8981 165.47,27.8981 C164.877,27.8981 164.522,28.2731 164.408,29.0231 C164.408,29.0335 164.408,29.044 164.408,29.0544 M172.877,27.5231 C173.616,27.5231 174.2,27.794 174.627,28.3356 C174.929,28.7419 175.08,29.221 175.08,29.7731 C175.08,30.5544 174.825,31.1794 174.314,31.6481 C173.897,32.0231 173.413,32.2106 172.861,32.2106 C172.153,32.2106 171.59,31.9398 171.173,31.3981 C170.84,30.9606 170.673,30.445 170.673,29.8512 C170.673,29.0387 170.95,28.4137 171.502,27.9762 C171.887,27.6742 172.345,27.5231 172.877,27.5231 M171.58,29.3669 C171.58,30.2731 171.767,30.9658 172.142,31.445 C172.382,31.7575 172.663,31.9137 172.986,31.9137 C173.507,31.9137 173.866,31.6169 174.064,31.0231 C174.147,30.7627 174.189,30.4658 174.189,30.1325 C174.189,29.2471 173.976,28.5908 173.548,28.1637 C173.319,27.9346 173.054,27.82 172.752,27.82 C172.283,27.82 171.944,28.0596 171.736,28.5387 C171.632,28.7783 171.58,29.0544 171.58,29.3669 M175.517,28.1325 L175.517,27.9606 C176.017,27.8148 176.481,27.669 176.908,27.5231 L176.97,27.5387 L176.97,28.32 C177.45,27.8825 177.825,27.6273 178.095,27.5544 C178.2,27.5335 178.309,27.5231 178.423,27.5231 C178.965,27.5231 179.325,27.794 179.502,28.3356 C179.564,28.5335 179.595,28.7575 179.595,29.0075 L179.595,31.3044 C179.595,31.6169 179.668,31.8096 179.814,31.8825 C179.908,31.9137 180.038,31.9398 180.205,31.9606 L180.205,32.1169 L178.127,32.1169 L178.127,31.9606 C178.429,31.9398 178.616,31.8408 178.689,31.6637 C178.741,31.5492 178.767,31.3721 178.767,31.1325 L178.767,29.0387 C178.746,28.3929 178.502,28.0648 178.033,28.0544 C177.783,28.0544 177.522,28.169 177.252,28.3981 C177.179,28.471 177.095,28.5492 177.002,28.6325 L177.002,31.445 C177.002,31.6846 177.101,31.8408 177.298,31.9137 C177.392,31.9346 177.512,31.9502 177.658,31.9606 L177.658,32.1169 L175.548,32.1169 L175.548,31.9606 C175.84,31.9398 176.022,31.8565 176.095,31.7106 C176.137,31.596 176.158,31.4294 176.158,31.2106 L176.158,28.7262 C176.158,28.3617 176.085,28.1585 175.939,28.1169 C175.897,28.096 175.851,28.0856 175.798,28.0856 C175.673,28.0856 175.58,28.1012 175.517,28.1325 M181.392,29.3512 C181.434,30.5283 181.819,31.221 182.548,31.4294 C182.673,31.471 182.809,31.4919 182.955,31.4919 C183.444,31.4919 183.861,31.2835 184.205,30.8669 C184.298,30.7523 184.397,30.6169 184.502,30.4606 L184.658,30.5231 C184.293,31.4815 183.72,32.0335 182.939,32.1794 C182.804,32.2002 182.673,32.2106 182.548,32.2106 C181.809,32.2106 181.278,31.8981 180.955,31.2731 C180.767,30.8981 180.673,30.4658 180.673,29.9762 C180.673,29.0908 180.95,28.419 181.502,27.9606 C181.866,27.669 182.288,27.5231 182.767,27.5231 C183.684,27.5231 184.236,28.044 184.423,29.0856 C184.444,29.1794 184.46,29.2679 184.47,29.3512 L181.392,29.3512 M181.408,29.0544 L183.455,29.0544 C183.361,28.4815 183.194,28.1273 182.955,27.9919 C182.83,27.9294 182.668,27.8981 182.47,27.8981 C181.877,27.8981 181.522,28.2731 181.408,29.0231 C181.408,29.0335 181.408,29.044 181.408,29.0544 M189.877,27.5231 C190.616,27.5231 191.2,27.794 191.627,28.3356 C191.929,28.7419 192.08,29.221 192.08,29.7731 C192.08,30.5544 191.825,31.1794 191.314,31.6481 C190.897,32.0231 190.413,32.2106 189.861,32.2106 C189.153,32.2106 188.59,31.9398 188.173,31.3981 C187.84,30.9606 187.673,30.445 187.673,29.8512 C187.673,29.0387 187.95,28.4137 188.502,27.9762 C188.887,27.6742 189.345,27.5231 189.877,27.5231 M188.58,29.3669 C188.58,30.2731 188.767,30.9658 189.142,31.445 C189.382,31.7575 189.663,31.9137 189.986,31.9137 C190.507,31.9137 190.866,31.6169 191.064,31.0231 C191.147,30.7627 191.189,30.4658 191.189,30.1325 C191.189,29.2471 190.976,28.5908 190.548,28.1637 C190.319,27.9346 190.054,27.82 189.752,27.82 C189.283,27.82 188.944,28.0596 188.736,28.5387 C188.632,28.7783 188.58,29.0544 188.58,29.3669 M192.673,29.9919 C192.673,29.1481 192.96,28.4867 193.533,28.0075 C193.929,27.6846 194.371,27.5231 194.861,27.5231 C195.413,27.5231 195.84,27.6742 196.142,27.9762 C196.319,28.1533 196.408,28.346 196.408,28.5544 C196.408,28.7315 196.314,28.8565 196.127,28.9294 C196.054,28.9606 195.986,28.9762 195.923,28.9762 C195.715,28.9762 195.564,28.8408 195.47,28.57 C195.46,28.5492 195.455,28.5283 195.455,28.5075 L195.392,28.2887 C195.33,28.0387 195.215,27.8929 195.048,27.8512 C194.976,27.8304 194.892,27.82 194.798,27.82 C194.298,27.82 193.918,28.0596 193.658,28.5387 C193.512,28.8304 193.439,29.169 193.439,29.5544 C193.439,30.2835 193.663,30.8304 194.111,31.195 C194.371,31.3929 194.663,31.4919 194.986,31.4919 C195.403,31.4919 195.762,31.3252 196.064,30.9919 C196.168,30.8669 196.283,30.721 196.408,30.5544 L196.548,30.6481 C196.173,31.3669 195.757,31.8356 195.298,32.0544 C195.059,32.1585 194.819,32.2106 194.58,32.2106 C193.934,32.2106 193.429,31.945 193.064,31.4137 C192.804,31.0075 192.673,30.5335 192.673,29.9919 M199.017,27.6169 L199.017,27.9137 L198.002,27.9137 L198.002,30.7731 C198.002,31.3148 198.137,31.6117 198.408,31.6637 C198.439,31.6742 198.476,31.6794 198.517,31.6794 C198.726,31.669 198.929,31.5492 199.127,31.32 L199.252,31.445 C198.929,31.9554 198.528,32.2106 198.048,32.2106 C197.465,32.2002 197.168,31.7783 197.158,30.945 L197.158,27.9137 L196.627,27.9137 C196.606,27.8929 196.595,27.8721 196.595,27.8512 C196.595,27.8096 196.637,27.7679 196.72,27.7262 C197.002,27.5387 197.335,27.1742 197.72,26.6325 C197.731,26.6221 197.736,26.6169 197.736,26.6169 C197.84,26.4606 197.908,26.3669 197.939,26.3356 C197.981,26.346 198.002,26.3877 198.002,26.4606 L198.002,27.6169 L199.017,27.6169 M199.673,31.1481 C199.673,30.6377 199.991,30.2054 200.627,29.8512 C200.814,29.7575 201.314,29.544 202.127,29.2106 C202.147,29.2106 202.163,29.2054 202.173,29.195 L202.173,28.5856 C202.121,28.0648 201.866,27.7887 201.408,27.7575 C201.095,27.7575 200.877,27.8565 200.752,28.0544 C200.71,28.1273 200.689,28.1898 200.689,28.2419 C200.689,28.3044 200.7,28.3877 200.72,28.4919 C200.731,28.5648 200.736,28.6169 200.736,28.6481 C200.736,28.8252 200.647,28.9502 200.47,29.0231 C200.408,29.0544 200.351,29.07 200.298,29.07 C200.111,29.07 199.981,28.9815 199.908,28.8044 C199.877,28.7523 199.861,28.695 199.861,28.6325 C199.861,28.2679 200.08,27.971 200.517,27.7419 C200.819,27.596 201.163,27.5231 201.548,27.5231 C202.267,27.5231 202.71,27.7783 202.877,28.2887 C202.95,28.5075 202.986,28.7835 202.986,29.1169 L202.986,31.0544 C202.986,31.3877 203.048,31.5752 203.173,31.6169 C203.215,31.6273 203.252,31.6325 203.283,31.6325 C203.429,31.6221 203.575,31.5596 203.72,31.445 L203.72,31.695 C203.45,32.0075 203.2,32.1794 202.97,32.2106 C202.918,32.2106 202.866,32.2106 202.814,32.2106 C202.502,32.2106 202.304,32.0544 202.22,31.7419 C202.2,31.6585 202.189,31.5648 202.189,31.4606 C201.595,31.9398 201.106,32.1898 200.72,32.2106 C200.293,32.2106 199.986,32.0387 199.798,31.695 C199.715,31.5283 199.673,31.346 199.673,31.1481 M202.173,30.8669 L202.173,29.4294 C201.351,29.7315 200.845,30.0387 200.658,30.3512 C200.585,30.4971 200.548,30.6533 200.548,30.82 C200.548,31.2158 200.694,31.4658 200.986,31.57 C201.059,31.6012 201.127,31.6169 201.189,31.6169 C201.408,31.6065 201.647,31.5283 201.908,31.3825 C202.054,31.2992 202.137,31.195 202.158,31.07 C202.168,31.0075 202.173,30.9398 202.173,30.8669 M208.048,27.6169 L208.048,27.7731 C207.882,27.794 207.757,27.8617 207.673,27.9762 C207.601,28.0804 207.512,28.2731 207.408,28.5544 L206.127,31.7575 C205.991,32.0804 205.897,32.2471 205.845,32.2575 C205.772,32.2575 205.689,32.1117 205.595,31.82 C205.585,31.8096 205.58,31.7992 205.58,31.7887 L204.377,28.9137 C204.127,28.32 203.939,27.971 203.814,27.8669 C203.731,27.8044 203.616,27.7731 203.47,27.7731 L203.47,27.6169 L205.439,27.6169 L205.439,27.7731 C205.158,27.794 205.007,27.8669 204.986,27.9919 C204.976,28.0127 204.97,28.0335 204.97,28.0544 C204.97,28.169 205.002,28.2887 205.064,28.4137 L206.08,30.9762 L207.064,28.3825 C207.106,28.2887 207.127,28.1898 207.127,28.0856 C207.127,27.9085 206.981,27.8044 206.689,27.7731 C206.679,27.7731 206.668,27.7731 206.658,27.7731 L206.658,27.6169 L208.048,27.6169 M209.392,29.3512 C209.434,30.5283 209.819,31.221 210.548,31.4294 C210.673,31.471 210.809,31.4919 210.955,31.4919 C211.444,31.4919 211.861,31.2835 212.205,30.8669 C212.298,30.7523 212.397,30.6169 212.502,30.4606 L212.658,30.5231 C212.293,31.4815 211.72,32.0335 210.939,32.1794 C210.804,32.2002 210.673,32.2106 210.548,32.2106 C209.809,32.2106 209.278,31.8981 208.955,31.2731 C208.767,30.8981 208.673,30.4658 208.673,29.9762 C208.673,29.0908 208.95,28.419 209.502,27.9606 C209.866,27.669 210.288,27.5231 210.767,27.5231 C211.684,27.5231 212.236,28.044 212.423,29.0856 C212.444,29.1794 212.46,29.2679 212.47,29.3512 L209.392,29.3512 M209.408,29.0544 L211.455,29.0544 C211.361,28.4815 211.194,28.1273 210.955,27.9919 C210.83,27.9294 210.668,27.8981 210.47,27.8981 C209.877,27.8981 209.522,28.2731 209.408,29.0231 C209.408,29.0335 209.408,29.044 209.408,29.0544"/>
</svg>
