<?xml version="1.0" encoding="UTF-8" standalone="no"?>
<svg width="595.44px" height="841.68px" viewBox="0 0 595.44 841.68"
 xmlns="http://www.w3.org/2000/svg" xmlns:xlink="http://www.w3.org/1999/xlink" version="1.2" baseProfile="tiny">
<title>Guitar Scales and Arpeggios</title>
<desc>Generated by MuseScore 2.1.0</desc>
<polyline class="StaffLines" fill="none" stroke="#000000" stroke-width="0.40" stroke-linejoin="bevel" points="28.08,62.856 567.36,62.856"/>
<polyline class="StaffLines" fill="none" stroke="#000000" stroke-width="0.40" stroke-linejoin="bevel" points="28.08,67.824 567.36,67.824"/>
<polyline class="StaffLines" fill="none" stroke="#000000" stroke-width="0.40" stroke-linejoin="bevel" points="28.08,72.792 567.36,72.792"/>
<polyline class="StaffLines" fill="none" stroke="#000000" stroke-width="0.40" stroke-linejoin="bevel" points="28.08,77.76 567.36,77.76"/>
<polyline class="StaffLines" fill="none" stroke="#000000" stroke-width="0.40" stroke-linejoin="bevel" points="28.08,82.728 567.36,82.728"/>
<polyline class="StaffLines" fill="none" stroke="#000000" stroke-width="0.40" stroke-linejoin="bevel" points="28.08,115.02 567.36,115.02"/>
<polyline class="StaffLines" fill="none" stroke="#000000" stroke-width="0.40" stroke-linejoin="bevel" points="28.08,122.472 567.36,122.472"/>
<polyline class="StaffLines" fill="none" stroke="#000000" stroke-width="0.40" stroke-linejoin="bevel" points="28.08,129.924 567.36,129.924"/>
<polyline class="StaffLines" fill="none" stroke="#000000" stroke-width="0.40" stroke-linejoin="bevel" points="28.08,137.376 567.36,137.376"/>
<polyline class="StaffLines" fill="none" stroke="#000000" stroke-width="0.40" stroke-linejoin="bevel" points="28.08,144.828 567.36,144.828"/>
<polyline class="StaffLines" fill="none" stroke="#000000" stroke-width="0.40" stroke-linejoin="bevel" points="28.08,152.28 567.36,152.28"/>
<polyline class="BarLine" fill="none" stroke="#000000" stroke-width="0.79" stroke-linejoin="bevel" points="28.4774,62.856 28.4774,152.28"/>
<polyline class="BarLine" fill="none" stroke="#000000" stroke-width="0.79" stroke-linejoin="bevel" points="562.491,115.02 562.491,152.28"/>
<polyline class="BarLine" fill="none" stroke="#000000" stroke-width="2.48" stroke-linejoin="bevel" points="566.118,115.02 566.118,152.28"/>
<polyline class="BarLine" fill="none" stroke="#000000" stroke-width="0.79" stroke-linejoin="bevel" points="562.491,62.856 562.491,82.728"/>
<polyline class="BarLine" fill="none" stroke="#000000" stroke-width="2.48" stroke-linejoin="bevel" points="566.118,62.856 566.118,82.728"/>
<polyline class="LedgerLine" fill="none" stroke="#000000" stroke-width="0.79" stroke-linecap="square" stroke-linejoin="bevel" points="456.079,87.696 465.959,87.696"/>
<polyline class="LedgerLine" fill="none" stroke="#000000" stroke-width="0.79" stroke-linecap="square" stroke-linejoin="bevel" points="456.079,92.664 465.959,92.664"/>
<polyline class="LedgerLine" fill="none" stroke="#000000" stroke-width="0.79" stroke-linecap="square" stroke-linejoin="bevel" points="456.079,97.632 465.959,97.632"/>
<polyline class="LedgerLine" fill="none" stroke="#000000" stroke-width="0.79" stroke-linecap="square" stroke-linejoin="bevel" points="391.043,87.696 400.564,87.696"/>
<polyline class="LedgerLine" fill="none" stroke="#000000" stroke-width="0.79" stroke-linecap="square" stroke-linejoin="bevel" points="391.043,92.664 400.564,92.664"/>
<polyline class="LedgerLine" fill="none" stroke="#000000" stroke-width="0.79" stroke-linecap="square" stroke-linejoin="bevel" points="325.827,87.696 335.349,87.696"/>
<polyline class="LedgerLine" fill="none" stroke="#000000" stroke-width="0.79" stroke-linecap="square" stroke-linejoin="bevel" points="195.396,87.696 204.918,87.696"/>
<polyline class="LedgerLine" fill="none" stroke="#000000" stroke-width="0.79" stroke-linecap="square" stroke-linejoin="bevel" points="130.181,87.696 139.702,87.696"/>
<polyline class="LedgerLine" fill="none" stroke="#000000" stroke-width="0.79" stroke-linecap="square" stroke-linejoin="bevel" points="130.181,92.664 139.702,92.664"/>
<polyline class="LedgerLine" fill="none" stroke="#000000" stroke-width="0.79" stroke-linecap="square" stroke-linejoin="bevel" points="64.9651,87.696 74.4866,87.696"/>
<polyline class="LedgerLine" fill="none" stroke="#000000" stroke-width="0.79" stroke-linecap="square" stroke-linejoin="bevel" points="64.9651,92.664 74.4866,92.664"/>
<polyline class="LedgerLine" fill="none" stroke="#000000" stroke-width="0.79" stroke-linecap="square" stroke-linejoin="bevel" points="64.9651,97.632 74.4866,97.632"/>
<polyline class="Stem" fill="none" stroke="#000000" stroke-width="0.65" stroke-linecap="round" stroke-linejoin="bevel" points="464.146,99.3529 464.146,72.792"/>
<polyline class="Stem" fill="none" stroke="#000000" stroke-width="0.65" stroke-linecap="round" stroke-linejoin="bevel" points="398.751,94.2149 398.751,72.792"/>
<polyline class="Stem" fill="none" stroke="#000000" stroke-width="0.65" stroke-linecap="round" stroke-linejoin="bevel" points="333.536,89.2469 333.536,72.792"/>
<polyline class="Stem" fill="none" stroke="#000000" stroke-width="0.65" stroke-linecap="round" stroke-linejoin="bevel" points="268.32,81.7949 268.32,65.34"/>
<polyline class="Stem" fill="none" stroke="#000000" stroke-width="0.65" stroke-linecap="round" stroke-linejoin="bevel" points="203.104,89.2469 203.104,72.792"/>
<polyline class="Stem" fill="none" stroke="#000000" stroke-width="0.65" stroke-linecap="round" stroke-linejoin="bevel" points="137.889,94.2149 137.889,72.792"/>
<polyline class="Stem" fill="none" stroke="#000000" stroke-width="0.65" stroke-linecap="round" stroke-linejoin="bevel" points="72.6732,99.1829 72.6732,72.792"/>
<path class="Note" fill="#ffffff" fill-rule="evenodd" d="M458.494,148.554 L464.456,148.554 L464.456,156.006 L458.494,156.006 L458.494,148.554 "/>
<path class="Note" transform="matrix(0.9936,0,0,0.9936,458.991,155.758)" d="M0.390625,-3.09375 C0.390625,-5 0.927083,-6.07813 2,-6.32813 C2.14583,-6.36979 2.30208,-6.39063 2.46875,-6.39063 C3.78125,-6.39063 4.47917,-5.40104 4.5625,-3.42188 C4.5625,-3.28646 4.5625,-3.15625 4.5625,-3.03125 C4.5625,-1.40625 4.15104,-0.385417 3.32813,0.03125 C3.06771,0.145833 2.78125,0.203125 2.46875,0.203125 C1.41667,0.203125 0.760417,-0.442708 0.5,-1.73438 C0.427083,-2.14063 0.390625,-2.59375 0.390625,-3.09375 M2.46875,-5.64063 C1.625,-5.63021 1.20313,-4.77083 1.20313,-3.0625 C1.20313,-1.32292 1.61979,-0.453125 2.45313,-0.453125 C3.16146,-0.453125 3.57813,-1.02604 3.70313,-2.17188 C3.73438,-2.44271 3.75,-2.75 3.75,-3.09375 C3.75,-4.79167 3.32292,-5.64063 2.46875,-5.64063"/>
<path class="Note" fill="#ff9933" transform="matrix(0.9936,0,0,0.9936,457.57,100.116)" d="M6.3125,-1.3125 C6.3125,-1.53125 6.22917,-1.71875 6.0625,-1.875 C5.88542,-2.04167 5.6875,-2.125 5.46875,-2.125 C5.08333,-2.125 4.29688,-1.73438 3.10938,-0.953125 C1.88021,-0.161458 1.13021,0.40625 0.859375,0.75 C0.713542,0.927083 0.640625,1.11458 0.640625,1.3125 C0.640625,1.53125 0.729167,1.71875 0.90625,1.875 C1.0625,2.04167 1.25521,2.125 1.48438,2.125 C1.85938,2.125 2.65625,1.73438 3.875,0.953125 C5.07292,0.171875 5.8125,-0.395833 6.09375,-0.75 C6.23958,-0.916667 6.3125,-1.10417 6.3125,-1.3125 M5.28125,-2.75 C6.39583,-2.75 6.95313,-2.27083 6.95313,-1.3125 C6.95313,-0.84375 6.81771,-0.296875 6.54688,0.328125 C6.27604,0.942708 5.91146,1.41146 5.45313,1.73438 C4.45313,2.41146 3.19792,2.75 1.6875,2.75 C0.5625,2.75 0,2.27083 0,1.3125 C0,0.885417 0.135417,0.34375 0.40625,-0.3125 C0.666667,-0.9375 1.03125,-1.41146 1.5,-1.73438 C2.51042,-2.41146 3.77083,-2.75 5.28125,-2.75"/>
<path class="Note" fill="#ffffff" fill-rule="evenodd" d="M393.279,148.554 L399.24,148.554 L399.24,156.006 L393.279,156.006 L393.279,148.554 "/>
<path class="Note" transform="matrix(0.9936,0,0,0.9936,393.775,155.758)" d="M2.4375,-5.64063 C1.75,-5.64063 1.35417,-5.32813 1.25,-4.70313 C1.22917,-4.59896 1.21875,-4.47917 1.21875,-4.34375 L0.421875,-4.34375 C0.442708,-5.59375 1.01563,-6.27083 2.14063,-6.375 C2.23438,-6.38542 2.32813,-6.39063 2.42188,-6.39063 C3.26563,-6.39063 3.84375,-6.10938 4.15625,-5.54688 C4.29167,-5.28646 4.35938,-4.98438 4.35938,-4.64063 C4.35938,-4.00521 4.0625,-3.57292 3.46875,-3.34375 C4.03125,-3.14583 4.375,-2.81771 4.5,-2.35938 C4.54167,-2.19271 4.5625,-2.00521 4.5625,-1.79688 C4.5625,-1.05729 4.27604,-0.505208 3.70313,-0.140625 C3.33854,0.0885417 2.90104,0.203125 2.39063,0.203125 C1.21354,0.203125 0.526042,-0.348958 0.328125,-1.45313 C0.317708,-1.57813 0.302083,-1.71354 0.28125,-1.85938 L1.07813,-1.85938 C1.13021,-1.08854 1.46875,-0.65625 2.09375,-0.5625 C2.19792,-0.541667 2.30729,-0.53125 2.42188,-0.53125 C3.04688,-0.53125 3.45313,-0.765625 3.64063,-1.23438 C3.71354,-1.40104 3.75,-1.58854 3.75,-1.79688 C3.73958,-2.54688 3.29688,-2.92708 2.42188,-2.9375 L2.09375,-2.92188 L1.98438,-2.92188 L1.98438,-3.67188 C2.66146,-3.68229 3.10417,-3.77604 3.3125,-3.95313 C3.47917,-4.09896 3.5625,-4.31771 3.5625,-4.60938 C3.5625,-5.09896 3.34896,-5.41667 2.92188,-5.5625 C2.77604,-5.61458 2.61458,-5.64063 2.4375,-5.64063"/>
<path class="Note" fill="#99cc33" transform="matrix(0.9936,0,0,0.9936,392.533,95.148)" d="M4.39063,-2.75 C5.01563,-2.75 5.54688,-2.58854 5.98438,-2.26563 C6.38021,-1.91146 6.57813,-1.46875 6.57813,-0.9375 C6.57813,-0.0416667 6.11979,0.796875 5.20313,1.57813 C4.26563,2.35938 3.26042,2.75 2.1875,2.75 C1.5625,2.75 1.03646,2.58854 0.609375,2.26563 C0.203125,1.91146 0,1.46875 0,0.9375 C0,0.0416667 0.46875,-0.796875 1.40625,-1.57813 C2.32292,-2.35938 3.31771,-2.75 4.39063,-2.75"/>
<path class="Note" fill="#ffffff" fill-rule="evenodd" d="M328.063,141.102 L334.025,141.102 L334.025,148.554 L328.063,148.554 L328.063,141.102 "/>
<path class="Note" transform="matrix(0.9936,0,0,0.9936,328.56,148.306)" d="M0.453125,-4.17188 C0.494792,-5.64063 1.19792,-6.38021 2.5625,-6.39063 C3.28125,-6.39063 3.83333,-6.14583 4.21875,-5.65625 C4.46875,-5.32292 4.59375,-4.93229 4.59375,-4.48438 C4.59375,-3.68229 4.14583,-3.03125 3.25,-2.53125 L2.34375,-2.04688 C1.79167,-1.75521 1.44271,-1.4375 1.29688,-1.09375 C1.24479,-0.989583 1.21354,-0.869792 1.20313,-0.734375 L4.5625,-0.734375 L4.5625,0 L0.3125,0 C0.354167,-0.760417 0.520833,-1.33854 0.8125,-1.73438 C1.07292,-2.05729 1.5,-2.38542 2.09375,-2.71875 L2.92188,-3.1875 C3.49479,-3.52083 3.78646,-3.94271 3.79688,-4.45313 C3.79688,-4.88021 3.61458,-5.21354 3.25,-5.45313 C3.04167,-5.57813 2.80208,-5.64063 2.53125,-5.64063 C1.73958,-5.64063 1.3125,-5.16667 1.25,-4.21875 C1.25,-4.19792 1.25,-4.18229 1.25,-4.17188 L0.453125,-4.17188 "/>
<path class="Note" fill="#ff9ee6" transform="matrix(0.9936,0,0,0.9936,327.318,90.18)" d="M4.39063,-2.75 C5.01563,-2.75 5.54688,-2.58854 5.98438,-2.26563 C6.38021,-1.91146 6.57813,-1.46875 6.57813,-0.9375 C6.57813,-0.0416667 6.11979,0.796875 5.20313,1.57813 C4.26563,2.35938 3.26042,2.75 2.1875,2.75 C1.5625,2.75 1.03646,2.58854 0.609375,2.26563 C0.203125,1.91146 0,1.46875 0,0.9375 C0,0.0416667 0.46875,-0.796875 1.40625,-1.57813 C2.32292,-2.35938 3.31771,-2.75 4.39063,-2.75"/>
<path class="Note" fill="#ffffff" fill-rule="evenodd" d="M262.847,133.65 L268.809,133.65 L268.809,141.102 L262.847,141.102 L262.847,133.65 "/>
<path class="Note" transform="matrix(0.9936,0,0,0.9936,263.344,140.854)" d="M0.453125,-4.17188 C0.494792,-5.64063 1.19792,-6.38021 2.5625,-6.39063 C3.28125,-6.39063 3.83333,-6.14583 4.21875,-5.65625 C4.46875,-5.32292 4.59375,-4.93229 4.59375,-4.48438 C4.59375,-3.68229 4.14583,-3.03125 3.25,-2.53125 L2.34375,-2.04688 C1.79167,-1.75521 1.44271,-1.4375 1.29688,-1.09375 C1.24479,-0.989583 1.21354,-0.869792 1.20313,-0.734375 L4.5625,-0.734375 L4.5625,0 L0.3125,0 C0.354167,-0.760417 0.520833,-1.33854 0.8125,-1.73438 C1.07292,-2.05729 1.5,-2.38542 2.09375,-2.71875 L2.92188,-3.1875 C3.49479,-3.52083 3.78646,-3.94271 3.79688,-4.45313 C3.79688,-4.88021 3.61458,-5.21354 3.25,-5.45313 C3.04167,-5.57813 2.80208,-5.64063 2.53125,-5.64063 C1.73958,-5.64063 1.3125,-5.16667 1.25,-4.21875 C1.25,-4.19792 1.25,-4.18229 1.25,-4.17188 L0.453125,-4.17188 "/>
<path class="Note" fill="#ff9933" transform="matrix(0.9936,0,0,0.9936,262.102,82.728)" d="M4.39063,-2.75 C5.01563,-2.75 5.54688,-2.58854 5.98438,-2.26563 C6.38021,-1.91146 6.57813,-1.46875 6.57813,-0.9375 C6.57813,-0.0416667 6.11979,0.796875 5.20313,1.57813 C4.26563,2.35938 3.26042,2.75 2.1875,2.75 C1.5625,2.75 1.03646,2.58854 0.609375,2.26563 C0.203125,1.91146 0,1.46875 0,0.9375 C0,0.0416667 0.46875,-0.796875 1.40625,-1.57813 C2.32292,-2.35938 3.31771,-2.75 4.39063,-2.75"/>
<path class="Note" fill="#ffffff" fill-rule="evenodd" d="M197.632,141.102 L203.593,141.102 L203.593,148.554 L197.632,148.554 L197.632,141.102 "/>
<path class="Note" transform="matrix(0.9936,0,0,0.9936,198.129,148.306)" d="M0.453125,-4.17188 C0.494792,-5.64063 1.19792,-6.38021 2.5625,-6.39063 C3.28125,-6.39063 3.83333,-6.14583 4.21875,-5.65625 C4.46875,-5.32292 4.59375,-4.93229 4.59375,-4.48438 C4.59375,-3.68229 4.14583,-3.03125 3.25,-2.53125 L2.34375,-2.04688 C1.79167,-1.75521 1.44271,-1.4375 1.29688,-1.09375 C1.24479,-0.989583 1.21354,-0.869792 1.20313,-0.734375 L4.5625,-0.734375 L4.5625,0 L0.3125,0 C0.354167,-0.760417 0.520833,-1.33854 0.8125,-1.73438 C1.07292,-2.05729 1.5,-2.38542 2.09375,-2.71875 L2.92188,-3.1875 C3.49479,-3.52083 3.78646,-3.94271 3.79688,-4.45313 C3.79688,-4.88021 3.61458,-5.21354 3.25,-5.45313 C3.04167,-5.57813 2.80208,-5.64063 2.53125,-5.64063 C1.73958,-5.64063 1.3125,-5.16667 1.25,-4.21875 C1.25,-4.19792 1.25,-4.18229 1.25,-4.17188 L0.453125,-4.17188 "/>
<path class="Note" fill="#ff9ee6" transform="matrix(0.9936,0,0,0.9936,196.887,90.18)" d="M4.39063,-2.75 C5.01563,-2.75 5.54688,-2.58854 5.98438,-2.26563 C6.38021,-1.91146 6.57813,-1.46875 6.57813,-0.9375 C6.57813,-0.0416667 6.11979,0.796875 5.20313,1.57813 C4.26563,2.35938 3.26042,2.75 2.1875,2.75 C1.5625,2.75 1.03646,2.58854 0.609375,2.26563 C0.203125,1.91146 0,1.46875 0,0.9375 C0,0.0416667 0.46875,-0.796875 1.40625,-1.57813 C2.32292,-2.35938 3.31771,-2.75 4.39063,-2.75"/>
<path class="Note" fill="#ffffff" fill-rule="evenodd" d="M132.416,148.554 L138.378,148.554 L138.378,156.006 L132.416,156.006 L132.416,148.554 "/>
<path class="Note" transform="matrix(0.9936,0,0,0.9936,132.913,155.758)" d="M2.4375,-5.64063 C1.75,-5.64063 1.35417,-5.32813 1.25,-4.70313 C1.22917,-4.59896 1.21875,-4.47917 1.21875,-4.34375 L0.421875,-4.34375 C0.442708,-5.59375 1.01563,-6.27083 2.14063,-6.375 C2.23438,-6.38542 2.32813,-6.39063 2.42188,-6.39063 C3.26563,-6.39063 3.84375,-6.10938 4.15625,-5.54688 C4.29167,-5.28646 4.35938,-4.98438 4.35938,-4.64063 C4.35938,-4.00521 4.0625,-3.57292 3.46875,-3.34375 C4.03125,-3.14583 4.375,-2.81771 4.5,-2.35938 C4.54167,-2.19271 4.5625,-2.00521 4.5625,-1.79688 C4.5625,-1.05729 4.27604,-0.505208 3.70313,-0.140625 C3.33854,0.0885417 2.90104,0.203125 2.39063,0.203125 C1.21354,0.203125 0.526042,-0.348958 0.328125,-1.45313 C0.317708,-1.57813 0.302083,-1.71354 0.28125,-1.85938 L1.07813,-1.85938 C1.13021,-1.08854 1.46875,-0.65625 2.09375,-0.5625 C2.19792,-0.541667 2.30729,-0.53125 2.42188,-0.53125 C3.04688,-0.53125 3.45313,-0.765625 3.64063,-1.23438 C3.71354,-1.40104 3.75,-1.58854 3.75,-1.79688 C3.73958,-2.54688 3.29688,-2.92708 2.42188,-2.9375 L2.09375,-2.92188 L1.98438,-2.92188 L1.98438,-3.67188 C2.66146,-3.68229 3.10417,-3.77604 3.3125,-3.95313 C3.47917,-4.09896 3.5625,-4.31771 3.5625,-4.60938 C3.5625,-5.09896 3.34896,-5.41667 2.92188,-5.5625 C2.77604,-5.61458 2.61458,-5.64063 2.4375,-5.64063"/>
<path class="Note" fill="#99cc33" transform="matrix(0.9936,0,0,0.9936,131.671,95.148)" d="M4.39063,-2.75 C5.01563,-2.75 5.54688,-2.58854 5.98438,-2.26563 C6.38021,-1.91146 6.57813,-1.46875 6.57813,-0.9375 C6.57813,-0.0416667 6.11979,0.796875 5.20313,1.57813 C4.26563,2.35938 3.26042,2.75 2.1875,2.75 C1.5625,2.75 1.03646,2.58854 0.609375,2.26563 C0.203125,1.91146 0,1.46875 0,0.9375 C0,0.0416667 0.46875,-0.796875 1.40625,-1.57813 C2.32292,-2.35938 3.31771,-2.75 4.39063,-2.75"/>
<path class="Note" fill="#ffffff" fill-rule="evenodd" d="M67.2007,148.554 L73.1623,148.554 L73.1623,156.006 L67.2007,156.006 L67.2007,148.554 "/>
<path class="Note" transform="matrix(0.9936,0,0,0.9936,67.6975,155.758)" d="M0.390625,-3.09375 C0.390625,-5 0.927083,-6.07813 2,-6.32813 C2.14583,-6.36979 2.30208,-6.39063 2.46875,-6.39063 C3.78125,-6.39063 4.47917,-5.40104 4.5625,-3.42188 C4.5625,-3.28646 4.5625,-3.15625 4.5625,-3.03125 C4.5625,-1.40625 4.15104,-0.385417 3.32813,0.03125 C3.06771,0.145833 2.78125,0.203125 2.46875,0.203125 C1.41667,0.203125 0.760417,-0.442708 0.5,-1.73438 C0.427083,-2.14063 0.390625,-2.59375 0.390625,-3.09375 M2.46875,-5.64063 C1.625,-5.63021 1.20313,-4.77083 1.20313,-3.0625 C1.20313,-1.32292 1.61979,-0.453125 2.45313,-0.453125 C3.16146,-0.453125 3.57813,-1.02604 3.70313,-2.17188 C3.73438,-2.44271 3.75,-2.75 3.75,-3.09375 C3.75,-4.79167 3.32292,-5.64063 2.46875,-5.64063"/>
<path class="Note" fill="#ff9933" transform="matrix(0.9936,0,0,0.9936,66.4555,100.116)" d="M4.39063,-2.75 C5.01563,-2.75 5.54688,-2.58854 5.98438,-2.26563 C6.38021,-1.91146 6.57813,-1.46875 6.57813,-0.9375 C6.57813,-0.0416667 6.11979,0.796875 5.20313,1.57813 C4.26563,2.35938 3.26042,2.75 2.1875,2.75 C1.5625,2.75 1.03646,2.58854 0.609375,2.26563 C0.203125,1.91146 0,1.46875 0,0.9375 C0,0.0416667 0.46875,-0.796875 1.40625,-1.57813 C2.32292,-2.35938 3.31771,-2.75 4.39063,-2.75"/>
<path class="Clef" transform="matrix(0.9936,0,0,0.9936,32.0544,133.65)" d="M5.32813,8.5 C5.32813,8.86458 5.04167,9.04688 4.46875,9.04688 C4.02083,9.04688 3.625,8.91146 3.28125,8.64063 C2.95833,8.34896 2.79688,7.98438 2.79688,7.54688 C2.79688,6.76563 3.27083,6.14063 4.21875,5.67188 C5.14583,5.18229 6.23438,4.9375 7.48438,4.9375 C7.96354,4.9375 8.47917,4.97396 9.03125,5.04688 C9.42708,5.09896 9.875,5.20313 10.375,5.35938 C10.8125,5.49479 11.1563,5.70573 11.4063,5.99219 C11.6563,6.27865 11.7813,6.61458 11.7813,7 C11.7813,7.89583 11.3177,8.63021 10.3906,9.20313 C11.7448,9.45313 12.4271,10.0573 12.4375,11.0156 C12.4375,11.8281 12.0729,12.5599 11.3438,13.2109 C10.6146,13.862 9.79167,14.1875 8.875,14.1875 C8.47917,14.1875 8.07813,14.0938 7.67188,13.9063 C7.29688,13.7292 7.03125,13.5625 6.875,13.4063 C6.71875,13.2188 6.64063,13.0781 6.64063,12.9844 C6.64063,12.8594 6.70833,12.75 6.84375,12.6563 C6.95833,12.5417 7.07813,12.4844 7.20313,12.4844 C7.25521,12.4844 7.36719,12.5677 7.53906,12.7344 C7.71094,12.901 7.95833,12.9844 8.28125,12.9844 C8.72917,12.9844 9.16146,12.7969 9.57813,12.4219 C9.97396,12.0573 10.1719,11.6198 10.1719,11.1094 C10.1719,10.6719 9.98438,10.3542 9.60938,10.1563 C9.24479,9.95833 8.76563,9.85938 8.17188,9.85938 C8.06771,9.85938 8.01563,9.75 8.01563,9.53125 C8.01563,9.21875 8.13021,9.0625 8.35938,9.0625 C8.72396,9.0625 9.05208,8.90625 9.34375,8.59375 C9.61458,8.26042 9.75,7.90104 9.75,7.51563 C9.75,7.40104 9.71875,7.22917 9.65625,7 C9.60417,6.84375 9.44792,6.65104 9.1875,6.42188 C8.9375,6.21354 8.58854,6.07292 8.14063,6 C8.02604,6.63542 7.88021,7.44792 7.70313,8.4375 C7.52604,9.42708 7.40625,10.0781 7.34375,10.3906 C7.125,11.5156 6.72396,12.4583 6.14063,13.2188 C5.52604,14.0313 4.86458,14.4375 4.15625,14.4375 C3.9375,14.4375 3.71354,14.3854 3.48438,14.2813 C3.29688,14.1979 3.0625,14.0365 2.78125,13.7969 C2.52083,13.5885 2.34375,13.4479 2.25,13.375 C2.19792,13.3438 2.17188,13.2865 2.17188,13.2031 C2.17188,13.0781 2.21875,12.9635 2.3125,12.8594 C2.41667,12.7344 2.52604,12.6719 2.64063,12.6719 C2.71354,12.6719 2.89323,12.7969 3.17969,13.0469 C3.46615,13.2969 3.76563,13.4219 4.07813,13.4219 C4.68229,13.4219 5.13542,13.0365 5.4375,12.2656 C5.71875,11.526 5.85938,10.6094 5.85938,9.51563 L5.85938,9.35938 C5.85938,8.63021 5.97917,7.54167 6.21875,6.09375 C5.80208,6.22917 5.46875,6.42708 5.21875,6.6875 C4.95833,6.94792 4.82813,7.21875 4.82813,7.5 C4.82813,7.71875 4.91146,7.90625 5.07813,8.0625 C5.24479,8.21875 5.32813,8.36458 5.32813,8.5 M1.40625,2.39063 C1.46875,2.39063 1.625,2.45313 1.875,2.57813 C2.13542,2.71354 2.35938,2.78125 2.54688,2.78125 C3.03646,2.78125 3.64063,2.42188 4.35938,1.70313 C6.43229,-0.411458 7.85938,-2.65104 8.64063,-5.01563 C8.79688,-5.51563 9.17708,-5.76563 9.78125,-5.76563 C10.0938,-5.76563 10.3646,-5.69792 10.5938,-5.5625 C10.8125,-5.42708 10.9219,-5.28646 10.9219,-5.14063 L10.5625,2.17188 C10.5625,2.55729 10.7031,2.75 10.9844,2.75 C11.1198,2.75 11.3281,2.6875 11.6094,2.5625 C11.8698,2.42708 12.026,2.35938 12.0781,2.35938 C12.1823,2.35938 12.2448,2.47396 12.2656,2.70313 C12.2656,2.91146 12.1823,3.04167 12.0156,3.09375 C11.8802,3.125 11.6198,3.24479 11.2344,3.45313 C10.8281,3.66146 10.5104,3.76563 10.2813,3.76563 C9.78125,3.76563 9.42708,3.375 9.21875,2.59375 C8.89583,1.375 8.6875,0.104167 8.59375,-1.21875 C8.07292,-0.552083 7.49479,0.119792 6.85938,0.796875 C7.08854,1.24479 7.51563,1.46875 8.14063,1.46875 C8.23438,1.46875 8.30729,1.46354 8.35938,1.45313 L8.375,1.45313 C8.47917,1.45313 8.53125,1.54688 8.53125,1.73438 C8.53125,1.98438 8.44792,2.13542 8.28125,2.1875 C8.01042,2.28125 7.72396,2.32813 7.42188,2.32813 C6.77604,2.32813 6.30729,2.10417 6.01563,1.65625 L5.23438,2.35938 C4.14063,3.29688 3.25,3.76563 2.5625,3.76563 C2.375,3.76563 2.1875,3.73438 2,3.67188 C1.84375,3.60938 1.66146,3.51042 1.45313,3.375 C1.36979,3.34375 1.27865,3.29688 1.17969,3.23438 C1.08073,3.17188 1.02083,3.13542 1,3.125 C0.9375,3.10417 0.90625,3.04688 0.90625,2.95313 C0.90625,2.84896 0.958333,2.72396 1.0625,2.57813 C1.14583,2.45313 1.26042,2.39063 1.40625,2.39063 M5.76563,-10.7969 C5.76563,-10.474 5.48438,-10.3125 4.92188,-10.3125 C4.43229,-10.3125 4.00521,-10.474 3.64063,-10.7969 C3.28646,-11.1302 3.10938,-11.5313 3.10938,-12 C3.10938,-12.4479 3.25,-12.8385 3.53125,-13.1719 C3.83333,-13.5052 4.21875,-13.7552 4.6875,-13.9219 C5.11458,-14.0781 5.59896,-14.2031 6.14063,-14.2969 C6.69271,-14.3594 7.22396,-14.3906 7.73438,-14.3906 C8.03646,-14.3906 8.59896,-14.2552 9.42188,-13.9844 C10.2552,-13.7135 10.8333,-13.5781 11.1563,-13.5781 C11.5625,-13.5781 11.9479,-13.651 12.3125,-13.7969 C12.6042,-13.9219 12.8906,-14.0677 13.1719,-14.2344 C13.3906,-14.3802 13.5104,-14.4531 13.5313,-14.4531 C13.6563,-14.4531 13.7604,-14.4167 13.8438,-14.3438 C13.9479,-14.2396 14,-14.151 14,-14.0781 C14,-13.9948 13.8802,-13.849 13.6406,-13.6406 C13.3802,-13.401 13.0078,-13.1641 12.5234,-12.9297 C12.0391,-12.6953 11.5313,-12.5781 11,-12.5781 C10.7604,-12.5781 10.4688,-12.6198 10.125,-12.7031 C9.89583,-11.2552 9.66146,-9.96875 9.42188,-8.84375 C9.21354,-7.85417 8.79688,-6.98958 8.17188,-6.25 C7.56771,-5.51042 6.89583,-5.14063 6.15625,-5.14063 C5.85417,-5.14063 5.58854,-5.19792 5.35938,-5.3125 C5.09896,-5.44792 4.82292,-5.64583 4.53125,-5.90625 C4.30208,-6.09375 4.08333,-6.26563 3.875,-6.42188 C3.82292,-6.46354 3.79688,-6.52604 3.79688,-6.60938 C3.79688,-6.69271 3.84896,-6.80729 3.95313,-6.95313 C4.05729,-7.06771 4.15104,-7.125 4.23438,-7.125 C4.31771,-7.125 4.54167,-6.96354 4.90625,-6.64063 C5.27083,-6.31771 5.59375,-6.15625 5.875,-6.15625 C6.39583,-6.15625 6.80208,-6.45313 7.09375,-7.04688 C7.375,-7.64063 7.53646,-8.34375 7.57813,-9.15625 C7.64063,-10.5 7.79167,-11.8906 8.03125,-13.3281 C7.73958,-13.3906 7.52604,-13.4219 7.39063,-13.4219 C6.76563,-13.4219 6.22917,-13.2917 5.78125,-13.0313 C5.34375,-12.7813 5.125,-12.4427 5.125,-12.0156 C5.125,-11.7031 5.22917,-11.4635 5.4375,-11.2969 C5.65625,-11.1094 5.76563,-10.9427 5.76563,-10.7969"/>
<path class="Clef" transform="matrix(0.9936,0,0,0.9936,32.0544,77.76)" d="M7.34375,-5.125 C7.34375,-5.125 7.38542,-5.125 7.46875,-5.125 C7.52083,-5.13542 7.5625,-5.14063 7.59375,-5.14063 C9.05208,-5.14063 10.25,-4.625 11.1875,-3.59375 C12.125,-2.58333 12.5938,-1.40104 12.5938,-0.046875 C12.5938,1.64063 11.901,3.01042 10.5156,4.0625 C10.151,4.35417 9.67188,4.58854 9.07813,4.76563 C9.15104,5.60938 9.1875,6.29167 9.1875,6.8125 C9.1875,6.91667 9.17188,7.29688 9.14063,7.95313 C9.08854,9.16146 8.67188,10.2083 7.89063,11.0938 C7.14063,11.9688 6.20313,12.4063 5.07813,12.4063 C4.02604,12.4063 3.13021,12.0365 2.39063,11.2969 C1.64063,10.5365 1.26563,9.625 1.26563,8.5625 C1.26563,8 1.48438,7.52083 1.92188,7.125 C2.35938,6.73958 2.86979,6.54688 3.45313,6.54688 C3.97396,6.54688 4.41146,6.75 4.76563,7.15625 C5.13021,7.53125 5.3125,8 5.3125,8.5625 C5.3125,9.0625 5.13021,9.49479 4.76563,9.85938 C4.40104,10.224 3.96354,10.4063 3.45313,10.4063 C3.24479,10.4063 3.04688,10.3698 2.85938,10.2969 C3.43229,11.1406 4.19271,11.5625 5.14063,11.5625 C6.03646,11.5625 6.77083,11.1979 7.34375,10.4688 C7.94792,9.71875 8.27604,8.83854 8.32813,7.82813 C8.34896,7.20313 8.35938,6.84896 8.35938,6.76563 C8.35938,6.03646 8.33333,5.4375 8.28125,4.96875 C7.63542,5.07292 7.05729,5.125 6.54688,5.125 C4.73438,5.125 3.19271,4.40625 1.92188,2.96875 C0.671875,1.52083 0.046875,-0.197917 0.046875,-2.1875 C0.046875,-2.60417 0.0833333,-3.02604 0.15625,-3.45313 C0.239583,-3.80729 0.338542,-4.19271 0.453125,-4.60938 C0.515625,-4.84896 0.692708,-5.22917 0.984375,-5.75 C1.08854,-5.90625 1.20573,-6.10156 1.33594,-6.33594 C1.46615,-6.57031 1.55729,-6.72396 1.60938,-6.79688 C1.73438,-7.05729 1.98438,-7.41146 2.35938,-7.85938 C2.46354,-7.97396 2.57292,-8.10156 2.6875,-8.24219 C2.80208,-8.38281 2.89844,-8.5 2.97656,-8.59375 C3.05469,-8.6875 3.11198,-8.76042 3.14844,-8.8125 C3.1849,-8.86458 3.47917,-9.20833 4.03125,-9.84375 C4.15625,-9.97917 4.28125,-10.1198 4.40625,-10.2656 C4.53125,-10.4115 4.63281,-10.5286 4.71094,-10.6172 C4.78906,-10.7057 4.84896,-10.7656 4.89063,-10.7969 C4.42188,-12.349 4.125,-13.5885 4,-14.5156 C3.91667,-15.2552 3.875,-16.2708 3.875,-17.5625 C3.875,-18.6979 4.13542,-19.7604 4.65625,-20.75 C5.15625,-21.7708 5.86458,-22.6094 6.78125,-23.2656 C6.84375,-23.3073 6.90625,-23.3281 6.96875,-23.3281 C7.0625,-23.3281 7.13021,-23.3073 7.17188,-23.2656 C7.86979,-22.4219 8.47396,-21.3229 8.98438,-19.9688 C9.50521,-18.6146 9.76563,-17.3802 9.76563,-16.2656 C9.76563,-15.0156 9.46875,-13.8438 8.875,-12.75 C8.19792,-11.5938 7.32292,-10.3958 6.25,-9.15625 C6.52083,-8.30208 6.88542,-6.95833 7.34375,-5.125 M9,3.96875 C9.67708,3.71875 10.2083,3.29688 10.5938,2.70313 C11.0104,2.13021 11.2188,1.48438 11.2188,0.765625 C11.2188,-0.161458 10.9063,-0.984375 10.2813,-1.70313 C9.63542,-2.44271 8.81771,-2.85938 7.82813,-2.95313 C8.39063,-0.203125 8.78125,2.10417 9,3.96875 M1.45313,-0.546875 C1.45313,0.744792 1.97396,1.88021 3.01563,2.85938 C4.07813,3.80729 5.27604,4.28125 6.60938,4.28125 C7.15104,4.28125 7.68229,4.23958 8.20313,4.15625 C7.99479,2.17708 7.58333,-0.192708 6.96875,-2.95313 C6.22917,-2.86979 5.64063,-2.60938 5.20313,-2.17188 C4.76563,-1.71354 4.54688,-1.19792 4.54688,-0.625 C4.54688,0.364583 5.07813,1.16667 6.14063,1.78125 C6.22396,1.875 6.26563,1.97396 6.26563,2.07813 C6.26563,2.18229 6.22396,2.27604 6.14063,2.35938 C6.05729,2.45313 5.95833,2.5 5.84375,2.5 C5.83333,2.5 5.77604,2.48958 5.67188,2.46875 C4.92188,2.0625 4.34896,1.54167 3.95313,0.90625 C3.56771,0.21875 3.375,-0.46875 3.375,-1.15625 C3.375,-2.05208 3.65625,-2.86458 4.21875,-3.59375 C4.80208,-4.32292 5.5625,-4.79167 6.5,-5 C6.13542,-6.45833 5.83854,-7.59896 5.60938,-8.42188 C5.40104,-8.18229 5.15104,-7.89844 4.85938,-7.57031 C4.56771,-7.24219 4.39583,-7.04167 4.34375,-6.96875 C3.875,-6.36458 3.51563,-5.89063 3.26563,-5.54688 C2.81771,-4.93229 2.48958,-4.40625 2.28125,-3.96875 C2.0625,-3.46875 1.86979,-2.92708 1.70313,-2.34375 C1.53646,-1.78125 1.45313,-1.18229 1.45313,-0.546875 M7.96875,-20.4063 C6.98958,-19.9271 6.22396,-19.2396 5.67188,-18.3438 C5.09896,-17.4167 4.8125,-16.4219 4.8125,-15.3594 C4.8125,-14.4219 5.04688,-13.1563 5.51563,-11.5625 C6.45313,-12.6979 7.15625,-13.7448 7.625,-14.7031 C8.11458,-15.724 8.35938,-16.7865 8.35938,-17.8906 C8.35938,-18.724 8.22917,-19.5625 7.96875,-20.4063 M5.82813,15.2344 C6.16146,14.901 6.32813,14.5625 6.32813,14.2188 C6.30729,13.9479 6.19271,13.7396 5.98438,13.5938 C5.74479,13.4375 5.46875,13.3594 5.15625,13.3594 C4.9375,13.3594 4.75521,13.4323 4.60938,13.5781 C4.48438,13.7031 4.42188,13.8646 4.42188,14.0625 C4.42188,14.3021 4.51563,14.4792 4.70313,14.5938 L5.82813,15.2344 M6.14063,15.4063 C6.68229,15.7083 6.95313,16.1146 6.95313,16.625 L6.95313,16.6875 C6.95313,17.0833 6.79167,17.4219 6.46875,17.7031 C6.14583,17.9844 5.68229,18.125 5.07813,18.125 C4.58854,18.125 4.16146,17.9948 3.79688,17.7344 C3.43229,17.4844 3.25,17.1458 3.25,16.7188 C3.25,16.5521 3.29167,16.3958 3.375,16.25 C3.47917,16.0833 3.56771,15.9688 3.64063,15.9063 L4,15.5313 C3.60417,15.2604 3.40625,14.901 3.40625,14.4531 C3.40625,14.099 3.5625,13.7865 3.875,13.5156 C4.19792,13.2552 4.625,13.125 5.15625,13.125 C5.60417,13.125 5.98438,13.224 6.29688,13.4219 C6.60938,13.6198 6.76563,13.8854 6.76563,14.2188 C6.76563,14.5729 6.55729,14.9688 6.14063,15.4063 M4.29688,15.7031 C3.91146,16.0469 3.70313,16.3854 3.67188,16.7188 C3.70313,17.0729 3.84896,17.3542 4.10938,17.5625 C4.39063,17.7813 4.71354,17.8906 5.07813,17.8906 C5.33854,17.8906 5.54688,17.8073 5.70313,17.6406 C5.85938,17.4844 5.9375,17.2969 5.9375,17.0781 C5.92708,16.7865 5.8125,16.5781 5.59375,16.4531 L4.29688,15.7031 "/>
<path class="KeySig" transform="matrix(0.9936,0,0,0.9936,49.3492,62.856)" d="M4.3125,6.23438 C4.3125,6.48438 4.1901,6.60938 3.94531,6.60938 C3.70052,6.60938 3.57813,6.48438 3.57813,6.23438 L3.57813,3.34375 L1.92188,3.96875 L1.92188,7.125 C1.92188,7.375 1.79688,7.5 1.54688,7.5 C1.29688,7.5 1.17188,7.375 1.17188,7.125 L1.17188,4.21875 L0.546875,4.45313 C0.536458,4.46354 0.484375,4.46875 0.390625,4.46875 C0.286458,4.46875 0.195313,4.42969 0.117188,4.35156 C0.0390625,4.27344 0,4.18229 0,4.07813 L0,2.875 C0,2.67708 0.0833333,2.55208 0.25,2.5 L1.17188,2.1875 L1.17188,-1.01563 L0.546875,-0.796875 C0.536458,-0.786458 0.484375,-0.78125 0.390625,-0.78125 C0.286458,-0.78125 0.195313,-0.820313 0.117188,-0.898438 C0.0390625,-0.976563 0,-1.06771 0,-1.17188 L0,-2.39063 C0,-2.56771 0.0833333,-2.68229 0.25,-2.73438 L1.17188,-3.09375 L1.17188,-6.23438 C1.17188,-6.48438 1.29688,-6.60938 1.54688,-6.60938 C1.79688,-6.60938 1.92188,-6.48438 1.92188,-6.23438 L1.92188,-3.34375 L3.57813,-3.96875 L3.57813,-7.125 C3.57813,-7.375 3.70052,-7.5 3.94531,-7.5 C4.1901,-7.5 4.3125,-7.375 4.3125,-7.125 L4.3125,-4.21875 L4.96875,-4.45313 C4.97917,-4.46354 5.02083,-4.46875 5.09375,-4.46875 C5.1875,-4.46875 5.28646,-4.43229 5.39063,-4.35938 C5.47396,-4.27604 5.51563,-4.18229 5.51563,-4.07813 L5.51563,-2.875 C5.51563,-2.6875 5.42188,-2.5625 5.23438,-2.5 L4.3125,-2.1875 L4.3125,1.01563 L4.96875,0.796875 C4.97917,0.786458 5.02083,0.78125 5.09375,0.78125 C5.1875,0.78125 5.28646,0.822917 5.39063,0.90625 C5.47396,0.979167 5.51563,1.06771 5.51563,1.17188 L5.51563,2.39063 C5.51563,2.55729 5.42188,2.67188 5.23438,2.73438 L4.3125,3.09375 L4.3125,6.23438 M3.57813,-1.89063 L1.92188,-1.3125 L1.92188,1.89063 L3.57813,1.3125 L3.57813,-1.89063 "/>
<path class="Fingering" d="M453.086,102.725 C452.492,102.725 452.028,102.418 451.695,101.803 C451.414,101.303 451.273,100.678 451.273,99.9285 C451.273,99.0327 451.482,98.3295 451.898,97.8191 C452.232,97.4233 452.638,97.2202 453.117,97.2097 C453.679,97.2097 454.122,97.4962 454.445,98.0691 C454.747,98.5795 454.898,99.215 454.898,99.9754 C454.898,100.944 454.674,101.684 454.226,102.194 C453.903,102.548 453.523,102.725 453.086,102.725 M453.086,97.4129 C452.44,97.4129 452.091,98.1837 452.039,99.7254 C452.039,99.8191 452.039,99.9129 452.039,100.007 C452.049,101.673 452.398,102.512 453.086,102.522 C453.773,102.512 454.117,101.668 454.117,99.991 C454.117,98.4702 453.846,97.6212 453.304,97.4441 C453.232,97.4233 453.159,97.4129 453.086,97.4129"/>
<path class="Fingering" d="M389.831,95.8355 L389.831,96.3199 L389.003,96.3199 L389.003,97.648 L388.393,97.648 L388.393,96.3199 L386.143,96.3199 L386.143,95.8355 L388.659,92.2417 L389.003,92.2417 L389.003,95.8355 L389.831,95.8355 M388.378,95.8355 L388.378,93.0855 L386.471,95.8355 L388.378,95.8355 "/>
<path class="Fingering" d="M321.084,88.8675 C321.323,87.8467 321.849,87.3206 322.662,87.2894 C322.693,87.2894 322.719,87.2894 322.74,87.2894 C323.23,87.2894 323.62,87.4665 323.912,87.8206 C324.12,88.081 324.224,88.3727 324.224,88.6956 C324.224,89.2894 323.907,89.93 323.271,90.6175 C323.25,90.6383 323.224,90.6592 323.193,90.68 L321.865,92.1019 L323.771,92.1019 C323.98,92.1019 324.141,92.0446 324.256,91.93 C324.329,91.8571 324.417,91.7373 324.521,91.5706 L324.631,91.6019 L324.193,92.68 L321.068,92.68 L321.068,92.5862 L322.49,91.0706 C323.167,90.331 323.516,89.6383 323.537,88.9925 C323.537,88.5446 323.365,88.2217 323.021,88.0237 C322.844,87.9196 322.641,87.8675 322.412,87.8675 C322.058,87.8675 321.782,88.0029 321.584,88.2737 C321.469,88.43 321.36,88.6435 321.256,88.9144 L321.084,88.8675 "/>
<path class="Fingering" d="M256.259,84.603 C256.384,84.603 256.566,84.6707 256.806,84.8061 C257.056,84.9624 257.269,85.0405 257.446,85.0405 C257.811,85.0405 258.097,84.879 258.306,84.5561 C258.431,84.3478 258.493,84.1134 258.493,83.853 C258.493,83.0926 258.04,82.6759 257.134,82.603 C257.04,82.5926 256.941,82.5874 256.837,82.5874 L256.837,82.478 C257.441,82.2801 257.837,82.0249 258.024,81.7124 C258.118,81.5457 258.165,81.3634 258.165,81.1655 C258.165,80.8113 258.019,80.5561 257.728,80.3999 C257.592,80.3374 257.446,80.3061 257.29,80.3061 C256.842,80.3061 256.472,80.5405 256.181,81.0092 C256.149,81.0509 256.123,81.0978 256.103,81.1499 L255.978,81.1186 C256.228,80.4415 256.592,80.0301 257.071,79.8842 C257.217,79.8426 257.379,79.8217 257.556,79.8217 C258.035,79.8217 258.389,79.9884 258.618,80.3217 C258.743,80.4988 258.806,80.6967 258.806,80.9155 C258.806,81.2384 258.655,81.5301 258.353,81.7905 C258.259,81.8634 258.16,81.9415 258.056,82.0249 C258.535,82.2332 258.842,82.5197 258.978,82.8842 C259.04,83.0613 259.071,83.2592 259.071,83.478 C259.071,84.1134 258.806,84.6082 258.274,84.9624 C257.879,85.2124 257.41,85.3374 256.868,85.3374 C256.379,85.3374 256.087,85.228 255.993,85.0092 C255.972,84.9676 255.962,84.9259 255.962,84.8842 C255.962,84.728 256.04,84.6395 256.196,84.6186 C256.217,84.6082 256.238,84.603 256.259,84.603"/>
<path class="Fingering" d="M190.653,88.8675 C190.892,87.8467 191.418,87.3206 192.231,87.2894 C192.262,87.2894 192.288,87.2894 192.309,87.2894 C192.798,87.2894 193.189,87.4665 193.481,87.8206 C193.689,88.081 193.793,88.3727 193.793,88.6956 C193.793,89.2894 193.476,89.93 192.84,90.6175 C192.819,90.6383 192.793,90.6592 192.762,90.68 L191.434,92.1019 L193.34,92.1019 C193.548,92.1019 193.71,92.0446 193.825,91.93 C193.897,91.8571 193.986,91.7373 194.09,91.5706 L194.2,91.6019 L193.762,92.68 L190.637,92.68 L190.637,92.5862 L192.059,91.0706 C192.736,90.331 193.085,89.6383 193.106,88.9925 C193.106,88.5446 192.934,88.2217 192.59,88.0237 C192.413,87.9196 192.21,87.8675 191.981,87.8675 C191.627,87.8675 191.351,88.0029 191.153,88.2737 C191.038,88.43 190.929,88.6435 190.825,88.9144 L190.653,88.8675 "/>
<path class="Fingering" d="M128.968,95.8355 L128.968,96.3199 L128.14,96.3199 L128.14,97.648 L127.531,97.648 L127.531,96.3199 L125.281,96.3199 L125.281,95.8355 L127.796,92.2417 L128.14,92.2417 L128.14,95.8355 L128.968,95.8355 M127.515,95.8355 L127.515,93.0855 L125.609,95.8355 L127.515,95.8355 "/>
<path class="Fingering" d="M61.9715,102.725 C61.3777,102.725 60.9142,102.418 60.5808,101.803 C60.2996,101.303 60.159,100.678 60.159,99.9285 C60.159,99.0327 60.3673,98.3295 60.784,97.8191 C61.1173,97.4233 61.5236,97.2202 62.0027,97.2097 C62.5652,97.2097 63.0079,97.4962 63.3308,98.0691 C63.6329,98.5795 63.784,99.215 63.784,99.9754 C63.784,100.944 63.56,101.684 63.1121,102.194 C62.7892,102.548 62.409,102.725 61.9715,102.725 M61.9715,97.4129 C61.3256,97.4129 60.9767,98.1837 60.9246,99.7254 C60.9246,99.8191 60.9246,99.9129 60.9246,100.007 C60.935,101.673 61.284,102.512 61.9715,102.522 C62.659,102.512 63.0027,101.668 63.0027,99.991 C63.0027,98.4702 62.7319,97.6212 62.1902,97.4441 C62.1173,97.4233 62.0444,97.4129 61.9715,97.4129"/>
<path class="Tempo" d="M60.2121,40.4371 C60.0089,40.2809 59.7589,40.1871 59.4464,40.1871 C58.2589,40.1871 57.3058,41.0621 57.3058,41.9996 C57.3058,42.5621 57.7589,42.9059 58.3527,42.9059 C59.3058,42.9059 60.4933,41.9996 60.4933,41.0934 L60.4933,34.9527 L60.2121,34.9527 L60.2121,40.4371 "/>
<path class="Tempo" d="M70.8527,39.0152 L64.2433,39.0152 L64.2433,37.859 L70.8527,37.859 L70.8527,39.0152 M70.8527,41.9371 L64.2433,41.9371 L64.2433,40.7965 L70.8527,40.7965 L70.8527,41.9371 M76.2902,36.0465 C76.1652,36.0465 75.8475,36.1402 75.3371,36.3277 C75.3058,36.3382 75.285,36.3486 75.2746,36.359 L75.2746,36.0465 L78.2902,34.734 L78.4933,34.734 L78.4933,41.5621 C78.4933,42.0517 78.5923,42.3642 78.7902,42.4996 C78.9673,42.6246 79.3006,42.6923 79.7902,42.7027 L79.7902,42.984 L75.2902,42.984 L75.2902,42.7027 C75.9464,42.6923 76.3579,42.5882 76.5246,42.3902 C76.66,42.2236 76.7277,41.9267 76.7277,41.4996 L76.7277,36.8746 C76.7173,36.333 76.5714,36.0569 76.2902,36.0465 M80.7746,38.9059 C80.7746,37.5934 81.0871,36.5309 81.7121,35.7184 C82.2225,35.0725 82.8162,34.7444 83.4933,34.734 C84.2746,34.734 84.9204,35.1402 85.4308,35.9527 C85.9412,36.7652 86.1964,37.76 86.1964,38.9371 C86.1964,40.3121 85.8787,41.4059 85.2433,42.2184 C84.7433,42.8225 84.1652,43.1298 83.5089,43.1402 C82.6756,43.1402 82.0037,42.7132 81.4933,41.859 C81.0141,41.0673 80.7746,40.083 80.7746,38.9059 M83.5089,42.7965 C83.8631,42.7965 84.0975,42.4736 84.2121,41.8277 C84.2746,41.4423 84.3058,40.9423 84.3058,40.3277 L84.3058,37.5777 C84.3058,36.1402 84.1131,35.3225 83.7277,35.1246 C83.6548,35.083 83.5714,35.0621 83.4777,35.0621 C83.1131,35.0621 82.8735,35.3955 82.7589,36.0621 C82.7069,36.4371 82.6808,36.9423 82.6808,37.5777 L82.6808,40.3277 C82.6808,41.6819 82.8475,42.4736 83.1808,42.7027 C83.2746,42.7652 83.3839,42.7965 83.5089,42.7965 M86.7746,38.9059 C86.7746,37.5934 87.0871,36.5309 87.7121,35.7184 C88.2225,35.0725 88.8162,34.7444 89.4933,34.734 C90.2746,34.734 90.9204,35.1402 91.4308,35.9527 C91.9412,36.7652 92.1964,37.76 92.1964,38.9371 C92.1964,40.3121 91.8787,41.4059 91.2433,42.2184 C90.7433,42.8225 90.1652,43.1298 89.5089,43.1402 C88.6756,43.1402 88.0037,42.7132 87.4933,41.859 C87.0141,41.0673 86.7746,40.083 86.7746,38.9059 M89.5089,42.7965 C89.8631,42.7965 90.0975,42.4736 90.2121,41.8277 C90.2746,41.4423 90.3058,40.9423 90.3058,40.3277 L90.3058,37.5777 C90.3058,36.1402 90.1131,35.3225 89.7277,35.1246 C89.6548,35.083 89.5714,35.0621 89.4777,35.0621 C89.1131,35.0621 88.8735,35.3955 88.7589,36.0621 C88.7069,36.4371 88.6808,36.9423 88.6808,37.5777 L88.6808,40.3277 C88.6808,41.6819 88.8475,42.4736 89.1808,42.7027 C89.2746,42.7652 89.3839,42.7965 89.5089,42.7965"/>
<path class="StaffText" d="M69.7868,25.1911 C70.2347,25.1911 70.7347,25.3057 71.2868,25.5348 C71.5264,25.6286 71.6983,25.6755 71.8024,25.6755 C71.9483,25.6755 72.0785,25.5661 72.193,25.3473 C72.2035,25.3057 72.2191,25.264 72.2399,25.2223 L72.5055,25.2223 L72.5055,27.5661 L72.2555,27.5661 C71.9847,26.9619 71.7035,26.5192 71.4118,26.238 C71.3493,26.1755 71.292,26.1234 71.2399,26.0817 C70.8128,25.7067 70.3701,25.5192 69.9118,25.5192 C68.9118,25.5192 68.318,26.238 68.1305,27.6755 C68.0993,27.9984 68.0837,28.3473 68.0837,28.7223 C68.0837,29.9098 68.2972,30.7796 68.7243,31.3317 C69.0576,31.7484 69.516,31.9567 70.0993,31.9567 C70.6618,31.9567 70.9795,31.7796 71.0524,31.4255 C71.0628,31.363 71.068,31.2953 71.068,31.2223 L71.068,30.1755 C71.068,29.8838 70.9951,29.6963 70.8493,29.613 C70.7035,29.5401 70.4378,29.4932 70.0524,29.4723 L70.0524,29.2223 L73.4899,29.2223 L73.4899,29.4723 C73.0837,29.514 72.8337,29.6026 72.7399,29.738 C72.667,29.8526 72.6305,30.0713 72.6305,30.3942 L72.6305,31.6598 C72.0368,32.014 71.2503,32.2223 70.2712,32.2848 C70.1358,32.2848 70.0003,32.2848 69.8649,32.2848 C68.7503,32.2848 67.8597,31.9255 67.193,31.2067 C66.5993,30.5609 66.3024,29.7536 66.3024,28.7848 C66.3024,27.7432 66.6462,26.8786 67.3337,26.1911 C68.0003,25.5244 68.818,25.1911 69.7868,25.1911 M77.5524,28.8161 C77.3337,28.8161 77.1201,28.6963 76.9118,28.4567 C76.7972,28.3109 76.7139,28.2328 76.6618,28.2223 C76.443,28.2223 76.2764,28.3734 76.1618,28.6755 C76.0889,28.8317 76.0524,28.9984 76.0524,29.1755 L76.0524,31.0661 C76.0524,31.4307 76.1253,31.6546 76.2712,31.738 C76.3649,31.8005 76.5368,31.8421 76.7868,31.863 L76.7868,32.0973 L74.1462,32.0973 L74.1462,31.863 C74.417,31.8109 74.5785,31.7171 74.6305,31.5817 C74.6514,31.5088 74.6618,31.3994 74.6618,31.2536 L74.6618,28.3161 C74.6618,28.0557 74.5889,27.889 74.443,27.8161 C74.3701,27.7744 74.2712,27.7432 74.1462,27.7223 L74.1462,27.488 L76.0212,27.488 L76.0212,28.3161 C76.3962,27.764 76.766,27.4567 77.1305,27.3942 C77.2139,27.3734 77.292,27.363 77.3649,27.363 C77.7087,27.363 77.9535,27.5036 78.0993,27.7848 C78.1514,27.8994 78.1774,28.0192 78.1774,28.1442 C78.1774,28.4567 78.0524,28.6651 77.8024,28.7692 C77.7191,28.8005 77.6358,28.8161 77.5524,28.8161 M79.4274,28.0661 C79.4274,28.0973 79.4795,28.1911 79.5837,28.3473 C79.6774,28.4932 79.7243,28.6182 79.7243,28.7223 C79.7243,28.9828 79.5941,29.1598 79.3337,29.2536 C79.2399,29.2848 79.1462,29.3005 79.0524,29.3005 C78.6878,29.3005 78.4743,29.139 78.4118,28.8161 C78.4014,28.7536 78.3962,28.6963 78.3962,28.6442 C78.3962,28.1755 78.6514,27.8265 79.1618,27.5973 C79.4847,27.4411 79.8597,27.363 80.2868,27.363 C81.1618,27.363 81.7608,27.6026 82.0837,28.0817 C82.2087,28.2796 82.2712,28.5036 82.2712,28.7536 L82.2712,31.3317 C82.2816,31.488 82.3493,31.5713 82.4743,31.5817 C82.5264,31.5713 82.5628,31.5557 82.5837,31.5348 L82.693,31.4411 L82.8337,31.6442 C82.4378,32.0192 82.068,32.2171 81.7243,32.238 C81.3493,32.238 81.1045,32.0973 80.9899,31.8161 C80.9587,31.7223 80.9274,31.6234 80.8962,31.5192 C80.3545,31.988 79.8285,32.2276 79.318,32.238 C78.8805,32.238 78.5628,32.0713 78.3649,31.738 C78.2608,31.5713 78.2087,31.389 78.2087,31.1911 C78.2087,30.6078 78.6566,30.1338 79.5524,29.7692 C79.792,29.6651 80.2399,29.514 80.8962,29.3161 L80.8962,28.5817 C80.8962,28.0505 80.6774,27.7588 80.2399,27.7067 C80.1774,27.7067 80.1149,27.7067 80.0524,27.7067 C79.7608,27.7067 79.5628,27.7901 79.4587,27.9567 C79.4378,27.988 79.4274,28.0244 79.4274,28.0661 M80.8805,31.0817 L80.8805,29.6442 C80.0785,29.863 79.6722,30.264 79.6618,30.8473 C79.6618,31.1807 79.7712,31.389 79.9899,31.4723 C80.0524,31.4932 80.1149,31.5036 80.1774,31.5036 C80.4066,31.5036 80.641,31.363 80.8805,31.0817 M86.3493,32.2223 L86.3493,31.5817 C85.9951,31.9567 85.6514,32.1703 85.318,32.2223 C85.2243,32.2328 85.1253,32.238 85.0212,32.238 C84.4274,32.238 83.9587,31.9619 83.6149,31.4098 C83.3441,30.9828 83.2087,30.4776 83.2087,29.8942 C83.2087,29.0401 83.4535,28.3682 83.943,27.8786 C84.2764,27.5348 84.6722,27.363 85.1305,27.363 C85.4847,27.363 85.8076,27.4984 86.0993,27.7692 C86.1826,27.8421 86.2555,27.9098 86.318,27.9723 L86.318,26.1598 C86.318,25.9098 86.2608,25.7536 86.1462,25.6911 C86.042,25.639 85.8441,25.6026 85.5524,25.5817 L85.5524,25.3473 L87.7087,25.3473 L87.7087,31.0973 C87.7087,31.3786 87.792,31.5505 87.9587,31.613 C88.042,31.6442 88.1566,31.6651 88.3024,31.6755 L88.3024,31.9098 L87.6774,31.988 C87.1253,32.0609 86.6826,32.139 86.3493,32.2223 M85.4743,31.6911 C85.766,31.6911 86.016,31.5244 86.2243,31.1911 C86.2764,31.0973 86.3076,31.0296 86.318,30.988 L86.318,28.5348 C86.193,28.2015 85.9847,28.0036 85.693,27.9411 C85.641,27.9307 85.5889,27.9255 85.5368,27.9255 C85.0264,27.9255 84.7451,28.4307 84.693,29.4411 C84.693,29.5557 84.693,29.6807 84.693,29.8161 C84.693,31.0557 84.9535,31.6807 85.4743,31.6911 M90.6462,29.6442 C90.6983,30.6651 90.9639,31.264 91.443,31.4411 C91.568,31.4828 91.6983,31.5036 91.8337,31.5036 C92.1983,31.5036 92.5316,31.3369 92.8337,31.0036 C92.8858,30.9515 92.9326,30.8994 92.9743,30.8473 L93.2087,30.988 C92.792,31.5921 92.3805,31.9723 91.9743,32.1286 C91.766,32.2015 91.5316,32.238 91.2712,32.238 C90.5212,32.238 89.9587,31.9307 89.5837,31.3161 C89.3337,30.8994 89.2087,30.3994 89.2087,29.8161 C89.2087,28.9203 89.4795,28.2484 90.0212,27.8005 C90.3858,27.5088 90.8128,27.363 91.3024,27.363 C92.4066,27.363 93.0264,28.0817 93.1618,29.5192 C93.1618,29.5609 93.1618,29.6026 93.1618,29.6442 L90.6462,29.6442 M91.943,29.1286 C91.9222,28.5036 91.8545,28.1078 91.7399,27.9411 C91.6462,27.7848 91.5003,27.7067 91.3024,27.7067 C91.0108,27.7067 90.8128,27.8786 90.7087,28.2223 C90.6462,28.4619 90.6097,28.8161 90.5993,29.2848 L91.943,29.2848 L91.943,29.1286 M96.2712,27.2536 C96.7295,26.014 97.3805,25.3421 98.2243,25.238 C98.2972,25.2276 98.3805,25.2223 98.4743,25.2223 C99.1305,25.2223 99.6305,25.4619 99.9743,25.9411 C100.203,26.264 100.318,26.6338 100.318,27.0505 C100.318,27.7588 99.9587,28.4619 99.2399,29.1598 C99.2191,29.1911 99.1983,29.2119 99.1774,29.2223 L97.5524,30.7692 L99.068,30.7692 C99.5993,30.7692 99.9378,30.7223 100.084,30.6286 C100.23,30.5348 100.365,30.3213 100.49,29.988 L100.74,29.988 L100.287,32.0973 L96.1305,32.0973 L96.1305,31.863 C97.5264,30.3838 98.3805,29.3213 98.693,28.6755 C98.8701,28.3213 98.9587,27.9723 98.9587,27.6286 C98.9587,27.1911 98.7972,26.8473 98.4743,26.5973 C98.266,26.4411 98.0316,26.363 97.7712,26.363 C97.2712,26.363 96.8805,26.6338 96.5993,27.1755 C96.5785,27.2067 96.5628,27.2328 96.5524,27.2536 L96.2712,27.2536 M102.615,30.5348 C102.938,30.5348 103.183,30.6755 103.349,30.9567 C103.433,31.1026 103.474,31.2484 103.474,31.3942 C103.474,31.7067 103.334,31.9463 103.052,32.113 C102.907,32.1859 102.761,32.2223 102.615,32.2223 C102.282,32.2223 102.037,32.0817 101.881,31.8005 C101.808,31.6651 101.771,31.5244 101.771,31.3786 C101.771,31.0765 101.907,30.8421 102.177,30.6755 C102.313,30.5817 102.459,30.5348 102.615,30.5348 M102.615,27.3786 C102.938,27.3786 103.183,27.514 103.349,27.7848 C103.433,27.9307 103.474,28.0765 103.474,28.2223 C103.474,28.5453 103.334,28.7901 103.052,28.9567 C102.917,29.0296 102.771,29.0661 102.615,29.0661 C102.282,29.0661 102.037,28.9203 101.881,28.6286 C101.808,28.4932 101.771,28.3526 101.771,28.2067 C101.771,27.9046 101.907,27.6703 102.177,27.5036 C102.313,27.4203 102.459,27.3786 102.615,27.3786"/>
<path class="StaffText" d="M108.99,31.2848 C108.99,31.4723 109.042,31.5921 109.146,31.6442 C109.271,31.6963 109.573,31.7223 110.052,31.7223 L110.318,31.7223 C111.089,31.7223 111.631,31.6182 111.943,31.4098 C112.203,31.2223 112.448,30.889 112.677,30.4098 L112.959,30.4098 L112.506,32.0973 L107.115,32.0973 L107.115,31.9098 C107.521,31.8786 107.771,31.7848 107.865,31.6286 C107.938,31.5036 107.974,31.2953 107.974,31.0036 L107.974,26.5661 C107.974,26.1807 107.907,25.9359 107.771,25.8317 C107.646,25.7484 107.427,25.6963 107.115,25.6755 L107.115,25.488 L112.412,25.488 L112.443,26.9098 L112.193,26.9098 C112.11,26.4619 111.98,26.1755 111.802,26.0505 C111.605,25.9255 111.23,25.863 110.677,25.863 L109.334,25.863 C109.146,25.863 109.042,25.9098 109.021,26.0036 C109,26.0557 108.99,26.1182 108.99,26.1911 L108.99,28.3942 L110.537,28.3942 C111.026,28.3942 111.334,28.2901 111.459,28.0817 C111.521,27.9776 111.578,27.7744 111.631,27.4723 L111.865,27.4723 L111.865,29.7536 L111.631,29.7536 C111.568,29.3265 111.459,29.0661 111.302,28.9723 C111.167,28.8786 110.912,28.8317 110.537,28.8317 L108.99,28.8317 L108.99,31.2848 M116.084,28.1442 L116.084,27.9723 C116.563,27.8265 117.032,27.6703 117.49,27.5036 L117.552,27.5192 L117.552,28.2848 C118.125,27.8473 118.537,27.5973 118.787,27.5348 C118.891,27.514 118.995,27.5036 119.099,27.5036 C119.631,27.514 119.985,27.8005 120.162,28.363 C120.693,27.7901 121.24,27.5036 121.802,27.5036 C122.563,27.514 122.948,28.113 122.959,29.3005 L122.959,31.3473 C122.969,31.7119 123.11,31.9046 123.381,31.9255 L123.646,31.9411 L123.646,32.0973 L121.459,32.0973 L121.459,31.9411 C121.782,31.9098 121.974,31.8369 122.037,31.7223 C122.089,31.6286 122.115,31.4671 122.115,31.238 L122.115,29.1286 C122.115,28.5765 122.006,28.2432 121.787,28.1286 C121.683,28.0661 121.542,28.0348 121.365,28.0348 C120.917,28.0453 120.552,28.2484 120.271,28.6442 L120.271,31.1598 C120.271,31.5348 120.36,31.7692 120.537,31.863 C120.641,31.9151 120.792,31.9411 120.99,31.9411 L120.99,32.0973 L118.756,32.0973 L118.756,31.9411 C119.078,31.9203 119.276,31.8473 119.349,31.7223 C119.412,31.6286 119.443,31.4671 119.443,31.238 L119.443,29.0817 C119.443,28.3838 119.219,28.0348 118.771,28.0348 C118.407,28.0348 118.084,28.1546 117.802,28.3942 C117.73,28.4671 117.662,28.5453 117.599,28.6286 L117.599,31.4255 C117.599,31.6755 117.688,31.8317 117.865,31.8942 C117.959,31.9255 118.094,31.9411 118.271,31.9411 L118.271,32.0973 L116.052,32.0973 L116.052,31.9411 C116.407,31.9411 116.62,31.8578 116.693,31.6911 C116.735,31.5869 116.756,31.4411 116.756,31.2536 L116.756,28.738 C116.756,28.363 116.677,28.1546 116.521,28.113 C116.49,28.1026 116.453,28.0973 116.412,28.0973 C116.308,28.0973 116.198,28.113 116.084,28.1442 M124.584,28.1755 C124.427,28.1755 124.287,28.1859 124.162,28.2067 L124.162,28.0505 C124.631,27.9151 125.146,27.7328 125.709,27.5036 L125.74,27.5348 L125.74,31.0817 C125.74,31.4671 125.797,31.7067 125.912,31.8005 C126.006,31.8734 126.198,31.9203 126.49,31.9411 L126.49,32.0973 L124.115,32.0973 L124.115,31.9411 C124.48,31.9203 124.709,31.8526 124.802,31.738 C124.875,31.6234 124.912,31.4046 124.912,31.0817 L124.912,28.7536 C124.912,28.3994 124.828,28.2067 124.662,28.1755 C124.631,28.1755 124.605,28.1755 124.584,28.1755 M125.24,25.2692 C125.459,25.2692 125.615,25.3682 125.709,25.5661 C125.74,25.639 125.756,25.7119 125.756,25.7848 C125.756,26.0036 125.651,26.1598 125.443,26.2536 C125.37,26.2744 125.302,26.2848 125.24,26.2848 C125.021,26.2848 124.865,26.1859 124.771,25.988 C124.75,25.9151 124.74,25.8473 124.74,25.7848 C124.74,25.5661 124.834,25.4098 125.021,25.3161 C125.094,25.2848 125.167,25.2692 125.24,25.2692 M127.052,28.113 L127.052,27.9411 C127.552,27.7953 128.016,27.6494 128.443,27.5036 L128.506,27.5192 L128.506,28.3005 C128.985,27.863 129.36,27.6078 129.631,27.5348 C129.735,27.514 129.844,27.5036 129.959,27.5036 C130.5,27.5036 130.86,27.7744 131.037,28.3161 C131.099,28.514 131.131,28.738 131.131,28.988 L131.131,31.2848 C131.131,31.5973 131.203,31.7901 131.349,31.863 C131.443,31.8942 131.573,31.9203 131.74,31.9411 L131.74,32.0973 L129.662,32.0973 L129.662,31.9411 C129.964,31.9203 130.151,31.8213 130.224,31.6442 C130.276,31.5296 130.302,31.3526 130.302,31.113 L130.302,29.0192 C130.282,28.3734 130.037,28.0453 129.568,28.0348 C129.318,28.0348 129.058,28.1494 128.787,28.3786 C128.714,28.4515 128.631,28.5296 128.537,28.613 L128.537,31.4255 C128.537,31.6651 128.636,31.8213 128.834,31.8942 C128.927,31.9151 129.047,31.9307 129.193,31.9411 L129.193,32.0973 L127.084,32.0973 L127.084,31.9411 C127.375,31.9203 127.558,31.8369 127.631,31.6911 C127.672,31.5765 127.693,31.4098 127.693,31.1911 L127.693,28.7067 C127.693,28.3421 127.62,28.139 127.474,28.0973 C127.433,28.0765 127.386,28.0661 127.334,28.0661 C127.209,28.0661 127.115,28.0817 127.052,28.113 M134.412,27.5036 C135.151,27.5036 135.735,27.7744 136.162,28.3161 C136.464,28.7223 136.615,29.2015 136.615,29.7536 C136.615,30.5348 136.36,31.1598 135.849,31.6286 C135.433,32.0036 134.948,32.1911 134.396,32.1911 C133.688,32.1911 133.125,31.9203 132.709,31.3786 C132.375,30.9411 132.209,30.4255 132.209,29.8317 C132.209,29.0192 132.485,28.3942 133.037,27.9567 C133.422,27.6546 133.881,27.5036 134.412,27.5036 M133.115,29.3473 C133.115,30.2536 133.302,30.9463 133.677,31.4255 C133.917,31.738 134.198,31.8942 134.521,31.8942 C135.042,31.8942 135.401,31.5973 135.599,31.0036 C135.683,30.7432 135.724,30.4463 135.724,30.113 C135.724,29.2276 135.511,28.5713 135.084,28.1442 C134.855,27.9151 134.589,27.8005 134.287,27.8005 C133.818,27.8005 133.48,28.0401 133.271,28.5192 C133.167,28.7588 133.115,29.0348 133.115,29.3473 M139.974,28.4723 C139.87,28.4723 139.719,28.389 139.521,28.2223 C139.427,28.139 139.355,28.0973 139.302,28.0973 C139.136,28.0973 138.964,28.2276 138.787,28.488 C138.672,28.6546 138.615,28.8005 138.615,28.9255 L138.615,31.1911 C138.615,31.5348 138.703,31.7484 138.881,31.8317 C139.006,31.8942 139.198,31.9307 139.459,31.9411 L139.459,32.0973 L137.052,32.0973 L137.052,31.9411 C137.407,31.8786 137.62,31.7953 137.693,31.6911 C137.745,31.6078 137.771,31.4619 137.771,31.2536 L137.771,28.738 C137.771,28.3734 137.688,28.1755 137.521,28.1442 C137.49,28.1338 137.459,28.1286 137.427,28.1286 C137.313,28.1286 137.198,28.1442 137.084,28.1755 L137.084,28.0192 C137.615,27.8526 138.105,27.6807 138.552,27.5036 L138.615,27.5192 L138.615,28.4098 C138.959,27.9307 139.25,27.6442 139.49,27.5505 C139.594,27.5192 139.698,27.5036 139.802,27.5036 C140.115,27.5036 140.297,27.6338 140.349,27.8942 C140.349,27.9359 140.349,27.9828 140.349,28.0348 C140.318,28.3057 140.193,28.4515 139.974,28.4723 M143.209,31.1286 C143.209,30.6182 143.526,30.1859 144.162,29.8317 C144.349,29.738 144.849,29.5244 145.662,29.1911 C145.683,29.1911 145.698,29.1859 145.709,29.1755 L145.709,28.5661 C145.657,28.0453 145.401,27.7692 144.943,27.738 C144.631,27.738 144.412,27.8369 144.287,28.0348 C144.245,28.1078 144.224,28.1703 144.224,28.2223 C144.224,28.2848 144.235,28.3682 144.256,28.4723 C144.266,28.5453 144.271,28.5973 144.271,28.6286 C144.271,28.8057 144.183,28.9307 144.006,29.0036 C143.943,29.0348 143.886,29.0505 143.834,29.0505 C143.646,29.0505 143.516,28.9619 143.443,28.7848 C143.412,28.7328 143.396,28.6755 143.396,28.613 C143.396,28.2484 143.615,27.9515 144.052,27.7223 C144.355,27.5765 144.698,27.5036 145.084,27.5036 C145.802,27.5036 146.245,27.7588 146.412,28.2692 C146.485,28.488 146.521,28.764 146.521,29.0973 L146.521,31.0348 C146.521,31.3682 146.584,31.5557 146.709,31.5973 C146.75,31.6078 146.787,31.613 146.818,31.613 C146.964,31.6026 147.11,31.5401 147.256,31.4255 L147.256,31.6755 C146.985,31.988 146.735,32.1598 146.506,32.1911 C146.453,32.1911 146.401,32.1911 146.349,32.1911 C146.037,32.1911 145.839,32.0348 145.756,31.7223 C145.735,31.639 145.724,31.5453 145.724,31.4411 C145.131,31.9203 144.641,32.1703 144.256,32.1911 C143.828,32.1911 143.521,32.0192 143.334,31.6755 C143.25,31.5088 143.209,31.3265 143.209,31.1286 M145.709,30.8473 L145.709,29.4098 C144.886,29.7119 144.381,30.0192 144.193,30.3317 C144.12,30.4776 144.084,30.6338 144.084,30.8005 C144.084,31.1963 144.23,31.4463 144.521,31.5505 C144.594,31.5817 144.662,31.5973 144.724,31.5973 C144.943,31.5869 145.183,31.5088 145.443,31.363 C145.589,31.2796 145.672,31.1755 145.693,31.0505 C145.703,30.988 145.709,30.9203 145.709,30.8473 M149.974,28.4723 C149.87,28.4723 149.719,28.389 149.521,28.2223 C149.427,28.139 149.355,28.0973 149.302,28.0973 C149.136,28.0973 148.964,28.2276 148.787,28.488 C148.672,28.6546 148.615,28.8005 148.615,28.9255 L148.615,31.1911 C148.615,31.5348 148.703,31.7484 148.881,31.8317 C149.006,31.8942 149.198,31.9307 149.459,31.9411 L149.459,32.0973 L147.052,32.0973 L147.052,31.9411 C147.407,31.8786 147.62,31.7953 147.693,31.6911 C147.745,31.6078 147.771,31.4619 147.771,31.2536 L147.771,28.738 C147.771,28.3734 147.688,28.1755 147.521,28.1442 C147.49,28.1338 147.459,28.1286 147.427,28.1286 C147.313,28.1286 147.198,28.1442 147.084,28.1755 L147.084,28.0192 C147.615,27.8526 148.105,27.6807 148.552,27.5036 L148.615,27.5192 L148.615,28.4098 C148.959,27.9307 149.25,27.6442 149.49,27.5505 C149.594,27.5192 149.698,27.5036 149.802,27.5036 C150.115,27.5036 150.297,27.6338 150.349,27.8942 C150.349,27.9359 150.349,27.9828 150.349,28.0348 C150.318,28.3057 150.193,28.4515 149.974,28.4723 M150.099,28.1755 L150.099,28.0036 C150.526,27.8786 151.006,27.7119 151.537,27.5036 L151.599,27.5192 L151.599,28.2848 C152.026,27.764 152.506,27.5036 153.037,27.5036 C153.599,27.5036 154.042,27.764 154.365,28.2848 C154.594,28.6703 154.709,29.1182 154.709,29.6286 C154.709,30.4411 154.459,31.1026 153.959,31.613 C153.573,31.9984 153.125,32.1911 152.615,32.1911 C152.282,32.1911 151.99,32.0921 151.74,31.8942 C151.688,31.863 151.641,31.8265 151.599,31.7848 L151.599,33.3473 C151.599,33.6911 151.667,33.8994 151.802,33.9723 C151.927,34.0453 152.151,34.0817 152.474,34.0817 L152.474,34.2692 L150.052,34.2692 L150.052,34.0973 C150.407,34.0661 150.62,33.9828 150.693,33.8473 C150.735,33.7536 150.756,33.6078 150.756,33.4098 L150.756,28.7223 C150.756,28.4307 150.703,28.2588 150.599,28.2067 C150.537,28.1755 150.453,28.1598 150.349,28.1598 C150.235,28.1598 150.151,28.1651 150.099,28.1755 M151.599,28.7692 L151.599,31.238 C151.599,31.4151 151.745,31.5817 152.037,31.738 C152.245,31.8421 152.443,31.8942 152.631,31.8942 C153.089,31.8942 153.427,31.639 153.646,31.1286 C153.782,30.8057 153.849,30.4411 153.849,30.0348 C153.849,29.2119 153.641,28.639 153.224,28.3161 C153.047,28.1703 152.844,28.0973 152.615,28.0973 C152.313,28.0973 152.042,28.2067 151.802,28.4255 C151.677,28.5401 151.61,28.6546 151.599,28.7692 M155.927,29.3317 C155.969,30.5088 156.355,31.2015 157.084,31.4098 C157.209,31.4515 157.344,31.4723 157.49,31.4723 C157.98,31.4723 158.396,31.264 158.74,30.8473 C158.834,30.7328 158.933,30.5973 159.037,30.4411 L159.193,30.5036 C158.828,31.4619 158.256,32.014 157.474,32.1598 C157.339,32.1807 157.209,32.1911 157.084,32.1911 C156.344,32.1911 155.813,31.8786 155.49,31.2536 C155.302,30.8786 155.209,30.4463 155.209,29.9567 C155.209,29.0713 155.485,28.3994 156.037,27.9411 C156.401,27.6494 156.823,27.5036 157.302,27.5036 C158.219,27.5036 158.771,28.0244 158.959,29.0661 C158.98,29.1598 158.995,29.2484 159.006,29.3317 L155.927,29.3317 M155.943,29.0348 L157.99,29.0348 C157.896,28.4619 157.73,28.1078 157.49,27.9723 C157.365,27.9098 157.203,27.8786 157.006,27.8786 C156.412,27.8786 156.058,28.2536 155.943,29.0036 C155.943,29.014 155.943,29.0244 155.943,29.0348 M159.552,31.5192 C159.552,31.3838 159.631,31.238 159.787,31.0817 C159.881,30.988 160.099,30.7848 160.443,30.4723 C159.943,30.2119 159.646,29.8838 159.552,29.488 C159.532,29.3734 159.521,29.2536 159.521,29.1286 C159.521,28.5973 159.735,28.1703 160.162,27.8473 C160.464,27.6182 160.808,27.5036 161.193,27.5036 C161.443,27.5036 161.75,27.5713 162.115,27.7067 C162.355,27.7901 162.568,27.8317 162.756,27.8317 L163.521,27.8317 L163.521,28.2067 L162.693,28.2067 C162.818,28.4984 162.881,28.7796 162.881,29.0505 C162.881,29.6234 162.657,30.0557 162.209,30.3473 C161.938,30.5244 161.646,30.613 161.334,30.613 C161.24,30.613 161.047,30.5921 160.756,30.5505 C160.558,30.613 160.391,30.7536 160.256,30.9723 C160.193,31.0557 160.162,31.1286 160.162,31.1911 C160.162,31.3473 160.412,31.4359 160.912,31.4567 C160.922,31.4567 160.933,31.4567 160.943,31.4567 L162.224,31.5192 C162.776,31.5296 163.146,31.7328 163.334,32.1286 C163.407,32.264 163.443,32.4151 163.443,32.5817 C163.443,33.0817 163.131,33.5088 162.506,33.863 C161.995,34.1338 161.438,34.2692 160.834,34.2692 C160.209,34.2692 159.724,34.1182 159.381,33.8161 C159.203,33.6494 159.115,33.4723 159.115,33.2848 C159.115,32.9932 159.328,32.6651 159.756,32.3005 C159.86,32.2171 159.969,32.1286 160.084,32.0348 C159.782,31.8994 159.61,31.764 159.568,31.6286 C159.558,31.5973 159.552,31.5609 159.552,31.5192 M160.302,32.0661 C160,32.4411 159.839,32.7015 159.818,32.8473 C159.808,32.889 159.802,32.9307 159.802,32.9723 C159.802,33.2744 160.026,33.4932 160.474,33.6286 C160.703,33.7015 160.969,33.738 161.271,33.738 C162.105,33.738 162.672,33.5557 162.974,33.1911 C163.099,33.0348 163.162,32.8734 163.162,32.7067 C163.162,32.4567 162.995,32.3005 162.662,32.238 C162.474,32.2067 162.224,32.1911 161.912,32.1911 C161.245,32.1911 160.709,32.1494 160.302,32.0661 M162.115,29.4567 C162.115,29.0296 162.026,28.6494 161.849,28.3161 C161.651,27.9828 161.396,27.8109 161.084,27.8005 C160.709,27.8005 160.474,27.9984 160.381,28.3942 C160.36,28.4984 160.349,28.613 160.349,28.738 C160.349,29.5401 160.573,30.0505 161.021,30.2692 C161.136,30.3317 161.25,30.363 161.365,30.363 C161.73,30.363 161.964,30.1807 162.068,29.8161 C162.099,29.7015 162.115,29.5817 162.115,29.4567 M164.552,31.5192 C164.552,31.3838 164.631,31.238 164.787,31.0817 C164.881,30.988 165.099,30.7848 165.443,30.4723 C164.943,30.2119 164.646,29.8838 164.552,29.488 C164.532,29.3734 164.521,29.2536 164.521,29.1286 C164.521,28.5973 164.735,28.1703 165.162,27.8473 C165.464,27.6182 165.808,27.5036 166.193,27.5036 C166.443,27.5036 166.75,27.5713 167.115,27.7067 C167.355,27.7901 167.568,27.8317 167.756,27.8317 L168.521,27.8317 L168.521,28.2067 L167.693,28.2067 C167.818,28.4984 167.881,28.7796 167.881,29.0505 C167.881,29.6234 167.657,30.0557 167.209,30.3473 C166.938,30.5244 166.646,30.613 166.334,30.613 C166.24,30.613 166.047,30.5921 165.756,30.5505 C165.558,30.613 165.391,30.7536 165.256,30.9723 C165.193,31.0557 165.162,31.1286 165.162,31.1911 C165.162,31.3473 165.412,31.4359 165.912,31.4567 C165.922,31.4567 165.933,31.4567 165.943,31.4567 L167.224,31.5192 C167.776,31.5296 168.146,31.7328 168.334,32.1286 C168.407,32.264 168.443,32.4151 168.443,32.5817 C168.443,33.0817 168.131,33.5088 167.506,33.863 C166.995,34.1338 166.438,34.2692 165.834,34.2692 C165.209,34.2692 164.724,34.1182 164.381,33.8161 C164.203,33.6494 164.115,33.4723 164.115,33.2848 C164.115,32.9932 164.328,32.6651 164.756,32.3005 C164.86,32.2171 164.969,32.1286 165.084,32.0348 C164.782,31.8994 164.61,31.764 164.568,31.6286 C164.558,31.5973 164.552,31.5609 164.552,31.5192 M165.302,32.0661 C165,32.4411 164.839,32.7015 164.818,32.8473 C164.808,32.889 164.802,32.9307 164.802,32.9723 C164.802,33.2744 165.026,33.4932 165.474,33.6286 C165.703,33.7015 165.969,33.738 166.271,33.738 C167.105,33.738 167.672,33.5557 167.974,33.1911 C168.099,33.0348 168.162,32.8734 168.162,32.7067 C168.162,32.4567 167.995,32.3005 167.662,32.238 C167.474,32.2067 167.224,32.1911 166.912,32.1911 C166.245,32.1911 165.709,32.1494 165.302,32.0661 M167.115,29.4567 C167.115,29.0296 167.026,28.6494 166.849,28.3161 C166.651,27.9828 166.396,27.8109 166.084,27.8005 C165.709,27.8005 165.474,27.9984 165.381,28.3942 C165.36,28.4984 165.349,28.613 165.349,28.738 C165.349,29.5401 165.573,30.0505 166.021,30.2692 C166.136,30.3317 166.25,30.363 166.365,30.363 C166.73,30.363 166.964,30.1807 167.068,29.8161 C167.099,29.7015 167.115,29.5817 167.115,29.4567 M169.584,28.1755 C169.427,28.1755 169.287,28.1859 169.162,28.2067 L169.162,28.0505 C169.631,27.9151 170.146,27.7328 170.709,27.5036 L170.74,27.5348 L170.74,31.0817 C170.74,31.4671 170.797,31.7067 170.912,31.8005 C171.006,31.8734 171.198,31.9203 171.49,31.9411 L171.49,32.0973 L169.115,32.0973 L169.115,31.9411 C169.48,31.9203 169.709,31.8526 169.802,31.738 C169.875,31.6234 169.912,31.4046 169.912,31.0817 L169.912,28.7536 C169.912,28.3994 169.828,28.2067 169.662,28.1755 C169.631,28.1755 169.605,28.1755 169.584,28.1755 M170.24,25.2692 C170.459,25.2692 170.615,25.3682 170.709,25.5661 C170.74,25.639 170.756,25.7119 170.756,25.7848 C170.756,26.0036 170.651,26.1598 170.443,26.2536 C170.37,26.2744 170.302,26.2848 170.24,26.2848 C170.021,26.2848 169.865,26.1859 169.771,25.988 C169.75,25.9151 169.74,25.8473 169.74,25.7848 C169.74,25.5661 169.834,25.4098 170.021,25.3161 C170.094,25.2848 170.167,25.2692 170.24,25.2692 M174.412,27.5036 C175.151,27.5036 175.735,27.7744 176.162,28.3161 C176.464,28.7223 176.615,29.2015 176.615,29.7536 C176.615,30.5348 176.36,31.1598 175.849,31.6286 C175.433,32.0036 174.948,32.1911 174.396,32.1911 C173.688,32.1911 173.125,31.9203 172.709,31.3786 C172.375,30.9411 172.209,30.4255 172.209,29.8317 C172.209,29.0192 172.485,28.3942 173.037,27.9567 C173.422,27.6546 173.881,27.5036 174.412,27.5036 M173.115,29.3473 C173.115,30.2536 173.302,30.9463 173.677,31.4255 C173.917,31.738 174.198,31.8942 174.521,31.8942 C175.042,31.8942 175.401,31.5973 175.599,31.0036 C175.683,30.7432 175.724,30.4463 175.724,30.113 C175.724,29.2276 175.511,28.5713 175.084,28.1442 C174.855,27.9151 174.589,27.8005 174.287,27.8005 C173.818,27.8005 173.48,28.0401 173.271,28.5192 C173.167,28.7588 173.115,29.0348 173.115,29.3473 M182.412,27.5036 C183.151,27.5036 183.735,27.7744 184.162,28.3161 C184.464,28.7223 184.615,29.2015 184.615,29.7536 C184.615,30.5348 184.36,31.1598 183.849,31.6286 C183.433,32.0036 182.948,32.1911 182.396,32.1911 C181.688,32.1911 181.125,31.9203 180.709,31.3786 C180.375,30.9411 180.209,30.4255 180.209,29.8317 C180.209,29.0192 180.485,28.3942 181.037,27.9567 C181.422,27.6546 181.881,27.5036 182.412,27.5036 M181.115,29.3473 C181.115,30.2536 181.302,30.9463 181.677,31.4255 C181.917,31.738 182.198,31.8942 182.521,31.8942 C183.042,31.8942 183.401,31.5973 183.599,31.0036 C183.683,30.7432 183.724,30.4463 183.724,30.113 C183.724,29.2276 183.511,28.5713 183.084,28.1442 C182.855,27.9151 182.589,27.8005 182.287,27.8005 C181.818,27.8005 181.48,28.0401 181.271,28.5192 C181.167,28.7588 181.115,29.0348 181.115,29.3473 M185.052,28.113 L185.052,27.9411 C185.552,27.7953 186.016,27.6494 186.443,27.5036 L186.506,27.5192 L186.506,28.3005 C186.985,27.863 187.36,27.6078 187.631,27.5348 C187.735,27.514 187.844,27.5036 187.959,27.5036 C188.5,27.5036 188.86,27.7744 189.037,28.3161 C189.099,28.514 189.131,28.738 189.131,28.988 L189.131,31.2848 C189.131,31.5973 189.203,31.7901 189.349,31.863 C189.443,31.8942 189.573,31.9203 189.74,31.9411 L189.74,32.0973 L187.662,32.0973 L187.662,31.9411 C187.964,31.9203 188.151,31.8213 188.224,31.6442 C188.276,31.5296 188.302,31.3526 188.302,31.113 L188.302,29.0192 C188.282,28.3734 188.037,28.0453 187.568,28.0348 C187.318,28.0348 187.058,28.1494 186.787,28.3786 C186.714,28.4515 186.631,28.5296 186.537,28.613 L186.537,31.4255 C186.537,31.6651 186.636,31.8213 186.834,31.8942 C186.927,31.9151 187.047,31.9307 187.193,31.9411 L187.193,32.0973 L185.084,32.0973 L185.084,31.9411 C185.375,31.9203 185.558,31.8369 185.631,31.6911 C185.672,31.5765 185.693,31.4098 185.693,31.1911 L185.693,28.7067 C185.693,28.3421 185.62,28.139 185.474,28.0973 C185.433,28.0765 185.386,28.0661 185.334,28.0661 C185.209,28.0661 185.115,28.0817 185.052,28.113 M190.927,29.3317 C190.969,30.5088 191.355,31.2015 192.084,31.4098 C192.209,31.4515 192.344,31.4723 192.49,31.4723 C192.98,31.4723 193.396,31.264 193.74,30.8473 C193.834,30.7328 193.933,30.5973 194.037,30.4411 L194.193,30.5036 C193.828,31.4619 193.256,32.014 192.474,32.1598 C192.339,32.1807 192.209,32.1911 192.084,32.1911 C191.344,32.1911 190.813,31.8786 190.49,31.2536 C190.302,30.8786 190.209,30.4463 190.209,29.9567 C190.209,29.0713 190.485,28.3994 191.037,27.9411 C191.401,27.6494 191.823,27.5036 192.302,27.5036 C193.219,27.5036 193.771,28.0244 193.959,29.0661 C193.98,29.1598 193.995,29.2484 194.006,29.3317 L190.927,29.3317 M190.943,29.0348 L192.99,29.0348 C192.896,28.4619 192.73,28.1078 192.49,27.9723 C192.365,27.9098 192.203,27.8786 192.006,27.8786 C191.412,27.8786 191.058,28.2536 190.943,29.0036 C190.943,29.014 190.943,29.0244 190.943,29.0348 M199.412,27.5036 C200.151,27.5036 200.735,27.7744 201.162,28.3161 C201.464,28.7223 201.615,29.2015 201.615,29.7536 C201.615,30.5348 201.36,31.1598 200.849,31.6286 C200.433,32.0036 199.948,32.1911 199.396,32.1911 C198.688,32.1911 198.125,31.9203 197.709,31.3786 C197.375,30.9411 197.209,30.4255 197.209,29.8317 C197.209,29.0192 197.485,28.3942 198.037,27.9567 C198.422,27.6546 198.881,27.5036 199.412,27.5036 M198.115,29.3473 C198.115,30.2536 198.302,30.9463 198.677,31.4255 C198.917,31.738 199.198,31.8942 199.521,31.8942 C200.042,31.8942 200.401,31.5973 200.599,31.0036 C200.683,30.7432 200.724,30.4463 200.724,30.113 C200.724,29.2276 200.511,28.5713 200.084,28.1442 C199.855,27.9151 199.589,27.8005 199.287,27.8005 C198.818,27.8005 198.48,28.0401 198.271,28.5192 C198.167,28.7588 198.115,29.0348 198.115,29.3473 M202.209,29.9723 C202.209,29.1286 202.495,28.4671 203.068,27.988 C203.464,27.6651 203.907,27.5036 204.396,27.5036 C204.948,27.5036 205.375,27.6546 205.677,27.9567 C205.855,28.1338 205.943,28.3265 205.943,28.5348 C205.943,28.7119 205.849,28.8369 205.662,28.9098 C205.589,28.9411 205.521,28.9567 205.459,28.9567 C205.25,28.9567 205.099,28.8213 205.006,28.5505 C204.995,28.5296 204.99,28.5088 204.99,28.488 L204.927,28.2692 C204.865,28.0192 204.75,27.8734 204.584,27.8317 C204.511,27.8109 204.427,27.8005 204.334,27.8005 C203.834,27.8005 203.453,28.0401 203.193,28.5192 C203.047,28.8109 202.974,29.1494 202.974,29.5348 C202.974,30.264 203.198,30.8109 203.646,31.1755 C203.907,31.3734 204.198,31.4723 204.521,31.4723 C204.938,31.4723 205.297,31.3057 205.599,30.9723 C205.703,30.8473 205.818,30.7015 205.943,30.5348 L206.084,30.6286 C205.709,31.3473 205.292,31.8161 204.834,32.0348 C204.594,32.139 204.355,32.1911 204.115,32.1911 C203.469,32.1911 202.964,31.9255 202.599,31.3942 C202.339,30.988 202.209,30.514 202.209,29.9723 M208.552,27.5973 L208.552,27.8942 L207.537,27.8942 L207.537,30.7536 C207.537,31.2953 207.672,31.5921 207.943,31.6442 C207.974,31.6546 208.011,31.6598 208.052,31.6598 C208.261,31.6494 208.464,31.5296 208.662,31.3005 L208.787,31.4255 C208.464,31.9359 208.063,32.1911 207.584,32.1911 C207,32.1807 206.703,31.7588 206.693,30.9255 L206.693,27.8942 L206.162,27.8942 C206.141,27.8734 206.131,27.8526 206.131,27.8317 C206.131,27.7901 206.172,27.7484 206.256,27.7067 C206.537,27.5192 206.87,27.1546 207.256,26.613 C207.266,26.6026 207.271,26.5973 207.271,26.5973 C207.375,26.4411 207.443,26.3473 207.474,26.3161 C207.516,26.3265 207.537,26.3682 207.537,26.4411 L207.537,27.5973 L208.552,27.5973 M209.209,31.1286 C209.209,30.6182 209.526,30.1859 210.162,29.8317 C210.349,29.738 210.849,29.5244 211.662,29.1911 C211.683,29.1911 211.698,29.1859 211.709,29.1755 L211.709,28.5661 C211.657,28.0453 211.401,27.7692 210.943,27.738 C210.631,27.738 210.412,27.8369 210.287,28.0348 C210.245,28.1078 210.224,28.1703 210.224,28.2223 C210.224,28.2848 210.235,28.3682 210.256,28.4723 C210.266,28.5453 210.271,28.5973 210.271,28.6286 C210.271,28.8057 210.183,28.9307 210.006,29.0036 C209.943,29.0348 209.886,29.0505 209.834,29.0505 C209.646,29.0505 209.516,28.9619 209.443,28.7848 C209.412,28.7328 209.396,28.6755 209.396,28.613 C209.396,28.2484 209.615,27.9515 210.052,27.7223 C210.355,27.5765 210.698,27.5036 211.084,27.5036 C211.802,27.5036 212.245,27.7588 212.412,28.2692 C212.485,28.488 212.521,28.764 212.521,29.0973 L212.521,31.0348 C212.521,31.3682 212.584,31.5557 212.709,31.5973 C212.75,31.6078 212.787,31.613 212.818,31.613 C212.964,31.6026 213.11,31.5401 213.256,31.4255 L213.256,31.6755 C212.985,31.988 212.735,32.1598 212.506,32.1911 C212.453,32.1911 212.401,32.1911 212.349,32.1911 C212.037,32.1911 211.839,32.0348 211.756,31.7223 C211.735,31.639 211.724,31.5453 211.724,31.4411 C211.131,31.9203 210.641,32.1703 210.256,32.1911 C209.828,32.1911 209.521,32.0192 209.334,31.6755 C209.25,31.5088 209.209,31.3265 209.209,31.1286 M211.709,30.8473 L211.709,29.4098 C210.886,29.7119 210.381,30.0192 210.193,30.3317 C210.12,30.4776 210.084,30.6338 210.084,30.8005 C210.084,31.1963 210.23,31.4463 210.521,31.5505 C210.594,31.5817 210.662,31.5973 210.724,31.5973 C210.943,31.5869 211.183,31.5088 211.443,31.363 C211.589,31.2796 211.672,31.1755 211.693,31.0505 C211.703,30.988 211.709,30.9203 211.709,30.8473 M217.584,27.5973 L217.584,27.7536 C217.417,27.7744 217.292,27.8421 217.209,27.9567 C217.136,28.0609 217.047,28.2536 216.943,28.5348 L215.662,31.738 C215.526,32.0609 215.433,32.2276 215.381,32.238 C215.308,32.238 215.224,32.0921 215.131,31.8005 C215.12,31.7901 215.115,31.7796 215.115,31.7692 L213.912,28.8942 C213.662,28.3005 213.474,27.9515 213.349,27.8473 C213.266,27.7848 213.151,27.7536 213.006,27.7536 L213.006,27.5973 L214.974,27.5973 L214.974,27.7536 C214.693,27.7744 214.542,27.8473 214.521,27.9723 C214.511,27.9932 214.506,28.014 214.506,28.0348 C214.506,28.1494 214.537,28.2692 214.599,28.3942 L215.615,30.9567 L216.599,28.363 C216.641,28.2692 216.662,28.1703 216.662,28.0661 C216.662,27.889 216.516,27.7848 216.224,27.7536 C216.214,27.7536 216.203,27.7536 216.193,27.7536 L216.193,27.5973 L217.584,27.5973 M218.927,29.3317 C218.969,30.5088 219.355,31.2015 220.084,31.4098 C220.209,31.4515 220.344,31.4723 220.49,31.4723 C220.98,31.4723 221.396,31.264 221.74,30.8473 C221.834,30.7328 221.933,30.5973 222.037,30.4411 L222.193,30.5036 C221.828,31.4619 221.256,32.014 220.474,32.1598 C220.339,32.1807 220.209,32.1911 220.084,32.1911 C219.344,32.1911 218.813,31.8786 218.49,31.2536 C218.302,30.8786 218.209,30.4463 218.209,29.9567 C218.209,29.0713 218.485,28.3994 219.037,27.9411 C219.401,27.6494 219.823,27.5036 220.302,27.5036 C221.219,27.5036 221.771,28.0244 221.959,29.0661 C221.98,29.1598 221.995,29.2484 222.006,29.3317 L218.927,29.3317 M218.943,29.0348 L220.99,29.0348 C220.896,28.4619 220.73,28.1078 220.49,27.9723 C220.365,27.9098 220.203,27.8786 220.006,27.8786 C219.412,27.8786 219.058,28.2536 218.943,29.0036 C218.943,29.014 218.943,29.0244 218.943,29.0348"/>
</svg>
