<?xml version="1.0" encoding="UTF-8" standalone="no"?>
<svg width="595.44px" height="841.68px" viewBox="0 0 595.44 841.68"
 xmlns="http://www.w3.org/2000/svg" xmlns:xlink="http://www.w3.org/1999/xlink" version="1.2" baseProfile="tiny">
<title>Guitar Scales and Arpeggios</title>
<desc>Generated by MuseScore 2.1.0</desc>
<polyline class="StaffLines" fill="none" stroke="#000000" stroke-width="0.40" stroke-linejoin="bevel" points="28.08,62.856 567.36,62.856"/>
<polyline class="StaffLines" fill="none" stroke="#000000" stroke-width="0.40" stroke-linejoin="bevel" points="28.08,67.824 567.36,67.824"/>
<polyline class="StaffLines" fill="none" stroke="#000000" stroke-width="0.40" stroke-linejoin="bevel" points="28.08,72.792 567.36,72.792"/>
<polyline class="StaffLines" fill="none" stroke="#000000" stroke-width="0.40" stroke-linejoin="bevel" points="28.08,77.76 567.36,77.76"/>
<polyline class="StaffLines" fill="none" stroke="#000000" stroke-width="0.40" stroke-linejoin="bevel" points="28.08,82.728 567.36,82.728"/>
<polyline class="StaffLines" fill="none" stroke="#000000" stroke-width="0.40" stroke-linejoin="bevel" points="28.08,115.02 567.36,115.02"/>
<polyline class="StaffLines" fill="none" stroke="#000000" stroke-width="0.40" stroke-linejoin="bevel" points="28.08,122.472 567.36,122.472"/>
<polyline class="StaffLines" fill="none" stroke="#000000" stroke-width="0.40" stroke-linejoin="bevel" points="28.08,129.924 567.36,129.924"/>
<polyline class="StaffLines" fill="none" stroke="#000000" stroke-width="0.40" stroke-linejoin="bevel" points="28.08,137.376 567.36,137.376"/>
<polyline class="StaffLines" fill="none" stroke="#000000" stroke-width="0.40" stroke-linejoin="bevel" points="28.08,144.828 567.36,144.828"/>
<polyline class="StaffLines" fill="none" stroke="#000000" stroke-width="0.40" stroke-linejoin="bevel" points="28.08,152.28 567.36,152.28"/>
<polyline class="BarLine" fill="none" stroke="#000000" stroke-width="0.79" stroke-linejoin="bevel" points="28.4774,62.856 28.4774,152.28"/>
<polyline class="BarLine" fill="none" stroke="#000000" stroke-width="0.79" stroke-linejoin="bevel" points="562.491,115.02 562.491,152.28"/>
<polyline class="BarLine" fill="none" stroke="#000000" stroke-width="2.48" stroke-linejoin="bevel" points="566.118,115.02 566.118,152.28"/>
<polyline class="BarLine" fill="none" stroke="#000000" stroke-width="0.79" stroke-linejoin="bevel" points="562.491,62.856 562.491,82.728"/>
<polyline class="BarLine" fill="none" stroke="#000000" stroke-width="2.48" stroke-linejoin="bevel" points="566.118,62.856 566.118,82.728"/>
<polyline class="LedgerLine" fill="none" stroke="#000000" stroke-width="0.79" stroke-linecap="square" stroke-linejoin="bevel" points="455.879,87.696 465.759,87.696"/>
<polyline class="LedgerLine" fill="none" stroke="#000000" stroke-width="0.79" stroke-linecap="square" stroke-linejoin="bevel" points="455.879,92.664 465.759,92.664"/>
<polyline class="LedgerLine" fill="none" stroke="#000000" stroke-width="0.79" stroke-linecap="square" stroke-linejoin="bevel" points="455.879,97.632 465.759,97.632"/>
<polyline class="LedgerLine" fill="none" stroke="#000000" stroke-width="0.79" stroke-linecap="square" stroke-linejoin="bevel" points="390.718,87.696 400.239,87.696"/>
<polyline class="LedgerLine" fill="none" stroke="#000000" stroke-width="0.79" stroke-linecap="square" stroke-linejoin="bevel" points="390.718,92.664 400.239,92.664"/>
<polyline class="LedgerLine" fill="none" stroke="#000000" stroke-width="0.79" stroke-linecap="square" stroke-linejoin="bevel" points="325.377,87.696 334.899,87.696"/>
<polyline class="LedgerLine" fill="none" stroke="#000000" stroke-width="0.79" stroke-linecap="square" stroke-linejoin="bevel" points="194.696,87.696 204.218,87.696"/>
<polyline class="LedgerLine" fill="none" stroke="#000000" stroke-width="0.79" stroke-linecap="square" stroke-linejoin="bevel" points="129.356,87.696 138.877,87.696"/>
<polyline class="LedgerLine" fill="none" stroke="#000000" stroke-width="0.79" stroke-linecap="square" stroke-linejoin="bevel" points="129.356,92.664 138.877,92.664"/>
<polyline class="LedgerLine" fill="none" stroke="#000000" stroke-width="0.79" stroke-linecap="square" stroke-linejoin="bevel" points="64.0149,87.696 73.5364,87.696"/>
<polyline class="LedgerLine" fill="none" stroke="#000000" stroke-width="0.79" stroke-linecap="square" stroke-linejoin="bevel" points="64.0149,92.664 73.5364,92.664"/>
<polyline class="LedgerLine" fill="none" stroke="#000000" stroke-width="0.79" stroke-linecap="square" stroke-linejoin="bevel" points="64.0149,97.632 73.5364,97.632"/>
<polyline class="Stem" fill="none" stroke="#000000" stroke-width="0.65" stroke-linecap="round" stroke-linejoin="bevel" points="463.946,96.8689 463.946,72.792"/>
<polyline class="Stem" fill="none" stroke="#000000" stroke-width="0.65" stroke-linecap="round" stroke-linejoin="bevel" points="398.426,91.7309 398.426,72.792"/>
<polyline class="Stem" fill="none" stroke="#000000" stroke-width="0.65" stroke-linecap="round" stroke-linejoin="bevel" points="333.086,86.7629 333.086,70.308"/>
<polyline class="Stem" fill="none" stroke="#000000" stroke-width="0.65" stroke-linecap="round" stroke-linejoin="bevel" points="267.745,79.3109 267.745,62.856"/>
<polyline class="Stem" fill="none" stroke="#000000" stroke-width="0.65" stroke-linecap="round" stroke-linejoin="bevel" points="202.404,86.7629 202.404,70.308"/>
<polyline class="Stem" fill="none" stroke="#000000" stroke-width="0.65" stroke-linecap="round" stroke-linejoin="bevel" points="137.064,91.7309 137.064,72.792"/>
<polyline class="Stem" fill="none" stroke="#000000" stroke-width="0.65" stroke-linecap="round" stroke-linejoin="bevel" points="71.7231,96.6989 71.7231,72.792"/>
<path class="Note" fill="#ffffff" fill-rule="evenodd" d="M458.294,148.554 L464.256,148.554 L464.256,156.006 L458.294,156.006 L458.294,148.554 "/>
<path class="Note" transform="matrix(0.9936,0,0,0.9936,458.791,155.758)" d="M2.32813,-4.54688 L0.921875,-4.54688 L0.921875,-5.10938 C1.53646,-5.19271 1.93229,-5.30208 2.10938,-5.4375 C2.28646,-5.57292 2.4375,-5.85417 2.5625,-6.28125 C2.57292,-6.3125 2.58854,-6.34896 2.60938,-6.39063 L3.125,-6.39063 L3.125,0 L2.32813,0 L2.32813,-4.54688 "/>
<path class="Note" fill="#ebeb19" transform="matrix(0.9936,0,0,0.9936,457.37,97.632)" d="M6.3125,-1.3125 C6.3125,-1.53125 6.22917,-1.71875 6.0625,-1.875 C5.88542,-2.04167 5.6875,-2.125 5.46875,-2.125 C5.08333,-2.125 4.29688,-1.73438 3.10938,-0.953125 C1.88021,-0.161458 1.13021,0.40625 0.859375,0.75 C0.713542,0.927083 0.640625,1.11458 0.640625,1.3125 C0.640625,1.53125 0.729167,1.71875 0.90625,1.875 C1.0625,2.04167 1.25521,2.125 1.48438,2.125 C1.85938,2.125 2.65625,1.73438 3.875,0.953125 C5.07292,0.171875 5.8125,-0.395833 6.09375,-0.75 C6.23958,-0.916667 6.3125,-1.10417 6.3125,-1.3125 M5.28125,-2.75 C6.39583,-2.75 6.95313,-2.27083 6.95313,-1.3125 C6.95313,-0.84375 6.81771,-0.296875 6.54688,0.328125 C6.27604,0.942708 5.91146,1.41146 5.45313,1.73438 C4.45313,2.41146 3.19792,2.75 1.6875,2.75 C0.5625,2.75 0,2.27083 0,1.3125 C0,0.885417 0.135417,0.34375 0.40625,-0.3125 C0.666667,-0.9375 1.03125,-1.41146 1.5,-1.73438 C2.51042,-2.41146 3.77083,-2.75 5.28125,-2.75"/>
<path class="Note" fill="#ffffff" fill-rule="evenodd" d="M392.954,141.102 L398.915,141.102 L398.915,148.554 L392.954,148.554 L392.954,141.102 "/>
<path class="Note" transform="matrix(0.9936,0,0,0.9936,393.45,148.306)" d="M0.390625,-3.09375 C0.390625,-5 0.927083,-6.07813 2,-6.32813 C2.14583,-6.36979 2.30208,-6.39063 2.46875,-6.39063 C3.78125,-6.39063 4.47917,-5.40104 4.5625,-3.42188 C4.5625,-3.28646 4.5625,-3.15625 4.5625,-3.03125 C4.5625,-1.40625 4.15104,-0.385417 3.32813,0.03125 C3.06771,0.145833 2.78125,0.203125 2.46875,0.203125 C1.41667,0.203125 0.760417,-0.442708 0.5,-1.73438 C0.427083,-2.14063 0.390625,-2.59375 0.390625,-3.09375 M2.46875,-5.64063 C1.625,-5.63021 1.20313,-4.77083 1.20313,-3.0625 C1.20313,-1.32292 1.61979,-0.453125 2.45313,-0.453125 C3.16146,-0.453125 3.57813,-1.02604 3.70313,-2.17188 C3.73438,-2.44271 3.75,-2.75 3.75,-3.09375 C3.75,-4.79167 3.32292,-5.64063 2.46875,-5.64063"/>
<path class="Note" fill="#cc00ff" transform="matrix(0.9936,0,0,0.9936,392.208,92.664)" d="M4.39063,-2.75 C5.01563,-2.75 5.54688,-2.58854 5.98438,-2.26563 C6.38021,-1.91146 6.57813,-1.46875 6.57813,-0.9375 C6.57813,-0.0416667 6.11979,0.796875 5.20313,1.57813 C4.26563,2.35938 3.26042,2.75 2.1875,2.75 C1.5625,2.75 1.03646,2.58854 0.609375,2.26563 C0.203125,1.91146 0,1.46875 0,0.9375 C0,0.0416667 0.46875,-0.796875 1.40625,-1.57813 C2.32292,-2.35938 3.31771,-2.75 4.39063,-2.75"/>
<path class="Note" fill="#ffffff" fill-rule="evenodd" d="M327.613,141.102 L333.575,141.102 L333.575,148.554 L327.613,148.554 L327.613,141.102 "/>
<path class="Note" transform="matrix(0.9936,0,0,0.9936,328.11,148.306)" d="M2.4375,-5.64063 C1.75,-5.64063 1.35417,-5.32813 1.25,-4.70313 C1.22917,-4.59896 1.21875,-4.47917 1.21875,-4.34375 L0.421875,-4.34375 C0.442708,-5.59375 1.01563,-6.27083 2.14063,-6.375 C2.23438,-6.38542 2.32813,-6.39063 2.42188,-6.39063 C3.26563,-6.39063 3.84375,-6.10938 4.15625,-5.54688 C4.29167,-5.28646 4.35938,-4.98438 4.35938,-4.64063 C4.35938,-4.00521 4.0625,-3.57292 3.46875,-3.34375 C4.03125,-3.14583 4.375,-2.81771 4.5,-2.35938 C4.54167,-2.19271 4.5625,-2.00521 4.5625,-1.79688 C4.5625,-1.05729 4.27604,-0.505208 3.70313,-0.140625 C3.33854,0.0885417 2.90104,0.203125 2.39063,0.203125 C1.21354,0.203125 0.526042,-0.348958 0.328125,-1.45313 C0.317708,-1.57813 0.302083,-1.71354 0.28125,-1.85938 L1.07813,-1.85938 C1.13021,-1.08854 1.46875,-0.65625 2.09375,-0.5625 C2.19792,-0.541667 2.30729,-0.53125 2.42188,-0.53125 C3.04688,-0.53125 3.45313,-0.765625 3.64063,-1.23438 C3.71354,-1.40104 3.75,-1.58854 3.75,-1.79688 C3.73958,-2.54688 3.29688,-2.92708 2.42188,-2.9375 L2.09375,-2.92188 L1.98438,-2.92188 L1.98438,-3.67188 C2.66146,-3.68229 3.10417,-3.77604 3.3125,-3.95313 C3.47917,-4.09896 3.5625,-4.31771 3.5625,-4.60938 C3.5625,-5.09896 3.34896,-5.41667 2.92188,-5.5625 C2.77604,-5.61458 2.61458,-5.64063 2.4375,-5.64063"/>
<path class="Note" fill="#ed2929" transform="matrix(0.9936,0,0,0.9936,326.868,87.696)" d="M4.39063,-2.75 C5.01563,-2.75 5.54688,-2.58854 5.98438,-2.26563 C6.38021,-1.91146 6.57813,-1.46875 6.57813,-0.9375 C6.57813,-0.0416667 6.11979,0.796875 5.20313,1.57813 C4.26563,2.35938 3.26042,2.75 2.1875,2.75 C1.5625,2.75 1.03646,2.58854 0.609375,2.26563 C0.203125,1.91146 0,1.46875 0,0.9375 C0,0.0416667 0.46875,-0.796875 1.40625,-1.57813 C2.32292,-2.35938 3.31771,-2.75 4.39063,-2.75"/>
<path class="Note" fill="#ffffff" fill-rule="evenodd" d="M262.272,133.65 L268.234,133.65 L268.234,141.102 L262.272,141.102 L262.272,133.65 "/>
<path class="Note" transform="matrix(0.9936,0,0,0.9936,262.769,140.854)" d="M2.4375,-5.64063 C1.75,-5.64063 1.35417,-5.32813 1.25,-4.70313 C1.22917,-4.59896 1.21875,-4.47917 1.21875,-4.34375 L0.421875,-4.34375 C0.442708,-5.59375 1.01563,-6.27083 2.14063,-6.375 C2.23438,-6.38542 2.32813,-6.39063 2.42188,-6.39063 C3.26563,-6.39063 3.84375,-6.10938 4.15625,-5.54688 C4.29167,-5.28646 4.35938,-4.98438 4.35938,-4.64063 C4.35938,-4.00521 4.0625,-3.57292 3.46875,-3.34375 C4.03125,-3.14583 4.375,-2.81771 4.5,-2.35938 C4.54167,-2.19271 4.5625,-2.00521 4.5625,-1.79688 C4.5625,-1.05729 4.27604,-0.505208 3.70313,-0.140625 C3.33854,0.0885417 2.90104,0.203125 2.39063,0.203125 C1.21354,0.203125 0.526042,-0.348958 0.328125,-1.45313 C0.317708,-1.57813 0.302083,-1.71354 0.28125,-1.85938 L1.07813,-1.85938 C1.13021,-1.08854 1.46875,-0.65625 2.09375,-0.5625 C2.19792,-0.541667 2.30729,-0.53125 2.42188,-0.53125 C3.04688,-0.53125 3.45313,-0.765625 3.64063,-1.23438 C3.71354,-1.40104 3.75,-1.58854 3.75,-1.79688 C3.73958,-2.54688 3.29688,-2.92708 2.42188,-2.9375 L2.09375,-2.92188 L1.98438,-2.92188 L1.98438,-3.67188 C2.66146,-3.68229 3.10417,-3.77604 3.3125,-3.95313 C3.47917,-4.09896 3.5625,-4.31771 3.5625,-4.60938 C3.5625,-5.09896 3.34896,-5.41667 2.92188,-5.5625 C2.77604,-5.61458 2.61458,-5.64063 2.4375,-5.64063"/>
<path class="Note" fill="#ebeb19" transform="matrix(0.9936,0,0,0.9936,261.527,80.244)" d="M4.39063,-2.75 C5.01563,-2.75 5.54688,-2.58854 5.98438,-2.26563 C6.38021,-1.91146 6.57813,-1.46875 6.57813,-0.9375 C6.57813,-0.0416667 6.11979,0.796875 5.20313,1.57813 C4.26563,2.35938 3.26042,2.75 2.1875,2.75 C1.5625,2.75 1.03646,2.58854 0.609375,2.26563 C0.203125,1.91146 0,1.46875 0,0.9375 C0,0.0416667 0.46875,-0.796875 1.40625,-1.57813 C2.32292,-2.35938 3.31771,-2.75 4.39063,-2.75"/>
<path class="Note" fill="#ffffff" fill-rule="evenodd" d="M196.932,141.102 L202.893,141.102 L202.893,148.554 L196.932,148.554 L196.932,141.102 "/>
<path class="Note" transform="matrix(0.9936,0,0,0.9936,197.429,148.306)" d="M2.4375,-5.64063 C1.75,-5.64063 1.35417,-5.32813 1.25,-4.70313 C1.22917,-4.59896 1.21875,-4.47917 1.21875,-4.34375 L0.421875,-4.34375 C0.442708,-5.59375 1.01563,-6.27083 2.14063,-6.375 C2.23438,-6.38542 2.32813,-6.39063 2.42188,-6.39063 C3.26563,-6.39063 3.84375,-6.10938 4.15625,-5.54688 C4.29167,-5.28646 4.35938,-4.98438 4.35938,-4.64063 C4.35938,-4.00521 4.0625,-3.57292 3.46875,-3.34375 C4.03125,-3.14583 4.375,-2.81771 4.5,-2.35938 C4.54167,-2.19271 4.5625,-2.00521 4.5625,-1.79688 C4.5625,-1.05729 4.27604,-0.505208 3.70313,-0.140625 C3.33854,0.0885417 2.90104,0.203125 2.39063,0.203125 C1.21354,0.203125 0.526042,-0.348958 0.328125,-1.45313 C0.317708,-1.57813 0.302083,-1.71354 0.28125,-1.85938 L1.07813,-1.85938 C1.13021,-1.08854 1.46875,-0.65625 2.09375,-0.5625 C2.19792,-0.541667 2.30729,-0.53125 2.42188,-0.53125 C3.04688,-0.53125 3.45313,-0.765625 3.64063,-1.23438 C3.71354,-1.40104 3.75,-1.58854 3.75,-1.79688 C3.73958,-2.54688 3.29688,-2.92708 2.42188,-2.9375 L2.09375,-2.92188 L1.98438,-2.92188 L1.98438,-3.67188 C2.66146,-3.68229 3.10417,-3.77604 3.3125,-3.95313 C3.47917,-4.09896 3.5625,-4.31771 3.5625,-4.60938 C3.5625,-5.09896 3.34896,-5.41667 2.92188,-5.5625 C2.77604,-5.61458 2.61458,-5.64063 2.4375,-5.64063"/>
<path class="Note" fill="#ed2929" transform="matrix(0.9936,0,0,0.9936,196.187,87.696)" d="M4.39063,-2.75 C5.01563,-2.75 5.54688,-2.58854 5.98438,-2.26563 C6.38021,-1.91146 6.57813,-1.46875 6.57813,-0.9375 C6.57813,-0.0416667 6.11979,0.796875 5.20313,1.57813 C4.26563,2.35938 3.26042,2.75 2.1875,2.75 C1.5625,2.75 1.03646,2.58854 0.609375,2.26563 C0.203125,1.91146 0,1.46875 0,0.9375 C0,0.0416667 0.46875,-0.796875 1.40625,-1.57813 C2.32292,-2.35938 3.31771,-2.75 4.39063,-2.75"/>
<path class="Note" fill="#ffffff" fill-rule="evenodd" d="M131.591,141.102 L137.553,141.102 L137.553,148.554 L131.591,148.554 L131.591,141.102 "/>
<path class="Note" transform="matrix(0.9936,0,0,0.9936,132.088,148.306)" d="M0.390625,-3.09375 C0.390625,-5 0.927083,-6.07813 2,-6.32813 C2.14583,-6.36979 2.30208,-6.39063 2.46875,-6.39063 C3.78125,-6.39063 4.47917,-5.40104 4.5625,-3.42188 C4.5625,-3.28646 4.5625,-3.15625 4.5625,-3.03125 C4.5625,-1.40625 4.15104,-0.385417 3.32813,0.03125 C3.06771,0.145833 2.78125,0.203125 2.46875,0.203125 C1.41667,0.203125 0.760417,-0.442708 0.5,-1.73438 C0.427083,-2.14063 0.390625,-2.59375 0.390625,-3.09375 M2.46875,-5.64063 C1.625,-5.63021 1.20313,-4.77083 1.20313,-3.0625 C1.20313,-1.32292 1.61979,-0.453125 2.45313,-0.453125 C3.16146,-0.453125 3.57813,-1.02604 3.70313,-2.17188 C3.73438,-2.44271 3.75,-2.75 3.75,-3.09375 C3.75,-4.79167 3.32292,-5.64063 2.46875,-5.64063"/>
<path class="Note" fill="#cc00ff" transform="matrix(0.9936,0,0,0.9936,130.846,92.664)" d="M4.39063,-2.75 C5.01563,-2.75 5.54688,-2.58854 5.98438,-2.26563 C6.38021,-1.91146 6.57813,-1.46875 6.57813,-0.9375 C6.57813,-0.0416667 6.11979,0.796875 5.20313,1.57813 C4.26563,2.35938 3.26042,2.75 2.1875,2.75 C1.5625,2.75 1.03646,2.58854 0.609375,2.26563 C0.203125,1.91146 0,1.46875 0,0.9375 C0,0.0416667 0.46875,-0.796875 1.40625,-1.57813 C2.32292,-2.35938 3.31771,-2.75 4.39063,-2.75"/>
<path class="Note" fill="#ffffff" fill-rule="evenodd" d="M66.2505,148.554 L72.2121,148.554 L72.2121,156.006 L66.2505,156.006 L66.2505,148.554 "/>
<path class="Note" transform="matrix(0.9936,0,0,0.9936,66.7473,155.758)" d="M2.32813,-4.54688 L0.921875,-4.54688 L0.921875,-5.10938 C1.53646,-5.19271 1.93229,-5.30208 2.10938,-5.4375 C2.28646,-5.57292 2.4375,-5.85417 2.5625,-6.28125 C2.57292,-6.3125 2.58854,-6.34896 2.60938,-6.39063 L3.125,-6.39063 L3.125,0 L2.32813,0 L2.32813,-4.54688 "/>
<path class="Note" fill="#ebeb19" transform="matrix(0.9936,0,0,0.9936,65.5053,97.632)" d="M4.39063,-2.75 C5.01563,-2.75 5.54688,-2.58854 5.98438,-2.26563 C6.38021,-1.91146 6.57813,-1.46875 6.57813,-0.9375 C6.57813,-0.0416667 6.11979,0.796875 5.20313,1.57813 C4.26563,2.35938 3.26042,2.75 2.1875,2.75 C1.5625,2.75 1.03646,2.58854 0.609375,2.26563 C0.203125,1.91146 0,1.46875 0,0.9375 C0,0.0416667 0.46875,-0.796875 1.40625,-1.57813 C2.32292,-2.35938 3.31771,-2.75 4.39063,-2.75"/>
<path class="Clef" transform="matrix(0.9936,0,0,0.9936,32.0544,133.65)" d="M5.32813,8.5 C5.32813,8.86458 5.04167,9.04688 4.46875,9.04688 C4.02083,9.04688 3.625,8.91146 3.28125,8.64063 C2.95833,8.34896 2.79688,7.98438 2.79688,7.54688 C2.79688,6.76563 3.27083,6.14063 4.21875,5.67188 C5.14583,5.18229 6.23438,4.9375 7.48438,4.9375 C7.96354,4.9375 8.47917,4.97396 9.03125,5.04688 C9.42708,5.09896 9.875,5.20313 10.375,5.35938 C10.8125,5.49479 11.1563,5.70573 11.4063,5.99219 C11.6563,6.27865 11.7813,6.61458 11.7813,7 C11.7813,7.89583 11.3177,8.63021 10.3906,9.20313 C11.7448,9.45313 12.4271,10.0573 12.4375,11.0156 C12.4375,11.8281 12.0729,12.5599 11.3438,13.2109 C10.6146,13.862 9.79167,14.1875 8.875,14.1875 C8.47917,14.1875 8.07813,14.0938 7.67188,13.9063 C7.29688,13.7292 7.03125,13.5625 6.875,13.4063 C6.71875,13.2188 6.64063,13.0781 6.64063,12.9844 C6.64063,12.8594 6.70833,12.75 6.84375,12.6563 C6.95833,12.5417 7.07813,12.4844 7.20313,12.4844 C7.25521,12.4844 7.36719,12.5677 7.53906,12.7344 C7.71094,12.901 7.95833,12.9844 8.28125,12.9844 C8.72917,12.9844 9.16146,12.7969 9.57813,12.4219 C9.97396,12.0573 10.1719,11.6198 10.1719,11.1094 C10.1719,10.6719 9.98438,10.3542 9.60938,10.1563 C9.24479,9.95833 8.76563,9.85938 8.17188,9.85938 C8.06771,9.85938 8.01563,9.75 8.01563,9.53125 C8.01563,9.21875 8.13021,9.0625 8.35938,9.0625 C8.72396,9.0625 9.05208,8.90625 9.34375,8.59375 C9.61458,8.26042 9.75,7.90104 9.75,7.51563 C9.75,7.40104 9.71875,7.22917 9.65625,7 C9.60417,6.84375 9.44792,6.65104 9.1875,6.42188 C8.9375,6.21354 8.58854,6.07292 8.14063,6 C8.02604,6.63542 7.88021,7.44792 7.70313,8.4375 C7.52604,9.42708 7.40625,10.0781 7.34375,10.3906 C7.125,11.5156 6.72396,12.4583 6.14063,13.2188 C5.52604,14.0313 4.86458,14.4375 4.15625,14.4375 C3.9375,14.4375 3.71354,14.3854 3.48438,14.2813 C3.29688,14.1979 3.0625,14.0365 2.78125,13.7969 C2.52083,13.5885 2.34375,13.4479 2.25,13.375 C2.19792,13.3438 2.17188,13.2865 2.17188,13.2031 C2.17188,13.0781 2.21875,12.9635 2.3125,12.8594 C2.41667,12.7344 2.52604,12.6719 2.64063,12.6719 C2.71354,12.6719 2.89323,12.7969 3.17969,13.0469 C3.46615,13.2969 3.76563,13.4219 4.07813,13.4219 C4.68229,13.4219 5.13542,13.0365 5.4375,12.2656 C5.71875,11.526 5.85938,10.6094 5.85938,9.51563 L5.85938,9.35938 C5.85938,8.63021 5.97917,7.54167 6.21875,6.09375 C5.80208,6.22917 5.46875,6.42708 5.21875,6.6875 C4.95833,6.94792 4.82813,7.21875 4.82813,7.5 C4.82813,7.71875 4.91146,7.90625 5.07813,8.0625 C5.24479,8.21875 5.32813,8.36458 5.32813,8.5 M1.40625,2.39063 C1.46875,2.39063 1.625,2.45313 1.875,2.57813 C2.13542,2.71354 2.35938,2.78125 2.54688,2.78125 C3.03646,2.78125 3.64063,2.42188 4.35938,1.70313 C6.43229,-0.411458 7.85938,-2.65104 8.64063,-5.01563 C8.79688,-5.51563 9.17708,-5.76563 9.78125,-5.76563 C10.0938,-5.76563 10.3646,-5.69792 10.5938,-5.5625 C10.8125,-5.42708 10.9219,-5.28646 10.9219,-5.14063 L10.5625,2.17188 C10.5625,2.55729 10.7031,2.75 10.9844,2.75 C11.1198,2.75 11.3281,2.6875 11.6094,2.5625 C11.8698,2.42708 12.026,2.35938 12.0781,2.35938 C12.1823,2.35938 12.2448,2.47396 12.2656,2.70313 C12.2656,2.91146 12.1823,3.04167 12.0156,3.09375 C11.8802,3.125 11.6198,3.24479 11.2344,3.45313 C10.8281,3.66146 10.5104,3.76563 10.2813,3.76563 C9.78125,3.76563 9.42708,3.375 9.21875,2.59375 C8.89583,1.375 8.6875,0.104167 8.59375,-1.21875 C8.07292,-0.552083 7.49479,0.119792 6.85938,0.796875 C7.08854,1.24479 7.51563,1.46875 8.14063,1.46875 C8.23438,1.46875 8.30729,1.46354 8.35938,1.45313 L8.375,1.45313 C8.47917,1.45313 8.53125,1.54688 8.53125,1.73438 C8.53125,1.98438 8.44792,2.13542 8.28125,2.1875 C8.01042,2.28125 7.72396,2.32813 7.42188,2.32813 C6.77604,2.32813 6.30729,2.10417 6.01563,1.65625 L5.23438,2.35938 C4.14063,3.29688 3.25,3.76563 2.5625,3.76563 C2.375,3.76563 2.1875,3.73438 2,3.67188 C1.84375,3.60938 1.66146,3.51042 1.45313,3.375 C1.36979,3.34375 1.27865,3.29688 1.17969,3.23438 C1.08073,3.17188 1.02083,3.13542 1,3.125 C0.9375,3.10417 0.90625,3.04688 0.90625,2.95313 C0.90625,2.84896 0.958333,2.72396 1.0625,2.57813 C1.14583,2.45313 1.26042,2.39063 1.40625,2.39063 M5.76563,-10.7969 C5.76563,-10.474 5.48438,-10.3125 4.92188,-10.3125 C4.43229,-10.3125 4.00521,-10.474 3.64063,-10.7969 C3.28646,-11.1302 3.10938,-11.5313 3.10938,-12 C3.10938,-12.4479 3.25,-12.8385 3.53125,-13.1719 C3.83333,-13.5052 4.21875,-13.7552 4.6875,-13.9219 C5.11458,-14.0781 5.59896,-14.2031 6.14063,-14.2969 C6.69271,-14.3594 7.22396,-14.3906 7.73438,-14.3906 C8.03646,-14.3906 8.59896,-14.2552 9.42188,-13.9844 C10.2552,-13.7135 10.8333,-13.5781 11.1563,-13.5781 C11.5625,-13.5781 11.9479,-13.651 12.3125,-13.7969 C12.6042,-13.9219 12.8906,-14.0677 13.1719,-14.2344 C13.3906,-14.3802 13.5104,-14.4531 13.5313,-14.4531 C13.6563,-14.4531 13.7604,-14.4167 13.8438,-14.3438 C13.9479,-14.2396 14,-14.151 14,-14.0781 C14,-13.9948 13.8802,-13.849 13.6406,-13.6406 C13.3802,-13.401 13.0078,-13.1641 12.5234,-12.9297 C12.0391,-12.6953 11.5313,-12.5781 11,-12.5781 C10.7604,-12.5781 10.4688,-12.6198 10.125,-12.7031 C9.89583,-11.2552 9.66146,-9.96875 9.42188,-8.84375 C9.21354,-7.85417 8.79688,-6.98958 8.17188,-6.25 C7.56771,-5.51042 6.89583,-5.14063 6.15625,-5.14063 C5.85417,-5.14063 5.58854,-5.19792 5.35938,-5.3125 C5.09896,-5.44792 4.82292,-5.64583 4.53125,-5.90625 C4.30208,-6.09375 4.08333,-6.26563 3.875,-6.42188 C3.82292,-6.46354 3.79688,-6.52604 3.79688,-6.60938 C3.79688,-6.69271 3.84896,-6.80729 3.95313,-6.95313 C4.05729,-7.06771 4.15104,-7.125 4.23438,-7.125 C4.31771,-7.125 4.54167,-6.96354 4.90625,-6.64063 C5.27083,-6.31771 5.59375,-6.15625 5.875,-6.15625 C6.39583,-6.15625 6.80208,-6.45313 7.09375,-7.04688 C7.375,-7.64063 7.53646,-8.34375 7.57813,-9.15625 C7.64063,-10.5 7.79167,-11.8906 8.03125,-13.3281 C7.73958,-13.3906 7.52604,-13.4219 7.39063,-13.4219 C6.76563,-13.4219 6.22917,-13.2917 5.78125,-13.0313 C5.34375,-12.7813 5.125,-12.4427 5.125,-12.0156 C5.125,-11.7031 5.22917,-11.4635 5.4375,-11.2969 C5.65625,-11.1094 5.76563,-10.9427 5.76563,-10.7969"/>
<path class="Clef" transform="matrix(0.9936,0,0,0.9936,32.0544,77.76)" d="M7.34375,-5.125 C7.34375,-5.125 7.38542,-5.125 7.46875,-5.125 C7.52083,-5.13542 7.5625,-5.14063 7.59375,-5.14063 C9.05208,-5.14063 10.25,-4.625 11.1875,-3.59375 C12.125,-2.58333 12.5938,-1.40104 12.5938,-0.046875 C12.5938,1.64063 11.901,3.01042 10.5156,4.0625 C10.151,4.35417 9.67188,4.58854 9.07813,4.76563 C9.15104,5.60938 9.1875,6.29167 9.1875,6.8125 C9.1875,6.91667 9.17188,7.29688 9.14063,7.95313 C9.08854,9.16146 8.67188,10.2083 7.89063,11.0938 C7.14063,11.9688 6.20313,12.4063 5.07813,12.4063 C4.02604,12.4063 3.13021,12.0365 2.39063,11.2969 C1.64063,10.5365 1.26563,9.625 1.26563,8.5625 C1.26563,8 1.48438,7.52083 1.92188,7.125 C2.35938,6.73958 2.86979,6.54688 3.45313,6.54688 C3.97396,6.54688 4.41146,6.75 4.76563,7.15625 C5.13021,7.53125 5.3125,8 5.3125,8.5625 C5.3125,9.0625 5.13021,9.49479 4.76563,9.85938 C4.40104,10.224 3.96354,10.4063 3.45313,10.4063 C3.24479,10.4063 3.04688,10.3698 2.85938,10.2969 C3.43229,11.1406 4.19271,11.5625 5.14063,11.5625 C6.03646,11.5625 6.77083,11.1979 7.34375,10.4688 C7.94792,9.71875 8.27604,8.83854 8.32813,7.82813 C8.34896,7.20313 8.35938,6.84896 8.35938,6.76563 C8.35938,6.03646 8.33333,5.4375 8.28125,4.96875 C7.63542,5.07292 7.05729,5.125 6.54688,5.125 C4.73438,5.125 3.19271,4.40625 1.92188,2.96875 C0.671875,1.52083 0.046875,-0.197917 0.046875,-2.1875 C0.046875,-2.60417 0.0833333,-3.02604 0.15625,-3.45313 C0.239583,-3.80729 0.338542,-4.19271 0.453125,-4.60938 C0.515625,-4.84896 0.692708,-5.22917 0.984375,-5.75 C1.08854,-5.90625 1.20573,-6.10156 1.33594,-6.33594 C1.46615,-6.57031 1.55729,-6.72396 1.60938,-6.79688 C1.73438,-7.05729 1.98438,-7.41146 2.35938,-7.85938 C2.46354,-7.97396 2.57292,-8.10156 2.6875,-8.24219 C2.80208,-8.38281 2.89844,-8.5 2.97656,-8.59375 C3.05469,-8.6875 3.11198,-8.76042 3.14844,-8.8125 C3.1849,-8.86458 3.47917,-9.20833 4.03125,-9.84375 C4.15625,-9.97917 4.28125,-10.1198 4.40625,-10.2656 C4.53125,-10.4115 4.63281,-10.5286 4.71094,-10.6172 C4.78906,-10.7057 4.84896,-10.7656 4.89063,-10.7969 C4.42188,-12.349 4.125,-13.5885 4,-14.5156 C3.91667,-15.2552 3.875,-16.2708 3.875,-17.5625 C3.875,-18.6979 4.13542,-19.7604 4.65625,-20.75 C5.15625,-21.7708 5.86458,-22.6094 6.78125,-23.2656 C6.84375,-23.3073 6.90625,-23.3281 6.96875,-23.3281 C7.0625,-23.3281 7.13021,-23.3073 7.17188,-23.2656 C7.86979,-22.4219 8.47396,-21.3229 8.98438,-19.9688 C9.50521,-18.6146 9.76563,-17.3802 9.76563,-16.2656 C9.76563,-15.0156 9.46875,-13.8438 8.875,-12.75 C8.19792,-11.5938 7.32292,-10.3958 6.25,-9.15625 C6.52083,-8.30208 6.88542,-6.95833 7.34375,-5.125 M9,3.96875 C9.67708,3.71875 10.2083,3.29688 10.5938,2.70313 C11.0104,2.13021 11.2188,1.48438 11.2188,0.765625 C11.2188,-0.161458 10.9063,-0.984375 10.2813,-1.70313 C9.63542,-2.44271 8.81771,-2.85938 7.82813,-2.95313 C8.39063,-0.203125 8.78125,2.10417 9,3.96875 M1.45313,-0.546875 C1.45313,0.744792 1.97396,1.88021 3.01563,2.85938 C4.07813,3.80729 5.27604,4.28125 6.60938,4.28125 C7.15104,4.28125 7.68229,4.23958 8.20313,4.15625 C7.99479,2.17708 7.58333,-0.192708 6.96875,-2.95313 C6.22917,-2.86979 5.64063,-2.60938 5.20313,-2.17188 C4.76563,-1.71354 4.54688,-1.19792 4.54688,-0.625 C4.54688,0.364583 5.07813,1.16667 6.14063,1.78125 C6.22396,1.875 6.26563,1.97396 6.26563,2.07813 C6.26563,2.18229 6.22396,2.27604 6.14063,2.35938 C6.05729,2.45313 5.95833,2.5 5.84375,2.5 C5.83333,2.5 5.77604,2.48958 5.67188,2.46875 C4.92188,2.0625 4.34896,1.54167 3.95313,0.90625 C3.56771,0.21875 3.375,-0.46875 3.375,-1.15625 C3.375,-2.05208 3.65625,-2.86458 4.21875,-3.59375 C4.80208,-4.32292 5.5625,-4.79167 6.5,-5 C6.13542,-6.45833 5.83854,-7.59896 5.60938,-8.42188 C5.40104,-8.18229 5.15104,-7.89844 4.85938,-7.57031 C4.56771,-7.24219 4.39583,-7.04167 4.34375,-6.96875 C3.875,-6.36458 3.51563,-5.89063 3.26563,-5.54688 C2.81771,-4.93229 2.48958,-4.40625 2.28125,-3.96875 C2.0625,-3.46875 1.86979,-2.92708 1.70313,-2.34375 C1.53646,-1.78125 1.45313,-1.18229 1.45313,-0.546875 M7.96875,-20.4063 C6.98958,-19.9271 6.22396,-19.2396 5.67188,-18.3438 C5.09896,-17.4167 4.8125,-16.4219 4.8125,-15.3594 C4.8125,-14.4219 5.04688,-13.1563 5.51563,-11.5625 C6.45313,-12.6979 7.15625,-13.7448 7.625,-14.7031 C8.11458,-15.724 8.35938,-16.7865 8.35938,-17.8906 C8.35938,-18.724 8.22917,-19.5625 7.96875,-20.4063 M5.82813,15.2344 C6.16146,14.901 6.32813,14.5625 6.32813,14.2188 C6.30729,13.9479 6.19271,13.7396 5.98438,13.5938 C5.74479,13.4375 5.46875,13.3594 5.15625,13.3594 C4.9375,13.3594 4.75521,13.4323 4.60938,13.5781 C4.48438,13.7031 4.42188,13.8646 4.42188,14.0625 C4.42188,14.3021 4.51563,14.4792 4.70313,14.5938 L5.82813,15.2344 M6.14063,15.4063 C6.68229,15.7083 6.95313,16.1146 6.95313,16.625 L6.95313,16.6875 C6.95313,17.0833 6.79167,17.4219 6.46875,17.7031 C6.14583,17.9844 5.68229,18.125 5.07813,18.125 C4.58854,18.125 4.16146,17.9948 3.79688,17.7344 C3.43229,17.4844 3.25,17.1458 3.25,16.7188 C3.25,16.5521 3.29167,16.3958 3.375,16.25 C3.47917,16.0833 3.56771,15.9688 3.64063,15.9063 L4,15.5313 C3.60417,15.2604 3.40625,14.901 3.40625,14.4531 C3.40625,14.099 3.5625,13.7865 3.875,13.5156 C4.19792,13.2552 4.625,13.125 5.15625,13.125 C5.60417,13.125 5.98438,13.224 6.29688,13.4219 C6.60938,13.6198 6.76563,13.8854 6.76563,14.2188 C6.76563,14.5729 6.55729,14.9688 6.14063,15.4063 M4.29688,15.7031 C3.91146,16.0469 3.70313,16.3854 3.67188,16.7188 C3.70313,17.0729 3.84896,17.3542 4.10938,17.5625 C4.39063,17.7813 4.71354,17.8906 5.07813,17.8906 C5.33854,17.8906 5.54688,17.8073 5.70313,17.6406 C5.85938,17.4844 5.9375,17.2969 5.9375,17.0781 C5.92708,16.7865 5.8125,16.5781 5.59375,16.4531 L4.29688,15.7031 "/>
<path class="KeySig" transform="matrix(0.9936,0,0,0.9936,49.4657,72.792)" d="M0.921875,-0.828125 L0.921875,0.71875 C0.921875,1.27083 0.947917,1.70833 1,2.03125 C1.42708,1.66667 1.73438,1.39583 1.92188,1.21875 C2.13021,1.01042 2.33854,0.721354 2.54688,0.351563 C2.75521,-0.0182292 2.85938,-0.385417 2.85938,-0.75 C2.85938,-1.11458 2.78125,-1.42708 2.625,-1.6875 C2.46875,-1.94792 2.26042,-2.07813 2,-2.07813 C1.6875,-2.07813 1.42708,-1.95833 1.21875,-1.71875 C1.02083,-1.45833 0.921875,-1.16146 0.921875,-0.828125 M0.09375,2.75 L-0.15625,-9.14063 C0.03125,-9.24479 0.216146,-9.29688 0.398438,-9.29688 C0.580729,-9.29688 0.760417,-9.24479 0.9375,-9.14063 L0.78125,-2.25 C1.3125,-2.70833 1.92708,-2.9375 2.625,-2.9375 C3.125,-2.9375 3.54427,-2.72917 3.88281,-2.3125 C4.22135,-1.89583 4.39063,-1.41667 4.39063,-0.875 C4.39063,-0.541667 4.28125,-0.182292 4.0625,0.203125 C3.85417,0.546875 3.63542,0.817708 3.40625,1.01563 C3.27083,1.11979 2.9375,1.38021 2.40625,1.79688 C2.25,1.91146 2.0651,2.04688 1.85156,2.20313 C1.63802,2.35938 1.50521,2.45833 1.45313,2.5 C1.35938,2.55208 1.27083,2.65625 1.1875,2.8125 C1.10417,2.94792 1,3.05729 0.875,3.14063 C0.791667,3.22396 0.684896,3.26563 0.554688,3.26563 C0.424479,3.26563 0.317708,3.21875 0.234375,3.125 C0.140625,3.03125 0.09375,2.90625 0.09375,2.75"/>
<path class="Fingering" d="M452.354,95.3976 C452.24,95.3976 452.047,95.4549 451.776,95.5695 L451.776,95.4601 L453.214,94.7257 L453.276,94.7414 L453.276,99.5382 C453.276,99.7466 453.339,99.882 453.464,99.9445 C453.568,99.9862 453.761,100.007 454.042,100.007 L454.042,100.132 L451.823,100.132 L451.823,100.007 C452.177,99.9966 452.401,99.9341 452.495,99.8195 C452.558,99.7257 452.589,99.5799 452.589,99.382 L452.589,95.7726 C452.578,95.5226 452.5,95.3976 452.354,95.3976"/>
<path class="Fingering" d="M387.724,95.2734 C387.131,95.2734 386.667,94.9661 386.334,94.3515 C386.052,93.8515 385.912,93.2265 385.912,92.4765 C385.912,91.5807 386.12,90.8775 386.537,90.3671 C386.87,89.9713 387.276,89.7682 387.756,89.7577 C388.318,89.7577 388.761,90.0442 389.084,90.6171 C389.386,91.1275 389.537,91.763 389.537,92.5234 C389.537,93.4921 389.313,94.2317 388.865,94.7421 C388.542,95.0963 388.162,95.2734 387.724,95.2734 M387.724,89.9609 C387.079,89.9609 386.73,90.7317 386.677,92.2734 C386.677,92.3671 386.677,92.4609 386.677,92.5546 C386.688,94.2213 387.037,95.0598 387.724,95.0702 C388.412,95.0598 388.756,94.2161 388.756,92.539 C388.756,91.0182 388.485,90.1692 387.943,89.9921 C387.87,89.9713 387.797,89.9609 387.724,89.9609"/>
<path class="Fingering" d="M321.024,89.571 C321.149,89.571 321.332,89.6387 321.571,89.7741 C321.821,89.9304 322.035,90.0085 322.212,90.0085 C322.576,90.0085 322.863,89.847 323.071,89.5241 C323.196,89.3158 323.259,89.0814 323.259,88.821 C323.259,88.0606 322.806,87.6439 321.899,87.571 C321.806,87.5606 321.707,87.5554 321.603,87.5554 L321.603,87.446 C322.207,87.2481 322.603,86.9929 322.79,86.6804 C322.884,86.5137 322.931,86.3314 322.931,86.1335 C322.931,85.7793 322.785,85.5241 322.493,85.3679 C322.358,85.3054 322.212,85.2741 322.056,85.2741 C321.608,85.2741 321.238,85.5085 320.946,85.9772 C320.915,86.0189 320.889,86.0658 320.868,86.1179 L320.743,86.0866 C320.993,85.4095 321.358,84.9981 321.837,84.8522 C321.983,84.8106 322.144,84.7897 322.321,84.7897 C322.8,84.7897 323.155,84.9564 323.384,85.2897 C323.509,85.4668 323.571,85.6647 323.571,85.8835 C323.571,86.2064 323.42,86.4981 323.118,86.7585 C323.024,86.8314 322.925,86.9095 322.821,86.9929 C323.3,87.2012 323.608,87.4877 323.743,87.8522 C323.806,88.0293 323.837,88.2272 323.837,88.446 C323.837,89.0814 323.571,89.5762 323.04,89.9304 C322.644,90.1804 322.175,90.3054 321.634,90.3054 C321.144,90.3054 320.853,90.196 320.759,89.9772 C320.738,89.9356 320.728,89.8939 320.728,89.8522 C320.728,89.696 320.806,89.6075 320.962,89.5866 C320.983,89.5762 321.004,89.571 321.024,89.571"/>
<path class="Fingering" d="M258.824,80.9315 L258.824,81.4159 L257.996,81.4159 L257.996,82.744 L257.387,82.744 L257.387,81.4159 L255.137,81.4159 L255.137,80.9315 L257.653,77.3377 L257.996,77.3377 L257.996,80.9315 L258.824,80.9315 M257.371,80.9315 L257.371,78.1815 L255.465,80.9315 L257.371,80.9315 "/>
<path class="Fingering" d="M190.343,89.571 C190.468,89.571 190.65,89.6387 190.89,89.7741 C191.14,89.9304 191.354,90.0085 191.531,90.0085 C191.895,90.0085 192.182,89.847 192.39,89.5241 C192.515,89.3158 192.578,89.0814 192.578,88.821 C192.578,88.0606 192.124,87.6439 191.218,87.571 C191.124,87.5606 191.025,87.5554 190.921,87.5554 L190.921,87.446 C191.525,87.2481 191.921,86.9929 192.109,86.6804 C192.203,86.5137 192.249,86.3314 192.249,86.1335 C192.249,85.7793 192.104,85.5241 191.812,85.3679 C191.677,85.3054 191.531,85.2741 191.374,85.2741 C190.927,85.2741 190.557,85.5085 190.265,85.9772 C190.234,86.0189 190.208,86.0658 190.187,86.1179 L190.062,86.0866 C190.312,85.4095 190.677,84.9981 191.156,84.8522 C191.302,84.8106 191.463,84.7897 191.64,84.7897 C192.119,84.7897 192.473,84.9564 192.703,85.2897 C192.828,85.4668 192.89,85.6647 192.89,85.8835 C192.89,86.2064 192.739,86.4981 192.437,86.7585 C192.343,86.8314 192.244,86.9095 192.14,86.9929 C192.619,87.2012 192.927,87.4877 193.062,87.8522 C193.124,88.0293 193.156,88.2272 193.156,88.446 C193.156,89.0814 192.89,89.5762 192.359,89.9304 C191.963,90.1804 191.494,90.3054 190.953,90.3054 C190.463,90.3054 190.171,90.196 190.078,89.9772 C190.057,89.9356 190.046,89.8939 190.046,89.8522 C190.046,89.696 190.124,89.6075 190.281,89.5866 C190.302,89.5762 190.322,89.571 190.343,89.571"/>
<path class="Fingering" d="M126.362,95.2734 C125.768,95.2734 125.305,94.9661 124.971,94.3515 C124.69,93.8515 124.549,93.2265 124.549,92.4765 C124.549,91.5807 124.758,90.8775 125.174,90.3671 C125.508,89.9713 125.914,89.7682 126.393,89.7577 C126.956,89.7577 127.398,90.0442 127.721,90.6171 C128.023,91.1275 128.174,91.763 128.174,92.5234 C128.174,93.4921 127.95,94.2317 127.503,94.7421 C127.18,95.0963 126.799,95.2734 126.362,95.2734 M126.362,89.9609 C125.716,89.9609 125.367,90.7317 125.315,92.2734 C125.315,92.3671 125.315,92.4609 125.315,92.5546 C125.325,94.2213 125.674,95.0598 126.362,95.0702 C127.049,95.0598 127.393,94.2161 127.393,92.539 C127.393,91.0182 127.122,90.1692 126.581,89.9921 C126.508,89.9713 126.435,89.9609 126.362,89.9609"/>
<path class="Fingering" d="M60.4901,95.3976 C60.3755,95.3976 60.1828,95.4549 59.912,95.5695 L59.912,95.4601 L61.3495,94.7257 L61.412,94.7414 L61.412,99.5382 C61.412,99.7466 61.4745,99.882 61.5995,99.9445 C61.7036,99.9862 61.8963,100.007 62.1776,100.007 L62.1776,100.132 L59.9588,100.132 L59.9588,100.007 C60.313,99.9966 60.537,99.9341 60.6307,99.8195 C60.6932,99.7257 60.7245,99.5799 60.7245,99.382 L60.7245,95.7726 C60.714,95.5226 60.6359,95.3976 60.4901,95.3976"/>
<path class="Tempo" d="M59.2619,40.4371 C59.0588,40.2809 58.8088,40.1871 58.4963,40.1871 C57.3088,40.1871 56.3557,41.0621 56.3557,41.9996 C56.3557,42.5621 56.8088,42.9059 57.4026,42.9059 C58.3557,42.9059 59.5432,41.9996 59.5432,41.0934 L59.5432,34.9527 L59.2619,34.9527 L59.2619,40.4371 "/>
<path class="Tempo" d="M69.9026,39.0152 L63.2932,39.0152 L63.2932,37.859 L69.9026,37.859 L69.9026,39.0152 M69.9026,41.9371 L63.2932,41.9371 L63.2932,40.7965 L69.9026,40.7965 L69.9026,41.9371 M75.3401,36.0465 C75.2151,36.0465 74.8973,36.1402 74.3869,36.3277 C74.3557,36.3382 74.3348,36.3486 74.3244,36.359 L74.3244,36.0465 L77.3401,34.734 L77.5432,34.734 L77.5432,41.5621 C77.5432,42.0517 77.6421,42.3642 77.8401,42.4996 C78.0171,42.6246 78.3505,42.6923 78.8401,42.7027 L78.8401,42.984 L74.3401,42.984 L74.3401,42.7027 C74.9963,42.6923 75.4078,42.5882 75.5744,42.3902 C75.7098,42.2236 75.7776,41.9267 75.7776,41.4996 L75.7776,36.8746 C75.7671,36.333 75.6213,36.0569 75.3401,36.0465 M79.8244,38.9059 C79.8244,37.5934 80.1369,36.5309 80.7619,35.7184 C81.2723,35.0725 81.8661,34.7444 82.5432,34.734 C83.3244,34.734 83.9703,35.1402 84.4807,35.9527 C84.9911,36.7652 85.2463,37.76 85.2463,38.9371 C85.2463,40.3121 84.9286,41.4059 84.2932,42.2184 C83.7932,42.8225 83.2151,43.1298 82.5588,43.1402 C81.7255,43.1402 81.0536,42.7132 80.5432,41.859 C80.064,41.0673 79.8244,40.083 79.8244,38.9059 M82.5588,42.7965 C82.913,42.7965 83.1473,42.4736 83.2619,41.8277 C83.3244,41.4423 83.3557,40.9423 83.3557,40.3277 L83.3557,37.5777 C83.3557,36.1402 83.163,35.3225 82.7776,35.1246 C82.7046,35.083 82.6213,35.0621 82.5276,35.0621 C82.163,35.0621 81.9234,35.3955 81.8088,36.0621 C81.7567,36.4371 81.7307,36.9423 81.7307,37.5777 L81.7307,40.3277 C81.7307,41.6819 81.8973,42.4736 82.2307,42.7027 C82.3244,42.7652 82.4338,42.7965 82.5588,42.7965 M85.8244,38.9059 C85.8244,37.5934 86.1369,36.5309 86.7619,35.7184 C87.2723,35.0725 87.8661,34.7444 88.5432,34.734 C89.3244,34.734 89.9703,35.1402 90.4807,35.9527 C90.9911,36.7652 91.2463,37.76 91.2463,38.9371 C91.2463,40.3121 90.9286,41.4059 90.2932,42.2184 C89.7932,42.8225 89.2151,43.1298 88.5588,43.1402 C87.7255,43.1402 87.0536,42.7132 86.5432,41.859 C86.064,41.0673 85.8244,40.083 85.8244,38.9059 M88.5588,42.7965 C88.913,42.7965 89.1473,42.4736 89.2619,41.8277 C89.3244,41.4423 89.3557,40.9423 89.3557,40.3277 L89.3557,37.5777 C89.3557,36.1402 89.163,35.3225 88.7776,35.1246 C88.7046,35.083 88.6213,35.0621 88.5276,35.0621 C88.163,35.0621 87.9234,35.3955 87.8088,36.0621 C87.7567,36.4371 87.7307,36.9423 87.7307,37.5777 L87.7307,40.3277 C87.7307,41.6819 87.8973,42.4736 88.2307,42.7027 C88.3244,42.7652 88.4338,42.7965 88.5588,42.7965"/>
<path class="StaffText" d="M69.8303,25.2057 C70.2782,25.2057 70.7782,25.3203 71.3303,25.5495 C71.5698,25.6432 71.7417,25.6901 71.8459,25.6901 C71.9917,25.6901 72.1219,25.5807 72.2365,25.362 C72.2469,25.3203 72.2626,25.2787 72.2834,25.237 L72.549,25.237 L72.549,27.5807 L72.299,27.5807 C72.0282,26.9766 71.7469,26.5339 71.4553,26.2526 C71.3928,26.1901 71.3355,26.138 71.2834,26.0964 C70.8563,25.7214 70.4136,25.5339 69.9553,25.5339 C68.9553,25.5339 68.3615,26.2526 68.174,27.6901 C68.1428,28.013 68.1271,28.362 68.1271,28.737 C68.1271,29.9245 68.3407,30.7943 68.7678,31.3464 C69.1011,31.763 69.5594,31.9714 70.1428,31.9714 C70.7053,31.9714 71.023,31.7943 71.0959,31.4401 C71.1063,31.3776 71.1115,31.3099 71.1115,31.237 L71.1115,30.1901 C71.1115,29.8985 71.0386,29.711 70.8928,29.6276 C70.7469,29.5547 70.4813,29.5078 70.0959,29.487 L70.0959,29.237 L73.5334,29.237 L73.5334,29.487 C73.1271,29.5287 72.8771,29.6172 72.7834,29.7526 C72.7105,29.8672 72.674,30.086 72.674,30.4089 L72.674,31.6745 C72.0803,32.0287 71.2938,32.237 70.3146,32.2995 C70.1792,32.2995 70.0438,32.2995 69.9084,32.2995 C68.7938,32.2995 67.9032,31.9401 67.2365,31.2214 C66.6428,30.5755 66.3459,29.7682 66.3459,28.7995 C66.3459,27.7578 66.6896,26.8932 67.3771,26.2057 C68.0438,25.5391 68.8615,25.2057 69.8303,25.2057 M77.5959,28.8307 C77.3771,28.8307 77.1636,28.711 76.9553,28.4714 C76.8407,28.3255 76.7573,28.2474 76.7053,28.237 C76.4865,28.237 76.3198,28.388 76.2053,28.6901 C76.1323,28.8464 76.0959,29.013 76.0959,29.1901 L76.0959,31.0807 C76.0959,31.4453 76.1688,31.6693 76.3146,31.7526 C76.4084,31.8151 76.5803,31.8568 76.8303,31.8776 L76.8303,32.112 L74.1896,32.112 L74.1896,31.8776 C74.4605,31.8255 74.6219,31.7318 74.674,31.5964 C74.6948,31.5235 74.7053,31.4141 74.7053,31.2682 L74.7053,28.3307 C74.7053,28.0703 74.6323,27.9037 74.4865,27.8307 C74.4136,27.7891 74.3146,27.7578 74.1896,27.737 L74.1896,27.5026 L76.0646,27.5026 L76.0646,28.3307 C76.4396,27.7787 76.8094,27.4714 77.174,27.4089 C77.2573,27.388 77.3355,27.3776 77.4084,27.3776 C77.7521,27.3776 77.9969,27.5182 78.1428,27.7995 C78.1948,27.9141 78.2209,28.0339 78.2209,28.1589 C78.2209,28.4714 78.0959,28.6797 77.8459,28.7839 C77.7626,28.8151 77.6792,28.8307 77.5959,28.8307 M79.4709,28.0807 C79.4709,28.112 79.523,28.2057 79.6271,28.362 C79.7209,28.5078 79.7678,28.6328 79.7678,28.737 C79.7678,28.9974 79.6376,29.1745 79.3771,29.2682 C79.2834,29.2995 79.1896,29.3151 79.0959,29.3151 C78.7313,29.3151 78.5178,29.1537 78.4553,28.8307 C78.4448,28.7682 78.4396,28.711 78.4396,28.6589 C78.4396,28.1901 78.6948,27.8412 79.2053,27.612 C79.5282,27.4557 79.9032,27.3776 80.3303,27.3776 C81.2053,27.3776 81.8042,27.6172 82.1271,28.0964 C82.2521,28.2943 82.3146,28.5182 82.3146,28.7682 L82.3146,31.3464 C82.3251,31.5026 82.3928,31.586 82.5178,31.5964 C82.5698,31.586 82.6063,31.5703 82.6271,31.5495 L82.7365,31.4557 L82.8771,31.6589 C82.4813,32.0339 82.1115,32.2318 81.7678,32.2526 C81.3928,32.2526 81.148,32.112 81.0334,31.8307 C81.0021,31.737 80.9709,31.638 80.9396,31.5339 C80.398,32.0026 79.8719,32.2422 79.3615,32.2526 C78.924,32.2526 78.6063,32.086 78.4084,31.7526 C78.3042,31.586 78.2521,31.4037 78.2521,31.2057 C78.2521,30.6224 78.7001,30.1485 79.5959,29.7839 C79.8355,29.6797 80.2834,29.5287 80.9396,29.3307 L80.9396,28.5964 C80.9396,28.0651 80.7209,27.7735 80.2834,27.7214 C80.2209,27.7214 80.1584,27.7214 80.0959,27.7214 C79.8042,27.7214 79.6063,27.8047 79.5021,27.9714 C79.4813,28.0026 79.4709,28.0391 79.4709,28.0807 M80.924,31.0964 L80.924,29.6589 C80.1219,29.8776 79.7157,30.2787 79.7053,30.862 C79.7053,31.1953 79.8146,31.4037 80.0334,31.487 C80.0959,31.5078 80.1584,31.5182 80.2209,31.5182 C80.4501,31.5182 80.6844,31.3776 80.924,31.0964 M86.3928,32.237 L86.3928,31.5964 C86.0386,31.9714 85.6948,32.1849 85.3615,32.237 C85.2678,32.2474 85.1688,32.2526 85.0646,32.2526 C84.4709,32.2526 84.0021,31.9766 83.6584,31.4245 C83.3876,30.9974 83.2521,30.4922 83.2521,29.9089 C83.2521,29.0547 83.4969,28.3828 83.9865,27.8932 C84.3198,27.5495 84.7157,27.3776 85.174,27.3776 C85.5282,27.3776 85.8511,27.513 86.1428,27.7839 C86.2261,27.8568 86.299,27.9245 86.3615,27.987 L86.3615,26.1745 C86.3615,25.9245 86.3042,25.7682 86.1896,25.7057 C86.0855,25.6537 85.8876,25.6172 85.5959,25.5964 L85.5959,25.362 L87.7521,25.362 L87.7521,31.112 C87.7521,31.3932 87.8355,31.5651 88.0021,31.6276 C88.0855,31.6589 88.2001,31.6797 88.3459,31.6901 L88.3459,31.9245 L87.7209,32.0026 C87.1688,32.0755 86.7261,32.1537 86.3928,32.237 M85.5178,31.7057 C85.8094,31.7057 86.0594,31.5391 86.2678,31.2057 C86.3198,31.112 86.3511,31.0443 86.3615,31.0026 L86.3615,28.5495 C86.2365,28.2162 86.0282,28.0182 85.7365,27.9557 C85.6844,27.9453 85.6323,27.9401 85.5803,27.9401 C85.0698,27.9401 84.7886,28.4453 84.7365,29.4557 C84.7365,29.5703 84.7365,29.6953 84.7365,29.8307 C84.7365,31.0703 84.9969,31.6953 85.5178,31.7057 M90.6896,29.6589 C90.7417,30.6797 91.0073,31.2787 91.4865,31.4557 C91.6115,31.4974 91.7417,31.5182 91.8771,31.5182 C92.2417,31.5182 92.5751,31.3516 92.8771,31.0182 C92.9292,30.9662 92.9761,30.9141 93.0178,30.862 L93.2521,31.0026 C92.8355,31.6068 92.424,31.987 92.0178,32.1432 C91.8094,32.2162 91.5751,32.2526 91.3146,32.2526 C90.5646,32.2526 90.0021,31.9453 89.6271,31.3307 C89.3771,30.9141 89.2521,30.4141 89.2521,29.8307 C89.2521,28.9349 89.523,28.263 90.0646,27.8151 C90.4292,27.5235 90.8563,27.3776 91.3459,27.3776 C92.4501,27.3776 93.0698,28.0964 93.2053,29.5339 C93.2053,29.5755 93.2053,29.6172 93.2053,29.6589 L90.6896,29.6589 M91.9865,29.1432 C91.9657,28.5182 91.898,28.1224 91.7834,27.9557 C91.6896,27.7995 91.5438,27.7214 91.3459,27.7214 C91.0542,27.7214 90.8563,27.8932 90.7521,28.237 C90.6896,28.4766 90.6532,28.8307 90.6428,29.2995 L91.9865,29.2995 L91.9865,29.1432 M96.3146,27.2682 C96.773,26.0287 97.424,25.3568 98.2678,25.2526 C98.3407,25.2422 98.424,25.237 98.5178,25.237 C99.174,25.237 99.674,25.4766 100.018,25.9557 C100.247,26.2787 100.362,26.6485 100.362,27.0651 C100.362,27.7735 100.002,28.4766 99.2834,29.1745 C99.2626,29.2057 99.2417,29.2266 99.2209,29.237 L97.5959,30.7839 L99.1115,30.7839 C99.6428,30.7839 99.9813,30.737 100.127,30.6432 C100.273,30.5495 100.408,30.336 100.533,30.0026 L100.783,30.0026 L100.33,32.112 L96.174,32.112 L96.174,31.8776 C97.5698,30.3985 98.424,29.336 98.7365,28.6901 C98.9136,28.336 99.0021,27.987 99.0021,27.6432 C99.0021,27.2057 98.8407,26.862 98.5178,26.612 C98.3094,26.4557 98.0751,26.3776 97.8146,26.3776 C97.3146,26.3776 96.924,26.6485 96.6428,27.1901 C96.6219,27.2214 96.6063,27.2474 96.5959,27.2682 L96.3146,27.2682 M102.658,30.5495 C102.981,30.5495 103.226,30.6901 103.393,30.9714 C103.476,31.1172 103.518,31.263 103.518,31.4089 C103.518,31.7214 103.377,31.961 103.096,32.1276 C102.95,32.2005 102.804,32.237 102.658,32.237 C102.325,32.237 102.08,32.0964 101.924,31.8151 C101.851,31.6797 101.815,31.5391 101.815,31.3932 C101.815,31.0912 101.95,30.8568 102.221,30.6901 C102.356,30.5964 102.502,30.5495 102.658,30.5495 M102.658,27.3932 C102.981,27.3932 103.226,27.5287 103.393,27.7995 C103.476,27.9453 103.518,28.0912 103.518,28.237 C103.518,28.5599 103.377,28.8047 103.096,28.9714 C102.96,29.0443 102.815,29.0807 102.658,29.0807 C102.325,29.0807 102.08,28.9349 101.924,28.6432 C101.851,28.5078 101.815,28.3672 101.815,28.2214 C101.815,27.9193 101.95,27.6849 102.221,27.5182 C102.356,27.4349 102.502,27.3932 102.658,27.3932"/>
<path class="StaffText" d="M111.815,29.7682 L111.596,29.7682 C111.523,29.3516 111.408,29.0912 111.252,28.987 C111.106,28.8932 110.851,28.8464 110.487,28.8464 L109.033,28.8464 L109.033,30.9245 C109.033,31.362 109.106,31.638 109.252,31.7526 C109.367,31.8464 109.601,31.9037 109.955,31.9245 L109.955,32.112 L107.158,32.112 L107.158,31.9245 C107.544,31.8932 107.789,31.8151 107.893,31.6901 C107.976,31.5547 108.018,31.2943 108.018,30.9089 L108.018,26.5807 C108.018,26.1953 107.95,25.9505 107.815,25.8464 C107.69,25.763 107.471,25.711 107.158,25.6901 L107.158,25.5026 L112.455,25.5026 L112.487,26.9245 L112.237,26.9245 C112.153,26.4766 112.023,26.1901 111.846,26.0651 C111.648,25.9401 111.273,25.8776 110.721,25.8776 L109.362,25.8776 C109.184,25.8776 109.085,25.9245 109.065,26.0182 C109.044,26.0703 109.033,26.1328 109.033,26.2057 L109.033,28.4089 L110.487,28.4089 C110.924,28.4089 111.21,28.3307 111.346,28.1745 C111.45,28.0495 111.533,27.8203 111.596,27.487 L111.815,27.487 L111.815,29.7682 M116.127,28.1589 L116.127,27.987 C116.606,27.8412 117.075,27.6849 117.533,27.5182 L117.596,27.5339 L117.596,28.2995 C118.169,27.862 118.58,27.612 118.83,27.5495 C118.934,27.5287 119.039,27.5182 119.143,27.5182 C119.674,27.5287 120.028,27.8151 120.205,28.3776 C120.737,27.8047 121.283,27.5182 121.846,27.5182 C122.606,27.5287 122.992,28.1276 123.002,29.3151 L123.002,31.362 C123.013,31.7266 123.153,31.9193 123.424,31.9401 L123.69,31.9557 L123.69,32.112 L121.502,32.112 L121.502,31.9557 C121.825,31.9245 122.018,31.8516 122.08,31.737 C122.132,31.6432 122.158,31.4818 122.158,31.2526 L122.158,29.1432 C122.158,28.5912 122.049,28.2578 121.83,28.1432 C121.726,28.0807 121.585,28.0495 121.408,28.0495 C120.96,28.0599 120.596,28.263 120.315,28.6589 L120.315,31.1745 C120.315,31.5495 120.403,31.7839 120.58,31.8776 C120.684,31.9297 120.835,31.9557 121.033,31.9557 L121.033,32.112 L118.799,32.112 L118.799,31.9557 C119.122,31.9349 119.32,31.862 119.393,31.737 C119.455,31.6432 119.487,31.4818 119.487,31.2526 L119.487,29.0964 C119.487,28.3985 119.263,28.0495 118.815,28.0495 C118.45,28.0495 118.127,28.1693 117.846,28.4089 C117.773,28.4818 117.705,28.5599 117.643,28.6432 L117.643,31.4401 C117.643,31.6901 117.731,31.8464 117.908,31.9089 C118.002,31.9401 118.138,31.9557 118.315,31.9557 L118.315,32.112 L116.096,32.112 L116.096,31.9557 C116.45,31.9557 116.664,31.8724 116.737,31.7057 C116.778,31.6016 116.799,31.4557 116.799,31.2682 L116.799,28.7526 C116.799,28.3776 116.721,28.1693 116.565,28.1276 C116.533,28.1172 116.497,28.112 116.455,28.112 C116.351,28.112 116.242,28.1276 116.127,28.1589 M124.252,31.1432 C124.252,30.6328 124.57,30.2005 125.205,29.8464 C125.393,29.7526 125.893,29.5391 126.705,29.2057 C126.726,29.2057 126.742,29.2005 126.752,29.1901 L126.752,28.5807 C126.7,28.0599 126.445,27.7839 125.987,27.7526 C125.674,27.7526 125.455,27.8516 125.33,28.0495 C125.289,28.1224 125.268,28.1849 125.268,28.237 C125.268,28.2995 125.278,28.3828 125.299,28.487 C125.309,28.5599 125.315,28.612 125.315,28.6432 C125.315,28.8203 125.226,28.9453 125.049,29.0182 C124.987,29.0495 124.929,29.0651 124.877,29.0651 C124.69,29.0651 124.559,28.9766 124.487,28.7995 C124.455,28.7474 124.44,28.6901 124.44,28.6276 C124.44,28.263 124.658,27.9662 125.096,27.737 C125.398,27.5912 125.742,27.5182 126.127,27.5182 C126.846,27.5182 127.289,27.7735 127.455,28.2839 C127.528,28.5026 127.565,28.7787 127.565,29.112 L127.565,31.0495 C127.565,31.3828 127.627,31.5703 127.752,31.612 C127.794,31.6224 127.83,31.6276 127.862,31.6276 C128.007,31.6172 128.153,31.5547 128.299,31.4401 L128.299,31.6901 C128.028,32.0026 127.778,32.1745 127.549,32.2057 C127.497,32.2057 127.445,32.2057 127.393,32.2057 C127.08,32.2057 126.882,32.0495 126.799,31.737 C126.778,31.6537 126.768,31.5599 126.768,31.4557 C126.174,31.9349 125.684,32.1849 125.299,32.2057 C124.872,32.2057 124.565,32.0339 124.377,31.6901 C124.294,31.5235 124.252,31.3412 124.252,31.1432 M126.752,30.862 L126.752,29.4245 C125.929,29.7266 125.424,30.0339 125.237,30.3464 C125.164,30.4922 125.127,30.6485 125.127,30.8151 C125.127,31.211 125.273,31.461 125.565,31.5651 C125.638,31.5964 125.705,31.612 125.768,31.612 C125.987,31.6016 126.226,31.5235 126.487,31.3776 C126.632,31.2943 126.716,31.1901 126.737,31.0651 C126.747,31.0026 126.752,30.9349 126.752,30.862 M129.471,28.1901 C129.471,28.1901 129.32,28.2005 129.018,28.2214 L129.018,28.0495 C129.559,27.8828 130.08,27.7057 130.58,27.5182 L130.627,27.5495 L130.627,32.112 C130.627,33.3412 130.216,34.0495 129.393,34.237 C129.247,34.2682 129.096,34.2839 128.94,34.2839 C128.502,34.2839 128.21,34.1745 128.065,33.9557 C128.023,33.8828 128.002,33.8099 128.002,33.737 C128.002,33.5495 128.091,33.4297 128.268,33.3776 C128.32,33.3568 128.367,33.3464 128.408,33.3464 C128.554,33.3464 128.71,33.4505 128.877,33.6589 C129.054,33.8464 129.2,33.9453 129.315,33.9557 C129.544,33.9557 129.684,33.7943 129.737,33.4714 C129.768,33.2735 129.783,32.9714 129.783,32.5651 L129.783,28.7682 C129.783,28.4141 129.705,28.2214 129.549,28.1901 C129.518,28.1901 129.492,28.1901 129.471,28.1901 M130.127,25.2839 C130.346,25.2839 130.502,25.3828 130.596,25.5807 C130.627,25.6537 130.643,25.7266 130.643,25.7995 C130.643,26.0182 130.533,26.1745 130.315,26.2682 C130.252,26.2891 130.19,26.2995 130.127,26.2995 C129.898,26.2995 129.742,26.2005 129.658,26.0026 C129.638,25.9297 129.627,25.862 129.627,25.7995 C129.627,25.5807 129.721,25.4245 129.908,25.3307 C129.981,25.2995 130.054,25.2839 130.127,25.2839 M133.455,27.5182 C134.195,27.5182 134.778,27.7891 135.205,28.3307 C135.507,28.737 135.658,29.2162 135.658,29.7682 C135.658,30.5495 135.403,31.1745 134.893,31.6432 C134.476,32.0182 133.992,32.2057 133.44,32.2057 C132.731,32.2057 132.169,31.9349 131.752,31.3932 C131.419,30.9557 131.252,30.4401 131.252,29.8464 C131.252,29.0339 131.528,28.4089 132.08,27.9714 C132.466,27.6693 132.924,27.5182 133.455,27.5182 M132.158,29.362 C132.158,30.2682 132.346,30.961 132.721,31.4401 C132.96,31.7526 133.242,31.9089 133.565,31.9089 C134.085,31.9089 134.445,31.612 134.643,31.0182 C134.726,30.7578 134.768,30.461 134.768,30.1276 C134.768,29.2422 134.554,28.586 134.127,28.1589 C133.898,27.9297 133.632,27.8151 133.33,27.8151 C132.862,27.8151 132.523,28.0547 132.315,28.5339 C132.21,28.7735 132.158,29.0495 132.158,29.362 M139.018,28.487 C138.914,28.487 138.763,28.4037 138.565,28.237 C138.471,28.1537 138.398,28.112 138.346,28.112 C138.179,28.112 138.007,28.2422 137.83,28.5026 C137.716,28.6693 137.658,28.8151 137.658,28.9401 L137.658,31.2057 C137.658,31.5495 137.747,31.763 137.924,31.8464 C138.049,31.9089 138.242,31.9453 138.502,31.9557 L138.502,32.112 L136.096,32.112 L136.096,31.9557 C136.45,31.8932 136.664,31.8099 136.737,31.7057 C136.789,31.6224 136.815,31.4766 136.815,31.2682 L136.815,28.7526 C136.815,28.388 136.731,28.1901 136.565,28.1589 C136.533,28.1485 136.502,28.1432 136.471,28.1432 C136.356,28.1432 136.242,28.1589 136.127,28.1901 L136.127,28.0339 C136.658,27.8672 137.148,27.6953 137.596,27.5182 L137.658,27.5339 L137.658,28.4245 C138.002,27.9453 138.294,27.6589 138.533,27.5651 C138.638,27.5339 138.742,27.5182 138.846,27.5182 C139.158,27.5182 139.341,27.6485 139.393,27.9089 C139.393,27.9505 139.393,27.9974 139.393,28.0495 C139.362,28.3203 139.237,28.4662 139.018,28.487 M142.252,31.1432 C142.252,30.6328 142.57,30.2005 143.205,29.8464 C143.393,29.7526 143.893,29.5391 144.705,29.2057 C144.726,29.2057 144.742,29.2005 144.752,29.1901 L144.752,28.5807 C144.7,28.0599 144.445,27.7839 143.987,27.7526 C143.674,27.7526 143.455,27.8516 143.33,28.0495 C143.289,28.1224 143.268,28.1849 143.268,28.237 C143.268,28.2995 143.278,28.3828 143.299,28.487 C143.309,28.5599 143.315,28.612 143.315,28.6432 C143.315,28.8203 143.226,28.9453 143.049,29.0182 C142.987,29.0495 142.929,29.0651 142.877,29.0651 C142.69,29.0651 142.559,28.9766 142.487,28.7995 C142.455,28.7474 142.44,28.6901 142.44,28.6276 C142.44,28.263 142.658,27.9662 143.096,27.737 C143.398,27.5912 143.742,27.5182 144.127,27.5182 C144.846,27.5182 145.289,27.7735 145.455,28.2839 C145.528,28.5026 145.565,28.7787 145.565,29.112 L145.565,31.0495 C145.565,31.3828 145.627,31.5703 145.752,31.612 C145.794,31.6224 145.83,31.6276 145.862,31.6276 C146.007,31.6172 146.153,31.5547 146.299,31.4401 L146.299,31.6901 C146.028,32.0026 145.778,32.1745 145.549,32.2057 C145.497,32.2057 145.445,32.2057 145.393,32.2057 C145.08,32.2057 144.882,32.0495 144.799,31.737 C144.778,31.6537 144.768,31.5599 144.768,31.4557 C144.174,31.9349 143.684,32.1849 143.299,32.2057 C142.872,32.2057 142.565,32.0339 142.377,31.6901 C142.294,31.5235 142.252,31.3412 142.252,31.1432 M144.752,30.862 L144.752,29.4245 C143.929,29.7266 143.424,30.0339 143.237,30.3464 C143.164,30.4922 143.127,30.6485 143.127,30.8151 C143.127,31.211 143.273,31.461 143.565,31.5651 C143.638,31.5964 143.705,31.612 143.768,31.612 C143.987,31.6016 144.226,31.5235 144.487,31.3776 C144.632,31.2943 144.716,31.1901 144.737,31.0651 C144.747,31.0026 144.752,30.9349 144.752,30.862 M149.018,28.487 C148.914,28.487 148.763,28.4037 148.565,28.237 C148.471,28.1537 148.398,28.112 148.346,28.112 C148.179,28.112 148.007,28.2422 147.83,28.5026 C147.716,28.6693 147.658,28.8151 147.658,28.9401 L147.658,31.2057 C147.658,31.5495 147.747,31.763 147.924,31.8464 C148.049,31.9089 148.242,31.9453 148.502,31.9557 L148.502,32.112 L146.096,32.112 L146.096,31.9557 C146.45,31.8932 146.664,31.8099 146.737,31.7057 C146.789,31.6224 146.815,31.4766 146.815,31.2682 L146.815,28.7526 C146.815,28.388 146.731,28.1901 146.565,28.1589 C146.533,28.1485 146.502,28.1432 146.471,28.1432 C146.356,28.1432 146.242,28.1589 146.127,28.1901 L146.127,28.0339 C146.658,27.8672 147.148,27.6953 147.596,27.5182 L147.658,27.5339 L147.658,28.4245 C148.002,27.9453 148.294,27.6589 148.533,27.5651 C148.638,27.5339 148.742,27.5182 148.846,27.5182 C149.158,27.5182 149.341,27.6485 149.393,27.9089 C149.393,27.9505 149.393,27.9974 149.393,28.0495 C149.362,28.3203 149.237,28.4662 149.018,28.487 M149.143,28.1901 L149.143,28.0182 C149.57,27.8932 150.049,27.7266 150.58,27.5182 L150.643,27.5339 L150.643,28.2995 C151.07,27.7787 151.549,27.5182 152.08,27.5182 C152.643,27.5182 153.085,27.7787 153.408,28.2995 C153.638,28.6849 153.752,29.1328 153.752,29.6432 C153.752,30.4557 153.502,31.1172 153.002,31.6276 C152.617,32.013 152.169,32.2057 151.658,32.2057 C151.325,32.2057 151.033,32.1068 150.783,31.9089 C150.731,31.8776 150.684,31.8412 150.643,31.7995 L150.643,33.362 C150.643,33.7057 150.71,33.9141 150.846,33.987 C150.971,34.0599 151.195,34.0964 151.518,34.0964 L151.518,34.2839 L149.096,34.2839 L149.096,34.112 C149.45,34.0807 149.664,33.9974 149.737,33.862 C149.778,33.7682 149.799,33.6224 149.799,33.4245 L149.799,28.737 C149.799,28.4453 149.747,28.2735 149.643,28.2214 C149.58,28.1901 149.497,28.1745 149.393,28.1745 C149.278,28.1745 149.195,28.1797 149.143,28.1901 M150.643,28.7839 L150.643,31.2526 C150.643,31.4297 150.789,31.5964 151.08,31.7526 C151.289,31.8568 151.487,31.9089 151.674,31.9089 C152.132,31.9089 152.471,31.6537 152.69,31.1432 C152.825,30.8203 152.893,30.4557 152.893,30.0495 C152.893,29.2266 152.684,28.6537 152.268,28.3307 C152.091,28.1849 151.888,28.112 151.658,28.112 C151.356,28.112 151.085,28.2214 150.846,28.4401 C150.721,28.5547 150.653,28.6693 150.643,28.7839 M154.971,29.3464 C155.013,30.5235 155.398,31.2162 156.127,31.4245 C156.252,31.4662 156.388,31.487 156.533,31.487 C157.023,31.487 157.44,31.2787 157.783,30.862 C157.877,30.7474 157.976,30.612 158.08,30.4557 L158.237,30.5182 C157.872,31.4766 157.299,32.0287 156.518,32.1745 C156.382,32.1953 156.252,32.2057 156.127,32.2057 C155.388,32.2057 154.856,31.8932 154.533,31.2682 C154.346,30.8932 154.252,30.461 154.252,29.9714 C154.252,29.086 154.528,28.4141 155.08,27.9557 C155.445,27.6641 155.867,27.5182 156.346,27.5182 C157.263,27.5182 157.815,28.0391 158.002,29.0807 C158.023,29.1745 158.039,29.263 158.049,29.3464 L154.971,29.3464 M154.987,29.0495 L157.033,29.0495 C156.94,28.4766 156.773,28.1224 156.533,27.987 C156.408,27.9245 156.247,27.8932 156.049,27.8932 C155.455,27.8932 155.101,28.2682 154.987,29.0182 C154.987,29.0287 154.987,29.0391 154.987,29.0495 M158.596,31.5339 C158.596,31.3985 158.674,31.2526 158.83,31.0964 C158.924,31.0026 159.143,30.7995 159.487,30.487 C158.987,30.2266 158.69,29.8985 158.596,29.5026 C158.575,29.388 158.565,29.2682 158.565,29.1432 C158.565,28.612 158.778,28.1849 159.205,27.862 C159.507,27.6328 159.851,27.5182 160.237,27.5182 C160.487,27.5182 160.794,27.586 161.158,27.7214 C161.398,27.8047 161.612,27.8464 161.799,27.8464 L162.565,27.8464 L162.565,28.2214 L161.737,28.2214 C161.862,28.513 161.924,28.7943 161.924,29.0651 C161.924,29.638 161.7,30.0703 161.252,30.362 C160.981,30.5391 160.69,30.6276 160.377,30.6276 C160.283,30.6276 160.091,30.6068 159.799,30.5651 C159.601,30.6276 159.434,30.7682 159.299,30.987 C159.237,31.0703 159.205,31.1432 159.205,31.2057 C159.205,31.362 159.455,31.4505 159.955,31.4714 C159.966,31.4714 159.976,31.4714 159.987,31.4714 L161.268,31.5339 C161.82,31.5443 162.19,31.7474 162.377,32.1432 C162.45,32.2787 162.487,32.4297 162.487,32.5964 C162.487,33.0964 162.174,33.5235 161.549,33.8776 C161.039,34.1485 160.481,34.2839 159.877,34.2839 C159.252,34.2839 158.768,34.1328 158.424,33.8307 C158.247,33.6641 158.158,33.487 158.158,33.2995 C158.158,33.0078 158.372,32.6797 158.799,32.3151 C158.903,32.2318 159.013,32.1432 159.127,32.0495 C158.825,31.9141 158.653,31.7787 158.612,31.6432 C158.601,31.612 158.596,31.5755 158.596,31.5339 M159.346,32.0807 C159.044,32.4557 158.882,32.7162 158.862,32.862 C158.851,32.9037 158.846,32.9453 158.846,32.987 C158.846,33.2891 159.07,33.5078 159.518,33.6432 C159.747,33.7162 160.013,33.7526 160.315,33.7526 C161.148,33.7526 161.716,33.5703 162.018,33.2057 C162.143,33.0495 162.205,32.888 162.205,32.7214 C162.205,32.4714 162.039,32.3151 161.705,32.2526 C161.518,32.2214 161.268,32.2057 160.955,32.2057 C160.289,32.2057 159.752,32.1641 159.346,32.0807 M161.158,29.4714 C161.158,29.0443 161.07,28.6641 160.893,28.3307 C160.695,27.9974 160.44,27.8255 160.127,27.8151 C159.752,27.8151 159.518,28.013 159.424,28.4089 C159.403,28.513 159.393,28.6276 159.393,28.7526 C159.393,29.5547 159.617,30.0651 160.065,30.2839 C160.179,30.3464 160.294,30.3776 160.408,30.3776 C160.773,30.3776 161.007,30.1953 161.112,29.8307 C161.143,29.7162 161.158,29.5964 161.158,29.4714 M163.596,31.5339 C163.596,31.3985 163.674,31.2526 163.83,31.0964 C163.924,31.0026 164.143,30.7995 164.487,30.487 C163.987,30.2266 163.69,29.8985 163.596,29.5026 C163.575,29.388 163.565,29.2682 163.565,29.1432 C163.565,28.612 163.778,28.1849 164.205,27.862 C164.507,27.6328 164.851,27.5182 165.237,27.5182 C165.487,27.5182 165.794,27.586 166.158,27.7214 C166.398,27.8047 166.612,27.8464 166.799,27.8464 L167.565,27.8464 L167.565,28.2214 L166.737,28.2214 C166.862,28.513 166.924,28.7943 166.924,29.0651 C166.924,29.638 166.7,30.0703 166.252,30.362 C165.981,30.5391 165.69,30.6276 165.377,30.6276 C165.283,30.6276 165.091,30.6068 164.799,30.5651 C164.601,30.6276 164.434,30.7682 164.299,30.987 C164.237,31.0703 164.205,31.1432 164.205,31.2057 C164.205,31.362 164.455,31.4505 164.955,31.4714 C164.966,31.4714 164.976,31.4714 164.987,31.4714 L166.268,31.5339 C166.82,31.5443 167.19,31.7474 167.377,32.1432 C167.45,32.2787 167.487,32.4297 167.487,32.5964 C167.487,33.0964 167.174,33.5235 166.549,33.8776 C166.039,34.1485 165.481,34.2839 164.877,34.2839 C164.252,34.2839 163.768,34.1328 163.424,33.8307 C163.247,33.6641 163.158,33.487 163.158,33.2995 C163.158,33.0078 163.372,32.6797 163.799,32.3151 C163.903,32.2318 164.013,32.1432 164.127,32.0495 C163.825,31.9141 163.653,31.7787 163.612,31.6432 C163.601,31.612 163.596,31.5755 163.596,31.5339 M164.346,32.0807 C164.044,32.4557 163.882,32.7162 163.862,32.862 C163.851,32.9037 163.846,32.9453 163.846,32.987 C163.846,33.2891 164.07,33.5078 164.518,33.6432 C164.747,33.7162 165.013,33.7526 165.315,33.7526 C166.148,33.7526 166.716,33.5703 167.018,33.2057 C167.143,33.0495 167.205,32.888 167.205,32.7214 C167.205,32.4714 167.039,32.3151 166.705,32.2526 C166.518,32.2214 166.268,32.2057 165.955,32.2057 C165.289,32.2057 164.752,32.1641 164.346,32.0807 M166.158,29.4714 C166.158,29.0443 166.07,28.6641 165.893,28.3307 C165.695,27.9974 165.44,27.8255 165.127,27.8151 C164.752,27.8151 164.518,28.013 164.424,28.4089 C164.403,28.513 164.393,28.6276 164.393,28.7526 C164.393,29.5547 164.617,30.0651 165.065,30.2839 C165.179,30.3464 165.294,30.3776 165.408,30.3776 C165.773,30.3776 166.007,30.1953 166.112,29.8307 C166.143,29.7162 166.158,29.5964 166.158,29.4714 M168.627,28.1901 C168.471,28.1901 168.33,28.2005 168.205,28.2214 L168.205,28.0651 C168.674,27.9297 169.19,27.7474 169.752,27.5182 L169.783,27.5495 L169.783,31.0964 C169.783,31.4818 169.841,31.7214 169.955,31.8151 C170.049,31.888 170.242,31.9349 170.533,31.9557 L170.533,32.112 L168.158,32.112 L168.158,31.9557 C168.523,31.9349 168.752,31.8672 168.846,31.7526 C168.919,31.638 168.955,31.4193 168.955,31.0964 L168.955,28.7682 C168.955,28.4141 168.872,28.2214 168.705,28.1901 C168.674,28.1901 168.648,28.1901 168.627,28.1901 M169.283,25.2839 C169.502,25.2839 169.658,25.3828 169.752,25.5807 C169.783,25.6537 169.799,25.7266 169.799,25.7995 C169.799,26.0182 169.695,26.1745 169.487,26.2682 C169.414,26.2891 169.346,26.2995 169.283,26.2995 C169.065,26.2995 168.908,26.2005 168.815,26.0026 C168.794,25.9297 168.783,25.862 168.783,25.7995 C168.783,25.5807 168.877,25.4245 169.065,25.3307 C169.138,25.2995 169.21,25.2839 169.283,25.2839 M173.455,27.5182 C174.195,27.5182 174.778,27.7891 175.205,28.3307 C175.507,28.737 175.658,29.2162 175.658,29.7682 C175.658,30.5495 175.403,31.1745 174.893,31.6432 C174.476,32.0182 173.992,32.2057 173.44,32.2057 C172.731,32.2057 172.169,31.9349 171.752,31.3932 C171.419,30.9557 171.252,30.4401 171.252,29.8464 C171.252,29.0339 171.528,28.4089 172.08,27.9714 C172.466,27.6693 172.924,27.5182 173.455,27.5182 M172.158,29.362 C172.158,30.2682 172.346,30.961 172.721,31.4401 C172.96,31.7526 173.242,31.9089 173.565,31.9089 C174.085,31.9089 174.445,31.612 174.643,31.0182 C174.726,30.7578 174.768,30.461 174.768,30.1276 C174.768,29.2422 174.554,28.586 174.127,28.1589 C173.898,27.9297 173.632,27.8151 173.33,27.8151 C172.862,27.8151 172.523,28.0547 172.315,28.5339 C172.21,28.7735 172.158,29.0495 172.158,29.362 M181.455,27.5182 C182.195,27.5182 182.778,27.7891 183.205,28.3307 C183.507,28.737 183.658,29.2162 183.658,29.7682 C183.658,30.5495 183.403,31.1745 182.893,31.6432 C182.476,32.0182 181.992,32.2057 181.44,32.2057 C180.731,32.2057 180.169,31.9349 179.752,31.3932 C179.419,30.9557 179.252,30.4401 179.252,29.8464 C179.252,29.0339 179.528,28.4089 180.08,27.9714 C180.466,27.6693 180.924,27.5182 181.455,27.5182 M180.158,29.362 C180.158,30.2682 180.346,30.961 180.721,31.4401 C180.96,31.7526 181.242,31.9089 181.565,31.9089 C182.085,31.9089 182.445,31.612 182.643,31.0182 C182.726,30.7578 182.768,30.461 182.768,30.1276 C182.768,29.2422 182.554,28.586 182.127,28.1589 C181.898,27.9297 181.632,27.8151 181.33,27.8151 C180.862,27.8151 180.523,28.0547 180.315,28.5339 C180.21,28.7735 180.158,29.0495 180.158,29.362 M184.096,28.1276 L184.096,27.9557 C184.596,27.8099 185.059,27.6641 185.487,27.5182 L185.549,27.5339 L185.549,28.3151 C186.028,27.8776 186.403,27.6224 186.674,27.5495 C186.778,27.5287 186.888,27.5182 187.002,27.5182 C187.544,27.5182 187.903,27.7891 188.08,28.3307 C188.143,28.5287 188.174,28.7526 188.174,29.0026 L188.174,31.2995 C188.174,31.612 188.247,31.8047 188.393,31.8776 C188.487,31.9089 188.617,31.9349 188.783,31.9557 L188.783,32.112 L186.705,32.112 L186.705,31.9557 C187.007,31.9349 187.195,31.836 187.268,31.6589 C187.32,31.5443 187.346,31.3672 187.346,31.1276 L187.346,29.0339 C187.325,28.388 187.08,28.0599 186.612,28.0495 C186.362,28.0495 186.101,28.1641 185.83,28.3932 C185.757,28.4662 185.674,28.5443 185.58,28.6276 L185.58,31.4401 C185.58,31.6797 185.679,31.836 185.877,31.9089 C185.971,31.9297 186.091,31.9453 186.237,31.9557 L186.237,32.112 L184.127,32.112 L184.127,31.9557 C184.419,31.9349 184.601,31.8516 184.674,31.7057 C184.716,31.5912 184.737,31.4245 184.737,31.2057 L184.737,28.7214 C184.737,28.3568 184.664,28.1537 184.518,28.112 C184.476,28.0912 184.429,28.0807 184.377,28.0807 C184.252,28.0807 184.158,28.0964 184.096,28.1276 M189.971,29.3464 C190.013,30.5235 190.398,31.2162 191.127,31.4245 C191.252,31.4662 191.388,31.487 191.533,31.487 C192.023,31.487 192.44,31.2787 192.783,30.862 C192.877,30.7474 192.976,30.612 193.08,30.4557 L193.237,30.5182 C192.872,31.4766 192.299,32.0287 191.518,32.1745 C191.382,32.1953 191.252,32.2057 191.127,32.2057 C190.388,32.2057 189.856,31.8932 189.533,31.2682 C189.346,30.8932 189.252,30.461 189.252,29.9714 C189.252,29.086 189.528,28.4141 190.08,27.9557 C190.445,27.6641 190.867,27.5182 191.346,27.5182 C192.263,27.5182 192.815,28.0391 193.002,29.0807 C193.023,29.1745 193.039,29.263 193.049,29.3464 L189.971,29.3464 M189.987,29.0495 L192.033,29.0495 C191.94,28.4766 191.773,28.1224 191.533,27.987 C191.408,27.9245 191.247,27.8932 191.049,27.8932 C190.455,27.8932 190.101,28.2682 189.987,29.0182 C189.987,29.0287 189.987,29.0391 189.987,29.0495 M198.455,27.5182 C199.195,27.5182 199.778,27.7891 200.205,28.3307 C200.507,28.737 200.658,29.2162 200.658,29.7682 C200.658,30.5495 200.403,31.1745 199.893,31.6432 C199.476,32.0182 198.992,32.2057 198.44,32.2057 C197.731,32.2057 197.169,31.9349 196.752,31.3932 C196.419,30.9557 196.252,30.4401 196.252,29.8464 C196.252,29.0339 196.528,28.4089 197.08,27.9714 C197.466,27.6693 197.924,27.5182 198.455,27.5182 M197.158,29.362 C197.158,30.2682 197.346,30.961 197.721,31.4401 C197.96,31.7526 198.242,31.9089 198.565,31.9089 C199.085,31.9089 199.445,31.612 199.643,31.0182 C199.726,30.7578 199.768,30.461 199.768,30.1276 C199.768,29.2422 199.554,28.586 199.127,28.1589 C198.898,27.9297 198.632,27.8151 198.33,27.8151 C197.862,27.8151 197.523,28.0547 197.315,28.5339 C197.21,28.7735 197.158,29.0495 197.158,29.362 M201.252,29.987 C201.252,29.1432 201.539,28.4818 202.112,28.0026 C202.507,27.6797 202.95,27.5182 203.44,27.5182 C203.992,27.5182 204.419,27.6693 204.721,27.9714 C204.898,28.1485 204.987,28.3412 204.987,28.5495 C204.987,28.7266 204.893,28.8516 204.705,28.9245 C204.632,28.9557 204.565,28.9714 204.502,28.9714 C204.294,28.9714 204.143,28.836 204.049,28.5651 C204.039,28.5443 204.033,28.5235 204.033,28.5026 L203.971,28.2839 C203.908,28.0339 203.794,27.888 203.627,27.8464 C203.554,27.8255 203.471,27.8151 203.377,27.8151 C202.877,27.8151 202.497,28.0547 202.237,28.5339 C202.091,28.8255 202.018,29.1641 202.018,29.5495 C202.018,30.2787 202.242,30.8255 202.69,31.1901 C202.95,31.388 203.242,31.487 203.565,31.487 C203.981,31.487 204.341,31.3203 204.643,30.987 C204.747,30.862 204.862,30.7162 204.987,30.5495 L205.127,30.6432 C204.752,31.362 204.335,31.8307 203.877,32.0495 C203.638,32.1537 203.398,32.2057 203.158,32.2057 C202.513,32.2057 202.007,31.9401 201.643,31.4089 C201.382,31.0026 201.252,30.5287 201.252,29.987 M207.596,27.612 L207.596,27.9089 L206.58,27.9089 L206.58,30.7682 C206.58,31.3099 206.716,31.6068 206.987,31.6589 C207.018,31.6693 207.054,31.6745 207.096,31.6745 C207.304,31.6641 207.507,31.5443 207.705,31.3151 L207.83,31.4401 C207.507,31.9505 207.106,32.2057 206.627,32.2057 C206.044,32.1953 205.747,31.7735 205.737,30.9401 L205.737,27.9089 L205.205,27.9089 C205.184,27.888 205.174,27.8672 205.174,27.8464 C205.174,27.8047 205.216,27.763 205.299,27.7214 C205.58,27.5339 205.914,27.1693 206.299,26.6276 C206.309,26.6172 206.315,26.612 206.315,26.612 C206.419,26.4557 206.487,26.362 206.518,26.3307 C206.559,26.3412 206.58,26.3828 206.58,26.4557 L206.58,27.612 L207.596,27.612 M208.252,31.1432 C208.252,30.6328 208.57,30.2005 209.205,29.8464 C209.393,29.7526 209.893,29.5391 210.705,29.2057 C210.726,29.2057 210.742,29.2005 210.752,29.1901 L210.752,28.5807 C210.7,28.0599 210.445,27.7839 209.987,27.7526 C209.674,27.7526 209.455,27.8516 209.33,28.0495 C209.289,28.1224 209.268,28.1849 209.268,28.237 C209.268,28.2995 209.278,28.3828 209.299,28.487 C209.309,28.5599 209.315,28.612 209.315,28.6432 C209.315,28.8203 209.226,28.9453 209.049,29.0182 C208.987,29.0495 208.929,29.0651 208.877,29.0651 C208.69,29.0651 208.559,28.9766 208.487,28.7995 C208.455,28.7474 208.44,28.6901 208.44,28.6276 C208.44,28.263 208.658,27.9662 209.096,27.737 C209.398,27.5912 209.742,27.5182 210.127,27.5182 C210.846,27.5182 211.289,27.7735 211.455,28.2839 C211.528,28.5026 211.565,28.7787 211.565,29.112 L211.565,31.0495 C211.565,31.3828 211.627,31.5703 211.752,31.612 C211.794,31.6224 211.83,31.6276 211.862,31.6276 C212.007,31.6172 212.153,31.5547 212.299,31.4401 L212.299,31.6901 C212.028,32.0026 211.778,32.1745 211.549,32.2057 C211.497,32.2057 211.445,32.2057 211.393,32.2057 C211.08,32.2057 210.882,32.0495 210.799,31.737 C210.778,31.6537 210.768,31.5599 210.768,31.4557 C210.174,31.9349 209.684,32.1849 209.299,32.2057 C208.872,32.2057 208.565,32.0339 208.377,31.6901 C208.294,31.5235 208.252,31.3412 208.252,31.1432 M210.752,30.862 L210.752,29.4245 C209.929,29.7266 209.424,30.0339 209.237,30.3464 C209.164,30.4922 209.127,30.6485 209.127,30.8151 C209.127,31.211 209.273,31.461 209.565,31.5651 C209.638,31.5964 209.705,31.612 209.768,31.612 C209.987,31.6016 210.226,31.5235 210.487,31.3776 C210.632,31.2943 210.716,31.1901 210.737,31.0651 C210.747,31.0026 210.752,30.9349 210.752,30.862 M216.627,27.612 L216.627,27.7682 C216.46,27.7891 216.335,27.8568 216.252,27.9714 C216.179,28.0755 216.091,28.2682 215.987,28.5495 L214.705,31.7526 C214.57,32.0755 214.476,32.2422 214.424,32.2526 C214.351,32.2526 214.268,32.1068 214.174,31.8151 C214.164,31.8047 214.158,31.7943 214.158,31.7839 L212.955,28.9089 C212.705,28.3151 212.518,27.9662 212.393,27.862 C212.309,27.7995 212.195,27.7682 212.049,27.7682 L212.049,27.612 L214.018,27.612 L214.018,27.7682 C213.737,27.7891 213.585,27.862 213.565,27.987 C213.554,28.0078 213.549,28.0287 213.549,28.0495 C213.549,28.1641 213.58,28.2839 213.643,28.4089 L214.658,30.9714 L215.643,28.3776 C215.684,28.2839 215.705,28.1849 215.705,28.0807 C215.705,27.9037 215.559,27.7995 215.268,27.7682 C215.257,27.7682 215.247,27.7682 215.237,27.7682 L215.237,27.612 L216.627,27.612 M217.971,29.3464 C218.013,30.5235 218.398,31.2162 219.127,31.4245 C219.252,31.4662 219.388,31.487 219.533,31.487 C220.023,31.487 220.44,31.2787 220.783,30.862 C220.877,30.7474 220.976,30.612 221.08,30.4557 L221.237,30.5182 C220.872,31.4766 220.299,32.0287 219.518,32.1745 C219.382,32.1953 219.252,32.2057 219.127,32.2057 C218.388,32.2057 217.856,31.8932 217.533,31.2682 C217.346,30.8932 217.252,30.461 217.252,29.9714 C217.252,29.086 217.528,28.4141 218.08,27.9557 C218.445,27.6641 218.867,27.5182 219.346,27.5182 C220.263,27.5182 220.815,28.0391 221.002,29.0807 C221.023,29.1745 221.039,29.263 221.049,29.3464 L217.971,29.3464 M217.987,29.0495 L220.033,29.0495 C219.94,28.4766 219.773,28.1224 219.533,27.987 C219.408,27.9245 219.247,27.8932 219.049,27.8932 C218.455,27.8932 218.101,28.2682 217.987,29.0182 C217.987,29.0287 217.987,29.0391 217.987,29.0495"/>
</svg>
