<?xml version="1.0" encoding="UTF-8" standalone="no"?>
<svg width="595.44px" height="841.68px" viewBox="0 0 595.44 841.68"
 xmlns="http://www.w3.org/2000/svg" xmlns:xlink="http://www.w3.org/1999/xlink" version="1.2" baseProfile="tiny">
<title>Guitar Scales and Arpeggios</title>
<desc>Generated by MuseScore 2.1.0</desc>
<polyline class="StaffLines" fill="none" stroke="#000000" stroke-width="0.40" stroke-linejoin="bevel" points="28.08,62.856 567.36,62.856"/>
<polyline class="StaffLines" fill="none" stroke="#000000" stroke-width="0.40" stroke-linejoin="bevel" points="28.08,67.824 567.36,67.824"/>
<polyline class="StaffLines" fill="none" stroke="#000000" stroke-width="0.40" stroke-linejoin="bevel" points="28.08,72.792 567.36,72.792"/>
<polyline class="StaffLines" fill="none" stroke="#000000" stroke-width="0.40" stroke-linejoin="bevel" points="28.08,77.76 567.36,77.76"/>
<polyline class="StaffLines" fill="none" stroke="#000000" stroke-width="0.40" stroke-linejoin="bevel" points="28.08,82.728 567.36,82.728"/>
<polyline class="StaffLines" fill="none" stroke="#000000" stroke-width="0.40" stroke-linejoin="bevel" points="28.08,115.02 567.36,115.02"/>
<polyline class="StaffLines" fill="none" stroke="#000000" stroke-width="0.40" stroke-linejoin="bevel" points="28.08,122.472 567.36,122.472"/>
<polyline class="StaffLines" fill="none" stroke="#000000" stroke-width="0.40" stroke-linejoin="bevel" points="28.08,129.924 567.36,129.924"/>
<polyline class="StaffLines" fill="none" stroke="#000000" stroke-width="0.40" stroke-linejoin="bevel" points="28.08,137.376 567.36,137.376"/>
<polyline class="StaffLines" fill="none" stroke="#000000" stroke-width="0.40" stroke-linejoin="bevel" points="28.08,144.828 567.36,144.828"/>
<polyline class="StaffLines" fill="none" stroke="#000000" stroke-width="0.40" stroke-linejoin="bevel" points="28.08,152.28 567.36,152.28"/>
<polyline class="BarLine" fill="none" stroke="#000000" stroke-width="0.79" stroke-linejoin="bevel" points="28.4774,62.856 28.4774,152.28"/>
<polyline class="BarLine" fill="none" stroke="#000000" stroke-width="0.79" stroke-linejoin="bevel" points="562.491,115.02 562.491,152.28"/>
<polyline class="BarLine" fill="none" stroke="#000000" stroke-width="2.48" stroke-linejoin="bevel" points="566.118,115.02 566.118,152.28"/>
<polyline class="BarLine" fill="none" stroke="#000000" stroke-width="0.79" stroke-linejoin="bevel" points="562.491,62.856 562.491,82.728"/>
<polyline class="BarLine" fill="none" stroke="#000000" stroke-width="2.48" stroke-linejoin="bevel" points="566.118,62.856 566.118,82.728"/>
<polyline class="LedgerLine" fill="none" stroke="#000000" stroke-width="0.79" stroke-linecap="square" stroke-linejoin="bevel" points="509.589,87.696 519.47,87.696"/>
<polyline class="LedgerLine" fill="none" stroke="#000000" stroke-width="0.79" stroke-linecap="square" stroke-linejoin="bevel" points="509.589,92.664 519.47,92.664"/>
<polyline class="LedgerLine" fill="none" stroke="#000000" stroke-width="0.79" stroke-linecap="square" stroke-linejoin="bevel" points="477.997,87.696 487.519,87.696"/>
<polyline class="LedgerLine" fill="none" stroke="#000000" stroke-width="0.79" stroke-linecap="square" stroke-linejoin="bevel" points="477.997,92.664 487.519,92.664"/>
<polyline class="LedgerLine" fill="none" stroke="#000000" stroke-width="0.79" stroke-linecap="square" stroke-linejoin="bevel" points="446.225,87.696 455.747,87.696"/>
<polyline class="LedgerLine" fill="none" stroke="#000000" stroke-width="0.79" stroke-linecap="square" stroke-linejoin="bevel" points="414.454,87.696 423.975,87.696"/>
<polyline class="LedgerLine" fill="none" stroke="#000000" stroke-width="0.79" stroke-linecap="square" stroke-linejoin="bevel" points="160.28,87.696 169.802,87.696"/>
<polyline class="LedgerLine" fill="none" stroke="#000000" stroke-width="0.79" stroke-linecap="square" stroke-linejoin="bevel" points="128.508,87.696 138.03,87.696"/>
<polyline class="LedgerLine" fill="none" stroke="#000000" stroke-width="0.79" stroke-linecap="square" stroke-linejoin="bevel" points="96.7368,87.696 106.258,87.696"/>
<polyline class="LedgerLine" fill="none" stroke="#000000" stroke-width="0.79" stroke-linecap="square" stroke-linejoin="bevel" points="96.7368,92.664 106.258,92.664"/>
<polyline class="LedgerLine" fill="none" stroke="#000000" stroke-width="0.79" stroke-linecap="square" stroke-linejoin="bevel" points="64.9651,87.696 74.4866,87.696"/>
<polyline class="LedgerLine" fill="none" stroke="#000000" stroke-width="0.79" stroke-linecap="square" stroke-linejoin="bevel" points="64.9651,92.664 74.4866,92.664"/>
<polyline class="Stem" fill="none" stroke="#000000" stroke-width="0.65" stroke-linecap="round" stroke-linejoin="bevel" points="517.656,94.3849 517.656,72.792"/>
<polyline class="Stem" fill="none" stroke="#000000" stroke-width="0.65" stroke-linecap="round" stroke-linejoin="bevel" points="485.705,91.7309 485.705,72.792"/>
<polyline class="Stem" fill="none" stroke="#000000" stroke-width="0.65" stroke-linecap="round" stroke-linejoin="bevel" points="453.934,89.2469 453.934,72.792"/>
<polyline class="Stem" fill="none" stroke="#000000" stroke-width="0.65" stroke-linecap="round" stroke-linejoin="bevel" points="422.162,86.7629 422.162,70.308"/>
<polyline class="Stem" fill="none" stroke="#000000" stroke-width="0.65" stroke-linecap="round" stroke-linejoin="bevel" points="390.39,84.2789 390.39,67.824"/>
<polyline class="Stem" fill="none" stroke="#000000" stroke-width="0.65" stroke-linecap="round" stroke-linejoin="bevel" points="358.618,81.7949 358.618,65.34"/>
<polyline class="Stem" fill="none" stroke="#000000" stroke-width="0.65" stroke-linecap="round" stroke-linejoin="bevel" points="326.847,79.3109 326.847,62.856"/>
<polyline class="Stem" fill="none" stroke="#000000" stroke-width="0.65" stroke-linecap="round" stroke-linejoin="bevel" points="295.075,76.8269 295.075,60.993"/>
<polyline class="Stem" fill="none" stroke="#000000" stroke-width="0.65" stroke-linecap="round" stroke-linejoin="bevel" points="263.303,79.3109 263.303,62.856"/>
<polyline class="Stem" fill="none" stroke="#000000" stroke-width="0.65" stroke-linecap="round" stroke-linejoin="bevel" points="231.532,81.7949 231.532,65.34"/>
<polyline class="Stem" fill="none" stroke="#000000" stroke-width="0.65" stroke-linecap="round" stroke-linejoin="bevel" points="199.76,84.2789 199.76,67.824"/>
<polyline class="Stem" fill="none" stroke="#000000" stroke-width="0.65" stroke-linecap="round" stroke-linejoin="bevel" points="167.988,86.7629 167.988,70.308"/>
<polyline class="Stem" fill="none" stroke="#000000" stroke-width="0.65" stroke-linecap="round" stroke-linejoin="bevel" points="136.217,89.2469 136.217,72.792"/>
<polyline class="Stem" fill="none" stroke="#000000" stroke-width="0.65" stroke-linecap="round" stroke-linejoin="bevel" points="104.445,91.7309 104.445,72.792"/>
<polyline class="Stem" fill="none" stroke="#000000" stroke-width="0.65" stroke-linecap="round" stroke-linejoin="bevel" points="72.6732,94.2149 72.6732,72.792"/>
<path class="Note" fill="#ffffff" fill-rule="evenodd" d="M512.004,148.554 L517.966,148.554 L517.966,156.006 L512.004,156.006 L512.004,148.554 "/>
<path class="Note" transform="matrix(0.9936,0,0,0.9936,512.501,155.758)" d="M2.4375,-5.64063 C1.75,-5.64063 1.35417,-5.32813 1.25,-4.70313 C1.22917,-4.59896 1.21875,-4.47917 1.21875,-4.34375 L0.421875,-4.34375 C0.442708,-5.59375 1.01563,-6.27083 2.14063,-6.375 C2.23438,-6.38542 2.32813,-6.39063 2.42188,-6.39063 C3.26563,-6.39063 3.84375,-6.10938 4.15625,-5.54688 C4.29167,-5.28646 4.35938,-4.98438 4.35938,-4.64063 C4.35938,-4.00521 4.0625,-3.57292 3.46875,-3.34375 C4.03125,-3.14583 4.375,-2.81771 4.5,-2.35938 C4.54167,-2.19271 4.5625,-2.00521 4.5625,-1.79688 C4.5625,-1.05729 4.27604,-0.505208 3.70313,-0.140625 C3.33854,0.0885417 2.90104,0.203125 2.39063,0.203125 C1.21354,0.203125 0.526042,-0.348958 0.328125,-1.45313 C0.317708,-1.57813 0.302083,-1.71354 0.28125,-1.85938 L1.07813,-1.85938 C1.13021,-1.08854 1.46875,-0.65625 2.09375,-0.5625 C2.19792,-0.541667 2.30729,-0.53125 2.42188,-0.53125 C3.04688,-0.53125 3.45313,-0.765625 3.64063,-1.23438 C3.71354,-1.40104 3.75,-1.58854 3.75,-1.79688 C3.73958,-2.54688 3.29688,-2.92708 2.42188,-2.9375 L2.09375,-2.92188 L1.98438,-2.92188 L1.98438,-3.67188 C2.66146,-3.68229 3.10417,-3.77604 3.3125,-3.95313 C3.47917,-4.09896 3.5625,-4.31771 3.5625,-4.60938 C3.5625,-5.09896 3.34896,-5.41667 2.92188,-5.5625 C2.77604,-5.61458 2.61458,-5.64063 2.4375,-5.64063"/>
<path class="Note" fill="#99cc33" transform="matrix(0.9936,0,0,0.9936,511.08,95.148)" d="M6.3125,-1.3125 C6.3125,-1.53125 6.22917,-1.71875 6.0625,-1.875 C5.88542,-2.04167 5.6875,-2.125 5.46875,-2.125 C5.08333,-2.125 4.29688,-1.73438 3.10938,-0.953125 C1.88021,-0.161458 1.13021,0.40625 0.859375,0.75 C0.713542,0.927083 0.640625,1.11458 0.640625,1.3125 C0.640625,1.53125 0.729167,1.71875 0.90625,1.875 C1.0625,2.04167 1.25521,2.125 1.48438,2.125 C1.85938,2.125 2.65625,1.73438 3.875,0.953125 C5.07292,0.171875 5.8125,-0.395833 6.09375,-0.75 C6.23958,-0.916667 6.3125,-1.10417 6.3125,-1.3125 M5.28125,-2.75 C6.39583,-2.75 6.95313,-2.27083 6.95313,-1.3125 C6.95313,-0.84375 6.81771,-0.296875 6.54688,0.328125 C6.27604,0.942708 5.91146,1.41146 5.45313,1.73438 C4.45313,2.41146 3.19792,2.75 1.6875,2.75 C0.5625,2.75 0,2.27083 0,1.3125 C0,0.885417 0.135417,0.34375 0.40625,-0.3125 C0.666667,-0.9375 1.03125,-1.41146 1.5,-1.73438 C2.51042,-2.41146 3.77083,-2.75 5.28125,-2.75"/>
<path class="Note" fill="#ffffff" fill-rule="evenodd" d="M480.233,141.102 L486.194,141.102 L486.194,148.554 L480.233,148.554 L480.233,141.102 "/>
<path class="Note" transform="matrix(0.9936,0,0,0.9936,480.73,148.306)" d="M0.390625,-3.09375 C0.390625,-5 0.927083,-6.07813 2,-6.32813 C2.14583,-6.36979 2.30208,-6.39063 2.46875,-6.39063 C3.78125,-6.39063 4.47917,-5.40104 4.5625,-3.42188 C4.5625,-3.28646 4.5625,-3.15625 4.5625,-3.03125 C4.5625,-1.40625 4.15104,-0.385417 3.32813,0.03125 C3.06771,0.145833 2.78125,0.203125 2.46875,0.203125 C1.41667,0.203125 0.760417,-0.442708 0.5,-1.73438 C0.427083,-2.14063 0.390625,-2.59375 0.390625,-3.09375 M2.46875,-5.64063 C1.625,-5.63021 1.20313,-4.77083 1.20313,-3.0625 C1.20313,-1.32292 1.61979,-0.453125 2.45313,-0.453125 C3.16146,-0.453125 3.57813,-1.02604 3.70313,-2.17188 C3.73438,-2.44271 3.75,-2.75 3.75,-3.09375 C3.75,-4.79167 3.32292,-5.64063 2.46875,-5.64063"/>
<path class="Note" fill="#cc00ff" transform="matrix(0.9936,0,0,0.9936,479.488,92.664)" d="M4.39063,-2.75 C5.01563,-2.75 5.54688,-2.58854 5.98438,-2.26563 C6.38021,-1.91146 6.57813,-1.46875 6.57813,-0.9375 C6.57813,-0.0416667 6.11979,0.796875 5.20313,1.57813 C4.26563,2.35938 3.26042,2.75 2.1875,2.75 C1.5625,2.75 1.03646,2.58854 0.609375,2.26563 C0.203125,1.91146 0,1.46875 0,0.9375 C0,0.0416667 0.46875,-0.796875 1.40625,-1.57813 C2.32292,-2.35938 3.31771,-2.75 4.39063,-2.75"/>
<path class="Note" fill="#ffffff" fill-rule="evenodd" d="M448.461,141.102 L454.423,141.102 L454.423,148.554 L448.461,148.554 L448.461,141.102 "/>
<path class="Note" transform="matrix(0.9936,0,0,0.9936,448.958,148.306)" d="M0.453125,-4.17188 C0.494792,-5.64063 1.19792,-6.38021 2.5625,-6.39063 C3.28125,-6.39063 3.83333,-6.14583 4.21875,-5.65625 C4.46875,-5.32292 4.59375,-4.93229 4.59375,-4.48438 C4.59375,-3.68229 4.14583,-3.03125 3.25,-2.53125 L2.34375,-2.04688 C1.79167,-1.75521 1.44271,-1.4375 1.29688,-1.09375 C1.24479,-0.989583 1.21354,-0.869792 1.20313,-0.734375 L4.5625,-0.734375 L4.5625,0 L0.3125,0 C0.354167,-0.760417 0.520833,-1.33854 0.8125,-1.73438 C1.07292,-2.05729 1.5,-2.38542 2.09375,-2.71875 L2.92188,-3.1875 C3.49479,-3.52083 3.78646,-3.94271 3.79688,-4.45313 C3.79688,-4.88021 3.61458,-5.21354 3.25,-5.45313 C3.04167,-5.57813 2.80208,-5.64063 2.53125,-5.64063 C1.73958,-5.64063 1.3125,-5.16667 1.25,-4.21875 C1.25,-4.19792 1.25,-4.18229 1.25,-4.17188 L0.453125,-4.17188 "/>
<path class="Note" fill="#ff9ee6" transform="matrix(0.9936,0,0,0.9936,447.716,90.18)" d="M4.39063,-2.75 C5.01563,-2.75 5.54688,-2.58854 5.98438,-2.26563 C6.38021,-1.91146 6.57813,-1.46875 6.57813,-0.9375 C6.57813,-0.0416667 6.11979,0.796875 5.20313,1.57813 C4.26563,2.35938 3.26042,2.75 2.1875,2.75 C1.5625,2.75 1.03646,2.58854 0.609375,2.26563 C0.203125,1.91146 0,1.46875 0,0.9375 C0,0.0416667 0.46875,-0.796875 1.40625,-1.57813 C2.32292,-2.35938 3.31771,-2.75 4.39063,-2.75"/>
<path class="Note" fill="#ffffff" fill-rule="evenodd" d="M416.689,141.102 L422.651,141.102 L422.651,148.554 L416.689,148.554 L416.689,141.102 "/>
<path class="Note" transform="matrix(0.9936,0,0,0.9936,417.186,148.306)" d="M2.4375,-5.64063 C1.75,-5.64063 1.35417,-5.32813 1.25,-4.70313 C1.22917,-4.59896 1.21875,-4.47917 1.21875,-4.34375 L0.421875,-4.34375 C0.442708,-5.59375 1.01563,-6.27083 2.14063,-6.375 C2.23438,-6.38542 2.32813,-6.39063 2.42188,-6.39063 C3.26563,-6.39063 3.84375,-6.10938 4.15625,-5.54688 C4.29167,-5.28646 4.35938,-4.98438 4.35938,-4.64063 C4.35938,-4.00521 4.0625,-3.57292 3.46875,-3.34375 C4.03125,-3.14583 4.375,-2.81771 4.5,-2.35938 C4.54167,-2.19271 4.5625,-2.00521 4.5625,-1.79688 C4.5625,-1.05729 4.27604,-0.505208 3.70313,-0.140625 C3.33854,0.0885417 2.90104,0.203125 2.39063,0.203125 C1.21354,0.203125 0.526042,-0.348958 0.328125,-1.45313 C0.317708,-1.57813 0.302083,-1.71354 0.28125,-1.85938 L1.07813,-1.85938 C1.13021,-1.08854 1.46875,-0.65625 2.09375,-0.5625 C2.19792,-0.541667 2.30729,-0.53125 2.42188,-0.53125 C3.04688,-0.53125 3.45313,-0.765625 3.64063,-1.23438 C3.71354,-1.40104 3.75,-1.58854 3.75,-1.79688 C3.73958,-2.54688 3.29688,-2.92708 2.42188,-2.9375 L2.09375,-2.92188 L1.98438,-2.92188 L1.98438,-3.67188 C2.66146,-3.68229 3.10417,-3.77604 3.3125,-3.95313 C3.47917,-4.09896 3.5625,-4.31771 3.5625,-4.60938 C3.5625,-5.09896 3.34896,-5.41667 2.92188,-5.5625 C2.77604,-5.61458 2.61458,-5.64063 2.4375,-5.64063"/>
<path class="Note" fill="#ed2929" transform="matrix(0.9936,0,0,0.9936,415.944,87.696)" d="M4.39063,-2.75 C5.01563,-2.75 5.54688,-2.58854 5.98438,-2.26563 C6.38021,-1.91146 6.57813,-1.46875 6.57813,-0.9375 C6.57813,-0.0416667 6.11979,0.796875 5.20313,1.57813 C4.26563,2.35938 3.26042,2.75 2.1875,2.75 C1.5625,2.75 1.03646,2.58854 0.609375,2.26563 C0.203125,1.91146 0,1.46875 0,0.9375 C0,0.0416667 0.46875,-0.796875 1.40625,-1.57813 C2.32292,-2.35938 3.31771,-2.75 4.39063,-2.75"/>
<path class="Note" fill="#ffffff" fill-rule="evenodd" d="M384.918,133.65 L390.879,133.65 L390.879,141.102 L384.918,141.102 L384.918,133.65 "/>
<path class="Note" transform="matrix(0.9936,0,0,0.9936,385.414,140.854)" d="M0.390625,-3.09375 C0.390625,-5 0.927083,-6.07813 2,-6.32813 C2.14583,-6.36979 2.30208,-6.39063 2.46875,-6.39063 C3.78125,-6.39063 4.47917,-5.40104 4.5625,-3.42188 C4.5625,-3.28646 4.5625,-3.15625 4.5625,-3.03125 C4.5625,-1.40625 4.15104,-0.385417 3.32813,0.03125 C3.06771,0.145833 2.78125,0.203125 2.46875,0.203125 C1.41667,0.203125 0.760417,-0.442708 0.5,-1.73438 C0.427083,-2.14063 0.390625,-2.59375 0.390625,-3.09375 M2.46875,-5.64063 C1.625,-5.63021 1.20313,-4.77083 1.20313,-3.0625 C1.20313,-1.32292 1.61979,-0.453125 2.45313,-0.453125 C3.16146,-0.453125 3.57813,-1.02604 3.70313,-2.17188 C3.73438,-2.44271 3.75,-2.75 3.75,-3.09375 C3.75,-4.79167 3.32292,-5.64063 2.46875,-5.64063"/>
<path class="Note" fill="#78c7c7" transform="matrix(0.9936,0,0,0.9936,384.172,85.212)" d="M4.39063,-2.75 C5.01563,-2.75 5.54688,-2.58854 5.98438,-2.26563 C6.38021,-1.91146 6.57813,-1.46875 6.57813,-0.9375 C6.57813,-0.0416667 6.11979,0.796875 5.20313,1.57813 C4.26563,2.35938 3.26042,2.75 2.1875,2.75 C1.5625,2.75 1.03646,2.58854 0.609375,2.26563 C0.203125,1.91146 0,1.46875 0,0.9375 C0,0.0416667 0.46875,-0.796875 1.40625,-1.57813 C2.32292,-2.35938 3.31771,-2.75 4.39063,-2.75"/>
<path class="Note" fill="#ffffff" fill-rule="evenodd" d="M353.146,133.65 L359.108,133.65 L359.108,141.102 L353.146,141.102 L353.146,133.65 "/>
<path class="Note" transform="matrix(0.9936,0,0,0.9936,353.643,140.854)" d="M0.453125,-4.17188 C0.494792,-5.64063 1.19792,-6.38021 2.5625,-6.39063 C3.28125,-6.39063 3.83333,-6.14583 4.21875,-5.65625 C4.46875,-5.32292 4.59375,-4.93229 4.59375,-4.48438 C4.59375,-3.68229 4.14583,-3.03125 3.25,-2.53125 L2.34375,-2.04688 C1.79167,-1.75521 1.44271,-1.4375 1.29688,-1.09375 C1.24479,-0.989583 1.21354,-0.869792 1.20313,-0.734375 L4.5625,-0.734375 L4.5625,0 L0.3125,0 C0.354167,-0.760417 0.520833,-1.33854 0.8125,-1.73438 C1.07292,-2.05729 1.5,-2.38542 2.09375,-2.71875 L2.92188,-3.1875 C3.49479,-3.52083 3.78646,-3.94271 3.79688,-4.45313 C3.79688,-4.88021 3.61458,-5.21354 3.25,-5.45313 C3.04167,-5.57813 2.80208,-5.64063 2.53125,-5.64063 C1.73958,-5.64063 1.3125,-5.16667 1.25,-4.21875 C1.25,-4.19792 1.25,-4.18229 1.25,-4.17188 L0.453125,-4.17188 "/>
<path class="Note" fill="#ff9933" transform="matrix(0.9936,0,0,0.9936,352.401,82.728)" d="M4.39063,-2.75 C5.01563,-2.75 5.54688,-2.58854 5.98438,-2.26563 C6.38021,-1.91146 6.57813,-1.46875 6.57813,-0.9375 C6.57813,-0.0416667 6.11979,0.796875 5.20313,1.57813 C4.26563,2.35938 3.26042,2.75 2.1875,2.75 C1.5625,2.75 1.03646,2.58854 0.609375,2.26563 C0.203125,1.91146 0,1.46875 0,0.9375 C0,0.0416667 0.46875,-0.796875 1.40625,-1.57813 C2.32292,-2.35938 3.31771,-2.75 4.39063,-2.75"/>
<path class="Note" fill="#ffffff" fill-rule="evenodd" d="M321.374,133.65 L327.336,133.65 L327.336,141.102 L321.374,141.102 L321.374,133.65 "/>
<path class="Note" transform="matrix(0.9936,0,0,0.9936,321.871,140.854)" d="M2.9375,-1.5 L0.25,-1.5 L0.25,-2.375 L3.15625,-6.39063 L3.73438,-6.39063 L3.73438,-2.23438 L4.6875,-2.23438 L4.6875,-1.5 L3.73438,-1.5 L3.73438,0 L2.9375,0 L2.9375,-1.5 M2.9375,-2.23438 L2.9375,-5.03125 L0.9375,-2.23438 L2.9375,-2.23438 "/>
<path class="Note" fill="#286704" transform="matrix(0.9936,0,0,0.9936,320.629,80.244)" d="M4.39063,-2.75 C5.01563,-2.75 5.54688,-2.58854 5.98438,-2.26563 C6.38021,-1.91146 6.57813,-1.46875 6.57813,-0.9375 C6.57813,-0.0416667 6.11979,0.796875 5.20313,1.57813 C4.26563,2.35938 3.26042,2.75 2.1875,2.75 C1.5625,2.75 1.03646,2.58854 0.609375,2.26563 C0.203125,1.91146 0,1.46875 0,0.9375 C0,0.0416667 0.46875,-0.796875 1.40625,-1.57813 C2.32292,-2.35938 3.31771,-2.75 4.39063,-2.75"/>
<path class="Note" fill="#ffffff" fill-rule="evenodd" d="M289.603,126.198 L295.564,126.198 L295.564,133.65 L289.603,133.65 L289.603,126.198 "/>
<path class="Note" transform="matrix(0.9936,0,0,0.9936,290.099,133.402)" d="M0.390625,-3.09375 C0.390625,-5 0.927083,-6.07813 2,-6.32813 C2.14583,-6.36979 2.30208,-6.39063 2.46875,-6.39063 C3.78125,-6.39063 4.47917,-5.40104 4.5625,-3.42188 C4.5625,-3.28646 4.5625,-3.15625 4.5625,-3.03125 C4.5625,-1.40625 4.15104,-0.385417 3.32813,0.03125 C3.06771,0.145833 2.78125,0.203125 2.46875,0.203125 C1.41667,0.203125 0.760417,-0.442708 0.5,-1.73438 C0.427083,-2.14063 0.390625,-2.59375 0.390625,-3.09375 M2.46875,-5.64063 C1.625,-5.63021 1.20313,-4.77083 1.20313,-3.0625 C1.20313,-1.32292 1.61979,-0.453125 2.45313,-0.453125 C3.16146,-0.453125 3.57813,-1.02604 3.70313,-2.17188 C3.73438,-2.44271 3.75,-2.75 3.75,-3.09375 C3.75,-4.79167 3.32292,-5.64063 2.46875,-5.64063"/>
<path class="Note" fill="#99cc33" transform="matrix(0.9936,0,0,0.9936,288.857,77.76)" d="M4.39063,-2.75 C5.01563,-2.75 5.54688,-2.58854 5.98438,-2.26563 C6.38021,-1.91146 6.57813,-1.46875 6.57813,-0.9375 C6.57813,-0.0416667 6.11979,0.796875 5.20313,1.57813 C4.26563,2.35938 3.26042,2.75 2.1875,2.75 C1.5625,2.75 1.03646,2.58854 0.609375,2.26563 C0.203125,1.91146 0,1.46875 0,0.9375 C0,0.0416667 0.46875,-0.796875 1.40625,-1.57813 C2.32292,-2.35938 3.31771,-2.75 4.39063,-2.75"/>
<path class="Note" fill="#ffffff" fill-rule="evenodd" d="M257.831,133.65 L263.792,133.65 L263.792,141.102 L257.831,141.102 L257.831,133.65 "/>
<path class="Note" transform="matrix(0.9936,0,0,0.9936,258.328,140.854)" d="M2.9375,-1.5 L0.25,-1.5 L0.25,-2.375 L3.15625,-6.39063 L3.73438,-6.39063 L3.73438,-2.23438 L4.6875,-2.23438 L4.6875,-1.5 L3.73438,-1.5 L3.73438,0 L2.9375,0 L2.9375,-1.5 M2.9375,-2.23438 L2.9375,-5.03125 L0.9375,-2.23438 L2.9375,-2.23438 "/>
<path class="Note" fill="#286704" transform="matrix(0.9936,0,0,0.9936,257.086,80.244)" d="M4.39063,-2.75 C5.01563,-2.75 5.54688,-2.58854 5.98438,-2.26563 C6.38021,-1.91146 6.57813,-1.46875 6.57813,-0.9375 C6.57813,-0.0416667 6.11979,0.796875 5.20313,1.57813 C4.26563,2.35938 3.26042,2.75 2.1875,2.75 C1.5625,2.75 1.03646,2.58854 0.609375,2.26563 C0.203125,1.91146 0,1.46875 0,0.9375 C0,0.0416667 0.46875,-0.796875 1.40625,-1.57813 C2.32292,-2.35938 3.31771,-2.75 4.39063,-2.75"/>
<path class="Note" fill="#ffffff" fill-rule="evenodd" d="M226.059,133.65 L232.021,133.65 L232.021,141.102 L226.059,141.102 L226.059,133.65 "/>
<path class="Note" transform="matrix(0.9936,0,0,0.9936,226.556,140.854)" d="M0.453125,-4.17188 C0.494792,-5.64063 1.19792,-6.38021 2.5625,-6.39063 C3.28125,-6.39063 3.83333,-6.14583 4.21875,-5.65625 C4.46875,-5.32292 4.59375,-4.93229 4.59375,-4.48438 C4.59375,-3.68229 4.14583,-3.03125 3.25,-2.53125 L2.34375,-2.04688 C1.79167,-1.75521 1.44271,-1.4375 1.29688,-1.09375 C1.24479,-0.989583 1.21354,-0.869792 1.20313,-0.734375 L4.5625,-0.734375 L4.5625,0 L0.3125,0 C0.354167,-0.760417 0.520833,-1.33854 0.8125,-1.73438 C1.07292,-2.05729 1.5,-2.38542 2.09375,-2.71875 L2.92188,-3.1875 C3.49479,-3.52083 3.78646,-3.94271 3.79688,-4.45313 C3.79688,-4.88021 3.61458,-5.21354 3.25,-5.45313 C3.04167,-5.57813 2.80208,-5.64063 2.53125,-5.64063 C1.73958,-5.64063 1.3125,-5.16667 1.25,-4.21875 C1.25,-4.19792 1.25,-4.18229 1.25,-4.17188 L0.453125,-4.17188 "/>
<path class="Note" fill="#ff9933" transform="matrix(0.9936,0,0,0.9936,225.314,82.728)" d="M4.39063,-2.75 C5.01563,-2.75 5.54688,-2.58854 5.98438,-2.26563 C6.38021,-1.91146 6.57813,-1.46875 6.57813,-0.9375 C6.57813,-0.0416667 6.11979,0.796875 5.20313,1.57813 C4.26563,2.35938 3.26042,2.75 2.1875,2.75 C1.5625,2.75 1.03646,2.58854 0.609375,2.26563 C0.203125,1.91146 0,1.46875 0,0.9375 C0,0.0416667 0.46875,-0.796875 1.40625,-1.57813 C2.32292,-2.35938 3.31771,-2.75 4.39063,-2.75"/>
<path class="Note" fill="#ffffff" fill-rule="evenodd" d="M194.287,133.65 L200.249,133.65 L200.249,141.102 L194.287,141.102 L194.287,133.65 "/>
<path class="Note" transform="matrix(0.9936,0,0,0.9936,194.784,140.854)" d="M0.390625,-3.09375 C0.390625,-5 0.927083,-6.07813 2,-6.32813 C2.14583,-6.36979 2.30208,-6.39063 2.46875,-6.39063 C3.78125,-6.39063 4.47917,-5.40104 4.5625,-3.42188 C4.5625,-3.28646 4.5625,-3.15625 4.5625,-3.03125 C4.5625,-1.40625 4.15104,-0.385417 3.32813,0.03125 C3.06771,0.145833 2.78125,0.203125 2.46875,0.203125 C1.41667,0.203125 0.760417,-0.442708 0.5,-1.73438 C0.427083,-2.14063 0.390625,-2.59375 0.390625,-3.09375 M2.46875,-5.64063 C1.625,-5.63021 1.20313,-4.77083 1.20313,-3.0625 C1.20313,-1.32292 1.61979,-0.453125 2.45313,-0.453125 C3.16146,-0.453125 3.57813,-1.02604 3.70313,-2.17188 C3.73438,-2.44271 3.75,-2.75 3.75,-3.09375 C3.75,-4.79167 3.32292,-5.64063 2.46875,-5.64063"/>
<path class="Note" fill="#78c7c7" transform="matrix(0.9936,0,0,0.9936,193.542,85.212)" d="M4.39063,-2.75 C5.01563,-2.75 5.54688,-2.58854 5.98438,-2.26563 C6.38021,-1.91146 6.57813,-1.46875 6.57813,-0.9375 C6.57813,-0.0416667 6.11979,0.796875 5.20313,1.57813 C4.26563,2.35938 3.26042,2.75 2.1875,2.75 C1.5625,2.75 1.03646,2.58854 0.609375,2.26563 C0.203125,1.91146 0,1.46875 0,0.9375 C0,0.0416667 0.46875,-0.796875 1.40625,-1.57813 C2.32292,-2.35938 3.31771,-2.75 4.39063,-2.75"/>
<path class="Note" fill="#ffffff" fill-rule="evenodd" d="M162.516,141.102 L168.477,141.102 L168.477,148.554 L162.516,148.554 L162.516,141.102 "/>
<path class="Note" transform="matrix(0.9936,0,0,0.9936,163.013,148.306)" d="M2.4375,-5.64063 C1.75,-5.64063 1.35417,-5.32813 1.25,-4.70313 C1.22917,-4.59896 1.21875,-4.47917 1.21875,-4.34375 L0.421875,-4.34375 C0.442708,-5.59375 1.01563,-6.27083 2.14063,-6.375 C2.23438,-6.38542 2.32813,-6.39063 2.42188,-6.39063 C3.26563,-6.39063 3.84375,-6.10938 4.15625,-5.54688 C4.29167,-5.28646 4.35938,-4.98438 4.35938,-4.64063 C4.35938,-4.00521 4.0625,-3.57292 3.46875,-3.34375 C4.03125,-3.14583 4.375,-2.81771 4.5,-2.35938 C4.54167,-2.19271 4.5625,-2.00521 4.5625,-1.79688 C4.5625,-1.05729 4.27604,-0.505208 3.70313,-0.140625 C3.33854,0.0885417 2.90104,0.203125 2.39063,0.203125 C1.21354,0.203125 0.526042,-0.348958 0.328125,-1.45313 C0.317708,-1.57813 0.302083,-1.71354 0.28125,-1.85938 L1.07813,-1.85938 C1.13021,-1.08854 1.46875,-0.65625 2.09375,-0.5625 C2.19792,-0.541667 2.30729,-0.53125 2.42188,-0.53125 C3.04688,-0.53125 3.45313,-0.765625 3.64063,-1.23438 C3.71354,-1.40104 3.75,-1.58854 3.75,-1.79688 C3.73958,-2.54688 3.29688,-2.92708 2.42188,-2.9375 L2.09375,-2.92188 L1.98438,-2.92188 L1.98438,-3.67188 C2.66146,-3.68229 3.10417,-3.77604 3.3125,-3.95313 C3.47917,-4.09896 3.5625,-4.31771 3.5625,-4.60938 C3.5625,-5.09896 3.34896,-5.41667 2.92188,-5.5625 C2.77604,-5.61458 2.61458,-5.64063 2.4375,-5.64063"/>
<path class="Note" fill="#ed2929" transform="matrix(0.9936,0,0,0.9936,161.771,87.696)" d="M4.39063,-2.75 C5.01563,-2.75 5.54688,-2.58854 5.98438,-2.26563 C6.38021,-1.91146 6.57813,-1.46875 6.57813,-0.9375 C6.57813,-0.0416667 6.11979,0.796875 5.20313,1.57813 C4.26563,2.35938 3.26042,2.75 2.1875,2.75 C1.5625,2.75 1.03646,2.58854 0.609375,2.26563 C0.203125,1.91146 0,1.46875 0,0.9375 C0,0.0416667 0.46875,-0.796875 1.40625,-1.57813 C2.32292,-2.35938 3.31771,-2.75 4.39063,-2.75"/>
<path class="Note" fill="#ffffff" fill-rule="evenodd" d="M130.744,141.102 L136.706,141.102 L136.706,148.554 L130.744,148.554 L130.744,141.102 "/>
<path class="Note" transform="matrix(0.9936,0,0,0.9936,131.241,148.306)" d="M0.453125,-4.17188 C0.494792,-5.64063 1.19792,-6.38021 2.5625,-6.39063 C3.28125,-6.39063 3.83333,-6.14583 4.21875,-5.65625 C4.46875,-5.32292 4.59375,-4.93229 4.59375,-4.48438 C4.59375,-3.68229 4.14583,-3.03125 3.25,-2.53125 L2.34375,-2.04688 C1.79167,-1.75521 1.44271,-1.4375 1.29688,-1.09375 C1.24479,-0.989583 1.21354,-0.869792 1.20313,-0.734375 L4.5625,-0.734375 L4.5625,0 L0.3125,0 C0.354167,-0.760417 0.520833,-1.33854 0.8125,-1.73438 C1.07292,-2.05729 1.5,-2.38542 2.09375,-2.71875 L2.92188,-3.1875 C3.49479,-3.52083 3.78646,-3.94271 3.79688,-4.45313 C3.79688,-4.88021 3.61458,-5.21354 3.25,-5.45313 C3.04167,-5.57813 2.80208,-5.64063 2.53125,-5.64063 C1.73958,-5.64063 1.3125,-5.16667 1.25,-4.21875 C1.25,-4.19792 1.25,-4.18229 1.25,-4.17188 L0.453125,-4.17188 "/>
<path class="Note" fill="#ff9ee6" transform="matrix(0.9936,0,0,0.9936,129.999,90.18)" d="M4.39063,-2.75 C5.01563,-2.75 5.54688,-2.58854 5.98438,-2.26563 C6.38021,-1.91146 6.57813,-1.46875 6.57813,-0.9375 C6.57813,-0.0416667 6.11979,0.796875 5.20313,1.57813 C4.26563,2.35938 3.26042,2.75 2.1875,2.75 C1.5625,2.75 1.03646,2.58854 0.609375,2.26563 C0.203125,1.91146 0,1.46875 0,0.9375 C0,0.0416667 0.46875,-0.796875 1.40625,-1.57813 C2.32292,-2.35938 3.31771,-2.75 4.39063,-2.75"/>
<path class="Note" fill="#ffffff" fill-rule="evenodd" d="M98.9724,141.102 L104.934,141.102 L104.934,148.554 L98.9724,148.554 L98.9724,141.102 "/>
<path class="Note" transform="matrix(0.9936,0,0,0.9936,99.4692,148.306)" d="M0.390625,-3.09375 C0.390625,-5 0.927083,-6.07813 2,-6.32813 C2.14583,-6.36979 2.30208,-6.39063 2.46875,-6.39063 C3.78125,-6.39063 4.47917,-5.40104 4.5625,-3.42188 C4.5625,-3.28646 4.5625,-3.15625 4.5625,-3.03125 C4.5625,-1.40625 4.15104,-0.385417 3.32813,0.03125 C3.06771,0.145833 2.78125,0.203125 2.46875,0.203125 C1.41667,0.203125 0.760417,-0.442708 0.5,-1.73438 C0.427083,-2.14063 0.390625,-2.59375 0.390625,-3.09375 M2.46875,-5.64063 C1.625,-5.63021 1.20313,-4.77083 1.20313,-3.0625 C1.20313,-1.32292 1.61979,-0.453125 2.45313,-0.453125 C3.16146,-0.453125 3.57813,-1.02604 3.70313,-2.17188 C3.73438,-2.44271 3.75,-2.75 3.75,-3.09375 C3.75,-4.79167 3.32292,-5.64063 2.46875,-5.64063"/>
<path class="Note" fill="#cc00ff" transform="matrix(0.9936,0,0,0.9936,98.2272,92.664)" d="M4.39063,-2.75 C5.01563,-2.75 5.54688,-2.58854 5.98438,-2.26563 C6.38021,-1.91146 6.57813,-1.46875 6.57813,-0.9375 C6.57813,-0.0416667 6.11979,0.796875 5.20313,1.57813 C4.26563,2.35938 3.26042,2.75 2.1875,2.75 C1.5625,2.75 1.03646,2.58854 0.609375,2.26563 C0.203125,1.91146 0,1.46875 0,0.9375 C0,0.0416667 0.46875,-0.796875 1.40625,-1.57813 C2.32292,-2.35938 3.31771,-2.75 4.39063,-2.75"/>
<path class="Note" fill="#ffffff" fill-rule="evenodd" d="M67.2007,148.554 L73.1623,148.554 L73.1623,156.006 L67.2007,156.006 L67.2007,148.554 "/>
<path class="Note" transform="matrix(0.9936,0,0,0.9936,67.6975,155.758)" d="M2.4375,-5.64063 C1.75,-5.64063 1.35417,-5.32813 1.25,-4.70313 C1.22917,-4.59896 1.21875,-4.47917 1.21875,-4.34375 L0.421875,-4.34375 C0.442708,-5.59375 1.01563,-6.27083 2.14063,-6.375 C2.23438,-6.38542 2.32813,-6.39063 2.42188,-6.39063 C3.26563,-6.39063 3.84375,-6.10938 4.15625,-5.54688 C4.29167,-5.28646 4.35938,-4.98438 4.35938,-4.64063 C4.35938,-4.00521 4.0625,-3.57292 3.46875,-3.34375 C4.03125,-3.14583 4.375,-2.81771 4.5,-2.35938 C4.54167,-2.19271 4.5625,-2.00521 4.5625,-1.79688 C4.5625,-1.05729 4.27604,-0.505208 3.70313,-0.140625 C3.33854,0.0885417 2.90104,0.203125 2.39063,0.203125 C1.21354,0.203125 0.526042,-0.348958 0.328125,-1.45313 C0.317708,-1.57813 0.302083,-1.71354 0.28125,-1.85938 L1.07813,-1.85938 C1.13021,-1.08854 1.46875,-0.65625 2.09375,-0.5625 C2.19792,-0.541667 2.30729,-0.53125 2.42188,-0.53125 C3.04688,-0.53125 3.45313,-0.765625 3.64063,-1.23438 C3.71354,-1.40104 3.75,-1.58854 3.75,-1.79688 C3.73958,-2.54688 3.29688,-2.92708 2.42188,-2.9375 L2.09375,-2.92188 L1.98438,-2.92188 L1.98438,-3.67188 C2.66146,-3.68229 3.10417,-3.77604 3.3125,-3.95313 C3.47917,-4.09896 3.5625,-4.31771 3.5625,-4.60938 C3.5625,-5.09896 3.34896,-5.41667 2.92188,-5.5625 C2.77604,-5.61458 2.61458,-5.64063 2.4375,-5.64063"/>
<path class="Note" fill="#99cc33" transform="matrix(0.9936,0,0,0.9936,66.4555,95.148)" d="M4.39063,-2.75 C5.01563,-2.75 5.54688,-2.58854 5.98438,-2.26563 C6.38021,-1.91146 6.57813,-1.46875 6.57813,-0.9375 C6.57813,-0.0416667 6.11979,0.796875 5.20313,1.57813 C4.26563,2.35938 3.26042,2.75 2.1875,2.75 C1.5625,2.75 1.03646,2.58854 0.609375,2.26563 C0.203125,1.91146 0,1.46875 0,0.9375 C0,0.0416667 0.46875,-0.796875 1.40625,-1.57813 C2.32292,-2.35938 3.31771,-2.75 4.39063,-2.75"/>
<path class="Clef" transform="matrix(0.9936,0,0,0.9936,32.0544,133.65)" d="M5.32813,8.5 C5.32813,8.86458 5.04167,9.04688 4.46875,9.04688 C4.02083,9.04688 3.625,8.91146 3.28125,8.64063 C2.95833,8.34896 2.79688,7.98438 2.79688,7.54688 C2.79688,6.76563 3.27083,6.14063 4.21875,5.67188 C5.14583,5.18229 6.23438,4.9375 7.48438,4.9375 C7.96354,4.9375 8.47917,4.97396 9.03125,5.04688 C9.42708,5.09896 9.875,5.20313 10.375,5.35938 C10.8125,5.49479 11.1563,5.70573 11.4063,5.99219 C11.6563,6.27865 11.7813,6.61458 11.7813,7 C11.7813,7.89583 11.3177,8.63021 10.3906,9.20313 C11.7448,9.45313 12.4271,10.0573 12.4375,11.0156 C12.4375,11.8281 12.0729,12.5599 11.3438,13.2109 C10.6146,13.862 9.79167,14.1875 8.875,14.1875 C8.47917,14.1875 8.07813,14.0938 7.67188,13.9063 C7.29688,13.7292 7.03125,13.5625 6.875,13.4063 C6.71875,13.2188 6.64063,13.0781 6.64063,12.9844 C6.64063,12.8594 6.70833,12.75 6.84375,12.6563 C6.95833,12.5417 7.07813,12.4844 7.20313,12.4844 C7.25521,12.4844 7.36719,12.5677 7.53906,12.7344 C7.71094,12.901 7.95833,12.9844 8.28125,12.9844 C8.72917,12.9844 9.16146,12.7969 9.57813,12.4219 C9.97396,12.0573 10.1719,11.6198 10.1719,11.1094 C10.1719,10.6719 9.98438,10.3542 9.60938,10.1563 C9.24479,9.95833 8.76563,9.85938 8.17188,9.85938 C8.06771,9.85938 8.01563,9.75 8.01563,9.53125 C8.01563,9.21875 8.13021,9.0625 8.35938,9.0625 C8.72396,9.0625 9.05208,8.90625 9.34375,8.59375 C9.61458,8.26042 9.75,7.90104 9.75,7.51563 C9.75,7.40104 9.71875,7.22917 9.65625,7 C9.60417,6.84375 9.44792,6.65104 9.1875,6.42188 C8.9375,6.21354 8.58854,6.07292 8.14063,6 C8.02604,6.63542 7.88021,7.44792 7.70313,8.4375 C7.52604,9.42708 7.40625,10.0781 7.34375,10.3906 C7.125,11.5156 6.72396,12.4583 6.14063,13.2188 C5.52604,14.0313 4.86458,14.4375 4.15625,14.4375 C3.9375,14.4375 3.71354,14.3854 3.48438,14.2813 C3.29688,14.1979 3.0625,14.0365 2.78125,13.7969 C2.52083,13.5885 2.34375,13.4479 2.25,13.375 C2.19792,13.3438 2.17188,13.2865 2.17188,13.2031 C2.17188,13.0781 2.21875,12.9635 2.3125,12.8594 C2.41667,12.7344 2.52604,12.6719 2.64063,12.6719 C2.71354,12.6719 2.89323,12.7969 3.17969,13.0469 C3.46615,13.2969 3.76563,13.4219 4.07813,13.4219 C4.68229,13.4219 5.13542,13.0365 5.4375,12.2656 C5.71875,11.526 5.85938,10.6094 5.85938,9.51563 L5.85938,9.35938 C5.85938,8.63021 5.97917,7.54167 6.21875,6.09375 C5.80208,6.22917 5.46875,6.42708 5.21875,6.6875 C4.95833,6.94792 4.82813,7.21875 4.82813,7.5 C4.82813,7.71875 4.91146,7.90625 5.07813,8.0625 C5.24479,8.21875 5.32813,8.36458 5.32813,8.5 M1.40625,2.39063 C1.46875,2.39063 1.625,2.45313 1.875,2.57813 C2.13542,2.71354 2.35938,2.78125 2.54688,2.78125 C3.03646,2.78125 3.64063,2.42188 4.35938,1.70313 C6.43229,-0.411458 7.85938,-2.65104 8.64063,-5.01563 C8.79688,-5.51563 9.17708,-5.76563 9.78125,-5.76563 C10.0938,-5.76563 10.3646,-5.69792 10.5938,-5.5625 C10.8125,-5.42708 10.9219,-5.28646 10.9219,-5.14063 L10.5625,2.17188 C10.5625,2.55729 10.7031,2.75 10.9844,2.75 C11.1198,2.75 11.3281,2.6875 11.6094,2.5625 C11.8698,2.42708 12.026,2.35938 12.0781,2.35938 C12.1823,2.35938 12.2448,2.47396 12.2656,2.70313 C12.2656,2.91146 12.1823,3.04167 12.0156,3.09375 C11.8802,3.125 11.6198,3.24479 11.2344,3.45313 C10.8281,3.66146 10.5104,3.76563 10.2813,3.76563 C9.78125,3.76563 9.42708,3.375 9.21875,2.59375 C8.89583,1.375 8.6875,0.104167 8.59375,-1.21875 C8.07292,-0.552083 7.49479,0.119792 6.85938,0.796875 C7.08854,1.24479 7.51563,1.46875 8.14063,1.46875 C8.23438,1.46875 8.30729,1.46354 8.35938,1.45313 L8.375,1.45313 C8.47917,1.45313 8.53125,1.54688 8.53125,1.73438 C8.53125,1.98438 8.44792,2.13542 8.28125,2.1875 C8.01042,2.28125 7.72396,2.32813 7.42188,2.32813 C6.77604,2.32813 6.30729,2.10417 6.01563,1.65625 L5.23438,2.35938 C4.14063,3.29688 3.25,3.76563 2.5625,3.76563 C2.375,3.76563 2.1875,3.73438 2,3.67188 C1.84375,3.60938 1.66146,3.51042 1.45313,3.375 C1.36979,3.34375 1.27865,3.29688 1.17969,3.23438 C1.08073,3.17188 1.02083,3.13542 1,3.125 C0.9375,3.10417 0.90625,3.04688 0.90625,2.95313 C0.90625,2.84896 0.958333,2.72396 1.0625,2.57813 C1.14583,2.45313 1.26042,2.39063 1.40625,2.39063 M5.76563,-10.7969 C5.76563,-10.474 5.48438,-10.3125 4.92188,-10.3125 C4.43229,-10.3125 4.00521,-10.474 3.64063,-10.7969 C3.28646,-11.1302 3.10938,-11.5313 3.10938,-12 C3.10938,-12.4479 3.25,-12.8385 3.53125,-13.1719 C3.83333,-13.5052 4.21875,-13.7552 4.6875,-13.9219 C5.11458,-14.0781 5.59896,-14.2031 6.14063,-14.2969 C6.69271,-14.3594 7.22396,-14.3906 7.73438,-14.3906 C8.03646,-14.3906 8.59896,-14.2552 9.42188,-13.9844 C10.2552,-13.7135 10.8333,-13.5781 11.1563,-13.5781 C11.5625,-13.5781 11.9479,-13.651 12.3125,-13.7969 C12.6042,-13.9219 12.8906,-14.0677 13.1719,-14.2344 C13.3906,-14.3802 13.5104,-14.4531 13.5313,-14.4531 C13.6563,-14.4531 13.7604,-14.4167 13.8438,-14.3438 C13.9479,-14.2396 14,-14.151 14,-14.0781 C14,-13.9948 13.8802,-13.849 13.6406,-13.6406 C13.3802,-13.401 13.0078,-13.1641 12.5234,-12.9297 C12.0391,-12.6953 11.5313,-12.5781 11,-12.5781 C10.7604,-12.5781 10.4688,-12.6198 10.125,-12.7031 C9.89583,-11.2552 9.66146,-9.96875 9.42188,-8.84375 C9.21354,-7.85417 8.79688,-6.98958 8.17188,-6.25 C7.56771,-5.51042 6.89583,-5.14063 6.15625,-5.14063 C5.85417,-5.14063 5.58854,-5.19792 5.35938,-5.3125 C5.09896,-5.44792 4.82292,-5.64583 4.53125,-5.90625 C4.30208,-6.09375 4.08333,-6.26563 3.875,-6.42188 C3.82292,-6.46354 3.79688,-6.52604 3.79688,-6.60938 C3.79688,-6.69271 3.84896,-6.80729 3.95313,-6.95313 C4.05729,-7.06771 4.15104,-7.125 4.23438,-7.125 C4.31771,-7.125 4.54167,-6.96354 4.90625,-6.64063 C5.27083,-6.31771 5.59375,-6.15625 5.875,-6.15625 C6.39583,-6.15625 6.80208,-6.45313 7.09375,-7.04688 C7.375,-7.64063 7.53646,-8.34375 7.57813,-9.15625 C7.64063,-10.5 7.79167,-11.8906 8.03125,-13.3281 C7.73958,-13.3906 7.52604,-13.4219 7.39063,-13.4219 C6.76563,-13.4219 6.22917,-13.2917 5.78125,-13.0313 C5.34375,-12.7813 5.125,-12.4427 5.125,-12.0156 C5.125,-11.7031 5.22917,-11.4635 5.4375,-11.2969 C5.65625,-11.1094 5.76563,-10.9427 5.76563,-10.7969"/>
<path class="Clef" transform="matrix(0.9936,0,0,0.9936,32.0544,77.76)" d="M7.34375,-5.125 C7.34375,-5.125 7.38542,-5.125 7.46875,-5.125 C7.52083,-5.13542 7.5625,-5.14063 7.59375,-5.14063 C9.05208,-5.14063 10.25,-4.625 11.1875,-3.59375 C12.125,-2.58333 12.5938,-1.40104 12.5938,-0.046875 C12.5938,1.64063 11.901,3.01042 10.5156,4.0625 C10.151,4.35417 9.67188,4.58854 9.07813,4.76563 C9.15104,5.60938 9.1875,6.29167 9.1875,6.8125 C9.1875,6.91667 9.17188,7.29688 9.14063,7.95313 C9.08854,9.16146 8.67188,10.2083 7.89063,11.0938 C7.14063,11.9688 6.20313,12.4063 5.07813,12.4063 C4.02604,12.4063 3.13021,12.0365 2.39063,11.2969 C1.64063,10.5365 1.26563,9.625 1.26563,8.5625 C1.26563,8 1.48438,7.52083 1.92188,7.125 C2.35938,6.73958 2.86979,6.54688 3.45313,6.54688 C3.97396,6.54688 4.41146,6.75 4.76563,7.15625 C5.13021,7.53125 5.3125,8 5.3125,8.5625 C5.3125,9.0625 5.13021,9.49479 4.76563,9.85938 C4.40104,10.224 3.96354,10.4063 3.45313,10.4063 C3.24479,10.4063 3.04688,10.3698 2.85938,10.2969 C3.43229,11.1406 4.19271,11.5625 5.14063,11.5625 C6.03646,11.5625 6.77083,11.1979 7.34375,10.4688 C7.94792,9.71875 8.27604,8.83854 8.32813,7.82813 C8.34896,7.20313 8.35938,6.84896 8.35938,6.76563 C8.35938,6.03646 8.33333,5.4375 8.28125,4.96875 C7.63542,5.07292 7.05729,5.125 6.54688,5.125 C4.73438,5.125 3.19271,4.40625 1.92188,2.96875 C0.671875,1.52083 0.046875,-0.197917 0.046875,-2.1875 C0.046875,-2.60417 0.0833333,-3.02604 0.15625,-3.45313 C0.239583,-3.80729 0.338542,-4.19271 0.453125,-4.60938 C0.515625,-4.84896 0.692708,-5.22917 0.984375,-5.75 C1.08854,-5.90625 1.20573,-6.10156 1.33594,-6.33594 C1.46615,-6.57031 1.55729,-6.72396 1.60938,-6.79688 C1.73438,-7.05729 1.98438,-7.41146 2.35938,-7.85938 C2.46354,-7.97396 2.57292,-8.10156 2.6875,-8.24219 C2.80208,-8.38281 2.89844,-8.5 2.97656,-8.59375 C3.05469,-8.6875 3.11198,-8.76042 3.14844,-8.8125 C3.1849,-8.86458 3.47917,-9.20833 4.03125,-9.84375 C4.15625,-9.97917 4.28125,-10.1198 4.40625,-10.2656 C4.53125,-10.4115 4.63281,-10.5286 4.71094,-10.6172 C4.78906,-10.7057 4.84896,-10.7656 4.89063,-10.7969 C4.42188,-12.349 4.125,-13.5885 4,-14.5156 C3.91667,-15.2552 3.875,-16.2708 3.875,-17.5625 C3.875,-18.6979 4.13542,-19.7604 4.65625,-20.75 C5.15625,-21.7708 5.86458,-22.6094 6.78125,-23.2656 C6.84375,-23.3073 6.90625,-23.3281 6.96875,-23.3281 C7.0625,-23.3281 7.13021,-23.3073 7.17188,-23.2656 C7.86979,-22.4219 8.47396,-21.3229 8.98438,-19.9688 C9.50521,-18.6146 9.76563,-17.3802 9.76563,-16.2656 C9.76563,-15.0156 9.46875,-13.8438 8.875,-12.75 C8.19792,-11.5938 7.32292,-10.3958 6.25,-9.15625 C6.52083,-8.30208 6.88542,-6.95833 7.34375,-5.125 M9,3.96875 C9.67708,3.71875 10.2083,3.29688 10.5938,2.70313 C11.0104,2.13021 11.2188,1.48438 11.2188,0.765625 C11.2188,-0.161458 10.9063,-0.984375 10.2813,-1.70313 C9.63542,-2.44271 8.81771,-2.85938 7.82813,-2.95313 C8.39063,-0.203125 8.78125,2.10417 9,3.96875 M1.45313,-0.546875 C1.45313,0.744792 1.97396,1.88021 3.01563,2.85938 C4.07813,3.80729 5.27604,4.28125 6.60938,4.28125 C7.15104,4.28125 7.68229,4.23958 8.20313,4.15625 C7.99479,2.17708 7.58333,-0.192708 6.96875,-2.95313 C6.22917,-2.86979 5.64063,-2.60938 5.20313,-2.17188 C4.76563,-1.71354 4.54688,-1.19792 4.54688,-0.625 C4.54688,0.364583 5.07813,1.16667 6.14063,1.78125 C6.22396,1.875 6.26563,1.97396 6.26563,2.07813 C6.26563,2.18229 6.22396,2.27604 6.14063,2.35938 C6.05729,2.45313 5.95833,2.5 5.84375,2.5 C5.83333,2.5 5.77604,2.48958 5.67188,2.46875 C4.92188,2.0625 4.34896,1.54167 3.95313,0.90625 C3.56771,0.21875 3.375,-0.46875 3.375,-1.15625 C3.375,-2.05208 3.65625,-2.86458 4.21875,-3.59375 C4.80208,-4.32292 5.5625,-4.79167 6.5,-5 C6.13542,-6.45833 5.83854,-7.59896 5.60938,-8.42188 C5.40104,-8.18229 5.15104,-7.89844 4.85938,-7.57031 C4.56771,-7.24219 4.39583,-7.04167 4.34375,-6.96875 C3.875,-6.36458 3.51563,-5.89063 3.26563,-5.54688 C2.81771,-4.93229 2.48958,-4.40625 2.28125,-3.96875 C2.0625,-3.46875 1.86979,-2.92708 1.70313,-2.34375 C1.53646,-1.78125 1.45313,-1.18229 1.45313,-0.546875 M7.96875,-20.4063 C6.98958,-19.9271 6.22396,-19.2396 5.67188,-18.3438 C5.09896,-17.4167 4.8125,-16.4219 4.8125,-15.3594 C4.8125,-14.4219 5.04688,-13.1563 5.51563,-11.5625 C6.45313,-12.6979 7.15625,-13.7448 7.625,-14.7031 C8.11458,-15.724 8.35938,-16.7865 8.35938,-17.8906 C8.35938,-18.724 8.22917,-19.5625 7.96875,-20.4063 M5.82813,15.2344 C6.16146,14.901 6.32813,14.5625 6.32813,14.2188 C6.30729,13.9479 6.19271,13.7396 5.98438,13.5938 C5.74479,13.4375 5.46875,13.3594 5.15625,13.3594 C4.9375,13.3594 4.75521,13.4323 4.60938,13.5781 C4.48438,13.7031 4.42188,13.8646 4.42188,14.0625 C4.42188,14.3021 4.51563,14.4792 4.70313,14.5938 L5.82813,15.2344 M6.14063,15.4063 C6.68229,15.7083 6.95313,16.1146 6.95313,16.625 L6.95313,16.6875 C6.95313,17.0833 6.79167,17.4219 6.46875,17.7031 C6.14583,17.9844 5.68229,18.125 5.07813,18.125 C4.58854,18.125 4.16146,17.9948 3.79688,17.7344 C3.43229,17.4844 3.25,17.1458 3.25,16.7188 C3.25,16.5521 3.29167,16.3958 3.375,16.25 C3.47917,16.0833 3.56771,15.9688 3.64063,15.9063 L4,15.5313 C3.60417,15.2604 3.40625,14.901 3.40625,14.4531 C3.40625,14.099 3.5625,13.7865 3.875,13.5156 C4.19792,13.2552 4.625,13.125 5.15625,13.125 C5.60417,13.125 5.98438,13.224 6.29688,13.4219 C6.60938,13.6198 6.76563,13.8854 6.76563,14.2188 C6.76563,14.5729 6.55729,14.9688 6.14063,15.4063 M4.29688,15.7031 C3.91146,16.0469 3.70313,16.3854 3.67188,16.7188 C3.70313,17.0729 3.84896,17.3542 4.10938,17.5625 C4.39063,17.7813 4.71354,17.8906 5.07813,17.8906 C5.33854,17.8906 5.54688,17.8073 5.70313,17.6406 C5.85938,17.4844 5.9375,17.2969 5.9375,17.0781 C5.92708,16.7865 5.8125,16.5781 5.59375,16.4531 L4.29688,15.7031 "/>
<path class="KeySig" transform="matrix(0.9936,0,0,0.9936,49.3492,62.856)" d="M4.3125,6.23438 C4.3125,6.48438 4.1901,6.60938 3.94531,6.60938 C3.70052,6.60938 3.57813,6.48438 3.57813,6.23438 L3.57813,3.34375 L1.92188,3.96875 L1.92188,7.125 C1.92188,7.375 1.79688,7.5 1.54688,7.5 C1.29688,7.5 1.17188,7.375 1.17188,7.125 L1.17188,4.21875 L0.546875,4.45313 C0.536458,4.46354 0.484375,4.46875 0.390625,4.46875 C0.286458,4.46875 0.195313,4.42969 0.117188,4.35156 C0.0390625,4.27344 0,4.18229 0,4.07813 L0,2.875 C0,2.67708 0.0833333,2.55208 0.25,2.5 L1.17188,2.1875 L1.17188,-1.01563 L0.546875,-0.796875 C0.536458,-0.786458 0.484375,-0.78125 0.390625,-0.78125 C0.286458,-0.78125 0.195313,-0.820313 0.117188,-0.898438 C0.0390625,-0.976563 0,-1.06771 0,-1.17188 L0,-2.39063 C0,-2.56771 0.0833333,-2.68229 0.25,-2.73438 L1.17188,-3.09375 L1.17188,-6.23438 C1.17188,-6.48438 1.29688,-6.60938 1.54688,-6.60938 C1.79688,-6.60938 1.92188,-6.48438 1.92188,-6.23438 L1.92188,-3.34375 L3.57813,-3.96875 L3.57813,-7.125 C3.57813,-7.375 3.70052,-7.5 3.94531,-7.5 C4.1901,-7.5 4.3125,-7.375 4.3125,-7.125 L4.3125,-4.21875 L4.96875,-4.45313 C4.97917,-4.46354 5.02083,-4.46875 5.09375,-4.46875 C5.1875,-4.46875 5.28646,-4.43229 5.39063,-4.35938 C5.47396,-4.27604 5.51563,-4.18229 5.51563,-4.07813 L5.51563,-2.875 C5.51563,-2.6875 5.42188,-2.5625 5.23438,-2.5 L4.3125,-2.1875 L4.3125,1.01563 L4.96875,0.796875 C4.97917,0.786458 5.02083,0.78125 5.09375,0.78125 C5.1875,0.78125 5.28646,0.822917 5.39063,0.90625 C5.47396,0.979167 5.51563,1.06771 5.51563,1.17188 L5.51563,2.39063 C5.51563,2.55729 5.42188,2.67188 5.23438,2.73438 L4.3125,3.09375 L4.3125,6.23438 M3.57813,-1.89063 L1.92188,-1.3125 L1.92188,1.89063 L3.57813,1.3125 L3.57813,-1.89063 "/>
<path class="Fingering" d="M505.237,97.023 C505.362,97.023 505.544,97.0907 505.783,97.2261 C506.033,97.3824 506.247,97.4605 506.424,97.4605 C506.789,97.4605 507.075,97.299 507.283,96.9761 C507.408,96.7678 507.471,96.5334 507.471,96.273 C507.471,95.5126 507.018,95.0959 506.112,95.023 C506.018,95.0126 505.919,95.0074 505.815,95.0074 L505.815,94.898 C506.419,94.7001 506.815,94.4449 507.002,94.1324 C507.096,93.9657 507.143,93.7834 507.143,93.5855 C507.143,93.2313 506.997,92.9761 506.705,92.8199 C506.57,92.7574 506.424,92.7261 506.268,92.7261 C505.82,92.7261 505.45,92.9605 505.158,93.4292 C505.127,93.4709 505.101,93.5178 505.08,93.5699 L504.955,93.5386 C505.205,92.8615 505.57,92.4501 506.049,92.3042 C506.195,92.2626 506.356,92.2417 506.533,92.2417 C507.013,92.2417 507.367,92.4084 507.596,92.7417 C507.721,92.9188 507.783,93.1167 507.783,93.3355 C507.783,93.6584 507.632,93.9501 507.33,94.2105 C507.237,94.2834 507.138,94.3615 507.033,94.4449 C507.513,94.6532 507.82,94.9397 507.955,95.3042 C508.018,95.4813 508.049,95.6792 508.049,95.898 C508.049,96.5334 507.783,97.0282 507.252,97.3824 C506.856,97.6324 506.388,97.7574 505.846,97.7574 C505.356,97.7574 505.065,97.648 504.971,97.4292 C504.95,97.3876 504.94,97.3459 504.94,97.3042 C504.94,97.148 505.018,97.0595 505.174,97.0386 C505.195,97.0282 505.216,97.023 505.237,97.023"/>
<path class="Fingering" d="M475.004,95.2734 C474.41,95.2734 473.946,94.9661 473.613,94.3515 C473.332,93.8515 473.191,93.2265 473.191,92.4765 C473.191,91.5807 473.399,90.8775 473.816,90.3671 C474.149,89.9713 474.556,89.7682 475.035,89.7577 C475.597,89.7577 476.04,90.0442 476.363,90.6171 C476.665,91.1275 476.816,91.763 476.816,92.5234 C476.816,93.4921 476.592,94.2317 476.144,94.7421 C475.821,95.0963 475.441,95.2734 475.004,95.2734 M475.004,89.9609 C474.358,89.9609 474.009,90.7317 473.957,92.2734 C473.957,92.3671 473.957,92.4609 473.957,92.5546 C473.967,94.2213 474.316,95.0598 475.004,95.0702 C475.691,95.0598 476.035,94.2161 476.035,92.539 C476.035,91.0182 475.764,90.1692 475.222,89.9921 C475.149,89.9713 475.076,89.9609 475.004,89.9609"/>
<path class="Fingering" d="M441.482,88.8675 C441.721,87.8467 442.247,87.3206 443.06,87.2894 C443.091,87.2894 443.117,87.2894 443.138,87.2894 C443.628,87.2894 444.018,87.4665 444.31,87.8206 C444.518,88.081 444.622,88.3727 444.622,88.6956 C444.622,89.2894 444.305,89.93 443.669,90.6175 C443.648,90.6383 443.622,90.6592 443.591,90.68 L442.263,92.1019 L444.169,92.1019 C444.378,92.1019 444.539,92.0446 444.654,91.93 C444.727,91.8571 444.815,91.7373 444.919,91.5706 L445.029,91.6019 L444.591,92.68 L441.466,92.68 L441.466,92.5862 L442.888,91.0706 C443.565,90.331 443.914,89.6383 443.935,88.9925 C443.935,88.5446 443.763,88.2217 443.419,88.0237 C443.242,87.9196 443.039,87.8675 442.81,87.8675 C442.456,87.8675 442.18,88.0029 441.982,88.2737 C441.867,88.43 441.758,88.6435 441.654,88.9144 L441.482,88.8675 "/>
<path class="Fingering" d="M410.101,89.571 C410.226,89.571 410.408,89.6387 410.648,89.7741 C410.898,89.9304 411.111,90.0085 411.288,90.0085 C411.653,90.0085 411.939,89.847 412.148,89.5241 C412.273,89.3158 412.335,89.0814 412.335,88.821 C412.335,88.0606 411.882,87.6439 410.976,87.571 C410.882,87.5606 410.783,87.5554 410.679,87.5554 L410.679,87.446 C411.283,87.2481 411.679,86.9929 411.866,86.6804 C411.96,86.5137 412.007,86.3314 412.007,86.1335 C412.007,85.7793 411.861,85.5241 411.569,85.3679 C411.434,85.3054 411.288,85.2741 411.132,85.2741 C410.684,85.2741 410.314,85.5085 410.023,85.9772 C409.991,86.0189 409.965,86.0658 409.944,86.1179 L409.819,86.0866 C410.069,85.4095 410.434,84.9981 410.913,84.8522 C411.059,84.8106 411.221,84.7897 411.398,84.7897 C411.877,84.7897 412.231,84.9564 412.46,85.2897 C412.585,85.4668 412.648,85.6647 412.648,85.8835 C412.648,86.2064 412.497,86.4981 412.194,86.7585 C412.101,86.8314 412.002,86.9095 411.898,86.9929 C412.377,87.2012 412.684,87.4877 412.819,87.8522 C412.882,88.0293 412.913,88.2272 412.913,88.446 C412.913,89.0814 412.648,89.5762 412.116,89.9304 C411.721,90.1804 411.252,90.3054 410.71,90.3054 C410.221,90.3054 409.929,90.196 409.835,89.9772 C409.814,89.9356 409.804,89.8939 409.804,89.8522 C409.804,89.696 409.882,89.6075 410.038,89.5866 C410.059,89.5762 410.08,89.571 410.101,89.571"/>
<path class="Fingering" d="M379.688,87.8214 C379.095,87.8214 378.631,87.5141 378.298,86.8995 C378.017,86.3995 377.876,85.7745 377.876,85.0245 C377.876,84.1287 378.084,83.4255 378.501,82.9151 C378.834,82.5193 379.241,82.3162 379.72,82.3057 C380.282,82.3057 380.725,82.5922 381.048,83.1651 C381.35,83.6755 381.501,84.311 381.501,85.0714 C381.501,86.0401 381.277,86.7797 380.829,87.2901 C380.506,87.6443 380.126,87.8214 379.688,87.8214 M379.688,82.5089 C379.043,82.5089 378.694,83.2797 378.642,84.8214 C378.642,84.9151 378.642,85.0089 378.642,85.1026 C378.652,86.7693 379.001,87.6078 379.688,87.6182 C380.376,87.6078 380.72,86.7641 380.72,85.087 C380.72,83.5662 380.449,82.7172 379.907,82.5401 C379.834,82.5193 379.761,82.5089 379.688,82.5089"/>
<path class="Fingering" d="M346.167,81.4155 C346.406,80.3947 346.932,79.8686 347.745,79.8374 C347.776,79.8374 347.802,79.8374 347.823,79.8374 C348.313,79.8374 348.703,80.0145 348.995,80.3686 C349.203,80.629 349.307,80.9207 349.307,81.2436 C349.307,81.8374 348.99,82.478 348.354,83.1655 C348.333,83.1863 348.307,83.2072 348.276,83.228 L346.948,84.6499 L348.854,84.6499 C349.063,84.6499 349.224,84.5926 349.339,84.478 C349.412,84.4051 349.5,84.2853 349.604,84.1186 L349.714,84.1499 L349.276,85.228 L346.151,85.228 L346.151,85.1342 L347.573,83.6186 C348.25,82.879 348.599,82.1863 348.62,81.5405 C348.62,81.0926 348.448,80.7697 348.104,80.5717 C347.927,80.4676 347.724,80.4155 347.495,80.4155 C347.141,80.4155 346.865,80.5509 346.667,80.8217 C346.552,80.978 346.443,81.1915 346.339,81.4624 L346.167,81.4155 "/>
<path class="Fingering" d="M317.926,80.9315 L317.926,81.4159 L317.098,81.4159 L317.098,82.744 L316.489,82.744 L316.489,81.4159 L314.239,81.4159 L314.239,80.9315 L316.754,77.3377 L317.098,77.3377 L317.098,80.9315 L317.926,80.9315 M316.473,80.9315 L316.473,78.1815 L314.567,80.9315 L316.473,80.9315 "/>
<path class="Fingering" d="M284.373,80.3694 C283.78,80.3694 283.316,80.0621 282.983,79.4475 C282.701,78.9475 282.561,78.3225 282.561,77.5725 C282.561,76.6767 282.769,75.9735 283.186,75.4631 C283.519,75.0673 283.925,74.8642 284.405,74.8537 C284.967,74.8537 285.41,75.1402 285.733,75.7131 C286.035,76.2235 286.186,76.859 286.186,77.6194 C286.186,78.5881 285.962,79.3277 285.514,79.8381 C285.191,80.1923 284.811,80.3694 284.373,80.3694 M284.373,75.0569 C283.728,75.0569 283.379,75.8277 283.326,77.3694 C283.326,77.4631 283.326,77.5569 283.326,77.6506 C283.337,79.3173 283.686,80.1558 284.373,80.1662 C285.061,80.1558 285.405,79.3121 285.405,77.635 C285.405,76.1142 285.134,75.2652 284.592,75.0881 C284.519,75.0673 284.446,75.0569 284.373,75.0569"/>
<path class="Fingering" d="M254.383,80.9315 L254.383,81.4159 L253.555,81.4159 L253.555,82.744 L252.945,82.744 L252.945,81.4159 L250.695,81.4159 L250.695,80.9315 L253.211,77.3377 L253.555,77.3377 L253.555,80.9315 L254.383,80.9315 M252.93,80.9315 L252.93,78.1815 L251.024,80.9315 L252.93,80.9315 "/>
<path class="Fingering" d="M219.08,81.4155 C219.32,80.3947 219.846,79.8686 220.658,79.8374 C220.689,79.8374 220.715,79.8374 220.736,79.8374 C221.226,79.8374 221.616,80.0145 221.908,80.3686 C222.116,80.629 222.221,80.9207 222.221,81.2436 C222.221,81.8374 221.903,82.478 221.267,83.1655 C221.247,83.1863 221.221,83.2072 221.189,83.228 L219.861,84.6499 L221.767,84.6499 C221.976,84.6499 222.137,84.5926 222.252,84.478 C222.325,84.4051 222.413,84.2853 222.517,84.1186 L222.627,84.1499 L222.189,85.228 L219.064,85.228 L219.064,85.1342 L220.486,83.6186 C221.163,82.879 221.512,82.1863 221.533,81.5405 C221.533,81.0926 221.361,80.7697 221.017,80.5717 C220.84,80.4676 220.637,80.4155 220.408,80.4155 C220.054,80.4155 219.778,80.5509 219.58,80.8217 C219.465,80.978 219.356,81.1915 219.252,81.4624 L219.08,81.4155 "/>
<path class="Fingering" d="M189.058,87.8214 C188.465,87.8214 188.001,87.5141 187.668,86.8995 C187.386,86.3995 187.246,85.7745 187.246,85.0245 C187.246,84.1287 187.454,83.4255 187.871,82.9151 C188.204,82.5193 188.61,82.3162 189.09,82.3057 C189.652,82.3057 190.095,82.5922 190.418,83.1651 C190.72,83.6755 190.871,84.311 190.871,85.0714 C190.871,86.0401 190.647,86.7797 190.199,87.2901 C189.876,87.6443 189.496,87.8214 189.058,87.8214 M189.058,82.5089 C188.412,82.5089 188.063,83.2797 188.011,84.8214 C188.011,84.9151 188.011,85.0089 188.011,85.1026 C188.022,86.7693 188.371,87.6078 189.058,87.6182 C189.746,87.6078 190.09,86.7641 190.09,85.087 C190.09,83.5662 189.819,82.7172 189.277,82.5401 C189.204,82.5193 189.131,82.5089 189.058,82.5089"/>
<path class="Fingering" d="M155.927,89.571 C156.052,89.571 156.234,89.6387 156.474,89.7741 C156.724,89.9304 156.938,90.0085 157.115,90.0085 C157.479,90.0085 157.766,89.847 157.974,89.5241 C158.099,89.3158 158.162,89.0814 158.162,88.821 C158.162,88.0606 157.708,87.6439 156.802,87.571 C156.708,87.5606 156.609,87.5554 156.505,87.5554 L156.505,87.446 C157.109,87.2481 157.505,86.9929 157.693,86.6804 C157.787,86.5137 157.833,86.3314 157.833,86.1335 C157.833,85.7793 157.688,85.5241 157.396,85.3679 C157.261,85.3054 157.115,85.2741 156.958,85.2741 C156.511,85.2741 156.141,85.5085 155.849,85.9772 C155.818,86.0189 155.792,86.0658 155.771,86.1179 L155.646,86.0866 C155.896,85.4095 156.261,84.9981 156.74,84.8522 C156.886,84.8106 157.047,84.7897 157.224,84.7897 C157.703,84.7897 158.057,84.9564 158.287,85.2897 C158.412,85.4668 158.474,85.6647 158.474,85.8835 C158.474,86.2064 158.323,86.4981 158.021,86.7585 C157.927,86.8314 157.828,86.9095 157.724,86.9929 C158.203,87.2012 158.511,87.4877 158.646,87.8522 C158.708,88.0293 158.74,88.2272 158.74,88.446 C158.74,89.0814 158.474,89.5762 157.943,89.9304 C157.547,90.1804 157.078,90.3054 156.537,90.3054 C156.047,90.3054 155.755,90.196 155.662,89.9772 C155.641,89.9356 155.63,89.8939 155.63,89.8522 C155.63,89.696 155.708,89.6075 155.865,89.5866 C155.886,89.5762 155.906,89.571 155.927,89.571"/>
<path class="Fingering" d="M123.765,88.8675 C124.004,87.8467 124.53,87.3206 125.343,87.2894 C125.374,87.2894 125.4,87.2894 125.421,87.2894 C125.911,87.2894 126.301,87.4665 126.593,87.8206 C126.801,88.081 126.905,88.3727 126.905,88.6956 C126.905,89.2894 126.588,89.93 125.952,90.6175 C125.932,90.6383 125.905,90.6592 125.874,90.68 L124.546,92.1019 L126.452,92.1019 C126.661,92.1019 126.822,92.0446 126.937,91.93 C127.01,91.8571 127.098,91.7373 127.202,91.5706 L127.312,91.6019 L126.874,92.68 L123.749,92.68 L123.749,92.5862 L125.171,91.0706 C125.848,90.331 126.197,89.6383 126.218,88.9925 C126.218,88.5446 126.046,88.2217 125.702,88.0237 C125.525,87.9196 125.322,87.8675 125.093,87.8675 C124.739,87.8675 124.463,88.0029 124.265,88.2737 C124.15,88.43 124.041,88.6435 123.937,88.9144 L123.765,88.8675 "/>
<path class="Fingering" d="M93.7432,95.2734 C93.1494,95.2734 92.6859,94.9661 92.3525,94.3515 C92.0713,93.8515 91.9307,93.2265 91.9307,92.4765 C91.9307,91.5807 92.139,90.8775 92.5557,90.3671 C92.889,89.9713 93.2953,89.7682 93.7744,89.7577 C94.3369,89.7577 94.7796,90.0442 95.1025,90.6171 C95.4046,91.1275 95.5557,91.763 95.5557,92.5234 C95.5557,93.4921 95.3317,94.2317 94.8838,94.7421 C94.5609,95.0963 94.1807,95.2734 93.7432,95.2734 M93.7432,89.9609 C93.0973,89.9609 92.7484,90.7317 92.6963,92.2734 C92.6963,92.3671 92.6963,92.4609 92.6963,92.5546 C92.7067,94.2213 93.0557,95.0598 93.7432,95.0702 C94.4307,95.0598 94.7744,94.2161 94.7744,92.539 C94.7744,91.0182 94.5036,90.1692 93.9619,89.9921 C93.889,89.9713 93.8161,89.9609 93.7432,89.9609"/>
<path class="Fingering" d="M60.6121,97.023 C60.7371,97.023 60.9194,97.0907 61.159,97.2261 C61.409,97.3824 61.6225,97.4605 61.7996,97.4605 C62.1642,97.4605 62.4506,97.299 62.659,96.9761 C62.784,96.7678 62.8465,96.5334 62.8465,96.273 C62.8465,95.5126 62.3933,95.0959 61.4871,95.023 C61.3933,95.0126 61.2944,95.0074 61.1902,95.0074 L61.1902,94.898 C61.7944,94.7001 62.1902,94.4449 62.3777,94.1324 C62.4715,93.9657 62.5183,93.7834 62.5183,93.5855 C62.5183,93.2313 62.3725,92.9761 62.0808,92.8199 C61.9454,92.7574 61.7996,92.7261 61.6433,92.7261 C61.1954,92.7261 60.8256,92.9605 60.534,93.4292 C60.5027,93.4709 60.4767,93.5178 60.4558,93.5699 L60.3308,93.5386 C60.5808,92.8615 60.9454,92.4501 61.4246,92.3042 C61.5704,92.2626 61.7319,92.2417 61.909,92.2417 C62.3881,92.2417 62.7423,92.4084 62.9715,92.7417 C63.0965,92.9188 63.159,93.1167 63.159,93.3355 C63.159,93.6584 63.0079,93.9501 62.7058,94.2105 C62.6121,94.2834 62.5131,94.3615 62.409,94.4449 C62.8881,94.6532 63.1954,94.9397 63.3308,95.3042 C63.3933,95.4813 63.4246,95.6792 63.4246,95.898 C63.4246,96.5334 63.159,97.0282 62.6277,97.3824 C62.2319,97.6324 61.7631,97.7574 61.2215,97.7574 C60.7319,97.7574 60.4402,97.648 60.3465,97.4292 C60.3256,97.3876 60.3152,97.3459 60.3152,97.3042 C60.3152,97.148 60.3933,97.0595 60.5496,97.0386 C60.5704,97.0282 60.5913,97.023 60.6121,97.023"/>
<path class="Tempo" d="M60.2121,40.4371 C60.0089,40.2809 59.7589,40.1871 59.4464,40.1871 C58.2589,40.1871 57.3058,41.0621 57.3058,41.9996 C57.3058,42.5621 57.7589,42.9059 58.3527,42.9059 C59.3058,42.9059 60.4933,41.9996 60.4933,41.0934 L60.4933,34.9527 L60.2121,34.9527 L60.2121,40.4371 "/>
<path class="Tempo" d="M70.8527,39.0152 L64.2433,39.0152 L64.2433,37.859 L70.8527,37.859 L70.8527,39.0152 M70.8527,41.9371 L64.2433,41.9371 L64.2433,40.7965 L70.8527,40.7965 L70.8527,41.9371 M76.2902,36.0465 C76.1652,36.0465 75.8475,36.1402 75.3371,36.3277 C75.3058,36.3382 75.285,36.3486 75.2746,36.359 L75.2746,36.0465 L78.2902,34.734 L78.4933,34.734 L78.4933,41.5621 C78.4933,42.0517 78.5923,42.3642 78.7902,42.4996 C78.9673,42.6246 79.3006,42.6923 79.7902,42.7027 L79.7902,42.984 L75.2902,42.984 L75.2902,42.7027 C75.9464,42.6923 76.3579,42.5882 76.5246,42.3902 C76.66,42.2236 76.7277,41.9267 76.7277,41.4996 L76.7277,36.8746 C76.7173,36.333 76.5714,36.0569 76.2902,36.0465 M80.8683,37.1715 C81.4204,35.6819 82.1964,34.8746 83.1964,34.7496 C83.3006,34.7392 83.4048,34.734 83.5089,34.734 C84.3006,34.734 84.9048,35.0205 85.3214,35.5934 C85.5923,35.9788 85.7277,36.4215 85.7277,36.9215 C85.7277,37.7861 85.3006,38.6298 84.4464,39.4527 C84.4048,39.484 84.3735,39.5152 84.3527,39.5465 L82.4152,41.3902 L84.2277,41.3902 C84.8631,41.3902 85.2694,41.333 85.4464,41.2184 C85.6131,41.1038 85.7746,40.8486 85.9308,40.4527 L86.2277,40.4527 L85.6808,42.984 L80.6964,42.984 L80.6964,42.7027 C82.3631,40.9215 83.3891,39.6455 83.7746,38.8746 C83.9829,38.4475 84.0871,38.0309 84.0871,37.6246 C84.0871,37.0934 83.8944,36.6767 83.5089,36.3746 C83.2694,36.1871 82.9881,36.0934 82.6652,36.0934 C82.0714,36.0934 81.6027,36.4215 81.2589,37.0777 C81.2381,37.109 81.2173,37.1402 81.1964,37.1715 L80.8683,37.1715 M86.7746,38.9059 C86.7746,37.5934 87.0871,36.5309 87.7121,35.7184 C88.2225,35.0725 88.8162,34.7444 89.4933,34.734 C90.2746,34.734 90.9204,35.1402 91.4308,35.9527 C91.9412,36.7652 92.1964,37.76 92.1964,38.9371 C92.1964,40.3121 91.8787,41.4059 91.2433,42.2184 C90.7433,42.8225 90.1652,43.1298 89.5089,43.1402 C88.6756,43.1402 88.0037,42.7132 87.4933,41.859 C87.0141,41.0673 86.7746,40.083 86.7746,38.9059 M89.5089,42.7965 C89.8631,42.7965 90.0975,42.4736 90.2121,41.8277 C90.2746,41.4423 90.3058,40.9423 90.3058,40.3277 L90.3058,37.5777 C90.3058,36.1402 90.1131,35.3225 89.7277,35.1246 C89.6548,35.083 89.5714,35.0621 89.4777,35.0621 C89.1131,35.0621 88.8735,35.3955 88.7589,36.0621 C88.7069,36.4371 88.6808,36.9423 88.6808,37.5777 L88.6808,40.3277 C88.6808,41.6819 88.8475,42.4736 89.1808,42.7027 C89.2746,42.7652 89.3839,42.7965 89.5089,42.7965"/>
<path class="StaffText" d="M69.7868,25.2057 C70.2347,25.2057 70.7347,25.3203 71.2868,25.5495 C71.5264,25.6432 71.6983,25.6901 71.8024,25.6901 C71.9483,25.6901 72.0785,25.5807 72.193,25.362 C72.2035,25.3203 72.2191,25.2787 72.2399,25.237 L72.5055,25.237 L72.5055,27.5807 L72.2555,27.5807 C71.9847,26.9766 71.7035,26.5339 71.4118,26.2526 C71.3493,26.1901 71.292,26.138 71.2399,26.0964 C70.8128,25.7214 70.3701,25.5339 69.9118,25.5339 C68.9118,25.5339 68.318,26.2526 68.1305,27.6901 C68.0993,28.013 68.0837,28.362 68.0837,28.737 C68.0837,29.9245 68.2972,30.7943 68.7243,31.3464 C69.0576,31.763 69.516,31.9714 70.0993,31.9714 C70.6618,31.9714 70.9795,31.7943 71.0524,31.4401 C71.0628,31.3776 71.068,31.3099 71.068,31.237 L71.068,30.1901 C71.068,29.8985 70.9951,29.711 70.8493,29.6276 C70.7035,29.5547 70.4378,29.5078 70.0524,29.487 L70.0524,29.237 L73.4899,29.237 L73.4899,29.487 C73.0837,29.5287 72.8337,29.6172 72.7399,29.7526 C72.667,29.8672 72.6305,30.086 72.6305,30.4089 L72.6305,31.6745 C72.0368,32.0287 71.2503,32.237 70.2712,32.2995 C70.1358,32.2995 70.0003,32.2995 69.8649,32.2995 C68.7503,32.2995 67.8597,31.9401 67.193,31.2214 C66.5993,30.5755 66.3024,29.7682 66.3024,28.7995 C66.3024,27.7578 66.6462,26.8932 67.3337,26.2057 C68.0003,25.5391 68.818,25.2057 69.7868,25.2057 M77.5524,28.8307 C77.3337,28.8307 77.1201,28.711 76.9118,28.4714 C76.7972,28.3255 76.7139,28.2474 76.6618,28.237 C76.443,28.237 76.2764,28.388 76.1618,28.6901 C76.0889,28.8464 76.0524,29.013 76.0524,29.1901 L76.0524,31.0807 C76.0524,31.4453 76.1253,31.6693 76.2712,31.7526 C76.3649,31.8151 76.5368,31.8568 76.7868,31.8776 L76.7868,32.112 L74.1462,32.112 L74.1462,31.8776 C74.417,31.8255 74.5785,31.7318 74.6305,31.5964 C74.6514,31.5235 74.6618,31.4141 74.6618,31.2682 L74.6618,28.3307 C74.6618,28.0703 74.5889,27.9037 74.443,27.8307 C74.3701,27.7891 74.2712,27.7578 74.1462,27.737 L74.1462,27.5026 L76.0212,27.5026 L76.0212,28.3307 C76.3962,27.7787 76.766,27.4714 77.1305,27.4089 C77.2139,27.388 77.292,27.3776 77.3649,27.3776 C77.7087,27.3776 77.9535,27.5182 78.0993,27.7995 C78.1514,27.9141 78.1774,28.0339 78.1774,28.1589 C78.1774,28.4714 78.0524,28.6797 77.8024,28.7839 C77.7191,28.8151 77.6358,28.8307 77.5524,28.8307 M79.4274,28.0807 C79.4274,28.112 79.4795,28.2057 79.5837,28.362 C79.6774,28.5078 79.7243,28.6328 79.7243,28.737 C79.7243,28.9974 79.5941,29.1745 79.3337,29.2682 C79.2399,29.2995 79.1462,29.3151 79.0524,29.3151 C78.6878,29.3151 78.4743,29.1537 78.4118,28.8307 C78.4014,28.7682 78.3962,28.711 78.3962,28.6589 C78.3962,28.1901 78.6514,27.8412 79.1618,27.612 C79.4847,27.4557 79.8597,27.3776 80.2868,27.3776 C81.1618,27.3776 81.7608,27.6172 82.0837,28.0964 C82.2087,28.2943 82.2712,28.5182 82.2712,28.7682 L82.2712,31.3464 C82.2816,31.5026 82.3493,31.586 82.4743,31.5964 C82.5264,31.586 82.5628,31.5703 82.5837,31.5495 L82.693,31.4557 L82.8337,31.6589 C82.4378,32.0339 82.068,32.2318 81.7243,32.2526 C81.3493,32.2526 81.1045,32.112 80.9899,31.8307 C80.9587,31.737 80.9274,31.638 80.8962,31.5339 C80.3545,32.0026 79.8285,32.2422 79.318,32.2526 C78.8805,32.2526 78.5628,32.086 78.3649,31.7526 C78.2608,31.586 78.2087,31.4037 78.2087,31.2057 C78.2087,30.6224 78.6566,30.1485 79.5524,29.7839 C79.792,29.6797 80.2399,29.5287 80.8962,29.3307 L80.8962,28.5964 C80.8962,28.0651 80.6774,27.7735 80.2399,27.7214 C80.1774,27.7214 80.1149,27.7214 80.0524,27.7214 C79.7608,27.7214 79.5628,27.8047 79.4587,27.9714 C79.4378,28.0026 79.4274,28.0391 79.4274,28.0807 M80.8805,31.0964 L80.8805,29.6589 C80.0785,29.8776 79.6722,30.2787 79.6618,30.862 C79.6618,31.1953 79.7712,31.4037 79.9899,31.487 C80.0524,31.5078 80.1149,31.5182 80.1774,31.5182 C80.4066,31.5182 80.641,31.3776 80.8805,31.0964 M86.3493,32.237 L86.3493,31.5964 C85.9951,31.9714 85.6514,32.1849 85.318,32.237 C85.2243,32.2474 85.1253,32.2526 85.0212,32.2526 C84.4274,32.2526 83.9587,31.9766 83.6149,31.4245 C83.3441,30.9974 83.2087,30.4922 83.2087,29.9089 C83.2087,29.0547 83.4535,28.3828 83.943,27.8932 C84.2764,27.5495 84.6722,27.3776 85.1305,27.3776 C85.4847,27.3776 85.8076,27.513 86.0993,27.7839 C86.1826,27.8568 86.2555,27.9245 86.318,27.987 L86.318,26.1745 C86.318,25.9245 86.2608,25.7682 86.1462,25.7057 C86.042,25.6537 85.8441,25.6172 85.5524,25.5964 L85.5524,25.362 L87.7087,25.362 L87.7087,31.112 C87.7087,31.3932 87.792,31.5651 87.9587,31.6276 C88.042,31.6589 88.1566,31.6797 88.3024,31.6901 L88.3024,31.9245 L87.6774,32.0026 C87.1253,32.0755 86.6826,32.1537 86.3493,32.237 M85.4743,31.7057 C85.766,31.7057 86.016,31.5391 86.2243,31.2057 C86.2764,31.112 86.3076,31.0443 86.318,31.0026 L86.318,28.5495 C86.193,28.2162 85.9847,28.0182 85.693,27.9557 C85.641,27.9453 85.5889,27.9401 85.5368,27.9401 C85.0264,27.9401 84.7451,28.4453 84.693,29.4557 C84.693,29.5703 84.693,29.6953 84.693,29.8307 C84.693,31.0703 84.9535,31.6953 85.4743,31.7057 M90.6462,29.6589 C90.6983,30.6797 90.9639,31.2787 91.443,31.4557 C91.568,31.4974 91.6983,31.5182 91.8337,31.5182 C92.1983,31.5182 92.5316,31.3516 92.8337,31.0182 C92.8858,30.9662 92.9326,30.9141 92.9743,30.862 L93.2087,31.0026 C92.792,31.6068 92.3805,31.987 91.9743,32.1432 C91.766,32.2162 91.5316,32.2526 91.2712,32.2526 C90.5212,32.2526 89.9587,31.9453 89.5837,31.3307 C89.3337,30.9141 89.2087,30.4141 89.2087,29.8307 C89.2087,28.9349 89.4795,28.263 90.0212,27.8151 C90.3858,27.5235 90.8128,27.3776 91.3024,27.3776 C92.4066,27.3776 93.0264,28.0964 93.1618,29.5339 C93.1618,29.5755 93.1618,29.6172 93.1618,29.6589 L90.6462,29.6589 M91.943,29.1432 C91.9222,28.5182 91.8545,28.1224 91.7399,27.9557 C91.6462,27.7995 91.5003,27.7214 91.3024,27.7214 C91.0108,27.7214 90.8128,27.8932 90.7087,28.237 C90.6462,28.4766 90.6097,28.8307 90.5993,29.2995 L91.943,29.2995 L91.943,29.1432 M96.2712,27.2682 C96.7295,26.0287 97.3805,25.3568 98.2243,25.2526 C98.2972,25.2422 98.3805,25.237 98.4743,25.237 C99.1305,25.237 99.6305,25.4766 99.9743,25.9557 C100.203,26.2787 100.318,26.6485 100.318,27.0651 C100.318,27.7735 99.9587,28.4766 99.2399,29.1745 C99.2191,29.2057 99.1983,29.2266 99.1774,29.237 L97.5524,30.7839 L99.068,30.7839 C99.5993,30.7839 99.9378,30.737 100.084,30.6432 C100.23,30.5495 100.365,30.336 100.49,30.0026 L100.74,30.0026 L100.287,32.112 L96.1305,32.112 L96.1305,31.8776 C97.5264,30.3985 98.3805,29.336 98.693,28.6901 C98.8701,28.336 98.9587,27.987 98.9587,27.6432 C98.9587,27.2057 98.7972,26.862 98.4743,26.612 C98.266,26.4557 98.0316,26.3776 97.7712,26.3776 C97.2712,26.3776 96.8805,26.6485 96.5993,27.1901 C96.5785,27.2214 96.5628,27.2474 96.5524,27.2682 L96.2712,27.2682 M102.615,30.5495 C102.938,30.5495 103.183,30.6901 103.349,30.9714 C103.433,31.1172 103.474,31.263 103.474,31.4089 C103.474,31.7214 103.334,31.961 103.052,32.1276 C102.907,32.2005 102.761,32.237 102.615,32.237 C102.282,32.237 102.037,32.0964 101.881,31.8151 C101.808,31.6797 101.771,31.5391 101.771,31.3932 C101.771,31.0912 101.907,30.8568 102.177,30.6901 C102.313,30.5964 102.459,30.5495 102.615,30.5495 M102.615,27.3932 C102.938,27.3932 103.183,27.5287 103.349,27.7995 C103.433,27.9453 103.474,28.0912 103.474,28.237 C103.474,28.5599 103.334,28.8047 103.052,28.9714 C102.917,29.0443 102.771,29.0807 102.615,29.0807 C102.282,29.0807 102.037,28.9349 101.881,28.6432 C101.808,28.5078 101.771,28.3672 101.771,28.2214 C101.771,27.9193 101.907,27.6849 102.177,27.5182 C102.313,27.4349 102.459,27.3932 102.615,27.3932"/>
<path class="StaffText" d="M110.912,25.7526 C109.839,25.7526 109.11,26.2735 108.724,27.3151 C108.537,27.7839 108.443,28.2995 108.443,28.862 C108.443,30.0391 108.802,30.888 109.521,31.4089 C109.948,31.7214 110.469,31.8776 111.084,31.8776 C111.615,31.8776 112.011,31.763 112.271,31.5339 C112.355,31.4505 112.401,31.3672 112.412,31.2839 L112.412,29.6432 C112.412,29.2474 112.339,28.9974 112.193,28.8932 C112.089,28.8307 111.865,28.7839 111.521,28.7526 L111.521,28.5807 L114.068,28.5807 L114.068,28.7526 C113.735,28.7839 113.532,28.8724 113.459,29.0182 C113.407,29.1224 113.381,29.2943 113.381,29.5339 L113.381,31.5651 C113.099,31.8047 112.584,31.9974 111.834,32.1432 C111.469,32.2162 111.146,32.2526 110.865,32.2526 C109.948,32.2526 109.167,32.0182 108.521,31.5495 C107.719,30.9453 107.313,30.0547 107.302,28.8776 C107.302,27.8151 107.651,26.9505 108.349,26.2839 C108.995,25.6797 109.792,25.3776 110.74,25.3776 C111.146,25.3776 111.62,25.4557 112.162,25.612 C112.328,25.6641 112.453,25.6901 112.537,25.6901 C112.745,25.6901 112.886,25.6016 112.959,25.4245 C112.969,25.4037 112.98,25.388 112.99,25.3776 L113.209,25.3776 L113.287,27.487 L113.052,27.487 C112.75,26.7474 112.381,26.2526 111.943,26.0026 C111.641,25.836 111.297,25.7526 110.912,25.7526 M117.084,28.1589 L117.084,27.987 C117.563,27.8412 118.032,27.6849 118.49,27.5182 L118.552,27.5339 L118.552,28.2995 C119.125,27.862 119.537,27.612 119.787,27.5495 C119.891,27.5287 119.995,27.5182 120.099,27.5182 C120.631,27.5287 120.985,27.8151 121.162,28.3776 C121.693,27.8047 122.24,27.5182 122.802,27.5182 C123.563,27.5287 123.948,28.1276 123.959,29.3151 L123.959,31.362 C123.969,31.7266 124.11,31.9193 124.381,31.9401 L124.646,31.9557 L124.646,32.112 L122.459,32.112 L122.459,31.9557 C122.782,31.9245 122.974,31.8516 123.037,31.737 C123.089,31.6432 123.115,31.4818 123.115,31.2526 L123.115,29.1432 C123.115,28.5912 123.006,28.2578 122.787,28.1432 C122.683,28.0807 122.542,28.0495 122.365,28.0495 C121.917,28.0599 121.552,28.263 121.271,28.6589 L121.271,31.1745 C121.271,31.5495 121.36,31.7839 121.537,31.8776 C121.641,31.9297 121.792,31.9557 121.99,31.9557 L121.99,32.112 L119.756,32.112 L119.756,31.9557 C120.078,31.9349 120.276,31.862 120.349,31.737 C120.412,31.6432 120.443,31.4818 120.443,31.2526 L120.443,29.0964 C120.443,28.3985 120.219,28.0495 119.771,28.0495 C119.407,28.0495 119.084,28.1693 118.802,28.4089 C118.73,28.4818 118.662,28.5599 118.599,28.6432 L118.599,31.4401 C118.599,31.6901 118.688,31.8464 118.865,31.9089 C118.959,31.9401 119.094,31.9557 119.271,31.9557 L119.271,32.112 L117.052,32.112 L117.052,31.9557 C117.407,31.9557 117.62,31.8724 117.693,31.7057 C117.735,31.6016 117.756,31.4557 117.756,31.2682 L117.756,28.7526 C117.756,28.3776 117.677,28.1693 117.521,28.1276 C117.49,28.1172 117.453,28.112 117.412,28.112 C117.308,28.112 117.198,28.1276 117.084,28.1589 M125.209,31.1432 C125.209,30.6328 125.526,30.2005 126.162,29.8464 C126.349,29.7526 126.849,29.5391 127.662,29.2057 C127.683,29.2057 127.698,29.2005 127.709,29.1901 L127.709,28.5807 C127.657,28.0599 127.401,27.7839 126.943,27.7526 C126.631,27.7526 126.412,27.8516 126.287,28.0495 C126.245,28.1224 126.224,28.1849 126.224,28.237 C126.224,28.2995 126.235,28.3828 126.256,28.487 C126.266,28.5599 126.271,28.612 126.271,28.6432 C126.271,28.8203 126.183,28.9453 126.006,29.0182 C125.943,29.0495 125.886,29.0651 125.834,29.0651 C125.646,29.0651 125.516,28.9766 125.443,28.7995 C125.412,28.7474 125.396,28.6901 125.396,28.6276 C125.396,28.263 125.615,27.9662 126.052,27.737 C126.355,27.5912 126.698,27.5182 127.084,27.5182 C127.802,27.5182 128.245,27.7735 128.412,28.2839 C128.485,28.5026 128.521,28.7787 128.521,29.112 L128.521,31.0495 C128.521,31.3828 128.584,31.5703 128.709,31.612 C128.75,31.6224 128.787,31.6276 128.818,31.6276 C128.964,31.6172 129.11,31.5547 129.256,31.4401 L129.256,31.6901 C128.985,32.0026 128.735,32.1745 128.506,32.2057 C128.453,32.2057 128.401,32.2057 128.349,32.2057 C128.037,32.2057 127.839,32.0495 127.756,31.737 C127.735,31.6537 127.724,31.5599 127.724,31.4557 C127.131,31.9349 126.641,32.1849 126.256,32.2057 C125.828,32.2057 125.521,32.0339 125.334,31.6901 C125.25,31.5235 125.209,31.3412 125.209,31.1432 M127.709,30.862 L127.709,29.4245 C126.886,29.7266 126.381,30.0339 126.193,30.3464 C126.12,30.4922 126.084,30.6485 126.084,30.8151 C126.084,31.211 126.23,31.461 126.521,31.5651 C126.594,31.5964 126.662,31.612 126.724,31.612 C126.943,31.6016 127.183,31.5235 127.443,31.3776 C127.589,31.2943 127.672,31.1901 127.693,31.0651 C127.703,31.0026 127.709,30.9349 127.709,30.862 M130.427,28.1901 C130.427,28.1901 130.276,28.2005 129.974,28.2214 L129.974,28.0495 C130.516,27.8828 131.037,27.7057 131.537,27.5182 L131.584,27.5495 L131.584,32.112 C131.584,33.3412 131.172,34.0495 130.349,34.237 C130.203,34.2682 130.052,34.2839 129.896,34.2839 C129.459,34.2839 129.167,34.1745 129.021,33.9557 C128.98,33.8828 128.959,33.8099 128.959,33.737 C128.959,33.5495 129.047,33.4297 129.224,33.3776 C129.276,33.3568 129.323,33.3464 129.365,33.3464 C129.511,33.3464 129.667,33.4505 129.834,33.6589 C130.011,33.8464 130.157,33.9453 130.271,33.9557 C130.5,33.9557 130.641,33.7943 130.693,33.4714 C130.724,33.2735 130.74,32.9714 130.74,32.5651 L130.74,28.7682 C130.74,28.4141 130.662,28.2214 130.506,28.1901 C130.474,28.1901 130.448,28.1901 130.427,28.1901 M131.084,25.2839 C131.302,25.2839 131.459,25.3828 131.552,25.5807 C131.584,25.6537 131.599,25.7266 131.599,25.7995 C131.599,26.0182 131.49,26.1745 131.271,26.2682 C131.209,26.2891 131.146,26.2995 131.084,26.2995 C130.855,26.2995 130.698,26.2005 130.615,26.0026 C130.594,25.9297 130.584,25.862 130.584,25.7995 C130.584,25.5807 130.677,25.4245 130.865,25.3307 C130.938,25.2995 131.011,25.2839 131.084,25.2839 M134.412,27.5182 C135.151,27.5182 135.735,27.7891 136.162,28.3307 C136.464,28.737 136.615,29.2162 136.615,29.7682 C136.615,30.5495 136.36,31.1745 135.849,31.6432 C135.433,32.0182 134.948,32.2057 134.396,32.2057 C133.688,32.2057 133.125,31.9349 132.709,31.3932 C132.375,30.9557 132.209,30.4401 132.209,29.8464 C132.209,29.0339 132.485,28.4089 133.037,27.9714 C133.422,27.6693 133.881,27.5182 134.412,27.5182 M133.115,29.362 C133.115,30.2682 133.302,30.961 133.677,31.4401 C133.917,31.7526 134.198,31.9089 134.521,31.9089 C135.042,31.9089 135.401,31.612 135.599,31.0182 C135.683,30.7578 135.724,30.461 135.724,30.1276 C135.724,29.2422 135.511,28.586 135.084,28.1589 C134.855,27.9297 134.589,27.8151 134.287,27.8151 C133.818,27.8151 133.48,28.0547 133.271,28.5339 C133.167,28.7735 133.115,29.0495 133.115,29.362 M139.974,28.487 C139.87,28.487 139.719,28.4037 139.521,28.237 C139.427,28.1537 139.355,28.112 139.302,28.112 C139.136,28.112 138.964,28.2422 138.787,28.5026 C138.672,28.6693 138.615,28.8151 138.615,28.9401 L138.615,31.2057 C138.615,31.5495 138.703,31.763 138.881,31.8464 C139.006,31.9089 139.198,31.9453 139.459,31.9557 L139.459,32.112 L137.052,32.112 L137.052,31.9557 C137.407,31.8932 137.62,31.8099 137.693,31.7057 C137.745,31.6224 137.771,31.4766 137.771,31.2682 L137.771,28.7526 C137.771,28.388 137.688,28.1901 137.521,28.1589 C137.49,28.1485 137.459,28.1432 137.427,28.1432 C137.313,28.1432 137.198,28.1589 137.084,28.1901 L137.084,28.0339 C137.615,27.8672 138.105,27.6953 138.552,27.5182 L138.615,27.5339 L138.615,28.4245 C138.959,27.9453 139.25,27.6589 139.49,27.5651 C139.594,27.5339 139.698,27.5182 139.802,27.5182 C140.115,27.5182 140.297,27.6485 140.349,27.9089 C140.349,27.9505 140.349,27.9974 140.349,28.0495 C140.318,28.3203 140.193,28.4662 139.974,28.487 M145.631,27.7214 C145.651,27.711 145.709,27.6745 145.802,27.612 L145.912,27.612 L145.943,28.9714 L145.802,28.9714 C145.636,28.3255 145.396,27.9401 145.084,27.8151 C144.969,27.763 144.839,27.737 144.693,27.737 C144.339,27.737 144.099,27.8776 143.974,28.1589 C143.943,28.2422 143.927,28.3307 143.927,28.4245 C143.938,28.7057 144.084,28.9297 144.365,29.0964 L145.443,29.737 C145.922,30.0287 146.193,30.3464 146.256,30.6901 C146.266,30.763 146.271,30.8464 146.271,30.9401 C146.271,31.3568 146.089,31.6953 145.724,31.9557 C145.464,32.1224 145.177,32.2057 144.865,32.2057 C144.73,32.2057 144.422,32.1589 143.943,32.0651 C143.828,32.0443 143.74,32.0339 143.677,32.0339 C143.573,32.0443 143.495,32.086 143.443,32.1589 L143.318,32.1589 L143.318,30.5964 L143.474,30.5964 C143.578,31.0651 143.709,31.3932 143.865,31.5807 C144.084,31.8516 144.375,31.987 144.74,31.987 C145.167,31.987 145.433,31.8307 145.537,31.5182 C145.568,31.4453 145.584,31.362 145.584,31.2682 C145.573,30.9662 145.396,30.7162 145.052,30.5182 L144.474,30.1901 C143.849,29.836 143.48,29.4818 143.365,29.1276 C143.323,29.0026 143.302,28.8776 143.302,28.7526 C143.302,28.2839 143.506,27.9349 143.912,27.7057 C144.141,27.5807 144.391,27.5182 144.662,27.5182 C144.881,27.5182 145.141,27.5703 145.443,27.6745 C145.526,27.7057 145.589,27.7214 145.631,27.7214 M147.209,29.987 C147.209,29.1432 147.495,28.4818 148.068,28.0026 C148.464,27.6797 148.907,27.5182 149.396,27.5182 C149.948,27.5182 150.375,27.6693 150.677,27.9714 C150.855,28.1485 150.943,28.3412 150.943,28.5495 C150.943,28.7266 150.849,28.8516 150.662,28.9245 C150.589,28.9557 150.521,28.9714 150.459,28.9714 C150.25,28.9714 150.099,28.836 150.006,28.5651 C149.995,28.5443 149.99,28.5235 149.99,28.5026 L149.927,28.2839 C149.865,28.0339 149.75,27.888 149.584,27.8464 C149.511,27.8255 149.427,27.8151 149.334,27.8151 C148.834,27.8151 148.453,28.0547 148.193,28.5339 C148.047,28.8255 147.974,29.1641 147.974,29.5495 C147.974,30.2787 148.198,30.8255 148.646,31.1901 C148.907,31.388 149.198,31.487 149.521,31.487 C149.938,31.487 150.297,31.3203 150.599,30.987 C150.703,30.862 150.818,30.7162 150.943,30.5495 L151.084,30.6432 C150.709,31.362 150.292,31.8307 149.834,32.0495 C149.594,32.1537 149.355,32.2057 149.115,32.2057 C148.469,32.2057 147.964,31.9401 147.599,31.4089 C147.339,31.0026 147.209,30.5287 147.209,29.987 M151.209,31.1432 C151.209,30.6328 151.526,30.2005 152.162,29.8464 C152.349,29.7526 152.849,29.5391 153.662,29.2057 C153.683,29.2057 153.698,29.2005 153.709,29.1901 L153.709,28.5807 C153.657,28.0599 153.401,27.7839 152.943,27.7526 C152.631,27.7526 152.412,27.8516 152.287,28.0495 C152.245,28.1224 152.224,28.1849 152.224,28.237 C152.224,28.2995 152.235,28.3828 152.256,28.487 C152.266,28.5599 152.271,28.612 152.271,28.6432 C152.271,28.8203 152.183,28.9453 152.006,29.0182 C151.943,29.0495 151.886,29.0651 151.834,29.0651 C151.646,29.0651 151.516,28.9766 151.443,28.7995 C151.412,28.7474 151.396,28.6901 151.396,28.6276 C151.396,28.263 151.615,27.9662 152.052,27.737 C152.355,27.5912 152.698,27.5182 153.084,27.5182 C153.802,27.5182 154.245,27.7735 154.412,28.2839 C154.485,28.5026 154.521,28.7787 154.521,29.112 L154.521,31.0495 C154.521,31.3828 154.584,31.5703 154.709,31.612 C154.75,31.6224 154.787,31.6276 154.818,31.6276 C154.964,31.6172 155.11,31.5547 155.256,31.4401 L155.256,31.6901 C154.985,32.0026 154.735,32.1745 154.506,32.2057 C154.453,32.2057 154.401,32.2057 154.349,32.2057 C154.037,32.2057 153.839,32.0495 153.756,31.737 C153.735,31.6537 153.724,31.5599 153.724,31.4557 C153.131,31.9349 152.641,32.1849 152.256,32.2057 C151.828,32.2057 151.521,32.0339 151.334,31.6901 C151.25,31.5235 151.209,31.3412 151.209,31.1432 M153.709,30.862 L153.709,29.4245 C152.886,29.7266 152.381,30.0339 152.193,30.3464 C152.12,30.4922 152.084,30.6485 152.084,30.8151 C152.084,31.211 152.23,31.461 152.521,31.5651 C152.594,31.5964 152.662,31.612 152.724,31.612 C152.943,31.6016 153.183,31.5235 153.443,31.3776 C153.589,31.2943 153.672,31.1901 153.693,31.0651 C153.703,31.0026 153.709,30.9349 153.709,30.862 M155.052,25.8776 L155.052,25.7214 C155.719,25.5547 156.25,25.4089 156.646,25.2839 L156.693,25.2995 L156.693,31.2682 C156.693,31.5807 156.756,31.7735 156.881,31.8464 C156.995,31.8985 157.183,31.9349 157.443,31.9557 L157.443,32.112 L155.084,32.112 L155.084,31.9557 C155.459,31.9245 155.688,31.836 155.771,31.6901 C155.823,31.5964 155.849,31.4453 155.849,31.237 L155.849,26.4714 C155.849,26.138 155.776,25.9453 155.631,25.8932 C155.568,25.8724 155.5,25.862 155.427,25.862 C155.292,25.862 155.167,25.8672 155.052,25.8776 M158.927,29.3464 C158.969,30.5235 159.355,31.2162 160.084,31.4245 C160.209,31.4662 160.344,31.487 160.49,31.487 C160.98,31.487 161.396,31.2787 161.74,30.862 C161.834,30.7474 161.933,30.612 162.037,30.4557 L162.193,30.5182 C161.828,31.4766 161.256,32.0287 160.474,32.1745 C160.339,32.1953 160.209,32.2057 160.084,32.2057 C159.344,32.2057 158.813,31.8932 158.49,31.2682 C158.302,30.8932 158.209,30.461 158.209,29.9714 C158.209,29.086 158.485,28.4141 159.037,27.9557 C159.401,27.6641 159.823,27.5182 160.302,27.5182 C161.219,27.5182 161.771,28.0391 161.959,29.0807 C161.98,29.1745 161.995,29.263 162.006,29.3464 L158.927,29.3464 M158.943,29.0495 L160.99,29.0495 C160.896,28.4766 160.73,28.1224 160.49,27.987 C160.365,27.9245 160.203,27.8932 160.006,27.8932 C159.412,27.8932 159.058,28.2682 158.943,29.0182 C158.943,29.0287 158.943,29.0391 158.943,29.0495 M167.412,27.5182 C168.151,27.5182 168.735,27.7891 169.162,28.3307 C169.464,28.737 169.615,29.2162 169.615,29.7682 C169.615,30.5495 169.36,31.1745 168.849,31.6432 C168.433,32.0182 167.948,32.2057 167.396,32.2057 C166.688,32.2057 166.125,31.9349 165.709,31.3932 C165.375,30.9557 165.209,30.4401 165.209,29.8464 C165.209,29.0339 165.485,28.4089 166.037,27.9714 C166.422,27.6693 166.881,27.5182 167.412,27.5182 M166.115,29.362 C166.115,30.2682 166.302,30.961 166.677,31.4401 C166.917,31.7526 167.198,31.9089 167.521,31.9089 C168.042,31.9089 168.401,31.612 168.599,31.0182 C168.683,30.7578 168.724,30.461 168.724,30.1276 C168.724,29.2422 168.511,28.586 168.084,28.1589 C167.855,27.9297 167.589,27.8151 167.287,27.8151 C166.818,27.8151 166.48,28.0547 166.271,28.5339 C166.167,28.7735 166.115,29.0495 166.115,29.362 M170.052,28.1276 L170.052,27.9557 C170.552,27.8099 171.016,27.6641 171.443,27.5182 L171.506,27.5339 L171.506,28.3151 C171.985,27.8776 172.36,27.6224 172.631,27.5495 C172.735,27.5287 172.844,27.5182 172.959,27.5182 C173.5,27.5182 173.86,27.7891 174.037,28.3307 C174.099,28.5287 174.131,28.7526 174.131,29.0026 L174.131,31.2995 C174.131,31.612 174.203,31.8047 174.349,31.8776 C174.443,31.9089 174.573,31.9349 174.74,31.9557 L174.74,32.112 L172.662,32.112 L172.662,31.9557 C172.964,31.9349 173.151,31.836 173.224,31.6589 C173.276,31.5443 173.302,31.3672 173.302,31.1276 L173.302,29.0339 C173.282,28.388 173.037,28.0599 172.568,28.0495 C172.318,28.0495 172.058,28.1641 171.787,28.3932 C171.714,28.4662 171.631,28.5443 171.537,28.6276 L171.537,31.4401 C171.537,31.6797 171.636,31.836 171.834,31.9089 C171.927,31.9297 172.047,31.9453 172.193,31.9557 L172.193,32.112 L170.084,32.112 L170.084,31.9557 C170.375,31.9349 170.558,31.8516 170.631,31.7057 C170.672,31.5912 170.693,31.4245 170.693,31.2057 L170.693,28.7214 C170.693,28.3568 170.62,28.1537 170.474,28.112 C170.433,28.0912 170.386,28.0807 170.334,28.0807 C170.209,28.0807 170.115,28.0964 170.052,28.1276 M175.927,29.3464 C175.969,30.5235 176.355,31.2162 177.084,31.4245 C177.209,31.4662 177.344,31.487 177.49,31.487 C177.98,31.487 178.396,31.2787 178.74,30.862 C178.834,30.7474 178.933,30.612 179.037,30.4557 L179.193,30.5182 C178.828,31.4766 178.256,32.0287 177.474,32.1745 C177.339,32.1953 177.209,32.2057 177.084,32.2057 C176.344,32.2057 175.813,31.8932 175.49,31.2682 C175.302,30.8932 175.209,30.461 175.209,29.9714 C175.209,29.086 175.485,28.4141 176.037,27.9557 C176.401,27.6641 176.823,27.5182 177.302,27.5182 C178.219,27.5182 178.771,28.0391 178.959,29.0807 C178.98,29.1745 178.995,29.263 179.006,29.3464 L175.927,29.3464 M175.943,29.0495 L177.99,29.0495 C177.896,28.4766 177.73,28.1224 177.49,27.987 C177.365,27.9245 177.203,27.8932 177.006,27.8932 C176.412,27.8932 176.058,28.2682 175.943,29.0182 C175.943,29.0287 175.943,29.0391 175.943,29.0495 M184.412,27.5182 C185.151,27.5182 185.735,27.7891 186.162,28.3307 C186.464,28.737 186.615,29.2162 186.615,29.7682 C186.615,30.5495 186.36,31.1745 185.849,31.6432 C185.433,32.0182 184.948,32.2057 184.396,32.2057 C183.688,32.2057 183.125,31.9349 182.709,31.3932 C182.375,30.9557 182.209,30.4401 182.209,29.8464 C182.209,29.0339 182.485,28.4089 183.037,27.9714 C183.422,27.6693 183.881,27.5182 184.412,27.5182 M183.115,29.362 C183.115,30.2682 183.302,30.961 183.677,31.4401 C183.917,31.7526 184.198,31.9089 184.521,31.9089 C185.042,31.9089 185.401,31.612 185.599,31.0182 C185.683,30.7578 185.724,30.461 185.724,30.1276 C185.724,29.2422 185.511,28.586 185.084,28.1589 C184.855,27.9297 184.589,27.8151 184.287,27.8151 C183.818,27.8151 183.48,28.0547 183.271,28.5339 C183.167,28.7735 183.115,29.0495 183.115,29.362 M187.209,29.987 C187.209,29.1432 187.495,28.4818 188.068,28.0026 C188.464,27.6797 188.907,27.5182 189.396,27.5182 C189.948,27.5182 190.375,27.6693 190.677,27.9714 C190.855,28.1485 190.943,28.3412 190.943,28.5495 C190.943,28.7266 190.849,28.8516 190.662,28.9245 C190.589,28.9557 190.521,28.9714 190.459,28.9714 C190.25,28.9714 190.099,28.836 190.006,28.5651 C189.995,28.5443 189.99,28.5235 189.99,28.5026 L189.927,28.2839 C189.865,28.0339 189.75,27.888 189.584,27.8464 C189.511,27.8255 189.427,27.8151 189.334,27.8151 C188.834,27.8151 188.453,28.0547 188.193,28.5339 C188.047,28.8255 187.974,29.1641 187.974,29.5495 C187.974,30.2787 188.198,30.8255 188.646,31.1901 C188.907,31.388 189.198,31.487 189.521,31.487 C189.938,31.487 190.297,31.3203 190.599,30.987 C190.703,30.862 190.818,30.7162 190.943,30.5495 L191.084,30.6432 C190.709,31.362 190.292,31.8307 189.834,32.0495 C189.594,32.1537 189.355,32.2057 189.115,32.2057 C188.469,32.2057 187.964,31.9401 187.599,31.4089 C187.339,31.0026 187.209,30.5287 187.209,29.987 M193.552,27.612 L193.552,27.9089 L192.537,27.9089 L192.537,30.7682 C192.537,31.3099 192.672,31.6068 192.943,31.6589 C192.974,31.6693 193.011,31.6745 193.052,31.6745 C193.261,31.6641 193.464,31.5443 193.662,31.3151 L193.787,31.4401 C193.464,31.9505 193.063,32.2057 192.584,32.2057 C192,32.1953 191.703,31.7735 191.693,30.9401 L191.693,27.9089 L191.162,27.9089 C191.141,27.888 191.131,27.8672 191.131,27.8464 C191.131,27.8047 191.172,27.763 191.256,27.7214 C191.537,27.5339 191.87,27.1693 192.256,26.6276 C192.266,26.6172 192.271,26.612 192.271,26.612 C192.375,26.4557 192.443,26.362 192.474,26.3307 C192.516,26.3412 192.537,26.3828 192.537,26.4557 L192.537,27.612 L193.552,27.612 M194.209,31.1432 C194.209,30.6328 194.526,30.2005 195.162,29.8464 C195.349,29.7526 195.849,29.5391 196.662,29.2057 C196.683,29.2057 196.698,29.2005 196.709,29.1901 L196.709,28.5807 C196.657,28.0599 196.401,27.7839 195.943,27.7526 C195.631,27.7526 195.412,27.8516 195.287,28.0495 C195.245,28.1224 195.224,28.1849 195.224,28.237 C195.224,28.2995 195.235,28.3828 195.256,28.487 C195.266,28.5599 195.271,28.612 195.271,28.6432 C195.271,28.8203 195.183,28.9453 195.006,29.0182 C194.943,29.0495 194.886,29.0651 194.834,29.0651 C194.646,29.0651 194.516,28.9766 194.443,28.7995 C194.412,28.7474 194.396,28.6901 194.396,28.6276 C194.396,28.263 194.615,27.9662 195.052,27.737 C195.355,27.5912 195.698,27.5182 196.084,27.5182 C196.802,27.5182 197.245,27.7735 197.412,28.2839 C197.485,28.5026 197.521,28.7787 197.521,29.112 L197.521,31.0495 C197.521,31.3828 197.584,31.5703 197.709,31.612 C197.75,31.6224 197.787,31.6276 197.818,31.6276 C197.964,31.6172 198.11,31.5547 198.256,31.4401 L198.256,31.6901 C197.985,32.0026 197.735,32.1745 197.506,32.2057 C197.453,32.2057 197.401,32.2057 197.349,32.2057 C197.037,32.2057 196.839,32.0495 196.756,31.737 C196.735,31.6537 196.724,31.5599 196.724,31.4557 C196.131,31.9349 195.641,32.1849 195.256,32.2057 C194.828,32.2057 194.521,32.0339 194.334,31.6901 C194.25,31.5235 194.209,31.3412 194.209,31.1432 M196.709,30.862 L196.709,29.4245 C195.886,29.7266 195.381,30.0339 195.193,30.3464 C195.12,30.4922 195.084,30.6485 195.084,30.8151 C195.084,31.211 195.23,31.461 195.521,31.5651 C195.594,31.5964 195.662,31.612 195.724,31.612 C195.943,31.6016 196.183,31.5235 196.443,31.3776 C196.589,31.2943 196.672,31.1901 196.693,31.0651 C196.703,31.0026 196.709,30.9349 196.709,30.862 M202.584,27.612 L202.584,27.7682 C202.417,27.7891 202.292,27.8568 202.209,27.9714 C202.136,28.0755 202.047,28.2682 201.943,28.5495 L200.662,31.7526 C200.526,32.0755 200.433,32.2422 200.381,32.2526 C200.308,32.2526 200.224,32.1068 200.131,31.8151 C200.12,31.8047 200.115,31.7943 200.115,31.7839 L198.912,28.9089 C198.662,28.3151 198.474,27.9662 198.349,27.862 C198.266,27.7995 198.151,27.7682 198.006,27.7682 L198.006,27.612 L199.974,27.612 L199.974,27.7682 C199.693,27.7891 199.542,27.862 199.521,27.987 C199.511,28.0078 199.506,28.0287 199.506,28.0495 C199.506,28.1641 199.537,28.2839 199.599,28.4089 L200.615,30.9714 L201.599,28.3776 C201.641,28.2839 201.662,28.1849 201.662,28.0807 C201.662,27.9037 201.516,27.7995 201.224,27.7682 C201.214,27.7682 201.203,27.7682 201.193,27.7682 L201.193,27.612 L202.584,27.612 M203.927,29.3464 C203.969,30.5235 204.355,31.2162 205.084,31.4245 C205.209,31.4662 205.344,31.487 205.49,31.487 C205.98,31.487 206.396,31.2787 206.74,30.862 C206.834,30.7474 206.933,30.612 207.037,30.4557 L207.193,30.5182 C206.828,31.4766 206.256,32.0287 205.474,32.1745 C205.339,32.1953 205.209,32.2057 205.084,32.2057 C204.344,32.2057 203.813,31.8932 203.49,31.2682 C203.302,30.8932 203.209,30.461 203.209,29.9714 C203.209,29.086 203.485,28.4141 204.037,27.9557 C204.401,27.6641 204.823,27.5182 205.302,27.5182 C206.219,27.5182 206.771,28.0391 206.959,29.0807 C206.98,29.1745 206.995,29.263 207.006,29.3464 L203.927,29.3464 M203.943,29.0495 L205.99,29.0495 C205.896,28.4766 205.73,28.1224 205.49,27.987 C205.365,27.9245 205.203,27.8932 205.006,27.8932 C204.412,27.8932 204.058,28.2682 203.943,29.0182 C203.943,29.0287 203.943,29.0391 203.943,29.0495"/>
</svg>
