<?xml version="1.0" encoding="UTF-8" standalone="no"?>
<svg width="595.44px" height="841.68px" viewBox="0 0 595.44 841.68"
 xmlns="http://www.w3.org/2000/svg" xmlns:xlink="http://www.w3.org/1999/xlink" version="1.2" baseProfile="tiny">
<title>Guitar Scales and Arpeggios</title>
<desc>Generated by MuseScore 2.1.0</desc>
<polyline class="StaffLines" fill="none" stroke="#000000" stroke-width="0.40" stroke-linejoin="bevel" points="28.08,62.856 567.36,62.856"/>
<polyline class="StaffLines" fill="none" stroke="#000000" stroke-width="0.40" stroke-linejoin="bevel" points="28.08,67.824 567.36,67.824"/>
<polyline class="StaffLines" fill="none" stroke="#000000" stroke-width="0.40" stroke-linejoin="bevel" points="28.08,72.792 567.36,72.792"/>
<polyline class="StaffLines" fill="none" stroke="#000000" stroke-width="0.40" stroke-linejoin="bevel" points="28.08,77.76 567.36,77.76"/>
<polyline class="StaffLines" fill="none" stroke="#000000" stroke-width="0.40" stroke-linejoin="bevel" points="28.08,82.728 567.36,82.728"/>
<polyline class="StaffLines" fill="none" stroke="#000000" stroke-width="0.40" stroke-linejoin="bevel" points="28.08,115.02 567.36,115.02"/>
<polyline class="StaffLines" fill="none" stroke="#000000" stroke-width="0.40" stroke-linejoin="bevel" points="28.08,122.472 567.36,122.472"/>
<polyline class="StaffLines" fill="none" stroke="#000000" stroke-width="0.40" stroke-linejoin="bevel" points="28.08,129.924 567.36,129.924"/>
<polyline class="StaffLines" fill="none" stroke="#000000" stroke-width="0.40" stroke-linejoin="bevel" points="28.08,137.376 567.36,137.376"/>
<polyline class="StaffLines" fill="none" stroke="#000000" stroke-width="0.40" stroke-linejoin="bevel" points="28.08,144.828 567.36,144.828"/>
<polyline class="StaffLines" fill="none" stroke="#000000" stroke-width="0.40" stroke-linejoin="bevel" points="28.08,152.28 567.36,152.28"/>
<polyline class="BarLine" fill="none" stroke="#000000" stroke-width="0.79" stroke-linejoin="bevel" points="28.4774,62.856 28.4774,152.28"/>
<polyline class="BarLine" fill="none" stroke="#000000" stroke-width="0.79" stroke-linejoin="bevel" points="562.491,115.02 562.491,152.28"/>
<polyline class="BarLine" fill="none" stroke="#000000" stroke-width="2.48" stroke-linejoin="bevel" points="566.118,115.02 566.118,152.28"/>
<polyline class="BarLine" fill="none" stroke="#000000" stroke-width="0.79" stroke-linejoin="bevel" points="562.491,62.856 562.491,82.728"/>
<polyline class="BarLine" fill="none" stroke="#000000" stroke-width="2.48" stroke-linejoin="bevel" points="566.118,62.856 566.118,82.728"/>
<polyline class="LedgerLine" fill="none" stroke="#000000" stroke-width="0.79" stroke-linecap="square" stroke-linejoin="bevel" points="492.06,87.696 501.94,87.696"/>
<polyline class="LedgerLine" fill="none" stroke="#000000" stroke-width="0.79" stroke-linecap="square" stroke-linejoin="bevel" points="492.06,92.664 501.94,92.664"/>
<polyline class="LedgerLine" fill="none" stroke="#000000" stroke-width="0.79" stroke-linecap="square" stroke-linejoin="bevel" points="449.512,87.696 459.034,87.696"/>
<polyline class="LedgerLine" fill="none" stroke="#000000" stroke-width="0.79" stroke-linecap="square" stroke-linejoin="bevel" points="449.512,92.664 459.034,92.664"/>
<polyline class="LedgerLine" fill="none" stroke="#000000" stroke-width="0.79" stroke-linecap="square" stroke-linejoin="bevel" points="406.785,87.696 416.306,87.696"/>
<polyline class="LedgerLine" fill="none" stroke="#000000" stroke-width="0.79" stroke-linecap="square" stroke-linejoin="bevel" points="150.42,87.696 159.941,87.696"/>
<polyline class="LedgerLine" fill="none" stroke="#000000" stroke-width="0.79" stroke-linecap="square" stroke-linejoin="bevel" points="107.693,87.696 117.214,87.696"/>
<polyline class="LedgerLine" fill="none" stroke="#000000" stroke-width="0.79" stroke-linecap="square" stroke-linejoin="bevel" points="107.693,92.664 117.214,92.664"/>
<polyline class="LedgerLine" fill="none" stroke="#000000" stroke-width="0.79" stroke-linecap="square" stroke-linejoin="bevel" points="64.9651,87.696 74.4866,87.696"/>
<polyline class="LedgerLine" fill="none" stroke="#000000" stroke-width="0.79" stroke-linecap="square" stroke-linejoin="bevel" points="64.9651,92.664 74.4866,92.664"/>
<polyline class="Stem" fill="none" stroke="#000000" stroke-width="0.65" stroke-linecap="round" stroke-linejoin="bevel" points="500.127,94.3849 500.127,72.792"/>
<polyline class="Stem" fill="none" stroke="#000000" stroke-width="0.65" stroke-linecap="round" stroke-linejoin="bevel" points="457.22,91.7309 457.22,72.792"/>
<polyline class="Stem" fill="none" stroke="#000000" stroke-width="0.65" stroke-linecap="round" stroke-linejoin="bevel" points="414.493,89.2469 414.493,72.792"/>
<polyline class="Stem" fill="none" stroke="#000000" stroke-width="0.65" stroke-linecap="round" stroke-linejoin="bevel" points="371.765,84.2789 371.765,67.824"/>
<polyline class="Stem" fill="none" stroke="#000000" stroke-width="0.65" stroke-linecap="round" stroke-linejoin="bevel" points="329.038,81.7949 329.038,65.34"/>
<polyline class="Stem" fill="none" stroke="#000000" stroke-width="0.65" stroke-linecap="round" stroke-linejoin="bevel" points="286.31,76.8269 286.31,60.993"/>
<polyline class="Stem" fill="none" stroke="#000000" stroke-width="0.65" stroke-linecap="round" stroke-linejoin="bevel" points="243.583,81.7949 243.583,65.34"/>
<polyline class="Stem" fill="none" stroke="#000000" stroke-width="0.65" stroke-linecap="round" stroke-linejoin="bevel" points="200.856,84.2789 200.856,67.824"/>
<polyline class="Stem" fill="none" stroke="#000000" stroke-width="0.65" stroke-linecap="round" stroke-linejoin="bevel" points="158.128,89.2469 158.128,72.792"/>
<polyline class="Stem" fill="none" stroke="#000000" stroke-width="0.65" stroke-linecap="round" stroke-linejoin="bevel" points="115.401,91.7309 115.401,72.792"/>
<polyline class="Stem" fill="none" stroke="#000000" stroke-width="0.65" stroke-linecap="round" stroke-linejoin="bevel" points="72.6732,94.2149 72.6732,72.792"/>
<path class="Note" fill="#ffffff" fill-rule="evenodd" d="M494.475,148.554 L500.437,148.554 L500.437,156.006 L494.475,156.006 L494.475,148.554 "/>
<path class="Note" transform="matrix(0.9936,0,0,0.9936,494.972,155.758)" d="M2.4375,-5.64063 C1.75,-5.64063 1.35417,-5.32813 1.25,-4.70313 C1.22917,-4.59896 1.21875,-4.47917 1.21875,-4.34375 L0.421875,-4.34375 C0.442708,-5.59375 1.01563,-6.27083 2.14063,-6.375 C2.23438,-6.38542 2.32813,-6.39063 2.42188,-6.39063 C3.26563,-6.39063 3.84375,-6.10938 4.15625,-5.54688 C4.29167,-5.28646 4.35938,-4.98438 4.35938,-4.64063 C4.35938,-4.00521 4.0625,-3.57292 3.46875,-3.34375 C4.03125,-3.14583 4.375,-2.81771 4.5,-2.35938 C4.54167,-2.19271 4.5625,-2.00521 4.5625,-1.79688 C4.5625,-1.05729 4.27604,-0.505208 3.70313,-0.140625 C3.33854,0.0885417 2.90104,0.203125 2.39063,0.203125 C1.21354,0.203125 0.526042,-0.348958 0.328125,-1.45313 C0.317708,-1.57813 0.302083,-1.71354 0.28125,-1.85938 L1.07813,-1.85938 C1.13021,-1.08854 1.46875,-0.65625 2.09375,-0.5625 C2.19792,-0.541667 2.30729,-0.53125 2.42188,-0.53125 C3.04688,-0.53125 3.45313,-0.765625 3.64063,-1.23438 C3.71354,-1.40104 3.75,-1.58854 3.75,-1.79688 C3.73958,-2.54688 3.29688,-2.92708 2.42188,-2.9375 L2.09375,-2.92188 L1.98438,-2.92188 L1.98438,-3.67188 C2.66146,-3.68229 3.10417,-3.77604 3.3125,-3.95313 C3.47917,-4.09896 3.5625,-4.31771 3.5625,-4.60938 C3.5625,-5.09896 3.34896,-5.41667 2.92188,-5.5625 C2.77604,-5.61458 2.61458,-5.64063 2.4375,-5.64063"/>
<path class="Note" fill="#99cc33" transform="matrix(0.9936,0,0,0.9936,493.551,95.148)" d="M6.3125,-1.3125 C6.3125,-1.53125 6.22917,-1.71875 6.0625,-1.875 C5.88542,-2.04167 5.6875,-2.125 5.46875,-2.125 C5.08333,-2.125 4.29688,-1.73438 3.10938,-0.953125 C1.88021,-0.161458 1.13021,0.40625 0.859375,0.75 C0.713542,0.927083 0.640625,1.11458 0.640625,1.3125 C0.640625,1.53125 0.729167,1.71875 0.90625,1.875 C1.0625,2.04167 1.25521,2.125 1.48438,2.125 C1.85938,2.125 2.65625,1.73438 3.875,0.953125 C5.07292,0.171875 5.8125,-0.395833 6.09375,-0.75 C6.23958,-0.916667 6.3125,-1.10417 6.3125,-1.3125 M5.28125,-2.75 C6.39583,-2.75 6.95313,-2.27083 6.95313,-1.3125 C6.95313,-0.84375 6.81771,-0.296875 6.54688,0.328125 C6.27604,0.942708 5.91146,1.41146 5.45313,1.73438 C4.45313,2.41146 3.19792,2.75 1.6875,2.75 C0.5625,2.75 0,2.27083 0,1.3125 C0,0.885417 0.135417,0.34375 0.40625,-0.3125 C0.666667,-0.9375 1.03125,-1.41146 1.5,-1.73438 C2.51042,-2.41146 3.77083,-2.75 5.28125,-2.75"/>
<path class="Note" fill="#ffffff" fill-rule="evenodd" d="M451.748,148.554 L457.709,148.554 L457.709,156.006 L451.748,156.006 L451.748,148.554 "/>
<path class="Note" transform="matrix(0.9936,0,0,0.9936,452.245,155.758)" d="M4.28125,-6.39063 L4.28125,-5.64063 L1.625,-5.64063 L1.375,-3.8125 C1.73958,-4.09375 2.13542,-4.23438 2.5625,-4.23438 C3.28125,-4.23438 3.83333,-3.97396 4.21875,-3.45313 C4.48958,-3.07813 4.625,-2.625 4.625,-2.09375 C4.625,-1.3125 4.35938,-0.708333 3.82813,-0.28125 C3.44271,0.0416667 2.97917,0.203125 2.4375,0.203125 C1.26042,0.203125 0.557292,-0.359375 0.328125,-1.48438 C0.328125,-1.50521 0.322917,-1.53125 0.3125,-1.5625 L1.10938,-1.5625 C1.30729,-0.885417 1.73958,-0.541667 2.40625,-0.53125 C3.02083,-0.53125 3.44271,-0.770833 3.67188,-1.25 C3.76563,-1.46875 3.8125,-1.71354 3.8125,-1.98438 C3.8125,-2.63021 3.58333,-3.07813 3.125,-3.32813 C2.91667,-3.44271 2.67708,-3.5 2.40625,-3.5 C2.03125,-3.5 1.70833,-3.38021 1.4375,-3.14063 C1.375,-3.07813 1.3125,-3.01042 1.25,-2.9375 L0.515625,-2.9375 L0.984375,-6.39063 L4.28125,-6.39063 "/>
<path class="Note" fill="#cc00ff" transform="matrix(0.9936,0,0,0.9936,451.003,92.664)" d="M4.39063,-2.75 C5.01563,-2.75 5.54688,-2.58854 5.98438,-2.26563 C6.38021,-1.91146 6.57813,-1.46875 6.57813,-0.9375 C6.57813,-0.0416667 6.11979,0.796875 5.20313,1.57813 C4.26563,2.35938 3.26042,2.75 2.1875,2.75 C1.5625,2.75 1.03646,2.58854 0.609375,2.26563 C0.203125,1.91146 0,1.46875 0,0.9375 C0,0.0416667 0.46875,-0.796875 1.40625,-1.57813 C2.32292,-2.35938 3.31771,-2.75 4.39063,-2.75"/>
<path class="Note" fill="#ffffff" fill-rule="evenodd" d="M409.02,141.102 L414.982,141.102 L414.982,148.554 L409.02,148.554 L409.02,141.102 "/>
<path class="Note" transform="matrix(0.9936,0,0,0.9936,409.517,148.306)" d="M0.453125,-4.17188 C0.494792,-5.64063 1.19792,-6.38021 2.5625,-6.39063 C3.28125,-6.39063 3.83333,-6.14583 4.21875,-5.65625 C4.46875,-5.32292 4.59375,-4.93229 4.59375,-4.48438 C4.59375,-3.68229 4.14583,-3.03125 3.25,-2.53125 L2.34375,-2.04688 C1.79167,-1.75521 1.44271,-1.4375 1.29688,-1.09375 C1.24479,-0.989583 1.21354,-0.869792 1.20313,-0.734375 L4.5625,-0.734375 L4.5625,0 L0.3125,0 C0.354167,-0.760417 0.520833,-1.33854 0.8125,-1.73438 C1.07292,-2.05729 1.5,-2.38542 2.09375,-2.71875 L2.92188,-3.1875 C3.49479,-3.52083 3.78646,-3.94271 3.79688,-4.45313 C3.79688,-4.88021 3.61458,-5.21354 3.25,-5.45313 C3.04167,-5.57813 2.80208,-5.64063 2.53125,-5.64063 C1.73958,-5.64063 1.3125,-5.16667 1.25,-4.21875 C1.25,-4.19792 1.25,-4.18229 1.25,-4.17188 L0.453125,-4.17188 "/>
<path class="Note" fill="#ff9ee6" transform="matrix(0.9936,0,0,0.9936,408.275,90.18)" d="M4.39063,-2.75 C5.01563,-2.75 5.54688,-2.58854 5.98438,-2.26563 C6.38021,-1.91146 6.57813,-1.46875 6.57813,-0.9375 C6.57813,-0.0416667 6.11979,0.796875 5.20313,1.57813 C4.26563,2.35938 3.26042,2.75 2.1875,2.75 C1.5625,2.75 1.03646,2.58854 0.609375,2.26563 C0.203125,1.91146 0,1.46875 0,0.9375 C0,0.0416667 0.46875,-0.796875 1.40625,-1.57813 C2.32292,-2.35938 3.31771,-2.75 4.39063,-2.75"/>
<path class="Note" fill="#ffffff" fill-rule="evenodd" d="M366.293,141.102 L372.254,141.102 L372.254,148.554 L366.293,148.554 L366.293,141.102 "/>
<path class="Note" transform="matrix(0.9936,0,0,0.9936,366.79,148.306)" d="M4.28125,-6.39063 L4.28125,-5.64063 L1.625,-5.64063 L1.375,-3.8125 C1.73958,-4.09375 2.13542,-4.23438 2.5625,-4.23438 C3.28125,-4.23438 3.83333,-3.97396 4.21875,-3.45313 C4.48958,-3.07813 4.625,-2.625 4.625,-2.09375 C4.625,-1.3125 4.35938,-0.708333 3.82813,-0.28125 C3.44271,0.0416667 2.97917,0.203125 2.4375,0.203125 C1.26042,0.203125 0.557292,-0.359375 0.328125,-1.48438 C0.328125,-1.50521 0.322917,-1.53125 0.3125,-1.5625 L1.10938,-1.5625 C1.30729,-0.885417 1.73958,-0.541667 2.40625,-0.53125 C3.02083,-0.53125 3.44271,-0.770833 3.67188,-1.25 C3.76563,-1.46875 3.8125,-1.71354 3.8125,-1.98438 C3.8125,-2.63021 3.58333,-3.07813 3.125,-3.32813 C2.91667,-3.44271 2.67708,-3.5 2.40625,-3.5 C2.03125,-3.5 1.70833,-3.38021 1.4375,-3.14063 C1.375,-3.07813 1.3125,-3.01042 1.25,-2.9375 L0.515625,-2.9375 L0.984375,-6.39063 L4.28125,-6.39063 "/>
<path class="Note" fill="#78c7c7" transform="matrix(0.9936,0,0,0.9936,365.548,85.212)" d="M4.39063,-2.75 C5.01563,-2.75 5.54688,-2.58854 5.98438,-2.26563 C6.38021,-1.91146 6.57813,-1.46875 6.57813,-0.9375 C6.57813,-0.0416667 6.11979,0.796875 5.20313,1.57813 C4.26563,2.35938 3.26042,2.75 2.1875,2.75 C1.5625,2.75 1.03646,2.58854 0.609375,2.26563 C0.203125,1.91146 0,1.46875 0,0.9375 C0,0.0416667 0.46875,-0.796875 1.40625,-1.57813 C2.32292,-2.35938 3.31771,-2.75 4.39063,-2.75"/>
<path class="Note" fill="#ffffff" fill-rule="evenodd" d="M323.565,133.65 L329.527,133.65 L329.527,141.102 L323.565,141.102 L323.565,133.65 "/>
<path class="Note" transform="matrix(0.9936,0,0,0.9936,324.062,140.854)" d="M0.453125,-4.17188 C0.494792,-5.64063 1.19792,-6.38021 2.5625,-6.39063 C3.28125,-6.39063 3.83333,-6.14583 4.21875,-5.65625 C4.46875,-5.32292 4.59375,-4.93229 4.59375,-4.48438 C4.59375,-3.68229 4.14583,-3.03125 3.25,-2.53125 L2.34375,-2.04688 C1.79167,-1.75521 1.44271,-1.4375 1.29688,-1.09375 C1.24479,-0.989583 1.21354,-0.869792 1.20313,-0.734375 L4.5625,-0.734375 L4.5625,0 L0.3125,0 C0.354167,-0.760417 0.520833,-1.33854 0.8125,-1.73438 C1.07292,-2.05729 1.5,-2.38542 2.09375,-2.71875 L2.92188,-3.1875 C3.49479,-3.52083 3.78646,-3.94271 3.79688,-4.45313 C3.79688,-4.88021 3.61458,-5.21354 3.25,-5.45313 C3.04167,-5.57813 2.80208,-5.64063 2.53125,-5.64063 C1.73958,-5.64063 1.3125,-5.16667 1.25,-4.21875 C1.25,-4.19792 1.25,-4.18229 1.25,-4.17188 L0.453125,-4.17188 "/>
<path class="Note" fill="#ff9933" transform="matrix(0.9936,0,0,0.9936,322.82,82.728)" d="M4.39063,-2.75 C5.01563,-2.75 5.54688,-2.58854 5.98438,-2.26563 C6.38021,-1.91146 6.57813,-1.46875 6.57813,-0.9375 C6.57813,-0.0416667 6.11979,0.796875 5.20313,1.57813 C4.26563,2.35938 3.26042,2.75 2.1875,2.75 C1.5625,2.75 1.03646,2.58854 0.609375,2.26563 C0.203125,1.91146 0,1.46875 0,0.9375 C0,0.0416667 0.46875,-0.796875 1.40625,-1.57813 C2.32292,-2.35938 3.31771,-2.75 4.39063,-2.75"/>
<path class="Note" fill="#ffffff" fill-rule="evenodd" d="M280.838,133.65 L286.8,133.65 L286.8,141.102 L280.838,141.102 L280.838,133.65 "/>
<path class="Note" transform="matrix(0.9936,0,0,0.9936,281.335,140.854)" d="M4.28125,-6.39063 L4.28125,-5.64063 L1.625,-5.64063 L1.375,-3.8125 C1.73958,-4.09375 2.13542,-4.23438 2.5625,-4.23438 C3.28125,-4.23438 3.83333,-3.97396 4.21875,-3.45313 C4.48958,-3.07813 4.625,-2.625 4.625,-2.09375 C4.625,-1.3125 4.35938,-0.708333 3.82813,-0.28125 C3.44271,0.0416667 2.97917,0.203125 2.4375,0.203125 C1.26042,0.203125 0.557292,-0.359375 0.328125,-1.48438 C0.328125,-1.50521 0.322917,-1.53125 0.3125,-1.5625 L1.10938,-1.5625 C1.30729,-0.885417 1.73958,-0.541667 2.40625,-0.53125 C3.02083,-0.53125 3.44271,-0.770833 3.67188,-1.25 C3.76563,-1.46875 3.8125,-1.71354 3.8125,-1.98438 C3.8125,-2.63021 3.58333,-3.07813 3.125,-3.32813 C2.91667,-3.44271 2.67708,-3.5 2.40625,-3.5 C2.03125,-3.5 1.70833,-3.38021 1.4375,-3.14063 C1.375,-3.07813 1.3125,-3.01042 1.25,-2.9375 L0.515625,-2.9375 L0.984375,-6.39063 L4.28125,-6.39063 "/>
<path class="Note" fill="#99cc33" transform="matrix(0.9936,0,0,0.9936,280.093,77.76)" d="M4.39063,-2.75 C5.01563,-2.75 5.54688,-2.58854 5.98438,-2.26563 C6.38021,-1.91146 6.57813,-1.46875 6.57813,-0.9375 C6.57813,-0.0416667 6.11979,0.796875 5.20313,1.57813 C4.26563,2.35938 3.26042,2.75 2.1875,2.75 C1.5625,2.75 1.03646,2.58854 0.609375,2.26563 C0.203125,1.91146 0,1.46875 0,0.9375 C0,0.0416667 0.46875,-0.796875 1.40625,-1.57813 C2.32292,-2.35938 3.31771,-2.75 4.39063,-2.75"/>
<path class="Note" fill="#ffffff" fill-rule="evenodd" d="M238.11,133.65 L244.072,133.65 L244.072,141.102 L238.11,141.102 L238.11,133.65 "/>
<path class="Note" transform="matrix(0.9936,0,0,0.9936,238.607,140.854)" d="M0.453125,-4.17188 C0.494792,-5.64063 1.19792,-6.38021 2.5625,-6.39063 C3.28125,-6.39063 3.83333,-6.14583 4.21875,-5.65625 C4.46875,-5.32292 4.59375,-4.93229 4.59375,-4.48438 C4.59375,-3.68229 4.14583,-3.03125 3.25,-2.53125 L2.34375,-2.04688 C1.79167,-1.75521 1.44271,-1.4375 1.29688,-1.09375 C1.24479,-0.989583 1.21354,-0.869792 1.20313,-0.734375 L4.5625,-0.734375 L4.5625,0 L0.3125,0 C0.354167,-0.760417 0.520833,-1.33854 0.8125,-1.73438 C1.07292,-2.05729 1.5,-2.38542 2.09375,-2.71875 L2.92188,-3.1875 C3.49479,-3.52083 3.78646,-3.94271 3.79688,-4.45313 C3.79688,-4.88021 3.61458,-5.21354 3.25,-5.45313 C3.04167,-5.57813 2.80208,-5.64063 2.53125,-5.64063 C1.73958,-5.64063 1.3125,-5.16667 1.25,-4.21875 C1.25,-4.19792 1.25,-4.18229 1.25,-4.17188 L0.453125,-4.17188 "/>
<path class="Note" fill="#ff9933" transform="matrix(0.9936,0,0,0.9936,237.365,82.728)" d="M4.39063,-2.75 C5.01563,-2.75 5.54688,-2.58854 5.98438,-2.26563 C6.38021,-1.91146 6.57813,-1.46875 6.57813,-0.9375 C6.57813,-0.0416667 6.11979,0.796875 5.20313,1.57813 C4.26563,2.35938 3.26042,2.75 2.1875,2.75 C1.5625,2.75 1.03646,2.58854 0.609375,2.26563 C0.203125,1.91146 0,1.46875 0,0.9375 C0,0.0416667 0.46875,-0.796875 1.40625,-1.57813 C2.32292,-2.35938 3.31771,-2.75 4.39063,-2.75"/>
<path class="Note" fill="#ffffff" fill-rule="evenodd" d="M195.383,141.102 L201.345,141.102 L201.345,148.554 L195.383,148.554 L195.383,141.102 "/>
<path class="Note" transform="matrix(0.9936,0,0,0.9936,195.88,148.306)" d="M4.28125,-6.39063 L4.28125,-5.64063 L1.625,-5.64063 L1.375,-3.8125 C1.73958,-4.09375 2.13542,-4.23438 2.5625,-4.23438 C3.28125,-4.23438 3.83333,-3.97396 4.21875,-3.45313 C4.48958,-3.07813 4.625,-2.625 4.625,-2.09375 C4.625,-1.3125 4.35938,-0.708333 3.82813,-0.28125 C3.44271,0.0416667 2.97917,0.203125 2.4375,0.203125 C1.26042,0.203125 0.557292,-0.359375 0.328125,-1.48438 C0.328125,-1.50521 0.322917,-1.53125 0.3125,-1.5625 L1.10938,-1.5625 C1.30729,-0.885417 1.73958,-0.541667 2.40625,-0.53125 C3.02083,-0.53125 3.44271,-0.770833 3.67188,-1.25 C3.76563,-1.46875 3.8125,-1.71354 3.8125,-1.98438 C3.8125,-2.63021 3.58333,-3.07813 3.125,-3.32813 C2.91667,-3.44271 2.67708,-3.5 2.40625,-3.5 C2.03125,-3.5 1.70833,-3.38021 1.4375,-3.14063 C1.375,-3.07813 1.3125,-3.01042 1.25,-2.9375 L0.515625,-2.9375 L0.984375,-6.39063 L4.28125,-6.39063 "/>
<path class="Note" fill="#78c7c7" transform="matrix(0.9936,0,0,0.9936,194.638,85.212)" d="M4.39063,-2.75 C5.01563,-2.75 5.54688,-2.58854 5.98438,-2.26563 C6.38021,-1.91146 6.57813,-1.46875 6.57813,-0.9375 C6.57813,-0.0416667 6.11979,0.796875 5.20313,1.57813 C4.26563,2.35938 3.26042,2.75 2.1875,2.75 C1.5625,2.75 1.03646,2.58854 0.609375,2.26563 C0.203125,1.91146 0,1.46875 0,0.9375 C0,0.0416667 0.46875,-0.796875 1.40625,-1.57813 C2.32292,-2.35938 3.31771,-2.75 4.39063,-2.75"/>
<path class="Note" fill="#ffffff" fill-rule="evenodd" d="M152.656,141.102 L158.617,141.102 L158.617,148.554 L152.656,148.554 L152.656,141.102 "/>
<path class="Note" transform="matrix(0.9936,0,0,0.9936,153.152,148.306)" d="M0.453125,-4.17188 C0.494792,-5.64063 1.19792,-6.38021 2.5625,-6.39063 C3.28125,-6.39063 3.83333,-6.14583 4.21875,-5.65625 C4.46875,-5.32292 4.59375,-4.93229 4.59375,-4.48438 C4.59375,-3.68229 4.14583,-3.03125 3.25,-2.53125 L2.34375,-2.04688 C1.79167,-1.75521 1.44271,-1.4375 1.29688,-1.09375 C1.24479,-0.989583 1.21354,-0.869792 1.20313,-0.734375 L4.5625,-0.734375 L4.5625,0 L0.3125,0 C0.354167,-0.760417 0.520833,-1.33854 0.8125,-1.73438 C1.07292,-2.05729 1.5,-2.38542 2.09375,-2.71875 L2.92188,-3.1875 C3.49479,-3.52083 3.78646,-3.94271 3.79688,-4.45313 C3.79688,-4.88021 3.61458,-5.21354 3.25,-5.45313 C3.04167,-5.57813 2.80208,-5.64063 2.53125,-5.64063 C1.73958,-5.64063 1.3125,-5.16667 1.25,-4.21875 C1.25,-4.19792 1.25,-4.18229 1.25,-4.17188 L0.453125,-4.17188 "/>
<path class="Note" fill="#ff9ee6" transform="matrix(0.9936,0,0,0.9936,151.91,90.18)" d="M4.39063,-2.75 C5.01563,-2.75 5.54688,-2.58854 5.98438,-2.26563 C6.38021,-1.91146 6.57813,-1.46875 6.57813,-0.9375 C6.57813,-0.0416667 6.11979,0.796875 5.20313,1.57813 C4.26563,2.35938 3.26042,2.75 2.1875,2.75 C1.5625,2.75 1.03646,2.58854 0.609375,2.26563 C0.203125,1.91146 0,1.46875 0,0.9375 C0,0.0416667 0.46875,-0.796875 1.40625,-1.57813 C2.32292,-2.35938 3.31771,-2.75 4.39063,-2.75"/>
<path class="Note" fill="#ffffff" fill-rule="evenodd" d="M109.928,148.554 L115.89,148.554 L115.89,156.006 L109.928,156.006 L109.928,148.554 "/>
<path class="Note" transform="matrix(0.9936,0,0,0.9936,110.425,155.758)" d="M4.28125,-6.39063 L4.28125,-5.64063 L1.625,-5.64063 L1.375,-3.8125 C1.73958,-4.09375 2.13542,-4.23438 2.5625,-4.23438 C3.28125,-4.23438 3.83333,-3.97396 4.21875,-3.45313 C4.48958,-3.07813 4.625,-2.625 4.625,-2.09375 C4.625,-1.3125 4.35938,-0.708333 3.82813,-0.28125 C3.44271,0.0416667 2.97917,0.203125 2.4375,0.203125 C1.26042,0.203125 0.557292,-0.359375 0.328125,-1.48438 C0.328125,-1.50521 0.322917,-1.53125 0.3125,-1.5625 L1.10938,-1.5625 C1.30729,-0.885417 1.73958,-0.541667 2.40625,-0.53125 C3.02083,-0.53125 3.44271,-0.770833 3.67188,-1.25 C3.76563,-1.46875 3.8125,-1.71354 3.8125,-1.98438 C3.8125,-2.63021 3.58333,-3.07813 3.125,-3.32813 C2.91667,-3.44271 2.67708,-3.5 2.40625,-3.5 C2.03125,-3.5 1.70833,-3.38021 1.4375,-3.14063 C1.375,-3.07813 1.3125,-3.01042 1.25,-2.9375 L0.515625,-2.9375 L0.984375,-6.39063 L4.28125,-6.39063 "/>
<path class="Note" fill="#cc00ff" transform="matrix(0.9936,0,0,0.9936,109.183,92.664)" d="M4.39063,-2.75 C5.01563,-2.75 5.54688,-2.58854 5.98438,-2.26563 C6.38021,-1.91146 6.57813,-1.46875 6.57813,-0.9375 C6.57813,-0.0416667 6.11979,0.796875 5.20313,1.57813 C4.26563,2.35938 3.26042,2.75 2.1875,2.75 C1.5625,2.75 1.03646,2.58854 0.609375,2.26563 C0.203125,1.91146 0,1.46875 0,0.9375 C0,0.0416667 0.46875,-0.796875 1.40625,-1.57813 C2.32292,-2.35938 3.31771,-2.75 4.39063,-2.75"/>
<path class="Note" fill="#ffffff" fill-rule="evenodd" d="M67.2007,148.554 L73.1623,148.554 L73.1623,156.006 L67.2007,156.006 L67.2007,148.554 "/>
<path class="Note" transform="matrix(0.9936,0,0,0.9936,67.6975,155.758)" d="M2.4375,-5.64063 C1.75,-5.64063 1.35417,-5.32813 1.25,-4.70313 C1.22917,-4.59896 1.21875,-4.47917 1.21875,-4.34375 L0.421875,-4.34375 C0.442708,-5.59375 1.01563,-6.27083 2.14063,-6.375 C2.23438,-6.38542 2.32813,-6.39063 2.42188,-6.39063 C3.26563,-6.39063 3.84375,-6.10938 4.15625,-5.54688 C4.29167,-5.28646 4.35938,-4.98438 4.35938,-4.64063 C4.35938,-4.00521 4.0625,-3.57292 3.46875,-3.34375 C4.03125,-3.14583 4.375,-2.81771 4.5,-2.35938 C4.54167,-2.19271 4.5625,-2.00521 4.5625,-1.79688 C4.5625,-1.05729 4.27604,-0.505208 3.70313,-0.140625 C3.33854,0.0885417 2.90104,0.203125 2.39063,0.203125 C1.21354,0.203125 0.526042,-0.348958 0.328125,-1.45313 C0.317708,-1.57813 0.302083,-1.71354 0.28125,-1.85938 L1.07813,-1.85938 C1.13021,-1.08854 1.46875,-0.65625 2.09375,-0.5625 C2.19792,-0.541667 2.30729,-0.53125 2.42188,-0.53125 C3.04688,-0.53125 3.45313,-0.765625 3.64063,-1.23438 C3.71354,-1.40104 3.75,-1.58854 3.75,-1.79688 C3.73958,-2.54688 3.29688,-2.92708 2.42188,-2.9375 L2.09375,-2.92188 L1.98438,-2.92188 L1.98438,-3.67188 C2.66146,-3.68229 3.10417,-3.77604 3.3125,-3.95313 C3.47917,-4.09896 3.5625,-4.31771 3.5625,-4.60938 C3.5625,-5.09896 3.34896,-5.41667 2.92188,-5.5625 C2.77604,-5.61458 2.61458,-5.64063 2.4375,-5.64063"/>
<path class="Note" fill="#99cc33" transform="matrix(0.9936,0,0,0.9936,66.4555,95.148)" d="M4.39063,-2.75 C5.01563,-2.75 5.54688,-2.58854 5.98438,-2.26563 C6.38021,-1.91146 6.57813,-1.46875 6.57813,-0.9375 C6.57813,-0.0416667 6.11979,0.796875 5.20313,1.57813 C4.26563,2.35938 3.26042,2.75 2.1875,2.75 C1.5625,2.75 1.03646,2.58854 0.609375,2.26563 C0.203125,1.91146 0,1.46875 0,0.9375 C0,0.0416667 0.46875,-0.796875 1.40625,-1.57813 C2.32292,-2.35938 3.31771,-2.75 4.39063,-2.75"/>
<path class="Clef" transform="matrix(0.9936,0,0,0.9936,32.0544,133.65)" d="M5.32813,8.5 C5.32813,8.86458 5.04167,9.04688 4.46875,9.04688 C4.02083,9.04688 3.625,8.91146 3.28125,8.64063 C2.95833,8.34896 2.79688,7.98438 2.79688,7.54688 C2.79688,6.76563 3.27083,6.14063 4.21875,5.67188 C5.14583,5.18229 6.23438,4.9375 7.48438,4.9375 C7.96354,4.9375 8.47917,4.97396 9.03125,5.04688 C9.42708,5.09896 9.875,5.20313 10.375,5.35938 C10.8125,5.49479 11.1563,5.70573 11.4063,5.99219 C11.6563,6.27865 11.7813,6.61458 11.7813,7 C11.7813,7.89583 11.3177,8.63021 10.3906,9.20313 C11.7448,9.45313 12.4271,10.0573 12.4375,11.0156 C12.4375,11.8281 12.0729,12.5599 11.3438,13.2109 C10.6146,13.862 9.79167,14.1875 8.875,14.1875 C8.47917,14.1875 8.07813,14.0938 7.67188,13.9063 C7.29688,13.7292 7.03125,13.5625 6.875,13.4063 C6.71875,13.2188 6.64063,13.0781 6.64063,12.9844 C6.64063,12.8594 6.70833,12.75 6.84375,12.6563 C6.95833,12.5417 7.07813,12.4844 7.20313,12.4844 C7.25521,12.4844 7.36719,12.5677 7.53906,12.7344 C7.71094,12.901 7.95833,12.9844 8.28125,12.9844 C8.72917,12.9844 9.16146,12.7969 9.57813,12.4219 C9.97396,12.0573 10.1719,11.6198 10.1719,11.1094 C10.1719,10.6719 9.98438,10.3542 9.60938,10.1563 C9.24479,9.95833 8.76563,9.85938 8.17188,9.85938 C8.06771,9.85938 8.01563,9.75 8.01563,9.53125 C8.01563,9.21875 8.13021,9.0625 8.35938,9.0625 C8.72396,9.0625 9.05208,8.90625 9.34375,8.59375 C9.61458,8.26042 9.75,7.90104 9.75,7.51563 C9.75,7.40104 9.71875,7.22917 9.65625,7 C9.60417,6.84375 9.44792,6.65104 9.1875,6.42188 C8.9375,6.21354 8.58854,6.07292 8.14063,6 C8.02604,6.63542 7.88021,7.44792 7.70313,8.4375 C7.52604,9.42708 7.40625,10.0781 7.34375,10.3906 C7.125,11.5156 6.72396,12.4583 6.14063,13.2188 C5.52604,14.0313 4.86458,14.4375 4.15625,14.4375 C3.9375,14.4375 3.71354,14.3854 3.48438,14.2813 C3.29688,14.1979 3.0625,14.0365 2.78125,13.7969 C2.52083,13.5885 2.34375,13.4479 2.25,13.375 C2.19792,13.3438 2.17188,13.2865 2.17188,13.2031 C2.17188,13.0781 2.21875,12.9635 2.3125,12.8594 C2.41667,12.7344 2.52604,12.6719 2.64063,12.6719 C2.71354,12.6719 2.89323,12.7969 3.17969,13.0469 C3.46615,13.2969 3.76563,13.4219 4.07813,13.4219 C4.68229,13.4219 5.13542,13.0365 5.4375,12.2656 C5.71875,11.526 5.85938,10.6094 5.85938,9.51563 L5.85938,9.35938 C5.85938,8.63021 5.97917,7.54167 6.21875,6.09375 C5.80208,6.22917 5.46875,6.42708 5.21875,6.6875 C4.95833,6.94792 4.82813,7.21875 4.82813,7.5 C4.82813,7.71875 4.91146,7.90625 5.07813,8.0625 C5.24479,8.21875 5.32813,8.36458 5.32813,8.5 M1.40625,2.39063 C1.46875,2.39063 1.625,2.45313 1.875,2.57813 C2.13542,2.71354 2.35938,2.78125 2.54688,2.78125 C3.03646,2.78125 3.64063,2.42188 4.35938,1.70313 C6.43229,-0.411458 7.85938,-2.65104 8.64063,-5.01563 C8.79688,-5.51563 9.17708,-5.76563 9.78125,-5.76563 C10.0938,-5.76563 10.3646,-5.69792 10.5938,-5.5625 C10.8125,-5.42708 10.9219,-5.28646 10.9219,-5.14063 L10.5625,2.17188 C10.5625,2.55729 10.7031,2.75 10.9844,2.75 C11.1198,2.75 11.3281,2.6875 11.6094,2.5625 C11.8698,2.42708 12.026,2.35938 12.0781,2.35938 C12.1823,2.35938 12.2448,2.47396 12.2656,2.70313 C12.2656,2.91146 12.1823,3.04167 12.0156,3.09375 C11.8802,3.125 11.6198,3.24479 11.2344,3.45313 C10.8281,3.66146 10.5104,3.76563 10.2813,3.76563 C9.78125,3.76563 9.42708,3.375 9.21875,2.59375 C8.89583,1.375 8.6875,0.104167 8.59375,-1.21875 C8.07292,-0.552083 7.49479,0.119792 6.85938,0.796875 C7.08854,1.24479 7.51563,1.46875 8.14063,1.46875 C8.23438,1.46875 8.30729,1.46354 8.35938,1.45313 L8.375,1.45313 C8.47917,1.45313 8.53125,1.54688 8.53125,1.73438 C8.53125,1.98438 8.44792,2.13542 8.28125,2.1875 C8.01042,2.28125 7.72396,2.32813 7.42188,2.32813 C6.77604,2.32813 6.30729,2.10417 6.01563,1.65625 L5.23438,2.35938 C4.14063,3.29688 3.25,3.76563 2.5625,3.76563 C2.375,3.76563 2.1875,3.73438 2,3.67188 C1.84375,3.60938 1.66146,3.51042 1.45313,3.375 C1.36979,3.34375 1.27865,3.29688 1.17969,3.23438 C1.08073,3.17188 1.02083,3.13542 1,3.125 C0.9375,3.10417 0.90625,3.04688 0.90625,2.95313 C0.90625,2.84896 0.958333,2.72396 1.0625,2.57813 C1.14583,2.45313 1.26042,2.39063 1.40625,2.39063 M5.76563,-10.7969 C5.76563,-10.474 5.48438,-10.3125 4.92188,-10.3125 C4.43229,-10.3125 4.00521,-10.474 3.64063,-10.7969 C3.28646,-11.1302 3.10938,-11.5313 3.10938,-12 C3.10938,-12.4479 3.25,-12.8385 3.53125,-13.1719 C3.83333,-13.5052 4.21875,-13.7552 4.6875,-13.9219 C5.11458,-14.0781 5.59896,-14.2031 6.14063,-14.2969 C6.69271,-14.3594 7.22396,-14.3906 7.73438,-14.3906 C8.03646,-14.3906 8.59896,-14.2552 9.42188,-13.9844 C10.2552,-13.7135 10.8333,-13.5781 11.1563,-13.5781 C11.5625,-13.5781 11.9479,-13.651 12.3125,-13.7969 C12.6042,-13.9219 12.8906,-14.0677 13.1719,-14.2344 C13.3906,-14.3802 13.5104,-14.4531 13.5313,-14.4531 C13.6563,-14.4531 13.7604,-14.4167 13.8438,-14.3438 C13.9479,-14.2396 14,-14.151 14,-14.0781 C14,-13.9948 13.8802,-13.849 13.6406,-13.6406 C13.3802,-13.401 13.0078,-13.1641 12.5234,-12.9297 C12.0391,-12.6953 11.5313,-12.5781 11,-12.5781 C10.7604,-12.5781 10.4688,-12.6198 10.125,-12.7031 C9.89583,-11.2552 9.66146,-9.96875 9.42188,-8.84375 C9.21354,-7.85417 8.79688,-6.98958 8.17188,-6.25 C7.56771,-5.51042 6.89583,-5.14063 6.15625,-5.14063 C5.85417,-5.14063 5.58854,-5.19792 5.35938,-5.3125 C5.09896,-5.44792 4.82292,-5.64583 4.53125,-5.90625 C4.30208,-6.09375 4.08333,-6.26563 3.875,-6.42188 C3.82292,-6.46354 3.79688,-6.52604 3.79688,-6.60938 C3.79688,-6.69271 3.84896,-6.80729 3.95313,-6.95313 C4.05729,-7.06771 4.15104,-7.125 4.23438,-7.125 C4.31771,-7.125 4.54167,-6.96354 4.90625,-6.64063 C5.27083,-6.31771 5.59375,-6.15625 5.875,-6.15625 C6.39583,-6.15625 6.80208,-6.45313 7.09375,-7.04688 C7.375,-7.64063 7.53646,-8.34375 7.57813,-9.15625 C7.64063,-10.5 7.79167,-11.8906 8.03125,-13.3281 C7.73958,-13.3906 7.52604,-13.4219 7.39063,-13.4219 C6.76563,-13.4219 6.22917,-13.2917 5.78125,-13.0313 C5.34375,-12.7813 5.125,-12.4427 5.125,-12.0156 C5.125,-11.7031 5.22917,-11.4635 5.4375,-11.2969 C5.65625,-11.1094 5.76563,-10.9427 5.76563,-10.7969"/>
<path class="Clef" transform="matrix(0.9936,0,0,0.9936,32.0544,77.76)" d="M7.34375,-5.125 C7.34375,-5.125 7.38542,-5.125 7.46875,-5.125 C7.52083,-5.13542 7.5625,-5.14063 7.59375,-5.14063 C9.05208,-5.14063 10.25,-4.625 11.1875,-3.59375 C12.125,-2.58333 12.5938,-1.40104 12.5938,-0.046875 C12.5938,1.64063 11.901,3.01042 10.5156,4.0625 C10.151,4.35417 9.67188,4.58854 9.07813,4.76563 C9.15104,5.60938 9.1875,6.29167 9.1875,6.8125 C9.1875,6.91667 9.17188,7.29688 9.14063,7.95313 C9.08854,9.16146 8.67188,10.2083 7.89063,11.0938 C7.14063,11.9688 6.20313,12.4063 5.07813,12.4063 C4.02604,12.4063 3.13021,12.0365 2.39063,11.2969 C1.64063,10.5365 1.26563,9.625 1.26563,8.5625 C1.26563,8 1.48438,7.52083 1.92188,7.125 C2.35938,6.73958 2.86979,6.54688 3.45313,6.54688 C3.97396,6.54688 4.41146,6.75 4.76563,7.15625 C5.13021,7.53125 5.3125,8 5.3125,8.5625 C5.3125,9.0625 5.13021,9.49479 4.76563,9.85938 C4.40104,10.224 3.96354,10.4063 3.45313,10.4063 C3.24479,10.4063 3.04688,10.3698 2.85938,10.2969 C3.43229,11.1406 4.19271,11.5625 5.14063,11.5625 C6.03646,11.5625 6.77083,11.1979 7.34375,10.4688 C7.94792,9.71875 8.27604,8.83854 8.32813,7.82813 C8.34896,7.20313 8.35938,6.84896 8.35938,6.76563 C8.35938,6.03646 8.33333,5.4375 8.28125,4.96875 C7.63542,5.07292 7.05729,5.125 6.54688,5.125 C4.73438,5.125 3.19271,4.40625 1.92188,2.96875 C0.671875,1.52083 0.046875,-0.197917 0.046875,-2.1875 C0.046875,-2.60417 0.0833333,-3.02604 0.15625,-3.45313 C0.239583,-3.80729 0.338542,-4.19271 0.453125,-4.60938 C0.515625,-4.84896 0.692708,-5.22917 0.984375,-5.75 C1.08854,-5.90625 1.20573,-6.10156 1.33594,-6.33594 C1.46615,-6.57031 1.55729,-6.72396 1.60938,-6.79688 C1.73438,-7.05729 1.98438,-7.41146 2.35938,-7.85938 C2.46354,-7.97396 2.57292,-8.10156 2.6875,-8.24219 C2.80208,-8.38281 2.89844,-8.5 2.97656,-8.59375 C3.05469,-8.6875 3.11198,-8.76042 3.14844,-8.8125 C3.1849,-8.86458 3.47917,-9.20833 4.03125,-9.84375 C4.15625,-9.97917 4.28125,-10.1198 4.40625,-10.2656 C4.53125,-10.4115 4.63281,-10.5286 4.71094,-10.6172 C4.78906,-10.7057 4.84896,-10.7656 4.89063,-10.7969 C4.42188,-12.349 4.125,-13.5885 4,-14.5156 C3.91667,-15.2552 3.875,-16.2708 3.875,-17.5625 C3.875,-18.6979 4.13542,-19.7604 4.65625,-20.75 C5.15625,-21.7708 5.86458,-22.6094 6.78125,-23.2656 C6.84375,-23.3073 6.90625,-23.3281 6.96875,-23.3281 C7.0625,-23.3281 7.13021,-23.3073 7.17188,-23.2656 C7.86979,-22.4219 8.47396,-21.3229 8.98438,-19.9688 C9.50521,-18.6146 9.76563,-17.3802 9.76563,-16.2656 C9.76563,-15.0156 9.46875,-13.8438 8.875,-12.75 C8.19792,-11.5938 7.32292,-10.3958 6.25,-9.15625 C6.52083,-8.30208 6.88542,-6.95833 7.34375,-5.125 M9,3.96875 C9.67708,3.71875 10.2083,3.29688 10.5938,2.70313 C11.0104,2.13021 11.2188,1.48438 11.2188,0.765625 C11.2188,-0.161458 10.9063,-0.984375 10.2813,-1.70313 C9.63542,-2.44271 8.81771,-2.85938 7.82813,-2.95313 C8.39063,-0.203125 8.78125,2.10417 9,3.96875 M1.45313,-0.546875 C1.45313,0.744792 1.97396,1.88021 3.01563,2.85938 C4.07813,3.80729 5.27604,4.28125 6.60938,4.28125 C7.15104,4.28125 7.68229,4.23958 8.20313,4.15625 C7.99479,2.17708 7.58333,-0.192708 6.96875,-2.95313 C6.22917,-2.86979 5.64063,-2.60938 5.20313,-2.17188 C4.76563,-1.71354 4.54688,-1.19792 4.54688,-0.625 C4.54688,0.364583 5.07813,1.16667 6.14063,1.78125 C6.22396,1.875 6.26563,1.97396 6.26563,2.07813 C6.26563,2.18229 6.22396,2.27604 6.14063,2.35938 C6.05729,2.45313 5.95833,2.5 5.84375,2.5 C5.83333,2.5 5.77604,2.48958 5.67188,2.46875 C4.92188,2.0625 4.34896,1.54167 3.95313,0.90625 C3.56771,0.21875 3.375,-0.46875 3.375,-1.15625 C3.375,-2.05208 3.65625,-2.86458 4.21875,-3.59375 C4.80208,-4.32292 5.5625,-4.79167 6.5,-5 C6.13542,-6.45833 5.83854,-7.59896 5.60938,-8.42188 C5.40104,-8.18229 5.15104,-7.89844 4.85938,-7.57031 C4.56771,-7.24219 4.39583,-7.04167 4.34375,-6.96875 C3.875,-6.36458 3.51563,-5.89063 3.26563,-5.54688 C2.81771,-4.93229 2.48958,-4.40625 2.28125,-3.96875 C2.0625,-3.46875 1.86979,-2.92708 1.70313,-2.34375 C1.53646,-1.78125 1.45313,-1.18229 1.45313,-0.546875 M7.96875,-20.4063 C6.98958,-19.9271 6.22396,-19.2396 5.67188,-18.3438 C5.09896,-17.4167 4.8125,-16.4219 4.8125,-15.3594 C4.8125,-14.4219 5.04688,-13.1563 5.51563,-11.5625 C6.45313,-12.6979 7.15625,-13.7448 7.625,-14.7031 C8.11458,-15.724 8.35938,-16.7865 8.35938,-17.8906 C8.35938,-18.724 8.22917,-19.5625 7.96875,-20.4063 M5.82813,15.2344 C6.16146,14.901 6.32813,14.5625 6.32813,14.2188 C6.30729,13.9479 6.19271,13.7396 5.98438,13.5938 C5.74479,13.4375 5.46875,13.3594 5.15625,13.3594 C4.9375,13.3594 4.75521,13.4323 4.60938,13.5781 C4.48438,13.7031 4.42188,13.8646 4.42188,14.0625 C4.42188,14.3021 4.51563,14.4792 4.70313,14.5938 L5.82813,15.2344 M6.14063,15.4063 C6.68229,15.7083 6.95313,16.1146 6.95313,16.625 L6.95313,16.6875 C6.95313,17.0833 6.79167,17.4219 6.46875,17.7031 C6.14583,17.9844 5.68229,18.125 5.07813,18.125 C4.58854,18.125 4.16146,17.9948 3.79688,17.7344 C3.43229,17.4844 3.25,17.1458 3.25,16.7188 C3.25,16.5521 3.29167,16.3958 3.375,16.25 C3.47917,16.0833 3.56771,15.9688 3.64063,15.9063 L4,15.5313 C3.60417,15.2604 3.40625,14.901 3.40625,14.4531 C3.40625,14.099 3.5625,13.7865 3.875,13.5156 C4.19792,13.2552 4.625,13.125 5.15625,13.125 C5.60417,13.125 5.98438,13.224 6.29688,13.4219 C6.60938,13.6198 6.76563,13.8854 6.76563,14.2188 C6.76563,14.5729 6.55729,14.9688 6.14063,15.4063 M4.29688,15.7031 C3.91146,16.0469 3.70313,16.3854 3.67188,16.7188 C3.70313,17.0729 3.84896,17.3542 4.10938,17.5625 C4.39063,17.7813 4.71354,17.8906 5.07813,17.8906 C5.33854,17.8906 5.54688,17.8073 5.70313,17.6406 C5.85938,17.4844 5.9375,17.2969 5.9375,17.0781 C5.92708,16.7865 5.8125,16.5781 5.59375,16.4531 L4.29688,15.7031 "/>
<path class="KeySig" transform="matrix(0.9936,0,0,0.9936,49.3492,62.856)" d="M4.3125,6.23438 C4.3125,6.48438 4.1901,6.60938 3.94531,6.60938 C3.70052,6.60938 3.57813,6.48438 3.57813,6.23438 L3.57813,3.34375 L1.92188,3.96875 L1.92188,7.125 C1.92188,7.375 1.79688,7.5 1.54688,7.5 C1.29688,7.5 1.17188,7.375 1.17188,7.125 L1.17188,4.21875 L0.546875,4.45313 C0.536458,4.46354 0.484375,4.46875 0.390625,4.46875 C0.286458,4.46875 0.195313,4.42969 0.117188,4.35156 C0.0390625,4.27344 0,4.18229 0,4.07813 L0,2.875 C0,2.67708 0.0833333,2.55208 0.25,2.5 L1.17188,2.1875 L1.17188,-1.01563 L0.546875,-0.796875 C0.536458,-0.786458 0.484375,-0.78125 0.390625,-0.78125 C0.286458,-0.78125 0.195313,-0.820313 0.117188,-0.898438 C0.0390625,-0.976563 0,-1.06771 0,-1.17188 L0,-2.39063 C0,-2.56771 0.0833333,-2.68229 0.25,-2.73438 L1.17188,-3.09375 L1.17188,-6.23438 C1.17188,-6.48438 1.29688,-6.60938 1.54688,-6.60938 C1.79688,-6.60938 1.92188,-6.48438 1.92188,-6.23438 L1.92188,-3.34375 L3.57813,-3.96875 L3.57813,-7.125 C3.57813,-7.375 3.70052,-7.5 3.94531,-7.5 C4.1901,-7.5 4.3125,-7.375 4.3125,-7.125 L4.3125,-4.21875 L4.96875,-4.45313 C4.97917,-4.46354 5.02083,-4.46875 5.09375,-4.46875 C5.1875,-4.46875 5.28646,-4.43229 5.39063,-4.35938 C5.47396,-4.27604 5.51563,-4.18229 5.51563,-4.07813 L5.51563,-2.875 C5.51563,-2.6875 5.42188,-2.5625 5.23438,-2.5 L4.3125,-2.1875 L4.3125,1.01563 L4.96875,0.796875 C4.97917,0.786458 5.02083,0.78125 5.09375,0.78125 C5.1875,0.78125 5.28646,0.822917 5.39063,0.90625 C5.47396,0.979167 5.51563,1.06771 5.51563,1.17188 L5.51563,2.39063 C5.51563,2.55729 5.42188,2.67188 5.23438,2.73438 L4.3125,3.09375 L4.3125,6.23438 M3.57813,-1.89063 L1.92188,-1.3125 L1.92188,1.89063 L3.57813,1.3125 L3.57813,-1.89063 "/>
<path class="Fingering" d="M487.317,93.8355 C487.556,92.8147 488.082,92.2886 488.895,92.2574 C488.926,92.2574 488.952,92.2574 488.973,92.2574 C489.463,92.2574 489.853,92.4345 490.145,92.7886 C490.353,93.049 490.457,93.3407 490.457,93.6636 C490.457,94.2574 490.14,94.898 489.504,95.5855 C489.483,95.6063 489.457,95.6272 489.426,95.648 L488.098,97.0699 L490.004,97.0699 C490.213,97.0699 490.374,97.0126 490.489,96.898 C490.561,96.8251 490.65,96.7053 490.754,96.5386 L490.864,96.5699 L490.426,97.648 L487.301,97.648 L487.301,97.5542 L488.723,96.0386 C489.4,95.299 489.749,94.6063 489.77,93.9605 C489.77,93.5126 489.598,93.1897 489.254,92.9917 C489.077,92.8876 488.874,92.8355 488.645,92.8355 C488.291,92.8355 488.015,92.9709 487.817,93.2417 C487.702,93.398 487.593,93.6115 487.489,93.8824 L487.317,93.8355 "/>
<path class="Fingering" d="M448.3,93.3515 L448.3,93.8359 L447.472,93.8359 L447.472,95.164 L446.862,95.164 L446.862,93.8359 L444.612,93.8359 L444.612,93.3515 L447.128,89.7577 L447.472,89.7577 L447.472,93.3515 L448.3,93.3515 M446.847,93.3515 L446.847,90.6015 L444.94,93.3515 L446.847,93.3515 "/>
<path class="Fingering" d="M403.26,87.9456 C403.145,87.9456 402.953,88.0029 402.682,88.1175 L402.682,88.0081 L404.119,87.2737 L404.182,87.2894 L404.182,92.0862 C404.182,92.2946 404.244,92.43 404.369,92.4925 C404.473,92.5342 404.666,92.555 404.947,92.555 L404.947,92.68 L402.729,92.68 L402.729,92.555 C403.083,92.5446 403.307,92.4821 403.4,92.3675 C403.463,92.2737 403.494,92.1279 403.494,91.93 L403.494,88.3206 C403.484,88.0706 403.406,87.9456 403.26,87.9456"/>
<path class="Fingering" d="M362.845,85.8995 L362.845,86.3839 L362.017,86.3839 L362.017,87.712 L361.407,87.712 L361.407,86.3839 L359.157,86.3839 L359.157,85.8995 L361.673,82.3057 L362.017,82.3057 L362.017,85.8995 L362.845,85.8995 M361.392,85.8995 L361.392,83.1495 L359.486,85.8995 L361.392,85.8995 "/>
<path class="Fingering" d="M317.805,80.4936 C317.69,80.4936 317.498,80.5509 317.227,80.6655 L317.227,80.5561 L318.664,79.8217 L318.727,79.8374 L318.727,84.6342 C318.727,84.8426 318.789,84.978 318.914,85.0405 C319.018,85.0822 319.211,85.103 319.492,85.103 L319.492,85.228 L317.274,85.228 L317.274,85.103 C317.628,85.0926 317.852,85.0301 317.946,84.9155 C318.008,84.8217 318.039,84.6759 318.039,84.478 L318.039,80.8686 C318.029,80.6186 317.951,80.4936 317.805,80.4936"/>
<path class="Fingering" d="M277.39,78.4475 L277.39,78.9319 L276.562,78.9319 L276.562,80.26 L275.952,80.26 L275.952,78.9319 L273.702,78.9319 L273.702,78.4475 L276.218,74.8537 L276.562,74.8537 L276.562,78.4475 L277.39,78.4475 M275.937,78.4475 L275.937,75.6975 L274.031,78.4475 L275.937,78.4475 "/>
<path class="Fingering" d="M232.35,80.4936 C232.235,80.4936 232.043,80.5509 231.772,80.6655 L231.772,80.5561 L233.209,79.8217 L233.272,79.8374 L233.272,84.6342 C233.272,84.8426 233.334,84.978 233.459,85.0405 C233.564,85.0822 233.756,85.103 234.038,85.103 L234.038,85.228 L231.819,85.228 L231.819,85.103 C232.173,85.0926 232.397,85.0301 232.491,84.9155 C232.553,84.8217 232.584,84.6759 232.584,84.478 L232.584,80.8686 C232.574,80.6186 232.496,80.4936 232.35,80.4936"/>
<path class="Fingering" d="M191.935,85.8995 L191.935,86.3839 L191.107,86.3839 L191.107,87.712 L190.498,87.712 L190.498,86.3839 L188.248,86.3839 L188.248,85.8995 L190.763,82.3057 L191.107,82.3057 L191.107,85.8995 L191.935,85.8995 M190.482,85.8995 L190.482,83.1495 L188.576,85.8995 L190.482,85.8995 "/>
<path class="Fingering" d="M146.895,87.9456 C146.781,87.9456 146.588,88.0029 146.317,88.1175 L146.317,88.0081 L147.755,87.2737 L147.817,87.2894 L147.817,92.0862 C147.817,92.2946 147.88,92.43 148.005,92.4925 C148.109,92.5342 148.301,92.555 148.583,92.555 L148.583,92.68 L146.364,92.68 L146.364,92.555 C146.718,92.5446 146.942,92.4821 147.036,92.3675 C147.098,92.2737 147.13,92.1279 147.13,91.93 L147.13,88.3206 C147.119,88.0706 147.041,87.9456 146.895,87.9456"/>
<path class="Fingering" d="M106.48,93.3515 L106.48,93.8359 L105.652,93.8359 L105.652,95.164 L105.043,95.164 L105.043,93.8359 L102.793,93.8359 L102.793,93.3515 L105.308,89.7577 L105.652,89.7577 L105.652,93.3515 L106.48,93.3515 M105.027,93.3515 L105.027,90.6015 L103.121,93.3515 L105.027,93.3515 "/>
<path class="Fingering" d="M60.2215,93.8355 C60.4611,92.8147 60.9871,92.2886 61.7996,92.2574 C61.8308,92.2574 61.8569,92.2574 61.8777,92.2574 C62.3673,92.2574 62.7579,92.4345 63.0496,92.7886 C63.2579,93.049 63.3621,93.3407 63.3621,93.6636 C63.3621,94.2574 63.0444,94.898 62.409,95.5855 C62.3881,95.6063 62.3621,95.6272 62.3308,95.648 L61.0027,97.0699 L62.909,97.0699 C63.1173,97.0699 63.2788,97.0126 63.3933,96.898 C63.4663,96.8251 63.5548,96.7053 63.659,96.5386 L63.7683,96.5699 L63.3308,97.648 L60.2058,97.648 L60.2058,97.5542 L61.6277,96.0386 C62.3048,95.299 62.6538,94.6063 62.6746,93.9605 C62.6746,93.5126 62.5027,93.1897 62.159,92.9917 C61.9819,92.8876 61.7788,92.8355 61.5496,92.8355 C61.1954,92.8355 60.9194,92.9709 60.7215,93.2417 C60.6069,93.398 60.4975,93.6115 60.3933,93.8824 L60.2215,93.8355 "/>
<path class="Tempo" d="M60.2121,40.4371 C60.0089,40.2809 59.7589,40.1871 59.4464,40.1871 C58.2589,40.1871 57.3058,41.0621 57.3058,41.9996 C57.3058,42.5621 57.7589,42.9059 58.3527,42.9059 C59.3058,42.9059 60.4933,41.9996 60.4933,41.0934 L60.4933,34.9527 L60.2121,34.9527 L60.2121,40.4371 "/>
<path class="Tempo" d="M70.8527,39.0152 L64.2433,39.0152 L64.2433,37.859 L70.8527,37.859 L70.8527,39.0152 M70.8527,41.9371 L64.2433,41.9371 L64.2433,40.7965 L70.8527,40.7965 L70.8527,41.9371 M76.2902,36.0465 C76.1652,36.0465 75.8475,36.1402 75.3371,36.3277 C75.3058,36.3382 75.285,36.3486 75.2746,36.359 L75.2746,36.0465 L78.2902,34.734 L78.4933,34.734 L78.4933,41.5621 C78.4933,42.0517 78.5923,42.3642 78.7902,42.4996 C78.9673,42.6246 79.3006,42.6923 79.7902,42.7027 L79.7902,42.984 L75.2902,42.984 L75.2902,42.7027 C75.9464,42.6923 76.3579,42.5882 76.5246,42.3902 C76.66,42.2236 76.7277,41.9267 76.7277,41.4996 L76.7277,36.8746 C76.7173,36.333 76.5714,36.0569 76.2902,36.0465 M80.8683,37.1715 C81.4204,35.6819 82.1964,34.8746 83.1964,34.7496 C83.3006,34.7392 83.4048,34.734 83.5089,34.734 C84.3006,34.734 84.9048,35.0205 85.3214,35.5934 C85.5923,35.9788 85.7277,36.4215 85.7277,36.9215 C85.7277,37.7861 85.3006,38.6298 84.4464,39.4527 C84.4048,39.484 84.3735,39.5152 84.3527,39.5465 L82.4152,41.3902 L84.2277,41.3902 C84.8631,41.3902 85.2694,41.333 85.4464,41.2184 C85.6131,41.1038 85.7746,40.8486 85.9308,40.4527 L86.2277,40.4527 L85.6808,42.984 L80.6964,42.984 L80.6964,42.7027 C82.3631,40.9215 83.3891,39.6455 83.7746,38.8746 C83.9829,38.4475 84.0871,38.0309 84.0871,37.6246 C84.0871,37.0934 83.8944,36.6767 83.5089,36.3746 C83.2694,36.1871 82.9881,36.0934 82.6652,36.0934 C82.0714,36.0934 81.6027,36.4215 81.2589,37.0777 C81.2381,37.109 81.2173,37.1402 81.1964,37.1715 L80.8683,37.1715 M86.7746,38.9059 C86.7746,37.5934 87.0871,36.5309 87.7121,35.7184 C88.2225,35.0725 88.8162,34.7444 89.4933,34.734 C90.2746,34.734 90.9204,35.1402 91.4308,35.9527 C91.9412,36.7652 92.1964,37.76 92.1964,38.9371 C92.1964,40.3121 91.8787,41.4059 91.2433,42.2184 C90.7433,42.8225 90.1652,43.1298 89.5089,43.1402 C88.6756,43.1402 88.0037,42.7132 87.4933,41.859 C87.0141,41.0673 86.7746,40.083 86.7746,38.9059 M89.5089,42.7965 C89.8631,42.7965 90.0975,42.4736 90.2121,41.8277 C90.2746,41.4423 90.3058,40.9423 90.3058,40.3277 L90.3058,37.5777 C90.3058,36.1402 90.1131,35.3225 89.7277,35.1246 C89.6548,35.083 89.5714,35.0621 89.4777,35.0621 C89.1131,35.0621 88.8735,35.3955 88.7589,36.0621 C88.7069,36.4371 88.6808,36.9423 88.6808,37.5777 L88.6808,40.3277 C88.6808,41.6819 88.8475,42.4736 89.1808,42.7027 C89.2746,42.7652 89.3839,42.7965 89.5089,42.7965"/>
<path class="StaffText" d="M67.5805,58.839 L67.5805,54.4015 C67.5805,54.0161 67.5128,53.7765 67.3773,53.6828 C67.2628,53.589 67.0076,53.5318 66.6117,53.5109 L66.6117,53.3234 L69.5805,53.3234 L69.5805,53.5109 C69.1221,53.5318 68.8409,53.6047 68.7367,53.7297 C68.643,53.8547 68.5961,54.0786 68.5961,54.4015 L68.5961,58.839 C68.5961,59.2349 68.6742,59.4849 68.8305,59.589 C68.9555,59.6828 69.2055,59.7349 69.5805,59.7453 L69.5805,59.9328 L66.6117,59.9328 L66.6117,59.7453 C67.0596,59.7349 67.3357,59.662 67.4398,59.5265 C67.5336,59.4015 67.5805,59.1724 67.5805,58.839 M70.5805,58.839 L70.5805,54.4015 C70.5805,54.0161 70.5128,53.7765 70.3773,53.6828 C70.2628,53.589 70.0076,53.5318 69.6117,53.5109 L69.6117,53.3234 L72.5805,53.3234 L72.5805,53.5109 C72.1221,53.5318 71.8409,53.6047 71.7367,53.7297 C71.643,53.8547 71.5961,54.0786 71.5961,54.4015 L71.5961,58.839 C71.5961,59.2349 71.6742,59.4849 71.8305,59.589 C71.9555,59.6828 72.2055,59.7349 72.5805,59.7453 L72.5805,59.9328 L69.6117,59.9328 L69.6117,59.7453 C70.0596,59.7349 70.3357,59.662 70.4398,59.5265 C70.5336,59.4015 70.5805,59.1724 70.5805,58.839"/>
<path class="StaffText" d="M69.7868,25.2057 C70.2347,25.2057 70.7347,25.3203 71.2868,25.5495 C71.5264,25.6432 71.6983,25.6901 71.8024,25.6901 C71.9483,25.6901 72.0785,25.5807 72.193,25.362 C72.2035,25.3203 72.2191,25.2787 72.2399,25.237 L72.5055,25.237 L72.5055,27.5807 L72.2555,27.5807 C71.9847,26.9766 71.7035,26.5339 71.4118,26.2526 C71.3493,26.1901 71.292,26.138 71.2399,26.0964 C70.8128,25.7214 70.3701,25.5339 69.9118,25.5339 C68.9118,25.5339 68.318,26.2526 68.1305,27.6901 C68.0993,28.013 68.0837,28.362 68.0837,28.737 C68.0837,29.9245 68.2972,30.7943 68.7243,31.3464 C69.0576,31.763 69.516,31.9714 70.0993,31.9714 C70.6618,31.9714 70.9795,31.7943 71.0524,31.4401 C71.0628,31.3776 71.068,31.3099 71.068,31.237 L71.068,30.1901 C71.068,29.8985 70.9951,29.711 70.8493,29.6276 C70.7035,29.5547 70.4378,29.5078 70.0524,29.487 L70.0524,29.237 L73.4899,29.237 L73.4899,29.487 C73.0837,29.5287 72.8337,29.6172 72.7399,29.7526 C72.667,29.8672 72.6305,30.086 72.6305,30.4089 L72.6305,31.6745 C72.0368,32.0287 71.2503,32.237 70.2712,32.2995 C70.1358,32.2995 70.0003,32.2995 69.8649,32.2995 C68.7503,32.2995 67.8597,31.9401 67.193,31.2214 C66.5993,30.5755 66.3024,29.7682 66.3024,28.7995 C66.3024,27.7578 66.6462,26.8932 67.3337,26.2057 C68.0003,25.5391 68.818,25.2057 69.7868,25.2057 M77.5524,28.8307 C77.3337,28.8307 77.1201,28.711 76.9118,28.4714 C76.7972,28.3255 76.7139,28.2474 76.6618,28.237 C76.443,28.237 76.2764,28.388 76.1618,28.6901 C76.0889,28.8464 76.0524,29.013 76.0524,29.1901 L76.0524,31.0807 C76.0524,31.4453 76.1253,31.6693 76.2712,31.7526 C76.3649,31.8151 76.5368,31.8568 76.7868,31.8776 L76.7868,32.112 L74.1462,32.112 L74.1462,31.8776 C74.417,31.8255 74.5785,31.7318 74.6305,31.5964 C74.6514,31.5235 74.6618,31.4141 74.6618,31.2682 L74.6618,28.3307 C74.6618,28.0703 74.5889,27.9037 74.443,27.8307 C74.3701,27.7891 74.2712,27.7578 74.1462,27.737 L74.1462,27.5026 L76.0212,27.5026 L76.0212,28.3307 C76.3962,27.7787 76.766,27.4714 77.1305,27.4089 C77.2139,27.388 77.292,27.3776 77.3649,27.3776 C77.7087,27.3776 77.9535,27.5182 78.0993,27.7995 C78.1514,27.9141 78.1774,28.0339 78.1774,28.1589 C78.1774,28.4714 78.0524,28.6797 77.8024,28.7839 C77.7191,28.8151 77.6358,28.8307 77.5524,28.8307 M79.4274,28.0807 C79.4274,28.112 79.4795,28.2057 79.5837,28.362 C79.6774,28.5078 79.7243,28.6328 79.7243,28.737 C79.7243,28.9974 79.5941,29.1745 79.3337,29.2682 C79.2399,29.2995 79.1462,29.3151 79.0524,29.3151 C78.6878,29.3151 78.4743,29.1537 78.4118,28.8307 C78.4014,28.7682 78.3962,28.711 78.3962,28.6589 C78.3962,28.1901 78.6514,27.8412 79.1618,27.612 C79.4847,27.4557 79.8597,27.3776 80.2868,27.3776 C81.1618,27.3776 81.7608,27.6172 82.0837,28.0964 C82.2087,28.2943 82.2712,28.5182 82.2712,28.7682 L82.2712,31.3464 C82.2816,31.5026 82.3493,31.586 82.4743,31.5964 C82.5264,31.586 82.5628,31.5703 82.5837,31.5495 L82.693,31.4557 L82.8337,31.6589 C82.4378,32.0339 82.068,32.2318 81.7243,32.2526 C81.3493,32.2526 81.1045,32.112 80.9899,31.8307 C80.9587,31.737 80.9274,31.638 80.8962,31.5339 C80.3545,32.0026 79.8285,32.2422 79.318,32.2526 C78.8805,32.2526 78.5628,32.086 78.3649,31.7526 C78.2608,31.586 78.2087,31.4037 78.2087,31.2057 C78.2087,30.6224 78.6566,30.1485 79.5524,29.7839 C79.792,29.6797 80.2399,29.5287 80.8962,29.3307 L80.8962,28.5964 C80.8962,28.0651 80.6774,27.7735 80.2399,27.7214 C80.1774,27.7214 80.1149,27.7214 80.0524,27.7214 C79.7608,27.7214 79.5628,27.8047 79.4587,27.9714 C79.4378,28.0026 79.4274,28.0391 79.4274,28.0807 M80.8805,31.0964 L80.8805,29.6589 C80.0785,29.8776 79.6722,30.2787 79.6618,30.862 C79.6618,31.1953 79.7712,31.4037 79.9899,31.487 C80.0524,31.5078 80.1149,31.5182 80.1774,31.5182 C80.4066,31.5182 80.641,31.3776 80.8805,31.0964 M86.3493,32.237 L86.3493,31.5964 C85.9951,31.9714 85.6514,32.1849 85.318,32.237 C85.2243,32.2474 85.1253,32.2526 85.0212,32.2526 C84.4274,32.2526 83.9587,31.9766 83.6149,31.4245 C83.3441,30.9974 83.2087,30.4922 83.2087,29.9089 C83.2087,29.0547 83.4535,28.3828 83.943,27.8932 C84.2764,27.5495 84.6722,27.3776 85.1305,27.3776 C85.4847,27.3776 85.8076,27.513 86.0993,27.7839 C86.1826,27.8568 86.2555,27.9245 86.318,27.987 L86.318,26.1745 C86.318,25.9245 86.2608,25.7682 86.1462,25.7057 C86.042,25.6537 85.8441,25.6172 85.5524,25.5964 L85.5524,25.362 L87.7087,25.362 L87.7087,31.112 C87.7087,31.3932 87.792,31.5651 87.9587,31.6276 C88.042,31.6589 88.1566,31.6797 88.3024,31.6901 L88.3024,31.9245 L87.6774,32.0026 C87.1253,32.0755 86.6826,32.1537 86.3493,32.237 M85.4743,31.7057 C85.766,31.7057 86.016,31.5391 86.2243,31.2057 C86.2764,31.112 86.3076,31.0443 86.318,31.0026 L86.318,28.5495 C86.193,28.2162 85.9847,28.0182 85.693,27.9557 C85.641,27.9453 85.5889,27.9401 85.5368,27.9401 C85.0264,27.9401 84.7451,28.4453 84.693,29.4557 C84.693,29.5703 84.693,29.6953 84.693,29.8307 C84.693,31.0703 84.9535,31.6953 85.4743,31.7057 M90.6462,29.6589 C90.6983,30.6797 90.9639,31.2787 91.443,31.4557 C91.568,31.4974 91.6983,31.5182 91.8337,31.5182 C92.1983,31.5182 92.5316,31.3516 92.8337,31.0182 C92.8858,30.9662 92.9326,30.9141 92.9743,30.862 L93.2087,31.0026 C92.792,31.6068 92.3805,31.987 91.9743,32.1432 C91.766,32.2162 91.5316,32.2526 91.2712,32.2526 C90.5212,32.2526 89.9587,31.9453 89.5837,31.3307 C89.3337,30.9141 89.2087,30.4141 89.2087,29.8307 C89.2087,28.9349 89.4795,28.263 90.0212,27.8151 C90.3858,27.5235 90.8128,27.3776 91.3024,27.3776 C92.4066,27.3776 93.0264,28.0964 93.1618,29.5339 C93.1618,29.5755 93.1618,29.6172 93.1618,29.6589 L90.6462,29.6589 M91.943,29.1432 C91.9222,28.5182 91.8545,28.1224 91.7399,27.9557 C91.6462,27.7995 91.5003,27.7214 91.3024,27.7214 C91.0108,27.7214 90.8128,27.8932 90.7087,28.237 C90.6462,28.4766 90.6097,28.8307 90.5993,29.2995 L91.943,29.2995 L91.943,29.1432 M96.2712,27.2682 C96.7295,26.0287 97.3805,25.3568 98.2243,25.2526 C98.2972,25.2422 98.3805,25.237 98.4743,25.237 C99.1305,25.237 99.6305,25.4766 99.9743,25.9557 C100.203,26.2787 100.318,26.6485 100.318,27.0651 C100.318,27.7735 99.9587,28.4766 99.2399,29.1745 C99.2191,29.2057 99.1983,29.2266 99.1774,29.237 L97.5524,30.7839 L99.068,30.7839 C99.5993,30.7839 99.9378,30.737 100.084,30.6432 C100.23,30.5495 100.365,30.336 100.49,30.0026 L100.74,30.0026 L100.287,32.112 L96.1305,32.112 L96.1305,31.8776 C97.5264,30.3985 98.3805,29.336 98.693,28.6901 C98.8701,28.336 98.9587,27.987 98.9587,27.6432 C98.9587,27.2057 98.7972,26.862 98.4743,26.612 C98.266,26.4557 98.0316,26.3776 97.7712,26.3776 C97.2712,26.3776 96.8805,26.6485 96.5993,27.1901 C96.5785,27.2214 96.5628,27.2474 96.5524,27.2682 L96.2712,27.2682 M102.615,30.5495 C102.938,30.5495 103.183,30.6901 103.349,30.9714 C103.433,31.1172 103.474,31.263 103.474,31.4089 C103.474,31.7214 103.334,31.961 103.052,32.1276 C102.907,32.2005 102.761,32.237 102.615,32.237 C102.282,32.237 102.037,32.0964 101.881,31.8151 C101.808,31.6797 101.771,31.5391 101.771,31.3932 C101.771,31.0912 101.907,30.8568 102.177,30.6901 C102.313,30.5964 102.459,30.5495 102.615,30.5495 M102.615,27.3932 C102.938,27.3932 103.183,27.5287 103.349,27.7995 C103.433,27.9453 103.474,28.0912 103.474,28.237 C103.474,28.5599 103.334,28.8047 103.052,28.9714 C102.917,29.0443 102.771,29.0807 102.615,29.0807 C102.282,29.0807 102.037,28.9349 101.881,28.6432 C101.808,28.5078 101.771,28.3672 101.771,28.2214 C101.771,27.9193 101.907,27.6849 102.177,27.5182 C102.313,27.4349 102.459,27.3932 102.615,27.3932"/>
<path class="StaffText" d="M110.912,25.7526 C109.839,25.7526 109.11,26.2735 108.724,27.3151 C108.537,27.7839 108.443,28.2995 108.443,28.862 C108.443,30.0391 108.802,30.888 109.521,31.4089 C109.948,31.7214 110.469,31.8776 111.084,31.8776 C111.615,31.8776 112.011,31.763 112.271,31.5339 C112.355,31.4505 112.401,31.3672 112.412,31.2839 L112.412,29.6432 C112.412,29.2474 112.339,28.9974 112.193,28.8932 C112.089,28.8307 111.865,28.7839 111.521,28.7526 L111.521,28.5807 L114.068,28.5807 L114.068,28.7526 C113.735,28.7839 113.532,28.8724 113.459,29.0182 C113.407,29.1224 113.381,29.2943 113.381,29.5339 L113.381,31.5651 C113.099,31.8047 112.584,31.9974 111.834,32.1432 C111.469,32.2162 111.146,32.2526 110.865,32.2526 C109.948,32.2526 109.167,32.0182 108.521,31.5495 C107.719,30.9453 107.313,30.0547 107.302,28.8776 C107.302,27.8151 107.651,26.9505 108.349,26.2839 C108.995,25.6797 109.792,25.3776 110.74,25.3776 C111.146,25.3776 111.62,25.4557 112.162,25.612 C112.328,25.6641 112.453,25.6901 112.537,25.6901 C112.745,25.6901 112.886,25.6016 112.959,25.4245 C112.969,25.4037 112.98,25.388 112.99,25.3776 L113.209,25.3776 L113.287,27.487 L113.052,27.487 C112.75,26.7474 112.381,26.2526 111.943,26.0026 C111.641,25.836 111.297,25.7526 110.912,25.7526 M117.084,28.1589 L117.084,27.987 C117.563,27.8412 118.032,27.6849 118.49,27.5182 L118.552,27.5339 L118.552,28.2995 C119.125,27.862 119.537,27.612 119.787,27.5495 C119.891,27.5287 119.995,27.5182 120.099,27.5182 C120.631,27.5287 120.985,27.8151 121.162,28.3776 C121.693,27.8047 122.24,27.5182 122.802,27.5182 C123.563,27.5287 123.948,28.1276 123.959,29.3151 L123.959,31.362 C123.969,31.7266 124.11,31.9193 124.381,31.9401 L124.646,31.9557 L124.646,32.112 L122.459,32.112 L122.459,31.9557 C122.782,31.9245 122.974,31.8516 123.037,31.737 C123.089,31.6432 123.115,31.4818 123.115,31.2526 L123.115,29.1432 C123.115,28.5912 123.006,28.2578 122.787,28.1432 C122.683,28.0807 122.542,28.0495 122.365,28.0495 C121.917,28.0599 121.552,28.263 121.271,28.6589 L121.271,31.1745 C121.271,31.5495 121.36,31.7839 121.537,31.8776 C121.641,31.9297 121.792,31.9557 121.99,31.9557 L121.99,32.112 L119.756,32.112 L119.756,31.9557 C120.078,31.9349 120.276,31.862 120.349,31.737 C120.412,31.6432 120.443,31.4818 120.443,31.2526 L120.443,29.0964 C120.443,28.3985 120.219,28.0495 119.771,28.0495 C119.407,28.0495 119.084,28.1693 118.802,28.4089 C118.73,28.4818 118.662,28.5599 118.599,28.6432 L118.599,31.4401 C118.599,31.6901 118.688,31.8464 118.865,31.9089 C118.959,31.9401 119.094,31.9557 119.271,31.9557 L119.271,32.112 L117.052,32.112 L117.052,31.9557 C117.407,31.9557 117.62,31.8724 117.693,31.7057 C117.735,31.6016 117.756,31.4557 117.756,31.2682 L117.756,28.7526 C117.756,28.3776 117.677,28.1693 117.521,28.1276 C117.49,28.1172 117.453,28.112 117.412,28.112 C117.308,28.112 117.198,28.1276 117.084,28.1589 M125.209,31.1432 C125.209,30.6328 125.526,30.2005 126.162,29.8464 C126.349,29.7526 126.849,29.5391 127.662,29.2057 C127.683,29.2057 127.698,29.2005 127.709,29.1901 L127.709,28.5807 C127.657,28.0599 127.401,27.7839 126.943,27.7526 C126.631,27.7526 126.412,27.8516 126.287,28.0495 C126.245,28.1224 126.224,28.1849 126.224,28.237 C126.224,28.2995 126.235,28.3828 126.256,28.487 C126.266,28.5599 126.271,28.612 126.271,28.6432 C126.271,28.8203 126.183,28.9453 126.006,29.0182 C125.943,29.0495 125.886,29.0651 125.834,29.0651 C125.646,29.0651 125.516,28.9766 125.443,28.7995 C125.412,28.7474 125.396,28.6901 125.396,28.6276 C125.396,28.263 125.615,27.9662 126.052,27.737 C126.355,27.5912 126.698,27.5182 127.084,27.5182 C127.802,27.5182 128.245,27.7735 128.412,28.2839 C128.485,28.5026 128.521,28.7787 128.521,29.112 L128.521,31.0495 C128.521,31.3828 128.584,31.5703 128.709,31.612 C128.75,31.6224 128.787,31.6276 128.818,31.6276 C128.964,31.6172 129.11,31.5547 129.256,31.4401 L129.256,31.6901 C128.985,32.0026 128.735,32.1745 128.506,32.2057 C128.453,32.2057 128.401,32.2057 128.349,32.2057 C128.037,32.2057 127.839,32.0495 127.756,31.737 C127.735,31.6537 127.724,31.5599 127.724,31.4557 C127.131,31.9349 126.641,32.1849 126.256,32.2057 C125.828,32.2057 125.521,32.0339 125.334,31.6901 C125.25,31.5235 125.209,31.3412 125.209,31.1432 M127.709,30.862 L127.709,29.4245 C126.886,29.7266 126.381,30.0339 126.193,30.3464 C126.12,30.4922 126.084,30.6485 126.084,30.8151 C126.084,31.211 126.23,31.461 126.521,31.5651 C126.594,31.5964 126.662,31.612 126.724,31.612 C126.943,31.6016 127.183,31.5235 127.443,31.3776 C127.589,31.2943 127.672,31.1901 127.693,31.0651 C127.703,31.0026 127.709,30.9349 127.709,30.862 M130.427,28.1901 C130.427,28.1901 130.276,28.2005 129.974,28.2214 L129.974,28.0495 C130.516,27.8828 131.037,27.7057 131.537,27.5182 L131.584,27.5495 L131.584,32.112 C131.584,33.3412 131.172,34.0495 130.349,34.237 C130.203,34.2682 130.052,34.2839 129.896,34.2839 C129.459,34.2839 129.167,34.1745 129.021,33.9557 C128.98,33.8828 128.959,33.8099 128.959,33.737 C128.959,33.5495 129.047,33.4297 129.224,33.3776 C129.276,33.3568 129.323,33.3464 129.365,33.3464 C129.511,33.3464 129.667,33.4505 129.834,33.6589 C130.011,33.8464 130.157,33.9453 130.271,33.9557 C130.5,33.9557 130.641,33.7943 130.693,33.4714 C130.724,33.2735 130.74,32.9714 130.74,32.5651 L130.74,28.7682 C130.74,28.4141 130.662,28.2214 130.506,28.1901 C130.474,28.1901 130.448,28.1901 130.427,28.1901 M131.084,25.2839 C131.302,25.2839 131.459,25.3828 131.552,25.5807 C131.584,25.6537 131.599,25.7266 131.599,25.7995 C131.599,26.0182 131.49,26.1745 131.271,26.2682 C131.209,26.2891 131.146,26.2995 131.084,26.2995 C130.855,26.2995 130.698,26.2005 130.615,26.0026 C130.594,25.9297 130.584,25.862 130.584,25.7995 C130.584,25.5807 130.677,25.4245 130.865,25.3307 C130.938,25.2995 131.011,25.2839 131.084,25.2839 M134.412,27.5182 C135.151,27.5182 135.735,27.7891 136.162,28.3307 C136.464,28.737 136.615,29.2162 136.615,29.7682 C136.615,30.5495 136.36,31.1745 135.849,31.6432 C135.433,32.0182 134.948,32.2057 134.396,32.2057 C133.688,32.2057 133.125,31.9349 132.709,31.3932 C132.375,30.9557 132.209,30.4401 132.209,29.8464 C132.209,29.0339 132.485,28.4089 133.037,27.9714 C133.422,27.6693 133.881,27.5182 134.412,27.5182 M133.115,29.362 C133.115,30.2682 133.302,30.961 133.677,31.4401 C133.917,31.7526 134.198,31.9089 134.521,31.9089 C135.042,31.9089 135.401,31.612 135.599,31.0182 C135.683,30.7578 135.724,30.461 135.724,30.1276 C135.724,29.2422 135.511,28.586 135.084,28.1589 C134.855,27.9297 134.589,27.8151 134.287,27.8151 C133.818,27.8151 133.48,28.0547 133.271,28.5339 C133.167,28.7735 133.115,29.0495 133.115,29.362 M139.974,28.487 C139.87,28.487 139.719,28.4037 139.521,28.237 C139.427,28.1537 139.355,28.112 139.302,28.112 C139.136,28.112 138.964,28.2422 138.787,28.5026 C138.672,28.6693 138.615,28.8151 138.615,28.9401 L138.615,31.2057 C138.615,31.5495 138.703,31.763 138.881,31.8464 C139.006,31.9089 139.198,31.9453 139.459,31.9557 L139.459,32.112 L137.052,32.112 L137.052,31.9557 C137.407,31.8932 137.62,31.8099 137.693,31.7057 C137.745,31.6224 137.771,31.4766 137.771,31.2682 L137.771,28.7526 C137.771,28.388 137.688,28.1901 137.521,28.1589 C137.49,28.1485 137.459,28.1432 137.427,28.1432 C137.313,28.1432 137.198,28.1589 137.084,28.1901 L137.084,28.0339 C137.615,27.8672 138.105,27.6953 138.552,27.5182 L138.615,27.5339 L138.615,28.4245 C138.959,27.9453 139.25,27.6589 139.49,27.5651 C139.594,27.5339 139.698,27.5182 139.802,27.5182 C140.115,27.5182 140.297,27.6485 140.349,27.9089 C140.349,27.9505 140.349,27.9974 140.349,28.0495 C140.318,28.3203 140.193,28.4662 139.974,28.487 M143.099,28.1901 L143.099,28.0182 C143.526,27.8932 144.006,27.7266 144.537,27.5182 L144.599,27.5339 L144.599,28.2995 C145.026,27.7787 145.506,27.5182 146.037,27.5182 C146.599,27.5182 147.042,27.7787 147.365,28.2995 C147.594,28.6849 147.709,29.1328 147.709,29.6432 C147.709,30.4557 147.459,31.1172 146.959,31.6276 C146.573,32.013 146.125,32.2057 145.615,32.2057 C145.282,32.2057 144.99,32.1068 144.74,31.9089 C144.688,31.8776 144.641,31.8412 144.599,31.7995 L144.599,33.362 C144.599,33.7057 144.667,33.9141 144.802,33.987 C144.927,34.0599 145.151,34.0964 145.474,34.0964 L145.474,34.2839 L143.052,34.2839 L143.052,34.112 C143.407,34.0807 143.62,33.9974 143.693,33.862 C143.735,33.7682 143.756,33.6224 143.756,33.4245 L143.756,28.737 C143.756,28.4453 143.703,28.2735 143.599,28.2214 C143.537,28.1901 143.453,28.1745 143.349,28.1745 C143.235,28.1745 143.151,28.1797 143.099,28.1901 M144.599,28.7839 L144.599,31.2526 C144.599,31.4297 144.745,31.5964 145.037,31.7526 C145.245,31.8568 145.443,31.9089 145.631,31.9089 C146.089,31.9089 146.427,31.6537 146.646,31.1432 C146.782,30.8203 146.849,30.4557 146.849,30.0495 C146.849,29.2266 146.641,28.6537 146.224,28.3307 C146.047,28.1849 145.844,28.112 145.615,28.112 C145.313,28.112 145.042,28.2214 144.802,28.4401 C144.677,28.5547 144.61,28.6693 144.599,28.7839 M148.927,29.3464 C148.969,30.5235 149.355,31.2162 150.084,31.4245 C150.209,31.4662 150.344,31.487 150.49,31.487 C150.98,31.487 151.396,31.2787 151.74,30.862 C151.834,30.7474 151.933,30.612 152.037,30.4557 L152.193,30.5182 C151.828,31.4766 151.256,32.0287 150.474,32.1745 C150.339,32.1953 150.209,32.2057 150.084,32.2057 C149.344,32.2057 148.813,31.8932 148.49,31.2682 C148.302,30.8932 148.209,30.461 148.209,29.9714 C148.209,29.086 148.485,28.4141 149.037,27.9557 C149.401,27.6641 149.823,27.5182 150.302,27.5182 C151.219,27.5182 151.771,28.0391 151.959,29.0807 C151.98,29.1745 151.995,29.263 152.006,29.3464 L148.927,29.3464 M148.943,29.0495 L150.99,29.0495 C150.896,28.4766 150.73,28.1224 150.49,27.987 C150.365,27.9245 150.203,27.8932 150.006,27.8932 C149.412,27.8932 149.058,28.2682 148.943,29.0182 C148.943,29.0287 148.943,29.0391 148.943,29.0495 M152.052,28.1276 L152.052,27.9557 C152.552,27.8099 153.016,27.6641 153.443,27.5182 L153.506,27.5339 L153.506,28.3151 C153.985,27.8776 154.36,27.6224 154.631,27.5495 C154.735,27.5287 154.844,27.5182 154.959,27.5182 C155.5,27.5182 155.86,27.7891 156.037,28.3307 C156.099,28.5287 156.131,28.7526 156.131,29.0026 L156.131,31.2995 C156.131,31.612 156.203,31.8047 156.349,31.8776 C156.443,31.9089 156.573,31.9349 156.74,31.9557 L156.74,32.112 L154.662,32.112 L154.662,31.9557 C154.964,31.9349 155.151,31.836 155.224,31.6589 C155.276,31.5443 155.302,31.3672 155.302,31.1276 L155.302,29.0339 C155.282,28.388 155.037,28.0599 154.568,28.0495 C154.318,28.0495 154.058,28.1641 153.787,28.3932 C153.714,28.4662 153.631,28.5443 153.537,28.6276 L153.537,31.4401 C153.537,31.6797 153.636,31.836 153.834,31.9089 C153.927,31.9297 154.047,31.9453 154.193,31.9557 L154.193,32.112 L152.084,32.112 L152.084,31.9557 C152.375,31.9349 152.558,31.8516 152.631,31.7057 C152.672,31.5912 152.693,31.4245 152.693,31.2057 L152.693,28.7214 C152.693,28.3568 152.62,28.1537 152.474,28.112 C152.433,28.0912 152.386,28.0807 152.334,28.0807 C152.209,28.0807 152.115,28.0964 152.052,28.1276 M159.552,27.612 L159.552,27.9089 L158.537,27.9089 L158.537,30.7682 C158.537,31.3099 158.672,31.6068 158.943,31.6589 C158.974,31.6693 159.011,31.6745 159.052,31.6745 C159.261,31.6641 159.464,31.5443 159.662,31.3151 L159.787,31.4401 C159.464,31.9505 159.063,32.2057 158.584,32.2057 C158,32.1953 157.703,31.7735 157.693,30.9401 L157.693,27.9089 L157.162,27.9089 C157.141,27.888 157.131,27.8672 157.131,27.8464 C157.131,27.8047 157.172,27.763 157.256,27.7214 C157.537,27.5339 157.87,27.1693 158.256,26.6276 C158.266,26.6172 158.271,26.612 158.271,26.612 C158.375,26.4557 158.443,26.362 158.474,26.3307 C158.516,26.3412 158.537,26.3828 158.537,26.4557 L158.537,27.612 L159.552,27.612 M160.209,31.1432 C160.209,30.6328 160.526,30.2005 161.162,29.8464 C161.349,29.7526 161.849,29.5391 162.662,29.2057 C162.683,29.2057 162.698,29.2005 162.709,29.1901 L162.709,28.5807 C162.657,28.0599 162.401,27.7839 161.943,27.7526 C161.631,27.7526 161.412,27.8516 161.287,28.0495 C161.245,28.1224 161.224,28.1849 161.224,28.237 C161.224,28.2995 161.235,28.3828 161.256,28.487 C161.266,28.5599 161.271,28.612 161.271,28.6432 C161.271,28.8203 161.183,28.9453 161.006,29.0182 C160.943,29.0495 160.886,29.0651 160.834,29.0651 C160.646,29.0651 160.516,28.9766 160.443,28.7995 C160.412,28.7474 160.396,28.6901 160.396,28.6276 C160.396,28.263 160.615,27.9662 161.052,27.737 C161.355,27.5912 161.698,27.5182 162.084,27.5182 C162.802,27.5182 163.245,27.7735 163.412,28.2839 C163.485,28.5026 163.521,28.7787 163.521,29.112 L163.521,31.0495 C163.521,31.3828 163.584,31.5703 163.709,31.612 C163.75,31.6224 163.787,31.6276 163.818,31.6276 C163.964,31.6172 164.11,31.5547 164.256,31.4401 L164.256,31.6901 C163.985,32.0026 163.735,32.1745 163.506,32.2057 C163.453,32.2057 163.401,32.2057 163.349,32.2057 C163.037,32.2057 162.839,32.0495 162.756,31.737 C162.735,31.6537 162.724,31.5599 162.724,31.4557 C162.131,31.9349 161.641,32.1849 161.256,32.2057 C160.828,32.2057 160.521,32.0339 160.334,31.6901 C160.25,31.5235 160.209,31.3412 160.209,31.1432 M162.709,30.862 L162.709,29.4245 C161.886,29.7266 161.381,30.0339 161.193,30.3464 C161.12,30.4922 161.084,30.6485 161.084,30.8151 C161.084,31.211 161.23,31.461 161.521,31.5651 C161.594,31.5964 161.662,31.612 161.724,31.612 C161.943,31.6016 162.183,31.5235 162.443,31.3776 C162.589,31.2943 162.672,31.1901 162.693,31.0651 C162.703,31.0026 162.709,30.9349 162.709,30.862 M166.552,27.612 L166.552,27.9089 L165.537,27.9089 L165.537,30.7682 C165.537,31.3099 165.672,31.6068 165.943,31.6589 C165.974,31.6693 166.011,31.6745 166.052,31.6745 C166.261,31.6641 166.464,31.5443 166.662,31.3151 L166.787,31.4401 C166.464,31.9505 166.063,32.2057 165.584,32.2057 C165,32.1953 164.703,31.7735 164.693,30.9401 L164.693,27.9089 L164.162,27.9089 C164.141,27.888 164.131,27.8672 164.131,27.8464 C164.131,27.8047 164.172,27.763 164.256,27.7214 C164.537,27.5339 164.87,27.1693 165.256,26.6276 C165.266,26.6172 165.271,26.612 165.271,26.612 C165.375,26.4557 165.443,26.362 165.474,26.3307 C165.516,26.3412 165.537,26.3828 165.537,26.4557 L165.537,27.612 L166.552,27.612 M169.412,27.5182 C170.151,27.5182 170.735,27.7891 171.162,28.3307 C171.464,28.737 171.615,29.2162 171.615,29.7682 C171.615,30.5495 171.36,31.1745 170.849,31.6432 C170.433,32.0182 169.948,32.2057 169.396,32.2057 C168.688,32.2057 168.125,31.9349 167.709,31.3932 C167.375,30.9557 167.209,30.4401 167.209,29.8464 C167.209,29.0339 167.485,28.4089 168.037,27.9714 C168.422,27.6693 168.881,27.5182 169.412,27.5182 M168.115,29.362 C168.115,30.2682 168.302,30.961 168.677,31.4401 C168.917,31.7526 169.198,31.9089 169.521,31.9089 C170.042,31.9089 170.401,31.612 170.599,31.0182 C170.683,30.7578 170.724,30.461 170.724,30.1276 C170.724,29.2422 170.511,28.586 170.084,28.1589 C169.855,27.9297 169.589,27.8151 169.287,27.8151 C168.818,27.8151 168.48,28.0547 168.271,28.5339 C168.167,28.7735 168.115,29.0495 168.115,29.362 M172.052,28.1276 L172.052,27.9557 C172.552,27.8099 173.016,27.6641 173.443,27.5182 L173.506,27.5339 L173.506,28.3151 C173.985,27.8776 174.36,27.6224 174.631,27.5495 C174.735,27.5287 174.844,27.5182 174.959,27.5182 C175.5,27.5182 175.86,27.7891 176.037,28.3307 C176.099,28.5287 176.131,28.7526 176.131,29.0026 L176.131,31.2995 C176.131,31.612 176.203,31.8047 176.349,31.8776 C176.443,31.9089 176.573,31.9349 176.74,31.9557 L176.74,32.112 L174.662,32.112 L174.662,31.9557 C174.964,31.9349 175.151,31.836 175.224,31.6589 C175.276,31.5443 175.302,31.3672 175.302,31.1276 L175.302,29.0339 C175.282,28.388 175.037,28.0599 174.568,28.0495 C174.318,28.0495 174.058,28.1641 173.787,28.3932 C173.714,28.4662 173.631,28.5443 173.537,28.6276 L173.537,31.4401 C173.537,31.6797 173.636,31.836 173.834,31.9089 C173.927,31.9297 174.047,31.9453 174.193,31.9557 L174.193,32.112 L172.084,32.112 L172.084,31.9557 C172.375,31.9349 172.558,31.8516 172.631,31.7057 C172.672,31.5912 172.693,31.4245 172.693,31.2057 L172.693,28.7214 C172.693,28.3568 172.62,28.1537 172.474,28.112 C172.433,28.0912 172.386,28.0807 172.334,28.0807 C172.209,28.0807 172.115,28.0964 172.052,28.1276 M177.584,28.1901 C177.427,28.1901 177.287,28.2005 177.162,28.2214 L177.162,28.0651 C177.631,27.9297 178.146,27.7474 178.709,27.5182 L178.74,27.5495 L178.74,31.0964 C178.74,31.4818 178.797,31.7214 178.912,31.8151 C179.006,31.888 179.198,31.9349 179.49,31.9557 L179.49,32.112 L177.115,32.112 L177.115,31.9557 C177.48,31.9349 177.709,31.8672 177.802,31.7526 C177.875,31.638 177.912,31.4193 177.912,31.0964 L177.912,28.7682 C177.912,28.4141 177.828,28.2214 177.662,28.1901 C177.631,28.1901 177.605,28.1901 177.584,28.1901 M178.24,25.2839 C178.459,25.2839 178.615,25.3828 178.709,25.5807 C178.74,25.6537 178.756,25.7266 178.756,25.7995 C178.756,26.0182 178.651,26.1745 178.443,26.2682 C178.37,26.2891 178.302,26.2995 178.24,26.2995 C178.021,26.2995 177.865,26.2005 177.771,26.0026 C177.75,25.9297 177.74,25.862 177.74,25.7995 C177.74,25.5807 177.834,25.4245 178.021,25.3307 C178.094,25.2995 178.167,25.2839 178.24,25.2839 M180.209,29.987 C180.209,29.1432 180.495,28.4818 181.068,28.0026 C181.464,27.6797 181.907,27.5182 182.396,27.5182 C182.948,27.5182 183.375,27.6693 183.677,27.9714 C183.855,28.1485 183.943,28.3412 183.943,28.5495 C183.943,28.7266 183.849,28.8516 183.662,28.9245 C183.589,28.9557 183.521,28.9714 183.459,28.9714 C183.25,28.9714 183.099,28.836 183.006,28.5651 C182.995,28.5443 182.99,28.5235 182.99,28.5026 L182.927,28.2839 C182.865,28.0339 182.75,27.888 182.584,27.8464 C182.511,27.8255 182.427,27.8151 182.334,27.8151 C181.834,27.8151 181.453,28.0547 181.193,28.5339 C181.047,28.8255 180.974,29.1641 180.974,29.5495 C180.974,30.2787 181.198,30.8255 181.646,31.1901 C181.907,31.388 182.198,31.487 182.521,31.487 C182.938,31.487 183.297,31.3203 183.599,30.987 C183.703,30.862 183.818,30.7162 183.943,30.5495 L184.084,30.6432 C183.709,31.362 183.292,31.8307 182.834,32.0495 C182.594,32.1537 182.355,32.2057 182.115,32.2057 C181.469,32.2057 180.964,31.9401 180.599,31.4089 C180.339,31.0026 180.209,30.5287 180.209,29.987 M189.631,27.7214 C189.651,27.711 189.709,27.6745 189.802,27.612 L189.912,27.612 L189.943,28.9714 L189.802,28.9714 C189.636,28.3255 189.396,27.9401 189.084,27.8151 C188.969,27.763 188.839,27.737 188.693,27.737 C188.339,27.737 188.099,27.8776 187.974,28.1589 C187.943,28.2422 187.927,28.3307 187.927,28.4245 C187.938,28.7057 188.084,28.9297 188.365,29.0964 L189.443,29.737 C189.922,30.0287 190.193,30.3464 190.256,30.6901 C190.266,30.763 190.271,30.8464 190.271,30.9401 C190.271,31.3568 190.089,31.6953 189.724,31.9557 C189.464,32.1224 189.177,32.2057 188.865,32.2057 C188.73,32.2057 188.422,32.1589 187.943,32.0651 C187.828,32.0443 187.74,32.0339 187.677,32.0339 C187.573,32.0443 187.495,32.086 187.443,32.1589 L187.318,32.1589 L187.318,30.5964 L187.474,30.5964 C187.578,31.0651 187.709,31.3932 187.865,31.5807 C188.084,31.8516 188.375,31.987 188.74,31.987 C189.167,31.987 189.433,31.8307 189.537,31.5182 C189.568,31.4453 189.584,31.362 189.584,31.2682 C189.573,30.9662 189.396,30.7162 189.052,30.5182 L188.474,30.1901 C187.849,29.836 187.48,29.4818 187.365,29.1276 C187.323,29.0026 187.302,28.8776 187.302,28.7526 C187.302,28.2839 187.506,27.9349 187.912,27.7057 C188.141,27.5807 188.391,27.5182 188.662,27.5182 C188.881,27.5182 189.141,27.5703 189.443,27.6745 C189.526,27.7057 189.589,27.7214 189.631,27.7214 M191.209,29.987 C191.209,29.1432 191.495,28.4818 192.068,28.0026 C192.464,27.6797 192.907,27.5182 193.396,27.5182 C193.948,27.5182 194.375,27.6693 194.677,27.9714 C194.855,28.1485 194.943,28.3412 194.943,28.5495 C194.943,28.7266 194.849,28.8516 194.662,28.9245 C194.589,28.9557 194.521,28.9714 194.459,28.9714 C194.25,28.9714 194.099,28.836 194.006,28.5651 C193.995,28.5443 193.99,28.5235 193.99,28.5026 L193.927,28.2839 C193.865,28.0339 193.75,27.888 193.584,27.8464 C193.511,27.8255 193.427,27.8151 193.334,27.8151 C192.834,27.8151 192.453,28.0547 192.193,28.5339 C192.047,28.8255 191.974,29.1641 191.974,29.5495 C191.974,30.2787 192.198,30.8255 192.646,31.1901 C192.907,31.388 193.198,31.487 193.521,31.487 C193.938,31.487 194.297,31.3203 194.599,30.987 C194.703,30.862 194.818,30.7162 194.943,30.5495 L195.084,30.6432 C194.709,31.362 194.292,31.8307 193.834,32.0495 C193.594,32.1537 193.355,32.2057 193.115,32.2057 C192.469,32.2057 191.964,31.9401 191.599,31.4089 C191.339,31.0026 191.209,30.5287 191.209,29.987 M195.209,31.1432 C195.209,30.6328 195.526,30.2005 196.162,29.8464 C196.349,29.7526 196.849,29.5391 197.662,29.2057 C197.683,29.2057 197.698,29.2005 197.709,29.1901 L197.709,28.5807 C197.657,28.0599 197.401,27.7839 196.943,27.7526 C196.631,27.7526 196.412,27.8516 196.287,28.0495 C196.245,28.1224 196.224,28.1849 196.224,28.237 C196.224,28.2995 196.235,28.3828 196.256,28.487 C196.266,28.5599 196.271,28.612 196.271,28.6432 C196.271,28.8203 196.183,28.9453 196.006,29.0182 C195.943,29.0495 195.886,29.0651 195.834,29.0651 C195.646,29.0651 195.516,28.9766 195.443,28.7995 C195.412,28.7474 195.396,28.6901 195.396,28.6276 C195.396,28.263 195.615,27.9662 196.052,27.737 C196.355,27.5912 196.698,27.5182 197.084,27.5182 C197.802,27.5182 198.245,27.7735 198.412,28.2839 C198.485,28.5026 198.521,28.7787 198.521,29.112 L198.521,31.0495 C198.521,31.3828 198.584,31.5703 198.709,31.612 C198.75,31.6224 198.787,31.6276 198.818,31.6276 C198.964,31.6172 199.11,31.5547 199.256,31.4401 L199.256,31.6901 C198.985,32.0026 198.735,32.1745 198.506,32.2057 C198.453,32.2057 198.401,32.2057 198.349,32.2057 C198.037,32.2057 197.839,32.0495 197.756,31.737 C197.735,31.6537 197.724,31.5599 197.724,31.4557 C197.131,31.9349 196.641,32.1849 196.256,32.2057 C195.828,32.2057 195.521,32.0339 195.334,31.6901 C195.25,31.5235 195.209,31.3412 195.209,31.1432 M197.709,30.862 L197.709,29.4245 C196.886,29.7266 196.381,30.0339 196.193,30.3464 C196.12,30.4922 196.084,30.6485 196.084,30.8151 C196.084,31.211 196.23,31.461 196.521,31.5651 C196.594,31.5964 196.662,31.612 196.724,31.612 C196.943,31.6016 197.183,31.5235 197.443,31.3776 C197.589,31.2943 197.672,31.1901 197.693,31.0651 C197.703,31.0026 197.709,30.9349 197.709,30.862 M199.052,25.8776 L199.052,25.7214 C199.719,25.5547 200.25,25.4089 200.646,25.2839 L200.693,25.2995 L200.693,31.2682 C200.693,31.5807 200.756,31.7735 200.881,31.8464 C200.995,31.8985 201.183,31.9349 201.443,31.9557 L201.443,32.112 L199.084,32.112 L199.084,31.9557 C199.459,31.9245 199.688,31.836 199.771,31.6901 C199.823,31.5964 199.849,31.4453 199.849,31.237 L199.849,26.4714 C199.849,26.138 199.776,25.9453 199.631,25.8932 C199.568,25.8724 199.5,25.862 199.427,25.862 C199.292,25.862 199.167,25.8672 199.052,25.8776 M202.927,29.3464 C202.969,30.5235 203.355,31.2162 204.084,31.4245 C204.209,31.4662 204.344,31.487 204.49,31.487 C204.98,31.487 205.396,31.2787 205.74,30.862 C205.834,30.7474 205.933,30.612 206.037,30.4557 L206.193,30.5182 C205.828,31.4766 205.256,32.0287 204.474,32.1745 C204.339,32.1953 204.209,32.2057 204.084,32.2057 C203.344,32.2057 202.813,31.8932 202.49,31.2682 C202.302,30.8932 202.209,30.461 202.209,29.9714 C202.209,29.086 202.485,28.4141 203.037,27.9557 C203.401,27.6641 203.823,27.5182 204.302,27.5182 C205.219,27.5182 205.771,28.0391 205.959,29.0807 C205.98,29.1745 205.995,29.263 206.006,29.3464 L202.927,29.3464 M202.943,29.0495 L204.99,29.0495 C204.896,28.4766 204.73,28.1224 204.49,27.987 C204.365,27.9245 204.203,27.8932 204.006,27.8932 C203.412,27.8932 203.058,28.2682 202.943,29.0182 C202.943,29.0287 202.943,29.0391 202.943,29.0495 M211.412,27.5182 C212.151,27.5182 212.735,27.7891 213.162,28.3307 C213.464,28.737 213.615,29.2162 213.615,29.7682 C213.615,30.5495 213.36,31.1745 212.849,31.6432 C212.433,32.0182 211.948,32.2057 211.396,32.2057 C210.688,32.2057 210.125,31.9349 209.709,31.3932 C209.375,30.9557 209.209,30.4401 209.209,29.8464 C209.209,29.0339 209.485,28.4089 210.037,27.9714 C210.422,27.6693 210.881,27.5182 211.412,27.5182 M210.115,29.362 C210.115,30.2682 210.302,30.961 210.677,31.4401 C210.917,31.7526 211.198,31.9089 211.521,31.9089 C212.042,31.9089 212.401,31.612 212.599,31.0182 C212.683,30.7578 212.724,30.461 212.724,30.1276 C212.724,29.2422 212.511,28.586 212.084,28.1589 C211.855,27.9297 211.589,27.8151 211.287,27.8151 C210.818,27.8151 210.48,28.0547 210.271,28.5339 C210.167,28.7735 210.115,29.0495 210.115,29.362 M214.052,28.1276 L214.052,27.9557 C214.552,27.8099 215.016,27.6641 215.443,27.5182 L215.506,27.5339 L215.506,28.3151 C215.985,27.8776 216.36,27.6224 216.631,27.5495 C216.735,27.5287 216.844,27.5182 216.959,27.5182 C217.5,27.5182 217.86,27.7891 218.037,28.3307 C218.099,28.5287 218.131,28.7526 218.131,29.0026 L218.131,31.2995 C218.131,31.612 218.203,31.8047 218.349,31.8776 C218.443,31.9089 218.573,31.9349 218.74,31.9557 L218.74,32.112 L216.662,32.112 L216.662,31.9557 C216.964,31.9349 217.151,31.836 217.224,31.6589 C217.276,31.5443 217.302,31.3672 217.302,31.1276 L217.302,29.0339 C217.282,28.388 217.037,28.0599 216.568,28.0495 C216.318,28.0495 216.058,28.1641 215.787,28.3932 C215.714,28.4662 215.631,28.5443 215.537,28.6276 L215.537,31.4401 C215.537,31.6797 215.636,31.836 215.834,31.9089 C215.927,31.9297 216.047,31.9453 216.193,31.9557 L216.193,32.112 L214.084,32.112 L214.084,31.9557 C214.375,31.9349 214.558,31.8516 214.631,31.7057 C214.672,31.5912 214.693,31.4245 214.693,31.2057 L214.693,28.7214 C214.693,28.3568 214.62,28.1537 214.474,28.112 C214.433,28.0912 214.386,28.0807 214.334,28.0807 C214.209,28.0807 214.115,28.0964 214.052,28.1276 M219.927,29.3464 C219.969,30.5235 220.355,31.2162 221.084,31.4245 C221.209,31.4662 221.344,31.487 221.49,31.487 C221.98,31.487 222.396,31.2787 222.74,30.862 C222.834,30.7474 222.933,30.612 223.037,30.4557 L223.193,30.5182 C222.828,31.4766 222.256,32.0287 221.474,32.1745 C221.339,32.1953 221.209,32.2057 221.084,32.2057 C220.344,32.2057 219.813,31.8932 219.49,31.2682 C219.302,30.8932 219.209,30.461 219.209,29.9714 C219.209,29.086 219.485,28.4141 220.037,27.9557 C220.401,27.6641 220.823,27.5182 221.302,27.5182 C222.219,27.5182 222.771,28.0391 222.959,29.0807 C222.98,29.1745 222.995,29.263 223.006,29.3464 L219.927,29.3464 M219.943,29.0495 L221.99,29.0495 C221.896,28.4766 221.73,28.1224 221.49,27.987 C221.365,27.9245 221.203,27.8932 221.006,27.8932 C220.412,27.8932 220.058,28.2682 219.943,29.0182 C219.943,29.0287 219.943,29.0391 219.943,29.0495 M228.412,27.5182 C229.151,27.5182 229.735,27.7891 230.162,28.3307 C230.464,28.737 230.615,29.2162 230.615,29.7682 C230.615,30.5495 230.36,31.1745 229.849,31.6432 C229.433,32.0182 228.948,32.2057 228.396,32.2057 C227.688,32.2057 227.125,31.9349 226.709,31.3932 C226.375,30.9557 226.209,30.4401 226.209,29.8464 C226.209,29.0339 226.485,28.4089 227.037,27.9714 C227.422,27.6693 227.881,27.5182 228.412,27.5182 M227.115,29.362 C227.115,30.2682 227.302,30.961 227.677,31.4401 C227.917,31.7526 228.198,31.9089 228.521,31.9089 C229.042,31.9089 229.401,31.612 229.599,31.0182 C229.683,30.7578 229.724,30.461 229.724,30.1276 C229.724,29.2422 229.511,28.586 229.084,28.1589 C228.855,27.9297 228.589,27.8151 228.287,27.8151 C227.818,27.8151 227.48,28.0547 227.271,28.5339 C227.167,28.7735 227.115,29.0495 227.115,29.362 M231.209,29.987 C231.209,29.1432 231.495,28.4818 232.068,28.0026 C232.464,27.6797 232.907,27.5182 233.396,27.5182 C233.948,27.5182 234.375,27.6693 234.677,27.9714 C234.855,28.1485 234.943,28.3412 234.943,28.5495 C234.943,28.7266 234.849,28.8516 234.662,28.9245 C234.589,28.9557 234.521,28.9714 234.459,28.9714 C234.25,28.9714 234.099,28.836 234.006,28.5651 C233.995,28.5443 233.99,28.5235 233.99,28.5026 L233.927,28.2839 C233.865,28.0339 233.75,27.888 233.584,27.8464 C233.511,27.8255 233.427,27.8151 233.334,27.8151 C232.834,27.8151 232.453,28.0547 232.193,28.5339 C232.047,28.8255 231.974,29.1641 231.974,29.5495 C231.974,30.2787 232.198,30.8255 232.646,31.1901 C232.907,31.388 233.198,31.487 233.521,31.487 C233.938,31.487 234.297,31.3203 234.599,30.987 C234.703,30.862 234.818,30.7162 234.943,30.5495 L235.084,30.6432 C234.709,31.362 234.292,31.8307 233.834,32.0495 C233.594,32.1537 233.355,32.2057 233.115,32.2057 C232.469,32.2057 231.964,31.9401 231.599,31.4089 C231.339,31.0026 231.209,30.5287 231.209,29.987 M237.552,27.612 L237.552,27.9089 L236.537,27.9089 L236.537,30.7682 C236.537,31.3099 236.672,31.6068 236.943,31.6589 C236.974,31.6693 237.011,31.6745 237.052,31.6745 C237.261,31.6641 237.464,31.5443 237.662,31.3151 L237.787,31.4401 C237.464,31.9505 237.063,32.2057 236.584,32.2057 C236,32.1953 235.703,31.7735 235.693,30.9401 L235.693,27.9089 L235.162,27.9089 C235.141,27.888 235.131,27.8672 235.131,27.8464 C235.131,27.8047 235.172,27.763 235.256,27.7214 C235.537,27.5339 235.87,27.1693 236.256,26.6276 C236.266,26.6172 236.271,26.612 236.271,26.612 C236.375,26.4557 236.443,26.362 236.474,26.3307 C236.516,26.3412 236.537,26.3828 236.537,26.4557 L236.537,27.612 L237.552,27.612 M238.209,31.1432 C238.209,30.6328 238.526,30.2005 239.162,29.8464 C239.349,29.7526 239.849,29.5391 240.662,29.2057 C240.683,29.2057 240.698,29.2005 240.709,29.1901 L240.709,28.5807 C240.657,28.0599 240.401,27.7839 239.943,27.7526 C239.631,27.7526 239.412,27.8516 239.287,28.0495 C239.245,28.1224 239.224,28.1849 239.224,28.237 C239.224,28.2995 239.235,28.3828 239.256,28.487 C239.266,28.5599 239.271,28.612 239.271,28.6432 C239.271,28.8203 239.183,28.9453 239.006,29.0182 C238.943,29.0495 238.886,29.0651 238.834,29.0651 C238.646,29.0651 238.516,28.9766 238.443,28.7995 C238.412,28.7474 238.396,28.6901 238.396,28.6276 C238.396,28.263 238.615,27.9662 239.052,27.737 C239.355,27.5912 239.698,27.5182 240.084,27.5182 C240.802,27.5182 241.245,27.7735 241.412,28.2839 C241.485,28.5026 241.521,28.7787 241.521,29.112 L241.521,31.0495 C241.521,31.3828 241.584,31.5703 241.709,31.612 C241.75,31.6224 241.787,31.6276 241.818,31.6276 C241.964,31.6172 242.11,31.5547 242.256,31.4401 L242.256,31.6901 C241.985,32.0026 241.735,32.1745 241.506,32.2057 C241.453,32.2057 241.401,32.2057 241.349,32.2057 C241.037,32.2057 240.839,32.0495 240.756,31.737 C240.735,31.6537 240.724,31.5599 240.724,31.4557 C240.131,31.9349 239.641,32.1849 239.256,32.2057 C238.828,32.2057 238.521,32.0339 238.334,31.6901 C238.25,31.5235 238.209,31.3412 238.209,31.1432 M240.709,30.862 L240.709,29.4245 C239.886,29.7266 239.381,30.0339 239.193,30.3464 C239.12,30.4922 239.084,30.6485 239.084,30.8151 C239.084,31.211 239.23,31.461 239.521,31.5651 C239.594,31.5964 239.662,31.612 239.724,31.612 C239.943,31.6016 240.183,31.5235 240.443,31.3776 C240.589,31.2943 240.672,31.1901 240.693,31.0651 C240.703,31.0026 240.709,30.9349 240.709,30.862 M246.584,27.612 L246.584,27.7682 C246.417,27.7891 246.292,27.8568 246.209,27.9714 C246.136,28.0755 246.047,28.2682 245.943,28.5495 L244.662,31.7526 C244.526,32.0755 244.433,32.2422 244.381,32.2526 C244.308,32.2526 244.224,32.1068 244.131,31.8151 C244.12,31.8047 244.115,31.7943 244.115,31.7839 L242.912,28.9089 C242.662,28.3151 242.474,27.9662 242.349,27.862 C242.266,27.7995 242.151,27.7682 242.006,27.7682 L242.006,27.612 L243.974,27.612 L243.974,27.7682 C243.693,27.7891 243.542,27.862 243.521,27.987 C243.511,28.0078 243.506,28.0287 243.506,28.0495 C243.506,28.1641 243.537,28.2839 243.599,28.4089 L244.615,30.9714 L245.599,28.3776 C245.641,28.2839 245.662,28.1849 245.662,28.0807 C245.662,27.9037 245.516,27.7995 245.224,27.7682 C245.214,27.7682 245.203,27.7682 245.193,27.7682 L245.193,27.612 L246.584,27.612 M247.927,29.3464 C247.969,30.5235 248.355,31.2162 249.084,31.4245 C249.209,31.4662 249.344,31.487 249.49,31.487 C249.98,31.487 250.396,31.2787 250.74,30.862 C250.834,30.7474 250.933,30.612 251.037,30.4557 L251.193,30.5182 C250.828,31.4766 250.256,32.0287 249.474,32.1745 C249.339,32.1953 249.209,32.2057 249.084,32.2057 C248.344,32.2057 247.813,31.8932 247.49,31.2682 C247.302,30.8932 247.209,30.461 247.209,29.9714 C247.209,29.086 247.485,28.4141 248.037,27.9557 C248.401,27.6641 248.823,27.5182 249.302,27.5182 C250.219,27.5182 250.771,28.0391 250.959,29.0807 C250.98,29.1745 250.995,29.263 251.006,29.3464 L247.927,29.3464 M247.943,29.0495 L249.99,29.0495 C249.896,28.4766 249.73,28.1224 249.49,27.987 C249.365,27.9245 249.203,27.8932 249.006,27.8932 C248.412,27.8932 248.058,28.2682 247.943,29.0182 C247.943,29.0287 247.943,29.0391 247.943,29.0495"/>
</svg>
