<?xml version="1.0" encoding="UTF-8" standalone="no"?>
<svg width="595.44px" height="841.68px" viewBox="0 0 595.44 841.68"
 xmlns="http://www.w3.org/2000/svg" xmlns:xlink="http://www.w3.org/1999/xlink" version="1.2" baseProfile="tiny">
<title>Guitar Scales and Arpeggios</title>
<desc>Generated by MuseScore 2.1.0</desc>
<polyline class="StaffLines" fill="none" stroke="#000000" stroke-width="0.40" stroke-linejoin="bevel" points="28.08,62.856 567.36,62.856"/>
<polyline class="StaffLines" fill="none" stroke="#000000" stroke-width="0.40" stroke-linejoin="bevel" points="28.08,67.824 567.36,67.824"/>
<polyline class="StaffLines" fill="none" stroke="#000000" stroke-width="0.40" stroke-linejoin="bevel" points="28.08,72.792 567.36,72.792"/>
<polyline class="StaffLines" fill="none" stroke="#000000" stroke-width="0.40" stroke-linejoin="bevel" points="28.08,77.76 567.36,77.76"/>
<polyline class="StaffLines" fill="none" stroke="#000000" stroke-width="0.40" stroke-linejoin="bevel" points="28.08,82.728 567.36,82.728"/>
<polyline class="StaffLines" fill="none" stroke="#000000" stroke-width="0.40" stroke-linejoin="bevel" points="28.08,115.02 567.36,115.02"/>
<polyline class="StaffLines" fill="none" stroke="#000000" stroke-width="0.40" stroke-linejoin="bevel" points="28.08,122.472 567.36,122.472"/>
<polyline class="StaffLines" fill="none" stroke="#000000" stroke-width="0.40" stroke-linejoin="bevel" points="28.08,129.924 567.36,129.924"/>
<polyline class="StaffLines" fill="none" stroke="#000000" stroke-width="0.40" stroke-linejoin="bevel" points="28.08,137.376 567.36,137.376"/>
<polyline class="StaffLines" fill="none" stroke="#000000" stroke-width="0.40" stroke-linejoin="bevel" points="28.08,144.828 567.36,144.828"/>
<polyline class="StaffLines" fill="none" stroke="#000000" stroke-width="0.40" stroke-linejoin="bevel" points="28.08,152.28 567.36,152.28"/>
<polyline class="BarLine" fill="none" stroke="#000000" stroke-width="0.79" stroke-linejoin="bevel" points="28.4774,62.856 28.4774,152.28"/>
<polyline class="BarLine" fill="none" stroke="#000000" stroke-width="0.79" stroke-linejoin="bevel" points="562.491,115.02 562.491,152.28"/>
<polyline class="BarLine" fill="none" stroke="#000000" stroke-width="2.48" stroke-linejoin="bevel" points="566.118,115.02 566.118,152.28"/>
<polyline class="BarLine" fill="none" stroke="#000000" stroke-width="0.79" stroke-linejoin="bevel" points="562.491,62.856 562.491,82.728"/>
<polyline class="BarLine" fill="none" stroke="#000000" stroke-width="2.48" stroke-linejoin="bevel" points="566.118,62.856 566.118,82.728"/>
<polyline class="LedgerLine" fill="none" stroke="#000000" stroke-width="0.79" stroke-linecap="square" stroke-linejoin="bevel" points="492.614,87.696 502.495,87.696"/>
<polyline class="LedgerLine" fill="none" stroke="#000000" stroke-width="0.79" stroke-linecap="square" stroke-linejoin="bevel" points="492.614,92.664 502.495,92.664"/>
<polyline class="LedgerLine" fill="none" stroke="#000000" stroke-width="0.79" stroke-linecap="square" stroke-linejoin="bevel" points="450.413,87.696 459.934,87.696"/>
<polyline class="LedgerLine" fill="none" stroke="#000000" stroke-width="0.79" stroke-linecap="square" stroke-linejoin="bevel" points="408.032,87.696 417.553,87.696"/>
<polyline class="LedgerLine" fill="none" stroke="#000000" stroke-width="0.79" stroke-linecap="square" stroke-linejoin="bevel" points="153.745,87.696 163.267,87.696"/>
<polyline class="LedgerLine" fill="none" stroke="#000000" stroke-width="0.79" stroke-linecap="square" stroke-linejoin="bevel" points="111.364,87.696 120.886,87.696"/>
<polyline class="LedgerLine" fill="none" stroke="#000000" stroke-width="0.79" stroke-linecap="square" stroke-linejoin="bevel" points="68.9829,87.696 78.5044,87.696"/>
<polyline class="LedgerLine" fill="none" stroke="#000000" stroke-width="0.79" stroke-linecap="square" stroke-linejoin="bevel" points="68.9829,92.664 78.5044,92.664"/>
<polyline class="Stem" fill="none" stroke="#000000" stroke-width="0.65" stroke-linecap="round" stroke-linejoin="bevel" points="500.681,94.3849 500.681,72.792"/>
<polyline class="Stem" fill="none" stroke="#000000" stroke-width="0.65" stroke-linecap="round" stroke-linejoin="bevel" points="458.121,89.2469 458.121,72.792"/>
<polyline class="Stem" fill="none" stroke="#000000" stroke-width="0.65" stroke-linecap="round" stroke-linejoin="bevel" points="415.74,86.7629 415.74,70.308"/>
<polyline class="Stem" fill="none" stroke="#000000" stroke-width="0.65" stroke-linecap="round" stroke-linejoin="bevel" points="373.359,84.2789 373.359,67.824"/>
<polyline class="Stem" fill="none" stroke="#000000" stroke-width="0.65" stroke-linecap="round" stroke-linejoin="bevel" points="330.978,79.3109 330.978,62.856"/>
<polyline class="Stem" fill="none" stroke="#000000" stroke-width="0.65" stroke-linecap="round" stroke-linejoin="bevel" points="288.597,76.8269 288.597,60.993"/>
<polyline class="Stem" fill="none" stroke="#000000" stroke-width="0.65" stroke-linecap="round" stroke-linejoin="bevel" points="246.215,79.3109 246.215,62.856"/>
<polyline class="Stem" fill="none" stroke="#000000" stroke-width="0.65" stroke-linecap="round" stroke-linejoin="bevel" points="203.834,84.2789 203.834,67.824"/>
<polyline class="Stem" fill="none" stroke="#000000" stroke-width="0.65" stroke-linecap="round" stroke-linejoin="bevel" points="161.453,86.7629 161.453,70.308"/>
<polyline class="Stem" fill="none" stroke="#000000" stroke-width="0.65" stroke-linecap="round" stroke-linejoin="bevel" points="119.072,89.2469 119.072,72.792"/>
<polyline class="Stem" fill="none" stroke="#000000" stroke-width="0.65" stroke-linecap="round" stroke-linejoin="bevel" points="76.6911,94.2149 76.6911,72.792"/>
<path class="Note" fill="#ffffff" fill-rule="evenodd" d="M495.029,148.554 L500.991,148.554 L500.991,156.006 L495.029,156.006 L495.029,148.554 "/>
<path class="Note" transform="matrix(0.9936,0,0,0.9936,495.526,155.758)" d="M2.4375,-5.64063 C1.75,-5.64063 1.35417,-5.32813 1.25,-4.70313 C1.22917,-4.59896 1.21875,-4.47917 1.21875,-4.34375 L0.421875,-4.34375 C0.442708,-5.59375 1.01563,-6.27083 2.14063,-6.375 C2.23438,-6.38542 2.32813,-6.39063 2.42188,-6.39063 C3.26563,-6.39063 3.84375,-6.10938 4.15625,-5.54688 C4.29167,-5.28646 4.35938,-4.98438 4.35938,-4.64063 C4.35938,-4.00521 4.0625,-3.57292 3.46875,-3.34375 C4.03125,-3.14583 4.375,-2.81771 4.5,-2.35938 C4.54167,-2.19271 4.5625,-2.00521 4.5625,-1.79688 C4.5625,-1.05729 4.27604,-0.505208 3.70313,-0.140625 C3.33854,0.0885417 2.90104,0.203125 2.39063,0.203125 C1.21354,0.203125 0.526042,-0.348958 0.328125,-1.45313 C0.317708,-1.57813 0.302083,-1.71354 0.28125,-1.85938 L1.07813,-1.85938 C1.13021,-1.08854 1.46875,-0.65625 2.09375,-0.5625 C2.19792,-0.541667 2.30729,-0.53125 2.42188,-0.53125 C3.04688,-0.53125 3.45313,-0.765625 3.64063,-1.23438 C3.71354,-1.40104 3.75,-1.58854 3.75,-1.79688 C3.73958,-2.54688 3.29688,-2.92708 2.42188,-2.9375 L2.09375,-2.92188 L1.98438,-2.92188 L1.98438,-3.67188 C2.66146,-3.68229 3.10417,-3.77604 3.3125,-3.95313 C3.47917,-4.09896 3.5625,-4.31771 3.5625,-4.60938 C3.5625,-5.09896 3.34896,-5.41667 2.92188,-5.5625 C2.77604,-5.61458 2.61458,-5.64063 2.4375,-5.64063"/>
<path class="Note" fill="#99cc33" transform="matrix(0.9936,0,0,0.9936,494.105,95.148)" d="M6.3125,-1.3125 C6.3125,-1.53125 6.22917,-1.71875 6.0625,-1.875 C5.88542,-2.04167 5.6875,-2.125 5.46875,-2.125 C5.08333,-2.125 4.29688,-1.73438 3.10938,-0.953125 C1.88021,-0.161458 1.13021,0.40625 0.859375,0.75 C0.713542,0.927083 0.640625,1.11458 0.640625,1.3125 C0.640625,1.53125 0.729167,1.71875 0.90625,1.875 C1.0625,2.04167 1.25521,2.125 1.48438,2.125 C1.85938,2.125 2.65625,1.73438 3.875,0.953125 C5.07292,0.171875 5.8125,-0.395833 6.09375,-0.75 C6.23958,-0.916667 6.3125,-1.10417 6.3125,-1.3125 M5.28125,-2.75 C6.39583,-2.75 6.95313,-2.27083 6.95313,-1.3125 C6.95313,-0.84375 6.81771,-0.296875 6.54688,0.328125 C6.27604,0.942708 5.91146,1.41146 5.45313,1.73438 C4.45313,2.41146 3.19792,2.75 1.6875,2.75 C0.5625,2.75 0,2.27083 0,1.3125 C0,0.885417 0.135417,0.34375 0.40625,-0.3125 C0.666667,-0.9375 1.03125,-1.41146 1.5,-1.73438 C2.51042,-2.41146 3.77083,-2.75 5.28125,-2.75"/>
<path class="Note" fill="#ffffff" fill-rule="evenodd" d="M452.648,148.554 L458.61,148.554 L458.61,156.006 L452.648,156.006 L452.648,148.554 "/>
<path class="Note" transform="matrix(0.9936,0,0,0.9936,453.145,155.758)" d="M0.390625,-2.90625 C0.390625,-4.76042 0.901042,-5.875 1.92188,-6.25 C2.16146,-6.34375 2.41146,-6.39063 2.67188,-6.39063 C3.35938,-6.39063 3.86979,-6.10938 4.20313,-5.54688 C4.33854,-5.30729 4.43229,-5.03125 4.48438,-4.71875 L3.6875,-4.71875 C3.58333,-5.22917 3.3125,-5.53125 2.875,-5.625 C2.79167,-5.63542 2.70833,-5.64063 2.625,-5.64063 C1.95833,-5.64063 1.52083,-5.21875 1.3125,-4.375 C1.23958,-4.04167 1.20313,-3.67188 1.20313,-3.26563 C1.55729,-3.75521 2.04688,-4 2.67188,-4 C3.33854,-4 3.85417,-3.75 4.21875,-3.25 C4.48958,-2.88542 4.625,-2.45833 4.625,-1.96875 C4.625,-1.23958 4.375,-0.671875 3.875,-0.265625 C3.5,0.046875 3.05208,0.203125 2.53125,0.203125 C1.10417,0.192708 0.390625,-0.84375 0.390625,-2.90625 M2.5625,-3.26563 C2.05208,-3.26563 1.67708,-3.07292 1.4375,-2.6875 C1.3125,-2.46875 1.25,-2.21875 1.25,-1.9375 C1.25,-1.4375 1.43229,-1.04688 1.79688,-0.765625 C2.00521,-0.609375 2.25,-0.53125 2.53125,-0.53125 C2.98958,-0.53125 3.33854,-0.71875 3.57813,-1.09375 C3.73438,-1.33333 3.8125,-1.60417 3.8125,-1.90625 C3.8125,-2.51042 3.59896,-2.92188 3.17188,-3.14063 C2.99479,-3.22396 2.79167,-3.26563 2.5625,-3.26563"/>
<path class="Note" fill="#bf6a1f" transform="matrix(0.9936,0,0,0.9936,451.903,90.18)" d="M4.39063,-2.75 C5.01563,-2.75 5.54688,-2.58854 5.98438,-2.26563 C6.38021,-1.91146 6.57813,-1.46875 6.57813,-0.9375 C6.57813,-0.0416667 6.11979,0.796875 5.20313,1.57813 C4.26563,2.35938 3.26042,2.75 2.1875,2.75 C1.5625,2.75 1.03646,2.58854 0.609375,2.26563 C0.203125,1.91146 0,1.46875 0,0.9375 C0,0.0416667 0.46875,-0.796875 1.40625,-1.57813 C2.32292,-2.35938 3.31771,-2.75 4.39063,-2.75"/>
<path class="Note" fill="#ffffff" fill-rule="evenodd" d="M410.267,141.102 L416.229,141.102 L416.229,148.554 L410.267,148.554 L410.267,141.102 "/>
<path class="Note" transform="matrix(0.9936,0,0,0.9936,410.764,148.306)" d="M2.4375,-5.64063 C1.75,-5.64063 1.35417,-5.32813 1.25,-4.70313 C1.22917,-4.59896 1.21875,-4.47917 1.21875,-4.34375 L0.421875,-4.34375 C0.442708,-5.59375 1.01563,-6.27083 2.14063,-6.375 C2.23438,-6.38542 2.32813,-6.39063 2.42188,-6.39063 C3.26563,-6.39063 3.84375,-6.10938 4.15625,-5.54688 C4.29167,-5.28646 4.35938,-4.98438 4.35938,-4.64063 C4.35938,-4.00521 4.0625,-3.57292 3.46875,-3.34375 C4.03125,-3.14583 4.375,-2.81771 4.5,-2.35938 C4.54167,-2.19271 4.5625,-2.00521 4.5625,-1.79688 C4.5625,-1.05729 4.27604,-0.505208 3.70313,-0.140625 C3.33854,0.0885417 2.90104,0.203125 2.39063,0.203125 C1.21354,0.203125 0.526042,-0.348958 0.328125,-1.45313 C0.317708,-1.57813 0.302083,-1.71354 0.28125,-1.85938 L1.07813,-1.85938 C1.13021,-1.08854 1.46875,-0.65625 2.09375,-0.5625 C2.19792,-0.541667 2.30729,-0.53125 2.42188,-0.53125 C3.04688,-0.53125 3.45313,-0.765625 3.64063,-1.23438 C3.71354,-1.40104 3.75,-1.58854 3.75,-1.79688 C3.73958,-2.54688 3.29688,-2.92708 2.42188,-2.9375 L2.09375,-2.92188 L1.98438,-2.92188 L1.98438,-3.67188 C2.66146,-3.68229 3.10417,-3.77604 3.3125,-3.95313 C3.47917,-4.09896 3.5625,-4.31771 3.5625,-4.60938 C3.5625,-5.09896 3.34896,-5.41667 2.92188,-5.5625 C2.77604,-5.61458 2.61458,-5.64063 2.4375,-5.64063"/>
<path class="Note" fill="#ed2929" transform="matrix(0.9936,0,0,0.9936,409.522,87.696)" d="M4.39063,-2.75 C5.01563,-2.75 5.54688,-2.58854 5.98438,-2.26563 C6.38021,-1.91146 6.57813,-1.46875 6.57813,-0.9375 C6.57813,-0.0416667 6.11979,0.796875 5.20313,1.57813 C4.26563,2.35938 3.26042,2.75 2.1875,2.75 C1.5625,2.75 1.03646,2.58854 0.609375,2.26563 C0.203125,1.91146 0,1.46875 0,0.9375 C0,0.0416667 0.46875,-0.796875 1.40625,-1.57813 C2.32292,-2.35938 3.31771,-2.75 4.39063,-2.75"/>
<path class="Note" fill="#ffffff" fill-rule="evenodd" d="M367.886,141.102 L373.848,141.102 L373.848,148.554 L367.886,148.554 L367.886,141.102 "/>
<path class="Note" transform="matrix(0.9936,0,0,0.9936,368.383,148.306)" d="M4.28125,-6.39063 L4.28125,-5.64063 L1.625,-5.64063 L1.375,-3.8125 C1.73958,-4.09375 2.13542,-4.23438 2.5625,-4.23438 C3.28125,-4.23438 3.83333,-3.97396 4.21875,-3.45313 C4.48958,-3.07813 4.625,-2.625 4.625,-2.09375 C4.625,-1.3125 4.35938,-0.708333 3.82813,-0.28125 C3.44271,0.0416667 2.97917,0.203125 2.4375,0.203125 C1.26042,0.203125 0.557292,-0.359375 0.328125,-1.48438 C0.328125,-1.50521 0.322917,-1.53125 0.3125,-1.5625 L1.10938,-1.5625 C1.30729,-0.885417 1.73958,-0.541667 2.40625,-0.53125 C3.02083,-0.53125 3.44271,-0.770833 3.67188,-1.25 C3.76563,-1.46875 3.8125,-1.71354 3.8125,-1.98438 C3.8125,-2.63021 3.58333,-3.07813 3.125,-3.32813 C2.91667,-3.44271 2.67708,-3.5 2.40625,-3.5 C2.03125,-3.5 1.70833,-3.38021 1.4375,-3.14063 C1.375,-3.07813 1.3125,-3.01042 1.25,-2.9375 L0.515625,-2.9375 L0.984375,-6.39063 L4.28125,-6.39063 "/>
<path class="Note" fill="#78c7c7" transform="matrix(0.9936,0,0,0.9936,367.141,85.212)" d="M4.39063,-2.75 C5.01563,-2.75 5.54688,-2.58854 5.98438,-2.26563 C6.38021,-1.91146 6.57813,-1.46875 6.57813,-0.9375 C6.57813,-0.0416667 6.11979,0.796875 5.20313,1.57813 C4.26563,2.35938 3.26042,2.75 2.1875,2.75 C1.5625,2.75 1.03646,2.58854 0.609375,2.26563 C0.203125,1.91146 0,1.46875 0,0.9375 C0,0.0416667 0.46875,-0.796875 1.40625,-1.57813 C2.32292,-2.35938 3.31771,-2.75 4.39063,-2.75"/>
<path class="Note" fill="#ffffff" fill-rule="evenodd" d="M325.505,133.65 L331.467,133.65 L331.467,141.102 L325.505,141.102 L325.505,133.65 "/>
<path class="Note" transform="matrix(0.9936,0,0,0.9936,326.002,140.854)" d="M2.4375,-5.64063 C1.75,-5.64063 1.35417,-5.32813 1.25,-4.70313 C1.22917,-4.59896 1.21875,-4.47917 1.21875,-4.34375 L0.421875,-4.34375 C0.442708,-5.59375 1.01563,-6.27083 2.14063,-6.375 C2.23438,-6.38542 2.32813,-6.39063 2.42188,-6.39063 C3.26563,-6.39063 3.84375,-6.10938 4.15625,-5.54688 C4.29167,-5.28646 4.35938,-4.98438 4.35938,-4.64063 C4.35938,-4.00521 4.0625,-3.57292 3.46875,-3.34375 C4.03125,-3.14583 4.375,-2.81771 4.5,-2.35938 C4.54167,-2.19271 4.5625,-2.00521 4.5625,-1.79688 C4.5625,-1.05729 4.27604,-0.505208 3.70313,-0.140625 C3.33854,0.0885417 2.90104,0.203125 2.39063,0.203125 C1.21354,0.203125 0.526042,-0.348958 0.328125,-1.45313 C0.317708,-1.57813 0.302083,-1.71354 0.28125,-1.85938 L1.07813,-1.85938 C1.13021,-1.08854 1.46875,-0.65625 2.09375,-0.5625 C2.19792,-0.541667 2.30729,-0.53125 2.42188,-0.53125 C3.04688,-0.53125 3.45313,-0.765625 3.64063,-1.23438 C3.71354,-1.40104 3.75,-1.58854 3.75,-1.79688 C3.73958,-2.54688 3.29688,-2.92708 2.42188,-2.9375 L2.09375,-2.92188 L1.98438,-2.92188 L1.98438,-3.67188 C2.66146,-3.68229 3.10417,-3.77604 3.3125,-3.95313 C3.47917,-4.09896 3.5625,-4.31771 3.5625,-4.60938 C3.5625,-5.09896 3.34896,-5.41667 2.92188,-5.5625 C2.77604,-5.61458 2.61458,-5.64063 2.4375,-5.64063"/>
<path class="Note" fill="#ebeb19" transform="matrix(0.9936,0,0,0.9936,324.76,80.244)" d="M4.39063,-2.75 C5.01563,-2.75 5.54688,-2.58854 5.98438,-2.26563 C6.38021,-1.91146 6.57813,-1.46875 6.57813,-0.9375 C6.57813,-0.0416667 6.11979,0.796875 5.20313,1.57813 C4.26563,2.35938 3.26042,2.75 2.1875,2.75 C1.5625,2.75 1.03646,2.58854 0.609375,2.26563 C0.203125,1.91146 0,1.46875 0,0.9375 C0,0.0416667 0.46875,-0.796875 1.40625,-1.57813 C2.32292,-2.35938 3.31771,-2.75 4.39063,-2.75"/>
<path class="Note" fill="#ffffff" fill-rule="evenodd" d="M283.124,133.65 L289.086,133.65 L289.086,141.102 L283.124,141.102 L283.124,133.65 "/>
<path class="Note" transform="matrix(0.9936,0,0,0.9936,283.621,140.854)" d="M4.28125,-6.39063 L4.28125,-5.64063 L1.625,-5.64063 L1.375,-3.8125 C1.73958,-4.09375 2.13542,-4.23438 2.5625,-4.23438 C3.28125,-4.23438 3.83333,-3.97396 4.21875,-3.45313 C4.48958,-3.07813 4.625,-2.625 4.625,-2.09375 C4.625,-1.3125 4.35938,-0.708333 3.82813,-0.28125 C3.44271,0.0416667 2.97917,0.203125 2.4375,0.203125 C1.26042,0.203125 0.557292,-0.359375 0.328125,-1.48438 C0.328125,-1.50521 0.322917,-1.53125 0.3125,-1.5625 L1.10938,-1.5625 C1.30729,-0.885417 1.73958,-0.541667 2.40625,-0.53125 C3.02083,-0.53125 3.44271,-0.770833 3.67188,-1.25 C3.76563,-1.46875 3.8125,-1.71354 3.8125,-1.98438 C3.8125,-2.63021 3.58333,-3.07813 3.125,-3.32813 C2.91667,-3.44271 2.67708,-3.5 2.40625,-3.5 C2.03125,-3.5 1.70833,-3.38021 1.4375,-3.14063 C1.375,-3.07813 1.3125,-3.01042 1.25,-2.9375 L0.515625,-2.9375 L0.984375,-6.39063 L4.28125,-6.39063 "/>
<path class="Note" fill="#99cc33" transform="matrix(0.9936,0,0,0.9936,282.379,77.76)" d="M4.39063,-2.75 C5.01563,-2.75 5.54688,-2.58854 5.98438,-2.26563 C6.38021,-1.91146 6.57813,-1.46875 6.57813,-0.9375 C6.57813,-0.0416667 6.11979,0.796875 5.20313,1.57813 C4.26563,2.35938 3.26042,2.75 2.1875,2.75 C1.5625,2.75 1.03646,2.58854 0.609375,2.26563 C0.203125,1.91146 0,1.46875 0,0.9375 C0,0.0416667 0.46875,-0.796875 1.40625,-1.57813 C2.32292,-2.35938 3.31771,-2.75 4.39063,-2.75"/>
<path class="Note" fill="#ffffff" fill-rule="evenodd" d="M240.743,133.65 L246.704,133.65 L246.704,141.102 L240.743,141.102 L240.743,133.65 "/>
<path class="Note" transform="matrix(0.9936,0,0,0.9936,241.24,140.854)" d="M2.4375,-5.64063 C1.75,-5.64063 1.35417,-5.32813 1.25,-4.70313 C1.22917,-4.59896 1.21875,-4.47917 1.21875,-4.34375 L0.421875,-4.34375 C0.442708,-5.59375 1.01563,-6.27083 2.14063,-6.375 C2.23438,-6.38542 2.32813,-6.39063 2.42188,-6.39063 C3.26563,-6.39063 3.84375,-6.10938 4.15625,-5.54688 C4.29167,-5.28646 4.35938,-4.98438 4.35938,-4.64063 C4.35938,-4.00521 4.0625,-3.57292 3.46875,-3.34375 C4.03125,-3.14583 4.375,-2.81771 4.5,-2.35938 C4.54167,-2.19271 4.5625,-2.00521 4.5625,-1.79688 C4.5625,-1.05729 4.27604,-0.505208 3.70313,-0.140625 C3.33854,0.0885417 2.90104,0.203125 2.39063,0.203125 C1.21354,0.203125 0.526042,-0.348958 0.328125,-1.45313 C0.317708,-1.57813 0.302083,-1.71354 0.28125,-1.85938 L1.07813,-1.85938 C1.13021,-1.08854 1.46875,-0.65625 2.09375,-0.5625 C2.19792,-0.541667 2.30729,-0.53125 2.42188,-0.53125 C3.04688,-0.53125 3.45313,-0.765625 3.64063,-1.23438 C3.71354,-1.40104 3.75,-1.58854 3.75,-1.79688 C3.73958,-2.54688 3.29688,-2.92708 2.42188,-2.9375 L2.09375,-2.92188 L1.98438,-2.92188 L1.98438,-3.67188 C2.66146,-3.68229 3.10417,-3.77604 3.3125,-3.95313 C3.47917,-4.09896 3.5625,-4.31771 3.5625,-4.60938 C3.5625,-5.09896 3.34896,-5.41667 2.92188,-5.5625 C2.77604,-5.61458 2.61458,-5.64063 2.4375,-5.64063"/>
<path class="Note" fill="#ebeb19" transform="matrix(0.9936,0,0,0.9936,239.998,80.244)" d="M4.39063,-2.75 C5.01563,-2.75 5.54688,-2.58854 5.98438,-2.26563 C6.38021,-1.91146 6.57813,-1.46875 6.57813,-0.9375 C6.57813,-0.0416667 6.11979,0.796875 5.20313,1.57813 C4.26563,2.35938 3.26042,2.75 2.1875,2.75 C1.5625,2.75 1.03646,2.58854 0.609375,2.26563 C0.203125,1.91146 0,1.46875 0,0.9375 C0,0.0416667 0.46875,-0.796875 1.40625,-1.57813 C2.32292,-2.35938 3.31771,-2.75 4.39063,-2.75"/>
<path class="Note" fill="#ffffff" fill-rule="evenodd" d="M198.362,141.102 L204.323,141.102 L204.323,148.554 L198.362,148.554 L198.362,141.102 "/>
<path class="Note" transform="matrix(0.9936,0,0,0.9936,198.859,148.306)" d="M4.28125,-6.39063 L4.28125,-5.64063 L1.625,-5.64063 L1.375,-3.8125 C1.73958,-4.09375 2.13542,-4.23438 2.5625,-4.23438 C3.28125,-4.23438 3.83333,-3.97396 4.21875,-3.45313 C4.48958,-3.07813 4.625,-2.625 4.625,-2.09375 C4.625,-1.3125 4.35938,-0.708333 3.82813,-0.28125 C3.44271,0.0416667 2.97917,0.203125 2.4375,0.203125 C1.26042,0.203125 0.557292,-0.359375 0.328125,-1.48438 C0.328125,-1.50521 0.322917,-1.53125 0.3125,-1.5625 L1.10938,-1.5625 C1.30729,-0.885417 1.73958,-0.541667 2.40625,-0.53125 C3.02083,-0.53125 3.44271,-0.770833 3.67188,-1.25 C3.76563,-1.46875 3.8125,-1.71354 3.8125,-1.98438 C3.8125,-2.63021 3.58333,-3.07813 3.125,-3.32813 C2.91667,-3.44271 2.67708,-3.5 2.40625,-3.5 C2.03125,-3.5 1.70833,-3.38021 1.4375,-3.14063 C1.375,-3.07813 1.3125,-3.01042 1.25,-2.9375 L0.515625,-2.9375 L0.984375,-6.39063 L4.28125,-6.39063 "/>
<path class="Note" fill="#78c7c7" transform="matrix(0.9936,0,0,0.9936,197.617,85.212)" d="M4.39063,-2.75 C5.01563,-2.75 5.54688,-2.58854 5.98438,-2.26563 C6.38021,-1.91146 6.57813,-1.46875 6.57813,-0.9375 C6.57813,-0.0416667 6.11979,0.796875 5.20313,1.57813 C4.26563,2.35938 3.26042,2.75 2.1875,2.75 C1.5625,2.75 1.03646,2.58854 0.609375,2.26563 C0.203125,1.91146 0,1.46875 0,0.9375 C0,0.0416667 0.46875,-0.796875 1.40625,-1.57813 C2.32292,-2.35938 3.31771,-2.75 4.39063,-2.75"/>
<path class="Note" fill="#ffffff" fill-rule="evenodd" d="M155.981,141.102 L161.942,141.102 L161.942,148.554 L155.981,148.554 L155.981,141.102 "/>
<path class="Note" transform="matrix(0.9936,0,0,0.9936,156.478,148.306)" d="M2.4375,-5.64063 C1.75,-5.64063 1.35417,-5.32813 1.25,-4.70313 C1.22917,-4.59896 1.21875,-4.47917 1.21875,-4.34375 L0.421875,-4.34375 C0.442708,-5.59375 1.01563,-6.27083 2.14063,-6.375 C2.23438,-6.38542 2.32813,-6.39063 2.42188,-6.39063 C3.26563,-6.39063 3.84375,-6.10938 4.15625,-5.54688 C4.29167,-5.28646 4.35938,-4.98438 4.35938,-4.64063 C4.35938,-4.00521 4.0625,-3.57292 3.46875,-3.34375 C4.03125,-3.14583 4.375,-2.81771 4.5,-2.35938 C4.54167,-2.19271 4.5625,-2.00521 4.5625,-1.79688 C4.5625,-1.05729 4.27604,-0.505208 3.70313,-0.140625 C3.33854,0.0885417 2.90104,0.203125 2.39063,0.203125 C1.21354,0.203125 0.526042,-0.348958 0.328125,-1.45313 C0.317708,-1.57813 0.302083,-1.71354 0.28125,-1.85938 L1.07813,-1.85938 C1.13021,-1.08854 1.46875,-0.65625 2.09375,-0.5625 C2.19792,-0.541667 2.30729,-0.53125 2.42188,-0.53125 C3.04688,-0.53125 3.45313,-0.765625 3.64063,-1.23438 C3.71354,-1.40104 3.75,-1.58854 3.75,-1.79688 C3.73958,-2.54688 3.29688,-2.92708 2.42188,-2.9375 L2.09375,-2.92188 L1.98438,-2.92188 L1.98438,-3.67188 C2.66146,-3.68229 3.10417,-3.77604 3.3125,-3.95313 C3.47917,-4.09896 3.5625,-4.31771 3.5625,-4.60938 C3.5625,-5.09896 3.34896,-5.41667 2.92188,-5.5625 C2.77604,-5.61458 2.61458,-5.64063 2.4375,-5.64063"/>
<path class="Note" fill="#ed2929" transform="matrix(0.9936,0,0,0.9936,155.236,87.696)" d="M4.39063,-2.75 C5.01563,-2.75 5.54688,-2.58854 5.98438,-2.26563 C6.38021,-1.91146 6.57813,-1.46875 6.57813,-0.9375 C6.57813,-0.0416667 6.11979,0.796875 5.20313,1.57813 C4.26563,2.35938 3.26042,2.75 2.1875,2.75 C1.5625,2.75 1.03646,2.58854 0.609375,2.26563 C0.203125,1.91146 0,1.46875 0,0.9375 C0,0.0416667 0.46875,-0.796875 1.40625,-1.57813 C2.32292,-2.35938 3.31771,-2.75 4.39063,-2.75"/>
<path class="Note" fill="#ffffff" fill-rule="evenodd" d="M113.6,148.554 L119.561,148.554 L119.561,156.006 L113.6,156.006 L113.6,148.554 "/>
<path class="Note" transform="matrix(0.9936,0,0,0.9936,114.096,155.758)" d="M0.390625,-2.90625 C0.390625,-4.76042 0.901042,-5.875 1.92188,-6.25 C2.16146,-6.34375 2.41146,-6.39063 2.67188,-6.39063 C3.35938,-6.39063 3.86979,-6.10938 4.20313,-5.54688 C4.33854,-5.30729 4.43229,-5.03125 4.48438,-4.71875 L3.6875,-4.71875 C3.58333,-5.22917 3.3125,-5.53125 2.875,-5.625 C2.79167,-5.63542 2.70833,-5.64063 2.625,-5.64063 C1.95833,-5.64063 1.52083,-5.21875 1.3125,-4.375 C1.23958,-4.04167 1.20313,-3.67188 1.20313,-3.26563 C1.55729,-3.75521 2.04688,-4 2.67188,-4 C3.33854,-4 3.85417,-3.75 4.21875,-3.25 C4.48958,-2.88542 4.625,-2.45833 4.625,-1.96875 C4.625,-1.23958 4.375,-0.671875 3.875,-0.265625 C3.5,0.046875 3.05208,0.203125 2.53125,0.203125 C1.10417,0.192708 0.390625,-0.84375 0.390625,-2.90625 M2.5625,-3.26563 C2.05208,-3.26563 1.67708,-3.07292 1.4375,-2.6875 C1.3125,-2.46875 1.25,-2.21875 1.25,-1.9375 C1.25,-1.4375 1.43229,-1.04688 1.79688,-0.765625 C2.00521,-0.609375 2.25,-0.53125 2.53125,-0.53125 C2.98958,-0.53125 3.33854,-0.71875 3.57813,-1.09375 C3.73438,-1.33333 3.8125,-1.60417 3.8125,-1.90625 C3.8125,-2.51042 3.59896,-2.92188 3.17188,-3.14063 C2.99479,-3.22396 2.79167,-3.26563 2.5625,-3.26563"/>
<path class="Note" fill="#bf6a1f" transform="matrix(0.9936,0,0,0.9936,112.854,90.18)" d="M4.39063,-2.75 C5.01563,-2.75 5.54688,-2.58854 5.98438,-2.26563 C6.38021,-1.91146 6.57813,-1.46875 6.57813,-0.9375 C6.57813,-0.0416667 6.11979,0.796875 5.20313,1.57813 C4.26563,2.35938 3.26042,2.75 2.1875,2.75 C1.5625,2.75 1.03646,2.58854 0.609375,2.26563 C0.203125,1.91146 0,1.46875 0,0.9375 C0,0.0416667 0.46875,-0.796875 1.40625,-1.57813 C2.32292,-2.35938 3.31771,-2.75 4.39063,-2.75"/>
<path class="Note" fill="#ffffff" fill-rule="evenodd" d="M71.2185,148.554 L77.1801,148.554 L77.1801,156.006 L71.2185,156.006 L71.2185,148.554 "/>
<path class="Note" transform="matrix(0.9936,0,0,0.9936,71.7153,155.758)" d="M2.4375,-5.64063 C1.75,-5.64063 1.35417,-5.32813 1.25,-4.70313 C1.22917,-4.59896 1.21875,-4.47917 1.21875,-4.34375 L0.421875,-4.34375 C0.442708,-5.59375 1.01563,-6.27083 2.14063,-6.375 C2.23438,-6.38542 2.32813,-6.39063 2.42188,-6.39063 C3.26563,-6.39063 3.84375,-6.10938 4.15625,-5.54688 C4.29167,-5.28646 4.35938,-4.98438 4.35938,-4.64063 C4.35938,-4.00521 4.0625,-3.57292 3.46875,-3.34375 C4.03125,-3.14583 4.375,-2.81771 4.5,-2.35938 C4.54167,-2.19271 4.5625,-2.00521 4.5625,-1.79688 C4.5625,-1.05729 4.27604,-0.505208 3.70313,-0.140625 C3.33854,0.0885417 2.90104,0.203125 2.39063,0.203125 C1.21354,0.203125 0.526042,-0.348958 0.328125,-1.45313 C0.317708,-1.57813 0.302083,-1.71354 0.28125,-1.85938 L1.07813,-1.85938 C1.13021,-1.08854 1.46875,-0.65625 2.09375,-0.5625 C2.19792,-0.541667 2.30729,-0.53125 2.42188,-0.53125 C3.04688,-0.53125 3.45313,-0.765625 3.64063,-1.23438 C3.71354,-1.40104 3.75,-1.58854 3.75,-1.79688 C3.73958,-2.54688 3.29688,-2.92708 2.42188,-2.9375 L2.09375,-2.92188 L1.98438,-2.92188 L1.98438,-3.67188 C2.66146,-3.68229 3.10417,-3.77604 3.3125,-3.95313 C3.47917,-4.09896 3.5625,-4.31771 3.5625,-4.60938 C3.5625,-5.09896 3.34896,-5.41667 2.92188,-5.5625 C2.77604,-5.61458 2.61458,-5.64063 2.4375,-5.64063"/>
<path class="Note" fill="#99cc33" transform="matrix(0.9936,0,0,0.9936,70.4733,95.148)" d="M4.39063,-2.75 C5.01563,-2.75 5.54688,-2.58854 5.98438,-2.26563 C6.38021,-1.91146 6.57813,-1.46875 6.57813,-0.9375 C6.57813,-0.0416667 6.11979,0.796875 5.20313,1.57813 C4.26563,2.35938 3.26042,2.75 2.1875,2.75 C1.5625,2.75 1.03646,2.58854 0.609375,2.26563 C0.203125,1.91146 0,1.46875 0,0.9375 C0,0.0416667 0.46875,-0.796875 1.40625,-1.57813 C2.32292,-2.35938 3.31771,-2.75 4.39063,-2.75"/>
<path class="Clef" transform="matrix(0.9936,0,0,0.9936,32.0544,133.65)" d="M5.32813,8.5 C5.32813,8.86458 5.04167,9.04688 4.46875,9.04688 C4.02083,9.04688 3.625,8.91146 3.28125,8.64063 C2.95833,8.34896 2.79688,7.98438 2.79688,7.54688 C2.79688,6.76563 3.27083,6.14063 4.21875,5.67188 C5.14583,5.18229 6.23438,4.9375 7.48438,4.9375 C7.96354,4.9375 8.47917,4.97396 9.03125,5.04688 C9.42708,5.09896 9.875,5.20313 10.375,5.35938 C10.8125,5.49479 11.1563,5.70573 11.4063,5.99219 C11.6563,6.27865 11.7813,6.61458 11.7813,7 C11.7813,7.89583 11.3177,8.63021 10.3906,9.20313 C11.7448,9.45313 12.4271,10.0573 12.4375,11.0156 C12.4375,11.8281 12.0729,12.5599 11.3438,13.2109 C10.6146,13.862 9.79167,14.1875 8.875,14.1875 C8.47917,14.1875 8.07813,14.0938 7.67188,13.9063 C7.29688,13.7292 7.03125,13.5625 6.875,13.4063 C6.71875,13.2188 6.64063,13.0781 6.64063,12.9844 C6.64063,12.8594 6.70833,12.75 6.84375,12.6563 C6.95833,12.5417 7.07813,12.4844 7.20313,12.4844 C7.25521,12.4844 7.36719,12.5677 7.53906,12.7344 C7.71094,12.901 7.95833,12.9844 8.28125,12.9844 C8.72917,12.9844 9.16146,12.7969 9.57813,12.4219 C9.97396,12.0573 10.1719,11.6198 10.1719,11.1094 C10.1719,10.6719 9.98438,10.3542 9.60938,10.1563 C9.24479,9.95833 8.76563,9.85938 8.17188,9.85938 C8.06771,9.85938 8.01563,9.75 8.01563,9.53125 C8.01563,9.21875 8.13021,9.0625 8.35938,9.0625 C8.72396,9.0625 9.05208,8.90625 9.34375,8.59375 C9.61458,8.26042 9.75,7.90104 9.75,7.51563 C9.75,7.40104 9.71875,7.22917 9.65625,7 C9.60417,6.84375 9.44792,6.65104 9.1875,6.42188 C8.9375,6.21354 8.58854,6.07292 8.14063,6 C8.02604,6.63542 7.88021,7.44792 7.70313,8.4375 C7.52604,9.42708 7.40625,10.0781 7.34375,10.3906 C7.125,11.5156 6.72396,12.4583 6.14063,13.2188 C5.52604,14.0313 4.86458,14.4375 4.15625,14.4375 C3.9375,14.4375 3.71354,14.3854 3.48438,14.2813 C3.29688,14.1979 3.0625,14.0365 2.78125,13.7969 C2.52083,13.5885 2.34375,13.4479 2.25,13.375 C2.19792,13.3438 2.17188,13.2865 2.17188,13.2031 C2.17188,13.0781 2.21875,12.9635 2.3125,12.8594 C2.41667,12.7344 2.52604,12.6719 2.64063,12.6719 C2.71354,12.6719 2.89323,12.7969 3.17969,13.0469 C3.46615,13.2969 3.76563,13.4219 4.07813,13.4219 C4.68229,13.4219 5.13542,13.0365 5.4375,12.2656 C5.71875,11.526 5.85938,10.6094 5.85938,9.51563 L5.85938,9.35938 C5.85938,8.63021 5.97917,7.54167 6.21875,6.09375 C5.80208,6.22917 5.46875,6.42708 5.21875,6.6875 C4.95833,6.94792 4.82813,7.21875 4.82813,7.5 C4.82813,7.71875 4.91146,7.90625 5.07813,8.0625 C5.24479,8.21875 5.32813,8.36458 5.32813,8.5 M1.40625,2.39063 C1.46875,2.39063 1.625,2.45313 1.875,2.57813 C2.13542,2.71354 2.35938,2.78125 2.54688,2.78125 C3.03646,2.78125 3.64063,2.42188 4.35938,1.70313 C6.43229,-0.411458 7.85938,-2.65104 8.64063,-5.01563 C8.79688,-5.51563 9.17708,-5.76563 9.78125,-5.76563 C10.0938,-5.76563 10.3646,-5.69792 10.5938,-5.5625 C10.8125,-5.42708 10.9219,-5.28646 10.9219,-5.14063 L10.5625,2.17188 C10.5625,2.55729 10.7031,2.75 10.9844,2.75 C11.1198,2.75 11.3281,2.6875 11.6094,2.5625 C11.8698,2.42708 12.026,2.35938 12.0781,2.35938 C12.1823,2.35938 12.2448,2.47396 12.2656,2.70313 C12.2656,2.91146 12.1823,3.04167 12.0156,3.09375 C11.8802,3.125 11.6198,3.24479 11.2344,3.45313 C10.8281,3.66146 10.5104,3.76563 10.2813,3.76563 C9.78125,3.76563 9.42708,3.375 9.21875,2.59375 C8.89583,1.375 8.6875,0.104167 8.59375,-1.21875 C8.07292,-0.552083 7.49479,0.119792 6.85938,0.796875 C7.08854,1.24479 7.51563,1.46875 8.14063,1.46875 C8.23438,1.46875 8.30729,1.46354 8.35938,1.45313 L8.375,1.45313 C8.47917,1.45313 8.53125,1.54688 8.53125,1.73438 C8.53125,1.98438 8.44792,2.13542 8.28125,2.1875 C8.01042,2.28125 7.72396,2.32813 7.42188,2.32813 C6.77604,2.32813 6.30729,2.10417 6.01563,1.65625 L5.23438,2.35938 C4.14063,3.29688 3.25,3.76563 2.5625,3.76563 C2.375,3.76563 2.1875,3.73438 2,3.67188 C1.84375,3.60938 1.66146,3.51042 1.45313,3.375 C1.36979,3.34375 1.27865,3.29688 1.17969,3.23438 C1.08073,3.17188 1.02083,3.13542 1,3.125 C0.9375,3.10417 0.90625,3.04688 0.90625,2.95313 C0.90625,2.84896 0.958333,2.72396 1.0625,2.57813 C1.14583,2.45313 1.26042,2.39063 1.40625,2.39063 M5.76563,-10.7969 C5.76563,-10.474 5.48438,-10.3125 4.92188,-10.3125 C4.43229,-10.3125 4.00521,-10.474 3.64063,-10.7969 C3.28646,-11.1302 3.10938,-11.5313 3.10938,-12 C3.10938,-12.4479 3.25,-12.8385 3.53125,-13.1719 C3.83333,-13.5052 4.21875,-13.7552 4.6875,-13.9219 C5.11458,-14.0781 5.59896,-14.2031 6.14063,-14.2969 C6.69271,-14.3594 7.22396,-14.3906 7.73438,-14.3906 C8.03646,-14.3906 8.59896,-14.2552 9.42188,-13.9844 C10.2552,-13.7135 10.8333,-13.5781 11.1563,-13.5781 C11.5625,-13.5781 11.9479,-13.651 12.3125,-13.7969 C12.6042,-13.9219 12.8906,-14.0677 13.1719,-14.2344 C13.3906,-14.3802 13.5104,-14.4531 13.5313,-14.4531 C13.6563,-14.4531 13.7604,-14.4167 13.8438,-14.3438 C13.9479,-14.2396 14,-14.151 14,-14.0781 C14,-13.9948 13.8802,-13.849 13.6406,-13.6406 C13.3802,-13.401 13.0078,-13.1641 12.5234,-12.9297 C12.0391,-12.6953 11.5313,-12.5781 11,-12.5781 C10.7604,-12.5781 10.4688,-12.6198 10.125,-12.7031 C9.89583,-11.2552 9.66146,-9.96875 9.42188,-8.84375 C9.21354,-7.85417 8.79688,-6.98958 8.17188,-6.25 C7.56771,-5.51042 6.89583,-5.14063 6.15625,-5.14063 C5.85417,-5.14063 5.58854,-5.19792 5.35938,-5.3125 C5.09896,-5.44792 4.82292,-5.64583 4.53125,-5.90625 C4.30208,-6.09375 4.08333,-6.26563 3.875,-6.42188 C3.82292,-6.46354 3.79688,-6.52604 3.79688,-6.60938 C3.79688,-6.69271 3.84896,-6.80729 3.95313,-6.95313 C4.05729,-7.06771 4.15104,-7.125 4.23438,-7.125 C4.31771,-7.125 4.54167,-6.96354 4.90625,-6.64063 C5.27083,-6.31771 5.59375,-6.15625 5.875,-6.15625 C6.39583,-6.15625 6.80208,-6.45313 7.09375,-7.04688 C7.375,-7.64063 7.53646,-8.34375 7.57813,-9.15625 C7.64063,-10.5 7.79167,-11.8906 8.03125,-13.3281 C7.73958,-13.3906 7.52604,-13.4219 7.39063,-13.4219 C6.76563,-13.4219 6.22917,-13.2917 5.78125,-13.0313 C5.34375,-12.7813 5.125,-12.4427 5.125,-12.0156 C5.125,-11.7031 5.22917,-11.4635 5.4375,-11.2969 C5.65625,-11.1094 5.76563,-10.9427 5.76563,-10.7969"/>
<path class="Clef" transform="matrix(0.9936,0,0,0.9936,32.0544,77.76)" d="M7.34375,-5.125 C7.34375,-5.125 7.38542,-5.125 7.46875,-5.125 C7.52083,-5.13542 7.5625,-5.14063 7.59375,-5.14063 C9.05208,-5.14063 10.25,-4.625 11.1875,-3.59375 C12.125,-2.58333 12.5938,-1.40104 12.5938,-0.046875 C12.5938,1.64063 11.901,3.01042 10.5156,4.0625 C10.151,4.35417 9.67188,4.58854 9.07813,4.76563 C9.15104,5.60938 9.1875,6.29167 9.1875,6.8125 C9.1875,6.91667 9.17188,7.29688 9.14063,7.95313 C9.08854,9.16146 8.67188,10.2083 7.89063,11.0938 C7.14063,11.9688 6.20313,12.4063 5.07813,12.4063 C4.02604,12.4063 3.13021,12.0365 2.39063,11.2969 C1.64063,10.5365 1.26563,9.625 1.26563,8.5625 C1.26563,8 1.48438,7.52083 1.92188,7.125 C2.35938,6.73958 2.86979,6.54688 3.45313,6.54688 C3.97396,6.54688 4.41146,6.75 4.76563,7.15625 C5.13021,7.53125 5.3125,8 5.3125,8.5625 C5.3125,9.0625 5.13021,9.49479 4.76563,9.85938 C4.40104,10.224 3.96354,10.4063 3.45313,10.4063 C3.24479,10.4063 3.04688,10.3698 2.85938,10.2969 C3.43229,11.1406 4.19271,11.5625 5.14063,11.5625 C6.03646,11.5625 6.77083,11.1979 7.34375,10.4688 C7.94792,9.71875 8.27604,8.83854 8.32813,7.82813 C8.34896,7.20313 8.35938,6.84896 8.35938,6.76563 C8.35938,6.03646 8.33333,5.4375 8.28125,4.96875 C7.63542,5.07292 7.05729,5.125 6.54688,5.125 C4.73438,5.125 3.19271,4.40625 1.92188,2.96875 C0.671875,1.52083 0.046875,-0.197917 0.046875,-2.1875 C0.046875,-2.60417 0.0833333,-3.02604 0.15625,-3.45313 C0.239583,-3.80729 0.338542,-4.19271 0.453125,-4.60938 C0.515625,-4.84896 0.692708,-5.22917 0.984375,-5.75 C1.08854,-5.90625 1.20573,-6.10156 1.33594,-6.33594 C1.46615,-6.57031 1.55729,-6.72396 1.60938,-6.79688 C1.73438,-7.05729 1.98438,-7.41146 2.35938,-7.85938 C2.46354,-7.97396 2.57292,-8.10156 2.6875,-8.24219 C2.80208,-8.38281 2.89844,-8.5 2.97656,-8.59375 C3.05469,-8.6875 3.11198,-8.76042 3.14844,-8.8125 C3.1849,-8.86458 3.47917,-9.20833 4.03125,-9.84375 C4.15625,-9.97917 4.28125,-10.1198 4.40625,-10.2656 C4.53125,-10.4115 4.63281,-10.5286 4.71094,-10.6172 C4.78906,-10.7057 4.84896,-10.7656 4.89063,-10.7969 C4.42188,-12.349 4.125,-13.5885 4,-14.5156 C3.91667,-15.2552 3.875,-16.2708 3.875,-17.5625 C3.875,-18.6979 4.13542,-19.7604 4.65625,-20.75 C5.15625,-21.7708 5.86458,-22.6094 6.78125,-23.2656 C6.84375,-23.3073 6.90625,-23.3281 6.96875,-23.3281 C7.0625,-23.3281 7.13021,-23.3073 7.17188,-23.2656 C7.86979,-22.4219 8.47396,-21.3229 8.98438,-19.9688 C9.50521,-18.6146 9.76563,-17.3802 9.76563,-16.2656 C9.76563,-15.0156 9.46875,-13.8438 8.875,-12.75 C8.19792,-11.5938 7.32292,-10.3958 6.25,-9.15625 C6.52083,-8.30208 6.88542,-6.95833 7.34375,-5.125 M9,3.96875 C9.67708,3.71875 10.2083,3.29688 10.5938,2.70313 C11.0104,2.13021 11.2188,1.48438 11.2188,0.765625 C11.2188,-0.161458 10.9063,-0.984375 10.2813,-1.70313 C9.63542,-2.44271 8.81771,-2.85938 7.82813,-2.95313 C8.39063,-0.203125 8.78125,2.10417 9,3.96875 M1.45313,-0.546875 C1.45313,0.744792 1.97396,1.88021 3.01563,2.85938 C4.07813,3.80729 5.27604,4.28125 6.60938,4.28125 C7.15104,4.28125 7.68229,4.23958 8.20313,4.15625 C7.99479,2.17708 7.58333,-0.192708 6.96875,-2.95313 C6.22917,-2.86979 5.64063,-2.60938 5.20313,-2.17188 C4.76563,-1.71354 4.54688,-1.19792 4.54688,-0.625 C4.54688,0.364583 5.07813,1.16667 6.14063,1.78125 C6.22396,1.875 6.26563,1.97396 6.26563,2.07813 C6.26563,2.18229 6.22396,2.27604 6.14063,2.35938 C6.05729,2.45313 5.95833,2.5 5.84375,2.5 C5.83333,2.5 5.77604,2.48958 5.67188,2.46875 C4.92188,2.0625 4.34896,1.54167 3.95313,0.90625 C3.56771,0.21875 3.375,-0.46875 3.375,-1.15625 C3.375,-2.05208 3.65625,-2.86458 4.21875,-3.59375 C4.80208,-4.32292 5.5625,-4.79167 6.5,-5 C6.13542,-6.45833 5.83854,-7.59896 5.60938,-8.42188 C5.40104,-8.18229 5.15104,-7.89844 4.85938,-7.57031 C4.56771,-7.24219 4.39583,-7.04167 4.34375,-6.96875 C3.875,-6.36458 3.51563,-5.89063 3.26563,-5.54688 C2.81771,-4.93229 2.48958,-4.40625 2.28125,-3.96875 C2.0625,-3.46875 1.86979,-2.92708 1.70313,-2.34375 C1.53646,-1.78125 1.45313,-1.18229 1.45313,-0.546875 M7.96875,-20.4063 C6.98958,-19.9271 6.22396,-19.2396 5.67188,-18.3438 C5.09896,-17.4167 4.8125,-16.4219 4.8125,-15.3594 C4.8125,-14.4219 5.04688,-13.1563 5.51563,-11.5625 C6.45313,-12.6979 7.15625,-13.7448 7.625,-14.7031 C8.11458,-15.724 8.35938,-16.7865 8.35938,-17.8906 C8.35938,-18.724 8.22917,-19.5625 7.96875,-20.4063 M5.82813,15.2344 C6.16146,14.901 6.32813,14.5625 6.32813,14.2188 C6.30729,13.9479 6.19271,13.7396 5.98438,13.5938 C5.74479,13.4375 5.46875,13.3594 5.15625,13.3594 C4.9375,13.3594 4.75521,13.4323 4.60938,13.5781 C4.48438,13.7031 4.42188,13.8646 4.42188,14.0625 C4.42188,14.3021 4.51563,14.4792 4.70313,14.5938 L5.82813,15.2344 M6.14063,15.4063 C6.68229,15.7083 6.95313,16.1146 6.95313,16.625 L6.95313,16.6875 C6.95313,17.0833 6.79167,17.4219 6.46875,17.7031 C6.14583,17.9844 5.68229,18.125 5.07813,18.125 C4.58854,18.125 4.16146,17.9948 3.79688,17.7344 C3.43229,17.4844 3.25,17.1458 3.25,16.7188 C3.25,16.5521 3.29167,16.3958 3.375,16.25 C3.47917,16.0833 3.56771,15.9688 3.64063,15.9063 L4,15.5313 C3.60417,15.2604 3.40625,14.901 3.40625,14.4531 C3.40625,14.099 3.5625,13.7865 3.875,13.5156 C4.19792,13.2552 4.625,13.125 5.15625,13.125 C5.60417,13.125 5.98438,13.224 6.29688,13.4219 C6.60938,13.6198 6.76563,13.8854 6.76563,14.2188 C6.76563,14.5729 6.55729,14.9688 6.14063,15.4063 M4.29688,15.7031 C3.91146,16.0469 3.70313,16.3854 3.67188,16.7188 C3.70313,17.0729 3.84896,17.3542 4.10938,17.5625 C4.39063,17.7813 4.71354,17.8906 5.07813,17.8906 C5.33854,17.8906 5.54688,17.8073 5.70313,17.6406 C5.85938,17.4844 5.9375,17.2969 5.9375,17.0781 C5.92708,16.7865 5.8125,16.5781 5.59375,16.4531 L4.29688,15.7031 "/>
<path class="KeySig" transform="matrix(0.9936,0,0,0.9936,54.4337,65.34)" d="M0.921875,-0.828125 L0.921875,0.71875 C0.921875,1.27083 0.947917,1.70833 1,2.03125 C1.42708,1.66667 1.73438,1.39583 1.92188,1.21875 C2.13021,1.01042 2.33854,0.721354 2.54688,0.351563 C2.75521,-0.0182292 2.85938,-0.385417 2.85938,-0.75 C2.85938,-1.11458 2.78125,-1.42708 2.625,-1.6875 C2.46875,-1.94792 2.26042,-2.07813 2,-2.07813 C1.6875,-2.07813 1.42708,-1.95833 1.21875,-1.71875 C1.02083,-1.45833 0.921875,-1.16146 0.921875,-0.828125 M0.09375,2.75 L-0.15625,-9.14063 C0.03125,-9.24479 0.216146,-9.29688 0.398438,-9.29688 C0.580729,-9.29688 0.760417,-9.24479 0.9375,-9.14063 L0.78125,-2.25 C1.3125,-2.70833 1.92708,-2.9375 2.625,-2.9375 C3.125,-2.9375 3.54427,-2.72917 3.88281,-2.3125 C4.22135,-1.89583 4.39063,-1.41667 4.39063,-0.875 C4.39063,-0.541667 4.28125,-0.182292 4.0625,0.203125 C3.85417,0.546875 3.63542,0.817708 3.40625,1.01563 C3.27083,1.11979 2.9375,1.38021 2.40625,1.79688 C2.25,1.91146 2.0651,2.04688 1.85156,2.20313 C1.63802,2.35938 1.50521,2.45833 1.45313,2.5 C1.35938,2.55208 1.27083,2.65625 1.1875,2.8125 C1.10417,2.94792 1,3.05729 0.875,3.14063 C0.791667,3.22396 0.684896,3.26563 0.554688,3.26563 C0.424479,3.26563 0.317708,3.21875 0.234375,3.125 C0.140625,3.03125 0.09375,2.90625 0.09375,2.75"/>
<path class="KeySig" transform="matrix(0.9936,0,0,0.9936,49.4657,72.792)" d="M0.921875,-0.828125 L0.921875,0.71875 C0.921875,1.27083 0.947917,1.70833 1,2.03125 C1.42708,1.66667 1.73438,1.39583 1.92188,1.21875 C2.13021,1.01042 2.33854,0.721354 2.54688,0.351563 C2.75521,-0.0182292 2.85938,-0.385417 2.85938,-0.75 C2.85938,-1.11458 2.78125,-1.42708 2.625,-1.6875 C2.46875,-1.94792 2.26042,-2.07813 2,-2.07813 C1.6875,-2.07813 1.42708,-1.95833 1.21875,-1.71875 C1.02083,-1.45833 0.921875,-1.16146 0.921875,-0.828125 M0.09375,2.75 L-0.15625,-9.14063 C0.03125,-9.24479 0.216146,-9.29688 0.398438,-9.29688 C0.580729,-9.29688 0.760417,-9.24479 0.9375,-9.14063 L0.78125,-2.25 C1.3125,-2.70833 1.92708,-2.9375 2.625,-2.9375 C3.125,-2.9375 3.54427,-2.72917 3.88281,-2.3125 C4.22135,-1.89583 4.39063,-1.41667 4.39063,-0.875 C4.39063,-0.541667 4.28125,-0.182292 4.0625,0.203125 C3.85417,0.546875 3.63542,0.817708 3.40625,1.01563 C3.27083,1.11979 2.9375,1.38021 2.40625,1.79688 C2.25,1.91146 2.0651,2.04688 1.85156,2.20313 C1.63802,2.35938 1.50521,2.45833 1.45313,2.5 C1.35938,2.55208 1.27083,2.65625 1.1875,2.8125 C1.10417,2.94792 1,3.05729 0.875,3.14063 C0.791667,3.22396 0.684896,3.26563 0.554688,3.26563 C0.424479,3.26563 0.317708,3.21875 0.234375,3.125 C0.140625,3.03125 0.09375,2.90625 0.09375,2.75"/>
<path class="Fingering" d="M489.09,92.9136 C488.975,92.9136 488.782,92.9709 488.511,93.0855 L488.511,92.9761 L489.949,92.2417 L490.011,92.2574 L490.011,97.0542 C490.011,97.2626 490.074,97.398 490.199,97.4605 C490.303,97.5022 490.496,97.523 490.777,97.523 L490.777,97.648 L488.558,97.648 L488.558,97.523 C488.913,97.5126 489.136,97.4501 489.23,97.3355 C489.293,97.2417 489.324,97.0959 489.324,96.898 L489.324,93.2886 C489.314,93.0386 489.235,92.9136 489.09,92.9136"/>
<path class="Fingering" d="M449.2,90.8675 L449.2,91.3519 L448.372,91.3519 L448.372,92.68 L447.763,92.68 L447.763,91.3519 L445.513,91.3519 L445.513,90.8675 L448.028,87.2737 L448.372,87.2737 L448.372,90.8675 L449.2,90.8675 M447.747,90.8675 L447.747,88.1175 L445.841,90.8675 L447.747,90.8675 "/>
<path class="Fingering" d="M404.507,85.4616 C404.392,85.4616 404.199,85.5189 403.929,85.6335 L403.929,85.5241 L405.366,84.7897 L405.429,84.8054 L405.429,89.6022 C405.429,89.8106 405.491,89.946 405.616,90.0085 C405.72,90.0502 405.913,90.071 406.194,90.071 L406.194,90.196 L403.976,90.196 L403.976,90.071 C404.33,90.0606 404.554,89.9981 404.647,89.8835 C404.71,89.7897 404.741,89.6439 404.741,89.446 L404.741,85.8366 C404.731,85.5866 404.653,85.4616 404.507,85.4616"/>
<path class="Fingering" d="M361.298,87.087 C361.423,87.087 361.605,87.1547 361.844,87.2901 C362.094,87.4464 362.308,87.5245 362.485,87.5245 C362.85,87.5245 363.136,87.363 363.344,87.0401 C363.469,86.8318 363.532,86.5974 363.532,86.337 C363.532,85.5766 363.079,85.1599 362.173,85.087 C362.079,85.0766 361.98,85.0714 361.876,85.0714 L361.876,84.962 C362.48,84.7641 362.876,84.5089 363.063,84.1964 C363.157,84.0297 363.204,83.8474 363.204,83.6495 C363.204,83.2953 363.058,83.0401 362.766,82.8839 C362.631,82.8214 362.485,82.7901 362.329,82.7901 C361.881,82.7901 361.511,83.0245 361.219,83.4932 C361.188,83.5349 361.162,83.5818 361.141,83.6339 L361.016,83.6026 C361.266,82.9255 361.631,82.5141 362.11,82.3682 C362.256,82.3266 362.417,82.3057 362.594,82.3057 C363.074,82.3057 363.428,82.4724 363.657,82.8057 C363.782,82.9828 363.844,83.1807 363.844,83.3995 C363.844,83.7224 363.693,84.0141 363.391,84.2745 C363.298,84.3474 363.199,84.4255 363.094,84.5089 C363.574,84.7172 363.881,85.0037 364.016,85.3682 C364.079,85.5453 364.11,85.7432 364.11,85.962 C364.11,86.5974 363.844,87.0922 363.313,87.4464 C362.917,87.6964 362.449,87.8214 361.907,87.8214 C361.417,87.8214 361.126,87.712 361.032,87.4932 C361.011,87.4516 361.001,87.4099 361.001,87.3682 C361.001,87.212 361.079,87.1235 361.235,87.1026 C361.256,87.0922 361.277,87.087 361.298,87.087"/>
<path class="Fingering" d="M319.745,78.0096 C319.63,78.0096 319.437,78.0669 319.166,78.1815 L319.166,78.0721 L320.604,77.3377 L320.666,77.3534 L320.666,82.1502 C320.666,82.3586 320.729,82.494 320.854,82.5565 C320.958,82.5982 321.151,82.619 321.432,82.619 L321.432,82.744 L319.213,82.744 L319.213,82.619 C319.568,82.6086 319.791,82.5461 319.885,82.4315 C319.948,82.3377 319.979,82.1919 319.979,81.994 L319.979,78.3846 C319.969,78.1346 319.89,78.0096 319.745,78.0096"/>
<path class="Fingering" d="M276.535,79.635 C276.66,79.635 276.843,79.7027 277.082,79.8381 C277.332,79.9944 277.546,80.0725 277.723,80.0725 C278.087,80.0725 278.374,79.911 278.582,79.5881 C278.707,79.3798 278.77,79.1454 278.77,78.885 C278.77,78.1246 278.317,77.7079 277.41,77.635 C277.317,77.6246 277.218,77.6194 277.114,77.6194 L277.114,77.51 C277.718,77.3121 278.114,77.0569 278.301,76.7444 C278.395,76.5777 278.442,76.3954 278.442,76.1975 C278.442,75.8433 278.296,75.5881 278.004,75.4319 C277.869,75.3694 277.723,75.3381 277.567,75.3381 C277.119,75.3381 276.749,75.5725 276.457,76.0412 C276.426,76.0829 276.4,76.1298 276.379,76.1819 L276.254,76.1506 C276.504,75.4735 276.869,75.0621 277.348,74.9162 C277.494,74.8746 277.655,74.8537 277.832,74.8537 C278.311,74.8537 278.666,75.0204 278.895,75.3537 C279.02,75.5308 279.082,75.7287 279.082,75.9475 C279.082,76.2704 278.931,76.5621 278.629,76.8225 C278.535,76.8954 278.436,76.9735 278.332,77.0569 C278.811,77.2652 279.119,77.5517 279.254,77.9162 C279.317,78.0933 279.348,78.2912 279.348,78.51 C279.348,79.1454 279.082,79.6402 278.551,79.9944 C278.155,80.2444 277.686,80.3694 277.145,80.3694 C276.655,80.3694 276.364,80.26 276.27,80.0412 C276.249,79.9996 276.239,79.9579 276.239,79.9162 C276.239,79.76 276.317,79.6715 276.473,79.6506 C276.494,79.6402 276.515,79.635 276.535,79.635"/>
<path class="Fingering" d="M234.982,78.0096 C234.868,78.0096 234.675,78.0669 234.404,78.1815 L234.404,78.0721 L235.842,77.3377 L235.904,77.3534 L235.904,82.1502 C235.904,82.3586 235.967,82.494 236.092,82.5565 C236.196,82.5982 236.389,82.619 236.67,82.619 L236.67,82.744 L234.451,82.744 L234.451,82.619 C234.805,82.6086 235.029,82.5461 235.123,82.4315 C235.186,82.3377 235.217,82.1919 235.217,81.994 L235.217,78.3846 C235.206,78.1346 235.128,78.0096 234.982,78.0096"/>
<path class="Fingering" d="M191.773,87.087 C191.898,87.087 192.081,87.1547 192.32,87.2901 C192.57,87.4464 192.784,87.5245 192.961,87.5245 C193.325,87.5245 193.612,87.363 193.82,87.0401 C193.945,86.8318 194.008,86.5974 194.008,86.337 C194.008,85.5766 193.554,85.1599 192.648,85.087 C192.554,85.0766 192.456,85.0714 192.351,85.0714 L192.351,84.962 C192.956,84.7641 193.351,84.5089 193.539,84.1964 C193.633,84.0297 193.679,83.8474 193.679,83.6495 C193.679,83.2953 193.534,83.0401 193.242,82.8839 C193.107,82.8214 192.961,82.7901 192.804,82.7901 C192.357,82.7901 191.987,83.0245 191.695,83.4932 C191.664,83.5349 191.638,83.5818 191.617,83.6339 L191.492,83.6026 C191.742,82.9255 192.107,82.5141 192.586,82.3682 C192.732,82.3266 192.893,82.3057 193.07,82.3057 C193.549,82.3057 193.903,82.4724 194.133,82.8057 C194.258,82.9828 194.32,83.1807 194.32,83.3995 C194.32,83.7224 194.169,84.0141 193.867,84.2745 C193.773,84.3474 193.674,84.4255 193.57,84.5089 C194.049,84.7172 194.357,85.0037 194.492,85.3682 C194.554,85.5453 194.586,85.7432 194.586,85.962 C194.586,86.5974 194.32,87.0922 193.789,87.4464 C193.393,87.6964 192.924,87.8214 192.383,87.8214 C191.893,87.8214 191.601,87.712 191.508,87.4932 C191.487,87.4516 191.476,87.4099 191.476,87.3682 C191.476,87.212 191.554,87.1235 191.711,87.1026 C191.732,87.0922 191.752,87.087 191.773,87.087"/>
<path class="Fingering" d="M150.22,85.4616 C150.106,85.4616 149.913,85.5189 149.642,85.6335 L149.642,85.5241 L151.08,84.7897 L151.142,84.8054 L151.142,89.6022 C151.142,89.8106 151.205,89.946 151.33,90.0085 C151.434,90.0502 151.627,90.071 151.908,90.071 L151.908,90.196 L149.689,90.196 L149.689,90.071 C150.043,90.0606 150.267,89.9981 150.361,89.8835 C150.423,89.7897 150.455,89.6439 150.455,89.446 L150.455,85.8366 C150.444,85.5866 150.366,85.4616 150.22,85.4616"/>
<path class="Fingering" d="M110.152,90.8675 L110.152,91.3519 L109.324,91.3519 L109.324,92.68 L108.714,92.68 L108.714,91.3519 L106.464,91.3519 L106.464,90.8675 L108.98,87.2737 L109.324,87.2737 L109.324,90.8675 L110.152,90.8675 M108.699,90.8675 L108.699,88.1175 L106.792,90.8675 L108.699,90.8675 "/>
<path class="Fingering" d="M65.4581,92.9136 C65.3435,92.9136 65.1508,92.9709 64.88,93.0855 L64.88,92.9761 L66.3175,92.2417 L66.38,92.2574 L66.38,97.0542 C66.38,97.2626 66.4425,97.398 66.5675,97.4605 C66.6716,97.5022 66.8643,97.523 67.1456,97.523 L67.1456,97.648 L64.9268,97.648 L64.9268,97.523 C65.281,97.5126 65.505,97.4501 65.5987,97.3355 C65.6612,97.2417 65.6925,97.0959 65.6925,96.898 L65.6925,93.2886 C65.682,93.0386 65.6039,92.9136 65.4581,92.9136"/>
<path class="Tempo" d="M64.2299,40.4371 C64.0268,40.2809 63.7768,40.1871 63.4643,40.1871 C62.2768,40.1871 61.3237,41.0621 61.3237,41.9996 C61.3237,42.5621 61.7768,42.9059 62.3706,42.9059 C63.3237,42.9059 64.5112,41.9996 64.5112,41.0934 L64.5112,34.9527 L64.2299,34.9527 L64.2299,40.4371 "/>
<path class="Tempo" d="M74.8706,39.0152 L68.2612,39.0152 L68.2612,37.859 L74.8706,37.859 L74.8706,39.0152 M74.8706,41.9371 L68.2612,41.9371 L68.2612,40.7965 L74.8706,40.7965 L74.8706,41.9371 M80.3081,36.0465 C80.1831,36.0465 79.8653,36.1402 79.3549,36.3277 C79.3237,36.3382 79.3028,36.3486 79.2924,36.359 L79.2924,36.0465 L82.3081,34.734 L82.5112,34.734 L82.5112,41.5621 C82.5112,42.0517 82.6101,42.3642 82.8081,42.4996 C82.9851,42.6246 83.3185,42.6923 83.8081,42.7027 L83.8081,42.984 L79.3081,42.984 L79.3081,42.7027 C79.9643,42.6923 80.3758,42.5882 80.5424,42.3902 C80.6778,42.2236 80.7456,41.9267 80.7456,41.4996 L80.7456,36.8746 C80.7351,36.333 80.5893,36.0569 80.3081,36.0465 M84.8862,37.1715 C85.4383,35.6819 86.2143,34.8746 87.2143,34.7496 C87.3185,34.7392 87.4226,34.734 87.5268,34.734 C88.3185,34.734 88.9226,35.0205 89.3393,35.5934 C89.6101,35.9788 89.7456,36.4215 89.7456,36.9215 C89.7456,37.7861 89.3185,38.6298 88.4643,39.4527 C88.4226,39.484 88.3914,39.5152 88.3706,39.5465 L86.4331,41.3902 L88.2456,41.3902 C88.881,41.3902 89.2872,41.333 89.4643,41.2184 C89.631,41.1038 89.7924,40.8486 89.9487,40.4527 L90.2456,40.4527 L89.6987,42.984 L84.7143,42.984 L84.7143,42.7027 C86.381,40.9215 87.407,39.6455 87.7924,38.8746 C88.0008,38.4475 88.1049,38.0309 88.1049,37.6246 C88.1049,37.0934 87.9122,36.6767 87.5268,36.3746 C87.2872,36.1871 87.006,36.0934 86.6831,36.0934 C86.0893,36.0934 85.6206,36.4215 85.2768,37.0777 C85.256,37.109 85.2351,37.1402 85.2143,37.1715 L84.8862,37.1715 M90.7924,38.9059 C90.7924,37.5934 91.1049,36.5309 91.7299,35.7184 C92.2403,35.0725 92.8341,34.7444 93.5112,34.734 C94.2924,34.734 94.9383,35.1402 95.4487,35.9527 C95.9591,36.7652 96.2143,37.76 96.2143,38.9371 C96.2143,40.3121 95.8966,41.4059 95.2612,42.2184 C94.7612,42.8225 94.1831,43.1298 93.5268,43.1402 C92.6935,43.1402 92.0216,42.7132 91.5112,41.859 C91.032,41.0673 90.7924,40.083 90.7924,38.9059 M93.5268,42.7965 C93.881,42.7965 94.1153,42.4736 94.2299,41.8277 C94.2924,41.4423 94.3237,40.9423 94.3237,40.3277 L94.3237,37.5777 C94.3237,36.1402 94.131,35.3225 93.7456,35.1246 C93.6726,35.083 93.5893,35.0621 93.4956,35.0621 C93.131,35.0621 92.8914,35.3955 92.7768,36.0621 C92.7247,36.4371 92.6987,36.9423 92.6987,37.5777 L92.6987,40.3277 C92.6987,41.6819 92.8653,42.4736 93.1987,42.7027 C93.2924,42.7652 93.4018,42.7965 93.5268,42.7965"/>
<path class="StaffText" d="M71.5983,58.3422 L71.5983,53.9047 C71.5983,53.5193 71.5306,53.2797 71.3952,53.186 C71.2806,53.0922 71.0254,53.035 70.6296,53.0141 L70.6296,52.8266 L73.5983,52.8266 L73.5983,53.0141 C73.14,53.035 72.8588,53.1079 72.7546,53.2329 C72.6608,53.3579 72.614,53.5818 72.614,53.9047 L72.614,58.3422 C72.614,58.7381 72.6921,58.9881 72.8483,59.0922 C72.9733,59.186 73.2233,59.2381 73.5983,59.2485 L73.5983,59.436 L70.6296,59.436 L70.6296,59.2485 C71.0775,59.2381 71.3535,59.1652 71.4577,59.0297 C71.5515,58.9047 71.5983,58.6756 71.5983,58.3422 M74.5983,58.3422 L74.5983,53.9047 C74.5983,53.5193 74.5306,53.2797 74.3952,53.186 C74.2806,53.0922 74.0254,53.035 73.6296,53.0141 L73.6296,52.8266 L76.5983,52.8266 L76.5983,53.0141 C76.14,53.035 75.8588,53.1079 75.7546,53.2329 C75.6608,53.3579 75.614,53.5818 75.614,53.9047 L75.614,58.3422 C75.614,58.7381 75.6921,58.9881 75.8483,59.0922 C75.9733,59.186 76.2233,59.2381 76.5983,59.2485 L76.5983,59.436 L73.6296,59.436 L73.6296,59.2485 C74.0775,59.2381 74.3535,59.1652 74.4577,59.0297 C74.5515,58.9047 74.5983,58.6756 74.5983,58.3422 M77.5983,58.3422 L77.5983,53.9047 C77.5983,53.5193 77.5306,53.2797 77.3952,53.186 C77.2806,53.0922 77.0254,53.035 76.6296,53.0141 L76.6296,52.8266 L79.5983,52.8266 L79.5983,53.0141 C79.14,53.035 78.8588,53.1079 78.7546,53.2329 C78.6608,53.3579 78.614,53.5818 78.614,53.9047 L78.614,58.3422 C78.614,58.7381 78.6921,58.9881 78.8483,59.0922 C78.9733,59.186 79.2233,59.2381 79.5983,59.2485 L79.5983,59.436 L76.6296,59.436 L76.6296,59.2485 C77.0775,59.2381 77.3535,59.1652 77.4577,59.0297 C77.5515,58.9047 77.5983,58.6756 77.5983,58.3422"/>
<path class="StaffText" d="M73.8047,25.2057 C74.2526,25.2057 74.7526,25.3203 75.3047,25.5495 C75.5442,25.6432 75.7161,25.6901 75.8203,25.6901 C75.9661,25.6901 76.0963,25.5807 76.2109,25.362 C76.2213,25.3203 76.237,25.2787 76.2578,25.237 L76.5234,25.237 L76.5234,27.5807 L76.2734,27.5807 C76.0026,26.9766 75.7213,26.5339 75.4297,26.2526 C75.3672,26.1901 75.3099,26.138 75.2578,26.0964 C74.8307,25.7214 74.388,25.5339 73.9297,25.5339 C72.9297,25.5339 72.3359,26.2526 72.1484,27.6901 C72.1172,28.013 72.1015,28.362 72.1015,28.737 C72.1015,29.9245 72.3151,30.7943 72.7422,31.3464 C73.0755,31.763 73.5338,31.9714 74.1172,31.9714 C74.6797,31.9714 74.9974,31.7943 75.0703,31.4401 C75.0807,31.3776 75.0859,31.3099 75.0859,31.237 L75.0859,30.1901 C75.0859,29.8985 75.013,29.711 74.8672,29.6276 C74.7213,29.5547 74.4557,29.5078 74.0703,29.487 L74.0703,29.237 L77.5078,29.237 L77.5078,29.487 C77.1015,29.5287 76.8515,29.6172 76.7578,29.7526 C76.6849,29.8672 76.6484,30.086 76.6484,30.4089 L76.6484,31.6745 C76.0547,32.0287 75.2682,32.237 74.289,32.2995 C74.1536,32.2995 74.0182,32.2995 73.8828,32.2995 C72.7682,32.2995 71.8776,31.9401 71.2109,31.2214 C70.6172,30.5755 70.3203,29.7682 70.3203,28.7995 C70.3203,27.7578 70.664,26.8932 71.3515,26.2057 C72.0182,25.5391 72.8359,25.2057 73.8047,25.2057 M81.5703,28.8307 C81.3515,28.8307 81.138,28.711 80.9297,28.4714 C80.8151,28.3255 80.7317,28.2474 80.6797,28.237 C80.4609,28.237 80.2942,28.388 80.1797,28.6901 C80.1067,28.8464 80.0703,29.013 80.0703,29.1901 L80.0703,31.0807 C80.0703,31.4453 80.1432,31.6693 80.289,31.7526 C80.3828,31.8151 80.5547,31.8568 80.8047,31.8776 L80.8047,32.112 L78.164,32.112 L78.164,31.8776 C78.4349,31.8255 78.5963,31.7318 78.6484,31.5964 C78.6692,31.5235 78.6797,31.4141 78.6797,31.2682 L78.6797,28.3307 C78.6797,28.0703 78.6067,27.9037 78.4609,27.8307 C78.388,27.7891 78.289,27.7578 78.164,27.737 L78.164,27.5026 L80.039,27.5026 L80.039,28.3307 C80.414,27.7787 80.7838,27.4714 81.1484,27.4089 C81.2317,27.388 81.3099,27.3776 81.3828,27.3776 C81.7265,27.3776 81.9713,27.5182 82.1172,27.7995 C82.1692,27.9141 82.1953,28.0339 82.1953,28.1589 C82.1953,28.4714 82.0703,28.6797 81.8203,28.7839 C81.737,28.8151 81.6536,28.8307 81.5703,28.8307 M83.4453,28.0807 C83.4453,28.112 83.4974,28.2057 83.6015,28.362 C83.6953,28.5078 83.7422,28.6328 83.7422,28.737 C83.7422,28.9974 83.612,29.1745 83.3515,29.2682 C83.2578,29.2995 83.164,29.3151 83.0703,29.3151 C82.7057,29.3151 82.4922,29.1537 82.4297,28.8307 C82.4192,28.7682 82.414,28.711 82.414,28.6589 C82.414,28.1901 82.6692,27.8412 83.1797,27.612 C83.5026,27.4557 83.8776,27.3776 84.3047,27.3776 C85.1797,27.3776 85.7786,27.6172 86.1015,28.0964 C86.2265,28.2943 86.289,28.5182 86.289,28.7682 L86.289,31.3464 C86.2995,31.5026 86.3672,31.586 86.4922,31.5964 C86.5442,31.586 86.5807,31.5703 86.6015,31.5495 L86.7109,31.4557 L86.8515,31.6589 C86.4557,32.0339 86.0859,32.2318 85.7422,32.2526 C85.3672,32.2526 85.1224,32.112 85.0078,31.8307 C84.9765,31.737 84.9453,31.638 84.914,31.5339 C84.3724,32.0026 83.8463,32.2422 83.3359,32.2526 C82.8984,32.2526 82.5807,32.086 82.3828,31.7526 C82.2786,31.586 82.2265,31.4037 82.2265,31.2057 C82.2265,30.6224 82.6745,30.1485 83.5703,29.7839 C83.8099,29.6797 84.2578,29.5287 84.914,29.3307 L84.914,28.5964 C84.914,28.0651 84.6953,27.7735 84.2578,27.7214 C84.1953,27.7214 84.1328,27.7214 84.0703,27.7214 C83.7786,27.7214 83.5807,27.8047 83.4765,27.9714 C83.4557,28.0026 83.4453,28.0391 83.4453,28.0807 M84.8984,31.0964 L84.8984,29.6589 C84.0963,29.8776 83.6901,30.2787 83.6797,30.862 C83.6797,31.1953 83.789,31.4037 84.0078,31.487 C84.0703,31.5078 84.1328,31.5182 84.1953,31.5182 C84.4245,31.5182 84.6588,31.3776 84.8984,31.0964 M90.3672,32.237 L90.3672,31.5964 C90.013,31.9714 89.6692,32.1849 89.3359,32.237 C89.2422,32.2474 89.1432,32.2526 89.039,32.2526 C88.4453,32.2526 87.9765,31.9766 87.6328,31.4245 C87.362,30.9974 87.2265,30.4922 87.2265,29.9089 C87.2265,29.0547 87.4713,28.3828 87.9609,27.8932 C88.2942,27.5495 88.6901,27.3776 89.1484,27.3776 C89.5026,27.3776 89.8255,27.513 90.1172,27.7839 C90.2005,27.8568 90.2734,27.9245 90.3359,27.987 L90.3359,26.1745 C90.3359,25.9245 90.2786,25.7682 90.164,25.7057 C90.0599,25.6537 89.862,25.6172 89.5703,25.5964 L89.5703,25.362 L91.7265,25.362 L91.7265,31.112 C91.7265,31.3932 91.8099,31.5651 91.9765,31.6276 C92.0599,31.6589 92.1745,31.6797 92.3203,31.6901 L92.3203,31.9245 L91.6953,32.0026 C91.1432,32.0755 90.7005,32.1537 90.3672,32.237 M89.4922,31.7057 C89.7838,31.7057 90.0338,31.5391 90.2422,31.2057 C90.2942,31.112 90.3255,31.0443 90.3359,31.0026 L90.3359,28.5495 C90.2109,28.2162 90.0026,28.0182 89.7109,27.9557 C89.6588,27.9453 89.6067,27.9401 89.5547,27.9401 C89.0442,27.9401 88.763,28.4453 88.7109,29.4557 C88.7109,29.5703 88.7109,29.6953 88.7109,29.8307 C88.7109,31.0703 88.9713,31.6953 89.4922,31.7057 M94.664,29.6589 C94.7161,30.6797 94.9817,31.2787 95.4609,31.4557 C95.5859,31.4974 95.7161,31.5182 95.8515,31.5182 C96.2161,31.5182 96.5495,31.3516 96.8515,31.0182 C96.9036,30.9662 96.9505,30.9141 96.9922,30.862 L97.2265,31.0026 C96.8099,31.6068 96.3984,31.987 95.9922,32.1432 C95.7838,32.2162 95.5495,32.2526 95.289,32.2526 C94.539,32.2526 93.9765,31.9453 93.6015,31.3307 C93.3515,30.9141 93.2265,30.4141 93.2265,29.8307 C93.2265,28.9349 93.4974,28.263 94.039,27.8151 C94.4036,27.5235 94.8307,27.3776 95.3203,27.3776 C96.4245,27.3776 97.0442,28.0964 97.1797,29.5339 C97.1797,29.5755 97.1797,29.6172 97.1797,29.6589 L94.664,29.6589 M95.9609,29.1432 C95.9401,28.5182 95.8724,28.1224 95.7578,27.9557 C95.664,27.7995 95.5182,27.7214 95.3203,27.7214 C95.0286,27.7214 94.8307,27.8932 94.7265,28.237 C94.664,28.4766 94.6276,28.8307 94.6172,29.2995 L95.9609,29.2995 L95.9609,29.1432 M100.289,27.2682 C100.747,26.0287 101.398,25.3568 102.242,25.2526 C102.315,25.2422 102.398,25.237 102.492,25.237 C103.148,25.237 103.648,25.4766 103.992,25.9557 C104.221,26.2787 104.336,26.6485 104.336,27.0651 C104.336,27.7735 103.977,28.4766 103.258,29.1745 C103.237,29.2057 103.216,29.2266 103.195,29.237 L101.57,30.7839 L103.086,30.7839 C103.617,30.7839 103.956,30.737 104.102,30.6432 C104.247,30.5495 104.383,30.336 104.508,30.0026 L104.758,30.0026 L104.305,32.112 L100.148,32.112 L100.148,31.8776 C101.544,30.3985 102.398,29.336 102.711,28.6901 C102.888,28.336 102.977,27.987 102.977,27.6432 C102.977,27.2057 102.815,26.862 102.492,26.612 C102.284,26.4557 102.049,26.3776 101.789,26.3776 C101.289,26.3776 100.898,26.6485 100.617,27.1901 C100.596,27.2214 100.581,27.2474 100.57,27.2682 L100.289,27.2682 M106.633,30.5495 C106.956,30.5495 107.2,30.6901 107.367,30.9714 C107.45,31.1172 107.492,31.263 107.492,31.4089 C107.492,31.7214 107.352,31.961 107.07,32.1276 C106.924,32.2005 106.779,32.237 106.633,32.237 C106.299,32.237 106.055,32.0964 105.898,31.8151 C105.825,31.6797 105.789,31.5391 105.789,31.3932 C105.789,31.0912 105.924,30.8568 106.195,30.6901 C106.331,30.5964 106.477,30.5495 106.633,30.5495 M106.633,27.3932 C106.956,27.3932 107.2,27.5287 107.367,27.7995 C107.45,27.9453 107.492,28.0912 107.492,28.237 C107.492,28.5599 107.352,28.8047 107.07,28.9714 C106.935,29.0443 106.789,29.0807 106.633,29.0807 C106.299,29.0807 106.055,28.9349 105.898,28.6432 C105.825,28.5078 105.789,28.3672 105.789,28.2214 C105.789,27.9193 105.924,27.6849 106.195,27.5182 C106.331,27.4349 106.477,27.3932 106.633,27.3932"/>
<path class="StaffText" d="M114.93,25.7526 C113.857,25.7526 113.128,26.2735 112.742,27.3151 C112.555,27.7839 112.461,28.2995 112.461,28.862 C112.461,30.0391 112.82,30.888 113.539,31.4089 C113.966,31.7214 114.487,31.8776 115.102,31.8776 C115.633,31.8776 116.029,31.763 116.289,31.5339 C116.372,31.4505 116.419,31.3672 116.43,31.2839 L116.43,29.6432 C116.43,29.2474 116.357,28.9974 116.211,28.8932 C116.107,28.8307 115.883,28.7839 115.539,28.7526 L115.539,28.5807 L118.086,28.5807 L118.086,28.7526 C117.753,28.7839 117.549,28.8724 117.477,29.0182 C117.424,29.1224 117.398,29.2943 117.398,29.5339 L117.398,31.5651 C117.117,31.8047 116.602,31.9974 115.852,32.1432 C115.487,32.2162 115.164,32.2526 114.883,32.2526 C113.966,32.2526 113.185,32.0182 112.539,31.5495 C111.737,30.9453 111.331,30.0547 111.32,28.8776 C111.32,27.8151 111.669,26.9505 112.367,26.2839 C113.013,25.6797 113.81,25.3776 114.758,25.3776 C115.164,25.3776 115.638,25.4557 116.18,25.612 C116.346,25.6641 116.471,25.6901 116.555,25.6901 C116.763,25.6901 116.904,25.6016 116.977,25.4245 C116.987,25.4037 116.997,25.388 117.008,25.3776 L117.227,25.3776 L117.305,27.487 L117.07,27.487 C116.768,26.7474 116.398,26.2526 115.961,26.0026 C115.659,25.836 115.315,25.7526 114.93,25.7526 M121.102,28.1589 L121.102,27.987 C121.581,27.8412 122.049,27.6849 122.508,27.5182 L122.57,27.5339 L122.57,28.2995 C123.143,27.862 123.555,27.612 123.805,27.5495 C123.909,27.5287 124.013,27.5182 124.117,27.5182 C124.648,27.5287 125.003,27.8151 125.18,28.3776 C125.711,27.8047 126.258,27.5182 126.82,27.5182 C127.581,27.5287 127.966,28.1276 127.977,29.3151 L127.977,31.362 C127.987,31.7266 128.128,31.9193 128.398,31.9401 L128.664,31.9557 L128.664,32.112 L126.477,32.112 L126.477,31.9557 C126.799,31.9245 126.992,31.8516 127.055,31.737 C127.107,31.6432 127.133,31.4818 127.133,31.2526 L127.133,29.1432 C127.133,28.5912 127.023,28.2578 126.805,28.1432 C126.7,28.0807 126.56,28.0495 126.383,28.0495 C125.935,28.0599 125.57,28.263 125.289,28.6589 L125.289,31.1745 C125.289,31.5495 125.378,31.7839 125.555,31.8776 C125.659,31.9297 125.81,31.9557 126.008,31.9557 L126.008,32.112 L123.773,32.112 L123.773,31.9557 C124.096,31.9349 124.294,31.862 124.367,31.737 C124.43,31.6432 124.461,31.4818 124.461,31.2526 L124.461,29.0964 C124.461,28.3985 124.237,28.0495 123.789,28.0495 C123.424,28.0495 123.102,28.1693 122.82,28.4089 C122.747,28.4818 122.68,28.5599 122.617,28.6432 L122.617,31.4401 C122.617,31.6901 122.706,31.8464 122.883,31.9089 C122.977,31.9401 123.112,31.9557 123.289,31.9557 L123.289,32.112 L121.07,32.112 L121.07,31.9557 C121.424,31.9557 121.638,31.8724 121.711,31.7057 C121.753,31.6016 121.773,31.4557 121.773,31.2682 L121.773,28.7526 C121.773,28.3776 121.695,28.1693 121.539,28.1276 C121.508,28.1172 121.471,28.112 121.43,28.112 C121.325,28.112 121.216,28.1276 121.102,28.1589 M129.602,28.1901 C129.445,28.1901 129.305,28.2005 129.18,28.2214 L129.18,28.0651 C129.648,27.9297 130.164,27.7474 130.727,27.5182 L130.758,27.5495 L130.758,31.0964 C130.758,31.4818 130.815,31.7214 130.93,31.8151 C131.023,31.888 131.216,31.9349 131.508,31.9557 L131.508,32.112 L129.133,32.112 L129.133,31.9557 C129.497,31.9349 129.727,31.8672 129.82,31.7526 C129.893,31.638 129.93,31.4193 129.93,31.0964 L129.93,28.7682 C129.93,28.4141 129.846,28.2214 129.68,28.1901 C129.648,28.1901 129.622,28.1901 129.602,28.1901 M130.258,25.2839 C130.477,25.2839 130.633,25.3828 130.727,25.5807 C130.758,25.6537 130.773,25.7266 130.773,25.7995 C130.773,26.0182 130.669,26.1745 130.461,26.2682 C130.388,26.2891 130.32,26.2995 130.258,26.2995 C130.039,26.2995 129.883,26.2005 129.789,26.0026 C129.768,25.9297 129.758,25.862 129.758,25.7995 C129.758,25.5807 129.852,25.4245 130.039,25.3307 C130.112,25.2995 130.185,25.2839 130.258,25.2839 M132.07,28.1276 L132.07,27.9557 C132.57,27.8099 133.034,27.6641 133.461,27.5182 L133.523,27.5339 L133.523,28.3151 C134.003,27.8776 134.378,27.6224 134.648,27.5495 C134.753,27.5287 134.862,27.5182 134.977,27.5182 C135.518,27.5182 135.878,27.7891 136.055,28.3307 C136.117,28.5287 136.148,28.7526 136.148,29.0026 L136.148,31.2995 C136.148,31.612 136.221,31.8047 136.367,31.8776 C136.461,31.9089 136.591,31.9349 136.758,31.9557 L136.758,32.112 L134.68,32.112 L134.68,31.9557 C134.982,31.9349 135.169,31.836 135.242,31.6589 C135.294,31.5443 135.32,31.3672 135.32,31.1276 L135.32,29.0339 C135.299,28.388 135.055,28.0599 134.586,28.0495 C134.336,28.0495 134.075,28.1641 133.805,28.3932 C133.732,28.4662 133.648,28.5443 133.555,28.6276 L133.555,31.4401 C133.555,31.6797 133.654,31.836 133.852,31.9089 C133.945,31.9297 134.065,31.9453 134.211,31.9557 L134.211,32.112 L132.102,32.112 L132.102,31.9557 C132.393,31.9349 132.575,31.8516 132.648,31.7057 C132.69,31.5912 132.711,31.4245 132.711,31.2057 L132.711,28.7214 C132.711,28.3568 132.638,28.1537 132.492,28.112 C132.45,28.0912 132.404,28.0807 132.352,28.0807 C132.227,28.0807 132.133,28.0964 132.07,28.1276 M139.43,27.5182 C140.169,27.5182 140.753,27.7891 141.18,28.3307 C141.482,28.737 141.633,29.2162 141.633,29.7682 C141.633,30.5495 141.378,31.1745 140.867,31.6432 C140.45,32.0182 139.966,32.2057 139.414,32.2057 C138.706,32.2057 138.143,31.9349 137.727,31.3932 C137.393,30.9557 137.227,30.4401 137.227,29.8464 C137.227,29.0339 137.503,28.4089 138.055,27.9714 C138.44,27.6693 138.898,27.5182 139.43,27.5182 M138.133,29.362 C138.133,30.2682 138.32,30.961 138.695,31.4401 C138.935,31.7526 139.216,31.9089 139.539,31.9089 C140.06,31.9089 140.419,31.612 140.617,31.0182 C140.7,30.7578 140.742,30.461 140.742,30.1276 C140.742,29.2422 140.529,28.586 140.102,28.1589 C139.872,27.9297 139.607,27.8151 139.305,27.8151 C138.836,27.8151 138.497,28.0547 138.289,28.5339 C138.185,28.7735 138.133,29.0495 138.133,29.362 M144.992,28.487 C144.888,28.487 144.737,28.4037 144.539,28.237 C144.445,28.1537 144.372,28.112 144.32,28.112 C144.154,28.112 143.982,28.2422 143.805,28.5026 C143.69,28.6693 143.633,28.8151 143.633,28.9401 L143.633,31.2057 C143.633,31.5495 143.721,31.763 143.898,31.8464 C144.023,31.9089 144.216,31.9453 144.477,31.9557 L144.477,32.112 L142.07,32.112 L142.07,31.9557 C142.424,31.8932 142.638,31.8099 142.711,31.7057 C142.763,31.6224 142.789,31.4766 142.789,31.2682 L142.789,28.7526 C142.789,28.388 142.706,28.1901 142.539,28.1589 C142.508,28.1485 142.477,28.1432 142.445,28.1432 C142.331,28.1432 142.216,28.1589 142.102,28.1901 L142.102,28.0339 C142.633,27.8672 143.122,27.6953 143.57,27.5182 L143.633,27.5339 L143.633,28.4245 C143.977,27.9453 144.268,27.6589 144.508,27.5651 C144.612,27.5339 144.716,27.5182 144.82,27.5182 C145.133,27.5182 145.315,27.6485 145.367,27.9089 C145.367,27.9505 145.367,27.9974 145.367,28.0495 C145.336,28.3203 145.211,28.4662 144.992,28.487 M148.117,28.1901 L148.117,28.0182 C148.544,27.8932 149.023,27.7266 149.555,27.5182 L149.617,27.5339 L149.617,28.2995 C150.044,27.7787 150.523,27.5182 151.055,27.5182 C151.617,27.5182 152.06,27.7787 152.383,28.2995 C152.612,28.6849 152.727,29.1328 152.727,29.6432 C152.727,30.4557 152.477,31.1172 151.977,31.6276 C151.591,32.013 151.143,32.2057 150.633,32.2057 C150.299,32.2057 150.008,32.1068 149.758,31.9089 C149.706,31.8776 149.659,31.8412 149.617,31.7995 L149.617,33.362 C149.617,33.7057 149.685,33.9141 149.82,33.987 C149.945,34.0599 150.169,34.0964 150.492,34.0964 L150.492,34.2839 L148.07,34.2839 L148.07,34.112 C148.424,34.0807 148.638,33.9974 148.711,33.862 C148.753,33.7682 148.773,33.6224 148.773,33.4245 L148.773,28.737 C148.773,28.4453 148.721,28.2735 148.617,28.2214 C148.555,28.1901 148.471,28.1745 148.367,28.1745 C148.253,28.1745 148.169,28.1797 148.117,28.1901 M149.617,28.7839 L149.617,31.2526 C149.617,31.4297 149.763,31.5964 150.055,31.7526 C150.263,31.8568 150.461,31.9089 150.648,31.9089 C151.107,31.9089 151.445,31.6537 151.664,31.1432 C151.799,30.8203 151.867,30.4557 151.867,30.0495 C151.867,29.2266 151.659,28.6537 151.242,28.3307 C151.065,28.1849 150.862,28.112 150.633,28.112 C150.331,28.112 150.06,28.2214 149.82,28.4401 C149.695,28.5547 149.628,28.6693 149.617,28.7839 M153.945,29.3464 C153.987,30.5235 154.372,31.2162 155.102,31.4245 C155.227,31.4662 155.362,31.487 155.508,31.487 C155.997,31.487 156.414,31.2787 156.758,30.862 C156.852,30.7474 156.95,30.612 157.055,30.4557 L157.211,30.5182 C156.846,31.4766 156.273,32.0287 155.492,32.1745 C155.357,32.1953 155.227,32.2057 155.102,32.2057 C154.362,32.2057 153.831,31.8932 153.508,31.2682 C153.32,30.8932 153.227,30.461 153.227,29.9714 C153.227,29.086 153.503,28.4141 154.055,27.9557 C154.419,27.6641 154.841,27.5182 155.32,27.5182 C156.237,27.5182 156.789,28.0391 156.977,29.0807 C156.997,29.1745 157.013,29.263 157.023,29.3464 L153.945,29.3464 M153.961,29.0495 L156.008,29.0495 C155.914,28.4766 155.747,28.1224 155.508,27.987 C155.383,27.9245 155.221,27.8932 155.023,27.8932 C154.43,27.8932 154.075,28.2682 153.961,29.0182 C153.961,29.0287 153.961,29.0391 153.961,29.0495 M157.07,28.1276 L157.07,27.9557 C157.57,27.8099 158.034,27.6641 158.461,27.5182 L158.523,27.5339 L158.523,28.3151 C159.003,27.8776 159.378,27.6224 159.648,27.5495 C159.753,27.5287 159.862,27.5182 159.977,27.5182 C160.518,27.5182 160.878,27.7891 161.055,28.3307 C161.117,28.5287 161.148,28.7526 161.148,29.0026 L161.148,31.2995 C161.148,31.612 161.221,31.8047 161.367,31.8776 C161.461,31.9089 161.591,31.9349 161.758,31.9557 L161.758,32.112 L159.68,32.112 L159.68,31.9557 C159.982,31.9349 160.169,31.836 160.242,31.6589 C160.294,31.5443 160.32,31.3672 160.32,31.1276 L160.32,29.0339 C160.299,28.388 160.055,28.0599 159.586,28.0495 C159.336,28.0495 159.075,28.1641 158.805,28.3932 C158.732,28.4662 158.648,28.5443 158.555,28.6276 L158.555,31.4401 C158.555,31.6797 158.654,31.836 158.852,31.9089 C158.945,31.9297 159.065,31.9453 159.211,31.9557 L159.211,32.112 L157.102,32.112 L157.102,31.9557 C157.393,31.9349 157.575,31.8516 157.648,31.7057 C157.69,31.5912 157.711,31.4245 157.711,31.2057 L157.711,28.7214 C157.711,28.3568 157.638,28.1537 157.492,28.112 C157.45,28.0912 157.404,28.0807 157.352,28.0807 C157.227,28.0807 157.133,28.0964 157.07,28.1276 M164.57,27.612 L164.57,27.9089 L163.555,27.9089 L163.555,30.7682 C163.555,31.3099 163.69,31.6068 163.961,31.6589 C163.992,31.6693 164.029,31.6745 164.07,31.6745 C164.279,31.6641 164.482,31.5443 164.68,31.3151 L164.805,31.4401 C164.482,31.9505 164.081,32.2057 163.602,32.2057 C163.018,32.1953 162.721,31.7735 162.711,30.9401 L162.711,27.9089 L162.18,27.9089 C162.159,27.888 162.148,27.8672 162.148,27.8464 C162.148,27.8047 162.19,27.763 162.273,27.7214 C162.555,27.5339 162.888,27.1693 163.273,26.6276 C163.284,26.6172 163.289,26.612 163.289,26.612 C163.393,26.4557 163.461,26.362 163.492,26.3307 C163.534,26.3412 163.555,26.3828 163.555,26.4557 L163.555,27.612 L164.57,27.612 M165.227,31.1432 C165.227,30.6328 165.544,30.2005 166.18,29.8464 C166.367,29.7526 166.867,29.5391 167.68,29.2057 C167.7,29.2057 167.716,29.2005 167.727,29.1901 L167.727,28.5807 C167.674,28.0599 167.419,27.7839 166.961,27.7526 C166.648,27.7526 166.43,27.8516 166.305,28.0495 C166.263,28.1224 166.242,28.1849 166.242,28.237 C166.242,28.2995 166.253,28.3828 166.273,28.487 C166.284,28.5599 166.289,28.612 166.289,28.6432 C166.289,28.8203 166.2,28.9453 166.023,29.0182 C165.961,29.0495 165.904,29.0651 165.852,29.0651 C165.664,29.0651 165.534,28.9766 165.461,28.7995 C165.43,28.7474 165.414,28.6901 165.414,28.6276 C165.414,28.263 165.633,27.9662 166.07,27.737 C166.372,27.5912 166.716,27.5182 167.102,27.5182 C167.82,27.5182 168.263,27.7735 168.43,28.2839 C168.503,28.5026 168.539,28.7787 168.539,29.112 L168.539,31.0495 C168.539,31.3828 168.602,31.5703 168.727,31.612 C168.768,31.6224 168.805,31.6276 168.836,31.6276 C168.982,31.6172 169.128,31.5547 169.273,31.4401 L169.273,31.6901 C169.003,32.0026 168.753,32.1745 168.523,32.2057 C168.471,32.2057 168.419,32.2057 168.367,32.2057 C168.055,32.2057 167.857,32.0495 167.773,31.737 C167.753,31.6537 167.742,31.5599 167.742,31.4557 C167.148,31.9349 166.659,32.1849 166.273,32.2057 C165.846,32.2057 165.539,32.0339 165.352,31.6901 C165.268,31.5235 165.227,31.3412 165.227,31.1432 M167.727,30.862 L167.727,29.4245 C166.904,29.7266 166.398,30.0339 166.211,30.3464 C166.138,30.4922 166.102,30.6485 166.102,30.8151 C166.102,31.211 166.247,31.461 166.539,31.5651 C166.612,31.5964 166.68,31.612 166.742,31.612 C166.961,31.6016 167.2,31.5235 167.461,31.3776 C167.607,31.2943 167.69,31.1901 167.711,31.0651 C167.721,31.0026 167.727,30.9349 167.727,30.862 M171.57,27.612 L171.57,27.9089 L170.555,27.9089 L170.555,30.7682 C170.555,31.3099 170.69,31.6068 170.961,31.6589 C170.992,31.6693 171.029,31.6745 171.07,31.6745 C171.279,31.6641 171.482,31.5443 171.68,31.3151 L171.805,31.4401 C171.482,31.9505 171.081,32.2057 170.602,32.2057 C170.018,32.1953 169.721,31.7735 169.711,30.9401 L169.711,27.9089 L169.18,27.9089 C169.159,27.888 169.148,27.8672 169.148,27.8464 C169.148,27.8047 169.19,27.763 169.273,27.7214 C169.555,27.5339 169.888,27.1693 170.273,26.6276 C170.284,26.6172 170.289,26.612 170.289,26.612 C170.393,26.4557 170.461,26.362 170.492,26.3307 C170.534,26.3412 170.555,26.3828 170.555,26.4557 L170.555,27.612 L171.57,27.612 M174.43,27.5182 C175.169,27.5182 175.753,27.7891 176.18,28.3307 C176.482,28.737 176.633,29.2162 176.633,29.7682 C176.633,30.5495 176.378,31.1745 175.867,31.6432 C175.45,32.0182 174.966,32.2057 174.414,32.2057 C173.706,32.2057 173.143,31.9349 172.727,31.3932 C172.393,30.9557 172.227,30.4401 172.227,29.8464 C172.227,29.0339 172.503,28.4089 173.055,27.9714 C173.44,27.6693 173.898,27.5182 174.43,27.5182 M173.133,29.362 C173.133,30.2682 173.32,30.961 173.695,31.4401 C173.935,31.7526 174.216,31.9089 174.539,31.9089 C175.06,31.9089 175.419,31.612 175.617,31.0182 C175.7,30.7578 175.742,30.461 175.742,30.1276 C175.742,29.2422 175.529,28.586 175.102,28.1589 C174.872,27.9297 174.607,27.8151 174.305,27.8151 C173.836,27.8151 173.497,28.0547 173.289,28.5339 C173.185,28.7735 173.133,29.0495 173.133,29.362 M177.07,28.1276 L177.07,27.9557 C177.57,27.8099 178.034,27.6641 178.461,27.5182 L178.523,27.5339 L178.523,28.3151 C179.003,27.8776 179.378,27.6224 179.648,27.5495 C179.753,27.5287 179.862,27.5182 179.977,27.5182 C180.518,27.5182 180.878,27.7891 181.055,28.3307 C181.117,28.5287 181.148,28.7526 181.148,29.0026 L181.148,31.2995 C181.148,31.612 181.221,31.8047 181.367,31.8776 C181.461,31.9089 181.591,31.9349 181.758,31.9557 L181.758,32.112 L179.68,32.112 L179.68,31.9557 C179.982,31.9349 180.169,31.836 180.242,31.6589 C180.294,31.5443 180.32,31.3672 180.32,31.1276 L180.32,29.0339 C180.299,28.388 180.055,28.0599 179.586,28.0495 C179.336,28.0495 179.075,28.1641 178.805,28.3932 C178.732,28.4662 178.648,28.5443 178.555,28.6276 L178.555,31.4401 C178.555,31.6797 178.654,31.836 178.852,31.9089 C178.945,31.9297 179.065,31.9453 179.211,31.9557 L179.211,32.112 L177.102,32.112 L177.102,31.9557 C177.393,31.9349 177.575,31.8516 177.648,31.7057 C177.69,31.5912 177.711,31.4245 177.711,31.2057 L177.711,28.7214 C177.711,28.3568 177.638,28.1537 177.492,28.112 C177.45,28.0912 177.404,28.0807 177.352,28.0807 C177.227,28.0807 177.133,28.0964 177.07,28.1276 M182.602,28.1901 C182.445,28.1901 182.305,28.2005 182.18,28.2214 L182.18,28.0651 C182.648,27.9297 183.164,27.7474 183.727,27.5182 L183.758,27.5495 L183.758,31.0964 C183.758,31.4818 183.815,31.7214 183.93,31.8151 C184.023,31.888 184.216,31.9349 184.508,31.9557 L184.508,32.112 L182.133,32.112 L182.133,31.9557 C182.497,31.9349 182.727,31.8672 182.82,31.7526 C182.893,31.638 182.93,31.4193 182.93,31.0964 L182.93,28.7682 C182.93,28.4141 182.846,28.2214 182.68,28.1901 C182.648,28.1901 182.622,28.1901 182.602,28.1901 M183.258,25.2839 C183.477,25.2839 183.633,25.3828 183.727,25.5807 C183.758,25.6537 183.773,25.7266 183.773,25.7995 C183.773,26.0182 183.669,26.1745 183.461,26.2682 C183.388,26.2891 183.32,26.2995 183.258,26.2995 C183.039,26.2995 182.883,26.2005 182.789,26.0026 C182.768,25.9297 182.758,25.862 182.758,25.7995 C182.758,25.5807 182.852,25.4245 183.039,25.3307 C183.112,25.2995 183.185,25.2839 183.258,25.2839 M185.227,29.987 C185.227,29.1432 185.513,28.4818 186.086,28.0026 C186.482,27.6797 186.924,27.5182 187.414,27.5182 C187.966,27.5182 188.393,27.6693 188.695,27.9714 C188.872,28.1485 188.961,28.3412 188.961,28.5495 C188.961,28.7266 188.867,28.8516 188.68,28.9245 C188.607,28.9557 188.539,28.9714 188.477,28.9714 C188.268,28.9714 188.117,28.836 188.023,28.5651 C188.013,28.5443 188.008,28.5235 188.008,28.5026 L187.945,28.2839 C187.883,28.0339 187.768,27.888 187.602,27.8464 C187.529,27.8255 187.445,27.8151 187.352,27.8151 C186.852,27.8151 186.471,28.0547 186.211,28.5339 C186.065,28.8255 185.992,29.1641 185.992,29.5495 C185.992,30.2787 186.216,30.8255 186.664,31.1901 C186.924,31.388 187.216,31.487 187.539,31.487 C187.956,31.487 188.315,31.3203 188.617,30.987 C188.721,30.862 188.836,30.7162 188.961,30.5495 L189.102,30.6432 C188.727,31.362 188.31,31.8307 187.852,32.0495 C187.612,32.1537 187.372,32.2057 187.133,32.2057 C186.487,32.2057 185.982,31.9401 185.617,31.4089 C185.357,31.0026 185.227,30.5287 185.227,29.987 M194.648,27.7214 C194.669,27.711 194.727,27.6745 194.82,27.612 L194.93,27.612 L194.961,28.9714 L194.82,28.9714 C194.654,28.3255 194.414,27.9401 194.102,27.8151 C193.987,27.763 193.857,27.737 193.711,27.737 C193.357,27.737 193.117,27.8776 192.992,28.1589 C192.961,28.2422 192.945,28.3307 192.945,28.4245 C192.956,28.7057 193.102,28.9297 193.383,29.0964 L194.461,29.737 C194.94,30.0287 195.211,30.3464 195.273,30.6901 C195.284,30.763 195.289,30.8464 195.289,30.9401 C195.289,31.3568 195.107,31.6953 194.742,31.9557 C194.482,32.1224 194.195,32.2057 193.883,32.2057 C193.747,32.2057 193.44,32.1589 192.961,32.0651 C192.846,32.0443 192.758,32.0339 192.695,32.0339 C192.591,32.0443 192.513,32.086 192.461,32.1589 L192.336,32.1589 L192.336,30.5964 L192.492,30.5964 C192.596,31.0651 192.727,31.3932 192.883,31.5807 C193.102,31.8516 193.393,31.987 193.758,31.987 C194.185,31.987 194.45,31.8307 194.555,31.5182 C194.586,31.4453 194.602,31.362 194.602,31.2682 C194.591,30.9662 194.414,30.7162 194.07,30.5182 L193.492,30.1901 C192.867,29.836 192.497,29.4818 192.383,29.1276 C192.341,29.0026 192.32,28.8776 192.32,28.7526 C192.32,28.2839 192.523,27.9349 192.93,27.7057 C193.159,27.5807 193.409,27.5182 193.68,27.5182 C193.898,27.5182 194.159,27.5703 194.461,27.6745 C194.544,27.7057 194.607,27.7214 194.648,27.7214 M196.227,29.987 C196.227,29.1432 196.513,28.4818 197.086,28.0026 C197.482,27.6797 197.924,27.5182 198.414,27.5182 C198.966,27.5182 199.393,27.6693 199.695,27.9714 C199.872,28.1485 199.961,28.3412 199.961,28.5495 C199.961,28.7266 199.867,28.8516 199.68,28.9245 C199.607,28.9557 199.539,28.9714 199.477,28.9714 C199.268,28.9714 199.117,28.836 199.023,28.5651 C199.013,28.5443 199.008,28.5235 199.008,28.5026 L198.945,28.2839 C198.883,28.0339 198.768,27.888 198.602,27.8464 C198.529,27.8255 198.445,27.8151 198.352,27.8151 C197.852,27.8151 197.471,28.0547 197.211,28.5339 C197.065,28.8255 196.992,29.1641 196.992,29.5495 C196.992,30.2787 197.216,30.8255 197.664,31.1901 C197.924,31.388 198.216,31.487 198.539,31.487 C198.956,31.487 199.315,31.3203 199.617,30.987 C199.721,30.862 199.836,30.7162 199.961,30.5495 L200.102,30.6432 C199.727,31.362 199.31,31.8307 198.852,32.0495 C198.612,32.1537 198.372,32.2057 198.133,32.2057 C197.487,32.2057 196.982,31.9401 196.617,31.4089 C196.357,31.0026 196.227,30.5287 196.227,29.987 M200.227,31.1432 C200.227,30.6328 200.544,30.2005 201.18,29.8464 C201.367,29.7526 201.867,29.5391 202.68,29.2057 C202.7,29.2057 202.716,29.2005 202.727,29.1901 L202.727,28.5807 C202.674,28.0599 202.419,27.7839 201.961,27.7526 C201.648,27.7526 201.43,27.8516 201.305,28.0495 C201.263,28.1224 201.242,28.1849 201.242,28.237 C201.242,28.2995 201.253,28.3828 201.273,28.487 C201.284,28.5599 201.289,28.612 201.289,28.6432 C201.289,28.8203 201.2,28.9453 201.023,29.0182 C200.961,29.0495 200.904,29.0651 200.852,29.0651 C200.664,29.0651 200.534,28.9766 200.461,28.7995 C200.43,28.7474 200.414,28.6901 200.414,28.6276 C200.414,28.263 200.633,27.9662 201.07,27.737 C201.372,27.5912 201.716,27.5182 202.102,27.5182 C202.82,27.5182 203.263,27.7735 203.43,28.2839 C203.503,28.5026 203.539,28.7787 203.539,29.112 L203.539,31.0495 C203.539,31.3828 203.602,31.5703 203.727,31.612 C203.768,31.6224 203.805,31.6276 203.836,31.6276 C203.982,31.6172 204.128,31.5547 204.273,31.4401 L204.273,31.6901 C204.003,32.0026 203.753,32.1745 203.523,32.2057 C203.471,32.2057 203.419,32.2057 203.367,32.2057 C203.055,32.2057 202.857,32.0495 202.773,31.737 C202.753,31.6537 202.742,31.5599 202.742,31.4557 C202.148,31.9349 201.659,32.1849 201.273,32.2057 C200.846,32.2057 200.539,32.0339 200.352,31.6901 C200.268,31.5235 200.227,31.3412 200.227,31.1432 M202.727,30.862 L202.727,29.4245 C201.904,29.7266 201.398,30.0339 201.211,30.3464 C201.138,30.4922 201.102,30.6485 201.102,30.8151 C201.102,31.211 201.247,31.461 201.539,31.5651 C201.612,31.5964 201.68,31.612 201.742,31.612 C201.961,31.6016 202.2,31.5235 202.461,31.3776 C202.607,31.2943 202.69,31.1901 202.711,31.0651 C202.721,31.0026 202.727,30.9349 202.727,30.862 M204.07,25.8776 L204.07,25.7214 C204.737,25.5547 205.268,25.4089 205.664,25.2839 L205.711,25.2995 L205.711,31.2682 C205.711,31.5807 205.773,31.7735 205.898,31.8464 C206.013,31.8985 206.2,31.9349 206.461,31.9557 L206.461,32.112 L204.102,32.112 L204.102,31.9557 C204.477,31.9245 204.706,31.836 204.789,31.6901 C204.841,31.5964 204.867,31.4453 204.867,31.237 L204.867,26.4714 C204.867,26.138 204.794,25.9453 204.648,25.8932 C204.586,25.8724 204.518,25.862 204.445,25.862 C204.31,25.862 204.185,25.8672 204.07,25.8776 M207.945,29.3464 C207.987,30.5235 208.372,31.2162 209.102,31.4245 C209.227,31.4662 209.362,31.487 209.508,31.487 C209.997,31.487 210.414,31.2787 210.758,30.862 C210.852,30.7474 210.95,30.612 211.055,30.4557 L211.211,30.5182 C210.846,31.4766 210.273,32.0287 209.492,32.1745 C209.357,32.1953 209.227,32.2057 209.102,32.2057 C208.362,32.2057 207.831,31.8932 207.508,31.2682 C207.32,30.8932 207.227,30.461 207.227,29.9714 C207.227,29.086 207.503,28.4141 208.055,27.9557 C208.419,27.6641 208.841,27.5182 209.32,27.5182 C210.237,27.5182 210.789,28.0391 210.977,29.0807 C210.997,29.1745 211.013,29.263 211.023,29.3464 L207.945,29.3464 M207.961,29.0495 L210.008,29.0495 C209.914,28.4766 209.747,28.1224 209.508,27.987 C209.383,27.9245 209.221,27.8932 209.023,27.8932 C208.43,27.8932 208.075,28.2682 207.961,29.0182 C207.961,29.0287 207.961,29.0391 207.961,29.0495 M216.43,27.5182 C217.169,27.5182 217.753,27.7891 218.18,28.3307 C218.482,28.737 218.633,29.2162 218.633,29.7682 C218.633,30.5495 218.378,31.1745 217.867,31.6432 C217.45,32.0182 216.966,32.2057 216.414,32.2057 C215.706,32.2057 215.143,31.9349 214.727,31.3932 C214.393,30.9557 214.227,30.4401 214.227,29.8464 C214.227,29.0339 214.503,28.4089 215.055,27.9714 C215.44,27.6693 215.898,27.5182 216.43,27.5182 M215.133,29.362 C215.133,30.2682 215.32,30.961 215.695,31.4401 C215.935,31.7526 216.216,31.9089 216.539,31.9089 C217.06,31.9089 217.419,31.612 217.617,31.0182 C217.7,30.7578 217.742,30.461 217.742,30.1276 C217.742,29.2422 217.529,28.586 217.102,28.1589 C216.872,27.9297 216.607,27.8151 216.305,27.8151 C215.836,27.8151 215.497,28.0547 215.289,28.5339 C215.185,28.7735 215.133,29.0495 215.133,29.362 M219.07,28.1276 L219.07,27.9557 C219.57,27.8099 220.034,27.6641 220.461,27.5182 L220.523,27.5339 L220.523,28.3151 C221.003,27.8776 221.378,27.6224 221.648,27.5495 C221.753,27.5287 221.862,27.5182 221.977,27.5182 C222.518,27.5182 222.878,27.7891 223.055,28.3307 C223.117,28.5287 223.148,28.7526 223.148,29.0026 L223.148,31.2995 C223.148,31.612 223.221,31.8047 223.367,31.8776 C223.461,31.9089 223.591,31.9349 223.758,31.9557 L223.758,32.112 L221.68,32.112 L221.68,31.9557 C221.982,31.9349 222.169,31.836 222.242,31.6589 C222.294,31.5443 222.32,31.3672 222.32,31.1276 L222.32,29.0339 C222.299,28.388 222.055,28.0599 221.586,28.0495 C221.336,28.0495 221.075,28.1641 220.805,28.3932 C220.732,28.4662 220.648,28.5443 220.555,28.6276 L220.555,31.4401 C220.555,31.6797 220.654,31.836 220.852,31.9089 C220.945,31.9297 221.065,31.9453 221.211,31.9557 L221.211,32.112 L219.102,32.112 L219.102,31.9557 C219.393,31.9349 219.575,31.8516 219.648,31.7057 C219.69,31.5912 219.711,31.4245 219.711,31.2057 L219.711,28.7214 C219.711,28.3568 219.638,28.1537 219.492,28.112 C219.45,28.0912 219.404,28.0807 219.352,28.0807 C219.227,28.0807 219.133,28.0964 219.07,28.1276 M224.945,29.3464 C224.987,30.5235 225.372,31.2162 226.102,31.4245 C226.227,31.4662 226.362,31.487 226.508,31.487 C226.997,31.487 227.414,31.2787 227.758,30.862 C227.852,30.7474 227.95,30.612 228.055,30.4557 L228.211,30.5182 C227.846,31.4766 227.273,32.0287 226.492,32.1745 C226.357,32.1953 226.227,32.2057 226.102,32.2057 C225.362,32.2057 224.831,31.8932 224.508,31.2682 C224.32,30.8932 224.227,30.461 224.227,29.9714 C224.227,29.086 224.503,28.4141 225.055,27.9557 C225.419,27.6641 225.841,27.5182 226.32,27.5182 C227.237,27.5182 227.789,28.0391 227.977,29.0807 C227.997,29.1745 228.013,29.263 228.023,29.3464 L224.945,29.3464 M224.961,29.0495 L227.008,29.0495 C226.914,28.4766 226.747,28.1224 226.508,27.987 C226.383,27.9245 226.221,27.8932 226.023,27.8932 C225.43,27.8932 225.075,28.2682 224.961,29.0182 C224.961,29.0287 224.961,29.0391 224.961,29.0495 M233.43,27.5182 C234.169,27.5182 234.753,27.7891 235.18,28.3307 C235.482,28.737 235.633,29.2162 235.633,29.7682 C235.633,30.5495 235.378,31.1745 234.867,31.6432 C234.45,32.0182 233.966,32.2057 233.414,32.2057 C232.706,32.2057 232.143,31.9349 231.727,31.3932 C231.393,30.9557 231.227,30.4401 231.227,29.8464 C231.227,29.0339 231.503,28.4089 232.055,27.9714 C232.44,27.6693 232.898,27.5182 233.43,27.5182 M232.133,29.362 C232.133,30.2682 232.32,30.961 232.695,31.4401 C232.935,31.7526 233.216,31.9089 233.539,31.9089 C234.06,31.9089 234.419,31.612 234.617,31.0182 C234.7,30.7578 234.742,30.461 234.742,30.1276 C234.742,29.2422 234.529,28.586 234.102,28.1589 C233.872,27.9297 233.607,27.8151 233.305,27.8151 C232.836,27.8151 232.497,28.0547 232.289,28.5339 C232.185,28.7735 232.133,29.0495 232.133,29.362 M236.227,29.987 C236.227,29.1432 236.513,28.4818 237.086,28.0026 C237.482,27.6797 237.924,27.5182 238.414,27.5182 C238.966,27.5182 239.393,27.6693 239.695,27.9714 C239.872,28.1485 239.961,28.3412 239.961,28.5495 C239.961,28.7266 239.867,28.8516 239.68,28.9245 C239.607,28.9557 239.539,28.9714 239.477,28.9714 C239.268,28.9714 239.117,28.836 239.023,28.5651 C239.013,28.5443 239.008,28.5235 239.008,28.5026 L238.945,28.2839 C238.883,28.0339 238.768,27.888 238.602,27.8464 C238.529,27.8255 238.445,27.8151 238.352,27.8151 C237.852,27.8151 237.471,28.0547 237.211,28.5339 C237.065,28.8255 236.992,29.1641 236.992,29.5495 C236.992,30.2787 237.216,30.8255 237.664,31.1901 C237.924,31.388 238.216,31.487 238.539,31.487 C238.956,31.487 239.315,31.3203 239.617,30.987 C239.721,30.862 239.836,30.7162 239.961,30.5495 L240.102,30.6432 C239.727,31.362 239.31,31.8307 238.852,32.0495 C238.612,32.1537 238.372,32.2057 238.133,32.2057 C237.487,32.2057 236.982,31.9401 236.617,31.4089 C236.357,31.0026 236.227,30.5287 236.227,29.987 M242.57,27.612 L242.57,27.9089 L241.555,27.9089 L241.555,30.7682 C241.555,31.3099 241.69,31.6068 241.961,31.6589 C241.992,31.6693 242.029,31.6745 242.07,31.6745 C242.279,31.6641 242.482,31.5443 242.68,31.3151 L242.805,31.4401 C242.482,31.9505 242.081,32.2057 241.602,32.2057 C241.018,32.1953 240.721,31.7735 240.711,30.9401 L240.711,27.9089 L240.18,27.9089 C240.159,27.888 240.148,27.8672 240.148,27.8464 C240.148,27.8047 240.19,27.763 240.273,27.7214 C240.555,27.5339 240.888,27.1693 241.273,26.6276 C241.284,26.6172 241.289,26.612 241.289,26.612 C241.393,26.4557 241.461,26.362 241.492,26.3307 C241.534,26.3412 241.555,26.3828 241.555,26.4557 L241.555,27.612 L242.57,27.612 M243.227,31.1432 C243.227,30.6328 243.544,30.2005 244.18,29.8464 C244.367,29.7526 244.867,29.5391 245.68,29.2057 C245.7,29.2057 245.716,29.2005 245.727,29.1901 L245.727,28.5807 C245.674,28.0599 245.419,27.7839 244.961,27.7526 C244.648,27.7526 244.43,27.8516 244.305,28.0495 C244.263,28.1224 244.242,28.1849 244.242,28.237 C244.242,28.2995 244.253,28.3828 244.273,28.487 C244.284,28.5599 244.289,28.612 244.289,28.6432 C244.289,28.8203 244.2,28.9453 244.023,29.0182 C243.961,29.0495 243.904,29.0651 243.852,29.0651 C243.664,29.0651 243.534,28.9766 243.461,28.7995 C243.43,28.7474 243.414,28.6901 243.414,28.6276 C243.414,28.263 243.633,27.9662 244.07,27.737 C244.372,27.5912 244.716,27.5182 245.102,27.5182 C245.82,27.5182 246.263,27.7735 246.43,28.2839 C246.503,28.5026 246.539,28.7787 246.539,29.112 L246.539,31.0495 C246.539,31.3828 246.602,31.5703 246.727,31.612 C246.768,31.6224 246.805,31.6276 246.836,31.6276 C246.982,31.6172 247.128,31.5547 247.273,31.4401 L247.273,31.6901 C247.003,32.0026 246.753,32.1745 246.523,32.2057 C246.471,32.2057 246.419,32.2057 246.367,32.2057 C246.055,32.2057 245.857,32.0495 245.773,31.737 C245.753,31.6537 245.742,31.5599 245.742,31.4557 C245.148,31.9349 244.659,32.1849 244.273,32.2057 C243.846,32.2057 243.539,32.0339 243.352,31.6901 C243.268,31.5235 243.227,31.3412 243.227,31.1432 M245.727,30.862 L245.727,29.4245 C244.904,29.7266 244.398,30.0339 244.211,30.3464 C244.138,30.4922 244.102,30.6485 244.102,30.8151 C244.102,31.211 244.247,31.461 244.539,31.5651 C244.612,31.5964 244.68,31.612 244.742,31.612 C244.961,31.6016 245.2,31.5235 245.461,31.3776 C245.607,31.2943 245.69,31.1901 245.711,31.0651 C245.721,31.0026 245.727,30.9349 245.727,30.862 M251.602,27.612 L251.602,27.7682 C251.435,27.7891 251.31,27.8568 251.227,27.9714 C251.154,28.0755 251.065,28.2682 250.961,28.5495 L249.68,31.7526 C249.544,32.0755 249.45,32.2422 249.398,32.2526 C249.325,32.2526 249.242,32.1068 249.148,31.8151 C249.138,31.8047 249.133,31.7943 249.133,31.7839 L247.93,28.9089 C247.68,28.3151 247.492,27.9662 247.367,27.862 C247.284,27.7995 247.169,27.7682 247.023,27.7682 L247.023,27.612 L248.992,27.612 L248.992,27.7682 C248.711,27.7891 248.56,27.862 248.539,27.987 C248.529,28.0078 248.523,28.0287 248.523,28.0495 C248.523,28.1641 248.555,28.2839 248.617,28.4089 L249.633,30.9714 L250.617,28.3776 C250.659,28.2839 250.68,28.1849 250.68,28.0807 C250.68,27.9037 250.534,27.7995 250.242,27.7682 C250.232,27.7682 250.221,27.7682 250.211,27.7682 L250.211,27.612 L251.602,27.612 M252.945,29.3464 C252.987,30.5235 253.372,31.2162 254.102,31.4245 C254.227,31.4662 254.362,31.487 254.508,31.487 C254.997,31.487 255.414,31.2787 255.758,30.862 C255.852,30.7474 255.95,30.612 256.055,30.4557 L256.211,30.5182 C255.846,31.4766 255.273,32.0287 254.492,32.1745 C254.357,32.1953 254.227,32.2057 254.102,32.2057 C253.362,32.2057 252.831,31.8932 252.508,31.2682 C252.32,30.8932 252.227,30.461 252.227,29.9714 C252.227,29.086 252.503,28.4141 253.055,27.9557 C253.419,27.6641 253.841,27.5182 254.32,27.5182 C255.237,27.5182 255.789,28.0391 255.977,29.0807 C255.997,29.1745 256.013,29.263 256.023,29.3464 L252.945,29.3464 M252.961,29.0495 L255.008,29.0495 C254.914,28.4766 254.747,28.1224 254.508,27.987 C254.383,27.9245 254.221,27.8932 254.023,27.8932 C253.43,27.8932 253.075,28.2682 252.961,29.0182 C252.961,29.0287 252.961,29.0391 252.961,29.0495"/>
</svg>
